<svg xmlns="http://www.w3.org/2000/svg" viewBox="0 0 870 505">
  <rect x="0" y="0" width="870" height="505" rx="5" ry="5" fill="#222" />
  <text x="60" y="100" fill="white" font-family="sans-serif" font-weight="bold" font-size="12" text-anchor="end" dominant-baseline="middle">ba</text>
  <text x="60" y="135" fill="white" font-family="sans-serif" font-weight="bold" font-size="12" text-anchor="end" dominant-baseline="middle">det</text>
  <text x="60" y="170" fill="white" font-family="sans-serif" font-weight="bold" font-size="12" text-anchor="end" dominant-baseline="middle">gmm</text>
  <text x="60" y="205" fill="white" font-family="sans-serif" font-weight="bold" font-size="12" text-anchor="end" dominant-baseline="middle">hello</text>
  <text x="60" y="240" fill="white" font-family="sans-serif" font-weight="bold" font-size="12" text-anchor="end" dominant-baseline="middle">ht</text>
  <text x="60" y="275" fill="white" font-family="sans-serif" font-weight="bold" font-size="12" text-anchor="end" dominant-baseline="middle">kmeans</text>
  <text x="60" y="310" fill="white" font-family="sans-serif" font-weight="bold" font-size="12" text-anchor="end" dominant-baseline="middle">llsq</text>
  <text x="60" y="345" fill="white" font-family="sans-serif" font-weight="bold" font-size="12" text-anchor="end" dominant-baseline="middle">lse</text>
  <text x="60" y="380" fill="white" font-family="sans-serif" font-weight="bold" font-size="12" text-anchor="end" dominant-baseline="middle">lstm</text>
  <text x="60" y="415" fill="white" font-family="sans-serif" font-weight="bold" font-size="12" text-anchor="end" dominant-baseline="middle">ode</text>
  <text x="60" y="450" fill="white" font-family="sans-serif" font-weight="bold" font-size="12" text-anchor="end" dominant-baseline="middle">particle</text>
  <text x="60" y="485" fill="white" font-family="sans-serif" font-weight="bold" font-size="12" text-anchor="end" dominant-baseline="middle">saddle</text>
  <text x="80" y="80" fill="white" font-family="sans-serif" font-weight="bold" font-size="12" text-anchor="end" dominant-baseline="middle" transform="rotate(90 80 80)">ad-hpp</text>
  <text x="115" y="80" fill="white" font-family="sans-serif" font-weight="bold" font-size="12" text-anchor="end" dominant-baseline="middle" transform="rotate(90 115 80)">adept</text>
  <text x="150" y="80" fill="white" font-family="sans-serif" font-weight="bold" font-size="12" text-anchor="end" dominant-baseline="middle" transform="rotate(90 150 80)">adol-c</text>
  <text x="185" y="80" fill="white" font-family="sans-serif" font-weight="bold" font-size="12" text-anchor="end" dominant-baseline="middle" transform="rotate(90 185 80)">codipack</text>
  <text x="220" y="80" fill="white" font-family="sans-serif" font-weight="bold" font-size="12" text-anchor="end" dominant-baseline="middle" transform="rotate(90 220 80)">cppad</text>
  <text x="255" y="80" fill="white" font-family="sans-serif" font-weight="bold" font-size="12" text-anchor="end" dominant-baseline="middle" transform="rotate(90 255 80)">enzyme</text>
  <text x="290" y="80" fill="white" font-family="sans-serif" font-weight="bold" font-size="12" text-anchor="end" dominant-baseline="middle" transform="rotate(90 290 80)">enzyme-jl</text>
  <text x="325" y="80" fill="white" font-family="sans-serif" font-weight="bold" font-size="12" text-anchor="end" dominant-baseline="middle" transform="rotate(90 325 80)">finite</text>
  <text x="360" y="80" fill="white" font-family="sans-serif" font-weight="bold" font-size="12" text-anchor="end" dominant-baseline="middle" transform="rotate(90 360 80)">floretta</text>
  <text x="395" y="80" fill="white" font-family="sans-serif" font-weight="bold" font-size="12" text-anchor="end" dominant-baseline="middle" transform="rotate(90 395 80)">forwarddiff-jl</text>
  <text x="430" y="80" fill="white" font-family="sans-serif" font-weight="bold" font-size="12" text-anchor="end" dominant-baseline="middle" transform="rotate(90 430 80)">futhark</text>
  <text x="465" y="80" fill="white" font-family="sans-serif" font-weight="bold" font-size="12" text-anchor="end" dominant-baseline="middle" transform="rotate(90 465 80)">haskell</text>
  <text x="500" y="80" fill="white" font-family="sans-serif" font-weight="bold" font-size="12" text-anchor="end" dominant-baseline="middle" transform="rotate(90 500 80)">jax</text>
  <text x="535" y="80" fill="white" font-family="sans-serif" font-weight="bold" font-size="12" text-anchor="end" dominant-baseline="middle" transform="rotate(90 535 80)">manual</text>
  <text x="570" y="80" fill="white" font-family="sans-serif" font-weight="bold" font-size="12" text-anchor="end" dominant-baseline="middle" transform="rotate(90 570 80)">mooncake-jl</text>
  <text x="605" y="80" fill="white" font-family="sans-serif" font-weight="bold" font-size="12" text-anchor="end" dominant-baseline="middle" transform="rotate(90 605 80)">ocaml</text>
  <text x="640" y="80" fill="white" font-family="sans-serif" font-weight="bold" font-size="12" text-anchor="end" dominant-baseline="middle" transform="rotate(90 640 80)">pytorch</text>
  <text x="675" y="80" fill="white" font-family="sans-serif" font-weight="bold" font-size="12" text-anchor="end" dominant-baseline="middle" transform="rotate(90 675 80)">reversediff-jl</text>
  <text x="710" y="80" fill="white" font-family="sans-serif" font-weight="bold" font-size="12" text-anchor="end" dominant-baseline="middle" transform="rotate(90 710 80)">scilean</text>
  <text x="745" y="80" fill="white" font-family="sans-serif" font-weight="bold" font-size="12" text-anchor="end" dominant-baseline="middle" transform="rotate(90 745 80)">tapenade</text>
  <text x="780" y="80" fill="white" font-family="sans-serif" font-weight="bold" font-size="12" text-anchor="end" dominant-baseline="middle" transform="rotate(90 780 80)">tensorflow</text>
  <text x="815" y="80" fill="white" font-family="sans-serif" font-weight="bold" font-size="12" text-anchor="end" dominant-baseline="middle" transform="rotate(90 815 80)">tensorflow-js</text>
  <text x="850" y="80" fill="white" font-family="sans-serif" font-weight="bold" font-size="12" text-anchor="end" dominant-baseline="middle" transform="rotate(90 850 80)">zygote</text>
  <rect x="65" y="85" width="30" height="30" fill="hsl(240 100% 81.14203511355022%)" />
  <rect x="100" y="85" width="30" height="30" fill="hsl(240 100% 82.88952172732488%)" />
  <rect x="135" y="85" width="30" height="30" fill="hsl(240 100% 97.98227099940868%)" />
  <rect x="170" y="85" width="30" height="30" fill="hsl(240 100% 82.46418477355095%)" />
  <rect x="205" y="85" width="30" height="30" fill="hsl(240 100% 99.00123540161347%)" />
  <rect x="240" y="85" width="30" height="30" fill="hsl(240 100% 51.925060702678024%)" />
  <rect x="310" y="85" width="30" height="30" fill="hsl(240 100% 93.28380284714828%)" />
  <rect x="415" y="85" width="30" height="30" fill="hsl(240 100% 68.18283745961665%)" />
  <rect x="520" y="85" width="30" height="30" fill="hsl(240 100% 50%)" />
  <rect x="625" y="85" width="30" height="30" fill="rgb(255 255 255 / 50%)" />
  <rect x="730" y="85" width="30" height="30" fill="hsl(240 100% 75.02730039134738%)" />
  <rect x="765" y="85" width="30" height="30" fill="rgb(255 255 255 / 50%)" />
  <rect x="835" y="85" width="30" height="30" fill="hsl(240 100% 99.74089189927791%)" />
  <rect x="65" y="120" width="30" height="30" fill="hsl(240 100% 50%)" />
  <rect x="100" y="120" width="30" height="30" fill="hsl(240 100% 83.06508149664725%)" />
  <rect x="135" y="120" width="30" height="30" fill="hsl(240 100% 85.53148135679278%)" />
  <rect x="170" y="120" width="30" height="30" fill="hsl(240 100% 52.22588697434157%)" />
  <rect x="205" y="120" width="30" height="30" fill="hsl(240 100% 92.45845588599784%)" />
  <rect x="240" y="120" width="30" height="30" fill="hsl(240 100% 91.30557539421983%)" />
  <rect x="275" y="120" width="30" height="30" fill="hsl(240 100% 99.35457195363553%)" />
  <rect x="310" y="120" width="30" height="30" fill="hsl(240 100% 98.99069618321401%)" />
  <rect x="380" y="120" width="30" height="30" fill="hsl(240 100% 93.32798205253384%)" />
  <rect x="415" y="120" width="30" height="30" fill="hsl(240 100% 94.60706647446105%)" />
  <rect x="450" y="120" width="30" height="30" fill="hsl(240 100% 97.8587471613283%)" />
  <rect x="520" y="120" width="30" height="30" fill="hsl(240 100% 79.72682739136103%)" />
  <rect x="555" y="120" width="30" height="30" fill="hsl(240 100% 91.74546971191546%)" />
  <rect x="660" y="120" width="30" height="30" fill="rgb(255 255 255 / 50%)" />
  <rect x="835" y="120" width="30" height="30" fill="rgb(255 255 255 / 50%)" />
  <rect x="65" y="155" width="30" height="30" fill="hsl(240 100% 98.26340132806953%)" />
  <rect x="100" y="155" width="30" height="30" fill="hsl(240 100% 98.68475010224027%)" />
  <rect x="135" y="155" width="30" height="30" fill="hsl(240 100% 99.0383867784692%)" />
  <rect x="170" y="155" width="30" height="30" fill="hsl(240 100% 97.87778721603875%)" />
  <rect x="205" y="155" width="30" height="30" fill="hsl(240 100% 99.8360038766137%)" />
  <rect x="240" y="155" width="30" height="30" fill="hsl(240 100% 90.39545714140766%)" />
  <rect x="275" y="155" width="30" height="30" fill="hsl(240 100% 91.5122298295385%)" />
  <rect x="310" y="155" width="30" height="30" fill="rgb(255 255 255 / 50%)" />
  <rect x="415" y="155" width="30" height="30" fill="hsl(240 100% 92.3033956819218%)" />
  <rect x="485" y="155" width="30" height="30" fill="hsl(240 100% 50%)" />
  <rect x="520" y="155" width="30" height="30" fill="hsl(240 100% 81.8442520981294%)" />
  <rect x="590" y="155" width="30" height="30" fill="hsl(240 100% 99.57075589674015%)" />
  <rect x="625" y="155" width="30" height="30" fill="hsl(240 100% 63.871033500727954%)" />
  <rect x="695" y="155" width="30" height="30" fill="hsl(240 100% 95.02980947597538%)" />
  <rect x="730" y="155" width="30" height="30" fill="hsl(240 100% 82.1436902983013%)" />
  <rect x="765" y="155" width="30" height="30" fill="hsl(240 100% 99.5499956613569%)" />
  <rect x="835" y="155" width="30" height="30" fill="hsl(240 100% 96.19203963151789%)" />
  <rect x="65" y="190" width="30" height="30" fill="hsl(240 100% 50%)" />
  <rect x="100" y="190" width="30" height="30" fill="hsl(240 100% 50%)" />
  <rect x="135" y="190" width="30" height="30" fill="hsl(240 100% 50%)" />
  <rect x="170" y="190" width="30" height="30" fill="hsl(240 100% 50%)" />
  <rect x="205" y="190" width="30" height="30" fill="hsl(240 100% 50%)" />
  <rect x="240" y="190" width="30" height="30" fill="hsl(240 100% 50%)" />
  <rect x="275" y="190" width="30" height="30" fill="hsl(240 100% 50%)" />
  <rect x="310" y="190" width="30" height="30" fill="hsl(240 100% 50%)" />
  <rect x="345" y="190" width="30" height="30" fill="hsl(240 100% 50%)" />
  <rect x="380" y="190" width="30" height="30" fill="hsl(240 100% 50%)" />
  <rect x="415" y="190" width="30" height="30" fill="hsl(240 100% 50%)" />
  <rect x="450" y="190" width="30" height="30" fill="hsl(240 100% 50%)" />
  <rect x="485" y="190" width="30" height="30" fill="hsl(240 100% 50%)" />
  <rect x="520" y="190" width="30" height="30" fill="hsl(240 100% 50%)" />
  <rect x="555" y="190" width="30" height="30" fill="hsl(240 100% 50%)" />
  <rect x="590" y="190" width="30" height="30" fill="hsl(240 100% 50%)" />
  <rect x="625" y="190" width="30" height="30" fill="hsl(240 100% 50%)" />
  <rect x="660" y="190" width="30" height="30" fill="hsl(240 100% 50%)" />
  <rect x="695" y="190" width="30" height="30" fill="hsl(240 100% 50%)" />
  <rect x="730" y="190" width="30" height="30" fill="hsl(240 100% 50%)" />
  <rect x="765" y="190" width="30" height="30" fill="hsl(240 100% 50%)" />
  <rect x="800" y="190" width="30" height="30" fill="hsl(240 100% 50%)" />
  <rect x="835" y="190" width="30" height="30" fill="hsl(240 100% 50%)" />
  <rect x="100" y="225" width="30" height="30" fill="hsl(240 100% 96.6769537901073%)" />
  <rect x="135" y="225" width="30" height="30" fill="hsl(240 100% 89.18754103494528%)" />
  <rect x="170" y="225" width="30" height="30" fill="hsl(240 100% 89.3155030372846%)" />
  <rect x="240" y="225" width="30" height="30" fill="hsl(240 100% 91.24027513647529%)" />
  <rect x="310" y="225" width="30" height="30" fill="rgb(255 255 255 / 50%)" />
  <rect x="415" y="225" width="30" height="30" fill="hsl(240 100% 90.47436723315427%)" />
  <rect x="520" y="225" width="30" height="30" fill="hsl(240 100% 50%)" />
  <rect x="625" y="225" width="30" height="30" fill="rgb(255 255 255 / 50%)" />
  <rect x="730" y="225" width="30" height="30" fill="hsl(240 100% 93.24933763559652%)" />
  <rect x="765" y="225" width="30" height="30" fill="rgb(255 255 255 / 50%)" />
  <rect x="835" y="225" width="30" height="30" fill="hsl(240 100% 94.22259130817004%)" />
  <rect x="65" y="260" width="30" height="30" fill="hsl(240 100% 99.84431071570462%)" />
  <rect x="135" y="260" width="30" height="30" fill="hsl(240 100% 99.8548950574751%)" />
  <rect x="170" y="260" width="30" height="30" fill="hsl(240 100% 98.893698201372%)" />
  <rect x="205" y="260" width="30" height="30" fill="rgb(255 255 255 / 50%)" />
  <rect x="240" y="260" width="30" height="30" fill="hsl(240 100% 87.19499903330252%)" />
  <rect x="310" y="260" width="30" height="30" fill="rgb(255 255 255 / 50%)" />
  <rect x="415" y="260" width="30" height="30" fill="hsl(240 100% 80.67552320874373%)" />
  <rect x="450" y="260" width="30" height="30" fill="rgb(255 255 255 / 50%)" />
  <rect x="485" y="260" width="30" height="30" fill="hsl(240 100% 50%)" />
  <rect x="520" y="260" width="30" height="30" fill="hsl(240 100% 71.27406959257578%)" />
  <rect x="625" y="260" width="30" height="30" fill="hsl(240 100% 96.98234438763836%)" />
  <rect x="695" y="260" width="30" height="30" fill="hsl(240 100% 94.12859592724607%)" />
  <rect x="65" y="295" width="30" height="30" fill="hsl(240 100% 85.83986981196456%)" />
  <rect x="100" y="295" width="30" height="30" fill="hsl(240 100% 97.52074711146523%)" />
  <rect x="135" y="295" width="30" height="30" fill="hsl(240 100% 95.24854503694299%)" />
  <rect x="170" y="295" width="30" height="30" fill="hsl(240 100% 90.56981536638612%)" />
  <rect x="205" y="295" width="30" height="30" fill="hsl(240 100% 99.45986944191651%)" />
  <rect x="240" y="295" width="30" height="30" fill="hsl(240 100% 50%)" />
  <rect x="275" y="295" width="30" height="30" fill="hsl(240 100% 50.00371522123673%)" />
  <rect x="310" y="295" width="30" height="30" fill="hsl(240 100% 99.49348065914141%)" />
  <rect x="345" y="295" width="30" height="30" fill="hsl(240 100% 94.65881716556919%)" />
  <rect x="415" y="295" width="30" height="30" fill="hsl(240 100% 54.6797484271779%)" />
  <rect x="450" y="295" width="30" height="30" fill="hsl(240 100% 99.32542676590352%)" />
  <rect x="485" y="295" width="30" height="30" fill="hsl(240 100% 88.22482151015464%)" />
  <rect x="520" y="295" width="30" height="30" fill="hsl(240 100% 57.34014309268052%)" />
  <rect x="695" y="295" width="30" height="30" fill="hsl(240 100% 97.57770206715008%)" />
  <rect x="800" y="295" width="30" height="30" fill="hsl(240 100% 99.61529010022115%)" />
  <rect x="835" y="295" width="30" height="30" fill="hsl(240 100% 99.95527833978215%)" />
  <rect x="65" y="330" width="30" height="30" fill="hsl(240 100% 88.83193347590318%)" />
  <rect x="100" y="330" width="30" height="30" fill="hsl(240 100% 94.74368143118222%)" />
  <rect x="135" y="330" width="30" height="30" fill="hsl(240 100% 97.21995179993952%)" />
  <rect x="170" y="330" width="30" height="30" fill="hsl(240 100% 88.58388001439184%)" />
  <rect x="205" y="330" width="30" height="30" fill="hsl(240 100% 99.20787233449165%)" />
  <rect x="240" y="330" width="30" height="30" fill="hsl(240 100% 79.57882446565947%)" />
  <rect x="275" y="330" width="30" height="30" fill="hsl(240 100% 87.92374586432865%)" />
  <rect x="310" y="330" width="30" height="30" fill="rgb(255 255 255 / 50%)" />
  <rect x="345" y="330" width="30" height="30" fill="hsl(240 100% 97.22711717977911%)" />
  <rect x="415" y="330" width="30" height="30" fill="hsl(240 100% 85.72474053693176%)" />
  <rect x="450" y="330" width="30" height="30" fill="hsl(240 100% 99.79689138921775%)" />
  <rect x="485" y="330" width="30" height="30" fill="hsl(240 100% 70.48552144953956%)" />
  <rect x="520" y="330" width="30" height="30" fill="hsl(240 100% 76.87385623204543%)" />
  <rect x="590" y="330" width="30" height="30" fill="hsl(240 100% 93.77604745852395%)" />
  <rect x="625" y="330" width="30" height="30" fill="hsl(240 100% 50%)" />
  <rect x="765" y="330" width="30" height="30" fill="hsl(240 100% 94.81184991309259%)" />
  <rect x="800" y="330" width="30" height="30" fill="hsl(240 100% 99.20568993973845%)" />
  <rect x="835" y="330" width="30" height="30" fill="hsl(240 100% 80.13171976462112%)" />
  <rect x="65" y="365" width="30" height="30" fill="hsl(240 100% 57.35247264540054%)" />
  <rect x="100" y="365" width="30" height="30" fill="hsl(240 100% 71.30700303739826%)" />
  <rect x="135" y="365" width="30" height="30" fill="hsl(240 100% 82.43585964614854%)" />
  <rect x="170" y="365" width="30" height="30" fill="hsl(240 100% 50%)" />
  <rect x="205" y="365" width="30" height="30" fill="hsl(240 100% 96.15105725572991%)" />
  <rect x="240" y="365" width="30" height="30" fill="hsl(240 100% 59.40797930833792%)" />
  <rect x="275" y="365" width="30" height="30" fill="hsl(240 100% 92.3231105707865%)" />
  <rect x="310" y="365" width="30" height="30" fill="hsl(240 100% 99.86078653135019%)" />
  <rect x="415" y="365" width="30" height="30" fill="hsl(240 100% 66.29351818080616%)" />
  <rect x="520" y="365" width="30" height="30" fill="hsl(240 100% 85.9170131286986%)" />
  <rect x="625" y="365" width="30" height="30" fill="hsl(240 100% 99.63613535963368%)" />
  <rect x="730" y="365" width="30" height="30" fill="hsl(240 100% 63.082413318080405%)" />
  <rect x="765" y="365" width="30" height="30" fill="hsl(240 100% 98.12896922989871%)" />
  <rect x="835" y="365" width="30" height="30" fill="hsl(240 100% 98.74658614012223%)" />
  <rect x="65" y="400" width="30" height="30" fill="hsl(240 100% 97.74739185164411%)" />
  <rect x="100" y="400" width="30" height="30" fill="hsl(240 100% 99.32270691174392%)" />
  <rect x="135" y="400" width="30" height="30" fill="hsl(240 100% 99.59927071644108%)" />
  <rect x="170" y="400" width="30" height="30" fill="hsl(240 100% 94.38807570069028%)" />
  <rect x="205" y="400" width="30" height="30" fill="hsl(240 100% 99.07433865090405%)" />
  <rect x="240" y="400" width="30" height="30" fill="hsl(240 100% 84.1828774357098%)" />
  <rect x="275" y="400" width="30" height="30" fill="hsl(240 100% 94.28670008769586%)" />
  <rect x="310" y="400" width="30" height="30" fill="rgb(255 255 255 / 50%)" />
  <rect x="380" y="400" width="30" height="30" fill="rgb(255 255 255 / 50%)" />
  <rect x="415" y="400" width="30" height="30" fill="hsl(240 100% 92.65418215384551%)" />
  <rect x="450" y="400" width="30" height="30" fill="hsl(240 100% 99.96511706689425%)" />
  <rect x="485" y="400" width="30" height="30" fill="hsl(240 100% 73.82115865020162%)" />
  <rect x="520" y="400" width="30" height="30" fill="hsl(240 100% 50%)" />
  <rect x="555" y="400" width="30" height="30" fill="hsl(240 100% 98.92110598257773%)" />
  <rect x="660" y="400" width="30" height="30" fill="rgb(255 255 255 / 50%)" />
  <rect x="835" y="400" width="30" height="30" fill="hsl(240 100% 98.8945477726856%)" />
  <rect x="65" y="435" width="30" height="30" fill="hsl(240 100% 92.8621871800099%)" />
  <rect x="240" y="435" width="30" height="30" fill="hsl(240 100% 50%)" />
  <rect x="310" y="435" width="30" height="30" fill="hsl(240 100% 94.3200531102017%)" />
  <rect x="415" y="435" width="30" height="30" fill="hsl(240 100% 87.0168933276668%)" />
  <rect x="450" y="435" width="30" height="30" fill="hsl(240 100% 99.78632225118008%)" />
  <rect x="65" y="470" width="30" height="30" fill="hsl(240 100% 50%)" />
  <rect x="240" y="470" width="30" height="30" fill="hsl(240 100% 50.28421707360927%)" />
  <rect x="310" y="470" width="30" height="30" fill="hsl(240 100% 97.14853956270947%)" />
  <rect x="415" y="470" width="30" height="30" fill="hsl(240 100% 89.0348241193989%)" />
  <rect x="450" y="470" width="30" height="30" fill="hsl(240 100% 99.56723149456894%)" />
</svg>
