<svg xmlns="http://www.w3.org/2000/svg" viewBox="0 0 625 295">
  <rect x="0" y="0" width="625" height="295" rx="5" ry="5" fill="#222" />
  <text x="60" y="100" fill="white" font-family="sans-serif" font-weight="bold" font-size="12" text-anchor="end" dominant-baseline="middle">ba</text>
  <text x="60" y="135" fill="white" font-family="sans-serif" font-weight="bold" font-size="12" text-anchor="end" dominant-baseline="middle">gmm</text>
  <text x="60" y="170" fill="white" font-family="sans-serif" font-weight="bold" font-size="12" text-anchor="end" dominant-baseline="middle">hello</text>
  <text x="60" y="205" fill="white" font-family="sans-serif" font-weight="bold" font-size="12" text-anchor="end" dominant-baseline="middle">ht</text>
  <text x="60" y="240" fill="white" font-family="sans-serif" font-weight="bold" font-size="12" text-anchor="end" dominant-baseline="middle">kmeans</text>
  <text x="60" y="275" fill="white" font-family="sans-serif" font-weight="bold" font-size="12" text-anchor="end" dominant-baseline="middle">lstm</text>
  <text x="80" y="80" fill="white" font-family="sans-serif" font-weight="bold" font-size="12" text-anchor="end" dominant-baseline="middle" transform="rotate(90 80 80)">adept</text>
  <text x="115" y="80" fill="white" font-family="sans-serif" font-weight="bold" font-size="12" text-anchor="end" dominant-baseline="middle" transform="rotate(90 115 80)">adol-c</text>
  <text x="150" y="80" fill="white" font-family="sans-serif" font-weight="bold" font-size="12" text-anchor="end" dominant-baseline="middle" transform="rotate(90 150 80)">cppad</text>
  <text x="185" y="80" fill="white" font-family="sans-serif" font-weight="bold" font-size="12" text-anchor="end" dominant-baseline="middle" transform="rotate(90 185 80)">enzyme</text>
  <text x="220" y="80" fill="white" font-family="sans-serif" font-weight="bold" font-size="12" text-anchor="end" dominant-baseline="middle" transform="rotate(90 220 80)">finite</text>
  <text x="255" y="80" fill="white" font-family="sans-serif" font-weight="bold" font-size="12" text-anchor="end" dominant-baseline="middle" transform="rotate(90 255 80)">floretta</text>
  <text x="290" y="80" fill="white" font-family="sans-serif" font-weight="bold" font-size="12" text-anchor="end" dominant-baseline="middle" transform="rotate(90 290 80)">futhark</text>
  <text x="325" y="80" fill="white" font-family="sans-serif" font-weight="bold" font-size="12" text-anchor="end" dominant-baseline="middle" transform="rotate(90 325 80)">haskell</text>
  <text x="360" y="80" fill="white" font-family="sans-serif" font-weight="bold" font-size="12" text-anchor="end" dominant-baseline="middle" transform="rotate(90 360 80)">jax</text>
  <text x="395" y="80" fill="white" font-family="sans-serif" font-weight="bold" font-size="12" text-anchor="end" dominant-baseline="middle" transform="rotate(90 395 80)">manual</text>
  <text x="430" y="80" fill="white" font-family="sans-serif" font-weight="bold" font-size="12" text-anchor="end" dominant-baseline="middle" transform="rotate(90 430 80)">ocaml</text>
  <text x="465" y="80" fill="white" font-family="sans-serif" font-weight="bold" font-size="12" text-anchor="end" dominant-baseline="middle" transform="rotate(90 465 80)">pytorch</text>
  <text x="500" y="80" fill="white" font-family="sans-serif" font-weight="bold" font-size="12" text-anchor="end" dominant-baseline="middle" transform="rotate(90 500 80)">scilean</text>
  <text x="535" y="80" fill="white" font-family="sans-serif" font-weight="bold" font-size="12" text-anchor="end" dominant-baseline="middle" transform="rotate(90 535 80)">tapenade</text>
  <text x="570" y="80" fill="white" font-family="sans-serif" font-weight="bold" font-size="12" text-anchor="end" dominant-baseline="middle" transform="rotate(90 570 80)">tensorflow</text>
  <text x="605" y="80" fill="white" font-family="sans-serif" font-weight="bold" font-size="12" text-anchor="end" dominant-baseline="middle" transform="rotate(90 605 80)">zygote</text>
  <rect x="65" y="85" width="30" height="30" fill="hsl(240 100% 84.32290277422504%)" />
  <rect x="100" y="85" width="30" height="30" fill="hsl(240 100% 98.00391108042494%)" />
  <rect x="170" y="85" width="30" height="30" fill="hsl(240 100% 50.16766533745701%)" />
  <rect x="205" y="85" width="30" height="30" fill="hsl(240 100% 91.97957391478946%)" />
  <rect x="275" y="85" width="30" height="30" fill="hsl(240 100% 75.85281678716923%)" />
  <rect x="380" y="85" width="30" height="30" fill="hsl(240 100% 50%)" />
  <rect x="450" y="85" width="30" height="30" fill="hsl(240 100% 99.99185378370896%)" />
  <rect x="520" y="85" width="30" height="30" fill="hsl(240 100% 73.6728057830884%)" />
  <rect x="555" y="85" width="30" height="30" fill="hsl(240 100% 99.98439938793173%)" />
  <rect x="65" y="120" width="30" height="30" fill="hsl(240 100% 96.82223786481728%)" />
  <rect x="100" y="120" width="30" height="30" fill="hsl(240 100% 97.37646056878587%)" />
  <rect x="135" y="120" width="30" height="30" fill="hsl(240 100% 98.3187218994095%)" />
  <rect x="170" y="120" width="30" height="30" fill="hsl(240 100% 83.7282535836703%)" />
  <rect x="205" y="120" width="30" height="30" fill="hsl(240 100% 99.99497620694375%)" />
  <rect x="275" y="120" width="30" height="30" fill="hsl(240 100% 82.30995149790255%)" />
  <rect x="345" y="120" width="30" height="30" fill="hsl(240 100% 69.8042985558867%)" />
  <rect x="380" y="120" width="30" height="30" fill="hsl(240 100% 63.21983423982731%)" />
  <rect x="415" y="120" width="30" height="30" fill="hsl(240 100% 99.35641991280539%)" />
  <rect x="450" y="120" width="30" height="30" fill="hsl(240 100% 50%)" />
  <rect x="485" y="120" width="30" height="30" fill="hsl(240 100% 93.1523313373859%)" />
  <rect x="520" y="120" width="30" height="30" fill="hsl(240 100% 66.59041291901578%)" />
  <rect x="555" y="120" width="30" height="30" fill="hsl(240 100% 85.49390235982057%)" />
  <rect x="65" y="155" width="30" height="30" fill="hsl(240 100% 50%)" />
  <rect x="100" y="155" width="30" height="30" fill="hsl(240 100% 50%)" />
  <rect x="135" y="155" width="30" height="30" fill="hsl(240 100% 50%)" />
  <rect x="170" y="155" width="30" height="30" fill="hsl(240 100% 50%)" />
  <rect x="205" y="155" width="30" height="30" fill="hsl(240 100% 50%)" />
  <rect x="240" y="155" width="30" height="30" fill="hsl(240 100% 50%)" />
  <rect x="275" y="155" width="30" height="30" fill="hsl(240 100% 50%)" />
  <rect x="310" y="155" width="30" height="30" fill="hsl(240 100% 50%)" />
  <rect x="345" y="155" width="30" height="30" fill="hsl(240 100% 50%)" />
  <rect x="380" y="155" width="30" height="30" fill="hsl(240 100% 50%)" />
  <rect x="415" y="155" width="30" height="30" fill="hsl(240 100% 50%)" />
  <rect x="450" y="155" width="30" height="30" fill="hsl(240 100% 50%)" />
  <rect x="485" y="155" width="30" height="30" fill="hsl(240 100% 50%)" />
  <rect x="520" y="155" width="30" height="30" fill="hsl(240 100% 50%)" />
  <rect x="555" y="155" width="30" height="30" fill="hsl(240 100% 50%)" />
  <rect x="590" y="155" width="30" height="30" fill="hsl(240 100% 50%)" />
  <rect x="65" y="190" width="30" height="30" fill="hsl(240 100% 97.18783235761387%)" />
  <rect x="100" y="190" width="30" height="30" fill="hsl(240 100% 98.04440485725954%)" />
  <rect x="170" y="190" width="30" height="30" fill="hsl(240 100% 95.1636438794856%)" />
  <rect x="205" y="190" width="30" height="30" fill="hsl(240 100% 99.29350611463752%)" />
  <rect x="275" y="190" width="30" height="30" fill="hsl(240 100% 94.29392719383888%)" />
  <rect x="380" y="190" width="30" height="30" fill="hsl(240 100% 50%)" />
  <rect x="450" y="190" width="30" height="30" fill="hsl(240 100% 99.96869738169835%)" />
  <rect x="520" y="190" width="30" height="30" fill="hsl(240 100% 99.41372779881627%)" />
  <rect x="555" y="190" width="30" height="30" fill="hsl(240 100% 99.48629183904923%)" />
  <rect x="100" y="225" width="30" height="30" fill="hsl(240 100% 99.87531173628538%)" />
  <rect x="170" y="225" width="30" height="30" fill="hsl(240 100% 87.31094169541953%)" />
  <rect x="275" y="225" width="30" height="30" fill="hsl(240 100% 81.87125346052275%)" />
  <rect x="310" y="225" width="30" height="30" fill="hsl(240 100% 99.99132049643656%)" />
  <rect x="345" y="225" width="30" height="30" fill="hsl(240 100% 50%)" />
  <rect x="380" y="225" width="30" height="30" fill="hsl(240 100% 75.33650336874942%)" />
  <rect x="450" y="225" width="30" height="30" fill="hsl(240 100% 84.39923516372644%)" />
  <rect x="65" y="260" width="30" height="30" fill="hsl(240 100% 69.69311402424665%)" />
  <rect x="100" y="260" width="30" height="30" fill="hsl(240 100% 81.52166840785554%)" />
  <rect x="135" y="260" width="30" height="30" fill="hsl(240 100% 88.35792857610224%)" />
  <rect x="170" y="260" width="30" height="30" fill="hsl(240 100% 50%)" />
  <rect x="205" y="260" width="30" height="30" fill="hsl(240 100% 99.79621449944328%)" />
  <rect x="275" y="260" width="30" height="30" fill="hsl(240 100% 62.78906067594392%)" />
  <rect x="380" y="260" width="30" height="30" fill="hsl(240 100% 78.30913847412666%)" />
  <rect x="450" y="260" width="30" height="30" fill="hsl(240 100% 99.65042806027698%)" />
  <rect x="520" y="260" width="30" height="30" fill="hsl(240 100% 59.02204114839452%)" />
  <rect x="555" y="260" width="30" height="30" fill="hsl(240 100% 98.08662420494225%)" />
</svg>
