<svg xmlns="http://www.w3.org/2000/svg" viewBox="0 0 730 505">
  <rect x="0" y="0" width="730" height="505" rx="5" ry="5" fill="#222" />
  <text x="60" y="100" fill="white" font-family="sans-serif" font-weight="bold" font-size="12" text-anchor="end" dominant-baseline="middle">ba</text>
  <text x="60" y="135" fill="white" font-family="sans-serif" font-weight="bold" font-size="12" text-anchor="end" dominant-baseline="middle">det</text>
  <text x="60" y="170" fill="white" font-family="sans-serif" font-weight="bold" font-size="12" text-anchor="end" dominant-baseline="middle">gmm</text>
  <text x="60" y="205" fill="white" font-family="sans-serif" font-weight="bold" font-size="12" text-anchor="end" dominant-baseline="middle">hello</text>
  <text x="60" y="240" fill="white" font-family="sans-serif" font-weight="bold" font-size="12" text-anchor="end" dominant-baseline="middle">ht</text>
  <text x="60" y="275" fill="white" font-family="sans-serif" font-weight="bold" font-size="12" text-anchor="end" dominant-baseline="middle">kmeans</text>
  <text x="60" y="310" fill="white" font-family="sans-serif" font-weight="bold" font-size="12" text-anchor="end" dominant-baseline="middle">llsq</text>
  <text x="60" y="345" fill="white" font-family="sans-serif" font-weight="bold" font-size="12" text-anchor="end" dominant-baseline="middle">lse</text>
  <text x="60" y="380" fill="white" font-family="sans-serif" font-weight="bold" font-size="12" text-anchor="end" dominant-baseline="middle">lstm</text>
  <text x="60" y="415" fill="white" font-family="sans-serif" font-weight="bold" font-size="12" text-anchor="end" dominant-baseline="middle">ode</text>
  <text x="60" y="450" fill="white" font-family="sans-serif" font-weight="bold" font-size="12" text-anchor="end" dominant-baseline="middle">particle</text>
  <text x="60" y="485" fill="white" font-family="sans-serif" font-weight="bold" font-size="12" text-anchor="end" dominant-baseline="middle">saddle</text>
  <text x="80" y="80" fill="white" font-family="sans-serif" font-weight="bold" font-size="12" text-anchor="end" dominant-baseline="middle" transform="rotate(90 80 80)">ad-hpp</text>
  <text x="115" y="80" fill="white" font-family="sans-serif" font-weight="bold" font-size="12" text-anchor="end" dominant-baseline="middle" transform="rotate(90 115 80)">adept</text>
  <text x="150" y="80" fill="white" font-family="sans-serif" font-weight="bold" font-size="12" text-anchor="end" dominant-baseline="middle" transform="rotate(90 150 80)">adol-c</text>
  <text x="185" y="80" fill="white" font-family="sans-serif" font-weight="bold" font-size="12" text-anchor="end" dominant-baseline="middle" transform="rotate(90 185 80)">codipack</text>
  <text x="220" y="80" fill="white" font-family="sans-serif" font-weight="bold" font-size="12" text-anchor="end" dominant-baseline="middle" transform="rotate(90 220 80)">cppad</text>
  <text x="255" y="80" fill="white" font-family="sans-serif" font-weight="bold" font-size="12" text-anchor="end" dominant-baseline="middle" transform="rotate(90 255 80)">enzyme</text>
  <text x="290" y="80" fill="white" font-family="sans-serif" font-weight="bold" font-size="12" text-anchor="end" dominant-baseline="middle" transform="rotate(90 290 80)">enzyme-jl</text>
  <text x="325" y="80" fill="white" font-family="sans-serif" font-weight="bold" font-size="12" text-anchor="end" dominant-baseline="middle" transform="rotate(90 325 80)">finite</text>
  <text x="360" y="80" fill="white" font-family="sans-serif" font-weight="bold" font-size="12" text-anchor="end" dominant-baseline="middle" transform="rotate(90 360 80)">floretta</text>
  <text x="395" y="80" fill="white" font-family="sans-serif" font-weight="bold" font-size="12" text-anchor="end" dominant-baseline="middle" transform="rotate(90 395 80)">futhark</text>
  <text x="430" y="80" fill="white" font-family="sans-serif" font-weight="bold" font-size="12" text-anchor="end" dominant-baseline="middle" transform="rotate(90 430 80)">haskell</text>
  <text x="465" y="80" fill="white" font-family="sans-serif" font-weight="bold" font-size="12" text-anchor="end" dominant-baseline="middle" transform="rotate(90 465 80)">jax</text>
  <text x="500" y="80" fill="white" font-family="sans-serif" font-weight="bold" font-size="12" text-anchor="end" dominant-baseline="middle" transform="rotate(90 500 80)">manual</text>
  <text x="535" y="80" fill="white" font-family="sans-serif" font-weight="bold" font-size="12" text-anchor="end" dominant-baseline="middle" transform="rotate(90 535 80)">ocaml</text>
  <text x="570" y="80" fill="white" font-family="sans-serif" font-weight="bold" font-size="12" text-anchor="end" dominant-baseline="middle" transform="rotate(90 570 80)">pytorch</text>
  <text x="605" y="80" fill="white" font-family="sans-serif" font-weight="bold" font-size="12" text-anchor="end" dominant-baseline="middle" transform="rotate(90 605 80)">scilean</text>
  <text x="640" y="80" fill="white" font-family="sans-serif" font-weight="bold" font-size="12" text-anchor="end" dominant-baseline="middle" transform="rotate(90 640 80)">tapenade</text>
  <text x="675" y="80" fill="white" font-family="sans-serif" font-weight="bold" font-size="12" text-anchor="end" dominant-baseline="middle" transform="rotate(90 675 80)">tensorflow</text>
  <text x="710" y="80" fill="white" font-family="sans-serif" font-weight="bold" font-size="12" text-anchor="end" dominant-baseline="middle" transform="rotate(90 710 80)">zygote</text>
  <rect x="65" y="85" width="30" height="30" fill="hsl(240 100% 80.2979622847255%)" />
  <rect x="100" y="85" width="30" height="30" fill="hsl(240 100% 83.12608185560045%)" />
  <rect x="135" y="85" width="30" height="30" fill="hsl(240 100% 97.99127131480576%)" />
  <rect x="170" y="85" width="30" height="30" fill="hsl(240 100% 82.30611779876075%)" />
  <rect x="205" y="85" width="30" height="30" fill="hsl(240 100% 99.01142147708583%)" />
  <rect x="240" y="85" width="30" height="30" fill="hsl(240 100% 51.69764822919053%)" />
  <rect x="310" y="85" width="30" height="30" fill="hsl(240 100% 92.90456073042772%)" />
  <rect x="380" y="85" width="30" height="30" fill="hsl(240 100% 68.15132828434803%)" />
  <rect x="485" y="85" width="30" height="30" fill="hsl(240 100% 50%)" />
  <rect x="555" y="85" width="30" height="30" fill="rgb(255 255 255 / 50%)" />
  <rect x="625" y="85" width="30" height="30" fill="hsl(240 100% 74.85196507205022%)" />
  <rect x="660" y="85" width="30" height="30" fill="rgb(255 255 255 / 50%)" />
  <rect x="695" y="85" width="30" height="30" fill="hsl(240 100% 99.72727209669974%)" />
  <rect x="65" y="120" width="30" height="30" fill="hsl(240 100% 50%)" />
  <rect x="100" y="120" width="30" height="30" fill="hsl(240 100% 84.18080870395875%)" />
  <rect x="135" y="120" width="30" height="30" fill="hsl(240 100% 85.66476270852796%)" />
  <rect x="170" y="120" width="30" height="30" fill="hsl(240 100% 51.99766686210135%)" />
  <rect x="205" y="120" width="30" height="30" fill="hsl(240 100% 92.55957698155729%)" />
  <rect x="240" y="120" width="30" height="30" fill="hsl(240 100% 91.73808647515894%)" />
  <rect x="275" y="120" width="30" height="30" fill="hsl(240 100% 99.23873547859947%)" />
  <rect x="310" y="120" width="30" height="30" fill="hsl(240 100% 98.9849101010326%)" />
  <rect x="380" y="120" width="30" height="30" fill="hsl(240 100% 94.56636178553376%)" />
  <rect x="415" y="120" width="30" height="30" fill="hsl(240 100% 97.92301024535888%)" />
  <rect x="485" y="120" width="30" height="30" fill="hsl(240 100% 79.60895652284852%)" />
  <rect x="695" y="120" width="30" height="30" fill="rgb(255 255 255 / 50%)" />
  <rect x="65" y="155" width="30" height="30" fill="hsl(240 100% 97.30727720827748%)" />
  <rect x="100" y="155" width="30" height="30" fill="hsl(240 100% 98.32806194876042%)" />
  <rect x="135" y="155" width="30" height="30" fill="hsl(240 100% 98.90407367079234%)" />
  <rect x="170" y="155" width="30" height="30" fill="hsl(240 100% 97.30300174270272%)" />
  <rect x="205" y="155" width="30" height="30" fill="hsl(240 100% 99.78771922999772%)" />
  <rect x="240" y="155" width="30" height="30" fill="hsl(240 100% 87.13473713390209%)" />
  <rect x="275" y="155" width="30" height="30" fill="hsl(240 100% 99.83760087947581%)" />
  <rect x="310" y="155" width="30" height="30" fill="rgb(255 255 255 / 50%)" />
  <rect x="380" y="155" width="30" height="30" fill="hsl(240 100% 89.7610695419139%)" />
  <rect x="450" y="155" width="30" height="30" fill="hsl(240 100% 71.47200908598643%)" />
  <rect x="485" y="155" width="30" height="30" fill="hsl(240 100% 72.97287561267476%)" />
  <rect x="520" y="155" width="30" height="30" fill="hsl(240 100% 99.39791333455823%)" />
  <rect x="555" y="155" width="30" height="30" fill="hsl(240 100% 50%)" />
  <rect x="590" y="155" width="30" height="30" fill="hsl(240 100% 92.98299019106227%)" />
  <rect x="625" y="155" width="30" height="30" fill="hsl(240 100% 77.05459119211068%)" />
  <rect x="660" y="155" width="30" height="30" fill="hsl(240 100% 89.07896371727016%)" />
  <rect x="695" y="155" width="30" height="30" fill="hsl(240 100% 99.36093639827192%)" />
  <rect x="65" y="190" width="30" height="30" fill="hsl(240 100% 50%)" />
  <rect x="100" y="190" width="30" height="30" fill="hsl(240 100% 50%)" />
  <rect x="135" y="190" width="30" height="30" fill="hsl(240 100% 50%)" />
  <rect x="170" y="190" width="30" height="30" fill="hsl(240 100% 50%)" />
  <rect x="205" y="190" width="30" height="30" fill="hsl(240 100% 50%)" />
  <rect x="240" y="190" width="30" height="30" fill="hsl(240 100% 50%)" />
  <rect x="275" y="190" width="30" height="30" fill="hsl(240 100% 50%)" />
  <rect x="310" y="190" width="30" height="30" fill="hsl(240 100% 50%)" />
  <rect x="345" y="190" width="30" height="30" fill="hsl(240 100% 50%)" />
  <rect x="380" y="190" width="30" height="30" fill="hsl(240 100% 50%)" />
  <rect x="415" y="190" width="30" height="30" fill="hsl(240 100% 50%)" />
  <rect x="450" y="190" width="30" height="30" fill="hsl(240 100% 50%)" />
  <rect x="485" y="190" width="30" height="30" fill="hsl(240 100% 50%)" />
  <rect x="520" y="190" width="30" height="30" fill="hsl(240 100% 50%)" />
  <rect x="555" y="190" width="30" height="30" fill="hsl(240 100% 50%)" />
  <rect x="590" y="190" width="30" height="30" fill="hsl(240 100% 50%)" />
  <rect x="625" y="190" width="30" height="30" fill="hsl(240 100% 50%)" />
  <rect x="660" y="190" width="30" height="30" fill="hsl(240 100% 50%)" />
  <rect x="695" y="190" width="30" height="30" fill="hsl(240 100% 50%)" />
  <rect x="100" y="225" width="30" height="30" fill="hsl(240 100% 96.3270053538174%)" />
  <rect x="135" y="225" width="30" height="30" fill="hsl(240 100% 90.68365627800945%)" />
  <rect x="170" y="225" width="30" height="30" fill="hsl(240 100% 89.27371204271284%)" />
  <rect x="240" y="225" width="30" height="30" fill="hsl(240 100% 91.13621722197875%)" />
  <rect x="310" y="225" width="30" height="30" fill="rgb(255 255 255 / 50%)" />
  <rect x="380" y="225" width="30" height="30" fill="hsl(240 100% 90.61374415966864%)" />
  <rect x="485" y="225" width="30" height="30" fill="hsl(240 100% 50%)" />
  <rect x="555" y="225" width="30" height="30" fill="rgb(255 255 255 / 50%)" />
  <rect x="625" y="225" width="30" height="30" fill="hsl(240 100% 94.3117775836455%)" />
  <rect x="660" y="225" width="30" height="30" fill="rgb(255 255 255 / 50%)" />
  <rect x="695" y="225" width="30" height="30" fill="hsl(240 100% 99.46006446648842%)" />
  <rect x="65" y="260" width="30" height="30" fill="hsl(240 100% 99.923866016775%)" />
  <rect x="135" y="260" width="30" height="30" fill="hsl(240 100% 99.87652916889705%)" />
  <rect x="170" y="260" width="30" height="30" fill="hsl(240 100% 99.03589632299881%)" />
  <rect x="205" y="260" width="30" height="30" fill="rgb(255 255 255 / 50%)" />
  <rect x="240" y="260" width="30" height="30" fill="hsl(240 100% 87.71075674946007%)" />
  <rect x="310" y="260" width="30" height="30" fill="rgb(255 255 255 / 50%)" />
  <rect x="380" y="260" width="30" height="30" fill="hsl(240 100% 81.53022164308018%)" />
  <rect x="415" y="260" width="30" height="30" fill="rgb(255 255 255 / 50%)" />
  <rect x="450" y="260" width="30" height="30" fill="hsl(240 100% 50%)" />
  <rect x="485" y="260" width="30" height="30" fill="hsl(240 100% 72.56357260434592%)" />
  <rect x="555" y="260" width="30" height="30" fill="hsl(240 100% 97.07739835327784%)" />
  <rect x="590" y="260" width="30" height="30" fill="hsl(240 100% 94.34802405309546%)" />
  <rect x="65" y="295" width="30" height="30" fill="hsl(240 100% 85.66376574558937%)" />
  <rect x="100" y="295" width="30" height="30" fill="hsl(240 100% 97.53617191913162%)" />
  <rect x="135" y="295" width="30" height="30" fill="hsl(240 100% 95.15491854816527%)" />
  <rect x="170" y="295" width="30" height="30" fill="hsl(240 100% 90.49788563674835%)" />
  <rect x="205" y="295" width="30" height="30" fill="hsl(240 100% 99.46469882529215%)" />
  <rect x="240" y="295" width="30" height="30" fill="hsl(240 100% 50%)" />
  <rect x="275" y="295" width="30" height="30" fill="hsl(240 100% 99.8590897769539%)" />
  <rect x="310" y="295" width="30" height="30" fill="hsl(240 100% 99.49082222665936%)" />
  <rect x="345" y="295" width="30" height="30" fill="hsl(240 100% 95.13682820839374%)" />
  <rect x="380" y="295" width="30" height="30" fill="hsl(240 100% 54.52316340142288%)" />
  <rect x="415" y="295" width="30" height="30" fill="hsl(240 100% 99.34631338185311%)" />
  <rect x="450" y="295" width="30" height="30" fill="hsl(240 100% 88.12476596610625%)" />
  <rect x="485" y="295" width="30" height="30" fill="hsl(240 100% 57.135836948175296%)" />
  <rect x="590" y="295" width="30" height="30" fill="hsl(240 100% 97.55882020596557%)" />
  <rect x="695" y="295" width="30" height="30" fill="hsl(240 100% 99.97428809528158%)" />
  <rect x="65" y="330" width="30" height="30" fill="hsl(240 100% 88.8806846876008%)" />
  <rect x="100" y="330" width="30" height="30" fill="hsl(240 100% 94.8979460818762%)" />
  <rect x="135" y="330" width="30" height="30" fill="hsl(240 100% 97.3068793346186%)" />
  <rect x="170" y="330" width="30" height="30" fill="hsl(240 100% 88.23645505809424%)" />
  <rect x="205" y="330" width="30" height="30" fill="hsl(240 100% 99.29677749708559%)" />
  <rect x="240" y="330" width="30" height="30" fill="hsl(240 100% 80.63659662536281%)" />
  <rect x="275" y="330" width="30" height="30" fill="hsl(240 100% 99.83374567975255%)" />
  <rect x="310" y="330" width="30" height="30" fill="rgb(255 255 255 / 50%)" />
  <rect x="345" y="330" width="30" height="30" fill="hsl(240 100% 97.35538814269351%)" />
  <rect x="380" y="330" width="30" height="30" fill="hsl(240 100% 86.39577599532727%)" />
  <rect x="415" y="330" width="30" height="30" fill="hsl(240 100% 99.81570722637848%)" />
  <rect x="450" y="330" width="30" height="30" fill="hsl(240 100% 73.03136615610232%)" />
  <rect x="485" y="330" width="30" height="30" fill="hsl(240 100% 74.54968925770424%)" />
  <rect x="520" y="330" width="30" height="30" fill="hsl(240 100% 94.02741783299189%)" />
  <rect x="555" y="330" width="30" height="30" fill="hsl(240 100% 50%)" />
  <rect x="660" y="330" width="30" height="30" fill="hsl(240 100% 89.2922896127244%)" />
  <rect x="695" y="330" width="30" height="30" fill="hsl(240 100% 95.78359631309198%)" />
  <rect x="65" y="365" width="30" height="30" fill="hsl(240 100% 60.78080359329237%)" />
  <rect x="100" y="365" width="30" height="30" fill="hsl(240 100% 71.57924006942939%)" />
  <rect x="135" y="365" width="30" height="30" fill="hsl(240 100% 82.08233440426145%)" />
  <rect x="170" y="365" width="30" height="30" fill="hsl(240 100% 50%)" />
  <rect x="205" y="365" width="30" height="30" fill="hsl(240 100% 96.22521873751401%)" />
  <rect x="240" y="365" width="30" height="30" fill="hsl(240 100% 60.350515596152185%)" />
  <rect x="275" y="365" width="30" height="30" fill="hsl(240 100% 98.9475326623796%)" />
  <rect x="310" y="365" width="30" height="30" fill="hsl(240 100% 99.86218264734833%)" />
  <rect x="380" y="365" width="30" height="30" fill="hsl(240 100% 65.96620825881706%)" />
  <rect x="485" y="365" width="30" height="30" fill="hsl(240 100% 85.85339170030404%)" />
  <rect x="555" y="365" width="30" height="30" fill="hsl(240 100% 99.63203049417724%)" />
  <rect x="625" y="365" width="30" height="30" fill="hsl(240 100% 63.047310503198354%)" />
  <rect x="660" y="365" width="30" height="30" fill="hsl(240 100% 98.15291479261649%)" />
  <rect x="695" y="365" width="30" height="30" fill="hsl(240 100% 99.17955626796842%)" />
  <rect x="65" y="400" width="30" height="30" fill="hsl(240 100% 98.09868440114816%)" />
  <rect x="100" y="400" width="30" height="30" fill="hsl(240 100% 99.38716715202393%)" />
  <rect x="135" y="400" width="30" height="30" fill="hsl(240 100% 99.66452355448925%)" />
  <rect x="170" y="400" width="30" height="30" fill="hsl(240 100% 95.3292955382388%)" />
  <rect x="205" y="400" width="30" height="30" fill="hsl(240 100% 99.23476578413737%)" />
  <rect x="240" y="400" width="30" height="30" fill="hsl(240 100% 88.39592988641076%)" />
  <rect x="275" y="400" width="30" height="30" fill="hsl(240 100% 99.25958870398341%)" />
  <rect x="310" y="400" width="30" height="30" fill="rgb(255 255 255 / 50%)" />
  <rect x="380" y="400" width="30" height="30" fill="hsl(240 100% 93.76996272879543%)" />
  <rect x="415" y="400" width="30" height="30" fill="hsl(240 100% 99.97050462856527%)" />
  <rect x="450" y="400" width="30" height="30" fill="hsl(240 100% 78.26298646379769%)" />
  <rect x="485" y="400" width="30" height="30" fill="hsl(240 100% 50%)" />
  <rect x="695" y="400" width="30" height="30" fill="hsl(240 100% 99.69225313994565%)" />
  <rect x="65" y="435" width="30" height="30" fill="hsl(240 100% 92.98831736305785%)" />
  <rect x="240" y="435" width="30" height="30" fill="hsl(240 100% 50%)" />
  <rect x="310" y="435" width="30" height="30" fill="hsl(240 100% 93.35205622113588%)" />
  <rect x="380" y="435" width="30" height="30" fill="hsl(240 100% 86.83462549342713%)" />
  <rect x="415" y="435" width="30" height="30" fill="hsl(240 100% 99.78964633721722%)" />
  <rect x="240" y="470" width="30" height="30" fill="hsl(240 100% 50%)" />
  <rect x="310" y="470" width="30" height="30" fill="hsl(240 100% 95.78146392521501%)" />
  <rect x="380" y="470" width="30" height="30" fill="hsl(240 100% 89.17920360872118%)" />
  <rect x="415" y="470" width="30" height="30" fill="hsl(240 100% 99.58142519057965%)" />
</svg>
