<svg xmlns="http://www.w3.org/2000/svg" viewBox="0 0 625 295">
  <rect x="0" y="0" width="625" height="295" rx="5" ry="5" fill="#222" />
  <text x="60" y="100" fill="white" font-family="sans-serif" font-weight="bold" font-size="12" text-anchor="end" dominant-baseline="middle">ba</text>
  <text x="60" y="135" fill="white" font-family="sans-serif" font-weight="bold" font-size="12" text-anchor="end" dominant-baseline="middle">gmm</text>
  <text x="60" y="170" fill="white" font-family="sans-serif" font-weight="bold" font-size="12" text-anchor="end" dominant-baseline="middle">hello</text>
  <text x="60" y="205" fill="white" font-family="sans-serif" font-weight="bold" font-size="12" text-anchor="end" dominant-baseline="middle">ht</text>
  <text x="60" y="240" fill="white" font-family="sans-serif" font-weight="bold" font-size="12" text-anchor="end" dominant-baseline="middle">kmeans</text>
  <text x="60" y="275" fill="white" font-family="sans-serif" font-weight="bold" font-size="12" text-anchor="end" dominant-baseline="middle">lstm</text>
  <text x="80" y="80" fill="white" font-family="sans-serif" font-weight="bold" font-size="12" text-anchor="end" dominant-baseline="middle" transform="rotate(90 80 80)">adept</text>
  <text x="115" y="80" fill="white" font-family="sans-serif" font-weight="bold" font-size="12" text-anchor="end" dominant-baseline="middle" transform="rotate(90 115 80)">adol-c</text>
  <text x="150" y="80" fill="white" font-family="sans-serif" font-weight="bold" font-size="12" text-anchor="end" dominant-baseline="middle" transform="rotate(90 150 80)">cppad</text>
  <text x="185" y="80" fill="white" font-family="sans-serif" font-weight="bold" font-size="12" text-anchor="end" dominant-baseline="middle" transform="rotate(90 185 80)">enzyme</text>
  <text x="220" y="80" fill="white" font-family="sans-serif" font-weight="bold" font-size="12" text-anchor="end" dominant-baseline="middle" transform="rotate(90 220 80)">finite</text>
  <text x="255" y="80" fill="white" font-family="sans-serif" font-weight="bold" font-size="12" text-anchor="end" dominant-baseline="middle" transform="rotate(90 255 80)">floretta</text>
  <text x="290" y="80" fill="white" font-family="sans-serif" font-weight="bold" font-size="12" text-anchor="end" dominant-baseline="middle" transform="rotate(90 290 80)">futhark</text>
  <text x="325" y="80" fill="white" font-family="sans-serif" font-weight="bold" font-size="12" text-anchor="end" dominant-baseline="middle" transform="rotate(90 325 80)">haskell</text>
  <text x="360" y="80" fill="white" font-family="sans-serif" font-weight="bold" font-size="12" text-anchor="end" dominant-baseline="middle" transform="rotate(90 360 80)">jax</text>
  <text x="395" y="80" fill="white" font-family="sans-serif" font-weight="bold" font-size="12" text-anchor="end" dominant-baseline="middle" transform="rotate(90 395 80)">manual</text>
  <text x="430" y="80" fill="white" font-family="sans-serif" font-weight="bold" font-size="12" text-anchor="end" dominant-baseline="middle" transform="rotate(90 430 80)">ocaml</text>
  <text x="465" y="80" fill="white" font-family="sans-serif" font-weight="bold" font-size="12" text-anchor="end" dominant-baseline="middle" transform="rotate(90 465 80)">pytorch</text>
  <text x="500" y="80" fill="white" font-family="sans-serif" font-weight="bold" font-size="12" text-anchor="end" dominant-baseline="middle" transform="rotate(90 500 80)">scilean</text>
  <text x="535" y="80" fill="white" font-family="sans-serif" font-weight="bold" font-size="12" text-anchor="end" dominant-baseline="middle" transform="rotate(90 535 80)">tapenade</text>
  <text x="570" y="80" fill="white" font-family="sans-serif" font-weight="bold" font-size="12" text-anchor="end" dominant-baseline="middle" transform="rotate(90 570 80)">tensorflow</text>
  <text x="605" y="80" fill="white" font-family="sans-serif" font-weight="bold" font-size="12" text-anchor="end" dominant-baseline="middle" transform="rotate(90 605 80)">zygote</text>
  <rect x="65" y="85" width="30" height="30" fill="hsl(240 100% 84.3803003786542%)" />
  <rect x="100" y="85" width="30" height="30" fill="hsl(240 100% 98.00904104561627%)" />
  <rect x="170" y="85" width="30" height="30" fill="hsl(240 100% 50%)" />
  <rect x="205" y="85" width="30" height="30" fill="hsl(240 100% 91.90729444668996%)" />
  <rect x="275" y="85" width="30" height="30" fill="hsl(240 100% 75.64890342651404%)" />
  <rect x="380" y="85" width="30" height="30" fill="hsl(240 100% 52.383912231432475%)" />
  <rect x="450" y="85" width="30" height="30" fill="hsl(240 100% 99.99175134709087%)" />
  <rect x="520" y="85" width="30" height="30" fill="hsl(240 100% 73.52351222424953%)" />
  <rect x="555" y="85" width="30" height="30" fill="hsl(240 100% 99.98412334067558%)" />
  <rect x="65" y="120" width="30" height="30" fill="hsl(240 100% 96.65576753505333%)" />
  <rect x="100" y="120" width="30" height="30" fill="hsl(240 100% 97.21906375237808%)" />
  <rect x="135" y="120" width="30" height="30" fill="hsl(240 100% 98.09044204013462%)" />
  <rect x="170" y="120" width="30" height="30" fill="hsl(240 100% 82.737634077549%)" />
  <rect x="205" y="120" width="30" height="30" fill="hsl(240 100% 99.99465492855363%)" />
  <rect x="275" y="120" width="30" height="30" fill="hsl(240 100% 81.23300094207374%)" />
  <rect x="345" y="120" width="30" height="30" fill="hsl(240 100% 68.23917235045022%)" />
  <rect x="380" y="120" width="30" height="30" fill="hsl(240 100% 60.78716396929775%)" />
  <rect x="415" y="120" width="30" height="30" fill="hsl(240 100% 99.31069317922228%)" />
  <rect x="450" y="120" width="30" height="30" fill="hsl(240 100% 50%)" />
  <rect x="485" y="120" width="30" height="30" fill="hsl(240 100% 92.7636917125258%)" />
  <rect x="520" y="120" width="30" height="30" fill="hsl(240 100% 64.40366986753746%)" />
  <rect x="555" y="120" width="30" height="30" fill="hsl(240 100% 84.180050995015%)" />
  <rect x="65" y="155" width="30" height="30" fill="hsl(240 100% 50%)" />
  <rect x="100" y="155" width="30" height="30" fill="hsl(240 100% 50%)" />
  <rect x="135" y="155" width="30" height="30" fill="hsl(240 100% 50%)" />
  <rect x="170" y="155" width="30" height="30" fill="hsl(240 100% 50%)" />
  <rect x="205" y="155" width="30" height="30" fill="hsl(240 100% 50%)" />
  <rect x="240" y="155" width="30" height="30" fill="hsl(240 100% 50%)" />
  <rect x="275" y="155" width="30" height="30" fill="hsl(240 100% 50%)" />
  <rect x="310" y="155" width="30" height="30" fill="hsl(240 100% 50%)" />
  <rect x="345" y="155" width="30" height="30" fill="hsl(240 100% 50%)" />
  <rect x="380" y="155" width="30" height="30" fill="hsl(240 100% 50%)" />
  <rect x="415" y="155" width="30" height="30" fill="hsl(240 100% 50%)" />
  <rect x="450" y="155" width="30" height="30" fill="hsl(240 100% 50%)" />
  <rect x="485" y="155" width="30" height="30" fill="hsl(240 100% 50%)" />
  <rect x="520" y="155" width="30" height="30" fill="hsl(240 100% 50%)" />
  <rect x="555" y="155" width="30" height="30" fill="hsl(240 100% 50%)" />
  <rect x="590" y="155" width="30" height="30" fill="hsl(240 100% 50%)" />
  <rect x="65" y="190" width="30" height="30" fill="hsl(240 100% 97.06293903965052%)" />
  <rect x="100" y="190" width="30" height="30" fill="hsl(240 100% 97.91400474818703%)" />
  <rect x="170" y="190" width="30" height="30" fill="hsl(240 100% 94.83642470197445%)" />
  <rect x="205" y="190" width="30" height="30" fill="hsl(240 100% 99.16843399445123%)" />
  <rect x="275" y="190" width="30" height="30" fill="hsl(240 100% 91.42818453514853%)" />
  <rect x="380" y="190" width="30" height="30" fill="hsl(240 100% 50%)" />
  <rect x="450" y="190" width="30" height="30" fill="hsl(240 100% 99.96685432314807%)" />
  <rect x="520" y="190" width="30" height="30" fill="hsl(240 100% 99.38366544981807%)" />
  <rect x="555" y="190" width="30" height="30" fill="hsl(240 100% 99.4690930469021%)" />
  <rect x="100" y="225" width="30" height="30" fill="hsl(240 100% 99.87970734384683%)" />
  <rect x="170" y="225" width="30" height="30" fill="hsl(240 100% 87.63548820489507%)" />
  <rect x="275" y="225" width="30" height="30" fill="hsl(240 100% 85.01961180713877%)" />
  <rect x="310" y="225" width="30" height="30" fill="hsl(240 100% 99.99154360280247%)" />
  <rect x="345" y="225" width="30" height="30" fill="hsl(240 100% 50%)" />
  <rect x="380" y="225" width="30" height="30" fill="hsl(240 100% 76.96339441798492%)" />
  <rect x="450" y="225" width="30" height="30" fill="hsl(240 100% 86.03828806222296%)" />
  <rect x="65" y="260" width="30" height="30" fill="hsl(240 100% 68.548216185402%)" />
  <rect x="100" y="260" width="30" height="30" fill="hsl(240 100% 80.21668938137955%)" />
  <rect x="135" y="260" width="30" height="30" fill="hsl(240 100% 88.46899970394577%)" />
  <rect x="170" y="260" width="30" height="30" fill="hsl(240 100% 50%)" />
  <rect x="205" y="260" width="30" height="30" fill="hsl(240 100% 99.7970697437527%)" />
  <rect x="275" y="260" width="30" height="30" fill="hsl(240 100% 62.9365665203739%)" />
  <rect x="380" y="260" width="30" height="30" fill="hsl(240 100% 78.35000991082356%)" />
  <rect x="450" y="260" width="30" height="30" fill="hsl(240 100% 99.65414140101633%)" />
  <rect x="520" y="260" width="30" height="30" fill="hsl(240 100% 59.04651769344428%)" />
  <rect x="555" y="260" width="30" height="30" fill="hsl(240 100% 98.05705101557079%)" />
</svg>
