<svg xmlns="http://www.w3.org/2000/svg" viewBox="0 0 870 505">
  <rect x="0" y="0" width="870" height="505" rx="5" ry="5" fill="#222" />
  <text x="60" y="100" fill="white" font-family="sans-serif" font-weight="bold" font-size="12" text-anchor="end" dominant-baseline="middle">ba</text>
  <text x="60" y="135" fill="white" font-family="sans-serif" font-weight="bold" font-size="12" text-anchor="end" dominant-baseline="middle">det</text>
  <text x="60" y="170" fill="white" font-family="sans-serif" font-weight="bold" font-size="12" text-anchor="end" dominant-baseline="middle">gmm</text>
  <text x="60" y="205" fill="white" font-family="sans-serif" font-weight="bold" font-size="12" text-anchor="end" dominant-baseline="middle">hello</text>
  <text x="60" y="240" fill="white" font-family="sans-serif" font-weight="bold" font-size="12" text-anchor="end" dominant-baseline="middle">ht</text>
  <text x="60" y="275" fill="white" font-family="sans-serif" font-weight="bold" font-size="12" text-anchor="end" dominant-baseline="middle">kmeans</text>
  <text x="60" y="310" fill="white" font-family="sans-serif" font-weight="bold" font-size="12" text-anchor="end" dominant-baseline="middle">llsq</text>
  <text x="60" y="345" fill="white" font-family="sans-serif" font-weight="bold" font-size="12" text-anchor="end" dominant-baseline="middle">lse</text>
  <text x="60" y="380" fill="white" font-family="sans-serif" font-weight="bold" font-size="12" text-anchor="end" dominant-baseline="middle">lstm</text>
  <text x="60" y="415" fill="white" font-family="sans-serif" font-weight="bold" font-size="12" text-anchor="end" dominant-baseline="middle">ode</text>
  <text x="60" y="450" fill="white" font-family="sans-serif" font-weight="bold" font-size="12" text-anchor="end" dominant-baseline="middle">particle</text>
  <text x="60" y="485" fill="white" font-family="sans-serif" font-weight="bold" font-size="12" text-anchor="end" dominant-baseline="middle">saddle</text>
  <text x="80" y="80" fill="white" font-family="sans-serif" font-weight="bold" font-size="12" text-anchor="end" dominant-baseline="middle" transform="rotate(90 80 80)">ad-hpp</text>
  <text x="115" y="80" fill="white" font-family="sans-serif" font-weight="bold" font-size="12" text-anchor="end" dominant-baseline="middle" transform="rotate(90 115 80)">adept</text>
  <text x="150" y="80" fill="white" font-family="sans-serif" font-weight="bold" font-size="12" text-anchor="end" dominant-baseline="middle" transform="rotate(90 150 80)">adol-c</text>
  <text x="185" y="80" fill="white" font-family="sans-serif" font-weight="bold" font-size="12" text-anchor="end" dominant-baseline="middle" transform="rotate(90 185 80)">codipack</text>
  <text x="220" y="80" fill="white" font-family="sans-serif" font-weight="bold" font-size="12" text-anchor="end" dominant-baseline="middle" transform="rotate(90 220 80)">cppad</text>
  <text x="255" y="80" fill="white" font-family="sans-serif" font-weight="bold" font-size="12" text-anchor="end" dominant-baseline="middle" transform="rotate(90 255 80)">enzyme</text>
  <text x="290" y="80" fill="white" font-family="sans-serif" font-weight="bold" font-size="12" text-anchor="end" dominant-baseline="middle" transform="rotate(90 290 80)">enzyme-jl</text>
  <text x="325" y="80" fill="white" font-family="sans-serif" font-weight="bold" font-size="12" text-anchor="end" dominant-baseline="middle" transform="rotate(90 325 80)">finite</text>
  <text x="360" y="80" fill="white" font-family="sans-serif" font-weight="bold" font-size="12" text-anchor="end" dominant-baseline="middle" transform="rotate(90 360 80)">floretta</text>
  <text x="395" y="80" fill="white" font-family="sans-serif" font-weight="bold" font-size="12" text-anchor="end" dominant-baseline="middle" transform="rotate(90 395 80)">forwarddiff-jl</text>
  <text x="430" y="80" fill="white" font-family="sans-serif" font-weight="bold" font-size="12" text-anchor="end" dominant-baseline="middle" transform="rotate(90 430 80)">futhark</text>
  <text x="465" y="80" fill="white" font-family="sans-serif" font-weight="bold" font-size="12" text-anchor="end" dominant-baseline="middle" transform="rotate(90 465 80)">haskell</text>
  <text x="500" y="80" fill="white" font-family="sans-serif" font-weight="bold" font-size="12" text-anchor="end" dominant-baseline="middle" transform="rotate(90 500 80)">jax</text>
  <text x="535" y="80" fill="white" font-family="sans-serif" font-weight="bold" font-size="12" text-anchor="end" dominant-baseline="middle" transform="rotate(90 535 80)">manual</text>
  <text x="570" y="80" fill="white" font-family="sans-serif" font-weight="bold" font-size="12" text-anchor="end" dominant-baseline="middle" transform="rotate(90 570 80)">mooncake-jl</text>
  <text x="605" y="80" fill="white" font-family="sans-serif" font-weight="bold" font-size="12" text-anchor="end" dominant-baseline="middle" transform="rotate(90 605 80)">ocaml</text>
  <text x="640" y="80" fill="white" font-family="sans-serif" font-weight="bold" font-size="12" text-anchor="end" dominant-baseline="middle" transform="rotate(90 640 80)">pytorch</text>
  <text x="675" y="80" fill="white" font-family="sans-serif" font-weight="bold" font-size="12" text-anchor="end" dominant-baseline="middle" transform="rotate(90 675 80)">reversediff-jl</text>
  <text x="710" y="80" fill="white" font-family="sans-serif" font-weight="bold" font-size="12" text-anchor="end" dominant-baseline="middle" transform="rotate(90 710 80)">scilean</text>
  <text x="745" y="80" fill="white" font-family="sans-serif" font-weight="bold" font-size="12" text-anchor="end" dominant-baseline="middle" transform="rotate(90 745 80)">tapenade</text>
  <text x="780" y="80" fill="white" font-family="sans-serif" font-weight="bold" font-size="12" text-anchor="end" dominant-baseline="middle" transform="rotate(90 780 80)">tensorflow</text>
  <text x="815" y="80" fill="white" font-family="sans-serif" font-weight="bold" font-size="12" text-anchor="end" dominant-baseline="middle" transform="rotate(90 815 80)">tensorflow-js</text>
  <text x="850" y="80" fill="white" font-family="sans-serif" font-weight="bold" font-size="12" text-anchor="end" dominant-baseline="middle" transform="rotate(90 850 80)">zygote</text>
  <rect x="65" y="85" width="30" height="30" fill="hsl(240 100% 81.00682099058378%)" />
  <rect x="100" y="85" width="30" height="30" fill="hsl(240 100% 82.44442238731105%)" />
  <rect x="135" y="85" width="30" height="30" fill="hsl(240 100% 97.96098645177263%)" />
  <rect x="170" y="85" width="30" height="30" fill="hsl(240 100% 82.20326279582898%)" />
  <rect x="205" y="85" width="30" height="30" fill="hsl(240 100% 98.98622089883936%)" />
  <rect x="240" y="85" width="30" height="30" fill="hsl(240 100% 51.34540769787789%)" />
  <rect x="310" y="85" width="30" height="30" fill="hsl(240 100% 93.21017010431075%)" />
  <rect x="415" y="85" width="30" height="30" fill="hsl(240 100% 68.13427601394281%)" />
  <rect x="520" y="85" width="30" height="30" fill="hsl(240 100% 50%)" />
  <rect x="625" y="85" width="30" height="30" fill="rgb(255 255 255 / 50%)" />
  <rect x="730" y="85" width="30" height="30" fill="hsl(240 100% 74.6505119538891%)" />
  <rect x="765" y="85" width="30" height="30" fill="rgb(255 255 255 / 50%)" />
  <rect x="835" y="85" width="30" height="30" fill="hsl(240 100% 99.73945697666458%)" />
  <rect x="65" y="120" width="30" height="30" fill="hsl(240 100% 50%)" />
  <rect x="100" y="120" width="30" height="30" fill="hsl(240 100% 82.25199104331995%)" />
  <rect x="135" y="120" width="30" height="30" fill="hsl(240 100% 85.53252715160544%)" />
  <rect x="170" y="120" width="30" height="30" fill="hsl(240 100% 51.658599795779466%)" />
  <rect x="205" y="120" width="30" height="30" fill="hsl(240 100% 92.6294751024646%)" />
  <rect x="240" y="120" width="30" height="30" fill="hsl(240 100% 91.66709911042886%)" />
  <rect x="275" y="120" width="30" height="30" fill="hsl(240 100% 99.35055190666267%)" />
  <rect x="310" y="120" width="30" height="30" fill="hsl(240 100% 98.97864902155278%)" />
  <rect x="380" y="120" width="30" height="30" fill="hsl(240 100% 93.28133644583%)" />
  <rect x="415" y="120" width="30" height="30" fill="hsl(240 100% 94.5609851872918%)" />
  <rect x="450" y="120" width="30" height="30" fill="hsl(240 100% 97.84796938571493%)" />
  <rect x="520" y="120" width="30" height="30" fill="hsl(240 100% 79.53844648086455%)" />
  <rect x="555" y="120" width="30" height="30" fill="hsl(240 100% 90.02459006734365%)" />
  <rect x="660" y="120" width="30" height="30" fill="rgb(255 255 255 / 50%)" />
  <rect x="835" y="120" width="30" height="30" fill="rgb(255 255 255 / 50%)" />
  <rect x="65" y="155" width="30" height="30" fill="hsl(240 100% 98.5619135132974%)" />
  <rect x="100" y="155" width="30" height="30" fill="hsl(240 100% 98.84221514420581%)" />
  <rect x="135" y="155" width="30" height="30" fill="hsl(240 100% 99.16354934213537%)" />
  <rect x="170" y="155" width="30" height="30" fill="hsl(240 100% 98.0656244415071%)" />
  <rect x="205" y="155" width="30" height="30" fill="hsl(240 100% 99.85044459847667%)" />
  <rect x="240" y="155" width="30" height="30" fill="hsl(240 100% 91.26060795534002%)" />
  <rect x="275" y="155" width="30" height="30" fill="hsl(240 100% 92.43676305470201%)" />
  <rect x="310" y="155" width="30" height="30" fill="rgb(255 255 255 / 50%)" />
  <rect x="415" y="155" width="30" height="30" fill="hsl(240 100% 92.98468478317689%)" />
  <rect x="485" y="155" width="30" height="30" fill="hsl(240 100% 50%)" />
  <rect x="520" y="155" width="30" height="30" fill="hsl(240 100% 83.66498344474425%)" />
  <rect x="590" y="155" width="30" height="30" fill="hsl(240 100% 99.57658168998816%)" />
  <rect x="625" y="155" width="30" height="30" fill="hsl(240 100% 66.2907417468646%)" />
  <rect x="695" y="155" width="30" height="30" fill="hsl(240 100% 95.40412254379339%)" />
  <rect x="730" y="155" width="30" height="30" fill="hsl(240 100% 83.59648831174809%)" />
  <rect x="765" y="155" width="30" height="30" fill="hsl(240 100% 99.57440052016162%)" />
  <rect x="835" y="155" width="30" height="30" fill="hsl(240 100% 96.19341320341658%)" />
  <rect x="65" y="190" width="30" height="30" fill="hsl(240 100% 50%)" />
  <rect x="100" y="190" width="30" height="30" fill="hsl(240 100% 50%)" />
  <rect x="135" y="190" width="30" height="30" fill="hsl(240 100% 50%)" />
  <rect x="170" y="190" width="30" height="30" fill="hsl(240 100% 50%)" />
  <rect x="205" y="190" width="30" height="30" fill="hsl(240 100% 50%)" />
  <rect x="240" y="190" width="30" height="30" fill="hsl(240 100% 50%)" />
  <rect x="275" y="190" width="30" height="30" fill="hsl(240 100% 50%)" />
  <rect x="310" y="190" width="30" height="30" fill="hsl(240 100% 50%)" />
  <rect x="345" y="190" width="30" height="30" fill="hsl(240 100% 50%)" />
  <rect x="380" y="190" width="30" height="30" fill="hsl(240 100% 50%)" />
  <rect x="415" y="190" width="30" height="30" fill="hsl(240 100% 50%)" />
  <rect x="450" y="190" width="30" height="30" fill="hsl(240 100% 50%)" />
  <rect x="485" y="190" width="30" height="30" fill="hsl(240 100% 50%)" />
  <rect x="520" y="190" width="30" height="30" fill="hsl(240 100% 50%)" />
  <rect x="555" y="190" width="30" height="30" fill="hsl(240 100% 50%)" />
  <rect x="590" y="190" width="30" height="30" fill="hsl(240 100% 50%)" />
  <rect x="625" y="190" width="30" height="30" fill="hsl(240 100% 50%)" />
  <rect x="660" y="190" width="30" height="30" fill="hsl(240 100% 50%)" />
  <rect x="695" y="190" width="30" height="30" fill="hsl(240 100% 50%)" />
  <rect x="730" y="190" width="30" height="30" fill="hsl(240 100% 50%)" />
  <rect x="765" y="190" width="30" height="30" fill="hsl(240 100% 50%)" />
  <rect x="800" y="190" width="30" height="30" fill="hsl(240 100% 50%)" />
  <rect x="835" y="190" width="30" height="30" fill="hsl(240 100% 50%)" />
  <rect x="100" y="225" width="30" height="30" fill="hsl(240 100% 96.70404915364507%)" />
  <rect x="135" y="225" width="30" height="30" fill="hsl(240 100% 89.15715702974015%)" />
  <rect x="170" y="225" width="30" height="30" fill="hsl(240 100% 89.26514416211491%)" />
  <rect x="240" y="225" width="30" height="30" fill="hsl(240 100% 91.34233384022994%)" />
  <rect x="310" y="225" width="30" height="30" fill="rgb(255 255 255 / 50%)" />
  <rect x="415" y="225" width="30" height="30" fill="hsl(240 100% 90.87208464921397%)" />
  <rect x="520" y="225" width="30" height="30" fill="hsl(240 100% 50%)" />
  <rect x="625" y="225" width="30" height="30" fill="rgb(255 255 255 / 50%)" />
  <rect x="730" y="225" width="30" height="30" fill="hsl(240 100% 93.2027683824455%)" />
  <rect x="765" y="225" width="30" height="30" fill="rgb(255 255 255 / 50%)" />
  <rect x="835" y="225" width="30" height="30" fill="hsl(240 100% 94.30410197753655%)" />
  <rect x="65" y="260" width="30" height="30" fill="hsl(240 100% 99.88597133435684%)" />
  <rect x="135" y="260" width="30" height="30" fill="hsl(240 100% 99.85183026519572%)" />
  <rect x="170" y="260" width="30" height="30" fill="hsl(240 100% 98.8541366049723%)" />
  <rect x="205" y="260" width="30" height="30" fill="rgb(255 255 255 / 50%)" />
  <rect x="240" y="260" width="30" height="30" fill="hsl(240 100% 87.04618861602376%)" />
  <rect x="310" y="260" width="30" height="30" fill="rgb(255 255 255 / 50%)" />
  <rect x="415" y="260" width="30" height="30" fill="hsl(240 100% 80.61565027626399%)" />
  <rect x="450" y="260" width="30" height="30" fill="rgb(255 255 255 / 50%)" />
  <rect x="485" y="260" width="30" height="30" fill="hsl(240 100% 50%)" />
  <rect x="520" y="260" width="30" height="30" fill="hsl(240 100% 71.06263044245243%)" />
  <rect x="625" y="260" width="30" height="30" fill="hsl(240 100% 97.02835068680567%)" />
  <rect x="695" y="260" width="30" height="30" fill="hsl(240 100% 94.06458319659436%)" />
  <rect x="65" y="295" width="30" height="30" fill="hsl(240 100% 86.16215385381871%)" />
  <rect x="100" y="295" width="30" height="30" fill="hsl(240 100% 97.53844229289604%)" />
  <rect x="135" y="295" width="30" height="30" fill="hsl(240 100% 95.11777104620361%)" />
  <rect x="170" y="295" width="30" height="30" fill="hsl(240 100% 90.69081734087163%)" />
  <rect x="205" y="295" width="30" height="30" fill="hsl(240 100% 99.46330698713629%)" />
  <rect x="240" y="295" width="30" height="30" fill="hsl(240 100% 50.81617218637489%)" />
  <rect x="275" y="295" width="30" height="30" fill="hsl(240 100% 50%)" />
  <rect x="310" y="295" width="30" height="30" fill="hsl(240 100% 99.50086049436585%)" />
  <rect x="345" y="295" width="30" height="30" fill="hsl(240 100% 94.72062396741569%)" />
  <rect x="415" y="295" width="30" height="30" fill="hsl(240 100% 55.343686505084236%)" />
  <rect x="450" y="295" width="30" height="30" fill="hsl(240 100% 99.34146460186211%)" />
  <rect x="485" y="295" width="30" height="30" fill="hsl(240 100% 88.3859847821954%)" />
  <rect x="520" y="295" width="30" height="30" fill="hsl(240 100% 57.94800748259765%)" />
  <rect x="695" y="295" width="30" height="30" fill="hsl(240 100% 97.61386571144607%)" />
  <rect x="800" y="295" width="30" height="30" fill="hsl(240 100% 99.57211564100012%)" />
  <rect x="835" y="295" width="30" height="30" fill="hsl(240 100% 99.95291942156187%)" />
  <rect x="65" y="330" width="30" height="30" fill="hsl(240 100% 89.7998118038469%)" />
  <rect x="100" y="330" width="30" height="30" fill="hsl(240 100% 95.12184559156333%)" />
  <rect x="135" y="330" width="30" height="30" fill="hsl(240 100% 97.33642436879929%)" />
  <rect x="170" y="330" width="30" height="30" fill="hsl(240 100% 89.31720226852788%)" />
  <rect x="205" y="330" width="30" height="30" fill="hsl(240 100% 99.24844967486636%)" />
  <rect x="240" y="330" width="30" height="30" fill="hsl(240 100% 80.95341347779735%)" />
  <rect x="275" y="330" width="30" height="30" fill="hsl(240 100% 89.24723904779363%)" />
  <rect x="310" y="330" width="30" height="30" fill="rgb(255 255 255 / 50%)" />
  <rect x="345" y="330" width="30" height="30" fill="hsl(240 100% 97.49682445029543%)" />
  <rect x="415" y="330" width="30" height="30" fill="hsl(240 100% 86.55490170925536%)" />
  <rect x="450" y="330" width="30" height="30" fill="hsl(240 100% 99.81913198897385%)" />
  <rect x="485" y="330" width="30" height="30" fill="hsl(240 100% 72.2926208712274%)" />
  <rect x="520" y="330" width="30" height="30" fill="hsl(240 100% 78.19701112310922%)" />
  <rect x="590" y="330" width="30" height="30" fill="hsl(240 100% 94.21954908237245%)" />
  <rect x="625" y="330" width="30" height="30" fill="hsl(240 100% 50%)" />
  <rect x="765" y="330" width="30" height="30" fill="hsl(240 100% 94.739875449482%)" />
  <rect x="800" y="330" width="30" height="30" fill="hsl(240 100% 99.26226913066297%)" />
  <rect x="835" y="330" width="30" height="30" fill="hsl(240 100% 83.45709056822747%)" />
  <rect x="65" y="365" width="30" height="30" fill="hsl(240 100% 57.77286801075966%)" />
  <rect x="100" y="365" width="30" height="30" fill="hsl(240 100% 71.78136476931935%)" />
  <rect x="135" y="365" width="30" height="30" fill="hsl(240 100% 82.76177690607011%)" />
  <rect x="170" y="365" width="30" height="30" fill="hsl(240 100% 50%)" />
  <rect x="205" y="365" width="30" height="30" fill="hsl(240 100% 96.19489986170008%)" />
  <rect x="240" y="365" width="30" height="30" fill="hsl(240 100% 60.02586157304315%)" />
  <rect x="275" y="365" width="30" height="30" fill="hsl(240 100% 92.60300935159233%)" />
  <rect x="310" y="365" width="30" height="30" fill="hsl(240 100% 99.8644788014885%)" />
  <rect x="415" y="365" width="30" height="30" fill="hsl(240 100% 67.07721067897631%)" />
  <rect x="520" y="365" width="30" height="30" fill="hsl(240 100% 86.1336560495781%)" />
  <rect x="625" y="365" width="30" height="30" fill="hsl(240 100% 99.6403942584944%)" />
  <rect x="730" y="365" width="30" height="30" fill="hsl(240 100% 63.42642214297442%)" />
  <rect x="765" y="365" width="30" height="30" fill="hsl(240 100% 98.26757919795457%)" />
  <rect x="835" y="365" width="30" height="30" fill="hsl(240 100% 98.83589332055392%)" />
  <rect x="65" y="400" width="30" height="30" fill="hsl(240 100% 98.1306991180439%)" />
  <rect x="100" y="400" width="30" height="30" fill="hsl(240 100% 99.24076411671035%)" />
  <rect x="135" y="400" width="30" height="30" fill="hsl(240 100% 99.58998942555336%)" />
  <rect x="170" y="400" width="30" height="30" fill="hsl(240 100% 94.17639921596506%)" />
  <rect x="205" y="400" width="30" height="30" fill="hsl(240 100% 99.02286664532201%)" />
  <rect x="240" y="400" width="30" height="30" fill="hsl(240 100% 84.27218153345225%)" />
  <rect x="275" y="400" width="30" height="30" fill="hsl(240 100% 94.1631437689047%)" />
  <rect x="310" y="400" width="30" height="30" fill="rgb(255 255 255 / 50%)" />
  <rect x="380" y="400" width="30" height="30" fill="rgb(255 255 255 / 50%)" />
  <rect x="415" y="400" width="30" height="30" fill="hsl(240 100% 92.43997969399797%)" />
  <rect x="450" y="400" width="30" height="30" fill="hsl(240 100% 99.96461192923118%)" />
  <rect x="485" y="400" width="30" height="30" fill="hsl(240 100% 73.60806062580455%)" />
  <rect x="520" y="400" width="30" height="30" fill="hsl(240 100% 50%)" />
  <rect x="555" y="400" width="30" height="30" fill="hsl(240 100% 98.86186874663244%)" />
  <rect x="660" y="400" width="30" height="30" fill="rgb(255 255 255 / 50%)" />
  <rect x="835" y="400" width="30" height="30" fill="hsl(240 100% 98.91302845635062%)" />
  <rect x="65" y="435" width="30" height="30" fill="hsl(240 100% 92.82274367655391%)" />
  <rect x="240" y="435" width="30" height="30" fill="hsl(240 100% 50%)" />
  <rect x="310" y="435" width="30" height="30" fill="hsl(240 100% 94.26903175826173%)" />
  <rect x="415" y="435" width="30" height="30" fill="hsl(240 100% 86.95432225250275%)" />
  <rect x="450" y="435" width="30" height="30" fill="hsl(240 100% 99.7996836602635%)" />
  <rect x="65" y="470" width="30" height="30" fill="hsl(240 100% 50%)" />
  <rect x="240" y="470" width="30" height="30" fill="hsl(240 100% 50.60659136537949%)" />
  <rect x="310" y="470" width="30" height="30" fill="hsl(240 100% 97.15763596752885%)" />
  <rect x="415" y="470" width="30" height="30" fill="hsl(240 100% 89.18090641368718%)" />
  <rect x="450" y="470" width="30" height="30" fill="hsl(240 100% 99.57757150292751%)" />
</svg>
