<svg xmlns="http://www.w3.org/2000/svg" viewBox="0 0 870 505">
  <rect x="0" y="0" width="870" height="505" rx="5" ry="5" fill="#222" />
  <text x="60" y="100" fill="white" font-family="sans-serif" font-weight="bold" font-size="12" text-anchor="end" dominant-baseline="middle">ba</text>
  <text x="60" y="135" fill="white" font-family="sans-serif" font-weight="bold" font-size="12" text-anchor="end" dominant-baseline="middle">det</text>
  <text x="60" y="170" fill="white" font-family="sans-serif" font-weight="bold" font-size="12" text-anchor="end" dominant-baseline="middle">gmm</text>
  <text x="60" y="205" fill="white" font-family="sans-serif" font-weight="bold" font-size="12" text-anchor="end" dominant-baseline="middle">hello</text>
  <text x="60" y="240" fill="white" font-family="sans-serif" font-weight="bold" font-size="12" text-anchor="end" dominant-baseline="middle">ht</text>
  <text x="60" y="275" fill="white" font-family="sans-serif" font-weight="bold" font-size="12" text-anchor="end" dominant-baseline="middle">kmeans</text>
  <text x="60" y="310" fill="white" font-family="sans-serif" font-weight="bold" font-size="12" text-anchor="end" dominant-baseline="middle">llsq</text>
  <text x="60" y="345" fill="white" font-family="sans-serif" font-weight="bold" font-size="12" text-anchor="end" dominant-baseline="middle">lse</text>
  <text x="60" y="380" fill="white" font-family="sans-serif" font-weight="bold" font-size="12" text-anchor="end" dominant-baseline="middle">lstm</text>
  <text x="60" y="415" fill="white" font-family="sans-serif" font-weight="bold" font-size="12" text-anchor="end" dominant-baseline="middle">ode</text>
  <text x="60" y="450" fill="white" font-family="sans-serif" font-weight="bold" font-size="12" text-anchor="end" dominant-baseline="middle">particle</text>
  <text x="60" y="485" fill="white" font-family="sans-serif" font-weight="bold" font-size="12" text-anchor="end" dominant-baseline="middle">saddle</text>
  <text x="80" y="80" fill="white" font-family="sans-serif" font-weight="bold" font-size="12" text-anchor="end" dominant-baseline="middle" transform="rotate(90 80 80)">ad-hpp</text>
  <text x="115" y="80" fill="white" font-family="sans-serif" font-weight="bold" font-size="12" text-anchor="end" dominant-baseline="middle" transform="rotate(90 115 80)">adept</text>
  <text x="150" y="80" fill="white" font-family="sans-serif" font-weight="bold" font-size="12" text-anchor="end" dominant-baseline="middle" transform="rotate(90 150 80)">adol-c</text>
  <text x="185" y="80" fill="white" font-family="sans-serif" font-weight="bold" font-size="12" text-anchor="end" dominant-baseline="middle" transform="rotate(90 185 80)">codipack</text>
  <text x="220" y="80" fill="white" font-family="sans-serif" font-weight="bold" font-size="12" text-anchor="end" dominant-baseline="middle" transform="rotate(90 220 80)">cppad</text>
  <text x="255" y="80" fill="white" font-family="sans-serif" font-weight="bold" font-size="12" text-anchor="end" dominant-baseline="middle" transform="rotate(90 255 80)">enzyme</text>
  <text x="290" y="80" fill="white" font-family="sans-serif" font-weight="bold" font-size="12" text-anchor="end" dominant-baseline="middle" transform="rotate(90 290 80)">enzyme-jl</text>
  <text x="325" y="80" fill="white" font-family="sans-serif" font-weight="bold" font-size="12" text-anchor="end" dominant-baseline="middle" transform="rotate(90 325 80)">finite</text>
  <text x="360" y="80" fill="white" font-family="sans-serif" font-weight="bold" font-size="12" text-anchor="end" dominant-baseline="middle" transform="rotate(90 360 80)">floretta</text>
  <text x="395" y="80" fill="white" font-family="sans-serif" font-weight="bold" font-size="12" text-anchor="end" dominant-baseline="middle" transform="rotate(90 395 80)">forwarddiff-jl</text>
  <text x="430" y="80" fill="white" font-family="sans-serif" font-weight="bold" font-size="12" text-anchor="end" dominant-baseline="middle" transform="rotate(90 430 80)">futhark</text>
  <text x="465" y="80" fill="white" font-family="sans-serif" font-weight="bold" font-size="12" text-anchor="end" dominant-baseline="middle" transform="rotate(90 465 80)">haskell</text>
  <text x="500" y="80" fill="white" font-family="sans-serif" font-weight="bold" font-size="12" text-anchor="end" dominant-baseline="middle" transform="rotate(90 500 80)">jax</text>
  <text x="535" y="80" fill="white" font-family="sans-serif" font-weight="bold" font-size="12" text-anchor="end" dominant-baseline="middle" transform="rotate(90 535 80)">manual</text>
  <text x="570" y="80" fill="white" font-family="sans-serif" font-weight="bold" font-size="12" text-anchor="end" dominant-baseline="middle" transform="rotate(90 570 80)">mooncake-jl</text>
  <text x="605" y="80" fill="white" font-family="sans-serif" font-weight="bold" font-size="12" text-anchor="end" dominant-baseline="middle" transform="rotate(90 605 80)">ocaml</text>
  <text x="640" y="80" fill="white" font-family="sans-serif" font-weight="bold" font-size="12" text-anchor="end" dominant-baseline="middle" transform="rotate(90 640 80)">pytorch</text>
  <text x="675" y="80" fill="white" font-family="sans-serif" font-weight="bold" font-size="12" text-anchor="end" dominant-baseline="middle" transform="rotate(90 675 80)">reversediff-jl</text>
  <text x="710" y="80" fill="white" font-family="sans-serif" font-weight="bold" font-size="12" text-anchor="end" dominant-baseline="middle" transform="rotate(90 710 80)">scilean</text>
  <text x="745" y="80" fill="white" font-family="sans-serif" font-weight="bold" font-size="12" text-anchor="end" dominant-baseline="middle" transform="rotate(90 745 80)">tapenade</text>
  <text x="780" y="80" fill="white" font-family="sans-serif" font-weight="bold" font-size="12" text-anchor="end" dominant-baseline="middle" transform="rotate(90 780 80)">tensorflow</text>
  <text x="815" y="80" fill="white" font-family="sans-serif" font-weight="bold" font-size="12" text-anchor="end" dominant-baseline="middle" transform="rotate(90 815 80)">tensorflow-js</text>
  <text x="850" y="80" fill="white" font-family="sans-serif" font-weight="bold" font-size="12" text-anchor="end" dominant-baseline="middle" transform="rotate(90 850 80)">zygote</text>
  <rect x="65" y="85" width="30" height="30" fill="hsl(240 100% 81.01474174934405%)" />
  <rect x="100" y="85" width="30" height="30" fill="hsl(240 100% 82.80658374296638%)" />
  <rect x="135" y="85" width="30" height="30" fill="hsl(240 100% 97.99344370657003%)" />
  <rect x="170" y="85" width="30" height="30" fill="hsl(240 100% 82.28063009594662%)" />
  <rect x="205" y="85" width="30" height="30" fill="hsl(240 100% 98.99729225838348%)" />
  <rect x="240" y="85" width="30" height="30" fill="hsl(240 100% 51.25755007352117%)" />
  <rect x="310" y="85" width="30" height="30" fill="hsl(240 100% 93.21445472045176%)" />
  <rect x="415" y="85" width="30" height="30" fill="hsl(240 100% 68.02203623205315%)" />
  <rect x="520" y="85" width="30" height="30" fill="hsl(240 100% 50%)" />
  <rect x="625" y="85" width="30" height="30" fill="rgb(255 255 255 / 50%)" />
  <rect x="730" y="85" width="30" height="30" fill="hsl(240 100% 74.6828044581156%)" />
  <rect x="765" y="85" width="30" height="30" fill="rgb(255 255 255 / 50%)" />
  <rect x="835" y="85" width="30" height="30" fill="hsl(240 100% 99.73062206685934%)" />
  <rect x="65" y="120" width="30" height="30" fill="hsl(240 100% 50%)" />
  <rect x="100" y="120" width="30" height="30" fill="hsl(240 100% 82.56117066647936%)" />
  <rect x="135" y="120" width="30" height="30" fill="hsl(240 100% 85.64650910879232%)" />
  <rect x="170" y="120" width="30" height="30" fill="hsl(240 100% 51.80302915079032%)" />
  <rect x="205" y="120" width="30" height="30" fill="hsl(240 100% 92.54907920255441%)" />
  <rect x="240" y="120" width="30" height="30" fill="hsl(240 100% 91.53184081767324%)" />
  <rect x="275" y="120" width="30" height="30" fill="hsl(240 100% 99.34440369918833%)" />
  <rect x="310" y="120" width="30" height="30" fill="hsl(240 100% 98.98182458526817%)" />
  <rect x="380" y="120" width="30" height="30" fill="hsl(240 100% 93.34878882080575%)" />
  <rect x="415" y="120" width="30" height="30" fill="hsl(240 100% 94.55653437356187%)" />
  <rect x="450" y="120" width="30" height="30" fill="hsl(240 100% 97.89495770402402%)" />
  <rect x="520" y="120" width="30" height="30" fill="hsl(240 100% 79.59542228204072%)" />
  <rect x="555" y="120" width="30" height="30" fill="hsl(240 100% 91.46171053918334%)" />
  <rect x="660" y="120" width="30" height="30" fill="rgb(255 255 255 / 50%)" />
  <rect x="835" y="120" width="30" height="30" fill="rgb(255 255 255 / 50%)" />
  <rect x="65" y="155" width="30" height="30" fill="hsl(240 100% 98.40004107239923%)" />
  <rect x="100" y="155" width="30" height="30" fill="hsl(240 100% 98.82187586852974%)" />
  <rect x="135" y="155" width="30" height="30" fill="hsl(240 100% 99.1253804781909%)" />
  <rect x="170" y="155" width="30" height="30" fill="hsl(240 100% 98.06062093572912%)" />
  <rect x="205" y="155" width="30" height="30" fill="hsl(240 100% 99.8498634696269%)" />
  <rect x="240" y="155" width="30" height="30" fill="hsl(240 100% 91.11822748513033%)" />
  <rect x="275" y="155" width="30" height="30" fill="hsl(240 100% 92.8852496986173%)" />
  <rect x="310" y="155" width="30" height="30" fill="rgb(255 255 255 / 50%)" />
  <rect x="415" y="155" width="30" height="30" fill="hsl(240 100% 92.98923936486251%)" />
  <rect x="485" y="155" width="30" height="30" fill="hsl(240 100% 50%)" />
  <rect x="520" y="155" width="30" height="30" fill="hsl(240 100% 83.31939320685034%)" />
  <rect x="590" y="155" width="30" height="30" fill="hsl(240 100% 99.58864020180505%)" />
  <rect x="625" y="155" width="30" height="30" fill="hsl(240 100% 68.16091225095121%)" />
  <rect x="695" y="155" width="30" height="30" fill="hsl(240 100% 95.43231625511416%)" />
  <rect x="730" y="155" width="30" height="30" fill="hsl(240 100% 83.64255912388435%)" />
  <rect x="765" y="155" width="30" height="30" fill="hsl(240 100% 99.57697492768331%)" />
  <rect x="835" y="155" width="30" height="30" fill="hsl(240 100% 95.99860871055681%)" />
  <rect x="65" y="190" width="30" height="30" fill="hsl(240 100% 50%)" />
  <rect x="100" y="190" width="30" height="30" fill="hsl(240 100% 50%)" />
  <rect x="135" y="190" width="30" height="30" fill="hsl(240 100% 50%)" />
  <rect x="170" y="190" width="30" height="30" fill="hsl(240 100% 50%)" />
  <rect x="205" y="190" width="30" height="30" fill="hsl(240 100% 50%)" />
  <rect x="240" y="190" width="30" height="30" fill="hsl(240 100% 50%)" />
  <rect x="275" y="190" width="30" height="30" fill="hsl(240 100% 50%)" />
  <rect x="310" y="190" width="30" height="30" fill="hsl(240 100% 50%)" />
  <rect x="345" y="190" width="30" height="30" fill="hsl(240 100% 50%)" />
  <rect x="380" y="190" width="30" height="30" fill="hsl(240 100% 50%)" />
  <rect x="415" y="190" width="30" height="30" fill="hsl(240 100% 50%)" />
  <rect x="450" y="190" width="30" height="30" fill="hsl(240 100% 50%)" />
  <rect x="485" y="190" width="30" height="30" fill="hsl(240 100% 50%)" />
  <rect x="520" y="190" width="30" height="30" fill="hsl(240 100% 50%)" />
  <rect x="555" y="190" width="30" height="30" fill="hsl(240 100% 50%)" />
  <rect x="590" y="190" width="30" height="30" fill="hsl(240 100% 50%)" />
  <rect x="625" y="190" width="30" height="30" fill="hsl(240 100% 50%)" />
  <rect x="660" y="190" width="30" height="30" fill="hsl(240 100% 50%)" />
  <rect x="695" y="190" width="30" height="30" fill="hsl(240 100% 50%)" />
  <rect x="730" y="190" width="30" height="30" fill="hsl(240 100% 50%)" />
  <rect x="765" y="190" width="30" height="30" fill="hsl(240 100% 50%)" />
  <rect x="800" y="190" width="30" height="30" fill="hsl(240 100% 50%)" />
  <rect x="835" y="190" width="30" height="30" fill="hsl(240 100% 50%)" />
  <rect x="100" y="225" width="30" height="30" fill="hsl(240 100% 96.68121734469742%)" />
  <rect x="135" y="225" width="30" height="30" fill="hsl(240 100% 89.52188923616347%)" />
  <rect x="170" y="225" width="30" height="30" fill="hsl(240 100% 89.186339269108%)" />
  <rect x="240" y="225" width="30" height="30" fill="hsl(240 100% 91.30467944523346%)" />
  <rect x="310" y="225" width="30" height="30" fill="rgb(255 255 255 / 50%)" />
  <rect x="415" y="225" width="30" height="30" fill="hsl(240 100% 90.54070302499608%)" />
  <rect x="520" y="225" width="30" height="30" fill="hsl(240 100% 50%)" />
  <rect x="625" y="225" width="30" height="30" fill="rgb(255 255 255 / 50%)" />
  <rect x="730" y="225" width="30" height="30" fill="hsl(240 100% 93.15351777931073%)" />
  <rect x="765" y="225" width="30" height="30" fill="rgb(255 255 255 / 50%)" />
  <rect x="835" y="225" width="30" height="30" fill="hsl(240 100% 94.95312073434347%)" />
  <rect x="65" y="260" width="30" height="30" fill="hsl(240 100% 99.88065540123459%)" />
  <rect x="135" y="260" width="30" height="30" fill="hsl(240 100% 99.85212868816657%)" />
  <rect x="170" y="260" width="30" height="30" fill="hsl(240 100% 98.82704340287626%)" />
  <rect x="205" y="260" width="30" height="30" fill="rgb(255 255 255 / 50%)" />
  <rect x="240" y="260" width="30" height="30" fill="hsl(240 100% 87.08548121235864%)" />
  <rect x="310" y="260" width="30" height="30" fill="rgb(255 255 255 / 50%)" />
  <rect x="415" y="260" width="30" height="30" fill="hsl(240 100% 80.5252832237245%)" />
  <rect x="450" y="260" width="30" height="30" fill="rgb(255 255 255 / 50%)" />
  <rect x="485" y="260" width="30" height="30" fill="hsl(240 100% 50%)" />
  <rect x="520" y="260" width="30" height="30" fill="hsl(240 100% 71.0361277684845%)" />
  <rect x="625" y="260" width="30" height="30" fill="hsl(240 100% 96.9694275748414%)" />
  <rect x="695" y="260" width="30" height="30" fill="hsl(240 100% 94.13753727992774%)" />
  <rect x="65" y="295" width="30" height="30" fill="hsl(240 100% 85.55917211107518%)" />
  <rect x="100" y="295" width="30" height="30" fill="hsl(240 100% 97.56559636207146%)" />
  <rect x="135" y="295" width="30" height="30" fill="hsl(240 100% 95.0664236629891%)" />
  <rect x="170" y="295" width="30" height="30" fill="hsl(240 100% 90.52678457807178%)" />
  <rect x="205" y="295" width="30" height="30" fill="hsl(240 100% 99.45351573719329%)" />
  <rect x="240" y="295" width="30" height="30" fill="hsl(240 100% 50%)" />
  <rect x="275" y="295" width="30" height="30" fill="hsl(240 100% 50.15368406362011%)" />
  <rect x="310" y="295" width="30" height="30" fill="hsl(240 100% 99.4928289414009%)" />
  <rect x="345" y="295" width="30" height="30" fill="hsl(240 100% 94.63518577168728%)" />
  <rect x="415" y="295" width="30" height="30" fill="hsl(240 100% 54.630852839219216%)" />
  <rect x="450" y="295" width="30" height="30" fill="hsl(240 100% 99.34317907266414%)" />
  <rect x="485" y="295" width="30" height="30" fill="hsl(240 100% 88.28046165536767%)" />
  <rect x="520" y="295" width="30" height="30" fill="hsl(240 100% 57.29282686778434%)" />
  <rect x="695" y="295" width="30" height="30" fill="hsl(240 100% 97.57856725786507%)" />
  <rect x="800" y="295" width="30" height="30" fill="hsl(240 100% 99.5732899036641%)" />
  <rect x="835" y="295" width="30" height="30" fill="hsl(240 100% 99.95731410930306%)" />
  <rect x="65" y="330" width="30" height="30" fill="hsl(240 100% 89.0409237267746%)" />
  <rect x="100" y="330" width="30" height="30" fill="hsl(240 100% 94.76669998489447%)" />
  <rect x="135" y="330" width="30" height="30" fill="hsl(240 100% 97.25055147339464%)" />
  <rect x="170" y="330" width="30" height="30" fill="hsl(240 100% 88.69820784893791%)" />
  <rect x="205" y="330" width="30" height="30" fill="hsl(240 100% 99.22014429546576%)" />
  <rect x="240" y="330" width="30" height="30" fill="hsl(240 100% 80.1324798158463%)" />
  <rect x="275" y="330" width="30" height="30" fill="hsl(240 100% 87.73459408696436%)" />
  <rect x="310" y="330" width="30" height="30" fill="rgb(255 255 255 / 50%)" />
  <rect x="345" y="330" width="30" height="30" fill="hsl(240 100% 97.27514250649521%)" />
  <rect x="415" y="330" width="30" height="30" fill="hsl(240 100% 86.04102395020183%)" />
  <rect x="450" y="330" width="30" height="30" fill="hsl(240 100% 99.81291988413066%)" />
  <rect x="485" y="330" width="30" height="30" fill="hsl(240 100% 72.24157933148324%)" />
  <rect x="520" y="330" width="30" height="30" fill="hsl(240 100% 77.38454481860074%)" />
  <rect x="590" y="330" width="30" height="30" fill="hsl(240 100% 93.96163343692717%)" />
  <rect x="625" y="330" width="30" height="30" fill="hsl(240 100% 50%)" />
  <rect x="765" y="330" width="30" height="30" fill="hsl(240 100% 94.91436049017804%)" />
  <rect x="800" y="330" width="30" height="30" fill="hsl(240 100% 99.22551510251051%)" />
  <rect x="835" y="330" width="30" height="30" fill="hsl(240 100% 80.70261493089329%)" />
  <rect x="65" y="365" width="30" height="30" fill="hsl(240 100% 57.115651403960285%)" />
  <rect x="100" y="365" width="30" height="30" fill="hsl(240 100% 72.4908983473496%)" />
  <rect x="135" y="365" width="30" height="30" fill="hsl(240 100% 81.9844898133556%)" />
  <rect x="170" y="365" width="30" height="30" fill="hsl(240 100% 50%)" />
  <rect x="205" y="365" width="30" height="30" fill="hsl(240 100% 96.2229357895302%)" />
  <rect x="240" y="365" width="30" height="30" fill="hsl(240 100% 60.15944728222693%)" />
  <rect x="275" y="365" width="30" height="30" fill="hsl(240 100% 92.42406357011164%)" />
  <rect x="310" y="365" width="30" height="30" fill="hsl(240 100% 99.86271521394866%)" />
  <rect x="415" y="365" width="30" height="30" fill="hsl(240 100% 66.85062150987896%)" />
  <rect x="520" y="365" width="30" height="30" fill="hsl(240 100% 85.87580176291316%)" />
  <rect x="625" y="365" width="30" height="30" fill="hsl(240 100% 99.6321310210503%)" />
  <rect x="730" y="365" width="30" height="30" fill="hsl(240 100% 63.469238525466544%)" />
  <rect x="765" y="365" width="30" height="30" fill="hsl(240 100% 98.19249552242603%)" />
  <rect x="835" y="365" width="30" height="30" fill="hsl(240 100% 98.82499385065573%)" />
  <rect x="65" y="400" width="30" height="30" fill="hsl(240 100% 98.13301135740686%)" />
  <rect x="100" y="400" width="30" height="30" fill="hsl(240 100% 99.25742596598293%)" />
  <rect x="135" y="400" width="30" height="30" fill="hsl(240 100% 99.58305867976316%)" />
  <rect x="170" y="400" width="30" height="30" fill="hsl(240 100% 94.12849775044106%)" />
  <rect x="205" y="400" width="30" height="30" fill="hsl(240 100% 99.03278924357632%)" />
  <rect x="240" y="400" width="30" height="30" fill="hsl(240 100% 82.16483531656789%)" />
  <rect x="275" y="400" width="30" height="30" fill="hsl(240 100% 94.06815797936002%)" />
  <rect x="310" y="400" width="30" height="30" fill="rgb(255 255 255 / 50%)" />
  <rect x="380" y="400" width="30" height="30" fill="rgb(255 255 255 / 50%)" />
  <rect x="415" y="400" width="30" height="30" fill="hsl(240 100% 92.3660029675604%)" />
  <rect x="450" y="400" width="30" height="30" fill="hsl(240 100% 99.96371745440734%)" />
  <rect x="485" y="400" width="30" height="30" fill="hsl(240 100% 72.94064304745878%)" />
  <rect x="520" y="400" width="30" height="30" fill="hsl(240 100% 50%)" />
  <rect x="555" y="400" width="30" height="30" fill="hsl(240 100% 98.86827740153413%)" />
  <rect x="660" y="400" width="30" height="30" fill="rgb(255 255 255 / 50%)" />
  <rect x="835" y="400" width="30" height="30" fill="hsl(240 100% 98.92094285044031%)" />
  <rect x="65" y="435" width="30" height="30" fill="hsl(240 100% 92.84550948315402%)" />
  <rect x="240" y="435" width="30" height="30" fill="hsl(240 100% 50%)" />
  <rect x="310" y="435" width="30" height="30" fill="hsl(240 100% 94.30324536793313%)" />
  <rect x="415" y="435" width="30" height="30" fill="hsl(240 100% 87.00708005937823%)" />
  <rect x="450" y="435" width="30" height="30" fill="hsl(240 100% 99.78408893892973%)" />
  <rect x="65" y="470" width="30" height="30" fill="hsl(240 100% 50%)" />
  <rect x="240" y="470" width="30" height="30" fill="hsl(240 100% 50.252174592774246%)" />
  <rect x="310" y="470" width="30" height="30" fill="hsl(240 100% 97.15030605354438%)" />
  <rect x="415" y="470" width="30" height="30" fill="hsl(240 100% 89.03317652936407%)" />
  <rect x="450" y="470" width="30" height="30" fill="hsl(240 100% 99.57215851348937%)" />
</svg>
