<svg xmlns="http://www.w3.org/2000/svg" viewBox="0 0 730 505">
  <rect x="0" y="0" width="730" height="505" rx="5" ry="5" fill="#222" />
  <text x="60" y="100" fill="white" font-family="sans-serif" font-weight="bold" font-size="12" text-anchor="end" dominant-baseline="middle">ba</text>
  <text x="60" y="135" fill="white" font-family="sans-serif" font-weight="bold" font-size="12" text-anchor="end" dominant-baseline="middle">det</text>
  <text x="60" y="170" fill="white" font-family="sans-serif" font-weight="bold" font-size="12" text-anchor="end" dominant-baseline="middle">gmm</text>
  <text x="60" y="205" fill="white" font-family="sans-serif" font-weight="bold" font-size="12" text-anchor="end" dominant-baseline="middle">hello</text>
  <text x="60" y="240" fill="white" font-family="sans-serif" font-weight="bold" font-size="12" text-anchor="end" dominant-baseline="middle">ht</text>
  <text x="60" y="275" fill="white" font-family="sans-serif" font-weight="bold" font-size="12" text-anchor="end" dominant-baseline="middle">kmeans</text>
  <text x="60" y="310" fill="white" font-family="sans-serif" font-weight="bold" font-size="12" text-anchor="end" dominant-baseline="middle">llsq</text>
  <text x="60" y="345" fill="white" font-family="sans-serif" font-weight="bold" font-size="12" text-anchor="end" dominant-baseline="middle">lse</text>
  <text x="60" y="380" fill="white" font-family="sans-serif" font-weight="bold" font-size="12" text-anchor="end" dominant-baseline="middle">lstm</text>
  <text x="60" y="415" fill="white" font-family="sans-serif" font-weight="bold" font-size="12" text-anchor="end" dominant-baseline="middle">ode</text>
  <text x="60" y="450" fill="white" font-family="sans-serif" font-weight="bold" font-size="12" text-anchor="end" dominant-baseline="middle">particle</text>
  <text x="60" y="485" fill="white" font-family="sans-serif" font-weight="bold" font-size="12" text-anchor="end" dominant-baseline="middle">saddle</text>
  <text x="80" y="80" fill="white" font-family="sans-serif" font-weight="bold" font-size="12" text-anchor="end" dominant-baseline="middle" transform="rotate(90 80 80)">ad-hpp</text>
  <text x="115" y="80" fill="white" font-family="sans-serif" font-weight="bold" font-size="12" text-anchor="end" dominant-baseline="middle" transform="rotate(90 115 80)">adept</text>
  <text x="150" y="80" fill="white" font-family="sans-serif" font-weight="bold" font-size="12" text-anchor="end" dominant-baseline="middle" transform="rotate(90 150 80)">adol-c</text>
  <text x="185" y="80" fill="white" font-family="sans-serif" font-weight="bold" font-size="12" text-anchor="end" dominant-baseline="middle" transform="rotate(90 185 80)">codipack</text>
  <text x="220" y="80" fill="white" font-family="sans-serif" font-weight="bold" font-size="12" text-anchor="end" dominant-baseline="middle" transform="rotate(90 220 80)">cppad</text>
  <text x="255" y="80" fill="white" font-family="sans-serif" font-weight="bold" font-size="12" text-anchor="end" dominant-baseline="middle" transform="rotate(90 255 80)">enzyme</text>
  <text x="290" y="80" fill="white" font-family="sans-serif" font-weight="bold" font-size="12" text-anchor="end" dominant-baseline="middle" transform="rotate(90 290 80)">enzyme-jl</text>
  <text x="325" y="80" fill="white" font-family="sans-serif" font-weight="bold" font-size="12" text-anchor="end" dominant-baseline="middle" transform="rotate(90 325 80)">finite</text>
  <text x="360" y="80" fill="white" font-family="sans-serif" font-weight="bold" font-size="12" text-anchor="end" dominant-baseline="middle" transform="rotate(90 360 80)">floretta</text>
  <text x="395" y="80" fill="white" font-family="sans-serif" font-weight="bold" font-size="12" text-anchor="end" dominant-baseline="middle" transform="rotate(90 395 80)">futhark</text>
  <text x="430" y="80" fill="white" font-family="sans-serif" font-weight="bold" font-size="12" text-anchor="end" dominant-baseline="middle" transform="rotate(90 430 80)">haskell</text>
  <text x="465" y="80" fill="white" font-family="sans-serif" font-weight="bold" font-size="12" text-anchor="end" dominant-baseline="middle" transform="rotate(90 465 80)">jax</text>
  <text x="500" y="80" fill="white" font-family="sans-serif" font-weight="bold" font-size="12" text-anchor="end" dominant-baseline="middle" transform="rotate(90 500 80)">manual</text>
  <text x="535" y="80" fill="white" font-family="sans-serif" font-weight="bold" font-size="12" text-anchor="end" dominant-baseline="middle" transform="rotate(90 535 80)">ocaml</text>
  <text x="570" y="80" fill="white" font-family="sans-serif" font-weight="bold" font-size="12" text-anchor="end" dominant-baseline="middle" transform="rotate(90 570 80)">pytorch</text>
  <text x="605" y="80" fill="white" font-family="sans-serif" font-weight="bold" font-size="12" text-anchor="end" dominant-baseline="middle" transform="rotate(90 605 80)">scilean</text>
  <text x="640" y="80" fill="white" font-family="sans-serif" font-weight="bold" font-size="12" text-anchor="end" dominant-baseline="middle" transform="rotate(90 640 80)">tapenade</text>
  <text x="675" y="80" fill="white" font-family="sans-serif" font-weight="bold" font-size="12" text-anchor="end" dominant-baseline="middle" transform="rotate(90 675 80)">tensorflow</text>
  <text x="710" y="80" fill="white" font-family="sans-serif" font-weight="bold" font-size="12" text-anchor="end" dominant-baseline="middle" transform="rotate(90 710 80)">zygote</text>
  <rect x="65" y="85" width="30" height="30" fill="hsl(240 100% 80.90178070886877%)" />
  <rect x="100" y="85" width="30" height="30" fill="hsl(240 100% 82.84454754507058%)" />
  <rect x="135" y="85" width="30" height="30" fill="hsl(240 100% 97.98329453428843%)" />
  <rect x="170" y="85" width="30" height="30" fill="hsl(240 100% 82.22541472908557%)" />
  <rect x="205" y="85" width="30" height="30" fill="hsl(240 100% 99.0033164487897%)" />
  <rect x="240" y="85" width="30" height="30" fill="hsl(240 100% 51.07514418925263%)" />
  <rect x="310" y="85" width="30" height="30" fill="hsl(240 100% 93.22533300894253%)" />
  <rect x="380" y="85" width="30" height="30" fill="hsl(240 100% 68.0175727822294%)" />
  <rect x="485" y="85" width="30" height="30" fill="hsl(240 100% 50%)" />
  <rect x="555" y="85" width="30" height="30" fill="rgb(255 255 255 / 50%)" />
  <rect x="625" y="85" width="30" height="30" fill="hsl(240 100% 74.63904926038987%)" />
  <rect x="660" y="85" width="30" height="30" fill="rgb(255 255 255 / 50%)" />
  <rect x="695" y="85" width="30" height="30" fill="hsl(240 100% 99.72852242245317%)" />
  <rect x="65" y="120" width="30" height="30" fill="hsl(240 100% 50%)" />
  <rect x="100" y="120" width="30" height="30" fill="hsl(240 100% 83.47155909477311%)" />
  <rect x="135" y="120" width="30" height="30" fill="hsl(240 100% 86.22568036230888%)" />
  <rect x="170" y="120" width="30" height="30" fill="hsl(240 100% 52.656396460424645%)" />
  <rect x="205" y="120" width="30" height="30" fill="hsl(240 100% 92.64660955154996%)" />
  <rect x="240" y="120" width="30" height="30" fill="hsl(240 100% 91.88544762398914%)" />
  <rect x="275" y="120" width="30" height="30" fill="hsl(240 100% 99.37596681219543%)" />
  <rect x="310" y="120" width="30" height="30" fill="hsl(240 100% 98.9886570314587%)" />
  <rect x="380" y="120" width="30" height="30" fill="hsl(240 100% 94.60357491258264%)" />
  <rect x="415" y="120" width="30" height="30" fill="hsl(240 100% 98.0984721536441%)" />
  <rect x="485" y="120" width="30" height="30" fill="hsl(240 100% 80.19124149384996%)" />
  <rect x="695" y="120" width="30" height="30" fill="rgb(255 255 255 / 50%)" />
  <rect x="65" y="155" width="30" height="30" fill="hsl(240 100% 97.41044320209149%)" />
  <rect x="100" y="155" width="30" height="30" fill="hsl(240 100% 98.25909356853634%)" />
  <rect x="135" y="155" width="30" height="30" fill="hsl(240 100% 98.87341914489417%)" />
  <rect x="170" y="155" width="30" height="30" fill="hsl(240 100% 97.26688191207445%)" />
  <rect x="205" y="155" width="30" height="30" fill="hsl(240 100% 99.76584921213238%)" />
  <rect x="240" y="155" width="30" height="30" fill="hsl(240 100% 86.87184523976923%)" />
  <rect x="275" y="155" width="30" height="30" fill="hsl(240 100% 88.2569889554617%)" />
  <rect x="310" y="155" width="30" height="30" fill="rgb(255 255 255 / 50%)" />
  <rect x="380" y="155" width="30" height="30" fill="hsl(240 100% 89.41176604816867%)" />
  <rect x="450" y="155" width="30" height="30" fill="hsl(240 100% 70.6357745903108%)" />
  <rect x="485" y="155" width="30" height="30" fill="hsl(240 100% 72.15262352413183%)" />
  <rect x="520" y="155" width="30" height="30" fill="hsl(240 100% 99.41256558799542%)" />
  <rect x="555" y="155" width="30" height="30" fill="hsl(240 100% 50%)" />
  <rect x="590" y="155" width="30" height="30" fill="hsl(240 100% 92.6507242092559%)" />
  <rect x="625" y="155" width="30" height="30" fill="hsl(240 100% 74.97814698270214%)" />
  <rect x="660" y="155" width="30" height="30" fill="hsl(240 100% 89.30642725698533%)" />
  <rect x="695" y="155" width="30" height="30" fill="hsl(240 100% 96.49649778234694%)" />
  <rect x="65" y="190" width="30" height="30" fill="hsl(240 100% 50%)" />
  <rect x="100" y="190" width="30" height="30" fill="hsl(240 100% 50%)" />
  <rect x="135" y="190" width="30" height="30" fill="hsl(240 100% 50%)" />
  <rect x="170" y="190" width="30" height="30" fill="hsl(240 100% 50%)" />
  <rect x="205" y="190" width="30" height="30" fill="hsl(240 100% 50%)" />
  <rect x="240" y="190" width="30" height="30" fill="hsl(240 100% 50%)" />
  <rect x="275" y="190" width="30" height="30" fill="hsl(240 100% 50%)" />
  <rect x="310" y="190" width="30" height="30" fill="hsl(240 100% 50%)" />
  <rect x="345" y="190" width="30" height="30" fill="hsl(240 100% 50%)" />
  <rect x="380" y="190" width="30" height="30" fill="hsl(240 100% 50%)" />
  <rect x="415" y="190" width="30" height="30" fill="hsl(240 100% 50%)" />
  <rect x="450" y="190" width="30" height="30" fill="hsl(240 100% 50%)" />
  <rect x="485" y="190" width="30" height="30" fill="hsl(240 100% 50%)" />
  <rect x="520" y="190" width="30" height="30" fill="hsl(240 100% 50%)" />
  <rect x="555" y="190" width="30" height="30" fill="hsl(240 100% 50%)" />
  <rect x="590" y="190" width="30" height="30" fill="hsl(240 100% 50%)" />
  <rect x="625" y="190" width="30" height="30" fill="hsl(240 100% 50%)" />
  <rect x="660" y="190" width="30" height="30" fill="hsl(240 100% 50%)" />
  <rect x="695" y="190" width="30" height="30" fill="hsl(240 100% 50%)" />
  <rect x="100" y="225" width="30" height="30" fill="hsl(240 100% 96.70419664447083%)" />
  <rect x="135" y="225" width="30" height="30" fill="hsl(240 100% 89.34968364228604%)" />
  <rect x="170" y="225" width="30" height="30" fill="hsl(240 100% 89.25190678224837%)" />
  <rect x="240" y="225" width="30" height="30" fill="hsl(240 100% 91.2963932688045%)" />
  <rect x="310" y="225" width="30" height="30" fill="rgb(255 255 255 / 50%)" />
  <rect x="380" y="225" width="30" height="30" fill="hsl(240 100% 90.6158156891168%)" />
  <rect x="485" y="225" width="30" height="30" fill="hsl(240 100% 50%)" />
  <rect x="555" y="225" width="30" height="30" fill="rgb(255 255 255 / 50%)" />
  <rect x="625" y="225" width="30" height="30" fill="hsl(240 100% 93.17094594120374%)" />
  <rect x="660" y="225" width="30" height="30" fill="rgb(255 255 255 / 50%)" />
  <rect x="695" y="225" width="30" height="30" fill="hsl(240 100% 94.47139089184768%)" />
  <rect x="65" y="260" width="30" height="30" fill="hsl(240 100% 99.90087769126816%)" />
  <rect x="135" y="260" width="30" height="30" fill="hsl(240 100% 99.90984519224736%)" />
  <rect x="170" y="260" width="30" height="30" fill="hsl(240 100% 98.94266972875674%)" />
  <rect x="205" y="260" width="30" height="30" fill="rgb(255 255 255 / 50%)" />
  <rect x="240" y="260" width="30" height="30" fill="hsl(240 100% 86.58954463825317%)" />
  <rect x="310" y="260" width="30" height="30" fill="rgb(255 255 255 / 50%)" />
  <rect x="380" y="260" width="30" height="30" fill="hsl(240 100% 80.09688798577244%)" />
  <rect x="415" y="260" width="30" height="30" fill="rgb(255 255 255 / 50%)" />
  <rect x="450" y="260" width="30" height="30" fill="hsl(240 100% 50%)" />
  <rect x="485" y="260" width="30" height="30" fill="hsl(240 100% 70.19900780247855%)" />
  <rect x="555" y="260" width="30" height="30" fill="hsl(240 100% 97.08760268321167%)" />
  <rect x="590" y="260" width="30" height="30" fill="hsl(240 100% 93.85623523214802%)" />
  <rect x="65" y="295" width="30" height="30" fill="hsl(240 100% 86.02930651405327%)" />
  <rect x="100" y="295" width="30" height="30" fill="hsl(240 100% 97.5763984237479%)" />
  <rect x="135" y="295" width="30" height="30" fill="hsl(240 100% 95.19661882930512%)" />
  <rect x="170" y="295" width="30" height="30" fill="hsl(240 100% 90.7452229746132%)" />
  <rect x="205" y="295" width="30" height="30" fill="hsl(240 100% 99.46942131426135%)" />
  <rect x="240" y="295" width="30" height="30" fill="hsl(240 100% 50.79930483479566%)" />
  <rect x="275" y="295" width="30" height="30" fill="hsl(240 100% 50%)" />
  <rect x="310" y="295" width="30" height="30" fill="hsl(240 100% 99.50123416520472%)" />
  <rect x="345" y="295" width="30" height="30" fill="hsl(240 100% 94.74325510177118%)" />
  <rect x="380" y="295" width="30" height="30" fill="hsl(240 100% 55.4274793264715%)" />
  <rect x="415" y="295" width="30" height="30" fill="hsl(240 100% 99.34495353567773%)" />
  <rect x="450" y="295" width="30" height="30" fill="hsl(240 100% 89.65657194364704%)" />
  <rect x="485" y="295" width="30" height="30" fill="hsl(240 100% 58.02423822627254%)" />
  <rect x="590" y="295" width="30" height="30" fill="hsl(240 100% 97.61950655478121%)" />
  <rect x="695" y="295" width="30" height="30" fill="hsl(240 100% 99.95601725547715%)" />
  <rect x="65" y="330" width="30" height="30" fill="hsl(240 100% 85.7304708866998%)" />
  <rect x="100" y="330" width="30" height="30" fill="hsl(240 100% 93.71371509293817%)" />
  <rect x="135" y="330" width="30" height="30" fill="hsl(240 100% 96.50876234239195%)" />
  <rect x="170" y="330" width="30" height="30" fill="hsl(240 100% 84.98235449147661%)" />
  <rect x="205" y="330" width="30" height="30" fill="hsl(240 100% 99.06095457115777%)" />
  <rect x="240" y="330" width="30" height="30" fill="hsl(240 100% 73.84797244625581%)" />
  <rect x="275" y="330" width="30" height="30" fill="hsl(240 100% 84.59870881088915%)" />
  <rect x="310" y="330" width="30" height="30" fill="rgb(255 255 255 / 50%)" />
  <rect x="345" y="330" width="30" height="30" fill="hsl(240 100% 96.66463918101701%)" />
  <rect x="380" y="330" width="30" height="30" fill="hsl(240 100% 82.91144203788926%)" />
  <rect x="415" y="330" width="30" height="30" fill="hsl(240 100% 99.7764287343195%)" />
  <rect x="450" y="330" width="30" height="30" fill="hsl(240 100% 64.68548471228041%)" />
  <rect x="485" y="330" width="30" height="30" fill="hsl(240 100% 67.69183305675016%)" />
  <rect x="520" y="330" width="30" height="30" fill="hsl(240 100% 92.51592157829242%)" />
  <rect x="555" y="330" width="30" height="30" fill="hsl(240 100% 50%)" />
  <rect x="660" y="330" width="30" height="30" fill="hsl(240 100% 93.73051514287752%)" />
  <rect x="695" y="330" width="30" height="30" fill="hsl(240 100% 74.77005742241167%)" />
  <rect x="65" y="365" width="30" height="30" fill="hsl(240 100% 57.01011796244143%)" />
  <rect x="100" y="365" width="30" height="30" fill="hsl(240 100% 74.16425011776096%)" />
  <rect x="135" y="365" width="30" height="30" fill="hsl(240 100% 81.9287271933058%)" />
  <rect x="170" y="365" width="30" height="30" fill="hsl(240 100% 50%)" />
  <rect x="205" y="365" width="30" height="30" fill="hsl(240 100% 96.14860989983336%)" />
  <rect x="240" y="365" width="30" height="30" fill="hsl(240 100% 60.26531153212578%)" />
  <rect x="275" y="365" width="30" height="30" fill="hsl(240 100% 92.76759625023423%)" />
  <rect x="310" y="365" width="30" height="30" fill="hsl(240 100% 99.86046348949452%)" />
  <rect x="380" y="365" width="30" height="30" fill="hsl(240 100% 66.44610969575852%)" />
  <rect x="485" y="365" width="30" height="30" fill="hsl(240 100% 85.98858160739579%)" />
  <rect x="555" y="365" width="30" height="30" fill="hsl(240 100% 99.63352873753436%)" />
  <rect x="625" y="365" width="30" height="30" fill="hsl(240 100% 63.050123031203064%)" />
  <rect x="660" y="365" width="30" height="30" fill="hsl(240 100% 98.13041589523095%)" />
  <rect x="695" y="365" width="30" height="30" fill="hsl(240 100% 98.76066878997973%)" />
  <rect x="65" y="400" width="30" height="30" fill="hsl(240 100% 98.49368503958515%)" />
  <rect x="100" y="400" width="30" height="30" fill="hsl(240 100% 99.44226502170189%)" />
  <rect x="135" y="400" width="30" height="30" fill="hsl(240 100% 99.67741968056951%)" />
  <rect x="170" y="400" width="30" height="30" fill="hsl(240 100% 95.42615019645484%)" />
  <rect x="205" y="400" width="30" height="30" fill="hsl(240 100% 99.25298128388877%)" />
  <rect x="240" y="400" width="30" height="30" fill="hsl(240 100% 88.56470438431278%)" />
  <rect x="275" y="400" width="30" height="30" fill="hsl(240 100% 95.40221899825623%)" />
  <rect x="310" y="400" width="30" height="30" fill="rgb(255 255 255 / 50%)" />
  <rect x="380" y="400" width="30" height="30" fill="hsl(240 100% 94.01851632171785%)" />
  <rect x="415" y="400" width="30" height="30" fill="hsl(240 100% 99.97248947831727%)" />
  <rect x="450" y="400" width="30" height="30" fill="hsl(240 100% 78.85300001534036%)" />
  <rect x="485" y="400" width="30" height="30" fill="hsl(240 100% 50%)" />
  <rect x="695" y="400" width="30" height="30" fill="hsl(240 100% 99.02128402359308%)" />
  <rect x="65" y="435" width="30" height="30" fill="hsl(240 100% 92.97529021396832%)" />
  <rect x="240" y="435" width="30" height="30" fill="hsl(240 100% 50%)" />
  <rect x="310" y="435" width="30" height="30" fill="hsl(240 100% 94.29105201806688%)" />
  <rect x="380" y="435" width="30" height="30" fill="hsl(240 100% 87.09697682637372%)" />
  <rect x="415" y="435" width="30" height="30" fill="hsl(240 100% 99.79395928479629%)" />
  <rect x="65" y="470" width="30" height="30" fill="hsl(240 100% 50%)" />
  <rect x="240" y="470" width="30" height="30" fill="hsl(240 100% 50.3847205553952%)" />
  <rect x="310" y="470" width="30" height="30" fill="hsl(240 100% 97.15163471782725%)" />
  <rect x="380" y="470" width="30" height="30" fill="hsl(240 100% 89.24910694508355%)" />
  <rect x="415" y="470" width="30" height="30" fill="hsl(240 100% 99.5861723012159%)" />
</svg>
