<svg xmlns="http://www.w3.org/2000/svg" viewBox="0 0 870 505">
  <rect x="0" y="0" width="870" height="505" rx="5" ry="5" fill="#222" />
  <text x="60" y="100" fill="white" font-family="sans-serif" font-weight="bold" font-size="12" text-anchor="end" dominant-baseline="middle">ba</text>
  <text x="60" y="135" fill="white" font-family="sans-serif" font-weight="bold" font-size="12" text-anchor="end" dominant-baseline="middle">det</text>
  <text x="60" y="170" fill="white" font-family="sans-serif" font-weight="bold" font-size="12" text-anchor="end" dominant-baseline="middle">gmm</text>
  <text x="60" y="205" fill="white" font-family="sans-serif" font-weight="bold" font-size="12" text-anchor="end" dominant-baseline="middle">hello</text>
  <text x="60" y="240" fill="white" font-family="sans-serif" font-weight="bold" font-size="12" text-anchor="end" dominant-baseline="middle">ht</text>
  <text x="60" y="275" fill="white" font-family="sans-serif" font-weight="bold" font-size="12" text-anchor="end" dominant-baseline="middle">kmeans</text>
  <text x="60" y="310" fill="white" font-family="sans-serif" font-weight="bold" font-size="12" text-anchor="end" dominant-baseline="middle">llsq</text>
  <text x="60" y="345" fill="white" font-family="sans-serif" font-weight="bold" font-size="12" text-anchor="end" dominant-baseline="middle">lse</text>
  <text x="60" y="380" fill="white" font-family="sans-serif" font-weight="bold" font-size="12" text-anchor="end" dominant-baseline="middle">lstm</text>
  <text x="60" y="415" fill="white" font-family="sans-serif" font-weight="bold" font-size="12" text-anchor="end" dominant-baseline="middle">ode</text>
  <text x="60" y="450" fill="white" font-family="sans-serif" font-weight="bold" font-size="12" text-anchor="end" dominant-baseline="middle">particle</text>
  <text x="60" y="485" fill="white" font-family="sans-serif" font-weight="bold" font-size="12" text-anchor="end" dominant-baseline="middle">saddle</text>
  <text x="80" y="80" fill="white" font-family="sans-serif" font-weight="bold" font-size="12" text-anchor="end" dominant-baseline="middle" transform="rotate(90 80 80)">ad-hpp</text>
  <text x="115" y="80" fill="white" font-family="sans-serif" font-weight="bold" font-size="12" text-anchor="end" dominant-baseline="middle" transform="rotate(90 115 80)">adept</text>
  <text x="150" y="80" fill="white" font-family="sans-serif" font-weight="bold" font-size="12" text-anchor="end" dominant-baseline="middle" transform="rotate(90 150 80)">adol-c</text>
  <text x="185" y="80" fill="white" font-family="sans-serif" font-weight="bold" font-size="12" text-anchor="end" dominant-baseline="middle" transform="rotate(90 185 80)">codipack</text>
  <text x="220" y="80" fill="white" font-family="sans-serif" font-weight="bold" font-size="12" text-anchor="end" dominant-baseline="middle" transform="rotate(90 220 80)">cppad</text>
  <text x="255" y="80" fill="white" font-family="sans-serif" font-weight="bold" font-size="12" text-anchor="end" dominant-baseline="middle" transform="rotate(90 255 80)">enzyme</text>
  <text x="290" y="80" fill="white" font-family="sans-serif" font-weight="bold" font-size="12" text-anchor="end" dominant-baseline="middle" transform="rotate(90 290 80)">enzyme-jl</text>
  <text x="325" y="80" fill="white" font-family="sans-serif" font-weight="bold" font-size="12" text-anchor="end" dominant-baseline="middle" transform="rotate(90 325 80)">finite</text>
  <text x="360" y="80" fill="white" font-family="sans-serif" font-weight="bold" font-size="12" text-anchor="end" dominant-baseline="middle" transform="rotate(90 360 80)">floretta</text>
  <text x="395" y="80" fill="white" font-family="sans-serif" font-weight="bold" font-size="12" text-anchor="end" dominant-baseline="middle" transform="rotate(90 395 80)">forwarddiff-jl</text>
  <text x="430" y="80" fill="white" font-family="sans-serif" font-weight="bold" font-size="12" text-anchor="end" dominant-baseline="middle" transform="rotate(90 430 80)">futhark</text>
  <text x="465" y="80" fill="white" font-family="sans-serif" font-weight="bold" font-size="12" text-anchor="end" dominant-baseline="middle" transform="rotate(90 465 80)">haskell</text>
  <text x="500" y="80" fill="white" font-family="sans-serif" font-weight="bold" font-size="12" text-anchor="end" dominant-baseline="middle" transform="rotate(90 500 80)">jax</text>
  <text x="535" y="80" fill="white" font-family="sans-serif" font-weight="bold" font-size="12" text-anchor="end" dominant-baseline="middle" transform="rotate(90 535 80)">manual</text>
  <text x="570" y="80" fill="white" font-family="sans-serif" font-weight="bold" font-size="12" text-anchor="end" dominant-baseline="middle" transform="rotate(90 570 80)">mooncake-jl</text>
  <text x="605" y="80" fill="white" font-family="sans-serif" font-weight="bold" font-size="12" text-anchor="end" dominant-baseline="middle" transform="rotate(90 605 80)">ocaml</text>
  <text x="640" y="80" fill="white" font-family="sans-serif" font-weight="bold" font-size="12" text-anchor="end" dominant-baseline="middle" transform="rotate(90 640 80)">pytorch</text>
  <text x="675" y="80" fill="white" font-family="sans-serif" font-weight="bold" font-size="12" text-anchor="end" dominant-baseline="middle" transform="rotate(90 675 80)">reversediff-jl</text>
  <text x="710" y="80" fill="white" font-family="sans-serif" font-weight="bold" font-size="12" text-anchor="end" dominant-baseline="middle" transform="rotate(90 710 80)">scilean</text>
  <text x="745" y="80" fill="white" font-family="sans-serif" font-weight="bold" font-size="12" text-anchor="end" dominant-baseline="middle" transform="rotate(90 745 80)">tapenade</text>
  <text x="780" y="80" fill="white" font-family="sans-serif" font-weight="bold" font-size="12" text-anchor="end" dominant-baseline="middle" transform="rotate(90 780 80)">tensorflow</text>
  <text x="815" y="80" fill="white" font-family="sans-serif" font-weight="bold" font-size="12" text-anchor="end" dominant-baseline="middle" transform="rotate(90 815 80)">tensorflow-js</text>
  <text x="850" y="80" fill="white" font-family="sans-serif" font-weight="bold" font-size="12" text-anchor="end" dominant-baseline="middle" transform="rotate(90 850 80)">zygote</text>
  <rect x="65" y="85" width="30" height="30" fill="hsl(240 100% 80.99565204741944%)" />
  <rect x="100" y="85" width="30" height="30" fill="hsl(240 100% 83.10076534011944%)" />
  <rect x="135" y="85" width="30" height="30" fill="hsl(240 100% 97.99912566943858%)" />
  <rect x="170" y="85" width="30" height="30" fill="hsl(240 100% 82.39699919772127%)" />
  <rect x="205" y="85" width="30" height="30" fill="hsl(240 100% 99.00230328116238%)" />
  <rect x="240" y="85" width="30" height="30" fill="hsl(240 100% 51.786781857992366%)" />
  <rect x="310" y="85" width="30" height="30" fill="hsl(240 100% 93.29261935134622%)" />
  <rect x="415" y="85" width="30" height="30" fill="hsl(240 100% 68.38476634075153%)" />
  <rect x="520" y="85" width="30" height="30" fill="hsl(240 100% 50%)" />
  <rect x="625" y="85" width="30" height="30" fill="rgb(255 255 255 / 50%)" />
  <rect x="730" y="85" width="30" height="30" fill="hsl(240 100% 74.94097125832474%)" />
  <rect x="765" y="85" width="30" height="30" fill="rgb(255 255 255 / 50%)" />
  <rect x="835" y="85" width="30" height="30" fill="hsl(240 100% 99.73215529990098%)" />
  <rect x="65" y="120" width="30" height="30" fill="hsl(240 100% 50%)" />
  <rect x="100" y="120" width="30" height="30" fill="hsl(240 100% 82.3994217752199%)" />
  <rect x="135" y="120" width="30" height="30" fill="hsl(240 100% 85.71093874256428%)" />
  <rect x="170" y="120" width="30" height="30" fill="hsl(240 100% 52.204287902772016%)" />
  <rect x="205" y="120" width="30" height="30" fill="hsl(240 100% 92.55477138549108%)" />
  <rect x="240" y="120" width="30" height="30" fill="hsl(240 100% 91.5586922467722%)" />
  <rect x="275" y="120" width="30" height="30" fill="hsl(240 100% 99.35617507658131%)" />
  <rect x="310" y="120" width="30" height="30" fill="hsl(240 100% 98.99815078599293%)" />
  <rect x="380" y="120" width="30" height="30" fill="hsl(240 100% 93.42502634599909%)" />
  <rect x="415" y="120" width="30" height="30" fill="hsl(240 100% 94.60824507538725%)" />
  <rect x="450" y="120" width="30" height="30" fill="hsl(240 100% 97.8428086227281%)" />
  <rect x="520" y="120" width="30" height="30" fill="hsl(240 100% 79.70928514344264%)" />
  <rect x="555" y="120" width="30" height="30" fill="hsl(240 100% 89.9798747589735%)" />
  <rect x="660" y="120" width="30" height="30" fill="rgb(255 255 255 / 50%)" />
  <rect x="835" y="120" width="30" height="30" fill="rgb(255 255 255 / 50%)" />
  <rect x="65" y="155" width="30" height="30" fill="hsl(240 100% 98.3894274797721%)" />
  <rect x="100" y="155" width="30" height="30" fill="hsl(240 100% 98.73404840142769%)" />
  <rect x="135" y="155" width="30" height="30" fill="hsl(240 100% 99.03206368070104%)" />
  <rect x="170" y="155" width="30" height="30" fill="hsl(240 100% 97.94032958588922%)" />
  <rect x="205" y="155" width="30" height="30" fill="hsl(240 100% 99.83682561839697%)" />
  <rect x="240" y="155" width="30" height="30" fill="hsl(240 100% 90.5164953844641%)" />
  <rect x="275" y="155" width="30" height="30" fill="hsl(240 100% 92.2697342555673%)" />
  <rect x="310" y="155" width="30" height="30" fill="rgb(255 255 255 / 50%)" />
  <rect x="415" y="155" width="30" height="30" fill="hsl(240 100% 92.47811777449036%)" />
  <rect x="485" y="155" width="30" height="30" fill="hsl(240 100% 50%)" />
  <rect x="520" y="155" width="30" height="30" fill="hsl(240 100% 82.13151348000312%)" />
  <rect x="590" y="155" width="30" height="30" fill="hsl(240 100% 99.54936774869614%)" />
  <rect x="625" y="155" width="30" height="30" fill="hsl(240 100% 65.22807752653256%)" />
  <rect x="695" y="155" width="30" height="30" fill="hsl(240 100% 95.14215214116807%)" />
  <rect x="730" y="155" width="30" height="30" fill="hsl(240 100% 82.62485154117311%)" />
  <rect x="765" y="155" width="30" height="30" fill="hsl(240 100% 99.55148191387103%)" />
  <rect x="835" y="155" width="30" height="30" fill="hsl(240 100% 95.90598833024542%)" />
  <rect x="65" y="190" width="30" height="30" fill="hsl(240 100% 50%)" />
  <rect x="100" y="190" width="30" height="30" fill="hsl(240 100% 50%)" />
  <rect x="135" y="190" width="30" height="30" fill="hsl(240 100% 50%)" />
  <rect x="170" y="190" width="30" height="30" fill="hsl(240 100% 50%)" />
  <rect x="205" y="190" width="30" height="30" fill="hsl(240 100% 50%)" />
  <rect x="240" y="190" width="30" height="30" fill="hsl(240 100% 50%)" />
  <rect x="275" y="190" width="30" height="30" fill="hsl(240 100% 50%)" />
  <rect x="310" y="190" width="30" height="30" fill="hsl(240 100% 50%)" />
  <rect x="345" y="190" width="30" height="30" fill="hsl(240 100% 50%)" />
  <rect x="380" y="190" width="30" height="30" fill="hsl(240 100% 50%)" />
  <rect x="415" y="190" width="30" height="30" fill="hsl(240 100% 50%)" />
  <rect x="450" y="190" width="30" height="30" fill="hsl(240 100% 50%)" />
  <rect x="485" y="190" width="30" height="30" fill="hsl(240 100% 50%)" />
  <rect x="520" y="190" width="30" height="30" fill="hsl(240 100% 50%)" />
  <rect x="555" y="190" width="30" height="30" fill="hsl(240 100% 50%)" />
  <rect x="590" y="190" width="30" height="30" fill="hsl(240 100% 50%)" />
  <rect x="625" y="190" width="30" height="30" fill="hsl(240 100% 50%)" />
  <rect x="660" y="190" width="30" height="30" fill="hsl(240 100% 50%)" />
  <rect x="695" y="190" width="30" height="30" fill="hsl(240 100% 50%)" />
  <rect x="730" y="190" width="30" height="30" fill="hsl(240 100% 50%)" />
  <rect x="765" y="190" width="30" height="30" fill="hsl(240 100% 50%)" />
  <rect x="800" y="190" width="30" height="30" fill="hsl(240 100% 50%)" />
  <rect x="835" y="190" width="30" height="30" fill="hsl(240 100% 50%)" />
  <rect x="100" y="225" width="30" height="30" fill="hsl(240 100% 96.67723597616512%)" />
  <rect x="135" y="225" width="30" height="30" fill="hsl(240 100% 89.25985860852674%)" />
  <rect x="170" y="225" width="30" height="30" fill="hsl(240 100% 89.32122872756193%)" />
  <rect x="240" y="225" width="30" height="30" fill="hsl(240 100% 91.29874733159166%)" />
  <rect x="310" y="225" width="30" height="30" fill="rgb(255 255 255 / 50%)" />
  <rect x="415" y="225" width="30" height="30" fill="hsl(240 100% 90.58437121617824%)" />
  <rect x="520" y="225" width="30" height="30" fill="hsl(240 100% 50%)" />
  <rect x="625" y="225" width="30" height="30" fill="rgb(255 255 255 / 50%)" />
  <rect x="730" y="225" width="30" height="30" fill="hsl(240 100% 93.27744903682856%)" />
  <rect x="765" y="225" width="30" height="30" fill="rgb(255 255 255 / 50%)" />
  <rect x="835" y="225" width="30" height="30" fill="hsl(240 100% 94.344082779942%)" />
  <rect x="65" y="260" width="30" height="30" fill="hsl(240 100% 99.85971859766013%)" />
  <rect x="135" y="260" width="30" height="30" fill="hsl(240 100% 99.85259566432367%)" />
  <rect x="170" y="260" width="30" height="30" fill="hsl(240 100% 98.86918111293706%)" />
  <rect x="205" y="260" width="30" height="30" fill="rgb(255 255 255 / 50%)" />
  <rect x="240" y="260" width="30" height="30" fill="hsl(240 100% 86.87063748280924%)" />
  <rect x="310" y="260" width="30" height="30" fill="rgb(255 255 255 / 50%)" />
  <rect x="415" y="260" width="30" height="30" fill="hsl(240 100% 80.45259600131291%)" />
  <rect x="450" y="260" width="30" height="30" fill="rgb(255 255 255 / 50%)" />
  <rect x="485" y="260" width="30" height="30" fill="hsl(240 100% 50%)" />
  <rect x="520" y="260" width="30" height="30" fill="hsl(240 100% 70.86862922977102%)" />
  <rect x="625" y="260" width="30" height="30" fill="hsl(240 100% 97.0701487316948%)" />
  <rect x="695" y="260" width="30" height="30" fill="hsl(240 100% 94.06585529627866%)" />
  <rect x="65" y="295" width="30" height="30" fill="hsl(240 100% 85.7647829884486%)" />
  <rect x="100" y="295" width="30" height="30" fill="hsl(240 100% 97.53219758086136%)" />
  <rect x="135" y="295" width="30" height="30" fill="hsl(240 100% 95.284065845981%)" />
  <rect x="170" y="295" width="30" height="30" fill="hsl(240 100% 90.69660535801671%)" />
  <rect x="205" y="295" width="30" height="30" fill="hsl(240 100% 99.44185971353244%)" />
  <rect x="240" y="295" width="30" height="30" fill="hsl(240 100% 50.76343569688383%)" />
  <rect x="275" y="295" width="30" height="30" fill="hsl(240 100% 50%)" />
  <rect x="310" y="295" width="30" height="30" fill="hsl(240 100% 99.5018057992662%)" />
  <rect x="345" y="295" width="30" height="30" fill="hsl(240 100% 94.8331454132511%)" />
  <rect x="415" y="295" width="30" height="30" fill="hsl(240 100% 55.352317903897315%)" />
  <rect x="450" y="295" width="30" height="30" fill="hsl(240 100% 99.33270443315469%)" />
  <rect x="485" y="295" width="30" height="30" fill="hsl(240 100% 88.195395015551%)" />
  <rect x="520" y="295" width="30" height="30" fill="hsl(240 100% 57.98290286182991%)" />
  <rect x="695" y="295" width="30" height="30" fill="hsl(240 100% 97.61597036628757%)" />
  <rect x="800" y="295" width="30" height="30" fill="hsl(240 100% 99.57525803653272%)" />
  <rect x="835" y="295" width="30" height="30" fill="hsl(240 100% 99.95281195701841%)" />
  <rect x="65" y="330" width="30" height="30" fill="hsl(240 100% 87.38042890224926%)" />
  <rect x="100" y="330" width="30" height="30" fill="hsl(240 100% 94.20416715884204%)" />
  <rect x="135" y="330" width="30" height="30" fill="hsl(240 100% 96.91628681240071%)" />
  <rect x="170" y="330" width="30" height="30" fill="hsl(240 100% 87.16509066083717%)" />
  <rect x="205" y="330" width="30" height="30" fill="hsl(240 100% 99.12504016302599%)" />
  <rect x="240" y="330" width="30" height="30" fill="hsl(240 100% 77.8681726379105%)" />
  <rect x="275" y="330" width="30" height="30" fill="hsl(240 100% 86.3866858096046%)" />
  <rect x="310" y="330" width="30" height="30" fill="rgb(255 255 255 / 50%)" />
  <rect x="345" y="330" width="30" height="30" fill="hsl(240 100% 96.9155008713926%)" />
  <rect x="415" y="330" width="30" height="30" fill="hsl(240 100% 84.2835990413671%)" />
  <rect x="450" y="330" width="30" height="30" fill="hsl(240 100% 99.78744938423802%)" />
  <rect x="485" y="330" width="30" height="30" fill="hsl(240 100% 67.51667558712865%)" />
  <rect x="520" y="330" width="30" height="30" fill="hsl(240 100% 73.92751854199591%)" />
  <rect x="590" y="330" width="30" height="30" fill="hsl(240 100% 93.17446065992365%)" />
  <rect x="625" y="330" width="30" height="30" fill="hsl(240 100% 50%)" />
  <rect x="765" y="330" width="30" height="30" fill="hsl(240 100% 94.26846536782502%)" />
  <rect x="800" y="330" width="30" height="30" fill="hsl(240 100% 99.13301168933803%)" />
  <rect x="835" y="330" width="30" height="30" fill="hsl(240 100% 79.23928976211951%)" />
  <rect x="65" y="365" width="30" height="30" fill="hsl(240 100% 54.636986587489424%)" />
  <rect x="100" y="365" width="30" height="30" fill="hsl(240 100% 71.1854913138281%)" />
  <rect x="135" y="365" width="30" height="30" fill="hsl(240 100% 81.50077268766749%)" />
  <rect x="170" y="365" width="30" height="30" fill="hsl(240 100% 50%)" />
  <rect x="205" y="365" width="30" height="30" fill="hsl(240 100% 96.10813693115398%)" />
  <rect x="240" y="365" width="30" height="30" fill="hsl(240 100% 58.16472616467591%)" />
  <rect x="275" y="365" width="30" height="30" fill="hsl(240 100% 92.05851915022691%)" />
  <rect x="310" y="365" width="30" height="30" fill="hsl(240 100% 99.85973862900667%)" />
  <rect x="415" y="365" width="30" height="30" fill="hsl(240 100% 65.78306804550144%)" />
  <rect x="520" y="365" width="30" height="30" fill="hsl(240 100% 85.5186601392713%)" />
  <rect x="625" y="365" width="30" height="30" fill="hsl(240 100% 99.62184256856455%)" />
  <rect x="730" y="365" width="30" height="30" fill="hsl(240 100% 62.02946581241698%)" />
  <rect x="765" y="365" width="30" height="30" fill="hsl(240 100% 98.13236312987311%)" />
  <rect x="835" y="365" width="30" height="30" fill="hsl(240 100% 98.67143980222923%)" />
  <rect x="65" y="400" width="30" height="30" fill="hsl(240 100% 98.02284055092659%)" />
  <rect x="100" y="400" width="30" height="30" fill="hsl(240 100% 99.37921345065847%)" />
  <rect x="135" y="400" width="30" height="30" fill="hsl(240 100% 99.64614697107399%)" />
  <rect x="170" y="400" width="30" height="30" fill="hsl(240 100% 94.99997095058967%)" />
  <rect x="205" y="400" width="30" height="30" fill="hsl(240 100% 99.18550108508634%)" />
  <rect x="240" y="400" width="30" height="30" fill="hsl(240 100% 84.86915456248848%)" />
  <rect x="275" y="400" width="30" height="30" fill="hsl(240 100% 95.05487153408839%)" />
  <rect x="310" y="400" width="30" height="30" fill="rgb(255 255 255 / 50%)" />
  <rect x="380" y="400" width="30" height="30" fill="rgb(255 255 255 / 50%)" />
  <rect x="415" y="400" width="30" height="30" fill="hsl(240 100% 93.60102469680871%)" />
  <rect x="450" y="400" width="30" height="30" fill="hsl(240 100% 99.97235234794194%)" />
  <rect x="485" y="400" width="30" height="30" fill="hsl(240 100% 77.22466238550001%)" />
  <rect x="520" y="400" width="30" height="30" fill="hsl(240 100% 50%)" />
  <rect x="555" y="400" width="30" height="30" fill="hsl(240 100% 99.06381712648694%)" />
  <rect x="660" y="400" width="30" height="30" fill="rgb(255 255 255 / 50%)" />
  <rect x="835" y="400" width="30" height="30" fill="hsl(240 100% 99.00196573821164%)" />
  <rect x="65" y="435" width="30" height="30" fill="hsl(240 100% 92.56158621431226%)" />
  <rect x="240" y="435" width="30" height="30" fill="hsl(240 100% 50%)" />
  <rect x="310" y="435" width="30" height="30" fill="hsl(240 100% 94.29531802223181%)" />
  <rect x="415" y="435" width="30" height="30" fill="hsl(240 100% 87.05920470174595%)" />
  <rect x="450" y="435" width="30" height="30" fill="hsl(240 100% 99.77942040220486%)" />
  <rect x="65" y="470" width="30" height="30" fill="hsl(240 100% 50%)" />
  <rect x="240" y="470" width="30" height="30" fill="hsl(240 100% 50.60762672793452%)" />
  <rect x="310" y="470" width="30" height="30" fill="hsl(240 100% 97.1850436308003%)" />
  <rect x="415" y="470" width="30" height="30" fill="hsl(240 100% 89.15185340895836%)" />
  <rect x="450" y="470" width="30" height="30" fill="hsl(240 100% 99.56831706232538%)" />
</svg>
