<svg xmlns="http://www.w3.org/2000/svg" viewBox="0 0 870 505">
  <rect x="0" y="0" width="870" height="505" rx="5" ry="5" fill="#222" />
  <text x="60" y="100" fill="white" font-family="sans-serif" font-weight="bold" font-size="12" text-anchor="end" dominant-baseline="middle">ba</text>
  <text x="60" y="135" fill="white" font-family="sans-serif" font-weight="bold" font-size="12" text-anchor="end" dominant-baseline="middle">det</text>
  <text x="60" y="170" fill="white" font-family="sans-serif" font-weight="bold" font-size="12" text-anchor="end" dominant-baseline="middle">gmm</text>
  <text x="60" y="205" fill="white" font-family="sans-serif" font-weight="bold" font-size="12" text-anchor="end" dominant-baseline="middle">hello</text>
  <text x="60" y="240" fill="white" font-family="sans-serif" font-weight="bold" font-size="12" text-anchor="end" dominant-baseline="middle">ht</text>
  <text x="60" y="275" fill="white" font-family="sans-serif" font-weight="bold" font-size="12" text-anchor="end" dominant-baseline="middle">kmeans</text>
  <text x="60" y="310" fill="white" font-family="sans-serif" font-weight="bold" font-size="12" text-anchor="end" dominant-baseline="middle">llsq</text>
  <text x="60" y="345" fill="white" font-family="sans-serif" font-weight="bold" font-size="12" text-anchor="end" dominant-baseline="middle">lse</text>
  <text x="60" y="380" fill="white" font-family="sans-serif" font-weight="bold" font-size="12" text-anchor="end" dominant-baseline="middle">lstm</text>
  <text x="60" y="415" fill="white" font-family="sans-serif" font-weight="bold" font-size="12" text-anchor="end" dominant-baseline="middle">ode</text>
  <text x="60" y="450" fill="white" font-family="sans-serif" font-weight="bold" font-size="12" text-anchor="end" dominant-baseline="middle">particle</text>
  <text x="60" y="485" fill="white" font-family="sans-serif" font-weight="bold" font-size="12" text-anchor="end" dominant-baseline="middle">saddle</text>
  <text x="80" y="80" fill="white" font-family="sans-serif" font-weight="bold" font-size="12" text-anchor="end" dominant-baseline="middle" transform="rotate(90 80 80)">ad-hpp</text>
  <text x="115" y="80" fill="white" font-family="sans-serif" font-weight="bold" font-size="12" text-anchor="end" dominant-baseline="middle" transform="rotate(90 115 80)">adept</text>
  <text x="150" y="80" fill="white" font-family="sans-serif" font-weight="bold" font-size="12" text-anchor="end" dominant-baseline="middle" transform="rotate(90 150 80)">adol-c</text>
  <text x="185" y="80" fill="white" font-family="sans-serif" font-weight="bold" font-size="12" text-anchor="end" dominant-baseline="middle" transform="rotate(90 185 80)">codipack</text>
  <text x="220" y="80" fill="white" font-family="sans-serif" font-weight="bold" font-size="12" text-anchor="end" dominant-baseline="middle" transform="rotate(90 220 80)">cppad</text>
  <text x="255" y="80" fill="white" font-family="sans-serif" font-weight="bold" font-size="12" text-anchor="end" dominant-baseline="middle" transform="rotate(90 255 80)">enzyme</text>
  <text x="290" y="80" fill="white" font-family="sans-serif" font-weight="bold" font-size="12" text-anchor="end" dominant-baseline="middle" transform="rotate(90 290 80)">enzyme-jl</text>
  <text x="325" y="80" fill="white" font-family="sans-serif" font-weight="bold" font-size="12" text-anchor="end" dominant-baseline="middle" transform="rotate(90 325 80)">finite</text>
  <text x="360" y="80" fill="white" font-family="sans-serif" font-weight="bold" font-size="12" text-anchor="end" dominant-baseline="middle" transform="rotate(90 360 80)">floretta</text>
  <text x="395" y="80" fill="white" font-family="sans-serif" font-weight="bold" font-size="12" text-anchor="end" dominant-baseline="middle" transform="rotate(90 395 80)">forwarddiff-jl</text>
  <text x="430" y="80" fill="white" font-family="sans-serif" font-weight="bold" font-size="12" text-anchor="end" dominant-baseline="middle" transform="rotate(90 430 80)">futhark</text>
  <text x="465" y="80" fill="white" font-family="sans-serif" font-weight="bold" font-size="12" text-anchor="end" dominant-baseline="middle" transform="rotate(90 465 80)">haskell</text>
  <text x="500" y="80" fill="white" font-family="sans-serif" font-weight="bold" font-size="12" text-anchor="end" dominant-baseline="middle" transform="rotate(90 500 80)">jax</text>
  <text x="535" y="80" fill="white" font-family="sans-serif" font-weight="bold" font-size="12" text-anchor="end" dominant-baseline="middle" transform="rotate(90 535 80)">manual</text>
  <text x="570" y="80" fill="white" font-family="sans-serif" font-weight="bold" font-size="12" text-anchor="end" dominant-baseline="middle" transform="rotate(90 570 80)">mooncake-jl</text>
  <text x="605" y="80" fill="white" font-family="sans-serif" font-weight="bold" font-size="12" text-anchor="end" dominant-baseline="middle" transform="rotate(90 605 80)">ocaml</text>
  <text x="640" y="80" fill="white" font-family="sans-serif" font-weight="bold" font-size="12" text-anchor="end" dominant-baseline="middle" transform="rotate(90 640 80)">pytorch</text>
  <text x="675" y="80" fill="white" font-family="sans-serif" font-weight="bold" font-size="12" text-anchor="end" dominant-baseline="middle" transform="rotate(90 675 80)">reversediff-jl</text>
  <text x="710" y="80" fill="white" font-family="sans-serif" font-weight="bold" font-size="12" text-anchor="end" dominant-baseline="middle" transform="rotate(90 710 80)">scilean</text>
  <text x="745" y="80" fill="white" font-family="sans-serif" font-weight="bold" font-size="12" text-anchor="end" dominant-baseline="middle" transform="rotate(90 745 80)">tapenade</text>
  <text x="780" y="80" fill="white" font-family="sans-serif" font-weight="bold" font-size="12" text-anchor="end" dominant-baseline="middle" transform="rotate(90 780 80)">tensorflow</text>
  <text x="815" y="80" fill="white" font-family="sans-serif" font-weight="bold" font-size="12" text-anchor="end" dominant-baseline="middle" transform="rotate(90 815 80)">tensorflow-js</text>
  <text x="850" y="80" fill="white" font-family="sans-serif" font-weight="bold" font-size="12" text-anchor="end" dominant-baseline="middle" transform="rotate(90 850 80)">zygote</text>
  <rect x="65" y="85" width="30" height="30" fill="hsl(240 100% 81.03333734318394%)" />
  <rect x="100" y="85" width="30" height="30" fill="hsl(240 100% 82.57476336757881%)" />
  <rect x="135" y="85" width="30" height="30" fill="hsl(240 100% 97.87875347862939%)" />
  <rect x="170" y="85" width="30" height="30" fill="hsl(240 100% 81.45684419275048%)" />
  <rect x="205" y="85" width="30" height="30" fill="hsl(240 100% 98.9792342253897%)" />
  <rect x="240" y="85" width="30" height="30" fill="hsl(240 100% 50%)" />
  <rect x="310" y="85" width="30" height="30" fill="hsl(240 100% 93.08152271649445%)" />
  <rect x="415" y="85" width="30" height="30" fill="hsl(240 100% 67.77409113303193%)" />
  <rect x="520" y="85" width="30" height="30" fill="hsl(240 100% 54.323638052264265%)" />
  <rect x="625" y="85" width="30" height="30" fill="rgb(255 255 255 / 50%)" />
  <rect x="730" y="85" width="30" height="30" fill="hsl(240 100% 74.76670333898241%)" />
  <rect x="765" y="85" width="30" height="30" fill="rgb(255 255 255 / 50%)" />
  <rect x="835" y="85" width="30" height="30" fill="hsl(240 100% 99.76730272024513%)" />
  <rect x="65" y="120" width="30" height="30" fill="hsl(240 100% 50%)" />
  <rect x="100" y="120" width="30" height="30" fill="hsl(240 100% 84.87125492597754%)" />
  <rect x="135" y="120" width="30" height="30" fill="hsl(240 100% 85.90717942245686%)" />
  <rect x="170" y="120" width="30" height="30" fill="hsl(240 100% 53.04528460198109%)" />
  <rect x="205" y="120" width="30" height="30" fill="hsl(240 100% 92.39988114464096%)" />
  <rect x="240" y="120" width="30" height="30" fill="hsl(240 100% 92.28445019187883%)" />
  <rect x="275" y="120" width="30" height="30" fill="hsl(240 100% 99.4034903039884%)" />
  <rect x="310" y="120" width="30" height="30" fill="hsl(240 100% 99.04222325979566%)" />
  <rect x="380" y="120" width="30" height="30" fill="hsl(240 100% 93.61057384250013%)" />
  <rect x="415" y="120" width="30" height="30" fill="hsl(240 100% 94.80215473405569%)" />
  <rect x="450" y="120" width="30" height="30" fill="hsl(240 100% 97.8323939069494%)" />
  <rect x="520" y="120" width="30" height="30" fill="hsl(240 100% 80.37262477892483%)" />
  <rect x="555" y="120" width="30" height="30" fill="hsl(240 100% 92.69354784889235%)" />
  <rect x="660" y="120" width="30" height="30" fill="rgb(255 255 255 / 50%)" />
  <rect x="835" y="120" width="30" height="30" fill="rgb(255 255 255 / 50%)" />
  <rect x="65" y="155" width="30" height="30" fill="hsl(240 100% 98.6470865705531%)" />
  <rect x="100" y="155" width="30" height="30" fill="hsl(240 100% 98.76178982376167%)" />
  <rect x="135" y="155" width="30" height="30" fill="hsl(240 100% 99.10461222904507%)" />
  <rect x="170" y="155" width="30" height="30" fill="hsl(240 100% 98.00876620670448%)" />
  <rect x="205" y="155" width="30" height="30" fill="hsl(240 100% 99.84531433538216%)" />
  <rect x="240" y="155" width="30" height="30" fill="hsl(240 100% 91.30576675386138%)" />
  <rect x="275" y="155" width="30" height="30" fill="hsl(240 100% 89.91506757456196%)" />
  <rect x="310" y="155" width="30" height="30" fill="rgb(255 255 255 / 50%)" />
  <rect x="415" y="155" width="30" height="30" fill="hsl(240 100% 92.97339549454986%)" />
  <rect x="485" y="155" width="30" height="30" fill="hsl(240 100% 50%)" />
  <rect x="520" y="155" width="30" height="30" fill="hsl(240 100% 81.34609546057968%)" />
  <rect x="590" y="155" width="30" height="30" fill="hsl(240 100% 99.57224153584745%)" />
  <rect x="625" y="155" width="30" height="30" fill="hsl(240 100% 64.17845802882493%)" />
  <rect x="695" y="155" width="30" height="30" fill="hsl(240 100% 95.3911569879006%)" />
  <rect x="730" y="155" width="30" height="30" fill="hsl(240 100% 83.57757013768587%)" />
  <rect x="765" y="155" width="30" height="30" fill="hsl(240 100% 99.58517041259388%)" />
  <rect x="835" y="155" width="30" height="30" fill="hsl(240 100% 96.12828351198263%)" />
  <rect x="65" y="190" width="30" height="30" fill="hsl(240 100% 50%)" />
  <rect x="100" y="190" width="30" height="30" fill="hsl(240 100% 50%)" />
  <rect x="135" y="190" width="30" height="30" fill="hsl(240 100% 50%)" />
  <rect x="170" y="190" width="30" height="30" fill="hsl(240 100% 50%)" />
  <rect x="205" y="190" width="30" height="30" fill="hsl(240 100% 50%)" />
  <rect x="240" y="190" width="30" height="30" fill="hsl(240 100% 50%)" />
  <rect x="275" y="190" width="30" height="30" fill="hsl(240 100% 50%)" />
  <rect x="310" y="190" width="30" height="30" fill="hsl(240 100% 50%)" />
  <rect x="345" y="190" width="30" height="30" fill="hsl(240 100% 50%)" />
  <rect x="380" y="190" width="30" height="30" fill="hsl(240 100% 50%)" />
  <rect x="415" y="190" width="30" height="30" fill="hsl(240 100% 50%)" />
  <rect x="450" y="190" width="30" height="30" fill="hsl(240 100% 50%)" />
  <rect x="485" y="190" width="30" height="30" fill="hsl(240 100% 50%)" />
  <rect x="520" y="190" width="30" height="30" fill="hsl(240 100% 50%)" />
  <rect x="555" y="190" width="30" height="30" fill="hsl(240 100% 50%)" />
  <rect x="590" y="190" width="30" height="30" fill="hsl(240 100% 50%)" />
  <rect x="625" y="190" width="30" height="30" fill="hsl(240 100% 50%)" />
  <rect x="660" y="190" width="30" height="30" fill="hsl(240 100% 50%)" />
  <rect x="695" y="190" width="30" height="30" fill="hsl(240 100% 50%)" />
  <rect x="730" y="190" width="30" height="30" fill="hsl(240 100% 50%)" />
  <rect x="765" y="190" width="30" height="30" fill="hsl(240 100% 50%)" />
  <rect x="800" y="190" width="30" height="30" fill="hsl(240 100% 50%)" />
  <rect x="835" y="190" width="30" height="30" fill="hsl(240 100% 50%)" />
  <rect x="100" y="225" width="30" height="30" fill="hsl(240 100% 96.19728400743229%)" />
  <rect x="135" y="225" width="30" height="30" fill="hsl(240 100% 89.79508205875403%)" />
  <rect x="170" y="225" width="30" height="30" fill="hsl(240 100% 88.03543656756166%)" />
  <rect x="240" y="225" width="30" height="30" fill="hsl(240 100% 90.1764773591093%)" />
  <rect x="310" y="225" width="30" height="30" fill="rgb(255 255 255 / 50%)" />
  <rect x="415" y="225" width="30" height="30" fill="hsl(240 100% 89.35470532377363%)" />
  <rect x="520" y="225" width="30" height="30" fill="hsl(240 100% 50%)" />
  <rect x="625" y="225" width="30" height="30" fill="rgb(255 255 255 / 50%)" />
  <rect x="730" y="225" width="30" height="30" fill="hsl(240 100% 92.36937623558862%)" />
  <rect x="765" y="225" width="30" height="30" fill="rgb(255 255 255 / 50%)" />
  <rect x="835" y="225" width="30" height="30" fill="hsl(240 100% 93.98842510242076%)" />
  <rect x="135" y="260" width="30" height="30" fill="hsl(240 100% 99.8557570568983%)" />
  <rect x="170" y="260" width="30" height="30" fill="hsl(240 100% 98.98576551208609%)" />
  <rect x="205" y="260" width="30" height="30" fill="rgb(255 255 255 / 50%)" />
  <rect x="240" y="260" width="30" height="30" fill="hsl(240 100% 86.95128540191676%)" />
  <rect x="310" y="260" width="30" height="30" fill="rgb(255 255 255 / 50%)" />
  <rect x="380" y="260" width="30" height="30" fill="rgb(255 255 255 / 50%)" />
  <rect x="415" y="260" width="30" height="30" fill="hsl(240 100% 80.79567828910282%)" />
  <rect x="450" y="260" width="30" height="30" fill="rgb(255 255 255 / 50%)" />
  <rect x="485" y="260" width="30" height="30" fill="hsl(240 100% 50%)" />
  <rect x="520" y="260" width="30" height="30" fill="hsl(240 100% 72.28634809267808%)" />
  <rect x="625" y="260" width="30" height="30" fill="hsl(240 100% 96.98021769599521%)" />
  <rect x="660" y="260" width="30" height="30" fill="rgb(255 255 255 / 50%)" />
  <rect x="695" y="260" width="30" height="30" fill="hsl(240 100% 94.17563222761923%)" />
  <rect x="65" y="295" width="30" height="30" fill="hsl(240 100% 86.17550805531422%)" />
  <rect x="100" y="295" width="30" height="30" fill="hsl(240 100% 97.35108677431097%)" />
  <rect x="135" y="295" width="30" height="30" fill="hsl(240 100% 94.95344499143864%)" />
  <rect x="170" y="295" width="30" height="30" fill="hsl(240 100% 89.26348740171976%)" />
  <rect x="205" y="295" width="30" height="30" fill="hsl(240 100% 99.47909758883972%)" />
  <rect x="240" y="295" width="30" height="30" fill="hsl(240 100% 50%)" />
  <rect x="275" y="295" width="30" height="30" fill="hsl(240 100% 58.6464456103%)" />
  <rect x="310" y="295" width="30" height="30" fill="hsl(240 100% 99.49347130931356%)" />
  <rect x="345" y="295" width="30" height="30" fill="hsl(240 100% 94.65334929720751%)" />
  <rect x="415" y="295" width="30" height="30" fill="hsl(240 100% 54.85408705851212%)" />
  <rect x="450" y="295" width="30" height="30" fill="hsl(240 100% 99.27268206294893%)" />
  <rect x="485" y="295" width="30" height="30" fill="hsl(240 100% 87.73934247103142%)" />
  <rect x="520" y="295" width="30" height="30" fill="hsl(240 100% 59.574119023868974%)" />
  <rect x="695" y="295" width="30" height="30" fill="hsl(240 100% 97.58295412414196%)" />
  <rect x="800" y="295" width="30" height="30" fill="hsl(240 100% 99.5844430389214%)" />
  <rect x="835" y="295" width="30" height="30" fill="hsl(240 100% 99.96109815570057%)" />
  <rect x="65" y="330" width="30" height="30" fill="hsl(240 100% 87.38599249913477%)" />
  <rect x="100" y="330" width="30" height="30" fill="hsl(240 100% 94.36613050199372%)" />
  <rect x="135" y="330" width="30" height="30" fill="hsl(240 100% 96.94787306606491%)" />
  <rect x="170" y="330" width="30" height="30" fill="hsl(240 100% 87.46766629725042%)" />
  <rect x="205" y="330" width="30" height="30" fill="hsl(240 100% 99.22321422236607%)" />
  <rect x="240" y="330" width="30" height="30" fill="hsl(240 100% 80.46924610639071%)" />
  <rect x="275" y="330" width="30" height="30" fill="hsl(240 100% 86.61597125165042%)" />
  <rect x="310" y="330" width="30" height="30" fill="rgb(255 255 255 / 50%)" />
  <rect x="345" y="330" width="30" height="30" fill="hsl(240 100% 97.1930825660127%)" />
  <rect x="415" y="330" width="30" height="30" fill="hsl(240 100% 81.86098393602711%)" />
  <rect x="450" y="330" width="30" height="30" fill="hsl(240 100% 99.81581280734956%)" />
  <rect x="485" y="330" width="30" height="30" fill="hsl(240 100% 72.37580080107477%)" />
  <rect x="520" y="330" width="30" height="30" fill="hsl(240 100% 71.23033972382844%)" />
  <rect x="590" y="330" width="30" height="30" fill="hsl(240 100% 93.86661353969006%)" />
  <rect x="625" y="330" width="30" height="30" fill="hsl(240 100% 50%)" />
  <rect x="765" y="330" width="30" height="30" fill="hsl(240 100% 94.7948514547945%)" />
  <rect x="800" y="330" width="30" height="30" fill="hsl(240 100% 99.25072805593315%)" />
  <rect x="835" y="330" width="30" height="30" fill="hsl(240 100% 96.55670239523442%)" />
  <rect x="65" y="365" width="30" height="30" fill="hsl(240 100% 57.61882438140706%)" />
  <rect x="100" y="365" width="30" height="30" fill="hsl(240 100% 70.38568754211255%)" />
  <rect x="135" y="365" width="30" height="30" fill="hsl(240 100% 81.91028965860319%)" />
  <rect x="170" y="365" width="30" height="30" fill="hsl(240 100% 50%)" />
  <rect x="205" y="365" width="30" height="30" fill="hsl(240 100% 96.00542008303246%)" />
  <rect x="240" y="365" width="30" height="30" fill="hsl(240 100% 59.91880479235206%)" />
  <rect x="275" y="365" width="30" height="30" fill="hsl(240 100% 93.75367849184272%)" />
  <rect x="310" y="365" width="30" height="30" fill="hsl(240 100% 99.86185794966636%)" />
  <rect x="415" y="365" width="30" height="30" fill="hsl(240 100% 66.55765090917535%)" />
  <rect x="520" y="365" width="30" height="30" fill="hsl(240 100% 86.74576354651043%)" />
  <rect x="625" y="365" width="30" height="30" fill="hsl(240 100% 99.64816336350806%)" />
  <rect x="730" y="365" width="30" height="30" fill="hsl(240 100% 63.39358791938825%)" />
  <rect x="765" y="365" width="30" height="30" fill="hsl(240 100% 98.19826742062081%)" />
  <rect x="835" y="365" width="30" height="30" fill="hsl(240 100% 98.76171205362122%)" />
  <rect x="65" y="400" width="30" height="30" fill="hsl(240 100% 98.89115950170722%)" />
  <rect x="100" y="400" width="30" height="30" fill="hsl(240 100% 99.11744794404214%)" />
  <rect x="135" y="400" width="30" height="30" fill="hsl(240 100% 99.5624330829147%)" />
  <rect x="170" y="400" width="30" height="30" fill="hsl(240 100% 93.4056016736837%)" />
  <rect x="205" y="400" width="30" height="30" fill="hsl(240 100% 99.01517110719521%)" />
  <rect x="240" y="400" width="30" height="30" fill="hsl(240 100% 81.8501030456732%)" />
  <rect x="275" y="400" width="30" height="30" fill="hsl(240 100% 94.20143067507226%)" />
  <rect x="310" y="400" width="30" height="30" fill="rgb(255 255 255 / 50%)" />
  <rect x="380" y="400" width="30" height="30" fill="rgb(255 255 255 / 50%)" />
  <rect x="415" y="400" width="30" height="30" fill="hsl(240 100% 92.16890447736259%)" />
  <rect x="450" y="400" width="30" height="30" fill="hsl(240 100% 99.9674610422325%)" />
  <rect x="485" y="400" width="30" height="30" fill="hsl(240 100% 72.76003702718351%)" />
  <rect x="520" y="400" width="30" height="30" fill="hsl(240 100% 50%)" />
  <rect x="555" y="400" width="30" height="30" fill="hsl(240 100% 98.91181506498754%)" />
  <rect x="660" y="400" width="30" height="30" fill="rgb(255 255 255 / 50%)" />
  <rect x="835" y="400" width="30" height="30" fill="hsl(240 100% 98.930242497705%)" />
  <rect x="65" y="435" width="30" height="30" fill="hsl(240 100% 93.43742555896213%)" />
  <rect x="240" y="435" width="30" height="30" fill="hsl(240 100% 50%)" />
  <rect x="310" y="435" width="30" height="30" fill="hsl(240 100% 93.85319976640898%)" />
  <rect x="415" y="435" width="30" height="30" fill="hsl(240 100% 87.03805689669552%)" />
  <rect x="450" y="435" width="30" height="30" fill="hsl(240 100% 99.79485744884325%)" />
  <rect x="65" y="470" width="30" height="30" fill="hsl(240 100% 50%)" />
  <rect x="240" y="470" width="30" height="30" fill="hsl(240 100% 50.15109507532598%)" />
  <rect x="310" y="470" width="30" height="30" fill="hsl(240 100% 96.9769419526007%)" />
  <rect x="415" y="470" width="30" height="30" fill="hsl(240 100% 89.04727008930465%)" />
  <rect x="450" y="470" width="30" height="30" fill="hsl(240 100% 99.57517231009872%)" />
</svg>
