<svg xmlns="http://www.w3.org/2000/svg" viewBox="0 0 870 505">
  <rect x="0" y="0" width="870" height="505" rx="5" ry="5" fill="#222" />
  <text x="60" y="100" fill="white" font-family="sans-serif" font-weight="bold" font-size="12" text-anchor="end" dominant-baseline="middle">ba</text>
  <text x="60" y="135" fill="white" font-family="sans-serif" font-weight="bold" font-size="12" text-anchor="end" dominant-baseline="middle">det</text>
  <text x="60" y="170" fill="white" font-family="sans-serif" font-weight="bold" font-size="12" text-anchor="end" dominant-baseline="middle">gmm</text>
  <text x="60" y="205" fill="white" font-family="sans-serif" font-weight="bold" font-size="12" text-anchor="end" dominant-baseline="middle">hello</text>
  <text x="60" y="240" fill="white" font-family="sans-serif" font-weight="bold" font-size="12" text-anchor="end" dominant-baseline="middle">ht</text>
  <text x="60" y="275" fill="white" font-family="sans-serif" font-weight="bold" font-size="12" text-anchor="end" dominant-baseline="middle">kmeans</text>
  <text x="60" y="310" fill="white" font-family="sans-serif" font-weight="bold" font-size="12" text-anchor="end" dominant-baseline="middle">llsq</text>
  <text x="60" y="345" fill="white" font-family="sans-serif" font-weight="bold" font-size="12" text-anchor="end" dominant-baseline="middle">lse</text>
  <text x="60" y="380" fill="white" font-family="sans-serif" font-weight="bold" font-size="12" text-anchor="end" dominant-baseline="middle">lstm</text>
  <text x="60" y="415" fill="white" font-family="sans-serif" font-weight="bold" font-size="12" text-anchor="end" dominant-baseline="middle">ode</text>
  <text x="60" y="450" fill="white" font-family="sans-serif" font-weight="bold" font-size="12" text-anchor="end" dominant-baseline="middle">particle</text>
  <text x="60" y="485" fill="white" font-family="sans-serif" font-weight="bold" font-size="12" text-anchor="end" dominant-baseline="middle">saddle</text>
  <text x="80" y="80" fill="white" font-family="sans-serif" font-weight="bold" font-size="12" text-anchor="end" dominant-baseline="middle" transform="rotate(90 80 80)">ad-hpp</text>
  <text x="115" y="80" fill="white" font-family="sans-serif" font-weight="bold" font-size="12" text-anchor="end" dominant-baseline="middle" transform="rotate(90 115 80)">adept</text>
  <text x="150" y="80" fill="white" font-family="sans-serif" font-weight="bold" font-size="12" text-anchor="end" dominant-baseline="middle" transform="rotate(90 150 80)">adol-c</text>
  <text x="185" y="80" fill="white" font-family="sans-serif" font-weight="bold" font-size="12" text-anchor="end" dominant-baseline="middle" transform="rotate(90 185 80)">codipack</text>
  <text x="220" y="80" fill="white" font-family="sans-serif" font-weight="bold" font-size="12" text-anchor="end" dominant-baseline="middle" transform="rotate(90 220 80)">cppad</text>
  <text x="255" y="80" fill="white" font-family="sans-serif" font-weight="bold" font-size="12" text-anchor="end" dominant-baseline="middle" transform="rotate(90 255 80)">enzyme</text>
  <text x="290" y="80" fill="white" font-family="sans-serif" font-weight="bold" font-size="12" text-anchor="end" dominant-baseline="middle" transform="rotate(90 290 80)">enzyme-jl</text>
  <text x="325" y="80" fill="white" font-family="sans-serif" font-weight="bold" font-size="12" text-anchor="end" dominant-baseline="middle" transform="rotate(90 325 80)">finite</text>
  <text x="360" y="80" fill="white" font-family="sans-serif" font-weight="bold" font-size="12" text-anchor="end" dominant-baseline="middle" transform="rotate(90 360 80)">floretta</text>
  <text x="395" y="80" fill="white" font-family="sans-serif" font-weight="bold" font-size="12" text-anchor="end" dominant-baseline="middle" transform="rotate(90 395 80)">forwarddiff-jl</text>
  <text x="430" y="80" fill="white" font-family="sans-serif" font-weight="bold" font-size="12" text-anchor="end" dominant-baseline="middle" transform="rotate(90 430 80)">futhark</text>
  <text x="465" y="80" fill="white" font-family="sans-serif" font-weight="bold" font-size="12" text-anchor="end" dominant-baseline="middle" transform="rotate(90 465 80)">haskell</text>
  <text x="500" y="80" fill="white" font-family="sans-serif" font-weight="bold" font-size="12" text-anchor="end" dominant-baseline="middle" transform="rotate(90 500 80)">jax</text>
  <text x="535" y="80" fill="white" font-family="sans-serif" font-weight="bold" font-size="12" text-anchor="end" dominant-baseline="middle" transform="rotate(90 535 80)">manual</text>
  <text x="570" y="80" fill="white" font-family="sans-serif" font-weight="bold" font-size="12" text-anchor="end" dominant-baseline="middle" transform="rotate(90 570 80)">mooncake-jl</text>
  <text x="605" y="80" fill="white" font-family="sans-serif" font-weight="bold" font-size="12" text-anchor="end" dominant-baseline="middle" transform="rotate(90 605 80)">ocaml</text>
  <text x="640" y="80" fill="white" font-family="sans-serif" font-weight="bold" font-size="12" text-anchor="end" dominant-baseline="middle" transform="rotate(90 640 80)">pytorch</text>
  <text x="675" y="80" fill="white" font-family="sans-serif" font-weight="bold" font-size="12" text-anchor="end" dominant-baseline="middle" transform="rotate(90 675 80)">reversediff-jl</text>
  <text x="710" y="80" fill="white" font-family="sans-serif" font-weight="bold" font-size="12" text-anchor="end" dominant-baseline="middle" transform="rotate(90 710 80)">scilean</text>
  <text x="745" y="80" fill="white" font-family="sans-serif" font-weight="bold" font-size="12" text-anchor="end" dominant-baseline="middle" transform="rotate(90 745 80)">tapenade</text>
  <text x="780" y="80" fill="white" font-family="sans-serif" font-weight="bold" font-size="12" text-anchor="end" dominant-baseline="middle" transform="rotate(90 780 80)">tensorflow</text>
  <text x="815" y="80" fill="white" font-family="sans-serif" font-weight="bold" font-size="12" text-anchor="end" dominant-baseline="middle" transform="rotate(90 815 80)">tensorflow-js</text>
  <text x="850" y="80" fill="white" font-family="sans-serif" font-weight="bold" font-size="12" text-anchor="end" dominant-baseline="middle" transform="rotate(90 850 80)">zygote</text>
  <rect x="65" y="85" width="30" height="30" fill="hsl(240 100% 80.70172674137912%)" />
  <rect x="100" y="85" width="30" height="30" fill="hsl(240 100% 81.90036158919327%)" />
  <rect x="135" y="85" width="30" height="30" fill="hsl(240 100% 97.93350395761597%)" />
  <rect x="170" y="85" width="30" height="30" fill="hsl(240 100% 81.52790425238717%)" />
  <rect x="205" y="85" width="30" height="30" fill="hsl(240 100% 98.95008943639503%)" />
  <rect x="240" y="85" width="30" height="30" fill="hsl(240 100% 50%)" />
  <rect x="310" y="85" width="30" height="30" fill="hsl(240 100% 92.87231270966848%)" />
  <rect x="415" y="85" width="30" height="30" fill="hsl(240 100% 70.22174648217445%)" />
  <rect x="520" y="85" width="30" height="30" fill="hsl(240 100% 54.45351548035979%)" />
  <rect x="625" y="85" width="30" height="30" fill="rgb(255 255 255 / 50%)" />
  <rect x="730" y="85" width="30" height="30" fill="hsl(240 100% 71.80571092204295%)" />
  <rect x="765" y="85" width="30" height="30" fill="rgb(255 255 255 / 50%)" />
  <rect x="835" y="85" width="30" height="30" fill="hsl(240 100% 99.7307895745952%)" />
  <rect x="65" y="120" width="30" height="30" fill="hsl(240 100% 50%)" />
  <rect x="100" y="120" width="30" height="30" fill="hsl(240 100% 85.116987343461%)" />
  <rect x="135" y="120" width="30" height="30" fill="hsl(240 100% 85.51868473262715%)" />
  <rect x="170" y="120" width="30" height="30" fill="hsl(240 100% 52.59017662239561%)" />
  <rect x="205" y="120" width="30" height="30" fill="hsl(240 100% 92.60731497439751%)" />
  <rect x="240" y="120" width="30" height="30" fill="hsl(240 100% 91.87830088695546%)" />
  <rect x="275" y="120" width="30" height="30" fill="hsl(240 100% 99.37473155255464%)" />
  <rect x="310" y="120" width="30" height="30" fill="hsl(240 100% 99.0040603225231%)" />
  <rect x="380" y="120" width="30" height="30" fill="hsl(240 100% 93.35698040112047%)" />
  <rect x="415" y="120" width="30" height="30" fill="hsl(240 100% 94.66560720813465%)" />
  <rect x="450" y="120" width="30" height="30" fill="hsl(240 100% 97.94688220613789%)" />
  <rect x="520" y="120" width="30" height="30" fill="hsl(240 100% 79.73898505178697%)" />
  <rect x="555" y="120" width="30" height="30" fill="hsl(240 100% 90.86075408961669%)" />
  <rect x="660" y="120" width="30" height="30" fill="rgb(255 255 255 / 50%)" />
  <rect x="835" y="120" width="30" height="30" fill="rgb(255 255 255 / 50%)" />
  <rect x="65" y="155" width="30" height="30" fill="hsl(240 100% 98.95489631310835%)" />
  <rect x="100" y="155" width="30" height="30" fill="hsl(240 100% 98.91815754119817%)" />
  <rect x="135" y="155" width="30" height="30" fill="hsl(240 100% 99.20038768043753%)" />
  <rect x="170" y="155" width="30" height="30" fill="hsl(240 100% 98.1900801050303%)" />
  <rect x="205" y="155" width="30" height="30" fill="hsl(240 100% 99.85050208269107%)" />
  <rect x="240" y="155" width="30" height="30" fill="hsl(240 100% 91.12155041167664%)" />
  <rect x="275" y="155" width="30" height="30" fill="hsl(240 100% 92.60051395600323%)" />
  <rect x="310" y="155" width="30" height="30" fill="rgb(255 255 255 / 50%)" />
  <rect x="415" y="155" width="30" height="30" fill="hsl(240 100% 93.01799995149962%)" />
  <rect x="485" y="155" width="30" height="30" fill="hsl(240 100% 50%)" />
  <rect x="520" y="155" width="30" height="30" fill="hsl(240 100% 85.94374886850368%)" />
  <rect x="590" y="155" width="30" height="30" fill="hsl(240 100% 99.60296110066635%)" />
  <rect x="625" y="155" width="30" height="30" fill="hsl(240 100% 67.81311341827502%)" />
  <rect x="695" y="155" width="30" height="30" fill="hsl(240 100% 95.46479725322172%)" />
  <rect x="730" y="155" width="30" height="30" fill="hsl(240 100% 83.85859658018751%)" />
  <rect x="765" y="155" width="30" height="30" fill="hsl(240 100% 99.58699018063976%)" />
  <rect x="835" y="155" width="30" height="30" fill="hsl(240 100% 96.06651838525464%)" />
  <rect x="65" y="190" width="30" height="30" fill="hsl(240 100% 50%)" />
  <rect x="100" y="190" width="30" height="30" fill="hsl(240 100% 50%)" />
  <rect x="135" y="190" width="30" height="30" fill="hsl(240 100% 50%)" />
  <rect x="170" y="190" width="30" height="30" fill="hsl(240 100% 50%)" />
  <rect x="205" y="190" width="30" height="30" fill="hsl(240 100% 50%)" />
  <rect x="240" y="190" width="30" height="30" fill="hsl(240 100% 50%)" />
  <rect x="275" y="190" width="30" height="30" fill="hsl(240 100% 50%)" />
  <rect x="310" y="190" width="30" height="30" fill="hsl(240 100% 50%)" />
  <rect x="345" y="190" width="30" height="30" fill="hsl(240 100% 50%)" />
  <rect x="380" y="190" width="30" height="30" fill="hsl(240 100% 50%)" />
  <rect x="415" y="190" width="30" height="30" fill="hsl(240 100% 50%)" />
  <rect x="450" y="190" width="30" height="30" fill="hsl(240 100% 50%)" />
  <rect x="485" y="190" width="30" height="30" fill="hsl(240 100% 50%)" />
  <rect x="520" y="190" width="30" height="30" fill="hsl(240 100% 50%)" />
  <rect x="555" y="190" width="30" height="30" fill="hsl(240 100% 50%)" />
  <rect x="590" y="190" width="30" height="30" fill="hsl(240 100% 50%)" />
  <rect x="625" y="190" width="30" height="30" fill="hsl(240 100% 50%)" />
  <rect x="660" y="190" width="30" height="30" fill="hsl(240 100% 50%)" />
  <rect x="695" y="190" width="30" height="30" fill="hsl(240 100% 50%)" />
  <rect x="730" y="190" width="30" height="30" fill="hsl(240 100% 50%)" />
  <rect x="765" y="190" width="30" height="30" fill="hsl(240 100% 50%)" />
  <rect x="800" y="190" width="30" height="30" fill="hsl(240 100% 50%)" />
  <rect x="835" y="190" width="30" height="30" fill="hsl(240 100% 50%)" />
  <rect x="100" y="225" width="30" height="30" fill="hsl(240 100% 96.28617944485566%)" />
  <rect x="135" y="225" width="30" height="30" fill="hsl(240 100% 86.17291336221106%)" />
  <rect x="170" y="225" width="30" height="30" fill="hsl(240 100% 88.06419290656108%)" />
  <rect x="240" y="225" width="30" height="30" fill="hsl(240 100% 90.36473131108146%)" />
  <rect x="310" y="225" width="30" height="30" fill="rgb(255 255 255 / 50%)" />
  <rect x="415" y="225" width="30" height="30" fill="hsl(240 100% 89.40525441978856%)" />
  <rect x="520" y="225" width="30" height="30" fill="hsl(240 100% 50%)" />
  <rect x="625" y="225" width="30" height="30" fill="rgb(255 255 255 / 50%)" />
  <rect x="730" y="225" width="30" height="30" fill="hsl(240 100% 92.3529526934177%)" />
  <rect x="765" y="225" width="30" height="30" fill="rgb(255 255 255 / 50%)" />
  <rect x="835" y="225" width="30" height="30" fill="hsl(240 100% 95.01908650279833%)" />
  <rect x="65" y="260" width="30" height="30" fill="hsl(240 100% 99.8887338120956%)" />
  <rect x="135" y="260" width="30" height="30" fill="hsl(240 100% 99.88753724744417%)" />
  <rect x="170" y="260" width="30" height="30" fill="hsl(240 100% 98.99473392149706%)" />
  <rect x="205" y="260" width="30" height="30" fill="rgb(255 255 255 / 50%)" />
  <rect x="240" y="260" width="30" height="30" fill="hsl(240 100% 88.1070621801428%)" />
  <rect x="310" y="260" width="30" height="30" fill="rgb(255 255 255 / 50%)" />
  <rect x="415" y="260" width="30" height="30" fill="hsl(240 100% 81.75293287621247%)" />
  <rect x="450" y="260" width="30" height="30" fill="rgb(255 255 255 / 50%)" />
  <rect x="485" y="260" width="30" height="30" fill="hsl(240 100% 50%)" />
  <rect x="520" y="260" width="30" height="30" fill="hsl(240 100% 72.28886011276052%)" />
  <rect x="625" y="260" width="30" height="30" fill="hsl(240 100% 97.04335844435748%)" />
  <rect x="695" y="260" width="30" height="30" fill="hsl(240 100% 93.47245320517523%)" />
  <rect x="65" y="295" width="30" height="30" fill="hsl(240 100% 86.0047421135734%)" />
  <rect x="100" y="295" width="30" height="30" fill="hsl(240 100% 97.60637646445541%)" />
  <rect x="135" y="295" width="30" height="30" fill="hsl(240 100% 94.94629031165826%)" />
  <rect x="170" y="295" width="30" height="30" fill="hsl(240 100% 89.24607562966938%)" />
  <rect x="205" y="295" width="30" height="30" fill="hsl(240 100% 99.42834099410183%)" />
  <rect x="240" y="295" width="30" height="30" fill="hsl(240 100% 50%)" />
  <rect x="275" y="295" width="30" height="30" fill="hsl(240 100% 50.35123602202503%)" />
  <rect x="310" y="295" width="30" height="30" fill="hsl(240 100% 99.49354238054335%)" />
  <rect x="345" y="295" width="30" height="30" fill="hsl(240 100% 94.656057246464%)" />
  <rect x="415" y="295" width="30" height="30" fill="hsl(240 100% 54.750029084917514%)" />
  <rect x="450" y="295" width="30" height="30" fill="hsl(240 100% 99.32145283423334%)" />
  <rect x="485" y="295" width="30" height="30" fill="hsl(240 100% 88.16497602791021%)" />
  <rect x="520" y="295" width="30" height="30" fill="hsl(240 100% 57.344106317625396%)" />
  <rect x="695" y="295" width="30" height="30" fill="hsl(240 100% 97.57760947110637%)" />
  <rect x="800" y="295" width="30" height="30" fill="hsl(240 100% 99.58821972219852%)" />
  <rect x="835" y="295" width="30" height="30" fill="hsl(240 100% 99.95491520483425%)" />
  <rect x="65" y="330" width="30" height="30" fill="hsl(240 100% 82.16635478515441%)" />
  <rect x="100" y="330" width="30" height="30" fill="hsl(240 100% 92.02989949246856%)" />
  <rect x="135" y="330" width="30" height="30" fill="hsl(240 100% 95.82374324106522%)" />
  <rect x="170" y="330" width="30" height="30" fill="hsl(240 100% 81.9362235542379%)" />
  <rect x="205" y="330" width="30" height="30" fill="hsl(240 100% 98.88757358475566%)" />
  <rect x="240" y="330" width="30" height="30" fill="hsl(240 100% 71.73753776588975%)" />
  <rect x="275" y="330" width="30" height="30" fill="hsl(240 100% 82.95503246587191%)" />
  <rect x="310" y="330" width="30" height="30" fill="rgb(255 255 255 / 50%)" />
  <rect x="345" y="330" width="30" height="30" fill="hsl(240 100% 95.96829115282613%)" />
  <rect x="415" y="330" width="30" height="30" fill="hsl(240 100% 79.90468465203006%)" />
  <rect x="450" y="330" width="30" height="30" fill="hsl(240 100% 99.732500880637%)" />
  <rect x="485" y="330" width="30" height="30" fill="hsl(240 100% 59.02791314844282%)" />
  <rect x="520" y="330" width="30" height="30" fill="hsl(240 100% 61.615037137326645%)" />
  <rect x="590" y="330" width="30" height="30" fill="hsl(240 100% 91.21782433352635%)" />
  <rect x="625" y="330" width="30" height="30" fill="hsl(240 100% 50%)" />
  <rect x="765" y="330" width="30" height="30" fill="hsl(240 100% 93.59147333948904%)" />
  <rect x="800" y="330" width="30" height="30" fill="hsl(240 100% 98.91597896662984%)" />
  <rect x="835" y="330" width="30" height="30" fill="hsl(240 100% 72.94167443516012%)" />
  <rect x="65" y="365" width="30" height="30" fill="hsl(240 100% 56.87818019394378%)" />
  <rect x="100" y="365" width="30" height="30" fill="hsl(240 100% 71.19242978765249%)" />
  <rect x="135" y="365" width="30" height="30" fill="hsl(240 100% 81.54876705962775%)" />
  <rect x="170" y="365" width="30" height="30" fill="hsl(240 100% 50%)" />
  <rect x="205" y="365" width="30" height="30" fill="hsl(240 100% 95.26408673874849%)" />
  <rect x="240" y="365" width="30" height="30" fill="hsl(240 100% 59.34164878261745%)" />
  <rect x="275" y="365" width="30" height="30" fill="hsl(240 100% 92.62202785276973%)" />
  <rect x="310" y="365" width="30" height="30" fill="hsl(240 100% 99.85894808688283%)" />
  <rect x="415" y="365" width="30" height="30" fill="hsl(240 100% 65.81389153482633%)" />
  <rect x="520" y="365" width="30" height="30" fill="hsl(240 100% 85.79497494721014%)" />
  <rect x="625" y="365" width="30" height="30" fill="hsl(240 100% 99.62589283621274%)" />
  <rect x="730" y="365" width="30" height="30" fill="hsl(240 100% 62.71798240026593%)" />
  <rect x="765" y="365" width="30" height="30" fill="hsl(240 100% 98.1307708431603%)" />
  <rect x="835" y="365" width="30" height="30" fill="hsl(240 100% 98.71691877869593%)" />
  <rect x="65" y="400" width="30" height="30" fill="hsl(240 100% 96.71866427094082%)" />
  <rect x="100" y="400" width="30" height="30" fill="hsl(240 100% 98.88943285267138%)" />
  <rect x="135" y="400" width="30" height="30" fill="hsl(240 100% 99.23516660553628%)" />
  <rect x="170" y="400" width="30" height="30" fill="hsl(240 100% 86.4932198922862%)" />
  <rect x="205" y="400" width="30" height="30" fill="hsl(240 100% 98.28492015187722%)" />
  <rect x="240" y="400" width="30" height="30" fill="hsl(240 100% 89.0255149651453%)" />
  <rect x="275" y="400" width="30" height="30" fill="hsl(240 100% 92.32989899666474%)" />
  <rect x="310" y="400" width="30" height="30" fill="rgb(255 255 255 / 50%)" />
  <rect x="380" y="400" width="30" height="30" fill="rgb(255 255 255 / 50%)" />
  <rect x="415" y="400" width="30" height="30" fill="hsl(240 100% 86.52941410648855%)" />
  <rect x="450" y="400" width="30" height="30" fill="hsl(240 100% 99.94221779297722%)" />
  <rect x="485" y="400" width="30" height="30" fill="hsl(240 100% 53.12802761326048%)" />
  <rect x="520" y="400" width="30" height="30" fill="hsl(240 100% 50%)" />
  <rect x="555" y="400" width="30" height="30" fill="hsl(240 100% 98.03670321379961%)" />
  <rect x="660" y="400" width="30" height="30" fill="rgb(255 255 255 / 50%)" />
  <rect x="835" y="400" width="30" height="30" fill="hsl(240 100% 97.97858038602035%)" />
  <rect x="65" y="435" width="30" height="30" fill="hsl(240 100% 93.28610316674808%)" />
  <rect x="240" y="435" width="30" height="30" fill="hsl(240 100% 50%)" />
  <rect x="310" y="435" width="30" height="30" fill="hsl(240 100% 93.85598401511068%)" />
  <rect x="415" y="435" width="30" height="30" fill="hsl(240 100% 87.01499035064201%)" />
  <rect x="450" y="435" width="30" height="30" fill="hsl(240 100% 99.77236861453599%)" />
  <rect x="65" y="470" width="30" height="30" fill="hsl(240 100% 50%)" />
  <rect x="240" y="470" width="30" height="30" fill="hsl(240 100% 50.047626788862196%)" />
  <rect x="310" y="470" width="30" height="30" fill="hsl(240 100% 96.97581697753317%)" />
  <rect x="415" y="470" width="30" height="30" fill="hsl(240 100% 89.04127337232076%)" />
  <rect x="450" y="470" width="30" height="30" fill="hsl(240 100% 99.56698107589025%)" />
</svg>
