<svg xmlns="http://www.w3.org/2000/svg" viewBox="0 0 870 505">
  <rect x="0" y="0" width="870" height="505" rx="5" ry="5" fill="#222" />
  <text x="60" y="100" fill="white" font-family="sans-serif" font-weight="bold" font-size="12" text-anchor="end" dominant-baseline="middle">ba</text>
  <text x="60" y="135" fill="white" font-family="sans-serif" font-weight="bold" font-size="12" text-anchor="end" dominant-baseline="middle">det</text>
  <text x="60" y="170" fill="white" font-family="sans-serif" font-weight="bold" font-size="12" text-anchor="end" dominant-baseline="middle">gmm</text>
  <text x="60" y="205" fill="white" font-family="sans-serif" font-weight="bold" font-size="12" text-anchor="end" dominant-baseline="middle">hello</text>
  <text x="60" y="240" fill="white" font-family="sans-serif" font-weight="bold" font-size="12" text-anchor="end" dominant-baseline="middle">ht</text>
  <text x="60" y="275" fill="white" font-family="sans-serif" font-weight="bold" font-size="12" text-anchor="end" dominant-baseline="middle">kmeans</text>
  <text x="60" y="310" fill="white" font-family="sans-serif" font-weight="bold" font-size="12" text-anchor="end" dominant-baseline="middle">llsq</text>
  <text x="60" y="345" fill="white" font-family="sans-serif" font-weight="bold" font-size="12" text-anchor="end" dominant-baseline="middle">lse</text>
  <text x="60" y="380" fill="white" font-family="sans-serif" font-weight="bold" font-size="12" text-anchor="end" dominant-baseline="middle">lstm</text>
  <text x="60" y="415" fill="white" font-family="sans-serif" font-weight="bold" font-size="12" text-anchor="end" dominant-baseline="middle">ode</text>
  <text x="60" y="450" fill="white" font-family="sans-serif" font-weight="bold" font-size="12" text-anchor="end" dominant-baseline="middle">particle</text>
  <text x="60" y="485" fill="white" font-family="sans-serif" font-weight="bold" font-size="12" text-anchor="end" dominant-baseline="middle">saddle</text>
  <text x="80" y="80" fill="white" font-family="sans-serif" font-weight="bold" font-size="12" text-anchor="end" dominant-baseline="middle" transform="rotate(90 80 80)">ad-hpp</text>
  <text x="115" y="80" fill="white" font-family="sans-serif" font-weight="bold" font-size="12" text-anchor="end" dominant-baseline="middle" transform="rotate(90 115 80)">adept</text>
  <text x="150" y="80" fill="white" font-family="sans-serif" font-weight="bold" font-size="12" text-anchor="end" dominant-baseline="middle" transform="rotate(90 150 80)">adol-c</text>
  <text x="185" y="80" fill="white" font-family="sans-serif" font-weight="bold" font-size="12" text-anchor="end" dominant-baseline="middle" transform="rotate(90 185 80)">codipack</text>
  <text x="220" y="80" fill="white" font-family="sans-serif" font-weight="bold" font-size="12" text-anchor="end" dominant-baseline="middle" transform="rotate(90 220 80)">cppad</text>
  <text x="255" y="80" fill="white" font-family="sans-serif" font-weight="bold" font-size="12" text-anchor="end" dominant-baseline="middle" transform="rotate(90 255 80)">enzyme</text>
  <text x="290" y="80" fill="white" font-family="sans-serif" font-weight="bold" font-size="12" text-anchor="end" dominant-baseline="middle" transform="rotate(90 290 80)">enzyme-jl</text>
  <text x="325" y="80" fill="white" font-family="sans-serif" font-weight="bold" font-size="12" text-anchor="end" dominant-baseline="middle" transform="rotate(90 325 80)">finite</text>
  <text x="360" y="80" fill="white" font-family="sans-serif" font-weight="bold" font-size="12" text-anchor="end" dominant-baseline="middle" transform="rotate(90 360 80)">floretta</text>
  <text x="395" y="80" fill="white" font-family="sans-serif" font-weight="bold" font-size="12" text-anchor="end" dominant-baseline="middle" transform="rotate(90 395 80)">forwarddiff-jl</text>
  <text x="430" y="80" fill="white" font-family="sans-serif" font-weight="bold" font-size="12" text-anchor="end" dominant-baseline="middle" transform="rotate(90 430 80)">futhark</text>
  <text x="465" y="80" fill="white" font-family="sans-serif" font-weight="bold" font-size="12" text-anchor="end" dominant-baseline="middle" transform="rotate(90 465 80)">haskell</text>
  <text x="500" y="80" fill="white" font-family="sans-serif" font-weight="bold" font-size="12" text-anchor="end" dominant-baseline="middle" transform="rotate(90 500 80)">jax</text>
  <text x="535" y="80" fill="white" font-family="sans-serif" font-weight="bold" font-size="12" text-anchor="end" dominant-baseline="middle" transform="rotate(90 535 80)">manual</text>
  <text x="570" y="80" fill="white" font-family="sans-serif" font-weight="bold" font-size="12" text-anchor="end" dominant-baseline="middle" transform="rotate(90 570 80)">mooncake-jl</text>
  <text x="605" y="80" fill="white" font-family="sans-serif" font-weight="bold" font-size="12" text-anchor="end" dominant-baseline="middle" transform="rotate(90 605 80)">ocaml</text>
  <text x="640" y="80" fill="white" font-family="sans-serif" font-weight="bold" font-size="12" text-anchor="end" dominant-baseline="middle" transform="rotate(90 640 80)">pytorch</text>
  <text x="675" y="80" fill="white" font-family="sans-serif" font-weight="bold" font-size="12" text-anchor="end" dominant-baseline="middle" transform="rotate(90 675 80)">reversediff-jl</text>
  <text x="710" y="80" fill="white" font-family="sans-serif" font-weight="bold" font-size="12" text-anchor="end" dominant-baseline="middle" transform="rotate(90 710 80)">scilean</text>
  <text x="745" y="80" fill="white" font-family="sans-serif" font-weight="bold" font-size="12" text-anchor="end" dominant-baseline="middle" transform="rotate(90 745 80)">tapenade</text>
  <text x="780" y="80" fill="white" font-family="sans-serif" font-weight="bold" font-size="12" text-anchor="end" dominant-baseline="middle" transform="rotate(90 780 80)">tensorflow</text>
  <text x="815" y="80" fill="white" font-family="sans-serif" font-weight="bold" font-size="12" text-anchor="end" dominant-baseline="middle" transform="rotate(90 815 80)">tensorflow-js</text>
  <text x="850" y="80" fill="white" font-family="sans-serif" font-weight="bold" font-size="12" text-anchor="end" dominant-baseline="middle" transform="rotate(90 850 80)">zygote</text>
  <rect x="65" y="85" width="30" height="30" fill="hsl(240 100% 80.15793568026666%)" />
  <rect x="100" y="85" width="30" height="30" fill="hsl(240 100% 81.97920603777786%)" />
  <rect x="135" y="85" width="30" height="30" fill="hsl(240 100% 97.86009810798672%)" />
  <rect x="170" y="85" width="30" height="30" fill="hsl(240 100% 81.21635750413068%)" />
  <rect x="205" y="85" width="30" height="30" fill="hsl(240 100% 98.92678427994801%)" />
  <rect x="240" y="85" width="30" height="30" fill="hsl(240 100% 50%)" />
  <rect x="310" y="85" width="30" height="30" fill="hsl(240 100% 92.77061288433845%)" />
  <rect x="415" y="85" width="30" height="30" fill="hsl(240 100% 66.48648780192889%)" />
  <rect x="520" y="85" width="30" height="30" fill="hsl(240 100% 53.35400012187457%)" />
  <rect x="625" y="85" width="30" height="30" fill="rgb(255 255 255 / 50%)" />
  <rect x="730" y="85" width="30" height="30" fill="hsl(240 100% 73.3854956315712%)" />
  <rect x="765" y="85" width="30" height="30" fill="rgb(255 255 255 / 50%)" />
  <rect x="835" y="85" width="30" height="30" fill="hsl(240 100% 99.71745392412691%)" />
  <rect x="65" y="120" width="30" height="30" fill="hsl(240 100% 50%)" />
  <rect x="100" y="120" width="30" height="30" fill="hsl(240 100% 83.06615642282776%)" />
  <rect x="135" y="120" width="30" height="30" fill="hsl(240 100% 85.97064958098753%)" />
  <rect x="170" y="120" width="30" height="30" fill="hsl(240 100% 52.35902118443907%)" />
  <rect x="205" y="120" width="30" height="30" fill="hsl(240 100% 92.65499285695468%)" />
  <rect x="240" y="120" width="30" height="30" fill="hsl(240 100% 91.62805845241442%)" />
  <rect x="275" y="120" width="30" height="30" fill="hsl(240 100% 99.48296129114102%)" />
  <rect x="310" y="120" width="30" height="30" fill="hsl(240 100% 99.00377000553559%)" />
  <rect x="380" y="120" width="30" height="30" fill="hsl(240 100% 93.37381362650366%)" />
  <rect x="415" y="120" width="30" height="30" fill="hsl(240 100% 94.6441253842894%)" />
  <rect x="450" y="120" width="30" height="30" fill="hsl(240 100% 97.89785086056834%)" />
  <rect x="520" y="120" width="30" height="30" fill="hsl(240 100% 79.7626171131109%)" />
  <rect x="555" y="120" width="30" height="30" fill="hsl(240 100% 90.85251520578925%)" />
  <rect x="660" y="120" width="30" height="30" fill="rgb(255 255 255 / 50%)" />
  <rect x="835" y="120" width="30" height="30" fill="rgb(255 255 255 / 50%)" />
  <rect x="65" y="155" width="30" height="30" fill="hsl(240 100% 98.41501335571927%)" />
  <rect x="100" y="155" width="30" height="30" fill="hsl(240 100% 98.81715646898759%)" />
  <rect x="135" y="155" width="30" height="30" fill="hsl(240 100% 99.09355698558628%)" />
  <rect x="170" y="155" width="30" height="30" fill="hsl(240 100% 98.00588834667171%)" />
  <rect x="205" y="155" width="30" height="30" fill="hsl(240 100% 99.84720860230398%)" />
  <rect x="240" y="155" width="30" height="30" fill="hsl(240 100% 91.05152592362485%)" />
  <rect x="275" y="155" width="30" height="30" fill="hsl(240 100% 92.5304702949937%)" />
  <rect x="310" y="155" width="30" height="30" fill="rgb(255 255 255 / 50%)" />
  <rect x="415" y="155" width="30" height="30" fill="hsl(240 100% 92.88962511546345%)" />
  <rect x="485" y="155" width="30" height="30" fill="hsl(240 100% 50%)" />
  <rect x="520" y="155" width="30" height="30" fill="hsl(240 100% 81.26226907933443%)" />
  <rect x="590" y="155" width="30" height="30" fill="hsl(240 100% 99.57186362999815%)" />
  <rect x="625" y="155" width="30" height="30" fill="hsl(240 100% 66.0586630033643%)" />
  <rect x="695" y="155" width="30" height="30" fill="hsl(240 100% 95.37692485495623%)" />
  <rect x="730" y="155" width="30" height="30" fill="hsl(240 100% 83.69215890776235%)" />
  <rect x="765" y="155" width="30" height="30" fill="hsl(240 100% 99.57183648568181%)" />
  <rect x="835" y="155" width="30" height="30" fill="hsl(240 100% 96.24814098210881%)" />
  <rect x="65" y="190" width="30" height="30" fill="hsl(240 100% 50%)" />
  <rect x="100" y="190" width="30" height="30" fill="hsl(240 100% 50%)" />
  <rect x="135" y="190" width="30" height="30" fill="hsl(240 100% 50%)" />
  <rect x="170" y="190" width="30" height="30" fill="hsl(240 100% 50%)" />
  <rect x="205" y="190" width="30" height="30" fill="hsl(240 100% 50%)" />
  <rect x="240" y="190" width="30" height="30" fill="hsl(240 100% 50%)" />
  <rect x="275" y="190" width="30" height="30" fill="hsl(240 100% 50%)" />
  <rect x="310" y="190" width="30" height="30" fill="hsl(240 100% 50%)" />
  <rect x="345" y="190" width="30" height="30" fill="hsl(240 100% 50%)" />
  <rect x="380" y="190" width="30" height="30" fill="hsl(240 100% 50%)" />
  <rect x="415" y="190" width="30" height="30" fill="hsl(240 100% 50%)" />
  <rect x="450" y="190" width="30" height="30" fill="hsl(240 100% 50%)" />
  <rect x="485" y="190" width="30" height="30" fill="hsl(240 100% 50%)" />
  <rect x="520" y="190" width="30" height="30" fill="hsl(240 100% 50%)" />
  <rect x="555" y="190" width="30" height="30" fill="hsl(240 100% 50%)" />
  <rect x="590" y="190" width="30" height="30" fill="hsl(240 100% 50%)" />
  <rect x="625" y="190" width="30" height="30" fill="hsl(240 100% 50%)" />
  <rect x="660" y="190" width="30" height="30" fill="hsl(240 100% 50%)" />
  <rect x="695" y="190" width="30" height="30" fill="hsl(240 100% 50%)" />
  <rect x="730" y="190" width="30" height="30" fill="hsl(240 100% 50%)" />
  <rect x="765" y="190" width="30" height="30" fill="hsl(240 100% 50%)" />
  <rect x="800" y="190" width="30" height="30" fill="hsl(240 100% 50%)" />
  <rect x="835" y="190" width="30" height="30" fill="hsl(240 100% 50%)" />
  <rect x="100" y="225" width="30" height="30" fill="hsl(240 100% 96.29867017510183%)" />
  <rect x="135" y="225" width="30" height="30" fill="hsl(240 100% 86.31566685441418%)" />
  <rect x="170" y="225" width="30" height="30" fill="hsl(240 100% 87.97820312959068%)" />
  <rect x="240" y="225" width="30" height="30" fill="hsl(240 100% 90.27267874833956%)" />
  <rect x="310" y="225" width="30" height="30" fill="rgb(255 255 255 / 50%)" />
  <rect x="415" y="225" width="30" height="30" fill="hsl(240 100% 89.41755236148862%)" />
  <rect x="520" y="225" width="30" height="30" fill="hsl(240 100% 50%)" />
  <rect x="625" y="225" width="30" height="30" fill="rgb(255 255 255 / 50%)" />
  <rect x="730" y="225" width="30" height="30" fill="hsl(240 100% 92.46912925441654%)" />
  <rect x="765" y="225" width="30" height="30" fill="rgb(255 255 255 / 50%)" />
  <rect x="835" y="225" width="30" height="30" fill="hsl(240 100% 93.69987331076902%)" />
  <rect x="65" y="260" width="30" height="30" fill="hsl(240 100% 99.84349428156914%)" />
  <rect x="135" y="260" width="30" height="30" fill="hsl(240 100% 99.85952465112639%)" />
  <rect x="170" y="260" width="30" height="30" fill="hsl(240 100% 98.90550716719625%)" />
  <rect x="205" y="260" width="30" height="30" fill="rgb(255 255 255 / 50%)" />
  <rect x="240" y="260" width="30" height="30" fill="hsl(240 100% 87.0534710689054%)" />
  <rect x="310" y="260" width="30" height="30" fill="rgb(255 255 255 / 50%)" />
  <rect x="415" y="260" width="30" height="30" fill="hsl(240 100% 81.11884313291098%)" />
  <rect x="450" y="260" width="30" height="30" fill="rgb(255 255 255 / 50%)" />
  <rect x="485" y="260" width="30" height="30" fill="hsl(240 100% 50%)" />
  <rect x="520" y="260" width="30" height="30" fill="hsl(240 100% 72.22620553917979%)" />
  <rect x="625" y="260" width="30" height="30" fill="hsl(240 100% 97.05917587131135%)" />
  <rect x="695" y="260" width="30" height="30" fill="hsl(240 100% 94.06078330847757%)" />
  <rect x="65" y="295" width="30" height="30" fill="hsl(240 100% 86.17601414620974%)" />
  <rect x="100" y="295" width="30" height="30" fill="hsl(240 100% 97.58760154572718%)" />
  <rect x="135" y="295" width="30" height="30" fill="hsl(240 100% 94.97827826909658%)" />
  <rect x="170" y="295" width="30" height="30" fill="hsl(240 100% 89.14693613430282%)" />
  <rect x="205" y="295" width="30" height="30" fill="hsl(240 100% 99.49016977080575%)" />
  <rect x="240" y="295" width="30" height="30" fill="hsl(240 100% 50.55874446981766%)" />
  <rect x="275" y="295" width="30" height="30" fill="hsl(240 100% 50%)" />
  <rect x="310" y="295" width="30" height="30" fill="hsl(240 100% 99.49866215337387%)" />
  <rect x="345" y="295" width="30" height="30" fill="hsl(240 100% 94.71391812853162%)" />
  <rect x="415" y="295" width="30" height="30" fill="hsl(240 100% 55.19152659396001%)" />
  <rect x="450" y="295" width="30" height="30" fill="hsl(240 100% 99.31516181186612%)" />
  <rect x="485" y="295" width="30" height="30" fill="hsl(240 100% 88.51167408486903%)" />
  <rect x="520" y="295" width="30" height="30" fill="hsl(240 100% 57.81603224615128%)" />
  <rect x="695" y="295" width="30" height="30" fill="hsl(240 100% 97.60294784503394%)" />
  <rect x="800" y="295" width="30" height="30" fill="hsl(240 100% 99.5752721893349%)" />
  <rect x="835" y="295" width="30" height="30" fill="hsl(240 100% 99.9540620563134%)" />
  <rect x="65" y="330" width="30" height="30" fill="hsl(240 100% 86.9740024361939%)" />
  <rect x="100" y="330" width="30" height="30" fill="hsl(240 100% 94.33982361566413%)" />
  <rect x="135" y="330" width="30" height="30" fill="hsl(240 100% 97.00520056295909%)" />
  <rect x="170" y="330" width="30" height="30" fill="hsl(240 100% 87.36459166922137%)" />
  <rect x="205" y="330" width="30" height="30" fill="hsl(240 100% 99.20601809864125%)" />
  <rect x="240" y="330" width="30" height="30" fill="hsl(240 100% 79.59245049940608%)" />
  <rect x="275" y="330" width="30" height="30" fill="hsl(240 100% 88.32075908795474%)" />
  <rect x="310" y="330" width="30" height="30" fill="rgb(255 255 255 / 50%)" />
  <rect x="345" y="330" width="30" height="30" fill="hsl(240 100% 97.19532562568347%)" />
  <rect x="415" y="330" width="30" height="30" fill="hsl(240 100% 85.61963957693327%)" />
  <rect x="450" y="330" width="30" height="30" fill="hsl(240 100% 99.80241955806974%)" />
  <rect x="485" y="330" width="30" height="30" fill="hsl(240 100% 70.73950482728256%)" />
  <rect x="520" y="330" width="30" height="30" fill="hsl(240 100% 70.42290570145698%)" />
  <rect x="590" y="330" width="30" height="30" fill="hsl(240 100% 93.75686065871325%)" />
  <rect x="625" y="330" width="30" height="30" fill="hsl(240 100% 50%)" />
  <rect x="765" y="330" width="30" height="30" fill="hsl(240 100% 94.29739518456503%)" />
  <rect x="800" y="330" width="30" height="30" fill="hsl(240 100% 99.19483999226743%)" />
  <rect x="835" y="330" width="30" height="30" fill="hsl(240 100% 81.48935808159385%)" />
  <rect x="65" y="365" width="30" height="30" fill="hsl(240 100% 57.621381961541665%)" />
  <rect x="100" y="365" width="30" height="30" fill="hsl(240 100% 71.69211634701537%)" />
  <rect x="135" y="365" width="30" height="30" fill="hsl(240 100% 81.85110984956098%)" />
  <rect x="170" y="365" width="30" height="30" fill="hsl(240 100% 50%)" />
  <rect x="205" y="365" width="30" height="30" fill="hsl(240 100% 96.07497917442656%)" />
  <rect x="240" y="365" width="30" height="30" fill="hsl(240 100% 61.16066049626278%)" />
  <rect x="275" y="365" width="30" height="30" fill="hsl(240 100% 92.63556845697937%)" />
  <rect x="310" y="365" width="30" height="30" fill="hsl(240 100% 99.867773774737%)" />
  <rect x="415" y="365" width="30" height="30" fill="hsl(240 100% 67.13522426067739%)" />
  <rect x="520" y="365" width="30" height="30" fill="hsl(240 100% 86.26326104605825%)" />
  <rect x="625" y="365" width="30" height="30" fill="hsl(240 100% 99.64889971098403%)" />
  <rect x="730" y="365" width="30" height="30" fill="hsl(240 100% 64.05732988336351%)" />
  <rect x="765" y="365" width="30" height="30" fill="hsl(240 100% 98.12811851000892%)" />
  <rect x="835" y="365" width="30" height="30" fill="hsl(240 100% 98.76717215643077%)" />
  <rect x="65" y="400" width="30" height="30" fill="hsl(240 100% 97.64538981951297%)" />
  <rect x="100" y="400" width="30" height="30" fill="hsl(240 100% 99.25685862972308%)" />
  <rect x="135" y="400" width="30" height="30" fill="hsl(240 100% 99.57878480449874%)" />
  <rect x="170" y="400" width="30" height="30" fill="hsl(240 100% 92.41538610764209%)" />
  <rect x="205" y="400" width="30" height="30" fill="hsl(240 100% 99.04760771009668%)" />
  <rect x="240" y="400" width="30" height="30" fill="hsl(240 100% 82.2831506117929%)" />
  <rect x="275" y="400" width="30" height="30" fill="hsl(240 100% 94.18539916310915%)" />
  <rect x="310" y="400" width="30" height="30" fill="rgb(255 255 255 / 50%)" />
  <rect x="380" y="400" width="30" height="30" fill="rgb(255 255 255 / 50%)" />
  <rect x="415" y="400" width="30" height="30" fill="hsl(240 100% 92.4750647356874%)" />
  <rect x="450" y="400" width="30" height="30" fill="hsl(240 100% 99.96709532721086%)" />
  <rect x="485" y="400" width="30" height="30" fill="hsl(240 100% 73.37696047647015%)" />
  <rect x="520" y="400" width="30" height="30" fill="hsl(240 100% 50%)" />
  <rect x="555" y="400" width="30" height="30" fill="hsl(240 100% 98.9232542726997%)" />
  <rect x="660" y="400" width="30" height="30" fill="rgb(255 255 255 / 50%)" />
  <rect x="835" y="400" width="30" height="30" fill="hsl(240 100% 99.01367470823547%)" />
  <rect x="65" y="435" width="30" height="30" fill="hsl(240 100% 93.3015242430097%)" />
  <rect x="240" y="435" width="30" height="30" fill="hsl(240 100% 50%)" />
  <rect x="310" y="435" width="30" height="30" fill="hsl(240 100% 93.85307845531729%)" />
  <rect x="415" y="435" width="30" height="30" fill="hsl(240 100% 86.98106373800434%)" />
  <rect x="450" y="435" width="30" height="30" fill="hsl(240 100% 99.77781566732767%)" />
  <rect x="65" y="470" width="30" height="30" fill="hsl(240 100% 50.067201308787624%)" />
  <rect x="240" y="470" width="30" height="30" fill="hsl(240 100% 50%)" />
  <rect x="310" y="470" width="30" height="30" fill="hsl(240 100% 96.99454226613912%)" />
  <rect x="415" y="470" width="30" height="30" fill="hsl(240 100% 89.05111764405603%)" />
  <rect x="450" y="470" width="30" height="30" fill="hsl(240 100% 99.57050040516657%)" />
</svg>
