<svg xmlns="http://www.w3.org/2000/svg" viewBox="0 0 870 505">
  <rect x="0" y="0" width="870" height="505" rx="5" ry="5" fill="#222" />
  <text x="60" y="100" fill="white" font-family="sans-serif" font-weight="bold" font-size="12" text-anchor="end" dominant-baseline="middle">ba</text>
  <text x="60" y="135" fill="white" font-family="sans-serif" font-weight="bold" font-size="12" text-anchor="end" dominant-baseline="middle">det</text>
  <text x="60" y="170" fill="white" font-family="sans-serif" font-weight="bold" font-size="12" text-anchor="end" dominant-baseline="middle">gmm</text>
  <text x="60" y="205" fill="white" font-family="sans-serif" font-weight="bold" font-size="12" text-anchor="end" dominant-baseline="middle">hello</text>
  <text x="60" y="240" fill="white" font-family="sans-serif" font-weight="bold" font-size="12" text-anchor="end" dominant-baseline="middle">ht</text>
  <text x="60" y="275" fill="white" font-family="sans-serif" font-weight="bold" font-size="12" text-anchor="end" dominant-baseline="middle">kmeans</text>
  <text x="60" y="310" fill="white" font-family="sans-serif" font-weight="bold" font-size="12" text-anchor="end" dominant-baseline="middle">llsq</text>
  <text x="60" y="345" fill="white" font-family="sans-serif" font-weight="bold" font-size="12" text-anchor="end" dominant-baseline="middle">lse</text>
  <text x="60" y="380" fill="white" font-family="sans-serif" font-weight="bold" font-size="12" text-anchor="end" dominant-baseline="middle">lstm</text>
  <text x="60" y="415" fill="white" font-family="sans-serif" font-weight="bold" font-size="12" text-anchor="end" dominant-baseline="middle">ode</text>
  <text x="60" y="450" fill="white" font-family="sans-serif" font-weight="bold" font-size="12" text-anchor="end" dominant-baseline="middle">particle</text>
  <text x="60" y="485" fill="white" font-family="sans-serif" font-weight="bold" font-size="12" text-anchor="end" dominant-baseline="middle">saddle</text>
  <text x="80" y="80" fill="white" font-family="sans-serif" font-weight="bold" font-size="12" text-anchor="end" dominant-baseline="middle" transform="rotate(90 80 80)">ad-hpp</text>
  <text x="115" y="80" fill="white" font-family="sans-serif" font-weight="bold" font-size="12" text-anchor="end" dominant-baseline="middle" transform="rotate(90 115 80)">adept</text>
  <text x="150" y="80" fill="white" font-family="sans-serif" font-weight="bold" font-size="12" text-anchor="end" dominant-baseline="middle" transform="rotate(90 150 80)">adol-c</text>
  <text x="185" y="80" fill="white" font-family="sans-serif" font-weight="bold" font-size="12" text-anchor="end" dominant-baseline="middle" transform="rotate(90 185 80)">codipack</text>
  <text x="220" y="80" fill="white" font-family="sans-serif" font-weight="bold" font-size="12" text-anchor="end" dominant-baseline="middle" transform="rotate(90 220 80)">cppad</text>
  <text x="255" y="80" fill="white" font-family="sans-serif" font-weight="bold" font-size="12" text-anchor="end" dominant-baseline="middle" transform="rotate(90 255 80)">enzyme</text>
  <text x="290" y="80" fill="white" font-family="sans-serif" font-weight="bold" font-size="12" text-anchor="end" dominant-baseline="middle" transform="rotate(90 290 80)">enzyme-jl</text>
  <text x="325" y="80" fill="white" font-family="sans-serif" font-weight="bold" font-size="12" text-anchor="end" dominant-baseline="middle" transform="rotate(90 325 80)">finite</text>
  <text x="360" y="80" fill="white" font-family="sans-serif" font-weight="bold" font-size="12" text-anchor="end" dominant-baseline="middle" transform="rotate(90 360 80)">floretta</text>
  <text x="395" y="80" fill="white" font-family="sans-serif" font-weight="bold" font-size="12" text-anchor="end" dominant-baseline="middle" transform="rotate(90 395 80)">forwarddiff-jl</text>
  <text x="430" y="80" fill="white" font-family="sans-serif" font-weight="bold" font-size="12" text-anchor="end" dominant-baseline="middle" transform="rotate(90 430 80)">futhark</text>
  <text x="465" y="80" fill="white" font-family="sans-serif" font-weight="bold" font-size="12" text-anchor="end" dominant-baseline="middle" transform="rotate(90 465 80)">haskell</text>
  <text x="500" y="80" fill="white" font-family="sans-serif" font-weight="bold" font-size="12" text-anchor="end" dominant-baseline="middle" transform="rotate(90 500 80)">jax</text>
  <text x="535" y="80" fill="white" font-family="sans-serif" font-weight="bold" font-size="12" text-anchor="end" dominant-baseline="middle" transform="rotate(90 535 80)">manual</text>
  <text x="570" y="80" fill="white" font-family="sans-serif" font-weight="bold" font-size="12" text-anchor="end" dominant-baseline="middle" transform="rotate(90 570 80)">mooncake-jl</text>
  <text x="605" y="80" fill="white" font-family="sans-serif" font-weight="bold" font-size="12" text-anchor="end" dominant-baseline="middle" transform="rotate(90 605 80)">ocaml</text>
  <text x="640" y="80" fill="white" font-family="sans-serif" font-weight="bold" font-size="12" text-anchor="end" dominant-baseline="middle" transform="rotate(90 640 80)">pytorch</text>
  <text x="675" y="80" fill="white" font-family="sans-serif" font-weight="bold" font-size="12" text-anchor="end" dominant-baseline="middle" transform="rotate(90 675 80)">reversediff-jl</text>
  <text x="710" y="80" fill="white" font-family="sans-serif" font-weight="bold" font-size="12" text-anchor="end" dominant-baseline="middle" transform="rotate(90 710 80)">scilean</text>
  <text x="745" y="80" fill="white" font-family="sans-serif" font-weight="bold" font-size="12" text-anchor="end" dominant-baseline="middle" transform="rotate(90 745 80)">tapenade</text>
  <text x="780" y="80" fill="white" font-family="sans-serif" font-weight="bold" font-size="12" text-anchor="end" dominant-baseline="middle" transform="rotate(90 780 80)">tensorflow</text>
  <text x="815" y="80" fill="white" font-family="sans-serif" font-weight="bold" font-size="12" text-anchor="end" dominant-baseline="middle" transform="rotate(90 815 80)">tensorflow-js</text>
  <text x="850" y="80" fill="white" font-family="sans-serif" font-weight="bold" font-size="12" text-anchor="end" dominant-baseline="middle" transform="rotate(90 850 80)">zygote</text>
  <rect x="65" y="85" width="30" height="30" fill="hsl(240 100% 81.61162487003327%)" />
  <rect x="100" y="85" width="30" height="30" fill="hsl(240 100% 83.34194297161744%)" />
  <rect x="135" y="85" width="30" height="30" fill="hsl(240 100% 98.04165232474122%)" />
  <rect x="170" y="85" width="30" height="30" fill="hsl(240 100% 83.65122065895957%)" />
  <rect x="205" y="85" width="30" height="30" fill="hsl(240 100% 99.02180525633385%)" />
  <rect x="240" y="85" width="30" height="30" fill="hsl(240 100% 53.176913871889596%)" />
  <rect x="310" y="85" width="30" height="30" fill="hsl(240 100% 93.40637449609893%)" />
  <rect x="415" y="85" width="30" height="30" fill="hsl(240 100% 69.02536717642045%)" />
  <rect x="520" y="85" width="30" height="30" fill="hsl(240 100% 50%)" />
  <rect x="625" y="85" width="30" height="30" fill="rgb(255 255 255 / 50%)" />
  <rect x="730" y="85" width="30" height="30" fill="hsl(240 100% 75.38455120708777%)" />
  <rect x="765" y="85" width="30" height="30" fill="rgb(255 255 255 / 50%)" />
  <rect x="835" y="85" width="30" height="30" fill="hsl(240 100% 99.73718544855171%)" />
  <rect x="65" y="120" width="30" height="30" fill="hsl(240 100% 50%)" />
  <rect x="100" y="120" width="30" height="30" fill="hsl(240 100% 82.58617168385078%)" />
  <rect x="135" y="120" width="30" height="30" fill="hsl(240 100% 85.82147697931158%)" />
  <rect x="170" y="120" width="30" height="30" fill="hsl(240 100% 52.29764361990776%)" />
  <rect x="205" y="120" width="30" height="30" fill="hsl(240 100% 92.52113327902038%)" />
  <rect x="240" y="120" width="30" height="30" fill="hsl(240 100% 91.41189003378923%)" />
  <rect x="275" y="120" width="30" height="30" fill="hsl(240 100% 99.37517262009214%)" />
  <rect x="310" y="120" width="30" height="30" fill="hsl(240 100% 98.98904837219463%)" />
  <rect x="380" y="120" width="30" height="30" fill="hsl(240 100% 93.37313383700297%)" />
  <rect x="415" y="120" width="30" height="30" fill="hsl(240 100% 94.58233081645815%)" />
  <rect x="450" y="120" width="30" height="30" fill="hsl(240 100% 97.97247152598463%)" />
  <rect x="520" y="120" width="30" height="30" fill="hsl(240 100% 79.69292932337672%)" />
  <rect x="555" y="120" width="30" height="30" fill="hsl(240 100% 89.97405469682566%)" />
  <rect x="660" y="120" width="30" height="30" fill="rgb(255 255 255 / 50%)" />
  <rect x="835" y="120" width="30" height="30" fill="rgb(255 255 255 / 50%)" />
  <rect x="65" y="155" width="30" height="30" fill="hsl(240 100% 98.1955434582277%)" />
  <rect x="100" y="155" width="30" height="30" fill="hsl(240 100% 98.74163427696755%)" />
  <rect x="135" y="155" width="30" height="30" fill="hsl(240 100% 99.08345659156642%)" />
  <rect x="170" y="155" width="30" height="30" fill="hsl(240 100% 98.00242991152085%)" />
  <rect x="205" y="155" width="30" height="30" fill="hsl(240 100% 99.82385034994843%)" />
  <rect x="240" y="155" width="30" height="30" fill="hsl(240 100% 90.94587704577344%)" />
  <rect x="275" y="155" width="30" height="30" fill="hsl(240 100% 92.50253682298744%)" />
  <rect x="310" y="155" width="30" height="30" fill="rgb(255 255 255 / 50%)" />
  <rect x="415" y="155" width="30" height="30" fill="hsl(240 100% 92.76639316351444%)" />
  <rect x="485" y="155" width="30" height="30" fill="hsl(240 100% 50%)" />
  <rect x="520" y="155" width="30" height="30" fill="hsl(240 100% 83.27621701032221%)" />
  <rect x="590" y="155" width="30" height="30" fill="hsl(240 100% 99.57354953600601%)" />
  <rect x="625" y="155" width="30" height="30" fill="hsl(240 100% 64.54695562807899%)" />
  <rect x="695" y="155" width="30" height="30" fill="hsl(240 100% 95.2680463782827%)" />
  <rect x="730" y="155" width="30" height="30" fill="hsl(240 100% 83.16248179315181%)" />
  <rect x="765" y="155" width="30" height="30" fill="hsl(240 100% 99.55165051746059%)" />
  <rect x="835" y="155" width="30" height="30" fill="hsl(240 100% 96.09753884418339%)" />
  <rect x="65" y="190" width="30" height="30" fill="hsl(240 100% 50%)" />
  <rect x="100" y="190" width="30" height="30" fill="hsl(240 100% 50%)" />
  <rect x="135" y="190" width="30" height="30" fill="hsl(240 100% 50%)" />
  <rect x="170" y="190" width="30" height="30" fill="hsl(240 100% 50%)" />
  <rect x="205" y="190" width="30" height="30" fill="hsl(240 100% 50%)" />
  <rect x="240" y="190" width="30" height="30" fill="hsl(240 100% 50%)" />
  <rect x="275" y="190" width="30" height="30" fill="hsl(240 100% 50%)" />
  <rect x="310" y="190" width="30" height="30" fill="hsl(240 100% 50%)" />
  <rect x="345" y="190" width="30" height="30" fill="hsl(240 100% 50%)" />
  <rect x="380" y="190" width="30" height="30" fill="hsl(240 100% 50%)" />
  <rect x="415" y="190" width="30" height="30" fill="hsl(240 100% 50%)" />
  <rect x="450" y="190" width="30" height="30" fill="hsl(240 100% 50%)" />
  <rect x="485" y="190" width="30" height="30" fill="hsl(240 100% 50%)" />
  <rect x="520" y="190" width="30" height="30" fill="hsl(240 100% 50%)" />
  <rect x="555" y="190" width="30" height="30" fill="hsl(240 100% 50%)" />
  <rect x="590" y="190" width="30" height="30" fill="hsl(240 100% 50%)" />
  <rect x="625" y="190" width="30" height="30" fill="hsl(240 100% 50%)" />
  <rect x="660" y="190" width="30" height="30" fill="hsl(240 100% 50%)" />
  <rect x="695" y="190" width="30" height="30" fill="hsl(240 100% 50%)" />
  <rect x="730" y="190" width="30" height="30" fill="hsl(240 100% 50%)" />
  <rect x="765" y="190" width="30" height="30" fill="hsl(240 100% 50%)" />
  <rect x="800" y="190" width="30" height="30" fill="hsl(240 100% 50%)" />
  <rect x="835" y="190" width="30" height="30" fill="hsl(240 100% 50%)" />
  <rect x="100" y="225" width="30" height="30" fill="hsl(240 100% 96.7374506748373%)" />
  <rect x="135" y="225" width="30" height="30" fill="hsl(240 100% 89.36895177659048%)" />
  <rect x="170" y="225" width="30" height="30" fill="hsl(240 100% 89.49075936632667%)" />
  <rect x="240" y="225" width="30" height="30" fill="hsl(240 100% 91.3967753615649%)" />
  <rect x="310" y="225" width="30" height="30" fill="rgb(255 255 255 / 50%)" />
  <rect x="415" y="225" width="30" height="30" fill="hsl(240 100% 90.67404221137821%)" />
  <rect x="520" y="225" width="30" height="30" fill="hsl(240 100% 50%)" />
  <rect x="625" y="225" width="30" height="30" fill="rgb(255 255 255 / 50%)" />
  <rect x="730" y="225" width="30" height="30" fill="hsl(240 100% 93.24906001105116%)" />
  <rect x="765" y="225" width="30" height="30" fill="rgb(255 255 255 / 50%)" />
  <rect x="835" y="225" width="30" height="30" fill="hsl(240 100% 94.65517516819226%)" />
  <rect x="65" y="260" width="30" height="30" fill="hsl(240 100% 99.89125115956914%)" />
  <rect x="135" y="260" width="30" height="30" fill="hsl(240 100% 99.85676712225664%)" />
  <rect x="170" y="260" width="30" height="30" fill="hsl(240 100% 98.87502585573044%)" />
  <rect x="205" y="260" width="30" height="30" fill="rgb(255 255 255 / 50%)" />
  <rect x="240" y="260" width="30" height="30" fill="hsl(240 100% 87.3423165758346%)" />
  <rect x="310" y="260" width="30" height="30" fill="rgb(255 255 255 / 50%)" />
  <rect x="415" y="260" width="30" height="30" fill="hsl(240 100% 80.9476032030937%)" />
  <rect x="450" y="260" width="30" height="30" fill="rgb(255 255 255 / 50%)" />
  <rect x="485" y="260" width="30" height="30" fill="hsl(240 100% 50%)" />
  <rect x="520" y="260" width="30" height="30" fill="hsl(240 100% 71.8174771958164%)" />
  <rect x="625" y="260" width="30" height="30" fill="hsl(240 100% 97.05855849369712%)" />
  <rect x="695" y="260" width="30" height="30" fill="hsl(240 100% 94.21591056431984%)" />
  <rect x="65" y="295" width="30" height="30" fill="hsl(240 100% 86.04645710312927%)" />
  <rect x="100" y="295" width="30" height="30" fill="hsl(240 100% 97.54747404132489%)" />
  <rect x="135" y="295" width="30" height="30" fill="hsl(240 100% 95.1437624616379%)" />
  <rect x="170" y="295" width="30" height="30" fill="hsl(240 100% 90.69903544891889%)" />
  <rect x="205" y="295" width="30" height="30" fill="hsl(240 100% 99.46779153903532%)" />
  <rect x="240" y="295" width="30" height="30" fill="hsl(240 100% 50.752535797242345%)" />
  <rect x="275" y="295" width="30" height="30" fill="hsl(240 100% 50%)" />
  <rect x="310" y="295" width="30" height="30" fill="hsl(240 100% 99.50072828645834%)" />
  <rect x="345" y="295" width="30" height="30" fill="hsl(240 100% 94.70831067728881%)" />
  <rect x="415" y="295" width="30" height="30" fill="hsl(240 100% 55.33862265481793%)" />
  <rect x="450" y="295" width="30" height="30" fill="hsl(240 100% 99.31912464026168%)" />
  <rect x="485" y="295" width="30" height="30" fill="hsl(240 100% 88.1163154596884%)" />
  <rect x="520" y="295" width="30" height="30" fill="hsl(240 100% 57.952434400821275%)" />
  <rect x="695" y="295" width="30" height="30" fill="hsl(240 100% 97.61469074794178%)" />
  <rect x="800" y="295" width="30" height="30" fill="hsl(240 100% 99.59397412517251%)" />
  <rect x="835" y="295" width="30" height="30" fill="hsl(240 100% 99.95485666692791%)" />
  <rect x="65" y="330" width="30" height="30" fill="hsl(240 100% 88.79212311356557%)" />
  <rect x="100" y="330" width="30" height="30" fill="hsl(240 100% 94.80823268834236%)" />
  <rect x="135" y="330" width="30" height="30" fill="hsl(240 100% 97.21950499225208%)" />
  <rect x="170" y="330" width="30" height="30" fill="hsl(240 100% 88.60196590507813%)" />
  <rect x="205" y="330" width="30" height="30" fill="hsl(240 100% 99.21492749870401%)" />
  <rect x="240" y="330" width="30" height="30" fill="hsl(240 100% 83.47312054755784%)" />
  <rect x="275" y="330" width="30" height="30" fill="hsl(240 100% 87.68082063448715%)" />
  <rect x="310" y="330" width="30" height="30" fill="rgb(255 255 255 / 50%)" />
  <rect x="345" y="330" width="30" height="30" fill="hsl(240 100% 97.2758432748577%)" />
  <rect x="415" y="330" width="30" height="30" fill="hsl(240 100% 86.06443429104307%)" />
  <rect x="450" y="330" width="30" height="30" fill="hsl(240 100% 99.81557481021792%)" />
  <rect x="485" y="330" width="30" height="30" fill="hsl(240 100% 70.95973547081806%)" />
  <rect x="520" y="330" width="30" height="30" fill="hsl(240 100% 77.22331058862923%)" />
  <rect x="590" y="330" width="30" height="30" fill="hsl(240 100% 93.94262552499558%)" />
  <rect x="625" y="330" width="30" height="30" fill="hsl(240 100% 50%)" />
  <rect x="765" y="330" width="30" height="30" fill="hsl(240 100% 95.38712382870142%)" />
  <rect x="800" y="330" width="30" height="30" fill="hsl(240 100% 99.2253333022595%)" />
  <rect x="835" y="330" width="30" height="30" fill="hsl(240 100% 81.46078785236283%)" />
  <rect x="65" y="365" width="30" height="30" fill="hsl(240 100% 56.80063853884087%)" />
  <rect x="100" y="365" width="30" height="30" fill="hsl(240 100% 71.45476012437791%)" />
  <rect x="135" y="365" width="30" height="30" fill="hsl(240 100% 82.19599414250015%)" />
  <rect x="170" y="365" width="30" height="30" fill="hsl(240 100% 50%)" />
  <rect x="205" y="365" width="30" height="30" fill="hsl(240 100% 96.18109548435424%)" />
  <rect x="240" y="365" width="30" height="30" fill="hsl(240 100% 58.50556633217864%)" />
  <rect x="275" y="365" width="30" height="30" fill="hsl(240 100% 92.51101070392151%)" />
  <rect x="310" y="365" width="30" height="30" fill="hsl(240 100% 99.85969375141589%)" />
  <rect x="415" y="365" width="30" height="30" fill="hsl(240 100% 66.4103963439241%)" />
  <rect x="520" y="365" width="30" height="30" fill="hsl(240 100% 85.7150162879109%)" />
  <rect x="625" y="365" width="30" height="30" fill="hsl(240 100% 99.6324337968608%)" />
  <rect x="730" y="365" width="30" height="30" fill="hsl(240 100% 63.07809359325175%)" />
  <rect x="765" y="365" width="30" height="30" fill="hsl(240 100% 98.20885570696964%)" />
  <rect x="835" y="365" width="30" height="30" fill="hsl(240 100% 98.71363408510419%)" />
  <rect x="65" y="400" width="30" height="30" fill="hsl(240 100% 97.70810278064388%)" />
  <rect x="100" y="400" width="30" height="30" fill="hsl(240 100% 99.26320928427002%)" />
  <rect x="135" y="400" width="30" height="30" fill="hsl(240 100% 99.59181951882923%)" />
  <rect x="170" y="400" width="30" height="30" fill="hsl(240 100% 94.3490746977721%)" />
  <rect x="205" y="400" width="30" height="30" fill="hsl(240 100% 99.04797617617136%)" />
  <rect x="240" y="400" width="30" height="30" fill="hsl(240 100% 85.63875975813463%)" />
  <rect x="275" y="400" width="30" height="30" fill="hsl(240 100% 94.31076750493213%)" />
  <rect x="310" y="400" width="30" height="30" fill="rgb(255 255 255 / 50%)" />
  <rect x="380" y="400" width="30" height="30" fill="rgb(255 255 255 / 50%)" />
  <rect x="415" y="400" width="30" height="30" fill="hsl(240 100% 92.57515515760821%)" />
  <rect x="450" y="400" width="30" height="30" fill="hsl(240 100% 99.96788883421208%)" />
  <rect x="485" y="400" width="30" height="30" fill="hsl(240 100% 73.7876538971187%)" />
  <rect x="520" y="400" width="30" height="30" fill="hsl(240 100% 50%)" />
  <rect x="555" y="400" width="30" height="30" fill="hsl(240 100% 98.90820860480005%)" />
  <rect x="660" y="400" width="30" height="30" fill="rgb(255 255 255 / 50%)" />
  <rect x="835" y="400" width="30" height="30" fill="hsl(240 100% 98.83003784838286%)" />
  <rect x="65" y="435" width="30" height="30" fill="hsl(240 100% 92.80647210911582%)" />
  <rect x="240" y="435" width="30" height="30" fill="hsl(240 100% 50%)" />
  <rect x="310" y="435" width="30" height="30" fill="hsl(240 100% 94.30834273013397%)" />
  <rect x="415" y="435" width="30" height="30" fill="hsl(240 100% 87.06036573930923%)" />
  <rect x="450" y="435" width="30" height="30" fill="hsl(240 100% 99.79199373177902%)" />
  <rect x="65" y="470" width="30" height="30" fill="hsl(240 100% 50%)" />
  <rect x="240" y="470" width="30" height="30" fill="hsl(240 100% 50.11310797127632%)" />
  <rect x="310" y="470" width="30" height="30" fill="hsl(240 100% 97.15137482200949%)" />
  <rect x="415" y="470" width="30" height="30" fill="hsl(240 100% 89.15405558398709%)" />
  <rect x="450" y="470" width="30" height="30" fill="hsl(240 100% 99.58627076369186%)" />
</svg>
