<svg xmlns="http://www.w3.org/2000/svg" viewBox="0 0 730 505">
  <rect x="0" y="0" width="730" height="505" rx="5" ry="5" fill="#222" />
  <text x="60" y="100" fill="white" font-family="sans-serif" font-weight="bold" font-size="12" text-anchor="end" dominant-baseline="middle">ba</text>
  <text x="60" y="135" fill="white" font-family="sans-serif" font-weight="bold" font-size="12" text-anchor="end" dominant-baseline="middle">det</text>
  <text x="60" y="170" fill="white" font-family="sans-serif" font-weight="bold" font-size="12" text-anchor="end" dominant-baseline="middle">gmm</text>
  <text x="60" y="205" fill="white" font-family="sans-serif" font-weight="bold" font-size="12" text-anchor="end" dominant-baseline="middle">hello</text>
  <text x="60" y="240" fill="white" font-family="sans-serif" font-weight="bold" font-size="12" text-anchor="end" dominant-baseline="middle">ht</text>
  <text x="60" y="275" fill="white" font-family="sans-serif" font-weight="bold" font-size="12" text-anchor="end" dominant-baseline="middle">kmeans</text>
  <text x="60" y="310" fill="white" font-family="sans-serif" font-weight="bold" font-size="12" text-anchor="end" dominant-baseline="middle">llsq</text>
  <text x="60" y="345" fill="white" font-family="sans-serif" font-weight="bold" font-size="12" text-anchor="end" dominant-baseline="middle">lse</text>
  <text x="60" y="380" fill="white" font-family="sans-serif" font-weight="bold" font-size="12" text-anchor="end" dominant-baseline="middle">lstm</text>
  <text x="60" y="415" fill="white" font-family="sans-serif" font-weight="bold" font-size="12" text-anchor="end" dominant-baseline="middle">ode</text>
  <text x="60" y="450" fill="white" font-family="sans-serif" font-weight="bold" font-size="12" text-anchor="end" dominant-baseline="middle">particle</text>
  <text x="60" y="485" fill="white" font-family="sans-serif" font-weight="bold" font-size="12" text-anchor="end" dominant-baseline="middle">saddle</text>
  <text x="80" y="80" fill="white" font-family="sans-serif" font-weight="bold" font-size="12" text-anchor="end" dominant-baseline="middle" transform="rotate(90 80 80)">ad-hpp</text>
  <text x="115" y="80" fill="white" font-family="sans-serif" font-weight="bold" font-size="12" text-anchor="end" dominant-baseline="middle" transform="rotate(90 115 80)">adept</text>
  <text x="150" y="80" fill="white" font-family="sans-serif" font-weight="bold" font-size="12" text-anchor="end" dominant-baseline="middle" transform="rotate(90 150 80)">adol-c</text>
  <text x="185" y="80" fill="white" font-family="sans-serif" font-weight="bold" font-size="12" text-anchor="end" dominant-baseline="middle" transform="rotate(90 185 80)">codipack</text>
  <text x="220" y="80" fill="white" font-family="sans-serif" font-weight="bold" font-size="12" text-anchor="end" dominant-baseline="middle" transform="rotate(90 220 80)">cppad</text>
  <text x="255" y="80" fill="white" font-family="sans-serif" font-weight="bold" font-size="12" text-anchor="end" dominant-baseline="middle" transform="rotate(90 255 80)">enzyme</text>
  <text x="290" y="80" fill="white" font-family="sans-serif" font-weight="bold" font-size="12" text-anchor="end" dominant-baseline="middle" transform="rotate(90 290 80)">enzyme-jl</text>
  <text x="325" y="80" fill="white" font-family="sans-serif" font-weight="bold" font-size="12" text-anchor="end" dominant-baseline="middle" transform="rotate(90 325 80)">finite</text>
  <text x="360" y="80" fill="white" font-family="sans-serif" font-weight="bold" font-size="12" text-anchor="end" dominant-baseline="middle" transform="rotate(90 360 80)">floretta</text>
  <text x="395" y="80" fill="white" font-family="sans-serif" font-weight="bold" font-size="12" text-anchor="end" dominant-baseline="middle" transform="rotate(90 395 80)">futhark</text>
  <text x="430" y="80" fill="white" font-family="sans-serif" font-weight="bold" font-size="12" text-anchor="end" dominant-baseline="middle" transform="rotate(90 430 80)">haskell</text>
  <text x="465" y="80" fill="white" font-family="sans-serif" font-weight="bold" font-size="12" text-anchor="end" dominant-baseline="middle" transform="rotate(90 465 80)">jax</text>
  <text x="500" y="80" fill="white" font-family="sans-serif" font-weight="bold" font-size="12" text-anchor="end" dominant-baseline="middle" transform="rotate(90 500 80)">manual</text>
  <text x="535" y="80" fill="white" font-family="sans-serif" font-weight="bold" font-size="12" text-anchor="end" dominant-baseline="middle" transform="rotate(90 535 80)">ocaml</text>
  <text x="570" y="80" fill="white" font-family="sans-serif" font-weight="bold" font-size="12" text-anchor="end" dominant-baseline="middle" transform="rotate(90 570 80)">pytorch</text>
  <text x="605" y="80" fill="white" font-family="sans-serif" font-weight="bold" font-size="12" text-anchor="end" dominant-baseline="middle" transform="rotate(90 605 80)">scilean</text>
  <text x="640" y="80" fill="white" font-family="sans-serif" font-weight="bold" font-size="12" text-anchor="end" dominant-baseline="middle" transform="rotate(90 640 80)">tapenade</text>
  <text x="675" y="80" fill="white" font-family="sans-serif" font-weight="bold" font-size="12" text-anchor="end" dominant-baseline="middle" transform="rotate(90 675 80)">tensorflow</text>
  <text x="710" y="80" fill="white" font-family="sans-serif" font-weight="bold" font-size="12" text-anchor="end" dominant-baseline="middle" transform="rotate(90 710 80)">zygote</text>
  <rect x="65" y="85" width="30" height="30" fill="hsl(240 100% 81.12776121017464%)" />
  <rect x="100" y="85" width="30" height="30" fill="hsl(240 100% 82.89867303423262%)" />
  <rect x="135" y="85" width="30" height="30" fill="hsl(240 100% 97.97717437102551%)" />
  <rect x="170" y="85" width="30" height="30" fill="hsl(240 100% 82.79666556958941%)" />
  <rect x="205" y="85" width="30" height="30" fill="hsl(240 100% 98.99903094501633%)" />
  <rect x="240" y="85" width="30" height="30" fill="hsl(240 100% 51.59922781350921%)" />
  <rect x="310" y="85" width="30" height="30" fill="hsl(240 100% 93.27532871418478%)" />
  <rect x="380" y="85" width="30" height="30" fill="hsl(240 100% 68.09588469884086%)" />
  <rect x="485" y="85" width="30" height="30" fill="hsl(240 100% 50%)" />
  <rect x="555" y="85" width="30" height="30" fill="rgb(255 255 255 / 50%)" />
  <rect x="625" y="85" width="30" height="30" fill="hsl(240 100% 74.87842146876349%)" />
  <rect x="660" y="85" width="30" height="30" fill="rgb(255 255 255 / 50%)" />
  <rect x="695" y="85" width="30" height="30" fill="hsl(240 100% 99.7225231697427%)" />
  <rect x="65" y="120" width="30" height="30" fill="hsl(240 100% 50%)" />
  <rect x="100" y="120" width="30" height="30" fill="hsl(240 100% 83.15996219145678%)" />
  <rect x="135" y="120" width="30" height="30" fill="hsl(240 100% 86.01180804868342%)" />
  <rect x="170" y="120" width="30" height="30" fill="hsl(240 100% 51.90093948918374%)" />
  <rect x="205" y="120" width="30" height="30" fill="hsl(240 100% 92.54337851493982%)" />
  <rect x="240" y="120" width="30" height="30" fill="hsl(240 100% 91.83407621641993%)" />
  <rect x="275" y="120" width="30" height="30" fill="hsl(240 100% 99.36128618847916%)" />
  <rect x="310" y="120" width="30" height="30" fill="hsl(240 100% 99.02351611239781%)" />
  <rect x="380" y="120" width="30" height="30" fill="hsl(240 100% 94.59279075773645%)" />
  <rect x="415" y="120" width="30" height="30" fill="hsl(240 100% 97.94653909888561%)" />
  <rect x="485" y="120" width="30" height="30" fill="hsl(240 100% 79.70857288221922%)" />
  <rect x="695" y="120" width="30" height="30" fill="rgb(255 255 255 / 50%)" />
  <rect x="65" y="155" width="30" height="30" fill="hsl(240 100% 97.07921760022559%)" />
  <rect x="100" y="155" width="30" height="30" fill="hsl(240 100% 98.29170653346394%)" />
  <rect x="135" y="155" width="30" height="30" fill="hsl(240 100% 98.86696314067933%)" />
  <rect x="170" y="155" width="30" height="30" fill="hsl(240 100% 97.28490597155664%)" />
  <rect x="205" y="155" width="30" height="30" fill="hsl(240 100% 99.76847014349111%)" />
  <rect x="240" y="155" width="30" height="30" fill="hsl(240 100% 86.73499943492665%)" />
  <rect x="275" y="155" width="30" height="30" fill="hsl(240 100% 88.18672380034272%)" />
  <rect x="310" y="155" width="30" height="30" fill="rgb(255 255 255 / 50%)" />
  <rect x="380" y="155" width="30" height="30" fill="hsl(240 100% 89.1973367230331%)" />
  <rect x="450" y="155" width="30" height="30" fill="hsl(240 100% 72.70203831767068%)" />
  <rect x="485" y="155" width="30" height="30" fill="hsl(240 100% 72.59182182704109%)" />
  <rect x="520" y="155" width="30" height="30" fill="hsl(240 100% 99.36082330555567%)" />
  <rect x="555" y="155" width="30" height="30" fill="hsl(240 100% 50%)" />
  <rect x="590" y="155" width="30" height="30" fill="hsl(240 100% 92.7490824978149%)" />
  <rect x="625" y="155" width="30" height="30" fill="hsl(240 100% 75.30839310823359%)" />
  <rect x="660" y="155" width="30" height="30" fill="hsl(240 100% 88.47137881314634%)" />
  <rect x="695" y="155" width="30" height="30" fill="hsl(240 100% 96.47252656438232%)" />
  <rect x="65" y="190" width="30" height="30" fill="hsl(240 100% 50%)" />
  <rect x="100" y="190" width="30" height="30" fill="hsl(240 100% 50%)" />
  <rect x="135" y="190" width="30" height="30" fill="hsl(240 100% 50%)" />
  <rect x="170" y="190" width="30" height="30" fill="hsl(240 100% 50%)" />
  <rect x="205" y="190" width="30" height="30" fill="hsl(240 100% 50%)" />
  <rect x="240" y="190" width="30" height="30" fill="hsl(240 100% 50%)" />
  <rect x="275" y="190" width="30" height="30" fill="hsl(240 100% 50%)" />
  <rect x="310" y="190" width="30" height="30" fill="hsl(240 100% 50%)" />
  <rect x="345" y="190" width="30" height="30" fill="hsl(240 100% 50%)" />
  <rect x="380" y="190" width="30" height="30" fill="hsl(240 100% 50%)" />
  <rect x="415" y="190" width="30" height="30" fill="hsl(240 100% 50%)" />
  <rect x="450" y="190" width="30" height="30" fill="hsl(240 100% 50%)" />
  <rect x="485" y="190" width="30" height="30" fill="hsl(240 100% 50%)" />
  <rect x="520" y="190" width="30" height="30" fill="hsl(240 100% 50%)" />
  <rect x="555" y="190" width="30" height="30" fill="hsl(240 100% 50%)" />
  <rect x="590" y="190" width="30" height="30" fill="hsl(240 100% 50%)" />
  <rect x="625" y="190" width="30" height="30" fill="hsl(240 100% 50%)" />
  <rect x="660" y="190" width="30" height="30" fill="hsl(240 100% 50%)" />
  <rect x="695" y="190" width="30" height="30" fill="hsl(240 100% 50%)" />
  <rect x="100" y="225" width="30" height="30" fill="hsl(240 100% 96.76676308781384%)" />
  <rect x="135" y="225" width="30" height="30" fill="hsl(240 100% 89.36737965793904%)" />
  <rect x="170" y="225" width="30" height="30" fill="hsl(240 100% 89.6523617704294%)" />
  <rect x="240" y="225" width="30" height="30" fill="hsl(240 100% 91.54219224674041%)" />
  <rect x="310" y="225" width="30" height="30" fill="rgb(255 255 255 / 50%)" />
  <rect x="380" y="225" width="30" height="30" fill="hsl(240 100% 90.82298839239927%)" />
  <rect x="485" y="225" width="30" height="30" fill="hsl(240 100% 50%)" />
  <rect x="555" y="225" width="30" height="30" fill="rgb(255 255 255 / 50%)" />
  <rect x="625" y="225" width="30" height="30" fill="hsl(240 100% 93.38032957674233%)" />
  <rect x="660" y="225" width="30" height="30" fill="rgb(255 255 255 / 50%)" />
  <rect x="695" y="225" width="30" height="30" fill="hsl(240 100% 95.04369264513196%)" />
  <rect x="65" y="260" width="30" height="30" fill="hsl(240 100% 99.93293895284224%)" />
  <rect x="135" y="260" width="30" height="30" fill="hsl(240 100% 99.91671361459898%)" />
  <rect x="170" y="260" width="30" height="30" fill="hsl(240 100% 98.996541267075%)" />
  <rect x="205" y="260" width="30" height="30" fill="rgb(255 255 255 / 50%)" />
  <rect x="240" y="260" width="30" height="30" fill="hsl(240 100% 87.13266450915424%)" />
  <rect x="310" y="260" width="30" height="30" fill="rgb(255 255 255 / 50%)" />
  <rect x="380" y="260" width="30" height="30" fill="hsl(240 100% 81.10358298245929%)" />
  <rect x="415" y="260" width="30" height="30" fill="rgb(255 255 255 / 50%)" />
  <rect x="450" y="260" width="30" height="30" fill="hsl(240 100% 50%)" />
  <rect x="485" y="260" width="30" height="30" fill="hsl(240 100% 71.39667150607453%)" />
  <rect x="555" y="260" width="30" height="30" fill="hsl(240 100% 97.02567222411751%)" />
  <rect x="590" y="260" width="30" height="30" fill="hsl(240 100% 94.0539224487002%)" />
  <rect x="65" y="295" width="30" height="30" fill="hsl(240 100% 86.05797739085506%)" />
  <rect x="100" y="295" width="30" height="30" fill="hsl(240 100% 97.51232930877373%)" />
  <rect x="135" y="295" width="30" height="30" fill="hsl(240 100% 95.07355367335464%)" />
  <rect x="170" y="295" width="30" height="30" fill="hsl(240 100% 90.55183978453101%)" />
  <rect x="205" y="295" width="30" height="30" fill="hsl(240 100% 99.46328927115658%)" />
  <rect x="240" y="295" width="30" height="30" fill="hsl(240 100% 50%)" />
  <rect x="275" y="295" width="30" height="30" fill="hsl(240 100% 50.07599879663234%)" />
  <rect x="310" y="295" width="30" height="30" fill="hsl(240 100% 99.49360512652169%)" />
  <rect x="345" y="295" width="30" height="30" fill="hsl(240 100% 94.65410937601972%)" />
  <rect x="380" y="295" width="30" height="30" fill="hsl(240 100% 54.70628528638924%)" />
  <rect x="415" y="295" width="30" height="30" fill="hsl(240 100% 99.3129790490342%)" />
  <rect x="450" y="295" width="30" height="30" fill="hsl(240 100% 88.30710048815915%)" />
  <rect x="485" y="295" width="30" height="30" fill="hsl(240 100% 57.35691864369175%)" />
  <rect x="590" y="295" width="30" height="30" fill="hsl(240 100% 97.57825068997576%)" />
  <rect x="695" y="295" width="30" height="30" fill="hsl(240 100% 99.95725235772542%)" />
  <rect x="65" y="330" width="30" height="30" fill="hsl(240 100% 88.31290730492917%)" />
  <rect x="100" y="330" width="30" height="30" fill="hsl(240 100% 94.92214763082018%)" />
  <rect x="135" y="330" width="30" height="30" fill="hsl(240 100% 97.23282770829302%)" />
  <rect x="170" y="330" width="30" height="30" fill="hsl(240 100% 87.97303670890464%)" />
  <rect x="205" y="330" width="30" height="30" fill="hsl(240 100% 99.25041607318543%)" />
  <rect x="240" y="330" width="30" height="30" fill="hsl(240 100% 79.21849363143906%)" />
  <rect x="275" y="330" width="30" height="30" fill="hsl(240 100% 88.8471059163272%)" />
  <rect x="310" y="330" width="30" height="30" fill="rgb(255 255 255 / 50%)" />
  <rect x="345" y="330" width="30" height="30" fill="hsl(240 100% 97.45329640765024%)" />
  <rect x="380" y="330" width="30" height="30" fill="hsl(240 100% 86.42574675224427%)" />
  <rect x="415" y="330" width="30" height="30" fill="hsl(240 100% 99.82755570464039%)" />
  <rect x="450" y="330" width="30" height="30" fill="hsl(240 100% 73.28020067682488%)" />
  <rect x="485" y="330" width="30" height="30" fill="hsl(240 100% 74.56998051940502%)" />
  <rect x="520" y="330" width="30" height="30" fill="hsl(240 100% 93.94747413702417%)" />
  <rect x="555" y="330" width="30" height="30" fill="hsl(240 100% 50%)" />
  <rect x="660" y="330" width="30" height="30" fill="hsl(240 100% 94.66686364739822%)" />
  <rect x="695" y="330" width="30" height="30" fill="hsl(240 100% 79.96635368914109%)" />
  <rect x="65" y="365" width="30" height="30" fill="hsl(240 100% 57.40259783669491%)" />
  <rect x="100" y="365" width="30" height="30" fill="hsl(240 100% 71.89896845463565%)" />
  <rect x="135" y="365" width="30" height="30" fill="hsl(240 100% 82.28039453707075%)" />
  <rect x="170" y="365" width="30" height="30" fill="hsl(240 100% 50%)" />
  <rect x="205" y="365" width="30" height="30" fill="hsl(240 100% 96.27000404449262%)" />
  <rect x="240" y="365" width="30" height="30" fill="hsl(240 100% 58.7839538825987%)" />
  <rect x="275" y="365" width="30" height="30" fill="hsl(240 100% 92.07793646043862%)" />
  <rect x="310" y="365" width="30" height="30" fill="hsl(240 100% 99.86174443479368%)" />
  <rect x="380" y="365" width="30" height="30" fill="hsl(240 100% 66.38790227067591%)" />
  <rect x="485" y="365" width="30" height="30" fill="hsl(240 100% 85.95646315827193%)" />
  <rect x="555" y="365" width="30" height="30" fill="hsl(240 100% 99.62838969144413%)" />
  <rect x="625" y="365" width="30" height="30" fill="hsl(240 100% 63.7313131172857%)" />
  <rect x="660" y="365" width="30" height="30" fill="hsl(240 100% 98.12538772881135%)" />
  <rect x="695" y="365" width="30" height="30" fill="hsl(240 100% 98.75536532514825%)" />
  <rect x="65" y="400" width="30" height="30" fill="hsl(240 100% 97.59326431613887%)" />
  <rect x="100" y="400" width="30" height="30" fill="hsl(240 100% 99.24837108467155%)" />
  <rect x="135" y="400" width="30" height="30" fill="hsl(240 100% 99.57508192023762%)" />
  <rect x="170" y="400" width="30" height="30" fill="hsl(240 100% 93.83949208095235%)" />
  <rect x="205" y="400" width="30" height="30" fill="hsl(240 100% 98.9898806875751%)" />
  <rect x="240" y="400" width="30" height="30" fill="hsl(240 100% 81.602298634949%)" />
  <rect x="275" y="400" width="30" height="30" fill="hsl(240 100% 93.80414976638704%)" />
  <rect x="310" y="400" width="30" height="30" fill="rgb(255 255 255 / 50%)" />
  <rect x="380" y="400" width="30" height="30" fill="hsl(240 100% 92.19513271403088%)" />
  <rect x="415" y="400" width="30" height="30" fill="hsl(240 100% 99.96677537255857%)" />
  <rect x="450" y="400" width="30" height="30" fill="hsl(240 100% 72.17839746551367%)" />
  <rect x="485" y="400" width="30" height="30" fill="hsl(240 100% 50%)" />
  <rect x="695" y="400" width="30" height="30" fill="hsl(240 100% 98.67816455415745%)" />
  <rect x="65" y="435" width="30" height="30" fill="hsl(240 100% 92.82824491800119%)" />
  <rect x="240" y="435" width="30" height="30" fill="hsl(240 100% 50%)" />
  <rect x="310" y="435" width="30" height="30" fill="hsl(240 100% 94.16297670354541%)" />
  <rect x="380" y="435" width="30" height="30" fill="hsl(240 100% 87.02293094814178%)" />
  <rect x="415" y="435" width="30" height="30" fill="hsl(240 100% 99.78976897429118%)" />
  <rect x="65" y="470" width="30" height="30" fill="hsl(240 100% 50%)" />
  <rect x="240" y="470" width="30" height="30" fill="hsl(240 100% 50.094920073670444%)" />
  <rect x="310" y="470" width="30" height="30" fill="hsl(240 100% 97.15672974800003%)" />
  <rect x="380" y="470" width="30" height="30" fill="hsl(240 100% 89.10106714181673%)" />
  <rect x="415" y="470" width="30" height="30" fill="hsl(240 100% 99.5733166468007%)" />
</svg>
