<svg xmlns="http://www.w3.org/2000/svg" viewBox="0 0 660 470">
  <rect x="0" y="0" width="660" height="470" rx="5" ry="5" fill="#222" />
  <text x="60" y="100" fill="white" font-family="sans-serif" font-weight="bold" font-size="12" text-anchor="end" dominant-baseline="middle">ba</text>
  <text x="60" y="135" fill="white" font-family="sans-serif" font-weight="bold" font-size="12" text-anchor="end" dominant-baseline="middle">det</text>
  <text x="60" y="170" fill="white" font-family="sans-serif" font-weight="bold" font-size="12" text-anchor="end" dominant-baseline="middle">gmm</text>
  <text x="60" y="205" fill="white" font-family="sans-serif" font-weight="bold" font-size="12" text-anchor="end" dominant-baseline="middle">hello</text>
  <text x="60" y="240" fill="white" font-family="sans-serif" font-weight="bold" font-size="12" text-anchor="end" dominant-baseline="middle">ht</text>
  <text x="60" y="275" fill="white" font-family="sans-serif" font-weight="bold" font-size="12" text-anchor="end" dominant-baseline="middle">kmeans</text>
  <text x="60" y="310" fill="white" font-family="sans-serif" font-weight="bold" font-size="12" text-anchor="end" dominant-baseline="middle">llsq</text>
  <text x="60" y="345" fill="white" font-family="sans-serif" font-weight="bold" font-size="12" text-anchor="end" dominant-baseline="middle">lstm</text>
  <text x="60" y="380" fill="white" font-family="sans-serif" font-weight="bold" font-size="12" text-anchor="end" dominant-baseline="middle">ode</text>
  <text x="60" y="415" fill="white" font-family="sans-serif" font-weight="bold" font-size="12" text-anchor="end" dominant-baseline="middle">particle</text>
  <text x="60" y="450" fill="white" font-family="sans-serif" font-weight="bold" font-size="12" text-anchor="end" dominant-baseline="middle">saddle</text>
  <text x="80" y="80" fill="white" font-family="sans-serif" font-weight="bold" font-size="12" text-anchor="end" dominant-baseline="middle" transform="rotate(90 80 80)">adept</text>
  <text x="115" y="80" fill="white" font-family="sans-serif" font-weight="bold" font-size="12" text-anchor="end" dominant-baseline="middle" transform="rotate(90 115 80)">adol-c</text>
  <text x="150" y="80" fill="white" font-family="sans-serif" font-weight="bold" font-size="12" text-anchor="end" dominant-baseline="middle" transform="rotate(90 150 80)">codipack</text>
  <text x="185" y="80" fill="white" font-family="sans-serif" font-weight="bold" font-size="12" text-anchor="end" dominant-baseline="middle" transform="rotate(90 185 80)">cppad</text>
  <text x="220" y="80" fill="white" font-family="sans-serif" font-weight="bold" font-size="12" text-anchor="end" dominant-baseline="middle" transform="rotate(90 220 80)">enzyme</text>
  <text x="255" y="80" fill="white" font-family="sans-serif" font-weight="bold" font-size="12" text-anchor="end" dominant-baseline="middle" transform="rotate(90 255 80)">finite</text>
  <text x="290" y="80" fill="white" font-family="sans-serif" font-weight="bold" font-size="12" text-anchor="end" dominant-baseline="middle" transform="rotate(90 290 80)">floretta</text>
  <text x="325" y="80" fill="white" font-family="sans-serif" font-weight="bold" font-size="12" text-anchor="end" dominant-baseline="middle" transform="rotate(90 325 80)">futhark</text>
  <text x="360" y="80" fill="white" font-family="sans-serif" font-weight="bold" font-size="12" text-anchor="end" dominant-baseline="middle" transform="rotate(90 360 80)">haskell</text>
  <text x="395" y="80" fill="white" font-family="sans-serif" font-weight="bold" font-size="12" text-anchor="end" dominant-baseline="middle" transform="rotate(90 395 80)">jax</text>
  <text x="430" y="80" fill="white" font-family="sans-serif" font-weight="bold" font-size="12" text-anchor="end" dominant-baseline="middle" transform="rotate(90 430 80)">manual</text>
  <text x="465" y="80" fill="white" font-family="sans-serif" font-weight="bold" font-size="12" text-anchor="end" dominant-baseline="middle" transform="rotate(90 465 80)">ocaml</text>
  <text x="500" y="80" fill="white" font-family="sans-serif" font-weight="bold" font-size="12" text-anchor="end" dominant-baseline="middle" transform="rotate(90 500 80)">pytorch</text>
  <text x="535" y="80" fill="white" font-family="sans-serif" font-weight="bold" font-size="12" text-anchor="end" dominant-baseline="middle" transform="rotate(90 535 80)">scilean</text>
  <text x="570" y="80" fill="white" font-family="sans-serif" font-weight="bold" font-size="12" text-anchor="end" dominant-baseline="middle" transform="rotate(90 570 80)">tapenade</text>
  <text x="605" y="80" fill="white" font-family="sans-serif" font-weight="bold" font-size="12" text-anchor="end" dominant-baseline="middle" transform="rotate(90 605 80)">tensorflow</text>
  <text x="640" y="80" fill="white" font-family="sans-serif" font-weight="bold" font-size="12" text-anchor="end" dominant-baseline="middle" transform="rotate(90 640 80)">zygote</text>
  <rect x="65" y="85" width="30" height="30" fill="hsl(240 100% 83.31770161318678%)" />
  <rect x="100" y="85" width="30" height="30" fill="hsl(240 100% 97.78261801456446%)" />
  <rect x="135" y="85" width="30" height="30" fill="hsl(240 100% 89.20101416103469%)" />
  <rect x="205" y="85" width="30" height="30" fill="hsl(240 100% 50%)" />
  <rect x="240" y="85" width="30" height="30" fill="hsl(240 100% 92.51023220183633%)" />
  <rect x="310" y="85" width="30" height="30" fill="hsl(240 100% 67.93783533074438%)" />
  <rect x="415" y="85" width="30" height="30" fill="hsl(240 100% 51.53697891954124%)" />
  <rect x="485" y="85" width="30" height="30" fill="rgb(255 255 255 / 50%)" />
  <rect x="555" y="85" width="30" height="30" fill="hsl(240 100% 72.25216486168284%)" />
  <rect x="590" y="85" width="30" height="30" fill="rgb(255 255 255 / 50%)" />
  <rect x="65" y="120" width="30" height="30" fill="hsl(240 100% 89.46339661494011%)" />
  <rect x="100" y="120" width="30" height="30" fill="hsl(240 100% 90.30873529112776%)" />
  <rect x="135" y="120" width="30" height="30" fill="hsl(240 100% 66.92315628049823%)" />
  <rect x="170" y="120" width="30" height="30" fill="hsl(240 100% 50%)" />
  <rect x="205" y="120" width="30" height="30" fill="hsl(240 100% 94.499608477923%)" />
  <rect x="240" y="120" width="30" height="30" fill="hsl(240 100% 99.33215220601672%)" />
  <rect x="310" y="120" width="30" height="30" fill="hsl(240 100% 96.52063776252038%)" />
  <rect x="345" y="120" width="30" height="30" fill="hsl(240 100% 98.6382619569139%)" />
  <rect x="415" y="120" width="30" height="30" fill="hsl(240 100% 86.54106032518015%)" />
  <rect x="65" y="155" width="30" height="30" fill="hsl(240 100% 98.36796759561261%)" />
  <rect x="100" y="155" width="30" height="30" fill="hsl(240 100% 98.84611365015562%)" />
  <rect x="135" y="155" width="30" height="30" fill="hsl(240 100% 97.34312364361136%)" />
  <rect x="170" y="155" width="30" height="30" fill="rgb(255 255 255 / 50%)" />
  <rect x="205" y="155" width="30" height="30" fill="hsl(240 100% 87.19463847836832%)" />
  <rect x="240" y="155" width="30" height="30" fill="rgb(255 255 255 / 50%)" />
  <rect x="310" y="155" width="30" height="30" fill="hsl(240 100% 90.29774815834467%)" />
  <rect x="380" y="155" width="30" height="30" fill="hsl(240 100% 70.4118389286269%)" />
  <rect x="415" y="155" width="30" height="30" fill="hsl(240 100% 76.1380196476719%)" />
  <rect x="450" y="155" width="30" height="30" fill="hsl(240 100% 99.38136924321%)" />
  <rect x="485" y="155" width="30" height="30" fill="hsl(240 100% 50%)" />
  <rect x="520" y="155" width="30" height="30" fill="hsl(240 100% 93.48640257988825%)" />
  <rect x="555" y="155" width="30" height="30" fill="hsl(240 100% 76.97487985340598%)" />
  <rect x="590" y="155" width="30" height="30" fill="hsl(240 100% 89.05638203911033%)" />
  <rect x="65" y="190" width="30" height="30" fill="hsl(240 100% 50%)" />
  <rect x="100" y="190" width="30" height="30" fill="hsl(240 100% 50%)" />
  <rect x="135" y="190" width="30" height="30" fill="hsl(240 100% 50%)" />
  <rect x="170" y="190" width="30" height="30" fill="hsl(240 100% 50%)" />
  <rect x="205" y="190" width="30" height="30" fill="hsl(240 100% 50%)" />
  <rect x="240" y="190" width="30" height="30" fill="hsl(240 100% 50%)" />
  <rect x="275" y="190" width="30" height="30" fill="hsl(240 100% 50%)" />
  <rect x="310" y="190" width="30" height="30" fill="hsl(240 100% 50%)" />
  <rect x="345" y="190" width="30" height="30" fill="hsl(240 100% 50%)" />
  <rect x="380" y="190" width="30" height="30" fill="hsl(240 100% 50%)" />
  <rect x="415" y="190" width="30" height="30" fill="hsl(240 100% 50%)" />
  <rect x="450" y="190" width="30" height="30" fill="hsl(240 100% 50%)" />
  <rect x="485" y="190" width="30" height="30" fill="hsl(240 100% 50%)" />
  <rect x="520" y="190" width="30" height="30" fill="hsl(240 100% 50%)" />
  <rect x="555" y="190" width="30" height="30" fill="hsl(240 100% 50%)" />
  <rect x="590" y="190" width="30" height="30" fill="hsl(240 100% 50%)" />
  <rect x="625" y="190" width="30" height="30" fill="hsl(240 100% 50%)" />
  <rect x="65" y="225" width="30" height="30" fill="hsl(240 100% 96.08708976686766%)" />
  <rect x="100" y="225" width="30" height="30" fill="hsl(240 100% 96.32538203259033%)" />
  <rect x="135" y="225" width="30" height="30" fill="hsl(240 100% 88.43099162435323%)" />
  <rect x="205" y="225" width="30" height="30" fill="hsl(240 100% 90.36330451127354%)" />
  <rect x="240" y="225" width="30" height="30" fill="rgb(255 255 255 / 50%)" />
  <rect x="310" y="225" width="30" height="30" fill="hsl(240 100% 89.68114573870635%)" />
  <rect x="415" y="225" width="30" height="30" fill="hsl(240 100% 50%)" />
  <rect x="485" y="225" width="30" height="30" fill="rgb(255 255 255 / 50%)" />
  <rect x="555" y="225" width="30" height="30" fill="rgb(255 255 255 / 50%)" />
  <rect x="590" y="225" width="30" height="30" fill="rgb(255 255 255 / 50%)" />
  <rect x="100" y="260" width="30" height="30" fill="hsl(240 100% 99.87491676469783%)" />
  <rect x="135" y="260" width="30" height="30" fill="hsl(240 100% 99.39556052148595%)" />
  <rect x="170" y="260" width="30" height="30" fill="rgb(255 255 255 / 50%)" />
  <rect x="205" y="260" width="30" height="30" fill="hsl(240 100% 87.63683695946455%)" />
  <rect x="240" y="260" width="30" height="30" fill="rgb(255 255 255 / 50%)" />
  <rect x="310" y="260" width="30" height="30" fill="hsl(240 100% 82.58251129995006%)" />
  <rect x="345" y="260" width="30" height="30" fill="rgb(255 255 255 / 50%)" />
  <rect x="380" y="260" width="30" height="30" fill="hsl(240 100% 50%)" />
  <rect x="415" y="260" width="30" height="30" fill="hsl(240 100% 75.92456068413206%)" />
  <rect x="485" y="260" width="30" height="30" fill="hsl(240 100% 96.92300016998834%)" />
  <rect x="520" y="260" width="30" height="30" fill="hsl(240 100% 94.04962822383%)" />
  <rect x="65" y="295" width="30" height="30" fill="hsl(240 100% 66.59318245860592%)" />
  <rect x="100" y="295" width="30" height="30" fill="hsl(240 100% 59.44314074166764%)" />
  <rect x="135" y="295" width="30" height="30" fill="hsl(240 100% 60.01648370158996%)" />
  <rect x="170" y="295" width="30" height="30" fill="hsl(240 100% 56.897368785310775%)" />
  <rect x="205" y="295" width="30" height="30" fill="hsl(240 100% 50%)" />
  <rect x="240" y="295" width="30" height="30" fill="hsl(240 100% 99.42695582723915%)" />
  <rect x="310" y="295" width="30" height="30" fill="hsl(240 100% 50.51229861484297%)" />
  <rect x="345" y="295" width="30" height="30" fill="hsl(240 100% 89.36521377330617%)" />
  <rect x="415" y="295" width="30" height="30" fill="hsl(240 100% 53.42303015366897%)" />
  <rect x="65" y="330" width="30" height="30" fill="hsl(240 100% 68.86859926373104%)" />
  <rect x="100" y="330" width="30" height="30" fill="hsl(240 100% 80.49049759435134%)" />
  <rect x="135" y="330" width="30" height="30" fill="hsl(240 100% 50%)" />
  <rect x="170" y="330" width="30" height="30" fill="hsl(240 100% 89.7514085243674%)" />
  <rect x="205" y="330" width="30" height="30" fill="hsl(240 100% 50.63332025950662%)" />
  <rect x="240" y="330" width="30" height="30" fill="hsl(240 100% 99.85225762082334%)" />
  <rect x="310" y="330" width="30" height="30" fill="hsl(240 100% 63.495831697001904%)" />
  <rect x="415" y="330" width="30" height="30" fill="hsl(240 100% 84.66462200768045%)" />
  <rect x="485" y="330" width="30" height="30" fill="hsl(240 100% 99.60395620737782%)" />
  <rect x="520" y="330" width="30" height="30" fill="hsl(240 100% 89.54264765566435%)" />
  <rect x="555" y="330" width="30" height="30" fill="hsl(240 100% 60.039211062629334%)" />
  <rect x="590" y="330" width="30" height="30" fill="hsl(240 100% 97.99699325980606%)" />
  <rect x="65" y="365" width="30" height="30" fill="hsl(240 100% 99.31713320700868%)" />
  <rect x="100" y="365" width="30" height="30" fill="hsl(240 100% 99.62614882252211%)" />
  <rect x="135" y="365" width="30" height="30" fill="hsl(240 100% 94.47562336673012%)" />
  <rect x="170" y="365" width="30" height="30" fill="hsl(240 100% 55.839868985882354%)" />
  <rect x="205" y="365" width="30" height="30" fill="hsl(240 100% 87.63704917516807%)" />
  <rect x="240" y="365" width="30" height="30" fill="rgb(255 255 255 / 50%)" />
  <rect x="310" y="365" width="30" height="30" fill="hsl(240 100% 96.04284518618921%)" />
  <rect x="345" y="365" width="30" height="30" fill="hsl(240 100% 99.96856234416933%)" />
  <rect x="415" y="365" width="30" height="30" fill="hsl(240 100% 50%)" />
  <rect x="205" y="400" width="30" height="30" fill="hsl(240 100% 50%)" />
  <rect x="240" y="400" width="30" height="30" fill="hsl(240 100% 50%)" />
  <rect x="310" y="400" width="30" height="30" fill="hsl(240 100% 50%)" />
  <rect x="345" y="400" width="30" height="30" fill="hsl(240 100% 50%)" />
  <rect x="205" y="435" width="30" height="30" fill="hsl(240 100% 50%)" />
  <rect x="240" y="435" width="30" height="30" fill="hsl(240 100% 50%)" />
  <rect x="310" y="435" width="30" height="30" fill="hsl(240 100% 50%)" />
  <rect x="345" y="435" width="30" height="30" fill="hsl(240 100% 50%)" />
</svg>
