<svg xmlns="http://www.w3.org/2000/svg" viewBox="0 0 870 505">
  <rect x="0" y="0" width="870" height="505" rx="5" ry="5" fill="#222" />
  <text x="60" y="100" fill="white" font-family="sans-serif" font-weight="bold" font-size="12" text-anchor="end" dominant-baseline="middle">ba</text>
  <text x="60" y="135" fill="white" font-family="sans-serif" font-weight="bold" font-size="12" text-anchor="end" dominant-baseline="middle">det</text>
  <text x="60" y="170" fill="white" font-family="sans-serif" font-weight="bold" font-size="12" text-anchor="end" dominant-baseline="middle">gmm</text>
  <text x="60" y="205" fill="white" font-family="sans-serif" font-weight="bold" font-size="12" text-anchor="end" dominant-baseline="middle">hello</text>
  <text x="60" y="240" fill="white" font-family="sans-serif" font-weight="bold" font-size="12" text-anchor="end" dominant-baseline="middle">ht</text>
  <text x="60" y="275" fill="white" font-family="sans-serif" font-weight="bold" font-size="12" text-anchor="end" dominant-baseline="middle">kmeans</text>
  <text x="60" y="310" fill="white" font-family="sans-serif" font-weight="bold" font-size="12" text-anchor="end" dominant-baseline="middle">llsq</text>
  <text x="60" y="345" fill="white" font-family="sans-serif" font-weight="bold" font-size="12" text-anchor="end" dominant-baseline="middle">lse</text>
  <text x="60" y="380" fill="white" font-family="sans-serif" font-weight="bold" font-size="12" text-anchor="end" dominant-baseline="middle">lstm</text>
  <text x="60" y="415" fill="white" font-family="sans-serif" font-weight="bold" font-size="12" text-anchor="end" dominant-baseline="middle">ode</text>
  <text x="60" y="450" fill="white" font-family="sans-serif" font-weight="bold" font-size="12" text-anchor="end" dominant-baseline="middle">particle</text>
  <text x="60" y="485" fill="white" font-family="sans-serif" font-weight="bold" font-size="12" text-anchor="end" dominant-baseline="middle">saddle</text>
  <text x="80" y="80" fill="white" font-family="sans-serif" font-weight="bold" font-size="12" text-anchor="end" dominant-baseline="middle" transform="rotate(90 80 80)">ad-hpp</text>
  <text x="115" y="80" fill="white" font-family="sans-serif" font-weight="bold" font-size="12" text-anchor="end" dominant-baseline="middle" transform="rotate(90 115 80)">adept</text>
  <text x="150" y="80" fill="white" font-family="sans-serif" font-weight="bold" font-size="12" text-anchor="end" dominant-baseline="middle" transform="rotate(90 150 80)">adol-c</text>
  <text x="185" y="80" fill="white" font-family="sans-serif" font-weight="bold" font-size="12" text-anchor="end" dominant-baseline="middle" transform="rotate(90 185 80)">codipack</text>
  <text x="220" y="80" fill="white" font-family="sans-serif" font-weight="bold" font-size="12" text-anchor="end" dominant-baseline="middle" transform="rotate(90 220 80)">cppad</text>
  <text x="255" y="80" fill="white" font-family="sans-serif" font-weight="bold" font-size="12" text-anchor="end" dominant-baseline="middle" transform="rotate(90 255 80)">enzyme</text>
  <text x="290" y="80" fill="white" font-family="sans-serif" font-weight="bold" font-size="12" text-anchor="end" dominant-baseline="middle" transform="rotate(90 290 80)">enzyme-jl</text>
  <text x="325" y="80" fill="white" font-family="sans-serif" font-weight="bold" font-size="12" text-anchor="end" dominant-baseline="middle" transform="rotate(90 325 80)">finite</text>
  <text x="360" y="80" fill="white" font-family="sans-serif" font-weight="bold" font-size="12" text-anchor="end" dominant-baseline="middle" transform="rotate(90 360 80)">floretta</text>
  <text x="395" y="80" fill="white" font-family="sans-serif" font-weight="bold" font-size="12" text-anchor="end" dominant-baseline="middle" transform="rotate(90 395 80)">forwarddiff-jl</text>
  <text x="430" y="80" fill="white" font-family="sans-serif" font-weight="bold" font-size="12" text-anchor="end" dominant-baseline="middle" transform="rotate(90 430 80)">futhark</text>
  <text x="465" y="80" fill="white" font-family="sans-serif" font-weight="bold" font-size="12" text-anchor="end" dominant-baseline="middle" transform="rotate(90 465 80)">haskell</text>
  <text x="500" y="80" fill="white" font-family="sans-serif" font-weight="bold" font-size="12" text-anchor="end" dominant-baseline="middle" transform="rotate(90 500 80)">jax</text>
  <text x="535" y="80" fill="white" font-family="sans-serif" font-weight="bold" font-size="12" text-anchor="end" dominant-baseline="middle" transform="rotate(90 535 80)">manual</text>
  <text x="570" y="80" fill="white" font-family="sans-serif" font-weight="bold" font-size="12" text-anchor="end" dominant-baseline="middle" transform="rotate(90 570 80)">mooncake-jl</text>
  <text x="605" y="80" fill="white" font-family="sans-serif" font-weight="bold" font-size="12" text-anchor="end" dominant-baseline="middle" transform="rotate(90 605 80)">ocaml</text>
  <text x="640" y="80" fill="white" font-family="sans-serif" font-weight="bold" font-size="12" text-anchor="end" dominant-baseline="middle" transform="rotate(90 640 80)">pytorch</text>
  <text x="675" y="80" fill="white" font-family="sans-serif" font-weight="bold" font-size="12" text-anchor="end" dominant-baseline="middle" transform="rotate(90 675 80)">reversediff-jl</text>
  <text x="710" y="80" fill="white" font-family="sans-serif" font-weight="bold" font-size="12" text-anchor="end" dominant-baseline="middle" transform="rotate(90 710 80)">scilean</text>
  <text x="745" y="80" fill="white" font-family="sans-serif" font-weight="bold" font-size="12" text-anchor="end" dominant-baseline="middle" transform="rotate(90 745 80)">tapenade</text>
  <text x="780" y="80" fill="white" font-family="sans-serif" font-weight="bold" font-size="12" text-anchor="end" dominant-baseline="middle" transform="rotate(90 780 80)">tensorflow</text>
  <text x="815" y="80" fill="white" font-family="sans-serif" font-weight="bold" font-size="12" text-anchor="end" dominant-baseline="middle" transform="rotate(90 815 80)">tensorflow-js</text>
  <text x="850" y="80" fill="white" font-family="sans-serif" font-weight="bold" font-size="12" text-anchor="end" dominant-baseline="middle" transform="rotate(90 850 80)">zygote</text>
  <rect x="65" y="85" width="30" height="30" fill="hsl(240 100% 80.70630797433526%)" />
  <rect x="100" y="85" width="30" height="30" fill="hsl(240 100% 82.5873868996625%)" />
  <rect x="135" y="85" width="30" height="30" fill="hsl(240 100% 97.94114461266774%)" />
  <rect x="170" y="85" width="30" height="30" fill="hsl(240 100% 81.86573463330559%)" />
  <rect x="205" y="85" width="30" height="30" fill="hsl(240 100% 98.94808986862726%)" />
  <rect x="240" y="85" width="30" height="30" fill="hsl(240 100% 50%)" />
  <rect x="310" y="85" width="30" height="30" fill="hsl(240 100% 92.8957823965954%)" />
  <rect x="415" y="85" width="30" height="30" fill="hsl(240 100% 67.00628750144662%)" />
  <rect x="520" y="85" width="30" height="30" fill="hsl(240 100% 54.302944456719636%)" />
  <rect x="625" y="85" width="30" height="30" fill="rgb(255 255 255 / 50%)" />
  <rect x="730" y="85" width="30" height="30" fill="hsl(240 100% 74.03157994563371%)" />
  <rect x="765" y="85" width="30" height="30" fill="rgb(255 255 255 / 50%)" />
  <rect x="835" y="85" width="30" height="30" fill="hsl(240 100% 99.72739768628044%)" />
  <rect x="65" y="120" width="30" height="30" fill="hsl(240 100% 50%)" />
  <rect x="100" y="120" width="30" height="30" fill="hsl(240 100% 83.00610446226787%)" />
  <rect x="135" y="120" width="30" height="30" fill="hsl(240 100% 85.65637704795088%)" />
  <rect x="170" y="120" width="30" height="30" fill="hsl(240 100% 51.94802735289235%)" />
  <rect x="205" y="120" width="30" height="30" fill="hsl(240 100% 92.62706377214069%)" />
  <rect x="240" y="120" width="30" height="30" fill="hsl(240 100% 91.66535401186235%)" />
  <rect x="275" y="120" width="30" height="30" fill="hsl(240 100% 99.34324086844515%)" />
  <rect x="310" y="120" width="30" height="30" fill="hsl(240 100% 98.99537060888937%)" />
  <rect x="380" y="120" width="30" height="30" fill="hsl(240 100% 93.35919392621237%)" />
  <rect x="415" y="120" width="30" height="30" fill="hsl(240 100% 94.61597989144427%)" />
  <rect x="450" y="120" width="30" height="30" fill="hsl(240 100% 97.83252759383619%)" />
  <rect x="520" y="120" width="30" height="30" fill="hsl(240 100% 79.62004925453583%)" />
  <rect x="555" y="120" width="30" height="30" fill="hsl(240 100% 90.55278894007719%)" />
  <rect x="660" y="120" width="30" height="30" fill="rgb(255 255 255 / 50%)" />
  <rect x="835" y="120" width="30" height="30" fill="rgb(255 255 255 / 50%)" />
  <rect x="65" y="155" width="30" height="30" fill="hsl(240 100% 98.49807752356062%)" />
  <rect x="100" y="155" width="30" height="30" fill="hsl(240 100% 98.7929017983572%)" />
  <rect x="135" y="155" width="30" height="30" fill="hsl(240 100% 99.07660429250382%)" />
  <rect x="170" y="155" width="30" height="30" fill="hsl(240 100% 97.94135833015042%)" />
  <rect x="205" y="155" width="30" height="30" fill="hsl(240 100% 99.8445271784428%)" />
  <rect x="240" y="155" width="30" height="30" fill="hsl(240 100% 90.95367004042257%)" />
  <rect x="275" y="155" width="30" height="30" fill="hsl(240 100% 93.22444622497606%)" />
  <rect x="310" y="155" width="30" height="30" fill="rgb(255 255 255 / 50%)" />
  <rect x="415" y="155" width="30" height="30" fill="hsl(240 100% 92.81987871646464%)" />
  <rect x="485" y="155" width="30" height="30" fill="hsl(240 100% 50%)" />
  <rect x="520" y="155" width="30" height="30" fill="hsl(240 100% 80.68109301243857%)" />
  <rect x="590" y="155" width="30" height="30" fill="hsl(240 100% 99.57564455757523%)" />
  <rect x="625" y="155" width="30" height="30" fill="hsl(240 100% 68.24198463480971%)" />
  <rect x="695" y="155" width="30" height="30" fill="hsl(240 100% 95.01955166051783%)" />
  <rect x="730" y="155" width="30" height="30" fill="hsl(240 100% 83.39327617602875%)" />
  <rect x="765" y="155" width="30" height="30" fill="hsl(240 100% 99.56882036419232%)" />
  <rect x="835" y="155" width="30" height="30" fill="hsl(240 100% 96.47400445802622%)" />
  <rect x="65" y="190" width="30" height="30" fill="hsl(240 100% 50%)" />
  <rect x="100" y="190" width="30" height="30" fill="hsl(240 100% 50%)" />
  <rect x="135" y="190" width="30" height="30" fill="hsl(240 100% 50%)" />
  <rect x="170" y="190" width="30" height="30" fill="hsl(240 100% 50%)" />
  <rect x="205" y="190" width="30" height="30" fill="hsl(240 100% 50%)" />
  <rect x="240" y="190" width="30" height="30" fill="hsl(240 100% 50%)" />
  <rect x="275" y="190" width="30" height="30" fill="hsl(240 100% 50%)" />
  <rect x="310" y="190" width="30" height="30" fill="hsl(240 100% 50%)" />
  <rect x="345" y="190" width="30" height="30" fill="hsl(240 100% 50%)" />
  <rect x="380" y="190" width="30" height="30" fill="hsl(240 100% 50%)" />
  <rect x="415" y="190" width="30" height="30" fill="hsl(240 100% 50%)" />
  <rect x="450" y="190" width="30" height="30" fill="hsl(240 100% 50%)" />
  <rect x="485" y="190" width="30" height="30" fill="hsl(240 100% 50%)" />
  <rect x="520" y="190" width="30" height="30" fill="hsl(240 100% 50%)" />
  <rect x="555" y="190" width="30" height="30" fill="hsl(240 100% 50%)" />
  <rect x="590" y="190" width="30" height="30" fill="hsl(240 100% 50%)" />
  <rect x="625" y="190" width="30" height="30" fill="hsl(240 100% 50%)" />
  <rect x="660" y="190" width="30" height="30" fill="hsl(240 100% 50%)" />
  <rect x="695" y="190" width="30" height="30" fill="hsl(240 100% 50%)" />
  <rect x="730" y="190" width="30" height="30" fill="hsl(240 100% 50%)" />
  <rect x="765" y="190" width="30" height="30" fill="hsl(240 100% 50%)" />
  <rect x="800" y="190" width="30" height="30" fill="hsl(240 100% 50%)" />
  <rect x="835" y="190" width="30" height="30" fill="hsl(240 100% 50%)" />
  <rect x="100" y="225" width="30" height="30" fill="hsl(240 100% 96.34060470854045%)" />
  <rect x="135" y="225" width="30" height="30" fill="hsl(240 100% 86.63387159809534%)" />
  <rect x="170" y="225" width="30" height="30" fill="hsl(240 100% 88.1061670424975%)" />
  <rect x="240" y="225" width="30" height="30" fill="hsl(240 100% 90.43957979740014%)" />
  <rect x="310" y="225" width="30" height="30" fill="rgb(255 255 255 / 50%)" />
  <rect x="415" y="225" width="30" height="30" fill="hsl(240 100% 89.54440972878413%)" />
  <rect x="520" y="225" width="30" height="30" fill="hsl(240 100% 50%)" />
  <rect x="625" y="225" width="30" height="30" fill="rgb(255 255 255 / 50%)" />
  <rect x="730" y="225" width="30" height="30" fill="hsl(240 100% 92.53946268481754%)" />
  <rect x="765" y="225" width="30" height="30" fill="rgb(255 255 255 / 50%)" />
  <rect x="835" y="225" width="30" height="30" fill="hsl(240 100% 93.84666015619419%)" />
  <rect x="65" y="260" width="30" height="30" fill="hsl(240 100% 99.83731700496101%)" />
  <rect x="135" y="260" width="30" height="30" fill="hsl(240 100% 99.84960479845134%)" />
  <rect x="170" y="260" width="30" height="30" fill="hsl(240 100% 98.87753841774546%)" />
  <rect x="205" y="260" width="30" height="30" fill="rgb(255 255 255 / 50%)" />
  <rect x="240" y="260" width="30" height="30" fill="hsl(240 100% 86.7459341840978%)" />
  <rect x="310" y="260" width="30" height="30" fill="rgb(255 255 255 / 50%)" />
  <rect x="415" y="260" width="30" height="30" fill="hsl(240 100% 80.22135090152898%)" />
  <rect x="450" y="260" width="30" height="30" fill="rgb(255 255 255 / 50%)" />
  <rect x="485" y="260" width="30" height="30" fill="hsl(240 100% 50%)" />
  <rect x="520" y="260" width="30" height="30" fill="hsl(240 100% 71.67570759398166%)" />
  <rect x="625" y="260" width="30" height="30" fill="hsl(240 100% 96.9280656271411%)" />
  <rect x="695" y="260" width="30" height="30" fill="hsl(240 100% 93.97475721924621%)" />
  <rect x="65" y="295" width="30" height="30" fill="hsl(240 100% 85.98053324976041%)" />
  <rect x="100" y="295" width="30" height="30" fill="hsl(240 100% 97.4266685415138%)" />
  <rect x="135" y="295" width="30" height="30" fill="hsl(240 100% 95.1167653189752%)" />
  <rect x="170" y="295" width="30" height="30" fill="hsl(240 100% 89.30360168678115%)" />
  <rect x="205" y="295" width="30" height="30" fill="hsl(240 100% 99.48214099881409%)" />
  <rect x="240" y="295" width="30" height="30" fill="hsl(240 100% 50.612770893735004%)" />
  <rect x="275" y="295" width="30" height="30" fill="hsl(240 100% 50%)" />
  <rect x="310" y="295" width="30" height="30" fill="hsl(240 100% 99.49904899394559%)" />
  <rect x="345" y="295" width="30" height="30" fill="hsl(240 100% 94.76158048682933%)" />
  <rect x="415" y="295" width="30" height="30" fill="hsl(240 100% 55.21832647952798%)" />
  <rect x="450" y="295" width="30" height="30" fill="hsl(240 100% 99.32330332236873%)" />
  <rect x="485" y="295" width="30" height="30" fill="hsl(240 100% 88.04839613199898%)" />
  <rect x="520" y="295" width="30" height="30" fill="hsl(240 100% 57.84277751950537%)" />
  <rect x="695" y="295" width="30" height="30" fill="hsl(240 100% 97.60312944159331%)" />
  <rect x="800" y="295" width="30" height="30" fill="hsl(240 100% 99.57364707254409%)" />
  <rect x="835" y="295" width="30" height="30" fill="hsl(240 100% 99.95810999579183%)" />
  <rect x="65" y="330" width="30" height="30" fill="hsl(240 100% 84.3164864908522%)" />
  <rect x="100" y="330" width="30" height="30" fill="hsl(240 100% 92.91211560241155%)" />
  <rect x="135" y="330" width="30" height="30" fill="hsl(240 100% 96.24320458257094%)" />
  <rect x="170" y="330" width="30" height="30" fill="hsl(240 100% 83.57699149005866%)" />
  <rect x="205" y="330" width="30" height="30" fill="hsl(240 100% 99.00743445275461%)" />
  <rect x="240" y="330" width="30" height="30" fill="hsl(240 100% 74.69177152095882%)" />
  <rect x="275" y="330" width="30" height="30" fill="hsl(240 100% 84.16294635146039%)" />
  <rect x="310" y="330" width="30" height="30" fill="rgb(255 255 255 / 50%)" />
  <rect x="345" y="330" width="30" height="30" fill="hsl(240 100% 96.55980014532443%)" />
  <rect x="415" y="330" width="30" height="30" fill="hsl(240 100% 82.05639572628186%)" />
  <rect x="450" y="330" width="30" height="30" fill="hsl(240 100% 99.76560115371309%)" />
  <rect x="485" y="330" width="30" height="30" fill="hsl(240 100% 63.57855916378689%)" />
  <rect x="520" y="330" width="30" height="30" fill="hsl(240 100% 63.20855720627746%)" />
  <rect x="590" y="330" width="30" height="30" fill="hsl(240 100% 92.23932517921064%)" />
  <rect x="625" y="330" width="30" height="30" fill="hsl(240 100% 50%)" />
  <rect x="765" y="330" width="30" height="30" fill="hsl(240 100% 93.01926982750528%)" />
  <rect x="800" y="330" width="30" height="30" fill="hsl(240 100% 99.0050636726664%)" />
  <rect x="835" y="330" width="30" height="30" fill="hsl(240 100% 75.89568589443374%)" />
  <rect x="65" y="365" width="30" height="30" fill="hsl(240 100% 56.74469128464031%)" />
  <rect x="100" y="365" width="30" height="30" fill="hsl(240 100% 70.84066499891966%)" />
  <rect x="135" y="365" width="30" height="30" fill="hsl(240 100% 82.06752291112957%)" />
  <rect x="170" y="365" width="30" height="30" fill="hsl(240 100% 50%)" />
  <rect x="205" y="365" width="30" height="30" fill="hsl(240 100% 96.04832561529705%)" />
  <rect x="240" y="365" width="30" height="30" fill="hsl(240 100% 60.34203056346078%)" />
  <rect x="275" y="365" width="30" height="30" fill="hsl(240 100% 92.43122176585726%)" />
  <rect x="310" y="365" width="30" height="30" fill="hsl(240 100% 99.8604355726339%)" />
  <rect x="415" y="365" width="30" height="30" fill="hsl(240 100% 66.67686728090673%)" />
  <rect x="520" y="365" width="30" height="30" fill="hsl(240 100% 86.16558341338121%)" />
  <rect x="625" y="365" width="30" height="30" fill="hsl(240 100% 99.62785383341249%)" />
  <rect x="730" y="365" width="30" height="30" fill="hsl(240 100% 63.26735851157255%)" />
  <rect x="765" y="365" width="30" height="30" fill="hsl(240 100% 98.11615015738252%)" />
  <rect x="835" y="365" width="30" height="30" fill="hsl(240 100% 98.7879598961921%)" />
  <rect x="65" y="400" width="30" height="30" fill="hsl(240 100% 97.71868102057077%)" />
  <rect x="100" y="400" width="30" height="30" fill="hsl(240 100% 99.2734490469782%)" />
  <rect x="135" y="400" width="30" height="30" fill="hsl(240 100% 99.56662917663583%)" />
  <rect x="170" y="400" width="30" height="30" fill="hsl(240 100% 92.57230037086532%)" />
  <rect x="205" y="400" width="30" height="30" fill="hsl(240 100% 99.03814830365097%)" />
  <rect x="240" y="400" width="30" height="30" fill="hsl(240 100% 85.08271659819076%)" />
  <rect x="275" y="400" width="30" height="30" fill="hsl(240 100% 94.12745469751447%)" />
  <rect x="310" y="400" width="30" height="30" fill="rgb(255 255 255 / 50%)" />
  <rect x="380" y="400" width="30" height="30" fill="rgb(255 255 255 / 50%)" />
  <rect x="415" y="400" width="30" height="30" fill="hsl(240 100% 92.39983650542051%)" />
  <rect x="450" y="400" width="30" height="30" fill="hsl(240 100% 99.96752746663417%)" />
  <rect x="485" y="400" width="30" height="30" fill="hsl(240 100% 72.49728000120484%)" />
  <rect x="520" y="400" width="30" height="30" fill="hsl(240 100% 50%)" />
  <rect x="555" y="400" width="30" height="30" fill="hsl(240 100% 98.8567236767934%)" />
  <rect x="660" y="400" width="30" height="30" fill="rgb(255 255 255 / 50%)" />
  <rect x="835" y="400" width="30" height="30" fill="hsl(240 100% 99.00830202487278%)" />
  <rect x="65" y="435" width="30" height="30" fill="hsl(240 100% 93.28228237059388%)" />
  <rect x="240" y="435" width="30" height="30" fill="hsl(240 100% 50%)" />
  <rect x="310" y="435" width="30" height="30" fill="hsl(240 100% 93.83549926127458%)" />
  <rect x="415" y="435" width="30" height="30" fill="hsl(240 100% 86.97163763617081%)" />
  <rect x="450" y="435" width="30" height="30" fill="hsl(240 100% 99.78322702152337%)" />
  <rect x="65" y="470" width="30" height="30" fill="hsl(240 100% 50%)" />
  <rect x="240" y="470" width="30" height="30" fill="hsl(240 100% 50.254601662434354%)" />
  <rect x="310" y="470" width="30" height="30" fill="hsl(240 100% 96.95730493864845%)" />
  <rect x="415" y="470" width="30" height="30" fill="hsl(240 100% 89.03257690912449%)" />
  <rect x="450" y="470" width="30" height="30" fill="hsl(240 100% 99.57531221158865%)" />
</svg>
