<svg xmlns="http://www.w3.org/2000/svg" viewBox="0 0 730 505">
  <rect x="0" y="0" width="730" height="505" rx="5" ry="5" fill="#222" />
  <text x="60" y="100" fill="white" font-family="sans-serif" font-weight="bold" font-size="12" text-anchor="end" dominant-baseline="middle">ba</text>
  <text x="60" y="135" fill="white" font-family="sans-serif" font-weight="bold" font-size="12" text-anchor="end" dominant-baseline="middle">det</text>
  <text x="60" y="170" fill="white" font-family="sans-serif" font-weight="bold" font-size="12" text-anchor="end" dominant-baseline="middle">gmm</text>
  <text x="60" y="205" fill="white" font-family="sans-serif" font-weight="bold" font-size="12" text-anchor="end" dominant-baseline="middle">hello</text>
  <text x="60" y="240" fill="white" font-family="sans-serif" font-weight="bold" font-size="12" text-anchor="end" dominant-baseline="middle">ht</text>
  <text x="60" y="275" fill="white" font-family="sans-serif" font-weight="bold" font-size="12" text-anchor="end" dominant-baseline="middle">kmeans</text>
  <text x="60" y="310" fill="white" font-family="sans-serif" font-weight="bold" font-size="12" text-anchor="end" dominant-baseline="middle">llsq</text>
  <text x="60" y="345" fill="white" font-family="sans-serif" font-weight="bold" font-size="12" text-anchor="end" dominant-baseline="middle">lse</text>
  <text x="60" y="380" fill="white" font-family="sans-serif" font-weight="bold" font-size="12" text-anchor="end" dominant-baseline="middle">lstm</text>
  <text x="60" y="415" fill="white" font-family="sans-serif" font-weight="bold" font-size="12" text-anchor="end" dominant-baseline="middle">ode</text>
  <text x="60" y="450" fill="white" font-family="sans-serif" font-weight="bold" font-size="12" text-anchor="end" dominant-baseline="middle">particle</text>
  <text x="60" y="485" fill="white" font-family="sans-serif" font-weight="bold" font-size="12" text-anchor="end" dominant-baseline="middle">saddle</text>
  <text x="80" y="80" fill="white" font-family="sans-serif" font-weight="bold" font-size="12" text-anchor="end" dominant-baseline="middle" transform="rotate(90 80 80)">ad-hpp</text>
  <text x="115" y="80" fill="white" font-family="sans-serif" font-weight="bold" font-size="12" text-anchor="end" dominant-baseline="middle" transform="rotate(90 115 80)">adept</text>
  <text x="150" y="80" fill="white" font-family="sans-serif" font-weight="bold" font-size="12" text-anchor="end" dominant-baseline="middle" transform="rotate(90 150 80)">adol-c</text>
  <text x="185" y="80" fill="white" font-family="sans-serif" font-weight="bold" font-size="12" text-anchor="end" dominant-baseline="middle" transform="rotate(90 185 80)">codipack</text>
  <text x="220" y="80" fill="white" font-family="sans-serif" font-weight="bold" font-size="12" text-anchor="end" dominant-baseline="middle" transform="rotate(90 220 80)">cppad</text>
  <text x="255" y="80" fill="white" font-family="sans-serif" font-weight="bold" font-size="12" text-anchor="end" dominant-baseline="middle" transform="rotate(90 255 80)">enzyme</text>
  <text x="290" y="80" fill="white" font-family="sans-serif" font-weight="bold" font-size="12" text-anchor="end" dominant-baseline="middle" transform="rotate(90 290 80)">enzyme-jl</text>
  <text x="325" y="80" fill="white" font-family="sans-serif" font-weight="bold" font-size="12" text-anchor="end" dominant-baseline="middle" transform="rotate(90 325 80)">finite</text>
  <text x="360" y="80" fill="white" font-family="sans-serif" font-weight="bold" font-size="12" text-anchor="end" dominant-baseline="middle" transform="rotate(90 360 80)">floretta</text>
  <text x="395" y="80" fill="white" font-family="sans-serif" font-weight="bold" font-size="12" text-anchor="end" dominant-baseline="middle" transform="rotate(90 395 80)">futhark</text>
  <text x="430" y="80" fill="white" font-family="sans-serif" font-weight="bold" font-size="12" text-anchor="end" dominant-baseline="middle" transform="rotate(90 430 80)">haskell</text>
  <text x="465" y="80" fill="white" font-family="sans-serif" font-weight="bold" font-size="12" text-anchor="end" dominant-baseline="middle" transform="rotate(90 465 80)">jax</text>
  <text x="500" y="80" fill="white" font-family="sans-serif" font-weight="bold" font-size="12" text-anchor="end" dominant-baseline="middle" transform="rotate(90 500 80)">manual</text>
  <text x="535" y="80" fill="white" font-family="sans-serif" font-weight="bold" font-size="12" text-anchor="end" dominant-baseline="middle" transform="rotate(90 535 80)">ocaml</text>
  <text x="570" y="80" fill="white" font-family="sans-serif" font-weight="bold" font-size="12" text-anchor="end" dominant-baseline="middle" transform="rotate(90 570 80)">pytorch</text>
  <text x="605" y="80" fill="white" font-family="sans-serif" font-weight="bold" font-size="12" text-anchor="end" dominant-baseline="middle" transform="rotate(90 605 80)">scilean</text>
  <text x="640" y="80" fill="white" font-family="sans-serif" font-weight="bold" font-size="12" text-anchor="end" dominant-baseline="middle" transform="rotate(90 640 80)">tapenade</text>
  <text x="675" y="80" fill="white" font-family="sans-serif" font-weight="bold" font-size="12" text-anchor="end" dominant-baseline="middle" transform="rotate(90 675 80)">tensorflow</text>
  <text x="710" y="80" fill="white" font-family="sans-serif" font-weight="bold" font-size="12" text-anchor="end" dominant-baseline="middle" transform="rotate(90 710 80)">zygote</text>
  <rect x="65" y="85" width="30" height="30" fill="hsl(240 100% 80.9400713319261%)" />
  <rect x="100" y="85" width="30" height="30" fill="hsl(240 100% 82.86378198933747%)" />
  <rect x="135" y="85" width="30" height="30" fill="hsl(240 100% 97.98117117734816%)" />
  <rect x="170" y="85" width="30" height="30" fill="hsl(240 100% 82.33855170684166%)" />
  <rect x="205" y="85" width="30" height="30" fill="hsl(240 100% 99.00169094598495%)" />
  <rect x="240" y="85" width="30" height="30" fill="hsl(240 100% 51.599221060375164%)" />
  <rect x="310" y="85" width="30" height="30" fill="hsl(240 100% 92.88402599690794%)" />
  <rect x="380" y="85" width="30" height="30" fill="hsl(240 100% 68.08703230004691%)" />
  <rect x="485" y="85" width="30" height="30" fill="hsl(240 100% 50%)" />
  <rect x="555" y="85" width="30" height="30" fill="rgb(255 255 255 / 50%)" />
  <rect x="625" y="85" width="30" height="30" fill="hsl(240 100% 74.81151802553029%)" />
  <rect x="660" y="85" width="30" height="30" fill="rgb(255 255 255 / 50%)" />
  <rect x="695" y="85" width="30" height="30" fill="hsl(240 100% 99.71655268128858%)" />
  <rect x="65" y="120" width="30" height="30" fill="hsl(240 100% 50%)" />
  <rect x="100" y="120" width="30" height="30" fill="hsl(240 100% 83.74751977349362%)" />
  <rect x="135" y="120" width="30" height="30" fill="hsl(240 100% 85.59978027031723%)" />
  <rect x="170" y="120" width="30" height="30" fill="hsl(240 100% 52.209217601151714%)" />
  <rect x="205" y="120" width="30" height="30" fill="hsl(240 100% 92.5877123562283%)" />
  <rect x="240" y="120" width="30" height="30" fill="hsl(240 100% 91.61187211644479%)" />
  <rect x="275" y="120" width="30" height="30" fill="hsl(240 100% 99.22870503764767%)" />
  <rect x="310" y="120" width="30" height="30" fill="hsl(240 100% 98.9894103841746%)" />
  <rect x="380" y="120" width="30" height="30" fill="hsl(240 100% 94.62737573168715%)" />
  <rect x="415" y="120" width="30" height="30" fill="hsl(240 100% 97.95124206693917%)" />
  <rect x="485" y="120" width="30" height="30" fill="hsl(240 100% 79.79699636417263%)" />
  <rect x="695" y="120" width="30" height="30" fill="rgb(255 255 255 / 50%)" />
  <rect x="65" y="155" width="30" height="30" fill="hsl(240 100% 97.16916063063077%)" />
  <rect x="100" y="155" width="30" height="30" fill="hsl(240 100% 98.2652299671826%)" />
  <rect x="135" y="155" width="30" height="30" fill="hsl(240 100% 98.89554376203263%)" />
  <rect x="170" y="155" width="30" height="30" fill="hsl(240 100% 97.17991847732219%)" />
  <rect x="205" y="155" width="30" height="30" fill="hsl(240 100% 99.77820967676516%)" />
  <rect x="240" y="155" width="30" height="30" fill="hsl(240 100% 86.72636722796476%)" />
  <rect x="275" y="155" width="30" height="30" fill="hsl(240 100% 99.82885186906577%)" />
  <rect x="310" y="155" width="30" height="30" fill="rgb(255 255 255 / 50%)" />
  <rect x="380" y="155" width="30" height="30" fill="hsl(240 100% 89.42916758829683%)" />
  <rect x="450" y="155" width="30" height="30" fill="hsl(240 100% 71.22360423183257%)" />
  <rect x="485" y="155" width="30" height="30" fill="hsl(240 100% 71.94728835381953%)" />
  <rect x="520" y="155" width="30" height="30" fill="hsl(240 100% 99.3577597963442%)" />
  <rect x="555" y="155" width="30" height="30" fill="hsl(240 100% 50%)" />
  <rect x="590" y="155" width="30" height="30" fill="hsl(240 100% 92.63784682999828%)" />
  <rect x="625" y="155" width="30" height="30" fill="hsl(240 100% 76.48820903482245%)" />
  <rect x="660" y="155" width="30" height="30" fill="hsl(240 100% 88.54143576884499%)" />
  <rect x="695" y="155" width="30" height="30" fill="hsl(240 100% 99.3946072136087%)" />
  <rect x="65" y="190" width="30" height="30" fill="hsl(240 100% 50%)" />
  <rect x="100" y="190" width="30" height="30" fill="hsl(240 100% 50%)" />
  <rect x="135" y="190" width="30" height="30" fill="hsl(240 100% 50%)" />
  <rect x="170" y="190" width="30" height="30" fill="hsl(240 100% 50%)" />
  <rect x="205" y="190" width="30" height="30" fill="hsl(240 100% 50%)" />
  <rect x="240" y="190" width="30" height="30" fill="hsl(240 100% 50%)" />
  <rect x="275" y="190" width="30" height="30" fill="hsl(240 100% 50%)" />
  <rect x="310" y="190" width="30" height="30" fill="hsl(240 100% 50%)" />
  <rect x="345" y="190" width="30" height="30" fill="hsl(240 100% 50%)" />
  <rect x="380" y="190" width="30" height="30" fill="hsl(240 100% 50%)" />
  <rect x="415" y="190" width="30" height="30" fill="hsl(240 100% 50%)" />
  <rect x="450" y="190" width="30" height="30" fill="hsl(240 100% 50%)" />
  <rect x="485" y="190" width="30" height="30" fill="hsl(240 100% 50%)" />
  <rect x="520" y="190" width="30" height="30" fill="hsl(240 100% 50%)" />
  <rect x="555" y="190" width="30" height="30" fill="hsl(240 100% 50%)" />
  <rect x="590" y="190" width="30" height="30" fill="hsl(240 100% 50%)" />
  <rect x="625" y="190" width="30" height="30" fill="hsl(240 100% 50%)" />
  <rect x="660" y="190" width="30" height="30" fill="hsl(240 100% 50%)" />
  <rect x="695" y="190" width="30" height="30" fill="hsl(240 100% 50%)" />
  <rect x="100" y="225" width="30" height="30" fill="hsl(240 100% 96.37084961427504%)" />
  <rect x="135" y="225" width="30" height="30" fill="hsl(240 100% 89.26756634639102%)" />
  <rect x="170" y="225" width="30" height="30" fill="hsl(240 100% 89.49193352757348%)" />
  <rect x="240" y="225" width="30" height="30" fill="hsl(240 100% 91.0803915324628%)" />
  <rect x="310" y="225" width="30" height="30" fill="rgb(255 255 255 / 50%)" />
  <rect x="380" y="225" width="30" height="30" fill="hsl(240 100% 90.57814743523737%)" />
  <rect x="485" y="225" width="30" height="30" fill="hsl(240 100% 50%)" />
  <rect x="555" y="225" width="30" height="30" fill="rgb(255 255 255 / 50%)" />
  <rect x="625" y="225" width="30" height="30" fill="hsl(240 100% 93.18927833150853%)" />
  <rect x="660" y="225" width="30" height="30" fill="rgb(255 255 255 / 50%)" />
  <rect x="695" y="225" width="30" height="30" fill="hsl(240 100% 99.47160472926765%)" />
  <rect x="65" y="260" width="30" height="30" fill="hsl(240 100% 99.87808761203544%)" />
  <rect x="135" y="260" width="30" height="30" fill="hsl(240 100% 99.8611794841438%)" />
  <rect x="170" y="260" width="30" height="30" fill="hsl(240 100% 98.94927953615972%)" />
  <rect x="205" y="260" width="30" height="30" fill="rgb(255 255 255 / 50%)" />
  <rect x="240" y="260" width="30" height="30" fill="hsl(240 100% 86.66064244835766%)" />
  <rect x="310" y="260" width="30" height="30" fill="rgb(255 255 255 / 50%)" />
  <rect x="380" y="260" width="30" height="30" fill="hsl(240 100% 80.08563242637963%)" />
  <rect x="415" y="260" width="30" height="30" fill="rgb(255 255 255 / 50%)" />
  <rect x="450" y="260" width="30" height="30" fill="hsl(240 100% 50%)" />
  <rect x="485" y="260" width="30" height="30" fill="hsl(240 100% 70.38441185738178%)" />
  <rect x="555" y="260" width="30" height="30" fill="hsl(240 100% 96.92180550208099%)" />
  <rect x="590" y="260" width="30" height="30" fill="hsl(240 100% 93.89728706023861%)" />
  <rect x="65" y="295" width="30" height="30" fill="hsl(240 100% 85.71221373888788%)" />
  <rect x="100" y="295" width="30" height="30" fill="hsl(240 100% 97.50215140832007%)" />
  <rect x="135" y="295" width="30" height="30" fill="hsl(240 100% 95.12232140242808%)" />
  <rect x="170" y="295" width="30" height="30" fill="hsl(240 100% 90.57440118528335%)" />
  <rect x="205" y="295" width="30" height="30" fill="hsl(240 100% 99.41652102491155%)" />
  <rect x="240" y="295" width="30" height="30" fill="hsl(240 100% 50%)" />
  <rect x="275" y="295" width="30" height="30" fill="hsl(240 100% 99.86245193921376%)" />
  <rect x="310" y="295" width="30" height="30" fill="hsl(240 100% 99.49289968526178%)" />
  <rect x="345" y="295" width="30" height="30" fill="hsl(240 100% 95.16477757850326%)" />
  <rect x="380" y="295" width="30" height="30" fill="hsl(240 100% 54.70084870715203%)" />
  <rect x="415" y="295" width="30" height="30" fill="hsl(240 100% 99.32234992836888%)" />
  <rect x="450" y="295" width="30" height="30" fill="hsl(240 100% 88.14679393051955%)" />
  <rect x="485" y="295" width="30" height="30" fill="hsl(240 100% 57.30766973774086%)" />
  <rect x="590" y="295" width="30" height="30" fill="hsl(240 100% 97.57735016491594%)" />
  <rect x="695" y="295" width="30" height="30" fill="hsl(240 100% 99.97458306036816%)" />
  <rect x="65" y="330" width="30" height="30" fill="hsl(240 100% 88.27786796312387%)" />
  <rect x="100" y="330" width="30" height="30" fill="hsl(240 100% 94.88420569742935%)" />
  <rect x="135" y="330" width="30" height="30" fill="hsl(240 100% 97.22972395015142%)" />
  <rect x="170" y="330" width="30" height="30" fill="hsl(240 100% 88.27183120757755%)" />
  <rect x="205" y="330" width="30" height="30" fill="hsl(240 100% 99.2465769934207%)" />
  <rect x="240" y="330" width="30" height="30" fill="hsl(240 100% 80.67146386939024%)" />
  <rect x="275" y="330" width="30" height="30" fill="hsl(240 100% 99.83514122538203%)" />
  <rect x="310" y="330" width="30" height="30" fill="rgb(255 255 255 / 50%)" />
  <rect x="345" y="330" width="30" height="30" fill="hsl(240 100% 97.33472093205417%)" />
  <rect x="380" y="330" width="30" height="30" fill="hsl(240 100% 86.31389426582805%)" />
  <rect x="415" y="330" width="30" height="30" fill="hsl(240 100% 99.82640457059456%)" />
  <rect x="450" y="330" width="30" height="30" fill="hsl(240 100% 71.70130904530721%)" />
  <rect x="485" y="330" width="30" height="30" fill="hsl(240 100% 74.37596606322919%)" />
  <rect x="520" y="330" width="30" height="30" fill="hsl(240 100% 93.9946501709402%)" />
  <rect x="555" y="330" width="30" height="30" fill="hsl(240 100% 50%)" />
  <rect x="660" y="330" width="30" height="30" fill="hsl(240 100% 89.07578273306659%)" />
  <rect x="695" y="330" width="30" height="30" fill="hsl(240 100% 95.49180030236982%)" />
  <rect x="65" y="365" width="30" height="30" fill="hsl(240 100% 57.18886884092388%)" />
  <rect x="100" y="365" width="30" height="30" fill="hsl(240 100% 71.82982961729502%)" />
  <rect x="135" y="365" width="30" height="30" fill="hsl(240 100% 82.28462854851509%)" />
  <rect x="170" y="365" width="30" height="30" fill="hsl(240 100% 50%)" />
  <rect x="205" y="365" width="30" height="30" fill="hsl(240 100% 96.21734715926428%)" />
  <rect x="240" y="365" width="30" height="30" fill="hsl(240 100% 59.48321099628976%)" />
  <rect x="275" y="365" width="30" height="30" fill="hsl(240 100% 98.99143224695302%)" />
  <rect x="310" y="365" width="30" height="30" fill="hsl(240 100% 99.86140551331823%)" />
  <rect x="380" y="365" width="30" height="30" fill="hsl(240 100% 66.83300290137166%)" />
  <rect x="485" y="365" width="30" height="30" fill="hsl(240 100% 85.88679685633996%)" />
  <rect x="555" y="365" width="30" height="30" fill="hsl(240 100% 99.63676922409087%)" />
  <rect x="625" y="365" width="30" height="30" fill="hsl(240 100% 63.43211984398599%)" />
  <rect x="660" y="365" width="30" height="30" fill="hsl(240 100% 98.18433792565247%)" />
  <rect x="695" y="365" width="30" height="30" fill="hsl(240 100% 99.15986058228724%)" />
  <rect x="65" y="400" width="30" height="30" fill="hsl(240 100% 98.72819558831787%)" />
  <rect x="100" y="400" width="30" height="30" fill="hsl(240 100% 99.34698667644656%)" />
  <rect x="135" y="400" width="30" height="30" fill="hsl(240 100% 99.63270054365648%)" />
  <rect x="170" y="400" width="30" height="30" fill="hsl(240 100% 94.89374175384192%)" />
  <rect x="205" y="400" width="30" height="30" fill="hsl(240 100% 99.14036651298777%)" />
  <rect x="240" y="400" width="30" height="30" fill="hsl(240 100% 86.37841545049%)" />
  <rect x="275" y="400" width="30" height="30" fill="hsl(240 100% 99.16454847355186%)" />
  <rect x="310" y="400" width="30" height="30" fill="rgb(255 255 255 / 50%)" />
  <rect x="380" y="400" width="30" height="30" fill="hsl(240 100% 93.23010829424757%)" />
  <rect x="415" y="400" width="30" height="30" fill="hsl(240 100% 99.96762629515266%)" />
  <rect x="450" y="400" width="30" height="30" fill="hsl(240 100% 75.43771011852387%)" />
  <rect x="485" y="400" width="30" height="30" fill="hsl(240 100% 50%)" />
  <rect x="695" y="400" width="30" height="30" fill="hsl(240 100% 99.6889906175713%)" />
  <rect x="65" y="435" width="30" height="30" fill="hsl(240 100% 92.90698772241939%)" />
  <rect x="240" y="435" width="30" height="30" fill="hsl(240 100% 50%)" />
  <rect x="310" y="435" width="30" height="30" fill="hsl(240 100% 93.34958991850586%)" />
  <rect x="380" y="435" width="30" height="30" fill="hsl(240 100% 86.98518845732168%)" />
  <rect x="415" y="435" width="30" height="30" fill="hsl(240 100% 99.79107151935605%)" />
  <rect x="65" y="470" width="30" height="30" fill="hsl(240 100% 50%)" />
  <rect x="240" y="470" width="30" height="30" fill="hsl(240 100% 50.19985458187841%)" />
  <rect x="310" y="470" width="30" height="30" fill="hsl(240 100% 95.7888747213709%)" />
  <rect x="380" y="470" width="30" height="30" fill="hsl(240 100% 89.14451786393388%)" />
  <rect x="415" y="470" width="30" height="30" fill="hsl(240 100% 99.5813689199586%)" />
</svg>
