<svg xmlns="http://www.w3.org/2000/svg" viewBox="0 0 870 505">
  <rect x="0" y="0" width="870" height="505" rx="5" ry="5" fill="#222" />
  <text x="60" y="100" fill="white" font-family="sans-serif" font-weight="bold" font-size="12" text-anchor="end" dominant-baseline="middle">ba</text>
  <text x="60" y="135" fill="white" font-family="sans-serif" font-weight="bold" font-size="12" text-anchor="end" dominant-baseline="middle">det</text>
  <text x="60" y="170" fill="white" font-family="sans-serif" font-weight="bold" font-size="12" text-anchor="end" dominant-baseline="middle">gmm</text>
  <text x="60" y="205" fill="white" font-family="sans-serif" font-weight="bold" font-size="12" text-anchor="end" dominant-baseline="middle">hello</text>
  <text x="60" y="240" fill="white" font-family="sans-serif" font-weight="bold" font-size="12" text-anchor="end" dominant-baseline="middle">ht</text>
  <text x="60" y="275" fill="white" font-family="sans-serif" font-weight="bold" font-size="12" text-anchor="end" dominant-baseline="middle">kmeans</text>
  <text x="60" y="310" fill="white" font-family="sans-serif" font-weight="bold" font-size="12" text-anchor="end" dominant-baseline="middle">llsq</text>
  <text x="60" y="345" fill="white" font-family="sans-serif" font-weight="bold" font-size="12" text-anchor="end" dominant-baseline="middle">lse</text>
  <text x="60" y="380" fill="white" font-family="sans-serif" font-weight="bold" font-size="12" text-anchor="end" dominant-baseline="middle">lstm</text>
  <text x="60" y="415" fill="white" font-family="sans-serif" font-weight="bold" font-size="12" text-anchor="end" dominant-baseline="middle">ode</text>
  <text x="60" y="450" fill="white" font-family="sans-serif" font-weight="bold" font-size="12" text-anchor="end" dominant-baseline="middle">particle</text>
  <text x="60" y="485" fill="white" font-family="sans-serif" font-weight="bold" font-size="12" text-anchor="end" dominant-baseline="middle">saddle</text>
  <text x="80" y="80" fill="white" font-family="sans-serif" font-weight="bold" font-size="12" text-anchor="end" dominant-baseline="middle" transform="rotate(90 80 80)">ad-hpp</text>
  <text x="115" y="80" fill="white" font-family="sans-serif" font-weight="bold" font-size="12" text-anchor="end" dominant-baseline="middle" transform="rotate(90 115 80)">adept</text>
  <text x="150" y="80" fill="white" font-family="sans-serif" font-weight="bold" font-size="12" text-anchor="end" dominant-baseline="middle" transform="rotate(90 150 80)">adol-c</text>
  <text x="185" y="80" fill="white" font-family="sans-serif" font-weight="bold" font-size="12" text-anchor="end" dominant-baseline="middle" transform="rotate(90 185 80)">codipack</text>
  <text x="220" y="80" fill="white" font-family="sans-serif" font-weight="bold" font-size="12" text-anchor="end" dominant-baseline="middle" transform="rotate(90 220 80)">cppad</text>
  <text x="255" y="80" fill="white" font-family="sans-serif" font-weight="bold" font-size="12" text-anchor="end" dominant-baseline="middle" transform="rotate(90 255 80)">enzyme</text>
  <text x="290" y="80" fill="white" font-family="sans-serif" font-weight="bold" font-size="12" text-anchor="end" dominant-baseline="middle" transform="rotate(90 290 80)">enzyme-jl</text>
  <text x="325" y="80" fill="white" font-family="sans-serif" font-weight="bold" font-size="12" text-anchor="end" dominant-baseline="middle" transform="rotate(90 325 80)">finite</text>
  <text x="360" y="80" fill="white" font-family="sans-serif" font-weight="bold" font-size="12" text-anchor="end" dominant-baseline="middle" transform="rotate(90 360 80)">floretta</text>
  <text x="395" y="80" fill="white" font-family="sans-serif" font-weight="bold" font-size="12" text-anchor="end" dominant-baseline="middle" transform="rotate(90 395 80)">forwarddiff-jl</text>
  <text x="430" y="80" fill="white" font-family="sans-serif" font-weight="bold" font-size="12" text-anchor="end" dominant-baseline="middle" transform="rotate(90 430 80)">futhark</text>
  <text x="465" y="80" fill="white" font-family="sans-serif" font-weight="bold" font-size="12" text-anchor="end" dominant-baseline="middle" transform="rotate(90 465 80)">haskell</text>
  <text x="500" y="80" fill="white" font-family="sans-serif" font-weight="bold" font-size="12" text-anchor="end" dominant-baseline="middle" transform="rotate(90 500 80)">jax</text>
  <text x="535" y="80" fill="white" font-family="sans-serif" font-weight="bold" font-size="12" text-anchor="end" dominant-baseline="middle" transform="rotate(90 535 80)">manual</text>
  <text x="570" y="80" fill="white" font-family="sans-serif" font-weight="bold" font-size="12" text-anchor="end" dominant-baseline="middle" transform="rotate(90 570 80)">mooncake-jl</text>
  <text x="605" y="80" fill="white" font-family="sans-serif" font-weight="bold" font-size="12" text-anchor="end" dominant-baseline="middle" transform="rotate(90 605 80)">ocaml</text>
  <text x="640" y="80" fill="white" font-family="sans-serif" font-weight="bold" font-size="12" text-anchor="end" dominant-baseline="middle" transform="rotate(90 640 80)">pytorch</text>
  <text x="675" y="80" fill="white" font-family="sans-serif" font-weight="bold" font-size="12" text-anchor="end" dominant-baseline="middle" transform="rotate(90 675 80)">reversediff-jl</text>
  <text x="710" y="80" fill="white" font-family="sans-serif" font-weight="bold" font-size="12" text-anchor="end" dominant-baseline="middle" transform="rotate(90 710 80)">scilean</text>
  <text x="745" y="80" fill="white" font-family="sans-serif" font-weight="bold" font-size="12" text-anchor="end" dominant-baseline="middle" transform="rotate(90 745 80)">tapenade</text>
  <text x="780" y="80" fill="white" font-family="sans-serif" font-weight="bold" font-size="12" text-anchor="end" dominant-baseline="middle" transform="rotate(90 780 80)">tensorflow</text>
  <text x="815" y="80" fill="white" font-family="sans-serif" font-weight="bold" font-size="12" text-anchor="end" dominant-baseline="middle" transform="rotate(90 815 80)">tensorflow-js</text>
  <text x="850" y="80" fill="white" font-family="sans-serif" font-weight="bold" font-size="12" text-anchor="end" dominant-baseline="middle" transform="rotate(90 850 80)">zygote</text>
  <rect x="65" y="85" width="30" height="30" fill="hsl(240 100% 81.03658309586582%)" />
  <rect x="100" y="85" width="30" height="30" fill="hsl(240 100% 82.86563612638874%)" />
  <rect x="135" y="85" width="30" height="30" fill="hsl(240 100% 98.00594741497144%)" />
  <rect x="170" y="85" width="30" height="30" fill="hsl(240 100% 82.49100276459487%)" />
  <rect x="205" y="85" width="30" height="30" fill="hsl(240 100% 99.00591222130275%)" />
  <rect x="240" y="85" width="30" height="30" fill="hsl(240 100% 51.96802660465599%)" />
  <rect x="310" y="85" width="30" height="30" fill="hsl(240 100% 93.31971660587135%)" />
  <rect x="415" y="85" width="30" height="30" fill="hsl(240 100% 68.2951328997022%)" />
  <rect x="520" y="85" width="30" height="30" fill="hsl(240 100% 50%)" />
  <rect x="625" y="85" width="30" height="30" fill="rgb(255 255 255 / 50%)" />
  <rect x="730" y="85" width="30" height="30" fill="hsl(240 100% 75.0269965484464%)" />
  <rect x="765" y="85" width="30" height="30" fill="rgb(255 255 255 / 50%)" />
  <rect x="835" y="85" width="30" height="30" fill="hsl(240 100% 99.75001339191%)" />
  <rect x="65" y="120" width="30" height="30" fill="hsl(240 100% 50%)" />
  <rect x="100" y="120" width="30" height="30" fill="hsl(240 100% 82.7398758199354%)" />
  <rect x="135" y="120" width="30" height="30" fill="hsl(240 100% 85.55026710676081%)" />
  <rect x="170" y="120" width="30" height="30" fill="hsl(240 100% 52.54081027224869%)" />
  <rect x="205" y="120" width="30" height="30" fill="hsl(240 100% 92.5377067281151%)" />
  <rect x="240" y="120" width="30" height="30" fill="hsl(240 100% 91.45273495576592%)" />
  <rect x="275" y="120" width="30" height="30" fill="hsl(240 100% 99.35202326678954%)" />
  <rect x="310" y="120" width="30" height="30" fill="hsl(240 100% 99.00616450075584%)" />
  <rect x="380" y="120" width="30" height="30" fill="hsl(240 100% 93.2751314410559%)" />
  <rect x="415" y="120" width="30" height="30" fill="hsl(240 100% 94.61987449129916%)" />
  <rect x="450" y="120" width="30" height="30" fill="hsl(240 100% 97.85501445865431%)" />
  <rect x="520" y="120" width="30" height="30" fill="hsl(240 100% 79.63630553162335%)" />
  <rect x="555" y="120" width="30" height="30" fill="hsl(240 100% 90.58918674813935%)" />
  <rect x="660" y="120" width="30" height="30" fill="rgb(255 255 255 / 50%)" />
  <rect x="835" y="120" width="30" height="30" fill="rgb(255 255 255 / 50%)" />
  <rect x="65" y="155" width="30" height="30" fill="hsl(240 100% 98.20987719118955%)" />
  <rect x="100" y="155" width="30" height="30" fill="hsl(240 100% 98.79228177695225%)" />
  <rect x="135" y="155" width="30" height="30" fill="hsl(240 100% 99.11352985582512%)" />
  <rect x="170" y="155" width="30" height="30" fill="hsl(240 100% 98.11431709312704%)" />
  <rect x="205" y="155" width="30" height="30" fill="hsl(240 100% 99.82487733985934%)" />
  <rect x="240" y="155" width="30" height="30" fill="hsl(240 100% 91.00365911223597%)" />
  <rect x="275" y="155" width="30" height="30" fill="hsl(240 100% 92.3859887139026%)" />
  <rect x="310" y="155" width="30" height="30" fill="rgb(255 255 255 / 50%)" />
  <rect x="415" y="155" width="30" height="30" fill="hsl(240 100% 92.9037524719815%)" />
  <rect x="485" y="155" width="30" height="30" fill="hsl(240 100% 50%)" />
  <rect x="520" y="155" width="30" height="30" fill="hsl(240 100% 83.3393049330613%)" />
  <rect x="590" y="155" width="30" height="30" fill="hsl(240 100% 99.58825189463408%)" />
  <rect x="625" y="155" width="30" height="30" fill="hsl(240 100% 66.43533288271482%)" />
  <rect x="695" y="155" width="30" height="30" fill="hsl(240 100% 95.35041497042681%)" />
  <rect x="730" y="155" width="30" height="30" fill="hsl(240 100% 83.52667927748396%)" />
  <rect x="765" y="155" width="30" height="30" fill="hsl(240 100% 99.59078382877163%)" />
  <rect x="835" y="155" width="30" height="30" fill="hsl(240 100% 96.39621032790193%)" />
  <rect x="65" y="190" width="30" height="30" fill="hsl(240 100% 50%)" />
  <rect x="100" y="190" width="30" height="30" fill="hsl(240 100% 50%)" />
  <rect x="135" y="190" width="30" height="30" fill="hsl(240 100% 50%)" />
  <rect x="170" y="190" width="30" height="30" fill="hsl(240 100% 50%)" />
  <rect x="205" y="190" width="30" height="30" fill="hsl(240 100% 50%)" />
  <rect x="240" y="190" width="30" height="30" fill="hsl(240 100% 50%)" />
  <rect x="275" y="190" width="30" height="30" fill="hsl(240 100% 50%)" />
  <rect x="310" y="190" width="30" height="30" fill="hsl(240 100% 50%)" />
  <rect x="345" y="190" width="30" height="30" fill="hsl(240 100% 50%)" />
  <rect x="380" y="190" width="30" height="30" fill="hsl(240 100% 50%)" />
  <rect x="415" y="190" width="30" height="30" fill="hsl(240 100% 50%)" />
  <rect x="450" y="190" width="30" height="30" fill="hsl(240 100% 50%)" />
  <rect x="485" y="190" width="30" height="30" fill="hsl(240 100% 50%)" />
  <rect x="520" y="190" width="30" height="30" fill="hsl(240 100% 50%)" />
  <rect x="555" y="190" width="30" height="30" fill="hsl(240 100% 50%)" />
  <rect x="590" y="190" width="30" height="30" fill="hsl(240 100% 50%)" />
  <rect x="625" y="190" width="30" height="30" fill="hsl(240 100% 50%)" />
  <rect x="660" y="190" width="30" height="30" fill="hsl(240 100% 50%)" />
  <rect x="695" y="190" width="30" height="30" fill="hsl(240 100% 50%)" />
  <rect x="730" y="190" width="30" height="30" fill="hsl(240 100% 50%)" />
  <rect x="765" y="190" width="30" height="30" fill="hsl(240 100% 50%)" />
  <rect x="800" y="190" width="30" height="30" fill="hsl(240 100% 50%)" />
  <rect x="835" y="190" width="30" height="30" fill="hsl(240 100% 50%)" />
  <rect x="100" y="225" width="30" height="30" fill="hsl(240 100% 96.70912480939946%)" />
  <rect x="135" y="225" width="30" height="30" fill="hsl(240 100% 89.66659507495588%)" />
  <rect x="170" y="225" width="30" height="30" fill="hsl(240 100% 89.37121652375825%)" />
  <rect x="240" y="225" width="30" height="30" fill="hsl(240 100% 91.51813646491951%)" />
  <rect x="310" y="225" width="30" height="30" fill="rgb(255 255 255 / 50%)" />
  <rect x="415" y="225" width="30" height="30" fill="hsl(240 100% 90.65835109660584%)" />
  <rect x="520" y="225" width="30" height="30" fill="hsl(240 100% 50%)" />
  <rect x="625" y="225" width="30" height="30" fill="rgb(255 255 255 / 50%)" />
  <rect x="730" y="225" width="30" height="30" fill="hsl(240 100% 93.31460163839272%)" />
  <rect x="765" y="225" width="30" height="30" fill="rgb(255 255 255 / 50%)" />
  <rect x="835" y="225" width="30" height="30" fill="hsl(240 100% 94.31702863814316%)" />
  <rect x="65" y="260" width="30" height="30" fill="hsl(240 100% 99.8511725011632%)" />
  <rect x="135" y="260" width="30" height="30" fill="hsl(240 100% 99.84744357879046%)" />
  <rect x="170" y="260" width="30" height="30" fill="hsl(240 100% 98.86310473030495%)" />
  <rect x="205" y="260" width="30" height="30" fill="rgb(255 255 255 / 50%)" />
  <rect x="240" y="260" width="30" height="30" fill="hsl(240 100% 87.01443224196127%)" />
  <rect x="310" y="260" width="30" height="30" fill="rgb(255 255 255 / 50%)" />
  <rect x="415" y="260" width="30" height="30" fill="hsl(240 100% 80.66375227086601%)" />
  <rect x="450" y="260" width="30" height="30" fill="rgb(255 255 255 / 50%)" />
  <rect x="485" y="260" width="30" height="30" fill="hsl(240 100% 50%)" />
  <rect x="520" y="260" width="30" height="30" fill="hsl(240 100% 71.06004132889913%)" />
  <rect x="625" y="260" width="30" height="30" fill="hsl(240 100% 96.97842478317233%)" />
  <rect x="695" y="260" width="30" height="30" fill="hsl(240 100% 94.06941117912753%)" />
  <rect x="65" y="295" width="30" height="30" fill="hsl(240 100% 85.85665820527825%)" />
  <rect x="100" y="295" width="30" height="30" fill="hsl(240 100% 97.51186702215043%)" />
  <rect x="135" y="295" width="30" height="30" fill="hsl(240 100% 95.15741191324234%)" />
  <rect x="170" y="295" width="30" height="30" fill="hsl(240 100% 90.66042249508293%)" />
  <rect x="205" y="295" width="30" height="30" fill="hsl(240 100% 99.4703074739941%)" />
  <rect x="240" y="295" width="30" height="30" fill="hsl(240 100% 50.639498485785076%)" />
  <rect x="275" y="295" width="30" height="30" fill="hsl(240 100% 50%)" />
  <rect x="310" y="295" width="30" height="30" fill="hsl(240 100% 99.4996661102706%)" />
  <rect x="345" y="295" width="30" height="30" fill="hsl(240 100% 94.79571562431093%)" />
  <rect x="415" y="295" width="30" height="30" fill="hsl(240 100% 55.2408942851066%)" />
  <rect x="450" y="295" width="30" height="30" fill="hsl(240 100% 99.33109055027401%)" />
  <rect x="485" y="295" width="30" height="30" fill="hsl(240 100% 88.31494602308442%)" />
  <rect x="520" y="295" width="30" height="30" fill="hsl(240 100% 57.868269138563726%)" />
  <rect x="695" y="295" width="30" height="30" fill="hsl(240 100% 97.61059139200506%)" />
  <rect x="800" y="295" width="30" height="30" fill="hsl(240 100% 99.5666782365601%)" />
  <rect x="835" y="295" width="30" height="30" fill="hsl(240 100% 99.95889762334824%)" />
  <rect x="65" y="330" width="30" height="30" fill="hsl(240 100% 87.69802991909216%)" />
  <rect x="100" y="330" width="30" height="30" fill="hsl(240 100% 94.18620658410822%)" />
  <rect x="135" y="330" width="30" height="30" fill="hsl(240 100% 96.9115205528888%)" />
  <rect x="170" y="330" width="30" height="30" fill="hsl(240 100% 87.43943515874967%)" />
  <rect x="205" y="330" width="30" height="30" fill="hsl(240 100% 99.11209723041853%)" />
  <rect x="240" y="330" width="30" height="30" fill="hsl(240 100% 77.88560034794827%)" />
  <rect x="275" y="330" width="30" height="30" fill="hsl(240 100% 87.5315671570755%)" />
  <rect x="310" y="330" width="30" height="30" fill="rgb(255 255 255 / 50%)" />
  <rect x="345" y="330" width="30" height="30" fill="hsl(240 100% 96.97723112274953%)" />
  <rect x="415" y="330" width="30" height="30" fill="hsl(240 100% 84.58098439896598%)" />
  <rect x="450" y="330" width="30" height="30" fill="hsl(240 100% 99.782078166689%)" />
  <rect x="485" y="330" width="30" height="30" fill="hsl(240 100% 68.57771591729663%)" />
  <rect x="520" y="330" width="30" height="30" fill="hsl(240 100% 74.56254004865035%)" />
  <rect x="590" y="330" width="30" height="30" fill="hsl(240 100% 93.246753089859%)" />
  <rect x="625" y="330" width="30" height="30" fill="hsl(240 100% 50%)" />
  <rect x="765" y="330" width="30" height="30" fill="hsl(240 100% 93.86594488466166%)" />
  <rect x="800" y="330" width="30" height="30" fill="hsl(240 100% 99.13797209458578%)" />
  <rect x="835" y="330" width="30" height="30" fill="hsl(240 100% 78.8822498823112%)" />
  <rect x="65" y="365" width="30" height="30" fill="hsl(240 100% 57.053464693771765%)" />
  <rect x="100" y="365" width="30" height="30" fill="hsl(240 100% 71.6195180328214%)" />
  <rect x="135" y="365" width="30" height="30" fill="hsl(240 100% 82.00113637929476%)" />
  <rect x="170" y="365" width="30" height="30" fill="hsl(240 100% 50%)" />
  <rect x="205" y="365" width="30" height="30" fill="hsl(240 100% 96.19850155765835%)" />
  <rect x="240" y="365" width="30" height="30" fill="hsl(240 100% 58.82179670364886%)" />
  <rect x="275" y="365" width="30" height="30" fill="hsl(240 100% 92.739486867524%)" />
  <rect x="310" y="365" width="30" height="30" fill="hsl(240 100% 99.86288381474918%)" />
  <rect x="415" y="365" width="30" height="30" fill="hsl(240 100% 66.49850837098077%)" />
  <rect x="520" y="365" width="30" height="30" fill="hsl(240 100% 85.98489672365605%)" />
  <rect x="625" y="365" width="30" height="30" fill="hsl(240 100% 99.63000363466632%)" />
  <rect x="730" y="365" width="30" height="30" fill="hsl(240 100% 63.23610031249367%)" />
  <rect x="765" y="365" width="30" height="30" fill="hsl(240 100% 98.13409547378187%)" />
  <rect x="835" y="365" width="30" height="30" fill="hsl(240 100% 98.803699837282%)" />
  <rect x="65" y="400" width="30" height="30" fill="hsl(240 100% 98.17425269263886%)" />
  <rect x="100" y="400" width="30" height="30" fill="hsl(240 100% 99.41480112564707%)" />
  <rect x="135" y="400" width="30" height="30" fill="hsl(240 100% 99.67084093292127%)" />
  <rect x="170" y="400" width="30" height="30" fill="hsl(240 100% 95.45928196758027%)" />
  <rect x="205" y="400" width="30" height="30" fill="hsl(240 100% 99.23726486646487%)" />
  <rect x="240" y="400" width="30" height="30" fill="hsl(240 100% 88.70335982119443%)" />
  <rect x="275" y="400" width="30" height="30" fill="hsl(240 100% 95.47916927244084%)" />
  <rect x="310" y="400" width="30" height="30" fill="rgb(255 255 255 / 50%)" />
  <rect x="380" y="400" width="30" height="30" fill="rgb(255 255 255 / 50%)" />
  <rect x="415" y="400" width="30" height="30" fill="hsl(240 100% 94.04208297702857%)" />
  <rect x="450" y="400" width="30" height="30" fill="hsl(240 100% 99.97149487717601%)" />
  <rect x="485" y="400" width="30" height="30" fill="hsl(240 100% 78.85386303346012%)" />
  <rect x="520" y="400" width="30" height="30" fill="hsl(240 100% 50%)" />
  <rect x="555" y="400" width="30" height="30" fill="hsl(240 100% 99.12305857888889%)" />
  <rect x="660" y="400" width="30" height="30" fill="rgb(255 255 255 / 50%)" />
  <rect x="835" y="400" width="30" height="30" fill="hsl(240 100% 99.17935003952572%)" />
  <rect x="65" y="435" width="30" height="30" fill="hsl(240 100% 92.8421883665833%)" />
  <rect x="240" y="435" width="30" height="30" fill="hsl(240 100% 50%)" />
  <rect x="310" y="435" width="30" height="30" fill="hsl(240 100% 94.32275208731951%)" />
  <rect x="415" y="435" width="30" height="30" fill="hsl(240 100% 86.99716010515294%)" />
  <rect x="450" y="435" width="30" height="30" fill="hsl(240 100% 99.78090090601135%)" />
  <rect x="65" y="470" width="30" height="30" fill="hsl(240 100% 50%)" />
  <rect x="240" y="470" width="30" height="30" fill="hsl(240 100% 50.503421903215525%)" />
  <rect x="310" y="470" width="30" height="30" fill="hsl(240 100% 97.15438711103766%)" />
  <rect x="415" y="470" width="30" height="30" fill="hsl(240 100% 89.51546812188064%)" />
  <rect x="450" y="470" width="30" height="30" fill="hsl(240 100% 99.57295064523007%)" />
</svg>
