<svg xmlns="http://www.w3.org/2000/svg" viewBox="0 0 660 470">
  <rect x="0" y="0" width="660" height="470" rx="5" ry="5" fill="#222" />
  <text x="60" y="100" fill="white" font-family="sans-serif" font-weight="bold" font-size="12" text-anchor="end" dominant-baseline="middle">ba</text>
  <text x="60" y="135" fill="white" font-family="sans-serif" font-weight="bold" font-size="12" text-anchor="end" dominant-baseline="middle">det</text>
  <text x="60" y="170" fill="white" font-family="sans-serif" font-weight="bold" font-size="12" text-anchor="end" dominant-baseline="middle">gmm</text>
  <text x="60" y="205" fill="white" font-family="sans-serif" font-weight="bold" font-size="12" text-anchor="end" dominant-baseline="middle">hello</text>
  <text x="60" y="240" fill="white" font-family="sans-serif" font-weight="bold" font-size="12" text-anchor="end" dominant-baseline="middle">ht</text>
  <text x="60" y="275" fill="white" font-family="sans-serif" font-weight="bold" font-size="12" text-anchor="end" dominant-baseline="middle">kmeans</text>
  <text x="60" y="310" fill="white" font-family="sans-serif" font-weight="bold" font-size="12" text-anchor="end" dominant-baseline="middle">llsq</text>
  <text x="60" y="345" fill="white" font-family="sans-serif" font-weight="bold" font-size="12" text-anchor="end" dominant-baseline="middle">lstm</text>
  <text x="60" y="380" fill="white" font-family="sans-serif" font-weight="bold" font-size="12" text-anchor="end" dominant-baseline="middle">ode</text>
  <text x="60" y="415" fill="white" font-family="sans-serif" font-weight="bold" font-size="12" text-anchor="end" dominant-baseline="middle">particle</text>
  <text x="60" y="450" fill="white" font-family="sans-serif" font-weight="bold" font-size="12" text-anchor="end" dominant-baseline="middle">saddle</text>
  <text x="80" y="80" fill="white" font-family="sans-serif" font-weight="bold" font-size="12" text-anchor="end" dominant-baseline="middle" transform="rotate(90 80 80)">adept</text>
  <text x="115" y="80" fill="white" font-family="sans-serif" font-weight="bold" font-size="12" text-anchor="end" dominant-baseline="middle" transform="rotate(90 115 80)">adol-c</text>
  <text x="150" y="80" fill="white" font-family="sans-serif" font-weight="bold" font-size="12" text-anchor="end" dominant-baseline="middle" transform="rotate(90 150 80)">codipack</text>
  <text x="185" y="80" fill="white" font-family="sans-serif" font-weight="bold" font-size="12" text-anchor="end" dominant-baseline="middle" transform="rotate(90 185 80)">cppad</text>
  <text x="220" y="80" fill="white" font-family="sans-serif" font-weight="bold" font-size="12" text-anchor="end" dominant-baseline="middle" transform="rotate(90 220 80)">enzyme</text>
  <text x="255" y="80" fill="white" font-family="sans-serif" font-weight="bold" font-size="12" text-anchor="end" dominant-baseline="middle" transform="rotate(90 255 80)">finite</text>
  <text x="290" y="80" fill="white" font-family="sans-serif" font-weight="bold" font-size="12" text-anchor="end" dominant-baseline="middle" transform="rotate(90 290 80)">floretta</text>
  <text x="325" y="80" fill="white" font-family="sans-serif" font-weight="bold" font-size="12" text-anchor="end" dominant-baseline="middle" transform="rotate(90 325 80)">futhark</text>
  <text x="360" y="80" fill="white" font-family="sans-serif" font-weight="bold" font-size="12" text-anchor="end" dominant-baseline="middle" transform="rotate(90 360 80)">haskell</text>
  <text x="395" y="80" fill="white" font-family="sans-serif" font-weight="bold" font-size="12" text-anchor="end" dominant-baseline="middle" transform="rotate(90 395 80)">jax</text>
  <text x="430" y="80" fill="white" font-family="sans-serif" font-weight="bold" font-size="12" text-anchor="end" dominant-baseline="middle" transform="rotate(90 430 80)">manual</text>
  <text x="465" y="80" fill="white" font-family="sans-serif" font-weight="bold" font-size="12" text-anchor="end" dominant-baseline="middle" transform="rotate(90 465 80)">ocaml</text>
  <text x="500" y="80" fill="white" font-family="sans-serif" font-weight="bold" font-size="12" text-anchor="end" dominant-baseline="middle" transform="rotate(90 500 80)">pytorch</text>
  <text x="535" y="80" fill="white" font-family="sans-serif" font-weight="bold" font-size="12" text-anchor="end" dominant-baseline="middle" transform="rotate(90 535 80)">scilean</text>
  <text x="570" y="80" fill="white" font-family="sans-serif" font-weight="bold" font-size="12" text-anchor="end" dominant-baseline="middle" transform="rotate(90 570 80)">tapenade</text>
  <text x="605" y="80" fill="white" font-family="sans-serif" font-weight="bold" font-size="12" text-anchor="end" dominant-baseline="middle" transform="rotate(90 605 80)">tensorflow</text>
  <text x="640" y="80" fill="white" font-family="sans-serif" font-weight="bold" font-size="12" text-anchor="end" dominant-baseline="middle" transform="rotate(90 640 80)">zygote</text>
  <rect x="65" y="85" width="30" height="30" fill="hsl(240 100% 83.36601759524775%)" />
  <rect x="100" y="85" width="30" height="30" fill="hsl(240 100% 97.78073953235051%)" />
  <rect x="135" y="85" width="30" height="30" fill="hsl(240 100% 88.83702864339934%)" />
  <rect x="205" y="85" width="30" height="30" fill="hsl(240 100% 50%)" />
  <rect x="240" y="85" width="30" height="30" fill="hsl(240 100% 92.52470031657593%)" />
  <rect x="310" y="85" width="30" height="30" fill="hsl(240 100% 68.0614185681566%)" />
  <rect x="415" y="85" width="30" height="30" fill="hsl(240 100% 51.405620273453664%)" />
  <rect x="485" y="85" width="30" height="30" fill="rgb(255 255 255 / 50%)" />
  <rect x="555" y="85" width="30" height="30" fill="hsl(240 100% 72.25682831271052%)" />
  <rect x="590" y="85" width="30" height="30" fill="rgb(255 255 255 / 50%)" />
  <rect x="65" y="120" width="30" height="30" fill="hsl(240 100% 82.91952375185872%)" />
  <rect x="100" y="120" width="30" height="30" fill="hsl(240 100% 84.5963744248154%)" />
  <rect x="135" y="120" width="30" height="30" fill="hsl(240 100% 50%)" />
  <rect x="170" y="120" width="30" height="30" fill="hsl(240 100% 92.41717135005268%)" />
  <rect x="205" y="120" width="30" height="30" fill="hsl(240 100% 91.38981352124006%)" />
  <rect x="240" y="120" width="30" height="30" fill="hsl(240 100% 99.05936932659844%)" />
  <rect x="310" y="120" width="30" height="30" fill="hsl(240 100% 94.53354130872994%)" />
  <rect x="345" y="120" width="30" height="30" fill="hsl(240 100% 97.83919205350934%)" />
  <rect x="415" y="120" width="30" height="30" fill="hsl(240 100% 79.00694729181691%)" />
  <rect x="65" y="155" width="30" height="30" fill="hsl(240 100% 98.27269544425361%)" />
  <rect x="100" y="155" width="30" height="30" fill="hsl(240 100% 98.86562847716593%)" />
  <rect x="135" y="155" width="30" height="30" fill="hsl(240 100% 97.3323716717205%)" />
  <rect x="170" y="155" width="30" height="30" fill="hsl(240 100% 99.77772040049153%)" />
  <rect x="205" y="155" width="30" height="30" fill="hsl(240 100% 87.32995740504364%)" />
  <rect x="240" y="155" width="30" height="30" fill="rgb(255 255 255 / 50%)" />
  <rect x="310" y="155" width="30" height="30" fill="hsl(240 100% 90.41681248194038%)" />
  <rect x="380" y="155" width="30" height="30" fill="hsl(240 100% 70.75021151867946%)" />
  <rect x="415" y="155" width="30" height="30" fill="hsl(240 100% 76.4411024643123%)" />
  <rect x="450" y="155" width="30" height="30" fill="hsl(240 100% 99.3797117551397%)" />
  <rect x="485" y="155" width="30" height="30" fill="hsl(240 100% 50%)" />
  <rect x="520" y="155" width="30" height="30" fill="hsl(240 100% 92.98870992110834%)" />
  <rect x="555" y="155" width="30" height="30" fill="hsl(240 100% 76.94212037875403%)" />
  <rect x="590" y="155" width="30" height="30" fill="hsl(240 100% 88.61820268106703%)" />
  <rect x="65" y="190" width="30" height="30" fill="hsl(240 100% 50%)" />
  <rect x="100" y="190" width="30" height="30" fill="hsl(240 100% 50%)" />
  <rect x="135" y="190" width="30" height="30" fill="hsl(240 100% 50%)" />
  <rect x="170" y="190" width="30" height="30" fill="hsl(240 100% 50%)" />
  <rect x="205" y="190" width="30" height="30" fill="hsl(240 100% 50%)" />
  <rect x="240" y="190" width="30" height="30" fill="hsl(240 100% 50%)" />
  <rect x="275" y="190" width="30" height="30" fill="hsl(240 100% 50%)" />
  <rect x="310" y="190" width="30" height="30" fill="hsl(240 100% 50%)" />
  <rect x="345" y="190" width="30" height="30" fill="hsl(240 100% 50%)" />
  <rect x="380" y="190" width="30" height="30" fill="hsl(240 100% 50%)" />
  <rect x="415" y="190" width="30" height="30" fill="hsl(240 100% 50%)" />
  <rect x="450" y="190" width="30" height="30" fill="hsl(240 100% 50%)" />
  <rect x="485" y="190" width="30" height="30" fill="hsl(240 100% 50%)" />
  <rect x="520" y="190" width="30" height="30" fill="hsl(240 100% 50%)" />
  <rect x="555" y="190" width="30" height="30" fill="hsl(240 100% 50%)" />
  <rect x="590" y="190" width="30" height="30" fill="hsl(240 100% 50%)" />
  <rect x="625" y="190" width="30" height="30" fill="hsl(240 100% 50%)" />
  <rect x="65" y="225" width="30" height="30" fill="hsl(240 100% 95.93020141263631%)" />
  <rect x="100" y="225" width="30" height="30" fill="hsl(240 100% 89.77264449516471%)" />
  <rect x="135" y="225" width="30" height="30" fill="hsl(240 100% 87.97539447656759%)" />
  <rect x="205" y="225" width="30" height="30" fill="hsl(240 100% 90.05552852147383%)" />
  <rect x="240" y="225" width="30" height="30" fill="rgb(255 255 255 / 50%)" />
  <rect x="310" y="225" width="30" height="30" fill="hsl(240 100% 89.34251603696977%)" />
  <rect x="415" y="225" width="30" height="30" fill="hsl(240 100% 50%)" />
  <rect x="485" y="225" width="30" height="30" fill="rgb(255 255 255 / 50%)" />
  <rect x="555" y="225" width="30" height="30" fill="rgb(255 255 255 / 50%)" />
  <rect x="590" y="225" width="30" height="30" fill="rgb(255 255 255 / 50%)" />
  <rect x="100" y="260" width="30" height="30" fill="hsl(240 100% 99.87701975610878%)" />
  <rect x="135" y="260" width="30" height="30" fill="hsl(240 100% 99.40311166850242%)" />
  <rect x="170" y="260" width="30" height="30" fill="rgb(255 255 255 / 50%)" />
  <rect x="205" y="260" width="30" height="30" fill="hsl(240 100% 88.00130211791658%)" />
  <rect x="240" y="260" width="30" height="30" fill="rgb(255 255 255 / 50%)" />
  <rect x="310" y="260" width="30" height="30" fill="hsl(240 100% 83.1790477002931%)" />
  <rect x="345" y="260" width="30" height="30" fill="rgb(255 255 255 / 50%)" />
  <rect x="380" y="260" width="30" height="30" fill="hsl(240 100% 50%)" />
  <rect x="415" y="260" width="30" height="30" fill="hsl(240 100% 76.63032306359389%)" />
  <rect x="485" y="260" width="30" height="30" fill="hsl(240 100% 96.98411977672725%)" />
  <rect x="520" y="260" width="30" height="30" fill="hsl(240 100% 94.1495643038677%)" />
  <rect x="65" y="295" width="30" height="30" fill="hsl(240 100% 68.40122113983925%)" />
  <rect x="100" y="295" width="30" height="30" fill="hsl(240 100% 59.073193118858505%)" />
  <rect x="135" y="295" width="30" height="30" fill="hsl(240 100% 63.1197072416269%)" />
  <rect x="170" y="295" width="30" height="30" fill="hsl(240 100% 91.57811531646433%)" />
  <rect x="205" y="295" width="30" height="30" fill="hsl(240 100% 50%)" />
  <rect x="240" y="295" width="30" height="30" fill="hsl(240 100% 99.42775869017464%)" />
  <rect x="310" y="295" width="30" height="30" fill="hsl(240 100% 50.61759045433886%)" />
  <rect x="345" y="295" width="30" height="30" fill="hsl(240 100% 89.56557225917265%)" />
  <rect x="415" y="295" width="30" height="30" fill="hsl(240 100% 53.5731093298258%)" />
  <rect x="520" y="295" width="30" height="30" fill="hsl(240 100% 55.37544407299961%)" />
  <rect x="65" y="330" width="30" height="30" fill="hsl(240 100% 68.88175668747948%)" />
  <rect x="100" y="330" width="30" height="30" fill="hsl(240 100% 80.58381681479054%)" />
  <rect x="135" y="330" width="30" height="30" fill="hsl(240 100% 50.39145456040694%)" />
  <rect x="170" y="330" width="30" height="30" fill="hsl(240 100% 95.80960268394506%)" />
  <rect x="205" y="330" width="30" height="30" fill="hsl(240 100% 50%)" />
  <rect x="240" y="330" width="30" height="30" fill="hsl(240 100% 99.85051204991282%)" />
  <rect x="310" y="330" width="30" height="30" fill="hsl(240 100% 63.3910597124557%)" />
  <rect x="415" y="330" width="30" height="30" fill="hsl(240 100% 85.01378596470086%)" />
  <rect x="485" y="330" width="30" height="30" fill="hsl(240 100% 99.60290891669678%)" />
  <rect x="555" y="330" width="30" height="30" fill="hsl(240 100% 60.49349500744102%)" />
  <rect x="590" y="330" width="30" height="30" fill="hsl(240 100% 98.00310128514614%)" />
  <rect x="65" y="365" width="30" height="30" fill="hsl(240 100% 99.2908662814034%)" />
  <rect x="100" y="365" width="30" height="30" fill="hsl(240 100% 99.63449364542289%)" />
  <rect x="135" y="365" width="30" height="30" fill="hsl(240 100% 94.5320089736196%)" />
  <rect x="170" y="365" width="30" height="30" fill="hsl(240 100% 99.12244035225129%)" />
  <rect x="205" y="365" width="30" height="30" fill="hsl(240 100% 88.51691132768967%)" />
  <rect x="240" y="365" width="30" height="30" fill="rgb(255 255 255 / 50%)" />
  <rect x="310" y="365" width="30" height="30" fill="hsl(240 100% 95.99966921821644%)" />
  <rect x="345" y="365" width="30" height="30" fill="hsl(240 100% 99.9694688545487%)" />
  <rect x="415" y="365" width="30" height="30" fill="hsl(240 100% 50%)" />
  <rect x="205" y="400" width="30" height="30" fill="hsl(240 100% 50%)" />
  <rect x="240" y="400" width="30" height="30" fill="hsl(240 100% 95.19007736925184%)" />
  <rect x="310" y="400" width="30" height="30" fill="hsl(240 100% 87.91547537473764%)" />
  <rect x="345" y="400" width="30" height="30" fill="hsl(240 100% 99.76667525786631%)" />
  <rect x="205" y="435" width="30" height="30" fill="hsl(240 100% 50%)" />
  <rect x="240" y="435" width="30" height="30" fill="hsl(240 100% 95.82901626570391%)" />
  <rect x="310" y="435" width="30" height="30" fill="hsl(240 100% 89.19632112203925%)" />
  <rect x="345" y="435" width="30" height="30" fill="hsl(240 100% 99.55376861186268%)" />
</svg>
