<svg xmlns="http://www.w3.org/2000/svg" viewBox="0 0 870 505">
  <rect x="0" y="0" width="870" height="505" rx="5" ry="5" fill="#222" />
  <text x="60" y="100" fill="white" font-family="sans-serif" font-weight="bold" font-size="12" text-anchor="end" dominant-baseline="middle">ba</text>
  <text x="60" y="135" fill="white" font-family="sans-serif" font-weight="bold" font-size="12" text-anchor="end" dominant-baseline="middle">det</text>
  <text x="60" y="170" fill="white" font-family="sans-serif" font-weight="bold" font-size="12" text-anchor="end" dominant-baseline="middle">gmm</text>
  <text x="60" y="205" fill="white" font-family="sans-serif" font-weight="bold" font-size="12" text-anchor="end" dominant-baseline="middle">hello</text>
  <text x="60" y="240" fill="white" font-family="sans-serif" font-weight="bold" font-size="12" text-anchor="end" dominant-baseline="middle">ht</text>
  <text x="60" y="275" fill="white" font-family="sans-serif" font-weight="bold" font-size="12" text-anchor="end" dominant-baseline="middle">kmeans</text>
  <text x="60" y="310" fill="white" font-family="sans-serif" font-weight="bold" font-size="12" text-anchor="end" dominant-baseline="middle">llsq</text>
  <text x="60" y="345" fill="white" font-family="sans-serif" font-weight="bold" font-size="12" text-anchor="end" dominant-baseline="middle">lse</text>
  <text x="60" y="380" fill="white" font-family="sans-serif" font-weight="bold" font-size="12" text-anchor="end" dominant-baseline="middle">lstm</text>
  <text x="60" y="415" fill="white" font-family="sans-serif" font-weight="bold" font-size="12" text-anchor="end" dominant-baseline="middle">ode</text>
  <text x="60" y="450" fill="white" font-family="sans-serif" font-weight="bold" font-size="12" text-anchor="end" dominant-baseline="middle">particle</text>
  <text x="60" y="485" fill="white" font-family="sans-serif" font-weight="bold" font-size="12" text-anchor="end" dominant-baseline="middle">saddle</text>
  <text x="80" y="80" fill="white" font-family="sans-serif" font-weight="bold" font-size="12" text-anchor="end" dominant-baseline="middle" transform="rotate(90 80 80)">ad-hpp</text>
  <text x="115" y="80" fill="white" font-family="sans-serif" font-weight="bold" font-size="12" text-anchor="end" dominant-baseline="middle" transform="rotate(90 115 80)">adept</text>
  <text x="150" y="80" fill="white" font-family="sans-serif" font-weight="bold" font-size="12" text-anchor="end" dominant-baseline="middle" transform="rotate(90 150 80)">adol-c</text>
  <text x="185" y="80" fill="white" font-family="sans-serif" font-weight="bold" font-size="12" text-anchor="end" dominant-baseline="middle" transform="rotate(90 185 80)">codipack</text>
  <text x="220" y="80" fill="white" font-family="sans-serif" font-weight="bold" font-size="12" text-anchor="end" dominant-baseline="middle" transform="rotate(90 220 80)">cppad</text>
  <text x="255" y="80" fill="white" font-family="sans-serif" font-weight="bold" font-size="12" text-anchor="end" dominant-baseline="middle" transform="rotate(90 255 80)">enzyme</text>
  <text x="290" y="80" fill="white" font-family="sans-serif" font-weight="bold" font-size="12" text-anchor="end" dominant-baseline="middle" transform="rotate(90 290 80)">enzyme-jl</text>
  <text x="325" y="80" fill="white" font-family="sans-serif" font-weight="bold" font-size="12" text-anchor="end" dominant-baseline="middle" transform="rotate(90 325 80)">finite</text>
  <text x="360" y="80" fill="white" font-family="sans-serif" font-weight="bold" font-size="12" text-anchor="end" dominant-baseline="middle" transform="rotate(90 360 80)">floretta</text>
  <text x="395" y="80" fill="white" font-family="sans-serif" font-weight="bold" font-size="12" text-anchor="end" dominant-baseline="middle" transform="rotate(90 395 80)">forwarddiff-jl</text>
  <text x="430" y="80" fill="white" font-family="sans-serif" font-weight="bold" font-size="12" text-anchor="end" dominant-baseline="middle" transform="rotate(90 430 80)">futhark</text>
  <text x="465" y="80" fill="white" font-family="sans-serif" font-weight="bold" font-size="12" text-anchor="end" dominant-baseline="middle" transform="rotate(90 465 80)">haskell</text>
  <text x="500" y="80" fill="white" font-family="sans-serif" font-weight="bold" font-size="12" text-anchor="end" dominant-baseline="middle" transform="rotate(90 500 80)">jax</text>
  <text x="535" y="80" fill="white" font-family="sans-serif" font-weight="bold" font-size="12" text-anchor="end" dominant-baseline="middle" transform="rotate(90 535 80)">manual</text>
  <text x="570" y="80" fill="white" font-family="sans-serif" font-weight="bold" font-size="12" text-anchor="end" dominant-baseline="middle" transform="rotate(90 570 80)">mooncake-jl</text>
  <text x="605" y="80" fill="white" font-family="sans-serif" font-weight="bold" font-size="12" text-anchor="end" dominant-baseline="middle" transform="rotate(90 605 80)">ocaml</text>
  <text x="640" y="80" fill="white" font-family="sans-serif" font-weight="bold" font-size="12" text-anchor="end" dominant-baseline="middle" transform="rotate(90 640 80)">pytorch</text>
  <text x="675" y="80" fill="white" font-family="sans-serif" font-weight="bold" font-size="12" text-anchor="end" dominant-baseline="middle" transform="rotate(90 675 80)">reversediff-jl</text>
  <text x="710" y="80" fill="white" font-family="sans-serif" font-weight="bold" font-size="12" text-anchor="end" dominant-baseline="middle" transform="rotate(90 710 80)">scilean</text>
  <text x="745" y="80" fill="white" font-family="sans-serif" font-weight="bold" font-size="12" text-anchor="end" dominant-baseline="middle" transform="rotate(90 745 80)">tapenade</text>
  <text x="780" y="80" fill="white" font-family="sans-serif" font-weight="bold" font-size="12" text-anchor="end" dominant-baseline="middle" transform="rotate(90 780 80)">tensorflow</text>
  <text x="815" y="80" fill="white" font-family="sans-serif" font-weight="bold" font-size="12" text-anchor="end" dominant-baseline="middle" transform="rotate(90 815 80)">tensorflow-js</text>
  <text x="850" y="80" fill="white" font-family="sans-serif" font-weight="bold" font-size="12" text-anchor="end" dominant-baseline="middle" transform="rotate(90 850 80)">zygote</text>
  <rect x="65" y="85" width="30" height="30" fill="hsl(240 100% 80.66460875119301%)" />
  <rect x="100" y="85" width="30" height="30" fill="hsl(240 100% 82.34993231964958%)" />
  <rect x="135" y="85" width="30" height="30" fill="hsl(240 100% 97.92243173701148%)" />
  <rect x="170" y="85" width="30" height="30" fill="hsl(240 100% 81.62408668875105%)" />
  <rect x="205" y="85" width="30" height="30" fill="hsl(240 100% 98.95238385382724%)" />
  <rect x="240" y="85" width="30" height="30" fill="hsl(240 100% 50%)" />
  <rect x="310" y="85" width="30" height="30" fill="hsl(240 100% 92.90545662182446%)" />
  <rect x="415" y="85" width="30" height="30" fill="hsl(240 100% 67.03610730023269%)" />
  <rect x="520" y="85" width="30" height="30" fill="hsl(240 100% 53.845868745306%)" />
  <rect x="625" y="85" width="30" height="30" fill="rgb(255 255 255 / 50%)" />
  <rect x="730" y="85" width="30" height="30" fill="hsl(240 100% 73.93860927294891%)" />
  <rect x="765" y="85" width="30" height="30" fill="rgb(255 255 255 / 50%)" />
  <rect x="835" y="85" width="30" height="30" fill="hsl(240 100% 99.73890922974184%)" />
  <rect x="65" y="120" width="30" height="30" fill="hsl(240 100% 50%)" />
  <rect x="100" y="120" width="30" height="30" fill="hsl(240 100% 87.34544107665538%)" />
  <rect x="135" y="120" width="30" height="30" fill="hsl(240 100% 85.32824607322956%)" />
  <rect x="170" y="120" width="30" height="30" fill="hsl(240 100% 51.10721462471094%)" />
  <rect x="205" y="120" width="30" height="30" fill="hsl(240 100% 92.57121413819553%)" />
  <rect x="240" y="120" width="30" height="30" fill="hsl(240 100% 91.39974917582543%)" />
  <rect x="275" y="120" width="30" height="30" fill="hsl(240 100% 99.33855271576442%)" />
  <rect x="310" y="120" width="30" height="30" fill="hsl(240 100% 98.9817394820129%)" />
  <rect x="380" y="120" width="30" height="30" fill="hsl(240 100% 93.30348676398341%)" />
  <rect x="415" y="120" width="30" height="30" fill="hsl(240 100% 94.52068884092475%)" />
  <rect x="450" y="120" width="30" height="30" fill="hsl(240 100% 97.90885574135862%)" />
  <rect x="520" y="120" width="30" height="30" fill="hsl(240 100% 79.28517704525453%)" />
  <rect x="555" y="120" width="30" height="30" fill="hsl(240 100% 90.1446863445639%)" />
  <rect x="660" y="120" width="30" height="30" fill="rgb(255 255 255 / 50%)" />
  <rect x="835" y="120" width="30" height="30" fill="rgb(255 255 255 / 50%)" />
  <rect x="65" y="155" width="30" height="30" fill="hsl(240 100% 98.05066951857614%)" />
  <rect x="100" y="155" width="30" height="30" fill="hsl(240 100% 98.85973905573614%)" />
  <rect x="135" y="155" width="30" height="30" fill="hsl(240 100% 99.31074731565911%)" />
  <rect x="170" y="155" width="30" height="30" fill="hsl(240 100% 98.09490464409383%)" />
  <rect x="205" y="155" width="30" height="30" fill="hsl(240 100% 99.84496477716837%)" />
  <rect x="240" y="155" width="30" height="30" fill="hsl(240 100% 95.20064684453551%)" />
  <rect x="275" y="155" width="30" height="30" fill="hsl(240 100% 94.62735215138183%)" />
  <rect x="310" y="155" width="30" height="30" fill="rgb(255 255 255 / 50%)" />
  <rect x="415" y="155" width="30" height="30" fill="hsl(240 100% 92.76885934937769%)" />
  <rect x="485" y="155" width="30" height="30" fill="hsl(240 100% 50%)" />
  <rect x="520" y="155" width="30" height="30" fill="hsl(240 100% 80.60762029907288%)" />
  <rect x="590" y="155" width="30" height="30" fill="hsl(240 100% 99.5676601642964%)" />
  <rect x="625" y="155" width="30" height="30" fill="hsl(240 100% 63.93531969469439%)" />
  <rect x="695" y="155" width="30" height="30" fill="hsl(240 100% 95.90411430025898%)" />
  <rect x="730" y="155" width="30" height="30" fill="hsl(240 100% 83.45954881132833%)" />
  <rect x="765" y="155" width="30" height="30" fill="hsl(240 100% 99.46487473888807%)" />
  <rect x="835" y="155" width="30" height="30" fill="hsl(240 100% 95.82250655889617%)" />
  <rect x="65" y="190" width="30" height="30" fill="hsl(240 100% 50%)" />
  <rect x="100" y="190" width="30" height="30" fill="hsl(240 100% 50%)" />
  <rect x="135" y="190" width="30" height="30" fill="hsl(240 100% 50%)" />
  <rect x="170" y="190" width="30" height="30" fill="hsl(240 100% 50%)" />
  <rect x="205" y="190" width="30" height="30" fill="hsl(240 100% 50%)" />
  <rect x="240" y="190" width="30" height="30" fill="hsl(240 100% 50%)" />
  <rect x="275" y="190" width="30" height="30" fill="hsl(240 100% 50%)" />
  <rect x="310" y="190" width="30" height="30" fill="hsl(240 100% 50%)" />
  <rect x="345" y="190" width="30" height="30" fill="hsl(240 100% 50%)" />
  <rect x="380" y="190" width="30" height="30" fill="hsl(240 100% 50%)" />
  <rect x="415" y="190" width="30" height="30" fill="hsl(240 100% 50%)" />
  <rect x="450" y="190" width="30" height="30" fill="hsl(240 100% 50%)" />
  <rect x="485" y="190" width="30" height="30" fill="hsl(240 100% 50%)" />
  <rect x="520" y="190" width="30" height="30" fill="hsl(240 100% 50%)" />
  <rect x="555" y="190" width="30" height="30" fill="hsl(240 100% 50%)" />
  <rect x="590" y="190" width="30" height="30" fill="hsl(240 100% 50%)" />
  <rect x="625" y="190" width="30" height="30" fill="hsl(240 100% 50%)" />
  <rect x="660" y="190" width="30" height="30" fill="hsl(240 100% 50%)" />
  <rect x="695" y="190" width="30" height="30" fill="hsl(240 100% 50%)" />
  <rect x="730" y="190" width="30" height="30" fill="hsl(240 100% 50%)" />
  <rect x="765" y="190" width="30" height="30" fill="hsl(240 100% 50%)" />
  <rect x="800" y="190" width="30" height="30" fill="hsl(240 100% 50%)" />
  <rect x="835" y="190" width="30" height="30" fill="hsl(240 100% 50%)" />
  <rect x="100" y="225" width="30" height="30" fill="hsl(240 100% 97.1047859532339%)" />
  <rect x="135" y="225" width="30" height="30" fill="hsl(240 100% 89.49679380392888%)" />
  <rect x="170" y="225" width="30" height="30" fill="hsl(240 100% 90.68276242332293%)" />
  <rect x="240" y="225" width="30" height="30" fill="hsl(240 100% 92.51091569076748%)" />
  <rect x="310" y="225" width="30" height="30" fill="rgb(255 255 255 / 50%)" />
  <rect x="415" y="225" width="30" height="30" fill="hsl(240 100% 91.73091038692078%)" />
  <rect x="520" y="225" width="30" height="30" fill="hsl(240 100% 50%)" />
  <rect x="625" y="225" width="30" height="30" fill="rgb(255 255 255 / 50%)" />
  <rect x="730" y="225" width="30" height="30" fill="hsl(240 100% 94.05120335909852%)" />
  <rect x="765" y="225" width="30" height="30" fill="rgb(255 255 255 / 50%)" />
  <rect x="835" y="225" width="30" height="30" fill="hsl(240 100% 95.53830216251947%)" />
  <rect x="65" y="260" width="30" height="30" fill="hsl(240 100% 99.89068509106399%)" />
  <rect x="135" y="260" width="30" height="30" fill="hsl(240 100% 99.91480737491537%)" />
  <rect x="170" y="260" width="30" height="30" fill="hsl(240 100% 99.00346663026082%)" />
  <rect x="205" y="260" width="30" height="30" fill="rgb(255 255 255 / 50%)" />
  <rect x="240" y="260" width="30" height="30" fill="hsl(240 100% 87.37460350293651%)" />
  <rect x="310" y="260" width="30" height="30" fill="rgb(255 255 255 / 50%)" />
  <rect x="415" y="260" width="30" height="30" fill="hsl(240 100% 81.05109276389557%)" />
  <rect x="450" y="260" width="30" height="30" fill="rgb(255 255 255 / 50%)" />
  <rect x="485" y="260" width="30" height="30" fill="hsl(240 100% 50%)" />
  <rect x="520" y="260" width="30" height="30" fill="hsl(240 100% 75.85988485332318%)" />
  <rect x="625" y="260" width="30" height="30" fill="hsl(240 100% 97.01425039560945%)" />
  <rect x="695" y="260" width="30" height="30" fill="hsl(240 100% 94.20613349760615%)" />
  <rect x="65" y="295" width="30" height="30" fill="hsl(240 100% 85.91856539633952%)" />
  <rect x="100" y="295" width="30" height="30" fill="hsl(240 100% 98.11351028555767%)" />
  <rect x="135" y="295" width="30" height="30" fill="hsl(240 100% 95.08743979508617%)" />
  <rect x="170" y="295" width="30" height="30" fill="hsl(240 100% 89.37513136980155%)" />
  <rect x="205" y="295" width="30" height="30" fill="hsl(240 100% 99.48465140304947%)" />
  <rect x="240" y="295" width="30" height="30" fill="hsl(240 100% 50.762164298608816%)" />
  <rect x="275" y="295" width="30" height="30" fill="hsl(240 100% 50%)" />
  <rect x="310" y="295" width="30" height="30" fill="hsl(240 100% 99.5000419608233%)" />
  <rect x="345" y="295" width="30" height="30" fill="hsl(240 100% 94.76744002270688%)" />
  <rect x="415" y="295" width="30" height="30" fill="hsl(240 100% 55.35688548256057%)" />
  <rect x="450" y="295" width="30" height="30" fill="hsl(240 100% 99.27656765130975%)" />
  <rect x="485" y="295" width="30" height="30" fill="hsl(240 100% 88.36004428043077%)" />
  <rect x="520" y="295" width="30" height="30" fill="hsl(240 100% 59.93294646216128%)" />
  <rect x="695" y="295" width="30" height="30" fill="hsl(240 100% 97.6105346352542%)" />
  <rect x="800" y="295" width="30" height="30" fill="hsl(240 100% 99.58867318438021%)" />
  <rect x="835" y="295" width="30" height="30" fill="hsl(240 100% 99.9551206061188%)" />
  <rect x="65" y="330" width="30" height="30" fill="hsl(240 100% 88.99662670373738%)" />
  <rect x="100" y="330" width="30" height="30" fill="hsl(240 100% 95.13458369908984%)" />
  <rect x="135" y="330" width="30" height="30" fill="hsl(240 100% 97.2062967143986%)" />
  <rect x="170" y="330" width="30" height="30" fill="hsl(240 100% 88.69616646993128%)" />
  <rect x="205" y="330" width="30" height="30" fill="hsl(240 100% 99.29891142893275%)" />
  <rect x="240" y="330" width="30" height="30" fill="hsl(240 100% 85.53387684797978%)" />
  <rect x="275" y="330" width="30" height="30" fill="hsl(240 100% 89.47468689261123%)" />
  <rect x="310" y="330" width="30" height="30" fill="rgb(255 255 255 / 50%)" />
  <rect x="345" y="330" width="30" height="30" fill="hsl(240 100% 97.49686355183557%)" />
  <rect x="415" y="330" width="30" height="30" fill="hsl(240 100% 87.54557612377002%)" />
  <rect x="450" y="330" width="30" height="30" fill="hsl(240 100% 99.83721727260404%)" />
  <rect x="485" y="330" width="30" height="30" fill="hsl(240 100% 74.86945028738418%)" />
  <rect x="520" y="330" width="30" height="30" fill="hsl(240 100% 74.08717850817574%)" />
  <rect x="590" y="330" width="30" height="30" fill="hsl(240 100% 95.39151064959444%)" />
  <rect x="625" y="330" width="30" height="30" fill="hsl(240 100% 50%)" />
  <rect x="765" y="330" width="30" height="30" fill="hsl(240 100% 95.04286123983564%)" />
  <rect x="800" y="330" width="30" height="30" fill="hsl(240 100% 99.32756664902264%)" />
  <rect x="835" y="330" width="30" height="30" fill="hsl(240 100% 82.60866884290877%)" />
  <rect x="65" y="365" width="30" height="30" fill="hsl(240 100% 56.99981447536197%)" />
  <rect x="100" y="365" width="30" height="30" fill="hsl(240 100% 75.1318314193027%)" />
  <rect x="135" y="365" width="30" height="30" fill="hsl(240 100% 81.77203619187108%)" />
  <rect x="170" y="365" width="30" height="30" fill="hsl(240 100% 50%)" />
  <rect x="205" y="365" width="30" height="30" fill="hsl(240 100% 96.04927093922063%)" />
  <rect x="240" y="365" width="30" height="30" fill="hsl(240 100% 58.98993451974649%)" />
  <rect x="275" y="365" width="30" height="30" fill="hsl(240 100% 92.3309473430742%)" />
  <rect x="310" y="365" width="30" height="30" fill="hsl(240 100% 99.86017764015872%)" />
  <rect x="415" y="365" width="30" height="30" fill="hsl(240 100% 66.1751011538536%)" />
  <rect x="520" y="365" width="30" height="30" fill="hsl(240 100% 86.6716203583825%)" />
  <rect x="625" y="365" width="30" height="30" fill="hsl(240 100% 99.62462458237083%)" />
  <rect x="730" y="365" width="30" height="30" fill="hsl(240 100% 58.25625983689243%)" />
  <rect x="765" y="365" width="30" height="30" fill="hsl(240 100% 98.16781475280645%)" />
  <rect x="835" y="365" width="30" height="30" fill="hsl(240 100% 98.73640984397923%)" />
  <rect x="65" y="400" width="30" height="30" fill="hsl(240 100% 96.30400222372332%)" />
  <rect x="100" y="400" width="30" height="30" fill="hsl(240 100% 98.98512322998148%)" />
  <rect x="135" y="400" width="30" height="30" fill="hsl(240 100% 99.41844441101266%)" />
  <rect x="170" y="400" width="30" height="30" fill="hsl(240 100% 87.81336378559615%)" />
  <rect x="205" y="400" width="30" height="30" fill="hsl(240 100% 98.42415127807374%)" />
  <rect x="240" y="400" width="30" height="30" fill="hsl(240 100% 71.22501925818221%)" />
  <rect x="275" y="400" width="30" height="30" fill="hsl(240 100% 90.26531487189665%)" />
  <rect x="310" y="400" width="30" height="30" fill="rgb(255 255 255 / 50%)" />
  <rect x="380" y="400" width="30" height="30" fill="rgb(255 255 255 / 50%)" />
  <rect x="415" y="400" width="30" height="30" fill="hsl(240 100% 87.59215030942934%)" />
  <rect x="450" y="400" width="30" height="30" fill="hsl(240 100% 99.94769461313382%)" />
  <rect x="485" y="400" width="30" height="30" fill="hsl(240 100% 55.64514623181481%)" />
  <rect x="520" y="400" width="30" height="30" fill="hsl(240 100% 50%)" />
  <rect x="555" y="400" width="30" height="30" fill="hsl(240 100% 98.24964846983416%)" />
  <rect x="660" y="400" width="30" height="30" fill="rgb(255 255 255 / 50%)" />
  <rect x="835" y="400" width="30" height="30" fill="hsl(240 100% 97.96921858008096%)" />
  <rect x="65" y="435" width="30" height="30" fill="hsl(240 100% 93.29412032473685%)" />
  <rect x="240" y="435" width="30" height="30" fill="hsl(240 100% 50%)" />
  <rect x="310" y="435" width="30" height="30" fill="hsl(240 100% 93.85515433304357%)" />
  <rect x="415" y="435" width="30" height="30" fill="hsl(240 100% 87.00575921808326%)" />
  <rect x="450" y="435" width="30" height="30" fill="hsl(240 100% 99.80586200198545%)" />
  <rect x="65" y="470" width="30" height="30" fill="hsl(240 100% 50.08949136581704%)" />
  <rect x="240" y="470" width="30" height="30" fill="hsl(240 100% 50%)" />
  <rect x="310" y="470" width="30" height="30" fill="hsl(240 100% 96.99437093654497%)" />
  <rect x="415" y="470" width="30" height="30" fill="hsl(240 100% 89.03193353919981%)" />
  <rect x="450" y="470" width="30" height="30" fill="hsl(240 100% 99.49404416424808%)" />
</svg>
