<svg xmlns="http://www.w3.org/2000/svg" viewBox="0 0 905 505">
  <rect x="0" y="0" width="905" height="505" rx="5" ry="5" fill="#222" />
  <text x="60" y="100" fill="white" font-family="sans-serif" font-weight="bold" font-size="12" text-anchor="end" dominant-baseline="middle">ba</text>
  <text x="60" y="135" fill="white" font-family="sans-serif" font-weight="bold" font-size="12" text-anchor="end" dominant-baseline="middle">det</text>
  <text x="60" y="170" fill="white" font-family="sans-serif" font-weight="bold" font-size="12" text-anchor="end" dominant-baseline="middle">gmm</text>
  <text x="60" y="205" fill="white" font-family="sans-serif" font-weight="bold" font-size="12" text-anchor="end" dominant-baseline="middle">hello</text>
  <text x="60" y="240" fill="white" font-family="sans-serif" font-weight="bold" font-size="12" text-anchor="end" dominant-baseline="middle">ht</text>
  <text x="60" y="275" fill="white" font-family="sans-serif" font-weight="bold" font-size="12" text-anchor="end" dominant-baseline="middle">kmeans</text>
  <text x="60" y="310" fill="white" font-family="sans-serif" font-weight="bold" font-size="12" text-anchor="end" dominant-baseline="middle">llsq</text>
  <text x="60" y="345" fill="white" font-family="sans-serif" font-weight="bold" font-size="12" text-anchor="end" dominant-baseline="middle">lse</text>
  <text x="60" y="380" fill="white" font-family="sans-serif" font-weight="bold" font-size="12" text-anchor="end" dominant-baseline="middle">lstm</text>
  <text x="60" y="415" fill="white" font-family="sans-serif" font-weight="bold" font-size="12" text-anchor="end" dominant-baseline="middle">ode</text>
  <text x="60" y="450" fill="white" font-family="sans-serif" font-weight="bold" font-size="12" text-anchor="end" dominant-baseline="middle">particle</text>
  <text x="60" y="485" fill="white" font-family="sans-serif" font-weight="bold" font-size="12" text-anchor="end" dominant-baseline="middle">saddle</text>
  <text x="80" y="80" fill="white" font-family="sans-serif" font-weight="bold" font-size="12" text-anchor="end" dominant-baseline="middle" transform="rotate(90 80 80)">ad-hpp</text>
  <text x="115" y="80" fill="white" font-family="sans-serif" font-weight="bold" font-size="12" text-anchor="end" dominant-baseline="middle" transform="rotate(90 115 80)">adept</text>
  <text x="150" y="80" fill="white" font-family="sans-serif" font-weight="bold" font-size="12" text-anchor="end" dominant-baseline="middle" transform="rotate(90 150 80)">adol-c</text>
  <text x="185" y="80" fill="white" font-family="sans-serif" font-weight="bold" font-size="12" text-anchor="end" dominant-baseline="middle" transform="rotate(90 185 80)">codipack</text>
  <text x="220" y="80" fill="white" font-family="sans-serif" font-weight="bold" font-size="12" text-anchor="end" dominant-baseline="middle" transform="rotate(90 220 80)">cppad</text>
  <text x="255" y="80" fill="white" font-family="sans-serif" font-weight="bold" font-size="12" text-anchor="end" dominant-baseline="middle" transform="rotate(90 255 80)">enzyme</text>
  <text x="290" y="80" fill="white" font-family="sans-serif" font-weight="bold" font-size="12" text-anchor="end" dominant-baseline="middle" transform="rotate(90 290 80)">enzyme-jl</text>
  <text x="325" y="80" fill="white" font-family="sans-serif" font-weight="bold" font-size="12" text-anchor="end" dominant-baseline="middle" transform="rotate(90 325 80)">finite</text>
  <text x="360" y="80" fill="white" font-family="sans-serif" font-weight="bold" font-size="12" text-anchor="end" dominant-baseline="middle" transform="rotate(90 360 80)">floretta</text>
  <text x="395" y="80" fill="white" font-family="sans-serif" font-weight="bold" font-size="12" text-anchor="end" dominant-baseline="middle" transform="rotate(90 395 80)">forwarddiff-jl</text>
  <text x="430" y="80" fill="white" font-family="sans-serif" font-weight="bold" font-size="12" text-anchor="end" dominant-baseline="middle" transform="rotate(90 430 80)">futhark</text>
  <text x="465" y="80" fill="white" font-family="sans-serif" font-weight="bold" font-size="12" text-anchor="end" dominant-baseline="middle" transform="rotate(90 465 80)">haskell-ad</text>
  <text x="500" y="80" fill="white" font-family="sans-serif" font-weight="bold" font-size="12" text-anchor="end" dominant-baseline="middle" transform="rotate(90 500 80)">horde-ad</text>
  <text x="535" y="80" fill="white" font-family="sans-serif" font-weight="bold" font-size="12" text-anchor="end" dominant-baseline="middle" transform="rotate(90 535 80)">jax</text>
  <text x="570" y="80" fill="white" font-family="sans-serif" font-weight="bold" font-size="12" text-anchor="end" dominant-baseline="middle" transform="rotate(90 570 80)">manual</text>
  <text x="605" y="80" fill="white" font-family="sans-serif" font-weight="bold" font-size="12" text-anchor="end" dominant-baseline="middle" transform="rotate(90 605 80)">mooncake-jl</text>
  <text x="640" y="80" fill="white" font-family="sans-serif" font-weight="bold" font-size="12" text-anchor="end" dominant-baseline="middle" transform="rotate(90 640 80)">ocaml</text>
  <text x="675" y="80" fill="white" font-family="sans-serif" font-weight="bold" font-size="12" text-anchor="end" dominant-baseline="middle" transform="rotate(90 675 80)">pytorch</text>
  <text x="710" y="80" fill="white" font-family="sans-serif" font-weight="bold" font-size="12" text-anchor="end" dominant-baseline="middle" transform="rotate(90 710 80)">reversediff-jl</text>
  <text x="745" y="80" fill="white" font-family="sans-serif" font-weight="bold" font-size="12" text-anchor="end" dominant-baseline="middle" transform="rotate(90 745 80)">scilean</text>
  <text x="780" y="80" fill="white" font-family="sans-serif" font-weight="bold" font-size="12" text-anchor="end" dominant-baseline="middle" transform="rotate(90 780 80)">tapenade</text>
  <text x="815" y="80" fill="white" font-family="sans-serif" font-weight="bold" font-size="12" text-anchor="end" dominant-baseline="middle" transform="rotate(90 815 80)">tensorflow</text>
  <text x="850" y="80" fill="white" font-family="sans-serif" font-weight="bold" font-size="12" text-anchor="end" dominant-baseline="middle" transform="rotate(90 850 80)">tensorflow-js</text>
  <text x="885" y="80" fill="white" font-family="sans-serif" font-weight="bold" font-size="12" text-anchor="end" dominant-baseline="middle" transform="rotate(90 885 80)">zygote</text>
  <rect x="65" y="85" width="30" height="30" fill="hsl(240 100% 82.3865613729868%)" />
  <rect x="100" y="85" width="30" height="30" fill="hsl(240 100% 83.49600898922854%)" />
  <rect x="135" y="85" width="30" height="30" fill="hsl(240 100% 97.01787160880089%)" />
  <rect x="170" y="85" width="30" height="30" fill="hsl(240 100% 81.76874803694975%)" />
  <rect x="205" y="85" width="30" height="30" fill="hsl(240 100% 99.04810051020459%)" />
  <rect x="240" y="85" width="30" height="30" fill="hsl(240 100% 50%)" />
  <rect x="310" y="85" width="30" height="30" fill="hsl(240 100% 93.51747467629339%)" />
  <rect x="415" y="85" width="30" height="30" fill="hsl(240 100% 69.86738817163636%)" />
  <rect x="555" y="85" width="30" height="30" fill="hsl(240 100% 52.568231347051295%)" />
  <rect x="660" y="85" width="30" height="30" fill="rgb(255 255 255 / 50%)" />
  <rect x="765" y="85" width="30" height="30" fill="hsl(240 100% 76.11834586905118%)" />
  <rect x="800" y="85" width="30" height="30" fill="rgb(255 255 255 / 50%)" />
  <rect x="870" y="85" width="30" height="30" fill="hsl(240 100% 99.77805839144918%)" />
  <rect x="65" y="120" width="30" height="30" fill="hsl(240 100% 50%)" />
  <rect x="100" y="120" width="30" height="30" fill="hsl(240 100% 82.0087812308421%)" />
  <rect x="135" y="120" width="30" height="30" fill="hsl(240 100% 85.07587387194124%)" />
  <rect x="170" y="120" width="30" height="30" fill="hsl(240 100% 59.646721005788464%)" />
  <rect x="205" y="120" width="30" height="30" fill="hsl(240 100% 92.13992532469379%)" />
  <rect x="240" y="120" width="30" height="30" fill="hsl(240 100% 91.9669742400919%)" />
  <rect x="275" y="120" width="30" height="30" fill="hsl(240 100% 99.49112591976156%)" />
  <rect x="310" y="120" width="30" height="30" fill="hsl(240 100% 99.01428212689079%)" />
  <rect x="380" y="120" width="30" height="30" fill="hsl(240 100% 93.55076540958491%)" />
  <rect x="415" y="120" width="30" height="30" fill="hsl(240 100% 95.2861674315301%)" />
  <rect x="450" y="120" width="30" height="30" fill="hsl(240 100% 97.60029174585974%)" />
  <rect x="485" y="120" width="30" height="30" fill="hsl(240 100% 97.39826553952965%)" />
  <rect x="555" y="120" width="30" height="30" fill="hsl(240 100% 67.29258600823793%)" />
  <rect x="590" y="120" width="30" height="30" fill="hsl(240 100% 95.93120120434874%)" />
  <rect x="695" y="120" width="30" height="30" fill="rgb(255 255 255 / 50%)" />
  <rect x="870" y="120" width="30" height="30" fill="rgb(255 255 255 / 50%)" />
  <rect x="65" y="155" width="30" height="30" fill="hsl(240 100% 98.45875185240271%)" />
  <rect x="100" y="155" width="30" height="30" fill="hsl(240 100% 98.73678401313173%)" />
  <rect x="135" y="155" width="30" height="30" fill="hsl(240 100% 99.05286506121459%)" />
  <rect x="170" y="155" width="30" height="30" fill="hsl(240 100% 97.91735663023114%)" />
  <rect x="205" y="155" width="30" height="30" fill="hsl(240 100% 99.84923259851986%)" />
  <rect x="240" y="155" width="30" height="30" fill="hsl(240 100% 97.07235988611522%)" />
  <rect x="275" y="155" width="30" height="30" fill="hsl(240 100% 90.19967084541436%)" />
  <rect x="310" y="155" width="30" height="30" fill="rgb(255 255 255 / 50%)" />
  <rect x="415" y="155" width="30" height="30" fill="hsl(240 100% 92.94872017492689%)" />
  <rect x="485" y="155" width="30" height="30" fill="hsl(240 100% 98.37532864274097%)" />
  <rect x="520" y="155" width="30" height="30" fill="hsl(240 100% 50%)" />
  <rect x="555" y="155" width="30" height="30" fill="hsl(240 100% 81.65365467228939%)" />
  <rect x="590" y="155" width="30" height="30" fill="hsl(240 100% 95.66752854044678%)" />
  <rect x="625" y="155" width="30" height="30" fill="hsl(240 100% 99.60222716717509%)" />
  <rect x="660" y="155" width="30" height="30" fill="hsl(240 100% 67.2511598088536%)" />
  <rect x="730" y="155" width="30" height="30" fill="hsl(240 100% 94.95632017034065%)" />
  <rect x="765" y="155" width="30" height="30" fill="hsl(240 100% 83.86605553829276%)" />
  <rect x="800" y="155" width="30" height="30" fill="hsl(240 100% 99.58296263623507%)" />
  <rect x="870" y="155" width="30" height="30" fill="hsl(240 100% 95.84078573399171%)" />
  <rect x="65" y="190" width="30" height="30" fill="hsl(240 100% 50%)" />
  <rect x="100" y="190" width="30" height="30" fill="hsl(240 100% 50%)" />
  <rect x="135" y="190" width="30" height="30" fill="hsl(240 100% 50%)" />
  <rect x="170" y="190" width="30" height="30" fill="hsl(240 100% 50%)" />
  <rect x="205" y="190" width="30" height="30" fill="hsl(240 100% 50%)" />
  <rect x="240" y="190" width="30" height="30" fill="hsl(240 100% 50%)" />
  <rect x="275" y="190" width="30" height="30" fill="hsl(240 100% 50%)" />
  <rect x="310" y="190" width="30" height="30" fill="hsl(240 100% 50%)" />
  <rect x="345" y="190" width="30" height="30" fill="hsl(240 100% 50%)" />
  <rect x="380" y="190" width="30" height="30" fill="hsl(240 100% 50%)" />
  <rect x="415" y="190" width="30" height="30" fill="hsl(240 100% 50%)" />
  <rect x="450" y="190" width="30" height="30" fill="hsl(240 100% 50%)" />
  <rect x="485" y="190" width="30" height="30" fill="hsl(240 100% 50%)" />
  <rect x="520" y="190" width="30" height="30" fill="hsl(240 100% 50%)" />
  <rect x="555" y="190" width="30" height="30" fill="hsl(240 100% 50%)" />
  <rect x="590" y="190" width="30" height="30" fill="hsl(240 100% 50%)" />
  <rect x="625" y="190" width="30" height="30" fill="hsl(240 100% 50%)" />
  <rect x="660" y="190" width="30" height="30" fill="hsl(240 100% 50%)" />
  <rect x="695" y="190" width="30" height="30" fill="hsl(240 100% 50%)" />
  <rect x="730" y="190" width="30" height="30" fill="hsl(240 100% 50%)" />
  <rect x="765" y="190" width="30" height="30" fill="hsl(240 100% 50%)" />
  <rect x="800" y="190" width="30" height="30" fill="hsl(240 100% 50%)" />
  <rect x="835" y="190" width="30" height="30" fill="hsl(240 100% 50%)" />
  <rect x="870" y="190" width="30" height="30" fill="hsl(240 100% 50%)" />
  <rect x="100" y="225" width="30" height="30" fill="hsl(240 100% 96.24897399592425%)" />
  <rect x="135" y="225" width="30" height="30" fill="hsl(240 100% 85.7098011684909%)" />
  <rect x="170" y="225" width="30" height="30" fill="hsl(240 100% 88.14239806646239%)" />
  <rect x="240" y="225" width="30" height="30" fill="hsl(240 100% 91.57443954377621%)" />
  <rect x="310" y="225" width="30" height="30" fill="rgb(255 255 255 / 50%)" />
  <rect x="415" y="225" width="30" height="30" fill="hsl(240 100% 89.12714018634294%)" />
  <rect x="555" y="225" width="30" height="30" fill="hsl(240 100% 50%)" />
  <rect x="660" y="225" width="30" height="30" fill="rgb(255 255 255 / 50%)" />
  <rect x="765" y="225" width="30" height="30" fill="hsl(240 100% 92.33256037347881%)" />
  <rect x="800" y="225" width="30" height="30" fill="rgb(255 255 255 / 50%)" />
  <rect x="870" y="225" width="30" height="30" fill="hsl(240 100% 94.0958070992351%)" />
  <rect x="135" y="260" width="30" height="30" fill="hsl(240 100% 99.85825767824706%)" />
  <rect x="170" y="260" width="30" height="30" fill="hsl(240 100% 98.79145108620006%)" />
  <rect x="205" y="260" width="30" height="30" fill="rgb(255 255 255 / 50%)" />
  <rect x="240" y="260" width="30" height="30" fill="hsl(240 100% 74.92256519319662%)" />
  <rect x="310" y="260" width="30" height="30" fill="rgb(255 255 255 / 50%)" />
  <rect x="380" y="260" width="30" height="30" fill="rgb(255 255 255 / 50%)" />
  <rect x="415" y="260" width="30" height="30" fill="hsl(240 100% 84.52678384045677%)" />
  <rect x="450" y="260" width="30" height="30" fill="rgb(255 255 255 / 50%)" />
  <rect x="485" y="260" width="30" height="30" fill="hsl(240 100% 99.18636731294193%)" />
  <rect x="520" y="260" width="30" height="30" fill="hsl(240 100% 50%)" />
  <rect x="555" y="260" width="30" height="30" fill="hsl(240 100% 72.19211699729587%)" />
  <rect x="660" y="260" width="30" height="30" fill="hsl(240 100% 96.92004260220195%)" />
  <rect x="695" y="260" width="30" height="30" fill="rgb(255 255 255 / 50%)" />
  <rect x="730" y="260" width="30" height="30" fill="hsl(240 100% 91.09016697607392%)" />
  <rect x="65" y="295" width="30" height="30" fill="hsl(240 100% 87.41457102379421%)" />
  <rect x="100" y="295" width="30" height="30" fill="hsl(240 100% 97.21725816068668%)" />
  <rect x="135" y="295" width="30" height="30" fill="hsl(240 100% 93.888096547724%)" />
  <rect x="170" y="295" width="30" height="30" fill="hsl(240 100% 89.342886728002%)" />
  <rect x="205" y="295" width="30" height="30" fill="hsl(240 100% 99.47511367022493%)" />
  <rect x="240" y="295" width="30" height="30" fill="hsl(240 100% 50%)" />
  <rect x="275" y="295" width="30" height="30" fill="hsl(240 100% 53.328090894114744%)" />
  <rect x="310" y="295" width="30" height="30" fill="hsl(240 100% 99.49310058263472%)" />
  <rect x="345" y="295" width="30" height="30" fill="hsl(240 100% 94.69810194727752%)" />
  <rect x="415" y="295" width="30" height="30" fill="hsl(240 100% 54.44753396302088%)" />
  <rect x="450" y="295" width="30" height="30" fill="hsl(240 100% 99.11575719481256%)" />
  <rect x="485" y="295" width="30" height="30" fill="hsl(240 100% 96.23538988647148%)" />
  <rect x="520" y="295" width="30" height="30" fill="hsl(240 100% 84.77761709280833%)" />
  <rect x="555" y="295" width="30" height="30" fill="hsl(240 100% 57.929351492479746%)" />
  <rect x="590" y="295" width="30" height="30" fill="hsl(240 100% 90.81235893589799%)" />
  <rect x="730" y="295" width="30" height="30" fill="hsl(240 100% 97.45218070682888%)" />
  <rect x="835" y="295" width="30" height="30" fill="hsl(240 100% 99.56053609534618%)" />
  <rect x="870" y="295" width="30" height="30" fill="hsl(240 100% 99.9618409688526%)" />
  <rect x="65" y="330" width="30" height="30" fill="hsl(240 100% 88.27005534248273%)" />
  <rect x="100" y="330" width="30" height="30" fill="hsl(240 100% 94.58317823212654%)" />
  <rect x="135" y="330" width="30" height="30" fill="hsl(240 100% 96.21384912059085%)" />
  <rect x="170" y="330" width="30" height="30" fill="hsl(240 100% 88.05164462975954%)" />
  <rect x="205" y="330" width="30" height="30" fill="hsl(240 100% 99.26801090150016%)" />
  <rect x="240" y="330" width="30" height="30" fill="hsl(240 100% 80.69803205814318%)" />
  <rect x="275" y="330" width="30" height="30" fill="hsl(240 100% 87.93023559374075%)" />
  <rect x="310" y="330" width="30" height="30" fill="rgb(255 255 255 / 50%)" />
  <rect x="345" y="330" width="30" height="30" fill="hsl(240 100% 97.31684308583034%)" />
  <rect x="415" y="330" width="30" height="30" fill="hsl(240 100% 86.88120344322253%)" />
  <rect x="450" y="330" width="30" height="30" fill="hsl(240 100% 99.81344383331879%)" />
  <rect x="485" y="330" width="30" height="30" fill="hsl(240 100% 90.39609391306944%)" />
  <rect x="520" y="330" width="30" height="30" fill="hsl(240 100% 73.99671305082464%)" />
  <rect x="555" y="330" width="30" height="30" fill="hsl(240 100% 73.03889968052734%)" />
  <rect x="590" y="330" width="30" height="30" fill="hsl(240 100% 92.81291230820133%)" />
  <rect x="625" y="330" width="30" height="30" fill="hsl(240 100% 94.48932332150642%)" />
  <rect x="660" y="330" width="30" height="30" fill="hsl(240 100% 50%)" />
  <rect x="800" y="330" width="30" height="30" fill="hsl(240 100% 95.0789952281929%)" />
  <rect x="835" y="330" width="30" height="30" fill="hsl(240 100% 99.23167501777503%)" />
  <rect x="870" y="330" width="30" height="30" fill="hsl(240 100% 96.7909288414502%)" />
  <rect x="65" y="365" width="30" height="30" fill="hsl(240 100% 50%)" />
  <rect x="100" y="365" width="30" height="30" fill="hsl(240 100% 72.88774965462555%)" />
  <rect x="135" y="365" width="30" height="30" fill="hsl(240 100% 78.74691733128248%)" />
  <rect x="170" y="365" width="30" height="30" fill="hsl(240 100% 54.83489546497103%)" />
  <rect x="205" y="365" width="30" height="30" fill="hsl(240 100% 96.38701628059806%)" />
  <rect x="240" y="365" width="30" height="30" fill="hsl(240 100% 63.694923842687686%)" />
  <rect x="275" y="365" width="30" height="30" fill="hsl(240 100% 91.00512722744935%)" />
  <rect x="310" y="365" width="30" height="30" fill="hsl(240 100% 99.87504317573088%)" />
  <rect x="415" y="365" width="30" height="30" fill="hsl(240 100% 69.9368340049205%)" />
  <rect x="485" y="365" width="30" height="30" fill="hsl(240 100% 99.58819500246909%)" />
  <rect x="555" y="365" width="30" height="30" fill="hsl(240 100% 87.45164875904726%)" />
  <rect x="590" y="365" width="30" height="30" fill="hsl(240 100% 96.52283548261093%)" />
  <rect x="660" y="365" width="30" height="30" fill="hsl(240 100% 99.67785210099758%)" />
  <rect x="765" y="365" width="30" height="30" fill="hsl(240 100% 67.28838145361422%)" />
  <rect x="800" y="365" width="30" height="30" fill="hsl(240 100% 98.28022667509268%)" />
  <rect x="870" y="365" width="30" height="30" fill="hsl(240 100% 98.93187947642582%)" />
  <rect x="65" y="400" width="30" height="30" fill="hsl(240 100% 97.59403159355088%)" />
  <rect x="100" y="400" width="30" height="30" fill="hsl(240 100% 99.20524725936642%)" />
  <rect x="135" y="400" width="30" height="30" fill="hsl(240 100% 99.60757507987418%)" />
  <rect x="170" y="400" width="30" height="30" fill="hsl(240 100% 92.78891580063105%)" />
  <rect x="205" y="400" width="30" height="30" fill="hsl(240 100% 99.07144966294042%)" />
  <rect x="240" y="400" width="30" height="30" fill="hsl(240 100% 85.7132921638609%)" />
  <rect x="275" y="400" width="30" height="30" fill="hsl(240 100% 94.13175533540516%)" />
  <rect x="310" y="400" width="30" height="30" fill="rgb(255 255 255 / 50%)" />
  <rect x="380" y="400" width="30" height="30" fill="rgb(255 255 255 / 50%)" />
  <rect x="415" y="400" width="30" height="30" fill="hsl(240 100% 92.81002059494166%)" />
  <rect x="450" y="400" width="30" height="30" fill="hsl(240 100% 99.96399367604857%)" />
  <rect x="485" y="400" width="30" height="30" fill="hsl(240 100% 99.35583744653712%)" />
  <rect x="520" y="400" width="30" height="30" fill="hsl(240 100% 73.67212170385471%)" />
  <rect x="555" y="400" width="30" height="30" fill="hsl(240 100% 50%)" />
  <rect x="590" y="400" width="30" height="30" fill="hsl(240 100% 98.95884827094004%)" />
  <rect x="695" y="400" width="30" height="30" fill="rgb(255 255 255 / 50%)" />
  <rect x="870" y="400" width="30" height="30" fill="hsl(240 100% 99.00605815247555%)" />
  <rect x="65" y="435" width="30" height="30" fill="hsl(240 100% 85.21826285797731%)" />
  <rect x="240" y="435" width="30" height="30" fill="hsl(240 100% 50%)" />
  <rect x="310" y="435" width="30" height="30" fill="hsl(240 100% 93.85784491945088%)" />
  <rect x="415" y="435" width="30" height="30" fill="hsl(240 100% 87.38884811836226%)" />
  <rect x="450" y="435" width="30" height="30" fill="hsl(240 100% 99.7693992538241%)" />
  <rect x="485" y="435" width="30" height="30" fill="hsl(240 100% 99.93832309979123%)" />
  <rect x="65" y="470" width="30" height="30" fill="hsl(240 100% 50%)" />
  <rect x="240" y="470" width="30" height="30" fill="hsl(240 100% 67.69405608418353%)" />
  <rect x="310" y="470" width="30" height="30" fill="hsl(240 100% 98.03952614243089%)" />
  <rect x="415" y="470" width="30" height="30" fill="hsl(240 100% 92.90110988411915%)" />
  <rect x="450" y="470" width="30" height="30" fill="hsl(240 100% 99.63271208345442%)" />
  <rect x="485" y="470" width="30" height="30" fill="hsl(240 100% 99.96645073417871%)" />
</svg>
