<svg xmlns="http://www.w3.org/2000/svg" viewBox="0 0 660 295">
  <rect x="0" y="0" width="660" height="295" rx="5" ry="5" fill="#222" />
  <text x="60" y="100" fill="white" font-family="sans-serif" font-weight="bold" font-size="12" text-anchor="end" dominant-baseline="middle">ba</text>
  <text x="60" y="135" fill="white" font-family="sans-serif" font-weight="bold" font-size="12" text-anchor="end" dominant-baseline="middle">gmm</text>
  <text x="60" y="170" fill="white" font-family="sans-serif" font-weight="bold" font-size="12" text-anchor="end" dominant-baseline="middle">hello</text>
  <text x="60" y="205" fill="white" font-family="sans-serif" font-weight="bold" font-size="12" text-anchor="end" dominant-baseline="middle">ht</text>
  <text x="60" y="240" fill="white" font-family="sans-serif" font-weight="bold" font-size="12" text-anchor="end" dominant-baseline="middle">kmeans</text>
  <text x="60" y="275" fill="white" font-family="sans-serif" font-weight="bold" font-size="12" text-anchor="end" dominant-baseline="middle">lstm</text>
  <text x="80" y="80" fill="white" font-family="sans-serif" font-weight="bold" font-size="12" text-anchor="end" dominant-baseline="middle" transform="rotate(90 80 80)">adept</text>
  <text x="115" y="80" fill="white" font-family="sans-serif" font-weight="bold" font-size="12" text-anchor="end" dominant-baseline="middle" transform="rotate(90 115 80)">adol-c</text>
  <text x="150" y="80" fill="white" font-family="sans-serif" font-weight="bold" font-size="12" text-anchor="end" dominant-baseline="middle" transform="rotate(90 150 80)">codipack</text>
  <text x="185" y="80" fill="white" font-family="sans-serif" font-weight="bold" font-size="12" text-anchor="end" dominant-baseline="middle" transform="rotate(90 185 80)">cppad</text>
  <text x="220" y="80" fill="white" font-family="sans-serif" font-weight="bold" font-size="12" text-anchor="end" dominant-baseline="middle" transform="rotate(90 220 80)">enzyme</text>
  <text x="255" y="80" fill="white" font-family="sans-serif" font-weight="bold" font-size="12" text-anchor="end" dominant-baseline="middle" transform="rotate(90 255 80)">finite</text>
  <text x="290" y="80" fill="white" font-family="sans-serif" font-weight="bold" font-size="12" text-anchor="end" dominant-baseline="middle" transform="rotate(90 290 80)">floretta</text>
  <text x="325" y="80" fill="white" font-family="sans-serif" font-weight="bold" font-size="12" text-anchor="end" dominant-baseline="middle" transform="rotate(90 325 80)">futhark</text>
  <text x="360" y="80" fill="white" font-family="sans-serif" font-weight="bold" font-size="12" text-anchor="end" dominant-baseline="middle" transform="rotate(90 360 80)">haskell</text>
  <text x="395" y="80" fill="white" font-family="sans-serif" font-weight="bold" font-size="12" text-anchor="end" dominant-baseline="middle" transform="rotate(90 395 80)">jax</text>
  <text x="430" y="80" fill="white" font-family="sans-serif" font-weight="bold" font-size="12" text-anchor="end" dominant-baseline="middle" transform="rotate(90 430 80)">manual</text>
  <text x="465" y="80" fill="white" font-family="sans-serif" font-weight="bold" font-size="12" text-anchor="end" dominant-baseline="middle" transform="rotate(90 465 80)">ocaml</text>
  <text x="500" y="80" fill="white" font-family="sans-serif" font-weight="bold" font-size="12" text-anchor="end" dominant-baseline="middle" transform="rotate(90 500 80)">pytorch</text>
  <text x="535" y="80" fill="white" font-family="sans-serif" font-weight="bold" font-size="12" text-anchor="end" dominant-baseline="middle" transform="rotate(90 535 80)">scilean</text>
  <text x="570" y="80" fill="white" font-family="sans-serif" font-weight="bold" font-size="12" text-anchor="end" dominant-baseline="middle" transform="rotate(90 570 80)">tapenade</text>
  <text x="605" y="80" fill="white" font-family="sans-serif" font-weight="bold" font-size="12" text-anchor="end" dominant-baseline="middle" transform="rotate(90 605 80)">tensorflow</text>
  <text x="640" y="80" fill="white" font-family="sans-serif" font-weight="bold" font-size="12" text-anchor="end" dominant-baseline="middle" transform="rotate(90 640 80)">zygote</text>
  <rect x="65" y="85" width="30" height="30" fill="hsl(240 100% 84.51396307396729%)" />
  <rect x="100" y="85" width="30" height="30" fill="hsl(240 100% 97.9250463535708%)" />
  <rect x="135" y="85" width="30" height="30" fill="hsl(240 100% 90.263973679601%)" />
  <rect x="205" y="85" width="30" height="30" fill="hsl(240 100% 50.49592537006896%)" />
  <rect x="240" y="85" width="30" height="30" fill="hsl(240 100% 91.98612017296645%)" />
  <rect x="310" y="85" width="30" height="30" fill="hsl(240 100% 76.10114383089591%)" />
  <rect x="415" y="85" width="30" height="30" fill="hsl(240 100% 50%)" />
  <rect x="485" y="85" width="30" height="30" fill="hsl(240 100% 99.99197190295799%)" />
  <rect x="555" y="85" width="30" height="30" fill="hsl(240 100% 73.92781962994056%)" />
  <rect x="590" y="85" width="30" height="30" fill="hsl(240 100% 99.98415900928578%)" />
  <rect x="65" y="120" width="30" height="30" fill="hsl(240 100% 96.96641324153435%)" />
  <rect x="100" y="120" width="30" height="30" fill="hsl(240 100% 97.59048534370639%)" />
  <rect x="135" y="120" width="30" height="30" fill="hsl(240 100% 94.80003802184132%)" />
  <rect x="170" y="120" width="30" height="30" fill="hsl(240 100% 98.26495313272385%)" />
  <rect x="205" y="120" width="30" height="30" fill="hsl(240 100% 84.30505963815811%)" />
  <rect x="240" y="120" width="30" height="30" fill="rgb(255 255 255 / 50%)" />
  <rect x="310" y="120" width="30" height="30" fill="hsl(240 100% 82.8470119404664%)" />
  <rect x="380" y="120" width="30" height="30" fill="hsl(240 100% 76.20673414768618%)" />
  <rect x="415" y="120" width="30" height="30" fill="hsl(240 100% 64.37521784465514%)" />
  <rect x="450" y="120" width="30" height="30" fill="hsl(240 100% 99.39045940941138%)" />
  <rect x="485" y="120" width="30" height="30" fill="hsl(240 100% 50%)" />
  <rect x="520" y="120" width="30" height="30" fill="hsl(240 100% 95.63344462367742%)" />
  <rect x="555" y="120" width="30" height="30" fill="hsl(240 100% 67.65950553201458%)" />
  <rect x="590" y="120" width="30" height="30" fill="hsl(240 100% 85.6804474994075%)" />
  <rect x="65" y="155" width="30" height="30" fill="hsl(240 100% 50%)" />
  <rect x="100" y="155" width="30" height="30" fill="hsl(240 100% 50%)" />
  <rect x="135" y="155" width="30" height="30" fill="hsl(240 100% 50%)" />
  <rect x="170" y="155" width="30" height="30" fill="hsl(240 100% 50%)" />
  <rect x="205" y="155" width="30" height="30" fill="hsl(240 100% 50%)" />
  <rect x="240" y="155" width="30" height="30" fill="hsl(240 100% 50%)" />
  <rect x="275" y="155" width="30" height="30" fill="hsl(240 100% 50%)" />
  <rect x="310" y="155" width="30" height="30" fill="hsl(240 100% 50%)" />
  <rect x="345" y="155" width="30" height="30" fill="hsl(240 100% 50%)" />
  <rect x="380" y="155" width="30" height="30" fill="hsl(240 100% 50%)" />
  <rect x="415" y="155" width="30" height="30" fill="hsl(240 100% 50%)" />
  <rect x="450" y="155" width="30" height="30" fill="hsl(240 100% 50%)" />
  <rect x="485" y="155" width="30" height="30" fill="hsl(240 100% 50%)" />
  <rect x="520" y="155" width="30" height="30" fill="hsl(240 100% 50%)" />
  <rect x="555" y="155" width="30" height="30" fill="hsl(240 100% 50%)" />
  <rect x="590" y="155" width="30" height="30" fill="hsl(240 100% 50%)" />
  <rect x="625" y="155" width="30" height="30" fill="hsl(240 100% 50%)" />
  <rect x="65" y="190" width="30" height="30" fill="hsl(240 100% 97.09702723775865%)" />
  <rect x="100" y="190" width="30" height="30" fill="hsl(240 100% 97.94774163438538%)" />
  <rect x="135" y="190" width="30" height="30" fill="hsl(240 100% 93.7671985063645%)" />
  <rect x="205" y="190" width="30" height="30" fill="hsl(240 100% 95.02036446415482%)" />
  <rect x="240" y="190" width="30" height="30" fill="hsl(240 100% 99.17697891865468%)" />
  <rect x="310" y="190" width="30" height="30" fill="hsl(240 100% 94.02975430513015%)" />
  <rect x="415" y="190" width="30" height="30" fill="hsl(240 100% 50%)" />
  <rect x="485" y="190" width="30" height="30" fill="hsl(240 100% 99.96758859240333%)" />
  <rect x="555" y="190" width="30" height="30" fill="hsl(240 100% 99.3937270534719%)" />
  <rect x="590" y="190" width="30" height="30" fill="hsl(240 100% 99.47358389838325%)" />
  <rect x="100" y="225" width="30" height="30" fill="hsl(240 100% 99.8827797715163%)" />
  <rect x="135" y="225" width="30" height="30" fill="hsl(240 100% 99.42753638776652%)" />
  <rect x="205" y="225" width="30" height="30" fill="hsl(240 100% 87.84409254715541%)" />
  <rect x="310" y="225" width="30" height="30" fill="hsl(240 100% 82.99790682135%)" />
  <rect x="345" y="225" width="30" height="30" fill="hsl(240 100% 99.99170061047961%)" />
  <rect x="380" y="225" width="30" height="30" fill="hsl(240 100% 50%)" />
  <rect x="415" y="225" width="30" height="30" fill="hsl(240 100% 76.85846384107306%)" />
  <rect x="485" y="225" width="30" height="30" fill="hsl(240 100% 86.12797536877189%)" />
  <rect x="520" y="225" width="30" height="30" fill="hsl(240 100% 99.55232141085797%)" />
  <rect x="65" y="260" width="30" height="30" fill="hsl(240 100% 69.68146512333995%)" />
  <rect x="100" y="260" width="30" height="30" fill="hsl(240 100% 80.91678713831857%)" />
  <rect x="135" y="260" width="30" height="30" fill="hsl(240 100% 50%)" />
  <rect x="170" y="260" width="30" height="30" fill="hsl(240 100% 88.77976796485494%)" />
  <rect x="205" y="260" width="30" height="30" fill="hsl(240 100% 51.9903021531553%)" />
  <rect x="240" y="260" width="30" height="30" fill="hsl(240 100% 99.80440136560455%)" />
  <rect x="310" y="260" width="30" height="30" fill="hsl(240 100% 64.00526107409527%)" />
  <rect x="415" y="260" width="30" height="30" fill="hsl(240 100% 79.060859605932%)" />
  <rect x="485" y="260" width="30" height="30" fill="hsl(240 100% 99.66111814624296%)" />
  <rect x="520" y="260" width="30" height="30" fill="hsl(240 100% 96.2652845043161%)" />
  <rect x="555" y="260" width="30" height="30" fill="hsl(240 100% 60.75685357469213%)" />
  <rect x="590" y="260" width="30" height="30" fill="hsl(240 100% 98.08975615987188%)" />
</svg>
