<svg xmlns="http://www.w3.org/2000/svg" viewBox="0 0 695 505">
  <rect x="0" y="0" width="695" height="505" rx="5" ry="5" fill="#222" />
  <text x="60" y="100" fill="white" font-family="sans-serif" font-weight="bold" font-size="12" text-anchor="end" dominant-baseline="middle">ba</text>
  <text x="60" y="135" fill="white" font-family="sans-serif" font-weight="bold" font-size="12" text-anchor="end" dominant-baseline="middle">det</text>
  <text x="60" y="170" fill="white" font-family="sans-serif" font-weight="bold" font-size="12" text-anchor="end" dominant-baseline="middle">gmm</text>
  <text x="60" y="205" fill="white" font-family="sans-serif" font-weight="bold" font-size="12" text-anchor="end" dominant-baseline="middle">hello</text>
  <text x="60" y="240" fill="white" font-family="sans-serif" font-weight="bold" font-size="12" text-anchor="end" dominant-baseline="middle">ht</text>
  <text x="60" y="275" fill="white" font-family="sans-serif" font-weight="bold" font-size="12" text-anchor="end" dominant-baseline="middle">kmeans</text>
  <text x="60" y="310" fill="white" font-family="sans-serif" font-weight="bold" font-size="12" text-anchor="end" dominant-baseline="middle">llsq</text>
  <text x="60" y="345" fill="white" font-family="sans-serif" font-weight="bold" font-size="12" text-anchor="end" dominant-baseline="middle">lse</text>
  <text x="60" y="380" fill="white" font-family="sans-serif" font-weight="bold" font-size="12" text-anchor="end" dominant-baseline="middle">lstm</text>
  <text x="60" y="415" fill="white" font-family="sans-serif" font-weight="bold" font-size="12" text-anchor="end" dominant-baseline="middle">ode</text>
  <text x="60" y="450" fill="white" font-family="sans-serif" font-weight="bold" font-size="12" text-anchor="end" dominant-baseline="middle">particle</text>
  <text x="60" y="485" fill="white" font-family="sans-serif" font-weight="bold" font-size="12" text-anchor="end" dominant-baseline="middle">saddle</text>
  <text x="80" y="80" fill="white" font-family="sans-serif" font-weight="bold" font-size="12" text-anchor="end" dominant-baseline="middle" transform="rotate(90 80 80)">adept</text>
  <text x="115" y="80" fill="white" font-family="sans-serif" font-weight="bold" font-size="12" text-anchor="end" dominant-baseline="middle" transform="rotate(90 115 80)">adol-c</text>
  <text x="150" y="80" fill="white" font-family="sans-serif" font-weight="bold" font-size="12" text-anchor="end" dominant-baseline="middle" transform="rotate(90 150 80)">codipack</text>
  <text x="185" y="80" fill="white" font-family="sans-serif" font-weight="bold" font-size="12" text-anchor="end" dominant-baseline="middle" transform="rotate(90 185 80)">cppad</text>
  <text x="220" y="80" fill="white" font-family="sans-serif" font-weight="bold" font-size="12" text-anchor="end" dominant-baseline="middle" transform="rotate(90 220 80)">enzyme</text>
  <text x="255" y="80" fill="white" font-family="sans-serif" font-weight="bold" font-size="12" text-anchor="end" dominant-baseline="middle" transform="rotate(90 255 80)">enzyme-jl</text>
  <text x="290" y="80" fill="white" font-family="sans-serif" font-weight="bold" font-size="12" text-anchor="end" dominant-baseline="middle" transform="rotate(90 290 80)">finite</text>
  <text x="325" y="80" fill="white" font-family="sans-serif" font-weight="bold" font-size="12" text-anchor="end" dominant-baseline="middle" transform="rotate(90 325 80)">floretta</text>
  <text x="360" y="80" fill="white" font-family="sans-serif" font-weight="bold" font-size="12" text-anchor="end" dominant-baseline="middle" transform="rotate(90 360 80)">futhark</text>
  <text x="395" y="80" fill="white" font-family="sans-serif" font-weight="bold" font-size="12" text-anchor="end" dominant-baseline="middle" transform="rotate(90 395 80)">haskell</text>
  <text x="430" y="80" fill="white" font-family="sans-serif" font-weight="bold" font-size="12" text-anchor="end" dominant-baseline="middle" transform="rotate(90 430 80)">jax</text>
  <text x="465" y="80" fill="white" font-family="sans-serif" font-weight="bold" font-size="12" text-anchor="end" dominant-baseline="middle" transform="rotate(90 465 80)">manual</text>
  <text x="500" y="80" fill="white" font-family="sans-serif" font-weight="bold" font-size="12" text-anchor="end" dominant-baseline="middle" transform="rotate(90 500 80)">ocaml</text>
  <text x="535" y="80" fill="white" font-family="sans-serif" font-weight="bold" font-size="12" text-anchor="end" dominant-baseline="middle" transform="rotate(90 535 80)">pytorch</text>
  <text x="570" y="80" fill="white" font-family="sans-serif" font-weight="bold" font-size="12" text-anchor="end" dominant-baseline="middle" transform="rotate(90 570 80)">scilean</text>
  <text x="605" y="80" fill="white" font-family="sans-serif" font-weight="bold" font-size="12" text-anchor="end" dominant-baseline="middle" transform="rotate(90 605 80)">tapenade</text>
  <text x="640" y="80" fill="white" font-family="sans-serif" font-weight="bold" font-size="12" text-anchor="end" dominant-baseline="middle" transform="rotate(90 640 80)">tensorflow</text>
  <text x="675" y="80" fill="white" font-family="sans-serif" font-weight="bold" font-size="12" text-anchor="end" dominant-baseline="middle" transform="rotate(90 675 80)">zygote</text>
  <rect x="65" y="85" width="30" height="30" fill="hsl(240 100% 83.13783224988356%)" />
  <rect x="100" y="85" width="30" height="30" fill="hsl(240 100% 97.84264230694998%)" />
  <rect x="135" y="85" width="30" height="30" fill="hsl(240 100% 89.37440987058392%)" />
  <rect x="170" y="85" width="30" height="30" fill="hsl(240 100% 98.88270718799%)" />
  <rect x="205" y="85" width="30" height="30" fill="hsl(240 100% 50%)" />
  <rect x="275" y="85" width="30" height="30" fill="hsl(240 100% 92.53986366633637%)" />
  <rect x="345" y="85" width="30" height="30" fill="hsl(240 100% 68.05212383492548%)" />
  <rect x="450" y="85" width="30" height="30" fill="hsl(240 100% 52.03122024173101%)" />
  <rect x="520" y="85" width="30" height="30" fill="rgb(255 255 255 / 50%)" />
  <rect x="590" y="85" width="30" height="30" fill="hsl(240 100% 71.96984168292695%)" />
  <rect x="625" y="85" width="30" height="30" fill="rgb(255 255 255 / 50%)" />
  <rect x="65" y="120" width="30" height="30" fill="hsl(240 100% 83.83725552087213%)" />
  <rect x="100" y="120" width="30" height="30" fill="hsl(240 100% 84.90226412104553%)" />
  <rect x="135" y="120" width="30" height="30" fill="hsl(240 100% 50%)" />
  <rect x="170" y="120" width="30" height="30" fill="hsl(240 100% 92.65230842541179%)" />
  <rect x="205" y="120" width="30" height="30" fill="hsl(240 100% 91.53043593102046%)" />
  <rect x="275" y="120" width="30" height="30" fill="hsl(240 100% 98.96307206205526%)" />
  <rect x="345" y="120" width="30" height="30" fill="hsl(240 100% 94.63074640282491%)" />
  <rect x="380" y="120" width="30" height="30" fill="hsl(240 100% 97.93687842494978%)" />
  <rect x="450" y="120" width="30" height="30" fill="hsl(240 100% 79.27273837501585%)" />
  <rect x="65" y="155" width="30" height="30" fill="hsl(240 100% 98.32545621470153%)" />
  <rect x="100" y="155" width="30" height="30" fill="hsl(240 100% 98.75597531716191%)" />
  <rect x="135" y="155" width="30" height="30" fill="hsl(240 100% 97.20075835056105%)" />
  <rect x="170" y="155" width="30" height="30" fill="hsl(240 100% 99.76413341123826%)" />
  <rect x="205" y="155" width="30" height="30" fill="hsl(240 100% 86.58480777025316%)" />
  <rect x="275" y="155" width="30" height="30" fill="rgb(255 255 255 / 50%)" />
  <rect x="345" y="155" width="30" height="30" fill="hsl(240 100% 89.7190044631672%)" />
  <rect x="415" y="155" width="30" height="30" fill="hsl(240 100% 69.21941605414357%)" />
  <rect x="450" y="155" width="30" height="30" fill="hsl(240 100% 74.98496023865965%)" />
  <rect x="485" y="155" width="30" height="30" fill="hsl(240 100% 99.40029339221931%)" />
  <rect x="520" y="155" width="30" height="30" fill="hsl(240 100% 50%)" />
  <rect x="555" y="155" width="30" height="30" fill="hsl(240 100% 92.40137907817474%)" />
  <rect x="590" y="155" width="30" height="30" fill="hsl(240 100% 75.78640596363837%)" />
  <rect x="625" y="155" width="30" height="30" fill="hsl(240 100% 88.30129222592147%)" />
  <rect x="65" y="190" width="30" height="30" fill="hsl(240 100% 50%)" />
  <rect x="100" y="190" width="30" height="30" fill="hsl(240 100% 50%)" />
  <rect x="135" y="190" width="30" height="30" fill="hsl(240 100% 50%)" />
  <rect x="170" y="190" width="30" height="30" fill="hsl(240 100% 50%)" />
  <rect x="205" y="190" width="30" height="30" fill="hsl(240 100% 50%)" />
  <rect x="240" y="190" width="30" height="30" fill="hsl(240 100% 50%)" />
  <rect x="275" y="190" width="30" height="30" fill="hsl(240 100% 50%)" />
  <rect x="310" y="190" width="30" height="30" fill="hsl(240 100% 50%)" />
  <rect x="345" y="190" width="30" height="30" fill="hsl(240 100% 50%)" />
  <rect x="380" y="190" width="30" height="30" fill="hsl(240 100% 50%)" />
  <rect x="415" y="190" width="30" height="30" fill="hsl(240 100% 50%)" />
  <rect x="450" y="190" width="30" height="30" fill="hsl(240 100% 50%)" />
  <rect x="485" y="190" width="30" height="30" fill="hsl(240 100% 50%)" />
  <rect x="520" y="190" width="30" height="30" fill="hsl(240 100% 50%)" />
  <rect x="555" y="190" width="30" height="30" fill="hsl(240 100% 50%)" />
  <rect x="590" y="190" width="30" height="30" fill="hsl(240 100% 50%)" />
  <rect x="625" y="190" width="30" height="30" fill="hsl(240 100% 50%)" />
  <rect x="660" y="190" width="30" height="30" fill="hsl(240 100% 50%)" />
  <rect x="65" y="225" width="30" height="30" fill="hsl(240 100% 96.10526662196476%)" />
  <rect x="100" y="225" width="30" height="30" fill="hsl(240 100% 90.26653993710775%)" />
  <rect x="135" y="225" width="30" height="30" fill="hsl(240 100% 88.55336889773994%)" />
  <rect x="205" y="225" width="30" height="30" fill="hsl(240 100% 90.28665300768436%)" />
  <rect x="275" y="225" width="30" height="30" fill="rgb(255 255 255 / 50%)" />
  <rect x="345" y="225" width="30" height="30" fill="hsl(240 100% 89.71631355583676%)" />
  <rect x="450" y="225" width="30" height="30" fill="hsl(240 100% 50%)" />
  <rect x="520" y="225" width="30" height="30" fill="rgb(255 255 255 / 50%)" />
  <rect x="590" y="225" width="30" height="30" fill="rgb(255 255 255 / 50%)" />
  <rect x="625" y="225" width="30" height="30" fill="rgb(255 255 255 / 50%)" />
  <rect x="100" y="260" width="30" height="30" fill="hsl(240 100% 99.87298198998626%)" />
  <rect x="135" y="260" width="30" height="30" fill="hsl(240 100% 99.39617946874976%)" />
  <rect x="170" y="260" width="30" height="30" fill="rgb(255 255 255 / 50%)" />
  <rect x="205" y="260" width="30" height="30" fill="hsl(240 100% 87.17958254504%)" />
  <rect x="275" y="260" width="30" height="30" fill="rgb(255 255 255 / 50%)" />
  <rect x="345" y="260" width="30" height="30" fill="hsl(240 100% 82.28965867261772%)" />
  <rect x="380" y="260" width="30" height="30" fill="rgb(255 255 255 / 50%)" />
  <rect x="415" y="260" width="30" height="30" fill="hsl(240 100% 50%)" />
  <rect x="450" y="260" width="30" height="30" fill="hsl(240 100% 75.6657921651898%)" />
  <rect x="520" y="260" width="30" height="30" fill="hsl(240 100% 96.85612142544213%)" />
  <rect x="555" y="260" width="30" height="30" fill="hsl(240 100% 93.94574832386833%)" />
  <rect x="65" y="295" width="30" height="30" fill="hsl(240 100% 66.65043020023106%)" />
  <rect x="100" y="295" width="30" height="30" fill="hsl(240 100% 58.872281589520355%)" />
  <rect x="135" y="295" width="30" height="30" fill="hsl(240 100% 59.94642349070158%)" />
  <rect x="170" y="295" width="30" height="30" fill="hsl(240 100% 91.56999852268807%)" />
  <rect x="205" y="295" width="30" height="30" fill="hsl(240 100% 50.211427323011506%)" />
  <rect x="275" y="295" width="30" height="30" fill="hsl(240 100% 99.42132961091816%)" />
  <rect x="345" y="295" width="30" height="30" fill="hsl(240 100% 50%)" />
  <rect x="380" y="295" width="30" height="30" fill="hsl(240 100% 89.63504841080797%)" />
  <rect x="450" y="295" width="30" height="30" fill="hsl(240 100% 53.46852311692616%)" />
  <rect x="555" y="295" width="30" height="30" fill="hsl(240 100% 54.82679397022518%)" />
  <rect x="65" y="330" width="30" height="30" fill="hsl(240 100% 93.62461127368869%)" />
  <rect x="100" y="330" width="30" height="30" fill="hsl(240 100% 96.85556544441908%)" />
  <rect x="135" y="330" width="30" height="30" fill="hsl(240 100% 87.6067329196624%)" />
  <rect x="170" y="330" width="30" height="30" fill="hsl(240 100% 99.0711531461221%)" />
  <rect x="205" y="330" width="30" height="30" fill="hsl(240 100% 78.19183779864403%)" />
  <rect x="240" y="330" width="30" height="30" fill="hsl(240 100% 99.80893966290121%)" />
  <rect x="275" y="330" width="30" height="30" fill="rgb(255 255 255 / 50%)" />
  <rect x="345" y="330" width="30" height="30" fill="hsl(240 100% 83.35549795351162%)" />
  <rect x="380" y="330" width="30" height="30" fill="hsl(240 100% 99.78154234433904%)" />
  <rect x="415" y="330" width="30" height="30" fill="hsl(240 100% 67.26029409622458%)" />
  <rect x="450" y="330" width="30" height="30" fill="hsl(240 100% 74.93806427152403%)" />
  <rect x="485" y="330" width="30" height="30" fill="hsl(240 100% 92.66297337956382%)" />
  <rect x="520" y="330" width="30" height="30" fill="hsl(240 100% 50%)" />
  <rect x="625" y="330" width="30" height="30" fill="hsl(240 100% 86.75439648794799%)" />
  <rect x="660" y="330" width="30" height="30" fill="hsl(240 100% 98.26958882643153%)" />
  <rect x="65" y="365" width="30" height="30" fill="hsl(240 100% 68.84832713204467%)" />
  <rect x="100" y="365" width="30" height="30" fill="hsl(240 100% 80.81697835475634%)" />
  <rect x="135" y="365" width="30" height="30" fill="hsl(240 100% 50%)" />
  <rect x="170" y="365" width="30" height="30" fill="hsl(240 100% 95.86541217230027%)" />
  <rect x="205" y="365" width="30" height="30" fill="hsl(240 100% 50.94948808097306%)" />
  <rect x="275" y="365" width="30" height="30" fill="hsl(240 100% 99.85010295852656%)" />
  <rect x="345" y="365" width="30" height="30" fill="hsl(240 100% 63.97104741466886%)" />
  <rect x="450" y="365" width="30" height="30" fill="hsl(240 100% 84.65323324973293%)" />
  <rect x="520" y="365" width="30" height="30" fill="hsl(240 100% 99.61921759853965%)" />
  <rect x="590" y="365" width="30" height="30" fill="hsl(240 100% 60.51310581043472%)" />
  <rect x="625" y="365" width="30" height="30" fill="hsl(240 100% 98.01278324778943%)" />
  <rect x="65" y="400" width="30" height="30" fill="hsl(240 100% 99.32393673431719%)" />
  <rect x="100" y="400" width="30" height="30" fill="hsl(240 100% 99.61535595773381%)" />
  <rect x="135" y="400" width="30" height="30" fill="hsl(240 100% 94.50743870150986%)" />
  <rect x="170" y="400" width="30" height="30" fill="hsl(240 100% 99.11252139440569%)" />
  <rect x="205" y="400" width="30" height="30" fill="hsl(240 100% 87.99719778358784%)" />
  <rect x="240" y="400" width="30" height="30" fill="hsl(240 100% 99.15648987472608%)" />
  <rect x="275" y="400" width="30" height="30" fill="rgb(255 255 255 / 50%)" />
  <rect x="345" y="400" width="30" height="30" fill="hsl(240 100% 95.9749436916556%)" />
  <rect x="380" y="400" width="30" height="30" fill="hsl(240 100% 99.97019573030607%)" />
  <rect x="450" y="400" width="30" height="30" fill="hsl(240 100% 50%)" />
  <rect x="205" y="435" width="30" height="30" fill="hsl(240 100% 50%)" />
  <rect x="275" y="435" width="30" height="30" fill="hsl(240 100% 95.19637674994227%)" />
  <rect x="345" y="435" width="30" height="30" fill="hsl(240 100% 87.87974861226456%)" />
  <rect x="380" y="435" width="30" height="30" fill="hsl(240 100% 99.7754802364843%)" />
  <rect x="205" y="470" width="30" height="30" fill="hsl(240 100% 50%)" />
  <rect x="275" y="470" width="30" height="30" fill="hsl(240 100% 95.80410835913581%)" />
  <rect x="345" y="470" width="30" height="30" fill="hsl(240 100% 89.73252445470519%)" />
  <rect x="380" y="470" width="30" height="30" fill="hsl(240 100% 99.5705690294949%)" />
</svg>
