<svg xmlns="http://www.w3.org/2000/svg" viewBox="0 0 870 505">
  <rect x="0" y="0" width="870" height="505" rx="5" ry="5" fill="#222" />
  <text x="60" y="100" fill="white" font-family="sans-serif" font-weight="bold" font-size="12" text-anchor="end" dominant-baseline="middle">ba</text>
  <text x="60" y="135" fill="white" font-family="sans-serif" font-weight="bold" font-size="12" text-anchor="end" dominant-baseline="middle">det</text>
  <text x="60" y="170" fill="white" font-family="sans-serif" font-weight="bold" font-size="12" text-anchor="end" dominant-baseline="middle">gmm</text>
  <text x="60" y="205" fill="white" font-family="sans-serif" font-weight="bold" font-size="12" text-anchor="end" dominant-baseline="middle">hello</text>
  <text x="60" y="240" fill="white" font-family="sans-serif" font-weight="bold" font-size="12" text-anchor="end" dominant-baseline="middle">ht</text>
  <text x="60" y="275" fill="white" font-family="sans-serif" font-weight="bold" font-size="12" text-anchor="end" dominant-baseline="middle">kmeans</text>
  <text x="60" y="310" fill="white" font-family="sans-serif" font-weight="bold" font-size="12" text-anchor="end" dominant-baseline="middle">llsq</text>
  <text x="60" y="345" fill="white" font-family="sans-serif" font-weight="bold" font-size="12" text-anchor="end" dominant-baseline="middle">lse</text>
  <text x="60" y="380" fill="white" font-family="sans-serif" font-weight="bold" font-size="12" text-anchor="end" dominant-baseline="middle">lstm</text>
  <text x="60" y="415" fill="white" font-family="sans-serif" font-weight="bold" font-size="12" text-anchor="end" dominant-baseline="middle">ode</text>
  <text x="60" y="450" fill="white" font-family="sans-serif" font-weight="bold" font-size="12" text-anchor="end" dominant-baseline="middle">particle</text>
  <text x="60" y="485" fill="white" font-family="sans-serif" font-weight="bold" font-size="12" text-anchor="end" dominant-baseline="middle">saddle</text>
  <text x="80" y="80" fill="white" font-family="sans-serif" font-weight="bold" font-size="12" text-anchor="end" dominant-baseline="middle" transform="rotate(90 80 80)">ad-hpp</text>
  <text x="115" y="80" fill="white" font-family="sans-serif" font-weight="bold" font-size="12" text-anchor="end" dominant-baseline="middle" transform="rotate(90 115 80)">adept</text>
  <text x="150" y="80" fill="white" font-family="sans-serif" font-weight="bold" font-size="12" text-anchor="end" dominant-baseline="middle" transform="rotate(90 150 80)">adol-c</text>
  <text x="185" y="80" fill="white" font-family="sans-serif" font-weight="bold" font-size="12" text-anchor="end" dominant-baseline="middle" transform="rotate(90 185 80)">codipack</text>
  <text x="220" y="80" fill="white" font-family="sans-serif" font-weight="bold" font-size="12" text-anchor="end" dominant-baseline="middle" transform="rotate(90 220 80)">cppad</text>
  <text x="255" y="80" fill="white" font-family="sans-serif" font-weight="bold" font-size="12" text-anchor="end" dominant-baseline="middle" transform="rotate(90 255 80)">enzyme</text>
  <text x="290" y="80" fill="white" font-family="sans-serif" font-weight="bold" font-size="12" text-anchor="end" dominant-baseline="middle" transform="rotate(90 290 80)">enzyme-jl</text>
  <text x="325" y="80" fill="white" font-family="sans-serif" font-weight="bold" font-size="12" text-anchor="end" dominant-baseline="middle" transform="rotate(90 325 80)">finite</text>
  <text x="360" y="80" fill="white" font-family="sans-serif" font-weight="bold" font-size="12" text-anchor="end" dominant-baseline="middle" transform="rotate(90 360 80)">floretta</text>
  <text x="395" y="80" fill="white" font-family="sans-serif" font-weight="bold" font-size="12" text-anchor="end" dominant-baseline="middle" transform="rotate(90 395 80)">forwarddiff-jl</text>
  <text x="430" y="80" fill="white" font-family="sans-serif" font-weight="bold" font-size="12" text-anchor="end" dominant-baseline="middle" transform="rotate(90 430 80)">futhark</text>
  <text x="465" y="80" fill="white" font-family="sans-serif" font-weight="bold" font-size="12" text-anchor="end" dominant-baseline="middle" transform="rotate(90 465 80)">haskell</text>
  <text x="500" y="80" fill="white" font-family="sans-serif" font-weight="bold" font-size="12" text-anchor="end" dominant-baseline="middle" transform="rotate(90 500 80)">jax</text>
  <text x="535" y="80" fill="white" font-family="sans-serif" font-weight="bold" font-size="12" text-anchor="end" dominant-baseline="middle" transform="rotate(90 535 80)">manual</text>
  <text x="570" y="80" fill="white" font-family="sans-serif" font-weight="bold" font-size="12" text-anchor="end" dominant-baseline="middle" transform="rotate(90 570 80)">mooncake-jl</text>
  <text x="605" y="80" fill="white" font-family="sans-serif" font-weight="bold" font-size="12" text-anchor="end" dominant-baseline="middle" transform="rotate(90 605 80)">ocaml</text>
  <text x="640" y="80" fill="white" font-family="sans-serif" font-weight="bold" font-size="12" text-anchor="end" dominant-baseline="middle" transform="rotate(90 640 80)">pytorch</text>
  <text x="675" y="80" fill="white" font-family="sans-serif" font-weight="bold" font-size="12" text-anchor="end" dominant-baseline="middle" transform="rotate(90 675 80)">reversediff-jl</text>
  <text x="710" y="80" fill="white" font-family="sans-serif" font-weight="bold" font-size="12" text-anchor="end" dominant-baseline="middle" transform="rotate(90 710 80)">scilean</text>
  <text x="745" y="80" fill="white" font-family="sans-serif" font-weight="bold" font-size="12" text-anchor="end" dominant-baseline="middle" transform="rotate(90 745 80)">tapenade</text>
  <text x="780" y="80" fill="white" font-family="sans-serif" font-weight="bold" font-size="12" text-anchor="end" dominant-baseline="middle" transform="rotate(90 780 80)">tensorflow</text>
  <text x="815" y="80" fill="white" font-family="sans-serif" font-weight="bold" font-size="12" text-anchor="end" dominant-baseline="middle" transform="rotate(90 815 80)">tensorflow-js</text>
  <text x="850" y="80" fill="white" font-family="sans-serif" font-weight="bold" font-size="12" text-anchor="end" dominant-baseline="middle" transform="rotate(90 850 80)">zygote</text>
  <rect x="65" y="85" width="30" height="30" fill="hsl(240 100% 81.05880150173154%)" />
  <rect x="100" y="85" width="30" height="30" fill="hsl(240 100% 82.9546705793916%)" />
  <rect x="135" y="85" width="30" height="30" fill="hsl(240 100% 97.98297106267837%)" />
  <rect x="170" y="85" width="30" height="30" fill="hsl(240 100% 82.32169219375601%)" />
  <rect x="205" y="85" width="30" height="30" fill="hsl(240 100% 99.00385748779051%)" />
  <rect x="240" y="85" width="30" height="30" fill="hsl(240 100% 51.58296894475382%)" />
  <rect x="310" y="85" width="30" height="30" fill="hsl(240 100% 93.33290249426622%)" />
  <rect x="415" y="85" width="30" height="30" fill="hsl(240 100% 68.5614493071792%)" />
  <rect x="520" y="85" width="30" height="30" fill="hsl(240 100% 50%)" />
  <rect x="625" y="85" width="30" height="30" fill="rgb(255 255 255 / 50%)" />
  <rect x="730" y="85" width="30" height="30" fill="hsl(240 100% 74.79703986767595%)" />
  <rect x="765" y="85" width="30" height="30" fill="rgb(255 255 255 / 50%)" />
  <rect x="835" y="85" width="30" height="30" fill="hsl(240 100% 99.73385333767067%)" />
  <rect x="65" y="120" width="30" height="30" fill="hsl(240 100% 50%)" />
  <rect x="100" y="120" width="30" height="30" fill="hsl(240 100% 82.63914654067537%)" />
  <rect x="135" y="120" width="30" height="30" fill="hsl(240 100% 85.86757161805542%)" />
  <rect x="170" y="120" width="30" height="30" fill="hsl(240 100% 53.45601795988925%)" />
  <rect x="205" y="120" width="30" height="30" fill="hsl(240 100% 92.63036215063605%)" />
  <rect x="240" y="120" width="30" height="30" fill="hsl(240 100% 91.74868139478824%)" />
  <rect x="275" y="120" width="30" height="30" fill="hsl(240 100% 99.3672010526044%)" />
  <rect x="310" y="120" width="30" height="30" fill="hsl(240 100% 98.98722763894447%)" />
  <rect x="380" y="120" width="30" height="30" fill="hsl(240 100% 93.34021594890186%)" />
  <rect x="415" y="120" width="30" height="30" fill="hsl(240 100% 94.62075220799557%)" />
  <rect x="450" y="120" width="30" height="30" fill="hsl(240 100% 97.9836005769629%)" />
  <rect x="520" y="120" width="30" height="30" fill="hsl(240 100% 79.8074328426103%)" />
  <rect x="555" y="120" width="30" height="30" fill="hsl(240 100% 90.45251508260662%)" />
  <rect x="660" y="120" width="30" height="30" fill="rgb(255 255 255 / 50%)" />
  <rect x="835" y="120" width="30" height="30" fill="rgb(255 255 255 / 50%)" />
  <rect x="65" y="155" width="30" height="30" fill="hsl(240 100% 97.65143985258764%)" />
  <rect x="100" y="155" width="30" height="30" fill="hsl(240 100% 98.25263173654022%)" />
  <rect x="135" y="155" width="30" height="30" fill="hsl(240 100% 98.6614211849077%)" />
  <rect x="170" y="155" width="30" height="30" fill="hsl(240 100% 97.12701351416436%)" />
  <rect x="205" y="155" width="30" height="30" fill="hsl(240 100% 99.7671856181588%)" />
  <rect x="240" y="155" width="30" height="30" fill="hsl(240 100% 86.70689128777694%)" />
  <rect x="275" y="155" width="30" height="30" fill="hsl(240 100% 90.1605319748699%)" />
  <rect x="310" y="155" width="30" height="30" fill="rgb(255 255 255 / 50%)" />
  <rect x="415" y="155" width="30" height="30" fill="hsl(240 100% 89.20973145691048%)" />
  <rect x="485" y="155" width="30" height="30" fill="hsl(240 100% 70.60571734162359%)" />
  <rect x="520" y="155" width="30" height="30" fill="hsl(240 100% 72.36113166173374%)" />
  <rect x="590" y="155" width="30" height="30" fill="hsl(240 100% 99.40240003004726%)" />
  <rect x="625" y="155" width="30" height="30" fill="hsl(240 100% 50%)" />
  <rect x="695" y="155" width="30" height="30" fill="hsl(240 100% 92.64950630541746%)" />
  <rect x="730" y="155" width="30" height="30" fill="hsl(240 100% 75.25247806734137%)" />
  <rect x="765" y="155" width="30" height="30" fill="hsl(240 100% 87.72054647655499%)" />
  <rect x="835" y="155" width="30" height="30" fill="hsl(240 100% 94.53502093911473%)" />
  <rect x="65" y="190" width="30" height="30" fill="hsl(240 100% 50%)" />
  <rect x="100" y="190" width="30" height="30" fill="hsl(240 100% 50%)" />
  <rect x="135" y="190" width="30" height="30" fill="hsl(240 100% 50%)" />
  <rect x="170" y="190" width="30" height="30" fill="hsl(240 100% 50%)" />
  <rect x="205" y="190" width="30" height="30" fill="hsl(240 100% 50%)" />
  <rect x="240" y="190" width="30" height="30" fill="hsl(240 100% 50%)" />
  <rect x="275" y="190" width="30" height="30" fill="hsl(240 100% 50%)" />
  <rect x="310" y="190" width="30" height="30" fill="hsl(240 100% 50%)" />
  <rect x="345" y="190" width="30" height="30" fill="hsl(240 100% 50%)" />
  <rect x="380" y="190" width="30" height="30" fill="hsl(240 100% 50%)" />
  <rect x="415" y="190" width="30" height="30" fill="hsl(240 100% 50%)" />
  <rect x="450" y="190" width="30" height="30" fill="hsl(240 100% 50%)" />
  <rect x="485" y="190" width="30" height="30" fill="hsl(240 100% 50%)" />
  <rect x="520" y="190" width="30" height="30" fill="hsl(240 100% 50%)" />
  <rect x="555" y="190" width="30" height="30" fill="hsl(240 100% 50%)" />
  <rect x="590" y="190" width="30" height="30" fill="hsl(240 100% 50%)" />
  <rect x="625" y="190" width="30" height="30" fill="hsl(240 100% 50%)" />
  <rect x="660" y="190" width="30" height="30" fill="hsl(240 100% 50%)" />
  <rect x="695" y="190" width="30" height="30" fill="hsl(240 100% 50%)" />
  <rect x="730" y="190" width="30" height="30" fill="hsl(240 100% 50%)" />
  <rect x="765" y="190" width="30" height="30" fill="hsl(240 100% 50%)" />
  <rect x="800" y="190" width="30" height="30" fill="hsl(240 100% 50%)" />
  <rect x="835" y="190" width="30" height="30" fill="hsl(240 100% 50%)" />
  <rect x="100" y="225" width="30" height="30" fill="hsl(240 100% 96.6384554749451%)" />
  <rect x="135" y="225" width="30" height="30" fill="hsl(240 100% 89.15706601582178%)" />
  <rect x="170" y="225" width="30" height="30" fill="hsl(240 100% 89.35243810889772%)" />
  <rect x="240" y="225" width="30" height="30" fill="hsl(240 100% 91.100612001123%)" />
  <rect x="310" y="225" width="30" height="30" fill="rgb(255 255 255 / 50%)" />
  <rect x="415" y="225" width="30" height="30" fill="hsl(240 100% 90.36640544501618%)" />
  <rect x="520" y="225" width="30" height="30" fill="hsl(240 100% 50%)" />
  <rect x="625" y="225" width="30" height="30" fill="rgb(255 255 255 / 50%)" />
  <rect x="730" y="225" width="30" height="30" fill="hsl(240 100% 93.14978853788459%)" />
  <rect x="765" y="225" width="30" height="30" fill="rgb(255 255 255 / 50%)" />
  <rect x="835" y="225" width="30" height="30" fill="hsl(240 100% 94.0443292673189%)" />
  <rect x="65" y="260" width="30" height="30" fill="hsl(240 100% 99.89492904746962%)" />
  <rect x="135" y="260" width="30" height="30" fill="hsl(240 100% 99.85329490280311%)" />
  <rect x="170" y="260" width="30" height="30" fill="hsl(240 100% 98.8696521554734%)" />
  <rect x="205" y="260" width="30" height="30" fill="rgb(255 255 255 / 50%)" />
  <rect x="240" y="260" width="30" height="30" fill="hsl(240 100% 86.95499461177229%)" />
  <rect x="310" y="260" width="30" height="30" fill="rgb(255 255 255 / 50%)" />
  <rect x="415" y="260" width="30" height="30" fill="hsl(240 100% 80.55929885381636%)" />
  <rect x="450" y="260" width="30" height="30" fill="rgb(255 255 255 / 50%)" />
  <rect x="485" y="260" width="30" height="30" fill="hsl(240 100% 50%)" />
  <rect x="520" y="260" width="30" height="30" fill="hsl(240 100% 70.98693258696235%)" />
  <rect x="625" y="260" width="30" height="30" fill="hsl(240 100% 96.99434410401463%)" />
  <rect x="695" y="260" width="30" height="30" fill="hsl(240 100% 94.01065261011532%)" />
  <rect x="65" y="295" width="30" height="30" fill="hsl(240 100% 85.96348907517638%)" />
  <rect x="100" y="295" width="30" height="30" fill="hsl(240 100% 97.56345300420084%)" />
  <rect x="135" y="295" width="30" height="30" fill="hsl(240 100% 95.09850893558738%)" />
  <rect x="170" y="295" width="30" height="30" fill="hsl(240 100% 90.6541995125686%)" />
  <rect x="205" y="295" width="30" height="30" fill="hsl(240 100% 99.46137677785272%)" />
  <rect x="240" y="295" width="30" height="30" fill="hsl(240 100% 51.58744634664201%)" />
  <rect x="275" y="295" width="30" height="30" fill="hsl(240 100% 50%)" />
  <rect x="310" y="295" width="30" height="30" fill="hsl(240 100% 99.49927024927385%)" />
  <rect x="345" y="295" width="30" height="30" fill="hsl(240 100% 94.70821400055934%)" />
  <rect x="415" y="295" width="30" height="30" fill="hsl(240 100% 55.2021354249075%)" />
  <rect x="450" y="295" width="30" height="30" fill="hsl(240 100% 99.43104981023203%)" />
  <rect x="485" y="295" width="30" height="30" fill="hsl(240 100% 88.48762645189596%)" />
  <rect x="520" y="295" width="30" height="30" fill="hsl(240 100% 57.827502226691976%)" />
  <rect x="695" y="295" width="30" height="30" fill="hsl(240 100% 97.60461698191607%)" />
  <rect x="800" y="295" width="30" height="30" fill="hsl(240 100% 99.58904351965003%)" />
  <rect x="835" y="295" width="30" height="30" fill="hsl(240 100% 99.95664447980133%)" />
  <rect x="65" y="330" width="30" height="30" fill="hsl(240 100% 88.46659086231219%)" />
  <rect x="100" y="330" width="30" height="30" fill="hsl(240 100% 94.54677335596321%)" />
  <rect x="135" y="330" width="30" height="30" fill="hsl(240 100% 97.47583343441107%)" />
  <rect x="170" y="330" width="30" height="30" fill="hsl(240 100% 88.0026163817814%)" />
  <rect x="205" y="330" width="30" height="30" fill="hsl(240 100% 99.18005016831877%)" />
  <rect x="240" y="330" width="30" height="30" fill="hsl(240 100% 79.05803424615281%)" />
  <rect x="275" y="330" width="30" height="30" fill="hsl(240 100% 87.22235877051145%)" />
  <rect x="310" y="330" width="30" height="30" fill="rgb(255 255 255 / 50%)" />
  <rect x="345" y="330" width="30" height="30" fill="hsl(240 100% 97.11752081098093%)" />
  <rect x="415" y="330" width="30" height="30" fill="hsl(240 100% 85.30745298442096%)" />
  <rect x="450" y="330" width="30" height="30" fill="hsl(240 100% 99.81066343044178%)" />
  <rect x="485" y="330" width="30" height="30" fill="hsl(240 100% 70.53823191022512%)" />
  <rect x="520" y="330" width="30" height="30" fill="hsl(240 100% 75.80870621352638%)" />
  <rect x="590" y="330" width="30" height="30" fill="hsl(240 100% 93.49355529927726%)" />
  <rect x="625" y="330" width="30" height="30" fill="hsl(240 100% 50%)" />
  <rect x="765" y="330" width="30" height="30" fill="hsl(240 100% 94.39255281325627%)" />
  <rect x="800" y="330" width="30" height="30" fill="hsl(240 100% 99.18508568725015%)" />
  <rect x="835" y="330" width="30" height="30" fill="hsl(240 100% 80.35804021859288%)" />
  <rect x="65" y="365" width="30" height="30" fill="hsl(240 100% 57.519093597946764%)" />
  <rect x="100" y="365" width="30" height="30" fill="hsl(240 100% 71.80192835041058%)" />
  <rect x="135" y="365" width="30" height="30" fill="hsl(240 100% 82.15129568488152%)" />
  <rect x="170" y="365" width="30" height="30" fill="hsl(240 100% 50%)" />
  <rect x="205" y="365" width="30" height="30" fill="hsl(240 100% 96.22669960946736%)" />
  <rect x="240" y="365" width="30" height="30" fill="hsl(240 100% 58.884729485721515%)" />
  <rect x="275" y="365" width="30" height="30" fill="hsl(240 100% 92.9216453859492%)" />
  <rect x="310" y="365" width="30" height="30" fill="hsl(240 100% 99.86191730180386%)" />
  <rect x="415" y="365" width="30" height="30" fill="hsl(240 100% 66.35728494401292%)" />
  <rect x="520" y="365" width="30" height="30" fill="hsl(240 100% 85.82012092582875%)" />
  <rect x="625" y="365" width="30" height="30" fill="hsl(240 100% 99.63544798374859%)" />
  <rect x="730" y="365" width="30" height="30" fill="hsl(240 100% 63.78876634762235%)" />
  <rect x="765" y="365" width="30" height="30" fill="hsl(240 100% 98.16333747620182%)" />
  <rect x="835" y="365" width="30" height="30" fill="hsl(240 100% 98.69629078747799%)" />
  <rect x="65" y="400" width="30" height="30" fill="hsl(240 100% 98.46625318554364%)" />
  <rect x="100" y="400" width="30" height="30" fill="hsl(240 100% 99.41647314909709%)" />
  <rect x="135" y="400" width="30" height="30" fill="hsl(240 100% 99.67512618958291%)" />
  <rect x="170" y="400" width="30" height="30" fill="hsl(240 100% 95.37071144766955%)" />
  <rect x="205" y="400" width="30" height="30" fill="hsl(240 100% 99.2349913926413%)" />
  <rect x="240" y="400" width="30" height="30" fill="hsl(240 100% 88.31518636326174%)" />
  <rect x="275" y="400" width="30" height="30" fill="hsl(240 100% 95.40241854934017%)" />
  <rect x="310" y="400" width="30" height="30" fill="rgb(255 255 255 / 50%)" />
  <rect x="380" y="400" width="30" height="30" fill="rgb(255 255 255 / 50%)" />
  <rect x="415" y="400" width="30" height="30" fill="hsl(240 100% 93.95707851231346%)" />
  <rect x="450" y="400" width="30" height="30" fill="hsl(240 100% 99.97182447995266%)" />
  <rect x="485" y="400" width="30" height="30" fill="hsl(240 100% 78.68704564688008%)" />
  <rect x="520" y="400" width="30" height="30" fill="hsl(240 100% 50%)" />
  <rect x="555" y="400" width="30" height="30" fill="hsl(240 100% 99.12009834049692%)" />
  <rect x="660" y="400" width="30" height="30" fill="rgb(255 255 255 / 50%)" />
  <rect x="835" y="400" width="30" height="30" fill="hsl(240 100% 99.11138105255552%)" />
  <rect x="65" y="435" width="30" height="30" fill="hsl(240 100% 92.50423804849832%)" />
  <rect x="240" y="435" width="30" height="30" fill="hsl(240 100% 50%)" />
  <rect x="310" y="435" width="30" height="30" fill="hsl(240 100% 94.03218241323235%)" />
  <rect x="415" y="435" width="30" height="30" fill="hsl(240 100% 86.37774504841265%)" />
  <rect x="450" y="435" width="30" height="30" fill="hsl(240 100% 99.8235509091453%)" />
  <rect x="65" y="470" width="30" height="30" fill="hsl(240 100% 50%)" />
  <rect x="240" y="470" width="30" height="30" fill="hsl(240 100% 50.45133990644736%)" />
  <rect x="310" y="470" width="30" height="30" fill="hsl(240 100% 97.15830557838221%)" />
  <rect x="415" y="470" width="30" height="30" fill="hsl(240 100% 89.06563676581786%)" />
  <rect x="450" y="470" width="30" height="30" fill="hsl(240 100% 99.61134232953516%)" />
</svg>
