<svg xmlns="http://www.w3.org/2000/svg" viewBox="0 0 870 505">
  <rect x="0" y="0" width="870" height="505" rx="5" ry="5" fill="#222" />
  <text x="60" y="100" fill="white" font-family="sans-serif" font-weight="bold" font-size="12" text-anchor="end" dominant-baseline="middle">ba</text>
  <text x="60" y="135" fill="white" font-family="sans-serif" font-weight="bold" font-size="12" text-anchor="end" dominant-baseline="middle">det</text>
  <text x="60" y="170" fill="white" font-family="sans-serif" font-weight="bold" font-size="12" text-anchor="end" dominant-baseline="middle">gmm</text>
  <text x="60" y="205" fill="white" font-family="sans-serif" font-weight="bold" font-size="12" text-anchor="end" dominant-baseline="middle">hello</text>
  <text x="60" y="240" fill="white" font-family="sans-serif" font-weight="bold" font-size="12" text-anchor="end" dominant-baseline="middle">ht</text>
  <text x="60" y="275" fill="white" font-family="sans-serif" font-weight="bold" font-size="12" text-anchor="end" dominant-baseline="middle">kmeans</text>
  <text x="60" y="310" fill="white" font-family="sans-serif" font-weight="bold" font-size="12" text-anchor="end" dominant-baseline="middle">llsq</text>
  <text x="60" y="345" fill="white" font-family="sans-serif" font-weight="bold" font-size="12" text-anchor="end" dominant-baseline="middle">lse</text>
  <text x="60" y="380" fill="white" font-family="sans-serif" font-weight="bold" font-size="12" text-anchor="end" dominant-baseline="middle">lstm</text>
  <text x="60" y="415" fill="white" font-family="sans-serif" font-weight="bold" font-size="12" text-anchor="end" dominant-baseline="middle">ode</text>
  <text x="60" y="450" fill="white" font-family="sans-serif" font-weight="bold" font-size="12" text-anchor="end" dominant-baseline="middle">particle</text>
  <text x="60" y="485" fill="white" font-family="sans-serif" font-weight="bold" font-size="12" text-anchor="end" dominant-baseline="middle">saddle</text>
  <text x="80" y="80" fill="white" font-family="sans-serif" font-weight="bold" font-size="12" text-anchor="end" dominant-baseline="middle" transform="rotate(90 80 80)">ad-hpp</text>
  <text x="115" y="80" fill="white" font-family="sans-serif" font-weight="bold" font-size="12" text-anchor="end" dominant-baseline="middle" transform="rotate(90 115 80)">adept</text>
  <text x="150" y="80" fill="white" font-family="sans-serif" font-weight="bold" font-size="12" text-anchor="end" dominant-baseline="middle" transform="rotate(90 150 80)">adol-c</text>
  <text x="185" y="80" fill="white" font-family="sans-serif" font-weight="bold" font-size="12" text-anchor="end" dominant-baseline="middle" transform="rotate(90 185 80)">codipack</text>
  <text x="220" y="80" fill="white" font-family="sans-serif" font-weight="bold" font-size="12" text-anchor="end" dominant-baseline="middle" transform="rotate(90 220 80)">cppad</text>
  <text x="255" y="80" fill="white" font-family="sans-serif" font-weight="bold" font-size="12" text-anchor="end" dominant-baseline="middle" transform="rotate(90 255 80)">enzyme</text>
  <text x="290" y="80" fill="white" font-family="sans-serif" font-weight="bold" font-size="12" text-anchor="end" dominant-baseline="middle" transform="rotate(90 290 80)">enzyme-jl</text>
  <text x="325" y="80" fill="white" font-family="sans-serif" font-weight="bold" font-size="12" text-anchor="end" dominant-baseline="middle" transform="rotate(90 325 80)">finite</text>
  <text x="360" y="80" fill="white" font-family="sans-serif" font-weight="bold" font-size="12" text-anchor="end" dominant-baseline="middle" transform="rotate(90 360 80)">floretta</text>
  <text x="395" y="80" fill="white" font-family="sans-serif" font-weight="bold" font-size="12" text-anchor="end" dominant-baseline="middle" transform="rotate(90 395 80)">forwarddiff-jl</text>
  <text x="430" y="80" fill="white" font-family="sans-serif" font-weight="bold" font-size="12" text-anchor="end" dominant-baseline="middle" transform="rotate(90 430 80)">futhark</text>
  <text x="465" y="80" fill="white" font-family="sans-serif" font-weight="bold" font-size="12" text-anchor="end" dominant-baseline="middle" transform="rotate(90 465 80)">haskell</text>
  <text x="500" y="80" fill="white" font-family="sans-serif" font-weight="bold" font-size="12" text-anchor="end" dominant-baseline="middle" transform="rotate(90 500 80)">jax</text>
  <text x="535" y="80" fill="white" font-family="sans-serif" font-weight="bold" font-size="12" text-anchor="end" dominant-baseline="middle" transform="rotate(90 535 80)">manual</text>
  <text x="570" y="80" fill="white" font-family="sans-serif" font-weight="bold" font-size="12" text-anchor="end" dominant-baseline="middle" transform="rotate(90 570 80)">mooncake-jl</text>
  <text x="605" y="80" fill="white" font-family="sans-serif" font-weight="bold" font-size="12" text-anchor="end" dominant-baseline="middle" transform="rotate(90 605 80)">ocaml</text>
  <text x="640" y="80" fill="white" font-family="sans-serif" font-weight="bold" font-size="12" text-anchor="end" dominant-baseline="middle" transform="rotate(90 640 80)">pytorch</text>
  <text x="675" y="80" fill="white" font-family="sans-serif" font-weight="bold" font-size="12" text-anchor="end" dominant-baseline="middle" transform="rotate(90 675 80)">reversediff-jl</text>
  <text x="710" y="80" fill="white" font-family="sans-serif" font-weight="bold" font-size="12" text-anchor="end" dominant-baseline="middle" transform="rotate(90 710 80)">scilean</text>
  <text x="745" y="80" fill="white" font-family="sans-serif" font-weight="bold" font-size="12" text-anchor="end" dominant-baseline="middle" transform="rotate(90 745 80)">tapenade</text>
  <text x="780" y="80" fill="white" font-family="sans-serif" font-weight="bold" font-size="12" text-anchor="end" dominant-baseline="middle" transform="rotate(90 780 80)">tensorflow</text>
  <text x="815" y="80" fill="white" font-family="sans-serif" font-weight="bold" font-size="12" text-anchor="end" dominant-baseline="middle" transform="rotate(90 815 80)">tensorflow-js</text>
  <text x="850" y="80" fill="white" font-family="sans-serif" font-weight="bold" font-size="12" text-anchor="end" dominant-baseline="middle" transform="rotate(90 850 80)">zygote</text>
  <rect x="65" y="85" width="30" height="30" fill="hsl(240 100% 81.1286780339444%)" />
  <rect x="100" y="85" width="30" height="30" fill="hsl(240 100% 83.16583889237123%)" />
  <rect x="135" y="85" width="30" height="30" fill="hsl(240 100% 98.01153419469043%)" />
  <rect x="170" y="85" width="30" height="30" fill="hsl(240 100% 82.40461748655578%)" />
  <rect x="205" y="85" width="30" height="30" fill="hsl(240 100% 99.00743001450924%)" />
  <rect x="240" y="85" width="30" height="30" fill="hsl(240 100% 51.69562301944087%)" />
  <rect x="310" y="85" width="30" height="30" fill="hsl(240 100% 93.28502898875351%)" />
  <rect x="415" y="85" width="30" height="30" fill="hsl(240 100% 68.2360468274316%)" />
  <rect x="520" y="85" width="30" height="30" fill="hsl(240 100% 50%)" />
  <rect x="625" y="85" width="30" height="30" fill="rgb(255 255 255 / 50%)" />
  <rect x="730" y="85" width="30" height="30" fill="hsl(240 100% 74.99986657045056%)" />
  <rect x="765" y="85" width="30" height="30" fill="rgb(255 255 255 / 50%)" />
  <rect x="835" y="85" width="30" height="30" fill="hsl(240 100% 99.73932527170092%)" />
  <rect x="65" y="120" width="30" height="30" fill="hsl(240 100% 50%)" />
  <rect x="100" y="120" width="30" height="30" fill="hsl(240 100% 82.35627643170736%)" />
  <rect x="135" y="120" width="30" height="30" fill="hsl(240 100% 85.64428345327777%)" />
  <rect x="170" y="120" width="30" height="30" fill="hsl(240 100% 52.88261695922912%)" />
  <rect x="205" y="120" width="30" height="30" fill="hsl(240 100% 92.52171838589013%)" />
  <rect x="240" y="120" width="30" height="30" fill="hsl(240 100% 91.34828995881881%)" />
  <rect x="275" y="120" width="30" height="30" fill="hsl(240 100% 99.3430439737926%)" />
  <rect x="310" y="120" width="30" height="30" fill="hsl(240 100% 98.98338567645705%)" />
  <rect x="380" y="120" width="30" height="30" fill="hsl(240 100% 93.329597672987%)" />
  <rect x="415" y="120" width="30" height="30" fill="hsl(240 100% 94.58832040595927%)" />
  <rect x="450" y="120" width="30" height="30" fill="hsl(240 100% 97.99154559664065%)" />
  <rect x="520" y="120" width="30" height="30" fill="hsl(240 100% 79.65956021865011%)" />
  <rect x="555" y="120" width="30" height="30" fill="hsl(240 100% 92.1126733818102%)" />
  <rect x="660" y="120" width="30" height="30" fill="rgb(255 255 255 / 50%)" />
  <rect x="835" y="120" width="30" height="30" fill="rgb(255 255 255 / 50%)" />
  <rect x="65" y="155" width="30" height="30" fill="hsl(240 100% 98.02378931010027%)" />
  <rect x="100" y="155" width="30" height="30" fill="hsl(240 100% 98.79203697615321%)" />
  <rect x="135" y="155" width="30" height="30" fill="hsl(240 100% 99.10733025216348%)" />
  <rect x="170" y="155" width="30" height="30" fill="hsl(240 100% 98.04221885829405%)" />
  <rect x="205" y="155" width="30" height="30" fill="hsl(240 100% 99.84717432002547%)" />
  <rect x="240" y="155" width="30" height="30" fill="hsl(240 100% 91.13128838500917%)" />
  <rect x="275" y="155" width="30" height="30" fill="hsl(240 100% 93.10173149196429%)" />
  <rect x="310" y="155" width="30" height="30" fill="rgb(255 255 255 / 50%)" />
  <rect x="415" y="155" width="30" height="30" fill="hsl(240 100% 92.95554827614542%)" />
  <rect x="485" y="155" width="30" height="30" fill="hsl(240 100% 50%)" />
  <rect x="520" y="155" width="30" height="30" fill="hsl(240 100% 83.25380246399226%)" />
  <rect x="590" y="155" width="30" height="30" fill="hsl(240 100% 99.59873113829435%)" />
  <rect x="625" y="155" width="30" height="30" fill="hsl(240 100% 66.65952991189019%)" />
  <rect x="695" y="155" width="30" height="30" fill="hsl(240 100% 95.43821756925975%)" />
  <rect x="730" y="155" width="30" height="30" fill="hsl(240 100% 83.73448442483812%)" />
  <rect x="765" y="155" width="30" height="30" fill="hsl(240 100% 99.57547913852736%)" />
  <rect x="835" y="155" width="30" height="30" fill="hsl(240 100% 96.30335506986324%)" />
  <rect x="65" y="190" width="30" height="30" fill="hsl(240 100% 50%)" />
  <rect x="100" y="190" width="30" height="30" fill="hsl(240 100% 50%)" />
  <rect x="135" y="190" width="30" height="30" fill="hsl(240 100% 50%)" />
  <rect x="170" y="190" width="30" height="30" fill="hsl(240 100% 50%)" />
  <rect x="205" y="190" width="30" height="30" fill="hsl(240 100% 50%)" />
  <rect x="240" y="190" width="30" height="30" fill="hsl(240 100% 50%)" />
  <rect x="275" y="190" width="30" height="30" fill="hsl(240 100% 50%)" />
  <rect x="310" y="190" width="30" height="30" fill="hsl(240 100% 50%)" />
  <rect x="345" y="190" width="30" height="30" fill="hsl(240 100% 50%)" />
  <rect x="380" y="190" width="30" height="30" fill="hsl(240 100% 50%)" />
  <rect x="415" y="190" width="30" height="30" fill="hsl(240 100% 50%)" />
  <rect x="450" y="190" width="30" height="30" fill="hsl(240 100% 50%)" />
  <rect x="485" y="190" width="30" height="30" fill="hsl(240 100% 50%)" />
  <rect x="520" y="190" width="30" height="30" fill="hsl(240 100% 50%)" />
  <rect x="555" y="190" width="30" height="30" fill="hsl(240 100% 50%)" />
  <rect x="590" y="190" width="30" height="30" fill="hsl(240 100% 50%)" />
  <rect x="625" y="190" width="30" height="30" fill="hsl(240 100% 50%)" />
  <rect x="660" y="190" width="30" height="30" fill="hsl(240 100% 50%)" />
  <rect x="695" y="190" width="30" height="30" fill="hsl(240 100% 50%)" />
  <rect x="730" y="190" width="30" height="30" fill="hsl(240 100% 50%)" />
  <rect x="765" y="190" width="30" height="30" fill="hsl(240 100% 50%)" />
  <rect x="800" y="190" width="30" height="30" fill="hsl(240 100% 50%)" />
  <rect x="835" y="190" width="30" height="30" fill="hsl(240 100% 50%)" />
  <rect x="100" y="225" width="30" height="30" fill="hsl(240 100% 96.68867923774928%)" />
  <rect x="135" y="225" width="30" height="30" fill="hsl(240 100% 89.19341966939629%)" />
  <rect x="170" y="225" width="30" height="30" fill="hsl(240 100% 89.308349406849%)" />
  <rect x="240" y="225" width="30" height="30" fill="hsl(240 100% 91.51230888136095%)" />
  <rect x="310" y="225" width="30" height="30" fill="rgb(255 255 255 / 50%)" />
  <rect x="415" y="225" width="30" height="30" fill="hsl(240 100% 90.64102215604186%)" />
  <rect x="520" y="225" width="30" height="30" fill="hsl(240 100% 50%)" />
  <rect x="625" y="225" width="30" height="30" fill="rgb(255 255 255 / 50%)" />
  <rect x="730" y="225" width="30" height="30" fill="hsl(240 100% 93.18095819211135%)" />
  <rect x="765" y="225" width="30" height="30" fill="rgb(255 255 255 / 50%)" />
  <rect x="835" y="225" width="30" height="30" fill="hsl(240 100% 94.48160970739804%)" />
  <rect x="65" y="260" width="30" height="30" fill="hsl(240 100% 99.87733846316559%)" />
  <rect x="135" y="260" width="30" height="30" fill="hsl(240 100% 99.87779346798021%)" />
  <rect x="170" y="260" width="30" height="30" fill="hsl(240 100% 98.84167735117889%)" />
  <rect x="205" y="260" width="30" height="30" fill="rgb(255 255 255 / 50%)" />
  <rect x="240" y="260" width="30" height="30" fill="hsl(240 100% 86.72591160481271%)" />
  <rect x="310" y="260" width="30" height="30" fill="rgb(255 255 255 / 50%)" />
  <rect x="415" y="260" width="30" height="30" fill="hsl(240 100% 80.03500948657666%)" />
  <rect x="450" y="260" width="30" height="30" fill="rgb(255 255 255 / 50%)" />
  <rect x="485" y="260" width="30" height="30" fill="hsl(240 100% 50%)" />
  <rect x="520" y="260" width="30" height="30" fill="hsl(240 100% 70.45151344379582%)" />
  <rect x="625" y="260" width="30" height="30" fill="hsl(240 100% 96.95827883722332%)" />
  <rect x="695" y="260" width="30" height="30" fill="hsl(240 100% 93.96447398152395%)" />
  <rect x="65" y="295" width="30" height="30" fill="hsl(240 100% 85.75480114321847%)" />
  <rect x="100" y="295" width="30" height="30" fill="hsl(240 100% 97.49195688581901%)" />
  <rect x="135" y="295" width="30" height="30" fill="hsl(240 100% 95.16136644145335%)" />
  <rect x="170" y="295" width="30" height="30" fill="hsl(240 100% 90.5910912654333%)" />
  <rect x="205" y="295" width="30" height="30" fill="hsl(240 100% 99.46302804202394%)" />
  <rect x="240" y="295" width="30" height="30" fill="hsl(240 100% 50%)" />
  <rect x="275" y="295" width="30" height="30" fill="hsl(240 100% 50.666745758228004%)" />
  <rect x="310" y="295" width="30" height="30" fill="hsl(240 100% 99.49348947476773%)" />
  <rect x="345" y="295" width="30" height="30" fill="hsl(240 100% 94.66785996700348%)" />
  <rect x="415" y="295" width="30" height="30" fill="hsl(240 100% 54.68778488780196%)" />
  <rect x="450" y="295" width="30" height="30" fill="hsl(240 100% 99.32868440169288%)" />
  <rect x="485" y="295" width="30" height="30" fill="hsl(240 100% 88.61973487880374%)" />
  <rect x="520" y="295" width="30" height="30" fill="hsl(240 100% 57.49316512009045%)" />
  <rect x="695" y="295" width="30" height="30" fill="hsl(240 100% 97.58340910330148%)" />
  <rect x="800" y="295" width="30" height="30" fill="hsl(240 100% 99.56653207902883%)" />
  <rect x="835" y="295" width="30" height="30" fill="hsl(240 100% 99.95601570384015%)" />
  <rect x="65" y="330" width="30" height="30" fill="hsl(240 100% 87.55221877535934%)" />
  <rect x="100" y="330" width="30" height="30" fill="hsl(240 100% 94.00674310763863%)" />
  <rect x="135" y="330" width="30" height="30" fill="hsl(240 100% 96.74595749560423%)" />
  <rect x="170" y="330" width="30" height="30" fill="hsl(240 100% 86.91161307882665%)" />
  <rect x="205" y="330" width="30" height="30" fill="hsl(240 100% 99.10064311830699%)" />
  <rect x="240" y="330" width="30" height="30" fill="hsl(240 100% 76.96844479661534%)" />
  <rect x="275" y="330" width="30" height="30" fill="hsl(240 100% 87.23174303345759%)" />
  <rect x="310" y="330" width="30" height="30" fill="rgb(255 255 255 / 50%)" />
  <rect x="345" y="330" width="30" height="30" fill="hsl(240 100% 96.85710189025444%)" />
  <rect x="415" y="330" width="30" height="30" fill="hsl(240 100% 83.98656832627616%)" />
  <rect x="450" y="330" width="30" height="30" fill="hsl(240 100% 99.7900263936568%)" />
  <rect x="485" y="330" width="30" height="30" fill="hsl(240 100% 68.14782473801402%)" />
  <rect x="520" y="330" width="30" height="30" fill="hsl(240 100% 73.33661789426247%)" />
  <rect x="590" y="330" width="30" height="30" fill="hsl(240 100% 92.94435362236172%)" />
  <rect x="625" y="330" width="30" height="30" fill="hsl(240 100% 50%)" />
  <rect x="765" y="330" width="30" height="30" fill="hsl(240 100% 93.49917688322158%)" />
  <rect x="800" y="330" width="30" height="30" fill="hsl(240 100% 99.10624013817842%)" />
  <rect x="835" y="330" width="30" height="30" fill="hsl(240 100% 78.30212302800216%)" />
  <rect x="65" y="365" width="30" height="30" fill="hsl(240 100% 57.527637455912476%)" />
  <rect x="100" y="365" width="30" height="30" fill="hsl(240 100% 71.80225719872209%)" />
  <rect x="135" y="365" width="30" height="30" fill="hsl(240 100% 82.22529916881464%)" />
  <rect x="170" y="365" width="30" height="30" fill="hsl(240 100% 50%)" />
  <rect x="205" y="365" width="30" height="30" fill="hsl(240 100% 96.23883463053649%)" />
  <rect x="240" y="365" width="30" height="30" fill="hsl(240 100% 59.6560634030714%)" />
  <rect x="275" y="365" width="30" height="30" fill="hsl(240 100% 92.7847159379471%)" />
  <rect x="310" y="365" width="30" height="30" fill="hsl(240 100% 99.86268585125666%)" />
  <rect x="415" y="365" width="30" height="30" fill="hsl(240 100% 66.75707122124851%)" />
  <rect x="520" y="365" width="30" height="30" fill="hsl(240 100% 86.01915153637947%)" />
  <rect x="625" y="365" width="30" height="30" fill="hsl(240 100% 99.63474541736198%)" />
  <rect x="730" y="365" width="30" height="30" fill="hsl(240 100% 63.483042612368344%)" />
  <rect x="765" y="365" width="30" height="30" fill="hsl(240 100% 98.16115263724149%)" />
  <rect x="835" y="365" width="30" height="30" fill="hsl(240 100% 98.82973591217878%)" />
  <rect x="65" y="400" width="30" height="30" fill="hsl(240 100% 97.73345583450858%)" />
  <rect x="100" y="400" width="30" height="30" fill="hsl(240 100% 99.28593525022254%)" />
  <rect x="135" y="400" width="30" height="30" fill="hsl(240 100% 99.60668428657536%)" />
  <rect x="170" y="400" width="30" height="30" fill="hsl(240 100% 94.43445840237531%)" />
  <rect x="205" y="400" width="30" height="30" fill="hsl(240 100% 99.06406927018101%)" />
  <rect x="240" y="400" width="30" height="30" fill="hsl(240 100% 85.87965052411626%)" />
  <rect x="275" y="400" width="30" height="30" fill="hsl(240 100% 94.3230533645344%)" />
  <rect x="310" y="400" width="30" height="30" fill="rgb(255 255 255 / 50%)" />
  <rect x="380" y="400" width="30" height="30" fill="rgb(255 255 255 / 50%)" />
  <rect x="415" y="400" width="30" height="30" fill="hsl(240 100% 92.64276801952846%)" />
  <rect x="450" y="400" width="30" height="30" fill="hsl(240 100% 99.96526307316668%)" />
  <rect x="485" y="400" width="30" height="30" fill="hsl(240 100% 73.61011905001223%)" />
  <rect x="520" y="400" width="30" height="30" fill="hsl(240 100% 50%)" />
  <rect x="555" y="400" width="30" height="30" fill="hsl(240 100% 98.90865815928045%)" />
  <rect x="660" y="400" width="30" height="30" fill="rgb(255 255 255 / 50%)" />
  <rect x="835" y="400" width="30" height="30" fill="hsl(240 100% 98.93859835313054%)" />
  <rect x="65" y="435" width="30" height="30" fill="hsl(240 100% 92.83454052606028%)" />
  <rect x="240" y="435" width="30" height="30" fill="hsl(240 100% 50%)" />
  <rect x="310" y="435" width="30" height="30" fill="hsl(240 100% 94.33716428655937%)" />
  <rect x="415" y="435" width="30" height="30" fill="hsl(240 100% 86.99822037025558%)" />
  <rect x="450" y="435" width="30" height="30" fill="hsl(240 100% 99.78647632908448%)" />
  <rect x="65" y="470" width="30" height="30" fill="hsl(240 100% 50%)" />
  <rect x="240" y="470" width="30" height="30" fill="hsl(240 100% 50.12527876831792%)" />
  <rect x="310" y="470" width="30" height="30" fill="hsl(240 100% 97.14871567246621%)" />
  <rect x="415" y="470" width="30" height="30" fill="hsl(240 100% 89.05973991544461%)" />
  <rect x="450" y="470" width="30" height="30" fill="hsl(240 100% 99.56606092859815%)" />
</svg>
