<svg xmlns="http://www.w3.org/2000/svg" viewBox="0 0 870 505">
  <rect x="0" y="0" width="870" height="505" rx="5" ry="5" fill="#222" />
  <text x="60" y="100" fill="white" font-family="sans-serif" font-weight="bold" font-size="12" text-anchor="end" dominant-baseline="middle">ba</text>
  <text x="60" y="135" fill="white" font-family="sans-serif" font-weight="bold" font-size="12" text-anchor="end" dominant-baseline="middle">det</text>
  <text x="60" y="170" fill="white" font-family="sans-serif" font-weight="bold" font-size="12" text-anchor="end" dominant-baseline="middle">gmm</text>
  <text x="60" y="205" fill="white" font-family="sans-serif" font-weight="bold" font-size="12" text-anchor="end" dominant-baseline="middle">hello</text>
  <text x="60" y="240" fill="white" font-family="sans-serif" font-weight="bold" font-size="12" text-anchor="end" dominant-baseline="middle">ht</text>
  <text x="60" y="275" fill="white" font-family="sans-serif" font-weight="bold" font-size="12" text-anchor="end" dominant-baseline="middle">kmeans</text>
  <text x="60" y="310" fill="white" font-family="sans-serif" font-weight="bold" font-size="12" text-anchor="end" dominant-baseline="middle">llsq</text>
  <text x="60" y="345" fill="white" font-family="sans-serif" font-weight="bold" font-size="12" text-anchor="end" dominant-baseline="middle">lse</text>
  <text x="60" y="380" fill="white" font-family="sans-serif" font-weight="bold" font-size="12" text-anchor="end" dominant-baseline="middle">lstm</text>
  <text x="60" y="415" fill="white" font-family="sans-serif" font-weight="bold" font-size="12" text-anchor="end" dominant-baseline="middle">ode</text>
  <text x="60" y="450" fill="white" font-family="sans-serif" font-weight="bold" font-size="12" text-anchor="end" dominant-baseline="middle">particle</text>
  <text x="60" y="485" fill="white" font-family="sans-serif" font-weight="bold" font-size="12" text-anchor="end" dominant-baseline="middle">saddle</text>
  <text x="80" y="80" fill="white" font-family="sans-serif" font-weight="bold" font-size="12" text-anchor="end" dominant-baseline="middle" transform="rotate(90 80 80)">ad-hpp</text>
  <text x="115" y="80" fill="white" font-family="sans-serif" font-weight="bold" font-size="12" text-anchor="end" dominant-baseline="middle" transform="rotate(90 115 80)">adept</text>
  <text x="150" y="80" fill="white" font-family="sans-serif" font-weight="bold" font-size="12" text-anchor="end" dominant-baseline="middle" transform="rotate(90 150 80)">adol-c</text>
  <text x="185" y="80" fill="white" font-family="sans-serif" font-weight="bold" font-size="12" text-anchor="end" dominant-baseline="middle" transform="rotate(90 185 80)">codipack</text>
  <text x="220" y="80" fill="white" font-family="sans-serif" font-weight="bold" font-size="12" text-anchor="end" dominant-baseline="middle" transform="rotate(90 220 80)">cppad</text>
  <text x="255" y="80" fill="white" font-family="sans-serif" font-weight="bold" font-size="12" text-anchor="end" dominant-baseline="middle" transform="rotate(90 255 80)">enzyme</text>
  <text x="290" y="80" fill="white" font-family="sans-serif" font-weight="bold" font-size="12" text-anchor="end" dominant-baseline="middle" transform="rotate(90 290 80)">enzyme-jl</text>
  <text x="325" y="80" fill="white" font-family="sans-serif" font-weight="bold" font-size="12" text-anchor="end" dominant-baseline="middle" transform="rotate(90 325 80)">finite</text>
  <text x="360" y="80" fill="white" font-family="sans-serif" font-weight="bold" font-size="12" text-anchor="end" dominant-baseline="middle" transform="rotate(90 360 80)">floretta</text>
  <text x="395" y="80" fill="white" font-family="sans-serif" font-weight="bold" font-size="12" text-anchor="end" dominant-baseline="middle" transform="rotate(90 395 80)">forwarddiff-jl</text>
  <text x="430" y="80" fill="white" font-family="sans-serif" font-weight="bold" font-size="12" text-anchor="end" dominant-baseline="middle" transform="rotate(90 430 80)">futhark</text>
  <text x="465" y="80" fill="white" font-family="sans-serif" font-weight="bold" font-size="12" text-anchor="end" dominant-baseline="middle" transform="rotate(90 465 80)">haskell</text>
  <text x="500" y="80" fill="white" font-family="sans-serif" font-weight="bold" font-size="12" text-anchor="end" dominant-baseline="middle" transform="rotate(90 500 80)">jax</text>
  <text x="535" y="80" fill="white" font-family="sans-serif" font-weight="bold" font-size="12" text-anchor="end" dominant-baseline="middle" transform="rotate(90 535 80)">manual</text>
  <text x="570" y="80" fill="white" font-family="sans-serif" font-weight="bold" font-size="12" text-anchor="end" dominant-baseline="middle" transform="rotate(90 570 80)">mooncake-jl</text>
  <text x="605" y="80" fill="white" font-family="sans-serif" font-weight="bold" font-size="12" text-anchor="end" dominant-baseline="middle" transform="rotate(90 605 80)">ocaml</text>
  <text x="640" y="80" fill="white" font-family="sans-serif" font-weight="bold" font-size="12" text-anchor="end" dominant-baseline="middle" transform="rotate(90 640 80)">pytorch</text>
  <text x="675" y="80" fill="white" font-family="sans-serif" font-weight="bold" font-size="12" text-anchor="end" dominant-baseline="middle" transform="rotate(90 675 80)">reversediff-jl</text>
  <text x="710" y="80" fill="white" font-family="sans-serif" font-weight="bold" font-size="12" text-anchor="end" dominant-baseline="middle" transform="rotate(90 710 80)">scilean</text>
  <text x="745" y="80" fill="white" font-family="sans-serif" font-weight="bold" font-size="12" text-anchor="end" dominant-baseline="middle" transform="rotate(90 745 80)">tapenade</text>
  <text x="780" y="80" fill="white" font-family="sans-serif" font-weight="bold" font-size="12" text-anchor="end" dominant-baseline="middle" transform="rotate(90 780 80)">tensorflow</text>
  <text x="815" y="80" fill="white" font-family="sans-serif" font-weight="bold" font-size="12" text-anchor="end" dominant-baseline="middle" transform="rotate(90 815 80)">tensorflow-js</text>
  <text x="850" y="80" fill="white" font-family="sans-serif" font-weight="bold" font-size="12" text-anchor="end" dominant-baseline="middle" transform="rotate(90 850 80)">zygote</text>
  <rect x="65" y="85" width="30" height="30" fill="hsl(240 100% 80.53516629331263%)" />
  <rect x="100" y="85" width="30" height="30" fill="hsl(240 100% 82.39298682042536%)" />
  <rect x="135" y="85" width="30" height="30" fill="hsl(240 100% 97.89389556837835%)" />
  <rect x="170" y="85" width="30" height="30" fill="hsl(240 100% 81.3549688535916%)" />
  <rect x="205" y="85" width="30" height="30" fill="hsl(240 100% 98.94317002386013%)" />
  <rect x="240" y="85" width="30" height="30" fill="hsl(240 100% 50%)" />
  <rect x="310" y="85" width="30" height="30" fill="hsl(240 100% 92.8270282251408%)" />
  <rect x="415" y="85" width="30" height="30" fill="hsl(240 100% 66.94276402215453%)" />
  <rect x="520" y="85" width="30" height="30" fill="hsl(240 100% 54.00179220552536%)" />
  <rect x="625" y="85" width="30" height="30" fill="rgb(255 255 255 / 50%)" />
  <rect x="730" y="85" width="30" height="30" fill="hsl(240 100% 73.68014987328931%)" />
  <rect x="765" y="85" width="30" height="30" fill="rgb(255 255 255 / 50%)" />
  <rect x="835" y="85" width="30" height="30" fill="hsl(240 100% 99.73564828844991%)" />
  <rect x="65" y="120" width="30" height="30" fill="hsl(240 100% 50%)" />
  <rect x="100" y="120" width="30" height="30" fill="hsl(240 100% 82.90103628951962%)" />
  <rect x="135" y="120" width="30" height="30" fill="hsl(240 100% 85.50355614283585%)" />
  <rect x="170" y="120" width="30" height="30" fill="hsl(240 100% 52.6111098334286%)" />
  <rect x="205" y="120" width="30" height="30" fill="hsl(240 100% 92.62128028531508%)" />
  <rect x="240" y="120" width="30" height="30" fill="hsl(240 100% 91.551790478297%)" />
  <rect x="275" y="120" width="30" height="30" fill="hsl(240 100% 99.36384610341663%)" />
  <rect x="310" y="120" width="30" height="30" fill="hsl(240 100% 98.9987406136571%)" />
  <rect x="380" y="120" width="30" height="30" fill="hsl(240 100% 93.33296732189093%)" />
  <rect x="415" y="120" width="30" height="30" fill="hsl(240 100% 94.63188289778913%)" />
  <rect x="450" y="120" width="30" height="30" fill="hsl(240 100% 97.88495495819377%)" />
  <rect x="520" y="120" width="30" height="30" fill="hsl(240 100% 79.70618870734152%)" />
  <rect x="555" y="120" width="30" height="30" fill="hsl(240 100% 91.75987384250195%)" />
  <rect x="660" y="120" width="30" height="30" fill="rgb(255 255 255 / 50%)" />
  <rect x="835" y="120" width="30" height="30" fill="rgb(255 255 255 / 50%)" />
  <rect x="65" y="155" width="30" height="30" fill="hsl(240 100% 98.51144584166718%)" />
  <rect x="100" y="155" width="30" height="30" fill="hsl(240 100% 98.83285085687076%)" />
  <rect x="135" y="155" width="30" height="30" fill="hsl(240 100% 99.3037491278654%)" />
  <rect x="170" y="155" width="30" height="30" fill="hsl(240 100% 98.00571703118318%)" />
  <rect x="205" y="155" width="30" height="30" fill="hsl(240 100% 99.84809495082804%)" />
  <rect x="240" y="155" width="30" height="30" fill="hsl(240 100% 91.15416561650105%)" />
  <rect x="275" y="155" width="30" height="30" fill="hsl(240 100% 92.54504530329018%)" />
  <rect x="310" y="155" width="30" height="30" fill="rgb(255 255 255 / 50%)" />
  <rect x="415" y="155" width="30" height="30" fill="hsl(240 100% 92.9638936008786%)" />
  <rect x="485" y="155" width="30" height="30" fill="hsl(240 100% 50%)" />
  <rect x="520" y="155" width="30" height="30" fill="hsl(240 100% 80.88836223477173%)" />
  <rect x="590" y="155" width="30" height="30" fill="hsl(240 100% 99.58895971403805%)" />
  <rect x="625" y="155" width="30" height="30" fill="hsl(240 100% 65.87317024908131%)" />
  <rect x="695" y="155" width="30" height="30" fill="hsl(240 100% 95.40562935331096%)" />
  <rect x="730" y="155" width="30" height="30" fill="hsl(240 100% 83.81734744174142%)" />
  <rect x="765" y="155" width="30" height="30" fill="hsl(240 100% 99.57935912259482%)" />
  <rect x="835" y="155" width="30" height="30" fill="hsl(240 100% 96.25243467036121%)" />
  <rect x="65" y="190" width="30" height="30" fill="hsl(240 100% 50%)" />
  <rect x="100" y="190" width="30" height="30" fill="hsl(240 100% 50%)" />
  <rect x="135" y="190" width="30" height="30" fill="hsl(240 100% 50%)" />
  <rect x="170" y="190" width="30" height="30" fill="hsl(240 100% 50%)" />
  <rect x="205" y="190" width="30" height="30" fill="hsl(240 100% 50%)" />
  <rect x="240" y="190" width="30" height="30" fill="hsl(240 100% 50%)" />
  <rect x="275" y="190" width="30" height="30" fill="hsl(240 100% 50%)" />
  <rect x="310" y="190" width="30" height="30" fill="hsl(240 100% 50%)" />
  <rect x="345" y="190" width="30" height="30" fill="hsl(240 100% 50%)" />
  <rect x="380" y="190" width="30" height="30" fill="hsl(240 100% 50%)" />
  <rect x="415" y="190" width="30" height="30" fill="hsl(240 100% 50%)" />
  <rect x="450" y="190" width="30" height="30" fill="hsl(240 100% 50%)" />
  <rect x="485" y="190" width="30" height="30" fill="hsl(240 100% 50%)" />
  <rect x="520" y="190" width="30" height="30" fill="hsl(240 100% 50%)" />
  <rect x="555" y="190" width="30" height="30" fill="hsl(240 100% 50%)" />
  <rect x="590" y="190" width="30" height="30" fill="hsl(240 100% 50%)" />
  <rect x="625" y="190" width="30" height="30" fill="hsl(240 100% 50%)" />
  <rect x="660" y="190" width="30" height="30" fill="hsl(240 100% 50%)" />
  <rect x="695" y="190" width="30" height="30" fill="hsl(240 100% 50%)" />
  <rect x="730" y="190" width="30" height="30" fill="hsl(240 100% 50%)" />
  <rect x="765" y="190" width="30" height="30" fill="hsl(240 100% 50%)" />
  <rect x="800" y="190" width="30" height="30" fill="hsl(240 100% 50%)" />
  <rect x="835" y="190" width="30" height="30" fill="hsl(240 100% 50%)" />
  <rect x="100" y="225" width="30" height="30" fill="hsl(240 100% 96.2340368270087%)" />
  <rect x="135" y="225" width="30" height="30" fill="hsl(240 100% 86.3447413995494%)" />
  <rect x="170" y="225" width="30" height="30" fill="hsl(240 100% 87.85005508341004%)" />
  <rect x="240" y="225" width="30" height="30" fill="hsl(240 100% 90.19671888795912%)" />
  <rect x="310" y="225" width="30" height="30" fill="rgb(255 255 255 / 50%)" />
  <rect x="415" y="225" width="30" height="30" fill="hsl(240 100% 89.17322377867919%)" />
  <rect x="520" y="225" width="30" height="30" fill="hsl(240 100% 50%)" />
  <rect x="625" y="225" width="30" height="30" fill="rgb(255 255 255 / 50%)" />
  <rect x="730" y="225" width="30" height="30" fill="hsl(240 100% 92.16908349559067%)" />
  <rect x="765" y="225" width="30" height="30" fill="rgb(255 255 255 / 50%)" />
  <rect x="835" y="225" width="30" height="30" fill="hsl(240 100% 93.43861197306663%)" />
  <rect x="65" y="260" width="30" height="30" fill="hsl(240 100% 99.82078186745011%)" />
  <rect x="135" y="260" width="30" height="30" fill="hsl(240 100% 99.85528137250682%)" />
  <rect x="170" y="260" width="30" height="30" fill="hsl(240 100% 98.92512622414445%)" />
  <rect x="205" y="260" width="30" height="30" fill="rgb(255 255 255 / 50%)" />
  <rect x="240" y="260" width="30" height="30" fill="hsl(240 100% 87.05638773392934%)" />
  <rect x="310" y="260" width="30" height="30" fill="rgb(255 255 255 / 50%)" />
  <rect x="415" y="260" width="30" height="30" fill="hsl(240 100% 80.7480014066791%)" />
  <rect x="450" y="260" width="30" height="30" fill="rgb(255 255 255 / 50%)" />
  <rect x="485" y="260" width="30" height="30" fill="hsl(240 100% 50%)" />
  <rect x="520" y="260" width="30" height="30" fill="hsl(240 100% 72.16120406584501%)" />
  <rect x="625" y="260" width="30" height="30" fill="hsl(240 100% 97.09997093551355%)" />
  <rect x="695" y="260" width="30" height="30" fill="hsl(240 100% 94.07863070162034%)" />
  <rect x="65" y="295" width="30" height="30" fill="hsl(240 100% 86.02833192165595%)" />
  <rect x="100" y="295" width="30" height="30" fill="hsl(240 100% 97.47898978725915%)" />
  <rect x="135" y="295" width="30" height="30" fill="hsl(240 100% 95.05297343377721%)" />
  <rect x="170" y="295" width="30" height="30" fill="hsl(240 100% 89.36173487633887%)" />
  <rect x="205" y="295" width="30" height="30" fill="hsl(240 100% 99.48641978892793%)" />
  <rect x="240" y="295" width="30" height="30" fill="hsl(240 100% 50.74962849959203%)" />
  <rect x="275" y="295" width="30" height="30" fill="hsl(240 100% 50%)" />
  <rect x="310" y="295" width="30" height="30" fill="hsl(240 100% 99.50066925126852%)" />
  <rect x="345" y="295" width="30" height="30" fill="hsl(240 100% 94.74196754337052%)" />
  <rect x="415" y="295" width="30" height="30" fill="hsl(240 100% 55.3250677217897%)" />
  <rect x="450" y="295" width="30" height="30" fill="hsl(240 100% 99.31741528740487%)" />
  <rect x="485" y="295" width="30" height="30" fill="hsl(240 100% 88.17030515413441%)" />
  <rect x="520" y="295" width="30" height="30" fill="hsl(240 100% 57.97859950698267%)" />
  <rect x="695" y="295" width="30" height="30" fill="hsl(240 100% 97.61402488536729%)" />
  <rect x="800" y="295" width="30" height="30" fill="hsl(240 100% 99.57845625034177%)" />
  <rect x="835" y="295" width="30" height="30" fill="hsl(240 100% 99.95390359429047%)" />
  <rect x="65" y="330" width="30" height="30" fill="hsl(240 100% 87.0926317027485%)" />
  <rect x="100" y="330" width="30" height="30" fill="hsl(240 100% 94.21302674882247%)" />
  <rect x="135" y="330" width="30" height="30" fill="hsl(240 100% 96.91964458411806%)" />
  <rect x="170" y="330" width="30" height="30" fill="hsl(240 100% 86.94588364258014%)" />
  <rect x="205" y="330" width="30" height="30" fill="hsl(240 100% 99.20229521550375%)" />
  <rect x="240" y="330" width="30" height="30" fill="hsl(240 100% 79.49299874759704%)" />
  <rect x="275" y="330" width="30" height="30" fill="hsl(240 100% 87.18183296362409%)" />
  <rect x="310" y="330" width="30" height="30" fill="rgb(255 255 255 / 50%)" />
  <rect x="345" y="330" width="30" height="30" fill="hsl(240 100% 97.1992735919783%)" />
  <rect x="415" y="330" width="30" height="30" fill="hsl(240 100% 85.49210204189994%)" />
  <rect x="450" y="330" width="30" height="30" fill="hsl(240 100% 99.80569289352653%)" />
  <rect x="485" y="330" width="30" height="30" fill="hsl(240 100% 71.09407299465235%)" />
  <rect x="520" y="330" width="30" height="30" fill="hsl(240 100% 70.36557969097407%)" />
  <rect x="590" y="330" width="30" height="30" fill="hsl(240 100% 93.72203178972242%)" />
  <rect x="625" y="330" width="30" height="30" fill="hsl(240 100% 50%)" />
  <rect x="765" y="330" width="30" height="30" fill="hsl(240 100% 94.30101936879078%)" />
  <rect x="800" y="330" width="30" height="30" fill="hsl(240 100% 99.20738110626712%)" />
  <rect x="835" y="330" width="30" height="30" fill="hsl(240 100% 80.71614723830682%)" />
  <rect x="65" y="365" width="30" height="30" fill="hsl(240 100% 57.171868290434865%)" />
  <rect x="100" y="365" width="30" height="30" fill="hsl(240 100% 71.30397265130934%)" />
  <rect x="135" y="365" width="30" height="30" fill="hsl(240 100% 81.75666483399556%)" />
  <rect x="170" y="365" width="30" height="30" fill="hsl(240 100% 50%)" />
  <rect x="205" y="365" width="30" height="30" fill="hsl(240 100% 96.02757922076296%)" />
  <rect x="240" y="365" width="30" height="30" fill="hsl(240 100% 59.5168656647855%)" />
  <rect x="275" y="365" width="30" height="30" fill="hsl(240 100% 92.40332576005086%)" />
  <rect x="310" y="365" width="30" height="30" fill="hsl(240 100% 99.86096576033422%)" />
  <rect x="415" y="365" width="30" height="30" fill="hsl(240 100% 66.67018158399492%)" />
  <rect x="520" y="365" width="30" height="30" fill="hsl(240 100% 86.04601896909797%)" />
  <rect x="625" y="365" width="30" height="30" fill="hsl(240 100% 99.64077511268626%)" />
  <rect x="730" y="365" width="30" height="30" fill="hsl(240 100% 63.235182899556555%)" />
  <rect x="765" y="365" width="30" height="30" fill="hsl(240 100% 98.17193277944233%)" />
  <rect x="835" y="365" width="30" height="30" fill="hsl(240 100% 98.71269315841099%)" />
  <rect x="65" y="400" width="30" height="30" fill="hsl(240 100% 98.16638054344148%)" />
  <rect x="100" y="400" width="30" height="30" fill="hsl(240 100% 99.4118438731543%)" />
  <rect x="135" y="400" width="30" height="30" fill="hsl(240 100% 99.66032937621578%)" />
  <rect x="170" y="400" width="30" height="30" fill="hsl(240 100% 94.08638496026872%)" />
  <rect x="205" y="400" width="30" height="30" fill="hsl(240 100% 99.22691563626313%)" />
  <rect x="240" y="400" width="30" height="30" fill="hsl(240 100% 85.73539865868268%)" />
  <rect x="275" y="400" width="30" height="30" fill="hsl(240 100% 95.23779450227335%)" />
  <rect x="310" y="400" width="30" height="30" fill="rgb(255 255 255 / 50%)" />
  <rect x="380" y="400" width="30" height="30" fill="rgb(255 255 255 / 50%)" />
  <rect x="415" y="400" width="30" height="30" fill="hsl(240 100% 93.9038460873807%)" />
  <rect x="450" y="400" width="30" height="30" fill="hsl(240 100% 99.97016071604212%)" />
  <rect x="485" y="400" width="30" height="30" fill="hsl(240 100% 78.82649533716133%)" />
  <rect x="520" y="400" width="30" height="30" fill="hsl(240 100% 50%)" />
  <rect x="555" y="400" width="30" height="30" fill="hsl(240 100% 99.10771891998198%)" />
  <rect x="660" y="400" width="30" height="30" fill="rgb(255 255 255 / 50%)" />
  <rect x="835" y="400" width="30" height="30" fill="hsl(240 100% 99.13713780968422%)" />
  <rect x="65" y="435" width="30" height="30" fill="hsl(240 100% 93.27800358049439%)" />
  <rect x="240" y="435" width="30" height="30" fill="hsl(240 100% 50%)" />
  <rect x="310" y="435" width="30" height="30" fill="hsl(240 100% 93.8476339345082%)" />
  <rect x="415" y="435" width="30" height="30" fill="hsl(240 100% 86.98365996907823%)" />
  <rect x="450" y="435" width="30" height="30" fill="hsl(240 100% 99.7756674590189%)" />
  <rect x="65" y="470" width="30" height="30" fill="hsl(240 100% 50%)" />
  <rect x="240" y="470" width="30" height="30" fill="hsl(240 100% 50.039517354599006%)" />
  <rect x="310" y="470" width="30" height="30" fill="hsl(240 100% 96.97107263318323%)" />
  <rect x="415" y="470" width="30" height="30" fill="hsl(240 100% 89.04093438321235%)" />
  <rect x="450" y="470" width="30" height="30" fill="hsl(240 100% 99.57567527059906%)" />
</svg>
