<svg xmlns="http://www.w3.org/2000/svg" viewBox="0 0 870 505">
  <rect x="0" y="0" width="870" height="505" rx="5" ry="5" fill="#222" />
  <text x="60" y="100" fill="white" font-family="sans-serif" font-weight="bold" font-size="12" text-anchor="end" dominant-baseline="middle">ba</text>
  <text x="60" y="135" fill="white" font-family="sans-serif" font-weight="bold" font-size="12" text-anchor="end" dominant-baseline="middle">det</text>
  <text x="60" y="170" fill="white" font-family="sans-serif" font-weight="bold" font-size="12" text-anchor="end" dominant-baseline="middle">gmm</text>
  <text x="60" y="205" fill="white" font-family="sans-serif" font-weight="bold" font-size="12" text-anchor="end" dominant-baseline="middle">hello</text>
  <text x="60" y="240" fill="white" font-family="sans-serif" font-weight="bold" font-size="12" text-anchor="end" dominant-baseline="middle">ht</text>
  <text x="60" y="275" fill="white" font-family="sans-serif" font-weight="bold" font-size="12" text-anchor="end" dominant-baseline="middle">kmeans</text>
  <text x="60" y="310" fill="white" font-family="sans-serif" font-weight="bold" font-size="12" text-anchor="end" dominant-baseline="middle">llsq</text>
  <text x="60" y="345" fill="white" font-family="sans-serif" font-weight="bold" font-size="12" text-anchor="end" dominant-baseline="middle">lse</text>
  <text x="60" y="380" fill="white" font-family="sans-serif" font-weight="bold" font-size="12" text-anchor="end" dominant-baseline="middle">lstm</text>
  <text x="60" y="415" fill="white" font-family="sans-serif" font-weight="bold" font-size="12" text-anchor="end" dominant-baseline="middle">ode</text>
  <text x="60" y="450" fill="white" font-family="sans-serif" font-weight="bold" font-size="12" text-anchor="end" dominant-baseline="middle">particle</text>
  <text x="60" y="485" fill="white" font-family="sans-serif" font-weight="bold" font-size="12" text-anchor="end" dominant-baseline="middle">saddle</text>
  <text x="80" y="80" fill="white" font-family="sans-serif" font-weight="bold" font-size="12" text-anchor="end" dominant-baseline="middle" transform="rotate(90 80 80)">ad-hpp</text>
  <text x="115" y="80" fill="white" font-family="sans-serif" font-weight="bold" font-size="12" text-anchor="end" dominant-baseline="middle" transform="rotate(90 115 80)">adept</text>
  <text x="150" y="80" fill="white" font-family="sans-serif" font-weight="bold" font-size="12" text-anchor="end" dominant-baseline="middle" transform="rotate(90 150 80)">adol-c</text>
  <text x="185" y="80" fill="white" font-family="sans-serif" font-weight="bold" font-size="12" text-anchor="end" dominant-baseline="middle" transform="rotate(90 185 80)">codipack</text>
  <text x="220" y="80" fill="white" font-family="sans-serif" font-weight="bold" font-size="12" text-anchor="end" dominant-baseline="middle" transform="rotate(90 220 80)">cppad</text>
  <text x="255" y="80" fill="white" font-family="sans-serif" font-weight="bold" font-size="12" text-anchor="end" dominant-baseline="middle" transform="rotate(90 255 80)">enzyme</text>
  <text x="290" y="80" fill="white" font-family="sans-serif" font-weight="bold" font-size="12" text-anchor="end" dominant-baseline="middle" transform="rotate(90 290 80)">enzyme-jl</text>
  <text x="325" y="80" fill="white" font-family="sans-serif" font-weight="bold" font-size="12" text-anchor="end" dominant-baseline="middle" transform="rotate(90 325 80)">finite</text>
  <text x="360" y="80" fill="white" font-family="sans-serif" font-weight="bold" font-size="12" text-anchor="end" dominant-baseline="middle" transform="rotate(90 360 80)">floretta</text>
  <text x="395" y="80" fill="white" font-family="sans-serif" font-weight="bold" font-size="12" text-anchor="end" dominant-baseline="middle" transform="rotate(90 395 80)">forwarddiff-jl</text>
  <text x="430" y="80" fill="white" font-family="sans-serif" font-weight="bold" font-size="12" text-anchor="end" dominant-baseline="middle" transform="rotate(90 430 80)">futhark</text>
  <text x="465" y="80" fill="white" font-family="sans-serif" font-weight="bold" font-size="12" text-anchor="end" dominant-baseline="middle" transform="rotate(90 465 80)">haskell</text>
  <text x="500" y="80" fill="white" font-family="sans-serif" font-weight="bold" font-size="12" text-anchor="end" dominant-baseline="middle" transform="rotate(90 500 80)">jax</text>
  <text x="535" y="80" fill="white" font-family="sans-serif" font-weight="bold" font-size="12" text-anchor="end" dominant-baseline="middle" transform="rotate(90 535 80)">manual</text>
  <text x="570" y="80" fill="white" font-family="sans-serif" font-weight="bold" font-size="12" text-anchor="end" dominant-baseline="middle" transform="rotate(90 570 80)">mooncake-jl</text>
  <text x="605" y="80" fill="white" font-family="sans-serif" font-weight="bold" font-size="12" text-anchor="end" dominant-baseline="middle" transform="rotate(90 605 80)">ocaml</text>
  <text x="640" y="80" fill="white" font-family="sans-serif" font-weight="bold" font-size="12" text-anchor="end" dominant-baseline="middle" transform="rotate(90 640 80)">pytorch</text>
  <text x="675" y="80" fill="white" font-family="sans-serif" font-weight="bold" font-size="12" text-anchor="end" dominant-baseline="middle" transform="rotate(90 675 80)">reversediff-jl</text>
  <text x="710" y="80" fill="white" font-family="sans-serif" font-weight="bold" font-size="12" text-anchor="end" dominant-baseline="middle" transform="rotate(90 710 80)">scilean</text>
  <text x="745" y="80" fill="white" font-family="sans-serif" font-weight="bold" font-size="12" text-anchor="end" dominant-baseline="middle" transform="rotate(90 745 80)">tapenade</text>
  <text x="780" y="80" fill="white" font-family="sans-serif" font-weight="bold" font-size="12" text-anchor="end" dominant-baseline="middle" transform="rotate(90 780 80)">tensorflow</text>
  <text x="815" y="80" fill="white" font-family="sans-serif" font-weight="bold" font-size="12" text-anchor="end" dominant-baseline="middle" transform="rotate(90 815 80)">tensorflow-js</text>
  <text x="850" y="80" fill="white" font-family="sans-serif" font-weight="bold" font-size="12" text-anchor="end" dominant-baseline="middle" transform="rotate(90 850 80)">zygote</text>
  <rect x="65" y="85" width="30" height="30" fill="hsl(240 100% 81.0162410262463%)" />
  <rect x="100" y="85" width="30" height="30" fill="hsl(240 100% 82.95771984110931%)" />
  <rect x="135" y="85" width="30" height="30" fill="hsl(240 100% 97.98316406086046%)" />
  <rect x="170" y="85" width="30" height="30" fill="hsl(240 100% 82.35314135761027%)" />
  <rect x="205" y="85" width="30" height="30" fill="hsl(240 100% 98.99528495596178%)" />
  <rect x="240" y="85" width="30" height="30" fill="hsl(240 100% 51.622097376404405%)" />
  <rect x="310" y="85" width="30" height="30" fill="hsl(240 100% 93.2337338521829%)" />
  <rect x="415" y="85" width="30" height="30" fill="hsl(240 100% 68.04358075036089%)" />
  <rect x="520" y="85" width="30" height="30" fill="hsl(240 100% 50%)" />
  <rect x="625" y="85" width="30" height="30" fill="rgb(255 255 255 / 50%)" />
  <rect x="730" y="85" width="30" height="30" fill="hsl(240 100% 74.8730589964667%)" />
  <rect x="765" y="85" width="30" height="30" fill="rgb(255 255 255 / 50%)" />
  <rect x="835" y="85" width="30" height="30" fill="hsl(240 100% 99.72621801603424%)" />
  <rect x="65" y="120" width="30" height="30" fill="hsl(240 100% 50%)" />
  <rect x="100" y="120" width="30" height="30" fill="hsl(240 100% 82.5678168149851%)" />
  <rect x="135" y="120" width="30" height="30" fill="hsl(240 100% 85.56687907333098%)" />
  <rect x="170" y="120" width="30" height="30" fill="hsl(240 100% 52.21133618684937%)" />
  <rect x="205" y="120" width="30" height="30" fill="hsl(240 100% 92.53047711403251%)" />
  <rect x="240" y="120" width="30" height="30" fill="hsl(240 100% 91.49535554338688%)" />
  <rect x="275" y="120" width="30" height="30" fill="hsl(240 100% 99.35846564161136%)" />
  <rect x="310" y="120" width="30" height="30" fill="hsl(240 100% 98.99215843992384%)" />
  <rect x="380" y="120" width="30" height="30" fill="hsl(240 100% 93.38539603364583%)" />
  <rect x="415" y="120" width="30" height="30" fill="hsl(240 100% 94.60621356261639%)" />
  <rect x="450" y="120" width="30" height="30" fill="hsl(240 100% 97.85626094816975%)" />
  <rect x="520" y="120" width="30" height="30" fill="hsl(240 100% 79.74031517031827%)" />
  <rect x="555" y="120" width="30" height="30" fill="hsl(240 100% 92.47776472170837%)" />
  <rect x="660" y="120" width="30" height="30" fill="rgb(255 255 255 / 50%)" />
  <rect x="835" y="120" width="30" height="30" fill="rgb(255 255 255 / 50%)" />
  <rect x="65" y="155" width="30" height="30" fill="hsl(240 100% 98.46666684537112%)" />
  <rect x="100" y="155" width="30" height="30" fill="hsl(240 100% 98.84048057508295%)" />
  <rect x="135" y="155" width="30" height="30" fill="hsl(240 100% 99.13812940141106%)" />
  <rect x="170" y="155" width="30" height="30" fill="hsl(240 100% 98.12635108044576%)" />
  <rect x="205" y="155" width="30" height="30" fill="hsl(240 100% 99.85215486343084%)" />
  <rect x="240" y="155" width="30" height="30" fill="hsl(240 100% 91.41485736267697%)" />
  <rect x="275" y="155" width="30" height="30" fill="hsl(240 100% 93.09429823456517%)" />
  <rect x="310" y="155" width="30" height="30" fill="rgb(255 255 255 / 50%)" />
  <rect x="415" y="155" width="30" height="30" fill="hsl(240 100% 93.04534478229978%)" />
  <rect x="485" y="155" width="30" height="30" fill="hsl(240 100% 50%)" />
  <rect x="520" y="155" width="30" height="30" fill="hsl(240 100% 83.89591304593273%)" />
  <rect x="590" y="155" width="30" height="30" fill="hsl(240 100% 99.59949802148346%)" />
  <rect x="625" y="155" width="30" height="30" fill="hsl(240 100% 68.37963806926163%)" />
  <rect x="695" y="155" width="30" height="30" fill="hsl(240 100% 95.52080979611667%)" />
  <rect x="730" y="155" width="30" height="30" fill="hsl(240 100% 83.8909037342558%)" />
  <rect x="765" y="155" width="30" height="30" fill="hsl(240 100% 99.59843499060526%)" />
  <rect x="835" y="155" width="30" height="30" fill="hsl(240 100% 96.54924736144154%)" />
  <rect x="65" y="190" width="30" height="30" fill="hsl(240 100% 50%)" />
  <rect x="100" y="190" width="30" height="30" fill="hsl(240 100% 50%)" />
  <rect x="135" y="190" width="30" height="30" fill="hsl(240 100% 50%)" />
  <rect x="170" y="190" width="30" height="30" fill="hsl(240 100% 50%)" />
  <rect x="205" y="190" width="30" height="30" fill="hsl(240 100% 50%)" />
  <rect x="240" y="190" width="30" height="30" fill="hsl(240 100% 50%)" />
  <rect x="275" y="190" width="30" height="30" fill="hsl(240 100% 50%)" />
  <rect x="310" y="190" width="30" height="30" fill="hsl(240 100% 50%)" />
  <rect x="345" y="190" width="30" height="30" fill="hsl(240 100% 50%)" />
  <rect x="380" y="190" width="30" height="30" fill="hsl(240 100% 50%)" />
  <rect x="415" y="190" width="30" height="30" fill="hsl(240 100% 50%)" />
  <rect x="450" y="190" width="30" height="30" fill="hsl(240 100% 50%)" />
  <rect x="485" y="190" width="30" height="30" fill="hsl(240 100% 50%)" />
  <rect x="520" y="190" width="30" height="30" fill="hsl(240 100% 50%)" />
  <rect x="555" y="190" width="30" height="30" fill="hsl(240 100% 50%)" />
  <rect x="590" y="190" width="30" height="30" fill="hsl(240 100% 50%)" />
  <rect x="625" y="190" width="30" height="30" fill="hsl(240 100% 50%)" />
  <rect x="660" y="190" width="30" height="30" fill="hsl(240 100% 50%)" />
  <rect x="695" y="190" width="30" height="30" fill="hsl(240 100% 50%)" />
  <rect x="730" y="190" width="30" height="30" fill="hsl(240 100% 50%)" />
  <rect x="765" y="190" width="30" height="30" fill="hsl(240 100% 50%)" />
  <rect x="800" y="190" width="30" height="30" fill="hsl(240 100% 50%)" />
  <rect x="835" y="190" width="30" height="30" fill="hsl(240 100% 50%)" />
  <rect x="100" y="225" width="30" height="30" fill="hsl(240 100% 96.73357278980713%)" />
  <rect x="135" y="225" width="30" height="30" fill="hsl(240 100% 89.52536820107865%)" />
  <rect x="170" y="225" width="30" height="30" fill="hsl(240 100% 89.57625008653869%)" />
  <rect x="240" y="225" width="30" height="30" fill="hsl(240 100% 91.46675924394604%)" />
  <rect x="310" y="225" width="30" height="30" fill="rgb(255 255 255 / 50%)" />
  <rect x="415" y="225" width="30" height="30" fill="hsl(240 100% 90.67672980307951%)" />
  <rect x="520" y="225" width="30" height="30" fill="hsl(240 100% 50%)" />
  <rect x="625" y="225" width="30" height="30" fill="rgb(255 255 255 / 50%)" />
  <rect x="730" y="225" width="30" height="30" fill="hsl(240 100% 93.2892037678739%)" />
  <rect x="765" y="225" width="30" height="30" fill="rgb(255 255 255 / 50%)" />
  <rect x="835" y="225" width="30" height="30" fill="hsl(240 100% 94.34811309408322%)" />
  <rect x="65" y="260" width="30" height="30" fill="hsl(240 100% 99.86732454039124%)" />
  <rect x="135" y="260" width="30" height="30" fill="hsl(240 100% 99.85046218310531%)" />
  <rect x="170" y="260" width="30" height="30" fill="hsl(240 100% 98.87540701049318%)" />
  <rect x="205" y="260" width="30" height="30" fill="rgb(255 255 255 / 50%)" />
  <rect x="240" y="260" width="30" height="30" fill="hsl(240 100% 86.62305968474382%)" />
  <rect x="310" y="260" width="30" height="30" fill="rgb(255 255 255 / 50%)" />
  <rect x="415" y="260" width="30" height="30" fill="hsl(240 100% 80.36725945532964%)" />
  <rect x="450" y="260" width="30" height="30" fill="rgb(255 255 255 / 50%)" />
  <rect x="485" y="260" width="30" height="30" fill="hsl(240 100% 50%)" />
  <rect x="520" y="260" width="30" height="30" fill="hsl(240 100% 70.43668198455042%)" />
  <rect x="625" y="260" width="30" height="30" fill="hsl(240 100% 97.01129719675248%)" />
  <rect x="695" y="260" width="30" height="30" fill="hsl(240 100% 93.9762496306187%)" />
  <rect x="65" y="295" width="30" height="30" fill="hsl(240 100% 86.24825037697936%)" />
  <rect x="100" y="295" width="30" height="30" fill="hsl(240 100% 97.53374619132401%)" />
  <rect x="135" y="295" width="30" height="30" fill="hsl(240 100% 95.06128312074048%)" />
  <rect x="170" y="295" width="30" height="30" fill="hsl(240 100% 90.6683799615213%)" />
  <rect x="205" y="295" width="30" height="30" fill="hsl(240 100% 99.47035370394683%)" />
  <rect x="240" y="295" width="30" height="30" fill="hsl(240 100% 50.653770587293955%)" />
  <rect x="275" y="295" width="30" height="30" fill="hsl(240 100% 50%)" />
  <rect x="310" y="295" width="30" height="30" fill="hsl(240 100% 99.49983995519365%)" />
  <rect x="345" y="295" width="30" height="30" fill="hsl(240 100% 94.69853051037516%)" />
  <rect x="415" y="295" width="30" height="30" fill="hsl(240 100% 55.26563632394127%)" />
  <rect x="450" y="295" width="30" height="30" fill="hsl(240 100% 99.35087601093166%)" />
  <rect x="485" y="295" width="30" height="30" fill="hsl(240 100% 88.4567580763181%)" />
  <rect x="520" y="295" width="30" height="30" fill="hsl(240 100% 57.89353719336241%)" />
  <rect x="695" y="295" width="30" height="30" fill="hsl(240 100% 97.60998735176712%)" />
  <rect x="800" y="295" width="30" height="30" fill="hsl(240 100% 99.5772855778894%)" />
  <rect x="835" y="295" width="30" height="30" fill="hsl(240 100% 99.95599424647165%)" />
  <rect x="65" y="330" width="30" height="30" fill="hsl(240 100% 86.9955651897261%)" />
  <rect x="100" y="330" width="30" height="30" fill="hsl(240 100% 93.92490228298274%)" />
  <rect x="135" y="330" width="30" height="30" fill="hsl(240 100% 96.66235050707418%)" />
  <rect x="170" y="330" width="30" height="30" fill="hsl(240 100% 86.32082546819763%)" />
  <rect x="205" y="330" width="30" height="30" fill="hsl(240 100% 99.05550120607798%)" />
  <rect x="240" y="330" width="30" height="30" fill="hsl(240 100% 76.1840072593725%)" />
  <rect x="275" y="330" width="30" height="30" fill="hsl(240 100% 85.01236481515508%)" />
  <rect x="310" y="330" width="30" height="30" fill="rgb(255 255 255 / 50%)" />
  <rect x="345" y="330" width="30" height="30" fill="hsl(240 100% 96.72122542647473%)" />
  <rect x="415" y="330" width="30" height="30" fill="hsl(240 100% 83.30693765382006%)" />
  <rect x="450" y="330" width="30" height="30" fill="hsl(240 100% 99.79190717970754%)" />
  <rect x="485" y="330" width="30" height="30" fill="hsl(240 100% 66.89796287348875%)" />
  <rect x="520" y="330" width="30" height="30" fill="hsl(240 100% 72.55459319311133%)" />
  <rect x="590" y="330" width="30" height="30" fill="hsl(240 100% 92.79295488050397%)" />
  <rect x="625" y="330" width="30" height="30" fill="hsl(240 100% 50%)" />
  <rect x="765" y="330" width="30" height="30" fill="hsl(240 100% 93.51121420812656%)" />
  <rect x="800" y="330" width="30" height="30" fill="hsl(240 100% 99.07633775061507%)" />
  <rect x="835" y="330" width="30" height="30" fill="hsl(240 100% 77.7825672694824%)" />
  <rect x="65" y="365" width="30" height="30" fill="hsl(240 100% 57.24306712210809%)" />
  <rect x="100" y="365" width="30" height="30" fill="hsl(240 100% 71.88211009151348%)" />
  <rect x="135" y="365" width="30" height="30" fill="hsl(240 100% 81.79377509680324%)" />
  <rect x="170" y="365" width="30" height="30" fill="hsl(240 100% 50%)" />
  <rect x="205" y="365" width="30" height="30" fill="hsl(240 100% 96.16514873070349%)" />
  <rect x="240" y="365" width="30" height="30" fill="hsl(240 100% 59.223075210767576%)" />
  <rect x="275" y="365" width="30" height="30" fill="hsl(240 100% 92.74367537937275%)" />
  <rect x="310" y="365" width="30" height="30" fill="hsl(240 100% 99.86133571012013%)" />
  <rect x="415" y="365" width="30" height="30" fill="hsl(240 100% 66.42516575392158%)" />
  <rect x="520" y="365" width="30" height="30" fill="hsl(240 100% 86.0027789508381%)" />
  <rect x="625" y="365" width="30" height="30" fill="hsl(240 100% 99.63329124147721%)" />
  <rect x="730" y="365" width="30" height="30" fill="hsl(240 100% 63.15862118525918%)" />
  <rect x="765" y="365" width="30" height="30" fill="hsl(240 100% 98.17353471968028%)" />
  <rect x="835" y="365" width="30" height="30" fill="hsl(240 100% 98.7539985114988%)" />
  <rect x="65" y="400" width="30" height="30" fill="hsl(240 100% 97.66340428818008%)" />
  <rect x="100" y="400" width="30" height="30" fill="hsl(240 100% 99.25232013891642%)" />
  <rect x="135" y="400" width="30" height="30" fill="hsl(240 100% 99.58341442085026%)" />
  <rect x="170" y="400" width="30" height="30" fill="hsl(240 100% 94.0399994175422%)" />
  <rect x="205" y="400" width="30" height="30" fill="hsl(240 100% 99.02441880445527%)" />
  <rect x="240" y="400" width="30" height="30" fill="hsl(240 100% 82.02130274431047%)" />
  <rect x="275" y="400" width="30" height="30" fill="hsl(240 100% 93.98812500413202%)" />
  <rect x="310" y="400" width="30" height="30" fill="rgb(255 255 255 / 50%)" />
  <rect x="380" y="400" width="30" height="30" fill="rgb(255 255 255 / 50%)" />
  <rect x="415" y="400" width="30" height="30" fill="hsl(240 100% 92.36380921430158%)" />
  <rect x="450" y="400" width="30" height="30" fill="hsl(240 100% 99.9667506959173%)" />
  <rect x="485" y="400" width="30" height="30" fill="hsl(240 100% 72.75310479574048%)" />
  <rect x="520" y="400" width="30" height="30" fill="hsl(240 100% 50%)" />
  <rect x="555" y="400" width="30" height="30" fill="hsl(240 100% 98.81074598571345%)" />
  <rect x="660" y="400" width="30" height="30" fill="rgb(255 255 255 / 50%)" />
  <rect x="835" y="400" width="30" height="30" fill="hsl(240 100% 99.03032925904044%)" />
  <rect x="65" y="435" width="30" height="30" fill="hsl(240 100% 92.80609029238502%)" />
  <rect x="240" y="435" width="30" height="30" fill="hsl(240 100% 50%)" />
  <rect x="310" y="435" width="30" height="30" fill="hsl(240 100% 94.31560533366999%)" />
  <rect x="415" y="435" width="30" height="30" fill="hsl(240 100% 87.0008637079473%)" />
  <rect x="450" y="435" width="30" height="30" fill="hsl(240 100% 99.77859246626755%)" />
  <rect x="65" y="470" width="30" height="30" fill="hsl(240 100% 50%)" />
  <rect x="240" y="470" width="30" height="30" fill="hsl(240 100% 50.158685271981405%)" />
  <rect x="310" y="470" width="30" height="30" fill="hsl(240 100% 97.1610369882576%)" />
  <rect x="415" y="470" width="30" height="30" fill="hsl(240 100% 89.11285744972359%)" />
  <rect x="450" y="470" width="30" height="30" fill="hsl(240 100% 99.57825322549354%)" />
</svg>
