<svg xmlns="http://www.w3.org/2000/svg" viewBox="0 0 870 505">
  <rect x="0" y="0" width="870" height="505" rx="5" ry="5" fill="#222" />
  <text x="60" y="100" fill="white" font-family="sans-serif" font-weight="bold" font-size="12" text-anchor="end" dominant-baseline="middle">ba</text>
  <text x="60" y="135" fill="white" font-family="sans-serif" font-weight="bold" font-size="12" text-anchor="end" dominant-baseline="middle">det</text>
  <text x="60" y="170" fill="white" font-family="sans-serif" font-weight="bold" font-size="12" text-anchor="end" dominant-baseline="middle">gmm</text>
  <text x="60" y="205" fill="white" font-family="sans-serif" font-weight="bold" font-size="12" text-anchor="end" dominant-baseline="middle">hello</text>
  <text x="60" y="240" fill="white" font-family="sans-serif" font-weight="bold" font-size="12" text-anchor="end" dominant-baseline="middle">ht</text>
  <text x="60" y="275" fill="white" font-family="sans-serif" font-weight="bold" font-size="12" text-anchor="end" dominant-baseline="middle">kmeans</text>
  <text x="60" y="310" fill="white" font-family="sans-serif" font-weight="bold" font-size="12" text-anchor="end" dominant-baseline="middle">llsq</text>
  <text x="60" y="345" fill="white" font-family="sans-serif" font-weight="bold" font-size="12" text-anchor="end" dominant-baseline="middle">lse</text>
  <text x="60" y="380" fill="white" font-family="sans-serif" font-weight="bold" font-size="12" text-anchor="end" dominant-baseline="middle">lstm</text>
  <text x="60" y="415" fill="white" font-family="sans-serif" font-weight="bold" font-size="12" text-anchor="end" dominant-baseline="middle">ode</text>
  <text x="60" y="450" fill="white" font-family="sans-serif" font-weight="bold" font-size="12" text-anchor="end" dominant-baseline="middle">particle</text>
  <text x="60" y="485" fill="white" font-family="sans-serif" font-weight="bold" font-size="12" text-anchor="end" dominant-baseline="middle">saddle</text>
  <text x="80" y="80" fill="white" font-family="sans-serif" font-weight="bold" font-size="12" text-anchor="end" dominant-baseline="middle" transform="rotate(90 80 80)">ad-hpp</text>
  <text x="115" y="80" fill="white" font-family="sans-serif" font-weight="bold" font-size="12" text-anchor="end" dominant-baseline="middle" transform="rotate(90 115 80)">adept</text>
  <text x="150" y="80" fill="white" font-family="sans-serif" font-weight="bold" font-size="12" text-anchor="end" dominant-baseline="middle" transform="rotate(90 150 80)">adol-c</text>
  <text x="185" y="80" fill="white" font-family="sans-serif" font-weight="bold" font-size="12" text-anchor="end" dominant-baseline="middle" transform="rotate(90 185 80)">codipack</text>
  <text x="220" y="80" fill="white" font-family="sans-serif" font-weight="bold" font-size="12" text-anchor="end" dominant-baseline="middle" transform="rotate(90 220 80)">cppad</text>
  <text x="255" y="80" fill="white" font-family="sans-serif" font-weight="bold" font-size="12" text-anchor="end" dominant-baseline="middle" transform="rotate(90 255 80)">enzyme</text>
  <text x="290" y="80" fill="white" font-family="sans-serif" font-weight="bold" font-size="12" text-anchor="end" dominant-baseline="middle" transform="rotate(90 290 80)">enzyme-jl</text>
  <text x="325" y="80" fill="white" font-family="sans-serif" font-weight="bold" font-size="12" text-anchor="end" dominant-baseline="middle" transform="rotate(90 325 80)">finite</text>
  <text x="360" y="80" fill="white" font-family="sans-serif" font-weight="bold" font-size="12" text-anchor="end" dominant-baseline="middle" transform="rotate(90 360 80)">floretta</text>
  <text x="395" y="80" fill="white" font-family="sans-serif" font-weight="bold" font-size="12" text-anchor="end" dominant-baseline="middle" transform="rotate(90 395 80)">forwarddiff-jl</text>
  <text x="430" y="80" fill="white" font-family="sans-serif" font-weight="bold" font-size="12" text-anchor="end" dominant-baseline="middle" transform="rotate(90 430 80)">futhark</text>
  <text x="465" y="80" fill="white" font-family="sans-serif" font-weight="bold" font-size="12" text-anchor="end" dominant-baseline="middle" transform="rotate(90 465 80)">haskell</text>
  <text x="500" y="80" fill="white" font-family="sans-serif" font-weight="bold" font-size="12" text-anchor="end" dominant-baseline="middle" transform="rotate(90 500 80)">jax</text>
  <text x="535" y="80" fill="white" font-family="sans-serif" font-weight="bold" font-size="12" text-anchor="end" dominant-baseline="middle" transform="rotate(90 535 80)">manual</text>
  <text x="570" y="80" fill="white" font-family="sans-serif" font-weight="bold" font-size="12" text-anchor="end" dominant-baseline="middle" transform="rotate(90 570 80)">mooncake-jl</text>
  <text x="605" y="80" fill="white" font-family="sans-serif" font-weight="bold" font-size="12" text-anchor="end" dominant-baseline="middle" transform="rotate(90 605 80)">ocaml</text>
  <text x="640" y="80" fill="white" font-family="sans-serif" font-weight="bold" font-size="12" text-anchor="end" dominant-baseline="middle" transform="rotate(90 640 80)">pytorch</text>
  <text x="675" y="80" fill="white" font-family="sans-serif" font-weight="bold" font-size="12" text-anchor="end" dominant-baseline="middle" transform="rotate(90 675 80)">reversediff-jl</text>
  <text x="710" y="80" fill="white" font-family="sans-serif" font-weight="bold" font-size="12" text-anchor="end" dominant-baseline="middle" transform="rotate(90 710 80)">scilean</text>
  <text x="745" y="80" fill="white" font-family="sans-serif" font-weight="bold" font-size="12" text-anchor="end" dominant-baseline="middle" transform="rotate(90 745 80)">tapenade</text>
  <text x="780" y="80" fill="white" font-family="sans-serif" font-weight="bold" font-size="12" text-anchor="end" dominant-baseline="middle" transform="rotate(90 780 80)">tensorflow</text>
  <text x="815" y="80" fill="white" font-family="sans-serif" font-weight="bold" font-size="12" text-anchor="end" dominant-baseline="middle" transform="rotate(90 815 80)">tensorflow-js</text>
  <text x="850" y="80" fill="white" font-family="sans-serif" font-weight="bold" font-size="12" text-anchor="end" dominant-baseline="middle" transform="rotate(90 850 80)">zygote</text>
  <rect x="65" y="85" width="30" height="30" fill="hsl(240 100% 80.46129588707154%)" />
  <rect x="100" y="85" width="30" height="30" fill="hsl(240 100% 82.07368695078405%)" />
  <rect x="135" y="85" width="30" height="30" fill="hsl(240 100% 97.89950670534554%)" />
  <rect x="170" y="85" width="30" height="30" fill="hsl(240 100% 81.38340267612821%)" />
  <rect x="205" y="85" width="30" height="30" fill="hsl(240 100% 98.94300593145294%)" />
  <rect x="240" y="85" width="30" height="30" fill="hsl(240 100% 50%)" />
  <rect x="310" y="85" width="30" height="30" fill="hsl(240 100% 92.83531186656785%)" />
  <rect x="415" y="85" width="30" height="30" fill="hsl(240 100% 66.82269848507934%)" />
  <rect x="520" y="85" width="30" height="30" fill="hsl(240 100% 53.66835572309693%)" />
  <rect x="625" y="85" width="30" height="30" fill="rgb(255 255 255 / 50%)" />
  <rect x="730" y="85" width="30" height="30" fill="hsl(240 100% 73.91872106543275%)" />
  <rect x="765" y="85" width="30" height="30" fill="rgb(255 255 255 / 50%)" />
  <rect x="835" y="85" width="30" height="30" fill="hsl(240 100% 99.72062862053063%)" />
  <rect x="65" y="120" width="30" height="30" fill="hsl(240 100% 50%)" />
  <rect x="100" y="120" width="30" height="30" fill="hsl(240 100% 83.102276827396%)" />
  <rect x="135" y="120" width="30" height="30" fill="hsl(240 100% 87.00006439450155%)" />
  <rect x="170" y="120" width="30" height="30" fill="hsl(240 100% 51.932134255393045%)" />
  <rect x="205" y="120" width="30" height="30" fill="hsl(240 100% 92.67740920758507%)" />
  <rect x="240" y="120" width="30" height="30" fill="hsl(240 100% 91.78728035532588%)" />
  <rect x="275" y="120" width="30" height="30" fill="hsl(240 100% 99.38810050070538%)" />
  <rect x="310" y="120" width="30" height="30" fill="hsl(240 100% 98.99683567044615%)" />
  <rect x="380" y="120" width="30" height="30" fill="hsl(240 100% 93.4756244897138%)" />
  <rect x="415" y="120" width="30" height="30" fill="hsl(240 100% 94.65078562705848%)" />
  <rect x="450" y="120" width="30" height="30" fill="hsl(240 100% 97.87918501234336%)" />
  <rect x="520" y="120" width="30" height="30" fill="hsl(240 100% 79.6272831451702%)" />
  <rect x="555" y="120" width="30" height="30" fill="hsl(240 100% 90.21712339552579%)" />
  <rect x="660" y="120" width="30" height="30" fill="rgb(255 255 255 / 50%)" />
  <rect x="835" y="120" width="30" height="30" fill="rgb(255 255 255 / 50%)" />
  <rect x="65" y="155" width="30" height="30" fill="hsl(240 100% 98.44606471986498%)" />
  <rect x="100" y="155" width="30" height="30" fill="hsl(240 100% 98.84597100222904%)" />
  <rect x="135" y="155" width="30" height="30" fill="hsl(240 100% 99.10636552760816%)" />
  <rect x="170" y="155" width="30" height="30" fill="hsl(240 100% 98.00450115380679%)" />
  <rect x="205" y="155" width="30" height="30" fill="hsl(240 100% 99.84916031718178%)" />
  <rect x="240" y="155" width="30" height="30" fill="hsl(240 100% 91.21586251221466%)" />
  <rect x="275" y="155" width="30" height="30" fill="hsl(240 100% 91.81801805574615%)" />
  <rect x="310" y="155" width="30" height="30" fill="rgb(255 255 255 / 50%)" />
  <rect x="415" y="155" width="30" height="30" fill="hsl(240 100% 93.04460253557447%)" />
  <rect x="485" y="155" width="30" height="30" fill="hsl(240 100% 50%)" />
  <rect x="520" y="155" width="30" height="30" fill="hsl(240 100% 81.22257867784562%)" />
  <rect x="590" y="155" width="30" height="30" fill="hsl(240 100% 99.57425790710344%)" />
  <rect x="625" y="155" width="30" height="30" fill="hsl(240 100% 67.88278560018165%)" />
  <rect x="695" y="155" width="30" height="30" fill="hsl(240 100% 95.43301056688003%)" />
  <rect x="730" y="155" width="30" height="30" fill="hsl(240 100% 83.71299210546292%)" />
  <rect x="765" y="155" width="30" height="30" fill="hsl(240 100% 99.57684138965917%)" />
  <rect x="835" y="155" width="30" height="30" fill="hsl(240 100% 96.34119189137529%)" />
  <rect x="65" y="190" width="30" height="30" fill="hsl(240 100% 50%)" />
  <rect x="100" y="190" width="30" height="30" fill="hsl(240 100% 50%)" />
  <rect x="135" y="190" width="30" height="30" fill="hsl(240 100% 50%)" />
  <rect x="170" y="190" width="30" height="30" fill="hsl(240 100% 50%)" />
  <rect x="205" y="190" width="30" height="30" fill="hsl(240 100% 50%)" />
  <rect x="240" y="190" width="30" height="30" fill="hsl(240 100% 50%)" />
  <rect x="275" y="190" width="30" height="30" fill="hsl(240 100% 50%)" />
  <rect x="310" y="190" width="30" height="30" fill="hsl(240 100% 50%)" />
  <rect x="345" y="190" width="30" height="30" fill="hsl(240 100% 50%)" />
  <rect x="380" y="190" width="30" height="30" fill="hsl(240 100% 50%)" />
  <rect x="415" y="190" width="30" height="30" fill="hsl(240 100% 50%)" />
  <rect x="450" y="190" width="30" height="30" fill="hsl(240 100% 50%)" />
  <rect x="485" y="190" width="30" height="30" fill="hsl(240 100% 50%)" />
  <rect x="520" y="190" width="30" height="30" fill="hsl(240 100% 50%)" />
  <rect x="555" y="190" width="30" height="30" fill="hsl(240 100% 50%)" />
  <rect x="590" y="190" width="30" height="30" fill="hsl(240 100% 50%)" />
  <rect x="625" y="190" width="30" height="30" fill="hsl(240 100% 50%)" />
  <rect x="660" y="190" width="30" height="30" fill="hsl(240 100% 50%)" />
  <rect x="695" y="190" width="30" height="30" fill="hsl(240 100% 50%)" />
  <rect x="730" y="190" width="30" height="30" fill="hsl(240 100% 50%)" />
  <rect x="765" y="190" width="30" height="30" fill="hsl(240 100% 50%)" />
  <rect x="800" y="190" width="30" height="30" fill="hsl(240 100% 50%)" />
  <rect x="835" y="190" width="30" height="30" fill="hsl(240 100% 50%)" />
  <rect x="100" y="225" width="30" height="30" fill="hsl(240 100% 96.27752713182937%)" />
  <rect x="135" y="225" width="30" height="30" fill="hsl(240 100% 87.04014423646386%)" />
  <rect x="170" y="225" width="30" height="30" fill="hsl(240 100% 87.94064854918027%)" />
  <rect x="240" y="225" width="30" height="30" fill="hsl(240 100% 90.2034064312991%)" />
  <rect x="310" y="225" width="30" height="30" fill="rgb(255 255 255 / 50%)" />
  <rect x="415" y="225" width="30" height="30" fill="hsl(240 100% 89.63572910234056%)" />
  <rect x="520" y="225" width="30" height="30" fill="hsl(240 100% 50%)" />
  <rect x="625" y="225" width="30" height="30" fill="rgb(255 255 255 / 50%)" />
  <rect x="730" y="225" width="30" height="30" fill="hsl(240 100% 92.5048666931035%)" />
  <rect x="765" y="225" width="30" height="30" fill="rgb(255 255 255 / 50%)" />
  <rect x="835" y="225" width="30" height="30" fill="hsl(240 100% 93.68087928547939%)" />
  <rect x="65" y="260" width="30" height="30" fill="hsl(240 100% 99.8694632255173%)" />
  <rect x="135" y="260" width="30" height="30" fill="hsl(240 100% 99.85786449033434%)" />
  <rect x="170" y="260" width="30" height="30" fill="hsl(240 100% 98.9016594981189%)" />
  <rect x="205" y="260" width="30" height="30" fill="rgb(255 255 255 / 50%)" />
  <rect x="240" y="260" width="30" height="30" fill="hsl(240 100% 86.90923367226813%)" />
  <rect x="310" y="260" width="30" height="30" fill="rgb(255 255 255 / 50%)" />
  <rect x="415" y="260" width="30" height="30" fill="hsl(240 100% 80.43909957796316%)" />
  <rect x="450" y="260" width="30" height="30" fill="rgb(255 255 255 / 50%)" />
  <rect x="485" y="260" width="30" height="30" fill="hsl(240 100% 50%)" />
  <rect x="520" y="260" width="30" height="30" fill="hsl(240 100% 72.07185489653239%)" />
  <rect x="625" y="260" width="30" height="30" fill="hsl(240 100% 96.94251032845719%)" />
  <rect x="695" y="260" width="30" height="30" fill="hsl(240 100% 94.08358498462485%)" />
  <rect x="65" y="295" width="30" height="30" fill="hsl(240 100% 85.94079706214538%)" />
  <rect x="100" y="295" width="30" height="30" fill="hsl(240 100% 97.51589639367764%)" />
  <rect x="135" y="295" width="30" height="30" fill="hsl(240 100% 95.23829552577931%)" />
  <rect x="170" y="295" width="30" height="30" fill="hsl(240 100% 89.36315178616198%)" />
  <rect x="205" y="295" width="30" height="30" fill="hsl(240 100% 99.49405282032447%)" />
  <rect x="240" y="295" width="30" height="30" fill="hsl(240 100% 50.54878498305035%)" />
  <rect x="275" y="295" width="30" height="30" fill="hsl(240 100% 50%)" />
  <rect x="310" y="295" width="30" height="30" fill="hsl(240 100% 99.49906036716162%)" />
  <rect x="345" y="295" width="30" height="30" fill="hsl(240 100% 94.72146303416456%)" />
  <rect x="415" y="295" width="30" height="30" fill="hsl(240 100% 55.201128232463525%)" />
  <rect x="450" y="295" width="30" height="30" fill="hsl(240 100% 99.33315695636072%)" />
  <rect x="485" y="295" width="30" height="30" fill="hsl(240 100% 87.91831041976833%)" />
  <rect x="520" y="295" width="30" height="30" fill="hsl(240 100% 57.81996856735669%)" />
  <rect x="695" y="295" width="30" height="30" fill="hsl(240 100% 97.60435369547892%)" />
  <rect x="800" y="295" width="30" height="30" fill="hsl(240 100% 99.57070346566888%)" />
  <rect x="835" y="295" width="30" height="30" fill="hsl(240 100% 99.95727863001757%)" />
  <rect x="65" y="330" width="30" height="30" fill="hsl(240 100% 87.53550737409458%)" />
  <rect x="100" y="330" width="30" height="30" fill="hsl(240 100% 94.29458250725767%)" />
  <rect x="135" y="330" width="30" height="30" fill="hsl(240 100% 97.13886679422613%)" />
  <rect x="170" y="330" width="30" height="30" fill="hsl(240 100% 87.11142711714703%)" />
  <rect x="205" y="330" width="30" height="30" fill="hsl(240 100% 99.21702055080127%)" />
  <rect x="240" y="330" width="30" height="30" fill="hsl(240 100% 79.85288708492749%)" />
  <rect x="275" y="330" width="30" height="30" fill="hsl(240 100% 88.47826577943562%)" />
  <rect x="310" y="330" width="30" height="30" fill="rgb(255 255 255 / 50%)" />
  <rect x="345" y="330" width="30" height="30" fill="hsl(240 100% 97.26333885985207%)" />
  <rect x="415" y="330" width="30" height="30" fill="hsl(240 100% 85.97656779155321%)" />
  <rect x="450" y="330" width="30" height="30" fill="hsl(240 100% 99.81448563687535%)" />
  <rect x="485" y="330" width="30" height="30" fill="hsl(240 100% 70.0075339264391%)" />
  <rect x="520" y="330" width="30" height="30" fill="hsl(240 100% 70.65336374376236%)" />
  <rect x="590" y="330" width="30" height="30" fill="hsl(240 100% 93.90572909634966%)" />
  <rect x="625" y="330" width="30" height="30" fill="hsl(240 100% 50%)" />
  <rect x="765" y="330" width="30" height="30" fill="hsl(240 100% 94.47242393943736%)" />
  <rect x="800" y="330" width="30" height="30" fill="hsl(240 100% 99.22422542369925%)" />
  <rect x="835" y="330" width="30" height="30" fill="hsl(240 100% 81.52230016469818%)" />
  <rect x="65" y="365" width="30" height="30" fill="hsl(240 100% 56.96510557372401%)" />
  <rect x="100" y="365" width="30" height="30" fill="hsl(240 100% 71.1161621371379%)" />
  <rect x="135" y="365" width="30" height="30" fill="hsl(240 100% 82.29056601703049%)" />
  <rect x="170" y="365" width="30" height="30" fill="hsl(240 100% 50%)" />
  <rect x="205" y="365" width="30" height="30" fill="hsl(240 100% 96.09487552579972%)" />
  <rect x="240" y="365" width="30" height="30" fill="hsl(240 100% 58.32850012216211%)" />
  <rect x="275" y="365" width="30" height="30" fill="hsl(240 100% 92.87613963182915%)" />
  <rect x="310" y="365" width="30" height="30" fill="hsl(240 100% 99.86175340631351%)" />
  <rect x="415" y="365" width="30" height="30" fill="hsl(240 100% 66.58544541667993%)" />
  <rect x="520" y="365" width="30" height="30" fill="hsl(240 100% 86.11537494530529%)" />
  <rect x="625" y="365" width="30" height="30" fill="hsl(240 100% 99.62737594578527%)" />
  <rect x="730" y="365" width="30" height="30" fill="hsl(240 100% 63.39806374601144%)" />
  <rect x="765" y="365" width="30" height="30" fill="hsl(240 100% 98.16637160547097%)" />
  <rect x="835" y="365" width="30" height="30" fill="hsl(240 100% 98.77396357950089%)" />
  <rect x="65" y="400" width="30" height="30" fill="hsl(240 100% 97.75104515277219%)" />
  <rect x="100" y="400" width="30" height="30" fill="hsl(240 100% 99.29228429462192%)" />
  <rect x="135" y="400" width="30" height="30" fill="hsl(240 100% 99.57400635103308%)" />
  <rect x="170" y="400" width="30" height="30" fill="hsl(240 100% 92.55929465285047%)" />
  <rect x="205" y="400" width="30" height="30" fill="hsl(240 100% 99.05353047169577%)" />
  <rect x="240" y="400" width="30" height="30" fill="hsl(240 100% 82.78028192523703%)" />
  <rect x="275" y="400" width="30" height="30" fill="hsl(240 100% 94.19007263474249%)" />
  <rect x="310" y="400" width="30" height="30" fill="rgb(255 255 255 / 50%)" />
  <rect x="380" y="400" width="30" height="30" fill="rgb(255 255 255 / 50%)" />
  <rect x="415" y="400" width="30" height="30" fill="hsl(240 100% 92.55816657504538%)" />
  <rect x="450" y="400" width="30" height="30" fill="hsl(240 100% 99.96402060553294%)" />
  <rect x="485" y="400" width="30" height="30" fill="hsl(240 100% 73.90883156041657%)" />
  <rect x="520" y="400" width="30" height="30" fill="hsl(240 100% 50%)" />
  <rect x="555" y="400" width="30" height="30" fill="hsl(240 100% 98.93194771784151%)" />
  <rect x="660" y="400" width="30" height="30" fill="rgb(255 255 255 / 50%)" />
  <rect x="835" y="400" width="30" height="30" fill="hsl(240 100% 98.76997866361927%)" />
  <rect x="65" y="435" width="30" height="30" fill="hsl(240 100% 93.31218500346627%)" />
  <rect x="240" y="435" width="30" height="30" fill="hsl(240 100% 50%)" />
  <rect x="310" y="435" width="30" height="30" fill="hsl(240 100% 93.87269790421256%)" />
  <rect x="415" y="435" width="30" height="30" fill="hsl(240 100% 87.00855132455831%)" />
  <rect x="450" y="435" width="30" height="30" fill="hsl(240 100% 99.78262473483024%)" />
  <rect x="65" y="470" width="30" height="30" fill="hsl(240 100% 50%)" />
  <rect x="240" y="470" width="30" height="30" fill="hsl(240 100% 50.10363168081443%)" />
  <rect x="310" y="470" width="30" height="30" fill="hsl(240 100% 96.96933593809511%)" />
  <rect x="415" y="470" width="30" height="30" fill="hsl(240 100% 89.09544476433636%)" />
  <rect x="450" y="470" width="30" height="30" fill="hsl(240 100% 99.57933391420657%)" />
</svg>
