<svg xmlns="http://www.w3.org/2000/svg" viewBox="0 0 870 505">
  <rect x="0" y="0" width="870" height="505" rx="5" ry="5" fill="#222" />
  <text x="60" y="100" fill="white" font-family="sans-serif" font-weight="bold" font-size="12" text-anchor="end" dominant-baseline="middle">ba</text>
  <text x="60" y="135" fill="white" font-family="sans-serif" font-weight="bold" font-size="12" text-anchor="end" dominant-baseline="middle">det</text>
  <text x="60" y="170" fill="white" font-family="sans-serif" font-weight="bold" font-size="12" text-anchor="end" dominant-baseline="middle">gmm</text>
  <text x="60" y="205" fill="white" font-family="sans-serif" font-weight="bold" font-size="12" text-anchor="end" dominant-baseline="middle">hello</text>
  <text x="60" y="240" fill="white" font-family="sans-serif" font-weight="bold" font-size="12" text-anchor="end" dominant-baseline="middle">ht</text>
  <text x="60" y="275" fill="white" font-family="sans-serif" font-weight="bold" font-size="12" text-anchor="end" dominant-baseline="middle">kmeans</text>
  <text x="60" y="310" fill="white" font-family="sans-serif" font-weight="bold" font-size="12" text-anchor="end" dominant-baseline="middle">llsq</text>
  <text x="60" y="345" fill="white" font-family="sans-serif" font-weight="bold" font-size="12" text-anchor="end" dominant-baseline="middle">lse</text>
  <text x="60" y="380" fill="white" font-family="sans-serif" font-weight="bold" font-size="12" text-anchor="end" dominant-baseline="middle">lstm</text>
  <text x="60" y="415" fill="white" font-family="sans-serif" font-weight="bold" font-size="12" text-anchor="end" dominant-baseline="middle">ode</text>
  <text x="60" y="450" fill="white" font-family="sans-serif" font-weight="bold" font-size="12" text-anchor="end" dominant-baseline="middle">particle</text>
  <text x="60" y="485" fill="white" font-family="sans-serif" font-weight="bold" font-size="12" text-anchor="end" dominant-baseline="middle">saddle</text>
  <text x="80" y="80" fill="white" font-family="sans-serif" font-weight="bold" font-size="12" text-anchor="end" dominant-baseline="middle" transform="rotate(90 80 80)">ad-hpp</text>
  <text x="115" y="80" fill="white" font-family="sans-serif" font-weight="bold" font-size="12" text-anchor="end" dominant-baseline="middle" transform="rotate(90 115 80)">adept</text>
  <text x="150" y="80" fill="white" font-family="sans-serif" font-weight="bold" font-size="12" text-anchor="end" dominant-baseline="middle" transform="rotate(90 150 80)">adol-c</text>
  <text x="185" y="80" fill="white" font-family="sans-serif" font-weight="bold" font-size="12" text-anchor="end" dominant-baseline="middle" transform="rotate(90 185 80)">codipack</text>
  <text x="220" y="80" fill="white" font-family="sans-serif" font-weight="bold" font-size="12" text-anchor="end" dominant-baseline="middle" transform="rotate(90 220 80)">cppad</text>
  <text x="255" y="80" fill="white" font-family="sans-serif" font-weight="bold" font-size="12" text-anchor="end" dominant-baseline="middle" transform="rotate(90 255 80)">enzyme</text>
  <text x="290" y="80" fill="white" font-family="sans-serif" font-weight="bold" font-size="12" text-anchor="end" dominant-baseline="middle" transform="rotate(90 290 80)">enzyme-jl</text>
  <text x="325" y="80" fill="white" font-family="sans-serif" font-weight="bold" font-size="12" text-anchor="end" dominant-baseline="middle" transform="rotate(90 325 80)">finite</text>
  <text x="360" y="80" fill="white" font-family="sans-serif" font-weight="bold" font-size="12" text-anchor="end" dominant-baseline="middle" transform="rotate(90 360 80)">floretta</text>
  <text x="395" y="80" fill="white" font-family="sans-serif" font-weight="bold" font-size="12" text-anchor="end" dominant-baseline="middle" transform="rotate(90 395 80)">forwarddiff-jl</text>
  <text x="430" y="80" fill="white" font-family="sans-serif" font-weight="bold" font-size="12" text-anchor="end" dominant-baseline="middle" transform="rotate(90 430 80)">futhark</text>
  <text x="465" y="80" fill="white" font-family="sans-serif" font-weight="bold" font-size="12" text-anchor="end" dominant-baseline="middle" transform="rotate(90 465 80)">haskell</text>
  <text x="500" y="80" fill="white" font-family="sans-serif" font-weight="bold" font-size="12" text-anchor="end" dominant-baseline="middle" transform="rotate(90 500 80)">jax</text>
  <text x="535" y="80" fill="white" font-family="sans-serif" font-weight="bold" font-size="12" text-anchor="end" dominant-baseline="middle" transform="rotate(90 535 80)">manual</text>
  <text x="570" y="80" fill="white" font-family="sans-serif" font-weight="bold" font-size="12" text-anchor="end" dominant-baseline="middle" transform="rotate(90 570 80)">mooncake-jl</text>
  <text x="605" y="80" fill="white" font-family="sans-serif" font-weight="bold" font-size="12" text-anchor="end" dominant-baseline="middle" transform="rotate(90 605 80)">ocaml</text>
  <text x="640" y="80" fill="white" font-family="sans-serif" font-weight="bold" font-size="12" text-anchor="end" dominant-baseline="middle" transform="rotate(90 640 80)">pytorch</text>
  <text x="675" y="80" fill="white" font-family="sans-serif" font-weight="bold" font-size="12" text-anchor="end" dominant-baseline="middle" transform="rotate(90 675 80)">reversediff-jl</text>
  <text x="710" y="80" fill="white" font-family="sans-serif" font-weight="bold" font-size="12" text-anchor="end" dominant-baseline="middle" transform="rotate(90 710 80)">scilean</text>
  <text x="745" y="80" fill="white" font-family="sans-serif" font-weight="bold" font-size="12" text-anchor="end" dominant-baseline="middle" transform="rotate(90 745 80)">tapenade</text>
  <text x="780" y="80" fill="white" font-family="sans-serif" font-weight="bold" font-size="12" text-anchor="end" dominant-baseline="middle" transform="rotate(90 780 80)">tensorflow</text>
  <text x="815" y="80" fill="white" font-family="sans-serif" font-weight="bold" font-size="12" text-anchor="end" dominant-baseline="middle" transform="rotate(90 815 80)">tensorflow-js</text>
  <text x="850" y="80" fill="white" font-family="sans-serif" font-weight="bold" font-size="12" text-anchor="end" dominant-baseline="middle" transform="rotate(90 850 80)">zygote</text>
  <rect x="65" y="85" width="30" height="30" fill="hsl(240 100% 80.55623098743538%)" />
  <rect x="100" y="85" width="30" height="30" fill="hsl(240 100% 82.2846483757682%)" />
  <rect x="135" y="85" width="30" height="30" fill="hsl(240 100% 97.90504784465239%)" />
  <rect x="170" y="85" width="30" height="30" fill="hsl(240 100% 81.46254455479433%)" />
  <rect x="205" y="85" width="30" height="30" fill="hsl(240 100% 98.92802580006827%)" />
  <rect x="240" y="85" width="30" height="30" fill="hsl(240 100% 50%)" />
  <rect x="310" y="85" width="30" height="30" fill="hsl(240 100% 92.87547104264583%)" />
  <rect x="415" y="85" width="30" height="30" fill="hsl(240 100% 66.92902530306479%)" />
  <rect x="520" y="85" width="30" height="30" fill="hsl(240 100% 53.94653271394375%)" />
  <rect x="625" y="85" width="30" height="30" fill="rgb(255 255 255 / 50%)" />
  <rect x="730" y="85" width="30" height="30" fill="hsl(240 100% 73.8908976244033%)" />
  <rect x="765" y="85" width="30" height="30" fill="rgb(255 255 255 / 50%)" />
  <rect x="835" y="85" width="30" height="30" fill="hsl(240 100% 99.72430441033818%)" />
  <rect x="65" y="120" width="30" height="30" fill="hsl(240 100% 50%)" />
  <rect x="100" y="120" width="30" height="30" fill="hsl(240 100% 83.04672279301346%)" />
  <rect x="135" y="120" width="30" height="30" fill="hsl(240 100% 85.63225658991716%)" />
  <rect x="170" y="120" width="30" height="30" fill="hsl(240 100% 51.97269889712828%)" />
  <rect x="205" y="120" width="30" height="30" fill="hsl(240 100% 92.67971839373475%)" />
  <rect x="240" y="120" width="30" height="30" fill="hsl(240 100% 91.49460875710484%)" />
  <rect x="275" y="120" width="30" height="30" fill="hsl(240 100% 99.3555008187515%)" />
  <rect x="310" y="120" width="30" height="30" fill="hsl(240 100% 99.01418244227003%)" />
  <rect x="380" y="120" width="30" height="30" fill="hsl(240 100% 93.44021261346435%)" />
  <rect x="415" y="120" width="30" height="30" fill="hsl(240 100% 94.61159431142042%)" />
  <rect x="450" y="120" width="30" height="30" fill="hsl(240 100% 97.88346898194277%)" />
  <rect x="520" y="120" width="30" height="30" fill="hsl(240 100% 79.59424989046151%)" />
  <rect x="555" y="120" width="30" height="30" fill="hsl(240 100% 90.35175257118112%)" />
  <rect x="660" y="120" width="30" height="30" fill="rgb(255 255 255 / 50%)" />
  <rect x="835" y="120" width="30" height="30" fill="rgb(255 255 255 / 50%)" />
  <rect x="65" y="155" width="30" height="30" fill="hsl(240 100% 98.37091150029798%)" />
  <rect x="100" y="155" width="30" height="30" fill="hsl(240 100% 98.82386165572855%)" />
  <rect x="135" y="155" width="30" height="30" fill="hsl(240 100% 99.11668462727195%)" />
  <rect x="170" y="155" width="30" height="30" fill="hsl(240 100% 97.98927496855778%)" />
  <rect x="205" y="155" width="30" height="30" fill="hsl(240 100% 99.84761952501165%)" />
  <rect x="240" y="155" width="30" height="30" fill="hsl(240 100% 91.11205637156579%)" />
  <rect x="275" y="155" width="30" height="30" fill="hsl(240 100% 92.28272765126931%)" />
  <rect x="310" y="155" width="30" height="30" fill="rgb(255 255 255 / 50%)" />
  <rect x="415" y="155" width="30" height="30" fill="hsl(240 100% 92.94459237025634%)" />
  <rect x="485" y="155" width="30" height="30" fill="hsl(240 100% 50%)" />
  <rect x="520" y="155" width="30" height="30" fill="hsl(240 100% 80.97339418704004%)" />
  <rect x="590" y="155" width="30" height="30" fill="hsl(240 100% 99.57246351263632%)" />
  <rect x="625" y="155" width="30" height="30" fill="hsl(240 100% 66.54120809068638%)" />
  <rect x="695" y="155" width="30" height="30" fill="hsl(240 100% 95.36577723461392%)" />
  <rect x="730" y="155" width="30" height="30" fill="hsl(240 100% 83.54491244907945%)" />
  <rect x="765" y="155" width="30" height="30" fill="hsl(240 100% 99.57588409295516%)" />
  <rect x="835" y="155" width="30" height="30" fill="hsl(240 100% 96.22371419102183%)" />
  <rect x="65" y="190" width="30" height="30" fill="hsl(240 100% 50%)" />
  <rect x="100" y="190" width="30" height="30" fill="hsl(240 100% 50%)" />
  <rect x="135" y="190" width="30" height="30" fill="hsl(240 100% 50%)" />
  <rect x="170" y="190" width="30" height="30" fill="hsl(240 100% 50%)" />
  <rect x="205" y="190" width="30" height="30" fill="hsl(240 100% 50%)" />
  <rect x="240" y="190" width="30" height="30" fill="hsl(240 100% 50%)" />
  <rect x="275" y="190" width="30" height="30" fill="hsl(240 100% 50%)" />
  <rect x="310" y="190" width="30" height="30" fill="hsl(240 100% 50%)" />
  <rect x="345" y="190" width="30" height="30" fill="hsl(240 100% 50%)" />
  <rect x="380" y="190" width="30" height="30" fill="hsl(240 100% 50%)" />
  <rect x="415" y="190" width="30" height="30" fill="hsl(240 100% 50%)" />
  <rect x="450" y="190" width="30" height="30" fill="hsl(240 100% 50%)" />
  <rect x="485" y="190" width="30" height="30" fill="hsl(240 100% 50%)" />
  <rect x="520" y="190" width="30" height="30" fill="hsl(240 100% 50%)" />
  <rect x="555" y="190" width="30" height="30" fill="hsl(240 100% 50%)" />
  <rect x="590" y="190" width="30" height="30" fill="hsl(240 100% 50%)" />
  <rect x="625" y="190" width="30" height="30" fill="hsl(240 100% 50%)" />
  <rect x="660" y="190" width="30" height="30" fill="hsl(240 100% 50%)" />
  <rect x="695" y="190" width="30" height="30" fill="hsl(240 100% 50%)" />
  <rect x="730" y="190" width="30" height="30" fill="hsl(240 100% 50%)" />
  <rect x="765" y="190" width="30" height="30" fill="hsl(240 100% 50%)" />
  <rect x="800" y="190" width="30" height="30" fill="hsl(240 100% 50%)" />
  <rect x="835" y="190" width="30" height="30" fill="hsl(240 100% 50%)" />
  <rect x="100" y="225" width="30" height="30" fill="hsl(240 100% 96.26459929276618%)" />
  <rect x="135" y="225" width="30" height="30" fill="hsl(240 100% 87.29333508506552%)" />
  <rect x="170" y="225" width="30" height="30" fill="hsl(240 100% 88.3034362702797%)" />
  <rect x="240" y="225" width="30" height="30" fill="hsl(240 100% 90.25587982402259%)" />
  <rect x="310" y="225" width="30" height="30" fill="rgb(255 255 255 / 50%)" />
  <rect x="415" y="225" width="30" height="30" fill="hsl(240 100% 89.34020912521731%)" />
  <rect x="520" y="225" width="30" height="30" fill="hsl(240 100% 50%)" />
  <rect x="625" y="225" width="30" height="30" fill="rgb(255 255 255 / 50%)" />
  <rect x="730" y="225" width="30" height="30" fill="hsl(240 100% 92.35535743395477%)" />
  <rect x="765" y="225" width="30" height="30" fill="rgb(255 255 255 / 50%)" />
  <rect x="835" y="225" width="30" height="30" fill="hsl(240 100% 93.68273077240225%)" />
  <rect x="65" y="260" width="30" height="30" fill="hsl(240 100% 99.82111761198739%)" />
  <rect x="135" y="260" width="30" height="30" fill="hsl(240 100% 99.85953690683485%)" />
  <rect x="170" y="260" width="30" height="30" fill="hsl(240 100% 98.92058620120028%)" />
  <rect x="205" y="260" width="30" height="30" fill="rgb(255 255 255 / 50%)" />
  <rect x="240" y="260" width="30" height="30" fill="hsl(240 100% 87.1046313397982%)" />
  <rect x="310" y="260" width="30" height="30" fill="rgb(255 255 255 / 50%)" />
  <rect x="415" y="260" width="30" height="30" fill="hsl(240 100% 80.91970210866818%)" />
  <rect x="450" y="260" width="30" height="30" fill="rgb(255 255 255 / 50%)" />
  <rect x="485" y="260" width="30" height="30" fill="hsl(240 100% 50%)" />
  <rect x="520" y="260" width="30" height="30" fill="hsl(240 100% 72.66025232175907%)" />
  <rect x="625" y="260" width="30" height="30" fill="hsl(240 100% 97.06061951526381%)" />
  <rect x="695" y="260" width="30" height="30" fill="hsl(240 100% 94.15027825642278%)" />
  <rect x="65" y="295" width="30" height="30" fill="hsl(240 100% 86.09209633789911%)" />
  <rect x="100" y="295" width="30" height="30" fill="hsl(240 100% 97.56942829836065%)" />
  <rect x="135" y="295" width="30" height="30" fill="hsl(240 100% 94.95200875235062%)" />
  <rect x="170" y="295" width="30" height="30" fill="hsl(240 100% 89.42152773629063%)" />
  <rect x="205" y="295" width="30" height="30" fill="hsl(240 100% 99.48731268425448%)" />
  <rect x="240" y="295" width="30" height="30" fill="hsl(240 100% 50.750932117884986%)" />
  <rect x="275" y="295" width="30" height="30" fill="hsl(240 100% 50%)" />
  <rect x="310" y="295" width="30" height="30" fill="hsl(240 100% 99.50139679992775%)" />
  <rect x="345" y="295" width="30" height="30" fill="hsl(240 100% 94.78022436562233%)" />
  <rect x="415" y="295" width="30" height="30" fill="hsl(240 100% 55.41172669952867%)" />
  <rect x="450" y="295" width="30" height="30" fill="hsl(240 100% 99.33201191203818%)" />
  <rect x="485" y="295" width="30" height="30" fill="hsl(240 100% 88.32335810138528%)" />
  <rect x="520" y="295" width="30" height="30" fill="hsl(240 100% 58.03413380124328%)" />
  <rect x="695" y="295" width="30" height="30" fill="hsl(240 100% 97.6153979054478%)" />
  <rect x="800" y="295" width="30" height="30" fill="hsl(240 100% 99.57284956141534%)" />
  <rect x="835" y="295" width="30" height="30" fill="hsl(240 100% 99.95879539490946%)" />
  <rect x="65" y="330" width="30" height="30" fill="hsl(240 100% 85.50121178576828%)" />
  <rect x="100" y="330" width="30" height="30" fill="hsl(240 100% 93.37514815038175%)" />
  <rect x="135" y="330" width="30" height="30" fill="hsl(240 100% 96.64448705087858%)" />
  <rect x="170" y="330" width="30" height="30" fill="hsl(240 100% 84.82547548640098%)" />
  <rect x="205" y="330" width="30" height="30" fill="hsl(240 100% 99.07936962783083%)" />
  <rect x="240" y="330" width="30" height="30" fill="hsl(240 100% 76.43273628813283%)" />
  <rect x="275" y="330" width="30" height="30" fill="hsl(240 100% 85.91881229680763%)" />
  <rect x="310" y="330" width="30" height="30" fill="rgb(255 255 255 / 50%)" />
  <rect x="345" y="330" width="30" height="30" fill="hsl(240 100% 96.78994114590172%)" />
  <rect x="415" y="330" width="30" height="30" fill="hsl(240 100% 83.48927569400611%)" />
  <rect x="450" y="330" width="30" height="30" fill="hsl(240 100% 99.78210414950165%)" />
  <rect x="485" y="330" width="30" height="30" fill="hsl(240 100% 66.93823378740223%)" />
  <rect x="520" y="330" width="30" height="30" fill="hsl(240 100% 66.0952798462857%)" />
  <rect x="590" y="330" width="30" height="30" fill="hsl(240 100% 92.80982792258072%)" />
  <rect x="625" y="330" width="30" height="30" fill="hsl(240 100% 50%)" />
  <rect x="765" y="330" width="30" height="30" fill="hsl(240 100% 94.07959827406877%)" />
  <rect x="800" y="330" width="30" height="30" fill="hsl(240 100% 99.0867921937544%)" />
  <rect x="835" y="330" width="30" height="30" fill="hsl(240 100% 78.1343691688334%)" />
  <rect x="65" y="365" width="30" height="30" fill="hsl(240 100% 57.125071369887024%)" />
  <rect x="100" y="365" width="30" height="30" fill="hsl(240 100% 71.36204747308884%)" />
  <rect x="135" y="365" width="30" height="30" fill="hsl(240 100% 81.79224725185556%)" />
  <rect x="170" y="365" width="30" height="30" fill="hsl(240 100% 50%)" />
  <rect x="205" y="365" width="30" height="30" fill="hsl(240 100% 96.0676590318737%)" />
  <rect x="240" y="365" width="30" height="30" fill="hsl(240 100% 59.31431534830625%)" />
  <rect x="275" y="365" width="30" height="30" fill="hsl(240 100% 92.20388430262676%)" />
  <rect x="310" y="365" width="30" height="30" fill="hsl(240 100% 99.86038374924033%)" />
  <rect x="415" y="365" width="30" height="30" fill="hsl(240 100% 66.55328778655291%)" />
  <rect x="520" y="365" width="30" height="30" fill="hsl(240 100% 86.18264109874538%)" />
  <rect x="625" y="365" width="30" height="30" fill="hsl(240 100% 99.62770201158916%)" />
  <rect x="730" y="365" width="30" height="30" fill="hsl(240 100% 63.38083652903425%)" />
  <rect x="765" y="365" width="30" height="30" fill="hsl(240 100% 98.11385315100692%)" />
  <rect x="835" y="365" width="30" height="30" fill="hsl(240 100% 98.73255480742161%)" />
  <rect x="65" y="400" width="30" height="30" fill="hsl(240 100% 97.70587377413705%)" />
  <rect x="100" y="400" width="30" height="30" fill="hsl(240 100% 99.3347285740964%)" />
  <rect x="135" y="400" width="30" height="30" fill="hsl(240 100% 99.57481667735675%)" />
  <rect x="170" y="400" width="30" height="30" fill="hsl(240 100% 92.48514681276214%)" />
  <rect x="205" y="400" width="30" height="30" fill="hsl(240 100% 99.04936813901855%)" />
  <rect x="240" y="400" width="30" height="30" fill="hsl(240 100% 84.80872256458045%)" />
  <rect x="275" y="400" width="30" height="30" fill="hsl(240 100% 94.14800626528226%)" />
  <rect x="310" y="400" width="30" height="30" fill="rgb(255 255 255 / 50%)" />
  <rect x="380" y="400" width="30" height="30" fill="rgb(255 255 255 / 50%)" />
  <rect x="415" y="400" width="30" height="30" fill="hsl(240 100% 92.55518000781092%)" />
  <rect x="450" y="400" width="30" height="30" fill="hsl(240 100% 99.96519658806986%)" />
  <rect x="485" y="400" width="30" height="30" fill="hsl(240 100% 73.0705380170527%)" />
  <rect x="520" y="400" width="30" height="30" fill="hsl(240 100% 50%)" />
  <rect x="555" y="400" width="30" height="30" fill="hsl(240 100% 98.91655400237697%)" />
  <rect x="660" y="400" width="30" height="30" fill="rgb(255 255 255 / 50%)" />
  <rect x="835" y="400" width="30" height="30" fill="hsl(240 100% 98.90783918578354%)" />
  <rect x="65" y="435" width="30" height="30" fill="hsl(240 100% 93.29424354156424%)" />
  <rect x="240" y="435" width="30" height="30" fill="hsl(240 100% 50%)" />
  <rect x="310" y="435" width="30" height="30" fill="hsl(240 100% 93.85821802293238%)" />
  <rect x="415" y="435" width="30" height="30" fill="hsl(240 100% 86.99492263899252%)" />
  <rect x="450" y="435" width="30" height="30" fill="hsl(240 100% 99.78489334805752%)" />
  <rect x="65" y="470" width="30" height="30" fill="hsl(240 100% 50%)" />
  <rect x="240" y="470" width="30" height="30" fill="hsl(240 100% 50.007374743791225%)" />
  <rect x="310" y="470" width="30" height="30" fill="hsl(240 100% 96.9672196364923%)" />
  <rect x="415" y="470" width="30" height="30" fill="hsl(240 100% 89.06037430995393%)" />
  <rect x="450" y="470" width="30" height="30" fill="hsl(240 100% 99.57415447024108%)" />
</svg>
