<svg xmlns="http://www.w3.org/2000/svg" viewBox="0 0 660 295">
  <rect x="0" y="0" width="660" height="295" rx="5" ry="5" fill="#222" />
  <text x="60" y="100" fill="white" font-family="sans-serif" font-weight="bold" font-size="12" text-anchor="end" dominant-baseline="middle">ba</text>
  <text x="60" y="135" fill="white" font-family="sans-serif" font-weight="bold" font-size="12" text-anchor="end" dominant-baseline="middle">gmm</text>
  <text x="60" y="170" fill="white" font-family="sans-serif" font-weight="bold" font-size="12" text-anchor="end" dominant-baseline="middle">hello</text>
  <text x="60" y="205" fill="white" font-family="sans-serif" font-weight="bold" font-size="12" text-anchor="end" dominant-baseline="middle">ht</text>
  <text x="60" y="240" fill="white" font-family="sans-serif" font-weight="bold" font-size="12" text-anchor="end" dominant-baseline="middle">kmeans</text>
  <text x="60" y="275" fill="white" font-family="sans-serif" font-weight="bold" font-size="12" text-anchor="end" dominant-baseline="middle">lstm</text>
  <text x="80" y="80" fill="white" font-family="sans-serif" font-weight="bold" font-size="12" text-anchor="end" dominant-baseline="middle" transform="rotate(90 80 80)">adept</text>
  <text x="115" y="80" fill="white" font-family="sans-serif" font-weight="bold" font-size="12" text-anchor="end" dominant-baseline="middle" transform="rotate(90 115 80)">adol-c</text>
  <text x="150" y="80" fill="white" font-family="sans-serif" font-weight="bold" font-size="12" text-anchor="end" dominant-baseline="middle" transform="rotate(90 150 80)">codipack</text>
  <text x="185" y="80" fill="white" font-family="sans-serif" font-weight="bold" font-size="12" text-anchor="end" dominant-baseline="middle" transform="rotate(90 185 80)">cppad</text>
  <text x="220" y="80" fill="white" font-family="sans-serif" font-weight="bold" font-size="12" text-anchor="end" dominant-baseline="middle" transform="rotate(90 220 80)">enzyme</text>
  <text x="255" y="80" fill="white" font-family="sans-serif" font-weight="bold" font-size="12" text-anchor="end" dominant-baseline="middle" transform="rotate(90 255 80)">finite</text>
  <text x="290" y="80" fill="white" font-family="sans-serif" font-weight="bold" font-size="12" text-anchor="end" dominant-baseline="middle" transform="rotate(90 290 80)">floretta</text>
  <text x="325" y="80" fill="white" font-family="sans-serif" font-weight="bold" font-size="12" text-anchor="end" dominant-baseline="middle" transform="rotate(90 325 80)">futhark</text>
  <text x="360" y="80" fill="white" font-family="sans-serif" font-weight="bold" font-size="12" text-anchor="end" dominant-baseline="middle" transform="rotate(90 360 80)">haskell</text>
  <text x="395" y="80" fill="white" font-family="sans-serif" font-weight="bold" font-size="12" text-anchor="end" dominant-baseline="middle" transform="rotate(90 395 80)">jax</text>
  <text x="430" y="80" fill="white" font-family="sans-serif" font-weight="bold" font-size="12" text-anchor="end" dominant-baseline="middle" transform="rotate(90 430 80)">manual</text>
  <text x="465" y="80" fill="white" font-family="sans-serif" font-weight="bold" font-size="12" text-anchor="end" dominant-baseline="middle" transform="rotate(90 465 80)">ocaml</text>
  <text x="500" y="80" fill="white" font-family="sans-serif" font-weight="bold" font-size="12" text-anchor="end" dominant-baseline="middle" transform="rotate(90 500 80)">pytorch</text>
  <text x="535" y="80" fill="white" font-family="sans-serif" font-weight="bold" font-size="12" text-anchor="end" dominant-baseline="middle" transform="rotate(90 535 80)">scilean</text>
  <text x="570" y="80" fill="white" font-family="sans-serif" font-weight="bold" font-size="12" text-anchor="end" dominant-baseline="middle" transform="rotate(90 570 80)">tapenade</text>
  <text x="605" y="80" fill="white" font-family="sans-serif" font-weight="bold" font-size="12" text-anchor="end" dominant-baseline="middle" transform="rotate(90 605 80)">tensorflow</text>
  <text x="640" y="80" fill="white" font-family="sans-serif" font-weight="bold" font-size="12" text-anchor="end" dominant-baseline="middle" transform="rotate(90 640 80)">zygote</text>
  <rect x="65" y="85" width="30" height="30" fill="hsl(240 100% 83.55590837487405%)" />
  <rect x="100" y="85" width="30" height="30" fill="hsl(240 100% 97.83456993957537%)" />
  <rect x="135" y="85" width="30" height="30" fill="hsl(240 100% 88.92182979358374%)" />
  <rect x="205" y="85" width="30" height="30" fill="hsl(240 100% 50%)" />
  <rect x="240" y="85" width="30" height="30" fill="hsl(240 100% 92.5030447423288%)" />
  <rect x="310" y="85" width="30" height="30" fill="hsl(240 100% 67.87835416218758%)" />
  <rect x="415" y="85" width="30" height="30" fill="hsl(240 100% 51.493907007404985%)" />
  <rect x="485" y="85" width="30" height="30" fill="rgb(255 255 255 / 50%)" />
  <rect x="555" y="85" width="30" height="30" fill="hsl(240 100% 72.16337900927851%)" />
  <rect x="590" y="85" width="30" height="30" fill="rgb(255 255 255 / 50%)" />
  <rect x="65" y="120" width="30" height="30" fill="hsl(240 100% 98.38824019902539%)" />
  <rect x="100" y="120" width="30" height="30" fill="hsl(240 100% 98.93448087195574%)" />
  <rect x="135" y="120" width="30" height="30" fill="hsl(240 100% 97.40247248838656%)" />
  <rect x="170" y="120" width="30" height="30" fill="rgb(255 255 255 / 50%)" />
  <rect x="205" y="120" width="30" height="30" fill="hsl(240 100% 87.63904001730546%)" />
  <rect x="240" y="120" width="30" height="30" fill="rgb(255 255 255 / 50%)" />
  <rect x="310" y="120" width="30" height="30" fill="hsl(240 100% 90.62125259173995%)" />
  <rect x="380" y="120" width="30" height="30" fill="hsl(240 100% 83.84422395583914%)" />
  <rect x="415" y="120" width="30" height="30" fill="hsl(240 100% 77.16372620677905%)" />
  <rect x="450" y="120" width="30" height="30" fill="hsl(240 100% 99.50828981573368%)" />
  <rect x="485" y="120" width="30" height="30" fill="hsl(240 100% 50%)" />
  <rect x="520" y="120" width="30" height="30" fill="hsl(240 100% 93.67925963168301%)" />
  <rect x="555" y="120" width="30" height="30" fill="hsl(240 100% 77.52863803532807%)" />
  <rect x="590" y="120" width="30" height="30" fill="hsl(240 100% 89.65788363466166%)" />
  <rect x="65" y="155" width="30" height="30" fill="hsl(240 100% 50%)" />
  <rect x="100" y="155" width="30" height="30" fill="hsl(240 100% 50%)" />
  <rect x="135" y="155" width="30" height="30" fill="hsl(240 100% 50%)" />
  <rect x="170" y="155" width="30" height="30" fill="hsl(240 100% 50%)" />
  <rect x="205" y="155" width="30" height="30" fill="hsl(240 100% 50%)" />
  <rect x="240" y="155" width="30" height="30" fill="hsl(240 100% 50%)" />
  <rect x="275" y="155" width="30" height="30" fill="hsl(240 100% 50%)" />
  <rect x="310" y="155" width="30" height="30" fill="hsl(240 100% 50%)" />
  <rect x="345" y="155" width="30" height="30" fill="hsl(240 100% 50%)" />
  <rect x="380" y="155" width="30" height="30" fill="hsl(240 100% 50%)" />
  <rect x="415" y="155" width="30" height="30" fill="hsl(240 100% 50%)" />
  <rect x="450" y="155" width="30" height="30" fill="hsl(240 100% 50%)" />
  <rect x="485" y="155" width="30" height="30" fill="hsl(240 100% 50%)" />
  <rect x="520" y="155" width="30" height="30" fill="hsl(240 100% 50%)" />
  <rect x="555" y="155" width="30" height="30" fill="hsl(240 100% 50%)" />
  <rect x="590" y="155" width="30" height="30" fill="hsl(240 100% 50%)" />
  <rect x="625" y="155" width="30" height="30" fill="hsl(240 100% 50%)" />
  <rect x="65" y="190" width="30" height="30" fill="hsl(240 100% 95.98979908416858%)" />
  <rect x="100" y="190" width="30" height="30" fill="hsl(240 100% 96.24523288711936%)" />
  <rect x="135" y="190" width="30" height="30" fill="hsl(240 100% 88.18175687735055%)" />
  <rect x="205" y="190" width="30" height="30" fill="hsl(240 100% 90.02575064023077%)" />
  <rect x="240" y="190" width="30" height="30" fill="rgb(255 255 255 / 50%)" />
  <rect x="310" y="190" width="30" height="30" fill="hsl(240 100% 89.40859779963422%)" />
  <rect x="415" y="190" width="30" height="30" fill="hsl(240 100% 50%)" />
  <rect x="485" y="190" width="30" height="30" fill="rgb(255 255 255 / 50%)" />
  <rect x="555" y="190" width="30" height="30" fill="rgb(255 255 255 / 50%)" />
  <rect x="590" y="190" width="30" height="30" fill="rgb(255 255 255 / 50%)" />
  <rect x="100" y="225" width="30" height="30" fill="hsl(240 100% 99.87825503130998%)" />
  <rect x="135" y="225" width="30" height="30" fill="hsl(240 100% 99.44220223326009%)" />
  <rect x="170" y="225" width="30" height="30" fill="rgb(255 255 255 / 50%)" />
  <rect x="205" y="225" width="30" height="30" fill="hsl(240 100% 88.17925452710766%)" />
  <rect x="240" y="225" width="30" height="30" fill="rgb(255 255 255 / 50%)" />
  <rect x="310" y="225" width="30" height="30" fill="hsl(240 100% 83.38246572339686%)" />
  <rect x="345" y="225" width="30" height="30" fill="rgb(255 255 255 / 50%)" />
  <rect x="380" y="225" width="30" height="30" fill="hsl(240 100% 50%)" />
  <rect x="415" y="225" width="30" height="30" fill="hsl(240 100% 77.02678577685035%)" />
  <rect x="485" y="225" width="30" height="30" fill="hsl(240 100% 85.35668138794321%)" />
  <rect x="520" y="225" width="30" height="30" fill="hsl(240 100% 94.32023916917042%)" />
  <rect x="65" y="260" width="30" height="30" fill="hsl(240 100% 68.70791554631899%)" />
  <rect x="100" y="260" width="30" height="30" fill="hsl(240 100% 80.70028657974987%)" />
  <rect x="135" y="260" width="30" height="30" fill="hsl(240 100% 50%)" />
  <rect x="170" y="260" width="30" height="30" fill="hsl(240 100% 89.64773149742481%)" />
  <rect x="205" y="260" width="30" height="30" fill="hsl(240 100% 50.413759053867615%)" />
  <rect x="240" y="260" width="30" height="30" fill="hsl(240 100% 99.85198266758916%)" />
  <rect x="310" y="260" width="30" height="30" fill="hsl(240 100% 62.87131331355963%)" />
  <rect x="415" y="260" width="30" height="30" fill="hsl(240 100% 84.49302111332771%)" />
  <rect x="485" y="260" width="30" height="30" fill="hsl(240 100% 99.58246074601851%)" />
  <rect x="520" y="260" width="30" height="30" fill="hsl(240 100% 89.50942338016088%)" />
  <rect x="555" y="260" width="30" height="30" fill="hsl(240 100% 59.11113304777654%)" />
  <rect x="590" y="260" width="30" height="30" fill="hsl(240 100% 97.94666218155032%)" />
</svg>
