<svg xmlns="http://www.w3.org/2000/svg" viewBox="0 0 870 505">
  <rect x="0" y="0" width="870" height="505" rx="5" ry="5" fill="#222" />
  <text x="60" y="100" fill="white" font-family="sans-serif" font-weight="bold" font-size="12" text-anchor="end" dominant-baseline="middle">ba</text>
  <text x="60" y="135" fill="white" font-family="sans-serif" font-weight="bold" font-size="12" text-anchor="end" dominant-baseline="middle">det</text>
  <text x="60" y="170" fill="white" font-family="sans-serif" font-weight="bold" font-size="12" text-anchor="end" dominant-baseline="middle">gmm</text>
  <text x="60" y="205" fill="white" font-family="sans-serif" font-weight="bold" font-size="12" text-anchor="end" dominant-baseline="middle">hello</text>
  <text x="60" y="240" fill="white" font-family="sans-serif" font-weight="bold" font-size="12" text-anchor="end" dominant-baseline="middle">ht</text>
  <text x="60" y="275" fill="white" font-family="sans-serif" font-weight="bold" font-size="12" text-anchor="end" dominant-baseline="middle">kmeans</text>
  <text x="60" y="310" fill="white" font-family="sans-serif" font-weight="bold" font-size="12" text-anchor="end" dominant-baseline="middle">llsq</text>
  <text x="60" y="345" fill="white" font-family="sans-serif" font-weight="bold" font-size="12" text-anchor="end" dominant-baseline="middle">lse</text>
  <text x="60" y="380" fill="white" font-family="sans-serif" font-weight="bold" font-size="12" text-anchor="end" dominant-baseline="middle">lstm</text>
  <text x="60" y="415" fill="white" font-family="sans-serif" font-weight="bold" font-size="12" text-anchor="end" dominant-baseline="middle">ode</text>
  <text x="60" y="450" fill="white" font-family="sans-serif" font-weight="bold" font-size="12" text-anchor="end" dominant-baseline="middle">particle</text>
  <text x="60" y="485" fill="white" font-family="sans-serif" font-weight="bold" font-size="12" text-anchor="end" dominant-baseline="middle">saddle</text>
  <text x="80" y="80" fill="white" font-family="sans-serif" font-weight="bold" font-size="12" text-anchor="end" dominant-baseline="middle" transform="rotate(90 80 80)">ad-hpp</text>
  <text x="115" y="80" fill="white" font-family="sans-serif" font-weight="bold" font-size="12" text-anchor="end" dominant-baseline="middle" transform="rotate(90 115 80)">adept</text>
  <text x="150" y="80" fill="white" font-family="sans-serif" font-weight="bold" font-size="12" text-anchor="end" dominant-baseline="middle" transform="rotate(90 150 80)">adol-c</text>
  <text x="185" y="80" fill="white" font-family="sans-serif" font-weight="bold" font-size="12" text-anchor="end" dominant-baseline="middle" transform="rotate(90 185 80)">codipack</text>
  <text x="220" y="80" fill="white" font-family="sans-serif" font-weight="bold" font-size="12" text-anchor="end" dominant-baseline="middle" transform="rotate(90 220 80)">cppad</text>
  <text x="255" y="80" fill="white" font-family="sans-serif" font-weight="bold" font-size="12" text-anchor="end" dominant-baseline="middle" transform="rotate(90 255 80)">enzyme</text>
  <text x="290" y="80" fill="white" font-family="sans-serif" font-weight="bold" font-size="12" text-anchor="end" dominant-baseline="middle" transform="rotate(90 290 80)">enzyme-jl</text>
  <text x="325" y="80" fill="white" font-family="sans-serif" font-weight="bold" font-size="12" text-anchor="end" dominant-baseline="middle" transform="rotate(90 325 80)">finite</text>
  <text x="360" y="80" fill="white" font-family="sans-serif" font-weight="bold" font-size="12" text-anchor="end" dominant-baseline="middle" transform="rotate(90 360 80)">floretta</text>
  <text x="395" y="80" fill="white" font-family="sans-serif" font-weight="bold" font-size="12" text-anchor="end" dominant-baseline="middle" transform="rotate(90 395 80)">forwarddiff-jl</text>
  <text x="430" y="80" fill="white" font-family="sans-serif" font-weight="bold" font-size="12" text-anchor="end" dominant-baseline="middle" transform="rotate(90 430 80)">futhark</text>
  <text x="465" y="80" fill="white" font-family="sans-serif" font-weight="bold" font-size="12" text-anchor="end" dominant-baseline="middle" transform="rotate(90 465 80)">haskell</text>
  <text x="500" y="80" fill="white" font-family="sans-serif" font-weight="bold" font-size="12" text-anchor="end" dominant-baseline="middle" transform="rotate(90 500 80)">jax</text>
  <text x="535" y="80" fill="white" font-family="sans-serif" font-weight="bold" font-size="12" text-anchor="end" dominant-baseline="middle" transform="rotate(90 535 80)">manual</text>
  <text x="570" y="80" fill="white" font-family="sans-serif" font-weight="bold" font-size="12" text-anchor="end" dominant-baseline="middle" transform="rotate(90 570 80)">mooncake-jl</text>
  <text x="605" y="80" fill="white" font-family="sans-serif" font-weight="bold" font-size="12" text-anchor="end" dominant-baseline="middle" transform="rotate(90 605 80)">ocaml</text>
  <text x="640" y="80" fill="white" font-family="sans-serif" font-weight="bold" font-size="12" text-anchor="end" dominant-baseline="middle" transform="rotate(90 640 80)">pytorch</text>
  <text x="675" y="80" fill="white" font-family="sans-serif" font-weight="bold" font-size="12" text-anchor="end" dominant-baseline="middle" transform="rotate(90 675 80)">reversediff-jl</text>
  <text x="710" y="80" fill="white" font-family="sans-serif" font-weight="bold" font-size="12" text-anchor="end" dominant-baseline="middle" transform="rotate(90 710 80)">scilean</text>
  <text x="745" y="80" fill="white" font-family="sans-serif" font-weight="bold" font-size="12" text-anchor="end" dominant-baseline="middle" transform="rotate(90 745 80)">tapenade</text>
  <text x="780" y="80" fill="white" font-family="sans-serif" font-weight="bold" font-size="12" text-anchor="end" dominant-baseline="middle" transform="rotate(90 780 80)">tensorflow</text>
  <text x="815" y="80" fill="white" font-family="sans-serif" font-weight="bold" font-size="12" text-anchor="end" dominant-baseline="middle" transform="rotate(90 815 80)">tensorflow-js</text>
  <text x="850" y="80" fill="white" font-family="sans-serif" font-weight="bold" font-size="12" text-anchor="end" dominant-baseline="middle" transform="rotate(90 850 80)">zygote</text>
  <rect x="65" y="85" width="30" height="30" fill="hsl(240 100% 80.99307119537329%)" />
  <rect x="100" y="85" width="30" height="30" fill="hsl(240 100% 82.5271832835253%)" />
  <rect x="135" y="85" width="30" height="30" fill="hsl(240 100% 97.97624259236865%)" />
  <rect x="170" y="85" width="30" height="30" fill="hsl(240 100% 81.9768465056067%)" />
  <rect x="205" y="85" width="30" height="30" fill="hsl(240 100% 98.84854063485022%)" />
  <rect x="240" y="85" width="30" height="30" fill="hsl(240 100% 50%)" />
  <rect x="310" y="85" width="30" height="30" fill="hsl(240 100% 93.11706047142681%)" />
  <rect x="415" y="85" width="30" height="30" fill="hsl(240 100% 67.94414244120429%)" />
  <rect x="520" y="85" width="30" height="30" fill="hsl(240 100% 54.52941547458437%)" />
  <rect x="625" y="85" width="30" height="30" fill="rgb(255 255 255 / 50%)" />
  <rect x="730" y="85" width="30" height="30" fill="hsl(240 100% 74.45395648106762%)" />
  <rect x="765" y="85" width="30" height="30" fill="rgb(255 255 255 / 50%)" />
  <rect x="835" y="85" width="30" height="30" fill="hsl(240 100% 99.75824334660426%)" />
  <rect x="65" y="120" width="30" height="30" fill="hsl(240 100% 50%)" />
  <rect x="100" y="120" width="30" height="30" fill="hsl(240 100% 82.44352570804269%)" />
  <rect x="135" y="120" width="30" height="30" fill="hsl(240 100% 86.4442173768586%)" />
  <rect x="170" y="120" width="30" height="30" fill="hsl(240 100% 57.84176552571853%)" />
  <rect x="205" y="120" width="30" height="30" fill="hsl(240 100% 92.366022037971%)" />
  <rect x="240" y="120" width="30" height="30" fill="hsl(240 100% 92.44311571803003%)" />
  <rect x="275" y="120" width="30" height="30" fill="hsl(240 100% 99.50360399216969%)" />
  <rect x="310" y="120" width="30" height="30" fill="hsl(240 100% 99.0578705100238%)" />
  <rect x="380" y="120" width="30" height="30" fill="hsl(240 100% 93.85441345817149%)" />
  <rect x="415" y="120" width="30" height="30" fill="hsl(240 100% 94.97090420369572%)" />
  <rect x="450" y="120" width="30" height="30" fill="hsl(240 100% 98.00372754740623%)" />
  <rect x="520" y="120" width="30" height="30" fill="hsl(240 100% 80.86073376013638%)" />
  <rect x="555" y="120" width="30" height="30" fill="hsl(240 100% 96.75251871954656%)" />
  <rect x="660" y="120" width="30" height="30" fill="rgb(255 255 255 / 50%)" />
  <rect x="835" y="120" width="30" height="30" fill="rgb(255 255 255 / 50%)" />
  <rect x="65" y="155" width="30" height="30" fill="hsl(240 100% 98.57238122811219%)" />
  <rect x="100" y="155" width="30" height="30" fill="hsl(240 100% 99.12632768234295%)" />
  <rect x="135" y="155" width="30" height="30" fill="hsl(240 100% 99.12803295775159%)" />
  <rect x="170" y="155" width="30" height="30" fill="hsl(240 100% 98.0025346688182%)" />
  <rect x="205" y="155" width="30" height="30" fill="hsl(240 100% 99.80576628319318%)" />
  <rect x="240" y="155" width="30" height="30" fill="hsl(240 100% 91.44543890326518%)" />
  <rect x="275" y="155" width="30" height="30" fill="hsl(240 100% 91.56447531560566%)" />
  <rect x="310" y="155" width="30" height="30" fill="rgb(255 255 255 / 50%)" />
  <rect x="415" y="155" width="30" height="30" fill="hsl(240 100% 93.12600957318307%)" />
  <rect x="485" y="155" width="30" height="30" fill="hsl(240 100% 50%)" />
  <rect x="520" y="155" width="30" height="30" fill="hsl(240 100% 81.83043426246546%)" />
  <rect x="555" y="155" width="30" height="30" fill="hsl(240 100% 96.33517632379716%)" />
  <rect x="590" y="155" width="30" height="30" fill="hsl(240 100% 99.63918324943968%)" />
  <rect x="625" y="155" width="30" height="30" fill="hsl(240 100% 67.52074271859506%)" />
  <rect x="695" y="155" width="30" height="30" fill="hsl(240 100% 95.51370951391195%)" />
  <rect x="730" y="155" width="30" height="30" fill="hsl(240 100% 83.97949908520636%)" />
  <rect x="765" y="155" width="30" height="30" fill="hsl(240 100% 99.57932415588608%)" />
  <rect x="835" y="155" width="30" height="30" fill="hsl(240 100% 97.72265173003521%)" />
  <rect x="65" y="190" width="30" height="30" fill="hsl(240 100% 50%)" />
  <rect x="100" y="190" width="30" height="30" fill="hsl(240 100% 50%)" />
  <rect x="135" y="190" width="30" height="30" fill="hsl(240 100% 50%)" />
  <rect x="170" y="190" width="30" height="30" fill="hsl(240 100% 50%)" />
  <rect x="205" y="190" width="30" height="30" fill="hsl(240 100% 50%)" />
  <rect x="240" y="190" width="30" height="30" fill="hsl(240 100% 50%)" />
  <rect x="275" y="190" width="30" height="30" fill="hsl(240 100% 50%)" />
  <rect x="310" y="190" width="30" height="30" fill="hsl(240 100% 50%)" />
  <rect x="345" y="190" width="30" height="30" fill="hsl(240 100% 50%)" />
  <rect x="380" y="190" width="30" height="30" fill="hsl(240 100% 50%)" />
  <rect x="415" y="190" width="30" height="30" fill="hsl(240 100% 50%)" />
  <rect x="450" y="190" width="30" height="30" fill="hsl(240 100% 50%)" />
  <rect x="485" y="190" width="30" height="30" fill="hsl(240 100% 50%)" />
  <rect x="520" y="190" width="30" height="30" fill="hsl(240 100% 50%)" />
  <rect x="555" y="190" width="30" height="30" fill="hsl(240 100% 50%)" />
  <rect x="590" y="190" width="30" height="30" fill="hsl(240 100% 50%)" />
  <rect x="625" y="190" width="30" height="30" fill="hsl(240 100% 50%)" />
  <rect x="660" y="190" width="30" height="30" fill="hsl(240 100% 50%)" />
  <rect x="695" y="190" width="30" height="30" fill="hsl(240 100% 50%)" />
  <rect x="730" y="190" width="30" height="30" fill="hsl(240 100% 50%)" />
  <rect x="765" y="190" width="30" height="30" fill="hsl(240 100% 50%)" />
  <rect x="800" y="190" width="30" height="30" fill="hsl(240 100% 50%)" />
  <rect x="835" y="190" width="30" height="30" fill="hsl(240 100% 50%)" />
  <rect x="100" y="225" width="30" height="30" fill="hsl(240 100% 96.15210847847499%)" />
  <rect x="135" y="225" width="30" height="30" fill="hsl(240 100% 86.04515139882447%)" />
  <rect x="170" y="225" width="30" height="30" fill="hsl(240 100% 87.99477530050726%)" />
  <rect x="240" y="225" width="30" height="30" fill="hsl(240 100% 91.59329534578941%)" />
  <rect x="310" y="225" width="30" height="30" fill="rgb(255 255 255 / 50%)" />
  <rect x="415" y="225" width="30" height="30" fill="hsl(240 100% 89.23938026090818%)" />
  <rect x="520" y="225" width="30" height="30" fill="hsl(240 100% 50%)" />
  <rect x="625" y="225" width="30" height="30" fill="rgb(255 255 255 / 50%)" />
  <rect x="730" y="225" width="30" height="30" fill="hsl(240 100% 92.34586259697772%)" />
  <rect x="765" y="225" width="30" height="30" fill="rgb(255 255 255 / 50%)" />
  <rect x="835" y="225" width="30" height="30" fill="hsl(240 100% 94.09446933627235%)" />
  <rect x="135" y="260" width="30" height="30" fill="hsl(240 100% 99.86532922947791%)" />
  <rect x="170" y="260" width="30" height="30" fill="hsl(240 100% 98.91480662825907%)" />
  <rect x="205" y="260" width="30" height="30" fill="rgb(255 255 255 / 50%)" />
  <rect x="240" y="260" width="30" height="30" fill="hsl(240 100% 86.93653936870805%)" />
  <rect x="310" y="260" width="30" height="30" fill="rgb(255 255 255 / 50%)" />
  <rect x="380" y="260" width="30" height="30" fill="rgb(255 255 255 / 50%)" />
  <rect x="415" y="260" width="30" height="30" fill="hsl(240 100% 81.0581748577013%)" />
  <rect x="450" y="260" width="30" height="30" fill="rgb(255 255 255 / 50%)" />
  <rect x="485" y="260" width="30" height="30" fill="hsl(240 100% 50%)" />
  <rect x="520" y="260" width="30" height="30" fill="hsl(240 100% 72.52132393360105%)" />
  <rect x="625" y="260" width="30" height="30" fill="hsl(240 100% 97.07628317094185%)" />
  <rect x="660" y="260" width="30" height="30" fill="rgb(255 255 255 / 50%)" />
  <rect x="695" y="260" width="30" height="30" fill="hsl(240 100% 93.48673031870771%)" />
  <rect x="65" y="295" width="30" height="30" fill="hsl(240 100% 86.05112330574362%)" />
  <rect x="100" y="295" width="30" height="30" fill="hsl(240 100% 97.39099789645363%)" />
  <rect x="135" y="295" width="30" height="30" fill="hsl(240 100% 94.90961520950658%)" />
  <rect x="170" y="295" width="30" height="30" fill="hsl(240 100% 89.22177411063261%)" />
  <rect x="205" y="295" width="30" height="30" fill="hsl(240 100% 99.47781959777242%)" />
  <rect x="240" y="295" width="30" height="30" fill="hsl(240 100% 50%)" />
  <rect x="275" y="295" width="30" height="30" fill="hsl(240 100% 58.70762597893096%)" />
  <rect x="310" y="295" width="30" height="30" fill="hsl(240 100% 99.49302918159744%)" />
  <rect x="345" y="295" width="30" height="30" fill="hsl(240 100% 94.66885032953371%)" />
  <rect x="415" y="295" width="30" height="30" fill="hsl(240 100% 54.657276173806395%)" />
  <rect x="450" y="295" width="30" height="30" fill="hsl(240 100% 99.17342845094947%)" />
  <rect x="485" y="295" width="30" height="30" fill="hsl(240 100% 88.23335630784986%)" />
  <rect x="520" y="295" width="30" height="30" fill="hsl(240 100% 57.324205599592304%)" />
  <rect x="555" y="295" width="30" height="30" fill="hsl(240 100% 90.90118248824564%)" />
  <rect x="695" y="295" width="30" height="30" fill="hsl(240 100% 97.58365946969079%)" />
  <rect x="800" y="295" width="30" height="30" fill="hsl(240 100% 99.58200777066544%)" />
  <rect x="835" y="295" width="30" height="30" fill="hsl(240 100% 99.96192877838901%)" />
  <rect x="65" y="330" width="30" height="30" fill="hsl(240 100% 87.41767048330105%)" />
  <rect x="100" y="330" width="30" height="30" fill="hsl(240 100% 94.13042576653405%)" />
  <rect x="135" y="330" width="30" height="30" fill="hsl(240 100% 96.6618051858944%)" />
  <rect x="170" y="330" width="30" height="30" fill="hsl(240 100% 87.05734529816343%)" />
  <rect x="205" y="330" width="30" height="30" fill="hsl(240 100% 99.20101342009677%)" />
  <rect x="240" y="330" width="30" height="30" fill="hsl(240 100% 79.94152199558462%)" />
  <rect x="275" y="330" width="30" height="30" fill="hsl(240 100% 87.61859170829385%)" />
  <rect x="310" y="330" width="30" height="30" fill="rgb(255 255 255 / 50%)" />
  <rect x="345" y="330" width="30" height="30" fill="hsl(240 100% 97.1407166806384%)" />
  <rect x="415" y="330" width="30" height="30" fill="hsl(240 100% 85.7151909138464%)" />
  <rect x="450" y="330" width="30" height="30" fill="hsl(240 100% 99.77445030849915%)" />
  <rect x="485" y="330" width="30" height="30" fill="hsl(240 100% 70.99603692936809%)" />
  <rect x="520" y="330" width="30" height="30" fill="hsl(240 100% 70.53914464784577%)" />
  <rect x="555" y="330" width="30" height="30" fill="hsl(240 100% 98.95004661228603%)" />
  <rect x="590" y="330" width="30" height="30" fill="hsl(240 100% 94.12609971002186%)" />
  <rect x="625" y="330" width="30" height="30" fill="hsl(240 100% 50%)" />
  <rect x="765" y="330" width="30" height="30" fill="hsl(240 100% 94.40960256586162%)" />
  <rect x="800" y="330" width="30" height="30" fill="hsl(240 100% 99.2708979959131%)" />
  <rect x="835" y="330" width="30" height="30" fill="hsl(240 100% 96.53946504744141%)" />
  <rect x="65" y="365" width="30" height="30" fill="hsl(240 100% 57.12296020236871%)" />
  <rect x="100" y="365" width="30" height="30" fill="hsl(240 100% 71.89660493678812%)" />
  <rect x="135" y="365" width="30" height="30" fill="hsl(240 100% 81.82748644764762%)" />
  <rect x="170" y="365" width="30" height="30" fill="hsl(240 100% 50%)" />
  <rect x="205" y="365" width="30" height="30" fill="hsl(240 100% 96.02595763381%)" />
  <rect x="240" y="365" width="30" height="30" fill="hsl(240 100% 59.47814846777352%)" />
  <rect x="275" y="365" width="30" height="30" fill="hsl(240 100% 92.88970319683406%)" />
  <rect x="310" y="365" width="30" height="30" fill="hsl(240 100% 99.86108809163817%)" />
  <rect x="415" y="365" width="30" height="30" fill="hsl(240 100% 66.2702789536281%)" />
  <rect x="520" y="365" width="30" height="30" fill="hsl(240 100% 86.0296508542104%)" />
  <rect x="555" y="365" width="30" height="30" fill="hsl(240 100% 95.73427422713692%)" />
  <rect x="625" y="365" width="30" height="30" fill="hsl(240 100% 99.63035612819934%)" />
  <rect x="730" y="365" width="30" height="30" fill="hsl(240 100% 63.15734213996361%)" />
  <rect x="765" y="365" width="30" height="30" fill="hsl(240 100% 98.36929292603661%)" />
  <rect x="835" y="365" width="30" height="30" fill="hsl(240 100% 98.74936557299503%)" />
  <rect x="65" y="400" width="30" height="30" fill="hsl(240 100% 95.81611079763901%)" />
  <rect x="100" y="400" width="30" height="30" fill="hsl(240 100% 98.61097303679053%)" />
  <rect x="135" y="400" width="30" height="30" fill="hsl(240 100% 99.30147481977555%)" />
  <rect x="170" y="400" width="30" height="30" fill="hsl(240 100% 87.827900945809%)" />
  <rect x="205" y="400" width="30" height="30" fill="hsl(240 100% 98.40877264016288%)" />
  <rect x="240" y="400" width="30" height="30" fill="hsl(240 100% 70.47554445148667%)" />
  <rect x="275" y="400" width="30" height="30" fill="hsl(240 100% 90.05435266678442%)" />
  <rect x="310" y="400" width="30" height="30" fill="rgb(255 255 255 / 50%)" />
  <rect x="380" y="400" width="30" height="30" fill="rgb(255 255 255 / 50%)" />
  <rect x="415" y="400" width="30" height="30" fill="hsl(240 100% 89.8776885997244%)" />
  <rect x="450" y="400" width="30" height="30" fill="hsl(240 100% 99.94839200206869%)" />
  <rect x="485" y="400" width="30" height="30" fill="hsl(240 100% 59.80016518011187%)" />
  <rect x="520" y="400" width="30" height="30" fill="hsl(240 100% 50%)" />
  <rect x="555" y="400" width="30" height="30" fill="hsl(240 100% 98.15629296865953%)" />
  <rect x="660" y="400" width="30" height="30" fill="rgb(255 255 255 / 50%)" />
  <rect x="835" y="400" width="30" height="30" fill="hsl(240 100% 98.57084068947746%)" />
  <rect x="65" y="435" width="30" height="30" fill="hsl(240 100% 93.28411862725045%)" />
  <rect x="240" y="435" width="30" height="30" fill="hsl(240 100% 50%)" />
  <rect x="310" y="435" width="30" height="30" fill="hsl(240 100% 93.85127445824833%)" />
  <rect x="415" y="435" width="30" height="30" fill="hsl(240 100% 87.01673802726509%)" />
  <rect x="450" y="435" width="30" height="30" fill="hsl(240 100% 99.79245660758778%)" />
  <rect x="65" y="470" width="30" height="30" fill="hsl(240 100% 50.05761137033758%)" />
  <rect x="240" y="470" width="30" height="30" fill="hsl(240 100% 50%)" />
  <rect x="310" y="470" width="30" height="30" fill="hsl(240 100% 96.98013353083644%)" />
  <rect x="415" y="470" width="30" height="30" fill="hsl(240 100% 89.08675421351356%)" />
  <rect x="450" y="470" width="30" height="30" fill="hsl(240 100% 99.50570016731649%)" />
</svg>
