<svg xmlns="http://www.w3.org/2000/svg" viewBox="0 0 870 505">
  <rect x="0" y="0" width="870" height="505" rx="5" ry="5" fill="#222" />
  <text x="60" y="100" fill="white" font-family="sans-serif" font-weight="bold" font-size="12" text-anchor="end" dominant-baseline="middle">ba</text>
  <text x="60" y="135" fill="white" font-family="sans-serif" font-weight="bold" font-size="12" text-anchor="end" dominant-baseline="middle">det</text>
  <text x="60" y="170" fill="white" font-family="sans-serif" font-weight="bold" font-size="12" text-anchor="end" dominant-baseline="middle">gmm</text>
  <text x="60" y="205" fill="white" font-family="sans-serif" font-weight="bold" font-size="12" text-anchor="end" dominant-baseline="middle">hello</text>
  <text x="60" y="240" fill="white" font-family="sans-serif" font-weight="bold" font-size="12" text-anchor="end" dominant-baseline="middle">ht</text>
  <text x="60" y="275" fill="white" font-family="sans-serif" font-weight="bold" font-size="12" text-anchor="end" dominant-baseline="middle">kmeans</text>
  <text x="60" y="310" fill="white" font-family="sans-serif" font-weight="bold" font-size="12" text-anchor="end" dominant-baseline="middle">llsq</text>
  <text x="60" y="345" fill="white" font-family="sans-serif" font-weight="bold" font-size="12" text-anchor="end" dominant-baseline="middle">lse</text>
  <text x="60" y="380" fill="white" font-family="sans-serif" font-weight="bold" font-size="12" text-anchor="end" dominant-baseline="middle">lstm</text>
  <text x="60" y="415" fill="white" font-family="sans-serif" font-weight="bold" font-size="12" text-anchor="end" dominant-baseline="middle">ode</text>
  <text x="60" y="450" fill="white" font-family="sans-serif" font-weight="bold" font-size="12" text-anchor="end" dominant-baseline="middle">particle</text>
  <text x="60" y="485" fill="white" font-family="sans-serif" font-weight="bold" font-size="12" text-anchor="end" dominant-baseline="middle">saddle</text>
  <text x="80" y="80" fill="white" font-family="sans-serif" font-weight="bold" font-size="12" text-anchor="end" dominant-baseline="middle" transform="rotate(90 80 80)">ad-hpp</text>
  <text x="115" y="80" fill="white" font-family="sans-serif" font-weight="bold" font-size="12" text-anchor="end" dominant-baseline="middle" transform="rotate(90 115 80)">adept</text>
  <text x="150" y="80" fill="white" font-family="sans-serif" font-weight="bold" font-size="12" text-anchor="end" dominant-baseline="middle" transform="rotate(90 150 80)">adol-c</text>
  <text x="185" y="80" fill="white" font-family="sans-serif" font-weight="bold" font-size="12" text-anchor="end" dominant-baseline="middle" transform="rotate(90 185 80)">codipack</text>
  <text x="220" y="80" fill="white" font-family="sans-serif" font-weight="bold" font-size="12" text-anchor="end" dominant-baseline="middle" transform="rotate(90 220 80)">cppad</text>
  <text x="255" y="80" fill="white" font-family="sans-serif" font-weight="bold" font-size="12" text-anchor="end" dominant-baseline="middle" transform="rotate(90 255 80)">enzyme</text>
  <text x="290" y="80" fill="white" font-family="sans-serif" font-weight="bold" font-size="12" text-anchor="end" dominant-baseline="middle" transform="rotate(90 290 80)">enzyme-jl</text>
  <text x="325" y="80" fill="white" font-family="sans-serif" font-weight="bold" font-size="12" text-anchor="end" dominant-baseline="middle" transform="rotate(90 325 80)">finite</text>
  <text x="360" y="80" fill="white" font-family="sans-serif" font-weight="bold" font-size="12" text-anchor="end" dominant-baseline="middle" transform="rotate(90 360 80)">floretta</text>
  <text x="395" y="80" fill="white" font-family="sans-serif" font-weight="bold" font-size="12" text-anchor="end" dominant-baseline="middle" transform="rotate(90 395 80)">forwarddiff-jl</text>
  <text x="430" y="80" fill="white" font-family="sans-serif" font-weight="bold" font-size="12" text-anchor="end" dominant-baseline="middle" transform="rotate(90 430 80)">futhark</text>
  <text x="465" y="80" fill="white" font-family="sans-serif" font-weight="bold" font-size="12" text-anchor="end" dominant-baseline="middle" transform="rotate(90 465 80)">haskell</text>
  <text x="500" y="80" fill="white" font-family="sans-serif" font-weight="bold" font-size="12" text-anchor="end" dominant-baseline="middle" transform="rotate(90 500 80)">jax</text>
  <text x="535" y="80" fill="white" font-family="sans-serif" font-weight="bold" font-size="12" text-anchor="end" dominant-baseline="middle" transform="rotate(90 535 80)">manual</text>
  <text x="570" y="80" fill="white" font-family="sans-serif" font-weight="bold" font-size="12" text-anchor="end" dominant-baseline="middle" transform="rotate(90 570 80)">mooncake-jl</text>
  <text x="605" y="80" fill="white" font-family="sans-serif" font-weight="bold" font-size="12" text-anchor="end" dominant-baseline="middle" transform="rotate(90 605 80)">ocaml</text>
  <text x="640" y="80" fill="white" font-family="sans-serif" font-weight="bold" font-size="12" text-anchor="end" dominant-baseline="middle" transform="rotate(90 640 80)">pytorch</text>
  <text x="675" y="80" fill="white" font-family="sans-serif" font-weight="bold" font-size="12" text-anchor="end" dominant-baseline="middle" transform="rotate(90 675 80)">reversediff-jl</text>
  <text x="710" y="80" fill="white" font-family="sans-serif" font-weight="bold" font-size="12" text-anchor="end" dominant-baseline="middle" transform="rotate(90 710 80)">scilean</text>
  <text x="745" y="80" fill="white" font-family="sans-serif" font-weight="bold" font-size="12" text-anchor="end" dominant-baseline="middle" transform="rotate(90 745 80)">tapenade</text>
  <text x="780" y="80" fill="white" font-family="sans-serif" font-weight="bold" font-size="12" text-anchor="end" dominant-baseline="middle" transform="rotate(90 780 80)">tensorflow</text>
  <text x="815" y="80" fill="white" font-family="sans-serif" font-weight="bold" font-size="12" text-anchor="end" dominant-baseline="middle" transform="rotate(90 815 80)">tensorflow-js</text>
  <text x="850" y="80" fill="white" font-family="sans-serif" font-weight="bold" font-size="12" text-anchor="end" dominant-baseline="middle" transform="rotate(90 850 80)">zygote</text>
  <rect x="65" y="85" width="30" height="30" fill="hsl(240 100% 80.43883143291674%)" />
  <rect x="100" y="85" width="30" height="30" fill="hsl(240 100% 82.51930700084442%)" />
  <rect x="135" y="85" width="30" height="30" fill="hsl(240 100% 97.89539756612535%)" />
  <rect x="170" y="85" width="30" height="30" fill="hsl(240 100% 81.43801218247397%)" />
  <rect x="205" y="85" width="30" height="30" fill="hsl(240 100% 98.93799039571005%)" />
  <rect x="240" y="85" width="30" height="30" fill="hsl(240 100% 50%)" />
  <rect x="310" y="85" width="30" height="30" fill="hsl(240 100% 92.82225605376298%)" />
  <rect x="415" y="85" width="30" height="30" fill="hsl(240 100% 66.63597576466495%)" />
  <rect x="520" y="85" width="30" height="30" fill="hsl(240 100% 53.652996855972354%)" />
  <rect x="625" y="85" width="30" height="30" fill="rgb(255 255 255 / 50%)" />
  <rect x="730" y="85" width="30" height="30" fill="hsl(240 100% 73.7826138617875%)" />
  <rect x="765" y="85" width="30" height="30" fill="rgb(255 255 255 / 50%)" />
  <rect x="835" y="85" width="30" height="30" fill="hsl(240 100% 99.72731882515947%)" />
  <rect x="65" y="120" width="30" height="30" fill="hsl(240 100% 50%)" />
  <rect x="100" y="120" width="30" height="30" fill="hsl(240 100% 82.91639222527132%)" />
  <rect x="135" y="120" width="30" height="30" fill="hsl(240 100% 85.56579211742161%)" />
  <rect x="170" y="120" width="30" height="30" fill="hsl(240 100% 52.12630732842664%)" />
  <rect x="205" y="120" width="30" height="30" fill="hsl(240 100% 92.64942954705168%)" />
  <rect x="240" y="120" width="30" height="30" fill="hsl(240 100% 91.59227953700942%)" />
  <rect x="275" y="120" width="30" height="30" fill="hsl(240 100% 99.34217718256885%)" />
  <rect x="310" y="120" width="30" height="30" fill="hsl(240 100% 99.00088266663911%)" />
  <rect x="380" y="120" width="30" height="30" fill="hsl(240 100% 93.38394292159052%)" />
  <rect x="415" y="120" width="30" height="30" fill="hsl(240 100% 94.63856880354786%)" />
  <rect x="450" y="120" width="30" height="30" fill="hsl(240 100% 97.86617496523023%)" />
  <rect x="520" y="120" width="30" height="30" fill="hsl(240 100% 79.84344768968838%)" />
  <rect x="555" y="120" width="30" height="30" fill="hsl(240 100% 90.44911214164762%)" />
  <rect x="660" y="120" width="30" height="30" fill="rgb(255 255 255 / 50%)" />
  <rect x="835" y="120" width="30" height="30" fill="rgb(255 255 255 / 50%)" />
  <rect x="65" y="155" width="30" height="30" fill="hsl(240 100% 98.3236311449604%)" />
  <rect x="100" y="155" width="30" height="30" fill="hsl(240 100% 98.86692146235265%)" />
  <rect x="135" y="155" width="30" height="30" fill="hsl(240 100% 99.11114003675806%)" />
  <rect x="170" y="155" width="30" height="30" fill="hsl(240 100% 98.06692587042934%)" />
  <rect x="205" y="155" width="30" height="30" fill="hsl(240 100% 99.8480440317601%)" />
  <rect x="240" y="155" width="30" height="30" fill="hsl(240 100% 91.2317323053285%)" />
  <rect x="275" y="155" width="30" height="30" fill="hsl(240 100% 92.07085360724754%)" />
  <rect x="310" y="155" width="30" height="30" fill="rgb(255 255 255 / 50%)" />
  <rect x="415" y="155" width="30" height="30" fill="hsl(240 100% 93.03588708267937%)" />
  <rect x="485" y="155" width="30" height="30" fill="hsl(240 100% 50%)" />
  <rect x="520" y="155" width="30" height="30" fill="hsl(240 100% 80.97724656377687%)" />
  <rect x="590" y="155" width="30" height="30" fill="hsl(240 100% 99.58924968987017%)" />
  <rect x="625" y="155" width="30" height="30" fill="hsl(240 100% 66.74891251780741%)" />
  <rect x="695" y="155" width="30" height="30" fill="hsl(240 100% 95.4229637677035%)" />
  <rect x="730" y="155" width="30" height="30" fill="hsl(240 100% 83.7108735784014%)" />
  <rect x="765" y="155" width="30" height="30" fill="hsl(240 100% 99.5849891662548%)" />
  <rect x="835" y="155" width="30" height="30" fill="hsl(240 100% 96.27147442858292%)" />
  <rect x="65" y="190" width="30" height="30" fill="hsl(240 100% 50%)" />
  <rect x="100" y="190" width="30" height="30" fill="hsl(240 100% 50%)" />
  <rect x="135" y="190" width="30" height="30" fill="hsl(240 100% 50%)" />
  <rect x="170" y="190" width="30" height="30" fill="hsl(240 100% 50%)" />
  <rect x="205" y="190" width="30" height="30" fill="hsl(240 100% 50%)" />
  <rect x="240" y="190" width="30" height="30" fill="hsl(240 100% 50%)" />
  <rect x="275" y="190" width="30" height="30" fill="hsl(240 100% 50%)" />
  <rect x="310" y="190" width="30" height="30" fill="hsl(240 100% 50%)" />
  <rect x="345" y="190" width="30" height="30" fill="hsl(240 100% 50%)" />
  <rect x="380" y="190" width="30" height="30" fill="hsl(240 100% 50%)" />
  <rect x="415" y="190" width="30" height="30" fill="hsl(240 100% 50%)" />
  <rect x="450" y="190" width="30" height="30" fill="hsl(240 100% 50%)" />
  <rect x="485" y="190" width="30" height="30" fill="hsl(240 100% 50%)" />
  <rect x="520" y="190" width="30" height="30" fill="hsl(240 100% 50%)" />
  <rect x="555" y="190" width="30" height="30" fill="hsl(240 100% 50%)" />
  <rect x="590" y="190" width="30" height="30" fill="hsl(240 100% 50%)" />
  <rect x="625" y="190" width="30" height="30" fill="hsl(240 100% 50%)" />
  <rect x="660" y="190" width="30" height="30" fill="hsl(240 100% 50%)" />
  <rect x="695" y="190" width="30" height="30" fill="hsl(240 100% 50%)" />
  <rect x="730" y="190" width="30" height="30" fill="hsl(240 100% 50%)" />
  <rect x="765" y="190" width="30" height="30" fill="hsl(240 100% 50%)" />
  <rect x="800" y="190" width="30" height="30" fill="hsl(240 100% 50%)" />
  <rect x="835" y="190" width="30" height="30" fill="hsl(240 100% 50%)" />
  <rect x="100" y="225" width="30" height="30" fill="hsl(240 100% 96.31302561666494%)" />
  <rect x="135" y="225" width="30" height="30" fill="hsl(240 100% 86.41464309670866%)" />
  <rect x="170" y="225" width="30" height="30" fill="hsl(240 100% 87.98781962196352%)" />
  <rect x="240" y="225" width="30" height="30" fill="hsl(240 100% 90.25822205038669%)" />
  <rect x="310" y="225" width="30" height="30" fill="rgb(255 255 255 / 50%)" />
  <rect x="415" y="225" width="30" height="30" fill="hsl(240 100% 89.36245738092768%)" />
  <rect x="520" y="225" width="30" height="30" fill="hsl(240 100% 50%)" />
  <rect x="625" y="225" width="30" height="30" fill="rgb(255 255 255 / 50%)" />
  <rect x="730" y="225" width="30" height="30" fill="hsl(240 100% 92.42870783577511%)" />
  <rect x="765" y="225" width="30" height="30" fill="rgb(255 255 255 / 50%)" />
  <rect x="835" y="225" width="30" height="30" fill="hsl(240 100% 93.94832088268669%)" />
  <rect x="65" y="260" width="30" height="30" fill="hsl(240 100% 99.87645480619295%)" />
  <rect x="135" y="260" width="30" height="30" fill="hsl(240 100% 99.85740771087974%)" />
  <rect x="170" y="260" width="30" height="30" fill="hsl(240 100% 98.94960976096729%)" />
  <rect x="205" y="260" width="30" height="30" fill="rgb(255 255 255 / 50%)" />
  <rect x="240" y="260" width="30" height="30" fill="hsl(240 100% 87.08769772219445%)" />
  <rect x="310" y="260" width="30" height="30" fill="rgb(255 255 255 / 50%)" />
  <rect x="415" y="260" width="30" height="30" fill="hsl(240 100% 80.7311785860687%)" />
  <rect x="450" y="260" width="30" height="30" fill="rgb(255 255 255 / 50%)" />
  <rect x="485" y="260" width="30" height="30" fill="hsl(240 100% 50%)" />
  <rect x="520" y="260" width="30" height="30" fill="hsl(240 100% 72.41772469559369%)" />
  <rect x="625" y="260" width="30" height="30" fill="hsl(240 100% 96.94210873643685%)" />
  <rect x="695" y="260" width="30" height="30" fill="hsl(240 100% 94.10878989873439%)" />
  <rect x="65" y="295" width="30" height="30" fill="hsl(240 100% 86.31752927948833%)" />
  <rect x="100" y="295" width="30" height="30" fill="hsl(240 100% 97.51954688597392%)" />
  <rect x="135" y="295" width="30" height="30" fill="hsl(240 100% 95.04166758997242%)" />
  <rect x="170" y="295" width="30" height="30" fill="hsl(240 100% 89.37802226584408%)" />
  <rect x="205" y="295" width="30" height="30" fill="hsl(240 100% 99.48514057315349%)" />
  <rect x="240" y="295" width="30" height="30" fill="hsl(240 100% 50.80157761489925%)" />
  <rect x="275" y="295" width="30" height="30" fill="hsl(240 100% 50%)" />
  <rect x="310" y="295" width="30" height="30" fill="hsl(240 100% 99.49987817354518%)" />
  <rect x="345" y="295" width="30" height="30" fill="hsl(240 100% 94.84021493123636%)" />
  <rect x="415" y="295" width="30" height="30" fill="hsl(240 100% 55.308917649884%)" />
  <rect x="450" y="295" width="30" height="30" fill="hsl(240 100% 99.3512894088472%)" />
  <rect x="485" y="295" width="30" height="30" fill="hsl(240 100% 88.73265434151324%)" />
  <rect x="520" y="295" width="30" height="30" fill="hsl(240 100% 57.92712108033659%)" />
  <rect x="695" y="295" width="30" height="30" fill="hsl(240 100% 97.61078166750023%)" />
  <rect x="800" y="295" width="30" height="30" fill="hsl(240 100% 99.56761993727812%)" />
  <rect x="835" y="295" width="30" height="30" fill="hsl(240 100% 99.95417486386638%)" />
  <rect x="65" y="330" width="30" height="30" fill="hsl(240 100% 86.57920780876447%)" />
  <rect x="100" y="330" width="30" height="30" fill="hsl(240 100% 93.83847259417621%)" />
  <rect x="135" y="330" width="30" height="30" fill="hsl(240 100% 96.74356760909748%)" />
  <rect x="170" y="330" width="30" height="30" fill="hsl(240 100% 85.91270438112323%)" />
  <rect x="205" y="330" width="30" height="30" fill="hsl(240 100% 99.11686710233435%)" />
  <rect x="240" y="330" width="30" height="30" fill="hsl(240 100% 78.03435660008746%)" />
  <rect x="275" y="330" width="30" height="30" fill="hsl(240 100% 86.2525200194477%)" />
  <rect x="310" y="330" width="30" height="30" fill="rgb(255 255 255 / 50%)" />
  <rect x="345" y="330" width="30" height="30" fill="hsl(240 100% 96.97518312325113%)" />
  <rect x="415" y="330" width="30" height="30" fill="hsl(240 100% 84.47417209994472%)" />
  <rect x="450" y="330" width="30" height="30" fill="hsl(240 100% 99.80691710864008%)" />
  <rect x="485" y="330" width="30" height="30" fill="hsl(240 100% 68.74646714208171%)" />
  <rect x="520" y="330" width="30" height="30" fill="hsl(240 100% 68.07922623669063%)" />
  <rect x="590" y="330" width="30" height="30" fill="hsl(240 100% 93.25090779309207%)" />
  <rect x="625" y="330" width="30" height="30" fill="hsl(240 100% 50%)" />
  <rect x="765" y="330" width="30" height="30" fill="hsl(240 100% 94.46724902028387%)" />
  <rect x="800" y="330" width="30" height="30" fill="hsl(240 100% 99.16306159360748%)" />
  <rect x="835" y="330" width="30" height="30" fill="hsl(240 100% 79.47235447090732%)" />
  <rect x="65" y="365" width="30" height="30" fill="hsl(240 100% 57.782072894260374%)" />
  <rect x="100" y="365" width="30" height="30" fill="hsl(240 100% 71.35374949853016%)" />
  <rect x="135" y="365" width="30" height="30" fill="hsl(240 100% 82.1441270917214%)" />
  <rect x="170" y="365" width="30" height="30" fill="hsl(240 100% 50%)" />
  <rect x="205" y="365" width="30" height="30" fill="hsl(240 100% 96.05999769923827%)" />
  <rect x="240" y="365" width="30" height="30" fill="hsl(240 100% 59.082553136960286%)" />
  <rect x="275" y="365" width="30" height="30" fill="hsl(240 100% 92.15733539541667%)" />
  <rect x="310" y="365" width="30" height="30" fill="hsl(240 100% 99.86189620906475%)" />
  <rect x="415" y="365" width="30" height="30" fill="hsl(240 100% 67.12356561620778%)" />
  <rect x="520" y="365" width="30" height="30" fill="hsl(240 100% 86.1230907540782%)" />
  <rect x="625" y="365" width="30" height="30" fill="hsl(240 100% 99.63681613384414%)" />
  <rect x="730" y="365" width="30" height="30" fill="hsl(240 100% 63.78978718412364%)" />
  <rect x="765" y="365" width="30" height="30" fill="hsl(240 100% 98.11379550892467%)" />
  <rect x="835" y="365" width="30" height="30" fill="hsl(240 100% 98.77335111559525%)" />
  <rect x="65" y="400" width="30" height="30" fill="hsl(240 100% 98.1146804434968%)" />
  <rect x="100" y="400" width="30" height="30" fill="hsl(240 100% 99.40771231585026%)" />
  <rect x="135" y="400" width="30" height="30" fill="hsl(240 100% 99.66805293988453%)" />
  <rect x="170" y="400" width="30" height="30" fill="hsl(240 100% 94.12437188694206%)" />
  <rect x="205" y="400" width="30" height="30" fill="hsl(240 100% 99.22995891769357%)" />
  <rect x="240" y="400" width="30" height="30" fill="hsl(240 100% 86.28098040992529%)" />
  <rect x="275" y="400" width="30" height="30" fill="hsl(240 100% 95.3274272904635%)" />
  <rect x="310" y="400" width="30" height="30" fill="rgb(255 255 255 / 50%)" />
  <rect x="380" y="400" width="30" height="30" fill="rgb(255 255 255 / 50%)" />
  <rect x="415" y="400" width="30" height="30" fill="hsl(240 100% 93.9428532299765%)" />
  <rect x="450" y="400" width="30" height="30" fill="hsl(240 100% 99.97125993546094%)" />
  <rect x="485" y="400" width="30" height="30" fill="hsl(240 100% 78.21548283613305%)" />
  <rect x="520" y="400" width="30" height="30" fill="hsl(240 100% 50%)" />
  <rect x="555" y="400" width="30" height="30" fill="hsl(240 100% 99.10830304540747%)" />
  <rect x="660" y="400" width="30" height="30" fill="rgb(255 255 255 / 50%)" />
  <rect x="835" y="400" width="30" height="30" fill="hsl(240 100% 99.1476993523962%)" />
  <rect x="65" y="435" width="30" height="30" fill="hsl(240 100% 93.27128645370253%)" />
  <rect x="240" y="435" width="30" height="30" fill="hsl(240 100% 50%)" />
  <rect x="310" y="435" width="30" height="30" fill="hsl(240 100% 93.84015412099025%)" />
  <rect x="415" y="435" width="30" height="30" fill="hsl(240 100% 86.96568194692887%)" />
  <rect x="450" y="435" width="30" height="30" fill="hsl(240 100% 99.77850457688469%)" />
  <rect x="65" y="470" width="30" height="30" fill="hsl(240 100% 50.0037184905598%)" />
  <rect x="240" y="470" width="30" height="30" fill="hsl(240 100% 50%)" />
  <rect x="310" y="470" width="30" height="30" fill="hsl(240 100% 96.9694570358904%)" />
  <rect x="415" y="470" width="30" height="30" fill="hsl(240 100% 89.05792095336959%)" />
  <rect x="450" y="470" width="30" height="30" fill="hsl(240 100% 99.58222821314801%)" />
</svg>
