<svg xmlns="http://www.w3.org/2000/svg" viewBox="0 0 660 365">
  <rect x="0" y="0" width="660" height="365" rx="5" ry="5" fill="#222" />
  <text x="60" y="100" fill="white" font-family="sans-serif" font-weight="bold" font-size="12" text-anchor="end" dominant-baseline="middle">ba</text>
  <text x="60" y="135" fill="white" font-family="sans-serif" font-weight="bold" font-size="12" text-anchor="end" dominant-baseline="middle">gmm</text>
  <text x="60" y="170" fill="white" font-family="sans-serif" font-weight="bold" font-size="12" text-anchor="end" dominant-baseline="middle">hello</text>
  <text x="60" y="205" fill="white" font-family="sans-serif" font-weight="bold" font-size="12" text-anchor="end" dominant-baseline="middle">ht</text>
  <text x="60" y="240" fill="white" font-family="sans-serif" font-weight="bold" font-size="12" text-anchor="end" dominant-baseline="middle">kmeans</text>
  <text x="60" y="275" fill="white" font-family="sans-serif" font-weight="bold" font-size="12" text-anchor="end" dominant-baseline="middle">lstm</text>
  <text x="60" y="310" fill="white" font-family="sans-serif" font-weight="bold" font-size="12" text-anchor="end" dominant-baseline="middle">particle</text>
  <text x="60" y="345" fill="white" font-family="sans-serif" font-weight="bold" font-size="12" text-anchor="end" dominant-baseline="middle">saddle</text>
  <text x="80" y="80" fill="white" font-family="sans-serif" font-weight="bold" font-size="12" text-anchor="end" dominant-baseline="middle" transform="rotate(90 80 80)">adept</text>
  <text x="115" y="80" fill="white" font-family="sans-serif" font-weight="bold" font-size="12" text-anchor="end" dominant-baseline="middle" transform="rotate(90 115 80)">adol-c</text>
  <text x="150" y="80" fill="white" font-family="sans-serif" font-weight="bold" font-size="12" text-anchor="end" dominant-baseline="middle" transform="rotate(90 150 80)">codipack</text>
  <text x="185" y="80" fill="white" font-family="sans-serif" font-weight="bold" font-size="12" text-anchor="end" dominant-baseline="middle" transform="rotate(90 185 80)">cppad</text>
  <text x="220" y="80" fill="white" font-family="sans-serif" font-weight="bold" font-size="12" text-anchor="end" dominant-baseline="middle" transform="rotate(90 220 80)">enzyme</text>
  <text x="255" y="80" fill="white" font-family="sans-serif" font-weight="bold" font-size="12" text-anchor="end" dominant-baseline="middle" transform="rotate(90 255 80)">finite</text>
  <text x="290" y="80" fill="white" font-family="sans-serif" font-weight="bold" font-size="12" text-anchor="end" dominant-baseline="middle" transform="rotate(90 290 80)">floretta</text>
  <text x="325" y="80" fill="white" font-family="sans-serif" font-weight="bold" font-size="12" text-anchor="end" dominant-baseline="middle" transform="rotate(90 325 80)">futhark</text>
  <text x="360" y="80" fill="white" font-family="sans-serif" font-weight="bold" font-size="12" text-anchor="end" dominant-baseline="middle" transform="rotate(90 360 80)">haskell</text>
  <text x="395" y="80" fill="white" font-family="sans-serif" font-weight="bold" font-size="12" text-anchor="end" dominant-baseline="middle" transform="rotate(90 395 80)">jax</text>
  <text x="430" y="80" fill="white" font-family="sans-serif" font-weight="bold" font-size="12" text-anchor="end" dominant-baseline="middle" transform="rotate(90 430 80)">manual</text>
  <text x="465" y="80" fill="white" font-family="sans-serif" font-weight="bold" font-size="12" text-anchor="end" dominant-baseline="middle" transform="rotate(90 465 80)">ocaml</text>
  <text x="500" y="80" fill="white" font-family="sans-serif" font-weight="bold" font-size="12" text-anchor="end" dominant-baseline="middle" transform="rotate(90 500 80)">pytorch</text>
  <text x="535" y="80" fill="white" font-family="sans-serif" font-weight="bold" font-size="12" text-anchor="end" dominant-baseline="middle" transform="rotate(90 535 80)">scilean</text>
  <text x="570" y="80" fill="white" font-family="sans-serif" font-weight="bold" font-size="12" text-anchor="end" dominant-baseline="middle" transform="rotate(90 570 80)">tapenade</text>
  <text x="605" y="80" fill="white" font-family="sans-serif" font-weight="bold" font-size="12" text-anchor="end" dominant-baseline="middle" transform="rotate(90 605 80)">tensorflow</text>
  <text x="640" y="80" fill="white" font-family="sans-serif" font-weight="bold" font-size="12" text-anchor="end" dominant-baseline="middle" transform="rotate(90 640 80)">zygote</text>
  <rect x="65" y="85" width="30" height="30" fill="hsl(240 100% 83.75598595257568%)" />
  <rect x="100" y="85" width="30" height="30" fill="hsl(240 100% 97.83718379079781%)" />
  <rect x="135" y="85" width="30" height="30" fill="hsl(240 100% 89.43429951288988%)" />
  <rect x="205" y="85" width="30" height="30" fill="hsl(240 100% 51.31793168821136%)" />
  <rect x="240" y="85" width="30" height="30" fill="hsl(240 100% 92.71630273935155%)" />
  <rect x="310" y="85" width="30" height="30" fill="hsl(240 100% 66.47711035518167%)" />
  <rect x="415" y="85" width="30" height="30" fill="hsl(240 100% 50%)" />
  <rect x="485" y="85" width="30" height="30" fill="rgb(255 255 255 / 50%)" />
  <rect x="555" y="85" width="30" height="30" fill="hsl(240 100% 72.8906125902726%)" />
  <rect x="590" y="85" width="30" height="30" fill="rgb(255 255 255 / 50%)" />
  <rect x="65" y="120" width="30" height="30" fill="hsl(240 100% 98.33234627459903%)" />
  <rect x="100" y="120" width="30" height="30" fill="hsl(240 100% 98.96834597389004%)" />
  <rect x="135" y="120" width="30" height="30" fill="hsl(240 100% 97.25323007084025%)" />
  <rect x="170" y="120" width="30" height="30" fill="rgb(255 255 255 / 50%)" />
  <rect x="205" y="120" width="30" height="30" fill="hsl(240 100% 87.22365388218998%)" />
  <rect x="240" y="120" width="30" height="30" fill="rgb(255 255 255 / 50%)" />
  <rect x="310" y="120" width="30" height="30" fill="hsl(240 100% 90.20355176784722%)" />
  <rect x="380" y="120" width="30" height="30" fill="hsl(240 100% 71.85272128425822%)" />
  <rect x="415" y="120" width="30" height="30" fill="hsl(240 100% 76.20786846564846%)" />
  <rect x="450" y="120" width="30" height="30" fill="hsl(240 100% 99.39149333018227%)" />
  <rect x="485" y="120" width="30" height="30" fill="hsl(240 100% 50%)" />
  <rect x="520" y="120" width="30" height="30" fill="hsl(240 100% 93.37266864058952%)" />
  <rect x="555" y="120" width="30" height="30" fill="hsl(240 100% 77.09648208204892%)" />
  <rect x="590" y="120" width="30" height="30" fill="hsl(240 100% 89.41150329692994%)" />
  <rect x="65" y="155" width="30" height="30" fill="hsl(240 100% 50%)" />
  <rect x="100" y="155" width="30" height="30" fill="hsl(240 100% 50%)" />
  <rect x="135" y="155" width="30" height="30" fill="hsl(240 100% 50%)" />
  <rect x="170" y="155" width="30" height="30" fill="hsl(240 100% 50%)" />
  <rect x="205" y="155" width="30" height="30" fill="hsl(240 100% 50%)" />
  <rect x="240" y="155" width="30" height="30" fill="hsl(240 100% 50%)" />
  <rect x="275" y="155" width="30" height="30" fill="hsl(240 100% 50%)" />
  <rect x="310" y="155" width="30" height="30" fill="hsl(240 100% 50%)" />
  <rect x="345" y="155" width="30" height="30" fill="hsl(240 100% 50%)" />
  <rect x="380" y="155" width="30" height="30" fill="hsl(240 100% 50%)" />
  <rect x="415" y="155" width="30" height="30" fill="hsl(240 100% 50%)" />
  <rect x="450" y="155" width="30" height="30" fill="hsl(240 100% 50%)" />
  <rect x="485" y="155" width="30" height="30" fill="hsl(240 100% 50%)" />
  <rect x="520" y="155" width="30" height="30" fill="hsl(240 100% 50%)" />
  <rect x="555" y="155" width="30" height="30" fill="hsl(240 100% 50%)" />
  <rect x="590" y="155" width="30" height="30" fill="hsl(240 100% 50%)" />
  <rect x="625" y="155" width="30" height="30" fill="hsl(240 100% 50%)" />
  <rect x="65" y="190" width="30" height="30" fill="hsl(240 100% 96.00384693590505%)" />
  <rect x="100" y="190" width="30" height="30" fill="hsl(240 100% 96.24769816764102%)" />
  <rect x="135" y="190" width="30" height="30" fill="hsl(240 100% 88.1907831225385%)" />
  <rect x="205" y="190" width="30" height="30" fill="hsl(240 100% 90.0856202655801%)" />
  <rect x="240" y="190" width="30" height="30" fill="rgb(255 255 255 / 50%)" />
  <rect x="310" y="190" width="30" height="30" fill="hsl(240 100% 89.36430528412669%)" />
  <rect x="415" y="190" width="30" height="30" fill="hsl(240 100% 50%)" />
  <rect x="485" y="190" width="30" height="30" fill="rgb(255 255 255 / 50%)" />
  <rect x="555" y="190" width="30" height="30" fill="rgb(255 255 255 / 50%)" />
  <rect x="590" y="190" width="30" height="30" fill="rgb(255 255 255 / 50%)" />
  <rect x="100" y="225" width="30" height="30" fill="hsl(240 100% 99.88096626637733%)" />
  <rect x="135" y="225" width="30" height="30" fill="hsl(240 100% 99.41336207474707%)" />
  <rect x="170" y="225" width="30" height="30" fill="rgb(255 255 255 / 50%)" />
  <rect x="205" y="225" width="30" height="30" fill="hsl(240 100% 87.88592109659622%)" />
  <rect x="240" y="225" width="30" height="30" fill="rgb(255 255 255 / 50%)" />
  <rect x="310" y="225" width="30" height="30" fill="hsl(240 100% 82.88602036466627%)" />
  <rect x="345" y="225" width="30" height="30" fill="rgb(255 255 255 / 50%)" />
  <rect x="380" y="225" width="30" height="30" fill="hsl(240 100% 50%)" />
  <rect x="415" y="225" width="30" height="30" fill="hsl(240 100% 76.46869300926843%)" />
  <rect x="485" y="225" width="30" height="30" fill="hsl(240 100% 96.96058177274723%)" />
  <rect x="520" y="225" width="30" height="30" fill="hsl(240 100% 94.17350011221949%)" />
  <rect x="65" y="260" width="30" height="30" fill="hsl(240 100% 68.7511497552685%)" />
  <rect x="100" y="260" width="30" height="30" fill="hsl(240 100% 80.45775719906158%)" />
  <rect x="135" y="260" width="30" height="30" fill="hsl(240 100% 50%)" />
  <rect x="170" y="260" width="30" height="30" fill="hsl(240 100% 89.67266493291454%)" />
  <rect x="205" y="260" width="30" height="30" fill="hsl(240 100% 50.727133155352796%)" />
  <rect x="240" y="260" width="30" height="30" fill="hsl(240 100% 99.85089138496163%)" />
  <rect x="310" y="260" width="30" height="30" fill="hsl(240 100% 62.88378465026062%)" />
  <rect x="415" y="260" width="30" height="30" fill="hsl(240 100% 84.51962934622703%)" />
  <rect x="485" y="260" width="30" height="30" fill="hsl(240 100% 99.59743048750133%)" />
  <rect x="520" y="260" width="30" height="30" fill="hsl(240 100% 89.76003557479716%)" />
  <rect x="555" y="260" width="30" height="30" fill="hsl(240 100% 59.9965067977635%)" />
  <rect x="590" y="260" width="30" height="30" fill="hsl(240 100% 97.95489228279179%)" />
  <rect x="205" y="295" width="30" height="30" fill="hsl(240 100% 50%)" />
  <rect x="240" y="295" width="30" height="30" fill="hsl(240 100% 50%)" />
  <rect x="310" y="295" width="30" height="30" fill="hsl(240 100% 50%)" />
  <rect x="345" y="295" width="30" height="30" fill="hsl(240 100% 50%)" />
  <rect x="205" y="330" width="30" height="30" fill="hsl(240 100% 50%)" />
  <rect x="240" y="330" width="30" height="30" fill="hsl(240 100% 50%)" />
  <rect x="310" y="330" width="30" height="30" fill="hsl(240 100% 50%)" />
  <rect x="345" y="330" width="30" height="30" fill="hsl(240 100% 50%)" />
</svg>
