<svg xmlns="http://www.w3.org/2000/svg" viewBox="0 0 870 505">
  <rect x="0" y="0" width="870" height="505" rx="5" ry="5" fill="#222" />
  <text x="60" y="100" fill="white" font-family="sans-serif" font-weight="bold" font-size="12" text-anchor="end" dominant-baseline="middle">ba</text>
  <text x="60" y="135" fill="white" font-family="sans-serif" font-weight="bold" font-size="12" text-anchor="end" dominant-baseline="middle">det</text>
  <text x="60" y="170" fill="white" font-family="sans-serif" font-weight="bold" font-size="12" text-anchor="end" dominant-baseline="middle">gmm</text>
  <text x="60" y="205" fill="white" font-family="sans-serif" font-weight="bold" font-size="12" text-anchor="end" dominant-baseline="middle">hello</text>
  <text x="60" y="240" fill="white" font-family="sans-serif" font-weight="bold" font-size="12" text-anchor="end" dominant-baseline="middle">ht</text>
  <text x="60" y="275" fill="white" font-family="sans-serif" font-weight="bold" font-size="12" text-anchor="end" dominant-baseline="middle">kmeans</text>
  <text x="60" y="310" fill="white" font-family="sans-serif" font-weight="bold" font-size="12" text-anchor="end" dominant-baseline="middle">llsq</text>
  <text x="60" y="345" fill="white" font-family="sans-serif" font-weight="bold" font-size="12" text-anchor="end" dominant-baseline="middle">lse</text>
  <text x="60" y="380" fill="white" font-family="sans-serif" font-weight="bold" font-size="12" text-anchor="end" dominant-baseline="middle">lstm</text>
  <text x="60" y="415" fill="white" font-family="sans-serif" font-weight="bold" font-size="12" text-anchor="end" dominant-baseline="middle">ode</text>
  <text x="60" y="450" fill="white" font-family="sans-serif" font-weight="bold" font-size="12" text-anchor="end" dominant-baseline="middle">particle</text>
  <text x="60" y="485" fill="white" font-family="sans-serif" font-weight="bold" font-size="12" text-anchor="end" dominant-baseline="middle">saddle</text>
  <text x="80" y="80" fill="white" font-family="sans-serif" font-weight="bold" font-size="12" text-anchor="end" dominant-baseline="middle" transform="rotate(90 80 80)">ad-hpp</text>
  <text x="115" y="80" fill="white" font-family="sans-serif" font-weight="bold" font-size="12" text-anchor="end" dominant-baseline="middle" transform="rotate(90 115 80)">adept</text>
  <text x="150" y="80" fill="white" font-family="sans-serif" font-weight="bold" font-size="12" text-anchor="end" dominant-baseline="middle" transform="rotate(90 150 80)">adol-c</text>
  <text x="185" y="80" fill="white" font-family="sans-serif" font-weight="bold" font-size="12" text-anchor="end" dominant-baseline="middle" transform="rotate(90 185 80)">codipack</text>
  <text x="220" y="80" fill="white" font-family="sans-serif" font-weight="bold" font-size="12" text-anchor="end" dominant-baseline="middle" transform="rotate(90 220 80)">cppad</text>
  <text x="255" y="80" fill="white" font-family="sans-serif" font-weight="bold" font-size="12" text-anchor="end" dominant-baseline="middle" transform="rotate(90 255 80)">enzyme</text>
  <text x="290" y="80" fill="white" font-family="sans-serif" font-weight="bold" font-size="12" text-anchor="end" dominant-baseline="middle" transform="rotate(90 290 80)">enzyme-jl</text>
  <text x="325" y="80" fill="white" font-family="sans-serif" font-weight="bold" font-size="12" text-anchor="end" dominant-baseline="middle" transform="rotate(90 325 80)">finite</text>
  <text x="360" y="80" fill="white" font-family="sans-serif" font-weight="bold" font-size="12" text-anchor="end" dominant-baseline="middle" transform="rotate(90 360 80)">floretta</text>
  <text x="395" y="80" fill="white" font-family="sans-serif" font-weight="bold" font-size="12" text-anchor="end" dominant-baseline="middle" transform="rotate(90 395 80)">forwarddiff-jl</text>
  <text x="430" y="80" fill="white" font-family="sans-serif" font-weight="bold" font-size="12" text-anchor="end" dominant-baseline="middle" transform="rotate(90 430 80)">futhark</text>
  <text x="465" y="80" fill="white" font-family="sans-serif" font-weight="bold" font-size="12" text-anchor="end" dominant-baseline="middle" transform="rotate(90 465 80)">haskell</text>
  <text x="500" y="80" fill="white" font-family="sans-serif" font-weight="bold" font-size="12" text-anchor="end" dominant-baseline="middle" transform="rotate(90 500 80)">jax</text>
  <text x="535" y="80" fill="white" font-family="sans-serif" font-weight="bold" font-size="12" text-anchor="end" dominant-baseline="middle" transform="rotate(90 535 80)">manual</text>
  <text x="570" y="80" fill="white" font-family="sans-serif" font-weight="bold" font-size="12" text-anchor="end" dominant-baseline="middle" transform="rotate(90 570 80)">mooncake-jl</text>
  <text x="605" y="80" fill="white" font-family="sans-serif" font-weight="bold" font-size="12" text-anchor="end" dominant-baseline="middle" transform="rotate(90 605 80)">ocaml</text>
  <text x="640" y="80" fill="white" font-family="sans-serif" font-weight="bold" font-size="12" text-anchor="end" dominant-baseline="middle" transform="rotate(90 640 80)">pytorch</text>
  <text x="675" y="80" fill="white" font-family="sans-serif" font-weight="bold" font-size="12" text-anchor="end" dominant-baseline="middle" transform="rotate(90 675 80)">reversediff-jl</text>
  <text x="710" y="80" fill="white" font-family="sans-serif" font-weight="bold" font-size="12" text-anchor="end" dominant-baseline="middle" transform="rotate(90 710 80)">scilean</text>
  <text x="745" y="80" fill="white" font-family="sans-serif" font-weight="bold" font-size="12" text-anchor="end" dominant-baseline="middle" transform="rotate(90 745 80)">tapenade</text>
  <text x="780" y="80" fill="white" font-family="sans-serif" font-weight="bold" font-size="12" text-anchor="end" dominant-baseline="middle" transform="rotate(90 780 80)">tensorflow</text>
  <text x="815" y="80" fill="white" font-family="sans-serif" font-weight="bold" font-size="12" text-anchor="end" dominant-baseline="middle" transform="rotate(90 815 80)">tensorflow-js</text>
  <text x="850" y="80" fill="white" font-family="sans-serif" font-weight="bold" font-size="12" text-anchor="end" dominant-baseline="middle" transform="rotate(90 850 80)">zygote</text>
  <rect x="65" y="85" width="30" height="30" fill="hsl(240 100% 80.64957429841338%)" />
  <rect x="100" y="85" width="30" height="30" fill="hsl(240 100% 82.47955458240263%)" />
  <rect x="135" y="85" width="30" height="30" fill="hsl(240 100% 97.9114167652234%)" />
  <rect x="170" y="85" width="30" height="30" fill="hsl(240 100% 81.6563823775418%)" />
  <rect x="205" y="85" width="30" height="30" fill="hsl(240 100% 98.80862302085777%)" />
  <rect x="240" y="85" width="30" height="30" fill="hsl(240 100% 50%)" />
  <rect x="310" y="85" width="30" height="30" fill="hsl(240 100% 92.87867834404234%)" />
  <rect x="415" y="85" width="30" height="30" fill="hsl(240 100% 66.98700909295553%)" />
  <rect x="520" y="85" width="30" height="30" fill="hsl(240 100% 54.02571837079228%)" />
  <rect x="625" y="85" width="30" height="30" fill="rgb(255 255 255 / 50%)" />
  <rect x="730" y="85" width="30" height="30" fill="hsl(240 100% 74.07177727764969%)" />
  <rect x="765" y="85" width="30" height="30" fill="rgb(255 255 255 / 50%)" />
  <rect x="835" y="85" width="30" height="30" fill="hsl(240 100% 99.72953071726067%)" />
  <rect x="65" y="120" width="30" height="30" fill="hsl(240 100% 50%)" />
  <rect x="100" y="120" width="30" height="30" fill="hsl(240 100% 84.5297335986453%)" />
  <rect x="135" y="120" width="30" height="30" fill="hsl(240 100% 85.14183454620937%)" />
  <rect x="170" y="120" width="30" height="30" fill="hsl(240 100% 51.5891324437763%)" />
  <rect x="205" y="120" width="30" height="30" fill="hsl(240 100% 92.54279129975997%)" />
  <rect x="240" y="120" width="30" height="30" fill="hsl(240 100% 91.4919804146944%)" />
  <rect x="275" y="120" width="30" height="30" fill="hsl(240 100% 99.35877949804399%)" />
  <rect x="310" y="120" width="30" height="30" fill="hsl(240 100% 98.97918562774062%)" />
  <rect x="380" y="120" width="30" height="30" fill="hsl(240 100% 93.48285139252644%)" />
  <rect x="415" y="120" width="30" height="30" fill="hsl(240 100% 94.53082145999144%)" />
  <rect x="450" y="120" width="30" height="30" fill="hsl(240 100% 97.86159477841068%)" />
  <rect x="520" y="120" width="30" height="30" fill="hsl(240 100% 79.2731847596552%)" />
  <rect x="555" y="120" width="30" height="30" fill="hsl(240 100% 89.96605471637848%)" />
  <rect x="660" y="120" width="30" height="30" fill="rgb(255 255 255 / 50%)" />
  <rect x="835" y="120" width="30" height="30" fill="rgb(255 255 255 / 50%)" />
  <rect x="65" y="155" width="30" height="30" fill="hsl(240 100% 98.1053943432252%)" />
  <rect x="100" y="155" width="30" height="30" fill="hsl(240 100% 98.85643681425537%)" />
  <rect x="135" y="155" width="30" height="30" fill="hsl(240 100% 99.19778132855299%)" />
  <rect x="170" y="155" width="30" height="30" fill="hsl(240 100% 98.04426057179576%)" />
  <rect x="205" y="155" width="30" height="30" fill="hsl(240 100% 99.84229270073851%)" />
  <rect x="240" y="155" width="30" height="30" fill="hsl(240 100% 90.81102869973947%)" />
  <rect x="275" y="155" width="30" height="30" fill="hsl(240 100% 92.77593916795612%)" />
  <rect x="310" y="155" width="30" height="30" fill="rgb(255 255 255 / 50%)" />
  <rect x="415" y="155" width="30" height="30" fill="hsl(240 100% 92.62507874936794%)" />
  <rect x="485" y="155" width="30" height="30" fill="hsl(240 100% 50%)" />
  <rect x="520" y="155" width="30" height="30" fill="hsl(240 100% 80.53050895459883%)" />
  <rect x="590" y="155" width="30" height="30" fill="hsl(240 100% 99.55988844523014%)" />
  <rect x="625" y="155" width="30" height="30" fill="hsl(240 100% 66.94731213705671%)" />
  <rect x="695" y="155" width="30" height="30" fill="hsl(240 100% 95.20061970442444%)" />
  <rect x="730" y="155" width="30" height="30" fill="hsl(240 100% 91.04497873530086%)" />
  <rect x="765" y="155" width="30" height="30" fill="hsl(240 100% 99.56844469986774%)" />
  <rect x="835" y="155" width="30" height="30" fill="hsl(240 100% 97.82497734466904%)" />
  <rect x="65" y="190" width="30" height="30" fill="hsl(240 100% 50%)" />
  <rect x="100" y="190" width="30" height="30" fill="hsl(240 100% 50%)" />
  <rect x="135" y="190" width="30" height="30" fill="hsl(240 100% 50%)" />
  <rect x="170" y="190" width="30" height="30" fill="hsl(240 100% 50%)" />
  <rect x="205" y="190" width="30" height="30" fill="hsl(240 100% 50%)" />
  <rect x="240" y="190" width="30" height="30" fill="hsl(240 100% 50%)" />
  <rect x="275" y="190" width="30" height="30" fill="hsl(240 100% 50%)" />
  <rect x="310" y="190" width="30" height="30" fill="hsl(240 100% 50%)" />
  <rect x="345" y="190" width="30" height="30" fill="hsl(240 100% 50%)" />
  <rect x="380" y="190" width="30" height="30" fill="hsl(240 100% 50%)" />
  <rect x="415" y="190" width="30" height="30" fill="hsl(240 100% 50%)" />
  <rect x="450" y="190" width="30" height="30" fill="hsl(240 100% 50%)" />
  <rect x="485" y="190" width="30" height="30" fill="hsl(240 100% 50%)" />
  <rect x="520" y="190" width="30" height="30" fill="hsl(240 100% 50%)" />
  <rect x="555" y="190" width="30" height="30" fill="hsl(240 100% 50%)" />
  <rect x="590" y="190" width="30" height="30" fill="hsl(240 100% 50%)" />
  <rect x="625" y="190" width="30" height="30" fill="hsl(240 100% 50%)" />
  <rect x="660" y="190" width="30" height="30" fill="hsl(240 100% 50%)" />
  <rect x="695" y="190" width="30" height="30" fill="hsl(240 100% 50%)" />
  <rect x="730" y="190" width="30" height="30" fill="hsl(240 100% 50%)" />
  <rect x="765" y="190" width="30" height="30" fill="hsl(240 100% 50%)" />
  <rect x="800" y="190" width="30" height="30" fill="hsl(240 100% 50%)" />
  <rect x="835" y="190" width="30" height="30" fill="hsl(240 100% 50%)" />
  <rect x="100" y="225" width="30" height="30" fill="hsl(240 100% 96.30458415135969%)" />
  <rect x="135" y="225" width="30" height="30" fill="hsl(240 100% 86.23312004653789%)" />
  <rect x="170" y="225" width="30" height="30" fill="hsl(240 100% 87.93961692380559%)" />
  <rect x="240" y="225" width="30" height="30" fill="hsl(240 100% 90.21228218048303%)" />
  <rect x="310" y="225" width="30" height="30" fill="rgb(255 255 255 / 50%)" />
  <rect x="415" y="225" width="30" height="30" fill="hsl(240 100% 90.18847622587154%)" />
  <rect x="520" y="225" width="30" height="30" fill="hsl(240 100% 50%)" />
  <rect x="625" y="225" width="30" height="30" fill="rgb(255 255 255 / 50%)" />
  <rect x="730" y="225" width="30" height="30" fill="hsl(240 100% 92.49507325569594%)" />
  <rect x="765" y="225" width="30" height="30" fill="rgb(255 255 255 / 50%)" />
  <rect x="835" y="225" width="30" height="30" fill="hsl(240 100% 93.86540626432758%)" />
  <rect x="65" y="260" width="30" height="30" fill="hsl(240 100% 99.82636866417745%)" />
  <rect x="135" y="260" width="30" height="30" fill="hsl(240 100% 99.85134659343535%)" />
  <rect x="170" y="260" width="30" height="30" fill="hsl(240 100% 98.60141376935935%)" />
  <rect x="205" y="260" width="30" height="30" fill="rgb(255 255 255 / 50%)" />
  <rect x="240" y="260" width="30" height="30" fill="hsl(240 100% 82.22076367707811%)" />
  <rect x="310" y="260" width="30" height="30" fill="rgb(255 255 255 / 50%)" />
  <rect x="415" y="260" width="30" height="30" fill="hsl(240 100% 73.75157915534801%)" />
  <rect x="450" y="260" width="30" height="30" fill="rgb(255 255 255 / 50%)" />
  <rect x="485" y="260" width="30" height="30" fill="hsl(240 100% 50%)" />
  <rect x="520" y="260" width="30" height="30" fill="hsl(240 100% 61.84530260108433%)" />
  <rect x="625" y="260" width="30" height="30" fill="hsl(240 100% 96.03367949442014%)" />
  <rect x="695" y="260" width="30" height="30" fill="hsl(240 100% 91.8666645866163%)" />
  <rect x="65" y="295" width="30" height="30" fill="hsl(240 100% 86.18822597647673%)" />
  <rect x="100" y="295" width="30" height="30" fill="hsl(240 100% 97.5063806405832%)" />
  <rect x="135" y="295" width="30" height="30" fill="hsl(240 100% 95.12747472967807%)" />
  <rect x="170" y="295" width="30" height="30" fill="hsl(240 100% 89.48590978396763%)" />
  <rect x="205" y="295" width="30" height="30" fill="hsl(240 100% 99.48689926897413%)" />
  <rect x="240" y="295" width="30" height="30" fill="hsl(240 100% 50.69954519198158%)" />
  <rect x="275" y="295" width="30" height="30" fill="hsl(240 100% 50%)" />
  <rect x="310" y="295" width="30" height="30" fill="hsl(240 100% 99.50086733445208%)" />
  <rect x="345" y="295" width="30" height="30" fill="hsl(240 100% 94.7386218321737%)" />
  <rect x="415" y="295" width="30" height="30" fill="hsl(240 100% 55.39492556241237%)" />
  <rect x="450" y="295" width="30" height="30" fill="hsl(240 100% 99.34472734817757%)" />
  <rect x="485" y="295" width="30" height="30" fill="hsl(240 100% 88.42600854473817%)" />
  <rect x="520" y="295" width="30" height="30" fill="hsl(240 100% 57.966774273824214%)" />
  <rect x="695" y="295" width="30" height="30" fill="hsl(240 100% 97.61584559030527%)" />
  <rect x="800" y="295" width="30" height="30" fill="hsl(240 100% 99.59163410024756%)" />
  <rect x="835" y="295" width="30" height="30" fill="hsl(240 100% 99.95908591413331%)" />
  <rect x="65" y="330" width="30" height="30" fill="hsl(240 100% 83.17171876581017%)" />
  <rect x="100" y="330" width="30" height="30" fill="hsl(240 100% 92.55467423737275%)" />
  <rect x="135" y="330" width="30" height="30" fill="hsl(240 100% 96.02445852418985%)" />
  <rect x="170" y="330" width="30" height="30" fill="hsl(240 100% 82.76234571955749%)" />
  <rect x="205" y="330" width="30" height="30" fill="hsl(240 100% 98.96361191947722%)" />
  <rect x="240" y="330" width="30" height="30" fill="hsl(240 100% 73.38443465699413%)" />
  <rect x="275" y="330" width="30" height="30" fill="hsl(240 100% 85.11770947826174%)" />
  <rect x="310" y="330" width="30" height="30" fill="rgb(255 255 255 / 50%)" />
  <rect x="345" y="330" width="30" height="30" fill="hsl(240 100% 96.17940918303496%)" />
  <rect x="415" y="330" width="30" height="30" fill="hsl(240 100% 81.40831260656736%)" />
  <rect x="450" y="330" width="30" height="30" fill="hsl(240 100% 99.75257650867817%)" />
  <rect x="485" y="330" width="30" height="30" fill="hsl(240 100% 62.90158055153275%)" />
  <rect x="520" y="330" width="30" height="30" fill="hsl(240 100% 62.41458626338437%)" />
  <rect x="590" y="330" width="30" height="30" fill="hsl(240 100% 91.7107281054196%)" />
  <rect x="625" y="330" width="30" height="30" fill="hsl(240 100% 50%)" />
  <rect x="765" y="330" width="30" height="30" fill="hsl(240 100% 92.26002401916094%)" />
  <rect x="800" y="330" width="30" height="30" fill="hsl(240 100% 98.99043123035884%)" />
  <rect x="835" y="330" width="30" height="30" fill="hsl(240 100% 84.95973682794211%)" />
  <rect x="65" y="365" width="30" height="30" fill="hsl(240 100% 57.46994476886367%)" />
  <rect x="100" y="365" width="30" height="30" fill="hsl(240 100% 71.6291951939352%)" />
  <rect x="135" y="365" width="30" height="30" fill="hsl(240 100% 81.88197538954398%)" />
  <rect x="170" y="365" width="30" height="30" fill="hsl(240 100% 50%)" />
  <rect x="205" y="365" width="30" height="30" fill="hsl(240 100% 96.08759751051532%)" />
  <rect x="240" y="365" width="30" height="30" fill="hsl(240 100% 59.85458618804581%)" />
  <rect x="275" y="365" width="30" height="30" fill="hsl(240 100% 92.45229735604829%)" />
  <rect x="310" y="365" width="30" height="30" fill="hsl(240 100% 99.86147905647168%)" />
  <rect x="415" y="365" width="30" height="30" fill="hsl(240 100% 66.89889566678477%)" />
  <rect x="520" y="365" width="30" height="30" fill="hsl(240 100% 86.19707706383808%)" />
  <rect x="625" y="365" width="30" height="30" fill="hsl(240 100% 99.63028785759089%)" />
  <rect x="730" y="365" width="30" height="30" fill="hsl(240 100% 63.49045100942948%)" />
  <rect x="765" y="365" width="30" height="30" fill="hsl(240 100% 98.1389510690424%)" />
  <rect x="835" y="365" width="30" height="30" fill="hsl(240 100% 99.07333381585616%)" />
  <rect x="65" y="400" width="30" height="30" fill="hsl(240 100% 95.7061521367597%)" />
  <rect x="100" y="400" width="30" height="30" fill="hsl(240 100% 98.83752681129842%)" />
  <rect x="135" y="400" width="30" height="30" fill="hsl(240 100% 99.2307690154493%)" />
  <rect x="170" y="400" width="30" height="30" fill="hsl(240 100% 86.71316269027066%)" />
  <rect x="205" y="400" width="30" height="30" fill="hsl(240 100% 98.26260014873591%)" />
  <rect x="240" y="400" width="30" height="30" fill="hsl(240 100% 67.74384180066048%)" />
  <rect x="275" y="400" width="30" height="30" fill="hsl(240 100% 88.72730663467345%)" />
  <rect x="310" y="400" width="30" height="30" fill="rgb(255 255 255 / 50%)" />
  <rect x="380" y="400" width="30" height="30" fill="rgb(255 255 255 / 50%)" />
  <rect x="415" y="400" width="30" height="30" fill="hsl(240 100% 86.27917123348361%)" />
  <rect x="450" y="400" width="30" height="30" fill="hsl(240 100% 99.93913758223147%)" />
  <rect x="485" y="400" width="30" height="30" fill="hsl(240 100% 51.2676320237839%)" />
  <rect x="520" y="400" width="30" height="30" fill="hsl(240 100% 50%)" />
  <rect x="555" y="400" width="30" height="30" fill="hsl(240 100% 98.048286571587%)" />
  <rect x="660" y="400" width="30" height="30" fill="rgb(255 255 255 / 50%)" />
  <rect x="835" y="400" width="30" height="30" fill="hsl(240 100% 98.22794477524891%)" />
  <rect x="65" y="435" width="30" height="30" fill="hsl(240 100% 93.30991336008964%)" />
  <rect x="240" y="435" width="30" height="30" fill="hsl(240 100% 50%)" />
  <rect x="310" y="435" width="30" height="30" fill="hsl(240 100% 93.85135765940196%)" />
  <rect x="415" y="435" width="30" height="30" fill="hsl(240 100% 87.0214884932328%)" />
  <rect x="450" y="435" width="30" height="30" fill="hsl(240 100% 99.7994483774528%)" />
  <rect x="65" y="470" width="30" height="30" fill="hsl(240 100% 50.8236994581493%)" />
  <rect x="240" y="470" width="30" height="30" fill="hsl(240 100% 50%)" />
  <rect x="310" y="470" width="30" height="30" fill="hsl(240 100% 96.97276019617924%)" />
  <rect x="415" y="470" width="30" height="30" fill="hsl(240 100% 89.03850143949067%)" />
  <rect x="450" y="470" width="30" height="30" fill="hsl(240 100% 99.56609873230002%)" />
</svg>
