<svg xmlns="http://www.w3.org/2000/svg" viewBox="0 0 870 505">
  <rect x="0" y="0" width="870" height="505" rx="5" ry="5" fill="#222" />
  <text x="60" y="100" fill="white" font-family="sans-serif" font-weight="bold" font-size="12" text-anchor="end" dominant-baseline="middle">ba</text>
  <text x="60" y="135" fill="white" font-family="sans-serif" font-weight="bold" font-size="12" text-anchor="end" dominant-baseline="middle">det</text>
  <text x="60" y="170" fill="white" font-family="sans-serif" font-weight="bold" font-size="12" text-anchor="end" dominant-baseline="middle">gmm</text>
  <text x="60" y="205" fill="white" font-family="sans-serif" font-weight="bold" font-size="12" text-anchor="end" dominant-baseline="middle">hello</text>
  <text x="60" y="240" fill="white" font-family="sans-serif" font-weight="bold" font-size="12" text-anchor="end" dominant-baseline="middle">ht</text>
  <text x="60" y="275" fill="white" font-family="sans-serif" font-weight="bold" font-size="12" text-anchor="end" dominant-baseline="middle">kmeans</text>
  <text x="60" y="310" fill="white" font-family="sans-serif" font-weight="bold" font-size="12" text-anchor="end" dominant-baseline="middle">llsq</text>
  <text x="60" y="345" fill="white" font-family="sans-serif" font-weight="bold" font-size="12" text-anchor="end" dominant-baseline="middle">lse</text>
  <text x="60" y="380" fill="white" font-family="sans-serif" font-weight="bold" font-size="12" text-anchor="end" dominant-baseline="middle">lstm</text>
  <text x="60" y="415" fill="white" font-family="sans-serif" font-weight="bold" font-size="12" text-anchor="end" dominant-baseline="middle">ode</text>
  <text x="60" y="450" fill="white" font-family="sans-serif" font-weight="bold" font-size="12" text-anchor="end" dominant-baseline="middle">particle</text>
  <text x="60" y="485" fill="white" font-family="sans-serif" font-weight="bold" font-size="12" text-anchor="end" dominant-baseline="middle">saddle</text>
  <text x="80" y="80" fill="white" font-family="sans-serif" font-weight="bold" font-size="12" text-anchor="end" dominant-baseline="middle" transform="rotate(90 80 80)">ad-hpp</text>
  <text x="115" y="80" fill="white" font-family="sans-serif" font-weight="bold" font-size="12" text-anchor="end" dominant-baseline="middle" transform="rotate(90 115 80)">adept</text>
  <text x="150" y="80" fill="white" font-family="sans-serif" font-weight="bold" font-size="12" text-anchor="end" dominant-baseline="middle" transform="rotate(90 150 80)">adol-c</text>
  <text x="185" y="80" fill="white" font-family="sans-serif" font-weight="bold" font-size="12" text-anchor="end" dominant-baseline="middle" transform="rotate(90 185 80)">codipack</text>
  <text x="220" y="80" fill="white" font-family="sans-serif" font-weight="bold" font-size="12" text-anchor="end" dominant-baseline="middle" transform="rotate(90 220 80)">cppad</text>
  <text x="255" y="80" fill="white" font-family="sans-serif" font-weight="bold" font-size="12" text-anchor="end" dominant-baseline="middle" transform="rotate(90 255 80)">enzyme</text>
  <text x="290" y="80" fill="white" font-family="sans-serif" font-weight="bold" font-size="12" text-anchor="end" dominant-baseline="middle" transform="rotate(90 290 80)">enzyme-jl</text>
  <text x="325" y="80" fill="white" font-family="sans-serif" font-weight="bold" font-size="12" text-anchor="end" dominant-baseline="middle" transform="rotate(90 325 80)">finite</text>
  <text x="360" y="80" fill="white" font-family="sans-serif" font-weight="bold" font-size="12" text-anchor="end" dominant-baseline="middle" transform="rotate(90 360 80)">floretta</text>
  <text x="395" y="80" fill="white" font-family="sans-serif" font-weight="bold" font-size="12" text-anchor="end" dominant-baseline="middle" transform="rotate(90 395 80)">forwarddiff-jl</text>
  <text x="430" y="80" fill="white" font-family="sans-serif" font-weight="bold" font-size="12" text-anchor="end" dominant-baseline="middle" transform="rotate(90 430 80)">futhark</text>
  <text x="465" y="80" fill="white" font-family="sans-serif" font-weight="bold" font-size="12" text-anchor="end" dominant-baseline="middle" transform="rotate(90 465 80)">haskell</text>
  <text x="500" y="80" fill="white" font-family="sans-serif" font-weight="bold" font-size="12" text-anchor="end" dominant-baseline="middle" transform="rotate(90 500 80)">jax</text>
  <text x="535" y="80" fill="white" font-family="sans-serif" font-weight="bold" font-size="12" text-anchor="end" dominant-baseline="middle" transform="rotate(90 535 80)">manual</text>
  <text x="570" y="80" fill="white" font-family="sans-serif" font-weight="bold" font-size="12" text-anchor="end" dominant-baseline="middle" transform="rotate(90 570 80)">mooncake-jl</text>
  <text x="605" y="80" fill="white" font-family="sans-serif" font-weight="bold" font-size="12" text-anchor="end" dominant-baseline="middle" transform="rotate(90 605 80)">ocaml</text>
  <text x="640" y="80" fill="white" font-family="sans-serif" font-weight="bold" font-size="12" text-anchor="end" dominant-baseline="middle" transform="rotate(90 640 80)">pytorch</text>
  <text x="675" y="80" fill="white" font-family="sans-serif" font-weight="bold" font-size="12" text-anchor="end" dominant-baseline="middle" transform="rotate(90 675 80)">reversediff-jl</text>
  <text x="710" y="80" fill="white" font-family="sans-serif" font-weight="bold" font-size="12" text-anchor="end" dominant-baseline="middle" transform="rotate(90 710 80)">scilean</text>
  <text x="745" y="80" fill="white" font-family="sans-serif" font-weight="bold" font-size="12" text-anchor="end" dominant-baseline="middle" transform="rotate(90 745 80)">tapenade</text>
  <text x="780" y="80" fill="white" font-family="sans-serif" font-weight="bold" font-size="12" text-anchor="end" dominant-baseline="middle" transform="rotate(90 780 80)">tensorflow</text>
  <text x="815" y="80" fill="white" font-family="sans-serif" font-weight="bold" font-size="12" text-anchor="end" dominant-baseline="middle" transform="rotate(90 815 80)">tensorflow-js</text>
  <text x="850" y="80" fill="white" font-family="sans-serif" font-weight="bold" font-size="12" text-anchor="end" dominant-baseline="middle" transform="rotate(90 850 80)">zygote</text>
  <rect x="65" y="85" width="30" height="30" fill="hsl(240 100% 81.17751360506682%)" />
  <rect x="100" y="85" width="30" height="30" fill="hsl(240 100% 82.92198658815016%)" />
  <rect x="135" y="85" width="30" height="30" fill="hsl(240 100% 98.0443728194271%)" />
  <rect x="170" y="85" width="30" height="30" fill="hsl(240 100% 82.44870165436308%)" />
  <rect x="205" y="85" width="30" height="30" fill="hsl(240 100% 99.00225756179555%)" />
  <rect x="240" y="85" width="30" height="30" fill="hsl(240 100% 51.99808316672835%)" />
  <rect x="310" y="85" width="30" height="30" fill="hsl(240 100% 93.29627457331395%)" />
  <rect x="415" y="85" width="30" height="30" fill="hsl(240 100% 68.55948202972246%)" />
  <rect x="520" y="85" width="30" height="30" fill="hsl(240 100% 50%)" />
  <rect x="625" y="85" width="30" height="30" fill="rgb(255 255 255 / 50%)" />
  <rect x="730" y="85" width="30" height="30" fill="hsl(240 100% 75.00500957121795%)" />
  <rect x="765" y="85" width="30" height="30" fill="rgb(255 255 255 / 50%)" />
  <rect x="835" y="85" width="30" height="30" fill="hsl(240 100% 99.73082948642006%)" />
  <rect x="65" y="120" width="30" height="30" fill="hsl(240 100% 50%)" />
  <rect x="100" y="120" width="30" height="30" fill="hsl(240 100% 82.35243269550301%)" />
  <rect x="135" y="120" width="30" height="30" fill="hsl(240 100% 85.57523099766325%)" />
  <rect x="170" y="120" width="30" height="30" fill="hsl(240 100% 52.192476951372676%)" />
  <rect x="205" y="120" width="30" height="30" fill="hsl(240 100% 92.41980492890492%)" />
  <rect x="240" y="120" width="30" height="30" fill="hsl(240 100% 91.34884985044032%)" />
  <rect x="275" y="120" width="30" height="30" fill="hsl(240 100% 99.3511176423552%)" />
  <rect x="310" y="120" width="30" height="30" fill="hsl(240 100% 98.97862552939247%)" />
  <rect x="380" y="120" width="30" height="30" fill="hsl(240 100% 93.37379010876325%)" />
  <rect x="415" y="120" width="30" height="30" fill="hsl(240 100% 94.55153483449277%)" />
  <rect x="450" y="120" width="30" height="30" fill="hsl(240 100% 97.83316397913082%)" />
  <rect x="520" y="120" width="30" height="30" fill="hsl(240 100% 79.56618345614797%)" />
  <rect x="555" y="120" width="30" height="30" fill="hsl(240 100% 91.72742811180956%)" />
  <rect x="660" y="120" width="30" height="30" fill="rgb(255 255 255 / 50%)" />
  <rect x="835" y="120" width="30" height="30" fill="rgb(255 255 255 / 50%)" />
  <rect x="65" y="155" width="30" height="30" fill="hsl(240 100% 98.35241385210344%)" />
  <rect x="100" y="155" width="30" height="30" fill="hsl(240 100% 98.77853635887264%)" />
  <rect x="135" y="155" width="30" height="30" fill="hsl(240 100% 99.08816539586009%)" />
  <rect x="170" y="155" width="30" height="30" fill="hsl(240 100% 98.06920749449725%)" />
  <rect x="205" y="155" width="30" height="30" fill="hsl(240 100% 99.84562478666055%)" />
  <rect x="240" y="155" width="30" height="30" fill="hsl(240 100% 90.96189677686708%)" />
  <rect x="275" y="155" width="30" height="30" fill="hsl(240 100% 92.32399421087254%)" />
  <rect x="310" y="155" width="30" height="30" fill="rgb(255 255 255 / 50%)" />
  <rect x="415" y="155" width="30" height="30" fill="hsl(240 100% 92.72690442121777%)" />
  <rect x="485" y="155" width="30" height="30" fill="hsl(240 100% 50%)" />
  <rect x="520" y="155" width="30" height="30" fill="hsl(240 100% 83.25602256933884%)" />
  <rect x="590" y="155" width="30" height="30" fill="hsl(240 100% 99.5772415605233%)" />
  <rect x="625" y="155" width="30" height="30" fill="hsl(240 100% 67.42739966491098%)" />
  <rect x="695" y="155" width="30" height="30" fill="hsl(240 100% 95.30006279013222%)" />
  <rect x="730" y="155" width="30" height="30" fill="hsl(240 100% 83.23319029872113%)" />
  <rect x="765" y="155" width="30" height="30" fill="hsl(240 100% 99.56857539956354%)" />
  <rect x="835" y="155" width="30" height="30" fill="hsl(240 100% 95.9299860201529%)" />
  <rect x="65" y="190" width="30" height="30" fill="hsl(240 100% 50%)" />
  <rect x="100" y="190" width="30" height="30" fill="hsl(240 100% 50%)" />
  <rect x="135" y="190" width="30" height="30" fill="hsl(240 100% 50%)" />
  <rect x="170" y="190" width="30" height="30" fill="hsl(240 100% 50%)" />
  <rect x="205" y="190" width="30" height="30" fill="hsl(240 100% 50%)" />
  <rect x="240" y="190" width="30" height="30" fill="hsl(240 100% 50%)" />
  <rect x="275" y="190" width="30" height="30" fill="hsl(240 100% 50%)" />
  <rect x="310" y="190" width="30" height="30" fill="hsl(240 100% 50%)" />
  <rect x="345" y="190" width="30" height="30" fill="hsl(240 100% 50%)" />
  <rect x="380" y="190" width="30" height="30" fill="hsl(240 100% 50%)" />
  <rect x="415" y="190" width="30" height="30" fill="hsl(240 100% 50%)" />
  <rect x="450" y="190" width="30" height="30" fill="hsl(240 100% 50%)" />
  <rect x="485" y="190" width="30" height="30" fill="hsl(240 100% 50%)" />
  <rect x="520" y="190" width="30" height="30" fill="hsl(240 100% 50%)" />
  <rect x="555" y="190" width="30" height="30" fill="hsl(240 100% 50%)" />
  <rect x="590" y="190" width="30" height="30" fill="hsl(240 100% 50%)" />
  <rect x="625" y="190" width="30" height="30" fill="hsl(240 100% 50%)" />
  <rect x="660" y="190" width="30" height="30" fill="hsl(240 100% 50%)" />
  <rect x="695" y="190" width="30" height="30" fill="hsl(240 100% 50%)" />
  <rect x="730" y="190" width="30" height="30" fill="hsl(240 100% 50%)" />
  <rect x="765" y="190" width="30" height="30" fill="hsl(240 100% 50%)" />
  <rect x="800" y="190" width="30" height="30" fill="hsl(240 100% 50%)" />
  <rect x="835" y="190" width="30" height="30" fill="hsl(240 100% 50%)" />
  <rect x="100" y="225" width="30" height="30" fill="hsl(240 100% 96.69664757532462%)" />
  <rect x="135" y="225" width="30" height="30" fill="hsl(240 100% 89.279884296986%)" />
  <rect x="170" y="225" width="30" height="30" fill="hsl(240 100% 89.36262259145762%)" />
  <rect x="240" y="225" width="30" height="30" fill="hsl(240 100% 91.39262453448943%)" />
  <rect x="310" y="225" width="30" height="30" fill="rgb(255 255 255 / 50%)" />
  <rect x="415" y="225" width="30" height="30" fill="hsl(240 100% 90.54197100297257%)" />
  <rect x="520" y="225" width="30" height="30" fill="hsl(240 100% 50%)" />
  <rect x="625" y="225" width="30" height="30" fill="rgb(255 255 255 / 50%)" />
  <rect x="730" y="225" width="30" height="30" fill="hsl(240 100% 93.11051329944986%)" />
  <rect x="765" y="225" width="30" height="30" fill="rgb(255 255 255 / 50%)" />
  <rect x="835" y="225" width="30" height="30" fill="hsl(240 100% 94.63636934612877%)" />
  <rect x="65" y="260" width="30" height="30" fill="hsl(240 100% 99.9316486699084%)" />
  <rect x="135" y="260" width="30" height="30" fill="hsl(240 100% 99.84647063565716%)" />
  <rect x="170" y="260" width="30" height="30" fill="hsl(240 100% 98.84732499498674%)" />
  <rect x="205" y="260" width="30" height="30" fill="rgb(255 255 255 / 50%)" />
  <rect x="240" y="260" width="30" height="30" fill="hsl(240 100% 86.60510119342852%)" />
  <rect x="310" y="260" width="30" height="30" fill="rgb(255 255 255 / 50%)" />
  <rect x="415" y="260" width="30" height="30" fill="hsl(240 100% 80.49045942397152%)" />
  <rect x="450" y="260" width="30" height="30" fill="rgb(255 255 255 / 50%)" />
  <rect x="485" y="260" width="30" height="30" fill="hsl(240 100% 50%)" />
  <rect x="520" y="260" width="30" height="30" fill="hsl(240 100% 70.38312539992249%)" />
  <rect x="625" y="260" width="30" height="30" fill="hsl(240 100% 96.81167362722071%)" />
  <rect x="695" y="260" width="30" height="30" fill="hsl(240 100% 93.94666645602123%)" />
  <rect x="65" y="295" width="30" height="30" fill="hsl(240 100% 86.07843767157694%)" />
  <rect x="100" y="295" width="30" height="30" fill="hsl(240 100% 97.47503629481575%)" />
  <rect x="135" y="295" width="30" height="30" fill="hsl(240 100% 95.06693959241203%)" />
  <rect x="170" y="295" width="30" height="30" fill="hsl(240 100% 90.68193647735866%)" />
  <rect x="205" y="295" width="30" height="30" fill="hsl(240 100% 99.47115751515926%)" />
  <rect x="240" y="295" width="30" height="30" fill="hsl(240 100% 50.63828198826148%)" />
  <rect x="275" y="295" width="30" height="30" fill="hsl(240 100% 50%)" />
  <rect x="310" y="295" width="30" height="30" fill="hsl(240 100% 99.4994402847972%)" />
  <rect x="345" y="295" width="30" height="30" fill="hsl(240 100% 94.7551792894709%)" />
  <rect x="415" y="295" width="30" height="30" fill="hsl(240 100% 55.32575900383224%)" />
  <rect x="450" y="295" width="30" height="30" fill="hsl(240 100% 99.33479822380708%)" />
  <rect x="485" y="295" width="30" height="30" fill="hsl(240 100% 88.24126853626512%)" />
  <rect x="520" y="295" width="30" height="30" fill="hsl(240 100% 57.85958233021667%)" />
  <rect x="695" y="295" width="30" height="30" fill="hsl(240 100% 97.61195742237717%)" />
  <rect x="800" y="295" width="30" height="30" fill="hsl(240 100% 99.57328270452817%)" />
  <rect x="835" y="295" width="30" height="30" fill="hsl(240 100% 99.95693593856532%)" />
  <rect x="65" y="330" width="30" height="30" fill="hsl(240 100% 88.48087251391028%)" />
  <rect x="100" y="330" width="30" height="30" fill="hsl(240 100% 94.80430202699763%)" />
  <rect x="135" y="330" width="30" height="30" fill="hsl(240 100% 97.15022766647903%)" />
  <rect x="170" y="330" width="30" height="30" fill="hsl(240 100% 88.39907326417652%)" />
  <rect x="205" y="330" width="30" height="30" fill="hsl(240 100% 99.19252168369236%)" />
  <rect x="240" y="330" width="30" height="30" fill="hsl(240 100% 79.69776557260005%)" />
  <rect x="275" y="330" width="30" height="30" fill="hsl(240 100% 87.93950669965929%)" />
  <rect x="310" y="330" width="30" height="30" fill="rgb(255 255 255 / 50%)" />
  <rect x="345" y="330" width="30" height="30" fill="hsl(240 100% 97.2037500259157%)" />
  <rect x="415" y="330" width="30" height="30" fill="hsl(240 100% 85.81257783635209%)" />
  <rect x="450" y="330" width="30" height="30" fill="hsl(240 100% 99.80746666432101%)" />
  <rect x="485" y="330" width="30" height="30" fill="hsl(240 100% 71.05268893298035%)" />
  <rect x="520" y="330" width="30" height="30" fill="hsl(240 100% 76.69877385333817%)" />
  <rect x="590" y="330" width="30" height="30" fill="hsl(240 100% 93.76726736275656%)" />
  <rect x="625" y="330" width="30" height="30" fill="hsl(240 100% 50%)" />
  <rect x="765" y="330" width="30" height="30" fill="hsl(240 100% 94.27319707579751%)" />
  <rect x="800" y="330" width="30" height="30" fill="hsl(240 100% 99.20710541332711%)" />
  <rect x="835" y="330" width="30" height="30" fill="hsl(240 100% 81.59824372262085%)" />
  <rect x="65" y="365" width="30" height="30" fill="hsl(240 100% 57.278150797500075%)" />
  <rect x="100" y="365" width="30" height="30" fill="hsl(240 100% 72.04521411099512%)" />
  <rect x="135" y="365" width="30" height="30" fill="hsl(240 100% 82.47346665268273%)" />
  <rect x="170" y="365" width="30" height="30" fill="hsl(240 100% 50%)" />
  <rect x="205" y="365" width="30" height="30" fill="hsl(240 100% 96.23727175993267%)" />
  <rect x="240" y="365" width="30" height="30" fill="hsl(240 100% 60.27468269771889%)" />
  <rect x="275" y="365" width="30" height="30" fill="hsl(240 100% 92.45747113282695%)" />
  <rect x="310" y="365" width="30" height="30" fill="hsl(240 100% 99.86285239724532%)" />
  <rect x="415" y="365" width="30" height="30" fill="hsl(240 100% 66.5521047627844%)" />
  <rect x="520" y="365" width="30" height="30" fill="hsl(240 100% 85.9291833931673%)" />
  <rect x="625" y="365" width="30" height="30" fill="hsl(240 100% 99.63326198793314%)" />
  <rect x="730" y="365" width="30" height="30" fill="hsl(240 100% 64.06703713097171%)" />
  <rect x="765" y="365" width="30" height="30" fill="hsl(240 100% 98.17672772501992%)" />
  <rect x="835" y="365" width="30" height="30" fill="hsl(240 100% 98.75836956191814%)" />
  <rect x="65" y="400" width="30" height="30" fill="hsl(240 100% 98.16566372369702%)" />
  <rect x="100" y="400" width="30" height="30" fill="hsl(240 100% 99.41464426729836%)" />
  <rect x="135" y="400" width="30" height="30" fill="hsl(240 100% 99.67431106273501%)" />
  <rect x="170" y="400" width="30" height="30" fill="hsl(240 100% 95.46304319074343%)" />
  <rect x="205" y="400" width="30" height="30" fill="hsl(240 100% 99.23854270535129%)" />
  <rect x="240" y="400" width="30" height="30" fill="hsl(240 100% 88.80116258250897%)" />
  <rect x="275" y="400" width="30" height="30" fill="hsl(240 100% 95.33493365344938%)" />
  <rect x="310" y="400" width="30" height="30" fill="rgb(255 255 255 / 50%)" />
  <rect x="380" y="400" width="30" height="30" fill="rgb(255 255 255 / 50%)" />
  <rect x="415" y="400" width="30" height="30" fill="hsl(240 100% 94.0363222700317%)" />
  <rect x="450" y="400" width="30" height="30" fill="hsl(240 100% 99.97242574627863%)" />
  <rect x="485" y="400" width="30" height="30" fill="hsl(240 100% 78.4661549592897%)" />
  <rect x="520" y="400" width="30" height="30" fill="hsl(240 100% 50%)" />
  <rect x="555" y="400" width="30" height="30" fill="hsl(240 100% 99.11059164743179%)" />
  <rect x="660" y="400" width="30" height="30" fill="rgb(255 255 255 / 50%)" />
  <rect x="835" y="400" width="30" height="30" fill="hsl(240 100% 99.13251376494131%)" />
  <rect x="65" y="435" width="30" height="30" fill="hsl(240 100% 92.89847808455112%)" />
  <rect x="240" y="435" width="30" height="30" fill="hsl(240 100% 50%)" />
  <rect x="310" y="435" width="30" height="30" fill="hsl(240 100% 94.288372499304%)" />
  <rect x="415" y="435" width="30" height="30" fill="hsl(240 100% 86.98999256797484%)" />
  <rect x="450" y="435" width="30" height="30" fill="hsl(240 100% 99.77975102033554%)" />
  <rect x="65" y="470" width="30" height="30" fill="hsl(240 100% 50%)" />
  <rect x="240" y="470" width="30" height="30" fill="hsl(240 100% 50.182461421123634%)" />
  <rect x="310" y="470" width="30" height="30" fill="hsl(240 100% 97.15587026250824%)" />
  <rect x="415" y="470" width="30" height="30" fill="hsl(240 100% 89.32467043818066%)" />
  <rect x="450" y="470" width="30" height="30" fill="hsl(240 100% 99.57620791984763%)" />
</svg>
