<svg xmlns="http://www.w3.org/2000/svg" viewBox="0 0 695 470">
  <rect x="0" y="0" width="695" height="470" rx="5" ry="5" fill="#222" />
  <text x="60" y="100" fill="white" font-family="sans-serif" font-weight="bold" font-size="12" text-anchor="end" dominant-baseline="middle">ba</text>
  <text x="60" y="135" fill="white" font-family="sans-serif" font-weight="bold" font-size="12" text-anchor="end" dominant-baseline="middle">det</text>
  <text x="60" y="170" fill="white" font-family="sans-serif" font-weight="bold" font-size="12" text-anchor="end" dominant-baseline="middle">gmm</text>
  <text x="60" y="205" fill="white" font-family="sans-serif" font-weight="bold" font-size="12" text-anchor="end" dominant-baseline="middle">hello</text>
  <text x="60" y="240" fill="white" font-family="sans-serif" font-weight="bold" font-size="12" text-anchor="end" dominant-baseline="middle">ht</text>
  <text x="60" y="275" fill="white" font-family="sans-serif" font-weight="bold" font-size="12" text-anchor="end" dominant-baseline="middle">kmeans</text>
  <text x="60" y="310" fill="white" font-family="sans-serif" font-weight="bold" font-size="12" text-anchor="end" dominant-baseline="middle">llsq</text>
  <text x="60" y="345" fill="white" font-family="sans-serif" font-weight="bold" font-size="12" text-anchor="end" dominant-baseline="middle">lstm</text>
  <text x="60" y="380" fill="white" font-family="sans-serif" font-weight="bold" font-size="12" text-anchor="end" dominant-baseline="middle">ode</text>
  <text x="60" y="415" fill="white" font-family="sans-serif" font-weight="bold" font-size="12" text-anchor="end" dominant-baseline="middle">particle</text>
  <text x="60" y="450" fill="white" font-family="sans-serif" font-weight="bold" font-size="12" text-anchor="end" dominant-baseline="middle">saddle</text>
  <text x="80" y="80" fill="white" font-family="sans-serif" font-weight="bold" font-size="12" text-anchor="end" dominant-baseline="middle" transform="rotate(90 80 80)">adept</text>
  <text x="115" y="80" fill="white" font-family="sans-serif" font-weight="bold" font-size="12" text-anchor="end" dominant-baseline="middle" transform="rotate(90 115 80)">adol-c</text>
  <text x="150" y="80" fill="white" font-family="sans-serif" font-weight="bold" font-size="12" text-anchor="end" dominant-baseline="middle" transform="rotate(90 150 80)">codipack</text>
  <text x="185" y="80" fill="white" font-family="sans-serif" font-weight="bold" font-size="12" text-anchor="end" dominant-baseline="middle" transform="rotate(90 185 80)">cppad</text>
  <text x="220" y="80" fill="white" font-family="sans-serif" font-weight="bold" font-size="12" text-anchor="end" dominant-baseline="middle" transform="rotate(90 220 80)">enzyme</text>
  <text x="255" y="80" fill="white" font-family="sans-serif" font-weight="bold" font-size="12" text-anchor="end" dominant-baseline="middle" transform="rotate(90 255 80)">enzyme-jl</text>
  <text x="290" y="80" fill="white" font-family="sans-serif" font-weight="bold" font-size="12" text-anchor="end" dominant-baseline="middle" transform="rotate(90 290 80)">finite</text>
  <text x="325" y="80" fill="white" font-family="sans-serif" font-weight="bold" font-size="12" text-anchor="end" dominant-baseline="middle" transform="rotate(90 325 80)">floretta</text>
  <text x="360" y="80" fill="white" font-family="sans-serif" font-weight="bold" font-size="12" text-anchor="end" dominant-baseline="middle" transform="rotate(90 360 80)">futhark</text>
  <text x="395" y="80" fill="white" font-family="sans-serif" font-weight="bold" font-size="12" text-anchor="end" dominant-baseline="middle" transform="rotate(90 395 80)">haskell</text>
  <text x="430" y="80" fill="white" font-family="sans-serif" font-weight="bold" font-size="12" text-anchor="end" dominant-baseline="middle" transform="rotate(90 430 80)">jax</text>
  <text x="465" y="80" fill="white" font-family="sans-serif" font-weight="bold" font-size="12" text-anchor="end" dominant-baseline="middle" transform="rotate(90 465 80)">manual</text>
  <text x="500" y="80" fill="white" font-family="sans-serif" font-weight="bold" font-size="12" text-anchor="end" dominant-baseline="middle" transform="rotate(90 500 80)">ocaml</text>
  <text x="535" y="80" fill="white" font-family="sans-serif" font-weight="bold" font-size="12" text-anchor="end" dominant-baseline="middle" transform="rotate(90 535 80)">pytorch</text>
  <text x="570" y="80" fill="white" font-family="sans-serif" font-weight="bold" font-size="12" text-anchor="end" dominant-baseline="middle" transform="rotate(90 570 80)">scilean</text>
  <text x="605" y="80" fill="white" font-family="sans-serif" font-weight="bold" font-size="12" text-anchor="end" dominant-baseline="middle" transform="rotate(90 605 80)">tapenade</text>
  <text x="640" y="80" fill="white" font-family="sans-serif" font-weight="bold" font-size="12" text-anchor="end" dominant-baseline="middle" transform="rotate(90 640 80)">tensorflow</text>
  <text x="675" y="80" fill="white" font-family="sans-serif" font-weight="bold" font-size="12" text-anchor="end" dominant-baseline="middle" transform="rotate(90 675 80)">zygote</text>
  <rect x="65" y="85" width="30" height="30" fill="hsl(240 100% 83.08147572820023%)" />
  <rect x="100" y="85" width="30" height="30" fill="hsl(240 100% 97.78726268144058%)" />
  <rect x="135" y="85" width="30" height="30" fill="hsl(240 100% 88.91983092348202%)" />
  <rect x="205" y="85" width="30" height="30" fill="hsl(240 100% 50%)" />
  <rect x="275" y="85" width="30" height="30" fill="hsl(240 100% 92.46593810521419%)" />
  <rect x="345" y="85" width="30" height="30" fill="hsl(240 100% 67.91752903256291%)" />
  <rect x="450" y="85" width="30" height="30" fill="hsl(240 100% 50.37295404721581%)" />
  <rect x="520" y="85" width="30" height="30" fill="rgb(255 255 255 / 50%)" />
  <rect x="590" y="85" width="30" height="30" fill="hsl(240 100% 72.0935596337402%)" />
  <rect x="625" y="85" width="30" height="30" fill="rgb(255 255 255 / 50%)" />
  <rect x="65" y="120" width="30" height="30" fill="hsl(240 100% 83.33894654461932%)" />
  <rect x="100" y="120" width="30" height="30" fill="hsl(240 100% 85.3926360185608%)" />
  <rect x="135" y="120" width="30" height="30" fill="hsl(240 100% 50%)" />
  <rect x="170" y="120" width="30" height="30" fill="hsl(240 100% 92.65018485368589%)" />
  <rect x="205" y="120" width="30" height="30" fill="hsl(240 100% 91.79323190337206%)" />
  <rect x="275" y="120" width="30" height="30" fill="hsl(240 100% 98.97163843544698%)" />
  <rect x="345" y="120" width="30" height="30" fill="hsl(240 100% 94.67402108909356%)" />
  <rect x="380" y="120" width="30" height="30" fill="hsl(240 100% 97.84599034862242%)" />
  <rect x="450" y="120" width="30" height="30" fill="hsl(240 100% 79.4241301574849%)" />
  <rect x="65" y="155" width="30" height="30" fill="hsl(240 100% 98.22251615610703%)" />
  <rect x="100" y="155" width="30" height="30" fill="hsl(240 100% 98.69948201218034%)" />
  <rect x="135" y="155" width="30" height="30" fill="hsl(240 100% 97.2198119737084%)" />
  <rect x="170" y="155" width="30" height="30" fill="hsl(240 100% 99.76820596616118%)" />
  <rect x="205" y="155" width="30" height="30" fill="hsl(240 100% 86.87587056086662%)" />
  <rect x="275" y="155" width="30" height="30" fill="rgb(255 255 255 / 50%)" />
  <rect x="345" y="155" width="30" height="30" fill="hsl(240 100% 89.82546983434942%)" />
  <rect x="415" y="155" width="30" height="30" fill="hsl(240 100% 69.11687720932511%)" />
  <rect x="450" y="155" width="30" height="30" fill="hsl(240 100% 75.01934107140838%)" />
  <rect x="485" y="155" width="30" height="30" fill="hsl(240 100% 99.34353661202732%)" />
  <rect x="520" y="155" width="30" height="30" fill="hsl(240 100% 50%)" />
  <rect x="555" y="155" width="30" height="30" fill="hsl(240 100% 92.60244453425032%)" />
  <rect x="590" y="155" width="30" height="30" fill="hsl(240 100% 75.98927368318486%)" />
  <rect x="625" y="155" width="30" height="30" fill="hsl(240 100% 88.67886547528003%)" />
  <rect x="65" y="190" width="30" height="30" fill="hsl(240 100% 50%)" />
  <rect x="100" y="190" width="30" height="30" fill="hsl(240 100% 50%)" />
  <rect x="135" y="190" width="30" height="30" fill="hsl(240 100% 50%)" />
  <rect x="170" y="190" width="30" height="30" fill="hsl(240 100% 50%)" />
  <rect x="205" y="190" width="30" height="30" fill="hsl(240 100% 50%)" />
  <rect x="240" y="190" width="30" height="30" fill="hsl(240 100% 50%)" />
  <rect x="275" y="190" width="30" height="30" fill="hsl(240 100% 50%)" />
  <rect x="310" y="190" width="30" height="30" fill="hsl(240 100% 50%)" />
  <rect x="345" y="190" width="30" height="30" fill="hsl(240 100% 50%)" />
  <rect x="380" y="190" width="30" height="30" fill="hsl(240 100% 50%)" />
  <rect x="415" y="190" width="30" height="30" fill="hsl(240 100% 50%)" />
  <rect x="450" y="190" width="30" height="30" fill="hsl(240 100% 50%)" />
  <rect x="485" y="190" width="30" height="30" fill="hsl(240 100% 50%)" />
  <rect x="520" y="190" width="30" height="30" fill="hsl(240 100% 50%)" />
  <rect x="555" y="190" width="30" height="30" fill="hsl(240 100% 50%)" />
  <rect x="590" y="190" width="30" height="30" fill="hsl(240 100% 50%)" />
  <rect x="625" y="190" width="30" height="30" fill="hsl(240 100% 50%)" />
  <rect x="660" y="190" width="30" height="30" fill="hsl(240 100% 50%)" />
  <rect x="65" y="225" width="30" height="30" fill="hsl(240 100% 96.0515188560894%)" />
  <rect x="100" y="225" width="30" height="30" fill="hsl(240 100% 90.25159075388957%)" />
  <rect x="135" y="225" width="30" height="30" fill="hsl(240 100% 88.41332871568717%)" />
  <rect x="205" y="225" width="30" height="30" fill="hsl(240 100% 90.42327876690612%)" />
  <rect x="275" y="225" width="30" height="30" fill="rgb(255 255 255 / 50%)" />
  <rect x="345" y="225" width="30" height="30" fill="hsl(240 100% 89.63493535147126%)" />
  <rect x="450" y="225" width="30" height="30" fill="hsl(240 100% 50%)" />
  <rect x="520" y="225" width="30" height="30" fill="rgb(255 255 255 / 50%)" />
  <rect x="590" y="225" width="30" height="30" fill="rgb(255 255 255 / 50%)" />
  <rect x="625" y="225" width="30" height="30" fill="rgb(255 255 255 / 50%)" />
  <rect x="100" y="260" width="30" height="30" fill="hsl(240 100% 99.87409123781761%)" />
  <rect x="135" y="260" width="30" height="30" fill="hsl(240 100% 99.42878830393559%)" />
  <rect x="170" y="260" width="30" height="30" fill="rgb(255 255 255 / 50%)" />
  <rect x="205" y="260" width="30" height="30" fill="hsl(240 100% 87.83471408382893%)" />
  <rect x="275" y="260" width="30" height="30" fill="rgb(255 255 255 / 50%)" />
  <rect x="345" y="260" width="30" height="30" fill="hsl(240 100% 83.1159623597525%)" />
  <rect x="380" y="260" width="30" height="30" fill="rgb(255 255 255 / 50%)" />
  <rect x="415" y="260" width="30" height="30" fill="hsl(240 100% 50%)" />
  <rect x="450" y="260" width="30" height="30" fill="hsl(240 100% 76.6479755789584%)" />
  <rect x="520" y="260" width="30" height="30" fill="hsl(240 100% 96.88784340843355%)" />
  <rect x="555" y="260" width="30" height="30" fill="hsl(240 100% 94.11384967952048%)" />
  <rect x="65" y="295" width="30" height="30" fill="hsl(240 100% 66.86913877518448%)" />
  <rect x="100" y="295" width="30" height="30" fill="hsl(240 100% 59.232757306834806%)" />
  <rect x="135" y="295" width="30" height="30" fill="hsl(240 100% 60.014729747375746%)" />
  <rect x="170" y="295" width="30" height="30" fill="hsl(240 100% 91.73015574417848%)" />
  <rect x="205" y="295" width="30" height="30" fill="hsl(240 100% 50%)" />
  <rect x="275" y="295" width="30" height="30" fill="hsl(240 100% 99.42790595863244%)" />
  <rect x="345" y="295" width="30" height="30" fill="hsl(240 100% 50.52864943123103%)" />
  <rect x="380" y="295" width="30" height="30" fill="hsl(240 100% 89.24591733254611%)" />
  <rect x="450" y="295" width="30" height="30" fill="hsl(240 100% 53.453071894704735%)" />
  <rect x="555" y="295" width="30" height="30" fill="hsl(240 100% 55.36598472213996%)" />
  <rect x="65" y="330" width="30" height="30" fill="hsl(240 100% 66.53257070120122%)" />
  <rect x="100" y="330" width="30" height="30" fill="hsl(240 100% 80.48081708147691%)" />
  <rect x="135" y="330" width="30" height="30" fill="hsl(240 100% 50%)" />
  <rect x="170" y="330" width="30" height="30" fill="hsl(240 100% 95.75026114950516%)" />
  <rect x="205" y="330" width="30" height="30" fill="hsl(240 100% 50.36194533178729%)" />
  <rect x="275" y="330" width="30" height="30" fill="hsl(240 100% 99.84866663389296%)" />
  <rect x="345" y="330" width="30" height="30" fill="hsl(240 100% 63.29578440106248%)" />
  <rect x="450" y="330" width="30" height="30" fill="hsl(240 100% 84.44774642073396%)" />
  <rect x="520" y="330" width="30" height="30" fill="hsl(240 100% 99.59118704018371%)" />
  <rect x="590" y="330" width="30" height="30" fill="hsl(240 100% 60.54210207935255%)" />
  <rect x="625" y="330" width="30" height="30" fill="hsl(240 100% 97.92737132798834%)" />
  <rect x="65" y="365" width="30" height="30" fill="hsl(240 100% 99.19394817428983%)" />
  <rect x="100" y="365" width="30" height="30" fill="hsl(240 100% 99.55902383314286%)" />
  <rect x="135" y="365" width="30" height="30" fill="hsl(240 100% 93.73774874196044%)" />
  <rect x="170" y="365" width="30" height="30" fill="hsl(240 100% 98.97367930657214%)" />
  <rect x="205" y="365" width="30" height="30" fill="hsl(240 100% 86.45005125204978%)" />
  <rect x="240" y="365" width="30" height="30" fill="hsl(240 100% 99.02969473009834%)" />
  <rect x="275" y="365" width="30" height="30" fill="rgb(255 255 255 / 50%)" />
  <rect x="345" y="365" width="30" height="30" fill="hsl(240 100% 95.35736456547623%)" />
  <rect x="380" y="365" width="30" height="30" fill="hsl(240 100% 99.96088463031577%)" />
  <rect x="450" y="365" width="30" height="30" fill="hsl(240 100% 50%)" />
  <rect x="205" y="400" width="30" height="30" fill="hsl(240 100% 50%)" />
  <rect x="275" y="400" width="30" height="30" fill="hsl(240 100% 95.21615294566237%)" />
  <rect x="345" y="400" width="30" height="30" fill="hsl(240 100% 87.90545180266886%)" />
  <rect x="380" y="400" width="30" height="30" fill="hsl(240 100% 99.76220429018016%)" />
  <rect x="205" y="435" width="30" height="30" fill="hsl(240 100% 50%)" />
  <rect x="275" y="435" width="30" height="30" fill="hsl(240 100% 95.8247128849352%)" />
  <rect x="345" y="435" width="30" height="30" fill="hsl(240 100% 89.08610864746787%)" />
  <rect x="380" y="435" width="30" height="30" fill="hsl(240 100% 99.55705570944897%)" />
</svg>
