<svg xmlns="http://www.w3.org/2000/svg" viewBox="0 0 870 505">
  <rect x="0" y="0" width="870" height="505" rx="5" ry="5" fill="#222" />
  <text x="60" y="100" fill="white" font-family="sans-serif" font-weight="bold" font-size="12" text-anchor="end" dominant-baseline="middle">ba</text>
  <text x="60" y="135" fill="white" font-family="sans-serif" font-weight="bold" font-size="12" text-anchor="end" dominant-baseline="middle">det</text>
  <text x="60" y="170" fill="white" font-family="sans-serif" font-weight="bold" font-size="12" text-anchor="end" dominant-baseline="middle">gmm</text>
  <text x="60" y="205" fill="white" font-family="sans-serif" font-weight="bold" font-size="12" text-anchor="end" dominant-baseline="middle">hello</text>
  <text x="60" y="240" fill="white" font-family="sans-serif" font-weight="bold" font-size="12" text-anchor="end" dominant-baseline="middle">ht</text>
  <text x="60" y="275" fill="white" font-family="sans-serif" font-weight="bold" font-size="12" text-anchor="end" dominant-baseline="middle">kmeans</text>
  <text x="60" y="310" fill="white" font-family="sans-serif" font-weight="bold" font-size="12" text-anchor="end" dominant-baseline="middle">llsq</text>
  <text x="60" y="345" fill="white" font-family="sans-serif" font-weight="bold" font-size="12" text-anchor="end" dominant-baseline="middle">lse</text>
  <text x="60" y="380" fill="white" font-family="sans-serif" font-weight="bold" font-size="12" text-anchor="end" dominant-baseline="middle">lstm</text>
  <text x="60" y="415" fill="white" font-family="sans-serif" font-weight="bold" font-size="12" text-anchor="end" dominant-baseline="middle">ode</text>
  <text x="60" y="450" fill="white" font-family="sans-serif" font-weight="bold" font-size="12" text-anchor="end" dominant-baseline="middle">particle</text>
  <text x="60" y="485" fill="white" font-family="sans-serif" font-weight="bold" font-size="12" text-anchor="end" dominant-baseline="middle">saddle</text>
  <text x="80" y="80" fill="white" font-family="sans-serif" font-weight="bold" font-size="12" text-anchor="end" dominant-baseline="middle" transform="rotate(90 80 80)">ad-hpp</text>
  <text x="115" y="80" fill="white" font-family="sans-serif" font-weight="bold" font-size="12" text-anchor="end" dominant-baseline="middle" transform="rotate(90 115 80)">adept</text>
  <text x="150" y="80" fill="white" font-family="sans-serif" font-weight="bold" font-size="12" text-anchor="end" dominant-baseline="middle" transform="rotate(90 150 80)">adol-c</text>
  <text x="185" y="80" fill="white" font-family="sans-serif" font-weight="bold" font-size="12" text-anchor="end" dominant-baseline="middle" transform="rotate(90 185 80)">codipack</text>
  <text x="220" y="80" fill="white" font-family="sans-serif" font-weight="bold" font-size="12" text-anchor="end" dominant-baseline="middle" transform="rotate(90 220 80)">cppad</text>
  <text x="255" y="80" fill="white" font-family="sans-serif" font-weight="bold" font-size="12" text-anchor="end" dominant-baseline="middle" transform="rotate(90 255 80)">enzyme</text>
  <text x="290" y="80" fill="white" font-family="sans-serif" font-weight="bold" font-size="12" text-anchor="end" dominant-baseline="middle" transform="rotate(90 290 80)">enzyme-jl</text>
  <text x="325" y="80" fill="white" font-family="sans-serif" font-weight="bold" font-size="12" text-anchor="end" dominant-baseline="middle" transform="rotate(90 325 80)">finite</text>
  <text x="360" y="80" fill="white" font-family="sans-serif" font-weight="bold" font-size="12" text-anchor="end" dominant-baseline="middle" transform="rotate(90 360 80)">floretta</text>
  <text x="395" y="80" fill="white" font-family="sans-serif" font-weight="bold" font-size="12" text-anchor="end" dominant-baseline="middle" transform="rotate(90 395 80)">forwarddiff-jl</text>
  <text x="430" y="80" fill="white" font-family="sans-serif" font-weight="bold" font-size="12" text-anchor="end" dominant-baseline="middle" transform="rotate(90 430 80)">futhark</text>
  <text x="465" y="80" fill="white" font-family="sans-serif" font-weight="bold" font-size="12" text-anchor="end" dominant-baseline="middle" transform="rotate(90 465 80)">haskell</text>
  <text x="500" y="80" fill="white" font-family="sans-serif" font-weight="bold" font-size="12" text-anchor="end" dominant-baseline="middle" transform="rotate(90 500 80)">jax</text>
  <text x="535" y="80" fill="white" font-family="sans-serif" font-weight="bold" font-size="12" text-anchor="end" dominant-baseline="middle" transform="rotate(90 535 80)">manual</text>
  <text x="570" y="80" fill="white" font-family="sans-serif" font-weight="bold" font-size="12" text-anchor="end" dominant-baseline="middle" transform="rotate(90 570 80)">mooncake-jl</text>
  <text x="605" y="80" fill="white" font-family="sans-serif" font-weight="bold" font-size="12" text-anchor="end" dominant-baseline="middle" transform="rotate(90 605 80)">ocaml</text>
  <text x="640" y="80" fill="white" font-family="sans-serif" font-weight="bold" font-size="12" text-anchor="end" dominant-baseline="middle" transform="rotate(90 640 80)">pytorch</text>
  <text x="675" y="80" fill="white" font-family="sans-serif" font-weight="bold" font-size="12" text-anchor="end" dominant-baseline="middle" transform="rotate(90 675 80)">reversediff-jl</text>
  <text x="710" y="80" fill="white" font-family="sans-serif" font-weight="bold" font-size="12" text-anchor="end" dominant-baseline="middle" transform="rotate(90 710 80)">scilean</text>
  <text x="745" y="80" fill="white" font-family="sans-serif" font-weight="bold" font-size="12" text-anchor="end" dominant-baseline="middle" transform="rotate(90 745 80)">tapenade</text>
  <text x="780" y="80" fill="white" font-family="sans-serif" font-weight="bold" font-size="12" text-anchor="end" dominant-baseline="middle" transform="rotate(90 780 80)">tensorflow</text>
  <text x="815" y="80" fill="white" font-family="sans-serif" font-weight="bold" font-size="12" text-anchor="end" dominant-baseline="middle" transform="rotate(90 815 80)">tensorflow-js</text>
  <text x="850" y="80" fill="white" font-family="sans-serif" font-weight="bold" font-size="12" text-anchor="end" dominant-baseline="middle" transform="rotate(90 850 80)">zygote</text>
  <rect x="65" y="85" width="30" height="30" fill="hsl(240 100% 81.05837638930069%)" />
  <rect x="100" y="85" width="30" height="30" fill="hsl(240 100% 82.77843592977388%)" />
  <rect x="135" y="85" width="30" height="30" fill="hsl(240 100% 97.97638051054113%)" />
  <rect x="170" y="85" width="30" height="30" fill="hsl(240 100% 82.42659991601163%)" />
  <rect x="205" y="85" width="30" height="30" fill="hsl(240 100% 98.98073544744956%)" />
  <rect x="240" y="85" width="30" height="30" fill="hsl(240 100% 51.770046444901716%)" />
  <rect x="310" y="85" width="30" height="30" fill="hsl(240 100% 93.27024718276716%)" />
  <rect x="415" y="85" width="30" height="30" fill="hsl(240 100% 67.9785164990762%)" />
  <rect x="520" y="85" width="30" height="30" fill="hsl(240 100% 50%)" />
  <rect x="625" y="85" width="30" height="30" fill="rgb(255 255 255 / 50%)" />
  <rect x="730" y="85" width="30" height="30" fill="hsl(240 100% 74.83204276036686%)" />
  <rect x="765" y="85" width="30" height="30" fill="rgb(255 255 255 / 50%)" />
  <rect x="835" y="85" width="30" height="30" fill="hsl(240 100% 99.7271480366244%)" />
  <rect x="65" y="120" width="30" height="30" fill="hsl(240 100% 50%)" />
  <rect x="100" y="120" width="30" height="30" fill="hsl(240 100% 82.62454600310076%)" />
  <rect x="135" y="120" width="30" height="30" fill="hsl(240 100% 85.6691605620557%)" />
  <rect x="170" y="120" width="30" height="30" fill="hsl(240 100% 51.53076724285685%)" />
  <rect x="205" y="120" width="30" height="30" fill="hsl(240 100% 92.88872658684052%)" />
  <rect x="240" y="120" width="30" height="30" fill="hsl(240 100% 91.63855939748007%)" />
  <rect x="275" y="120" width="30" height="30" fill="hsl(240 100% 99.3367028869259%)" />
  <rect x="310" y="120" width="30" height="30" fill="hsl(240 100% 98.98914024302401%)" />
  <rect x="380" y="120" width="30" height="30" fill="hsl(240 100% 93.3133972829387%)" />
  <rect x="415" y="120" width="30" height="30" fill="hsl(240 100% 94.56743308538981%)" />
  <rect x="450" y="120" width="30" height="30" fill="hsl(240 100% 97.86403756897056%)" />
  <rect x="520" y="120" width="30" height="30" fill="hsl(240 100% 79.6317416553702%)" />
  <rect x="555" y="120" width="30" height="30" fill="hsl(240 100% 89.91647372725384%)" />
  <rect x="660" y="120" width="30" height="30" fill="rgb(255 255 255 / 50%)" />
  <rect x="835" y="120" width="30" height="30" fill="rgb(255 255 255 / 50%)" />
  <rect x="65" y="155" width="30" height="30" fill="hsl(240 100% 98.5713934481985%)" />
  <rect x="100" y="155" width="30" height="30" fill="hsl(240 100% 98.78194216389598%)" />
  <rect x="135" y="155" width="30" height="30" fill="hsl(240 100% 99.07770662786635%)" />
  <rect x="170" y="155" width="30" height="30" fill="hsl(240 100% 97.99321928027037%)" />
  <rect x="205" y="155" width="30" height="30" fill="hsl(240 100% 99.84768511560284%)" />
  <rect x="240" y="155" width="30" height="30" fill="hsl(240 100% 91.22169457139921%)" />
  <rect x="275" y="155" width="30" height="30" fill="hsl(240 100% 93.23916629761644%)" />
  <rect x="310" y="155" width="30" height="30" fill="rgb(255 255 255 / 50%)" />
  <rect x="415" y="155" width="30" height="30" fill="hsl(240 100% 92.82990275513322%)" />
  <rect x="485" y="155" width="30" height="30" fill="hsl(240 100% 50%)" />
  <rect x="520" y="155" width="30" height="30" fill="hsl(240 100% 83.38416670189869%)" />
  <rect x="590" y="155" width="30" height="30" fill="hsl(240 100% 99.57987245918724%)" />
  <rect x="625" y="155" width="30" height="30" fill="hsl(240 100% 67.0813634908309%)" />
  <rect x="695" y="155" width="30" height="30" fill="hsl(240 100% 95.33462910120633%)" />
  <rect x="730" y="155" width="30" height="30" fill="hsl(240 100% 83.41985452037402%)" />
  <rect x="765" y="155" width="30" height="30" fill="hsl(240 100% 99.57403376682278%)" />
  <rect x="835" y="155" width="30" height="30" fill="hsl(240 100% 96.06438129279636%)" />
  <rect x="65" y="190" width="30" height="30" fill="hsl(240 100% 50%)" />
  <rect x="100" y="190" width="30" height="30" fill="hsl(240 100% 50%)" />
  <rect x="135" y="190" width="30" height="30" fill="hsl(240 100% 50%)" />
  <rect x="170" y="190" width="30" height="30" fill="hsl(240 100% 50%)" />
  <rect x="205" y="190" width="30" height="30" fill="hsl(240 100% 50%)" />
  <rect x="240" y="190" width="30" height="30" fill="hsl(240 100% 50%)" />
  <rect x="275" y="190" width="30" height="30" fill="hsl(240 100% 50%)" />
  <rect x="310" y="190" width="30" height="30" fill="hsl(240 100% 50%)" />
  <rect x="345" y="190" width="30" height="30" fill="hsl(240 100% 50%)" />
  <rect x="380" y="190" width="30" height="30" fill="hsl(240 100% 50%)" />
  <rect x="415" y="190" width="30" height="30" fill="hsl(240 100% 50%)" />
  <rect x="450" y="190" width="30" height="30" fill="hsl(240 100% 50%)" />
  <rect x="485" y="190" width="30" height="30" fill="hsl(240 100% 50%)" />
  <rect x="520" y="190" width="30" height="30" fill="hsl(240 100% 50%)" />
  <rect x="555" y="190" width="30" height="30" fill="hsl(240 100% 50%)" />
  <rect x="590" y="190" width="30" height="30" fill="hsl(240 100% 50%)" />
  <rect x="625" y="190" width="30" height="30" fill="hsl(240 100% 50%)" />
  <rect x="660" y="190" width="30" height="30" fill="hsl(240 100% 50%)" />
  <rect x="695" y="190" width="30" height="30" fill="hsl(240 100% 50%)" />
  <rect x="730" y="190" width="30" height="30" fill="hsl(240 100% 50%)" />
  <rect x="765" y="190" width="30" height="30" fill="hsl(240 100% 50%)" />
  <rect x="800" y="190" width="30" height="30" fill="hsl(240 100% 50%)" />
  <rect x="835" y="190" width="30" height="30" fill="hsl(240 100% 50%)" />
  <rect x="100" y="225" width="30" height="30" fill="hsl(240 100% 96.60064299175286%)" />
  <rect x="135" y="225" width="30" height="30" fill="hsl(240 100% 89.13322071468181%)" />
  <rect x="170" y="225" width="30" height="30" fill="hsl(240 100% 88.93836908977036%)" />
  <rect x="240" y="225" width="30" height="30" fill="hsl(240 100% 91.0808231869247%)" />
  <rect x="310" y="225" width="30" height="30" fill="rgb(255 255 255 / 50%)" />
  <rect x="415" y="225" width="30" height="30" fill="hsl(240 100% 90.34865479720065%)" />
  <rect x="520" y="225" width="30" height="30" fill="hsl(240 100% 50%)" />
  <rect x="625" y="225" width="30" height="30" fill="rgb(255 255 255 / 50%)" />
  <rect x="730" y="225" width="30" height="30" fill="hsl(240 100% 93.01301897236587%)" />
  <rect x="765" y="225" width="30" height="30" fill="rgb(255 255 255 / 50%)" />
  <rect x="835" y="225" width="30" height="30" fill="hsl(240 100% 94.07703954616125%)" />
  <rect x="65" y="260" width="30" height="30" fill="hsl(240 100% 99.82029549971149%)" />
  <rect x="135" y="260" width="30" height="30" fill="hsl(240 100% 99.85220677741154%)" />
  <rect x="170" y="260" width="30" height="30" fill="hsl(240 100% 98.93656660981603%)" />
  <rect x="205" y="260" width="30" height="30" fill="rgb(255 255 255 / 50%)" />
  <rect x="240" y="260" width="30" height="30" fill="hsl(240 100% 86.96497371570078%)" />
  <rect x="310" y="260" width="30" height="30" fill="rgb(255 255 255 / 50%)" />
  <rect x="415" y="260" width="30" height="30" fill="hsl(240 100% 80.53768667872654%)" />
  <rect x="450" y="260" width="30" height="30" fill="rgb(255 255 255 / 50%)" />
  <rect x="485" y="260" width="30" height="30" fill="hsl(240 100% 50%)" />
  <rect x="520" y="260" width="30" height="30" fill="hsl(240 100% 70.8372926326047%)" />
  <rect x="625" y="260" width="30" height="30" fill="hsl(240 100% 97.06231285401037%)" />
  <rect x="695" y="260" width="30" height="30" fill="hsl(240 100% 94.03555373067744%)" />
  <rect x="65" y="295" width="30" height="30" fill="hsl(240 100% 85.96010618894286%)" />
  <rect x="100" y="295" width="30" height="30" fill="hsl(240 100% 97.50326132361957%)" />
  <rect x="135" y="295" width="30" height="30" fill="hsl(240 100% 95.18593172956778%)" />
  <rect x="170" y="295" width="30" height="30" fill="hsl(240 100% 90.63896709718273%)" />
  <rect x="205" y="295" width="30" height="30" fill="hsl(240 100% 99.47383203626012%)" />
  <rect x="240" y="295" width="30" height="30" fill="hsl(240 100% 50.5685413147212%)" />
  <rect x="275" y="295" width="30" height="30" fill="hsl(240 100% 50%)" />
  <rect x="310" y="295" width="30" height="30" fill="hsl(240 100% 99.49823538865789%)" />
  <rect x="345" y="295" width="30" height="30" fill="hsl(240 100% 94.69397379094583%)" />
  <rect x="415" y="295" width="30" height="30" fill="hsl(240 100% 55.10865188195343%)" />
  <rect x="450" y="295" width="30" height="30" fill="hsl(240 100% 99.3282489646039%)" />
  <rect x="485" y="295" width="30" height="30" fill="hsl(240 100% 88.82906072014484%)" />
  <rect x="520" y="295" width="30" height="30" fill="hsl(240 100% 57.75191442733519%)" />
  <rect x="695" y="295" width="30" height="30" fill="hsl(240 100% 97.5985715029758%)" />
  <rect x="800" y="295" width="30" height="30" fill="hsl(240 100% 99.57439257804326%)" />
  <rect x="835" y="295" width="30" height="30" fill="hsl(240 100% 99.95636353971862%)" />
  <rect x="65" y="330" width="30" height="30" fill="hsl(240 100% 89.23282826120494%)" />
  <rect x="100" y="330" width="30" height="30" fill="hsl(240 100% 95.10069838545888%)" />
  <rect x="135" y="330" width="30" height="30" fill="hsl(240 100% 97.30753475862096%)" />
  <rect x="170" y="330" width="30" height="30" fill="hsl(240 100% 89.24522642100168%)" />
  <rect x="205" y="330" width="30" height="30" fill="hsl(240 100% 99.24474284019321%)" />
  <rect x="240" y="330" width="30" height="30" fill="hsl(240 100% 80.91969259580118%)" />
  <rect x="275" y="330" width="30" height="30" fill="hsl(240 100% 89.39023189866373%)" />
  <rect x="310" y="330" width="30" height="30" fill="rgb(255 255 255 / 50%)" />
  <rect x="345" y="330" width="30" height="30" fill="hsl(240 100% 97.36737916568666%)" />
  <rect x="415" y="330" width="30" height="30" fill="hsl(240 100% 86.73248886259996%)" />
  <rect x="450" y="330" width="30" height="30" fill="hsl(240 100% 99.81671879345421%)" />
  <rect x="485" y="330" width="30" height="30" fill="hsl(240 100% 72.07028703675202%)" />
  <rect x="520" y="330" width="30" height="30" fill="hsl(240 100% 78.05414434932216%)" />
  <rect x="590" y="330" width="30" height="30" fill="hsl(240 100% 94.1672135415403%)" />
  <rect x="625" y="330" width="30" height="30" fill="hsl(240 100% 50%)" />
  <rect x="765" y="330" width="30" height="30" fill="hsl(240 100% 95.19998139211361%)" />
  <rect x="800" y="330" width="30" height="30" fill="hsl(240 100% 99.25890395369538%)" />
  <rect x="835" y="330" width="30" height="30" fill="hsl(240 100% 81.67150397110805%)" />
  <rect x="65" y="365" width="30" height="30" fill="hsl(240 100% 56.80413824916343%)" />
  <rect x="100" y="365" width="30" height="30" fill="hsl(240 100% 71.98216864999296%)" />
  <rect x="135" y="365" width="30" height="30" fill="hsl(240 100% 81.88301948555886%)" />
  <rect x="170" y="365" width="30" height="30" fill="hsl(240 100% 50%)" />
  <rect x="205" y="365" width="30" height="30" fill="hsl(240 100% 96.24805550228943%)" />
  <rect x="240" y="365" width="30" height="30" fill="hsl(240 100% 59.877724921559775%)" />
  <rect x="275" y="365" width="30" height="30" fill="hsl(240 100% 92.41653208099879%)" />
  <rect x="310" y="365" width="30" height="30" fill="hsl(240 100% 99.86169357771259%)" />
  <rect x="415" y="365" width="30" height="30" fill="hsl(240 100% 66.54929644344489%)" />
  <rect x="520" y="365" width="30" height="30" fill="hsl(240 100% 85.83035117636213%)" />
  <rect x="625" y="365" width="30" height="30" fill="hsl(240 100% 99.63758180819447%)" />
  <rect x="730" y="365" width="30" height="30" fill="hsl(240 100% 63.11204866423122%)" />
  <rect x="765" y="365" width="30" height="30" fill="hsl(240 100% 98.17116507259402%)" />
  <rect x="835" y="365" width="30" height="30" fill="hsl(240 100% 98.74607145668055%)" />
  <rect x="65" y="400" width="30" height="30" fill="hsl(240 100% 98.48806885939499%)" />
  <rect x="100" y="400" width="30" height="30" fill="hsl(240 100% 99.40884287900829%)" />
  <rect x="135" y="400" width="30" height="30" fill="hsl(240 100% 99.67379867980905%)" />
  <rect x="170" y="400" width="30" height="30" fill="hsl(240 100% 95.35643363502055%)" />
  <rect x="205" y="400" width="30" height="30" fill="hsl(240 100% 99.24247781205204%)" />
  <rect x="240" y="400" width="30" height="30" fill="hsl(240 100% 88.54372896796234%)" />
  <rect x="275" y="400" width="30" height="30" fill="hsl(240 100% 95.36871930181202%)" />
  <rect x="310" y="400" width="30" height="30" fill="rgb(255 255 255 / 50%)" />
  <rect x="380" y="400" width="30" height="30" fill="rgb(255 255 255 / 50%)" />
  <rect x="415" y="400" width="30" height="30" fill="hsl(240 100% 94.02028971801002%)" />
  <rect x="450" y="400" width="30" height="30" fill="hsl(240 100% 99.97427896217869%)" />
  <rect x="485" y="400" width="30" height="30" fill="hsl(240 100% 78.34083843242811%)" />
  <rect x="520" y="400" width="30" height="30" fill="hsl(240 100% 50%)" />
  <rect x="555" y="400" width="30" height="30" fill="hsl(240 100% 99.12677560690187%)" />
  <rect x="660" y="400" width="30" height="30" fill="rgb(255 255 255 / 50%)" />
  <rect x="835" y="400" width="30" height="30" fill="hsl(240 100% 99.23398563202161%)" />
  <rect x="65" y="435" width="30" height="30" fill="hsl(240 100% 92.86307620938875%)" />
  <rect x="240" y="435" width="30" height="30" fill="hsl(240 100% 50%)" />
  <rect x="310" y="435" width="30" height="30" fill="hsl(240 100% 94.3239545904769%)" />
  <rect x="415" y="435" width="30" height="30" fill="hsl(240 100% 87.0147418550183%)" />
  <rect x="450" y="435" width="30" height="30" fill="hsl(240 100% 99.78095377748392%)" />
  <rect x="65" y="470" width="30" height="30" fill="hsl(240 100% 50%)" />
  <rect x="240" y="470" width="30" height="30" fill="hsl(240 100% 50.2437160331464%)" />
  <rect x="310" y="470" width="30" height="30" fill="hsl(240 100% 97.1502301486186%)" />
  <rect x="415" y="470" width="30" height="30" fill="hsl(240 100% 89.06276706323557%)" />
  <rect x="450" y="470" width="30" height="30" fill="hsl(240 100% 99.56365858527018%)" />
</svg>
