<svg xmlns="http://www.w3.org/2000/svg" viewBox="0 0 870 505">
  <rect x="0" y="0" width="870" height="505" rx="5" ry="5" fill="#222" />
  <text x="60" y="100" fill="white" font-family="sans-serif" font-weight="bold" font-size="12" text-anchor="end" dominant-baseline="middle">ba</text>
  <text x="60" y="135" fill="white" font-family="sans-serif" font-weight="bold" font-size="12" text-anchor="end" dominant-baseline="middle">det</text>
  <text x="60" y="170" fill="white" font-family="sans-serif" font-weight="bold" font-size="12" text-anchor="end" dominant-baseline="middle">gmm</text>
  <text x="60" y="205" fill="white" font-family="sans-serif" font-weight="bold" font-size="12" text-anchor="end" dominant-baseline="middle">hello</text>
  <text x="60" y="240" fill="white" font-family="sans-serif" font-weight="bold" font-size="12" text-anchor="end" dominant-baseline="middle">ht</text>
  <text x="60" y="275" fill="white" font-family="sans-serif" font-weight="bold" font-size="12" text-anchor="end" dominant-baseline="middle">kmeans</text>
  <text x="60" y="310" fill="white" font-family="sans-serif" font-weight="bold" font-size="12" text-anchor="end" dominant-baseline="middle">llsq</text>
  <text x="60" y="345" fill="white" font-family="sans-serif" font-weight="bold" font-size="12" text-anchor="end" dominant-baseline="middle">lse</text>
  <text x="60" y="380" fill="white" font-family="sans-serif" font-weight="bold" font-size="12" text-anchor="end" dominant-baseline="middle">lstm</text>
  <text x="60" y="415" fill="white" font-family="sans-serif" font-weight="bold" font-size="12" text-anchor="end" dominant-baseline="middle">ode</text>
  <text x="60" y="450" fill="white" font-family="sans-serif" font-weight="bold" font-size="12" text-anchor="end" dominant-baseline="middle">particle</text>
  <text x="60" y="485" fill="white" font-family="sans-serif" font-weight="bold" font-size="12" text-anchor="end" dominant-baseline="middle">saddle</text>
  <text x="80" y="80" fill="white" font-family="sans-serif" font-weight="bold" font-size="12" text-anchor="end" dominant-baseline="middle" transform="rotate(90 80 80)">ad-hpp</text>
  <text x="115" y="80" fill="white" font-family="sans-serif" font-weight="bold" font-size="12" text-anchor="end" dominant-baseline="middle" transform="rotate(90 115 80)">adept</text>
  <text x="150" y="80" fill="white" font-family="sans-serif" font-weight="bold" font-size="12" text-anchor="end" dominant-baseline="middle" transform="rotate(90 150 80)">adol-c</text>
  <text x="185" y="80" fill="white" font-family="sans-serif" font-weight="bold" font-size="12" text-anchor="end" dominant-baseline="middle" transform="rotate(90 185 80)">codipack</text>
  <text x="220" y="80" fill="white" font-family="sans-serif" font-weight="bold" font-size="12" text-anchor="end" dominant-baseline="middle" transform="rotate(90 220 80)">cppad</text>
  <text x="255" y="80" fill="white" font-family="sans-serif" font-weight="bold" font-size="12" text-anchor="end" dominant-baseline="middle" transform="rotate(90 255 80)">enzyme</text>
  <text x="290" y="80" fill="white" font-family="sans-serif" font-weight="bold" font-size="12" text-anchor="end" dominant-baseline="middle" transform="rotate(90 290 80)">enzyme-jl</text>
  <text x="325" y="80" fill="white" font-family="sans-serif" font-weight="bold" font-size="12" text-anchor="end" dominant-baseline="middle" transform="rotate(90 325 80)">finite</text>
  <text x="360" y="80" fill="white" font-family="sans-serif" font-weight="bold" font-size="12" text-anchor="end" dominant-baseline="middle" transform="rotate(90 360 80)">floretta</text>
  <text x="395" y="80" fill="white" font-family="sans-serif" font-weight="bold" font-size="12" text-anchor="end" dominant-baseline="middle" transform="rotate(90 395 80)">forwarddiff-jl</text>
  <text x="430" y="80" fill="white" font-family="sans-serif" font-weight="bold" font-size="12" text-anchor="end" dominant-baseline="middle" transform="rotate(90 430 80)">futhark</text>
  <text x="465" y="80" fill="white" font-family="sans-serif" font-weight="bold" font-size="12" text-anchor="end" dominant-baseline="middle" transform="rotate(90 465 80)">haskell</text>
  <text x="500" y="80" fill="white" font-family="sans-serif" font-weight="bold" font-size="12" text-anchor="end" dominant-baseline="middle" transform="rotate(90 500 80)">jax</text>
  <text x="535" y="80" fill="white" font-family="sans-serif" font-weight="bold" font-size="12" text-anchor="end" dominant-baseline="middle" transform="rotate(90 535 80)">manual</text>
  <text x="570" y="80" fill="white" font-family="sans-serif" font-weight="bold" font-size="12" text-anchor="end" dominant-baseline="middle" transform="rotate(90 570 80)">mooncake-jl</text>
  <text x="605" y="80" fill="white" font-family="sans-serif" font-weight="bold" font-size="12" text-anchor="end" dominant-baseline="middle" transform="rotate(90 605 80)">ocaml</text>
  <text x="640" y="80" fill="white" font-family="sans-serif" font-weight="bold" font-size="12" text-anchor="end" dominant-baseline="middle" transform="rotate(90 640 80)">pytorch</text>
  <text x="675" y="80" fill="white" font-family="sans-serif" font-weight="bold" font-size="12" text-anchor="end" dominant-baseline="middle" transform="rotate(90 675 80)">reversediff-jl</text>
  <text x="710" y="80" fill="white" font-family="sans-serif" font-weight="bold" font-size="12" text-anchor="end" dominant-baseline="middle" transform="rotate(90 710 80)">scilean</text>
  <text x="745" y="80" fill="white" font-family="sans-serif" font-weight="bold" font-size="12" text-anchor="end" dominant-baseline="middle" transform="rotate(90 745 80)">tapenade</text>
  <text x="780" y="80" fill="white" font-family="sans-serif" font-weight="bold" font-size="12" text-anchor="end" dominant-baseline="middle" transform="rotate(90 780 80)">tensorflow</text>
  <text x="815" y="80" fill="white" font-family="sans-serif" font-weight="bold" font-size="12" text-anchor="end" dominant-baseline="middle" transform="rotate(90 815 80)">tensorflow-js</text>
  <text x="850" y="80" fill="white" font-family="sans-serif" font-weight="bold" font-size="12" text-anchor="end" dominant-baseline="middle" transform="rotate(90 850 80)">zygote</text>
  <rect x="65" y="85" width="30" height="30" fill="hsl(240 100% 80.67981255156917%)" />
  <rect x="100" y="85" width="30" height="30" fill="hsl(240 100% 82.21036039160043%)" />
  <rect x="135" y="85" width="30" height="30" fill="hsl(240 100% 97.91520537880407%)" />
  <rect x="170" y="85" width="30" height="30" fill="hsl(240 100% 81.6313447879498%)" />
  <rect x="205" y="85" width="30" height="30" fill="hsl(240 100% 98.93422181287447%)" />
  <rect x="240" y="85" width="30" height="30" fill="hsl(240 100% 50%)" />
  <rect x="310" y="85" width="30" height="30" fill="hsl(240 100% 92.90169686106394%)" />
  <rect x="415" y="85" width="30" height="30" fill="hsl(240 100% 66.93502216014635%)" />
  <rect x="520" y="85" width="30" height="30" fill="hsl(240 100% 54.342669679954774%)" />
  <rect x="625" y="85" width="30" height="30" fill="rgb(255 255 255 / 50%)" />
  <rect x="730" y="85" width="30" height="30" fill="hsl(240 100% 73.90451450153398%)" />
  <rect x="765" y="85" width="30" height="30" fill="rgb(255 255 255 / 50%)" />
  <rect x="835" y="85" width="30" height="30" fill="hsl(240 100% 99.7210673891374%)" />
  <rect x="65" y="120" width="30" height="30" fill="hsl(240 100% 50%)" />
  <rect x="100" y="120" width="30" height="30" fill="hsl(240 100% 83.40916967017391%)" />
  <rect x="135" y="120" width="30" height="30" fill="hsl(240 100% 85.52495486476603%)" />
  <rect x="170" y="120" width="30" height="30" fill="hsl(240 100% 52.64720753596569%)" />
  <rect x="205" y="120" width="30" height="30" fill="hsl(240 100% 92.63959772988962%)" />
  <rect x="240" y="120" width="30" height="30" fill="hsl(240 100% 91.80083808966401%)" />
  <rect x="275" y="120" width="30" height="30" fill="hsl(240 100% 99.36140876469548%)" />
  <rect x="310" y="120" width="30" height="30" fill="hsl(240 100% 98.99978473403111%)" />
  <rect x="380" y="120" width="30" height="30" fill="hsl(240 100% 93.38315864787765%)" />
  <rect x="415" y="120" width="30" height="30" fill="hsl(240 100% 94.65572304869019%)" />
  <rect x="450" y="120" width="30" height="30" fill="hsl(240 100% 97.86578645905625%)" />
  <rect x="520" y="120" width="30" height="30" fill="hsl(240 100% 79.82838124799177%)" />
  <rect x="555" y="120" width="30" height="30" fill="hsl(240 100% 90.53858024438037%)" />
  <rect x="660" y="120" width="30" height="30" fill="rgb(255 255 255 / 50%)" />
  <rect x="835" y="120" width="30" height="30" fill="rgb(255 255 255 / 50%)" />
  <rect x="65" y="155" width="30" height="30" fill="hsl(240 100% 98.53914368343159%)" />
  <rect x="100" y="155" width="30" height="30" fill="hsl(240 100% 98.8625153313204%)" />
  <rect x="135" y="155" width="30" height="30" fill="hsl(240 100% 99.10360482070514%)" />
  <rect x="170" y="155" width="30" height="30" fill="hsl(240 100% 98.04068732258116%)" />
  <rect x="205" y="155" width="30" height="30" fill="hsl(240 100% 99.8511602009427%)" />
  <rect x="240" y="155" width="30" height="30" fill="hsl(240 100% 91.37000931216313%)" />
  <rect x="275" y="155" width="30" height="30" fill="hsl(240 100% 93.17475110799177%)" />
  <rect x="310" y="155" width="30" height="30" fill="rgb(255 255 255 / 50%)" />
  <rect x="415" y="155" width="30" height="30" fill="hsl(240 100% 93.02885635381624%)" />
  <rect x="485" y="155" width="30" height="30" fill="hsl(240 100% 50%)" />
  <rect x="520" y="155" width="30" height="30" fill="hsl(240 100% 81.45953880732895%)" />
  <rect x="590" y="155" width="30" height="30" fill="hsl(240 100% 99.59217348513003%)" />
  <rect x="625" y="155" width="30" height="30" fill="hsl(240 100% 68.06915421847295%)" />
  <rect x="695" y="155" width="30" height="30" fill="hsl(240 100% 95.60568126966066%)" />
  <rect x="730" y="155" width="30" height="30" fill="hsl(240 100% 83.880725704931%)" />
  <rect x="765" y="155" width="30" height="30" fill="hsl(240 100% 99.59928115508478%)" />
  <rect x="835" y="155" width="30" height="30" fill="hsl(240 100% 96.4016677778027%)" />
  <rect x="65" y="190" width="30" height="30" fill="hsl(240 100% 50%)" />
  <rect x="100" y="190" width="30" height="30" fill="hsl(240 100% 50%)" />
  <rect x="135" y="190" width="30" height="30" fill="hsl(240 100% 50%)" />
  <rect x="170" y="190" width="30" height="30" fill="hsl(240 100% 50%)" />
  <rect x="205" y="190" width="30" height="30" fill="hsl(240 100% 50%)" />
  <rect x="240" y="190" width="30" height="30" fill="hsl(240 100% 50%)" />
  <rect x="275" y="190" width="30" height="30" fill="hsl(240 100% 50%)" />
  <rect x="310" y="190" width="30" height="30" fill="hsl(240 100% 50%)" />
  <rect x="345" y="190" width="30" height="30" fill="hsl(240 100% 50%)" />
  <rect x="380" y="190" width="30" height="30" fill="hsl(240 100% 50%)" />
  <rect x="415" y="190" width="30" height="30" fill="hsl(240 100% 50%)" />
  <rect x="450" y="190" width="30" height="30" fill="hsl(240 100% 50%)" />
  <rect x="485" y="190" width="30" height="30" fill="hsl(240 100% 50%)" />
  <rect x="520" y="190" width="30" height="30" fill="hsl(240 100% 50%)" />
  <rect x="555" y="190" width="30" height="30" fill="hsl(240 100% 50%)" />
  <rect x="590" y="190" width="30" height="30" fill="hsl(240 100% 50%)" />
  <rect x="625" y="190" width="30" height="30" fill="hsl(240 100% 50%)" />
  <rect x="660" y="190" width="30" height="30" fill="hsl(240 100% 50%)" />
  <rect x="695" y="190" width="30" height="30" fill="hsl(240 100% 50%)" />
  <rect x="730" y="190" width="30" height="30" fill="hsl(240 100% 50%)" />
  <rect x="765" y="190" width="30" height="30" fill="hsl(240 100% 50%)" />
  <rect x="800" y="190" width="30" height="30" fill="hsl(240 100% 50%)" />
  <rect x="835" y="190" width="30" height="30" fill="hsl(240 100% 50%)" />
  <rect x="100" y="225" width="30" height="30" fill="hsl(240 100% 96.34636462694596%)" />
  <rect x="135" y="225" width="30" height="30" fill="hsl(240 100% 87.06828728034505%)" />
  <rect x="170" y="225" width="30" height="30" fill="hsl(240 100% 88.27788734590382%)" />
  <rect x="240" y="225" width="30" height="30" fill="hsl(240 100% 90.47214179308243%)" />
  <rect x="310" y="225" width="30" height="30" fill="rgb(255 255 255 / 50%)" />
  <rect x="415" y="225" width="30" height="30" fill="hsl(240 100% 89.62614559874176%)" />
  <rect x="520" y="225" width="30" height="30" fill="hsl(240 100% 50%)" />
  <rect x="625" y="225" width="30" height="30" fill="rgb(255 255 255 / 50%)" />
  <rect x="730" y="225" width="30" height="30" fill="hsl(240 100% 92.51359640900148%)" />
  <rect x="765" y="225" width="30" height="30" fill="rgb(255 255 255 / 50%)" />
  <rect x="835" y="225" width="30" height="30" fill="hsl(240 100% 93.78497336879826%)" />
  <rect x="65" y="260" width="30" height="30" fill="hsl(240 100% 99.87242091351634%)" />
  <rect x="135" y="260" width="30" height="30" fill="hsl(240 100% 99.85470520416844%)" />
  <rect x="170" y="260" width="30" height="30" fill="hsl(240 100% 98.88530204085681%)" />
  <rect x="205" y="260" width="30" height="30" fill="rgb(255 255 255 / 50%)" />
  <rect x="240" y="260" width="30" height="30" fill="hsl(240 100% 86.85570448109074%)" />
  <rect x="310" y="260" width="30" height="30" fill="rgb(255 255 255 / 50%)" />
  <rect x="415" y="260" width="30" height="30" fill="hsl(240 100% 80.34279389613057%)" />
  <rect x="450" y="260" width="30" height="30" fill="rgb(255 255 255 / 50%)" />
  <rect x="485" y="260" width="30" height="30" fill="hsl(240 100% 50%)" />
  <rect x="520" y="260" width="30" height="30" fill="hsl(240 100% 71.71806061712657%)" />
  <rect x="625" y="260" width="30" height="30" fill="hsl(240 100% 96.93337908583015%)" />
  <rect x="695" y="260" width="30" height="30" fill="hsl(240 100% 93.96637358857953%)" />
  <rect x="65" y="295" width="30" height="30" fill="hsl(240 100% 86.0262006959559%)" />
  <rect x="100" y="295" width="30" height="30" fill="hsl(240 100% 97.54809320929635%)" />
  <rect x="135" y="295" width="30" height="30" fill="hsl(240 100% 95.4094320542377%)" />
  <rect x="170" y="295" width="30" height="30" fill="hsl(240 100% 89.34641182688732%)" />
  <rect x="205" y="295" width="30" height="30" fill="hsl(240 100% 99.48547666591703%)" />
  <rect x="240" y="295" width="30" height="30" fill="hsl(240 100% 50.790829800012375%)" />
  <rect x="275" y="295" width="30" height="30" fill="hsl(240 100% 50%)" />
  <rect x="310" y="295" width="30" height="30" fill="hsl(240 100% 99.50213521179177%)" />
  <rect x="345" y="295" width="30" height="30" fill="hsl(240 100% 94.73743246997918%)" />
  <rect x="415" y="295" width="30" height="30" fill="hsl(240 100% 55.38851840140826%)" />
  <rect x="450" y="295" width="30" height="30" fill="hsl(240 100% 99.33908083203572%)" />
  <rect x="485" y="295" width="30" height="30" fill="hsl(240 100% 88.75493861764228%)" />
  <rect x="520" y="295" width="30" height="30" fill="hsl(240 100% 58.02238783986307%)" />
  <rect x="695" y="295" width="30" height="30" fill="hsl(240 100% 97.61923203643785%)" />
  <rect x="800" y="295" width="30" height="30" fill="hsl(240 100% 99.5746463719917%)" />
  <rect x="835" y="295" width="30" height="30" fill="hsl(240 100% 99.9566929952891%)" />
  <rect x="65" y="330" width="30" height="30" fill="hsl(240 100% 87.36351375196641%)" />
  <rect x="100" y="330" width="30" height="30" fill="hsl(240 100% 94.26453940025092%)" />
  <rect x="135" y="330" width="30" height="30" fill="hsl(240 100% 97.06026673013287%)" />
  <rect x="170" y="330" width="30" height="30" fill="hsl(240 100% 86.88010279559406%)" />
  <rect x="205" y="330" width="30" height="30" fill="hsl(240 100% 99.2035247451603%)" />
  <rect x="240" y="330" width="30" height="30" fill="hsl(240 100% 79.28638958756261%)" />
  <rect x="275" y="330" width="30" height="30" fill="hsl(240 100% 87.66552996786976%)" />
  <rect x="310" y="330" width="30" height="30" fill="rgb(255 255 255 / 50%)" />
  <rect x="345" y="330" width="30" height="30" fill="hsl(240 100% 97.2045653953263%)" />
  <rect x="415" y="330" width="30" height="30" fill="hsl(240 100% 85.54062479518015%)" />
  <rect x="450" y="330" width="30" height="30" fill="hsl(240 100% 99.80967157829528%)" />
  <rect x="485" y="330" width="30" height="30" fill="hsl(240 100% 71.41313052153704%)" />
  <rect x="520" y="330" width="30" height="30" fill="hsl(240 100% 70.49946835929438%)" />
  <rect x="590" y="330" width="30" height="30" fill="hsl(240 100% 93.71078894314232%)" />
  <rect x="625" y="330" width="30" height="30" fill="hsl(240 100% 50%)" />
  <rect x="765" y="330" width="30" height="30" fill="hsl(240 100% 94.1101229875536%)" />
  <rect x="800" y="330" width="30" height="30" fill="hsl(240 100% 99.21734361030545%)" />
  <rect x="835" y="330" width="30" height="30" fill="hsl(240 100% 80.91680510031699%)" />
  <rect x="65" y="365" width="30" height="30" fill="hsl(240 100% 51.06191482351316%)" />
  <rect x="100" y="365" width="30" height="30" fill="hsl(240 100% 67.25104847127602%)" />
  <rect x="135" y="365" width="30" height="30" fill="hsl(240 100% 79.49453086354731%)" />
  <rect x="170" y="365" width="30" height="30" fill="hsl(240 100% 50%)" />
  <rect x="205" y="365" width="30" height="30" fill="hsl(240 100% 95.53839017982018%)" />
  <rect x="240" y="365" width="30" height="30" fill="hsl(240 100% 52.79011557185234%)" />
  <rect x="275" y="365" width="30" height="30" fill="hsl(240 100% 91.72917064478885%)" />
  <rect x="310" y="365" width="30" height="30" fill="hsl(240 100% 99.8401377247391%)" />
  <rect x="415" y="365" width="30" height="30" fill="hsl(240 100% 61.538072154508896%)" />
  <rect x="520" y="365" width="30" height="30" fill="hsl(240 100% 84.208627174094%)" />
  <rect x="625" y="365" width="30" height="30" fill="hsl(240 100% 99.5753716896807%)" />
  <rect x="730" y="365" width="30" height="30" fill="hsl(240 100% 57.85560175732224%)" />
  <rect x="765" y="365" width="30" height="30" fill="hsl(240 100% 97.89329392705812%)" />
  <rect x="835" y="365" width="30" height="30" fill="hsl(240 100% 98.55381866040364%)" />
  <rect x="65" y="400" width="30" height="30" fill="hsl(240 100% 98.15748626253229%)" />
  <rect x="100" y="400" width="30" height="30" fill="hsl(240 100% 99.41393572416648%)" />
  <rect x="135" y="400" width="30" height="30" fill="hsl(240 100% 99.66481093835871%)" />
  <rect x="170" y="400" width="30" height="30" fill="hsl(240 100% 94.0025285893981%)" />
  <rect x="205" y="400" width="30" height="30" fill="hsl(240 100% 99.24486653914899%)" />
  <rect x="240" y="400" width="30" height="30" fill="hsl(240 100% 86.99460619759058%)" />
  <rect x="275" y="400" width="30" height="30" fill="hsl(240 100% 95.33867125539786%)" />
  <rect x="310" y="400" width="30" height="30" fill="rgb(255 255 255 / 50%)" />
  <rect x="380" y="400" width="30" height="30" fill="rgb(255 255 255 / 50%)" />
  <rect x="415" y="400" width="30" height="30" fill="hsl(240 100% 94.05312431820056%)" />
  <rect x="450" y="400" width="30" height="30" fill="hsl(240 100% 99.973894161402%)" />
  <rect x="485" y="400" width="30" height="30" fill="hsl(240 100% 78.64389247914133%)" />
  <rect x="520" y="400" width="30" height="30" fill="hsl(240 100% 50%)" />
  <rect x="555" y="400" width="30" height="30" fill="hsl(240 100% 99.12281985148697%)" />
  <rect x="660" y="400" width="30" height="30" fill="rgb(255 255 255 / 50%)" />
  <rect x="835" y="400" width="30" height="30" fill="hsl(240 100% 99.16861409852467%)" />
  <rect x="65" y="435" width="30" height="30" fill="hsl(240 100% 93.30592841546138%)" />
  <rect x="240" y="435" width="30" height="30" fill="hsl(240 100% 50%)" />
  <rect x="310" y="435" width="30" height="30" fill="hsl(240 100% 93.85695137871022%)" />
  <rect x="415" y="435" width="30" height="30" fill="hsl(240 100% 87.04899588224716%)" />
  <rect x="450" y="435" width="30" height="30" fill="hsl(240 100% 99.78876806486123%)" />
  <rect x="65" y="470" width="30" height="30" fill="hsl(240 100% 50%)" />
  <rect x="240" y="470" width="30" height="30" fill="hsl(240 100% 50.10242187163295%)" />
  <rect x="310" y="470" width="30" height="30" fill="hsl(240 100% 96.96751109443167%)" />
  <rect x="415" y="470" width="30" height="30" fill="hsl(240 100% 88.97646725738659%)" />
  <rect x="450" y="470" width="30" height="30" fill="hsl(240 100% 99.56891843656338%)" />
</svg>
