<svg xmlns="http://www.w3.org/2000/svg" viewBox="0 0 870 505">
  <rect x="0" y="0" width="870" height="505" rx="5" ry="5" fill="#222" />
  <text x="60" y="100" fill="white" font-family="sans-serif" font-weight="bold" font-size="12" text-anchor="end" dominant-baseline="middle">ba</text>
  <text x="60" y="135" fill="white" font-family="sans-serif" font-weight="bold" font-size="12" text-anchor="end" dominant-baseline="middle">det</text>
  <text x="60" y="170" fill="white" font-family="sans-serif" font-weight="bold" font-size="12" text-anchor="end" dominant-baseline="middle">gmm</text>
  <text x="60" y="205" fill="white" font-family="sans-serif" font-weight="bold" font-size="12" text-anchor="end" dominant-baseline="middle">hello</text>
  <text x="60" y="240" fill="white" font-family="sans-serif" font-weight="bold" font-size="12" text-anchor="end" dominant-baseline="middle">ht</text>
  <text x="60" y="275" fill="white" font-family="sans-serif" font-weight="bold" font-size="12" text-anchor="end" dominant-baseline="middle">kmeans</text>
  <text x="60" y="310" fill="white" font-family="sans-serif" font-weight="bold" font-size="12" text-anchor="end" dominant-baseline="middle">llsq</text>
  <text x="60" y="345" fill="white" font-family="sans-serif" font-weight="bold" font-size="12" text-anchor="end" dominant-baseline="middle">lse</text>
  <text x="60" y="380" fill="white" font-family="sans-serif" font-weight="bold" font-size="12" text-anchor="end" dominant-baseline="middle">lstm</text>
  <text x="60" y="415" fill="white" font-family="sans-serif" font-weight="bold" font-size="12" text-anchor="end" dominant-baseline="middle">ode</text>
  <text x="60" y="450" fill="white" font-family="sans-serif" font-weight="bold" font-size="12" text-anchor="end" dominant-baseline="middle">particle</text>
  <text x="60" y="485" fill="white" font-family="sans-serif" font-weight="bold" font-size="12" text-anchor="end" dominant-baseline="middle">saddle</text>
  <text x="80" y="80" fill="white" font-family="sans-serif" font-weight="bold" font-size="12" text-anchor="end" dominant-baseline="middle" transform="rotate(90 80 80)">ad-hpp</text>
  <text x="115" y="80" fill="white" font-family="sans-serif" font-weight="bold" font-size="12" text-anchor="end" dominant-baseline="middle" transform="rotate(90 115 80)">adept</text>
  <text x="150" y="80" fill="white" font-family="sans-serif" font-weight="bold" font-size="12" text-anchor="end" dominant-baseline="middle" transform="rotate(90 150 80)">adol-c</text>
  <text x="185" y="80" fill="white" font-family="sans-serif" font-weight="bold" font-size="12" text-anchor="end" dominant-baseline="middle" transform="rotate(90 185 80)">codipack</text>
  <text x="220" y="80" fill="white" font-family="sans-serif" font-weight="bold" font-size="12" text-anchor="end" dominant-baseline="middle" transform="rotate(90 220 80)">cppad</text>
  <text x="255" y="80" fill="white" font-family="sans-serif" font-weight="bold" font-size="12" text-anchor="end" dominant-baseline="middle" transform="rotate(90 255 80)">enzyme</text>
  <text x="290" y="80" fill="white" font-family="sans-serif" font-weight="bold" font-size="12" text-anchor="end" dominant-baseline="middle" transform="rotate(90 290 80)">enzyme-jl</text>
  <text x="325" y="80" fill="white" font-family="sans-serif" font-weight="bold" font-size="12" text-anchor="end" dominant-baseline="middle" transform="rotate(90 325 80)">finite</text>
  <text x="360" y="80" fill="white" font-family="sans-serif" font-weight="bold" font-size="12" text-anchor="end" dominant-baseline="middle" transform="rotate(90 360 80)">floretta</text>
  <text x="395" y="80" fill="white" font-family="sans-serif" font-weight="bold" font-size="12" text-anchor="end" dominant-baseline="middle" transform="rotate(90 395 80)">forwarddiff-jl</text>
  <text x="430" y="80" fill="white" font-family="sans-serif" font-weight="bold" font-size="12" text-anchor="end" dominant-baseline="middle" transform="rotate(90 430 80)">futhark</text>
  <text x="465" y="80" fill="white" font-family="sans-serif" font-weight="bold" font-size="12" text-anchor="end" dominant-baseline="middle" transform="rotate(90 465 80)">haskell</text>
  <text x="500" y="80" fill="white" font-family="sans-serif" font-weight="bold" font-size="12" text-anchor="end" dominant-baseline="middle" transform="rotate(90 500 80)">jax</text>
  <text x="535" y="80" fill="white" font-family="sans-serif" font-weight="bold" font-size="12" text-anchor="end" dominant-baseline="middle" transform="rotate(90 535 80)">manual</text>
  <text x="570" y="80" fill="white" font-family="sans-serif" font-weight="bold" font-size="12" text-anchor="end" dominant-baseline="middle" transform="rotate(90 570 80)">mooncake-jl</text>
  <text x="605" y="80" fill="white" font-family="sans-serif" font-weight="bold" font-size="12" text-anchor="end" dominant-baseline="middle" transform="rotate(90 605 80)">ocaml</text>
  <text x="640" y="80" fill="white" font-family="sans-serif" font-weight="bold" font-size="12" text-anchor="end" dominant-baseline="middle" transform="rotate(90 640 80)">pytorch</text>
  <text x="675" y="80" fill="white" font-family="sans-serif" font-weight="bold" font-size="12" text-anchor="end" dominant-baseline="middle" transform="rotate(90 675 80)">reversediff-jl</text>
  <text x="710" y="80" fill="white" font-family="sans-serif" font-weight="bold" font-size="12" text-anchor="end" dominant-baseline="middle" transform="rotate(90 710 80)">scilean</text>
  <text x="745" y="80" fill="white" font-family="sans-serif" font-weight="bold" font-size="12" text-anchor="end" dominant-baseline="middle" transform="rotate(90 745 80)">tapenade</text>
  <text x="780" y="80" fill="white" font-family="sans-serif" font-weight="bold" font-size="12" text-anchor="end" dominant-baseline="middle" transform="rotate(90 780 80)">tensorflow</text>
  <text x="815" y="80" fill="white" font-family="sans-serif" font-weight="bold" font-size="12" text-anchor="end" dominant-baseline="middle" transform="rotate(90 815 80)">tensorflow-js</text>
  <text x="850" y="80" fill="white" font-family="sans-serif" font-weight="bold" font-size="12" text-anchor="end" dominant-baseline="middle" transform="rotate(90 850 80)">zygote</text>
  <rect x="65" y="85" width="30" height="30" fill="hsl(240 100% 80.96114021667901%)" />
  <rect x="100" y="85" width="30" height="30" fill="hsl(240 100% 82.78331701792277%)" />
  <rect x="135" y="85" width="30" height="30" fill="hsl(240 100% 98.00585473081577%)" />
  <rect x="170" y="85" width="30" height="30" fill="hsl(240 100% 82.78287721237396%)" />
  <rect x="205" y="85" width="30" height="30" fill="hsl(240 100% 99.00242405282553%)" />
  <rect x="240" y="85" width="30" height="30" fill="hsl(240 100% 51.83073935117356%)" />
  <rect x="310" y="85" width="30" height="30" fill="hsl(240 100% 93.37238741013648%)" />
  <rect x="415" y="85" width="30" height="30" fill="hsl(240 100% 68.39346832861538%)" />
  <rect x="520" y="85" width="30" height="30" fill="hsl(240 100% 50%)" />
  <rect x="625" y="85" width="30" height="30" fill="rgb(255 255 255 / 50%)" />
  <rect x="730" y="85" width="30" height="30" fill="hsl(240 100% 75.02101181562523%)" />
  <rect x="765" y="85" width="30" height="30" fill="rgb(255 255 255 / 50%)" />
  <rect x="835" y="85" width="30" height="30" fill="hsl(240 100% 99.73388330234424%)" />
  <rect x="65" y="120" width="30" height="30" fill="hsl(240 100% 50%)" />
  <rect x="100" y="120" width="30" height="30" fill="hsl(240 100% 82.62095948295323%)" />
  <rect x="135" y="120" width="30" height="30" fill="hsl(240 100% 85.7171039114897%)" />
  <rect x="170" y="120" width="30" height="30" fill="hsl(240 100% 52.04343175804107%)" />
  <rect x="205" y="120" width="30" height="30" fill="hsl(240 100% 92.52110305714828%)" />
  <rect x="240" y="120" width="30" height="30" fill="hsl(240 100% 91.55834140402585%)" />
  <rect x="275" y="120" width="30" height="30" fill="hsl(240 100% 99.37614354665467%)" />
  <rect x="310" y="120" width="30" height="30" fill="hsl(240 100% 98.98579666653482%)" />
  <rect x="380" y="120" width="30" height="30" fill="hsl(240 100% 93.3793435646892%)" />
  <rect x="415" y="120" width="30" height="30" fill="hsl(240 100% 94.56479466644569%)" />
  <rect x="450" y="120" width="30" height="30" fill="hsl(240 100% 97.86610792362144%)" />
  <rect x="520" y="120" width="30" height="30" fill="hsl(240 100% 79.65688313848361%)" />
  <rect x="555" y="120" width="30" height="30" fill="hsl(240 100% 90.27455192205267%)" />
  <rect x="660" y="120" width="30" height="30" fill="rgb(255 255 255 / 50%)" />
  <rect x="835" y="120" width="30" height="30" fill="rgb(255 255 255 / 50%)" />
  <rect x="65" y="155" width="30" height="30" fill="hsl(240 100% 98.61248347920639%)" />
  <rect x="100" y="155" width="30" height="30" fill="hsl(240 100% 98.81265286263715%)" />
  <rect x="135" y="155" width="30" height="30" fill="hsl(240 100% 99.12050437136493%)" />
  <rect x="170" y="155" width="30" height="30" fill="hsl(240 100% 98.08425437545313%)" />
  <rect x="205" y="155" width="30" height="30" fill="hsl(240 100% 99.85236587221361%)" />
  <rect x="240" y="155" width="30" height="30" fill="hsl(240 100% 91.20111993154946%)" />
  <rect x="275" y="155" width="30" height="30" fill="hsl(240 100% 92.64412895960933%)" />
  <rect x="310" y="155" width="30" height="30" fill="rgb(255 255 255 / 50%)" />
  <rect x="415" y="155" width="30" height="30" fill="hsl(240 100% 92.98001180702097%)" />
  <rect x="485" y="155" width="30" height="30" fill="hsl(240 100% 50%)" />
  <rect x="520" y="155" width="30" height="30" fill="hsl(240 100% 83.52560762542802%)" />
  <rect x="590" y="155" width="30" height="30" fill="hsl(240 100% 99.58320240368667%)" />
  <rect x="625" y="155" width="30" height="30" fill="hsl(240 100% 66.80449433113996%)" />
  <rect x="695" y="155" width="30" height="30" fill="hsl(240 100% 95.48379602566102%)" />
  <rect x="730" y="155" width="30" height="30" fill="hsl(240 100% 83.9130078192856%)" />
  <rect x="765" y="155" width="30" height="30" fill="hsl(240 100% 99.57932104449728%)" />
  <rect x="835" y="155" width="30" height="30" fill="hsl(240 100% 96.44431659046698%)" />
  <rect x="65" y="190" width="30" height="30" fill="hsl(240 100% 50%)" />
  <rect x="100" y="190" width="30" height="30" fill="hsl(240 100% 50%)" />
  <rect x="135" y="190" width="30" height="30" fill="hsl(240 100% 50%)" />
  <rect x="170" y="190" width="30" height="30" fill="hsl(240 100% 50%)" />
  <rect x="205" y="190" width="30" height="30" fill="hsl(240 100% 50%)" />
  <rect x="240" y="190" width="30" height="30" fill="hsl(240 100% 50%)" />
  <rect x="275" y="190" width="30" height="30" fill="hsl(240 100% 50%)" />
  <rect x="310" y="190" width="30" height="30" fill="hsl(240 100% 50%)" />
  <rect x="345" y="190" width="30" height="30" fill="hsl(240 100% 50%)" />
  <rect x="380" y="190" width="30" height="30" fill="hsl(240 100% 50%)" />
  <rect x="415" y="190" width="30" height="30" fill="hsl(240 100% 50%)" />
  <rect x="450" y="190" width="30" height="30" fill="hsl(240 100% 50%)" />
  <rect x="485" y="190" width="30" height="30" fill="hsl(240 100% 50%)" />
  <rect x="520" y="190" width="30" height="30" fill="hsl(240 100% 50%)" />
  <rect x="555" y="190" width="30" height="30" fill="hsl(240 100% 50%)" />
  <rect x="590" y="190" width="30" height="30" fill="hsl(240 100% 50%)" />
  <rect x="625" y="190" width="30" height="30" fill="hsl(240 100% 50%)" />
  <rect x="660" y="190" width="30" height="30" fill="hsl(240 100% 50%)" />
  <rect x="695" y="190" width="30" height="30" fill="hsl(240 100% 50%)" />
  <rect x="730" y="190" width="30" height="30" fill="hsl(240 100% 50%)" />
  <rect x="765" y="190" width="30" height="30" fill="hsl(240 100% 50%)" />
  <rect x="800" y="190" width="30" height="30" fill="hsl(240 100% 50%)" />
  <rect x="835" y="190" width="30" height="30" fill="hsl(240 100% 50%)" />
  <rect x="100" y="225" width="30" height="30" fill="hsl(240 100% 96.60103198189123%)" />
  <rect x="135" y="225" width="30" height="30" fill="hsl(240 100% 88.90370730906378%)" />
  <rect x="170" y="225" width="30" height="30" fill="hsl(240 100% 88.9714427769201%)" />
  <rect x="240" y="225" width="30" height="30" fill="hsl(240 100% 91.04555539598546%)" />
  <rect x="310" y="225" width="30" height="30" fill="rgb(255 255 255 / 50%)" />
  <rect x="415" y="225" width="30" height="30" fill="hsl(240 100% 90.28918895351333%)" />
  <rect x="520" y="225" width="30" height="30" fill="hsl(240 100% 50%)" />
  <rect x="625" y="225" width="30" height="30" fill="rgb(255 255 255 / 50%)" />
  <rect x="730" y="225" width="30" height="30" fill="hsl(240 100% 93.0384611219252%)" />
  <rect x="765" y="225" width="30" height="30" fill="rgb(255 255 255 / 50%)" />
  <rect x="835" y="225" width="30" height="30" fill="hsl(240 100% 93.86830265159757%)" />
  <rect x="65" y="260" width="30" height="30" fill="hsl(240 100% 99.86821254055977%)" />
  <rect x="135" y="260" width="30" height="30" fill="hsl(240 100% 99.87737657228548%)" />
  <rect x="170" y="260" width="30" height="30" fill="hsl(240 100% 98.90888237728804%)" />
  <rect x="205" y="260" width="30" height="30" fill="rgb(255 255 255 / 50%)" />
  <rect x="240" y="260" width="30" height="30" fill="hsl(240 100% 87.16768262402299%)" />
  <rect x="310" y="260" width="30" height="30" fill="rgb(255 255 255 / 50%)" />
  <rect x="415" y="260" width="30" height="30" fill="hsl(240 100% 80.97598597282673%)" />
  <rect x="450" y="260" width="30" height="30" fill="rgb(255 255 255 / 50%)" />
  <rect x="485" y="260" width="30" height="30" fill="hsl(240 100% 50%)" />
  <rect x="520" y="260" width="30" height="30" fill="hsl(240 100% 71.46076947903323%)" />
  <rect x="625" y="260" width="30" height="30" fill="hsl(240 100% 97.008630784882%)" />
  <rect x="695" y="260" width="30" height="30" fill="hsl(240 100% 94.18555627502778%)" />
  <rect x="65" y="295" width="30" height="30" fill="hsl(240 100% 85.79776251125008%)" />
  <rect x="100" y="295" width="30" height="30" fill="hsl(240 100% 97.42539460847338%)" />
  <rect x="135" y="295" width="30" height="30" fill="hsl(240 100% 94.99763456499318%)" />
  <rect x="170" y="295" width="30" height="30" fill="hsl(240 100% 90.52070835842984%)" />
  <rect x="205" y="295" width="30" height="30" fill="hsl(240 100% 99.46433556307187%)" />
  <rect x="240" y="295" width="30" height="30" fill="hsl(240 100% 50.1413185898467%)" />
  <rect x="275" y="295" width="30" height="30" fill="hsl(240 100% 50%)" />
  <rect x="310" y="295" width="30" height="30" fill="hsl(240 100% 99.4924477298744%)" />
  <rect x="345" y="295" width="30" height="30" fill="hsl(240 100% 94.64386707137838%)" />
  <rect x="415" y="295" width="30" height="30" fill="hsl(240 100% 54.59078296136174%)" />
  <rect x="450" y="295" width="30" height="30" fill="hsl(240 100% 99.315388885277%)" />
  <rect x="485" y="295" width="30" height="30" fill="hsl(240 100% 88.28788638499374%)" />
  <rect x="520" y="295" width="30" height="30" fill="hsl(240 100% 57.26377871395779%)" />
  <rect x="695" y="295" width="30" height="30" fill="hsl(240 100% 97.57614919305797%)" />
  <rect x="800" y="295" width="30" height="30" fill="hsl(240 100% 99.56595067047768%)" />
  <rect x="835" y="295" width="30" height="30" fill="hsl(240 100% 99.95211118447264%)" />
  <rect x="65" y="330" width="30" height="30" fill="hsl(240 100% 87.23372468081871%)" />
  <rect x="100" y="330" width="30" height="30" fill="hsl(240 100% 93.98592687503792%)" />
  <rect x="135" y="330" width="30" height="30" fill="hsl(240 100% 96.77500280617424%)" />
  <rect x="170" y="330" width="30" height="30" fill="hsl(240 100% 86.96078667102203%)" />
  <rect x="205" y="330" width="30" height="30" fill="hsl(240 100% 99.1070236753771%)" />
  <rect x="240" y="330" width="30" height="30" fill="hsl(240 100% 76.70026879732879%)" />
  <rect x="275" y="330" width="30" height="30" fill="hsl(240 100% 86.57244432262353%)" />
  <rect x="310" y="330" width="30" height="30" fill="rgb(255 255 255 / 50%)" />
  <rect x="345" y="330" width="30" height="30" fill="hsl(240 100% 96.8952090691575%)" />
  <rect x="415" y="330" width="30" height="30" fill="hsl(240 100% 84.18901529986104%)" />
  <rect x="450" y="330" width="30" height="30" fill="hsl(240 100% 99.78302633626835%)" />
  <rect x="485" y="330" width="30" height="30" fill="hsl(240 100% 67.28581727068855%)" />
  <rect x="520" y="330" width="30" height="30" fill="hsl(240 100% 73.65981183148482%)" />
  <rect x="590" y="330" width="30" height="30" fill="hsl(240 100% 93.11112792469942%)" />
  <rect x="625" y="330" width="30" height="30" fill="hsl(240 100% 50%)" />
  <rect x="765" y="330" width="30" height="30" fill="hsl(240 100% 93.7996093993283%)" />
  <rect x="800" y="330" width="30" height="30" fill="hsl(240 100% 99.11231745727821%)" />
  <rect x="835" y="330" width="30" height="30" fill="hsl(240 100% 77.7162619199889%)" />
  <rect x="65" y="365" width="30" height="30" fill="hsl(240 100% 56.87380750965454%)" />
  <rect x="100" y="365" width="30" height="30" fill="hsl(240 100% 71.61283601892532%)" />
  <rect x="135" y="365" width="30" height="30" fill="hsl(240 100% 82.26354168219945%)" />
  <rect x="170" y="365" width="30" height="30" fill="hsl(240 100% 50%)" />
  <rect x="205" y="365" width="30" height="30" fill="hsl(240 100% 96.21609151203583%)" />
  <rect x="240" y="365" width="30" height="30" fill="hsl(240 100% 59.551717431921524%)" />
  <rect x="275" y="365" width="30" height="30" fill="hsl(240 100% 92.2898124257342%)" />
  <rect x="310" y="365" width="30" height="30" fill="hsl(240 100% 99.86155974646348%)" />
  <rect x="415" y="365" width="30" height="30" fill="hsl(240 100% 66.01612339989555%)" />
  <rect x="520" y="365" width="30" height="30" fill="hsl(240 100% 85.93629360129654%)" />
  <rect x="625" y="365" width="30" height="30" fill="hsl(240 100% 99.62755825797397%)" />
  <rect x="730" y="365" width="30" height="30" fill="hsl(240 100% 63.376867431526584%)" />
  <rect x="765" y="365" width="30" height="30" fill="hsl(240 100% 98.1377940324532%)" />
  <rect x="835" y="365" width="30" height="30" fill="hsl(240 100% 98.70614195941852%)" />
  <rect x="65" y="400" width="30" height="30" fill="hsl(240 100% 98.44990866222248%)" />
  <rect x="100" y="400" width="30" height="30" fill="hsl(240 100% 99.40046597939882%)" />
  <rect x="135" y="400" width="30" height="30" fill="hsl(240 100% 99.66482619466412%)" />
  <rect x="170" y="400" width="30" height="30" fill="hsl(240 100% 95.28539612959571%)" />
  <rect x="205" y="400" width="30" height="30" fill="hsl(240 100% 99.21261576032344%)" />
  <rect x="240" y="400" width="30" height="30" fill="hsl(240 100% 88.31641161522825%)" />
  <rect x="275" y="400" width="30" height="30" fill="hsl(240 100% 95.20860565798422%)" />
  <rect x="310" y="400" width="30" height="30" fill="rgb(255 255 255 / 50%)" />
  <rect x="380" y="400" width="30" height="30" fill="rgb(255 255 255 / 50%)" />
  <rect x="415" y="400" width="30" height="30" fill="hsl(240 100% 93.83920007077609%)" />
  <rect x="450" y="400" width="30" height="30" fill="hsl(240 100% 99.96951609577637%)" />
  <rect x="485" y="400" width="30" height="30" fill="hsl(240 100% 78.2183454144079%)" />
  <rect x="520" y="400" width="30" height="30" fill="hsl(240 100% 50%)" />
  <rect x="555" y="400" width="30" height="30" fill="hsl(240 100% 99.08802551366094%)" />
  <rect x="660" y="400" width="30" height="30" fill="rgb(255 255 255 / 50%)" />
  <rect x="835" y="400" width="30" height="30" fill="hsl(240 100% 99.206819011024%)" />
  <rect x="65" y="435" width="30" height="30" fill="hsl(240 100% 92.83944380908774%)" />
  <rect x="240" y="435" width="30" height="30" fill="hsl(240 100% 50%)" />
  <rect x="310" y="435" width="30" height="30" fill="hsl(240 100% 94.34085446663742%)" />
  <rect x="415" y="435" width="30" height="30" fill="hsl(240 100% 87.0547945024228%)" />
  <rect x="450" y="435" width="30" height="30" fill="hsl(240 100% 99.77599798821227%)" />
  <rect x="65" y="470" width="30" height="30" fill="hsl(240 100% 50%)" />
  <rect x="240" y="470" width="30" height="30" fill="hsl(240 100% 50.56190597698942%)" />
  <rect x="310" y="470" width="30" height="30" fill="hsl(240 100% 97.14826392066635%)" />
  <rect x="415" y="470" width="30" height="30" fill="hsl(240 100% 89.1909786027528%)" />
  <rect x="450" y="470" width="30" height="30" fill="hsl(240 100% 99.57658140204485%)" />
</svg>
