<svg xmlns="http://www.w3.org/2000/svg" viewBox="0 0 870 505">
  <rect x="0" y="0" width="870" height="505" rx="5" ry="5" fill="#222" />
  <text x="60" y="100" fill="white" font-family="sans-serif" font-weight="bold" font-size="12" text-anchor="end" dominant-baseline="middle">ba</text>
  <text x="60" y="135" fill="white" font-family="sans-serif" font-weight="bold" font-size="12" text-anchor="end" dominant-baseline="middle">det</text>
  <text x="60" y="170" fill="white" font-family="sans-serif" font-weight="bold" font-size="12" text-anchor="end" dominant-baseline="middle">gmm</text>
  <text x="60" y="205" fill="white" font-family="sans-serif" font-weight="bold" font-size="12" text-anchor="end" dominant-baseline="middle">hello</text>
  <text x="60" y="240" fill="white" font-family="sans-serif" font-weight="bold" font-size="12" text-anchor="end" dominant-baseline="middle">ht</text>
  <text x="60" y="275" fill="white" font-family="sans-serif" font-weight="bold" font-size="12" text-anchor="end" dominant-baseline="middle">kmeans</text>
  <text x="60" y="310" fill="white" font-family="sans-serif" font-weight="bold" font-size="12" text-anchor="end" dominant-baseline="middle">llsq</text>
  <text x="60" y="345" fill="white" font-family="sans-serif" font-weight="bold" font-size="12" text-anchor="end" dominant-baseline="middle">lse</text>
  <text x="60" y="380" fill="white" font-family="sans-serif" font-weight="bold" font-size="12" text-anchor="end" dominant-baseline="middle">lstm</text>
  <text x="60" y="415" fill="white" font-family="sans-serif" font-weight="bold" font-size="12" text-anchor="end" dominant-baseline="middle">ode</text>
  <text x="60" y="450" fill="white" font-family="sans-serif" font-weight="bold" font-size="12" text-anchor="end" dominant-baseline="middle">particle</text>
  <text x="60" y="485" fill="white" font-family="sans-serif" font-weight="bold" font-size="12" text-anchor="end" dominant-baseline="middle">saddle</text>
  <text x="80" y="80" fill="white" font-family="sans-serif" font-weight="bold" font-size="12" text-anchor="end" dominant-baseline="middle" transform="rotate(90 80 80)">ad-hpp</text>
  <text x="115" y="80" fill="white" font-family="sans-serif" font-weight="bold" font-size="12" text-anchor="end" dominant-baseline="middle" transform="rotate(90 115 80)">adept</text>
  <text x="150" y="80" fill="white" font-family="sans-serif" font-weight="bold" font-size="12" text-anchor="end" dominant-baseline="middle" transform="rotate(90 150 80)">adol-c</text>
  <text x="185" y="80" fill="white" font-family="sans-serif" font-weight="bold" font-size="12" text-anchor="end" dominant-baseline="middle" transform="rotate(90 185 80)">codipack</text>
  <text x="220" y="80" fill="white" font-family="sans-serif" font-weight="bold" font-size="12" text-anchor="end" dominant-baseline="middle" transform="rotate(90 220 80)">cppad</text>
  <text x="255" y="80" fill="white" font-family="sans-serif" font-weight="bold" font-size="12" text-anchor="end" dominant-baseline="middle" transform="rotate(90 255 80)">enzyme</text>
  <text x="290" y="80" fill="white" font-family="sans-serif" font-weight="bold" font-size="12" text-anchor="end" dominant-baseline="middle" transform="rotate(90 290 80)">enzyme-jl</text>
  <text x="325" y="80" fill="white" font-family="sans-serif" font-weight="bold" font-size="12" text-anchor="end" dominant-baseline="middle" transform="rotate(90 325 80)">finite</text>
  <text x="360" y="80" fill="white" font-family="sans-serif" font-weight="bold" font-size="12" text-anchor="end" dominant-baseline="middle" transform="rotate(90 360 80)">floretta</text>
  <text x="395" y="80" fill="white" font-family="sans-serif" font-weight="bold" font-size="12" text-anchor="end" dominant-baseline="middle" transform="rotate(90 395 80)">forwarddiff-jl</text>
  <text x="430" y="80" fill="white" font-family="sans-serif" font-weight="bold" font-size="12" text-anchor="end" dominant-baseline="middle" transform="rotate(90 430 80)">futhark</text>
  <text x="465" y="80" fill="white" font-family="sans-serif" font-weight="bold" font-size="12" text-anchor="end" dominant-baseline="middle" transform="rotate(90 465 80)">haskell</text>
  <text x="500" y="80" fill="white" font-family="sans-serif" font-weight="bold" font-size="12" text-anchor="end" dominant-baseline="middle" transform="rotate(90 500 80)">jax</text>
  <text x="535" y="80" fill="white" font-family="sans-serif" font-weight="bold" font-size="12" text-anchor="end" dominant-baseline="middle" transform="rotate(90 535 80)">manual</text>
  <text x="570" y="80" fill="white" font-family="sans-serif" font-weight="bold" font-size="12" text-anchor="end" dominant-baseline="middle" transform="rotate(90 570 80)">mooncake-jl</text>
  <text x="605" y="80" fill="white" font-family="sans-serif" font-weight="bold" font-size="12" text-anchor="end" dominant-baseline="middle" transform="rotate(90 605 80)">ocaml</text>
  <text x="640" y="80" fill="white" font-family="sans-serif" font-weight="bold" font-size="12" text-anchor="end" dominant-baseline="middle" transform="rotate(90 640 80)">pytorch</text>
  <text x="675" y="80" fill="white" font-family="sans-serif" font-weight="bold" font-size="12" text-anchor="end" dominant-baseline="middle" transform="rotate(90 675 80)">reversediff-jl</text>
  <text x="710" y="80" fill="white" font-family="sans-serif" font-weight="bold" font-size="12" text-anchor="end" dominant-baseline="middle" transform="rotate(90 710 80)">scilean</text>
  <text x="745" y="80" fill="white" font-family="sans-serif" font-weight="bold" font-size="12" text-anchor="end" dominant-baseline="middle" transform="rotate(90 745 80)">tapenade</text>
  <text x="780" y="80" fill="white" font-family="sans-serif" font-weight="bold" font-size="12" text-anchor="end" dominant-baseline="middle" transform="rotate(90 780 80)">tensorflow</text>
  <text x="815" y="80" fill="white" font-family="sans-serif" font-weight="bold" font-size="12" text-anchor="end" dominant-baseline="middle" transform="rotate(90 815 80)">tensorflow-js</text>
  <text x="850" y="80" fill="white" font-family="sans-serif" font-weight="bold" font-size="12" text-anchor="end" dominant-baseline="middle" transform="rotate(90 850 80)">zygote</text>
  <rect x="65" y="85" width="30" height="30" fill="hsl(240 100% 80.49930580088366%)" />
  <rect x="100" y="85" width="30" height="30" fill="hsl(240 100% 82.04119499181323%)" />
  <rect x="135" y="85" width="30" height="30" fill="hsl(240 100% 97.90584951747324%)" />
  <rect x="170" y="85" width="30" height="30" fill="hsl(240 100% 81.54410585281134%)" />
  <rect x="205" y="85" width="30" height="30" fill="hsl(240 100% 98.94158312737568%)" />
  <rect x="240" y="85" width="30" height="30" fill="hsl(240 100% 50%)" />
  <rect x="310" y="85" width="30" height="30" fill="hsl(240 100% 92.84635497285453%)" />
  <rect x="415" y="85" width="30" height="30" fill="hsl(240 100% 66.93926968494554%)" />
  <rect x="520" y="85" width="30" height="30" fill="hsl(240 100% 53.79397445929671%)" />
  <rect x="625" y="85" width="30" height="30" fill="rgb(255 255 255 / 50%)" />
  <rect x="730" y="85" width="30" height="30" fill="hsl(240 100% 73.82298906016007%)" />
  <rect x="765" y="85" width="30" height="30" fill="rgb(255 255 255 / 50%)" />
  <rect x="835" y="85" width="30" height="30" fill="hsl(240 100% 99.72320889464771%)" />
  <rect x="65" y="120" width="30" height="30" fill="hsl(240 100% 50%)" />
  <rect x="100" y="120" width="30" height="30" fill="hsl(240 100% 83.09616650587103%)" />
  <rect x="135" y="120" width="30" height="30" fill="hsl(240 100% 85.5367126541851%)" />
  <rect x="170" y="120" width="30" height="30" fill="hsl(240 100% 52.10343426384215%)" />
  <rect x="205" y="120" width="30" height="30" fill="hsl(240 100% 92.70316417641669%)" />
  <rect x="240" y="120" width="30" height="30" fill="hsl(240 100% 91.54860463514684%)" />
  <rect x="275" y="120" width="30" height="30" fill="hsl(240 100% 99.36056858748299%)" />
  <rect x="310" y="120" width="30" height="30" fill="hsl(240 100% 99.02076755649826%)" />
  <rect x="380" y="120" width="30" height="30" fill="hsl(240 100% 93.38881465454698%)" />
  <rect x="415" y="120" width="30" height="30" fill="hsl(240 100% 94.64688906317517%)" />
  <rect x="450" y="120" width="30" height="30" fill="hsl(240 100% 97.88431396708975%)" />
  <rect x="520" y="120" width="30" height="30" fill="hsl(240 100% 79.67073160662181%)" />
  <rect x="555" y="120" width="30" height="30" fill="hsl(240 100% 90.83631935833898%)" />
  <rect x="660" y="120" width="30" height="30" fill="rgb(255 255 255 / 50%)" />
  <rect x="835" y="120" width="30" height="30" fill="rgb(255 255 255 / 50%)" />
  <rect x="65" y="155" width="30" height="30" fill="hsl(240 100% 98.8260970801229%)" />
  <rect x="100" y="155" width="30" height="30" fill="hsl(240 100% 98.81089950577798%)" />
  <rect x="135" y="155" width="30" height="30" fill="hsl(240 100% 99.10734787153658%)" />
  <rect x="170" y="155" width="30" height="30" fill="hsl(240 100% 97.99900825633831%)" />
  <rect x="205" y="155" width="30" height="30" fill="hsl(240 100% 99.84871085966182%)" />
  <rect x="240" y="155" width="30" height="30" fill="hsl(240 100% 91.22962125603723%)" />
  <rect x="275" y="155" width="30" height="30" fill="hsl(240 100% 92.61938141265844%)" />
  <rect x="310" y="155" width="30" height="30" fill="rgb(255 255 255 / 50%)" />
  <rect x="415" y="155" width="30" height="30" fill="hsl(240 100% 92.99636974129565%)" />
  <rect x="485" y="155" width="30" height="30" fill="hsl(240 100% 50%)" />
  <rect x="520" y="155" width="30" height="30" fill="hsl(240 100% 82.2258341329919%)" />
  <rect x="590" y="155" width="30" height="30" fill="hsl(240 100% 99.58615140175057%)" />
  <rect x="625" y="155" width="30" height="30" fill="hsl(240 100% 68.0350967273878%)" />
  <rect x="695" y="155" width="30" height="30" fill="hsl(240 100% 95.43011760293908%)" />
  <rect x="730" y="155" width="30" height="30" fill="hsl(240 100% 83.63839249786264%)" />
  <rect x="765" y="155" width="30" height="30" fill="hsl(240 100% 99.5777245121311%)" />
  <rect x="835" y="155" width="30" height="30" fill="hsl(240 100% 96.44697643172874%)" />
  <rect x="65" y="190" width="30" height="30" fill="hsl(240 100% 50%)" />
  <rect x="100" y="190" width="30" height="30" fill="hsl(240 100% 50%)" />
  <rect x="135" y="190" width="30" height="30" fill="hsl(240 100% 50%)" />
  <rect x="170" y="190" width="30" height="30" fill="hsl(240 100% 50%)" />
  <rect x="205" y="190" width="30" height="30" fill="hsl(240 100% 50%)" />
  <rect x="240" y="190" width="30" height="30" fill="hsl(240 100% 50%)" />
  <rect x="275" y="190" width="30" height="30" fill="hsl(240 100% 50%)" />
  <rect x="310" y="190" width="30" height="30" fill="hsl(240 100% 50%)" />
  <rect x="345" y="190" width="30" height="30" fill="hsl(240 100% 50%)" />
  <rect x="380" y="190" width="30" height="30" fill="hsl(240 100% 50%)" />
  <rect x="415" y="190" width="30" height="30" fill="hsl(240 100% 50%)" />
  <rect x="450" y="190" width="30" height="30" fill="hsl(240 100% 50%)" />
  <rect x="485" y="190" width="30" height="30" fill="hsl(240 100% 50%)" />
  <rect x="520" y="190" width="30" height="30" fill="hsl(240 100% 50%)" />
  <rect x="555" y="190" width="30" height="30" fill="hsl(240 100% 50%)" />
  <rect x="590" y="190" width="30" height="30" fill="hsl(240 100% 50%)" />
  <rect x="625" y="190" width="30" height="30" fill="hsl(240 100% 50%)" />
  <rect x="660" y="190" width="30" height="30" fill="hsl(240 100% 50%)" />
  <rect x="695" y="190" width="30" height="30" fill="hsl(240 100% 50%)" />
  <rect x="730" y="190" width="30" height="30" fill="hsl(240 100% 50%)" />
  <rect x="765" y="190" width="30" height="30" fill="hsl(240 100% 50%)" />
  <rect x="800" y="190" width="30" height="30" fill="hsl(240 100% 50%)" />
  <rect x="835" y="190" width="30" height="30" fill="hsl(240 100% 50%)" />
  <rect x="100" y="225" width="30" height="30" fill="hsl(240 100% 96.34230025774394%)" />
  <rect x="135" y="225" width="30" height="30" fill="hsl(240 100% 86.44847284850923%)" />
  <rect x="170" y="225" width="30" height="30" fill="hsl(240 100% 88.4314854900371%)" />
  <rect x="240" y="225" width="30" height="30" fill="hsl(240 100% 90.39094013176089%)" />
  <rect x="310" y="225" width="30" height="30" fill="rgb(255 255 255 / 50%)" />
  <rect x="415" y="225" width="30" height="30" fill="hsl(240 100% 89.54288981690563%)" />
  <rect x="520" y="225" width="30" height="30" fill="hsl(240 100% 50%)" />
  <rect x="625" y="225" width="30" height="30" fill="rgb(255 255 255 / 50%)" />
  <rect x="730" y="225" width="30" height="30" fill="hsl(240 100% 92.53455509065834%)" />
  <rect x="765" y="225" width="30" height="30" fill="rgb(255 255 255 / 50%)" />
  <rect x="835" y="225" width="30" height="30" fill="hsl(240 100% 94.06274449578707%)" />
  <rect x="65" y="260" width="30" height="30" fill="hsl(240 100% 99.88300023982978%)" />
  <rect x="135" y="260" width="30" height="30" fill="hsl(240 100% 99.85709012646416%)" />
  <rect x="170" y="260" width="30" height="30" fill="hsl(240 100% 98.92053197376728%)" />
  <rect x="205" y="260" width="30" height="30" fill="rgb(255 255 255 / 50%)" />
  <rect x="240" y="260" width="30" height="30" fill="hsl(240 100% 87.11124568540482%)" />
  <rect x="310" y="260" width="30" height="30" fill="rgb(255 255 255 / 50%)" />
  <rect x="415" y="260" width="30" height="30" fill="hsl(240 100% 80.69450473249518%)" />
  <rect x="450" y="260" width="30" height="30" fill="rgb(255 255 255 / 50%)" />
  <rect x="485" y="260" width="30" height="30" fill="hsl(240 100% 50%)" />
  <rect x="520" y="260" width="30" height="30" fill="hsl(240 100% 72.32417669011326%)" />
  <rect x="625" y="260" width="30" height="30" fill="hsl(240 100% 96.97952929595996%)" />
  <rect x="695" y="260" width="30" height="30" fill="hsl(240 100% 94.10146516641241%)" />
  <rect x="65" y="295" width="30" height="30" fill="hsl(240 100% 85.81170425743815%)" />
  <rect x="100" y="295" width="30" height="30" fill="hsl(240 100% 97.49947728330363%)" />
  <rect x="135" y="295" width="30" height="30" fill="hsl(240 100% 95.12662329228405%)" />
  <rect x="170" y="295" width="30" height="30" fill="hsl(240 100% 89.36056379895558%)" />
  <rect x="205" y="295" width="30" height="30" fill="hsl(240 100% 99.50164576846193%)" />
  <rect x="240" y="295" width="30" height="30" fill="hsl(240 100% 50.36476556239023%)" />
  <rect x="275" y="295" width="30" height="30" fill="hsl(240 100% 50%)" />
  <rect x="310" y="295" width="30" height="30" fill="hsl(240 100% 99.49692097243367%)" />
  <rect x="345" y="295" width="30" height="30" fill="hsl(240 100% 94.67205364875231%)" />
  <rect x="415" y="295" width="30" height="30" fill="hsl(240 100% 54.99931179177493%)" />
  <rect x="450" y="295" width="30" height="30" fill="hsl(240 100% 99.33521420755304%)" />
  <rect x="485" y="295" width="30" height="30" fill="hsl(240 100% 88.12304535969348%)" />
  <rect x="520" y="295" width="30" height="30" fill="hsl(240 100% 57.6808200446538%)" />
  <rect x="695" y="295" width="30" height="30" fill="hsl(240 100% 97.59532381038191%)" />
  <rect x="800" y="295" width="30" height="30" fill="hsl(240 100% 99.5669638074386%)" />
  <rect x="835" y="295" width="30" height="30" fill="hsl(240 100% 99.95650492672294%)" />
  <rect x="65" y="330" width="30" height="30" fill="hsl(240 100% 87.24829966218391%)" />
  <rect x="100" y="330" width="30" height="30" fill="hsl(240 100% 94.38443276135634%)" />
  <rect x="135" y="330" width="30" height="30" fill="hsl(240 100% 96.9836663541654%)" />
  <rect x="170" y="330" width="30" height="30" fill="hsl(240 100% 87.00825981885397%)" />
  <rect x="205" y="330" width="30" height="30" fill="hsl(240 100% 99.20444037336834%)" />
  <rect x="240" y="330" width="30" height="30" fill="hsl(240 100% 79.7327660326094%)" />
  <rect x="275" y="330" width="30" height="30" fill="hsl(240 100% 88.45669375498288%)" />
  <rect x="310" y="330" width="30" height="30" fill="rgb(255 255 255 / 50%)" />
  <rect x="345" y="330" width="30" height="30" fill="hsl(240 100% 97.26187786322518%)" />
  <rect x="415" y="330" width="30" height="30" fill="hsl(240 100% 85.83786355529817%)" />
  <rect x="450" y="330" width="30" height="30" fill="hsl(240 100% 99.81141906986781%)" />
  <rect x="485" y="330" width="30" height="30" fill="hsl(240 100% 70.47054118733466%)" />
  <rect x="520" y="330" width="30" height="30" fill="hsl(240 100% 70.17879046956408%)" />
  <rect x="590" y="330" width="30" height="30" fill="hsl(240 100% 93.89362683320859%)" />
  <rect x="625" y="330" width="30" height="30" fill="hsl(240 100% 50%)" />
  <rect x="765" y="330" width="30" height="30" fill="hsl(240 100% 95.07698491207414%)" />
  <rect x="800" y="330" width="30" height="30" fill="hsl(240 100% 99.21194691332212%)" />
  <rect x="835" y="330" width="30" height="30" fill="hsl(240 100% 81.3679377585203%)" />
  <rect x="65" y="365" width="30" height="30" fill="hsl(240 100% 56.701164803073915%)" />
  <rect x="100" y="365" width="30" height="30" fill="hsl(240 100% 71.24068235549964%)" />
  <rect x="135" y="365" width="30" height="30" fill="hsl(240 100% 81.55469519402277%)" />
  <rect x="170" y="365" width="30" height="30" fill="hsl(240 100% 50%)" />
  <rect x="205" y="365" width="30" height="30" fill="hsl(240 100% 96.05271653736585%)" />
  <rect x="240" y="365" width="30" height="30" fill="hsl(240 100% 59.296897421702226%)" />
  <rect x="275" y="365" width="30" height="30" fill="hsl(240 100% 92.43277682653718%)" />
  <rect x="310" y="365" width="30" height="30" fill="hsl(240 100% 99.86125715294492%)" />
  <rect x="415" y="365" width="30" height="30" fill="hsl(240 100% 66.37398775023586%)" />
  <rect x="520" y="365" width="30" height="30" fill="hsl(240 100% 86.0699625642226%)" />
  <rect x="625" y="365" width="30" height="30" fill="hsl(240 100% 99.63412339370716%)" />
  <rect x="730" y="365" width="30" height="30" fill="hsl(240 100% 62.91168173511675%)" />
  <rect x="765" y="365" width="30" height="30" fill="hsl(240 100% 98.12987441544328%)" />
  <rect x="835" y="365" width="30" height="30" fill="hsl(240 100% 98.74757597224371%)" />
  <rect x="65" y="400" width="30" height="30" fill="hsl(240 100% 98.10631820696338%)" />
  <rect x="100" y="400" width="30" height="30" fill="hsl(240 100% 99.40707820118746%)" />
  <rect x="135" y="400" width="30" height="30" fill="hsl(240 100% 99.6562115898117%)" />
  <rect x="170" y="400" width="30" height="30" fill="hsl(240 100% 93.89267718581192%)" />
  <rect x="205" y="400" width="30" height="30" fill="hsl(240 100% 99.22789631478727%)" />
  <rect x="240" y="400" width="30" height="30" fill="hsl(240 100% 86.45785951575915%)" />
  <rect x="275" y="400" width="30" height="30" fill="hsl(240 100% 95.31648209018071%)" />
  <rect x="310" y="400" width="30" height="30" fill="rgb(255 255 255 / 50%)" />
  <rect x="380" y="400" width="30" height="30" fill="rgb(255 255 255 / 50%)" />
  <rect x="415" y="400" width="30" height="30" fill="hsl(240 100% 93.89932953974733%)" />
  <rect x="450" y="400" width="30" height="30" fill="hsl(240 100% 99.97174704245194%)" />
  <rect x="485" y="400" width="30" height="30" fill="hsl(240 100% 78.66501925107275%)" />
  <rect x="520" y="400" width="30" height="30" fill="hsl(240 100% 50%)" />
  <rect x="555" y="400" width="30" height="30" fill="hsl(240 100% 99.13325880918464%)" />
  <rect x="660" y="400" width="30" height="30" fill="rgb(255 255 255 / 50%)" />
  <rect x="835" y="400" width="30" height="30" fill="hsl(240 100% 99.12950472740722%)" />
  <rect x="65" y="435" width="30" height="30" fill="hsl(240 100% 93.31251304457291%)" />
  <rect x="240" y="435" width="30" height="30" fill="hsl(240 100% 50%)" />
  <rect x="310" y="435" width="30" height="30" fill="hsl(240 100% 93.85887720553396%)" />
  <rect x="415" y="435" width="30" height="30" fill="hsl(240 100% 86.98173967576875%)" />
  <rect x="450" y="435" width="30" height="30" fill="hsl(240 100% 99.78278095868133%)" />
  <rect x="65" y="470" width="30" height="30" fill="hsl(240 100% 50%)" />
  <rect x="240" y="470" width="30" height="30" fill="hsl(240 100% 50.33984949431765%)" />
  <rect x="310" y="470" width="30" height="30" fill="hsl(240 100% 96.99702144313885%)" />
  <rect x="415" y="470" width="30" height="30" fill="hsl(240 100% 89.07528779762627%)" />
  <rect x="450" y="470" width="30" height="30" fill="hsl(240 100% 99.57432445365949%)" />
</svg>
