<svg xmlns="http://www.w3.org/2000/svg" viewBox="0 0 660 470">
  <rect x="0" y="0" width="660" height="470" rx="5" ry="5" fill="#222" />
  <text x="60" y="100" fill="white" font-family="sans-serif" font-weight="bold" font-size="12" text-anchor="end" dominant-baseline="middle">ba</text>
  <text x="60" y="135" fill="white" font-family="sans-serif" font-weight="bold" font-size="12" text-anchor="end" dominant-baseline="middle">det</text>
  <text x="60" y="170" fill="white" font-family="sans-serif" font-weight="bold" font-size="12" text-anchor="end" dominant-baseline="middle">gmm</text>
  <text x="60" y="205" fill="white" font-family="sans-serif" font-weight="bold" font-size="12" text-anchor="end" dominant-baseline="middle">hello</text>
  <text x="60" y="240" fill="white" font-family="sans-serif" font-weight="bold" font-size="12" text-anchor="end" dominant-baseline="middle">ht</text>
  <text x="60" y="275" fill="white" font-family="sans-serif" font-weight="bold" font-size="12" text-anchor="end" dominant-baseline="middle">kmeans</text>
  <text x="60" y="310" fill="white" font-family="sans-serif" font-weight="bold" font-size="12" text-anchor="end" dominant-baseline="middle">llsq</text>
  <text x="60" y="345" fill="white" font-family="sans-serif" font-weight="bold" font-size="12" text-anchor="end" dominant-baseline="middle">lstm</text>
  <text x="60" y="380" fill="white" font-family="sans-serif" font-weight="bold" font-size="12" text-anchor="end" dominant-baseline="middle">ode</text>
  <text x="60" y="415" fill="white" font-family="sans-serif" font-weight="bold" font-size="12" text-anchor="end" dominant-baseline="middle">particle</text>
  <text x="60" y="450" fill="white" font-family="sans-serif" font-weight="bold" font-size="12" text-anchor="end" dominant-baseline="middle">saddle</text>
  <text x="80" y="80" fill="white" font-family="sans-serif" font-weight="bold" font-size="12" text-anchor="end" dominant-baseline="middle" transform="rotate(90 80 80)">adept</text>
  <text x="115" y="80" fill="white" font-family="sans-serif" font-weight="bold" font-size="12" text-anchor="end" dominant-baseline="middle" transform="rotate(90 115 80)">adol-c</text>
  <text x="150" y="80" fill="white" font-family="sans-serif" font-weight="bold" font-size="12" text-anchor="end" dominant-baseline="middle" transform="rotate(90 150 80)">codipack</text>
  <text x="185" y="80" fill="white" font-family="sans-serif" font-weight="bold" font-size="12" text-anchor="end" dominant-baseline="middle" transform="rotate(90 185 80)">cppad</text>
  <text x="220" y="80" fill="white" font-family="sans-serif" font-weight="bold" font-size="12" text-anchor="end" dominant-baseline="middle" transform="rotate(90 220 80)">enzyme</text>
  <text x="255" y="80" fill="white" font-family="sans-serif" font-weight="bold" font-size="12" text-anchor="end" dominant-baseline="middle" transform="rotate(90 255 80)">finite</text>
  <text x="290" y="80" fill="white" font-family="sans-serif" font-weight="bold" font-size="12" text-anchor="end" dominant-baseline="middle" transform="rotate(90 290 80)">floretta</text>
  <text x="325" y="80" fill="white" font-family="sans-serif" font-weight="bold" font-size="12" text-anchor="end" dominant-baseline="middle" transform="rotate(90 325 80)">futhark</text>
  <text x="360" y="80" fill="white" font-family="sans-serif" font-weight="bold" font-size="12" text-anchor="end" dominant-baseline="middle" transform="rotate(90 360 80)">haskell</text>
  <text x="395" y="80" fill="white" font-family="sans-serif" font-weight="bold" font-size="12" text-anchor="end" dominant-baseline="middle" transform="rotate(90 395 80)">jax</text>
  <text x="430" y="80" fill="white" font-family="sans-serif" font-weight="bold" font-size="12" text-anchor="end" dominant-baseline="middle" transform="rotate(90 430 80)">manual</text>
  <text x="465" y="80" fill="white" font-family="sans-serif" font-weight="bold" font-size="12" text-anchor="end" dominant-baseline="middle" transform="rotate(90 465 80)">ocaml</text>
  <text x="500" y="80" fill="white" font-family="sans-serif" font-weight="bold" font-size="12" text-anchor="end" dominant-baseline="middle" transform="rotate(90 500 80)">pytorch</text>
  <text x="535" y="80" fill="white" font-family="sans-serif" font-weight="bold" font-size="12" text-anchor="end" dominant-baseline="middle" transform="rotate(90 535 80)">scilean</text>
  <text x="570" y="80" fill="white" font-family="sans-serif" font-weight="bold" font-size="12" text-anchor="end" dominant-baseline="middle" transform="rotate(90 570 80)">tapenade</text>
  <text x="605" y="80" fill="white" font-family="sans-serif" font-weight="bold" font-size="12" text-anchor="end" dominant-baseline="middle" transform="rotate(90 605 80)">tensorflow</text>
  <text x="640" y="80" fill="white" font-family="sans-serif" font-weight="bold" font-size="12" text-anchor="end" dominant-baseline="middle" transform="rotate(90 640 80)">zygote</text>
  <rect x="65" y="85" width="30" height="30" fill="hsl(240 100% 83.65273252113742%)" />
  <rect x="100" y="85" width="30" height="30" fill="hsl(240 100% 97.83663753041819%)" />
  <rect x="135" y="85" width="30" height="30" fill="hsl(240 100% 89.13960909199287%)" />
  <rect x="205" y="85" width="30" height="30" fill="hsl(240 100% 51.22716157468085%)" />
  <rect x="240" y="85" width="30" height="30" fill="hsl(240 100% 92.74436319676471%)" />
  <rect x="310" y="85" width="30" height="30" fill="hsl(240 100% 68.83617423134065%)" />
  <rect x="415" y="85" width="30" height="30" fill="hsl(240 100% 50%)" />
  <rect x="485" y="85" width="30" height="30" fill="rgb(255 255 255 / 50%)" />
  <rect x="555" y="85" width="30" height="30" fill="hsl(240 100% 73.21828486948543%)" />
  <rect x="590" y="85" width="30" height="30" fill="rgb(255 255 255 / 50%)" />
  <rect x="65" y="120" width="30" height="30" fill="hsl(240 100% 89.31521464811189%)" />
  <rect x="100" y="120" width="30" height="30" fill="hsl(240 100% 90.07070865619177%)" />
  <rect x="135" y="120" width="30" height="30" fill="hsl(240 100% 67.42696590832443%)" />
  <rect x="170" y="120" width="30" height="30" fill="hsl(240 100% 50%)" />
  <rect x="205" y="120" width="30" height="30" fill="hsl(240 100% 94.44402589394427%)" />
  <rect x="240" y="120" width="30" height="30" fill="hsl(240 100% 99.32303025365289%)" />
  <rect x="310" y="120" width="30" height="30" fill="hsl(240 100% 96.48994683896407%)" />
  <rect x="345" y="120" width="30" height="30" fill="hsl(240 100% 98.650795431078%)" />
  <rect x="415" y="120" width="30" height="30" fill="hsl(240 100% 86.44713900108918%)" />
  <rect x="65" y="155" width="30" height="30" fill="hsl(240 100% 98.33278615273325%)" />
  <rect x="100" y="155" width="30" height="30" fill="hsl(240 100% 98.74460617430832%)" />
  <rect x="135" y="155" width="30" height="30" fill="hsl(240 100% 97.20848466447197%)" />
  <rect x="170" y="155" width="30" height="30" fill="rgb(255 255 255 / 50%)" />
  <rect x="205" y="155" width="30" height="30" fill="hsl(240 100% 86.85047780650484%)" />
  <rect x="240" y="155" width="30" height="30" fill="rgb(255 255 255 / 50%)" />
  <rect x="310" y="155" width="30" height="30" fill="hsl(240 100% 89.82005845818449%)" />
  <rect x="380" y="155" width="30" height="30" fill="hsl(240 100% 69.21703380531225%)" />
  <rect x="415" y="155" width="30" height="30" fill="hsl(240 100% 75.39402066680465%)" />
  <rect x="450" y="155" width="30" height="30" fill="hsl(240 100% 99.35343693669563%)" />
  <rect x="485" y="155" width="30" height="30" fill="hsl(240 100% 50%)" />
  <rect x="520" y="155" width="30" height="30" fill="hsl(240 100% 93.1548276328138%)" />
  <rect x="555" y="155" width="30" height="30" fill="hsl(240 100% 76.14201422118497%)" />
  <rect x="590" y="155" width="30" height="30" fill="hsl(240 100% 88.29063880513294%)" />
  <rect x="65" y="190" width="30" height="30" fill="hsl(240 100% 50%)" />
  <rect x="100" y="190" width="30" height="30" fill="hsl(240 100% 50%)" />
  <rect x="135" y="190" width="30" height="30" fill="hsl(240 100% 50%)" />
  <rect x="170" y="190" width="30" height="30" fill="hsl(240 100% 50%)" />
  <rect x="205" y="190" width="30" height="30" fill="hsl(240 100% 50%)" />
  <rect x="240" y="190" width="30" height="30" fill="hsl(240 100% 50%)" />
  <rect x="275" y="190" width="30" height="30" fill="hsl(240 100% 50%)" />
  <rect x="310" y="190" width="30" height="30" fill="hsl(240 100% 50%)" />
  <rect x="345" y="190" width="30" height="30" fill="hsl(240 100% 50%)" />
  <rect x="380" y="190" width="30" height="30" fill="hsl(240 100% 50%)" />
  <rect x="415" y="190" width="30" height="30" fill="hsl(240 100% 50%)" />
  <rect x="450" y="190" width="30" height="30" fill="hsl(240 100% 50%)" />
  <rect x="485" y="190" width="30" height="30" fill="hsl(240 100% 50%)" />
  <rect x="520" y="190" width="30" height="30" fill="hsl(240 100% 50%)" />
  <rect x="555" y="190" width="30" height="30" fill="hsl(240 100% 50%)" />
  <rect x="590" y="190" width="30" height="30" fill="hsl(240 100% 50%)" />
  <rect x="625" y="190" width="30" height="30" fill="hsl(240 100% 50%)" />
  <rect x="65" y="225" width="30" height="30" fill="hsl(240 100% 95.97278697177492%)" />
  <rect x="100" y="225" width="30" height="30" fill="hsl(240 100% 96.26375924767504%)" />
  <rect x="135" y="225" width="30" height="30" fill="hsl(240 100% 88.19974555518549%)" />
  <rect x="205" y="225" width="30" height="30" fill="hsl(240 100% 90.14002851896012%)" />
  <rect x="240" y="225" width="30" height="30" fill="rgb(255 255 255 / 50%)" />
  <rect x="310" y="225" width="30" height="30" fill="hsl(240 100% 89.51222085882148%)" />
  <rect x="415" y="225" width="30" height="30" fill="hsl(240 100% 50%)" />
  <rect x="485" y="225" width="30" height="30" fill="rgb(255 255 255 / 50%)" />
  <rect x="555" y="225" width="30" height="30" fill="rgb(255 255 255 / 50%)" />
  <rect x="590" y="225" width="30" height="30" fill="rgb(255 255 255 / 50%)" />
  <rect x="100" y="260" width="30" height="30" fill="hsl(240 100% 99.88364699986296%)" />
  <rect x="135" y="260" width="30" height="30" fill="hsl(240 100% 99.41822742087751%)" />
  <rect x="170" y="260" width="30" height="30" fill="rgb(255 255 255 / 50%)" />
  <rect x="205" y="260" width="30" height="30" fill="hsl(240 100% 88.06510932991051%)" />
  <rect x="240" y="260" width="30" height="30" fill="rgb(255 255 255 / 50%)" />
  <rect x="310" y="260" width="30" height="30" fill="hsl(240 100% 83.25419436816674%)" />
  <rect x="345" y="260" width="30" height="30" fill="rgb(255 255 255 / 50%)" />
  <rect x="380" y="260" width="30" height="30" fill="hsl(240 100% 50%)" />
  <rect x="415" y="260" width="30" height="30" fill="hsl(240 100% 76.71891150864127%)" />
  <rect x="485" y="260" width="30" height="30" fill="hsl(240 100% 96.99741286829148%)" />
  <rect x="520" y="260" width="30" height="30" fill="hsl(240 100% 94.2446548044345%)" />
  <rect x="65" y="295" width="30" height="30" fill="hsl(240 100% 66.63591641883471%)" />
  <rect x="100" y="295" width="30" height="30" fill="hsl(240 100% 58.92764687448323%)" />
  <rect x="135" y="295" width="30" height="30" fill="hsl(240 100% 59.80920693832791%)" />
  <rect x="170" y="295" width="30" height="30" fill="hsl(240 100% 57.10679709615693%)" />
  <rect x="205" y="295" width="30" height="30" fill="hsl(240 100% 50%)" />
  <rect x="240" y="295" width="30" height="30" fill="hsl(240 100% 99.4111909184789%)" />
  <rect x="310" y="295" width="30" height="30" fill="hsl(240 100% 50.59210131100685%)" />
  <rect x="345" y="295" width="30" height="30" fill="hsl(240 100% 89.3415084317084%)" />
  <rect x="415" y="295" width="30" height="30" fill="hsl(240 100% 53.36440023501867%)" />
  <rect x="65" y="330" width="30" height="30" fill="hsl(240 100% 68.82695350404707%)" />
  <rect x="100" y="330" width="30" height="30" fill="hsl(240 100% 80.79037214199923%)" />
  <rect x="135" y="330" width="30" height="30" fill="hsl(240 100% 50%)" />
  <rect x="170" y="330" width="30" height="30" fill="hsl(240 100% 89.71049984080011%)" />
  <rect x="205" y="330" width="30" height="30" fill="hsl(240 100% 50.4118581193356%)" />
  <rect x="240" y="330" width="30" height="30" fill="hsl(240 100% 99.85019035377029%)" />
  <rect x="310" y="330" width="30" height="30" fill="hsl(240 100% 63.307364048893675%)" />
  <rect x="415" y="330" width="30" height="30" fill="hsl(240 100% 84.44835005529407%)" />
  <rect x="485" y="330" width="30" height="30" fill="hsl(240 100% 99.59560553720853%)" />
  <rect x="520" y="330" width="30" height="30" fill="hsl(240 100% 89.67477230204385%)" />
  <rect x="555" y="330" width="30" height="30" fill="hsl(240 100% 59.6387106374635%)" />
  <rect x="590" y="330" width="30" height="30" fill="hsl(240 100% 97.9947125846135%)" />
  <rect x="65" y="365" width="30" height="30" fill="hsl(240 100% 99.21952619273728%)" />
  <rect x="100" y="365" width="30" height="30" fill="hsl(240 100% 99.57151689573278%)" />
  <rect x="135" y="365" width="30" height="30" fill="hsl(240 100% 93.69652120483914%)" />
  <rect x="170" y="365" width="30" height="30" fill="hsl(240 100% 54.56026327334053%)" />
  <rect x="205" y="365" width="30" height="30" fill="hsl(240 100% 87.00881493301834%)" />
  <rect x="240" y="365" width="30" height="30" fill="rgb(255 255 255 / 50%)" />
  <rect x="310" y="365" width="30" height="30" fill="hsl(240 100% 95.38138240062057%)" />
  <rect x="345" y="365" width="30" height="30" fill="hsl(240 100% 99.96505028113835%)" />
  <rect x="415" y="365" width="30" height="30" fill="hsl(240 100% 50%)" />
  <rect x="205" y="400" width="30" height="30" fill="hsl(240 100% 50%)" />
  <rect x="240" y="400" width="30" height="30" fill="hsl(240 100% 50%)" />
  <rect x="310" y="400" width="30" height="30" fill="hsl(240 100% 50%)" />
  <rect x="345" y="400" width="30" height="30" fill="hsl(240 100% 50%)" />
  <rect x="205" y="435" width="30" height="30" fill="hsl(240 100% 50%)" />
  <rect x="240" y="435" width="30" height="30" fill="hsl(240 100% 50%)" />
  <rect x="310" y="435" width="30" height="30" fill="hsl(240 100% 50%)" />
  <rect x="345" y="435" width="30" height="30" fill="hsl(240 100% 50%)" />
</svg>
