<svg xmlns="http://www.w3.org/2000/svg" viewBox="0 0 870 505">
  <rect x="0" y="0" width="870" height="505" rx="5" ry="5" fill="#222" />
  <text x="60" y="100" fill="white" font-family="sans-serif" font-weight="bold" font-size="12" text-anchor="end" dominant-baseline="middle">ba</text>
  <text x="60" y="135" fill="white" font-family="sans-serif" font-weight="bold" font-size="12" text-anchor="end" dominant-baseline="middle">det</text>
  <text x="60" y="170" fill="white" font-family="sans-serif" font-weight="bold" font-size="12" text-anchor="end" dominant-baseline="middle">gmm</text>
  <text x="60" y="205" fill="white" font-family="sans-serif" font-weight="bold" font-size="12" text-anchor="end" dominant-baseline="middle">hello</text>
  <text x="60" y="240" fill="white" font-family="sans-serif" font-weight="bold" font-size="12" text-anchor="end" dominant-baseline="middle">ht</text>
  <text x="60" y="275" fill="white" font-family="sans-serif" font-weight="bold" font-size="12" text-anchor="end" dominant-baseline="middle">kmeans</text>
  <text x="60" y="310" fill="white" font-family="sans-serif" font-weight="bold" font-size="12" text-anchor="end" dominant-baseline="middle">llsq</text>
  <text x="60" y="345" fill="white" font-family="sans-serif" font-weight="bold" font-size="12" text-anchor="end" dominant-baseline="middle">lse</text>
  <text x="60" y="380" fill="white" font-family="sans-serif" font-weight="bold" font-size="12" text-anchor="end" dominant-baseline="middle">lstm</text>
  <text x="60" y="415" fill="white" font-family="sans-serif" font-weight="bold" font-size="12" text-anchor="end" dominant-baseline="middle">ode</text>
  <text x="60" y="450" fill="white" font-family="sans-serif" font-weight="bold" font-size="12" text-anchor="end" dominant-baseline="middle">particle</text>
  <text x="60" y="485" fill="white" font-family="sans-serif" font-weight="bold" font-size="12" text-anchor="end" dominant-baseline="middle">saddle</text>
  <text x="80" y="80" fill="white" font-family="sans-serif" font-weight="bold" font-size="12" text-anchor="end" dominant-baseline="middle" transform="rotate(90 80 80)">ad-hpp</text>
  <text x="115" y="80" fill="white" font-family="sans-serif" font-weight="bold" font-size="12" text-anchor="end" dominant-baseline="middle" transform="rotate(90 115 80)">adept</text>
  <text x="150" y="80" fill="white" font-family="sans-serif" font-weight="bold" font-size="12" text-anchor="end" dominant-baseline="middle" transform="rotate(90 150 80)">adol-c</text>
  <text x="185" y="80" fill="white" font-family="sans-serif" font-weight="bold" font-size="12" text-anchor="end" dominant-baseline="middle" transform="rotate(90 185 80)">codipack</text>
  <text x="220" y="80" fill="white" font-family="sans-serif" font-weight="bold" font-size="12" text-anchor="end" dominant-baseline="middle" transform="rotate(90 220 80)">cppad</text>
  <text x="255" y="80" fill="white" font-family="sans-serif" font-weight="bold" font-size="12" text-anchor="end" dominant-baseline="middle" transform="rotate(90 255 80)">enzyme</text>
  <text x="290" y="80" fill="white" font-family="sans-serif" font-weight="bold" font-size="12" text-anchor="end" dominant-baseline="middle" transform="rotate(90 290 80)">enzyme-jl</text>
  <text x="325" y="80" fill="white" font-family="sans-serif" font-weight="bold" font-size="12" text-anchor="end" dominant-baseline="middle" transform="rotate(90 325 80)">finite</text>
  <text x="360" y="80" fill="white" font-family="sans-serif" font-weight="bold" font-size="12" text-anchor="end" dominant-baseline="middle" transform="rotate(90 360 80)">floretta</text>
  <text x="395" y="80" fill="white" font-family="sans-serif" font-weight="bold" font-size="12" text-anchor="end" dominant-baseline="middle" transform="rotate(90 395 80)">forwarddiff-jl</text>
  <text x="430" y="80" fill="white" font-family="sans-serif" font-weight="bold" font-size="12" text-anchor="end" dominant-baseline="middle" transform="rotate(90 430 80)">futhark</text>
  <text x="465" y="80" fill="white" font-family="sans-serif" font-weight="bold" font-size="12" text-anchor="end" dominant-baseline="middle" transform="rotate(90 465 80)">haskell</text>
  <text x="500" y="80" fill="white" font-family="sans-serif" font-weight="bold" font-size="12" text-anchor="end" dominant-baseline="middle" transform="rotate(90 500 80)">jax</text>
  <text x="535" y="80" fill="white" font-family="sans-serif" font-weight="bold" font-size="12" text-anchor="end" dominant-baseline="middle" transform="rotate(90 535 80)">manual</text>
  <text x="570" y="80" fill="white" font-family="sans-serif" font-weight="bold" font-size="12" text-anchor="end" dominant-baseline="middle" transform="rotate(90 570 80)">mooncake-jl</text>
  <text x="605" y="80" fill="white" font-family="sans-serif" font-weight="bold" font-size="12" text-anchor="end" dominant-baseline="middle" transform="rotate(90 605 80)">ocaml</text>
  <text x="640" y="80" fill="white" font-family="sans-serif" font-weight="bold" font-size="12" text-anchor="end" dominant-baseline="middle" transform="rotate(90 640 80)">pytorch</text>
  <text x="675" y="80" fill="white" font-family="sans-serif" font-weight="bold" font-size="12" text-anchor="end" dominant-baseline="middle" transform="rotate(90 675 80)">reversediff-jl</text>
  <text x="710" y="80" fill="white" font-family="sans-serif" font-weight="bold" font-size="12" text-anchor="end" dominant-baseline="middle" transform="rotate(90 710 80)">scilean</text>
  <text x="745" y="80" fill="white" font-family="sans-serif" font-weight="bold" font-size="12" text-anchor="end" dominant-baseline="middle" transform="rotate(90 745 80)">tapenade</text>
  <text x="780" y="80" fill="white" font-family="sans-serif" font-weight="bold" font-size="12" text-anchor="end" dominant-baseline="middle" transform="rotate(90 780 80)">tensorflow</text>
  <text x="815" y="80" fill="white" font-family="sans-serif" font-weight="bold" font-size="12" text-anchor="end" dominant-baseline="middle" transform="rotate(90 815 80)">tensorflow-js</text>
  <text x="850" y="80" fill="white" font-family="sans-serif" font-weight="bold" font-size="12" text-anchor="end" dominant-baseline="middle" transform="rotate(90 850 80)">zygote</text>
  <rect x="65" y="85" width="30" height="30" fill="hsl(240 100% 80.74628431073958%)" />
  <rect x="100" y="85" width="30" height="30" fill="hsl(240 100% 82.88243510945173%)" />
  <rect x="135" y="85" width="30" height="30" fill="hsl(240 100% 97.97796274914484%)" />
  <rect x="170" y="85" width="30" height="30" fill="hsl(240 100% 82.30622792018994%)" />
  <rect x="205" y="85" width="30" height="30" fill="hsl(240 100% 98.99173636110302%)" />
  <rect x="240" y="85" width="30" height="30" fill="hsl(240 100% 51.57772457493432%)" />
  <rect x="310" y="85" width="30" height="30" fill="hsl(240 100% 93.23230907557213%)" />
  <rect x="415" y="85" width="30" height="30" fill="hsl(240 100% 67.79661226313453%)" />
  <rect x="520" y="85" width="30" height="30" fill="hsl(240 100% 50%)" />
  <rect x="625" y="85" width="30" height="30" fill="rgb(255 255 255 / 50%)" />
  <rect x="730" y="85" width="30" height="30" fill="hsl(240 100% 74.97737665595257%)" />
  <rect x="765" y="85" width="30" height="30" fill="rgb(255 255 255 / 50%)" />
  <rect x="835" y="85" width="30" height="30" fill="hsl(240 100% 99.73206851895671%)" />
  <rect x="65" y="120" width="30" height="30" fill="hsl(240 100% 50%)" />
  <rect x="100" y="120" width="30" height="30" fill="hsl(240 100% 82.57037498767366%)" />
  <rect x="135" y="120" width="30" height="30" fill="hsl(240 100% 85.75555978819068%)" />
  <rect x="170" y="120" width="30" height="30" fill="hsl(240 100% 51.91139932834027%)" />
  <rect x="205" y="120" width="30" height="30" fill="hsl(240 100% 92.5326817697352%)" />
  <rect x="240" y="120" width="30" height="30" fill="hsl(240 100% 91.62617028806672%)" />
  <rect x="275" y="120" width="30" height="30" fill="hsl(240 100% 99.36292258792335%)" />
  <rect x="310" y="120" width="30" height="30" fill="hsl(240 100% 98.98840767381284%)" />
  <rect x="380" y="120" width="30" height="30" fill="hsl(240 100% 93.59325536758973%)" />
  <rect x="415" y="120" width="30" height="30" fill="hsl(240 100% 94.60411148269428%)" />
  <rect x="450" y="120" width="30" height="30" fill="hsl(240 100% 97.89393472315346%)" />
  <rect x="520" y="120" width="30" height="30" fill="hsl(240 100% 79.68253694747526%)" />
  <rect x="555" y="120" width="30" height="30" fill="hsl(240 100% 90.47434463995404%)" />
  <rect x="660" y="120" width="30" height="30" fill="rgb(255 255 255 / 50%)" />
  <rect x="835" y="120" width="30" height="30" fill="rgb(255 255 255 / 50%)" />
  <rect x="65" y="155" width="30" height="30" fill="hsl(240 100% 98.08551336067937%)" />
  <rect x="100" y="155" width="30" height="30" fill="hsl(240 100% 98.77913283777903%)" />
  <rect x="135" y="155" width="30" height="30" fill="hsl(240 100% 99.08037886526692%)" />
  <rect x="170" y="155" width="30" height="30" fill="hsl(240 100% 98.02662724692325%)" />
  <rect x="205" y="155" width="30" height="30" fill="hsl(240 100% 99.84642405042882%)" />
  <rect x="240" y="155" width="30" height="30" fill="hsl(240 100% 91.05212458930302%)" />
  <rect x="275" y="155" width="30" height="30" fill="hsl(240 100% 92.99618677941649%)" />
  <rect x="310" y="155" width="30" height="30" fill="rgb(255 255 255 / 50%)" />
  <rect x="415" y="155" width="30" height="30" fill="hsl(240 100% 92.79996063282248%)" />
  <rect x="485" y="155" width="30" height="30" fill="hsl(240 100% 50%)" />
  <rect x="520" y="155" width="30" height="30" fill="hsl(240 100% 83.36900892707577%)" />
  <rect x="590" y="155" width="30" height="30" fill="hsl(240 100% 99.58080446461875%)" />
  <rect x="625" y="155" width="30" height="30" fill="hsl(240 100% 66.55886767113508%)" />
  <rect x="695" y="155" width="30" height="30" fill="hsl(240 100% 95.37111525869705%)" />
  <rect x="730" y="155" width="30" height="30" fill="hsl(240 100% 83.32118838650185%)" />
  <rect x="765" y="155" width="30" height="30" fill="hsl(240 100% 99.57342012456424%)" />
  <rect x="835" y="155" width="30" height="30" fill="hsl(240 100% 96.07747638948882%)" />
  <rect x="65" y="190" width="30" height="30" fill="hsl(240 100% 50%)" />
  <rect x="100" y="190" width="30" height="30" fill="hsl(240 100% 50%)" />
  <rect x="135" y="190" width="30" height="30" fill="hsl(240 100% 50%)" />
  <rect x="170" y="190" width="30" height="30" fill="hsl(240 100% 50%)" />
  <rect x="205" y="190" width="30" height="30" fill="hsl(240 100% 50%)" />
  <rect x="240" y="190" width="30" height="30" fill="hsl(240 100% 50%)" />
  <rect x="275" y="190" width="30" height="30" fill="hsl(240 100% 50%)" />
  <rect x="310" y="190" width="30" height="30" fill="hsl(240 100% 50%)" />
  <rect x="345" y="190" width="30" height="30" fill="hsl(240 100% 50%)" />
  <rect x="380" y="190" width="30" height="30" fill="hsl(240 100% 50%)" />
  <rect x="415" y="190" width="30" height="30" fill="hsl(240 100% 50%)" />
  <rect x="450" y="190" width="30" height="30" fill="hsl(240 100% 50%)" />
  <rect x="485" y="190" width="30" height="30" fill="hsl(240 100% 50%)" />
  <rect x="520" y="190" width="30" height="30" fill="hsl(240 100% 50%)" />
  <rect x="555" y="190" width="30" height="30" fill="hsl(240 100% 50%)" />
  <rect x="590" y="190" width="30" height="30" fill="hsl(240 100% 50%)" />
  <rect x="625" y="190" width="30" height="30" fill="hsl(240 100% 50%)" />
  <rect x="660" y="190" width="30" height="30" fill="hsl(240 100% 50%)" />
  <rect x="695" y="190" width="30" height="30" fill="hsl(240 100% 50%)" />
  <rect x="730" y="190" width="30" height="30" fill="hsl(240 100% 50%)" />
  <rect x="765" y="190" width="30" height="30" fill="hsl(240 100% 50%)" />
  <rect x="800" y="190" width="30" height="30" fill="hsl(240 100% 50%)" />
  <rect x="835" y="190" width="30" height="30" fill="hsl(240 100% 50%)" />
  <rect x="100" y="225" width="30" height="30" fill="hsl(240 100% 96.61512635050701%)" />
  <rect x="135" y="225" width="30" height="30" fill="hsl(240 100% 88.98507834690349%)" />
  <rect x="170" y="225" width="30" height="30" fill="hsl(240 100% 89.02177716105257%)" />
  <rect x="240" y="225" width="30" height="30" fill="hsl(240 100% 91.16704724523913%)" />
  <rect x="310" y="225" width="30" height="30" fill="rgb(255 255 255 / 50%)" />
  <rect x="415" y="225" width="30" height="30" fill="hsl(240 100% 90.39051443914057%)" />
  <rect x="520" y="225" width="30" height="30" fill="hsl(240 100% 50%)" />
  <rect x="625" y="225" width="30" height="30" fill="rgb(255 255 255 / 50%)" />
  <rect x="730" y="225" width="30" height="30" fill="hsl(240 100% 93.02374215031212%)" />
  <rect x="765" y="225" width="30" height="30" fill="rgb(255 255 255 / 50%)" />
  <rect x="835" y="225" width="30" height="30" fill="hsl(240 100% 94.13997407346027%)" />
  <rect x="65" y="260" width="30" height="30" fill="hsl(240 100% 99.82844401460315%)" />
  <rect x="135" y="260" width="30" height="30" fill="hsl(240 100% 99.85483722222672%)" />
  <rect x="170" y="260" width="30" height="30" fill="hsl(240 100% 98.86549794830215%)" />
  <rect x="205" y="260" width="30" height="30" fill="rgb(255 255 255 / 50%)" />
  <rect x="240" y="260" width="30" height="30" fill="hsl(240 100% 87.10154796375015%)" />
  <rect x="310" y="260" width="30" height="30" fill="rgb(255 255 255 / 50%)" />
  <rect x="415" y="260" width="30" height="30" fill="hsl(240 100% 80.8080321327638%)" />
  <rect x="450" y="260" width="30" height="30" fill="rgb(255 255 255 / 50%)" />
  <rect x="485" y="260" width="30" height="30" fill="hsl(240 100% 50%)" />
  <rect x="520" y="260" width="30" height="30" fill="hsl(240 100% 71.54377537810298%)" />
  <rect x="625" y="260" width="30" height="30" fill="hsl(240 100% 97.038487764565%)" />
  <rect x="695" y="260" width="30" height="30" fill="hsl(240 100% 94.18183069150804%)" />
  <rect x="65" y="295" width="30" height="30" fill="hsl(240 100% 86.07686803885963%)" />
  <rect x="100" y="295" width="30" height="30" fill="hsl(240 100% 97.50454061818552%)" />
  <rect x="135" y="295" width="30" height="30" fill="hsl(240 100% 95.15921563435452%)" />
  <rect x="170" y="295" width="30" height="30" fill="hsl(240 100% 90.57015186162762%)" />
  <rect x="205" y="295" width="30" height="30" fill="hsl(240 100% 99.46125162253065%)" />
  <rect x="240" y="295" width="30" height="30" fill="hsl(240 100% 50%)" />
  <rect x="275" y="295" width="30" height="30" fill="hsl(240 100% 50.151186824188954%)" />
  <rect x="310" y="295" width="30" height="30" fill="hsl(240 100% 99.49306777399823%)" />
  <rect x="345" y="295" width="30" height="30" fill="hsl(240 100% 94.6435785744643%)" />
  <rect x="415" y="295" width="30" height="30" fill="hsl(240 100% 54.626139626691305%)" />
  <rect x="450" y="295" width="30" height="30" fill="hsl(240 100% 99.3372647258882%)" />
  <rect x="485" y="295" width="30" height="30" fill="hsl(240 100% 88.47214876315647%)" />
  <rect x="520" y="295" width="30" height="30" fill="hsl(240 100% 57.30931299915664%)" />
  <rect x="695" y="295" width="30" height="30" fill="hsl(240 100% 97.58077135021924%)" />
  <rect x="800" y="295" width="30" height="30" fill="hsl(240 100% 99.56297995838831%)" />
  <rect x="835" y="295" width="30" height="30" fill="hsl(240 100% 99.95473064449232%)" />
  <rect x="65" y="330" width="30" height="30" fill="hsl(240 100% 86.10693451618248%)" />
  <rect x="100" y="330" width="30" height="30" fill="hsl(240 100% 93.48467405557133%)" />
  <rect x="135" y="330" width="30" height="30" fill="hsl(240 100% 96.53393039648742%)" />
  <rect x="170" y="330" width="30" height="30" fill="hsl(240 100% 85.75569392587146%)" />
  <rect x="205" y="330" width="30" height="30" fill="hsl(240 100% 99.01025226560934%)" />
  <rect x="240" y="330" width="30" height="30" fill="hsl(240 100% 74.77938882887892%)" />
  <rect x="275" y="330" width="30" height="30" fill="hsl(240 100% 85.05065155542913%)" />
  <rect x="310" y="330" width="30" height="30" fill="rgb(255 255 255 / 50%)" />
  <rect x="345" y="330" width="30" height="30" fill="hsl(240 100% 96.55209484071447%)" />
  <rect x="415" y="330" width="30" height="30" fill="hsl(240 100% 82.25825193957726%)" />
  <rect x="450" y="330" width="30" height="30" fill="hsl(240 100% 99.7647546655443%)" />
  <rect x="485" y="330" width="30" height="30" fill="hsl(240 100% 63.50034760356332%)" />
  <rect x="520" y="330" width="30" height="30" fill="hsl(240 100% 71.3827776792232%)" />
  <rect x="590" y="330" width="30" height="30" fill="hsl(240 100% 92.34844431761215%)" />
  <rect x="625" y="330" width="30" height="30" fill="hsl(240 100% 50%)" />
  <rect x="765" y="330" width="30" height="30" fill="hsl(240 100% 93.60129839881638%)" />
  <rect x="800" y="330" width="30" height="30" fill="hsl(240 100% 99.01983464158897%)" />
  <rect x="835" y="330" width="30" height="30" fill="hsl(240 100% 77.12614712663276%)" />
  <rect x="65" y="365" width="30" height="30" fill="hsl(240 100% 57.5771687834021%)" />
  <rect x="100" y="365" width="30" height="30" fill="hsl(240 100% 72.26126768692107%)" />
  <rect x="135" y="365" width="30" height="30" fill="hsl(240 100% 82.56333113295705%)" />
  <rect x="170" y="365" width="30" height="30" fill="hsl(240 100% 50%)" />
  <rect x="205" y="365" width="30" height="30" fill="hsl(240 100% 96.21779092780741%)" />
  <rect x="240" y="365" width="30" height="30" fill="hsl(240 100% 60.65872921562385%)" />
  <rect x="275" y="365" width="30" height="30" fill="hsl(240 100% 92.29353212033752%)" />
  <rect x="310" y="365" width="30" height="30" fill="hsl(240 100% 99.86197347408641%)" />
  <rect x="415" y="365" width="30" height="30" fill="hsl(240 100% 66.43406945952589%)" />
  <rect x="520" y="365" width="30" height="30" fill="hsl(240 100% 85.83488618160212%)" />
  <rect x="625" y="365" width="30" height="30" fill="hsl(240 100% 99.63928194894397%)" />
  <rect x="730" y="365" width="30" height="30" fill="hsl(240 100% 63.77108962896577%)" />
  <rect x="765" y="365" width="30" height="30" fill="hsl(240 100% 98.14299196731324%)" />
  <rect x="835" y="365" width="30" height="30" fill="hsl(240 100% 98.75379192703821%)" />
  <rect x="65" y="400" width="30" height="30" fill="hsl(240 100% 98.16274138539714%)" />
  <rect x="100" y="400" width="30" height="30" fill="hsl(240 100% 99.40861972234003%)" />
  <rect x="135" y="400" width="30" height="30" fill="hsl(240 100% 99.66912006794601%)" />
  <rect x="170" y="400" width="30" height="30" fill="hsl(240 100% 95.33818757069616%)" />
  <rect x="205" y="400" width="30" height="30" fill="hsl(240 100% 99.23935663980016%)" />
  <rect x="240" y="400" width="30" height="30" fill="hsl(240 100% 86.35452052858534%)" />
  <rect x="275" y="400" width="30" height="30" fill="hsl(240 100% 95.39064881874533%)" />
  <rect x="310" y="400" width="30" height="30" fill="rgb(255 255 255 / 50%)" />
  <rect x="380" y="400" width="30" height="30" fill="rgb(255 255 255 / 50%)" />
  <rect x="415" y="400" width="30" height="30" fill="hsl(240 100% 94.05604214513988%)" />
  <rect x="450" y="400" width="30" height="30" fill="hsl(240 100% 99.9720650095987%)" />
  <rect x="485" y="400" width="30" height="30" fill="hsl(240 100% 78.96321142567619%)" />
  <rect x="520" y="400" width="30" height="30" fill="hsl(240 100% 50%)" />
  <rect x="555" y="400" width="30" height="30" fill="hsl(240 100% 99.20227359092051%)" />
  <rect x="660" y="400" width="30" height="30" fill="rgb(255 255 255 / 50%)" />
  <rect x="835" y="400" width="30" height="30" fill="hsl(240 100% 99.04613023546464%)" />
  <rect x="65" y="435" width="30" height="30" fill="hsl(240 100% 92.84525596722084%)" />
  <rect x="240" y="435" width="30" height="30" fill="hsl(240 100% 50%)" />
  <rect x="310" y="435" width="30" height="30" fill="hsl(240 100% 94.3388576824465%)" />
  <rect x="415" y="435" width="30" height="30" fill="hsl(240 100% 87.01900643462636%)" />
  <rect x="450" y="435" width="30" height="30" fill="hsl(240 100% 99.7755681222969%)" />
  <rect x="65" y="470" width="30" height="30" fill="hsl(240 100% 50%)" />
  <rect x="240" y="470" width="30" height="30" fill="hsl(240 100% 50.336913641595636%)" />
  <rect x="310" y="470" width="30" height="30" fill="hsl(240 100% 97.15390458472807%)" />
  <rect x="415" y="470" width="30" height="30" fill="hsl(240 100% 89.1217971536672%)" />
  <rect x="450" y="470" width="30" height="30" fill="hsl(240 100% 99.56671848715473%)" />
</svg>
