<svg xmlns="http://www.w3.org/2000/svg" viewBox="0 0 870 505">
  <rect x="0" y="0" width="870" height="505" rx="5" ry="5" fill="#222" />
  <text x="60" y="100" fill="white" font-family="sans-serif" font-weight="bold" font-size="12" text-anchor="end" dominant-baseline="middle">ba</text>
  <text x="60" y="135" fill="white" font-family="sans-serif" font-weight="bold" font-size="12" text-anchor="end" dominant-baseline="middle">det</text>
  <text x="60" y="170" fill="white" font-family="sans-serif" font-weight="bold" font-size="12" text-anchor="end" dominant-baseline="middle">gmm</text>
  <text x="60" y="205" fill="white" font-family="sans-serif" font-weight="bold" font-size="12" text-anchor="end" dominant-baseline="middle">hello</text>
  <text x="60" y="240" fill="white" font-family="sans-serif" font-weight="bold" font-size="12" text-anchor="end" dominant-baseline="middle">ht</text>
  <text x="60" y="275" fill="white" font-family="sans-serif" font-weight="bold" font-size="12" text-anchor="end" dominant-baseline="middle">kmeans</text>
  <text x="60" y="310" fill="white" font-family="sans-serif" font-weight="bold" font-size="12" text-anchor="end" dominant-baseline="middle">llsq</text>
  <text x="60" y="345" fill="white" font-family="sans-serif" font-weight="bold" font-size="12" text-anchor="end" dominant-baseline="middle">lse</text>
  <text x="60" y="380" fill="white" font-family="sans-serif" font-weight="bold" font-size="12" text-anchor="end" dominant-baseline="middle">lstm</text>
  <text x="60" y="415" fill="white" font-family="sans-serif" font-weight="bold" font-size="12" text-anchor="end" dominant-baseline="middle">ode</text>
  <text x="60" y="450" fill="white" font-family="sans-serif" font-weight="bold" font-size="12" text-anchor="end" dominant-baseline="middle">particle</text>
  <text x="60" y="485" fill="white" font-family="sans-serif" font-weight="bold" font-size="12" text-anchor="end" dominant-baseline="middle">saddle</text>
  <text x="80" y="80" fill="white" font-family="sans-serif" font-weight="bold" font-size="12" text-anchor="end" dominant-baseline="middle" transform="rotate(90 80 80)">ad-hpp</text>
  <text x="115" y="80" fill="white" font-family="sans-serif" font-weight="bold" font-size="12" text-anchor="end" dominant-baseline="middle" transform="rotate(90 115 80)">adept</text>
  <text x="150" y="80" fill="white" font-family="sans-serif" font-weight="bold" font-size="12" text-anchor="end" dominant-baseline="middle" transform="rotate(90 150 80)">adol-c</text>
  <text x="185" y="80" fill="white" font-family="sans-serif" font-weight="bold" font-size="12" text-anchor="end" dominant-baseline="middle" transform="rotate(90 185 80)">codipack</text>
  <text x="220" y="80" fill="white" font-family="sans-serif" font-weight="bold" font-size="12" text-anchor="end" dominant-baseline="middle" transform="rotate(90 220 80)">cppad</text>
  <text x="255" y="80" fill="white" font-family="sans-serif" font-weight="bold" font-size="12" text-anchor="end" dominant-baseline="middle" transform="rotate(90 255 80)">enzyme</text>
  <text x="290" y="80" fill="white" font-family="sans-serif" font-weight="bold" font-size="12" text-anchor="end" dominant-baseline="middle" transform="rotate(90 290 80)">enzyme-jl</text>
  <text x="325" y="80" fill="white" font-family="sans-serif" font-weight="bold" font-size="12" text-anchor="end" dominant-baseline="middle" transform="rotate(90 325 80)">finite</text>
  <text x="360" y="80" fill="white" font-family="sans-serif" font-weight="bold" font-size="12" text-anchor="end" dominant-baseline="middle" transform="rotate(90 360 80)">floretta</text>
  <text x="395" y="80" fill="white" font-family="sans-serif" font-weight="bold" font-size="12" text-anchor="end" dominant-baseline="middle" transform="rotate(90 395 80)">forwarddiff-jl</text>
  <text x="430" y="80" fill="white" font-family="sans-serif" font-weight="bold" font-size="12" text-anchor="end" dominant-baseline="middle" transform="rotate(90 430 80)">futhark</text>
  <text x="465" y="80" fill="white" font-family="sans-serif" font-weight="bold" font-size="12" text-anchor="end" dominant-baseline="middle" transform="rotate(90 465 80)">haskell</text>
  <text x="500" y="80" fill="white" font-family="sans-serif" font-weight="bold" font-size="12" text-anchor="end" dominant-baseline="middle" transform="rotate(90 500 80)">jax</text>
  <text x="535" y="80" fill="white" font-family="sans-serif" font-weight="bold" font-size="12" text-anchor="end" dominant-baseline="middle" transform="rotate(90 535 80)">manual</text>
  <text x="570" y="80" fill="white" font-family="sans-serif" font-weight="bold" font-size="12" text-anchor="end" dominant-baseline="middle" transform="rotate(90 570 80)">mooncake-jl</text>
  <text x="605" y="80" fill="white" font-family="sans-serif" font-weight="bold" font-size="12" text-anchor="end" dominant-baseline="middle" transform="rotate(90 605 80)">ocaml</text>
  <text x="640" y="80" fill="white" font-family="sans-serif" font-weight="bold" font-size="12" text-anchor="end" dominant-baseline="middle" transform="rotate(90 640 80)">pytorch</text>
  <text x="675" y="80" fill="white" font-family="sans-serif" font-weight="bold" font-size="12" text-anchor="end" dominant-baseline="middle" transform="rotate(90 675 80)">reversediff-jl</text>
  <text x="710" y="80" fill="white" font-family="sans-serif" font-weight="bold" font-size="12" text-anchor="end" dominant-baseline="middle" transform="rotate(90 710 80)">scilean</text>
  <text x="745" y="80" fill="white" font-family="sans-serif" font-weight="bold" font-size="12" text-anchor="end" dominant-baseline="middle" transform="rotate(90 745 80)">tapenade</text>
  <text x="780" y="80" fill="white" font-family="sans-serif" font-weight="bold" font-size="12" text-anchor="end" dominant-baseline="middle" transform="rotate(90 780 80)">tensorflow</text>
  <text x="815" y="80" fill="white" font-family="sans-serif" font-weight="bold" font-size="12" text-anchor="end" dominant-baseline="middle" transform="rotate(90 815 80)">tensorflow-js</text>
  <text x="850" y="80" fill="white" font-family="sans-serif" font-weight="bold" font-size="12" text-anchor="end" dominant-baseline="middle" transform="rotate(90 850 80)">zygote</text>
  <rect x="65" y="85" width="30" height="30" fill="hsl(240 100% 81.09990746803861%)" />
  <rect x="100" y="85" width="30" height="30" fill="hsl(240 100% 82.87425616195847%)" />
  <rect x="135" y="85" width="30" height="30" fill="hsl(240 100% 97.99198837036789%)" />
  <rect x="170" y="85" width="30" height="30" fill="hsl(240 100% 82.44538541565807%)" />
  <rect x="205" y="85" width="30" height="30" fill="hsl(240 100% 99.00479422827509%)" />
  <rect x="240" y="85" width="30" height="30" fill="hsl(240 100% 52.31717942687506%)" />
  <rect x="310" y="85" width="30" height="30" fill="hsl(240 100% 93.29019026011946%)" />
  <rect x="415" y="85" width="30" height="30" fill="hsl(240 100% 68.17815476815608%)" />
  <rect x="520" y="85" width="30" height="30" fill="hsl(240 100% 50%)" />
  <rect x="625" y="85" width="30" height="30" fill="rgb(255 255 255 / 50%)" />
  <rect x="730" y="85" width="30" height="30" fill="hsl(240 100% 74.96251719147315%)" />
  <rect x="765" y="85" width="30" height="30" fill="rgb(255 255 255 / 50%)" />
  <rect x="835" y="85" width="30" height="30" fill="hsl(240 100% 99.73707122677517%)" />
  <rect x="65" y="120" width="30" height="30" fill="hsl(240 100% 50%)" />
  <rect x="100" y="120" width="30" height="30" fill="hsl(240 100% 82.29275555861756%)" />
  <rect x="135" y="120" width="30" height="30" fill="hsl(240 100% 85.58793986260854%)" />
  <rect x="170" y="120" width="30" height="30" fill="hsl(240 100% 51.788656511964206%)" />
  <rect x="205" y="120" width="30" height="30" fill="hsl(240 100% 92.50330919236042%)" />
  <rect x="240" y="120" width="30" height="30" fill="hsl(240 100% 91.27564048347175%)" />
  <rect x="275" y="120" width="30" height="30" fill="hsl(240 100% 99.35406798303734%)" />
  <rect x="310" y="120" width="30" height="30" fill="hsl(240 100% 98.97899914512804%)" />
  <rect x="380" y="120" width="30" height="30" fill="hsl(240 100% 93.22802828022151%)" />
  <rect x="415" y="120" width="30" height="30" fill="hsl(240 100% 94.54374759018121%)" />
  <rect x="450" y="120" width="30" height="30" fill="hsl(240 100% 97.83875707654681%)" />
  <rect x="520" y="120" width="30" height="30" fill="hsl(240 100% 79.48466912697694%)" />
  <rect x="555" y="120" width="30" height="30" fill="hsl(240 100% 90.10545737591819%)" />
  <rect x="660" y="120" width="30" height="30" fill="rgb(255 255 255 / 50%)" />
  <rect x="835" y="120" width="30" height="30" fill="rgb(255 255 255 / 50%)" />
  <rect x="65" y="155" width="30" height="30" fill="hsl(240 100% 98.21896513586556%)" />
  <rect x="100" y="155" width="30" height="30" fill="hsl(240 100% 98.75574531371062%)" />
  <rect x="135" y="155" width="30" height="30" fill="hsl(240 100% 99.08034166862613%)" />
  <rect x="170" y="155" width="30" height="30" fill="hsl(240 100% 97.97792724376416%)" />
  <rect x="205" y="155" width="30" height="30" fill="hsl(240 100% 99.84142857937388%)" />
  <rect x="240" y="155" width="30" height="30" fill="hsl(240 100% 90.84939048438949%)" />
  <rect x="275" y="155" width="30" height="30" fill="hsl(240 100% 92.25767179728889%)" />
  <rect x="310" y="155" width="30" height="30" fill="rgb(255 255 255 / 50%)" />
  <rect x="415" y="155" width="30" height="30" fill="hsl(240 100% 92.58773591405196%)" />
  <rect x="485" y="155" width="30" height="30" fill="hsl(240 100% 50%)" />
  <rect x="520" y="155" width="30" height="30" fill="hsl(240 100% 82.71694815845987%)" />
  <rect x="590" y="155" width="30" height="30" fill="hsl(240 100% 99.56693765109135%)" />
  <rect x="625" y="155" width="30" height="30" fill="hsl(240 100% 67.53904648958869%)" />
  <rect x="695" y="155" width="30" height="30" fill="hsl(240 100% 95.22013259118405%)" />
  <rect x="730" y="155" width="30" height="30" fill="hsl(240 100% 82.87949777447292%)" />
  <rect x="765" y="155" width="30" height="30" fill="hsl(240 100% 99.55562179088493%)" />
  <rect x="835" y="155" width="30" height="30" fill="hsl(240 100% 95.70453667746823%)" />
  <rect x="65" y="190" width="30" height="30" fill="hsl(240 100% 50%)" />
  <rect x="100" y="190" width="30" height="30" fill="hsl(240 100% 50%)" />
  <rect x="135" y="190" width="30" height="30" fill="hsl(240 100% 50%)" />
  <rect x="170" y="190" width="30" height="30" fill="hsl(240 100% 50%)" />
  <rect x="205" y="190" width="30" height="30" fill="hsl(240 100% 50%)" />
  <rect x="240" y="190" width="30" height="30" fill="hsl(240 100% 50%)" />
  <rect x="275" y="190" width="30" height="30" fill="hsl(240 100% 50%)" />
  <rect x="310" y="190" width="30" height="30" fill="hsl(240 100% 50%)" />
  <rect x="345" y="190" width="30" height="30" fill="hsl(240 100% 50%)" />
  <rect x="380" y="190" width="30" height="30" fill="hsl(240 100% 50%)" />
  <rect x="415" y="190" width="30" height="30" fill="hsl(240 100% 50%)" />
  <rect x="450" y="190" width="30" height="30" fill="hsl(240 100% 50%)" />
  <rect x="485" y="190" width="30" height="30" fill="hsl(240 100% 50%)" />
  <rect x="520" y="190" width="30" height="30" fill="hsl(240 100% 50%)" />
  <rect x="555" y="190" width="30" height="30" fill="hsl(240 100% 50%)" />
  <rect x="590" y="190" width="30" height="30" fill="hsl(240 100% 50%)" />
  <rect x="625" y="190" width="30" height="30" fill="hsl(240 100% 50%)" />
  <rect x="660" y="190" width="30" height="30" fill="hsl(240 100% 50%)" />
  <rect x="695" y="190" width="30" height="30" fill="hsl(240 100% 50%)" />
  <rect x="730" y="190" width="30" height="30" fill="hsl(240 100% 50%)" />
  <rect x="765" y="190" width="30" height="30" fill="hsl(240 100% 50%)" />
  <rect x="800" y="190" width="30" height="30" fill="hsl(240 100% 50%)" />
  <rect x="835" y="190" width="30" height="30" fill="hsl(240 100% 50%)" />
  <rect x="100" y="225" width="30" height="30" fill="hsl(240 100% 96.58510733348145%)" />
  <rect x="135" y="225" width="30" height="30" fill="hsl(240 100% 88.97804349093029%)" />
  <rect x="170" y="225" width="30" height="30" fill="hsl(240 100% 88.89903191931802%)" />
  <rect x="240" y="225" width="30" height="30" fill="hsl(240 100% 91.06632841984099%)" />
  <rect x="310" y="225" width="30" height="30" fill="rgb(255 255 255 / 50%)" />
  <rect x="415" y="225" width="30" height="30" fill="hsl(240 100% 90.3239719005094%)" />
  <rect x="520" y="225" width="30" height="30" fill="hsl(240 100% 50%)" />
  <rect x="625" y="225" width="30" height="30" fill="rgb(255 255 255 / 50%)" />
  <rect x="730" y="225" width="30" height="30" fill="hsl(240 100% 93.04259271852716%)" />
  <rect x="765" y="225" width="30" height="30" fill="rgb(255 255 255 / 50%)" />
  <rect x="835" y="225" width="30" height="30" fill="hsl(240 100% 94.18378640452741%)" />
  <rect x="65" y="260" width="30" height="30" fill="hsl(240 100% 99.84958610027202%)" />
  <rect x="135" y="260" width="30" height="30" fill="hsl(240 100% 99.85081071776663%)" />
  <rect x="170" y="260" width="30" height="30" fill="hsl(240 100% 98.94550815854994%)" />
  <rect x="205" y="260" width="30" height="30" fill="rgb(255 255 255 / 50%)" />
  <rect x="240" y="260" width="30" height="30" fill="hsl(240 100% 87.17319303825883%)" />
  <rect x="310" y="260" width="30" height="30" fill="rgb(255 255 255 / 50%)" />
  <rect x="415" y="260" width="30" height="30" fill="hsl(240 100% 80.89991443572532%)" />
  <rect x="450" y="260" width="30" height="30" fill="rgb(255 255 255 / 50%)" />
  <rect x="485" y="260" width="30" height="30" fill="hsl(240 100% 50%)" />
  <rect x="520" y="260" width="30" height="30" fill="hsl(240 100% 71.43796045132991%)" />
  <rect x="625" y="260" width="30" height="30" fill="hsl(240 100% 97.06158076546134%)" />
  <rect x="695" y="260" width="30" height="30" fill="hsl(240 100% 94.15803417625852%)" />
  <rect x="65" y="295" width="30" height="30" fill="hsl(240 100% 85.76772350515073%)" />
  <rect x="100" y="295" width="30" height="30" fill="hsl(240 100% 97.5345319857561%)" />
  <rect x="135" y="295" width="30" height="30" fill="hsl(240 100% 95.02335548327304%)" />
  <rect x="170" y="295" width="30" height="30" fill="hsl(240 100% 90.58634467745208%)" />
  <rect x="205" y="295" width="30" height="30" fill="hsl(240 100% 99.44960952533623%)" />
  <rect x="240" y="295" width="30" height="30" fill="hsl(240 100% 50.08248336485923%)" />
  <rect x="275" y="295" width="30" height="30" fill="hsl(240 100% 50%)" />
  <rect x="310" y="295" width="30" height="30" fill="hsl(240 100% 99.49434999879963%)" />
  <rect x="345" y="295" width="30" height="30" fill="hsl(240 100% 94.65787029786662%)" />
  <rect x="415" y="295" width="30" height="30" fill="hsl(240 100% 54.77398351933904%)" />
  <rect x="450" y="295" width="30" height="30" fill="hsl(240 100% 99.33009687712058%)" />
  <rect x="485" y="295" width="30" height="30" fill="hsl(240 100% 88.2686556740227%)" />
  <rect x="520" y="295" width="30" height="30" fill="hsl(240 100% 57.43266071717379%)" />
  <rect x="695" y="295" width="30" height="30" fill="hsl(240 100% 97.58228737056642%)" />
  <rect x="800" y="295" width="30" height="30" fill="hsl(240 100% 99.56089652024953%)" />
  <rect x="835" y="295" width="30" height="30" fill="hsl(240 100% 99.95513133241636%)" />
  <rect x="65" y="330" width="30" height="30" fill="hsl(240 100% 89.39553230517805%)" />
  <rect x="100" y="330" width="30" height="30" fill="hsl(240 100% 95.07077269066525%)" />
  <rect x="135" y="330" width="30" height="30" fill="hsl(240 100% 97.25991107828206%)" />
  <rect x="170" y="330" width="30" height="30" fill="hsl(240 100% 88.82176102419518%)" />
  <rect x="205" y="330" width="30" height="30" fill="hsl(240 100% 99.22143167863726%)" />
  <rect x="240" y="330" width="30" height="30" fill="hsl(240 100% 80.55944918953011%)" />
  <rect x="275" y="330" width="30" height="30" fill="hsl(240 100% 89.07655305073939%)" />
  <rect x="310" y="330" width="30" height="30" fill="rgb(255 255 255 / 50%)" />
  <rect x="345" y="330" width="30" height="30" fill="hsl(240 100% 97.31509415769091%)" />
  <rect x="415" y="330" width="30" height="30" fill="hsl(240 100% 86.24541018152152%)" />
  <rect x="450" y="330" width="30" height="30" fill="hsl(240 100% 99.8110245547705%)" />
  <rect x="485" y="330" width="30" height="30" fill="hsl(240 100% 73.25993132662002%)" />
  <rect x="520" y="330" width="30" height="30" fill="hsl(240 100% 77.5823947839423%)" />
  <rect x="590" y="330" width="30" height="30" fill="hsl(240 100% 93.95504541963602%)" />
  <rect x="625" y="330" width="30" height="30" fill="hsl(240 100% 50%)" />
  <rect x="765" y="330" width="30" height="30" fill="hsl(240 100% 94.32102213124364%)" />
  <rect x="800" y="330" width="30" height="30" fill="hsl(240 100% 99.23521955870729%)" />
  <rect x="835" y="330" width="30" height="30" fill="hsl(240 100% 81.58389071786515%)" />
  <rect x="65" y="365" width="30" height="30" fill="hsl(240 100% 57.39102650501607%)" />
  <rect x="100" y="365" width="30" height="30" fill="hsl(240 100% 72.00298833832922%)" />
  <rect x="135" y="365" width="30" height="30" fill="hsl(240 100% 82.38247393103806%)" />
  <rect x="170" y="365" width="30" height="30" fill="hsl(240 100% 50%)" />
  <rect x="205" y="365" width="30" height="30" fill="hsl(240 100% 96.22293205193121%)" />
  <rect x="240" y="365" width="30" height="30" fill="hsl(240 100% 59.30665236856062%)" />
  <rect x="275" y="365" width="30" height="30" fill="hsl(240 100% 92.77684878344424%)" />
  <rect x="310" y="365" width="30" height="30" fill="hsl(240 100% 99.86167823351695%)" />
  <rect x="415" y="365" width="30" height="30" fill="hsl(240 100% 66.82605872980771%)" />
  <rect x="520" y="365" width="30" height="30" fill="hsl(240 100% 85.90688935751972%)" />
  <rect x="625" y="365" width="30" height="30" fill="hsl(240 100% 99.62673934384094%)" />
  <rect x="730" y="365" width="30" height="30" fill="hsl(240 100% 63.421883378367816%)" />
  <rect x="765" y="365" width="30" height="30" fill="hsl(240 100% 98.2180572872843%)" />
  <rect x="835" y="365" width="30" height="30" fill="hsl(240 100% 98.73134812320605%)" />
  <rect x="65" y="400" width="30" height="30" fill="hsl(240 100% 98.17029876735842%)" />
  <rect x="100" y="400" width="30" height="30" fill="hsl(240 100% 99.25922545780143%)" />
  <rect x="135" y="400" width="30" height="30" fill="hsl(240 100% 99.59576942456209%)" />
  <rect x="170" y="400" width="30" height="30" fill="hsl(240 100% 94.20702279157241%)" />
  <rect x="205" y="400" width="30" height="30" fill="hsl(240 100% 99.05577528662818%)" />
  <rect x="240" y="400" width="30" height="30" fill="hsl(240 100% 82.42497831493334%)" />
  <rect x="275" y="400" width="30" height="30" fill="hsl(240 100% 94.2922242638576%)" />
  <rect x="310" y="400" width="30" height="30" fill="rgb(255 255 255 / 50%)" />
  <rect x="380" y="400" width="30" height="30" fill="rgb(255 255 255 / 50%)" />
  <rect x="415" y="400" width="30" height="30" fill="hsl(240 100% 92.98893983040497%)" />
  <rect x="450" y="400" width="30" height="30" fill="hsl(240 100% 99.96410048122337%)" />
  <rect x="485" y="400" width="30" height="30" fill="hsl(240 100% 73.28571624424423%)" />
  <rect x="520" y="400" width="30" height="30" fill="hsl(240 100% 50%)" />
  <rect x="555" y="400" width="30" height="30" fill="hsl(240 100% 98.93223447759739%)" />
  <rect x="660" y="400" width="30" height="30" fill="rgb(255 255 255 / 50%)" />
  <rect x="835" y="400" width="30" height="30" fill="hsl(240 100% 99.01146129332862%)" />
  <rect x="65" y="435" width="30" height="30" fill="hsl(240 100% 92.9301652098318%)" />
  <rect x="240" y="435" width="30" height="30" fill="hsl(240 100% 50%)" />
  <rect x="310" y="435" width="30" height="30" fill="hsl(240 100% 94.28889407095895%)" />
  <rect x="415" y="435" width="30" height="30" fill="hsl(240 100% 87.01369911050223%)" />
  <rect x="450" y="435" width="30" height="30" fill="hsl(240 100% 99.78194240172594%)" />
  <rect x="65" y="470" width="30" height="30" fill="hsl(240 100% 50%)" />
  <rect x="240" y="470" width="30" height="30" fill="hsl(240 100% 50.44773067925178%)" />
  <rect x="310" y="470" width="30" height="30" fill="hsl(240 100% 97.14470095323074%)" />
  <rect x="415" y="470" width="30" height="30" fill="hsl(240 100% 89.38369939029683%)" />
  <rect x="450" y="470" width="30" height="30" fill="hsl(240 100% 99.57185537056209%)" />
</svg>
