<svg xmlns="http://www.w3.org/2000/svg" viewBox="0 0 870 505">
  <rect x="0" y="0" width="870" height="505" rx="5" ry="5" fill="#222" />
  <text x="60" y="100" fill="white" font-family="sans-serif" font-weight="bold" font-size="12" text-anchor="end" dominant-baseline="middle">ba</text>
  <text x="60" y="135" fill="white" font-family="sans-serif" font-weight="bold" font-size="12" text-anchor="end" dominant-baseline="middle">det</text>
  <text x="60" y="170" fill="white" font-family="sans-serif" font-weight="bold" font-size="12" text-anchor="end" dominant-baseline="middle">gmm</text>
  <text x="60" y="205" fill="white" font-family="sans-serif" font-weight="bold" font-size="12" text-anchor="end" dominant-baseline="middle">hello</text>
  <text x="60" y="240" fill="white" font-family="sans-serif" font-weight="bold" font-size="12" text-anchor="end" dominant-baseline="middle">ht</text>
  <text x="60" y="275" fill="white" font-family="sans-serif" font-weight="bold" font-size="12" text-anchor="end" dominant-baseline="middle">kmeans</text>
  <text x="60" y="310" fill="white" font-family="sans-serif" font-weight="bold" font-size="12" text-anchor="end" dominant-baseline="middle">llsq</text>
  <text x="60" y="345" fill="white" font-family="sans-serif" font-weight="bold" font-size="12" text-anchor="end" dominant-baseline="middle">lse</text>
  <text x="60" y="380" fill="white" font-family="sans-serif" font-weight="bold" font-size="12" text-anchor="end" dominant-baseline="middle">lstm</text>
  <text x="60" y="415" fill="white" font-family="sans-serif" font-weight="bold" font-size="12" text-anchor="end" dominant-baseline="middle">ode</text>
  <text x="60" y="450" fill="white" font-family="sans-serif" font-weight="bold" font-size="12" text-anchor="end" dominant-baseline="middle">particle</text>
  <text x="60" y="485" fill="white" font-family="sans-serif" font-weight="bold" font-size="12" text-anchor="end" dominant-baseline="middle">saddle</text>
  <text x="80" y="80" fill="white" font-family="sans-serif" font-weight="bold" font-size="12" text-anchor="end" dominant-baseline="middle" transform="rotate(90 80 80)">ad-hpp</text>
  <text x="115" y="80" fill="white" font-family="sans-serif" font-weight="bold" font-size="12" text-anchor="end" dominant-baseline="middle" transform="rotate(90 115 80)">adept</text>
  <text x="150" y="80" fill="white" font-family="sans-serif" font-weight="bold" font-size="12" text-anchor="end" dominant-baseline="middle" transform="rotate(90 150 80)">adol-c</text>
  <text x="185" y="80" fill="white" font-family="sans-serif" font-weight="bold" font-size="12" text-anchor="end" dominant-baseline="middle" transform="rotate(90 185 80)">codipack</text>
  <text x="220" y="80" fill="white" font-family="sans-serif" font-weight="bold" font-size="12" text-anchor="end" dominant-baseline="middle" transform="rotate(90 220 80)">cppad</text>
  <text x="255" y="80" fill="white" font-family="sans-serif" font-weight="bold" font-size="12" text-anchor="end" dominant-baseline="middle" transform="rotate(90 255 80)">enzyme</text>
  <text x="290" y="80" fill="white" font-family="sans-serif" font-weight="bold" font-size="12" text-anchor="end" dominant-baseline="middle" transform="rotate(90 290 80)">enzyme-jl</text>
  <text x="325" y="80" fill="white" font-family="sans-serif" font-weight="bold" font-size="12" text-anchor="end" dominant-baseline="middle" transform="rotate(90 325 80)">finite</text>
  <text x="360" y="80" fill="white" font-family="sans-serif" font-weight="bold" font-size="12" text-anchor="end" dominant-baseline="middle" transform="rotate(90 360 80)">floretta</text>
  <text x="395" y="80" fill="white" font-family="sans-serif" font-weight="bold" font-size="12" text-anchor="end" dominant-baseline="middle" transform="rotate(90 395 80)">forwarddiff-jl</text>
  <text x="430" y="80" fill="white" font-family="sans-serif" font-weight="bold" font-size="12" text-anchor="end" dominant-baseline="middle" transform="rotate(90 430 80)">futhark</text>
  <text x="465" y="80" fill="white" font-family="sans-serif" font-weight="bold" font-size="12" text-anchor="end" dominant-baseline="middle" transform="rotate(90 465 80)">haskell</text>
  <text x="500" y="80" fill="white" font-family="sans-serif" font-weight="bold" font-size="12" text-anchor="end" dominant-baseline="middle" transform="rotate(90 500 80)">jax</text>
  <text x="535" y="80" fill="white" font-family="sans-serif" font-weight="bold" font-size="12" text-anchor="end" dominant-baseline="middle" transform="rotate(90 535 80)">manual</text>
  <text x="570" y="80" fill="white" font-family="sans-serif" font-weight="bold" font-size="12" text-anchor="end" dominant-baseline="middle" transform="rotate(90 570 80)">mooncake-jl</text>
  <text x="605" y="80" fill="white" font-family="sans-serif" font-weight="bold" font-size="12" text-anchor="end" dominant-baseline="middle" transform="rotate(90 605 80)">ocaml</text>
  <text x="640" y="80" fill="white" font-family="sans-serif" font-weight="bold" font-size="12" text-anchor="end" dominant-baseline="middle" transform="rotate(90 640 80)">pytorch</text>
  <text x="675" y="80" fill="white" font-family="sans-serif" font-weight="bold" font-size="12" text-anchor="end" dominant-baseline="middle" transform="rotate(90 675 80)">reversediff-jl</text>
  <text x="710" y="80" fill="white" font-family="sans-serif" font-weight="bold" font-size="12" text-anchor="end" dominant-baseline="middle" transform="rotate(90 710 80)">scilean</text>
  <text x="745" y="80" fill="white" font-family="sans-serif" font-weight="bold" font-size="12" text-anchor="end" dominant-baseline="middle" transform="rotate(90 745 80)">tapenade</text>
  <text x="780" y="80" fill="white" font-family="sans-serif" font-weight="bold" font-size="12" text-anchor="end" dominant-baseline="middle" transform="rotate(90 780 80)">tensorflow</text>
  <text x="815" y="80" fill="white" font-family="sans-serif" font-weight="bold" font-size="12" text-anchor="end" dominant-baseline="middle" transform="rotate(90 815 80)">tensorflow-js</text>
  <text x="850" y="80" fill="white" font-family="sans-serif" font-weight="bold" font-size="12" text-anchor="end" dominant-baseline="middle" transform="rotate(90 850 80)">zygote</text>
  <rect x="65" y="85" width="30" height="30" fill="hsl(240 100% 80.76343632946386%)" />
  <rect x="100" y="85" width="30" height="30" fill="hsl(240 100% 82.23673964925558%)" />
  <rect x="135" y="85" width="30" height="30" fill="hsl(240 100% 97.9170340098764%)" />
  <rect x="170" y="85" width="30" height="30" fill="hsl(240 100% 81.67876221576654%)" />
  <rect x="205" y="85" width="30" height="30" fill="hsl(240 100% 98.95415737071637%)" />
  <rect x="240" y="85" width="30" height="30" fill="hsl(240 100% 50%)" />
  <rect x="310" y="85" width="30" height="30" fill="hsl(240 100% 92.89445016700229%)" />
  <rect x="415" y="85" width="30" height="30" fill="hsl(240 100% 67.15231636954825%)" />
  <rect x="520" y="85" width="30" height="30" fill="hsl(240 100% 54.85637146142593%)" />
  <rect x="625" y="85" width="30" height="30" fill="rgb(255 255 255 / 50%)" />
  <rect x="730" y="85" width="30" height="30" fill="hsl(240 100% 74.2000101722313%)" />
  <rect x="765" y="85" width="30" height="30" fill="rgb(255 255 255 / 50%)" />
  <rect x="835" y="85" width="30" height="30" fill="hsl(240 100% 99.73149480552468%)" />
  <rect x="65" y="120" width="30" height="30" fill="hsl(240 100% 50%)" />
  <rect x="100" y="120" width="30" height="30" fill="hsl(240 100% 83.00847404903055%)" />
  <rect x="135" y="120" width="30" height="30" fill="hsl(240 100% 85.46397756197149%)" />
  <rect x="170" y="120" width="30" height="30" fill="hsl(240 100% 52.583658982784996%)" />
  <rect x="205" y="120" width="30" height="30" fill="hsl(240 100% 92.67069929736147%)" />
  <rect x="240" y="120" width="30" height="30" fill="hsl(240 100% 91.71209265637893%)" />
  <rect x="275" y="120" width="30" height="30" fill="hsl(240 100% 99.3575748404713%)" />
  <rect x="310" y="120" width="30" height="30" fill="hsl(240 100% 98.99927896463542%)" />
  <rect x="380" y="120" width="30" height="30" fill="hsl(240 100% 93.44345479410096%)" />
  <rect x="415" y="120" width="30" height="30" fill="hsl(240 100% 94.71408689899891%)" />
  <rect x="450" y="120" width="30" height="30" fill="hsl(240 100% 97.871770143273%)" />
  <rect x="520" y="120" width="30" height="30" fill="hsl(240 100% 80.05291684636511%)" />
  <rect x="555" y="120" width="30" height="30" fill="hsl(240 100% 89.905701055295%)" />
  <rect x="660" y="120" width="30" height="30" fill="rgb(255 255 255 / 50%)" />
  <rect x="835" y="120" width="30" height="30" fill="rgb(255 255 255 / 50%)" />
  <rect x="65" y="155" width="30" height="30" fill="hsl(240 100% 98.57968714725739%)" />
  <rect x="100" y="155" width="30" height="30" fill="hsl(240 100% 98.73539310450288%)" />
  <rect x="135" y="155" width="30" height="30" fill="hsl(240 100% 99.03945371608079%)" />
  <rect x="170" y="155" width="30" height="30" fill="hsl(240 100% 97.94400052660855%)" />
  <rect x="205" y="155" width="30" height="30" fill="hsl(240 100% 99.83929509487614%)" />
  <rect x="240" y="155" width="30" height="30" fill="hsl(240 100% 90.59369057099715%)" />
  <rect x="275" y="155" width="30" height="30" fill="hsl(240 100% 91.68434219499304%)" />
  <rect x="310" y="155" width="30" height="30" fill="rgb(255 255 255 / 50%)" />
  <rect x="415" y="155" width="30" height="30" fill="hsl(240 100% 92.45380930227105%)" />
  <rect x="485" y="155" width="30" height="30" fill="hsl(240 100% 50%)" />
  <rect x="520" y="155" width="30" height="30" fill="hsl(240 100% 79.63050641324818%)" />
  <rect x="590" y="155" width="30" height="30" fill="hsl(240 100% 99.55482975389663%)" />
  <rect x="625" y="155" width="30" height="30" fill="hsl(240 100% 64.03875241525134%)" />
  <rect x="695" y="155" width="30" height="30" fill="hsl(240 100% 95.09195290601507%)" />
  <rect x="730" y="155" width="30" height="30" fill="hsl(240 100% 82.5782769539166%)" />
  <rect x="765" y="155" width="30" height="30" fill="hsl(240 100% 99.55851170255487%)" />
  <rect x="835" y="155" width="30" height="30" fill="hsl(240 100% 96.01490791943634%)" />
  <rect x="65" y="190" width="30" height="30" fill="hsl(240 100% 50%)" />
  <rect x="100" y="190" width="30" height="30" fill="hsl(240 100% 50%)" />
  <rect x="135" y="190" width="30" height="30" fill="hsl(240 100% 50%)" />
  <rect x="170" y="190" width="30" height="30" fill="hsl(240 100% 50%)" />
  <rect x="205" y="190" width="30" height="30" fill="hsl(240 100% 50%)" />
  <rect x="240" y="190" width="30" height="30" fill="hsl(240 100% 50%)" />
  <rect x="275" y="190" width="30" height="30" fill="hsl(240 100% 50%)" />
  <rect x="310" y="190" width="30" height="30" fill="hsl(240 100% 50%)" />
  <rect x="345" y="190" width="30" height="30" fill="hsl(240 100% 50%)" />
  <rect x="380" y="190" width="30" height="30" fill="hsl(240 100% 50%)" />
  <rect x="415" y="190" width="30" height="30" fill="hsl(240 100% 50%)" />
  <rect x="450" y="190" width="30" height="30" fill="hsl(240 100% 50%)" />
  <rect x="485" y="190" width="30" height="30" fill="hsl(240 100% 50%)" />
  <rect x="520" y="190" width="30" height="30" fill="hsl(240 100% 50%)" />
  <rect x="555" y="190" width="30" height="30" fill="hsl(240 100% 50%)" />
  <rect x="590" y="190" width="30" height="30" fill="hsl(240 100% 50%)" />
  <rect x="625" y="190" width="30" height="30" fill="hsl(240 100% 50%)" />
  <rect x="660" y="190" width="30" height="30" fill="hsl(240 100% 50%)" />
  <rect x="695" y="190" width="30" height="30" fill="hsl(240 100% 50%)" />
  <rect x="730" y="190" width="30" height="30" fill="hsl(240 100% 50%)" />
  <rect x="765" y="190" width="30" height="30" fill="hsl(240 100% 50%)" />
  <rect x="800" y="190" width="30" height="30" fill="hsl(240 100% 50%)" />
  <rect x="835" y="190" width="30" height="30" fill="hsl(240 100% 50%)" />
  <rect x="100" y="225" width="30" height="30" fill="hsl(240 100% 96.26932331011122%)" />
  <rect x="135" y="225" width="30" height="30" fill="hsl(240 100% 86.65478463909916%)" />
  <rect x="170" y="225" width="30" height="30" fill="hsl(240 100% 87.82128275429024%)" />
  <rect x="240" y="225" width="30" height="30" fill="hsl(240 100% 90.30262261029505%)" />
  <rect x="310" y="225" width="30" height="30" fill="rgb(255 255 255 / 50%)" />
  <rect x="415" y="225" width="30" height="30" fill="hsl(240 100% 89.33983669199722%)" />
  <rect x="520" y="225" width="30" height="30" fill="hsl(240 100% 50%)" />
  <rect x="625" y="225" width="30" height="30" fill="rgb(255 255 255 / 50%)" />
  <rect x="730" y="225" width="30" height="30" fill="hsl(240 100% 92.3284918440917%)" />
  <rect x="765" y="225" width="30" height="30" fill="rgb(255 255 255 / 50%)" />
  <rect x="835" y="225" width="30" height="30" fill="hsl(240 100% 93.69789912211617%)" />
  <rect x="65" y="260" width="30" height="30" fill="hsl(240 100% 99.85435987814148%)" />
  <rect x="135" y="260" width="30" height="30" fill="hsl(240 100% 99.86106458290938%)" />
  <rect x="170" y="260" width="30" height="30" fill="hsl(240 100% 98.88819060534246%)" />
  <rect x="205" y="260" width="30" height="30" fill="rgb(255 255 255 / 50%)" />
  <rect x="240" y="260" width="30" height="30" fill="hsl(240 100% 87.06354443275922%)" />
  <rect x="310" y="260" width="30" height="30" fill="rgb(255 255 255 / 50%)" />
  <rect x="415" y="260" width="30" height="30" fill="hsl(240 100% 80.77495222136301%)" />
  <rect x="450" y="260" width="30" height="30" fill="rgb(255 255 255 / 50%)" />
  <rect x="485" y="260" width="30" height="30" fill="hsl(240 100% 50%)" />
  <rect x="520" y="260" width="30" height="30" fill="hsl(240 100% 72.21316093241313%)" />
  <rect x="625" y="260" width="30" height="30" fill="hsl(240 100% 97.03967324377136%)" />
  <rect x="695" y="260" width="30" height="30" fill="hsl(240 100% 94.10456926070957%)" />
  <rect x="65" y="295" width="30" height="30" fill="hsl(240 100% 86.2977149421516%)" />
  <rect x="100" y="295" width="30" height="30" fill="hsl(240 100% 97.4355157083475%)" />
  <rect x="135" y="295" width="30" height="30" fill="hsl(240 100% 94.98594119753528%)" />
  <rect x="170" y="295" width="30" height="30" fill="hsl(240 100% 89.24548297948023%)" />
  <rect x="205" y="295" width="30" height="30" fill="hsl(240 100% 99.478944413004%)" />
  <rect x="240" y="295" width="30" height="30" fill="hsl(240 100% 50%)" />
  <rect x="275" y="295" width="30" height="30" fill="hsl(240 100% 50.16625739174298%)" />
  <rect x="310" y="295" width="30" height="30" fill="hsl(240 100% 99.49371303921528%)" />
  <rect x="345" y="295" width="30" height="30" fill="hsl(240 100% 94.65975267073091%)" />
  <rect x="415" y="295" width="30" height="30" fill="hsl(240 100% 54.7499209897254%)" />
  <rect x="450" y="295" width="30" height="30" fill="hsl(240 100% 99.31726277018484%)" />
  <rect x="485" y="295" width="30" height="30" fill="hsl(240 100% 88.16545888416971%)" />
  <rect x="520" y="295" width="30" height="30" fill="hsl(240 100% 57.33623294045357%)" />
  <rect x="695" y="295" width="30" height="30" fill="hsl(240 100% 97.58652464665569%)" />
  <rect x="800" y="295" width="30" height="30" fill="hsl(240 100% 99.56205477659661%)" />
  <rect x="835" y="295" width="30" height="30" fill="hsl(240 100% 99.95391290430098%)" />
  <rect x="65" y="330" width="30" height="30" fill="hsl(240 100% 85.65373988972402%)" />
  <rect x="100" y="330" width="30" height="30" fill="hsl(240 100% 93.79479248268427%)" />
  <rect x="135" y="330" width="30" height="30" fill="hsl(240 100% 96.62858016579497%)" />
  <rect x="170" y="330" width="30" height="30" fill="hsl(240 100% 85.5312654266866%)" />
  <rect x="205" y="330" width="30" height="30" fill="hsl(240 100% 99.10639060061013%)" />
  <rect x="240" y="330" width="30" height="30" fill="hsl(240 100% 76.96808236961184%)" />
  <rect x="275" y="330" width="30" height="30" fill="hsl(240 100% 86.23055429069005%)" />
  <rect x="310" y="330" width="30" height="30" fill="rgb(255 255 255 / 50%)" />
  <rect x="345" y="330" width="30" height="30" fill="hsl(240 100% 96.89472665377389%)" />
  <rect x="415" y="330" width="30" height="30" fill="hsl(240 100% 83.85218231182778%)" />
  <rect x="450" y="330" width="30" height="30" fill="hsl(240 100% 99.79317784776076%)" />
  <rect x="485" y="330" width="30" height="30" fill="hsl(240 100% 67.03432074658286%)" />
  <rect x="520" y="330" width="30" height="30" fill="hsl(240 100% 67.07910657891483%)" />
  <rect x="590" y="330" width="30" height="30" fill="hsl(240 100% 93.02614913561932%)" />
  <rect x="625" y="330" width="30" height="30" fill="hsl(240 100% 50%)" />
  <rect x="765" y="330" width="30" height="30" fill="hsl(240 100% 93.55472110351762%)" />
  <rect x="800" y="330" width="30" height="30" fill="hsl(240 100% 99.10482199646795%)" />
  <rect x="835" y="330" width="30" height="30" fill="hsl(240 100% 78.01265841041942%)" />
  <rect x="65" y="365" width="30" height="30" fill="hsl(240 100% 57.59701462988529%)" />
  <rect x="100" y="365" width="30" height="30" fill="hsl(240 100% 71.24812686948016%)" />
  <rect x="135" y="365" width="30" height="30" fill="hsl(240 100% 81.40819889332231%)" />
  <rect x="170" y="365" width="30" height="30" fill="hsl(240 100% 50%)" />
  <rect x="205" y="365" width="30" height="30" fill="hsl(240 100% 96.07320632937642%)" />
  <rect x="240" y="365" width="30" height="30" fill="hsl(240 100% 59.448354134497066%)" />
  <rect x="275" y="365" width="30" height="30" fill="hsl(240 100% 92.15572680138835%)" />
  <rect x="310" y="365" width="30" height="30" fill="hsl(240 100% 99.86066482486973%)" />
  <rect x="415" y="365" width="30" height="30" fill="hsl(240 100% 66.35518281955436%)" />
  <rect x="520" y="365" width="30" height="30" fill="hsl(240 100% 86.03022646406228%)" />
  <rect x="625" y="365" width="30" height="30" fill="hsl(240 100% 99.64703120158315%)" />
  <rect x="730" y="365" width="30" height="30" fill="hsl(240 100% 63.26594727951759%)" />
  <rect x="765" y="365" width="30" height="30" fill="hsl(240 100% 98.20917474802448%)" />
  <rect x="835" y="365" width="30" height="30" fill="hsl(240 100% 98.76806662822102%)" />
  <rect x="65" y="400" width="30" height="30" fill="hsl(240 100% 97.9111403965895%)" />
  <rect x="100" y="400" width="30" height="30" fill="hsl(240 100% 99.4089995806602%)" />
  <rect x="135" y="400" width="30" height="30" fill="hsl(240 100% 99.61388317078507%)" />
  <rect x="170" y="400" width="30" height="30" fill="hsl(240 100% 93.04701385901667%)" />
  <rect x="205" y="400" width="30" height="30" fill="hsl(240 100% 99.12028286485746%)" />
  <rect x="240" y="400" width="30" height="30" fill="hsl(240 100% 84.68859637746922%)" />
  <rect x="275" y="400" width="30" height="30" fill="hsl(240 100% 94.62115939772376%)" />
  <rect x="310" y="400" width="30" height="30" fill="rgb(255 255 255 / 50%)" />
  <rect x="380" y="400" width="30" height="30" fill="rgb(255 255 255 / 50%)" />
  <rect x="415" y="400" width="30" height="30" fill="hsl(240 100% 93.10002193090727%)" />
  <rect x="450" y="400" width="30" height="30" fill="hsl(240 100% 99.96738474943568%)" />
  <rect x="485" y="400" width="30" height="30" fill="hsl(240 100% 75.71323863955134%)" />
  <rect x="520" y="400" width="30" height="30" fill="hsl(240 100% 50%)" />
  <rect x="555" y="400" width="30" height="30" fill="hsl(240 100% 98.98816225575992%)" />
  <rect x="660" y="400" width="30" height="30" fill="rgb(255 255 255 / 50%)" />
  <rect x="835" y="400" width="30" height="30" fill="hsl(240 100% 98.86513362430881%)" />
  <rect x="65" y="435" width="30" height="30" fill="hsl(240 100% 93.28342006289353%)" />
  <rect x="240" y="435" width="30" height="30" fill="hsl(240 100% 50%)" />
  <rect x="310" y="435" width="30" height="30" fill="hsl(240 100% 93.86062723805802%)" />
  <rect x="415" y="435" width="30" height="30" fill="hsl(240 100% 87.0039007695251%)" />
  <rect x="450" y="435" width="30" height="30" fill="hsl(240 100% 99.77936728207838%)" />
  <rect x="65" y="470" width="30" height="30" fill="hsl(240 100% 50.01020649552822%)" />
  <rect x="240" y="470" width="30" height="30" fill="hsl(240 100% 50%)" />
  <rect x="310" y="470" width="30" height="30" fill="hsl(240 100% 96.96164207112508%)" />
  <rect x="415" y="470" width="30" height="30" fill="hsl(240 100% 89.04869360175454%)" />
  <rect x="450" y="470" width="30" height="30" fill="hsl(240 100% 99.5779822424995%)" />
</svg>
