<svg xmlns="http://www.w3.org/2000/svg" viewBox="0 0 870 505">
  <rect x="0" y="0" width="870" height="505" rx="5" ry="5" fill="#222" />
  <text x="60" y="100" fill="white" font-family="sans-serif" font-weight="bold" font-size="12" text-anchor="end" dominant-baseline="middle">ba</text>
  <text x="60" y="135" fill="white" font-family="sans-serif" font-weight="bold" font-size="12" text-anchor="end" dominant-baseline="middle">det</text>
  <text x="60" y="170" fill="white" font-family="sans-serif" font-weight="bold" font-size="12" text-anchor="end" dominant-baseline="middle">gmm</text>
  <text x="60" y="205" fill="white" font-family="sans-serif" font-weight="bold" font-size="12" text-anchor="end" dominant-baseline="middle">hello</text>
  <text x="60" y="240" fill="white" font-family="sans-serif" font-weight="bold" font-size="12" text-anchor="end" dominant-baseline="middle">ht</text>
  <text x="60" y="275" fill="white" font-family="sans-serif" font-weight="bold" font-size="12" text-anchor="end" dominant-baseline="middle">kmeans</text>
  <text x="60" y="310" fill="white" font-family="sans-serif" font-weight="bold" font-size="12" text-anchor="end" dominant-baseline="middle">llsq</text>
  <text x="60" y="345" fill="white" font-family="sans-serif" font-weight="bold" font-size="12" text-anchor="end" dominant-baseline="middle">lse</text>
  <text x="60" y="380" fill="white" font-family="sans-serif" font-weight="bold" font-size="12" text-anchor="end" dominant-baseline="middle">lstm</text>
  <text x="60" y="415" fill="white" font-family="sans-serif" font-weight="bold" font-size="12" text-anchor="end" dominant-baseline="middle">ode</text>
  <text x="60" y="450" fill="white" font-family="sans-serif" font-weight="bold" font-size="12" text-anchor="end" dominant-baseline="middle">particle</text>
  <text x="60" y="485" fill="white" font-family="sans-serif" font-weight="bold" font-size="12" text-anchor="end" dominant-baseline="middle">saddle</text>
  <text x="80" y="80" fill="white" font-family="sans-serif" font-weight="bold" font-size="12" text-anchor="end" dominant-baseline="middle" transform="rotate(90 80 80)">ad-hpp</text>
  <text x="115" y="80" fill="white" font-family="sans-serif" font-weight="bold" font-size="12" text-anchor="end" dominant-baseline="middle" transform="rotate(90 115 80)">adept</text>
  <text x="150" y="80" fill="white" font-family="sans-serif" font-weight="bold" font-size="12" text-anchor="end" dominant-baseline="middle" transform="rotate(90 150 80)">adol-c</text>
  <text x="185" y="80" fill="white" font-family="sans-serif" font-weight="bold" font-size="12" text-anchor="end" dominant-baseline="middle" transform="rotate(90 185 80)">codipack</text>
  <text x="220" y="80" fill="white" font-family="sans-serif" font-weight="bold" font-size="12" text-anchor="end" dominant-baseline="middle" transform="rotate(90 220 80)">cppad</text>
  <text x="255" y="80" fill="white" font-family="sans-serif" font-weight="bold" font-size="12" text-anchor="end" dominant-baseline="middle" transform="rotate(90 255 80)">enzyme</text>
  <text x="290" y="80" fill="white" font-family="sans-serif" font-weight="bold" font-size="12" text-anchor="end" dominant-baseline="middle" transform="rotate(90 290 80)">enzyme-jl</text>
  <text x="325" y="80" fill="white" font-family="sans-serif" font-weight="bold" font-size="12" text-anchor="end" dominant-baseline="middle" transform="rotate(90 325 80)">finite</text>
  <text x="360" y="80" fill="white" font-family="sans-serif" font-weight="bold" font-size="12" text-anchor="end" dominant-baseline="middle" transform="rotate(90 360 80)">floretta</text>
  <text x="395" y="80" fill="white" font-family="sans-serif" font-weight="bold" font-size="12" text-anchor="end" dominant-baseline="middle" transform="rotate(90 395 80)">forwarddiff-jl</text>
  <text x="430" y="80" fill="white" font-family="sans-serif" font-weight="bold" font-size="12" text-anchor="end" dominant-baseline="middle" transform="rotate(90 430 80)">futhark</text>
  <text x="465" y="80" fill="white" font-family="sans-serif" font-weight="bold" font-size="12" text-anchor="end" dominant-baseline="middle" transform="rotate(90 465 80)">haskell</text>
  <text x="500" y="80" fill="white" font-family="sans-serif" font-weight="bold" font-size="12" text-anchor="end" dominant-baseline="middle" transform="rotate(90 500 80)">jax</text>
  <text x="535" y="80" fill="white" font-family="sans-serif" font-weight="bold" font-size="12" text-anchor="end" dominant-baseline="middle" transform="rotate(90 535 80)">manual</text>
  <text x="570" y="80" fill="white" font-family="sans-serif" font-weight="bold" font-size="12" text-anchor="end" dominant-baseline="middle" transform="rotate(90 570 80)">mooncake-jl</text>
  <text x="605" y="80" fill="white" font-family="sans-serif" font-weight="bold" font-size="12" text-anchor="end" dominant-baseline="middle" transform="rotate(90 605 80)">ocaml</text>
  <text x="640" y="80" fill="white" font-family="sans-serif" font-weight="bold" font-size="12" text-anchor="end" dominant-baseline="middle" transform="rotate(90 640 80)">pytorch</text>
  <text x="675" y="80" fill="white" font-family="sans-serif" font-weight="bold" font-size="12" text-anchor="end" dominant-baseline="middle" transform="rotate(90 675 80)">reversediff-jl</text>
  <text x="710" y="80" fill="white" font-family="sans-serif" font-weight="bold" font-size="12" text-anchor="end" dominant-baseline="middle" transform="rotate(90 710 80)">scilean</text>
  <text x="745" y="80" fill="white" font-family="sans-serif" font-weight="bold" font-size="12" text-anchor="end" dominant-baseline="middle" transform="rotate(90 745 80)">tapenade</text>
  <text x="780" y="80" fill="white" font-family="sans-serif" font-weight="bold" font-size="12" text-anchor="end" dominant-baseline="middle" transform="rotate(90 780 80)">tensorflow</text>
  <text x="815" y="80" fill="white" font-family="sans-serif" font-weight="bold" font-size="12" text-anchor="end" dominant-baseline="middle" transform="rotate(90 815 80)">tensorflow-js</text>
  <text x="850" y="80" fill="white" font-family="sans-serif" font-weight="bold" font-size="12" text-anchor="end" dominant-baseline="middle" transform="rotate(90 850 80)">zygote</text>
  <rect x="65" y="85" width="30" height="30" fill="hsl(240 100% 80.98286490121596%)" />
  <rect x="100" y="85" width="30" height="30" fill="hsl(240 100% 83.37790526770716%)" />
  <rect x="135" y="85" width="30" height="30" fill="hsl(240 100% 97.99163678557088%)" />
  <rect x="170" y="85" width="30" height="30" fill="hsl(240 100% 82.3399904626163%)" />
  <rect x="205" y="85" width="30" height="30" fill="hsl(240 100% 99.00065182715164%)" />
  <rect x="240" y="85" width="30" height="30" fill="hsl(240 100% 51.679992434202774%)" />
  <rect x="310" y="85" width="30" height="30" fill="hsl(240 100% 93.24314438268863%)" />
  <rect x="415" y="85" width="30" height="30" fill="hsl(240 100% 68.04563973302025%)" />
  <rect x="520" y="85" width="30" height="30" fill="hsl(240 100% 50%)" />
  <rect x="625" y="85" width="30" height="30" fill="rgb(255 255 255 / 50%)" />
  <rect x="730" y="85" width="30" height="30" fill="hsl(240 100% 75.01555358919491%)" />
  <rect x="765" y="85" width="30" height="30" fill="rgb(255 255 255 / 50%)" />
  <rect x="835" y="85" width="30" height="30" fill="hsl(240 100% 99.72788203188445%)" />
  <rect x="65" y="120" width="30" height="30" fill="hsl(240 100% 50%)" />
  <rect x="100" y="120" width="30" height="30" fill="hsl(240 100% 82.56197151887461%)" />
  <rect x="135" y="120" width="30" height="30" fill="hsl(240 100% 85.71242457455466%)" />
  <rect x="170" y="120" width="30" height="30" fill="hsl(240 100% 52.03091104461899%)" />
  <rect x="205" y="120" width="30" height="30" fill="hsl(240 100% 92.53741153851547%)" />
  <rect x="240" y="120" width="30" height="30" fill="hsl(240 100% 91.34292206185862%)" />
  <rect x="275" y="120" width="30" height="30" fill="hsl(240 100% 99.33430712212072%)" />
  <rect x="310" y="120" width="30" height="30" fill="hsl(240 100% 98.98292850520978%)" />
  <rect x="380" y="120" width="30" height="30" fill="hsl(240 100% 93.45478096427856%)" />
  <rect x="415" y="120" width="30" height="30" fill="hsl(240 100% 94.5599161923757%)" />
  <rect x="450" y="120" width="30" height="30" fill="hsl(240 100% 97.96695697259817%)" />
  <rect x="520" y="120" width="30" height="30" fill="hsl(240 100% 79.64180431771267%)" />
  <rect x="555" y="120" width="30" height="30" fill="hsl(240 100% 90.42478717520903%)" />
  <rect x="660" y="120" width="30" height="30" fill="rgb(255 255 255 / 50%)" />
  <rect x="835" y="120" width="30" height="30" fill="rgb(255 255 255 / 50%)" />
  <rect x="65" y="155" width="30" height="30" fill="hsl(240 100% 98.46406796793775%)" />
  <rect x="100" y="155" width="30" height="30" fill="hsl(240 100% 98.80538661783397%)" />
  <rect x="135" y="155" width="30" height="30" fill="hsl(240 100% 99.13033575503674%)" />
  <rect x="170" y="155" width="30" height="30" fill="hsl(240 100% 98.07794734175606%)" />
  <rect x="205" y="155" width="30" height="30" fill="hsl(240 100% 99.85097624341739%)" />
  <rect x="240" y="155" width="30" height="30" fill="hsl(240 100% 91.27976654093258%)" />
  <rect x="275" y="155" width="30" height="30" fill="hsl(240 100% 92.32558581592853%)" />
  <rect x="310" y="155" width="30" height="30" fill="rgb(255 255 255 / 50%)" />
  <rect x="415" y="155" width="30" height="30" fill="hsl(240 100% 93.02619039678397%)" />
  <rect x="485" y="155" width="30" height="30" fill="hsl(240 100% 50%)" />
  <rect x="520" y="155" width="30" height="30" fill="hsl(240 100% 83.49683901493246%)" />
  <rect x="590" y="155" width="30" height="30" fill="hsl(240 100% 99.58729818719628%)" />
  <rect x="625" y="155" width="30" height="30" fill="hsl(240 100% 66.86928666565288%)" />
  <rect x="695" y="155" width="30" height="30" fill="hsl(240 100% 95.54263550142312%)" />
  <rect x="730" y="155" width="30" height="30" fill="hsl(240 100% 83.85107595267272%)" />
  <rect x="765" y="155" width="30" height="30" fill="hsl(240 100% 99.5780895995969%)" />
  <rect x="835" y="155" width="30" height="30" fill="hsl(240 100% 96.22784286952087%)" />
  <rect x="65" y="190" width="30" height="30" fill="hsl(240 100% 50%)" />
  <rect x="100" y="190" width="30" height="30" fill="hsl(240 100% 50%)" />
  <rect x="135" y="190" width="30" height="30" fill="hsl(240 100% 50%)" />
  <rect x="170" y="190" width="30" height="30" fill="hsl(240 100% 50%)" />
  <rect x="205" y="190" width="30" height="30" fill="hsl(240 100% 50%)" />
  <rect x="240" y="190" width="30" height="30" fill="hsl(240 100% 50%)" />
  <rect x="275" y="190" width="30" height="30" fill="hsl(240 100% 50%)" />
  <rect x="310" y="190" width="30" height="30" fill="hsl(240 100% 50%)" />
  <rect x="345" y="190" width="30" height="30" fill="hsl(240 100% 50%)" />
  <rect x="380" y="190" width="30" height="30" fill="hsl(240 100% 50%)" />
  <rect x="415" y="190" width="30" height="30" fill="hsl(240 100% 50%)" />
  <rect x="450" y="190" width="30" height="30" fill="hsl(240 100% 50%)" />
  <rect x="485" y="190" width="30" height="30" fill="hsl(240 100% 50%)" />
  <rect x="520" y="190" width="30" height="30" fill="hsl(240 100% 50%)" />
  <rect x="555" y="190" width="30" height="30" fill="hsl(240 100% 50%)" />
  <rect x="590" y="190" width="30" height="30" fill="hsl(240 100% 50%)" />
  <rect x="625" y="190" width="30" height="30" fill="hsl(240 100% 50%)" />
  <rect x="660" y="190" width="30" height="30" fill="hsl(240 100% 50%)" />
  <rect x="695" y="190" width="30" height="30" fill="hsl(240 100% 50%)" />
  <rect x="730" y="190" width="30" height="30" fill="hsl(240 100% 50%)" />
  <rect x="765" y="190" width="30" height="30" fill="hsl(240 100% 50%)" />
  <rect x="800" y="190" width="30" height="30" fill="hsl(240 100% 50%)" />
  <rect x="835" y="190" width="30" height="30" fill="hsl(240 100% 50%)" />
  <rect x="100" y="225" width="30" height="30" fill="hsl(240 100% 96.76108982742885%)" />
  <rect x="135" y="225" width="30" height="30" fill="hsl(240 100% 89.24525806343219%)" />
  <rect x="170" y="225" width="30" height="30" fill="hsl(240 100% 89.46885850912665%)" />
  <rect x="240" y="225" width="30" height="30" fill="hsl(240 100% 91.5167283531649%)" />
  <rect x="310" y="225" width="30" height="30" fill="rgb(255 255 255 / 50%)" />
  <rect x="415" y="225" width="30" height="30" fill="hsl(240 100% 90.75107964089213%)" />
  <rect x="520" y="225" width="30" height="30" fill="hsl(240 100% 50%)" />
  <rect x="625" y="225" width="30" height="30" fill="rgb(255 255 255 / 50%)" />
  <rect x="730" y="225" width="30" height="30" fill="hsl(240 100% 93.29572172829481%)" />
  <rect x="765" y="225" width="30" height="30" fill="rgb(255 255 255 / 50%)" />
  <rect x="835" y="225" width="30" height="30" fill="hsl(240 100% 94.61252000861975%)" />
  <rect x="65" y="260" width="30" height="30" fill="hsl(240 100% 99.90538983943081%)" />
  <rect x="135" y="260" width="30" height="30" fill="hsl(240 100% 99.85009106793011%)" />
  <rect x="170" y="260" width="30" height="30" fill="hsl(240 100% 98.76521261112013%)" />
  <rect x="205" y="260" width="30" height="30" fill="rgb(255 255 255 / 50%)" />
  <rect x="240" y="260" width="30" height="30" fill="hsl(240 100% 86.78452426964273%)" />
  <rect x="310" y="260" width="30" height="30" fill="rgb(255 255 255 / 50%)" />
  <rect x="415" y="260" width="30" height="30" fill="hsl(240 100% 80.3583878166216%)" />
  <rect x="450" y="260" width="30" height="30" fill="rgb(255 255 255 / 50%)" />
  <rect x="485" y="260" width="30" height="30" fill="hsl(240 100% 50%)" />
  <rect x="520" y="260" width="30" height="30" fill="hsl(240 100% 70.7717922127298%)" />
  <rect x="625" y="260" width="30" height="30" fill="hsl(240 100% 96.94374379731607%)" />
  <rect x="695" y="260" width="30" height="30" fill="hsl(240 100% 94.04185074252456%)" />
  <rect x="65" y="295" width="30" height="30" fill="hsl(240 100% 86.09469469508358%)" />
  <rect x="100" y="295" width="30" height="30" fill="hsl(240 100% 97.51031365903786%)" />
  <rect x="135" y="295" width="30" height="30" fill="hsl(240 100% 95.16298578156552%)" />
  <rect x="170" y="295" width="30" height="30" fill="hsl(240 100% 90.65161002146837%)" />
  <rect x="205" y="295" width="30" height="30" fill="hsl(240 100% 99.46275656432113%)" />
  <rect x="240" y="295" width="30" height="30" fill="hsl(240 100% 50.55119734961082%)" />
  <rect x="275" y="295" width="30" height="30" fill="hsl(240 100% 50%)" />
  <rect x="310" y="295" width="30" height="30" fill="hsl(240 100% 99.49937059284728%)" />
  <rect x="345" y="295" width="30" height="30" fill="hsl(240 100% 94.68951381123195%)" />
  <rect x="415" y="295" width="30" height="30" fill="hsl(240 100% 55.16921914437006%)" />
  <rect x="450" y="295" width="30" height="30" fill="hsl(240 100% 99.33068093472657%)" />
  <rect x="485" y="295" width="30" height="30" fill="hsl(240 100% 87.93246694549268%)" />
  <rect x="520" y="295" width="30" height="30" fill="hsl(240 100% 57.80821655987137%)" />
  <rect x="695" y="295" width="30" height="30" fill="hsl(240 100% 97.60486466675907%)" />
  <rect x="800" y="295" width="30" height="30" fill="hsl(240 100% 99.56753915123285%)" />
  <rect x="835" y="295" width="30" height="30" fill="hsl(240 100% 99.95526032951118%)" />
  <rect x="65" y="330" width="30" height="30" fill="hsl(240 100% 85.15568419717243%)" />
  <rect x="100" y="330" width="30" height="30" fill="hsl(240 100% 93.14085198630211%)" />
  <rect x="135" y="330" width="30" height="30" fill="hsl(240 100% 96.28387226399809%)" />
  <rect x="170" y="330" width="30" height="30" fill="hsl(240 100% 85.03902243095126%)" />
  <rect x="205" y="330" width="30" height="30" fill="hsl(240 100% 98.96561582207299%)" />
  <rect x="240" y="330" width="30" height="30" fill="hsl(240 100% 73.20810110553009%)" />
  <rect x="275" y="330" width="30" height="30" fill="hsl(240 100% 83.77985490141127%)" />
  <rect x="310" y="330" width="30" height="30" fill="rgb(255 255 255 / 50%)" />
  <rect x="345" y="330" width="30" height="30" fill="hsl(240 100% 96.3962473505407%)" />
  <rect x="415" y="330" width="30" height="30" fill="hsl(240 100% 81.69756307528209%)" />
  <rect x="450" y="330" width="30" height="30" fill="hsl(240 100% 99.73227456781241%)" />
  <rect x="485" y="330" width="30" height="30" fill="hsl(240 100% 60.92222707047177%)" />
  <rect x="520" y="330" width="30" height="30" fill="hsl(240 100% 69.96815837078475%)" />
  <rect x="590" y="330" width="30" height="30" fill="hsl(240 100% 92.05530542915174%)" />
  <rect x="625" y="330" width="30" height="30" fill="hsl(240 100% 50%)" />
  <rect x="765" y="330" width="30" height="30" fill="hsl(240 100% 92.98040556783857%)" />
  <rect x="800" y="330" width="30" height="30" fill="hsl(240 100% 98.95160346331703%)" />
  <rect x="835" y="330" width="30" height="30" fill="hsl(240 100% 76.23400955129574%)" />
  <rect x="65" y="365" width="30" height="30" fill="hsl(240 100% 57.11415624972521%)" />
  <rect x="100" y="365" width="30" height="30" fill="hsl(240 100% 71.61800069846637%)" />
  <rect x="135" y="365" width="30" height="30" fill="hsl(240 100% 82.32041367749198%)" />
  <rect x="170" y="365" width="30" height="30" fill="hsl(240 100% 50%)" />
  <rect x="205" y="365" width="30" height="30" fill="hsl(240 100% 96.26156437453304%)" />
  <rect x="240" y="365" width="30" height="30" fill="hsl(240 100% 60.230670750715895%)" />
  <rect x="275" y="365" width="30" height="30" fill="hsl(240 100% 92.7339478400144%)" />
  <rect x="310" y="365" width="30" height="30" fill="hsl(240 100% 99.862594328017%)" />
  <rect x="415" y="365" width="30" height="30" fill="hsl(240 100% 66.82961653462439%)" />
  <rect x="520" y="365" width="30" height="30" fill="hsl(240 100% 86.03610876487217%)" />
  <rect x="625" y="365" width="30" height="30" fill="hsl(240 100% 99.63858558043445%)" />
  <rect x="730" y="365" width="30" height="30" fill="hsl(240 100% 63.87452046421301%)" />
  <rect x="765" y="365" width="30" height="30" fill="hsl(240 100% 98.19960376958198%)" />
  <rect x="835" y="365" width="30" height="30" fill="hsl(240 100% 98.83275070129709%)" />
  <rect x="65" y="400" width="30" height="30" fill="hsl(240 100% 98.18486503031421%)" />
  <rect x="100" y="400" width="30" height="30" fill="hsl(240 100% 99.40646950922263%)" />
  <rect x="135" y="400" width="30" height="30" fill="hsl(240 100% 99.67363009887725%)" />
  <rect x="170" y="400" width="30" height="30" fill="hsl(240 100% 95.4269379255459%)" />
  <rect x="205" y="400" width="30" height="30" fill="hsl(240 100% 99.24068563935037%)" />
  <rect x="240" y="400" width="30" height="30" fill="hsl(240 100% 88.50646816894863%)" />
  <rect x="275" y="400" width="30" height="30" fill="hsl(240 100% 95.34774589930275%)" />
  <rect x="310" y="400" width="30" height="30" fill="rgb(255 255 255 / 50%)" />
  <rect x="380" y="400" width="30" height="30" fill="rgb(255 255 255 / 50%)" />
  <rect x="415" y="400" width="30" height="30" fill="hsl(240 100% 94.02838116376756%)" />
  <rect x="450" y="400" width="30" height="30" fill="hsl(240 100% 99.97136820473878%)" />
  <rect x="485" y="400" width="30" height="30" fill="hsl(240 100% 78.92975566472298%)" />
  <rect x="520" y="400" width="30" height="30" fill="hsl(240 100% 50%)" />
  <rect x="555" y="400" width="30" height="30" fill="hsl(240 100% 99.10829635230668%)" />
  <rect x="660" y="400" width="30" height="30" fill="rgb(255 255 255 / 50%)" />
  <rect x="835" y="400" width="30" height="30" fill="hsl(240 100% 99.12853029799597%)" />
  <rect x="65" y="435" width="30" height="30" fill="hsl(240 100% 92.82284908507843%)" />
  <rect x="240" y="435" width="30" height="30" fill="hsl(240 100% 50%)" />
  <rect x="310" y="435" width="30" height="30" fill="hsl(240 100% 94.28742127251253%)" />
  <rect x="415" y="435" width="30" height="30" fill="hsl(240 100% 87.00996652153844%)" />
  <rect x="450" y="435" width="30" height="30" fill="hsl(240 100% 99.80161167116802%)" />
  <rect x="65" y="470" width="30" height="30" fill="hsl(240 100% 50%)" />
  <rect x="240" y="470" width="30" height="30" fill="hsl(240 100% 50.21385952076907%)" />
  <rect x="310" y="470" width="30" height="30" fill="hsl(240 100% 97.15816456870336%)" />
  <rect x="415" y="470" width="30" height="30" fill="hsl(240 100% 89.0973860591585%)" />
  <rect x="450" y="470" width="30" height="30" fill="hsl(240 100% 99.5813727221632%)" />
</svg>
