<svg xmlns="http://www.w3.org/2000/svg" viewBox="0 0 870 505">
  <rect x="0" y="0" width="870" height="505" rx="5" ry="5" fill="#222" />
  <text x="60" y="100" fill="white" font-family="sans-serif" font-weight="bold" font-size="12" text-anchor="end" dominant-baseline="middle">ba</text>
  <text x="60" y="135" fill="white" font-family="sans-serif" font-weight="bold" font-size="12" text-anchor="end" dominant-baseline="middle">det</text>
  <text x="60" y="170" fill="white" font-family="sans-serif" font-weight="bold" font-size="12" text-anchor="end" dominant-baseline="middle">gmm</text>
  <text x="60" y="205" fill="white" font-family="sans-serif" font-weight="bold" font-size="12" text-anchor="end" dominant-baseline="middle">hello</text>
  <text x="60" y="240" fill="white" font-family="sans-serif" font-weight="bold" font-size="12" text-anchor="end" dominant-baseline="middle">ht</text>
  <text x="60" y="275" fill="white" font-family="sans-serif" font-weight="bold" font-size="12" text-anchor="end" dominant-baseline="middle">kmeans</text>
  <text x="60" y="310" fill="white" font-family="sans-serif" font-weight="bold" font-size="12" text-anchor="end" dominant-baseline="middle">llsq</text>
  <text x="60" y="345" fill="white" font-family="sans-serif" font-weight="bold" font-size="12" text-anchor="end" dominant-baseline="middle">lse</text>
  <text x="60" y="380" fill="white" font-family="sans-serif" font-weight="bold" font-size="12" text-anchor="end" dominant-baseline="middle">lstm</text>
  <text x="60" y="415" fill="white" font-family="sans-serif" font-weight="bold" font-size="12" text-anchor="end" dominant-baseline="middle">ode</text>
  <text x="60" y="450" fill="white" font-family="sans-serif" font-weight="bold" font-size="12" text-anchor="end" dominant-baseline="middle">particle</text>
  <text x="60" y="485" fill="white" font-family="sans-serif" font-weight="bold" font-size="12" text-anchor="end" dominant-baseline="middle">saddle</text>
  <text x="80" y="80" fill="white" font-family="sans-serif" font-weight="bold" font-size="12" text-anchor="end" dominant-baseline="middle" transform="rotate(90 80 80)">ad-hpp</text>
  <text x="115" y="80" fill="white" font-family="sans-serif" font-weight="bold" font-size="12" text-anchor="end" dominant-baseline="middle" transform="rotate(90 115 80)">adept</text>
  <text x="150" y="80" fill="white" font-family="sans-serif" font-weight="bold" font-size="12" text-anchor="end" dominant-baseline="middle" transform="rotate(90 150 80)">adol-c</text>
  <text x="185" y="80" fill="white" font-family="sans-serif" font-weight="bold" font-size="12" text-anchor="end" dominant-baseline="middle" transform="rotate(90 185 80)">codipack</text>
  <text x="220" y="80" fill="white" font-family="sans-serif" font-weight="bold" font-size="12" text-anchor="end" dominant-baseline="middle" transform="rotate(90 220 80)">cppad</text>
  <text x="255" y="80" fill="white" font-family="sans-serif" font-weight="bold" font-size="12" text-anchor="end" dominant-baseline="middle" transform="rotate(90 255 80)">enzyme</text>
  <text x="290" y="80" fill="white" font-family="sans-serif" font-weight="bold" font-size="12" text-anchor="end" dominant-baseline="middle" transform="rotate(90 290 80)">enzyme-jl</text>
  <text x="325" y="80" fill="white" font-family="sans-serif" font-weight="bold" font-size="12" text-anchor="end" dominant-baseline="middle" transform="rotate(90 325 80)">finite</text>
  <text x="360" y="80" fill="white" font-family="sans-serif" font-weight="bold" font-size="12" text-anchor="end" dominant-baseline="middle" transform="rotate(90 360 80)">floretta</text>
  <text x="395" y="80" fill="white" font-family="sans-serif" font-weight="bold" font-size="12" text-anchor="end" dominant-baseline="middle" transform="rotate(90 395 80)">forwarddiff-jl</text>
  <text x="430" y="80" fill="white" font-family="sans-serif" font-weight="bold" font-size="12" text-anchor="end" dominant-baseline="middle" transform="rotate(90 430 80)">futhark</text>
  <text x="465" y="80" fill="white" font-family="sans-serif" font-weight="bold" font-size="12" text-anchor="end" dominant-baseline="middle" transform="rotate(90 465 80)">haskell</text>
  <text x="500" y="80" fill="white" font-family="sans-serif" font-weight="bold" font-size="12" text-anchor="end" dominant-baseline="middle" transform="rotate(90 500 80)">jax</text>
  <text x="535" y="80" fill="white" font-family="sans-serif" font-weight="bold" font-size="12" text-anchor="end" dominant-baseline="middle" transform="rotate(90 535 80)">manual</text>
  <text x="570" y="80" fill="white" font-family="sans-serif" font-weight="bold" font-size="12" text-anchor="end" dominant-baseline="middle" transform="rotate(90 570 80)">mooncake-jl</text>
  <text x="605" y="80" fill="white" font-family="sans-serif" font-weight="bold" font-size="12" text-anchor="end" dominant-baseline="middle" transform="rotate(90 605 80)">ocaml</text>
  <text x="640" y="80" fill="white" font-family="sans-serif" font-weight="bold" font-size="12" text-anchor="end" dominant-baseline="middle" transform="rotate(90 640 80)">pytorch</text>
  <text x="675" y="80" fill="white" font-family="sans-serif" font-weight="bold" font-size="12" text-anchor="end" dominant-baseline="middle" transform="rotate(90 675 80)">reversediff-jl</text>
  <text x="710" y="80" fill="white" font-family="sans-serif" font-weight="bold" font-size="12" text-anchor="end" dominant-baseline="middle" transform="rotate(90 710 80)">scilean</text>
  <text x="745" y="80" fill="white" font-family="sans-serif" font-weight="bold" font-size="12" text-anchor="end" dominant-baseline="middle" transform="rotate(90 745 80)">tapenade</text>
  <text x="780" y="80" fill="white" font-family="sans-serif" font-weight="bold" font-size="12" text-anchor="end" dominant-baseline="middle" transform="rotate(90 780 80)">tensorflow</text>
  <text x="815" y="80" fill="white" font-family="sans-serif" font-weight="bold" font-size="12" text-anchor="end" dominant-baseline="middle" transform="rotate(90 815 80)">tensorflow-js</text>
  <text x="850" y="80" fill="white" font-family="sans-serif" font-weight="bold" font-size="12" text-anchor="end" dominant-baseline="middle" transform="rotate(90 850 80)">zygote</text>
  <rect x="65" y="85" width="30" height="30" fill="hsl(240 100% 79.87117327051075%)" />
  <rect x="100" y="85" width="30" height="30" fill="hsl(240 100% 82.25752184391996%)" />
  <rect x="135" y="85" width="30" height="30" fill="hsl(240 100% 97.9098854310305%)" />
  <rect x="170" y="85" width="30" height="30" fill="hsl(240 100% 81.81331025693247%)" />
  <rect x="205" y="85" width="30" height="30" fill="hsl(240 100% 98.94754741219423%)" />
  <rect x="240" y="85" width="30" height="30" fill="hsl(240 100% 50%)" />
  <rect x="310" y="85" width="30" height="30" fill="hsl(240 100% 92.88023137132524%)" />
  <rect x="415" y="85" width="30" height="30" fill="hsl(240 100% 66.73251442461704%)" />
  <rect x="520" y="85" width="30" height="30" fill="hsl(240 100% 53.8178675121012%)" />
  <rect x="625" y="85" width="30" height="30" fill="rgb(255 255 255 / 50%)" />
  <rect x="730" y="85" width="30" height="30" fill="hsl(240 100% 71.60492205927558%)" />
  <rect x="765" y="85" width="30" height="30" fill="rgb(255 255 255 / 50%)" />
  <rect x="835" y="85" width="30" height="30" fill="hsl(240 100% 99.71521096111275%)" />
  <rect x="65" y="120" width="30" height="30" fill="hsl(240 100% 50%)" />
  <rect x="100" y="120" width="30" height="30" fill="hsl(240 100% 84.48147930814038%)" />
  <rect x="135" y="120" width="30" height="30" fill="hsl(240 100% 85.64961290440336%)" />
  <rect x="170" y="120" width="30" height="30" fill="hsl(240 100% 52.48022510022888%)" />
  <rect x="205" y="120" width="30" height="30" fill="hsl(240 100% 92.54961621292756%)" />
  <rect x="240" y="120" width="30" height="30" fill="hsl(240 100% 91.79781604927976%)" />
  <rect x="275" y="120" width="30" height="30" fill="hsl(240 100% 99.40214308068539%)" />
  <rect x="310" y="120" width="30" height="30" fill="hsl(240 100% 98.99920698678703%)" />
  <rect x="380" y="120" width="30" height="30" fill="hsl(240 100% 93.41223596703983%)" />
  <rect x="415" y="120" width="30" height="30" fill="hsl(240 100% 94.64557864660519%)" />
  <rect x="450" y="120" width="30" height="30" fill="hsl(240 100% 97.859115263922%)" />
  <rect x="520" y="120" width="30" height="30" fill="hsl(240 100% 79.77335445923069%)" />
  <rect x="555" y="120" width="30" height="30" fill="hsl(240 100% 90.60607750957543%)" />
  <rect x="660" y="120" width="30" height="30" fill="rgb(255 255 255 / 50%)" />
  <rect x="835" y="120" width="30" height="30" fill="rgb(255 255 255 / 50%)" />
  <rect x="65" y="155" width="30" height="30" fill="hsl(240 100% 97.98340505766132%)" />
  <rect x="100" y="155" width="30" height="30" fill="hsl(240 100% 98.78916877141278%)" />
  <rect x="135" y="155" width="30" height="30" fill="hsl(240 100% 99.27606246107932%)" />
  <rect x="170" y="155" width="30" height="30" fill="hsl(240 100% 97.98913883842556%)" />
  <rect x="205" y="155" width="30" height="30" fill="hsl(240 100% 99.84189949374871%)" />
  <rect x="240" y="155" width="30" height="30" fill="hsl(240 100% 90.68754950091812%)" />
  <rect x="275" y="155" width="30" height="30" fill="hsl(240 100% 93.5497160406077%)" />
  <rect x="310" y="155" width="30" height="30" fill="rgb(255 255 255 / 50%)" />
  <rect x="415" y="155" width="30" height="30" fill="hsl(240 100% 92.5912767738401%)" />
  <rect x="485" y="155" width="30" height="30" fill="hsl(240 100% 50%)" />
  <rect x="520" y="155" width="30" height="30" fill="hsl(240 100% 80.04213427949806%)" />
  <rect x="590" y="155" width="30" height="30" fill="hsl(240 100% 99.55264916562294%)" />
  <rect x="625" y="155" width="30" height="30" fill="hsl(240 100% 64.37610056621521%)" />
  <rect x="695" y="155" width="30" height="30" fill="hsl(240 100% 95.28557627364694%)" />
  <rect x="730" y="155" width="30" height="30" fill="hsl(240 100% 90.91221617753625%)" />
  <rect x="765" y="155" width="30" height="30" fill="hsl(240 100% 99.5530833369543%)" />
  <rect x="835" y="155" width="30" height="30" fill="hsl(240 100% 96.32517355731987%)" />
  <rect x="65" y="190" width="30" height="30" fill="hsl(240 100% 50%)" />
  <rect x="100" y="190" width="30" height="30" fill="hsl(240 100% 50%)" />
  <rect x="135" y="190" width="30" height="30" fill="hsl(240 100% 50%)" />
  <rect x="170" y="190" width="30" height="30" fill="hsl(240 100% 50%)" />
  <rect x="205" y="190" width="30" height="30" fill="hsl(240 100% 50%)" />
  <rect x="240" y="190" width="30" height="30" fill="hsl(240 100% 50%)" />
  <rect x="275" y="190" width="30" height="30" fill="hsl(240 100% 50%)" />
  <rect x="310" y="190" width="30" height="30" fill="hsl(240 100% 50%)" />
  <rect x="345" y="190" width="30" height="30" fill="hsl(240 100% 50%)" />
  <rect x="380" y="190" width="30" height="30" fill="hsl(240 100% 50%)" />
  <rect x="415" y="190" width="30" height="30" fill="hsl(240 100% 50%)" />
  <rect x="450" y="190" width="30" height="30" fill="hsl(240 100% 50%)" />
  <rect x="485" y="190" width="30" height="30" fill="hsl(240 100% 50%)" />
  <rect x="520" y="190" width="30" height="30" fill="hsl(240 100% 50%)" />
  <rect x="555" y="190" width="30" height="30" fill="hsl(240 100% 50%)" />
  <rect x="590" y="190" width="30" height="30" fill="hsl(240 100% 50%)" />
  <rect x="625" y="190" width="30" height="30" fill="hsl(240 100% 50%)" />
  <rect x="660" y="190" width="30" height="30" fill="hsl(240 100% 50%)" />
  <rect x="695" y="190" width="30" height="30" fill="hsl(240 100% 50%)" />
  <rect x="730" y="190" width="30" height="30" fill="hsl(240 100% 50%)" />
  <rect x="765" y="190" width="30" height="30" fill="hsl(240 100% 50%)" />
  <rect x="800" y="190" width="30" height="30" fill="hsl(240 100% 50%)" />
  <rect x="835" y="190" width="30" height="30" fill="hsl(240 100% 50%)" />
  <rect x="100" y="225" width="30" height="30" fill="hsl(240 100% 96.28895659080553%)" />
  <rect x="135" y="225" width="30" height="30" fill="hsl(240 100% 86.15298073663251%)" />
  <rect x="170" y="225" width="30" height="30" fill="hsl(240 100% 87.87660814123961%)" />
  <rect x="240" y="225" width="30" height="30" fill="hsl(240 100% 90.15631627774546%)" />
  <rect x="310" y="225" width="30" height="30" fill="rgb(255 255 255 / 50%)" />
  <rect x="415" y="225" width="30" height="30" fill="hsl(240 100% 89.33254579165163%)" />
  <rect x="520" y="225" width="30" height="30" fill="hsl(240 100% 50%)" />
  <rect x="625" y="225" width="30" height="30" fill="rgb(255 255 255 / 50%)" />
  <rect x="730" y="225" width="30" height="30" fill="hsl(240 100% 92.34319237221368%)" />
  <rect x="765" y="225" width="30" height="30" fill="rgb(255 255 255 / 50%)" />
  <rect x="835" y="225" width="30" height="30" fill="hsl(240 100% 95.11070212135252%)" />
  <rect x="65" y="260" width="30" height="30" fill="hsl(240 100% 99.86306106352981%)" />
  <rect x="135" y="260" width="30" height="30" fill="hsl(240 100% 99.89020483122613%)" />
  <rect x="170" y="260" width="30" height="30" fill="hsl(240 100% 99.00352419848838%)" />
  <rect x="205" y="260" width="30" height="30" fill="rgb(255 255 255 / 50%)" />
  <rect x="240" y="260" width="30" height="30" fill="hsl(240 100% 87.08595547036373%)" />
  <rect x="310" y="260" width="30" height="30" fill="rgb(255 255 255 / 50%)" />
  <rect x="415" y="260" width="30" height="30" fill="hsl(240 100% 81.01257945616685%)" />
  <rect x="450" y="260" width="30" height="30" fill="rgb(255 255 255 / 50%)" />
  <rect x="485" y="260" width="30" height="30" fill="hsl(240 100% 50%)" />
  <rect x="520" y="260" width="30" height="30" fill="hsl(240 100% 72.24541432764428%)" />
  <rect x="625" y="260" width="30" height="30" fill="hsl(240 100% 96.97041266673519%)" />
  <rect x="695" y="260" width="30" height="30" fill="hsl(240 100% 94.1398395250583%)" />
  <rect x="65" y="295" width="30" height="30" fill="hsl(240 100% 86.25831228434932%)" />
  <rect x="100" y="295" width="30" height="30" fill="hsl(240 100% 97.5158368925352%)" />
  <rect x="135" y="295" width="30" height="30" fill="hsl(240 100% 94.65969253892168%)" />
  <rect x="170" y="295" width="30" height="30" fill="hsl(240 100% 89.24849878461096%)" />
  <rect x="205" y="295" width="30" height="30" fill="hsl(240 100% 99.49837483378654%)" />
  <rect x="240" y="295" width="30" height="30" fill="hsl(240 100% 50.310734034119626%)" />
  <rect x="275" y="295" width="30" height="30" fill="hsl(240 100% 50%)" />
  <rect x="310" y="295" width="30" height="30" fill="hsl(240 100% 99.49661574487754%)" />
  <rect x="345" y="295" width="30" height="30" fill="hsl(240 100% 94.67849754657873%)" />
  <rect x="415" y="295" width="30" height="30" fill="hsl(240 100% 55.030614497846976%)" />
  <rect x="450" y="295" width="30" height="30" fill="hsl(240 100% 99.3406731255008%)" />
  <rect x="485" y="295" width="30" height="30" fill="hsl(240 100% 88.68260988015626%)" />
  <rect x="520" y="295" width="30" height="30" fill="hsl(240 100% 57.66821701282828%)" />
  <rect x="695" y="295" width="30" height="30" fill="hsl(240 100% 97.60821308731003%)" />
  <rect x="800" y="295" width="30" height="30" fill="hsl(240 100% 99.5800554824785%)" />
  <rect x="835" y="295" width="30" height="30" fill="hsl(240 100% 99.95383694907144%)" />
  <rect x="65" y="330" width="30" height="30" fill="hsl(240 100% 86.99802894448902%)" />
  <rect x="100" y="330" width="30" height="30" fill="hsl(240 100% 94.35409589697669%)" />
  <rect x="135" y="330" width="30" height="30" fill="hsl(240 100% 96.9562656561062%)" />
  <rect x="170" y="330" width="30" height="30" fill="hsl(240 100% 87.06674764329179%)" />
  <rect x="205" y="330" width="30" height="30" fill="hsl(240 100% 99.19877846841482%)" />
  <rect x="240" y="330" width="30" height="30" fill="hsl(240 100% 79.00942791130086%)" />
  <rect x="275" y="330" width="30" height="30" fill="hsl(240 100% 87.88773994207139%)" />
  <rect x="310" y="330" width="30" height="30" fill="rgb(255 255 255 / 50%)" />
  <rect x="345" y="330" width="30" height="30" fill="hsl(240 100% 97.07650564359375%)" />
  <rect x="415" y="330" width="30" height="30" fill="hsl(240 100% 85.54388640264959%)" />
  <rect x="450" y="330" width="30" height="30" fill="hsl(240 100% 99.81221273802146%)" />
  <rect x="485" y="330" width="30" height="30" fill="hsl(240 100% 69.70335160882954%)" />
  <rect x="520" y="330" width="30" height="30" fill="hsl(240 100% 70.5827207940917%)" />
  <rect x="590" y="330" width="30" height="30" fill="hsl(240 100% 93.82956946237391%)" />
  <rect x="625" y="330" width="30" height="30" fill="hsl(240 100% 50%)" />
  <rect x="765" y="330" width="30" height="30" fill="hsl(240 100% 94.16366553505935%)" />
  <rect x="800" y="330" width="30" height="30" fill="hsl(240 100% 99.22902155822405%)" />
  <rect x="835" y="330" width="30" height="30" fill="hsl(240 100% 80.16340749787211%)" />
  <rect x="65" y="365" width="30" height="30" fill="hsl(240 100% 57.450714045137296%)" />
  <rect x="100" y="365" width="30" height="30" fill="hsl(240 100% 71.20594604276602%)" />
  <rect x="135" y="365" width="30" height="30" fill="hsl(240 100% 80.07350224744567%)" />
  <rect x="170" y="365" width="30" height="30" fill="hsl(240 100% 50%)" />
  <rect x="205" y="365" width="30" height="30" fill="hsl(240 100% 96.11634668790107%)" />
  <rect x="240" y="365" width="30" height="30" fill="hsl(240 100% 58.45866307940931%)" />
  <rect x="275" y="365" width="30" height="30" fill="hsl(240 100% 92.66978931288749%)" />
  <rect x="310" y="365" width="30" height="30" fill="hsl(240 100% 99.86124347712281%)" />
  <rect x="415" y="365" width="30" height="30" fill="hsl(240 100% 66.4149646943614%)" />
  <rect x="520" y="365" width="30" height="30" fill="hsl(240 100% 86.135410934831%)" />
  <rect x="625" y="365" width="30" height="30" fill="hsl(240 100% 99.62600546758915%)" />
  <rect x="730" y="365" width="30" height="30" fill="hsl(240 100% 58.34191431181844%)" />
  <rect x="765" y="365" width="30" height="30" fill="hsl(240 100% 98.20751259899889%)" />
  <rect x="835" y="365" width="30" height="30" fill="hsl(240 100% 98.87563276638%)" />
  <rect x="65" y="400" width="30" height="30" fill="hsl(240 100% 98.14338613636293%)" />
  <rect x="100" y="400" width="30" height="30" fill="hsl(240 100% 99.39956238447256%)" />
  <rect x="135" y="400" width="30" height="30" fill="hsl(240 100% 99.65800541181872%)" />
  <rect x="170" y="400" width="30" height="30" fill="hsl(240 100% 94.09927288528716%)" />
  <rect x="205" y="400" width="30" height="30" fill="hsl(240 100% 99.18987095085504%)" />
  <rect x="240" y="400" width="30" height="30" fill="hsl(240 100% 85.79631766288679%)" />
  <rect x="275" y="400" width="30" height="30" fill="hsl(240 100% 95.26939901695425%)" />
  <rect x="310" y="400" width="30" height="30" fill="rgb(255 255 255 / 50%)" />
  <rect x="380" y="400" width="30" height="30" fill="rgb(255 255 255 / 50%)" />
  <rect x="415" y="400" width="30" height="30" fill="hsl(240 100% 93.8509226279508%)" />
  <rect x="450" y="400" width="30" height="30" fill="hsl(240 100% 99.96521025494981%)" />
  <rect x="485" y="400" width="30" height="30" fill="hsl(240 100% 78.74726652163845%)" />
  <rect x="520" y="400" width="30" height="30" fill="hsl(240 100% 50%)" />
  <rect x="555" y="400" width="30" height="30" fill="hsl(240 100% 99.11902625824536%)" />
  <rect x="660" y="400" width="30" height="30" fill="rgb(255 255 255 / 50%)" />
  <rect x="835" y="400" width="30" height="30" fill="hsl(240 100% 99.1589999470014%)" />
  <rect x="65" y="435" width="30" height="30" fill="hsl(240 100% 93.28193362200894%)" />
  <rect x="240" y="435" width="30" height="30" fill="hsl(240 100% 50%)" />
  <rect x="310" y="435" width="30" height="30" fill="hsl(240 100% 93.85773103112015%)" />
  <rect x="415" y="435" width="30" height="30" fill="hsl(240 100% 87.2487083504945%)" />
  <rect x="450" y="435" width="30" height="30" fill="hsl(240 100% 99.80611568550532%)" />
  <rect x="65" y="470" width="30" height="30" fill="hsl(240 100% 50.06510246797538%)" />
  <rect x="240" y="470" width="30" height="30" fill="hsl(240 100% 50%)" />
  <rect x="310" y="470" width="30" height="30" fill="hsl(240 100% 96.97593078129758%)" />
  <rect x="415" y="470" width="30" height="30" fill="hsl(240 100% 89.15991355687912%)" />
  <rect x="450" y="470" width="30" height="30" fill="hsl(240 100% 99.56715242028199%)" />
</svg>
