<svg xmlns="http://www.w3.org/2000/svg" viewBox="0 0 730 505">
  <rect x="0" y="0" width="730" height="505" rx="5" ry="5" fill="#222" />
  <text x="60" y="100" fill="white" font-family="sans-serif" font-weight="bold" font-size="12" text-anchor="end" dominant-baseline="middle">ba</text>
  <text x="60" y="135" fill="white" font-family="sans-serif" font-weight="bold" font-size="12" text-anchor="end" dominant-baseline="middle">det</text>
  <text x="60" y="170" fill="white" font-family="sans-serif" font-weight="bold" font-size="12" text-anchor="end" dominant-baseline="middle">gmm</text>
  <text x="60" y="205" fill="white" font-family="sans-serif" font-weight="bold" font-size="12" text-anchor="end" dominant-baseline="middle">hello</text>
  <text x="60" y="240" fill="white" font-family="sans-serif" font-weight="bold" font-size="12" text-anchor="end" dominant-baseline="middle">ht</text>
  <text x="60" y="275" fill="white" font-family="sans-serif" font-weight="bold" font-size="12" text-anchor="end" dominant-baseline="middle">kmeans</text>
  <text x="60" y="310" fill="white" font-family="sans-serif" font-weight="bold" font-size="12" text-anchor="end" dominant-baseline="middle">llsq</text>
  <text x="60" y="345" fill="white" font-family="sans-serif" font-weight="bold" font-size="12" text-anchor="end" dominant-baseline="middle">lse</text>
  <text x="60" y="380" fill="white" font-family="sans-serif" font-weight="bold" font-size="12" text-anchor="end" dominant-baseline="middle">lstm</text>
  <text x="60" y="415" fill="white" font-family="sans-serif" font-weight="bold" font-size="12" text-anchor="end" dominant-baseline="middle">ode</text>
  <text x="60" y="450" fill="white" font-family="sans-serif" font-weight="bold" font-size="12" text-anchor="end" dominant-baseline="middle">particle</text>
  <text x="60" y="485" fill="white" font-family="sans-serif" font-weight="bold" font-size="12" text-anchor="end" dominant-baseline="middle">saddle</text>
  <text x="80" y="80" fill="white" font-family="sans-serif" font-weight="bold" font-size="12" text-anchor="end" dominant-baseline="middle" transform="rotate(90 80 80)">ad-hpp</text>
  <text x="115" y="80" fill="white" font-family="sans-serif" font-weight="bold" font-size="12" text-anchor="end" dominant-baseline="middle" transform="rotate(90 115 80)">adept</text>
  <text x="150" y="80" fill="white" font-family="sans-serif" font-weight="bold" font-size="12" text-anchor="end" dominant-baseline="middle" transform="rotate(90 150 80)">adol-c</text>
  <text x="185" y="80" fill="white" font-family="sans-serif" font-weight="bold" font-size="12" text-anchor="end" dominant-baseline="middle" transform="rotate(90 185 80)">codipack</text>
  <text x="220" y="80" fill="white" font-family="sans-serif" font-weight="bold" font-size="12" text-anchor="end" dominant-baseline="middle" transform="rotate(90 220 80)">cppad</text>
  <text x="255" y="80" fill="white" font-family="sans-serif" font-weight="bold" font-size="12" text-anchor="end" dominant-baseline="middle" transform="rotate(90 255 80)">enzyme</text>
  <text x="290" y="80" fill="white" font-family="sans-serif" font-weight="bold" font-size="12" text-anchor="end" dominant-baseline="middle" transform="rotate(90 290 80)">enzyme-jl</text>
  <text x="325" y="80" fill="white" font-family="sans-serif" font-weight="bold" font-size="12" text-anchor="end" dominant-baseline="middle" transform="rotate(90 325 80)">finite</text>
  <text x="360" y="80" fill="white" font-family="sans-serif" font-weight="bold" font-size="12" text-anchor="end" dominant-baseline="middle" transform="rotate(90 360 80)">floretta</text>
  <text x="395" y="80" fill="white" font-family="sans-serif" font-weight="bold" font-size="12" text-anchor="end" dominant-baseline="middle" transform="rotate(90 395 80)">futhark</text>
  <text x="430" y="80" fill="white" font-family="sans-serif" font-weight="bold" font-size="12" text-anchor="end" dominant-baseline="middle" transform="rotate(90 430 80)">haskell</text>
  <text x="465" y="80" fill="white" font-family="sans-serif" font-weight="bold" font-size="12" text-anchor="end" dominant-baseline="middle" transform="rotate(90 465 80)">jax</text>
  <text x="500" y="80" fill="white" font-family="sans-serif" font-weight="bold" font-size="12" text-anchor="end" dominant-baseline="middle" transform="rotate(90 500 80)">manual</text>
  <text x="535" y="80" fill="white" font-family="sans-serif" font-weight="bold" font-size="12" text-anchor="end" dominant-baseline="middle" transform="rotate(90 535 80)">ocaml</text>
  <text x="570" y="80" fill="white" font-family="sans-serif" font-weight="bold" font-size="12" text-anchor="end" dominant-baseline="middle" transform="rotate(90 570 80)">pytorch</text>
  <text x="605" y="80" fill="white" font-family="sans-serif" font-weight="bold" font-size="12" text-anchor="end" dominant-baseline="middle" transform="rotate(90 605 80)">scilean</text>
  <text x="640" y="80" fill="white" font-family="sans-serif" font-weight="bold" font-size="12" text-anchor="end" dominant-baseline="middle" transform="rotate(90 640 80)">tapenade</text>
  <text x="675" y="80" fill="white" font-family="sans-serif" font-weight="bold" font-size="12" text-anchor="end" dominant-baseline="middle" transform="rotate(90 675 80)">tensorflow</text>
  <text x="710" y="80" fill="white" font-family="sans-serif" font-weight="bold" font-size="12" text-anchor="end" dominant-baseline="middle" transform="rotate(90 710 80)">zygote</text>
  <rect x="65" y="85" width="30" height="30" fill="hsl(240 100% 80.58932487431832%)" />
  <rect x="100" y="85" width="30" height="30" fill="hsl(240 100% 82.89121089818167%)" />
  <rect x="135" y="85" width="30" height="30" fill="hsl(240 100% 98.06566678874819%)" />
  <rect x="170" y="85" width="30" height="30" fill="hsl(240 100% 83.09748912772756%)" />
  <rect x="205" y="85" width="30" height="30" fill="hsl(240 100% 98.99305226857435%)" />
  <rect x="240" y="85" width="30" height="30" fill="hsl(240 100% 51.3876407028696%)" />
  <rect x="310" y="85" width="30" height="30" fill="hsl(240 100% 92.80993592696535%)" />
  <rect x="380" y="85" width="30" height="30" fill="hsl(240 100% 67.9046827982243%)" />
  <rect x="485" y="85" width="30" height="30" fill="hsl(240 100% 50%)" />
  <rect x="555" y="85" width="30" height="30" fill="rgb(255 255 255 / 50%)" />
  <rect x="625" y="85" width="30" height="30" fill="hsl(240 100% 74.8343061800589%)" />
  <rect x="660" y="85" width="30" height="30" fill="rgb(255 255 255 / 50%)" />
  <rect x="695" y="85" width="30" height="30" fill="hsl(240 100% 99.71747395228364%)" />
  <rect x="65" y="120" width="30" height="30" fill="hsl(240 100% 50%)" />
  <rect x="100" y="120" width="30" height="30" fill="hsl(240 100% 83.18640197022398%)" />
  <rect x="135" y="120" width="30" height="30" fill="hsl(240 100% 85.4855958448526%)" />
  <rect x="170" y="120" width="30" height="30" fill="hsl(240 100% 50.713076999592204%)" />
  <rect x="205" y="120" width="30" height="30" fill="hsl(240 100% 92.34304147212856%)" />
  <rect x="240" y="120" width="30" height="30" fill="hsl(240 100% 91.81452560056591%)" />
  <rect x="275" y="120" width="30" height="30" fill="hsl(240 100% 99.20952811204272%)" />
  <rect x="310" y="120" width="30" height="30" fill="hsl(240 100% 98.96880164952539%)" />
  <rect x="380" y="120" width="30" height="30" fill="hsl(240 100% 94.4556171324925%)" />
  <rect x="415" y="120" width="30" height="30" fill="hsl(240 100% 98.05473854828367%)" />
  <rect x="485" y="120" width="30" height="30" fill="hsl(240 100% 79.15559757893169%)" />
  <rect x="695" y="120" width="30" height="30" fill="rgb(255 255 255 / 50%)" />
  <rect x="65" y="155" width="30" height="30" fill="hsl(240 100% 97.11325860430904%)" />
  <rect x="100" y="155" width="30" height="30" fill="hsl(240 100% 98.27059354987652%)" />
  <rect x="135" y="155" width="30" height="30" fill="hsl(240 100% 98.86650023463459%)" />
  <rect x="170" y="155" width="30" height="30" fill="hsl(240 100% 97.24491730963892%)" />
  <rect x="205" y="155" width="30" height="30" fill="hsl(240 100% 99.77599424550063%)" />
  <rect x="240" y="155" width="30" height="30" fill="hsl(240 100% 90.06685792160914%)" />
  <rect x="275" y="155" width="30" height="30" fill="hsl(240 100% 99.83456667031403%)" />
  <rect x="310" y="155" width="30" height="30" fill="rgb(255 255 255 / 50%)" />
  <rect x="380" y="155" width="30" height="30" fill="hsl(240 100% 89.26901487274404%)" />
  <rect x="450" y="155" width="30" height="30" fill="hsl(240 100% 73.14919418010739%)" />
  <rect x="485" y="155" width="30" height="30" fill="hsl(240 100% 71.48150868673599%)" />
  <rect x="520" y="155" width="30" height="30" fill="hsl(240 100% 99.38164618009685%)" />
  <rect x="555" y="155" width="30" height="30" fill="hsl(240 100% 50%)" />
  <rect x="590" y="155" width="30" height="30" fill="hsl(240 100% 92.56303789046855%)" />
  <rect x="625" y="155" width="30" height="30" fill="hsl(240 100% 75.8896586340314%)" />
  <rect x="660" y="155" width="30" height="30" fill="hsl(240 100% 89.04602336105197%)" />
  <rect x="695" y="155" width="30" height="30" fill="hsl(240 100% 99.33514010522761%)" />
  <rect x="65" y="190" width="30" height="30" fill="hsl(240 100% 50%)" />
  <rect x="100" y="190" width="30" height="30" fill="hsl(240 100% 50%)" />
  <rect x="135" y="190" width="30" height="30" fill="hsl(240 100% 50%)" />
  <rect x="170" y="190" width="30" height="30" fill="hsl(240 100% 50%)" />
  <rect x="205" y="190" width="30" height="30" fill="hsl(240 100% 50%)" />
  <rect x="240" y="190" width="30" height="30" fill="hsl(240 100% 50%)" />
  <rect x="275" y="190" width="30" height="30" fill="hsl(240 100% 50%)" />
  <rect x="310" y="190" width="30" height="30" fill="hsl(240 100% 50%)" />
  <rect x="345" y="190" width="30" height="30" fill="hsl(240 100% 50%)" />
  <rect x="380" y="190" width="30" height="30" fill="hsl(240 100% 50%)" />
  <rect x="415" y="190" width="30" height="30" fill="hsl(240 100% 50%)" />
  <rect x="450" y="190" width="30" height="30" fill="hsl(240 100% 50%)" />
  <rect x="485" y="190" width="30" height="30" fill="hsl(240 100% 50%)" />
  <rect x="520" y="190" width="30" height="30" fill="hsl(240 100% 50%)" />
  <rect x="555" y="190" width="30" height="30" fill="hsl(240 100% 50%)" />
  <rect x="590" y="190" width="30" height="30" fill="hsl(240 100% 50%)" />
  <rect x="625" y="190" width="30" height="30" fill="hsl(240 100% 50%)" />
  <rect x="660" y="190" width="30" height="30" fill="hsl(240 100% 50%)" />
  <rect x="695" y="190" width="30" height="30" fill="hsl(240 100% 50%)" />
  <rect x="100" y="225" width="30" height="30" fill="hsl(240 100% 96.30194051650594%)" />
  <rect x="135" y="225" width="30" height="30" fill="hsl(240 100% 90.57540462923563%)" />
  <rect x="170" y="225" width="30" height="30" fill="hsl(240 100% 89.24735535392162%)" />
  <rect x="240" y="225" width="30" height="30" fill="hsl(240 100% 90.96917539994352%)" />
  <rect x="310" y="225" width="30" height="30" fill="rgb(255 255 255 / 50%)" />
  <rect x="380" y="225" width="30" height="30" fill="hsl(240 100% 90.48003373465781%)" />
  <rect x="485" y="225" width="30" height="30" fill="hsl(240 100% 50%)" />
  <rect x="555" y="225" width="30" height="30" fill="rgb(255 255 255 / 50%)" />
  <rect x="625" y="225" width="30" height="30" fill="hsl(240 100% 93.19268140315417%)" />
  <rect x="660" y="225" width="30" height="30" fill="rgb(255 255 255 / 50%)" />
  <rect x="695" y="225" width="30" height="30" fill="hsl(240 100% 99.4746749215126%)" />
  <rect x="65" y="260" width="30" height="30" fill="hsl(240 100% 99.94966490168584%)" />
  <rect x="135" y="260" width="30" height="30" fill="hsl(240 100% 99.87928691323282%)" />
  <rect x="170" y="260" width="30" height="30" fill="hsl(240 100% 99.04320717901332%)" />
  <rect x="205" y="260" width="30" height="30" fill="rgb(255 255 255 / 50%)" />
  <rect x="240" y="260" width="30" height="30" fill="hsl(240 100% 87.08316997436046%)" />
  <rect x="310" y="260" width="30" height="30" fill="rgb(255 255 255 / 50%)" />
  <rect x="380" y="260" width="30" height="30" fill="hsl(240 100% 81.03368160678612%)" />
  <rect x="415" y="260" width="30" height="30" fill="rgb(255 255 255 / 50%)" />
  <rect x="450" y="260" width="30" height="30" fill="hsl(240 100% 50%)" />
  <rect x="485" y="260" width="30" height="30" fill="hsl(240 100% 71.19119106768137%)" />
  <rect x="555" y="260" width="30" height="30" fill="hsl(240 100% 97.05759178170479%)" />
  <rect x="590" y="260" width="30" height="30" fill="hsl(240 100% 94.06499139551323%)" />
  <rect x="65" y="295" width="30" height="30" fill="hsl(240 100% 86.23654199435595%)" />
  <rect x="100" y="295" width="30" height="30" fill="hsl(240 100% 97.51913670717659%)" />
  <rect x="135" y="295" width="30" height="30" fill="hsl(240 100% 95.27097252498248%)" />
  <rect x="170" y="295" width="30" height="30" fill="hsl(240 100% 90.55478008588936%)" />
  <rect x="205" y="295" width="30" height="30" fill="hsl(240 100% 99.46144444817247%)" />
  <rect x="240" y="295" width="30" height="30" fill="hsl(240 100% 50%)" />
  <rect x="275" y="295" width="30" height="30" fill="hsl(240 100% 99.87994223764916%)" />
  <rect x="310" y="295" width="30" height="30" fill="hsl(240 100% 99.49233256402702%)" />
  <rect x="345" y="295" width="30" height="30" fill="hsl(240 100% 95.35109079579496%)" />
  <rect x="380" y="295" width="30" height="30" fill="hsl(240 100% 54.60337812493993%)" />
  <rect x="415" y="295" width="30" height="30" fill="hsl(240 100% 99.34545485167332%)" />
  <rect x="450" y="295" width="30" height="30" fill="hsl(240 100% 88.03328096384558%)" />
  <rect x="485" y="295" width="30" height="30" fill="hsl(240 100% 57.258995754576446%)" />
  <rect x="590" y="295" width="30" height="30" fill="hsl(240 100% 97.57479761527%)" />
  <rect x="695" y="295" width="30" height="30" fill="hsl(240 100% 99.97550241783432%)" />
  <rect x="65" y="330" width="30" height="30" fill="hsl(240 100% 88.08167739354256%)" />
  <rect x="100" y="330" width="30" height="30" fill="hsl(240 100% 94.35528828675683%)" />
  <rect x="135" y="330" width="30" height="30" fill="hsl(240 100% 97.08447934769376%)" />
  <rect x="170" y="330" width="30" height="30" fill="hsl(240 100% 87.04954034333767%)" />
  <rect x="205" y="330" width="30" height="30" fill="hsl(240 100% 99.19344685779718%)" />
  <rect x="240" y="330" width="30" height="30" fill="hsl(240 100% 78.56671358441903%)" />
  <rect x="275" y="330" width="30" height="30" fill="hsl(240 100% 99.81841395326292%)" />
  <rect x="310" y="330" width="30" height="30" fill="rgb(255 255 255 / 50%)" />
  <rect x="345" y="330" width="30" height="30" fill="hsl(240 100% 97.05202845526087%)" />
  <rect x="380" y="330" width="30" height="30" fill="hsl(240 100% 85.089474403747%)" />
  <rect x="415" y="330" width="30" height="30" fill="hsl(240 100% 99.80621395858734%)" />
  <rect x="450" y="330" width="30" height="30" fill="hsl(240 100% 69.11670261291806%)" />
  <rect x="485" y="330" width="30" height="30" fill="hsl(240 100% 72.0822767420072%)" />
  <rect x="520" y="330" width="30" height="30" fill="hsl(240 100% 93.48353635481656%)" />
  <rect x="555" y="330" width="30" height="30" fill="hsl(240 100% 50%)" />
  <rect x="660" y="330" width="30" height="30" fill="hsl(240 100% 88.01183740692281%)" />
  <rect x="695" y="330" width="30" height="30" fill="hsl(240 100% 94.93596366768239%)" />
  <rect x="65" y="365" width="30" height="30" fill="hsl(240 100% 57.25052536624254%)" />
  <rect x="100" y="365" width="30" height="30" fill="hsl(240 100% 70.93044381020762%)" />
  <rect x="135" y="365" width="30" height="30" fill="hsl(240 100% 82.21791042083092%)" />
  <rect x="170" y="365" width="30" height="30" fill="hsl(240 100% 50%)" />
  <rect x="205" y="365" width="30" height="30" fill="hsl(240 100% 96.21640062063514%)" />
  <rect x="240" y="365" width="30" height="30" fill="hsl(240 100% 59.44077779685453%)" />
  <rect x="275" y="365" width="30" height="30" fill="hsl(240 100% 98.9696731823847%)" />
  <rect x="310" y="365" width="30" height="30" fill="hsl(240 100% 99.86245976333537%)" />
  <rect x="380" y="365" width="30" height="30" fill="hsl(240 100% 67.11698277874207%)" />
  <rect x="485" y="365" width="30" height="30" fill="hsl(240 100% 85.95391952215141%)" />
  <rect x="555" y="365" width="30" height="30" fill="hsl(240 100% 99.62594872157365%)" />
  <rect x="625" y="365" width="30" height="30" fill="hsl(240 100% 63.62493455077877%)" />
  <rect x="660" y="365" width="30" height="30" fill="hsl(240 100% 98.23123159183916%)" />
  <rect x="695" y="365" width="30" height="30" fill="hsl(240 100% 99.18060221803108%)" />
  <rect x="65" y="400" width="30" height="30" fill="hsl(240 100% 98.02961234613998%)" />
  <rect x="100" y="400" width="30" height="30" fill="hsl(240 100% 99.26441058298192%)" />
  <rect x="135" y="400" width="30" height="30" fill="hsl(240 100% 99.58334679305547%)" />
  <rect x="170" y="400" width="30" height="30" fill="hsl(240 100% 94.06664243100374%)" />
  <rect x="205" y="400" width="30" height="30" fill="hsl(240 100% 99.01198192904177%)" />
  <rect x="240" y="400" width="30" height="30" fill="hsl(240 100% 81.70709417547297%)" />
  <rect x="275" y="400" width="30" height="30" fill="hsl(240 100% 99.07248284736012%)" />
  <rect x="310" y="400" width="30" height="30" fill="rgb(255 255 255 / 50%)" />
  <rect x="380" y="400" width="30" height="30" fill="hsl(240 100% 92.21520146931701%)" />
  <rect x="415" y="400" width="30" height="30" fill="hsl(240 100% 99.97309915992983%)" />
  <rect x="450" y="400" width="30" height="30" fill="hsl(240 100% 72.13559392491038%)" />
  <rect x="485" y="400" width="30" height="30" fill="hsl(240 100% 50%)" />
  <rect x="695" y="400" width="30" height="30" fill="hsl(240 100% 99.64853190435414%)" />
  <rect x="65" y="435" width="30" height="30" fill="hsl(240 100% 92.85391500165555%)" />
  <rect x="240" y="435" width="30" height="30" fill="hsl(240 100% 50%)" />
  <rect x="310" y="435" width="30" height="30" fill="hsl(240 100% 93.34494995322929%)" />
  <rect x="380" y="435" width="30" height="30" fill="hsl(240 100% 88.7786595513184%)" />
  <rect x="415" y="435" width="30" height="30" fill="hsl(240 100% 99.83281702265248%)" />
  <rect x="240" y="470" width="30" height="30" fill="hsl(240 100% 50%)" />
  <rect x="310" y="470" width="30" height="30" fill="hsl(240 100% 95.77328584341238%)" />
  <rect x="380" y="470" width="30" height="30" fill="hsl(240 100% 89.12285904842844%)" />
  <rect x="415" y="470" width="30" height="30" fill="hsl(240 100% 99.58159435933334%)" />
</svg>
