<svg xmlns="http://www.w3.org/2000/svg" viewBox="0 0 660 470">
  <rect x="0" y="0" width="660" height="470" rx="5" ry="5" fill="#222" />
  <text x="60" y="100" fill="white" font-family="sans-serif" font-weight="bold" font-size="12" text-anchor="end" dominant-baseline="middle">ba</text>
  <text x="60" y="135" fill="white" font-family="sans-serif" font-weight="bold" font-size="12" text-anchor="end" dominant-baseline="middle">det</text>
  <text x="60" y="170" fill="white" font-family="sans-serif" font-weight="bold" font-size="12" text-anchor="end" dominant-baseline="middle">gmm</text>
  <text x="60" y="205" fill="white" font-family="sans-serif" font-weight="bold" font-size="12" text-anchor="end" dominant-baseline="middle">hello</text>
  <text x="60" y="240" fill="white" font-family="sans-serif" font-weight="bold" font-size="12" text-anchor="end" dominant-baseline="middle">ht</text>
  <text x="60" y="275" fill="white" font-family="sans-serif" font-weight="bold" font-size="12" text-anchor="end" dominant-baseline="middle">kmeans</text>
  <text x="60" y="310" fill="white" font-family="sans-serif" font-weight="bold" font-size="12" text-anchor="end" dominant-baseline="middle">llsq</text>
  <text x="60" y="345" fill="white" font-family="sans-serif" font-weight="bold" font-size="12" text-anchor="end" dominant-baseline="middle">lstm</text>
  <text x="60" y="380" fill="white" font-family="sans-serif" font-weight="bold" font-size="12" text-anchor="end" dominant-baseline="middle">ode</text>
  <text x="60" y="415" fill="white" font-family="sans-serif" font-weight="bold" font-size="12" text-anchor="end" dominant-baseline="middle">particle</text>
  <text x="60" y="450" fill="white" font-family="sans-serif" font-weight="bold" font-size="12" text-anchor="end" dominant-baseline="middle">saddle</text>
  <text x="80" y="80" fill="white" font-family="sans-serif" font-weight="bold" font-size="12" text-anchor="end" dominant-baseline="middle" transform="rotate(90 80 80)">adept</text>
  <text x="115" y="80" fill="white" font-family="sans-serif" font-weight="bold" font-size="12" text-anchor="end" dominant-baseline="middle" transform="rotate(90 115 80)">adol-c</text>
  <text x="150" y="80" fill="white" font-family="sans-serif" font-weight="bold" font-size="12" text-anchor="end" dominant-baseline="middle" transform="rotate(90 150 80)">codipack</text>
  <text x="185" y="80" fill="white" font-family="sans-serif" font-weight="bold" font-size="12" text-anchor="end" dominant-baseline="middle" transform="rotate(90 185 80)">cppad</text>
  <text x="220" y="80" fill="white" font-family="sans-serif" font-weight="bold" font-size="12" text-anchor="end" dominant-baseline="middle" transform="rotate(90 220 80)">enzyme</text>
  <text x="255" y="80" fill="white" font-family="sans-serif" font-weight="bold" font-size="12" text-anchor="end" dominant-baseline="middle" transform="rotate(90 255 80)">finite</text>
  <text x="290" y="80" fill="white" font-family="sans-serif" font-weight="bold" font-size="12" text-anchor="end" dominant-baseline="middle" transform="rotate(90 290 80)">floretta</text>
  <text x="325" y="80" fill="white" font-family="sans-serif" font-weight="bold" font-size="12" text-anchor="end" dominant-baseline="middle" transform="rotate(90 325 80)">futhark</text>
  <text x="360" y="80" fill="white" font-family="sans-serif" font-weight="bold" font-size="12" text-anchor="end" dominant-baseline="middle" transform="rotate(90 360 80)">haskell</text>
  <text x="395" y="80" fill="white" font-family="sans-serif" font-weight="bold" font-size="12" text-anchor="end" dominant-baseline="middle" transform="rotate(90 395 80)">jax</text>
  <text x="430" y="80" fill="white" font-family="sans-serif" font-weight="bold" font-size="12" text-anchor="end" dominant-baseline="middle" transform="rotate(90 430 80)">manual</text>
  <text x="465" y="80" fill="white" font-family="sans-serif" font-weight="bold" font-size="12" text-anchor="end" dominant-baseline="middle" transform="rotate(90 465 80)">ocaml</text>
  <text x="500" y="80" fill="white" font-family="sans-serif" font-weight="bold" font-size="12" text-anchor="end" dominant-baseline="middle" transform="rotate(90 500 80)">pytorch</text>
  <text x="535" y="80" fill="white" font-family="sans-serif" font-weight="bold" font-size="12" text-anchor="end" dominant-baseline="middle" transform="rotate(90 535 80)">scilean</text>
  <text x="570" y="80" fill="white" font-family="sans-serif" font-weight="bold" font-size="12" text-anchor="end" dominant-baseline="middle" transform="rotate(90 570 80)">tapenade</text>
  <text x="605" y="80" fill="white" font-family="sans-serif" font-weight="bold" font-size="12" text-anchor="end" dominant-baseline="middle" transform="rotate(90 605 80)">tensorflow</text>
  <text x="640" y="80" fill="white" font-family="sans-serif" font-weight="bold" font-size="12" text-anchor="end" dominant-baseline="middle" transform="rotate(90 640 80)">zygote</text>
  <rect x="65" y="85" width="30" height="30" fill="hsl(240 100% 82.44069799923973%)" />
  <rect x="100" y="85" width="30" height="30" fill="hsl(240 100% 97.82730261698427%)" />
  <rect x="135" y="85" width="30" height="30" fill="hsl(240 100% 89.10068766765477%)" />
  <rect x="205" y="85" width="30" height="30" fill="hsl(240 100% 50.60473596302252%)" />
  <rect x="240" y="85" width="30" height="30" fill="hsl(240 100% 92.60977284754945%)" />
  <rect x="310" y="85" width="30" height="30" fill="hsl(240 100% 68.82594598775005%)" />
  <rect x="415" y="85" width="30" height="30" fill="hsl(240 100% 50%)" />
  <rect x="485" y="85" width="30" height="30" fill="rgb(255 255 255 / 50%)" />
  <rect x="555" y="85" width="30" height="30" fill="hsl(240 100% 72.5279993536499%)" />
  <rect x="590" y="85" width="30" height="30" fill="rgb(255 255 255 / 50%)" />
  <rect x="65" y="120" width="30" height="30" fill="hsl(240 100% 90.1696974960887%)" />
  <rect x="100" y="120" width="30" height="30" fill="hsl(240 100% 90.58825168051096%)" />
  <rect x="135" y="120" width="30" height="30" fill="hsl(240 100% 68.20625490692935%)" />
  <rect x="170" y="120" width="30" height="30" fill="hsl(240 100% 50%)" />
  <rect x="205" y="120" width="30" height="30" fill="hsl(240 100% 94.57084977520499%)" />
  <rect x="240" y="120" width="30" height="30" fill="hsl(240 100% 99.32692219394632%)" />
  <rect x="310" y="120" width="30" height="30" fill="hsl(240 100% 96.5079167153516%)" />
  <rect x="345" y="120" width="30" height="30" fill="hsl(240 100% 98.64505368024209%)" />
  <rect x="415" y="120" width="30" height="30" fill="hsl(240 100% 86.52095876984521%)" />
  <rect x="65" y="155" width="30" height="30" fill="hsl(240 100% 98.40612609688147%)" />
  <rect x="100" y="155" width="30" height="30" fill="hsl(240 100% 99.11535537688897%)" />
  <rect x="135" y="155" width="30" height="30" fill="hsl(240 100% 97.33457686926248%)" />
  <rect x="170" y="155" width="30" height="30" fill="rgb(255 255 255 / 50%)" />
  <rect x="205" y="155" width="30" height="30" fill="hsl(240 100% 87.36458300646734%)" />
  <rect x="240" y="155" width="30" height="30" fill="rgb(255 255 255 / 50%)" />
  <rect x="310" y="155" width="30" height="30" fill="hsl(240 100% 90.32052652385885%)" />
  <rect x="380" y="155" width="30" height="30" fill="hsl(240 100% 71.06970122760156%)" />
  <rect x="415" y="155" width="30" height="30" fill="hsl(240 100% 76.20981874726687%)" />
  <rect x="450" y="155" width="30" height="30" fill="hsl(240 100% 99.37322821433635%)" />
  <rect x="485" y="155" width="30" height="30" fill="hsl(240 100% 50%)" />
  <rect x="520" y="155" width="30" height="30" fill="hsl(240 100% 93.51465977294286%)" />
  <rect x="555" y="155" width="30" height="30" fill="hsl(240 100% 76.85602839396446%)" />
  <rect x="590" y="155" width="30" height="30" fill="hsl(240 100% 88.8315935722617%)" />
  <rect x="65" y="190" width="30" height="30" fill="hsl(240 100% 50%)" />
  <rect x="100" y="190" width="30" height="30" fill="hsl(240 100% 50%)" />
  <rect x="135" y="190" width="30" height="30" fill="hsl(240 100% 50%)" />
  <rect x="170" y="190" width="30" height="30" fill="hsl(240 100% 50%)" />
  <rect x="205" y="190" width="30" height="30" fill="hsl(240 100% 50%)" />
  <rect x="240" y="190" width="30" height="30" fill="hsl(240 100% 50%)" />
  <rect x="275" y="190" width="30" height="30" fill="hsl(240 100% 50%)" />
  <rect x="310" y="190" width="30" height="30" fill="hsl(240 100% 50%)" />
  <rect x="345" y="190" width="30" height="30" fill="hsl(240 100% 50%)" />
  <rect x="380" y="190" width="30" height="30" fill="hsl(240 100% 50%)" />
  <rect x="415" y="190" width="30" height="30" fill="hsl(240 100% 50%)" />
  <rect x="450" y="190" width="30" height="30" fill="hsl(240 100% 50%)" />
  <rect x="485" y="190" width="30" height="30" fill="hsl(240 100% 50%)" />
  <rect x="520" y="190" width="30" height="30" fill="hsl(240 100% 50%)" />
  <rect x="555" y="190" width="30" height="30" fill="hsl(240 100% 50%)" />
  <rect x="590" y="190" width="30" height="30" fill="hsl(240 100% 50%)" />
  <rect x="625" y="190" width="30" height="30" fill="hsl(240 100% 50%)" />
  <rect x="65" y="225" width="30" height="30" fill="hsl(240 100% 95.94236544415101%)" />
  <rect x="100" y="225" width="30" height="30" fill="hsl(240 100% 96.20352657247%)" />
  <rect x="135" y="225" width="30" height="30" fill="hsl(240 100% 88.0547645623729%)" />
  <rect x="205" y="225" width="30" height="30" fill="hsl(240 100% 89.83786939586165%)" />
  <rect x="240" y="225" width="30" height="30" fill="rgb(255 255 255 / 50%)" />
  <rect x="310" y="225" width="30" height="30" fill="hsl(240 100% 89.34377466378426%)" />
  <rect x="415" y="225" width="30" height="30" fill="hsl(240 100% 50%)" />
  <rect x="485" y="225" width="30" height="30" fill="rgb(255 255 255 / 50%)" />
  <rect x="555" y="225" width="30" height="30" fill="rgb(255 255 255 / 50%)" />
  <rect x="590" y="225" width="30" height="30" fill="rgb(255 255 255 / 50%)" />
  <rect x="100" y="260" width="30" height="30" fill="hsl(240 100% 99.89802501071404%)" />
  <rect x="135" y="260" width="30" height="30" fill="hsl(240 100% 99.41261594764103%)" />
  <rect x="170" y="260" width="30" height="30" fill="rgb(255 255 255 / 50%)" />
  <rect x="205" y="260" width="30" height="30" fill="hsl(240 100% 87.54977652247318%)" />
  <rect x="240" y="260" width="30" height="30" fill="rgb(255 255 255 / 50%)" />
  <rect x="310" y="260" width="30" height="30" fill="hsl(240 100% 83.02192623736256%)" />
  <rect x="345" y="260" width="30" height="30" fill="rgb(255 255 255 / 50%)" />
  <rect x="380" y="260" width="30" height="30" fill="hsl(240 100% 50%)" />
  <rect x="415" y="260" width="30" height="30" fill="hsl(240 100% 76.76557506241483%)" />
  <rect x="485" y="260" width="30" height="30" fill="hsl(240 100% 97.02796544940982%)" />
  <rect x="520" y="260" width="30" height="30" fill="hsl(240 100% 94.25148333493068%)" />
  <rect x="65" y="295" width="30" height="30" fill="hsl(240 100% 66.74206075438526%)" />
  <rect x="100" y="295" width="30" height="30" fill="hsl(240 100% 59.4162624224893%)" />
  <rect x="135" y="295" width="30" height="30" fill="hsl(240 100% 59.9564111833471%)" />
  <rect x="170" y="295" width="30" height="30" fill="hsl(240 100% 56.89413464500394%)" />
  <rect x="205" y="295" width="30" height="30" fill="hsl(240 100% 50%)" />
  <rect x="240" y="295" width="30" height="30" fill="hsl(240 100% 99.42776139687528%)" />
  <rect x="310" y="295" width="30" height="30" fill="hsl(240 100% 50.557516316466646%)" />
  <rect x="345" y="295" width="30" height="30" fill="hsl(240 100% 89.51075318553765%)" />
  <rect x="415" y="295" width="30" height="30" fill="hsl(240 100% 53.614410185080985%)" />
  <rect x="65" y="330" width="30" height="30" fill="hsl(240 100% 69.13974265368203%)" />
  <rect x="100" y="330" width="30" height="30" fill="hsl(240 100% 81.00142426197273%)" />
  <rect x="135" y="330" width="30" height="30" fill="hsl(240 100% 50.14142503329805%)" />
  <rect x="170" y="330" width="30" height="30" fill="hsl(240 100% 89.2126874107871%)" />
  <rect x="205" y="330" width="30" height="30" fill="hsl(240 100% 50%)" />
  <rect x="240" y="330" width="30" height="30" fill="hsl(240 100% 99.85257664200937%)" />
  <rect x="310" y="330" width="30" height="30" fill="hsl(240 100% 63.41853816923574%)" />
  <rect x="415" y="330" width="30" height="30" fill="hsl(240 100% 84.64426171118717%)" />
  <rect x="485" y="330" width="30" height="30" fill="hsl(240 100% 99.59725994733668%)" />
  <rect x="520" y="330" width="30" height="30" fill="hsl(240 100% 89.63709375489728%)" />
  <rect x="555" y="330" width="30" height="30" fill="hsl(240 100% 60.46366440335979%)" />
  <rect x="590" y="330" width="30" height="30" fill="hsl(240 100% 98.01393843119503%)" />
  <rect x="65" y="365" width="30" height="30" fill="hsl(240 100% 99.31875672016665%)" />
  <rect x="100" y="365" width="30" height="30" fill="hsl(240 100% 99.62380176960058%)" />
  <rect x="135" y="365" width="30" height="30" fill="hsl(240 100% 94.6727860057276%)" />
  <rect x="170" y="365" width="30" height="30" fill="hsl(240 100% 55.54349079026035%)" />
  <rect x="205" y="365" width="30" height="30" fill="hsl(240 100% 87.2161511690005%)" />
  <rect x="240" y="365" width="30" height="30" fill="rgb(255 255 255 / 50%)" />
  <rect x="310" y="365" width="30" height="30" fill="hsl(240 100% 95.98776645581547%)" />
  <rect x="345" y="365" width="30" height="30" fill="hsl(240 100% 99.97336481349488%)" />
  <rect x="415" y="365" width="30" height="30" fill="hsl(240 100% 50%)" />
  <rect x="205" y="400" width="30" height="30" fill="hsl(240 100% 50%)" />
  <rect x="240" y="400" width="30" height="30" fill="hsl(240 100% 95.21438540917669%)" />
  <rect x="310" y="400" width="30" height="30" fill="hsl(240 100% 87.97298620473474%)" />
  <rect x="345" y="400" width="30" height="30" fill="hsl(240 100% 99.78178172200155%)" />
  <rect x="205" y="435" width="30" height="30" fill="hsl(240 100% 50%)" />
  <rect x="240" y="435" width="30" height="30" fill="hsl(240 100% 95.83366047710648%)" />
  <rect x="310" y="435" width="30" height="30" fill="hsl(240 100% 89.03442442607682%)" />
  <rect x="345" y="435" width="30" height="30" fill="hsl(240 100% 99.60239067077637%)" />
</svg>
