<svg xmlns="http://www.w3.org/2000/svg" viewBox="0 0 730 505">
  <rect x="0" y="0" width="730" height="505" rx="5" ry="5" fill="#222" />
  <text x="60" y="100" fill="white" font-family="sans-serif" font-weight="bold" font-size="12" text-anchor="end" dominant-baseline="middle">ba</text>
  <text x="60" y="135" fill="white" font-family="sans-serif" font-weight="bold" font-size="12" text-anchor="end" dominant-baseline="middle">det</text>
  <text x="60" y="170" fill="white" font-family="sans-serif" font-weight="bold" font-size="12" text-anchor="end" dominant-baseline="middle">gmm</text>
  <text x="60" y="205" fill="white" font-family="sans-serif" font-weight="bold" font-size="12" text-anchor="end" dominant-baseline="middle">hello</text>
  <text x="60" y="240" fill="white" font-family="sans-serif" font-weight="bold" font-size="12" text-anchor="end" dominant-baseline="middle">ht</text>
  <text x="60" y="275" fill="white" font-family="sans-serif" font-weight="bold" font-size="12" text-anchor="end" dominant-baseline="middle">kmeans</text>
  <text x="60" y="310" fill="white" font-family="sans-serif" font-weight="bold" font-size="12" text-anchor="end" dominant-baseline="middle">llsq</text>
  <text x="60" y="345" fill="white" font-family="sans-serif" font-weight="bold" font-size="12" text-anchor="end" dominant-baseline="middle">lse</text>
  <text x="60" y="380" fill="white" font-family="sans-serif" font-weight="bold" font-size="12" text-anchor="end" dominant-baseline="middle">lstm</text>
  <text x="60" y="415" fill="white" font-family="sans-serif" font-weight="bold" font-size="12" text-anchor="end" dominant-baseline="middle">ode</text>
  <text x="60" y="450" fill="white" font-family="sans-serif" font-weight="bold" font-size="12" text-anchor="end" dominant-baseline="middle">particle</text>
  <text x="60" y="485" fill="white" font-family="sans-serif" font-weight="bold" font-size="12" text-anchor="end" dominant-baseline="middle">saddle</text>
  <text x="80" y="80" fill="white" font-family="sans-serif" font-weight="bold" font-size="12" text-anchor="end" dominant-baseline="middle" transform="rotate(90 80 80)">ad-hpp</text>
  <text x="115" y="80" fill="white" font-family="sans-serif" font-weight="bold" font-size="12" text-anchor="end" dominant-baseline="middle" transform="rotate(90 115 80)">adept</text>
  <text x="150" y="80" fill="white" font-family="sans-serif" font-weight="bold" font-size="12" text-anchor="end" dominant-baseline="middle" transform="rotate(90 150 80)">adol-c</text>
  <text x="185" y="80" fill="white" font-family="sans-serif" font-weight="bold" font-size="12" text-anchor="end" dominant-baseline="middle" transform="rotate(90 185 80)">codipack</text>
  <text x="220" y="80" fill="white" font-family="sans-serif" font-weight="bold" font-size="12" text-anchor="end" dominant-baseline="middle" transform="rotate(90 220 80)">cppad</text>
  <text x="255" y="80" fill="white" font-family="sans-serif" font-weight="bold" font-size="12" text-anchor="end" dominant-baseline="middle" transform="rotate(90 255 80)">enzyme</text>
  <text x="290" y="80" fill="white" font-family="sans-serif" font-weight="bold" font-size="12" text-anchor="end" dominant-baseline="middle" transform="rotate(90 290 80)">enzyme-jl</text>
  <text x="325" y="80" fill="white" font-family="sans-serif" font-weight="bold" font-size="12" text-anchor="end" dominant-baseline="middle" transform="rotate(90 325 80)">finite</text>
  <text x="360" y="80" fill="white" font-family="sans-serif" font-weight="bold" font-size="12" text-anchor="end" dominant-baseline="middle" transform="rotate(90 360 80)">floretta</text>
  <text x="395" y="80" fill="white" font-family="sans-serif" font-weight="bold" font-size="12" text-anchor="end" dominant-baseline="middle" transform="rotate(90 395 80)">futhark</text>
  <text x="430" y="80" fill="white" font-family="sans-serif" font-weight="bold" font-size="12" text-anchor="end" dominant-baseline="middle" transform="rotate(90 430 80)">haskell</text>
  <text x="465" y="80" fill="white" font-family="sans-serif" font-weight="bold" font-size="12" text-anchor="end" dominant-baseline="middle" transform="rotate(90 465 80)">jax</text>
  <text x="500" y="80" fill="white" font-family="sans-serif" font-weight="bold" font-size="12" text-anchor="end" dominant-baseline="middle" transform="rotate(90 500 80)">manual</text>
  <text x="535" y="80" fill="white" font-family="sans-serif" font-weight="bold" font-size="12" text-anchor="end" dominant-baseline="middle" transform="rotate(90 535 80)">ocaml</text>
  <text x="570" y="80" fill="white" font-family="sans-serif" font-weight="bold" font-size="12" text-anchor="end" dominant-baseline="middle" transform="rotate(90 570 80)">pytorch</text>
  <text x="605" y="80" fill="white" font-family="sans-serif" font-weight="bold" font-size="12" text-anchor="end" dominant-baseline="middle" transform="rotate(90 605 80)">scilean</text>
  <text x="640" y="80" fill="white" font-family="sans-serif" font-weight="bold" font-size="12" text-anchor="end" dominant-baseline="middle" transform="rotate(90 640 80)">tapenade</text>
  <text x="675" y="80" fill="white" font-family="sans-serif" font-weight="bold" font-size="12" text-anchor="end" dominant-baseline="middle" transform="rotate(90 675 80)">tensorflow</text>
  <text x="710" y="80" fill="white" font-family="sans-serif" font-weight="bold" font-size="12" text-anchor="end" dominant-baseline="middle" transform="rotate(90 710 80)">zygote</text>
  <rect x="65" y="85" width="30" height="30" fill="hsl(240 100% 77.98001461428078%)" />
  <rect x="100" y="85" width="30" height="30" fill="hsl(240 100% 83.10167111514849%)" />
  <rect x="135" y="85" width="30" height="30" fill="hsl(240 100% 97.76763691670506%)" />
  <rect x="170" y="85" width="30" height="30" fill="hsl(240 100% 88.7605317935751%)" />
  <rect x="205" y="85" width="30" height="30" fill="hsl(240 100% 98.87399618399756%)" />
  <rect x="240" y="85" width="30" height="30" fill="hsl(240 100% 50%)" />
  <rect x="310" y="85" width="30" height="30" fill="hsl(240 100% 92.46438372276756%)" />
  <rect x="380" y="85" width="30" height="30" fill="hsl(240 100% 67.7794631679771%)" />
  <rect x="485" y="85" width="30" height="30" fill="hsl(240 100% 51.170787173652585%)" />
  <rect x="555" y="85" width="30" height="30" fill="rgb(255 255 255 / 50%)" />
  <rect x="625" y="85" width="30" height="30" fill="hsl(240 100% 72.06383038334917%)" />
  <rect x="660" y="85" width="30" height="30" fill="rgb(255 255 255 / 50%)" />
  <rect x="695" y="85" width="30" height="30" fill="rgb(255 255 255 / 50%)" />
  <rect x="65" y="120" width="30" height="30" fill="hsl(240 100% 50%)" />
  <rect x="100" y="120" width="30" height="30" fill="hsl(240 100% 83.8115714585104%)" />
  <rect x="135" y="120" width="30" height="30" fill="hsl(240 100% 85.35030877218252%)" />
  <rect x="170" y="120" width="30" height="30" fill="hsl(240 100% 50.51878932791284%)" />
  <rect x="205" y="120" width="30" height="30" fill="hsl(240 100% 92.80097126220826%)" />
  <rect x="240" y="120" width="30" height="30" fill="hsl(240 100% 91.86536415547877%)" />
  <rect x="275" y="120" width="30" height="30" fill="hsl(240 100% 99.21526212729538%)" />
  <rect x="310" y="120" width="30" height="30" fill="hsl(240 100% 98.98525811448727%)" />
  <rect x="380" y="120" width="30" height="30" fill="hsl(240 100% 94.7484096544009%)" />
  <rect x="415" y="120" width="30" height="30" fill="hsl(240 100% 97.9570820217215%)" />
  <rect x="485" y="120" width="30" height="30" fill="hsl(240 100% 91.26700616351897%)" />
  <rect x="695" y="120" width="30" height="30" fill="rgb(255 255 255 / 50%)" />
  <rect x="65" y="155" width="30" height="30" fill="hsl(240 100% 97.19382452038866%)" />
  <rect x="100" y="155" width="30" height="30" fill="hsl(240 100% 98.3246913821281%)" />
  <rect x="135" y="155" width="30" height="30" fill="hsl(240 100% 98.90250595394104%)" />
  <rect x="170" y="155" width="30" height="30" fill="hsl(240 100% 97.35128999315087%)" />
  <rect x="205" y="155" width="30" height="30" fill="hsl(240 100% 99.78224709730203%)" />
  <rect x="240" y="155" width="30" height="30" fill="hsl(240 100% 87.54980065687738%)" />
  <rect x="310" y="155" width="30" height="30" fill="rgb(255 255 255 / 50%)" />
  <rect x="380" y="155" width="30" height="30" fill="hsl(240 100% 90.31152428195547%)" />
  <rect x="450" y="155" width="30" height="30" fill="hsl(240 100% 71.22343035177258%)" />
  <rect x="485" y="155" width="30" height="30" fill="hsl(240 100% 76.3548033774201%)" />
  <rect x="520" y="155" width="30" height="30" fill="hsl(240 100% 99.39614265522944%)" />
  <rect x="555" y="155" width="30" height="30" fill="hsl(240 100% 50%)" />
  <rect x="590" y="155" width="30" height="30" fill="hsl(240 100% 93.02135218209719%)" />
  <rect x="625" y="155" width="30" height="30" fill="hsl(240 100% 76.98924744032962%)" />
  <rect x="660" y="155" width="30" height="30" fill="hsl(240 100% 89.2143277963484%)" />
  <rect x="695" y="155" width="30" height="30" fill="rgb(255 255 255 / 50%)" />
  <rect x="65" y="190" width="30" height="30" fill="hsl(240 100% 50%)" />
  <rect x="100" y="190" width="30" height="30" fill="hsl(240 100% 50%)" />
  <rect x="135" y="190" width="30" height="30" fill="hsl(240 100% 50%)" />
  <rect x="170" y="190" width="30" height="30" fill="hsl(240 100% 50%)" />
  <rect x="205" y="190" width="30" height="30" fill="hsl(240 100% 50%)" />
  <rect x="240" y="190" width="30" height="30" fill="hsl(240 100% 50%)" />
  <rect x="275" y="190" width="30" height="30" fill="hsl(240 100% 50%)" />
  <rect x="310" y="190" width="30" height="30" fill="hsl(240 100% 50%)" />
  <rect x="345" y="190" width="30" height="30" fill="hsl(240 100% 50%)" />
  <rect x="380" y="190" width="30" height="30" fill="hsl(240 100% 50%)" />
  <rect x="415" y="190" width="30" height="30" fill="hsl(240 100% 50%)" />
  <rect x="450" y="190" width="30" height="30" fill="hsl(240 100% 50%)" />
  <rect x="485" y="190" width="30" height="30" fill="hsl(240 100% 50%)" />
  <rect x="520" y="190" width="30" height="30" fill="hsl(240 100% 50%)" />
  <rect x="555" y="190" width="30" height="30" fill="hsl(240 100% 50%)" />
  <rect x="590" y="190" width="30" height="30" fill="hsl(240 100% 50%)" />
  <rect x="625" y="190" width="30" height="30" fill="hsl(240 100% 50%)" />
  <rect x="660" y="190" width="30" height="30" fill="hsl(240 100% 50%)" />
  <rect x="695" y="190" width="30" height="30" fill="hsl(240 100% 50%)" />
  <rect x="100" y="225" width="30" height="30" fill="hsl(240 100% 96.13978193641897%)" />
  <rect x="135" y="225" width="30" height="30" fill="hsl(240 100% 90.38064184376911%)" />
  <rect x="170" y="225" width="30" height="30" fill="hsl(240 100% 88.85651027246585%)" />
  <rect x="240" y="225" width="30" height="30" fill="hsl(240 100% 90.56583779726476%)" />
  <rect x="310" y="225" width="30" height="30" fill="rgb(255 255 255 / 50%)" />
  <rect x="380" y="225" width="30" height="30" fill="hsl(240 100% 89.90297855069801%)" />
  <rect x="485" y="225" width="30" height="30" fill="hsl(240 100% 50%)" />
  <rect x="555" y="225" width="30" height="30" fill="rgb(255 255 255 / 50%)" />
  <rect x="625" y="225" width="30" height="30" fill="rgb(255 255 255 / 50%)" />
  <rect x="660" y="225" width="30" height="30" fill="rgb(255 255 255 / 50%)" />
  <rect x="695" y="225" width="30" height="30" fill="rgb(255 255 255 / 50%)" />
  <rect x="135" y="260" width="30" height="30" fill="hsl(240 100% 99.87995563210106%)" />
  <rect x="170" y="260" width="30" height="30" fill="hsl(240 100% 99.36786061651267%)" />
  <rect x="205" y="260" width="30" height="30" fill="rgb(255 255 255 / 50%)" />
  <rect x="240" y="260" width="30" height="30" fill="hsl(240 100% 87.53747547992654%)" />
  <rect x="310" y="260" width="30" height="30" fill="rgb(255 255 255 / 50%)" />
  <rect x="380" y="260" width="30" height="30" fill="hsl(240 100% 82.95600741953464%)" />
  <rect x="415" y="260" width="30" height="30" fill="rgb(255 255 255 / 50%)" />
  <rect x="450" y="260" width="30" height="30" fill="hsl(240 100% 50%)" />
  <rect x="485" y="260" width="30" height="30" fill="hsl(240 100% 76.40857026753459%)" />
  <rect x="555" y="260" width="30" height="30" fill="hsl(240 100% 96.94975110664247%)" />
  <rect x="590" y="260" width="30" height="30" fill="hsl(240 100% 94.08869123419579%)" />
  <rect x="65" y="295" width="30" height="30" fill="hsl(240 100% 58.92060303295841%)" />
  <rect x="100" y="295" width="30" height="30" fill="hsl(240 100% 66.80438305144348%)" />
  <rect x="135" y="295" width="30" height="30" fill="hsl(240 100% 59.60611270486764%)" />
  <rect x="170" y="295" width="30" height="30" fill="hsl(240 100% 60.07030787943349%)" />
  <rect x="205" y="295" width="30" height="30" fill="hsl(240 100% 91.68137763403716%)" />
  <rect x="240" y="295" width="30" height="30" fill="hsl(240 100% 50%)" />
  <rect x="310" y="295" width="30" height="30" fill="hsl(240 100% 99.43090678517862%)" />
  <rect x="380" y="295" width="30" height="30" fill="hsl(240 100% 50.597877172693046%)" />
  <rect x="415" y="295" width="30" height="30" fill="hsl(240 100% 89.83258120399739%)" />
  <rect x="485" y="295" width="30" height="30" fill="hsl(240 100% 53.48098875729485%)" />
  <rect x="590" y="295" width="30" height="30" fill="hsl(240 100% 55.225725142055616%)" />
  <rect x="65" y="330" width="30" height="30" fill="hsl(240 100% 89.36567963653371%)" />
  <rect x="100" y="330" width="30" height="30" fill="hsl(240 100% 94.71673813796576%)" />
  <rect x="135" y="330" width="30" height="30" fill="hsl(240 100% 97.3152177878587%)" />
  <rect x="170" y="330" width="30" height="30" fill="hsl(240 100% 89.54885896264882%)" />
  <rect x="205" y="330" width="30" height="30" fill="hsl(240 100% 99.22172729109242%)" />
  <rect x="240" y="330" width="30" height="30" fill="hsl(240 100% 81.9247929113755%)" />
  <rect x="275" y="330" width="30" height="30" fill="hsl(240 100% 99.83043042004337%)" />
  <rect x="310" y="330" width="30" height="30" fill="rgb(255 255 255 / 50%)" />
  <rect x="380" y="330" width="30" height="30" fill="hsl(240 100% 85.88531756503126%)" />
  <rect x="415" y="330" width="30" height="30" fill="hsl(240 100% 99.81292597832503%)" />
  <rect x="450" y="330" width="30" height="30" fill="hsl(240 100% 71.77754952891009%)" />
  <rect x="485" y="330" width="30" height="30" fill="hsl(240 100% 78.99277711373178%)" />
  <rect x="520" y="330" width="30" height="30" fill="hsl(240 100% 93.99409464127929%)" />
  <rect x="555" y="330" width="30" height="30" fill="hsl(240 100% 50%)" />
  <rect x="660" y="330" width="30" height="30" fill="hsl(240 100% 88.98778009660717%)" />
  <rect x="695" y="330" width="30" height="30" fill="hsl(240 100% 98.86859734153518%)" />
  <rect x="65" y="365" width="30" height="30" fill="hsl(240 100% 53.42264534541282%)" />
  <rect x="100" y="365" width="30" height="30" fill="hsl(240 100% 68.81452390600488%)" />
  <rect x="135" y="365" width="30" height="30" fill="hsl(240 100% 80.89616071815992%)" />
  <rect x="170" y="365" width="30" height="30" fill="hsl(240 100% 50%)" />
  <rect x="205" y="365" width="30" height="30" fill="hsl(240 100% 95.77887747423912%)" />
  <rect x="240" y="365" width="30" height="30" fill="hsl(240 100% 50.82412355899937%)" />
  <rect x="310" y="365" width="30" height="30" fill="hsl(240 100% 99.85187716303223%)" />
  <rect x="380" y="365" width="30" height="30" fill="hsl(240 100% 63.10965411617812%)" />
  <rect x="485" y="365" width="30" height="30" fill="hsl(240 100% 84.53780422371453%)" />
  <rect x="555" y="365" width="30" height="30" fill="hsl(240 100% 99.59849027957233%)" />
  <rect x="625" y="365" width="30" height="30" fill="hsl(240 100% 60.01673705768432%)" />
  <rect x="660" y="365" width="30" height="30" fill="hsl(240 100% 97.93204549951608%)" />
  <rect x="695" y="365" width="30" height="30" fill="hsl(240 100% 99.10994517497132%)" />
  <rect x="65" y="400" width="30" height="30" fill="hsl(240 100% 98.01190205742883%)" />
  <rect x="100" y="400" width="30" height="30" fill="hsl(240 100% 99.20606845127536%)" />
  <rect x="135" y="400" width="30" height="30" fill="hsl(240 100% 99.57495674733146%)" />
  <rect x="170" y="400" width="30" height="30" fill="hsl(240 100% 93.80107754786214%)" />
  <rect x="205" y="400" width="30" height="30" fill="hsl(240 100% 98.99292028695052%)" />
  <rect x="240" y="400" width="30" height="30" fill="hsl(240 100% 86.06067234758386%)" />
  <rect x="275" y="400" width="30" height="30" fill="hsl(240 100% 99.06999240332486%)" />
  <rect x="310" y="400" width="30" height="30" fill="rgb(255 255 255 / 50%)" />
  <rect x="380" y="400" width="30" height="30" fill="hsl(240 100% 95.45965204558499%)" />
  <rect x="415" y="400" width="30" height="30" fill="hsl(240 100% 99.96667408099012%)" />
  <rect x="485" y="400" width="30" height="30" fill="hsl(240 100% 50%)" />
  <rect x="240" y="435" width="30" height="30" fill="hsl(240 100% 50%)" />
  <rect x="310" y="435" width="30" height="30" fill="hsl(240 100% 95.20060738900528%)" />
  <rect x="380" y="435" width="30" height="30" fill="hsl(240 100% 87.92458858523722%)" />
  <rect x="415" y="435" width="30" height="30" fill="hsl(240 100% 99.764005928588%)" />
  <rect x="240" y="470" width="30" height="30" fill="hsl(240 100% 50%)" />
  <rect x="310" y="470" width="30" height="30" fill="hsl(240 100% 95.9287802551091%)" />
  <rect x="380" y="470" width="30" height="30" fill="hsl(240 100% 89.27566816290154%)" />
  <rect x="415" y="470" width="30" height="30" fill="hsl(240 100% 99.58273386206925%)" />
</svg>
