<svg xmlns="http://www.w3.org/2000/svg" viewBox="0 0 870 505">
  <rect x="0" y="0" width="870" height="505" rx="5" ry="5" fill="#222" />
  <text x="60" y="100" fill="white" font-family="sans-serif" font-weight="bold" font-size="12" text-anchor="end" dominant-baseline="middle">ba</text>
  <text x="60" y="135" fill="white" font-family="sans-serif" font-weight="bold" font-size="12" text-anchor="end" dominant-baseline="middle">det</text>
  <text x="60" y="170" fill="white" font-family="sans-serif" font-weight="bold" font-size="12" text-anchor="end" dominant-baseline="middle">gmm</text>
  <text x="60" y="205" fill="white" font-family="sans-serif" font-weight="bold" font-size="12" text-anchor="end" dominant-baseline="middle">hello</text>
  <text x="60" y="240" fill="white" font-family="sans-serif" font-weight="bold" font-size="12" text-anchor="end" dominant-baseline="middle">ht</text>
  <text x="60" y="275" fill="white" font-family="sans-serif" font-weight="bold" font-size="12" text-anchor="end" dominant-baseline="middle">kmeans</text>
  <text x="60" y="310" fill="white" font-family="sans-serif" font-weight="bold" font-size="12" text-anchor="end" dominant-baseline="middle">llsq</text>
  <text x="60" y="345" fill="white" font-family="sans-serif" font-weight="bold" font-size="12" text-anchor="end" dominant-baseline="middle">lse</text>
  <text x="60" y="380" fill="white" font-family="sans-serif" font-weight="bold" font-size="12" text-anchor="end" dominant-baseline="middle">lstm</text>
  <text x="60" y="415" fill="white" font-family="sans-serif" font-weight="bold" font-size="12" text-anchor="end" dominant-baseline="middle">ode</text>
  <text x="60" y="450" fill="white" font-family="sans-serif" font-weight="bold" font-size="12" text-anchor="end" dominant-baseline="middle">particle</text>
  <text x="60" y="485" fill="white" font-family="sans-serif" font-weight="bold" font-size="12" text-anchor="end" dominant-baseline="middle">saddle</text>
  <text x="80" y="80" fill="white" font-family="sans-serif" font-weight="bold" font-size="12" text-anchor="end" dominant-baseline="middle" transform="rotate(90 80 80)">ad-hpp</text>
  <text x="115" y="80" fill="white" font-family="sans-serif" font-weight="bold" font-size="12" text-anchor="end" dominant-baseline="middle" transform="rotate(90 115 80)">adept</text>
  <text x="150" y="80" fill="white" font-family="sans-serif" font-weight="bold" font-size="12" text-anchor="end" dominant-baseline="middle" transform="rotate(90 150 80)">adol-c</text>
  <text x="185" y="80" fill="white" font-family="sans-serif" font-weight="bold" font-size="12" text-anchor="end" dominant-baseline="middle" transform="rotate(90 185 80)">codipack</text>
  <text x="220" y="80" fill="white" font-family="sans-serif" font-weight="bold" font-size="12" text-anchor="end" dominant-baseline="middle" transform="rotate(90 220 80)">cppad</text>
  <text x="255" y="80" fill="white" font-family="sans-serif" font-weight="bold" font-size="12" text-anchor="end" dominant-baseline="middle" transform="rotate(90 255 80)">enzyme</text>
  <text x="290" y="80" fill="white" font-family="sans-serif" font-weight="bold" font-size="12" text-anchor="end" dominant-baseline="middle" transform="rotate(90 290 80)">enzyme-jl</text>
  <text x="325" y="80" fill="white" font-family="sans-serif" font-weight="bold" font-size="12" text-anchor="end" dominant-baseline="middle" transform="rotate(90 325 80)">finite</text>
  <text x="360" y="80" fill="white" font-family="sans-serif" font-weight="bold" font-size="12" text-anchor="end" dominant-baseline="middle" transform="rotate(90 360 80)">floretta</text>
  <text x="395" y="80" fill="white" font-family="sans-serif" font-weight="bold" font-size="12" text-anchor="end" dominant-baseline="middle" transform="rotate(90 395 80)">forwarddiff-jl</text>
  <text x="430" y="80" fill="white" font-family="sans-serif" font-weight="bold" font-size="12" text-anchor="end" dominant-baseline="middle" transform="rotate(90 430 80)">futhark</text>
  <text x="465" y="80" fill="white" font-family="sans-serif" font-weight="bold" font-size="12" text-anchor="end" dominant-baseline="middle" transform="rotate(90 465 80)">haskell</text>
  <text x="500" y="80" fill="white" font-family="sans-serif" font-weight="bold" font-size="12" text-anchor="end" dominant-baseline="middle" transform="rotate(90 500 80)">jax</text>
  <text x="535" y="80" fill="white" font-family="sans-serif" font-weight="bold" font-size="12" text-anchor="end" dominant-baseline="middle" transform="rotate(90 535 80)">manual</text>
  <text x="570" y="80" fill="white" font-family="sans-serif" font-weight="bold" font-size="12" text-anchor="end" dominant-baseline="middle" transform="rotate(90 570 80)">mooncake-jl</text>
  <text x="605" y="80" fill="white" font-family="sans-serif" font-weight="bold" font-size="12" text-anchor="end" dominant-baseline="middle" transform="rotate(90 605 80)">ocaml</text>
  <text x="640" y="80" fill="white" font-family="sans-serif" font-weight="bold" font-size="12" text-anchor="end" dominant-baseline="middle" transform="rotate(90 640 80)">pytorch</text>
  <text x="675" y="80" fill="white" font-family="sans-serif" font-weight="bold" font-size="12" text-anchor="end" dominant-baseline="middle" transform="rotate(90 675 80)">reversediff-jl</text>
  <text x="710" y="80" fill="white" font-family="sans-serif" font-weight="bold" font-size="12" text-anchor="end" dominant-baseline="middle" transform="rotate(90 710 80)">scilean</text>
  <text x="745" y="80" fill="white" font-family="sans-serif" font-weight="bold" font-size="12" text-anchor="end" dominant-baseline="middle" transform="rotate(90 745 80)">tapenade</text>
  <text x="780" y="80" fill="white" font-family="sans-serif" font-weight="bold" font-size="12" text-anchor="end" dominant-baseline="middle" transform="rotate(90 780 80)">tensorflow</text>
  <text x="815" y="80" fill="white" font-family="sans-serif" font-weight="bold" font-size="12" text-anchor="end" dominant-baseline="middle" transform="rotate(90 815 80)">tensorflow-js</text>
  <text x="850" y="80" fill="white" font-family="sans-serif" font-weight="bold" font-size="12" text-anchor="end" dominant-baseline="middle" transform="rotate(90 850 80)">zygote</text>
  <rect x="65" y="85" width="30" height="30" fill="hsl(240 100% 80.68064884367557%)" />
  <rect x="100" y="85" width="30" height="30" fill="hsl(240 100% 82.43618413071216%)" />
  <rect x="135" y="85" width="30" height="30" fill="hsl(240 100% 97.9178129467052%)" />
  <rect x="170" y="85" width="30" height="30" fill="hsl(240 100% 80.21848416275854%)" />
  <rect x="205" y="85" width="30" height="30" fill="hsl(240 100% 98.95053415864832%)" />
  <rect x="240" y="85" width="30" height="30" fill="hsl(240 100% 50%)" />
  <rect x="310" y="85" width="30" height="30" fill="hsl(240 100% 92.89142684558104%)" />
  <rect x="415" y="85" width="30" height="30" fill="hsl(240 100% 67.10498610082554%)" />
  <rect x="520" y="85" width="30" height="30" fill="hsl(240 100% 54.314858806834174%)" />
  <rect x="625" y="85" width="30" height="30" fill="rgb(255 255 255 / 50%)" />
  <rect x="730" y="85" width="30" height="30" fill="hsl(240 100% 74.04319042924158%)" />
  <rect x="765" y="85" width="30" height="30" fill="rgb(255 255 255 / 50%)" />
  <rect x="835" y="85" width="30" height="30" fill="hsl(240 100% 99.72368023983624%)" />
  <rect x="65" y="120" width="30" height="30" fill="hsl(240 100% 50%)" />
  <rect x="100" y="120" width="30" height="30" fill="hsl(240 100% 83.1050572398088%)" />
  <rect x="135" y="120" width="30" height="30" fill="hsl(240 100% 85.83620686605124%)" />
  <rect x="170" y="120" width="30" height="30" fill="hsl(240 100% 52.7120600394781%)" />
  <rect x="205" y="120" width="30" height="30" fill="hsl(240 100% 92.72351314921467%)" />
  <rect x="240" y="120" width="30" height="30" fill="hsl(240 100% 91.72156756458341%)" />
  <rect x="275" y="120" width="30" height="30" fill="hsl(240 100% 99.37374738741495%)" />
  <rect x="310" y="120" width="30" height="30" fill="hsl(240 100% 99.00552876160205%)" />
  <rect x="380" y="120" width="30" height="30" fill="hsl(240 100% 93.42660913558967%)" />
  <rect x="415" y="120" width="30" height="30" fill="hsl(240 100% 95.96421630148365%)" />
  <rect x="450" y="120" width="30" height="30" fill="hsl(240 100% 97.88041437691919%)" />
  <rect x="520" y="120" width="30" height="30" fill="hsl(240 100% 80.12050811353353%)" />
  <rect x="555" y="120" width="30" height="30" fill="hsl(240 100% 90.53273764433825%)" />
  <rect x="660" y="120" width="30" height="30" fill="rgb(255 255 255 / 50%)" />
  <rect x="835" y="120" width="30" height="30" fill="rgb(255 255 255 / 50%)" />
  <rect x="65" y="155" width="30" height="30" fill="hsl(240 100% 98.0766728193915%)" />
  <rect x="100" y="155" width="30" height="30" fill="hsl(240 100% 98.69580210469911%)" />
  <rect x="135" y="155" width="30" height="30" fill="hsl(240 100% 99.01934355446899%)" />
  <rect x="170" y="155" width="30" height="30" fill="hsl(240 100% 97.86333715710455%)" />
  <rect x="205" y="155" width="30" height="30" fill="hsl(240 100% 99.8340695685127%)" />
  <rect x="240" y="155" width="30" height="30" fill="hsl(240 100% 94.80520651683645%)" />
  <rect x="275" y="155" width="30" height="30" fill="hsl(240 100% 92.4684126410705%)" />
  <rect x="310" y="155" width="30" height="30" fill="rgb(255 255 255 / 50%)" />
  <rect x="415" y="155" width="30" height="30" fill="hsl(240 100% 92.1597713891198%)" />
  <rect x="485" y="155" width="30" height="30" fill="hsl(240 100% 50%)" />
  <rect x="520" y="155" width="30" height="30" fill="hsl(240 100% 79.40429013369774%)" />
  <rect x="590" y="155" width="30" height="30" fill="hsl(240 100% 99.56100490070185%)" />
  <rect x="625" y="155" width="30" height="30" fill="hsl(240 100% 62.67873694124775%)" />
  <rect x="695" y="155" width="30" height="30" fill="hsl(240 100% 94.93666107601969%)" />
  <rect x="730" y="155" width="30" height="30" fill="hsl(240 100% 81.95049292068614%)" />
  <rect x="765" y="155" width="30" height="30" fill="hsl(240 100% 99.53669906898428%)" />
  <rect x="835" y="155" width="30" height="30" fill="hsl(240 100% 95.75388292045226%)" />
  <rect x="65" y="190" width="30" height="30" fill="hsl(240 100% 50%)" />
  <rect x="100" y="190" width="30" height="30" fill="hsl(240 100% 50%)" />
  <rect x="135" y="190" width="30" height="30" fill="hsl(240 100% 50%)" />
  <rect x="170" y="190" width="30" height="30" fill="hsl(240 100% 50%)" />
  <rect x="205" y="190" width="30" height="30" fill="hsl(240 100% 50%)" />
  <rect x="240" y="190" width="30" height="30" fill="hsl(240 100% 50%)" />
  <rect x="275" y="190" width="30" height="30" fill="hsl(240 100% 50%)" />
  <rect x="310" y="190" width="30" height="30" fill="hsl(240 100% 50%)" />
  <rect x="345" y="190" width="30" height="30" fill="hsl(240 100% 50%)" />
  <rect x="380" y="190" width="30" height="30" fill="hsl(240 100% 50%)" />
  <rect x="415" y="190" width="30" height="30" fill="hsl(240 100% 50%)" />
  <rect x="450" y="190" width="30" height="30" fill="hsl(240 100% 50%)" />
  <rect x="485" y="190" width="30" height="30" fill="hsl(240 100% 50%)" />
  <rect x="520" y="190" width="30" height="30" fill="hsl(240 100% 50%)" />
  <rect x="555" y="190" width="30" height="30" fill="hsl(240 100% 50%)" />
  <rect x="590" y="190" width="30" height="30" fill="hsl(240 100% 50%)" />
  <rect x="625" y="190" width="30" height="30" fill="hsl(240 100% 50%)" />
  <rect x="660" y="190" width="30" height="30" fill="hsl(240 100% 50%)" />
  <rect x="695" y="190" width="30" height="30" fill="hsl(240 100% 50%)" />
  <rect x="730" y="190" width="30" height="30" fill="hsl(240 100% 50%)" />
  <rect x="765" y="190" width="30" height="30" fill="hsl(240 100% 50%)" />
  <rect x="800" y="190" width="30" height="30" fill="hsl(240 100% 50%)" />
  <rect x="835" y="190" width="30" height="30" fill="hsl(240 100% 50%)" />
  <rect x="100" y="225" width="30" height="30" fill="hsl(240 100% 96.28331656940982%)" />
  <rect x="135" y="225" width="30" height="30" fill="hsl(240 100% 86.56739169023982%)" />
  <rect x="170" y="225" width="30" height="30" fill="hsl(240 100% 88.02077521651401%)" />
  <rect x="240" y="225" width="30" height="30" fill="hsl(240 100% 90.30701185984448%)" />
  <rect x="310" y="225" width="30" height="30" fill="rgb(255 255 255 / 50%)" />
  <rect x="415" y="225" width="30" height="30" fill="hsl(240 100% 89.38744363481518%)" />
  <rect x="520" y="225" width="30" height="30" fill="hsl(240 100% 50%)" />
  <rect x="625" y="225" width="30" height="30" fill="rgb(255 255 255 / 50%)" />
  <rect x="730" y="225" width="30" height="30" fill="hsl(240 100% 92.3397664361911%)" />
  <rect x="765" y="225" width="30" height="30" fill="rgb(255 255 255 / 50%)" />
  <rect x="835" y="225" width="30" height="30" fill="hsl(240 100% 94.33429028092173%)" />
  <rect x="65" y="260" width="30" height="30" fill="hsl(240 100% 99.87240732981068%)" />
  <rect x="135" y="260" width="30" height="30" fill="hsl(240 100% 99.8584650004027%)" />
  <rect x="170" y="260" width="30" height="30" fill="hsl(240 100% 98.9243605707966%)" />
  <rect x="205" y="260" width="30" height="30" fill="rgb(255 255 255 / 50%)" />
  <rect x="240" y="260" width="30" height="30" fill="hsl(240 100% 87.06991940875139%)" />
  <rect x="310" y="260" width="30" height="30" fill="rgb(255 255 255 / 50%)" />
  <rect x="415" y="260" width="30" height="30" fill="hsl(240 100% 80.94208842200042%)" />
  <rect x="450" y="260" width="30" height="30" fill="rgb(255 255 255 / 50%)" />
  <rect x="485" y="260" width="30" height="30" fill="hsl(240 100% 50%)" />
  <rect x="520" y="260" width="30" height="30" fill="hsl(240 100% 72.51371841609233%)" />
  <rect x="625" y="260" width="30" height="30" fill="hsl(240 100% 97.02104549503844%)" />
  <rect x="695" y="260" width="30" height="30" fill="hsl(240 100% 95.91649785039353%)" />
  <rect x="65" y="295" width="30" height="30" fill="hsl(240 100% 85.99121657147394%)" />
  <rect x="100" y="295" width="30" height="30" fill="hsl(240 100% 97.50617422955744%)" />
  <rect x="135" y="295" width="30" height="30" fill="hsl(240 100% 95.17405747506456%)" />
  <rect x="170" y="295" width="30" height="30" fill="hsl(240 100% 89.31773205965948%)" />
  <rect x="205" y="295" width="30" height="30" fill="hsl(240 100% 99.48991049419962%)" />
  <rect x="240" y="295" width="30" height="30" fill="hsl(240 100% 50.6777773348054%)" />
  <rect x="275" y="295" width="30" height="30" fill="hsl(240 100% 50%)" />
  <rect x="310" y="295" width="30" height="30" fill="hsl(240 100% 99.50255753563803%)" />
  <rect x="345" y="295" width="30" height="30" fill="hsl(240 100% 94.8950897373971%)" />
  <rect x="415" y="295" width="30" height="30" fill="hsl(240 100% 55.31400942428365%)" />
  <rect x="450" y="295" width="30" height="30" fill="hsl(240 100% 99.32256387368294%)" />
  <rect x="485" y="295" width="30" height="30" fill="hsl(240 100% 87.8886968571064%)" />
  <rect x="520" y="295" width="30" height="30" fill="hsl(240 100% 57.93239015546527%)" />
  <rect x="695" y="295" width="30" height="30" fill="hsl(240 100% 97.6113783423577%)" />
  <rect x="800" y="295" width="30" height="30" fill="hsl(240 100% 99.57707976968962%)" />
  <rect x="835" y="295" width="30" height="30" fill="hsl(240 100% 99.95787648175575%)" />
  <rect x="65" y="330" width="30" height="30" fill="hsl(240 100% 87.04956577651572%)" />
  <rect x="100" y="330" width="30" height="30" fill="hsl(240 100% 94.2461302447941%)" />
  <rect x="135" y="330" width="30" height="30" fill="hsl(240 100% 96.96795892827369%)" />
  <rect x="170" y="330" width="30" height="30" fill="hsl(240 100% 86.8225441149426%)" />
  <rect x="205" y="330" width="30" height="30" fill="hsl(240 100% 99.04457148219444%)" />
  <rect x="240" y="330" width="30" height="30" fill="hsl(240 100% 79.43325879380099%)" />
  <rect x="275" y="330" width="30" height="30" fill="hsl(240 100% 88.34554581550242%)" />
  <rect x="310" y="330" width="30" height="30" fill="rgb(255 255 255 / 50%)" />
  <rect x="345" y="330" width="30" height="30" fill="hsl(240 100% 97.17749210763508%)" />
  <rect x="415" y="330" width="30" height="30" fill="hsl(240 100% 85.52589469069734%)" />
  <rect x="450" y="330" width="30" height="30" fill="hsl(240 100% 99.8051880717251%)" />
  <rect x="485" y="330" width="30" height="30" fill="hsl(240 100% 70.85614958458922%)" />
  <rect x="520" y="330" width="30" height="30" fill="hsl(240 100% 70.22109094574438%)" />
  <rect x="590" y="330" width="30" height="30" fill="hsl(240 100% 93.65214207412888%)" />
  <rect x="625" y="330" width="30" height="30" fill="hsl(240 100% 50%)" />
  <rect x="765" y="330" width="30" height="30" fill="hsl(240 100% 95.33298057509982%)" />
  <rect x="800" y="330" width="30" height="30" fill="hsl(240 100% 99.26807098878865%)" />
  <rect x="835" y="330" width="30" height="30" fill="hsl(240 100% 81.11019570808841%)" />
  <rect x="65" y="365" width="30" height="30" fill="hsl(240 100% 57.49688854979206%)" />
  <rect x="100" y="365" width="30" height="30" fill="hsl(240 100% 71.49264282088495%)" />
  <rect x="135" y="365" width="30" height="30" fill="hsl(240 100% 82.08235543426515%)" />
  <rect x="170" y="365" width="30" height="30" fill="hsl(240 100% 50%)" />
  <rect x="205" y="365" width="30" height="30" fill="hsl(240 100% 96.027770841879%)" />
  <rect x="240" y="365" width="30" height="30" fill="hsl(240 100% 59.11926354912015%)" />
  <rect x="275" y="365" width="30" height="30" fill="hsl(240 100% 92.27890510822864%)" />
  <rect x="310" y="365" width="30" height="30" fill="hsl(240 100% 99.86101487699086%)" />
  <rect x="415" y="365" width="30" height="30" fill="hsl(240 100% 67.05404152101822%)" />
  <rect x="520" y="365" width="30" height="30" fill="hsl(240 100% 86.12726253724527%)" />
  <rect x="625" y="365" width="30" height="30" fill="hsl(240 100% 99.63443199483929%)" />
  <rect x="730" y="365" width="30" height="30" fill="hsl(240 100% 63.51770834312287%)" />
  <rect x="765" y="365" width="30" height="30" fill="hsl(240 100% 98.19291290408789%)" />
  <rect x="835" y="365" width="30" height="30" fill="hsl(240 100% 98.72343369863691%)" />
  <rect x="65" y="400" width="30" height="30" fill="hsl(240 100% 97.8170783654487%)" />
  <rect x="100" y="400" width="30" height="30" fill="hsl(240 100% 99.30429314076848%)" />
  <rect x="135" y="400" width="30" height="30" fill="hsl(240 100% 99.58286102133894%)" />
  <rect x="170" y="400" width="30" height="30" fill="hsl(240 100% 92.81184617506264%)" />
  <rect x="205" y="400" width="30" height="30" fill="hsl(240 100% 99.07117333660295%)" />
  <rect x="240" y="400" width="30" height="30" fill="hsl(240 100% 85.63872360651393%)" />
  <rect x="275" y="400" width="30" height="30" fill="hsl(240 100% 94.34607900030242%)" />
  <rect x="310" y="400" width="30" height="30" fill="rgb(255 255 255 / 50%)" />
  <rect x="380" y="400" width="30" height="30" fill="rgb(255 255 255 / 50%)" />
  <rect x="415" y="400" width="30" height="30" fill="hsl(240 100% 92.69980082518093%)" />
  <rect x="450" y="400" width="30" height="30" fill="hsl(240 100% 99.96894314696287%)" />
  <rect x="485" y="400" width="30" height="30" fill="hsl(240 100% 74.37360353018646%)" />
  <rect x="520" y="400" width="30" height="30" fill="hsl(240 100% 50%)" />
  <rect x="555" y="400" width="30" height="30" fill="hsl(240 100% 99.01055722641658%)" />
  <rect x="660" y="400" width="30" height="30" fill="rgb(255 255 255 / 50%)" />
  <rect x="835" y="400" width="30" height="30" fill="hsl(240 100% 98.92785449870829%)" />
  <rect x="65" y="435" width="30" height="30" fill="hsl(240 100% 93.30177119228591%)" />
  <rect x="240" y="435" width="30" height="30" fill="hsl(240 100% 50%)" />
  <rect x="310" y="435" width="30" height="30" fill="hsl(240 100% 93.856923068032%)" />
  <rect x="415" y="435" width="30" height="30" fill="hsl(240 100% 87.01277625171517%)" />
  <rect x="450" y="435" width="30" height="30" fill="hsl(240 100% 99.78217126392397%)" />
  <rect x="65" y="470" width="30" height="30" fill="hsl(240 100% 50%)" />
  <rect x="240" y="470" width="30" height="30" fill="hsl(240 100% 50.04460983551552%)" />
  <rect x="310" y="470" width="30" height="30" fill="hsl(240 100% 96.97025662402754%)" />
  <rect x="415" y="470" width="30" height="30" fill="hsl(240 100% 89.44773783161563%)" />
  <rect x="450" y="470" width="30" height="30" fill="hsl(240 100% 99.57110392982926%)" />
</svg>
