<svg xmlns="http://www.w3.org/2000/svg" viewBox="0 0 870 505">
  <rect x="0" y="0" width="870" height="505" rx="5" ry="5" fill="#222" />
  <text x="60" y="100" fill="white" font-family="sans-serif" font-weight="bold" font-size="12" text-anchor="end" dominant-baseline="middle">ba</text>
  <text x="60" y="135" fill="white" font-family="sans-serif" font-weight="bold" font-size="12" text-anchor="end" dominant-baseline="middle">det</text>
  <text x="60" y="170" fill="white" font-family="sans-serif" font-weight="bold" font-size="12" text-anchor="end" dominant-baseline="middle">gmm</text>
  <text x="60" y="205" fill="white" font-family="sans-serif" font-weight="bold" font-size="12" text-anchor="end" dominant-baseline="middle">hello</text>
  <text x="60" y="240" fill="white" font-family="sans-serif" font-weight="bold" font-size="12" text-anchor="end" dominant-baseline="middle">ht</text>
  <text x="60" y="275" fill="white" font-family="sans-serif" font-weight="bold" font-size="12" text-anchor="end" dominant-baseline="middle">kmeans</text>
  <text x="60" y="310" fill="white" font-family="sans-serif" font-weight="bold" font-size="12" text-anchor="end" dominant-baseline="middle">llsq</text>
  <text x="60" y="345" fill="white" font-family="sans-serif" font-weight="bold" font-size="12" text-anchor="end" dominant-baseline="middle">lse</text>
  <text x="60" y="380" fill="white" font-family="sans-serif" font-weight="bold" font-size="12" text-anchor="end" dominant-baseline="middle">lstm</text>
  <text x="60" y="415" fill="white" font-family="sans-serif" font-weight="bold" font-size="12" text-anchor="end" dominant-baseline="middle">ode</text>
  <text x="60" y="450" fill="white" font-family="sans-serif" font-weight="bold" font-size="12" text-anchor="end" dominant-baseline="middle">particle</text>
  <text x="60" y="485" fill="white" font-family="sans-serif" font-weight="bold" font-size="12" text-anchor="end" dominant-baseline="middle">saddle</text>
  <text x="80" y="80" fill="white" font-family="sans-serif" font-weight="bold" font-size="12" text-anchor="end" dominant-baseline="middle" transform="rotate(90 80 80)">ad-hpp</text>
  <text x="115" y="80" fill="white" font-family="sans-serif" font-weight="bold" font-size="12" text-anchor="end" dominant-baseline="middle" transform="rotate(90 115 80)">adept</text>
  <text x="150" y="80" fill="white" font-family="sans-serif" font-weight="bold" font-size="12" text-anchor="end" dominant-baseline="middle" transform="rotate(90 150 80)">adol-c</text>
  <text x="185" y="80" fill="white" font-family="sans-serif" font-weight="bold" font-size="12" text-anchor="end" dominant-baseline="middle" transform="rotate(90 185 80)">codipack</text>
  <text x="220" y="80" fill="white" font-family="sans-serif" font-weight="bold" font-size="12" text-anchor="end" dominant-baseline="middle" transform="rotate(90 220 80)">cppad</text>
  <text x="255" y="80" fill="white" font-family="sans-serif" font-weight="bold" font-size="12" text-anchor="end" dominant-baseline="middle" transform="rotate(90 255 80)">enzyme</text>
  <text x="290" y="80" fill="white" font-family="sans-serif" font-weight="bold" font-size="12" text-anchor="end" dominant-baseline="middle" transform="rotate(90 290 80)">enzyme-jl</text>
  <text x="325" y="80" fill="white" font-family="sans-serif" font-weight="bold" font-size="12" text-anchor="end" dominant-baseline="middle" transform="rotate(90 325 80)">finite</text>
  <text x="360" y="80" fill="white" font-family="sans-serif" font-weight="bold" font-size="12" text-anchor="end" dominant-baseline="middle" transform="rotate(90 360 80)">floretta</text>
  <text x="395" y="80" fill="white" font-family="sans-serif" font-weight="bold" font-size="12" text-anchor="end" dominant-baseline="middle" transform="rotate(90 395 80)">forwarddiff-jl</text>
  <text x="430" y="80" fill="white" font-family="sans-serif" font-weight="bold" font-size="12" text-anchor="end" dominant-baseline="middle" transform="rotate(90 430 80)">futhark</text>
  <text x="465" y="80" fill="white" font-family="sans-serif" font-weight="bold" font-size="12" text-anchor="end" dominant-baseline="middle" transform="rotate(90 465 80)">haskell</text>
  <text x="500" y="80" fill="white" font-family="sans-serif" font-weight="bold" font-size="12" text-anchor="end" dominant-baseline="middle" transform="rotate(90 500 80)">jax</text>
  <text x="535" y="80" fill="white" font-family="sans-serif" font-weight="bold" font-size="12" text-anchor="end" dominant-baseline="middle" transform="rotate(90 535 80)">manual</text>
  <text x="570" y="80" fill="white" font-family="sans-serif" font-weight="bold" font-size="12" text-anchor="end" dominant-baseline="middle" transform="rotate(90 570 80)">mooncake-jl</text>
  <text x="605" y="80" fill="white" font-family="sans-serif" font-weight="bold" font-size="12" text-anchor="end" dominant-baseline="middle" transform="rotate(90 605 80)">ocaml</text>
  <text x="640" y="80" fill="white" font-family="sans-serif" font-weight="bold" font-size="12" text-anchor="end" dominant-baseline="middle" transform="rotate(90 640 80)">pytorch</text>
  <text x="675" y="80" fill="white" font-family="sans-serif" font-weight="bold" font-size="12" text-anchor="end" dominant-baseline="middle" transform="rotate(90 675 80)">reversediff-jl</text>
  <text x="710" y="80" fill="white" font-family="sans-serif" font-weight="bold" font-size="12" text-anchor="end" dominant-baseline="middle" transform="rotate(90 710 80)">scilean</text>
  <text x="745" y="80" fill="white" font-family="sans-serif" font-weight="bold" font-size="12" text-anchor="end" dominant-baseline="middle" transform="rotate(90 745 80)">tapenade</text>
  <text x="780" y="80" fill="white" font-family="sans-serif" font-weight="bold" font-size="12" text-anchor="end" dominant-baseline="middle" transform="rotate(90 780 80)">tensorflow</text>
  <text x="815" y="80" fill="white" font-family="sans-serif" font-weight="bold" font-size="12" text-anchor="end" dominant-baseline="middle" transform="rotate(90 815 80)">tensorflow-js</text>
  <text x="850" y="80" fill="white" font-family="sans-serif" font-weight="bold" font-size="12" text-anchor="end" dominant-baseline="middle" transform="rotate(90 850 80)">zygote</text>
  <rect x="65" y="85" width="30" height="30" fill="hsl(240 100% 80.87522387873983%)" />
  <rect x="100" y="85" width="30" height="30" fill="hsl(240 100% 83.28681885337102%)" />
  <rect x="135" y="85" width="30" height="30" fill="hsl(240 100% 97.98321010745639%)" />
  <rect x="170" y="85" width="30" height="30" fill="hsl(240 100% 82.60815453802245%)" />
  <rect x="205" y="85" width="30" height="30" fill="hsl(240 100% 98.99856164137888%)" />
  <rect x="240" y="85" width="30" height="30" fill="hsl(240 100% 56.78986579279009%)" />
  <rect x="310" y="85" width="30" height="30" fill="hsl(240 100% 93.2732649198436%)" />
  <rect x="415" y="85" width="30" height="30" fill="hsl(240 100% 68.09437174679911%)" />
  <rect x="520" y="85" width="30" height="30" fill="hsl(240 100% 50%)" />
  <rect x="625" y="85" width="30" height="30" fill="rgb(255 255 255 / 50%)" />
  <rect x="730" y="85" width="30" height="30" fill="hsl(240 100% 74.98405581875805%)" />
  <rect x="765" y="85" width="30" height="30" fill="rgb(255 255 255 / 50%)" />
  <rect x="835" y="85" width="30" height="30" fill="hsl(240 100% 99.73449433733322%)" />
  <rect x="65" y="120" width="30" height="30" fill="hsl(240 100% 50%)" />
  <rect x="100" y="120" width="30" height="30" fill="hsl(240 100% 82.98094099376952%)" />
  <rect x="135" y="120" width="30" height="30" fill="hsl(240 100% 85.61969184848974%)" />
  <rect x="170" y="120" width="30" height="30" fill="hsl(240 100% 51.742478293392836%)" />
  <rect x="205" y="120" width="30" height="30" fill="hsl(240 100% 92.50462474364566%)" />
  <rect x="240" y="120" width="30" height="30" fill="hsl(240 100% 91.41545221724333%)" />
  <rect x="275" y="120" width="30" height="30" fill="hsl(240 100% 99.36894587051715%)" />
  <rect x="310" y="120" width="30" height="30" fill="hsl(240 100% 98.98419196679458%)" />
  <rect x="380" y="120" width="30" height="30" fill="hsl(240 100% 93.35500702695619%)" />
  <rect x="415" y="120" width="30" height="30" fill="hsl(240 100% 94.56384671439504%)" />
  <rect x="450" y="120" width="30" height="30" fill="hsl(240 100% 97.9293173723381%)" />
  <rect x="520" y="120" width="30" height="30" fill="hsl(240 100% 79.67884533563287%)" />
  <rect x="555" y="120" width="30" height="30" fill="hsl(240 100% 93.62712490375759%)" />
  <rect x="660" y="120" width="30" height="30" fill="rgb(255 255 255 / 50%)" />
  <rect x="835" y="120" width="30" height="30" fill="rgb(255 255 255 / 50%)" />
  <rect x="65" y="155" width="30" height="30" fill="hsl(240 100% 98.48328146882612%)" />
  <rect x="100" y="155" width="30" height="30" fill="hsl(240 100% 98.79453827746117%)" />
  <rect x="135" y="155" width="30" height="30" fill="hsl(240 100% 99.12309196290796%)" />
  <rect x="170" y="155" width="30" height="30" fill="hsl(240 100% 98.01743861718076%)" />
  <rect x="205" y="155" width="30" height="30" fill="hsl(240 100% 99.8507794429854%)" />
  <rect x="240" y="155" width="30" height="30" fill="hsl(240 100% 91.09274008820586%)" />
  <rect x="275" y="155" width="30" height="30" fill="hsl(240 100% 93.40132323779943%)" />
  <rect x="310" y="155" width="30" height="30" fill="rgb(255 255 255 / 50%)" />
  <rect x="415" y="155" width="30" height="30" fill="hsl(240 100% 92.98080781861827%)" />
  <rect x="485" y="155" width="30" height="30" fill="hsl(240 100% 50%)" />
  <rect x="520" y="155" width="30" height="30" fill="hsl(240 100% 83.80274987992367%)" />
  <rect x="590" y="155" width="30" height="30" fill="hsl(240 100% 99.58305937158977%)" />
  <rect x="625" y="155" width="30" height="30" fill="hsl(240 100% 67.61820109250746%)" />
  <rect x="695" y="155" width="30" height="30" fill="hsl(240 100% 95.47116930542335%)" />
  <rect x="730" y="155" width="30" height="30" fill="hsl(240 100% 83.74997005727548%)" />
  <rect x="765" y="155" width="30" height="30" fill="hsl(240 100% 99.57442275727925%)" />
  <rect x="835" y="155" width="30" height="30" fill="hsl(240 100% 96.44321936537543%)" />
  <rect x="65" y="190" width="30" height="30" fill="hsl(240 100% 50%)" />
  <rect x="100" y="190" width="30" height="30" fill="hsl(240 100% 50%)" />
  <rect x="135" y="190" width="30" height="30" fill="hsl(240 100% 50%)" />
  <rect x="170" y="190" width="30" height="30" fill="hsl(240 100% 50%)" />
  <rect x="205" y="190" width="30" height="30" fill="hsl(240 100% 50%)" />
  <rect x="240" y="190" width="30" height="30" fill="hsl(240 100% 50%)" />
  <rect x="275" y="190" width="30" height="30" fill="hsl(240 100% 50%)" />
  <rect x="310" y="190" width="30" height="30" fill="hsl(240 100% 50%)" />
  <rect x="345" y="190" width="30" height="30" fill="hsl(240 100% 50%)" />
  <rect x="380" y="190" width="30" height="30" fill="hsl(240 100% 50%)" />
  <rect x="415" y="190" width="30" height="30" fill="hsl(240 100% 50%)" />
  <rect x="450" y="190" width="30" height="30" fill="hsl(240 100% 50%)" />
  <rect x="485" y="190" width="30" height="30" fill="hsl(240 100% 50%)" />
  <rect x="520" y="190" width="30" height="30" fill="hsl(240 100% 50%)" />
  <rect x="555" y="190" width="30" height="30" fill="hsl(240 100% 50%)" />
  <rect x="590" y="190" width="30" height="30" fill="hsl(240 100% 50%)" />
  <rect x="625" y="190" width="30" height="30" fill="hsl(240 100% 50%)" />
  <rect x="660" y="190" width="30" height="30" fill="hsl(240 100% 50%)" />
  <rect x="695" y="190" width="30" height="30" fill="hsl(240 100% 50%)" />
  <rect x="730" y="190" width="30" height="30" fill="hsl(240 100% 50%)" />
  <rect x="765" y="190" width="30" height="30" fill="hsl(240 100% 50%)" />
  <rect x="800" y="190" width="30" height="30" fill="hsl(240 100% 50%)" />
  <rect x="835" y="190" width="30" height="30" fill="hsl(240 100% 50%)" />
  <rect x="100" y="225" width="30" height="30" fill="hsl(240 100% 96.74586650380904%)" />
  <rect x="135" y="225" width="30" height="30" fill="hsl(240 100% 89.56553752544465%)" />
  <rect x="170" y="225" width="30" height="30" fill="hsl(240 100% 89.3610987430183%)" />
  <rect x="240" y="225" width="30" height="30" fill="hsl(240 100% 91.42629236243967%)" />
  <rect x="310" y="225" width="30" height="30" fill="rgb(255 255 255 / 50%)" />
  <rect x="415" y="225" width="30" height="30" fill="hsl(240 100% 90.67163830348281%)" />
  <rect x="520" y="225" width="30" height="30" fill="hsl(240 100% 50%)" />
  <rect x="625" y="225" width="30" height="30" fill="rgb(255 255 255 / 50%)" />
  <rect x="730" y="225" width="30" height="30" fill="hsl(240 100% 93.30930830124831%)" />
  <rect x="765" y="225" width="30" height="30" fill="rgb(255 255 255 / 50%)" />
  <rect x="835" y="225" width="30" height="30" fill="hsl(240 100% 94.263018390292%)" />
  <rect x="65" y="260" width="30" height="30" fill="hsl(240 100% 99.82974767971487%)" />
  <rect x="135" y="260" width="30" height="30" fill="hsl(240 100% 99.85330051808681%)" />
  <rect x="170" y="260" width="30" height="30" fill="hsl(240 100% 98.84070000703231%)" />
  <rect x="205" y="260" width="30" height="30" fill="rgb(255 255 255 / 50%)" />
  <rect x="240" y="260" width="30" height="30" fill="hsl(240 100% 87.20666352238212%)" />
  <rect x="310" y="260" width="30" height="30" fill="rgb(255 255 255 / 50%)" />
  <rect x="415" y="260" width="30" height="30" fill="hsl(240 100% 80.61443183148603%)" />
  <rect x="450" y="260" width="30" height="30" fill="rgb(255 255 255 / 50%)" />
  <rect x="485" y="260" width="30" height="30" fill="hsl(240 100% 50%)" />
  <rect x="520" y="260" width="30" height="30" fill="hsl(240 100% 71.30915277996041%)" />
  <rect x="625" y="260" width="30" height="30" fill="hsl(240 100% 96.95703696667456%)" />
  <rect x="695" y="260" width="30" height="30" fill="hsl(240 100% 94.1077255014142%)" />
  <rect x="65" y="295" width="30" height="30" fill="hsl(240 100% 85.91788277961274%)" />
  <rect x="100" y="295" width="30" height="30" fill="hsl(240 100% 97.51221811973348%)" />
  <rect x="135" y="295" width="30" height="30" fill="hsl(240 100% 95.13568501647639%)" />
  <rect x="170" y="295" width="30" height="30" fill="hsl(240 100% 90.6982427397927%)" />
  <rect x="205" y="295" width="30" height="30" fill="hsl(240 100% 99.44997231013248%)" />
  <rect x="240" y="295" width="30" height="30" fill="hsl(240 100% 50.733631175767%)" />
  <rect x="275" y="295" width="30" height="30" fill="hsl(240 100% 50%)" />
  <rect x="310" y="295" width="30" height="30" fill="hsl(240 100% 99.50084981610027%)" />
  <rect x="345" y="295" width="30" height="30" fill="hsl(240 100% 94.73817634632906%)" />
  <rect x="415" y="295" width="30" height="30" fill="hsl(240 100% 55.37692336435698%)" />
  <rect x="450" y="295" width="30" height="30" fill="hsl(240 100% 99.32920870906415%)" />
  <rect x="485" y="295" width="30" height="30" fill="hsl(240 100% 88.3275522574373%)" />
  <rect x="520" y="295" width="30" height="30" fill="hsl(240 100% 57.97324576679946%)" />
  <rect x="695" y="295" width="30" height="30" fill="hsl(240 100% 97.62967324978686%)" />
  <rect x="800" y="295" width="30" height="30" fill="hsl(240 100% 99.57548742845216%)" />
  <rect x="835" y="295" width="30" height="30" fill="hsl(240 100% 99.95558751716905%)" />
  <rect x="65" y="330" width="30" height="30" fill="hsl(240 100% 87.6624109963245%)" />
  <rect x="100" y="330" width="30" height="30" fill="hsl(240 100% 94.3262263371308%)" />
  <rect x="135" y="330" width="30" height="30" fill="hsl(240 100% 96.89623291318986%)" />
  <rect x="170" y="330" width="30" height="30" fill="hsl(240 100% 87.39219698722741%)" />
  <rect x="205" y="330" width="30" height="30" fill="hsl(240 100% 99.12192964798443%)" />
  <rect x="240" y="330" width="30" height="30" fill="hsl(240 100% 78.09777207321471%)" />
  <rect x="275" y="330" width="30" height="30" fill="hsl(240 100% 87.12625234901175%)" />
  <rect x="310" y="330" width="30" height="30" fill="rgb(255 255 255 / 50%)" />
  <rect x="345" y="330" width="30" height="30" fill="hsl(240 100% 96.98186362015593%)" />
  <rect x="415" y="330" width="30" height="30" fill="hsl(240 100% 84.54823553089899%)" />
  <rect x="450" y="330" width="30" height="30" fill="hsl(240 100% 99.80490040086012%)" />
  <rect x="485" y="330" width="30" height="30" fill="hsl(240 100% 67.57161531106482%)" />
  <rect x="520" y="330" width="30" height="30" fill="hsl(240 100% 74.49603912959277%)" />
  <rect x="590" y="330" width="30" height="30" fill="hsl(240 100% 93.27151101697757%)" />
  <rect x="625" y="330" width="30" height="30" fill="hsl(240 100% 50%)" />
  <rect x="765" y="330" width="30" height="30" fill="hsl(240 100% 93.7536910088351%)" />
  <rect x="800" y="330" width="30" height="30" fill="hsl(240 100% 99.14011164976407%)" />
  <rect x="835" y="330" width="30" height="30" fill="hsl(240 100% 79.43064561810473%)" />
  <rect x="65" y="365" width="30" height="30" fill="hsl(240 100% 57.31535598108951%)" />
  <rect x="100" y="365" width="30" height="30" fill="hsl(240 100% 71.99094946053702%)" />
  <rect x="135" y="365" width="30" height="30" fill="hsl(240 100% 82.00712246319002%)" />
  <rect x="170" y="365" width="30" height="30" fill="hsl(240 100% 50%)" />
  <rect x="205" y="365" width="30" height="30" fill="hsl(240 100% 96.21076695573625%)" />
  <rect x="240" y="365" width="30" height="30" fill="hsl(240 100% 59.39880865860566%)" />
  <rect x="275" y="365" width="30" height="30" fill="hsl(240 100% 92.45952799110268%)" />
  <rect x="310" y="365" width="30" height="30" fill="hsl(240 100% 99.86260726877244%)" />
  <rect x="415" y="365" width="30" height="30" fill="hsl(240 100% 67.03338382352041%)" />
  <rect x="520" y="365" width="30" height="30" fill="hsl(240 100% 85.97958883594448%)" />
  <rect x="625" y="365" width="30" height="30" fill="hsl(240 100% 99.64743065279352%)" />
  <rect x="730" y="365" width="30" height="30" fill="hsl(240 100% 63.65521664539339%)" />
  <rect x="765" y="365" width="30" height="30" fill="hsl(240 100% 98.2333354099782%)" />
  <rect x="835" y="365" width="30" height="30" fill="hsl(240 100% 98.75629284517947%)" />
  <rect x="65" y="400" width="30" height="30" fill="hsl(240 100% 98.51929858717443%)" />
  <rect x="100" y="400" width="30" height="30" fill="hsl(240 100% 99.41160165496302%)" />
  <rect x="135" y="400" width="30" height="30" fill="hsl(240 100% 99.6756382954363%)" />
  <rect x="170" y="400" width="30" height="30" fill="hsl(240 100% 95.3987090498719%)" />
  <rect x="205" y="400" width="30" height="30" fill="hsl(240 100% 99.23651623311083%)" />
  <rect x="240" y="400" width="30" height="30" fill="hsl(240 100% 88.80561817743435%)" />
  <rect x="275" y="400" width="30" height="30" fill="hsl(240 100% 95.28657564211645%)" />
  <rect x="310" y="400" width="30" height="30" fill="rgb(255 255 255 / 50%)" />
  <rect x="380" y="400" width="30" height="30" fill="rgb(255 255 255 / 50%)" />
  <rect x="415" y="400" width="30" height="30" fill="hsl(240 100% 94.02402863375472%)" />
  <rect x="450" y="400" width="30" height="30" fill="hsl(240 100% 99.97031601838871%)" />
  <rect x="485" y="400" width="30" height="30" fill="hsl(240 100% 78.28863093861929%)" />
  <rect x="520" y="400" width="30" height="30" fill="hsl(240 100% 50%)" />
  <rect x="555" y="400" width="30" height="30" fill="hsl(240 100% 99.11421770034173%)" />
  <rect x="660" y="400" width="30" height="30" fill="rgb(255 255 255 / 50%)" />
  <rect x="835" y="400" width="30" height="30" fill="hsl(240 100% 99.21225080854153%)" />
  <rect x="65" y="435" width="30" height="30" fill="hsl(240 100% 92.87445277616209%)" />
  <rect x="240" y="435" width="30" height="30" fill="hsl(240 100% 50%)" />
  <rect x="310" y="435" width="30" height="30" fill="hsl(240 100% 94.28451622861165%)" />
  <rect x="415" y="435" width="30" height="30" fill="hsl(240 100% 86.97580650525255%)" />
  <rect x="450" y="435" width="30" height="30" fill="hsl(240 100% 99.78752466715763%)" />
  <rect x="65" y="470" width="30" height="30" fill="hsl(240 100% 50%)" />
  <rect x="240" y="470" width="30" height="30" fill="hsl(240 100% 50.2295681779031%)" />
  <rect x="310" y="470" width="30" height="30" fill="hsl(240 100% 97.15756950399901%)" />
  <rect x="415" y="470" width="30" height="30" fill="hsl(240 100% 89.40992524484443%)" />
  <rect x="450" y="470" width="30" height="30" fill="hsl(240 100% 99.57727255857861%)" />
</svg>
