<svg xmlns="http://www.w3.org/2000/svg" viewBox="0 0 625 295">
  <rect x="0" y="0" width="625" height="295" rx="5" ry="5" fill="#222" />
  <text x="60" y="100" fill="white" font-family="sans-serif" font-weight="bold" font-size="12" text-anchor="end" dominant-baseline="middle">ba</text>
  <text x="60" y="135" fill="white" font-family="sans-serif" font-weight="bold" font-size="12" text-anchor="end" dominant-baseline="middle">gmm</text>
  <text x="60" y="170" fill="white" font-family="sans-serif" font-weight="bold" font-size="12" text-anchor="end" dominant-baseline="middle">hello</text>
  <text x="60" y="205" fill="white" font-family="sans-serif" font-weight="bold" font-size="12" text-anchor="end" dominant-baseline="middle">ht</text>
  <text x="60" y="240" fill="white" font-family="sans-serif" font-weight="bold" font-size="12" text-anchor="end" dominant-baseline="middle">kmeans</text>
  <text x="60" y="275" fill="white" font-family="sans-serif" font-weight="bold" font-size="12" text-anchor="end" dominant-baseline="middle">lstm</text>
  <text x="80" y="80" fill="white" font-family="sans-serif" font-weight="bold" font-size="12" text-anchor="end" dominant-baseline="middle" transform="rotate(90 80 80)">adept</text>
  <text x="115" y="80" fill="white" font-family="sans-serif" font-weight="bold" font-size="12" text-anchor="end" dominant-baseline="middle" transform="rotate(90 115 80)">adol-c</text>
  <text x="150" y="80" fill="white" font-family="sans-serif" font-weight="bold" font-size="12" text-anchor="end" dominant-baseline="middle" transform="rotate(90 150 80)">cppad</text>
  <text x="185" y="80" fill="white" font-family="sans-serif" font-weight="bold" font-size="12" text-anchor="end" dominant-baseline="middle" transform="rotate(90 185 80)">enzyme</text>
  <text x="220" y="80" fill="white" font-family="sans-serif" font-weight="bold" font-size="12" text-anchor="end" dominant-baseline="middle" transform="rotate(90 220 80)">finite</text>
  <text x="255" y="80" fill="white" font-family="sans-serif" font-weight="bold" font-size="12" text-anchor="end" dominant-baseline="middle" transform="rotate(90 255 80)">floretta</text>
  <text x="290" y="80" fill="white" font-family="sans-serif" font-weight="bold" font-size="12" text-anchor="end" dominant-baseline="middle" transform="rotate(90 290 80)">futhark</text>
  <text x="325" y="80" fill="white" font-family="sans-serif" font-weight="bold" font-size="12" text-anchor="end" dominant-baseline="middle" transform="rotate(90 325 80)">haskell</text>
  <text x="360" y="80" fill="white" font-family="sans-serif" font-weight="bold" font-size="12" text-anchor="end" dominant-baseline="middle" transform="rotate(90 360 80)">jax</text>
  <text x="395" y="80" fill="white" font-family="sans-serif" font-weight="bold" font-size="12" text-anchor="end" dominant-baseline="middle" transform="rotate(90 395 80)">manual</text>
  <text x="430" y="80" fill="white" font-family="sans-serif" font-weight="bold" font-size="12" text-anchor="end" dominant-baseline="middle" transform="rotate(90 430 80)">ocaml</text>
  <text x="465" y="80" fill="white" font-family="sans-serif" font-weight="bold" font-size="12" text-anchor="end" dominant-baseline="middle" transform="rotate(90 465 80)">pytorch</text>
  <text x="500" y="80" fill="white" font-family="sans-serif" font-weight="bold" font-size="12" text-anchor="end" dominant-baseline="middle" transform="rotate(90 500 80)">scilean</text>
  <text x="535" y="80" fill="white" font-family="sans-serif" font-weight="bold" font-size="12" text-anchor="end" dominant-baseline="middle" transform="rotate(90 535 80)">tapenade</text>
  <text x="570" y="80" fill="white" font-family="sans-serif" font-weight="bold" font-size="12" text-anchor="end" dominant-baseline="middle" transform="rotate(90 570 80)">tensorflow</text>
  <text x="605" y="80" fill="white" font-family="sans-serif" font-weight="bold" font-size="12" text-anchor="end" dominant-baseline="middle" transform="rotate(90 605 80)">zygote</text>
  <rect x="65" y="85" width="30" height="30" fill="hsl(240 100% 84.29875312689883%)" />
  <rect x="100" y="85" width="30" height="30" fill="hsl(240 100% 98.00674027137434%)" />
  <rect x="170" y="85" width="30" height="30" fill="hsl(240 100% 50%)" />
  <rect x="205" y="85" width="30" height="30" fill="hsl(240 100% 91.84760828200807%)" />
  <rect x="275" y="85" width="30" height="30" fill="hsl(240 100% 76.01319514657868%)" />
  <rect x="380" y="85" width="30" height="30" fill="hsl(240 100% 52.387445537470114%)" />
  <rect x="450" y="85" width="30" height="30" fill="hsl(240 100% 99.99181391126336%)" />
  <rect x="520" y="85" width="30" height="30" fill="hsl(240 100% 73.42353480755384%)" />
  <rect x="555" y="85" width="30" height="30" fill="hsl(240 100% 99.98425554310286%)" />
  <rect x="65" y="120" width="30" height="30" fill="hsl(240 100% 96.80045511365657%)" />
  <rect x="100" y="120" width="30" height="30" fill="hsl(240 100% 97.30756294901703%)" />
  <rect x="135" y="120" width="30" height="30" fill="hsl(240 100% 98.15250951516187%)" />
  <rect x="170" y="120" width="30" height="30" fill="hsl(240 100% 83.40598091288194%)" />
  <rect x="205" y="120" width="30" height="30" fill="hsl(240 100% 99.99483632731318%)" />
  <rect x="275" y="120" width="30" height="30" fill="hsl(240 100% 81.86682200862916%)" />
  <rect x="345" y="120" width="30" height="30" fill="hsl(240 100% 70.02178290135762%)" />
  <rect x="380" y="120" width="30" height="30" fill="hsl(240 100% 62.214262890760324%)" />
  <rect x="415" y="120" width="30" height="30" fill="hsl(240 100% 99.3388873524648%)" />
  <rect x="450" y="120" width="30" height="30" fill="hsl(240 100% 50%)" />
  <rect x="485" y="120" width="30" height="30" fill="hsl(240 100% 92.9977327298965%)" />
  <rect x="520" y="120" width="30" height="30" fill="hsl(240 100% 66.04636596049677%)" />
  <rect x="555" y="120" width="30" height="30" fill="hsl(240 100% 84.73909708152927%)" />
  <rect x="65" y="155" width="30" height="30" fill="hsl(240 100% 50%)" />
  <rect x="100" y="155" width="30" height="30" fill="hsl(240 100% 50%)" />
  <rect x="135" y="155" width="30" height="30" fill="hsl(240 100% 50%)" />
  <rect x="170" y="155" width="30" height="30" fill="hsl(240 100% 50%)" />
  <rect x="205" y="155" width="30" height="30" fill="hsl(240 100% 50%)" />
  <rect x="240" y="155" width="30" height="30" fill="hsl(240 100% 50%)" />
  <rect x="275" y="155" width="30" height="30" fill="hsl(240 100% 50%)" />
  <rect x="310" y="155" width="30" height="30" fill="hsl(240 100% 50%)" />
  <rect x="345" y="155" width="30" height="30" fill="hsl(240 100% 50%)" />
  <rect x="380" y="155" width="30" height="30" fill="hsl(240 100% 50%)" />
  <rect x="415" y="155" width="30" height="30" fill="hsl(240 100% 50%)" />
  <rect x="450" y="155" width="30" height="30" fill="hsl(240 100% 50%)" />
  <rect x="485" y="155" width="30" height="30" fill="hsl(240 100% 50%)" />
  <rect x="520" y="155" width="30" height="30" fill="hsl(240 100% 50%)" />
  <rect x="555" y="155" width="30" height="30" fill="hsl(240 100% 50%)" />
  <rect x="590" y="155" width="30" height="30" fill="hsl(240 100% 50%)" />
  <rect x="65" y="190" width="30" height="30" fill="hsl(240 100% 97.15168540174355%)" />
  <rect x="100" y="190" width="30" height="30" fill="hsl(240 100% 98.00326476460233%)" />
  <rect x="170" y="190" width="30" height="30" fill="hsl(240 100% 94.97454732208496%)" />
  <rect x="205" y="190" width="30" height="30" fill="hsl(240 100% 99.16963803788276%)" />
  <rect x="275" y="190" width="30" height="30" fill="hsl(240 100% 91.75014487050595%)" />
  <rect x="380" y="190" width="30" height="30" fill="hsl(240 100% 50%)" />
  <rect x="450" y="190" width="30" height="30" fill="hsl(240 100% 99.96810873593911%)" />
  <rect x="520" y="190" width="30" height="30" fill="hsl(240 100% 99.4080701470696%)" />
  <rect x="555" y="190" width="30" height="30" fill="hsl(240 100% 99.48379640552557%)" />
  <rect x="100" y="225" width="30" height="30" fill="hsl(240 100% 99.87737108898605%)" />
  <rect x="170" y="225" width="30" height="30" fill="hsl(240 100% 87.69343397167233%)" />
  <rect x="275" y="225" width="30" height="30" fill="hsl(240 100% 84.76602095295699%)" />
  <rect x="310" y="225" width="30" height="30" fill="hsl(240 100% 99.99139256822384%)" />
  <rect x="345" y="225" width="30" height="30" fill="hsl(240 100% 50%)" />
  <rect x="380" y="225" width="30" height="30" fill="hsl(240 100% 76.17585529349692%)" />
  <rect x="450" y="225" width="30" height="30" fill="hsl(240 100% 85.102476088352%)" />
  <rect x="65" y="260" width="30" height="30" fill="hsl(240 100% 69.61966807134402%)" />
  <rect x="100" y="260" width="30" height="30" fill="hsl(240 100% 81.37016951591194%)" />
  <rect x="135" y="260" width="30" height="30" fill="hsl(240 100% 88.46493841265213%)" />
  <rect x="170" y="260" width="30" height="30" fill="hsl(240 100% 50%)" />
  <rect x="205" y="260" width="30" height="30" fill="hsl(240 100% 99.79630156498311%)" />
  <rect x="275" y="260" width="30" height="30" fill="hsl(240 100% 62.816433038330324%)" />
  <rect x="380" y="260" width="30" height="30" fill="hsl(240 100% 78.3287139699822%)" />
  <rect x="450" y="260" width="30" height="30" fill="hsl(240 100% 99.65074850916689%)" />
  <rect x="520" y="260" width="30" height="30" fill="hsl(240 100% 59.03707865660222%)" />
  <rect x="555" y="260" width="30" height="30" fill="hsl(240 100% 98.06695528126134%)" />
</svg>
