<svg xmlns="http://www.w3.org/2000/svg" viewBox="0 0 660 470">
  <rect x="0" y="0" width="660" height="470" rx="5" ry="5" fill="#222" />
  <text x="60" y="100" fill="white" font-family="sans-serif" font-weight="bold" font-size="12" text-anchor="end" dominant-baseline="middle">ba</text>
  <text x="60" y="135" fill="white" font-family="sans-serif" font-weight="bold" font-size="12" text-anchor="end" dominant-baseline="middle">det</text>
  <text x="60" y="170" fill="white" font-family="sans-serif" font-weight="bold" font-size="12" text-anchor="end" dominant-baseline="middle">gmm</text>
  <text x="60" y="205" fill="white" font-family="sans-serif" font-weight="bold" font-size="12" text-anchor="end" dominant-baseline="middle">hello</text>
  <text x="60" y="240" fill="white" font-family="sans-serif" font-weight="bold" font-size="12" text-anchor="end" dominant-baseline="middle">ht</text>
  <text x="60" y="275" fill="white" font-family="sans-serif" font-weight="bold" font-size="12" text-anchor="end" dominant-baseline="middle">kmeans</text>
  <text x="60" y="310" fill="white" font-family="sans-serif" font-weight="bold" font-size="12" text-anchor="end" dominant-baseline="middle">llsq</text>
  <text x="60" y="345" fill="white" font-family="sans-serif" font-weight="bold" font-size="12" text-anchor="end" dominant-baseline="middle">lstm</text>
  <text x="60" y="380" fill="white" font-family="sans-serif" font-weight="bold" font-size="12" text-anchor="end" dominant-baseline="middle">ode</text>
  <text x="60" y="415" fill="white" font-family="sans-serif" font-weight="bold" font-size="12" text-anchor="end" dominant-baseline="middle">particle</text>
  <text x="60" y="450" fill="white" font-family="sans-serif" font-weight="bold" font-size="12" text-anchor="end" dominant-baseline="middle">saddle</text>
  <text x="80" y="80" fill="white" font-family="sans-serif" font-weight="bold" font-size="12" text-anchor="end" dominant-baseline="middle" transform="rotate(90 80 80)">adept</text>
  <text x="115" y="80" fill="white" font-family="sans-serif" font-weight="bold" font-size="12" text-anchor="end" dominant-baseline="middle" transform="rotate(90 115 80)">adol-c</text>
  <text x="150" y="80" fill="white" font-family="sans-serif" font-weight="bold" font-size="12" text-anchor="end" dominant-baseline="middle" transform="rotate(90 150 80)">codipack</text>
  <text x="185" y="80" fill="white" font-family="sans-serif" font-weight="bold" font-size="12" text-anchor="end" dominant-baseline="middle" transform="rotate(90 185 80)">cppad</text>
  <text x="220" y="80" fill="white" font-family="sans-serif" font-weight="bold" font-size="12" text-anchor="end" dominant-baseline="middle" transform="rotate(90 220 80)">enzyme</text>
  <text x="255" y="80" fill="white" font-family="sans-serif" font-weight="bold" font-size="12" text-anchor="end" dominant-baseline="middle" transform="rotate(90 255 80)">finite</text>
  <text x="290" y="80" fill="white" font-family="sans-serif" font-weight="bold" font-size="12" text-anchor="end" dominant-baseline="middle" transform="rotate(90 290 80)">floretta</text>
  <text x="325" y="80" fill="white" font-family="sans-serif" font-weight="bold" font-size="12" text-anchor="end" dominant-baseline="middle" transform="rotate(90 325 80)">futhark</text>
  <text x="360" y="80" fill="white" font-family="sans-serif" font-weight="bold" font-size="12" text-anchor="end" dominant-baseline="middle" transform="rotate(90 360 80)">haskell</text>
  <text x="395" y="80" fill="white" font-family="sans-serif" font-weight="bold" font-size="12" text-anchor="end" dominant-baseline="middle" transform="rotate(90 395 80)">jax</text>
  <text x="430" y="80" fill="white" font-family="sans-serif" font-weight="bold" font-size="12" text-anchor="end" dominant-baseline="middle" transform="rotate(90 430 80)">manual</text>
  <text x="465" y="80" fill="white" font-family="sans-serif" font-weight="bold" font-size="12" text-anchor="end" dominant-baseline="middle" transform="rotate(90 465 80)">ocaml</text>
  <text x="500" y="80" fill="white" font-family="sans-serif" font-weight="bold" font-size="12" text-anchor="end" dominant-baseline="middle" transform="rotate(90 500 80)">pytorch</text>
  <text x="535" y="80" fill="white" font-family="sans-serif" font-weight="bold" font-size="12" text-anchor="end" dominant-baseline="middle" transform="rotate(90 535 80)">scilean</text>
  <text x="570" y="80" fill="white" font-family="sans-serif" font-weight="bold" font-size="12" text-anchor="end" dominant-baseline="middle" transform="rotate(90 570 80)">tapenade</text>
  <text x="605" y="80" fill="white" font-family="sans-serif" font-weight="bold" font-size="12" text-anchor="end" dominant-baseline="middle" transform="rotate(90 605 80)">tensorflow</text>
  <text x="640" y="80" fill="white" font-family="sans-serif" font-weight="bold" font-size="12" text-anchor="end" dominant-baseline="middle" transform="rotate(90 640 80)">zygote</text>
  <rect x="65" y="85" width="30" height="30" fill="hsl(240 100% 82.82467428642786%)" />
  <rect x="100" y="85" width="30" height="30" fill="hsl(240 100% 97.7562885595458%)" />
  <rect x="135" y="85" width="30" height="30" fill="hsl(240 100% 88.5879327711472%)" />
  <rect x="205" y="85" width="30" height="30" fill="hsl(240 100% 50%)" />
  <rect x="240" y="85" width="30" height="30" fill="hsl(240 100% 92.42169257469475%)" />
  <rect x="310" y="85" width="30" height="30" fill="hsl(240 100% 67.58029082998732%)" />
  <rect x="415" y="85" width="30" height="30" fill="hsl(240 100% 51.05085787294404%)" />
  <rect x="485" y="85" width="30" height="30" fill="rgb(255 255 255 / 50%)" />
  <rect x="555" y="85" width="30" height="30" fill="hsl(240 100% 71.79304044968121%)" />
  <rect x="590" y="85" width="30" height="30" fill="rgb(255 255 255 / 50%)" />
  <rect x="65" y="120" width="30" height="30" fill="hsl(240 100% 89.22546842822507%)" />
  <rect x="100" y="120" width="30" height="30" fill="hsl(240 100% 90.21068250011847%)" />
  <rect x="135" y="120" width="30" height="30" fill="hsl(240 100% 68.79998220624232%)" />
  <rect x="170" y="120" width="30" height="30" fill="hsl(240 100% 50%)" />
  <rect x="205" y="120" width="30" height="30" fill="hsl(240 100% 94.5992709730555%)" />
  <rect x="240" y="120" width="30" height="30" fill="hsl(240 100% 99.32702407362288%)" />
  <rect x="310" y="120" width="30" height="30" fill="hsl(240 100% 96.51248952591664%)" />
  <rect x="345" y="120" width="30" height="30" fill="hsl(240 100% 98.70513774906433%)" />
  <rect x="415" y="120" width="30" height="30" fill="hsl(240 100% 86.51358909939378%)" />
  <rect x="65" y="155" width="30" height="30" fill="hsl(240 100% 97.96001535528404%)" />
  <rect x="100" y="155" width="30" height="30" fill="hsl(240 100% 98.63008568125537%)" />
  <rect x="135" y="155" width="30" height="30" fill="hsl(240 100% 96.6903423312196%)" />
  <rect x="170" y="155" width="30" height="30" fill="rgb(255 255 255 / 50%)" />
  <rect x="205" y="155" width="30" height="30" fill="hsl(240 100% 84.3576540323061%)" />
  <rect x="240" y="155" width="30" height="30" fill="rgb(255 255 255 / 50%)" />
  <rect x="310" y="155" width="30" height="30" fill="hsl(240 100% 87.9951923446931%)" />
  <rect x="380" y="155" width="30" height="30" fill="hsl(240 100% 64.78126885072808%)" />
  <rect x="415" y="155" width="30" height="30" fill="hsl(240 100% 70.70583304266543%)" />
  <rect x="450" y="155" width="30" height="30" fill="hsl(240 100% 99.24747798423604%)" />
  <rect x="485" y="155" width="30" height="30" fill="hsl(240 100% 50%)" />
  <rect x="520" y="155" width="30" height="30" fill="hsl(240 100% 91.31330213432204%)" />
  <rect x="555" y="155" width="30" height="30" fill="hsl(240 100% 71.50900413007098%)" />
  <rect x="590" y="155" width="30" height="30" fill="hsl(240 100% 87.30896937894411%)" />
  <rect x="65" y="190" width="30" height="30" fill="hsl(240 100% 50%)" />
  <rect x="100" y="190" width="30" height="30" fill="hsl(240 100% 50%)" />
  <rect x="135" y="190" width="30" height="30" fill="hsl(240 100% 50%)" />
  <rect x="170" y="190" width="30" height="30" fill="hsl(240 100% 50%)" />
  <rect x="205" y="190" width="30" height="30" fill="hsl(240 100% 50%)" />
  <rect x="240" y="190" width="30" height="30" fill="hsl(240 100% 50%)" />
  <rect x="275" y="190" width="30" height="30" fill="hsl(240 100% 50%)" />
  <rect x="310" y="190" width="30" height="30" fill="hsl(240 100% 50%)" />
  <rect x="345" y="190" width="30" height="30" fill="hsl(240 100% 50%)" />
  <rect x="380" y="190" width="30" height="30" fill="hsl(240 100% 50%)" />
  <rect x="415" y="190" width="30" height="30" fill="hsl(240 100% 50%)" />
  <rect x="450" y="190" width="30" height="30" fill="hsl(240 100% 50%)" />
  <rect x="485" y="190" width="30" height="30" fill="hsl(240 100% 50%)" />
  <rect x="520" y="190" width="30" height="30" fill="hsl(240 100% 50%)" />
  <rect x="555" y="190" width="30" height="30" fill="hsl(240 100% 50%)" />
  <rect x="590" y="190" width="30" height="30" fill="hsl(240 100% 50%)" />
  <rect x="625" y="190" width="30" height="30" fill="hsl(240 100% 50%)" />
  <rect x="65" y="225" width="30" height="30" fill="hsl(240 100% 96.08641664411604%)" />
  <rect x="100" y="225" width="30" height="30" fill="hsl(240 100% 90.31638946048578%)" />
  <rect x="135" y="225" width="30" height="30" fill="hsl(240 100% 88.37790780051971%)" />
  <rect x="205" y="225" width="30" height="30" fill="hsl(240 100% 90.26794425185922%)" />
  <rect x="240" y="225" width="30" height="30" fill="rgb(255 255 255 / 50%)" />
  <rect x="310" y="225" width="30" height="30" fill="hsl(240 100% 89.6561330258412%)" />
  <rect x="415" y="225" width="30" height="30" fill="hsl(240 100% 50%)" />
  <rect x="485" y="225" width="30" height="30" fill="rgb(255 255 255 / 50%)" />
  <rect x="555" y="225" width="30" height="30" fill="rgb(255 255 255 / 50%)" />
  <rect x="590" y="225" width="30" height="30" fill="rgb(255 255 255 / 50%)" />
  <rect x="100" y="260" width="30" height="30" fill="hsl(240 100% 99.88282469942902%)" />
  <rect x="135" y="260" width="30" height="30" fill="hsl(240 100% 99.41919046471662%)" />
  <rect x="170" y="260" width="30" height="30" fill="rgb(255 255 255 / 50%)" />
  <rect x="205" y="260" width="30" height="30" fill="hsl(240 100% 87.5062480312408%)" />
  <rect x="240" y="260" width="30" height="30" fill="rgb(255 255 255 / 50%)" />
  <rect x="310" y="260" width="30" height="30" fill="hsl(240 100% 83.03852780440099%)" />
  <rect x="345" y="260" width="30" height="30" fill="rgb(255 255 255 / 50%)" />
  <rect x="380" y="260" width="30" height="30" fill="hsl(240 100% 50%)" />
  <rect x="415" y="260" width="30" height="30" fill="hsl(240 100% 76.46288558368691%)" />
  <rect x="485" y="260" width="30" height="30" fill="hsl(240 100% 97.07474247336526%)" />
  <rect x="520" y="260" width="30" height="30" fill="hsl(240 100% 94.09192954490184%)" />
  <rect x="65" y="295" width="30" height="30" fill="hsl(240 100% 66.72772058158009%)" />
  <rect x="100" y="295" width="30" height="30" fill="hsl(240 100% 58.92394190968984%)" />
  <rect x="135" y="295" width="30" height="30" fill="hsl(240 100% 59.98942158707297%)" />
  <rect x="170" y="295" width="30" height="30" fill="hsl(240 100% 56.95468439084186%)" />
  <rect x="205" y="295" width="30" height="30" fill="hsl(240 100% 50%)" />
  <rect x="240" y="295" width="30" height="30" fill="hsl(240 100% 99.42788987921303%)" />
  <rect x="310" y="295" width="30" height="30" fill="hsl(240 100% 50.638244648336666%)" />
  <rect x="345" y="295" width="30" height="30" fill="hsl(240 100% 89.90559113725361%)" />
  <rect x="415" y="295" width="30" height="30" fill="hsl(240 100% 53.53576995770433%)" />
  <rect x="520" y="295" width="30" height="30" fill="hsl(240 100% 55.33119473343632%)" />
  <rect x="65" y="330" width="30" height="30" fill="hsl(240 100% 68.79993928499248%)" />
  <rect x="100" y="330" width="30" height="30" fill="hsl(240 100% 80.36327852011847%)" />
  <rect x="135" y="330" width="30" height="30" fill="hsl(240 100% 50%)" />
  <rect x="170" y="330" width="30" height="30" fill="hsl(240 100% 88.27174517116258%)" />
  <rect x="205" y="330" width="30" height="30" fill="hsl(240 100% 51.02748145555015%)" />
  <rect x="240" y="330" width="30" height="30" fill="hsl(240 100% 99.85094499572755%)" />
  <rect x="310" y="330" width="30" height="30" fill="hsl(240 100% 62.97426452662282%)" />
  <rect x="415" y="330" width="30" height="30" fill="hsl(240 100% 84.31893405491495%)" />
  <rect x="485" y="330" width="30" height="30" fill="hsl(240 100% 99.59745021777623%)" />
  <rect x="555" y="330" width="30" height="30" fill="hsl(240 100% 59.15795799716477%)" />
  <rect x="590" y="330" width="30" height="30" fill="hsl(240 100% 98.03340014188412%)" />
  <rect x="65" y="365" width="30" height="30" fill="hsl(240 100% 99.24128948869985%)" />
  <rect x="100" y="365" width="30" height="30" fill="hsl(240 100% 99.56974034238664%)" />
  <rect x="135" y="365" width="30" height="30" fill="hsl(240 100% 93.73994719186531%)" />
  <rect x="170" y="365" width="30" height="30" fill="hsl(240 100% 54.631301223762904%)" />
  <rect x="205" y="365" width="30" height="30" fill="hsl(240 100% 85.64422806712764%)" />
  <rect x="240" y="365" width="30" height="30" fill="rgb(255 255 255 / 50%)" />
  <rect x="310" y="365" width="30" height="30" fill="hsl(240 100% 95.43367369860367%)" />
  <rect x="345" y="365" width="30" height="30" fill="hsl(240 100% 99.96518167831736%)" />
  <rect x="415" y="365" width="30" height="30" fill="hsl(240 100% 50%)" />
  <rect x="205" y="400" width="30" height="30" fill="hsl(240 100% 50%)" />
  <rect x="240" y="400" width="30" height="30" fill="hsl(240 100% 95.20626563086485%)" />
  <rect x="310" y="400" width="30" height="30" fill="hsl(240 100% 87.90732167333242%)" />
  <rect x="345" y="400" width="30" height="30" fill="hsl(240 100% 99.78247620491517%)" />
  <rect x="205" y="435" width="30" height="30" fill="hsl(240 100% 50%)" />
  <rect x="240" y="435" width="30" height="30" fill="hsl(240 100% 95.83101989777379%)" />
  <rect x="310" y="435" width="30" height="30" fill="hsl(240 100% 89.05270068396337%)" />
  <rect x="345" y="435" width="30" height="30" fill="hsl(240 100% 99.55970718224015%)" />
</svg>
