<svg xmlns="http://www.w3.org/2000/svg" viewBox="0 0 695 505">
  <rect x="0" y="0" width="695" height="505" rx="5" ry="5" fill="#222" />
  <text x="60" y="100" fill="white" font-family="sans-serif" font-weight="bold" font-size="12" text-anchor="end" dominant-baseline="middle">ba</text>
  <text x="60" y="135" fill="white" font-family="sans-serif" font-weight="bold" font-size="12" text-anchor="end" dominant-baseline="middle">det</text>
  <text x="60" y="170" fill="white" font-family="sans-serif" font-weight="bold" font-size="12" text-anchor="end" dominant-baseline="middle">gmm</text>
  <text x="60" y="205" fill="white" font-family="sans-serif" font-weight="bold" font-size="12" text-anchor="end" dominant-baseline="middle">hello</text>
  <text x="60" y="240" fill="white" font-family="sans-serif" font-weight="bold" font-size="12" text-anchor="end" dominant-baseline="middle">ht</text>
  <text x="60" y="275" fill="white" font-family="sans-serif" font-weight="bold" font-size="12" text-anchor="end" dominant-baseline="middle">kmeans</text>
  <text x="60" y="310" fill="white" font-family="sans-serif" font-weight="bold" font-size="12" text-anchor="end" dominant-baseline="middle">llsq</text>
  <text x="60" y="345" fill="white" font-family="sans-serif" font-weight="bold" font-size="12" text-anchor="end" dominant-baseline="middle">lse</text>
  <text x="60" y="380" fill="white" font-family="sans-serif" font-weight="bold" font-size="12" text-anchor="end" dominant-baseline="middle">lstm</text>
  <text x="60" y="415" fill="white" font-family="sans-serif" font-weight="bold" font-size="12" text-anchor="end" dominant-baseline="middle">ode</text>
  <text x="60" y="450" fill="white" font-family="sans-serif" font-weight="bold" font-size="12" text-anchor="end" dominant-baseline="middle">particle</text>
  <text x="60" y="485" fill="white" font-family="sans-serif" font-weight="bold" font-size="12" text-anchor="end" dominant-baseline="middle">saddle</text>
  <text x="80" y="80" fill="white" font-family="sans-serif" font-weight="bold" font-size="12" text-anchor="end" dominant-baseline="middle" transform="rotate(90 80 80)">adept</text>
  <text x="115" y="80" fill="white" font-family="sans-serif" font-weight="bold" font-size="12" text-anchor="end" dominant-baseline="middle" transform="rotate(90 115 80)">adol-c</text>
  <text x="150" y="80" fill="white" font-family="sans-serif" font-weight="bold" font-size="12" text-anchor="end" dominant-baseline="middle" transform="rotate(90 150 80)">codipack</text>
  <text x="185" y="80" fill="white" font-family="sans-serif" font-weight="bold" font-size="12" text-anchor="end" dominant-baseline="middle" transform="rotate(90 185 80)">cppad</text>
  <text x="220" y="80" fill="white" font-family="sans-serif" font-weight="bold" font-size="12" text-anchor="end" dominant-baseline="middle" transform="rotate(90 220 80)">enzyme</text>
  <text x="255" y="80" fill="white" font-family="sans-serif" font-weight="bold" font-size="12" text-anchor="end" dominant-baseline="middle" transform="rotate(90 255 80)">enzyme-jl</text>
  <text x="290" y="80" fill="white" font-family="sans-serif" font-weight="bold" font-size="12" text-anchor="end" dominant-baseline="middle" transform="rotate(90 290 80)">finite</text>
  <text x="325" y="80" fill="white" font-family="sans-serif" font-weight="bold" font-size="12" text-anchor="end" dominant-baseline="middle" transform="rotate(90 325 80)">floretta</text>
  <text x="360" y="80" fill="white" font-family="sans-serif" font-weight="bold" font-size="12" text-anchor="end" dominant-baseline="middle" transform="rotate(90 360 80)">futhark</text>
  <text x="395" y="80" fill="white" font-family="sans-serif" font-weight="bold" font-size="12" text-anchor="end" dominant-baseline="middle" transform="rotate(90 395 80)">haskell</text>
  <text x="430" y="80" fill="white" font-family="sans-serif" font-weight="bold" font-size="12" text-anchor="end" dominant-baseline="middle" transform="rotate(90 430 80)">jax</text>
  <text x="465" y="80" fill="white" font-family="sans-serif" font-weight="bold" font-size="12" text-anchor="end" dominant-baseline="middle" transform="rotate(90 465 80)">manual</text>
  <text x="500" y="80" fill="white" font-family="sans-serif" font-weight="bold" font-size="12" text-anchor="end" dominant-baseline="middle" transform="rotate(90 500 80)">ocaml</text>
  <text x="535" y="80" fill="white" font-family="sans-serif" font-weight="bold" font-size="12" text-anchor="end" dominant-baseline="middle" transform="rotate(90 535 80)">pytorch</text>
  <text x="570" y="80" fill="white" font-family="sans-serif" font-weight="bold" font-size="12" text-anchor="end" dominant-baseline="middle" transform="rotate(90 570 80)">scilean</text>
  <text x="605" y="80" fill="white" font-family="sans-serif" font-weight="bold" font-size="12" text-anchor="end" dominant-baseline="middle" transform="rotate(90 605 80)">tapenade</text>
  <text x="640" y="80" fill="white" font-family="sans-serif" font-weight="bold" font-size="12" text-anchor="end" dominant-baseline="middle" transform="rotate(90 640 80)">tensorflow</text>
  <text x="675" y="80" fill="white" font-family="sans-serif" font-weight="bold" font-size="12" text-anchor="end" dominant-baseline="middle" transform="rotate(90 675 80)">zygote</text>
  <rect x="65" y="85" width="30" height="30" fill="hsl(240 100% 83.5788731246754%)" />
  <rect x="100" y="85" width="30" height="30" fill="hsl(240 100% 97.84108706480362%)" />
  <rect x="135" y="85" width="30" height="30" fill="hsl(240 100% 88.98385376142565%)" />
  <rect x="170" y="85" width="30" height="30" fill="hsl(240 100% 98.8992169033556%)" />
  <rect x="205" y="85" width="30" height="30" fill="hsl(240 100% 50.769666360625344%)" />
  <rect x="275" y="85" width="30" height="30" fill="hsl(240 100% 92.59706637485519%)" />
  <rect x="345" y="85" width="30" height="30" fill="hsl(240 100% 68.45708132709036%)" />
  <rect x="450" y="85" width="30" height="30" fill="hsl(240 100% 50%)" />
  <rect x="520" y="85" width="30" height="30" fill="rgb(255 255 255 / 50%)" />
  <rect x="590" y="85" width="30" height="30" fill="hsl(240 100% 72.55435640081421%)" />
  <rect x="625" y="85" width="30" height="30" fill="rgb(255 255 255 / 50%)" />
  <rect x="65" y="120" width="30" height="30" fill="hsl(240 100% 83.16847784796607%)" />
  <rect x="100" y="120" width="30" height="30" fill="hsl(240 100% 84.96465064956499%)" />
  <rect x="135" y="120" width="30" height="30" fill="hsl(240 100% 50%)" />
  <rect x="170" y="120" width="30" height="30" fill="hsl(240 100% 92.29000170965769%)" />
  <rect x="205" y="120" width="30" height="30" fill="hsl(240 100% 91.12024880494675%)" />
  <rect x="275" y="120" width="30" height="30" fill="hsl(240 100% 98.92126190990209%)" />
  <rect x="345" y="120" width="30" height="30" fill="hsl(240 100% 94.41490594850211%)" />
  <rect x="380" y="120" width="30" height="30" fill="hsl(240 100% 97.83541767222914%)" />
  <rect x="450" y="120" width="30" height="30" fill="hsl(240 100% 78.41670102531538%)" />
  <rect x="65" y="155" width="30" height="30" fill="hsl(240 100% 98.39082319377071%)" />
  <rect x="100" y="155" width="30" height="30" fill="hsl(240 100% 98.82678933096366%)" />
  <rect x="135" y="155" width="30" height="30" fill="hsl(240 100% 97.41350123970913%)" />
  <rect x="170" y="155" width="30" height="30" fill="hsl(240 100% 99.7849510618308%)" />
  <rect x="205" y="155" width="30" height="30" fill="hsl(240 100% 87.62220467724349%)" />
  <rect x="275" y="155" width="30" height="30" fill="rgb(255 255 255 / 50%)" />
  <rect x="345" y="155" width="30" height="30" fill="hsl(240 100% 90.60603111554407%)" />
  <rect x="415" y="155" width="30" height="30" fill="hsl(240 100% 72.74389767636245%)" />
  <rect x="450" y="155" width="30" height="30" fill="hsl(240 100% 77.09289258117562%)" />
  <rect x="485" y="155" width="30" height="30" fill="hsl(240 100% 99.39551378813314%)" />
  <rect x="520" y="155" width="30" height="30" fill="hsl(240 100% 50%)" />
  <rect x="555" y="155" width="30" height="30" fill="hsl(240 100% 93.05098357493037%)" />
  <rect x="590" y="155" width="30" height="30" fill="hsl(240 100% 77.41957149146398%)" />
  <rect x="625" y="155" width="30" height="30" fill="hsl(240 100% 88.91899183592815%)" />
  <rect x="65" y="190" width="30" height="30" fill="hsl(240 100% 50%)" />
  <rect x="100" y="190" width="30" height="30" fill="hsl(240 100% 50%)" />
  <rect x="135" y="190" width="30" height="30" fill="hsl(240 100% 50%)" />
  <rect x="170" y="190" width="30" height="30" fill="hsl(240 100% 50%)" />
  <rect x="205" y="190" width="30" height="30" fill="hsl(240 100% 50%)" />
  <rect x="240" y="190" width="30" height="30" fill="hsl(240 100% 50%)" />
  <rect x="275" y="190" width="30" height="30" fill="hsl(240 100% 50%)" />
  <rect x="310" y="190" width="30" height="30" fill="hsl(240 100% 50%)" />
  <rect x="345" y="190" width="30" height="30" fill="hsl(240 100% 50%)" />
  <rect x="380" y="190" width="30" height="30" fill="hsl(240 100% 50%)" />
  <rect x="415" y="190" width="30" height="30" fill="hsl(240 100% 50%)" />
  <rect x="450" y="190" width="30" height="30" fill="hsl(240 100% 50%)" />
  <rect x="485" y="190" width="30" height="30" fill="hsl(240 100% 50%)" />
  <rect x="520" y="190" width="30" height="30" fill="hsl(240 100% 50%)" />
  <rect x="555" y="190" width="30" height="30" fill="hsl(240 100% 50%)" />
  <rect x="590" y="190" width="30" height="30" fill="hsl(240 100% 50%)" />
  <rect x="625" y="190" width="30" height="30" fill="hsl(240 100% 50%)" />
  <rect x="660" y="190" width="30" height="30" fill="hsl(240 100% 50%)" />
  <rect x="65" y="225" width="30" height="30" fill="hsl(240 100% 95.98623958432414%)" />
  <rect x="100" y="225" width="30" height="30" fill="hsl(240 100% 89.96723405380455%)" />
  <rect x="135" y="225" width="30" height="30" fill="hsl(240 100% 88.14132595192139%)" />
  <rect x="205" y="225" width="30" height="30" fill="hsl(240 100% 90.21935882598562%)" />
  <rect x="275" y="225" width="30" height="30" fill="rgb(255 255 255 / 50%)" />
  <rect x="345" y="225" width="30" height="30" fill="hsl(240 100% 89.4397814168161%)" />
  <rect x="450" y="225" width="30" height="30" fill="hsl(240 100% 50%)" />
  <rect x="520" y="225" width="30" height="30" fill="rgb(255 255 255 / 50%)" />
  <rect x="590" y="225" width="30" height="30" fill="rgb(255 255 255 / 50%)" />
  <rect x="625" y="225" width="30" height="30" fill="rgb(255 255 255 / 50%)" />
  <rect x="100" y="260" width="30" height="30" fill="hsl(240 100% 99.87145648020847%)" />
  <rect x="135" y="260" width="30" height="30" fill="hsl(240 100% 99.40798944737516%)" />
  <rect x="170" y="260" width="30" height="30" fill="rgb(255 255 255 / 50%)" />
  <rect x="205" y="260" width="30" height="30" fill="hsl(240 100% 87.35910781367171%)" />
  <rect x="275" y="260" width="30" height="30" fill="rgb(255 255 255 / 50%)" />
  <rect x="345" y="260" width="30" height="30" fill="hsl(240 100% 82.950138880395%)" />
  <rect x="380" y="260" width="30" height="30" fill="rgb(255 255 255 / 50%)" />
  <rect x="415" y="260" width="30" height="30" fill="hsl(240 100% 50%)" />
  <rect x="450" y="260" width="30" height="30" fill="hsl(240 100% 76.28218815860895%)" />
  <rect x="520" y="260" width="30" height="30" fill="hsl(240 100% 96.92352501116365%)" />
  <rect x="555" y="260" width="30" height="30" fill="hsl(240 100% 94.06444287155556%)" />
  <rect x="65" y="295" width="30" height="30" fill="hsl(240 100% 66.83214939171283%)" />
  <rect x="100" y="295" width="30" height="30" fill="hsl(240 100% 59.13269027292542%)" />
  <rect x="135" y="295" width="30" height="30" fill="hsl(240 100% 59.94410282013104%)" />
  <rect x="170" y="295" width="30" height="30" fill="hsl(240 100% 91.81578341429655%)" />
  <rect x="205" y="295" width="30" height="30" fill="hsl(240 100% 50%)" />
  <rect x="275" y="295" width="30" height="30" fill="hsl(240 100% 99.42725459808706%)" />
  <rect x="345" y="295" width="30" height="30" fill="hsl(240 100% 50.61714170941372%)" />
  <rect x="380" y="295" width="30" height="30" fill="hsl(240 100% 89.76716841247148%)" />
  <rect x="450" y="295" width="30" height="30" fill="hsl(240 100% 53.52360990395951%)" />
  <rect x="555" y="295" width="30" height="30" fill="hsl(240 100% 55.327900308970825%)" />
  <rect x="65" y="330" width="30" height="30" fill="hsl(240 100% 94.42890987995642%)" />
  <rect x="100" y="330" width="30" height="30" fill="hsl(240 100% 97.15068391652474%)" />
  <rect x="135" y="330" width="30" height="30" fill="hsl(240 100% 88.87923940959384%)" />
  <rect x="170" y="330" width="30" height="30" fill="hsl(240 100% 99.17012598300879%)" />
  <rect x="205" y="330" width="30" height="30" fill="hsl(240 100% 80.29310259710932%)" />
  <rect x="240" y="330" width="30" height="30" fill="hsl(240 100% 99.82114743235103%)" />
  <rect x="275" y="330" width="30" height="30" fill="rgb(255 255 255 / 50%)" />
  <rect x="345" y="330" width="30" height="30" fill="hsl(240 100% 85.20891630227369%)" />
  <rect x="380" y="330" width="30" height="30" fill="hsl(240 100% 99.80765993700886%)" />
  <rect x="415" y="330" width="30" height="30" fill="hsl(240 100% 69.32595087989294%)" />
  <rect x="450" y="330" width="30" height="30" fill="hsl(240 100% 77.54656876964447%)" />
  <rect x="485" y="330" width="30" height="30" fill="hsl(240 100% 93.2847368778337%)" />
  <rect x="520" y="330" width="30" height="30" fill="hsl(240 100% 50%)" />
  <rect x="625" y="330" width="30" height="30" fill="hsl(240 100% 88.47623673284748%)" />
  <rect x="660" y="330" width="30" height="30" fill="hsl(240 100% 98.40397020416849%)" />
  <rect x="65" y="365" width="30" height="30" fill="hsl(240 100% 68.62130860342684%)" />
  <rect x="100" y="365" width="30" height="30" fill="hsl(240 100% 80.1114353956184%)" />
  <rect x="135" y="365" width="30" height="30" fill="hsl(240 100% 50.02256867371545%)" />
  <rect x="170" y="365" width="30" height="30" fill="hsl(240 100% 95.72760365727808%)" />
  <rect x="205" y="365" width="30" height="30" fill="hsl(240 100% 50%)" />
  <rect x="275" y="365" width="30" height="30" fill="hsl(240 100% 99.84832321024221%)" />
  <rect x="345" y="365" width="30" height="30" fill="hsl(240 100% 62.88749065351067%)" />
  <rect x="450" y="365" width="30" height="30" fill="hsl(240 100% 84.37764468642506%)" />
  <rect x="520" y="365" width="30" height="30" fill="hsl(240 100% 99.60816600246169%)" />
  <rect x="590" y="365" width="30" height="30" fill="hsl(240 100% 59.681931853463254%)" />
  <rect x="625" y="365" width="30" height="30" fill="hsl(240 100% 97.94117693572424%)" />
  <rect x="65" y="400" width="30" height="30" fill="hsl(240 100% 99.31670493912254%)" />
  <rect x="100" y="400" width="30" height="30" fill="hsl(240 100% 99.62590991358712%)" />
  <rect x="135" y="400" width="30" height="30" fill="hsl(240 100% 94.59102071959919%)" />
  <rect x="170" y="400" width="30" height="30" fill="hsl(240 100% 99.12309579256123%)" />
  <rect x="205" y="400" width="30" height="30" fill="hsl(240 100% 88.31393235247094%)" />
  <rect x="240" y="400" width="30" height="30" fill="hsl(240 100% 99.18879116226438%)" />
  <rect x="275" y="400" width="30" height="30" fill="rgb(255 255 255 / 50%)" />
  <rect x="345" y="400" width="30" height="30" fill="hsl(240 100% 96.0184018682303%)" />
  <rect x="380" y="400" width="30" height="30" fill="hsl(240 100% 99.96836382266493%)" />
  <rect x="450" y="400" width="30" height="30" fill="hsl(240 100% 50%)" />
  <rect x="205" y="435" width="30" height="30" fill="hsl(240 100% 50%)" />
  <rect x="275" y="435" width="30" height="30" fill="hsl(240 100% 95.1807226229024%)" />
  <rect x="345" y="435" width="30" height="30" fill="hsl(240 100% 87.8860091010841%)" />
  <rect x="380" y="435" width="30" height="30" fill="hsl(240 100% 99.77263206162158%)" />
  <rect x="205" y="470" width="30" height="30" fill="hsl(240 100% 50%)" />
  <rect x="275" y="470" width="30" height="30" fill="hsl(240 100% 95.82786778580923%)" />
  <rect x="345" y="470" width="30" height="30" fill="hsl(240 100% 89.13998678579833%)" />
  <rect x="380" y="470" width="30" height="30" fill="hsl(240 100% 99.56974208173176%)" />
</svg>
