<svg xmlns="http://www.w3.org/2000/svg" viewBox="0 0 695 505">
  <rect x="0" y="0" width="695" height="505" rx="5" ry="5" fill="#222" />
  <text x="60" y="100" fill="white" font-family="sans-serif" font-weight="bold" font-size="12" text-anchor="end" dominant-baseline="middle">ba</text>
  <text x="60" y="135" fill="white" font-family="sans-serif" font-weight="bold" font-size="12" text-anchor="end" dominant-baseline="middle">det</text>
  <text x="60" y="170" fill="white" font-family="sans-serif" font-weight="bold" font-size="12" text-anchor="end" dominant-baseline="middle">gmm</text>
  <text x="60" y="205" fill="white" font-family="sans-serif" font-weight="bold" font-size="12" text-anchor="end" dominant-baseline="middle">hello</text>
  <text x="60" y="240" fill="white" font-family="sans-serif" font-weight="bold" font-size="12" text-anchor="end" dominant-baseline="middle">ht</text>
  <text x="60" y="275" fill="white" font-family="sans-serif" font-weight="bold" font-size="12" text-anchor="end" dominant-baseline="middle">kmeans</text>
  <text x="60" y="310" fill="white" font-family="sans-serif" font-weight="bold" font-size="12" text-anchor="end" dominant-baseline="middle">llsq</text>
  <text x="60" y="345" fill="white" font-family="sans-serif" font-weight="bold" font-size="12" text-anchor="end" dominant-baseline="middle">lse</text>
  <text x="60" y="380" fill="white" font-family="sans-serif" font-weight="bold" font-size="12" text-anchor="end" dominant-baseline="middle">lstm</text>
  <text x="60" y="415" fill="white" font-family="sans-serif" font-weight="bold" font-size="12" text-anchor="end" dominant-baseline="middle">ode</text>
  <text x="60" y="450" fill="white" font-family="sans-serif" font-weight="bold" font-size="12" text-anchor="end" dominant-baseline="middle">particle</text>
  <text x="60" y="485" fill="white" font-family="sans-serif" font-weight="bold" font-size="12" text-anchor="end" dominant-baseline="middle">saddle</text>
  <text x="80" y="80" fill="white" font-family="sans-serif" font-weight="bold" font-size="12" text-anchor="end" dominant-baseline="middle" transform="rotate(90 80 80)">adept</text>
  <text x="115" y="80" fill="white" font-family="sans-serif" font-weight="bold" font-size="12" text-anchor="end" dominant-baseline="middle" transform="rotate(90 115 80)">adol-c</text>
  <text x="150" y="80" fill="white" font-family="sans-serif" font-weight="bold" font-size="12" text-anchor="end" dominant-baseline="middle" transform="rotate(90 150 80)">codipack</text>
  <text x="185" y="80" fill="white" font-family="sans-serif" font-weight="bold" font-size="12" text-anchor="end" dominant-baseline="middle" transform="rotate(90 185 80)">cppad</text>
  <text x="220" y="80" fill="white" font-family="sans-serif" font-weight="bold" font-size="12" text-anchor="end" dominant-baseline="middle" transform="rotate(90 220 80)">enzyme</text>
  <text x="255" y="80" fill="white" font-family="sans-serif" font-weight="bold" font-size="12" text-anchor="end" dominant-baseline="middle" transform="rotate(90 255 80)">enzyme-jl</text>
  <text x="290" y="80" fill="white" font-family="sans-serif" font-weight="bold" font-size="12" text-anchor="end" dominant-baseline="middle" transform="rotate(90 290 80)">finite</text>
  <text x="325" y="80" fill="white" font-family="sans-serif" font-weight="bold" font-size="12" text-anchor="end" dominant-baseline="middle" transform="rotate(90 325 80)">floretta</text>
  <text x="360" y="80" fill="white" font-family="sans-serif" font-weight="bold" font-size="12" text-anchor="end" dominant-baseline="middle" transform="rotate(90 360 80)">futhark</text>
  <text x="395" y="80" fill="white" font-family="sans-serif" font-weight="bold" font-size="12" text-anchor="end" dominant-baseline="middle" transform="rotate(90 395 80)">haskell</text>
  <text x="430" y="80" fill="white" font-family="sans-serif" font-weight="bold" font-size="12" text-anchor="end" dominant-baseline="middle" transform="rotate(90 430 80)">jax</text>
  <text x="465" y="80" fill="white" font-family="sans-serif" font-weight="bold" font-size="12" text-anchor="end" dominant-baseline="middle" transform="rotate(90 465 80)">manual</text>
  <text x="500" y="80" fill="white" font-family="sans-serif" font-weight="bold" font-size="12" text-anchor="end" dominant-baseline="middle" transform="rotate(90 500 80)">ocaml</text>
  <text x="535" y="80" fill="white" font-family="sans-serif" font-weight="bold" font-size="12" text-anchor="end" dominant-baseline="middle" transform="rotate(90 535 80)">pytorch</text>
  <text x="570" y="80" fill="white" font-family="sans-serif" font-weight="bold" font-size="12" text-anchor="end" dominant-baseline="middle" transform="rotate(90 570 80)">scilean</text>
  <text x="605" y="80" fill="white" font-family="sans-serif" font-weight="bold" font-size="12" text-anchor="end" dominant-baseline="middle" transform="rotate(90 605 80)">tapenade</text>
  <text x="640" y="80" fill="white" font-family="sans-serif" font-weight="bold" font-size="12" text-anchor="end" dominant-baseline="middle" transform="rotate(90 640 80)">tensorflow</text>
  <text x="675" y="80" fill="white" font-family="sans-serif" font-weight="bold" font-size="12" text-anchor="end" dominant-baseline="middle" transform="rotate(90 675 80)">zygote</text>
  <rect x="65" y="85" width="30" height="30" fill="hsl(240 100% 83.69589986920847%)" />
  <rect x="100" y="85" width="30" height="30" fill="hsl(240 100% 97.82260585918057%)" />
  <rect x="135" y="85" width="30" height="30" fill="hsl(240 100% 89.05971036686913%)" />
  <rect x="205" y="85" width="30" height="30" fill="hsl(240 100% 51.00521789318788%)" />
  <rect x="275" y="85" width="30" height="30" fill="hsl(240 100% 92.95546663880594%)" />
  <rect x="345" y="85" width="30" height="30" fill="hsl(240 100% 68.63880869046845%)" />
  <rect x="450" y="85" width="30" height="30" fill="hsl(240 100% 50%)" />
  <rect x="520" y="85" width="30" height="30" fill="rgb(255 255 255 / 50%)" />
  <rect x="590" y="85" width="30" height="30" fill="hsl(240 100% 73.38485780634011%)" />
  <rect x="625" y="85" width="30" height="30" fill="rgb(255 255 255 / 50%)" />
  <rect x="65" y="120" width="30" height="30" fill="hsl(240 100% 82.25659619780373%)" />
  <rect x="100" y="120" width="30" height="30" fill="hsl(240 100% 84.84313647091797%)" />
  <rect x="135" y="120" width="30" height="30" fill="hsl(240 100% 50%)" />
  <rect x="170" y="120" width="30" height="30" fill="hsl(240 100% 92.4342955326829%)" />
  <rect x="205" y="120" width="30" height="30" fill="hsl(240 100% 91.45227246508436%)" />
  <rect x="275" y="120" width="30" height="30" fill="hsl(240 100% 98.94003414061878%)" />
  <rect x="345" y="120" width="30" height="30" fill="hsl(240 100% 94.50688803589891%)" />
  <rect x="380" y="120" width="30" height="30" fill="hsl(240 100% 97.84374763981145%)" />
  <rect x="450" y="120" width="30" height="30" fill="hsl(240 100% 79.01423337352418%)" />
  <rect x="65" y="155" width="30" height="30" fill="hsl(240 100% 98.35033192230021%)" />
  <rect x="100" y="155" width="30" height="30" fill="hsl(240 100% 98.81035901204648%)" />
  <rect x="135" y="155" width="30" height="30" fill="hsl(240 100% 97.36728560256701%)" />
  <rect x="170" y="155" width="30" height="30" fill="hsl(240 100% 99.77919680521848%)" />
  <rect x="205" y="155" width="30" height="30" fill="hsl(240 100% 87.25661178294999%)" />
  <rect x="275" y="155" width="30" height="30" fill="rgb(255 255 255 / 50%)" />
  <rect x="345" y="155" width="30" height="30" fill="hsl(240 100% 90.30155144297517%)" />
  <rect x="415" y="155" width="30" height="30" fill="hsl(240 100% 71.09603643548652%)" />
  <rect x="450" y="155" width="30" height="30" fill="hsl(240 100% 76.36600604945016%)" />
  <rect x="485" y="155" width="30" height="30" fill="hsl(240 100% 99.37889329211237%)" />
  <rect x="520" y="155" width="30" height="30" fill="hsl(240 100% 50%)" />
  <rect x="555" y="155" width="30" height="30" fill="hsl(240 100% 92.97468952388085%)" />
  <rect x="590" y="155" width="30" height="30" fill="hsl(240 100% 76.96049496661333%)" />
  <rect x="625" y="155" width="30" height="30" fill="hsl(240 100% 89.18932409877766%)" />
  <rect x="65" y="190" width="30" height="30" fill="hsl(240 100% 50%)" />
  <rect x="100" y="190" width="30" height="30" fill="hsl(240 100% 50%)" />
  <rect x="135" y="190" width="30" height="30" fill="hsl(240 100% 50%)" />
  <rect x="170" y="190" width="30" height="30" fill="hsl(240 100% 50%)" />
  <rect x="205" y="190" width="30" height="30" fill="hsl(240 100% 50%)" />
  <rect x="240" y="190" width="30" height="30" fill="hsl(240 100% 50%)" />
  <rect x="275" y="190" width="30" height="30" fill="hsl(240 100% 50%)" />
  <rect x="310" y="190" width="30" height="30" fill="hsl(240 100% 50%)" />
  <rect x="345" y="190" width="30" height="30" fill="hsl(240 100% 50%)" />
  <rect x="380" y="190" width="30" height="30" fill="hsl(240 100% 50%)" />
  <rect x="415" y="190" width="30" height="30" fill="hsl(240 100% 50%)" />
  <rect x="450" y="190" width="30" height="30" fill="hsl(240 100% 50%)" />
  <rect x="485" y="190" width="30" height="30" fill="hsl(240 100% 50%)" />
  <rect x="520" y="190" width="30" height="30" fill="hsl(240 100% 50%)" />
  <rect x="555" y="190" width="30" height="30" fill="hsl(240 100% 50%)" />
  <rect x="590" y="190" width="30" height="30" fill="hsl(240 100% 50%)" />
  <rect x="625" y="190" width="30" height="30" fill="hsl(240 100% 50%)" />
  <rect x="660" y="190" width="30" height="30" fill="hsl(240 100% 50%)" />
  <rect x="65" y="225" width="30" height="30" fill="hsl(240 100% 95.96913509969042%)" />
  <rect x="100" y="225" width="30" height="30" fill="hsl(240 100% 89.95828439843558%)" />
  <rect x="135" y="225" width="30" height="30" fill="hsl(240 100% 87.97117124688084%)" />
  <rect x="205" y="225" width="30" height="30" fill="hsl(240 100% 89.90138879130521%)" />
  <rect x="275" y="225" width="30" height="30" fill="rgb(255 255 255 / 50%)" />
  <rect x="345" y="225" width="30" height="30" fill="hsl(240 100% 89.36520880056705%)" />
  <rect x="450" y="225" width="30" height="30" fill="hsl(240 100% 50%)" />
  <rect x="520" y="225" width="30" height="30" fill="rgb(255 255 255 / 50%)" />
  <rect x="590" y="225" width="30" height="30" fill="rgb(255 255 255 / 50%)" />
  <rect x="625" y="225" width="30" height="30" fill="rgb(255 255 255 / 50%)" />
  <rect x="100" y="260" width="30" height="30" fill="hsl(240 100% 99.8722159672545%)" />
  <rect x="135" y="260" width="30" height="30" fill="hsl(240 100% 99.40920545184827%)" />
  <rect x="170" y="260" width="30" height="30" fill="rgb(255 255 255 / 50%)" />
  <rect x="205" y="260" width="30" height="30" fill="hsl(240 100% 87.57945047604838%)" />
  <rect x="275" y="260" width="30" height="30" fill="rgb(255 255 255 / 50%)" />
  <rect x="345" y="260" width="30" height="30" fill="hsl(240 100% 82.98608977494513%)" />
  <rect x="380" y="260" width="30" height="30" fill="rgb(255 255 255 / 50%)" />
  <rect x="415" y="260" width="30" height="30" fill="hsl(240 100% 50%)" />
  <rect x="450" y="260" width="30" height="30" fill="hsl(240 100% 76.52485115347471%)" />
  <rect x="520" y="260" width="30" height="30" fill="hsl(240 100% 96.94109277608551%)" />
  <rect x="555" y="260" width="30" height="30" fill="hsl(240 100% 94.16115073394455%)" />
  <rect x="65" y="295" width="30" height="30" fill="hsl(240 100% 66.02582727439557%)" />
  <rect x="100" y="295" width="30" height="30" fill="hsl(240 100% 59.50518252363588%)" />
  <rect x="135" y="295" width="30" height="30" fill="hsl(240 100% 59.74984685155865%)" />
  <rect x="170" y="295" width="30" height="30" fill="hsl(240 100% 91.54265268195462%)" />
  <rect x="205" y="295" width="30" height="30" fill="hsl(240 100% 50%)" />
  <rect x="275" y="295" width="30" height="30" fill="hsl(240 100% 99.42450223295809%)" />
  <rect x="345" y="295" width="30" height="30" fill="hsl(240 100% 50.296752650441476%)" />
  <rect x="380" y="295" width="30" height="30" fill="hsl(240 100% 89.67158961608578%)" />
  <rect x="450" y="295" width="30" height="30" fill="hsl(240 100% 53.27184014515882%)" />
  <rect x="555" y="295" width="30" height="30" fill="hsl(240 100% 55.15988460466204%)" />
  <rect x="65" y="330" width="30" height="30" fill="hsl(240 100% 94.63269322384112%)" />
  <rect x="100" y="330" width="30" height="30" fill="hsl(240 100% 97.24693174904999%)" />
  <rect x="135" y="330" width="30" height="30" fill="hsl(240 100% 89.64963986677368%)" />
  <rect x="170" y="330" width="30" height="30" fill="hsl(240 100% 99.233198023463%)" />
  <rect x="205" y="330" width="30" height="30" fill="hsl(240 100% 80.59980860388391%)" />
  <rect x="240" y="330" width="30" height="30" fill="hsl(240 100% 99.83542345308729%)" />
  <rect x="275" y="330" width="30" height="30" fill="rgb(255 255 255 / 50%)" />
  <rect x="345" y="330" width="30" height="30" fill="hsl(240 100% 86.05717108989626%)" />
  <rect x="380" y="330" width="30" height="30" fill="hsl(240 100% 99.82391892558232%)" />
  <rect x="415" y="330" width="30" height="30" fill="hsl(240 100% 73.28898511869092%)" />
  <rect x="450" y="330" width="30" height="30" fill="hsl(240 100% 78.97187037646717%)" />
  <rect x="485" y="330" width="30" height="30" fill="hsl(240 100% 93.86944690112216%)" />
  <rect x="520" y="330" width="30" height="30" fill="hsl(240 100% 50%)" />
  <rect x="625" y="330" width="30" height="30" fill="hsl(240 100% 89.09522131038754%)" />
  <rect x="660" y="330" width="30" height="30" fill="hsl(240 100% 98.50651934675248%)" />
  <rect x="65" y="365" width="30" height="30" fill="hsl(240 100% 69.0436635201347%)" />
  <rect x="100" y="365" width="30" height="30" fill="hsl(240 100% 80.51021075533598%)" />
  <rect x="135" y="365" width="30" height="30" fill="hsl(240 100% 50.11515075940903%)" />
  <rect x="170" y="365" width="30" height="30" fill="hsl(240 100% 95.7528701033211%)" />
  <rect x="205" y="365" width="30" height="30" fill="hsl(240 100% 50%)" />
  <rect x="275" y="365" width="30" height="30" fill="hsl(240 100% 99.84981559886089%)" />
  <rect x="345" y="365" width="30" height="30" fill="hsl(240 100% 62.418464134205735%)" />
  <rect x="450" y="365" width="30" height="30" fill="hsl(240 100% 84.2799210835241%)" />
  <rect x="520" y="365" width="30" height="30" fill="hsl(240 100% 99.58851533271509%)" />
  <rect x="590" y="365" width="30" height="30" fill="hsl(240 100% 59.536384383386526%)" />
  <rect x="625" y="365" width="30" height="30" fill="hsl(240 100% 97.96571134754377%)" />
  <rect x="65" y="400" width="30" height="30" fill="hsl(240 100% 99.20875119383922%)" />
  <rect x="100" y="400" width="30" height="30" fill="hsl(240 100% 99.56950134910004%)" />
  <rect x="135" y="400" width="30" height="30" fill="hsl(240 100% 93.97349369004502%)" />
  <rect x="170" y="400" width="30" height="30" fill="hsl(240 100% 98.99174740699065%)" />
  <rect x="205" y="400" width="30" height="30" fill="hsl(240 100% 85.38932818109645%)" />
  <rect x="240" y="400" width="30" height="30" fill="hsl(240 100% 99.02825105886978%)" />
  <rect x="275" y="400" width="30" height="30" fill="rgb(255 255 255 / 50%)" />
  <rect x="345" y="400" width="30" height="30" fill="hsl(240 100% 95.43121925652564%)" />
  <rect x="380" y="400" width="30" height="30" fill="hsl(240 100% 99.96412807164107%)" />
  <rect x="450" y="400" width="30" height="30" fill="hsl(240 100% 50%)" />
  <rect x="205" y="435" width="30" height="30" fill="hsl(240 100% 50%)" />
  <rect x="275" y="435" width="30" height="30" fill="hsl(240 100% 95.18847444777651%)" />
  <rect x="345" y="435" width="30" height="30" fill="hsl(240 100% 88.01504547862207%)" />
  <rect x="380" y="435" width="30" height="30" fill="hsl(240 100% 99.77235784228925%)" />
  <rect x="205" y="470" width="30" height="30" fill="hsl(240 100% 50%)" />
  <rect x="275" y="470" width="30" height="30" fill="hsl(240 100% 95.80184523125178%)" />
  <rect x="345" y="470" width="30" height="30" fill="hsl(240 100% 89.02037474572698%)" />
  <rect x="380" y="470" width="30" height="30" fill="hsl(240 100% 99.57405767374723%)" />
</svg>
