<svg xmlns="http://www.w3.org/2000/svg" viewBox="0 0 905 505">
  <rect x="0" y="0" width="905" height="505" rx="5" ry="5" fill="#222" />
  <text x="60" y="100" fill="white" font-family="sans-serif" font-weight="bold" font-size="12" text-anchor="end" dominant-baseline="middle">ba</text>
  <text x="60" y="135" fill="white" font-family="sans-serif" font-weight="bold" font-size="12" text-anchor="end" dominant-baseline="middle">det</text>
  <text x="60" y="170" fill="white" font-family="sans-serif" font-weight="bold" font-size="12" text-anchor="end" dominant-baseline="middle">gmm</text>
  <text x="60" y="205" fill="white" font-family="sans-serif" font-weight="bold" font-size="12" text-anchor="end" dominant-baseline="middle">hello</text>
  <text x="60" y="240" fill="white" font-family="sans-serif" font-weight="bold" font-size="12" text-anchor="end" dominant-baseline="middle">ht</text>
  <text x="60" y="275" fill="white" font-family="sans-serif" font-weight="bold" font-size="12" text-anchor="end" dominant-baseline="middle">kmeans</text>
  <text x="60" y="310" fill="white" font-family="sans-serif" font-weight="bold" font-size="12" text-anchor="end" dominant-baseline="middle">llsq</text>
  <text x="60" y="345" fill="white" font-family="sans-serif" font-weight="bold" font-size="12" text-anchor="end" dominant-baseline="middle">lse</text>
  <text x="60" y="380" fill="white" font-family="sans-serif" font-weight="bold" font-size="12" text-anchor="end" dominant-baseline="middle">lstm</text>
  <text x="60" y="415" fill="white" font-family="sans-serif" font-weight="bold" font-size="12" text-anchor="end" dominant-baseline="middle">ode</text>
  <text x="60" y="450" fill="white" font-family="sans-serif" font-weight="bold" font-size="12" text-anchor="end" dominant-baseline="middle">particle</text>
  <text x="60" y="485" fill="white" font-family="sans-serif" font-weight="bold" font-size="12" text-anchor="end" dominant-baseline="middle">saddle</text>
  <text x="80" y="80" fill="white" font-family="sans-serif" font-weight="bold" font-size="12" text-anchor="end" dominant-baseline="middle" transform="rotate(90 80 80)">ad-hpp</text>
  <text x="115" y="80" fill="white" font-family="sans-serif" font-weight="bold" font-size="12" text-anchor="end" dominant-baseline="middle" transform="rotate(90 115 80)">adept</text>
  <text x="150" y="80" fill="white" font-family="sans-serif" font-weight="bold" font-size="12" text-anchor="end" dominant-baseline="middle" transform="rotate(90 150 80)">adol-c</text>
  <text x="185" y="80" fill="white" font-family="sans-serif" font-weight="bold" font-size="12" text-anchor="end" dominant-baseline="middle" transform="rotate(90 185 80)">autodiff</text>
  <text x="220" y="80" fill="white" font-family="sans-serif" font-weight="bold" font-size="12" text-anchor="end" dominant-baseline="middle" transform="rotate(90 220 80)">codipack</text>
  <text x="255" y="80" fill="white" font-family="sans-serif" font-weight="bold" font-size="12" text-anchor="end" dominant-baseline="middle" transform="rotate(90 255 80)">cppad</text>
  <text x="290" y="80" fill="white" font-family="sans-serif" font-weight="bold" font-size="12" text-anchor="end" dominant-baseline="middle" transform="rotate(90 290 80)">enzyme</text>
  <text x="325" y="80" fill="white" font-family="sans-serif" font-weight="bold" font-size="12" text-anchor="end" dominant-baseline="middle" transform="rotate(90 325 80)">enzyme-jl</text>
  <text x="360" y="80" fill="white" font-family="sans-serif" font-weight="bold" font-size="12" text-anchor="end" dominant-baseline="middle" transform="rotate(90 360 80)">finite</text>
  <text x="395" y="80" fill="white" font-family="sans-serif" font-weight="bold" font-size="12" text-anchor="end" dominant-baseline="middle" transform="rotate(90 395 80)">floretta</text>
  <text x="430" y="80" fill="white" font-family="sans-serif" font-weight="bold" font-size="12" text-anchor="end" dominant-baseline="middle" transform="rotate(90 430 80)">forwarddiff-jl</text>
  <text x="465" y="80" fill="white" font-family="sans-serif" font-weight="bold" font-size="12" text-anchor="end" dominant-baseline="middle" transform="rotate(90 465 80)">futhark</text>
  <text x="500" y="80" fill="white" font-family="sans-serif" font-weight="bold" font-size="12" text-anchor="end" dominant-baseline="middle" transform="rotate(90 500 80)">haskell</text>
  <text x="535" y="80" fill="white" font-family="sans-serif" font-weight="bold" font-size="12" text-anchor="end" dominant-baseline="middle" transform="rotate(90 535 80)">jax</text>
  <text x="570" y="80" fill="white" font-family="sans-serif" font-weight="bold" font-size="12" text-anchor="end" dominant-baseline="middle" transform="rotate(90 570 80)">manual</text>
  <text x="605" y="80" fill="white" font-family="sans-serif" font-weight="bold" font-size="12" text-anchor="end" dominant-baseline="middle" transform="rotate(90 605 80)">mooncake-jl</text>
  <text x="640" y="80" fill="white" font-family="sans-serif" font-weight="bold" font-size="12" text-anchor="end" dominant-baseline="middle" transform="rotate(90 640 80)">ocaml</text>
  <text x="675" y="80" fill="white" font-family="sans-serif" font-weight="bold" font-size="12" text-anchor="end" dominant-baseline="middle" transform="rotate(90 675 80)">pytorch</text>
  <text x="710" y="80" fill="white" font-family="sans-serif" font-weight="bold" font-size="12" text-anchor="end" dominant-baseline="middle" transform="rotate(90 710 80)">reversediff-jl</text>
  <text x="745" y="80" fill="white" font-family="sans-serif" font-weight="bold" font-size="12" text-anchor="end" dominant-baseline="middle" transform="rotate(90 745 80)">scilean</text>
  <text x="780" y="80" fill="white" font-family="sans-serif" font-weight="bold" font-size="12" text-anchor="end" dominant-baseline="middle" transform="rotate(90 780 80)">tapenade</text>
  <text x="815" y="80" fill="white" font-family="sans-serif" font-weight="bold" font-size="12" text-anchor="end" dominant-baseline="middle" transform="rotate(90 815 80)">tensorflow</text>
  <text x="850" y="80" fill="white" font-family="sans-serif" font-weight="bold" font-size="12" text-anchor="end" dominant-baseline="middle" transform="rotate(90 850 80)">tensorflow-js</text>
  <text x="885" y="80" fill="white" font-family="sans-serif" font-weight="bold" font-size="12" text-anchor="end" dominant-baseline="middle" transform="rotate(90 885 80)">zygote</text>
  <rect x="65" y="85" width="30" height="30" fill="hsl(240 100% 80.76452702398797%)" />
  <rect x="100" y="85" width="30" height="30" fill="hsl(240 100% 82.39000529458268%)" />
  <rect x="135" y="85" width="30" height="30" fill="hsl(240 100% 97.95748730744431%)" />
  <rect x="205" y="85" width="30" height="30" fill="hsl(240 100% 81.92967144820904%)" />
  <rect x="240" y="85" width="30" height="30" fill="hsl(240 100% 98.83565594616012%)" />
  <rect x="275" y="85" width="30" height="30" fill="hsl(240 100% 50%)" />
  <rect x="345" y="85" width="30" height="30" fill="hsl(240 100% 93.01337732121576%)" />
  <rect x="450" y="85" width="30" height="30" fill="hsl(240 100% 67.60116512300384%)" />
  <rect x="555" y="85" width="30" height="30" fill="hsl(240 100% 54.07050060596543%)" />
  <rect x="660" y="85" width="30" height="30" fill="rgb(255 255 255 / 50%)" />
  <rect x="765" y="85" width="30" height="30" fill="hsl(240 100% 71.05864068066609%)" />
  <rect x="800" y="85" width="30" height="30" fill="rgb(255 255 255 / 50%)" />
  <rect x="870" y="85" width="30" height="30" fill="hsl(240 100% 99.75227277765009%)" />
  <rect x="65" y="120" width="30" height="30" fill="hsl(240 100% 50%)" />
  <rect x="100" y="120" width="30" height="30" fill="hsl(240 100% 82.86534911919897%)" />
  <rect x="135" y="120" width="30" height="30" fill="hsl(240 100% 86.52347335387934%)" />
  <rect x="205" y="120" width="30" height="30" fill="hsl(240 100% 54.5329505397256%)" />
  <rect x="240" y="120" width="30" height="30" fill="hsl(240 100% 93.20027144782325%)" />
  <rect x="275" y="120" width="30" height="30" fill="hsl(240 100% 92.51950593306776%)" />
  <rect x="310" y="120" width="30" height="30" fill="hsl(240 100% 99.42044182574391%)" />
  <rect x="345" y="120" width="30" height="30" fill="hsl(240 100% 99.06094974825507%)" />
  <rect x="415" y="120" width="30" height="30" fill="hsl(240 100% 93.73226850897058%)" />
  <rect x="450" y="120" width="30" height="30" fill="hsl(240 100% 94.9764923203293%)" />
  <rect x="485" y="120" width="30" height="30" fill="hsl(240 100% 97.89529803612703%)" />
  <rect x="555" y="120" width="30" height="30" fill="hsl(240 100% 80.94857868189874%)" />
  <rect x="590" y="120" width="30" height="30" fill="hsl(240 100% 95.77875828702598%)" />
  <rect x="695" y="120" width="30" height="30" fill="rgb(255 255 255 / 50%)" />
  <rect x="870" y="120" width="30" height="30" fill="rgb(255 255 255 / 50%)" />
  <rect x="65" y="155" width="30" height="30" fill="hsl(240 100% 99.2173724242603%)" />
  <rect x="100" y="155" width="30" height="30" fill="hsl(240 100% 98.73062547014965%)" />
  <rect x="135" y="155" width="30" height="30" fill="hsl(240 100% 99.08795913387316%)" />
  <rect x="205" y="155" width="30" height="30" fill="hsl(240 100% 97.93970942840333%)" />
  <rect x="240" y="155" width="30" height="30" fill="hsl(240 100% 99.8461964667529%)" />
  <rect x="275" y="155" width="30" height="30" fill="hsl(240 100% 95.39387227294648%)" />
  <rect x="310" y="155" width="30" height="30" fill="hsl(240 100% 90.3264502861569%)" />
  <rect x="345" y="155" width="30" height="30" fill="rgb(255 255 255 / 50%)" />
  <rect x="450" y="155" width="30" height="30" fill="hsl(240 100% 93.08182733598461%)" />
  <rect x="520" y="155" width="30" height="30" fill="hsl(240 100% 50%)" />
  <rect x="555" y="155" width="30" height="30" fill="hsl(240 100% 81.55307184791843%)" />
  <rect x="590" y="155" width="30" height="30" fill="hsl(240 100% 95.9691805532269%)" />
  <rect x="625" y="155" width="30" height="30" fill="hsl(240 100% 99.60424678415778%)" />
  <rect x="660" y="155" width="30" height="30" fill="hsl(240 100% 71.60367975836725%)" />
  <rect x="730" y="155" width="30" height="30" fill="hsl(240 100% 96.01573096805569%)" />
  <rect x="765" y="155" width="30" height="30" fill="hsl(240 100% 83.81672732548935%)" />
  <rect x="800" y="155" width="30" height="30" fill="hsl(240 100% 99.58526665440868%)" />
  <rect x="870" y="155" width="30" height="30" fill="hsl(240 100% 96.19820551221862%)" />
  <rect x="65" y="190" width="30" height="30" fill="hsl(240 100% 50%)" />
  <rect x="100" y="190" width="30" height="30" fill="hsl(240 100% 50%)" />
  <rect x="135" y="190" width="30" height="30" fill="hsl(240 100% 50%)" />
  <rect x="170" y="190" width="30" height="30" fill="hsl(240 100% 50%)" />
  <rect x="205" y="190" width="30" height="30" fill="hsl(240 100% 50%)" />
  <rect x="240" y="190" width="30" height="30" fill="hsl(240 100% 50%)" />
  <rect x="275" y="190" width="30" height="30" fill="hsl(240 100% 50%)" />
  <rect x="310" y="190" width="30" height="30" fill="hsl(240 100% 50%)" />
  <rect x="345" y="190" width="30" height="30" fill="hsl(240 100% 50%)" />
  <rect x="380" y="190" width="30" height="30" fill="hsl(240 100% 50%)" />
  <rect x="415" y="190" width="30" height="30" fill="hsl(240 100% 50%)" />
  <rect x="450" y="190" width="30" height="30" fill="hsl(240 100% 50%)" />
  <rect x="485" y="190" width="30" height="30" fill="hsl(240 100% 50%)" />
  <rect x="520" y="190" width="30" height="30" fill="hsl(240 100% 50%)" />
  <rect x="555" y="190" width="30" height="30" fill="hsl(240 100% 50%)" />
  <rect x="590" y="190" width="30" height="30" fill="hsl(240 100% 50%)" />
  <rect x="625" y="190" width="30" height="30" fill="hsl(240 100% 50%)" />
  <rect x="660" y="190" width="30" height="30" fill="hsl(240 100% 50%)" />
  <rect x="695" y="190" width="30" height="30" fill="hsl(240 100% 50%)" />
  <rect x="730" y="190" width="30" height="30" fill="hsl(240 100% 50%)" />
  <rect x="765" y="190" width="30" height="30" fill="hsl(240 100% 50%)" />
  <rect x="800" y="190" width="30" height="30" fill="hsl(240 100% 50%)" />
  <rect x="835" y="190" width="30" height="30" fill="hsl(240 100% 50%)" />
  <rect x="870" y="190" width="30" height="30" fill="hsl(240 100% 50%)" />
  <rect x="100" y="225" width="30" height="30" fill="hsl(240 100% 96.21625516325284%)" />
  <rect x="135" y="225" width="30" height="30" fill="hsl(240 100% 86.50485396376854%)" />
  <rect x="205" y="225" width="30" height="30" fill="hsl(240 100% 88.19803523240033%)" />
  <rect x="275" y="225" width="30" height="30" fill="hsl(240 100% 91.89007592761112%)" />
  <rect x="345" y="225" width="30" height="30" fill="rgb(255 255 255 / 50%)" />
  <rect x="450" y="225" width="30" height="30" fill="hsl(240 100% 89.88576645876664%)" />
  <rect x="555" y="225" width="30" height="30" fill="hsl(240 100% 50%)" />
  <rect x="660" y="225" width="30" height="30" fill="rgb(255 255 255 / 50%)" />
  <rect x="765" y="225" width="30" height="30" fill="hsl(240 100% 92.52133408055866%)" />
  <rect x="800" y="225" width="30" height="30" fill="rgb(255 255 255 / 50%)" />
  <rect x="870" y="225" width="30" height="30" fill="hsl(240 100% 96.76918162030816%)" />
  <rect x="135" y="260" width="30" height="30" fill="hsl(240 100% 99.86052298713285%)" />
  <rect x="205" y="260" width="30" height="30" fill="hsl(240 100% 99.18925907623041%)" />
  <rect x="240" y="260" width="30" height="30" fill="rgb(255 255 255 / 50%)" />
  <rect x="275" y="260" width="30" height="30" fill="hsl(240 100% 87.10433642654068%)" />
  <rect x="345" y="260" width="30" height="30" fill="rgb(255 255 255 / 50%)" />
  <rect x="415" y="260" width="30" height="30" fill="rgb(255 255 255 / 50%)" />
  <rect x="450" y="260" width="30" height="30" fill="hsl(240 100% 80.83090633934601%)" />
  <rect x="485" y="260" width="30" height="30" fill="rgb(255 255 255 / 50%)" />
  <rect x="520" y="260" width="30" height="30" fill="hsl(240 100% 50%)" />
  <rect x="555" y="260" width="30" height="30" fill="hsl(240 100% 72.7286296696973%)" />
  <rect x="660" y="260" width="30" height="30" fill="hsl(240 100% 96.9565762512274%)" />
  <rect x="695" y="260" width="30" height="30" fill="rgb(255 255 255 / 50%)" />
  <rect x="730" y="260" width="30" height="30" fill="hsl(240 100% 94.25481427510937%)" />
  <rect x="65" y="295" width="30" height="30" fill="hsl(240 100% 85.86885929652357%)" />
  <rect x="100" y="295" width="30" height="30" fill="hsl(240 100% 97.34411277866246%)" />
  <rect x="135" y="295" width="30" height="30" fill="hsl(240 100% 95.06355385656438%)" />
  <rect x="170" y="295" width="30" height="30" fill="hsl(240 100% 99.92858499590301%)" />
  <rect x="205" y="295" width="30" height="30" fill="hsl(240 100% 89.22972067363122%)" />
  <rect x="240" y="295" width="30" height="30" fill="hsl(240 100% 99.4740935524381%)" />
  <rect x="275" y="295" width="30" height="30" fill="hsl(240 100% 50%)" />
  <rect x="310" y="295" width="30" height="30" fill="hsl(240 100% 60.817155062322044%)" />
  <rect x="345" y="295" width="30" height="30" fill="hsl(240 100% 99.49298977999835%)" />
  <rect x="380" y="295" width="30" height="30" fill="hsl(240 100% 94.67523401120532%)" />
  <rect x="450" y="295" width="30" height="30" fill="hsl(240 100% 54.745010791768635%)" />
  <rect x="485" y="295" width="30" height="30" fill="hsl(240 100% 99.26384338913671%)" />
  <rect x="520" y="295" width="30" height="30" fill="hsl(240 100% 88.10094439304012%)" />
  <rect x="555" y="295" width="30" height="30" fill="hsl(240 100% 57.322481934290636%)" />
  <rect x="590" y="295" width="30" height="30" fill="hsl(240 100% 90.80279239768176%)" />
  <rect x="730" y="295" width="30" height="30" fill="hsl(240 100% 97.5794355152244%)" />
  <rect x="835" y="295" width="30" height="30" fill="hsl(240 100% 99.5790150599403%)" />
  <rect x="870" y="295" width="30" height="30" fill="hsl(240 100% 99.96125970388907%)" />
  <rect x="65" y="330" width="30" height="30" fill="hsl(240 100% 87.0226474701951%)" />
  <rect x="100" y="330" width="30" height="30" fill="hsl(240 100% 94.07363410729774%)" />
  <rect x="135" y="330" width="30" height="30" fill="hsl(240 100% 96.89360471456645%)" />
  <rect x="170" y="330" width="30" height="30" fill="rgb(255 255 255 / 50%)" />
  <rect x="205" y="330" width="30" height="30" fill="hsl(240 100% 86.72296277781669%)" />
  <rect x="240" y="330" width="30" height="30" fill="hsl(240 100% 99.19311858497089%)" />
  <rect x="275" y="330" width="30" height="30" fill="hsl(240 100% 80.00042788451674%)" />
  <rect x="310" y="330" width="30" height="30" fill="hsl(240 100% 86.63832629540317%)" />
  <rect x="345" y="330" width="30" height="30" fill="rgb(255 255 255 / 50%)" />
  <rect x="380" y="330" width="30" height="30" fill="hsl(240 100% 97.17107940263836%)" />
  <rect x="450" y="330" width="30" height="30" fill="hsl(240 100% 85.82921108009687%)" />
  <rect x="485" y="330" width="30" height="30" fill="hsl(240 100% 99.80171481601771%)" />
  <rect x="520" y="330" width="30" height="30" fill="hsl(240 100% 75.38449166570786%)" />
  <rect x="555" y="330" width="30" height="30" fill="hsl(240 100% 69.76380587868354%)" />
  <rect x="590" y="330" width="30" height="30" fill="hsl(240 100% 91.65996155914286%)" />
  <rect x="625" y="330" width="30" height="30" fill="hsl(240 100% 93.70267657223275%)" />
  <rect x="660" y="330" width="30" height="30" fill="hsl(240 100% 50%)" />
  <rect x="800" y="330" width="30" height="30" fill="hsl(240 100% 94.8183925179905%)" />
  <rect x="835" y="330" width="30" height="30" fill="hsl(240 100% 99.2246347173695%)" />
  <rect x="870" y="330" width="30" height="30" fill="hsl(240 100% 85.99299661533192%)" />
  <rect x="65" y="365" width="30" height="30" fill="hsl(240 100% 57.17682153744162%)" />
  <rect x="100" y="365" width="30" height="30" fill="hsl(240 100% 70.66317497105989%)" />
  <rect x="135" y="365" width="30" height="30" fill="hsl(240 100% 82.58407889911298%)" />
  <rect x="205" y="365" width="30" height="30" fill="hsl(240 100% 50%)" />
  <rect x="240" y="365" width="30" height="30" fill="hsl(240 100% 96.05327191916378%)" />
  <rect x="275" y="365" width="30" height="30" fill="hsl(240 100% 59.41233385536114%)" />
  <rect x="310" y="365" width="30" height="30" fill="hsl(240 100% 92.60694227653869%)" />
  <rect x="345" y="365" width="30" height="30" fill="hsl(240 100% 99.86292441514766%)" />
  <rect x="450" y="365" width="30" height="30" fill="hsl(240 100% 66.6074163230692%)" />
  <rect x="555" y="365" width="30" height="30" fill="hsl(240 100% 86.32886696230554%)" />
  <rect x="590" y="365" width="30" height="30" fill="hsl(240 100% 95.4553566454588%)" />
  <rect x="660" y="365" width="30" height="30" fill="hsl(240 100% 99.63536386229032%)" />
  <rect x="765" y="365" width="30" height="30" fill="hsl(240 100% 63.55246377641686%)" />
  <rect x="800" y="365" width="30" height="30" fill="hsl(240 100% 98.18345849776439%)" />
  <rect x="870" y="365" width="30" height="30" fill="hsl(240 100% 98.77780936754245%)" />
  <rect x="65" y="400" width="30" height="30" fill="hsl(240 100% 98.0727158211246%)" />
  <rect x="100" y="400" width="30" height="30" fill="hsl(240 100% 99.33067480605158%)" />
  <rect x="135" y="400" width="30" height="30" fill="hsl(240 100% 99.65808663336423%)" />
  <rect x="170" y="400" width="30" height="30" fill="rgb(255 255 255 / 50%)" />
  <rect x="205" y="400" width="30" height="30" fill="hsl(240 100% 93.9549991156259%)" />
  <rect x="240" y="400" width="30" height="30" fill="hsl(240 100% 99.23328602887956%)" />
  <rect x="275" y="400" width="30" height="30" fill="hsl(240 100% 88.38732100530133%)" />
  <rect x="310" y="400" width="30" height="30" fill="hsl(240 100% 95.46896875238163%)" />
  <rect x="345" y="400" width="30" height="30" fill="rgb(255 255 255 / 50%)" />
  <rect x="415" y="400" width="30" height="30" fill="rgb(255 255 255 / 50%)" />
  <rect x="450" y="400" width="30" height="30" fill="hsl(240 100% 93.94377627474248%)" />
  <rect x="485" y="400" width="30" height="30" fill="hsl(240 100% 99.97172301152263%)" />
  <rect x="520" y="400" width="30" height="30" fill="hsl(240 100% 78.35229146539814%)" />
  <rect x="555" y="400" width="30" height="30" fill="hsl(240 100% 50%)" />
  <rect x="590" y="400" width="30" height="30" fill="hsl(240 100% 99.11721422842463%)" />
  <rect x="695" y="400" width="30" height="30" fill="rgb(255 255 255 / 50%)" />
  <rect x="870" y="400" width="30" height="30" fill="hsl(240 100% 99.38388985128212%)" />
  <rect x="65" y="435" width="30" height="30" fill="hsl(240 100% 93.26437868121451%)" />
  <rect x="275" y="435" width="30" height="30" fill="hsl(240 100% 50%)" />
  <rect x="345" y="435" width="30" height="30" fill="hsl(240 100% 93.86419618120087%)" />
  <rect x="450" y="435" width="30" height="30" fill="hsl(240 100% 86.95768449164345%)" />
  <rect x="485" y="435" width="30" height="30" fill="hsl(240 100% 99.78126870254387%)" />
  <rect x="65" y="470" width="30" height="30" fill="hsl(240 100% 50.084698610142496%)" />
  <rect x="275" y="470" width="30" height="30" fill="hsl(240 100% 50%)" />
  <rect x="345" y="470" width="30" height="30" fill="hsl(240 100% 96.97367212063513%)" />
  <rect x="450" y="470" width="30" height="30" fill="hsl(240 100% 89.06181407507847%)" />
  <rect x="485" y="470" width="30" height="30" fill="hsl(240 100% 99.56754956856237%)" />
</svg>
