<svg xmlns="http://www.w3.org/2000/svg" viewBox="0 0 870 505">
  <rect x="0" y="0" width="870" height="505" rx="5" ry="5" fill="#222" />
  <text x="60" y="100" fill="white" font-family="sans-serif" font-weight="bold" font-size="12" text-anchor="end" dominant-baseline="middle">ba</text>
  <text x="60" y="135" fill="white" font-family="sans-serif" font-weight="bold" font-size="12" text-anchor="end" dominant-baseline="middle">det</text>
  <text x="60" y="170" fill="white" font-family="sans-serif" font-weight="bold" font-size="12" text-anchor="end" dominant-baseline="middle">gmm</text>
  <text x="60" y="205" fill="white" font-family="sans-serif" font-weight="bold" font-size="12" text-anchor="end" dominant-baseline="middle">hello</text>
  <text x="60" y="240" fill="white" font-family="sans-serif" font-weight="bold" font-size="12" text-anchor="end" dominant-baseline="middle">ht</text>
  <text x="60" y="275" fill="white" font-family="sans-serif" font-weight="bold" font-size="12" text-anchor="end" dominant-baseline="middle">kmeans</text>
  <text x="60" y="310" fill="white" font-family="sans-serif" font-weight="bold" font-size="12" text-anchor="end" dominant-baseline="middle">llsq</text>
  <text x="60" y="345" fill="white" font-family="sans-serif" font-weight="bold" font-size="12" text-anchor="end" dominant-baseline="middle">lse</text>
  <text x="60" y="380" fill="white" font-family="sans-serif" font-weight="bold" font-size="12" text-anchor="end" dominant-baseline="middle">lstm</text>
  <text x="60" y="415" fill="white" font-family="sans-serif" font-weight="bold" font-size="12" text-anchor="end" dominant-baseline="middle">ode</text>
  <text x="60" y="450" fill="white" font-family="sans-serif" font-weight="bold" font-size="12" text-anchor="end" dominant-baseline="middle">particle</text>
  <text x="60" y="485" fill="white" font-family="sans-serif" font-weight="bold" font-size="12" text-anchor="end" dominant-baseline="middle">saddle</text>
  <text x="80" y="80" fill="white" font-family="sans-serif" font-weight="bold" font-size="12" text-anchor="end" dominant-baseline="middle" transform="rotate(90 80 80)">ad-hpp</text>
  <text x="115" y="80" fill="white" font-family="sans-serif" font-weight="bold" font-size="12" text-anchor="end" dominant-baseline="middle" transform="rotate(90 115 80)">adept</text>
  <text x="150" y="80" fill="white" font-family="sans-serif" font-weight="bold" font-size="12" text-anchor="end" dominant-baseline="middle" transform="rotate(90 150 80)">adol-c</text>
  <text x="185" y="80" fill="white" font-family="sans-serif" font-weight="bold" font-size="12" text-anchor="end" dominant-baseline="middle" transform="rotate(90 185 80)">codipack</text>
  <text x="220" y="80" fill="white" font-family="sans-serif" font-weight="bold" font-size="12" text-anchor="end" dominant-baseline="middle" transform="rotate(90 220 80)">cppad</text>
  <text x="255" y="80" fill="white" font-family="sans-serif" font-weight="bold" font-size="12" text-anchor="end" dominant-baseline="middle" transform="rotate(90 255 80)">enzyme</text>
  <text x="290" y="80" fill="white" font-family="sans-serif" font-weight="bold" font-size="12" text-anchor="end" dominant-baseline="middle" transform="rotate(90 290 80)">enzyme-jl</text>
  <text x="325" y="80" fill="white" font-family="sans-serif" font-weight="bold" font-size="12" text-anchor="end" dominant-baseline="middle" transform="rotate(90 325 80)">finite</text>
  <text x="360" y="80" fill="white" font-family="sans-serif" font-weight="bold" font-size="12" text-anchor="end" dominant-baseline="middle" transform="rotate(90 360 80)">floretta</text>
  <text x="395" y="80" fill="white" font-family="sans-serif" font-weight="bold" font-size="12" text-anchor="end" dominant-baseline="middle" transform="rotate(90 395 80)">forwarddiff-jl</text>
  <text x="430" y="80" fill="white" font-family="sans-serif" font-weight="bold" font-size="12" text-anchor="end" dominant-baseline="middle" transform="rotate(90 430 80)">futhark</text>
  <text x="465" y="80" fill="white" font-family="sans-serif" font-weight="bold" font-size="12" text-anchor="end" dominant-baseline="middle" transform="rotate(90 465 80)">haskell</text>
  <text x="500" y="80" fill="white" font-family="sans-serif" font-weight="bold" font-size="12" text-anchor="end" dominant-baseline="middle" transform="rotate(90 500 80)">jax</text>
  <text x="535" y="80" fill="white" font-family="sans-serif" font-weight="bold" font-size="12" text-anchor="end" dominant-baseline="middle" transform="rotate(90 535 80)">manual</text>
  <text x="570" y="80" fill="white" font-family="sans-serif" font-weight="bold" font-size="12" text-anchor="end" dominant-baseline="middle" transform="rotate(90 570 80)">mooncake-jl</text>
  <text x="605" y="80" fill="white" font-family="sans-serif" font-weight="bold" font-size="12" text-anchor="end" dominant-baseline="middle" transform="rotate(90 605 80)">ocaml</text>
  <text x="640" y="80" fill="white" font-family="sans-serif" font-weight="bold" font-size="12" text-anchor="end" dominant-baseline="middle" transform="rotate(90 640 80)">pytorch</text>
  <text x="675" y="80" fill="white" font-family="sans-serif" font-weight="bold" font-size="12" text-anchor="end" dominant-baseline="middle" transform="rotate(90 675 80)">reversediff-jl</text>
  <text x="710" y="80" fill="white" font-family="sans-serif" font-weight="bold" font-size="12" text-anchor="end" dominant-baseline="middle" transform="rotate(90 710 80)">scilean</text>
  <text x="745" y="80" fill="white" font-family="sans-serif" font-weight="bold" font-size="12" text-anchor="end" dominant-baseline="middle" transform="rotate(90 745 80)">tapenade</text>
  <text x="780" y="80" fill="white" font-family="sans-serif" font-weight="bold" font-size="12" text-anchor="end" dominant-baseline="middle" transform="rotate(90 780 80)">tensorflow</text>
  <text x="815" y="80" fill="white" font-family="sans-serif" font-weight="bold" font-size="12" text-anchor="end" dominant-baseline="middle" transform="rotate(90 815 80)">tensorflow-js</text>
  <text x="850" y="80" fill="white" font-family="sans-serif" font-weight="bold" font-size="12" text-anchor="end" dominant-baseline="middle" transform="rotate(90 850 80)">zygote</text>
  <rect x="65" y="85" width="30" height="30" fill="hsl(240 100% 81.02806281285949%)" />
  <rect x="100" y="85" width="30" height="30" fill="hsl(240 100% 82.90603695796779%)" />
  <rect x="135" y="85" width="30" height="30" fill="hsl(240 100% 98.00185158142806%)" />
  <rect x="170" y="85" width="30" height="30" fill="hsl(240 100% 82.50187786026262%)" />
  <rect x="205" y="85" width="30" height="30" fill="hsl(240 100% 99.00322777501877%)" />
  <rect x="240" y="85" width="30" height="30" fill="hsl(240 100% 51.67853068724773%)" />
  <rect x="310" y="85" width="30" height="30" fill="hsl(240 100% 93.28546567517895%)" />
  <rect x="415" y="85" width="30" height="30" fill="hsl(240 100% 68.13346584698213%)" />
  <rect x="520" y="85" width="30" height="30" fill="hsl(240 100% 50%)" />
  <rect x="625" y="85" width="30" height="30" fill="rgb(255 255 255 / 50%)" />
  <rect x="730" y="85" width="30" height="30" fill="hsl(240 100% 74.95180981236612%)" />
  <rect x="765" y="85" width="30" height="30" fill="rgb(255 255 255 / 50%)" />
  <rect x="835" y="85" width="30" height="30" fill="hsl(240 100% 99.74449439673734%)" />
  <rect x="65" y="120" width="30" height="30" fill="hsl(240 100% 50%)" />
  <rect x="100" y="120" width="30" height="30" fill="hsl(240 100% 83.66301530935576%)" />
  <rect x="135" y="120" width="30" height="30" fill="hsl(240 100% 86.03165398089502%)" />
  <rect x="170" y="120" width="30" height="30" fill="hsl(240 100% 51.98271709106615%)" />
  <rect x="205" y="120" width="30" height="30" fill="hsl(240 100% 92.56875688504466%)" />
  <rect x="240" y="120" width="30" height="30" fill="hsl(240 100% 91.45467136136259%)" />
  <rect x="275" y="120" width="30" height="30" fill="hsl(240 100% 99.38242358676996%)" />
  <rect x="310" y="120" width="30" height="30" fill="hsl(240 100% 99.00011606302448%)" />
  <rect x="380" y="120" width="30" height="30" fill="hsl(240 100% 93.3682582233483%)" />
  <rect x="415" y="120" width="30" height="30" fill="hsl(240 100% 94.65279841329948%)" />
  <rect x="450" y="120" width="30" height="30" fill="hsl(240 100% 97.88309941774179%)" />
  <rect x="520" y="120" width="30" height="30" fill="hsl(240 100% 79.74805434148124%)" />
  <rect x="555" y="120" width="30" height="30" fill="hsl(240 100% 90.63555898683538%)" />
  <rect x="660" y="120" width="30" height="30" fill="rgb(255 255 255 / 50%)" />
  <rect x="835" y="120" width="30" height="30" fill="rgb(255 255 255 / 50%)" />
  <rect x="65" y="155" width="30" height="30" fill="hsl(240 100% 98.4046101102503%)" />
  <rect x="100" y="155" width="30" height="30" fill="hsl(240 100% 98.78041834346085%)" />
  <rect x="135" y="155" width="30" height="30" fill="hsl(240 100% 99.09357870537008%)" />
  <rect x="170" y="155" width="30" height="30" fill="hsl(240 100% 98.01993254631857%)" />
  <rect x="205" y="155" width="30" height="30" fill="hsl(240 100% 99.82230265689921%)" />
  <rect x="240" y="155" width="30" height="30" fill="hsl(240 100% 90.83250496196855%)" />
  <rect x="275" y="155" width="30" height="30" fill="hsl(240 100% 92.51193201555704%)" />
  <rect x="310" y="155" width="30" height="30" fill="rgb(255 255 255 / 50%)" />
  <rect x="415" y="155" width="30" height="30" fill="hsl(240 100% 92.83956713544067%)" />
  <rect x="485" y="155" width="30" height="30" fill="hsl(240 100% 50%)" />
  <rect x="520" y="155" width="30" height="30" fill="hsl(240 100% 83.19147588111686%)" />
  <rect x="590" y="155" width="30" height="30" fill="hsl(240 100% 99.57042574779658%)" />
  <rect x="625" y="155" width="30" height="30" fill="hsl(240 100% 65.01054023858225%)" />
  <rect x="695" y="155" width="30" height="30" fill="hsl(240 100% 95.33993317245097%)" />
  <rect x="730" y="155" width="30" height="30" fill="hsl(240 100% 83.37202475702517%)" />
  <rect x="765" y="155" width="30" height="30" fill="hsl(240 100% 99.57375613845232%)" />
  <rect x="835" y="155" width="30" height="30" fill="hsl(240 100% 96.08575543129561%)" />
  <rect x="65" y="190" width="30" height="30" fill="hsl(240 100% 50%)" />
  <rect x="100" y="190" width="30" height="30" fill="hsl(240 100% 50%)" />
  <rect x="135" y="190" width="30" height="30" fill="hsl(240 100% 50%)" />
  <rect x="170" y="190" width="30" height="30" fill="hsl(240 100% 50%)" />
  <rect x="205" y="190" width="30" height="30" fill="hsl(240 100% 50%)" />
  <rect x="240" y="190" width="30" height="30" fill="hsl(240 100% 50%)" />
  <rect x="275" y="190" width="30" height="30" fill="hsl(240 100% 50%)" />
  <rect x="310" y="190" width="30" height="30" fill="hsl(240 100% 50%)" />
  <rect x="345" y="190" width="30" height="30" fill="hsl(240 100% 50%)" />
  <rect x="380" y="190" width="30" height="30" fill="hsl(240 100% 50%)" />
  <rect x="415" y="190" width="30" height="30" fill="hsl(240 100% 50%)" />
  <rect x="450" y="190" width="30" height="30" fill="hsl(240 100% 50%)" />
  <rect x="485" y="190" width="30" height="30" fill="hsl(240 100% 50%)" />
  <rect x="520" y="190" width="30" height="30" fill="hsl(240 100% 50%)" />
  <rect x="555" y="190" width="30" height="30" fill="hsl(240 100% 50%)" />
  <rect x="590" y="190" width="30" height="30" fill="hsl(240 100% 50%)" />
  <rect x="625" y="190" width="30" height="30" fill="hsl(240 100% 50%)" />
  <rect x="660" y="190" width="30" height="30" fill="hsl(240 100% 50%)" />
  <rect x="695" y="190" width="30" height="30" fill="hsl(240 100% 50%)" />
  <rect x="730" y="190" width="30" height="30" fill="hsl(240 100% 50%)" />
  <rect x="765" y="190" width="30" height="30" fill="hsl(240 100% 50%)" />
  <rect x="800" y="190" width="30" height="30" fill="hsl(240 100% 50%)" />
  <rect x="835" y="190" width="30" height="30" fill="hsl(240 100% 50%)" />
  <rect x="100" y="225" width="30" height="30" fill="hsl(240 100% 96.7368491426396%)" />
  <rect x="135" y="225" width="30" height="30" fill="hsl(240 100% 89.497447900723%)" />
  <rect x="170" y="225" width="30" height="30" fill="hsl(240 100% 89.48878488485498%)" />
  <rect x="240" y="225" width="30" height="30" fill="hsl(240 100% 91.50716883206722%)" />
  <rect x="310" y="225" width="30" height="30" fill="rgb(255 255 255 / 50%)" />
  <rect x="415" y="225" width="30" height="30" fill="hsl(240 100% 90.68338860691951%)" />
  <rect x="520" y="225" width="30" height="30" fill="hsl(240 100% 50%)" />
  <rect x="625" y="225" width="30" height="30" fill="rgb(255 255 255 / 50%)" />
  <rect x="730" y="225" width="30" height="30" fill="hsl(240 100% 93.22150926098882%)" />
  <rect x="765" y="225" width="30" height="30" fill="rgb(255 255 255 / 50%)" />
  <rect x="835" y="225" width="30" height="30" fill="hsl(240 100% 94.457550273989%)" />
  <rect x="65" y="260" width="30" height="30" fill="hsl(240 100% 99.85370075844246%)" />
  <rect x="135" y="260" width="30" height="30" fill="hsl(240 100% 99.85233273952696%)" />
  <rect x="170" y="260" width="30" height="30" fill="hsl(240 100% 98.846047607215%)" />
  <rect x="205" y="260" width="30" height="30" fill="rgb(255 255 255 / 50%)" />
  <rect x="240" y="260" width="30" height="30" fill="hsl(240 100% 87.23275999536592%)" />
  <rect x="310" y="260" width="30" height="30" fill="rgb(255 255 255 / 50%)" />
  <rect x="415" y="260" width="30" height="30" fill="hsl(240 100% 80.9679868975272%)" />
  <rect x="450" y="260" width="30" height="30" fill="rgb(255 255 255 / 50%)" />
  <rect x="485" y="260" width="30" height="30" fill="hsl(240 100% 50%)" />
  <rect x="520" y="260" width="30" height="30" fill="hsl(240 100% 71.66613293573816%)" />
  <rect x="625" y="260" width="30" height="30" fill="hsl(240 100% 97.02826700030761%)" />
  <rect x="695" y="260" width="30" height="30" fill="hsl(240 100% 94.19290320338635%)" />
  <rect x="65" y="295" width="30" height="30" fill="hsl(240 100% 85.76546977485403%)" />
  <rect x="100" y="295" width="30" height="30" fill="hsl(240 100% 97.52147706860958%)" />
  <rect x="135" y="295" width="30" height="30" fill="hsl(240 100% 95.04110458585019%)" />
  <rect x="170" y="295" width="30" height="30" fill="hsl(240 100% 90.5575120383164%)" />
  <rect x="205" y="295" width="30" height="30" fill="hsl(240 100% 99.45695921301916%)" />
  <rect x="240" y="295" width="30" height="30" fill="hsl(240 100% 50%)" />
  <rect x="275" y="295" width="30" height="30" fill="hsl(240 100% 50.098018902977664%)" />
  <rect x="310" y="295" width="30" height="30" fill="hsl(240 100% 99.49302967234686%)" />
  <rect x="345" y="295" width="30" height="30" fill="hsl(240 100% 94.62393318704501%)" />
  <rect x="415" y="295" width="30" height="30" fill="hsl(240 100% 54.656202447597664%)" />
  <rect x="450" y="295" width="30" height="30" fill="hsl(240 100% 99.32705073435827%)" />
  <rect x="485" y="295" width="30" height="30" fill="hsl(240 100% 88.16657789141756%)" />
  <rect x="520" y="295" width="30" height="30" fill="hsl(240 100% 57.66854625406475%)" />
  <rect x="695" y="295" width="30" height="30" fill="hsl(240 100% 97.57668664577098%)" />
  <rect x="800" y="295" width="30" height="30" fill="hsl(240 100% 99.57037461065565%)" />
  <rect x="835" y="295" width="30" height="30" fill="hsl(240 100% 99.95702990135825%)" />
  <rect x="65" y="330" width="30" height="30" fill="hsl(240 100% 88.85205206138296%)" />
  <rect x="100" y="330" width="30" height="30" fill="hsl(240 100% 94.95016986877499%)" />
  <rect x="135" y="330" width="30" height="30" fill="hsl(240 100% 97.202650192301%)" />
  <rect x="170" y="330" width="30" height="30" fill="hsl(240 100% 88.72495471864951%)" />
  <rect x="205" y="330" width="30" height="30" fill="hsl(240 100% 99.20899777287998%)" />
  <rect x="240" y="330" width="30" height="30" fill="hsl(240 100% 80.4324320794884%)" />
  <rect x="275" y="330" width="30" height="30" fill="hsl(240 100% 87.83952013010641%)" />
  <rect x="310" y="330" width="30" height="30" fill="rgb(255 255 255 / 50%)" />
  <rect x="345" y="330" width="30" height="30" fill="hsl(240 100% 97.30275758870188%)" />
  <rect x="415" y="330" width="30" height="30" fill="hsl(240 100% 86.07027796370951%)" />
  <rect x="450" y="330" width="30" height="30" fill="hsl(240 100% 99.8196054172815%)" />
  <rect x="485" y="330" width="30" height="30" fill="hsl(240 100% 73.31956314017064%)" />
  <rect x="520" y="330" width="30" height="30" fill="hsl(240 100% 76.95307398198989%)" />
  <rect x="590" y="330" width="30" height="30" fill="hsl(240 100% 93.95953922922438%)" />
  <rect x="625" y="330" width="30" height="30" fill="hsl(240 100% 50%)" />
  <rect x="765" y="330" width="30" height="30" fill="hsl(240 100% 94.58734345863594%)" />
  <rect x="800" y="330" width="30" height="30" fill="hsl(240 100% 99.22989966444088%)" />
  <rect x="835" y="330" width="30" height="30" fill="hsl(240 100% 81.12402678782081%)" />
  <rect x="65" y="365" width="30" height="30" fill="hsl(240 100% 56.99588747392853%)" />
  <rect x="100" y="365" width="30" height="30" fill="hsl(240 100% 71.9146614144589%)" />
  <rect x="135" y="365" width="30" height="30" fill="hsl(240 100% 82.2581372094381%)" />
  <rect x="170" y="365" width="30" height="30" fill="hsl(240 100% 50%)" />
  <rect x="205" y="365" width="30" height="30" fill="hsl(240 100% 96.23209647405618%)" />
  <rect x="240" y="365" width="30" height="30" fill="hsl(240 100% 59.27656342885197%)" />
  <rect x="275" y="365" width="30" height="30" fill="hsl(240 100% 92.28978744030763%)" />
  <rect x="310" y="365" width="30" height="30" fill="hsl(240 100% 99.86293326374953%)" />
  <rect x="415" y="365" width="30" height="30" fill="hsl(240 100% 66.19910395345102%)" />
  <rect x="520" y="365" width="30" height="30" fill="hsl(240 100% 86.05654626916535%)" />
  <rect x="625" y="365" width="30" height="30" fill="hsl(240 100% 99.63580812792755%)" />
  <rect x="730" y="365" width="30" height="30" fill="hsl(240 100% 63.83760799803675%)" />
  <rect x="765" y="365" width="30" height="30" fill="hsl(240 100% 98.15000534299669%)" />
  <rect x="835" y="365" width="30" height="30" fill="hsl(240 100% 98.7178757225783%)" />
  <rect x="65" y="400" width="30" height="30" fill="hsl(240 100% 98.50304433772746%)" />
  <rect x="100" y="400" width="30" height="30" fill="hsl(240 100% 99.40101775990831%)" />
  <rect x="135" y="400" width="30" height="30" fill="hsl(240 100% 99.67641779073364%)" />
  <rect x="170" y="400" width="30" height="30" fill="hsl(240 100% 95.47710626903424%)" />
  <rect x="205" y="400" width="30" height="30" fill="hsl(240 100% 99.24433577922109%)" />
  <rect x="240" y="400" width="30" height="30" fill="hsl(240 100% 86.00857057006438%)" />
  <rect x="275" y="400" width="30" height="30" fill="hsl(240 100% 95.33406350365186%)" />
  <rect x="310" y="400" width="30" height="30" fill="rgb(255 255 255 / 50%)" />
  <rect x="380" y="400" width="30" height="30" fill="rgb(255 255 255 / 50%)" />
  <rect x="415" y="400" width="30" height="30" fill="hsl(240 100% 94.0295540313241%)" />
  <rect x="450" y="400" width="30" height="30" fill="hsl(240 100% 99.97422943493049%)" />
  <rect x="485" y="400" width="30" height="30" fill="hsl(240 100% 78.80349034164097%)" />
  <rect x="520" y="400" width="30" height="30" fill="hsl(240 100% 50%)" />
  <rect x="555" y="400" width="30" height="30" fill="hsl(240 100% 99.12009396240313%)" />
  <rect x="660" y="400" width="30" height="30" fill="rgb(255 255 255 / 50%)" />
  <rect x="835" y="400" width="30" height="30" fill="hsl(240 100% 99.17732751763012%)" />
  <rect x="65" y="435" width="30" height="30" fill="hsl(240 100% 92.84319251738468%)" />
  <rect x="240" y="435" width="30" height="30" fill="hsl(240 100% 50%)" />
  <rect x="310" y="435" width="30" height="30" fill="hsl(240 100% 94.3244299938801%)" />
  <rect x="415" y="435" width="30" height="30" fill="hsl(240 100% 87.02574633555369%)" />
  <rect x="450" y="435" width="30" height="30" fill="hsl(240 100% 99.78450871655384%)" />
  <rect x="65" y="470" width="30" height="30" fill="hsl(240 100% 50%)" />
  <rect x="240" y="470" width="30" height="30" fill="hsl(240 100% 50.35378382885473%)" />
  <rect x="310" y="470" width="30" height="30" fill="hsl(240 100% 97.15246591025263%)" />
  <rect x="415" y="470" width="30" height="30" fill="hsl(240 100% 89.17963529826356%)" />
  <rect x="450" y="470" width="30" height="30" fill="hsl(240 100% 99.57215354295896%)" />
</svg>
