<svg xmlns="http://www.w3.org/2000/svg" viewBox="0 0 870 505">
  <rect x="0" y="0" width="870" height="505" rx="5" ry="5" fill="#222" />
  <text x="60" y="100" fill="white" font-family="sans-serif" font-weight="bold" font-size="12" text-anchor="end" dominant-baseline="middle">ba</text>
  <text x="60" y="135" fill="white" font-family="sans-serif" font-weight="bold" font-size="12" text-anchor="end" dominant-baseline="middle">det</text>
  <text x="60" y="170" fill="white" font-family="sans-serif" font-weight="bold" font-size="12" text-anchor="end" dominant-baseline="middle">gmm</text>
  <text x="60" y="205" fill="white" font-family="sans-serif" font-weight="bold" font-size="12" text-anchor="end" dominant-baseline="middle">hello</text>
  <text x="60" y="240" fill="white" font-family="sans-serif" font-weight="bold" font-size="12" text-anchor="end" dominant-baseline="middle">ht</text>
  <text x="60" y="275" fill="white" font-family="sans-serif" font-weight="bold" font-size="12" text-anchor="end" dominant-baseline="middle">kmeans</text>
  <text x="60" y="310" fill="white" font-family="sans-serif" font-weight="bold" font-size="12" text-anchor="end" dominant-baseline="middle">llsq</text>
  <text x="60" y="345" fill="white" font-family="sans-serif" font-weight="bold" font-size="12" text-anchor="end" dominant-baseline="middle">lse</text>
  <text x="60" y="380" fill="white" font-family="sans-serif" font-weight="bold" font-size="12" text-anchor="end" dominant-baseline="middle">lstm</text>
  <text x="60" y="415" fill="white" font-family="sans-serif" font-weight="bold" font-size="12" text-anchor="end" dominant-baseline="middle">ode</text>
  <text x="60" y="450" fill="white" font-family="sans-serif" font-weight="bold" font-size="12" text-anchor="end" dominant-baseline="middle">particle</text>
  <text x="60" y="485" fill="white" font-family="sans-serif" font-weight="bold" font-size="12" text-anchor="end" dominant-baseline="middle">saddle</text>
  <text x="80" y="80" fill="white" font-family="sans-serif" font-weight="bold" font-size="12" text-anchor="end" dominant-baseline="middle" transform="rotate(90 80 80)">ad-hpp</text>
  <text x="115" y="80" fill="white" font-family="sans-serif" font-weight="bold" font-size="12" text-anchor="end" dominant-baseline="middle" transform="rotate(90 115 80)">adept</text>
  <text x="150" y="80" fill="white" font-family="sans-serif" font-weight="bold" font-size="12" text-anchor="end" dominant-baseline="middle" transform="rotate(90 150 80)">adol-c</text>
  <text x="185" y="80" fill="white" font-family="sans-serif" font-weight="bold" font-size="12" text-anchor="end" dominant-baseline="middle" transform="rotate(90 185 80)">codipack</text>
  <text x="220" y="80" fill="white" font-family="sans-serif" font-weight="bold" font-size="12" text-anchor="end" dominant-baseline="middle" transform="rotate(90 220 80)">cppad</text>
  <text x="255" y="80" fill="white" font-family="sans-serif" font-weight="bold" font-size="12" text-anchor="end" dominant-baseline="middle" transform="rotate(90 255 80)">enzyme</text>
  <text x="290" y="80" fill="white" font-family="sans-serif" font-weight="bold" font-size="12" text-anchor="end" dominant-baseline="middle" transform="rotate(90 290 80)">enzyme-jl</text>
  <text x="325" y="80" fill="white" font-family="sans-serif" font-weight="bold" font-size="12" text-anchor="end" dominant-baseline="middle" transform="rotate(90 325 80)">finite</text>
  <text x="360" y="80" fill="white" font-family="sans-serif" font-weight="bold" font-size="12" text-anchor="end" dominant-baseline="middle" transform="rotate(90 360 80)">floretta</text>
  <text x="395" y="80" fill="white" font-family="sans-serif" font-weight="bold" font-size="12" text-anchor="end" dominant-baseline="middle" transform="rotate(90 395 80)">forwarddiff-jl</text>
  <text x="430" y="80" fill="white" font-family="sans-serif" font-weight="bold" font-size="12" text-anchor="end" dominant-baseline="middle" transform="rotate(90 430 80)">futhark</text>
  <text x="465" y="80" fill="white" font-family="sans-serif" font-weight="bold" font-size="12" text-anchor="end" dominant-baseline="middle" transform="rotate(90 465 80)">haskell</text>
  <text x="500" y="80" fill="white" font-family="sans-serif" font-weight="bold" font-size="12" text-anchor="end" dominant-baseline="middle" transform="rotate(90 500 80)">jax</text>
  <text x="535" y="80" fill="white" font-family="sans-serif" font-weight="bold" font-size="12" text-anchor="end" dominant-baseline="middle" transform="rotate(90 535 80)">manual</text>
  <text x="570" y="80" fill="white" font-family="sans-serif" font-weight="bold" font-size="12" text-anchor="end" dominant-baseline="middle" transform="rotate(90 570 80)">mooncake-jl</text>
  <text x="605" y="80" fill="white" font-family="sans-serif" font-weight="bold" font-size="12" text-anchor="end" dominant-baseline="middle" transform="rotate(90 605 80)">ocaml</text>
  <text x="640" y="80" fill="white" font-family="sans-serif" font-weight="bold" font-size="12" text-anchor="end" dominant-baseline="middle" transform="rotate(90 640 80)">pytorch</text>
  <text x="675" y="80" fill="white" font-family="sans-serif" font-weight="bold" font-size="12" text-anchor="end" dominant-baseline="middle" transform="rotate(90 675 80)">reversediff-jl</text>
  <text x="710" y="80" fill="white" font-family="sans-serif" font-weight="bold" font-size="12" text-anchor="end" dominant-baseline="middle" transform="rotate(90 710 80)">scilean</text>
  <text x="745" y="80" fill="white" font-family="sans-serif" font-weight="bold" font-size="12" text-anchor="end" dominant-baseline="middle" transform="rotate(90 745 80)">tapenade</text>
  <text x="780" y="80" fill="white" font-family="sans-serif" font-weight="bold" font-size="12" text-anchor="end" dominant-baseline="middle" transform="rotate(90 780 80)">tensorflow</text>
  <text x="815" y="80" fill="white" font-family="sans-serif" font-weight="bold" font-size="12" text-anchor="end" dominant-baseline="middle" transform="rotate(90 815 80)">tensorflow-js</text>
  <text x="850" y="80" fill="white" font-family="sans-serif" font-weight="bold" font-size="12" text-anchor="end" dominant-baseline="middle" transform="rotate(90 850 80)">zygote</text>
  <rect x="65" y="85" width="30" height="30" fill="hsl(240 100% 80.62805275055862%)" />
  <rect x="100" y="85" width="30" height="30" fill="hsl(240 100% 82.00042159970624%)" />
  <rect x="135" y="85" width="30" height="30" fill="hsl(240 100% 97.90569822008285%)" />
  <rect x="170" y="85" width="30" height="30" fill="hsl(240 100% 81.56301013434225%)" />
  <rect x="205" y="85" width="30" height="30" fill="hsl(240 100% 98.94418870271483%)" />
  <rect x="240" y="85" width="30" height="30" fill="hsl(240 100% 50%)" />
  <rect x="310" y="85" width="30" height="30" fill="hsl(240 100% 92.85405709268251%)" />
  <rect x="415" y="85" width="30" height="30" fill="hsl(240 100% 66.77063604275688%)" />
  <rect x="520" y="85" width="30" height="30" fill="hsl(240 100% 53.755610687283074%)" />
  <rect x="625" y="85" width="30" height="30" fill="rgb(255 255 255 / 50%)" />
  <rect x="730" y="85" width="30" height="30" fill="hsl(240 100% 74.02295164972927%)" />
  <rect x="765" y="85" width="30" height="30" fill="rgb(255 255 255 / 50%)" />
  <rect x="835" y="85" width="30" height="30" fill="hsl(240 100% 99.71876228719%)" />
  <rect x="65" y="120" width="30" height="30" fill="hsl(240 100% 50%)" />
  <rect x="100" y="120" width="30" height="30" fill="hsl(240 100% 82.9775638618214%)" />
  <rect x="135" y="120" width="30" height="30" fill="hsl(240 100% 85.27786875087072%)" />
  <rect x="170" y="120" width="30" height="30" fill="hsl(240 100% 51.975126964179594%)" />
  <rect x="205" y="120" width="30" height="30" fill="hsl(240 100% 92.67328279277382%)" />
  <rect x="240" y="120" width="30" height="30" fill="hsl(240 100% 91.71177153746996%)" />
  <rect x="275" y="120" width="30" height="30" fill="hsl(240 100% 99.35930984497563%)" />
  <rect x="310" y="120" width="30" height="30" fill="hsl(240 100% 98.99321260140248%)" />
  <rect x="380" y="120" width="30" height="30" fill="hsl(240 100% 93.3770314061906%)" />
  <rect x="415" y="120" width="30" height="30" fill="hsl(240 100% 94.60786186426066%)" />
  <rect x="450" y="120" width="30" height="30" fill="hsl(240 100% 97.87440027517975%)" />
  <rect x="520" y="120" width="30" height="30" fill="hsl(240 100% 79.51496103778183%)" />
  <rect x="555" y="120" width="30" height="30" fill="hsl(240 100% 92.06501711448509%)" />
  <rect x="660" y="120" width="30" height="30" fill="rgb(255 255 255 / 50%)" />
  <rect x="835" y="120" width="30" height="30" fill="rgb(255 255 255 / 50%)" />
  <rect x="65" y="155" width="30" height="30" fill="hsl(240 100% 98.41485221946157%)" />
  <rect x="100" y="155" width="30" height="30" fill="hsl(240 100% 98.83286622023434%)" />
  <rect x="135" y="155" width="30" height="30" fill="hsl(240 100% 99.13380285881406%)" />
  <rect x="170" y="155" width="30" height="30" fill="hsl(240 100% 98.01417432485619%)" />
  <rect x="205" y="155" width="30" height="30" fill="hsl(240 100% 99.84838516313884%)" />
  <rect x="240" y="155" width="30" height="30" fill="hsl(240 100% 91.21461642770313%)" />
  <rect x="275" y="155" width="30" height="30" fill="hsl(240 100% 93.35719738285394%)" />
  <rect x="310" y="155" width="30" height="30" fill="rgb(255 255 255 / 50%)" />
  <rect x="415" y="155" width="30" height="30" fill="hsl(240 100% 92.94657264903742%)" />
  <rect x="485" y="155" width="30" height="30" fill="hsl(240 100% 50%)" />
  <rect x="520" y="155" width="30" height="30" fill="hsl(240 100% 81.30152617112084%)" />
  <rect x="590" y="155" width="30" height="30" fill="hsl(240 100% 99.58736415478754%)" />
  <rect x="625" y="155" width="30" height="30" fill="hsl(240 100% 67.05700888509867%)" />
  <rect x="695" y="155" width="30" height="30" fill="hsl(240 100% 95.09570573730926%)" />
  <rect x="730" y="155" width="30" height="30" fill="hsl(240 100% 83.71214928955072%)" />
  <rect x="765" y="155" width="30" height="30" fill="hsl(240 100% 99.58350782362407%)" />
  <rect x="835" y="155" width="30" height="30" fill="hsl(240 100% 96.29474976660725%)" />
  <rect x="65" y="190" width="30" height="30" fill="hsl(240 100% 50%)" />
  <rect x="100" y="190" width="30" height="30" fill="hsl(240 100% 50%)" />
  <rect x="135" y="190" width="30" height="30" fill="hsl(240 100% 50%)" />
  <rect x="170" y="190" width="30" height="30" fill="hsl(240 100% 50%)" />
  <rect x="205" y="190" width="30" height="30" fill="hsl(240 100% 50%)" />
  <rect x="240" y="190" width="30" height="30" fill="hsl(240 100% 50%)" />
  <rect x="275" y="190" width="30" height="30" fill="hsl(240 100% 50%)" />
  <rect x="310" y="190" width="30" height="30" fill="hsl(240 100% 50%)" />
  <rect x="345" y="190" width="30" height="30" fill="hsl(240 100% 50%)" />
  <rect x="380" y="190" width="30" height="30" fill="hsl(240 100% 50%)" />
  <rect x="415" y="190" width="30" height="30" fill="hsl(240 100% 50%)" />
  <rect x="450" y="190" width="30" height="30" fill="hsl(240 100% 50%)" />
  <rect x="485" y="190" width="30" height="30" fill="hsl(240 100% 50%)" />
  <rect x="520" y="190" width="30" height="30" fill="hsl(240 100% 50%)" />
  <rect x="555" y="190" width="30" height="30" fill="hsl(240 100% 50%)" />
  <rect x="590" y="190" width="30" height="30" fill="hsl(240 100% 50%)" />
  <rect x="625" y="190" width="30" height="30" fill="hsl(240 100% 50%)" />
  <rect x="660" y="190" width="30" height="30" fill="hsl(240 100% 50%)" />
  <rect x="695" y="190" width="30" height="30" fill="hsl(240 100% 50%)" />
  <rect x="730" y="190" width="30" height="30" fill="hsl(240 100% 50%)" />
  <rect x="765" y="190" width="30" height="30" fill="hsl(240 100% 50%)" />
  <rect x="800" y="190" width="30" height="30" fill="hsl(240 100% 50%)" />
  <rect x="835" y="190" width="30" height="30" fill="hsl(240 100% 50%)" />
  <rect x="100" y="225" width="30" height="30" fill="hsl(240 100% 96.27650674020875%)" />
  <rect x="135" y="225" width="30" height="30" fill="hsl(240 100% 86.41739359333559%)" />
  <rect x="170" y="225" width="30" height="30" fill="hsl(240 100% 87.99824922255262%)" />
  <rect x="240" y="225" width="30" height="30" fill="hsl(240 100% 90.26673555669308%)" />
  <rect x="310" y="225" width="30" height="30" fill="rgb(255 255 255 / 50%)" />
  <rect x="415" y="225" width="30" height="30" fill="hsl(240 100% 89.36789861774439%)" />
  <rect x="520" y="225" width="30" height="30" fill="hsl(240 100% 50%)" />
  <rect x="625" y="225" width="30" height="30" fill="rgb(255 255 255 / 50%)" />
  <rect x="730" y="225" width="30" height="30" fill="hsl(240 100% 92.39283927581519%)" />
  <rect x="765" y="225" width="30" height="30" fill="rgb(255 255 255 / 50%)" />
  <rect x="835" y="225" width="30" height="30" fill="hsl(240 100% 93.54538893088865%)" />
  <rect x="65" y="260" width="30" height="30" fill="hsl(240 100% 99.88337988378426%)" />
  <rect x="135" y="260" width="30" height="30" fill="hsl(240 100% 99.85910507813136%)" />
  <rect x="170" y="260" width="30" height="30" fill="hsl(240 100% 98.92663495147872%)" />
  <rect x="205" y="260" width="30" height="30" fill="rgb(255 255 255 / 50%)" />
  <rect x="240" y="260" width="30" height="30" fill="hsl(240 100% 87.10301752784707%)" />
  <rect x="310" y="260" width="30" height="30" fill="rgb(255 255 255 / 50%)" />
  <rect x="415" y="260" width="30" height="30" fill="hsl(240 100% 80.99496369643322%)" />
  <rect x="450" y="260" width="30" height="30" fill="rgb(255 255 255 / 50%)" />
  <rect x="485" y="260" width="30" height="30" fill="hsl(240 100% 50%)" />
  <rect x="520" y="260" width="30" height="30" fill="hsl(240 100% 72.44383341713181%)" />
  <rect x="625" y="260" width="30" height="30" fill="hsl(240 100% 96.95712736583691%)" />
  <rect x="695" y="260" width="30" height="30" fill="hsl(240 100% 94.11976431150583%)" />
  <rect x="65" y="295" width="30" height="30" fill="hsl(240 100% 86.17274870168481%)" />
  <rect x="100" y="295" width="30" height="30" fill="hsl(240 100% 97.50420338610522%)" />
  <rect x="135" y="295" width="30" height="30" fill="hsl(240 100% 95.07818145872945%)" />
  <rect x="170" y="295" width="30" height="30" fill="hsl(240 100% 89.43052378610406%)" />
  <rect x="205" y="295" width="30" height="30" fill="hsl(240 100% 99.48818588905124%)" />
  <rect x="240" y="295" width="30" height="30" fill="hsl(240 100% 50.646885016692735%)" />
  <rect x="275" y="295" width="30" height="30" fill="hsl(240 100% 50%)" />
  <rect x="310" y="295" width="30" height="30" fill="hsl(240 100% 99.49990595646847%)" />
  <rect x="345" y="295" width="30" height="30" fill="hsl(240 100% 94.85793202441798%)" />
  <rect x="415" y="295" width="30" height="30" fill="hsl(240 100% 55.2666931692617%)" />
  <rect x="450" y="295" width="30" height="30" fill="hsl(240 100% 99.33047382224704%)" />
  <rect x="485" y="295" width="30" height="30" fill="hsl(240 100% 88.51011198255696%)" />
  <rect x="520" y="295" width="30" height="30" fill="hsl(240 100% 57.88351520399676%)" />
  <rect x="695" y="295" width="30" height="30" fill="hsl(240 100% 97.6232946408243%)" />
  <rect x="800" y="295" width="30" height="30" fill="hsl(240 100% 99.56396662659665%)" />
  <rect x="835" y="295" width="30" height="30" fill="hsl(240 100% 99.95470124932972%)" />
  <rect x="65" y="330" width="30" height="30" fill="hsl(240 100% 86.91815223355933%)" />
  <rect x="100" y="330" width="30" height="30" fill="hsl(240 100% 94.10982162932149%)" />
  <rect x="135" y="330" width="30" height="30" fill="hsl(240 100% 96.91224935158698%)" />
  <rect x="170" y="330" width="30" height="30" fill="hsl(240 100% 86.812017156933%)" />
  <rect x="205" y="330" width="30" height="30" fill="hsl(240 100% 99.16889206863485%)" />
  <rect x="240" y="330" width="30" height="30" fill="hsl(240 100% 79.20924440836768%)" />
  <rect x="275" y="330" width="30" height="30" fill="hsl(240 100% 87.24586493728768%)" />
  <rect x="310" y="330" width="30" height="30" fill="rgb(255 255 255 / 50%)" />
  <rect x="345" y="330" width="30" height="30" fill="hsl(240 100% 97.12349845401235%)" />
  <rect x="415" y="330" width="30" height="30" fill="hsl(240 100% 85.47246336335391%)" />
  <rect x="450" y="330" width="30" height="30" fill="hsl(240 100% 99.81374234585805%)" />
  <rect x="485" y="330" width="30" height="30" fill="hsl(240 100% 70.71594718029289%)" />
  <rect x="520" y="330" width="30" height="30" fill="hsl(240 100% 69.98277833721545%)" />
  <rect x="590" y="330" width="30" height="30" fill="hsl(240 100% 93.62311988355766%)" />
  <rect x="625" y="330" width="30" height="30" fill="hsl(240 100% 50%)" />
  <rect x="765" y="330" width="30" height="30" fill="hsl(240 100% 94.87874916164716%)" />
  <rect x="800" y="330" width="30" height="30" fill="hsl(240 100% 99.18567419423482%)" />
  <rect x="835" y="330" width="30" height="30" fill="hsl(240 100% 80.37341489515563%)" />
  <rect x="65" y="365" width="30" height="30" fill="hsl(240 100% 57.63272936641222%)" />
  <rect x="100" y="365" width="30" height="30" fill="hsl(240 100% 71.6313318327411%)" />
  <rect x="135" y="365" width="30" height="30" fill="hsl(240 100% 81.94070611165077%)" />
  <rect x="170" y="365" width="30" height="30" fill="hsl(240 100% 50%)" />
  <rect x="205" y="365" width="30" height="30" fill="hsl(240 100% 96.25328298297558%)" />
  <rect x="240" y="365" width="30" height="30" fill="hsl(240 100% 59.77694781545015%)" />
  <rect x="275" y="365" width="30" height="30" fill="hsl(240 100% 92.41454339650085%)" />
  <rect x="310" y="365" width="30" height="30" fill="hsl(240 100% 99.86337584869645%)" />
  <rect x="415" y="365" width="30" height="30" fill="hsl(240 100% 66.50913621795921%)" />
  <rect x="520" y="365" width="30" height="30" fill="hsl(240 100% 86.24159671074551%)" />
  <rect x="625" y="365" width="30" height="30" fill="hsl(240 100% 99.63326600341712%)" />
  <rect x="730" y="365" width="30" height="30" fill="hsl(240 100% 63.56797715178902%)" />
  <rect x="765" y="365" width="30" height="30" fill="hsl(240 100% 98.15605534955276%)" />
  <rect x="835" y="365" width="30" height="30" fill="hsl(240 100% 98.71096268970233%)" />
  <rect x="65" y="400" width="30" height="30" fill="hsl(240 100% 98.22758044696833%)" />
  <rect x="100" y="400" width="30" height="30" fill="hsl(240 100% 99.43223541505753%)" />
  <rect x="135" y="400" width="30" height="30" fill="hsl(240 100% 99.66527148261767%)" />
  <rect x="170" y="400" width="30" height="30" fill="hsl(240 100% 94.03652574365847%)" />
  <rect x="205" y="400" width="30" height="30" fill="hsl(240 100% 99.2447943088308%)" />
  <rect x="240" y="400" width="30" height="30" fill="hsl(240 100% 88.39658868761897%)" />
  <rect x="275" y="400" width="30" height="30" fill="hsl(240 100% 95.4534764662066%)" />
  <rect x="310" y="400" width="30" height="30" fill="rgb(255 255 255 / 50%)" />
  <rect x="380" y="400" width="30" height="30" fill="rgb(255 255 255 / 50%)" />
  <rect x="415" y="400" width="30" height="30" fill="hsl(240 100% 94.08476329754922%)" />
  <rect x="450" y="400" width="30" height="30" fill="hsl(240 100% 99.97471051243069%)" />
  <rect x="485" y="400" width="30" height="30" fill="hsl(240 100% 79.1477070689939%)" />
  <rect x="520" y="400" width="30" height="30" fill="hsl(240 100% 50%)" />
  <rect x="555" y="400" width="30" height="30" fill="hsl(240 100% 99.12773704108294%)" />
  <rect x="660" y="400" width="30" height="30" fill="rgb(255 255 255 / 50%)" />
  <rect x="835" y="400" width="30" height="30" fill="hsl(240 100% 99.1866978746775%)" />
  <rect x="65" y="435" width="30" height="30" fill="hsl(240 100% 93.2944156990355%)" />
  <rect x="240" y="435" width="30" height="30" fill="hsl(240 100% 50%)" />
  <rect x="310" y="435" width="30" height="30" fill="hsl(240 100% 93.8556157850151%)" />
  <rect x="415" y="435" width="30" height="30" fill="hsl(240 100% 86.99514960951328%)" />
  <rect x="450" y="435" width="30" height="30" fill="hsl(240 100% 99.8096158899079%)" />
  <rect x="65" y="470" width="30" height="30" fill="hsl(240 100% 50%)" />
  <rect x="240" y="470" width="30" height="30" fill="hsl(240 100% 50.33977916248414%)" />
  <rect x="310" y="470" width="30" height="30" fill="hsl(240 100% 96.96980203128813%)" />
  <rect x="415" y="470" width="30" height="30" fill="hsl(240 100% 89.33855370835566%)" />
  <rect x="450" y="470" width="30" height="30" fill="hsl(240 100% 99.57877783062521%)" />
</svg>
