<svg xmlns="http://www.w3.org/2000/svg" viewBox="0 0 695 470">
  <rect x="0" y="0" width="695" height="470" rx="5" ry="5" fill="#222" />
  <text x="60" y="100" fill="white" font-family="sans-serif" font-weight="bold" font-size="12" text-anchor="end" dominant-baseline="middle">ba</text>
  <text x="60" y="135" fill="white" font-family="sans-serif" font-weight="bold" font-size="12" text-anchor="end" dominant-baseline="middle">det</text>
  <text x="60" y="170" fill="white" font-family="sans-serif" font-weight="bold" font-size="12" text-anchor="end" dominant-baseline="middle">gmm</text>
  <text x="60" y="205" fill="white" font-family="sans-serif" font-weight="bold" font-size="12" text-anchor="end" dominant-baseline="middle">hello</text>
  <text x="60" y="240" fill="white" font-family="sans-serif" font-weight="bold" font-size="12" text-anchor="end" dominant-baseline="middle">ht</text>
  <text x="60" y="275" fill="white" font-family="sans-serif" font-weight="bold" font-size="12" text-anchor="end" dominant-baseline="middle">kmeans</text>
  <text x="60" y="310" fill="white" font-family="sans-serif" font-weight="bold" font-size="12" text-anchor="end" dominant-baseline="middle">llsq</text>
  <text x="60" y="345" fill="white" font-family="sans-serif" font-weight="bold" font-size="12" text-anchor="end" dominant-baseline="middle">lstm</text>
  <text x="60" y="380" fill="white" font-family="sans-serif" font-weight="bold" font-size="12" text-anchor="end" dominant-baseline="middle">ode</text>
  <text x="60" y="415" fill="white" font-family="sans-serif" font-weight="bold" font-size="12" text-anchor="end" dominant-baseline="middle">particle</text>
  <text x="60" y="450" fill="white" font-family="sans-serif" font-weight="bold" font-size="12" text-anchor="end" dominant-baseline="middle">saddle</text>
  <text x="80" y="80" fill="white" font-family="sans-serif" font-weight="bold" font-size="12" text-anchor="end" dominant-baseline="middle" transform="rotate(90 80 80)">adept</text>
  <text x="115" y="80" fill="white" font-family="sans-serif" font-weight="bold" font-size="12" text-anchor="end" dominant-baseline="middle" transform="rotate(90 115 80)">adol-c</text>
  <text x="150" y="80" fill="white" font-family="sans-serif" font-weight="bold" font-size="12" text-anchor="end" dominant-baseline="middle" transform="rotate(90 150 80)">codipack</text>
  <text x="185" y="80" fill="white" font-family="sans-serif" font-weight="bold" font-size="12" text-anchor="end" dominant-baseline="middle" transform="rotate(90 185 80)">cppad</text>
  <text x="220" y="80" fill="white" font-family="sans-serif" font-weight="bold" font-size="12" text-anchor="end" dominant-baseline="middle" transform="rotate(90 220 80)">enzyme</text>
  <text x="255" y="80" fill="white" font-family="sans-serif" font-weight="bold" font-size="12" text-anchor="end" dominant-baseline="middle" transform="rotate(90 255 80)">enzyme-jl</text>
  <text x="290" y="80" fill="white" font-family="sans-serif" font-weight="bold" font-size="12" text-anchor="end" dominant-baseline="middle" transform="rotate(90 290 80)">finite</text>
  <text x="325" y="80" fill="white" font-family="sans-serif" font-weight="bold" font-size="12" text-anchor="end" dominant-baseline="middle" transform="rotate(90 325 80)">floretta</text>
  <text x="360" y="80" fill="white" font-family="sans-serif" font-weight="bold" font-size="12" text-anchor="end" dominant-baseline="middle" transform="rotate(90 360 80)">futhark</text>
  <text x="395" y="80" fill="white" font-family="sans-serif" font-weight="bold" font-size="12" text-anchor="end" dominant-baseline="middle" transform="rotate(90 395 80)">haskell</text>
  <text x="430" y="80" fill="white" font-family="sans-serif" font-weight="bold" font-size="12" text-anchor="end" dominant-baseline="middle" transform="rotate(90 430 80)">jax</text>
  <text x="465" y="80" fill="white" font-family="sans-serif" font-weight="bold" font-size="12" text-anchor="end" dominant-baseline="middle" transform="rotate(90 465 80)">manual</text>
  <text x="500" y="80" fill="white" font-family="sans-serif" font-weight="bold" font-size="12" text-anchor="end" dominant-baseline="middle" transform="rotate(90 500 80)">ocaml</text>
  <text x="535" y="80" fill="white" font-family="sans-serif" font-weight="bold" font-size="12" text-anchor="end" dominant-baseline="middle" transform="rotate(90 535 80)">pytorch</text>
  <text x="570" y="80" fill="white" font-family="sans-serif" font-weight="bold" font-size="12" text-anchor="end" dominant-baseline="middle" transform="rotate(90 570 80)">scilean</text>
  <text x="605" y="80" fill="white" font-family="sans-serif" font-weight="bold" font-size="12" text-anchor="end" dominant-baseline="middle" transform="rotate(90 605 80)">tapenade</text>
  <text x="640" y="80" fill="white" font-family="sans-serif" font-weight="bold" font-size="12" text-anchor="end" dominant-baseline="middle" transform="rotate(90 640 80)">tensorflow</text>
  <text x="675" y="80" fill="white" font-family="sans-serif" font-weight="bold" font-size="12" text-anchor="end" dominant-baseline="middle" transform="rotate(90 675 80)">zygote</text>
  <rect x="65" y="85" width="30" height="30" fill="hsl(240 100% 83.6633762787259%)" />
  <rect x="100" y="85" width="30" height="30" fill="hsl(240 100% 97.82792541684876%)" />
  <rect x="135" y="85" width="30" height="30" fill="hsl(240 100% 88.98265680222148%)" />
  <rect x="205" y="85" width="30" height="30" fill="hsl(240 100% 51.031722802780116%)" />
  <rect x="275" y="85" width="30" height="30" fill="hsl(240 100% 92.65996165092112%)" />
  <rect x="345" y="85" width="30" height="30" fill="hsl(240 100% 68.4695747071723%)" />
  <rect x="450" y="85" width="30" height="30" fill="hsl(240 100% 50%)" />
  <rect x="520" y="85" width="30" height="30" fill="rgb(255 255 255 / 50%)" />
  <rect x="590" y="85" width="30" height="30" fill="hsl(240 100% 72.62598139116263%)" />
  <rect x="625" y="85" width="30" height="30" fill="rgb(255 255 255 / 50%)" />
  <rect x="65" y="120" width="30" height="30" fill="hsl(240 100% 83.76376860214795%)" />
  <rect x="100" y="120" width="30" height="30" fill="hsl(240 100% 85.27624906704095%)" />
  <rect x="135" y="120" width="30" height="30" fill="hsl(240 100% 50%)" />
  <rect x="170" y="120" width="30" height="30" fill="hsl(240 100% 92.60722856549184%)" />
  <rect x="205" y="120" width="30" height="30" fill="hsl(240 100% 91.77840390223069%)" />
  <rect x="275" y="120" width="30" height="30" fill="hsl(240 100% 98.96365404015715%)" />
  <rect x="345" y="120" width="30" height="30" fill="hsl(240 100% 94.64141142532608%)" />
  <rect x="380" y="120" width="30" height="30" fill="hsl(240 100% 97.89003376180769%)" />
  <rect x="450" y="120" width="30" height="30" fill="hsl(240 100% 79.29501851498638%)" />
  <rect x="65" y="155" width="30" height="30" fill="hsl(240 100% 98.33998220965448%)" />
  <rect x="100" y="155" width="30" height="30" fill="hsl(240 100% 98.81109776705064%)" />
  <rect x="135" y="155" width="30" height="30" fill="hsl(240 100% 97.15388785672903%)" />
  <rect x="170" y="155" width="30" height="30" fill="hsl(240 100% 99.76826349498958%)" />
  <rect x="205" y="155" width="30" height="30" fill="hsl(240 100% 86.76137361578277%)" />
  <rect x="275" y="155" width="30" height="30" fill="rgb(255 255 255 / 50%)" />
  <rect x="345" y="155" width="30" height="30" fill="hsl(240 100% 89.90975607132171%)" />
  <rect x="415" y="155" width="30" height="30" fill="hsl(240 100% 72.23686827437021%)" />
  <rect x="450" y="155" width="30" height="30" fill="hsl(240 100% 75.09165754720695%)" />
  <rect x="485" y="155" width="30" height="30" fill="hsl(240 100% 99.36117755055571%)" />
  <rect x="520" y="155" width="30" height="30" fill="hsl(240 100% 50%)" />
  <rect x="555" y="155" width="30" height="30" fill="hsl(240 100% 92.53730705588178%)" />
  <rect x="590" y="155" width="30" height="30" fill="hsl(240 100% 75.86673207134083%)" />
  <rect x="625" y="155" width="30" height="30" fill="hsl(240 100% 89.01459959464559%)" />
  <rect x="65" y="190" width="30" height="30" fill="hsl(240 100% 50%)" />
  <rect x="100" y="190" width="30" height="30" fill="hsl(240 100% 50%)" />
  <rect x="135" y="190" width="30" height="30" fill="hsl(240 100% 50%)" />
  <rect x="170" y="190" width="30" height="30" fill="hsl(240 100% 50%)" />
  <rect x="205" y="190" width="30" height="30" fill="hsl(240 100% 50%)" />
  <rect x="240" y="190" width="30" height="30" fill="hsl(240 100% 50%)" />
  <rect x="275" y="190" width="30" height="30" fill="hsl(240 100% 50%)" />
  <rect x="310" y="190" width="30" height="30" fill="hsl(240 100% 50%)" />
  <rect x="345" y="190" width="30" height="30" fill="hsl(240 100% 50%)" />
  <rect x="380" y="190" width="30" height="30" fill="hsl(240 100% 50%)" />
  <rect x="415" y="190" width="30" height="30" fill="hsl(240 100% 50%)" />
  <rect x="450" y="190" width="30" height="30" fill="hsl(240 100% 50%)" />
  <rect x="485" y="190" width="30" height="30" fill="hsl(240 100% 50%)" />
  <rect x="520" y="190" width="30" height="30" fill="hsl(240 100% 50%)" />
  <rect x="555" y="190" width="30" height="30" fill="hsl(240 100% 50%)" />
  <rect x="590" y="190" width="30" height="30" fill="hsl(240 100% 50%)" />
  <rect x="625" y="190" width="30" height="30" fill="hsl(240 100% 50%)" />
  <rect x="660" y="190" width="30" height="30" fill="hsl(240 100% 50%)" />
  <rect x="65" y="225" width="30" height="30" fill="hsl(240 100% 96.08534275615686%)" />
  <rect x="100" y="225" width="30" height="30" fill="hsl(240 100% 90.21368349909397%)" />
  <rect x="135" y="225" width="30" height="30" fill="hsl(240 100% 88.35511625059058%)" />
  <rect x="205" y="225" width="30" height="30" fill="hsl(240 100% 90.29323758577195%)" />
  <rect x="275" y="225" width="30" height="30" fill="rgb(255 255 255 / 50%)" />
  <rect x="345" y="225" width="30" height="30" fill="hsl(240 100% 89.71108630348814%)" />
  <rect x="450" y="225" width="30" height="30" fill="hsl(240 100% 50%)" />
  <rect x="520" y="225" width="30" height="30" fill="rgb(255 255 255 / 50%)" />
  <rect x="590" y="225" width="30" height="30" fill="rgb(255 255 255 / 50%)" />
  <rect x="625" y="225" width="30" height="30" fill="rgb(255 255 255 / 50%)" />
  <rect x="100" y="260" width="30" height="30" fill="hsl(240 100% 99.8766363510886%)" />
  <rect x="135" y="260" width="30" height="30" fill="hsl(240 100% 99.41730060782085%)" />
  <rect x="170" y="260" width="30" height="30" fill="rgb(255 255 255 / 50%)" />
  <rect x="205" y="260" width="30" height="30" fill="hsl(240 100% 87.91026183550167%)" />
  <rect x="275" y="260" width="30" height="30" fill="rgb(255 255 255 / 50%)" />
  <rect x="345" y="260" width="30" height="30" fill="hsl(240 100% 83.05381528717561%)" />
  <rect x="380" y="260" width="30" height="30" fill="rgb(255 255 255 / 50%)" />
  <rect x="415" y="260" width="30" height="30" fill="hsl(240 100% 50%)" />
  <rect x="450" y="260" width="30" height="30" fill="hsl(240 100% 76.51733963640872%)" />
  <rect x="520" y="260" width="30" height="30" fill="hsl(240 100% 96.98987744782774%)" />
  <rect x="555" y="260" width="30" height="30" fill="hsl(240 100% 94.13841170393313%)" />
  <rect x="65" y="295" width="30" height="30" fill="hsl(240 100% 67.43657211027734%)" />
  <rect x="100" y="295" width="30" height="30" fill="hsl(240 100% 59.603005277443266%)" />
  <rect x="135" y="295" width="30" height="30" fill="hsl(240 100% 59.88264727445275%)" />
  <rect x="170" y="295" width="30" height="30" fill="hsl(240 100% 91.34406910943721%)" />
  <rect x="205" y="295" width="30" height="30" fill="hsl(240 100% 50%)" />
  <rect x="275" y="295" width="30" height="30" fill="hsl(240 100% 99.42767465232295%)" />
  <rect x="345" y="295" width="30" height="30" fill="hsl(240 100% 50.87333372749987%)" />
  <rect x="380" y="295" width="30" height="30" fill="hsl(240 100% 89.63506046574551%)" />
  <rect x="450" y="295" width="30" height="30" fill="hsl(240 100% 53.45812692205271%)" />
  <rect x="555" y="295" width="30" height="30" fill="hsl(240 100% 55.238041711619275%)" />
  <rect x="65" y="330" width="30" height="30" fill="hsl(240 100% 70.90328971207508%)" />
  <rect x="100" y="330" width="30" height="30" fill="hsl(240 100% 80.61212901477107%)" />
  <rect x="135" y="330" width="30" height="30" fill="hsl(240 100% 50%)" />
  <rect x="170" y="330" width="30" height="30" fill="hsl(240 100% 95.8009986129249%)" />
  <rect x="205" y="330" width="30" height="30" fill="hsl(240 100% 50.449523416033216%)" />
  <rect x="275" y="330" width="30" height="30" fill="hsl(240 100% 99.84971877556127%)" />
  <rect x="345" y="330" width="30" height="30" fill="hsl(240 100% 63.06962423819695%)" />
  <rect x="450" y="330" width="30" height="30" fill="hsl(240 100% 84.63911169582252%)" />
  <rect x="520" y="330" width="30" height="30" fill="hsl(240 100% 99.59065211265067%)" />
  <rect x="590" y="330" width="30" height="30" fill="hsl(240 100% 59.20622421639524%)" />
  <rect x="625" y="330" width="30" height="30" fill="hsl(240 100% 98.01748286024613%)" />
  <rect x="65" y="365" width="30" height="30" fill="hsl(240 100% 99.23693714411998%)" />
  <rect x="100" y="365" width="30" height="30" fill="hsl(240 100% 99.5403745717273%)" />
  <rect x="135" y="365" width="30" height="30" fill="hsl(240 100% 93.81235154910334%)" />
  <rect x="170" y="365" width="30" height="30" fill="hsl(240 100% 98.9758819501877%)" />
  <rect x="205" y="365" width="30" height="30" fill="hsl(240 100% 86.67915446766162%)" />
  <rect x="240" y="365" width="30" height="30" fill="hsl(240 100% 99.0521456041756%)" />
  <rect x="275" y="365" width="30" height="30" fill="rgb(255 255 255 / 50%)" />
  <rect x="345" y="365" width="30" height="30" fill="hsl(240 100% 95.42610648273585%)" />
  <rect x="380" y="365" width="30" height="30" fill="hsl(240 100% 99.96660254045817%)" />
  <rect x="450" y="365" width="30" height="30" fill="hsl(240 100% 50%)" />
  <rect x="205" y="400" width="30" height="30" fill="hsl(240 100% 50%)" />
  <rect x="275" y="400" width="30" height="30" fill="hsl(240 100% 95.20904961608687%)" />
  <rect x="345" y="400" width="30" height="30" fill="hsl(240 100% 87.93994286949359%)" />
  <rect x="380" y="400" width="30" height="30" fill="hsl(240 100% 99.77626663056098%)" />
  <rect x="205" y="435" width="30" height="30" fill="hsl(240 100% 50%)" />
  <rect x="275" y="435" width="30" height="30" fill="hsl(240 100% 95.80775131302005%)" />
  <rect x="345" y="435" width="30" height="30" fill="hsl(240 100% 89.17851902637427%)" />
  <rect x="380" y="435" width="30" height="30" fill="hsl(240 100% 99.55049553801003%)" />
</svg>
