<svg xmlns="http://www.w3.org/2000/svg" viewBox="0 0 730 505">
  <rect x="0" y="0" width="730" height="505" rx="5" ry="5" fill="#222" />
  <text x="60" y="100" fill="white" font-family="sans-serif" font-weight="bold" font-size="12" text-anchor="end" dominant-baseline="middle">ba</text>
  <text x="60" y="135" fill="white" font-family="sans-serif" font-weight="bold" font-size="12" text-anchor="end" dominant-baseline="middle">det</text>
  <text x="60" y="170" fill="white" font-family="sans-serif" font-weight="bold" font-size="12" text-anchor="end" dominant-baseline="middle">gmm</text>
  <text x="60" y="205" fill="white" font-family="sans-serif" font-weight="bold" font-size="12" text-anchor="end" dominant-baseline="middle">hello</text>
  <text x="60" y="240" fill="white" font-family="sans-serif" font-weight="bold" font-size="12" text-anchor="end" dominant-baseline="middle">ht</text>
  <text x="60" y="275" fill="white" font-family="sans-serif" font-weight="bold" font-size="12" text-anchor="end" dominant-baseline="middle">kmeans</text>
  <text x="60" y="310" fill="white" font-family="sans-serif" font-weight="bold" font-size="12" text-anchor="end" dominant-baseline="middle">llsq</text>
  <text x="60" y="345" fill="white" font-family="sans-serif" font-weight="bold" font-size="12" text-anchor="end" dominant-baseline="middle">lse</text>
  <text x="60" y="380" fill="white" font-family="sans-serif" font-weight="bold" font-size="12" text-anchor="end" dominant-baseline="middle">lstm</text>
  <text x="60" y="415" fill="white" font-family="sans-serif" font-weight="bold" font-size="12" text-anchor="end" dominant-baseline="middle">ode</text>
  <text x="60" y="450" fill="white" font-family="sans-serif" font-weight="bold" font-size="12" text-anchor="end" dominant-baseline="middle">particle</text>
  <text x="60" y="485" fill="white" font-family="sans-serif" font-weight="bold" font-size="12" text-anchor="end" dominant-baseline="middle">saddle</text>
  <text x="80" y="80" fill="white" font-family="sans-serif" font-weight="bold" font-size="12" text-anchor="end" dominant-baseline="middle" transform="rotate(90 80 80)">ad-hpp</text>
  <text x="115" y="80" fill="white" font-family="sans-serif" font-weight="bold" font-size="12" text-anchor="end" dominant-baseline="middle" transform="rotate(90 115 80)">adept</text>
  <text x="150" y="80" fill="white" font-family="sans-serif" font-weight="bold" font-size="12" text-anchor="end" dominant-baseline="middle" transform="rotate(90 150 80)">adol-c</text>
  <text x="185" y="80" fill="white" font-family="sans-serif" font-weight="bold" font-size="12" text-anchor="end" dominant-baseline="middle" transform="rotate(90 185 80)">codipack</text>
  <text x="220" y="80" fill="white" font-family="sans-serif" font-weight="bold" font-size="12" text-anchor="end" dominant-baseline="middle" transform="rotate(90 220 80)">cppad</text>
  <text x="255" y="80" fill="white" font-family="sans-serif" font-weight="bold" font-size="12" text-anchor="end" dominant-baseline="middle" transform="rotate(90 255 80)">enzyme</text>
  <text x="290" y="80" fill="white" font-family="sans-serif" font-weight="bold" font-size="12" text-anchor="end" dominant-baseline="middle" transform="rotate(90 290 80)">enzyme-jl</text>
  <text x="325" y="80" fill="white" font-family="sans-serif" font-weight="bold" font-size="12" text-anchor="end" dominant-baseline="middle" transform="rotate(90 325 80)">finite</text>
  <text x="360" y="80" fill="white" font-family="sans-serif" font-weight="bold" font-size="12" text-anchor="end" dominant-baseline="middle" transform="rotate(90 360 80)">floretta</text>
  <text x="395" y="80" fill="white" font-family="sans-serif" font-weight="bold" font-size="12" text-anchor="end" dominant-baseline="middle" transform="rotate(90 395 80)">futhark</text>
  <text x="430" y="80" fill="white" font-family="sans-serif" font-weight="bold" font-size="12" text-anchor="end" dominant-baseline="middle" transform="rotate(90 430 80)">haskell</text>
  <text x="465" y="80" fill="white" font-family="sans-serif" font-weight="bold" font-size="12" text-anchor="end" dominant-baseline="middle" transform="rotate(90 465 80)">jax</text>
  <text x="500" y="80" fill="white" font-family="sans-serif" font-weight="bold" font-size="12" text-anchor="end" dominant-baseline="middle" transform="rotate(90 500 80)">manual</text>
  <text x="535" y="80" fill="white" font-family="sans-serif" font-weight="bold" font-size="12" text-anchor="end" dominant-baseline="middle" transform="rotate(90 535 80)">ocaml</text>
  <text x="570" y="80" fill="white" font-family="sans-serif" font-weight="bold" font-size="12" text-anchor="end" dominant-baseline="middle" transform="rotate(90 570 80)">pytorch</text>
  <text x="605" y="80" fill="white" font-family="sans-serif" font-weight="bold" font-size="12" text-anchor="end" dominant-baseline="middle" transform="rotate(90 605 80)">scilean</text>
  <text x="640" y="80" fill="white" font-family="sans-serif" font-weight="bold" font-size="12" text-anchor="end" dominant-baseline="middle" transform="rotate(90 640 80)">tapenade</text>
  <text x="675" y="80" fill="white" font-family="sans-serif" font-weight="bold" font-size="12" text-anchor="end" dominant-baseline="middle" transform="rotate(90 675 80)">tensorflow</text>
  <text x="710" y="80" fill="white" font-family="sans-serif" font-weight="bold" font-size="12" text-anchor="end" dominant-baseline="middle" transform="rotate(90 710 80)">zygote</text>
  <rect x="65" y="85" width="30" height="30" fill="hsl(240 100% 80.29600362567642%)" />
  <rect x="100" y="85" width="30" height="30" fill="hsl(240 100% 82.8087210388416%)" />
  <rect x="135" y="85" width="30" height="30" fill="hsl(240 100% 97.98227389159292%)" />
  <rect x="170" y="85" width="30" height="30" fill="hsl(240 100% 82.32923940281947%)" />
  <rect x="205" y="85" width="30" height="30" fill="hsl(240 100% 98.99187254051324%)" />
  <rect x="240" y="85" width="30" height="30" fill="hsl(240 100% 51.398317191334755%)" />
  <rect x="310" y="85" width="30" height="30" fill="hsl(240 100% 92.87711211005178%)" />
  <rect x="380" y="85" width="30" height="30" fill="hsl(240 100% 67.94716201776197%)" />
  <rect x="485" y="85" width="30" height="30" fill="hsl(240 100% 50%)" />
  <rect x="555" y="85" width="30" height="30" fill="rgb(255 255 255 / 50%)" />
  <rect x="625" y="85" width="30" height="30" fill="hsl(240 100% 74.82803133948438%)" />
  <rect x="660" y="85" width="30" height="30" fill="rgb(255 255 255 / 50%)" />
  <rect x="695" y="85" width="30" height="30" fill="hsl(240 100% 99.73403702683262%)" />
  <rect x="65" y="120" width="30" height="30" fill="hsl(240 100% 50%)" />
  <rect x="100" y="120" width="30" height="30" fill="hsl(240 100% 83.64439470591802%)" />
  <rect x="135" y="120" width="30" height="30" fill="hsl(240 100% 85.55987070615305%)" />
  <rect x="170" y="120" width="30" height="30" fill="hsl(240 100% 51.71017670683554%)" />
  <rect x="205" y="120" width="30" height="30" fill="hsl(240 100% 92.45908521657886%)" />
  <rect x="240" y="120" width="30" height="30" fill="hsl(240 100% 91.49145141034276%)" />
  <rect x="275" y="120" width="30" height="30" fill="hsl(240 100% 99.4731463054204%)" />
  <rect x="310" y="120" width="30" height="30" fill="hsl(240 100% 98.97315595477198%)" />
  <rect x="380" y="120" width="30" height="30" fill="hsl(240 100% 94.53069339832365%)" />
  <rect x="415" y="120" width="30" height="30" fill="hsl(240 100% 97.91078935817882%)" />
  <rect x="485" y="120" width="30" height="30" fill="hsl(240 100% 79.4458402450876%)" />
  <rect x="695" y="120" width="30" height="30" fill="rgb(255 255 255 / 50%)" />
  <rect x="65" y="155" width="30" height="30" fill="hsl(240 100% 97.21531472949748%)" />
  <rect x="100" y="155" width="30" height="30" fill="hsl(240 100% 98.30495435186646%)" />
  <rect x="135" y="155" width="30" height="30" fill="hsl(240 100% 98.83120540199302%)" />
  <rect x="170" y="155" width="30" height="30" fill="hsl(240 100% 97.27932135757534%)" />
  <rect x="205" y="155" width="30" height="30" fill="hsl(240 100% 99.78109990999769%)" />
  <rect x="240" y="155" width="30" height="30" fill="hsl(240 100% 86.75105429343276%)" />
  <rect x="275" y="155" width="30" height="30" fill="hsl(240 100% 99.83485940783538%)" />
  <rect x="310" y="155" width="30" height="30" fill="rgb(255 255 255 / 50%)" />
  <rect x="380" y="155" width="30" height="30" fill="hsl(240 100% 89.33337823886717%)" />
  <rect x="450" y="155" width="30" height="30" fill="hsl(240 100% 71.97427366097008%)" />
  <rect x="485" y="155" width="30" height="30" fill="hsl(240 100% 72.80481051462287%)" />
  <rect x="520" y="155" width="30" height="30" fill="hsl(240 100% 99.37149396244736%)" />
  <rect x="555" y="155" width="30" height="30" fill="hsl(240 100% 50%)" />
  <rect x="590" y="155" width="30" height="30" fill="hsl(240 100% 92.7777906043328%)" />
  <rect x="625" y="155" width="30" height="30" fill="hsl(240 100% 76.56367516342533%)" />
  <rect x="660" y="155" width="30" height="30" fill="hsl(240 100% 89.2567744268658%)" />
  <rect x="695" y="155" width="30" height="30" fill="hsl(240 100% 99.36950258297165%)" />
  <rect x="65" y="190" width="30" height="30" fill="hsl(240 100% 50%)" />
  <rect x="100" y="190" width="30" height="30" fill="hsl(240 100% 50%)" />
  <rect x="135" y="190" width="30" height="30" fill="hsl(240 100% 50%)" />
  <rect x="170" y="190" width="30" height="30" fill="hsl(240 100% 50%)" />
  <rect x="205" y="190" width="30" height="30" fill="hsl(240 100% 50%)" />
  <rect x="240" y="190" width="30" height="30" fill="hsl(240 100% 50%)" />
  <rect x="275" y="190" width="30" height="30" fill="hsl(240 100% 50%)" />
  <rect x="310" y="190" width="30" height="30" fill="hsl(240 100% 50%)" />
  <rect x="345" y="190" width="30" height="30" fill="hsl(240 100% 50%)" />
  <rect x="380" y="190" width="30" height="30" fill="hsl(240 100% 50%)" />
  <rect x="415" y="190" width="30" height="30" fill="hsl(240 100% 50%)" />
  <rect x="450" y="190" width="30" height="30" fill="hsl(240 100% 50%)" />
  <rect x="485" y="190" width="30" height="30" fill="hsl(240 100% 50%)" />
  <rect x="520" y="190" width="30" height="30" fill="hsl(240 100% 50%)" />
  <rect x="555" y="190" width="30" height="30" fill="hsl(240 100% 50%)" />
  <rect x="590" y="190" width="30" height="30" fill="hsl(240 100% 50%)" />
  <rect x="625" y="190" width="30" height="30" fill="hsl(240 100% 50%)" />
  <rect x="660" y="190" width="30" height="30" fill="hsl(240 100% 50%)" />
  <rect x="695" y="190" width="30" height="30" fill="hsl(240 100% 50%)" />
  <rect x="100" y="225" width="30" height="30" fill="hsl(240 100% 96.32938013558866%)" />
  <rect x="135" y="225" width="30" height="30" fill="hsl(240 100% 90.59837182461597%)" />
  <rect x="170" y="225" width="30" height="30" fill="hsl(240 100% 89.16270900059547%)" />
  <rect x="240" y="225" width="30" height="30" fill="hsl(240 100% 90.98555136921335%)" />
  <rect x="310" y="225" width="30" height="30" fill="rgb(255 255 255 / 50%)" />
  <rect x="380" y="225" width="30" height="30" fill="hsl(240 100% 90.57936012170902%)" />
  <rect x="485" y="225" width="30" height="30" fill="hsl(240 100% 50%)" />
  <rect x="555" y="225" width="30" height="30" fill="rgb(255 255 255 / 50%)" />
  <rect x="625" y="225" width="30" height="30" fill="hsl(240 100% 93.18274741559442%)" />
  <rect x="660" y="225" width="30" height="30" fill="rgb(255 255 255 / 50%)" />
  <rect x="695" y="225" width="30" height="30" fill="hsl(240 100% 99.49025992332444%)" />
  <rect x="65" y="260" width="30" height="30" fill="hsl(240 100% 99.88556340206898%)" />
  <rect x="135" y="260" width="30" height="30" fill="hsl(240 100% 99.86739129394918%)" />
  <rect x="170" y="260" width="30" height="30" fill="hsl(240 100% 98.9849730701304%)" />
  <rect x="205" y="260" width="30" height="30" fill="rgb(255 255 255 / 50%)" />
  <rect x="240" y="260" width="30" height="30" fill="hsl(240 100% 87.17767753834046%)" />
  <rect x="310" y="260" width="30" height="30" fill="rgb(255 255 255 / 50%)" />
  <rect x="380" y="260" width="30" height="30" fill="hsl(240 100% 81.0473109801793%)" />
  <rect x="415" y="260" width="30" height="30" fill="rgb(255 255 255 / 50%)" />
  <rect x="450" y="260" width="30" height="30" fill="hsl(240 100% 50%)" />
  <rect x="485" y="260" width="30" height="30" fill="hsl(240 100% 71.34410690859876%)" />
  <rect x="555" y="260" width="30" height="30" fill="hsl(240 100% 97.03960072345556%)" />
  <rect x="590" y="260" width="30" height="30" fill="hsl(240 100% 94.0806293639047%)" />
  <rect x="65" y="295" width="30" height="30" fill="hsl(240 100% 85.66190283756876%)" />
  <rect x="100" y="295" width="30" height="30" fill="hsl(240 100% 97.48880826288134%)" />
  <rect x="135" y="295" width="30" height="30" fill="hsl(240 100% 95.16442542651455%)" />
  <rect x="170" y="295" width="30" height="30" fill="hsl(240 100% 90.55479866254788%)" />
  <rect x="205" y="295" width="30" height="30" fill="hsl(240 100% 99.4472430825988%)" />
  <rect x="240" y="295" width="30" height="30" fill="hsl(240 100% 50%)" />
  <rect x="275" y="295" width="30" height="30" fill="hsl(240 100% 99.86018495891412%)" />
  <rect x="310" y="295" width="30" height="30" fill="hsl(240 100% 99.49303305385129%)" />
  <rect x="345" y="295" width="30" height="30" fill="hsl(240 100% 95.17094811039506%)" />
  <rect x="380" y="295" width="30" height="30" fill="hsl(240 100% 54.70461051204823%)" />
  <rect x="415" y="295" width="30" height="30" fill="hsl(240 100% 99.31347161284408%)" />
  <rect x="485" y="295" width="30" height="30" fill="hsl(240 100% 57.309928225999016%)" />
  <rect x="590" y="295" width="30" height="30" fill="hsl(240 100% 97.58339588514755%)" />
  <rect x="695" y="295" width="30" height="30" fill="hsl(240 100% 99.9750941840791%)" />
  <rect x="65" y="330" width="30" height="30" fill="hsl(240 100% 87.80806024815026%)" />
  <rect x="100" y="330" width="30" height="30" fill="hsl(240 100% 94.36318508667806%)" />
  <rect x="135" y="330" width="30" height="30" fill="hsl(240 100% 97.04250757542496%)" />
  <rect x="170" y="330" width="30" height="30" fill="hsl(240 100% 87.22147432298975%)" />
  <rect x="205" y="330" width="30" height="30" fill="hsl(240 100% 99.19725892300725%)" />
  <rect x="240" y="330" width="30" height="30" fill="hsl(240 100% 79.19855912890293%)" />
  <rect x="275" y="330" width="30" height="30" fill="hsl(240 100% 99.82279246238308%)" />
  <rect x="310" y="330" width="30" height="30" fill="rgb(255 255 255 / 50%)" />
  <rect x="345" y="330" width="30" height="30" fill="hsl(240 100% 97.13908728077936%)" />
  <rect x="380" y="330" width="30" height="30" fill="hsl(240 100% 85.3004680967822%)" />
  <rect x="415" y="330" width="30" height="30" fill="hsl(240 100% 99.81291265674442%)" />
  <rect x="450" y="330" width="30" height="30" fill="hsl(240 100% 69.52473605819762%)" />
  <rect x="485" y="330" width="30" height="30" fill="hsl(240 100% 72.42509128844803%)" />
  <rect x="520" y="330" width="30" height="30" fill="hsl(240 100% 93.37135408224661%)" />
  <rect x="555" y="330" width="30" height="30" fill="hsl(240 100% 50%)" />
  <rect x="660" y="330" width="30" height="30" fill="hsl(240 100% 88.3542832904914%)" />
  <rect x="695" y="330" width="30" height="30" fill="hsl(240 100% 95.04857230186035%)" />
  <rect x="65" y="365" width="30" height="30" fill="hsl(240 100% 56.73830519563001%)" />
  <rect x="100" y="365" width="30" height="30" fill="hsl(240 100% 71.75170645308118%)" />
  <rect x="135" y="365" width="30" height="30" fill="hsl(240 100% 81.77474052573788%)" />
  <rect x="170" y="365" width="30" height="30" fill="hsl(240 100% 50%)" />
  <rect x="205" y="365" width="30" height="30" fill="hsl(240 100% 96.17587489606892%)" />
  <rect x="240" y="365" width="30" height="30" fill="hsl(240 100% 58.90194817422752%)" />
  <rect x="275" y="365" width="30" height="30" fill="hsl(240 100% 98.96794783752095%)" />
  <rect x="310" y="365" width="30" height="30" fill="hsl(240 100% 99.8624669996486%)" />
  <rect x="380" y="365" width="30" height="30" fill="hsl(240 100% 66.49712721804832%)" />
  <rect x="485" y="365" width="30" height="30" fill="hsl(240 100% 85.82563246267206%)" />
  <rect x="555" y="365" width="30" height="30" fill="hsl(240 100% 99.59247785592828%)" />
  <rect x="625" y="365" width="30" height="30" fill="hsl(240 100% 63.50854870964361%)" />
  <rect x="660" y="365" width="30" height="30" fill="hsl(240 100% 98.18516180495254%)" />
  <rect x="695" y="365" width="30" height="30" fill="hsl(240 100% 99.16953318187781%)" />
  <rect x="65" y="400" width="30" height="30" fill="hsl(240 100% 98.05785160217633%)" />
  <rect x="100" y="400" width="30" height="30" fill="hsl(240 100% 99.39460682585306%)" />
  <rect x="135" y="400" width="30" height="30" fill="hsl(240 100% 99.6610116608667%)" />
  <rect x="170" y="400" width="30" height="30" fill="hsl(240 100% 95.23035673955641%)" />
  <rect x="205" y="400" width="30" height="30" fill="hsl(240 100% 99.20211234591676%)" />
  <rect x="240" y="400" width="30" height="30" fill="hsl(240 100% 85.33020961608413%)" />
  <rect x="275" y="400" width="30" height="30" fill="hsl(240 100% 99.2224571683135%)" />
  <rect x="310" y="400" width="30" height="30" fill="rgb(255 255 255 / 50%)" />
  <rect x="380" y="400" width="30" height="30" fill="hsl(240 100% 96.44715945355047%)" />
  <rect x="415" y="400" width="30" height="30" fill="hsl(240 100% 99.9742915388717%)" />
  <rect x="485" y="400" width="30" height="30" fill="hsl(240 100% 50%)" />
  <rect x="695" y="400" width="30" height="30" fill="hsl(240 100% 99.70220685060917%)" />
  <rect x="65" y="435" width="30" height="30" fill="hsl(240 100% 92.83770523438669%)" />
  <rect x="240" y="435" width="30" height="30" fill="hsl(240 100% 50%)" />
  <rect x="310" y="435" width="30" height="30" fill="hsl(240 100% 93.42476584920787%)" />
  <rect x="380" y="435" width="30" height="30" fill="hsl(240 100% 87.06737955313125%)" />
  <rect x="415" y="435" width="30" height="30" fill="hsl(240 100% 99.78661834055129%)" />
  <rect x="240" y="470" width="30" height="30" fill="hsl(240 100% 50%)" />
  <rect x="310" y="470" width="30" height="30" fill="hsl(240 100% 95.72230418024994%)" />
  <rect x="380" y="470" width="30" height="30" fill="hsl(240 100% 88.94565621944716%)" />
  <rect x="415" y="470" width="30" height="30" fill="hsl(240 100% 99.57453095715992%)" />
</svg>
