<svg xmlns="http://www.w3.org/2000/svg" viewBox="0 0 730 505">
  <rect x="0" y="0" width="730" height="505" rx="5" ry="5" fill="#222" />
  <text x="60" y="100" fill="white" font-family="sans-serif" font-weight="bold" font-size="12" text-anchor="end" dominant-baseline="middle">ba</text>
  <text x="60" y="135" fill="white" font-family="sans-serif" font-weight="bold" font-size="12" text-anchor="end" dominant-baseline="middle">det</text>
  <text x="60" y="170" fill="white" font-family="sans-serif" font-weight="bold" font-size="12" text-anchor="end" dominant-baseline="middle">gmm</text>
  <text x="60" y="205" fill="white" font-family="sans-serif" font-weight="bold" font-size="12" text-anchor="end" dominant-baseline="middle">hello</text>
  <text x="60" y="240" fill="white" font-family="sans-serif" font-weight="bold" font-size="12" text-anchor="end" dominant-baseline="middle">ht</text>
  <text x="60" y="275" fill="white" font-family="sans-serif" font-weight="bold" font-size="12" text-anchor="end" dominant-baseline="middle">kmeans</text>
  <text x="60" y="310" fill="white" font-family="sans-serif" font-weight="bold" font-size="12" text-anchor="end" dominant-baseline="middle">llsq</text>
  <text x="60" y="345" fill="white" font-family="sans-serif" font-weight="bold" font-size="12" text-anchor="end" dominant-baseline="middle">lse</text>
  <text x="60" y="380" fill="white" font-family="sans-serif" font-weight="bold" font-size="12" text-anchor="end" dominant-baseline="middle">lstm</text>
  <text x="60" y="415" fill="white" font-family="sans-serif" font-weight="bold" font-size="12" text-anchor="end" dominant-baseline="middle">ode</text>
  <text x="60" y="450" fill="white" font-family="sans-serif" font-weight="bold" font-size="12" text-anchor="end" dominant-baseline="middle">particle</text>
  <text x="60" y="485" fill="white" font-family="sans-serif" font-weight="bold" font-size="12" text-anchor="end" dominant-baseline="middle">saddle</text>
  <text x="80" y="80" fill="white" font-family="sans-serif" font-weight="bold" font-size="12" text-anchor="end" dominant-baseline="middle" transform="rotate(90 80 80)">ad-hpp</text>
  <text x="115" y="80" fill="white" font-family="sans-serif" font-weight="bold" font-size="12" text-anchor="end" dominant-baseline="middle" transform="rotate(90 115 80)">adept</text>
  <text x="150" y="80" fill="white" font-family="sans-serif" font-weight="bold" font-size="12" text-anchor="end" dominant-baseline="middle" transform="rotate(90 150 80)">adol-c</text>
  <text x="185" y="80" fill="white" font-family="sans-serif" font-weight="bold" font-size="12" text-anchor="end" dominant-baseline="middle" transform="rotate(90 185 80)">codipack</text>
  <text x="220" y="80" fill="white" font-family="sans-serif" font-weight="bold" font-size="12" text-anchor="end" dominant-baseline="middle" transform="rotate(90 220 80)">cppad</text>
  <text x="255" y="80" fill="white" font-family="sans-serif" font-weight="bold" font-size="12" text-anchor="end" dominant-baseline="middle" transform="rotate(90 255 80)">enzyme</text>
  <text x="290" y="80" fill="white" font-family="sans-serif" font-weight="bold" font-size="12" text-anchor="end" dominant-baseline="middle" transform="rotate(90 290 80)">enzyme-jl</text>
  <text x="325" y="80" fill="white" font-family="sans-serif" font-weight="bold" font-size="12" text-anchor="end" dominant-baseline="middle" transform="rotate(90 325 80)">finite</text>
  <text x="360" y="80" fill="white" font-family="sans-serif" font-weight="bold" font-size="12" text-anchor="end" dominant-baseline="middle" transform="rotate(90 360 80)">floretta</text>
  <text x="395" y="80" fill="white" font-family="sans-serif" font-weight="bold" font-size="12" text-anchor="end" dominant-baseline="middle" transform="rotate(90 395 80)">futhark</text>
  <text x="430" y="80" fill="white" font-family="sans-serif" font-weight="bold" font-size="12" text-anchor="end" dominant-baseline="middle" transform="rotate(90 430 80)">haskell</text>
  <text x="465" y="80" fill="white" font-family="sans-serif" font-weight="bold" font-size="12" text-anchor="end" dominant-baseline="middle" transform="rotate(90 465 80)">jax</text>
  <text x="500" y="80" fill="white" font-family="sans-serif" font-weight="bold" font-size="12" text-anchor="end" dominant-baseline="middle" transform="rotate(90 500 80)">manual</text>
  <text x="535" y="80" fill="white" font-family="sans-serif" font-weight="bold" font-size="12" text-anchor="end" dominant-baseline="middle" transform="rotate(90 535 80)">ocaml</text>
  <text x="570" y="80" fill="white" font-family="sans-serif" font-weight="bold" font-size="12" text-anchor="end" dominant-baseline="middle" transform="rotate(90 570 80)">pytorch</text>
  <text x="605" y="80" fill="white" font-family="sans-serif" font-weight="bold" font-size="12" text-anchor="end" dominant-baseline="middle" transform="rotate(90 605 80)">scilean</text>
  <text x="640" y="80" fill="white" font-family="sans-serif" font-weight="bold" font-size="12" text-anchor="end" dominant-baseline="middle" transform="rotate(90 640 80)">tapenade</text>
  <text x="675" y="80" fill="white" font-family="sans-serif" font-weight="bold" font-size="12" text-anchor="end" dominant-baseline="middle" transform="rotate(90 675 80)">tensorflow</text>
  <text x="710" y="80" fill="white" font-family="sans-serif" font-weight="bold" font-size="12" text-anchor="end" dominant-baseline="middle" transform="rotate(90 710 80)">zygote</text>
  <rect x="65" y="85" width="30" height="30" fill="hsl(240 100% 81.06362025529029%)" />
  <rect x="100" y="85" width="30" height="30" fill="hsl(240 100% 82.81672397355115%)" />
  <rect x="135" y="85" width="30" height="30" fill="hsl(240 100% 97.99268151583411%)" />
  <rect x="170" y="85" width="30" height="30" fill="hsl(240 100% 82.55678600621886%)" />
  <rect x="205" y="85" width="30" height="30" fill="hsl(240 100% 99.00272632257736%)" />
  <rect x="240" y="85" width="30" height="30" fill="hsl(240 100% 51.585993538467875%)" />
  <rect x="310" y="85" width="30" height="30" fill="hsl(240 100% 93.26869655215211%)" />
  <rect x="380" y="85" width="30" height="30" fill="hsl(240 100% 68.0464056518081%)" />
  <rect x="485" y="85" width="30" height="30" fill="hsl(240 100% 50%)" />
  <rect x="555" y="85" width="30" height="30" fill="rgb(255 255 255 / 50%)" />
  <rect x="625" y="85" width="30" height="30" fill="hsl(240 100% 74.84124921809898%)" />
  <rect x="660" y="85" width="30" height="30" fill="rgb(255 255 255 / 50%)" />
  <rect x="695" y="85" width="30" height="30" fill="hsl(240 100% 99.72429593008215%)" />
  <rect x="65" y="120" width="30" height="30" fill="hsl(240 100% 52.66028690335958%)" />
  <rect x="100" y="120" width="30" height="30" fill="hsl(240 100% 82.82069232733129%)" />
  <rect x="135" y="120" width="30" height="30" fill="hsl(240 100% 85.00660233145737%)" />
  <rect x="170" y="120" width="30" height="30" fill="hsl(240 100% 50%)" />
  <rect x="205" y="120" width="30" height="30" fill="hsl(240 100% 92.04701620410285%)" />
  <rect x="240" y="120" width="30" height="30" fill="hsl(240 100% 91.03059311547739%)" />
  <rect x="275" y="120" width="30" height="30" fill="hsl(240 100% 99.16424445004458%)" />
  <rect x="310" y="120" width="30" height="30" fill="hsl(240 100% 98.93041405087513%)" />
  <rect x="380" y="120" width="30" height="30" fill="hsl(240 100% 94.29501060991205%)" />
  <rect x="415" y="120" width="30" height="30" fill="hsl(240 100% 98.47889009717666%)" />
  <rect x="485" y="120" width="30" height="30" fill="hsl(240 100% 78.58868314151132%)" />
  <rect x="695" y="120" width="30" height="30" fill="rgb(255 255 255 / 50%)" />
  <rect x="65" y="155" width="30" height="30" fill="hsl(240 100% 97.20980869818072%)" />
  <rect x="100" y="155" width="30" height="30" fill="hsl(240 100% 98.27320748027152%)" />
  <rect x="135" y="155" width="30" height="30" fill="hsl(240 100% 98.84126367065444%)" />
  <rect x="170" y="155" width="30" height="30" fill="hsl(240 100% 97.21367283873634%)" />
  <rect x="205" y="155" width="30" height="30" fill="hsl(240 100% 99.76539867546722%)" />
  <rect x="240" y="155" width="30" height="30" fill="hsl(240 100% 86.53784298797521%)" />
  <rect x="275" y="155" width="30" height="30" fill="hsl(240 100% 99.81990298875328%)" />
  <rect x="310" y="155" width="30" height="30" fill="rgb(255 255 255 / 50%)" />
  <rect x="380" y="155" width="30" height="30" fill="hsl(240 100% 89.06257788192187%)" />
  <rect x="450" y="155" width="30" height="30" fill="hsl(240 100% 71.03657957386673%)" />
  <rect x="485" y="155" width="30" height="30" fill="hsl(240 100% 72.05606998876486%)" />
  <rect x="520" y="155" width="30" height="30" fill="hsl(240 100% 99.36271203300221%)" />
  <rect x="555" y="155" width="30" height="30" fill="hsl(240 100% 50%)" />
  <rect x="590" y="155" width="30" height="30" fill="hsl(240 100% 92.58297510408566%)" />
  <rect x="625" y="155" width="30" height="30" fill="hsl(240 100% 74.92629358908553%)" />
  <rect x="660" y="155" width="30" height="30" fill="hsl(240 100% 88.37986236113633%)" />
  <rect x="695" y="155" width="30" height="30" fill="hsl(240 100% 99.32913600738881%)" />
  <rect x="65" y="190" width="30" height="30" fill="hsl(240 100% 50%)" />
  <rect x="100" y="190" width="30" height="30" fill="hsl(240 100% 50%)" />
  <rect x="135" y="190" width="30" height="30" fill="hsl(240 100% 50%)" />
  <rect x="170" y="190" width="30" height="30" fill="hsl(240 100% 50%)" />
  <rect x="205" y="190" width="30" height="30" fill="hsl(240 100% 50%)" />
  <rect x="240" y="190" width="30" height="30" fill="hsl(240 100% 50%)" />
  <rect x="275" y="190" width="30" height="30" fill="hsl(240 100% 50%)" />
  <rect x="310" y="190" width="30" height="30" fill="hsl(240 100% 50%)" />
  <rect x="345" y="190" width="30" height="30" fill="hsl(240 100% 50%)" />
  <rect x="380" y="190" width="30" height="30" fill="hsl(240 100% 50%)" />
  <rect x="415" y="190" width="30" height="30" fill="hsl(240 100% 50%)" />
  <rect x="450" y="190" width="30" height="30" fill="hsl(240 100% 50%)" />
  <rect x="485" y="190" width="30" height="30" fill="hsl(240 100% 50%)" />
  <rect x="520" y="190" width="30" height="30" fill="hsl(240 100% 50%)" />
  <rect x="555" y="190" width="30" height="30" fill="hsl(240 100% 50%)" />
  <rect x="590" y="190" width="30" height="30" fill="hsl(240 100% 50%)" />
  <rect x="625" y="190" width="30" height="30" fill="hsl(240 100% 50%)" />
  <rect x="660" y="190" width="30" height="30" fill="hsl(240 100% 50%)" />
  <rect x="695" y="190" width="30" height="30" fill="hsl(240 100% 50%)" />
  <rect x="100" y="225" width="30" height="30" fill="hsl(240 100% 96.74454152651197%)" />
  <rect x="135" y="225" width="30" height="30" fill="hsl(240 100% 89.48168786266855%)" />
  <rect x="170" y="225" width="30" height="30" fill="hsl(240 100% 89.46219417236364%)" />
  <rect x="240" y="225" width="30" height="30" fill="hsl(240 100% 91.41335118313083%)" />
  <rect x="310" y="225" width="30" height="30" fill="rgb(255 255 255 / 50%)" />
  <rect x="380" y="225" width="30" height="30" fill="hsl(240 100% 90.74759848396755%)" />
  <rect x="485" y="225" width="30" height="30" fill="hsl(240 100% 50%)" />
  <rect x="555" y="225" width="30" height="30" fill="rgb(255 255 255 / 50%)" />
  <rect x="625" y="225" width="30" height="30" fill="hsl(240 100% 93.35813596535576%)" />
  <rect x="660" y="225" width="30" height="30" fill="rgb(255 255 255 / 50%)" />
  <rect x="695" y="225" width="30" height="30" fill="hsl(240 100% 99.46933299252589%)" />
  <rect x="65" y="260" width="30" height="30" fill="hsl(240 100% 99.86069193924125%)" />
  <rect x="135" y="260" width="30" height="30" fill="hsl(240 100% 99.91252492321452%)" />
  <rect x="170" y="260" width="30" height="30" fill="hsl(240 100% 99.00601973096283%)" />
  <rect x="205" y="260" width="30" height="30" fill="rgb(255 255 255 / 50%)" />
  <rect x="240" y="260" width="30" height="30" fill="hsl(240 100% 87.06415255698985%)" />
  <rect x="310" y="260" width="30" height="30" fill="rgb(255 255 255 / 50%)" />
  <rect x="380" y="260" width="30" height="30" fill="hsl(240 100% 80.98788762646184%)" />
  <rect x="415" y="260" width="30" height="30" fill="rgb(255 255 255 / 50%)" />
  <rect x="450" y="260" width="30" height="30" fill="hsl(240 100% 50%)" />
  <rect x="485" y="260" width="30" height="30" fill="hsl(240 100% 71.46505353101945%)" />
  <rect x="555" y="260" width="30" height="30" fill="hsl(240 100% 96.99128028443972%)" />
  <rect x="590" y="260" width="30" height="30" fill="hsl(240 100% 94.084098173143%)" />
  <rect x="65" y="295" width="30" height="30" fill="hsl(240 100% 85.89546743384278%)" />
  <rect x="100" y="295" width="30" height="30" fill="hsl(240 100% 97.50122529228736%)" />
  <rect x="135" y="295" width="30" height="30" fill="hsl(240 100% 95.04033163221276%)" />
  <rect x="170" y="295" width="30" height="30" fill="hsl(240 100% 90.53977294718655%)" />
  <rect x="205" y="295" width="30" height="30" fill="hsl(240 100% 99.4640061067224%)" />
  <rect x="240" y="295" width="30" height="30" fill="hsl(240 100% 50%)" />
  <rect x="275" y="295" width="30" height="30" fill="hsl(240 100% 99.85819953298801%)" />
  <rect x="310" y="295" width="30" height="30" fill="hsl(240 100% 99.49294545795034%)" />
  <rect x="345" y="295" width="30" height="30" fill="hsl(240 100% 94.70841719671853%)" />
  <rect x="380" y="295" width="30" height="30" fill="hsl(240 100% 54.67834308075641%)" />
  <rect x="415" y="295" width="30" height="30" fill="hsl(240 100% 99.32525820148742%)" />
  <rect x="450" y="295" width="30" height="30" fill="hsl(240 100% 88.5225255125872%)" />
  <rect x="485" y="295" width="30" height="30" fill="hsl(240 100% 57.31548476748278%)" />
  <rect x="590" y="295" width="30" height="30" fill="hsl(240 100% 97.58292633635715%)" />
  <rect x="695" y="295" width="30" height="30" fill="hsl(240 100% 99.97385778163581%)" />
  <rect x="65" y="330" width="30" height="30" fill="hsl(240 100% 88.29056053112757%)" />
  <rect x="100" y="330" width="30" height="30" fill="hsl(240 100% 94.77008767828914%)" />
  <rect x="135" y="330" width="30" height="30" fill="hsl(240 100% 97.20471830950908%)" />
  <rect x="170" y="330" width="30" height="30" fill="hsl(240 100% 87.96450842345487%)" />
  <rect x="205" y="330" width="30" height="30" fill="hsl(240 100% 99.24249920030026%)" />
  <rect x="240" y="330" width="30" height="30" fill="hsl(240 100% 79.00037124668785%)" />
  <rect x="275" y="330" width="30" height="30" fill="hsl(240 100% 99.83603787411178%)" />
  <rect x="310" y="330" width="30" height="30" fill="rgb(255 255 255 / 50%)" />
  <rect x="345" y="330" width="30" height="30" fill="hsl(240 100% 97.28354564919893%)" />
  <rect x="380" y="330" width="30" height="30" fill="hsl(240 100% 86.17511191076898%)" />
  <rect x="415" y="330" width="30" height="30" fill="hsl(240 100% 99.81282474377969%)" />
  <rect x="450" y="330" width="30" height="30" fill="hsl(240 100% 72.06119785865936%)" />
  <rect x="485" y="330" width="30" height="30" fill="hsl(240 100% 73.77243941964753%)" />
  <rect x="520" y="330" width="30" height="30" fill="hsl(240 100% 93.81857297549728%)" />
  <rect x="555" y="330" width="30" height="30" fill="hsl(240 100% 50%)" />
  <rect x="660" y="330" width="30" height="30" fill="hsl(240 100% 94.4075701459651%)" />
  <rect x="695" y="330" width="30" height="30" fill="hsl(240 100% 95.21293321486236%)" />
  <rect x="65" y="365" width="30" height="30" fill="hsl(240 100% 53.574281923006964%)" />
  <rect x="100" y="365" width="30" height="30" fill="hsl(240 100% 69.42107467904171%)" />
  <rect x="135" y="365" width="30" height="30" fill="hsl(240 100% 80.12922306315569%)" />
  <rect x="170" y="365" width="30" height="30" fill="hsl(240 100% 50%)" />
  <rect x="205" y="365" width="30" height="30" fill="hsl(240 100% 95.86557938620567%)" />
  <rect x="240" y="365" width="30" height="30" fill="hsl(240 100% 55.84803228413833%)" />
  <rect x="275" y="365" width="30" height="30" fill="hsl(240 100% 98.75271263736802%)" />
  <rect x="310" y="365" width="30" height="30" fill="hsl(240 100% 99.85129525511027%)" />
  <rect x="380" y="365" width="30" height="30" fill="hsl(240 100% 63.85228586440846%)" />
  <rect x="485" y="365" width="30" height="30" fill="hsl(240 100% 84.68763795225236%)" />
  <rect x="555" y="365" width="30" height="30" fill="hsl(240 100% 99.60253846025032%)" />
  <rect x="625" y="365" width="30" height="30" fill="hsl(240 100% 60.08382144440937%)" />
  <rect x="660" y="365" width="30" height="30" fill="hsl(240 100% 98.00809927020104%)" />
  <rect x="695" y="365" width="30" height="30" fill="hsl(240 100% 99.09999710700741%)" />
  <rect x="65" y="400" width="30" height="30" fill="hsl(240 100% 98.19504522524059%)" />
  <rect x="100" y="400" width="30" height="30" fill="hsl(240 100% 99.43198664011871%)" />
  <rect x="135" y="400" width="30" height="30" fill="hsl(240 100% 99.67601020287711%)" />
  <rect x="170" y="400" width="30" height="30" fill="hsl(240 100% 95.48907633645807%)" />
  <rect x="205" y="400" width="30" height="30" fill="hsl(240 100% 99.24868394938139%)" />
  <rect x="240" y="400" width="30" height="30" fill="hsl(240 100% 88.00647899585209%)" />
  <rect x="275" y="400" width="30" height="30" fill="hsl(240 100% 99.28715890436975%)" />
  <rect x="310" y="400" width="30" height="30" fill="rgb(255 255 255 / 50%)" />
  <rect x="380" y="400" width="30" height="30" fill="hsl(240 100% 94.04405511921496%)" />
  <rect x="415" y="400" width="30" height="30" fill="hsl(240 100% 99.97136030121115%)" />
  <rect x="450" y="400" width="30" height="30" fill="hsl(240 100% 78.75376701554168%)" />
  <rect x="485" y="400" width="30" height="30" fill="hsl(240 100% 50%)" />
  <rect x="695" y="400" width="30" height="30" fill="hsl(240 100% 99.73356781034299%)" />
  <rect x="65" y="435" width="30" height="30" fill="hsl(240 100% 92.83307175645031%)" />
  <rect x="240" y="435" width="30" height="30" fill="hsl(240 100% 50%)" />
  <rect x="310" y="435" width="30" height="30" fill="hsl(240 100% 94.28809815343492%)" />
  <rect x="380" y="435" width="30" height="30" fill="hsl(240 100% 87.01280566330108%)" />
  <rect x="415" y="435" width="30" height="30" fill="hsl(240 100% 99.78945053293688%)" />
  <rect x="65" y="470" width="30" height="30" fill="hsl(240 100% 50%)" />
  <rect x="240" y="470" width="30" height="30" fill="hsl(240 100% 50.15250029253601%)" />
  <rect x="310" y="470" width="30" height="30" fill="hsl(240 100% 97.16312452031386%)" />
  <rect x="380" y="470" width="30" height="30" fill="hsl(240 100% 89.20502708624699%)" />
  <rect x="415" y="470" width="30" height="30" fill="hsl(240 100% 99.57907590925602%)" />
</svg>
