<svg xmlns="http://www.w3.org/2000/svg" viewBox="0 0 660 470">
  <rect x="0" y="0" width="660" height="470" rx="5" ry="5" fill="#222" />
  <text x="60" y="100" fill="white" font-family="sans-serif" font-weight="bold" font-size="12" text-anchor="end" dominant-baseline="middle">ba</text>
  <text x="60" y="135" fill="white" font-family="sans-serif" font-weight="bold" font-size="12" text-anchor="end" dominant-baseline="middle">det</text>
  <text x="60" y="170" fill="white" font-family="sans-serif" font-weight="bold" font-size="12" text-anchor="end" dominant-baseline="middle">gmm</text>
  <text x="60" y="205" fill="white" font-family="sans-serif" font-weight="bold" font-size="12" text-anchor="end" dominant-baseline="middle">hello</text>
  <text x="60" y="240" fill="white" font-family="sans-serif" font-weight="bold" font-size="12" text-anchor="end" dominant-baseline="middle">ht</text>
  <text x="60" y="275" fill="white" font-family="sans-serif" font-weight="bold" font-size="12" text-anchor="end" dominant-baseline="middle">kmeans</text>
  <text x="60" y="310" fill="white" font-family="sans-serif" font-weight="bold" font-size="12" text-anchor="end" dominant-baseline="middle">llsq</text>
  <text x="60" y="345" fill="white" font-family="sans-serif" font-weight="bold" font-size="12" text-anchor="end" dominant-baseline="middle">lstm</text>
  <text x="60" y="380" fill="white" font-family="sans-serif" font-weight="bold" font-size="12" text-anchor="end" dominant-baseline="middle">ode</text>
  <text x="60" y="415" fill="white" font-family="sans-serif" font-weight="bold" font-size="12" text-anchor="end" dominant-baseline="middle">particle</text>
  <text x="60" y="450" fill="white" font-family="sans-serif" font-weight="bold" font-size="12" text-anchor="end" dominant-baseline="middle">saddle</text>
  <text x="80" y="80" fill="white" font-family="sans-serif" font-weight="bold" font-size="12" text-anchor="end" dominant-baseline="middle" transform="rotate(90 80 80)">adept</text>
  <text x="115" y="80" fill="white" font-family="sans-serif" font-weight="bold" font-size="12" text-anchor="end" dominant-baseline="middle" transform="rotate(90 115 80)">adol-c</text>
  <text x="150" y="80" fill="white" font-family="sans-serif" font-weight="bold" font-size="12" text-anchor="end" dominant-baseline="middle" transform="rotate(90 150 80)">codipack</text>
  <text x="185" y="80" fill="white" font-family="sans-serif" font-weight="bold" font-size="12" text-anchor="end" dominant-baseline="middle" transform="rotate(90 185 80)">cppad</text>
  <text x="220" y="80" fill="white" font-family="sans-serif" font-weight="bold" font-size="12" text-anchor="end" dominant-baseline="middle" transform="rotate(90 220 80)">enzyme</text>
  <text x="255" y="80" fill="white" font-family="sans-serif" font-weight="bold" font-size="12" text-anchor="end" dominant-baseline="middle" transform="rotate(90 255 80)">finite</text>
  <text x="290" y="80" fill="white" font-family="sans-serif" font-weight="bold" font-size="12" text-anchor="end" dominant-baseline="middle" transform="rotate(90 290 80)">floretta</text>
  <text x="325" y="80" fill="white" font-family="sans-serif" font-weight="bold" font-size="12" text-anchor="end" dominant-baseline="middle" transform="rotate(90 325 80)">futhark</text>
  <text x="360" y="80" fill="white" font-family="sans-serif" font-weight="bold" font-size="12" text-anchor="end" dominant-baseline="middle" transform="rotate(90 360 80)">haskell</text>
  <text x="395" y="80" fill="white" font-family="sans-serif" font-weight="bold" font-size="12" text-anchor="end" dominant-baseline="middle" transform="rotate(90 395 80)">jax</text>
  <text x="430" y="80" fill="white" font-family="sans-serif" font-weight="bold" font-size="12" text-anchor="end" dominant-baseline="middle" transform="rotate(90 430 80)">manual</text>
  <text x="465" y="80" fill="white" font-family="sans-serif" font-weight="bold" font-size="12" text-anchor="end" dominant-baseline="middle" transform="rotate(90 465 80)">ocaml</text>
  <text x="500" y="80" fill="white" font-family="sans-serif" font-weight="bold" font-size="12" text-anchor="end" dominant-baseline="middle" transform="rotate(90 500 80)">pytorch</text>
  <text x="535" y="80" fill="white" font-family="sans-serif" font-weight="bold" font-size="12" text-anchor="end" dominant-baseline="middle" transform="rotate(90 535 80)">scilean</text>
  <text x="570" y="80" fill="white" font-family="sans-serif" font-weight="bold" font-size="12" text-anchor="end" dominant-baseline="middle" transform="rotate(90 570 80)">tapenade</text>
  <text x="605" y="80" fill="white" font-family="sans-serif" font-weight="bold" font-size="12" text-anchor="end" dominant-baseline="middle" transform="rotate(90 605 80)">tensorflow</text>
  <text x="640" y="80" fill="white" font-family="sans-serif" font-weight="bold" font-size="12" text-anchor="end" dominant-baseline="middle" transform="rotate(90 640 80)">zygote</text>
  <rect x="65" y="85" width="30" height="30" fill="hsl(240 100% 83.69462282536168%)" />
  <rect x="100" y="85" width="30" height="30" fill="hsl(240 100% 97.81937702027078%)" />
  <rect x="135" y="85" width="30" height="30" fill="hsl(240 100% 89.18314400238974%)" />
  <rect x="205" y="85" width="30" height="30" fill="hsl(240 100% 51.14448229585781%)" />
  <rect x="240" y="85" width="30" height="30" fill="hsl(240 100% 92.68385224677387%)" />
  <rect x="310" y="85" width="30" height="30" fill="hsl(240 100% 68.66349737014056%)" />
  <rect x="415" y="85" width="30" height="30" fill="hsl(240 100% 50%)" />
  <rect x="485" y="85" width="30" height="30" fill="rgb(255 255 255 / 50%)" />
  <rect x="555" y="85" width="30" height="30" fill="hsl(240 100% 72.85333124155233%)" />
  <rect x="590" y="85" width="30" height="30" fill="rgb(255 255 255 / 50%)" />
  <rect x="65" y="120" width="30" height="30" fill="hsl(240 100% 89.36245617968098%)" />
  <rect x="100" y="120" width="30" height="30" fill="hsl(240 100% 90.41974313865768%)" />
  <rect x="135" y="120" width="30" height="30" fill="hsl(240 100% 67.34760140155191%)" />
  <rect x="170" y="120" width="30" height="30" fill="hsl(240 100% 50%)" />
  <rect x="205" y="120" width="30" height="30" fill="hsl(240 100% 94.4810819094973%)" />
  <rect x="240" y="120" width="30" height="30" fill="hsl(240 100% 99.32610941232006%)" />
  <rect x="310" y="120" width="30" height="30" fill="hsl(240 100% 96.52007897249514%)" />
  <rect x="345" y="120" width="30" height="30" fill="hsl(240 100% 98.63878862288327%)" />
  <rect x="415" y="120" width="30" height="30" fill="hsl(240 100% 86.67228292213947%)" />
  <rect x="65" y="155" width="30" height="30" fill="hsl(240 100% 98.23252570673208%)" />
  <rect x="100" y="155" width="30" height="30" fill="hsl(240 100% 98.80086753081697%)" />
  <rect x="135" y="155" width="30" height="30" fill="hsl(240 100% 97.05343295080037%)" />
  <rect x="170" y="155" width="30" height="30" fill="rgb(255 255 255 / 50%)" />
  <rect x="205" y="155" width="30" height="30" fill="hsl(240 100% 86.41036373458483%)" />
  <rect x="240" y="155" width="30" height="30" fill="rgb(255 255 255 / 50%)" />
  <rect x="310" y="155" width="30" height="30" fill="hsl(240 100% 89.60923003199801%)" />
  <rect x="380" y="155" width="30" height="30" fill="hsl(240 100% 70.12108213520787%)" />
  <rect x="415" y="155" width="30" height="30" fill="hsl(240 100% 74.65653452188276%)" />
  <rect x="450" y="155" width="30" height="30" fill="hsl(240 100% 99.33154578296458%)" />
  <rect x="485" y="155" width="30" height="30" fill="hsl(240 100% 50%)" />
  <rect x="520" y="155" width="30" height="30" fill="hsl(240 100% 92.98403102682627%)" />
  <rect x="555" y="155" width="30" height="30" fill="hsl(240 100% 75.3866710233184%)" />
  <rect x="590" y="155" width="30" height="30" fill="hsl(240 100% 87.88991566177127%)" />
  <rect x="65" y="190" width="30" height="30" fill="hsl(240 100% 50%)" />
  <rect x="100" y="190" width="30" height="30" fill="hsl(240 100% 50%)" />
  <rect x="135" y="190" width="30" height="30" fill="hsl(240 100% 50%)" />
  <rect x="170" y="190" width="30" height="30" fill="hsl(240 100% 50%)" />
  <rect x="205" y="190" width="30" height="30" fill="hsl(240 100% 50%)" />
  <rect x="240" y="190" width="30" height="30" fill="hsl(240 100% 50%)" />
  <rect x="275" y="190" width="30" height="30" fill="hsl(240 100% 50%)" />
  <rect x="310" y="190" width="30" height="30" fill="hsl(240 100% 50%)" />
  <rect x="345" y="190" width="30" height="30" fill="hsl(240 100% 50%)" />
  <rect x="380" y="190" width="30" height="30" fill="hsl(240 100% 50%)" />
  <rect x="415" y="190" width="30" height="30" fill="hsl(240 100% 50%)" />
  <rect x="450" y="190" width="30" height="30" fill="hsl(240 100% 50%)" />
  <rect x="485" y="190" width="30" height="30" fill="hsl(240 100% 50%)" />
  <rect x="520" y="190" width="30" height="30" fill="hsl(240 100% 50%)" />
  <rect x="555" y="190" width="30" height="30" fill="hsl(240 100% 50%)" />
  <rect x="590" y="190" width="30" height="30" fill="hsl(240 100% 50%)" />
  <rect x="625" y="190" width="30" height="30" fill="hsl(240 100% 50%)" />
  <rect x="65" y="225" width="30" height="30" fill="hsl(240 100% 96.00468797433635%)" />
  <rect x="100" y="225" width="30" height="30" fill="hsl(240 100% 96.27598701748346%)" />
  <rect x="135" y="225" width="30" height="30" fill="hsl(240 100% 88.17734323625982%)" />
  <rect x="205" y="225" width="30" height="30" fill="hsl(240 100% 90.08064582933532%)" />
  <rect x="240" y="225" width="30" height="30" fill="rgb(255 255 255 / 50%)" />
  <rect x="310" y="225" width="30" height="30" fill="hsl(240 100% 89.61310930996059%)" />
  <rect x="415" y="225" width="30" height="30" fill="hsl(240 100% 50%)" />
  <rect x="485" y="225" width="30" height="30" fill="rgb(255 255 255 / 50%)" />
  <rect x="555" y="225" width="30" height="30" fill="rgb(255 255 255 / 50%)" />
  <rect x="590" y="225" width="30" height="30" fill="rgb(255 255 255 / 50%)" />
  <rect x="100" y="260" width="30" height="30" fill="hsl(240 100% 99.87611630635581%)" />
  <rect x="135" y="260" width="30" height="30" fill="hsl(240 100% 99.40864194043606%)" />
  <rect x="170" y="260" width="30" height="30" fill="rgb(255 255 255 / 50%)" />
  <rect x="205" y="260" width="30" height="30" fill="hsl(240 100% 87.65493466142603%)" />
  <rect x="240" y="260" width="30" height="30" fill="rgb(255 255 255 / 50%)" />
  <rect x="310" y="260" width="30" height="30" fill="hsl(240 100% 83.16020712863921%)" />
  <rect x="345" y="260" width="30" height="30" fill="rgb(255 255 255 / 50%)" />
  <rect x="380" y="260" width="30" height="30" fill="hsl(240 100% 50%)" />
  <rect x="415" y="260" width="30" height="30" fill="hsl(240 100% 76.73641951983532%)" />
  <rect x="485" y="260" width="30" height="30" fill="hsl(240 100% 96.97511548189023%)" />
  <rect x="520" y="260" width="30" height="30" fill="hsl(240 100% 94.2518259281124%)" />
  <rect x="65" y="295" width="30" height="30" fill="hsl(240 100% 67.11303504630814%)" />
  <rect x="100" y="295" width="30" height="30" fill="hsl(240 100% 58.81379744828063%)" />
  <rect x="135" y="295" width="30" height="30" fill="hsl(240 100% 59.96315177832048%)" />
  <rect x="170" y="295" width="30" height="30" fill="hsl(240 100% 56.82270044709927%)" />
  <rect x="205" y="295" width="30" height="30" fill="hsl(240 100% 50%)" />
  <rect x="240" y="295" width="30" height="30" fill="hsl(240 100% 99.42652934898028%)" />
  <rect x="310" y="295" width="30" height="30" fill="hsl(240 100% 50.46186698980534%)" />
  <rect x="345" y="295" width="30" height="30" fill="hsl(240 100% 89.49467875884994%)" />
  <rect x="415" y="295" width="30" height="30" fill="hsl(240 100% 53.4657174476327%)" />
  <rect x="65" y="330" width="30" height="30" fill="hsl(240 100% 68.8096799007836%)" />
  <rect x="100" y="330" width="30" height="30" fill="hsl(240 100% 81.34831443835093%)" />
  <rect x="135" y="330" width="30" height="30" fill="hsl(240 100% 50%)" />
  <rect x="170" y="330" width="30" height="30" fill="hsl(240 100% 89.76181875261506%)" />
  <rect x="205" y="330" width="30" height="30" fill="hsl(240 100% 50.46789096691145%)" />
  <rect x="240" y="330" width="30" height="30" fill="hsl(240 100% 99.85080422001884%)" />
  <rect x="310" y="330" width="30" height="30" fill="hsl(240 100% 63.44074409695131%)" />
  <rect x="415" y="330" width="30" height="30" fill="hsl(240 100% 84.49574606564136%)" />
  <rect x="485" y="330" width="30" height="30" fill="hsl(240 100% 99.59631307695611%)" />
  <rect x="520" y="330" width="30" height="30" fill="hsl(240 100% 89.50313793710454%)" />
  <rect x="555" y="330" width="30" height="30" fill="hsl(240 100% 59.96512416319454%)" />
  <rect x="590" y="330" width="30" height="30" fill="hsl(240 100% 97.98641297287018%)" />
  <rect x="65" y="365" width="30" height="30" fill="hsl(240 100% 99.20727068124043%)" />
  <rect x="100" y="365" width="30" height="30" fill="hsl(240 100% 99.56046930374444%)" />
  <rect x="135" y="365" width="30" height="30" fill="hsl(240 100% 93.65862559219273%)" />
  <rect x="170" y="365" width="30" height="30" fill="hsl(240 100% 54.69784937186347%)" />
  <rect x="205" y="365" width="30" height="30" fill="hsl(240 100% 85.07832835590965%)" />
  <rect x="240" y="365" width="30" height="30" fill="rgb(255 255 255 / 50%)" />
  <rect x="310" y="365" width="30" height="30" fill="hsl(240 100% 95.41683526556812%)" />
  <rect x="345" y="365" width="30" height="30" fill="hsl(240 100% 99.96796018287242%)" />
  <rect x="415" y="365" width="30" height="30" fill="hsl(240 100% 50%)" />
  <rect x="205" y="400" width="30" height="30" fill="hsl(240 100% 50%)" />
  <rect x="240" y="400" width="30" height="30" fill="hsl(240 100% 95.20646154109942%)" />
  <rect x="310" y="400" width="30" height="30" fill="hsl(240 100% 87.95995354201743%)" />
  <rect x="345" y="400" width="30" height="30" fill="hsl(240 100% 99.76346390769997%)" />
  <rect x="205" y="435" width="30" height="30" fill="hsl(240 100% 50%)" />
  <rect x="240" y="435" width="30" height="30" fill="hsl(240 100% 95.83558360486157%)" />
  <rect x="310" y="435" width="30" height="30" fill="hsl(240 100% 89.16388492339371%)" />
  <rect x="345" y="435" width="30" height="30" fill="hsl(240 100% 99.55968513819276%)" />
</svg>
