<svg xmlns="http://www.w3.org/2000/svg" viewBox="0 0 870 505">
  <rect x="0" y="0" width="870" height="505" rx="5" ry="5" fill="#222" />
  <text x="60" y="100" fill="white" font-family="sans-serif" font-weight="bold" font-size="12" text-anchor="end" dominant-baseline="middle">ba</text>
  <text x="60" y="135" fill="white" font-family="sans-serif" font-weight="bold" font-size="12" text-anchor="end" dominant-baseline="middle">det</text>
  <text x="60" y="170" fill="white" font-family="sans-serif" font-weight="bold" font-size="12" text-anchor="end" dominant-baseline="middle">gmm</text>
  <text x="60" y="205" fill="white" font-family="sans-serif" font-weight="bold" font-size="12" text-anchor="end" dominant-baseline="middle">hello</text>
  <text x="60" y="240" fill="white" font-family="sans-serif" font-weight="bold" font-size="12" text-anchor="end" dominant-baseline="middle">ht</text>
  <text x="60" y="275" fill="white" font-family="sans-serif" font-weight="bold" font-size="12" text-anchor="end" dominant-baseline="middle">kmeans</text>
  <text x="60" y="310" fill="white" font-family="sans-serif" font-weight="bold" font-size="12" text-anchor="end" dominant-baseline="middle">llsq</text>
  <text x="60" y="345" fill="white" font-family="sans-serif" font-weight="bold" font-size="12" text-anchor="end" dominant-baseline="middle">lse</text>
  <text x="60" y="380" fill="white" font-family="sans-serif" font-weight="bold" font-size="12" text-anchor="end" dominant-baseline="middle">lstm</text>
  <text x="60" y="415" fill="white" font-family="sans-serif" font-weight="bold" font-size="12" text-anchor="end" dominant-baseline="middle">ode</text>
  <text x="60" y="450" fill="white" font-family="sans-serif" font-weight="bold" font-size="12" text-anchor="end" dominant-baseline="middle">particle</text>
  <text x="60" y="485" fill="white" font-family="sans-serif" font-weight="bold" font-size="12" text-anchor="end" dominant-baseline="middle">saddle</text>
  <text x="80" y="80" fill="white" font-family="sans-serif" font-weight="bold" font-size="12" text-anchor="end" dominant-baseline="middle" transform="rotate(90 80 80)">ad-hpp</text>
  <text x="115" y="80" fill="white" font-family="sans-serif" font-weight="bold" font-size="12" text-anchor="end" dominant-baseline="middle" transform="rotate(90 115 80)">adept</text>
  <text x="150" y="80" fill="white" font-family="sans-serif" font-weight="bold" font-size="12" text-anchor="end" dominant-baseline="middle" transform="rotate(90 150 80)">adol-c</text>
  <text x="185" y="80" fill="white" font-family="sans-serif" font-weight="bold" font-size="12" text-anchor="end" dominant-baseline="middle" transform="rotate(90 185 80)">codipack</text>
  <text x="220" y="80" fill="white" font-family="sans-serif" font-weight="bold" font-size="12" text-anchor="end" dominant-baseline="middle" transform="rotate(90 220 80)">cppad</text>
  <text x="255" y="80" fill="white" font-family="sans-serif" font-weight="bold" font-size="12" text-anchor="end" dominant-baseline="middle" transform="rotate(90 255 80)">enzyme</text>
  <text x="290" y="80" fill="white" font-family="sans-serif" font-weight="bold" font-size="12" text-anchor="end" dominant-baseline="middle" transform="rotate(90 290 80)">enzyme-jl</text>
  <text x="325" y="80" fill="white" font-family="sans-serif" font-weight="bold" font-size="12" text-anchor="end" dominant-baseline="middle" transform="rotate(90 325 80)">finite</text>
  <text x="360" y="80" fill="white" font-family="sans-serif" font-weight="bold" font-size="12" text-anchor="end" dominant-baseline="middle" transform="rotate(90 360 80)">floretta</text>
  <text x="395" y="80" fill="white" font-family="sans-serif" font-weight="bold" font-size="12" text-anchor="end" dominant-baseline="middle" transform="rotate(90 395 80)">forwarddiff-jl</text>
  <text x="430" y="80" fill="white" font-family="sans-serif" font-weight="bold" font-size="12" text-anchor="end" dominant-baseline="middle" transform="rotate(90 430 80)">futhark</text>
  <text x="465" y="80" fill="white" font-family="sans-serif" font-weight="bold" font-size="12" text-anchor="end" dominant-baseline="middle" transform="rotate(90 465 80)">haskell</text>
  <text x="500" y="80" fill="white" font-family="sans-serif" font-weight="bold" font-size="12" text-anchor="end" dominant-baseline="middle" transform="rotate(90 500 80)">jax</text>
  <text x="535" y="80" fill="white" font-family="sans-serif" font-weight="bold" font-size="12" text-anchor="end" dominant-baseline="middle" transform="rotate(90 535 80)">manual</text>
  <text x="570" y="80" fill="white" font-family="sans-serif" font-weight="bold" font-size="12" text-anchor="end" dominant-baseline="middle" transform="rotate(90 570 80)">mooncake-jl</text>
  <text x="605" y="80" fill="white" font-family="sans-serif" font-weight="bold" font-size="12" text-anchor="end" dominant-baseline="middle" transform="rotate(90 605 80)">ocaml</text>
  <text x="640" y="80" fill="white" font-family="sans-serif" font-weight="bold" font-size="12" text-anchor="end" dominant-baseline="middle" transform="rotate(90 640 80)">pytorch</text>
  <text x="675" y="80" fill="white" font-family="sans-serif" font-weight="bold" font-size="12" text-anchor="end" dominant-baseline="middle" transform="rotate(90 675 80)">reversediff-jl</text>
  <text x="710" y="80" fill="white" font-family="sans-serif" font-weight="bold" font-size="12" text-anchor="end" dominant-baseline="middle" transform="rotate(90 710 80)">scilean</text>
  <text x="745" y="80" fill="white" font-family="sans-serif" font-weight="bold" font-size="12" text-anchor="end" dominant-baseline="middle" transform="rotate(90 745 80)">tapenade</text>
  <text x="780" y="80" fill="white" font-family="sans-serif" font-weight="bold" font-size="12" text-anchor="end" dominant-baseline="middle" transform="rotate(90 780 80)">tensorflow</text>
  <text x="815" y="80" fill="white" font-family="sans-serif" font-weight="bold" font-size="12" text-anchor="end" dominant-baseline="middle" transform="rotate(90 815 80)">tensorflow-js</text>
  <text x="850" y="80" fill="white" font-family="sans-serif" font-weight="bold" font-size="12" text-anchor="end" dominant-baseline="middle" transform="rotate(90 850 80)">zygote</text>
  <rect x="65" y="85" width="30" height="30" fill="hsl(240 100% 80.93342074777229%)" />
  <rect x="100" y="85" width="30" height="30" fill="hsl(240 100% 82.69741673395768%)" />
  <rect x="135" y="85" width="30" height="30" fill="hsl(240 100% 97.98735615360422%)" />
  <rect x="170" y="85" width="30" height="30" fill="hsl(240 100% 82.3603368674585%)" />
  <rect x="205" y="85" width="30" height="30" fill="hsl(240 100% 98.9966552599976%)" />
  <rect x="240" y="85" width="30" height="30" fill="hsl(240 100% 51.19007638824665%)" />
  <rect x="310" y="85" width="30" height="30" fill="hsl(240 100% 93.2115562047459%)" />
  <rect x="415" y="85" width="30" height="30" fill="hsl(240 100% 67.82122092585752%)" />
  <rect x="520" y="85" width="30" height="30" fill="hsl(240 100% 50%)" />
  <rect x="625" y="85" width="30" height="30" fill="rgb(255 255 255 / 50%)" />
  <rect x="730" y="85" width="30" height="30" fill="hsl(240 100% 74.71627825400897%)" />
  <rect x="765" y="85" width="30" height="30" fill="rgb(255 255 255 / 50%)" />
  <rect x="835" y="85" width="30" height="30" fill="hsl(240 100% 99.7354544627165%)" />
  <rect x="65" y="120" width="30" height="30" fill="hsl(240 100% 50%)" />
  <rect x="100" y="120" width="30" height="30" fill="hsl(240 100% 82.27926025981554%)" />
  <rect x="135" y="120" width="30" height="30" fill="hsl(240 100% 85.59825621667775%)" />
  <rect x="170" y="120" width="30" height="30" fill="hsl(240 100% 51.75146634255699%)" />
  <rect x="205" y="120" width="30" height="30" fill="hsl(240 100% 92.51047764075096%)" />
  <rect x="240" y="120" width="30" height="30" fill="hsl(240 100% 91.31624486125865%)" />
  <rect x="275" y="120" width="30" height="30" fill="hsl(240 100% 99.34467723486905%)" />
  <rect x="310" y="120" width="30" height="30" fill="hsl(240 100% 98.97717279461396%)" />
  <rect x="380" y="120" width="30" height="30" fill="hsl(240 100% 93.79275022503904%)" />
  <rect x="415" y="120" width="30" height="30" fill="hsl(240 100% 94.55100380685882%)" />
  <rect x="450" y="120" width="30" height="30" fill="hsl(240 100% 97.84975791890511%)" />
  <rect x="520" y="120" width="30" height="30" fill="hsl(240 100% 79.4501321223162%)" />
  <rect x="555" y="120" width="30" height="30" fill="hsl(240 100% 91.36961380899008%)" />
  <rect x="660" y="120" width="30" height="30" fill="rgb(255 255 255 / 50%)" />
  <rect x="835" y="120" width="30" height="30" fill="rgb(255 255 255 / 50%)" />
  <rect x="65" y="155" width="30" height="30" fill="hsl(240 100% 98.29738280199736%)" />
  <rect x="100" y="155" width="30" height="30" fill="hsl(240 100% 98.83712947043004%)" />
  <rect x="135" y="155" width="30" height="30" fill="hsl(240 100% 99.11418910231866%)" />
  <rect x="170" y="155" width="30" height="30" fill="hsl(240 100% 98.0748001746981%)" />
  <rect x="205" y="155" width="30" height="30" fill="hsl(240 100% 99.82321502695656%)" />
  <rect x="240" y="155" width="30" height="30" fill="hsl(240 100% 91.17642032962684%)" />
  <rect x="275" y="155" width="30" height="30" fill="hsl(240 100% 92.28041485152409%)" />
  <rect x="310" y="155" width="30" height="30" fill="rgb(255 255 255 / 50%)" />
  <rect x="415" y="155" width="30" height="30" fill="hsl(240 100% 93.04095714457657%)" />
  <rect x="485" y="155" width="30" height="30" fill="hsl(240 100% 50%)" />
  <rect x="520" y="155" width="30" height="30" fill="hsl(240 100% 83.37216518215642%)" />
  <rect x="590" y="155" width="30" height="30" fill="hsl(240 100% 99.58233855167187%)" />
  <rect x="625" y="155" width="30" height="30" fill="hsl(240 100% 67.39562806751172%)" />
  <rect x="695" y="155" width="30" height="30" fill="hsl(240 100% 95.44527997817532%)" />
  <rect x="730" y="155" width="30" height="30" fill="hsl(240 100% 83.73610350319007%)" />
  <rect x="765" y="155" width="30" height="30" fill="hsl(240 100% 99.58895950084843%)" />
  <rect x="835" y="155" width="30" height="30" fill="hsl(240 100% 96.4725746452235%)" />
  <rect x="65" y="190" width="30" height="30" fill="hsl(240 100% 50%)" />
  <rect x="100" y="190" width="30" height="30" fill="hsl(240 100% 50%)" />
  <rect x="135" y="190" width="30" height="30" fill="hsl(240 100% 50%)" />
  <rect x="170" y="190" width="30" height="30" fill="hsl(240 100% 50%)" />
  <rect x="205" y="190" width="30" height="30" fill="hsl(240 100% 50%)" />
  <rect x="240" y="190" width="30" height="30" fill="hsl(240 100% 50%)" />
  <rect x="275" y="190" width="30" height="30" fill="hsl(240 100% 50%)" />
  <rect x="310" y="190" width="30" height="30" fill="hsl(240 100% 50%)" />
  <rect x="345" y="190" width="30" height="30" fill="hsl(240 100% 50%)" />
  <rect x="380" y="190" width="30" height="30" fill="hsl(240 100% 50%)" />
  <rect x="415" y="190" width="30" height="30" fill="hsl(240 100% 50%)" />
  <rect x="450" y="190" width="30" height="30" fill="hsl(240 100% 50%)" />
  <rect x="485" y="190" width="30" height="30" fill="hsl(240 100% 50%)" />
  <rect x="520" y="190" width="30" height="30" fill="hsl(240 100% 50%)" />
  <rect x="555" y="190" width="30" height="30" fill="hsl(240 100% 50%)" />
  <rect x="590" y="190" width="30" height="30" fill="hsl(240 100% 50%)" />
  <rect x="625" y="190" width="30" height="30" fill="hsl(240 100% 50%)" />
  <rect x="660" y="190" width="30" height="30" fill="hsl(240 100% 50%)" />
  <rect x="695" y="190" width="30" height="30" fill="hsl(240 100% 50%)" />
  <rect x="730" y="190" width="30" height="30" fill="hsl(240 100% 50%)" />
  <rect x="765" y="190" width="30" height="30" fill="hsl(240 100% 50%)" />
  <rect x="800" y="190" width="30" height="30" fill="hsl(240 100% 50%)" />
  <rect x="835" y="190" width="30" height="30" fill="hsl(240 100% 50%)" />
  <rect x="100" y="225" width="30" height="30" fill="hsl(240 100% 96.77509533937393%)" />
  <rect x="135" y="225" width="30" height="30" fill="hsl(240 100% 89.47891540096565%)" />
  <rect x="170" y="225" width="30" height="30" fill="hsl(240 100% 89.45882208342975%)" />
  <rect x="240" y="225" width="30" height="30" fill="hsl(240 100% 91.55752620952704%)" />
  <rect x="310" y="225" width="30" height="30" fill="rgb(255 255 255 / 50%)" />
  <rect x="415" y="225" width="30" height="30" fill="hsl(240 100% 90.78738847727953%)" />
  <rect x="520" y="225" width="30" height="30" fill="hsl(240 100% 50%)" />
  <rect x="625" y="225" width="30" height="30" fill="rgb(255 255 255 / 50%)" />
  <rect x="730" y="225" width="30" height="30" fill="hsl(240 100% 93.32942968387776%)" />
  <rect x="765" y="225" width="30" height="30" fill="rgb(255 255 255 / 50%)" />
  <rect x="835" y="225" width="30" height="30" fill="hsl(240 100% 94.52488602955702%)" />
  <rect x="65" y="260" width="30" height="30" fill="hsl(240 100% 99.85216754065053%)" />
  <rect x="135" y="260" width="30" height="30" fill="hsl(240 100% 99.84830156817424%)" />
  <rect x="170" y="260" width="30" height="30" fill="hsl(240 100% 98.8434167362463%)" />
  <rect x="205" y="260" width="30" height="30" fill="rgb(255 255 255 / 50%)" />
  <rect x="240" y="260" width="30" height="30" fill="hsl(240 100% 86.89798162010382%)" />
  <rect x="310" y="260" width="30" height="30" fill="rgb(255 255 255 / 50%)" />
  <rect x="415" y="260" width="30" height="30" fill="hsl(240 100% 80.2397893019655%)" />
  <rect x="450" y="260" width="30" height="30" fill="rgb(255 255 255 / 50%)" />
  <rect x="485" y="260" width="30" height="30" fill="hsl(240 100% 50%)" />
  <rect x="520" y="260" width="30" height="30" fill="hsl(240 100% 70.48003299984121%)" />
  <rect x="625" y="260" width="30" height="30" fill="hsl(240 100% 97.06725751591404%)" />
  <rect x="695" y="260" width="30" height="30" fill="hsl(240 100% 93.98796338169322%)" />
  <rect x="65" y="295" width="30" height="30" fill="hsl(240 100% 86.2021210578832%)" />
  <rect x="100" y="295" width="30" height="30" fill="hsl(240 100% 97.53455280438565%)" />
  <rect x="135" y="295" width="30" height="30" fill="hsl(240 100% 95.10788574471316%)" />
  <rect x="170" y="295" width="30" height="30" fill="hsl(240 100% 90.70795906335613%)" />
  <rect x="205" y="295" width="30" height="30" fill="hsl(240 100% 99.45650805435542%)" />
  <rect x="240" y="295" width="30" height="30" fill="hsl(240 100% 50.71766016419641%)" />
  <rect x="275" y="295" width="30" height="30" fill="hsl(240 100% 50%)" />
  <rect x="310" y="295" width="30" height="30" fill="hsl(240 100% 99.50049398178368%)" />
  <rect x="345" y="295" width="30" height="30" fill="hsl(240 100% 94.73534960838207%)" />
  <rect x="415" y="295" width="30" height="30" fill="hsl(240 100% 55.3485792351143%)" />
  <rect x="450" y="295" width="30" height="30" fill="hsl(240 100% 99.33209441188873%)" />
  <rect x="485" y="295" width="30" height="30" fill="hsl(240 100% 88.6121045597383%)" />
  <rect x="520" y="295" width="30" height="30" fill="hsl(240 100% 57.92351737893412%)" />
  <rect x="695" y="295" width="30" height="30" fill="hsl(240 100% 97.61899992796639%)" />
  <rect x="800" y="295" width="30" height="30" fill="hsl(240 100% 99.57366419468227%)" />
  <rect x="835" y="295" width="30" height="30" fill="hsl(240 100% 99.9584958264988%)" />
  <rect x="65" y="330" width="30" height="30" fill="hsl(240 100% 88.4227578671138%)" />
  <rect x="100" y="330" width="30" height="30" fill="hsl(240 100% 94.7724143119457%)" />
  <rect x="135" y="330" width="30" height="30" fill="hsl(240 100% 97.13572715891281%)" />
  <rect x="170" y="330" width="30" height="30" fill="hsl(240 100% 88.07370275752847%)" />
  <rect x="205" y="330" width="30" height="30" fill="hsl(240 100% 99.17556361813081%)" />
  <rect x="240" y="330" width="30" height="30" fill="hsl(240 100% 79.25350837343068%)" />
  <rect x="275" y="330" width="30" height="30" fill="hsl(240 100% 87.25078989821002%)" />
  <rect x="310" y="330" width="30" height="30" fill="rgb(255 255 255 / 50%)" />
  <rect x="345" y="330" width="30" height="30" fill="hsl(240 100% 97.16473337560888%)" />
  <rect x="415" y="330" width="30" height="30" fill="hsl(240 100% 85.63518244516834%)" />
  <rect x="450" y="330" width="30" height="30" fill="hsl(240 100% 99.81280538761725%)" />
  <rect x="485" y="330" width="30" height="30" fill="hsl(240 100% 71.049678357851%)" />
  <rect x="520" y="330" width="30" height="30" fill="hsl(240 100% 76.04179940241414%)" />
  <rect x="590" y="330" width="30" height="30" fill="hsl(240 100% 93.72331448097462%)" />
  <rect x="625" y="330" width="30" height="30" fill="hsl(240 100% 50%)" />
  <rect x="765" y="330" width="30" height="30" fill="hsl(240 100% 94.33393563231098%)" />
  <rect x="800" y="330" width="30" height="30" fill="hsl(240 100% 99.20399140148321%)" />
  <rect x="835" y="330" width="30" height="30" fill="hsl(240 100% 80.67466726471716%)" />
  <rect x="65" y="365" width="30" height="30" fill="hsl(240 100% 57.49921368126053%)" />
  <rect x="100" y="365" width="30" height="30" fill="hsl(240 100% 71.84477469549623%)" />
  <rect x="135" y="365" width="30" height="30" fill="hsl(240 100% 82.14633839809764%)" />
  <rect x="170" y="365" width="30" height="30" fill="hsl(240 100% 50%)" />
  <rect x="205" y="365" width="30" height="30" fill="hsl(240 100% 96.1198902502087%)" />
  <rect x="240" y="365" width="30" height="30" fill="hsl(240 100% 60.560368565418216%)" />
  <rect x="275" y="365" width="30" height="30" fill="hsl(240 100% 92.18622113864885%)" />
  <rect x="310" y="365" width="30" height="30" fill="hsl(240 100% 99.86290971390775%)" />
  <rect x="415" y="365" width="30" height="30" fill="hsl(240 100% 66.83591518488608%)" />
  <rect x="520" y="365" width="30" height="30" fill="hsl(240 100% 86.06478943366974%)" />
  <rect x="625" y="365" width="30" height="30" fill="hsl(240 100% 99.63301979860839%)" />
  <rect x="730" y="365" width="30" height="30" fill="hsl(240 100% 63.81983599395708%)" />
  <rect x="765" y="365" width="30" height="30" fill="hsl(240 100% 98.17688761339257%)" />
  <rect x="835" y="365" width="30" height="30" fill="hsl(240 100% 98.76068083561425%)" />
  <rect x="65" y="400" width="30" height="30" fill="hsl(240 100% 98.04230110168936%)" />
  <rect x="100" y="400" width="30" height="30" fill="hsl(240 100% 99.21925634515617%)" />
  <rect x="135" y="400" width="30" height="30" fill="hsl(240 100% 99.57074446658032%)" />
  <rect x="170" y="400" width="30" height="30" fill="hsl(240 100% 93.80563179456732%)" />
  <rect x="205" y="400" width="30" height="30" fill="hsl(240 100% 98.98641369282758%)" />
  <rect x="240" y="400" width="30" height="30" fill="hsl(240 100% 81.19981814593805%)" />
  <rect x="275" y="400" width="30" height="30" fill="hsl(240 100% 93.71306475454047%)" />
  <rect x="310" y="400" width="30" height="30" fill="rgb(255 255 255 / 50%)" />
  <rect x="380" y="400" width="30" height="30" fill="rgb(255 255 255 / 50%)" />
  <rect x="415" y="400" width="30" height="30" fill="hsl(240 100% 92.09207678048153%)" />
  <rect x="450" y="400" width="30" height="30" fill="hsl(240 100% 99.96454440697345%)" />
  <rect x="485" y="400" width="30" height="30" fill="hsl(240 100% 72.18739259572959%)" />
  <rect x="520" y="400" width="30" height="30" fill="hsl(240 100% 50%)" />
  <rect x="555" y="400" width="30" height="30" fill="hsl(240 100% 98.80930669600775%)" />
  <rect x="660" y="400" width="30" height="30" fill="rgb(255 255 255 / 50%)" />
  <rect x="835" y="400" width="30" height="30" fill="hsl(240 100% 98.97014805234087%)" />
  <rect x="65" y="435" width="30" height="30" fill="hsl(240 100% 92.83840389731924%)" />
  <rect x="240" y="435" width="30" height="30" fill="hsl(240 100% 50%)" />
  <rect x="310" y="435" width="30" height="30" fill="hsl(240 100% 94.32185599320995%)" />
  <rect x="415" y="435" width="30" height="30" fill="hsl(240 100% 86.98637636067646%)" />
  <rect x="450" y="435" width="30" height="30" fill="hsl(240 100% 99.78255099544491%)" />
  <rect x="65" y="470" width="30" height="30" fill="hsl(240 100% 50%)" />
  <rect x="240" y="470" width="30" height="30" fill="hsl(240 100% 50.44366100047707%)" />
  <rect x="310" y="470" width="30" height="30" fill="hsl(240 100% 97.14595282649351%)" />
  <rect x="415" y="470" width="30" height="30" fill="hsl(240 100% 89.10055439967681%)" />
  <rect x="450" y="470" width="30" height="30" fill="hsl(240 100% 99.57309705473972%)" />
</svg>
