<svg xmlns="http://www.w3.org/2000/svg" viewBox="0 0 905 505">
  <rect x="0" y="0" width="905" height="505" rx="5" ry="5" fill="#222" />
  <text x="60" y="100" fill="white" font-family="sans-serif" font-weight="bold" font-size="12" text-anchor="end" dominant-baseline="middle">ba</text>
  <text x="60" y="135" fill="white" font-family="sans-serif" font-weight="bold" font-size="12" text-anchor="end" dominant-baseline="middle">det</text>
  <text x="60" y="170" fill="white" font-family="sans-serif" font-weight="bold" font-size="12" text-anchor="end" dominant-baseline="middle">gmm</text>
  <text x="60" y="205" fill="white" font-family="sans-serif" font-weight="bold" font-size="12" text-anchor="end" dominant-baseline="middle">hello</text>
  <text x="60" y="240" fill="white" font-family="sans-serif" font-weight="bold" font-size="12" text-anchor="end" dominant-baseline="middle">ht</text>
  <text x="60" y="275" fill="white" font-family="sans-serif" font-weight="bold" font-size="12" text-anchor="end" dominant-baseline="middle">kmeans</text>
  <text x="60" y="310" fill="white" font-family="sans-serif" font-weight="bold" font-size="12" text-anchor="end" dominant-baseline="middle">llsq</text>
  <text x="60" y="345" fill="white" font-family="sans-serif" font-weight="bold" font-size="12" text-anchor="end" dominant-baseline="middle">lse</text>
  <text x="60" y="380" fill="white" font-family="sans-serif" font-weight="bold" font-size="12" text-anchor="end" dominant-baseline="middle">lstm</text>
  <text x="60" y="415" fill="white" font-family="sans-serif" font-weight="bold" font-size="12" text-anchor="end" dominant-baseline="middle">ode</text>
  <text x="60" y="450" fill="white" font-family="sans-serif" font-weight="bold" font-size="12" text-anchor="end" dominant-baseline="middle">particle</text>
  <text x="60" y="485" fill="white" font-family="sans-serif" font-weight="bold" font-size="12" text-anchor="end" dominant-baseline="middle">saddle</text>
  <text x="80" y="80" fill="white" font-family="sans-serif" font-weight="bold" font-size="12" text-anchor="end" dominant-baseline="middle" transform="rotate(90 80 80)">ad-hpp</text>
  <text x="115" y="80" fill="white" font-family="sans-serif" font-weight="bold" font-size="12" text-anchor="end" dominant-baseline="middle" transform="rotate(90 115 80)">adept</text>
  <text x="150" y="80" fill="white" font-family="sans-serif" font-weight="bold" font-size="12" text-anchor="end" dominant-baseline="middle" transform="rotate(90 150 80)">adol-c</text>
  <text x="185" y="80" fill="white" font-family="sans-serif" font-weight="bold" font-size="12" text-anchor="end" dominant-baseline="middle" transform="rotate(90 185 80)">codipack</text>
  <text x="220" y="80" fill="white" font-family="sans-serif" font-weight="bold" font-size="12" text-anchor="end" dominant-baseline="middle" transform="rotate(90 220 80)">cppad</text>
  <text x="255" y="80" fill="white" font-family="sans-serif" font-weight="bold" font-size="12" text-anchor="end" dominant-baseline="middle" transform="rotate(90 255 80)">enzyme</text>
  <text x="290" y="80" fill="white" font-family="sans-serif" font-weight="bold" font-size="12" text-anchor="end" dominant-baseline="middle" transform="rotate(90 290 80)">enzyme-jl</text>
  <text x="325" y="80" fill="white" font-family="sans-serif" font-weight="bold" font-size="12" text-anchor="end" dominant-baseline="middle" transform="rotate(90 325 80)">finite</text>
  <text x="360" y="80" fill="white" font-family="sans-serif" font-weight="bold" font-size="12" text-anchor="end" dominant-baseline="middle" transform="rotate(90 360 80)">floretta</text>
  <text x="395" y="80" fill="white" font-family="sans-serif" font-weight="bold" font-size="12" text-anchor="end" dominant-baseline="middle" transform="rotate(90 395 80)">forwarddiff-jl</text>
  <text x="430" y="80" fill="white" font-family="sans-serif" font-weight="bold" font-size="12" text-anchor="end" dominant-baseline="middle" transform="rotate(90 430 80)">futhark</text>
  <text x="465" y="80" fill="white" font-family="sans-serif" font-weight="bold" font-size="12" text-anchor="end" dominant-baseline="middle" transform="rotate(90 465 80)">haskell-ad</text>
  <text x="500" y="80" fill="white" font-family="sans-serif" font-weight="bold" font-size="12" text-anchor="end" dominant-baseline="middle" transform="rotate(90 500 80)">horde-ad</text>
  <text x="535" y="80" fill="white" font-family="sans-serif" font-weight="bold" font-size="12" text-anchor="end" dominant-baseline="middle" transform="rotate(90 535 80)">jax</text>
  <text x="570" y="80" fill="white" font-family="sans-serif" font-weight="bold" font-size="12" text-anchor="end" dominant-baseline="middle" transform="rotate(90 570 80)">manual</text>
  <text x="605" y="80" fill="white" font-family="sans-serif" font-weight="bold" font-size="12" text-anchor="end" dominant-baseline="middle" transform="rotate(90 605 80)">mooncake-jl</text>
  <text x="640" y="80" fill="white" font-family="sans-serif" font-weight="bold" font-size="12" text-anchor="end" dominant-baseline="middle" transform="rotate(90 640 80)">ocaml</text>
  <text x="675" y="80" fill="white" font-family="sans-serif" font-weight="bold" font-size="12" text-anchor="end" dominant-baseline="middle" transform="rotate(90 675 80)">pytorch</text>
  <text x="710" y="80" fill="white" font-family="sans-serif" font-weight="bold" font-size="12" text-anchor="end" dominant-baseline="middle" transform="rotate(90 710 80)">reversediff-jl</text>
  <text x="745" y="80" fill="white" font-family="sans-serif" font-weight="bold" font-size="12" text-anchor="end" dominant-baseline="middle" transform="rotate(90 745 80)">scilean</text>
  <text x="780" y="80" fill="white" font-family="sans-serif" font-weight="bold" font-size="12" text-anchor="end" dominant-baseline="middle" transform="rotate(90 780 80)">tapenade</text>
  <text x="815" y="80" fill="white" font-family="sans-serif" font-weight="bold" font-size="12" text-anchor="end" dominant-baseline="middle" transform="rotate(90 815 80)">tensorflow</text>
  <text x="850" y="80" fill="white" font-family="sans-serif" font-weight="bold" font-size="12" text-anchor="end" dominant-baseline="middle" transform="rotate(90 850 80)">tensorflow-js</text>
  <text x="885" y="80" fill="white" font-family="sans-serif" font-weight="bold" font-size="12" text-anchor="end" dominant-baseline="middle" transform="rotate(90 885 80)">zygote</text>
  <rect x="65" y="85" width="30" height="30" fill="hsl(240 100% 81.21325618928054%)" />
  <rect x="100" y="85" width="30" height="30" fill="hsl(240 100% 82.27411572093078%)" />
  <rect x="135" y="85" width="30" height="30" fill="hsl(240 100% 98.15645653593002%)" />
  <rect x="170" y="85" width="30" height="30" fill="hsl(240 100% 75.15136796098528%)" />
  <rect x="205" y="85" width="30" height="30" fill="hsl(240 100% 98.99691561153061%)" />
  <rect x="240" y="85" width="30" height="30" fill="hsl(240 100% 50%)" />
  <rect x="310" y="85" width="30" height="30" fill="hsl(240 100% 93.61826166321362%)" />
  <rect x="415" y="85" width="30" height="30" fill="hsl(240 100% 67.99065894541674%)" />
  <rect x="555" y="85" width="30" height="30" fill="hsl(240 100% 53.83849471745558%)" />
  <rect x="660" y="85" width="30" height="30" fill="rgb(255 255 255 / 50%)" />
  <rect x="765" y="85" width="30" height="30" fill="hsl(240 100% 74.32542785343806%)" />
  <rect x="800" y="85" width="30" height="30" fill="rgb(255 255 255 / 50%)" />
  <rect x="870" y="85" width="30" height="30" fill="hsl(240 100% 99.74605836755583%)" />
  <rect x="65" y="120" width="30" height="30" fill="hsl(240 100% 50%)" />
  <rect x="100" y="120" width="30" height="30" fill="hsl(240 100% 82.80691795266682%)" />
  <rect x="135" y="120" width="30" height="30" fill="hsl(240 100% 86.26086555253305%)" />
  <rect x="170" y="120" width="30" height="30" fill="hsl(240 100% 56.1820483066225%)" />
  <rect x="205" y="120" width="30" height="30" fill="hsl(240 100% 93.1510446116579%)" />
  <rect x="240" y="120" width="30" height="30" fill="hsl(240 100% 92.15092457582938%)" />
  <rect x="275" y="120" width="30" height="30" fill="hsl(240 100% 99.32898669318979%)" />
  <rect x="310" y="120" width="30" height="30" fill="hsl(240 100% 99.17711025137%)" />
  <rect x="380" y="120" width="30" height="30" fill="hsl(240 100% 94.15792794772658%)" />
  <rect x="415" y="120" width="30" height="30" fill="hsl(240 100% 95.17088502524327%)" />
  <rect x="450" y="120" width="30" height="30" fill="hsl(240 100% 97.78895420484263%)" />
  <rect x="485" y="120" width="30" height="30" fill="hsl(240 100% 98.1219627181092%)" />
  <rect x="555" y="120" width="30" height="30" fill="hsl(240 100% 81.09908580963801%)" />
  <rect x="590" y="120" width="30" height="30" fill="hsl(240 100% 96.05346379059642%)" />
  <rect x="695" y="120" width="30" height="30" fill="rgb(255 255 255 / 50%)" />
  <rect x="870" y="120" width="30" height="30" fill="rgb(255 255 255 / 50%)" />
  <rect x="65" y="155" width="30" height="30" fill="hsl(240 100% 98.51869527646446%)" />
  <rect x="100" y="155" width="30" height="30" fill="hsl(240 100% 98.81710955402569%)" />
  <rect x="135" y="155" width="30" height="30" fill="hsl(240 100% 99.07192695829022%)" />
  <rect x="170" y="155" width="30" height="30" fill="hsl(240 100% 98.39665570464122%)" />
  <rect x="205" y="155" width="30" height="30" fill="hsl(240 100% 99.816355616453%)" />
  <rect x="240" y="155" width="30" height="30" fill="hsl(240 100% 95.3752730113661%)" />
  <rect x="275" y="155" width="30" height="30" fill="hsl(240 100% 91.5818050110924%)" />
  <rect x="310" y="155" width="30" height="30" fill="rgb(255 255 255 / 50%)" />
  <rect x="415" y="155" width="30" height="30" fill="hsl(240 100% 93.09421318116952%)" />
  <rect x="485" y="155" width="30" height="30" fill="hsl(240 100% 98.57218729140091%)" />
  <rect x="520" y="155" width="30" height="30" fill="hsl(240 100% 50%)" />
  <rect x="555" y="155" width="30" height="30" fill="hsl(240 100% 82.30142250612577%)" />
  <rect x="590" y="155" width="30" height="30" fill="hsl(240 100% 94.79756576256467%)" />
  <rect x="625" y="155" width="30" height="30" fill="hsl(240 100% 99.5899380042968%)" />
  <rect x="660" y="155" width="30" height="30" fill="hsl(240 100% 67.59181299671553%)" />
  <rect x="730" y="155" width="30" height="30" fill="hsl(240 100% 94.96101635514786%)" />
  <rect x="765" y="155" width="30" height="30" fill="hsl(240 100% 84.03133079454368%)" />
  <rect x="800" y="155" width="30" height="30" fill="hsl(240 100% 99.40799968965263%)" />
  <rect x="870" y="155" width="30" height="30" fill="hsl(240 100% 95.74630958697288%)" />
  <rect x="65" y="190" width="30" height="30" fill="hsl(240 100% 50%)" />
  <rect x="100" y="190" width="30" height="30" fill="hsl(240 100% 50%)" />
  <rect x="135" y="190" width="30" height="30" fill="hsl(240 100% 50%)" />
  <rect x="170" y="190" width="30" height="30" fill="hsl(240 100% 50%)" />
  <rect x="205" y="190" width="30" height="30" fill="hsl(240 100% 50%)" />
  <rect x="240" y="190" width="30" height="30" fill="hsl(240 100% 50%)" />
  <rect x="275" y="190" width="30" height="30" fill="hsl(240 100% 50%)" />
  <rect x="310" y="190" width="30" height="30" fill="hsl(240 100% 50%)" />
  <rect x="345" y="190" width="30" height="30" fill="hsl(240 100% 50%)" />
  <rect x="380" y="190" width="30" height="30" fill="hsl(240 100% 50%)" />
  <rect x="415" y="190" width="30" height="30" fill="hsl(240 100% 50%)" />
  <rect x="450" y="190" width="30" height="30" fill="hsl(240 100% 50%)" />
  <rect x="485" y="190" width="30" height="30" fill="hsl(240 100% 50%)" />
  <rect x="520" y="190" width="30" height="30" fill="hsl(240 100% 50%)" />
  <rect x="555" y="190" width="30" height="30" fill="hsl(240 100% 50%)" />
  <rect x="590" y="190" width="30" height="30" fill="hsl(240 100% 50%)" />
  <rect x="625" y="190" width="30" height="30" fill="hsl(240 100% 50%)" />
  <rect x="660" y="190" width="30" height="30" fill="hsl(240 100% 50%)" />
  <rect x="695" y="190" width="30" height="30" fill="hsl(240 100% 50%)" />
  <rect x="730" y="190" width="30" height="30" fill="hsl(240 100% 50%)" />
  <rect x="765" y="190" width="30" height="30" fill="hsl(240 100% 50%)" />
  <rect x="800" y="190" width="30" height="30" fill="hsl(240 100% 50%)" />
  <rect x="835" y="190" width="30" height="30" fill="hsl(240 100% 50%)" />
  <rect x="870" y="190" width="30" height="30" fill="hsl(240 100% 50%)" />
  <rect x="100" y="225" width="30" height="30" fill="hsl(240 100% 95.98769716161654%)" />
  <rect x="135" y="225" width="30" height="30" fill="hsl(240 100% 87.9326565070694%)" />
  <rect x="170" y="225" width="30" height="30" fill="hsl(240 100% 90.22791312528145%)" />
  <rect x="240" y="225" width="30" height="30" fill="hsl(240 100% 90.21407248247701%)" />
  <rect x="310" y="225" width="30" height="30" fill="rgb(255 255 255 / 50%)" />
  <rect x="415" y="225" width="30" height="30" fill="hsl(240 100% 89.52846062130857%)" />
  <rect x="555" y="225" width="30" height="30" fill="hsl(240 100% 50%)" />
  <rect x="660" y="225" width="30" height="30" fill="rgb(255 255 255 / 50%)" />
  <rect x="765" y="225" width="30" height="30" fill="hsl(240 100% 92.27225001464319%)" />
  <rect x="800" y="225" width="30" height="30" fill="rgb(255 255 255 / 50%)" />
  <rect x="870" y="225" width="30" height="30" fill="hsl(240 100% 93.5116304257316%)" />
  <rect x="135" y="260" width="30" height="30" fill="hsl(240 100% 99.85163313736588%)" />
  <rect x="170" y="260" width="30" height="30" fill="hsl(240 100% 98.6749903458103%)" />
  <rect x="205" y="260" width="30" height="30" fill="rgb(255 255 255 / 50%)" />
  <rect x="240" y="260" width="30" height="30" fill="hsl(240 100% 87.65281851456719%)" />
  <rect x="310" y="260" width="30" height="30" fill="rgb(255 255 255 / 50%)" />
  <rect x="380" y="260" width="30" height="30" fill="rgb(255 255 255 / 50%)" />
  <rect x="415" y="260" width="30" height="30" fill="hsl(240 100% 84.91244326278832%)" />
  <rect x="450" y="260" width="30" height="30" fill="rgb(255 255 255 / 50%)" />
  <rect x="485" y="260" width="30" height="30" fill="hsl(240 100% 98.97572297957309%)" />
  <rect x="520" y="260" width="30" height="30" fill="hsl(240 100% 50%)" />
  <rect x="555" y="260" width="30" height="30" fill="hsl(240 100% 72.01878241369103%)" />
  <rect x="660" y="260" width="30" height="30" fill="hsl(240 100% 96.98623693986345%)" />
  <rect x="695" y="260" width="30" height="30" fill="rgb(255 255 255 / 50%)" />
  <rect x="730" y="260" width="30" height="30" fill="hsl(240 100% 93.47872131218148%)" />
  <rect x="65" y="295" width="30" height="30" fill="hsl(240 100% 88.0482693162365%)" />
  <rect x="100" y="295" width="30" height="30" fill="hsl(240 100% 97.71680706932989%)" />
  <rect x="135" y="295" width="30" height="30" fill="hsl(240 100% 94.75942662665796%)" />
  <rect x="170" y="295" width="30" height="30" fill="hsl(240 100% 90.85540575113647%)" />
  <rect x="205" y="295" width="30" height="30" fill="hsl(240 100% 99.58865501979116%)" />
  <rect x="240" y="295" width="30" height="30" fill="hsl(240 100% 60.706327433705034%)" />
  <rect x="275" y="295" width="30" height="30" fill="hsl(240 100% 68.28421403849653%)" />
  <rect x="310" y="295" width="30" height="30" fill="hsl(240 100% 99.57042847255653%)" />
  <rect x="345" y="295" width="30" height="30" fill="hsl(240 100% 95.48859072322614%)" />
  <rect x="415" y="295" width="30" height="30" fill="hsl(240 100% 50%)" />
  <rect x="450" y="295" width="30" height="30" fill="hsl(240 100% 99.38401701751566%)" />
  <rect x="485" y="295" width="30" height="30" fill="hsl(240 100% 96.41283665040761%)" />
  <rect x="520" y="295" width="30" height="30" fill="hsl(240 100% 86.36234086134995%)" />
  <rect x="555" y="295" width="30" height="30" fill="hsl(240 100% 63.88134504913061%)" />
  <rect x="590" y="295" width="30" height="30" fill="hsl(240 100% 91.25556562654344%)" />
  <rect x="730" y="295" width="30" height="30" fill="hsl(240 100% 97.85387029518564%)" />
  <rect x="835" y="295" width="30" height="30" fill="hsl(240 100% 99.62312223598299%)" />
  <rect x="870" y="295" width="30" height="30" fill="hsl(240 100% 99.95958508933056%)" />
  <rect x="65" y="330" width="30" height="30" fill="hsl(240 100% 86.58563236874545%)" />
  <rect x="100" y="330" width="30" height="30" fill="hsl(240 100% 92.76219090721793%)" />
  <rect x="135" y="330" width="30" height="30" fill="hsl(240 100% 94.65553175249202%)" />
  <rect x="170" y="330" width="30" height="30" fill="hsl(240 100% 85.46709349765354%)" />
  <rect x="205" y="330" width="30" height="30" fill="hsl(240 100% 99.06141280695371%)" />
  <rect x="240" y="330" width="30" height="30" fill="hsl(240 100% 78.94318975479734%)" />
  <rect x="275" y="330" width="30" height="30" fill="hsl(240 100% 88.24404534705523%)" />
  <rect x="310" y="330" width="30" height="30" fill="rgb(255 255 255 / 50%)" />
  <rect x="345" y="330" width="30" height="30" fill="hsl(240 100% 96.49576545996892%)" />
  <rect x="415" y="330" width="30" height="30" fill="hsl(240 100% 83.0788090893489%)" />
  <rect x="450" y="330" width="30" height="30" fill="hsl(240 100% 99.75054087453209%)" />
  <rect x="485" y="330" width="30" height="30" fill="hsl(240 100% 86.23576841658291%)" />
  <rect x="520" y="330" width="30" height="30" fill="hsl(240 100% 67.07668507545188%)" />
  <rect x="555" y="330" width="30" height="30" fill="hsl(240 100% 65.66642804768887%)" />
  <rect x="590" y="330" width="30" height="30" fill="hsl(240 100% 82.49164035819106%)" />
  <rect x="625" y="330" width="30" height="30" fill="hsl(240 100% 92.86903526466321%)" />
  <rect x="660" y="330" width="30" height="30" fill="hsl(240 100% 50%)" />
  <rect x="800" y="330" width="30" height="30" fill="hsl(240 100% 94.37361357272272%)" />
  <rect x="835" y="330" width="30" height="30" fill="hsl(240 100% 99.00421232331684%)" />
  <rect x="870" y="330" width="30" height="30" fill="hsl(240 100% 95.75358223671807%)" />
  <rect x="65" y="365" width="30" height="30" fill="hsl(240 100% 57.34540574012969%)" />
  <rect x="100" y="365" width="30" height="30" fill="hsl(240 100% 69.0347213558563%)" />
  <rect x="135" y="365" width="30" height="30" fill="hsl(240 100% 76.41071895542053%)" />
  <rect x="170" y="365" width="30" height="30" fill="hsl(240 100% 50%)" />
  <rect x="205" y="365" width="30" height="30" fill="hsl(240 100% 96.25290116184458%)" />
  <rect x="240" y="365" width="30" height="30" fill="hsl(240 100% 55.57001547273525%)" />
  <rect x="275" y="365" width="30" height="30" fill="hsl(240 100% 93.73329289815857%)" />
  <rect x="310" y="365" width="30" height="30" fill="hsl(240 100% 99.86190981436644%)" />
  <rect x="415" y="365" width="30" height="30" fill="hsl(240 100% 50.807890322633234%)" />
  <rect x="485" y="365" width="30" height="30" fill="hsl(240 100% 99.41490116114915%)" />
  <rect x="555" y="365" width="30" height="30" fill="hsl(240 100% 86.1182330315904%)" />
  <rect x="590" y="365" width="30" height="30" fill="hsl(240 100% 95.32697747287429%)" />
  <rect x="660" y="365" width="30" height="30" fill="hsl(240 100% 99.65244979737716%)" />
  <rect x="765" y="365" width="30" height="30" fill="hsl(240 100% 63.37294814355857%)" />
  <rect x="800" y="365" width="30" height="30" fill="hsl(240 100% 97.86605085061791%)" />
  <rect x="870" y="365" width="30" height="30" fill="hsl(240 100% 98.55051682052752%)" />
  <rect x="65" y="400" width="30" height="30" fill="hsl(240 100% 97.69709434910371%)" />
  <rect x="100" y="400" width="30" height="30" fill="hsl(240 100% 99.20385709921%)" />
  <rect x="135" y="400" width="30" height="30" fill="hsl(240 100% 99.60565488383965%)" />
  <rect x="170" y="400" width="30" height="30" fill="hsl(240 100% 93.28426114427802%)" />
  <rect x="205" y="400" width="30" height="30" fill="hsl(240 100% 99.06334789699476%)" />
  <rect x="240" y="400" width="30" height="30" fill="hsl(240 100% 82.57597616893786%)" />
  <rect x="275" y="400" width="30" height="30" fill="hsl(240 100% 94.33735198189899%)" />
  <rect x="310" y="400" width="30" height="30" fill="rgb(255 255 255 / 50%)" />
  <rect x="380" y="400" width="30" height="30" fill="rgb(255 255 255 / 50%)" />
  <rect x="415" y="400" width="30" height="30" fill="hsl(240 100% 92.53155854901854%)" />
  <rect x="450" y="400" width="30" height="30" fill="hsl(240 100% 99.97283052597632%)" />
  <rect x="485" y="400" width="30" height="30" fill="hsl(240 100% 99.4706502519552%)" />
  <rect x="520" y="400" width="30" height="30" fill="hsl(240 100% 73.35790013827997%)" />
  <rect x="555" y="400" width="30" height="30" fill="hsl(240 100% 50%)" />
  <rect x="590" y="400" width="30" height="30" fill="hsl(240 100% 98.99080279992455%)" />
  <rect x="695" y="400" width="30" height="30" fill="rgb(255 255 255 / 50%)" />
  <rect x="870" y="400" width="30" height="30" fill="hsl(240 100% 99.01291141829249%)" />
  <rect x="65" y="435" width="30" height="30" fill="hsl(240 100% 92.84521007857221%)" />
  <rect x="240" y="435" width="30" height="30" fill="hsl(240 100% 50%)" />
  <rect x="310" y="435" width="30" height="30" fill="hsl(240 100% 93.40047398268484%)" />
  <rect x="415" y="435" width="30" height="30" fill="hsl(240 100% 83.78593978489587%)" />
  <rect x="450" y="435" width="30" height="30" fill="hsl(240 100% 99.77586893671929%)" />
  <rect x="485" y="435" width="30" height="30" fill="hsl(240 100% 99.93493722508678%)" />
  <rect x="65" y="470" width="30" height="30" fill="hsl(240 100% 50%)" />
  <rect x="240" y="470" width="30" height="30" fill="hsl(240 100% 56.22736799070807%)" />
  <rect x="310" y="470" width="30" height="30" fill="hsl(240 100% 96.9609015920725%)" />
  <rect x="415" y="470" width="30" height="30" fill="hsl(240 100% 86.90413494943385%)" />
  <rect x="450" y="470" width="30" height="30" fill="hsl(240 100% 99.5793821984887%)" />
  <rect x="485" y="470" width="30" height="30" fill="hsl(240 100% 99.93952394671163%)" />
</svg>
