<svg xmlns="http://www.w3.org/2000/svg" viewBox="0 0 905 505">
  <rect x="0" y="0" width="905" height="505" rx="5" ry="5" fill="#222" />
  <text x="60" y="100" fill="white" font-family="sans-serif" font-weight="bold" font-size="12" text-anchor="end" dominant-baseline="middle">ba</text>
  <text x="60" y="135" fill="white" font-family="sans-serif" font-weight="bold" font-size="12" text-anchor="end" dominant-baseline="middle">det</text>
  <text x="60" y="170" fill="white" font-family="sans-serif" font-weight="bold" font-size="12" text-anchor="end" dominant-baseline="middle">gmm</text>
  <text x="60" y="205" fill="white" font-family="sans-serif" font-weight="bold" font-size="12" text-anchor="end" dominant-baseline="middle">hello</text>
  <text x="60" y="240" fill="white" font-family="sans-serif" font-weight="bold" font-size="12" text-anchor="end" dominant-baseline="middle">ht</text>
  <text x="60" y="275" fill="white" font-family="sans-serif" font-weight="bold" font-size="12" text-anchor="end" dominant-baseline="middle">kmeans</text>
  <text x="60" y="310" fill="white" font-family="sans-serif" font-weight="bold" font-size="12" text-anchor="end" dominant-baseline="middle">llsq</text>
  <text x="60" y="345" fill="white" font-family="sans-serif" font-weight="bold" font-size="12" text-anchor="end" dominant-baseline="middle">lse</text>
  <text x="60" y="380" fill="white" font-family="sans-serif" font-weight="bold" font-size="12" text-anchor="end" dominant-baseline="middle">lstm</text>
  <text x="60" y="415" fill="white" font-family="sans-serif" font-weight="bold" font-size="12" text-anchor="end" dominant-baseline="middle">ode</text>
  <text x="60" y="450" fill="white" font-family="sans-serif" font-weight="bold" font-size="12" text-anchor="end" dominant-baseline="middle">particle</text>
  <text x="60" y="485" fill="white" font-family="sans-serif" font-weight="bold" font-size="12" text-anchor="end" dominant-baseline="middle">saddle</text>
  <text x="80" y="80" fill="white" font-family="sans-serif" font-weight="bold" font-size="12" text-anchor="end" dominant-baseline="middle" transform="rotate(90 80 80)">ad-hpp</text>
  <text x="115" y="80" fill="white" font-family="sans-serif" font-weight="bold" font-size="12" text-anchor="end" dominant-baseline="middle" transform="rotate(90 115 80)">adept</text>
  <text x="150" y="80" fill="white" font-family="sans-serif" font-weight="bold" font-size="12" text-anchor="end" dominant-baseline="middle" transform="rotate(90 150 80)">adol-c</text>
  <text x="185" y="80" fill="white" font-family="sans-serif" font-weight="bold" font-size="12" text-anchor="end" dominant-baseline="middle" transform="rotate(90 185 80)">codipack</text>
  <text x="220" y="80" fill="white" font-family="sans-serif" font-weight="bold" font-size="12" text-anchor="end" dominant-baseline="middle" transform="rotate(90 220 80)">cppad</text>
  <text x="255" y="80" fill="white" font-family="sans-serif" font-weight="bold" font-size="12" text-anchor="end" dominant-baseline="middle" transform="rotate(90 255 80)">enzyme</text>
  <text x="290" y="80" fill="white" font-family="sans-serif" font-weight="bold" font-size="12" text-anchor="end" dominant-baseline="middle" transform="rotate(90 290 80)">enzyme-jl</text>
  <text x="325" y="80" fill="white" font-family="sans-serif" font-weight="bold" font-size="12" text-anchor="end" dominant-baseline="middle" transform="rotate(90 325 80)">finite</text>
  <text x="360" y="80" fill="white" font-family="sans-serif" font-weight="bold" font-size="12" text-anchor="end" dominant-baseline="middle" transform="rotate(90 360 80)">floretta</text>
  <text x="395" y="80" fill="white" font-family="sans-serif" font-weight="bold" font-size="12" text-anchor="end" dominant-baseline="middle" transform="rotate(90 395 80)">forwarddiff-jl</text>
  <text x="430" y="80" fill="white" font-family="sans-serif" font-weight="bold" font-size="12" text-anchor="end" dominant-baseline="middle" transform="rotate(90 430 80)">futhark</text>
  <text x="465" y="80" fill="white" font-family="sans-serif" font-weight="bold" font-size="12" text-anchor="end" dominant-baseline="middle" transform="rotate(90 465 80)">haskell-ad</text>
  <text x="500" y="80" fill="white" font-family="sans-serif" font-weight="bold" font-size="12" text-anchor="end" dominant-baseline="middle" transform="rotate(90 500 80)">horde-ad</text>
  <text x="535" y="80" fill="white" font-family="sans-serif" font-weight="bold" font-size="12" text-anchor="end" dominant-baseline="middle" transform="rotate(90 535 80)">jax</text>
  <text x="570" y="80" fill="white" font-family="sans-serif" font-weight="bold" font-size="12" text-anchor="end" dominant-baseline="middle" transform="rotate(90 570 80)">manual</text>
  <text x="605" y="80" fill="white" font-family="sans-serif" font-weight="bold" font-size="12" text-anchor="end" dominant-baseline="middle" transform="rotate(90 605 80)">mooncake-jl</text>
  <text x="640" y="80" fill="white" font-family="sans-serif" font-weight="bold" font-size="12" text-anchor="end" dominant-baseline="middle" transform="rotate(90 640 80)">ocaml</text>
  <text x="675" y="80" fill="white" font-family="sans-serif" font-weight="bold" font-size="12" text-anchor="end" dominant-baseline="middle" transform="rotate(90 675 80)">pytorch</text>
  <text x="710" y="80" fill="white" font-family="sans-serif" font-weight="bold" font-size="12" text-anchor="end" dominant-baseline="middle" transform="rotate(90 710 80)">reversediff-jl</text>
  <text x="745" y="80" fill="white" font-family="sans-serif" font-weight="bold" font-size="12" text-anchor="end" dominant-baseline="middle" transform="rotate(90 745 80)">scilean</text>
  <text x="780" y="80" fill="white" font-family="sans-serif" font-weight="bold" font-size="12" text-anchor="end" dominant-baseline="middle" transform="rotate(90 780 80)">tapenade</text>
  <text x="815" y="80" fill="white" font-family="sans-serif" font-weight="bold" font-size="12" text-anchor="end" dominant-baseline="middle" transform="rotate(90 815 80)">tensorflow</text>
  <text x="850" y="80" fill="white" font-family="sans-serif" font-weight="bold" font-size="12" text-anchor="end" dominant-baseline="middle" transform="rotate(90 850 80)">tensorflow-js</text>
  <text x="885" y="80" fill="white" font-family="sans-serif" font-weight="bold" font-size="12" text-anchor="end" dominant-baseline="middle" transform="rotate(90 885 80)">zygote</text>
  <rect x="65" y="85" width="30" height="30" fill="hsl(240 100% 81.68743630310746%)" />
  <rect x="100" y="85" width="30" height="30" fill="hsl(240 100% 82.72939931749895%)" />
  <rect x="135" y="85" width="30" height="30" fill="hsl(240 100% 98.02166048402685%)" />
  <rect x="170" y="85" width="30" height="30" fill="hsl(240 100% 80.90485887980073%)" />
  <rect x="205" y="85" width="30" height="30" fill="hsl(240 100% 99.01014871666456%)" />
  <rect x="240" y="85" width="30" height="30" fill="hsl(240 100% 50%)" />
  <rect x="310" y="85" width="30" height="30" fill="hsl(240 100% 89.52337658601829%)" />
  <rect x="415" y="85" width="30" height="30" fill="hsl(240 100% 58.00767317594572%)" />
  <rect x="555" y="85" width="30" height="30" fill="hsl(240 100% 56.06327286899081%)" />
  <rect x="660" y="85" width="30" height="30" fill="rgb(255 255 255 / 50%)" />
  <rect x="765" y="85" width="30" height="30" fill="hsl(240 100% 74.59039774817029%)" />
  <rect x="800" y="85" width="30" height="30" fill="rgb(255 255 255 / 50%)" />
  <rect x="870" y="85" width="30" height="30" fill="hsl(240 100% 99.75479900814051%)" />
  <rect x="65" y="120" width="30" height="30" fill="hsl(240 100% 50%)" />
  <rect x="100" y="120" width="30" height="30" fill="hsl(240 100% 82.56487012059648%)" />
  <rect x="135" y="120" width="30" height="30" fill="hsl(240 100% 86.38753104498394%)" />
  <rect x="170" y="120" width="30" height="30" fill="hsl(240 100% 54.15666466568542%)" />
  <rect x="205" y="120" width="30" height="30" fill="hsl(240 100% 93.04986597288053%)" />
  <rect x="240" y="120" width="30" height="30" fill="hsl(240 100% 92.38884682745496%)" />
  <rect x="275" y="120" width="30" height="30" fill="hsl(240 100% 99.4112221230452%)" />
  <rect x="310" y="120" width="30" height="30" fill="hsl(240 100% 99.05858417427413%)" />
  <rect x="380" y="120" width="30" height="30" fill="hsl(240 100% 94.08768556176189%)" />
  <rect x="415" y="120" width="30" height="30" fill="hsl(240 100% 95.10208285412803%)" />
  <rect x="450" y="120" width="30" height="30" fill="hsl(240 100% 97.53210399959343%)" />
  <rect x="485" y="120" width="30" height="30" fill="hsl(240 100% 97.99203603387764%)" />
  <rect x="555" y="120" width="30" height="30" fill="hsl(240 100% 81.09432687159311%)" />
  <rect x="590" y="120" width="30" height="30" fill="hsl(240 100% 96.74934954639426%)" />
  <rect x="695" y="120" width="30" height="30" fill="rgb(255 255 255 / 50%)" />
  <rect x="870" y="120" width="30" height="30" fill="rgb(255 255 255 / 50%)" />
  <rect x="65" y="155" width="30" height="30" fill="hsl(240 100% 98.59461392188514%)" />
  <rect x="100" y="155" width="30" height="30" fill="hsl(240 100% 98.65362691103198%)" />
  <rect x="135" y="155" width="30" height="30" fill="hsl(240 100% 99.34389934478945%)" />
  <rect x="170" y="155" width="30" height="30" fill="hsl(240 100% 97.87931384963717%)" />
  <rect x="205" y="155" width="30" height="30" fill="hsl(240 100% 99.764436293091%)" />
  <rect x="240" y="155" width="30" height="30" fill="hsl(240 100% 91.33826592741259%)" />
  <rect x="275" y="155" width="30" height="30" fill="hsl(240 100% 90.46778279209877%)" />
  <rect x="310" y="155" width="30" height="30" fill="rgb(255 255 255 / 50%)" />
  <rect x="415" y="155" width="30" height="30" fill="hsl(240 100% 91.48729645612374%)" />
  <rect x="485" y="155" width="30" height="30" fill="hsl(240 100% 98.50654735972734%)" />
  <rect x="520" y="155" width="30" height="30" fill="hsl(240 100% 50%)" />
  <rect x="555" y="155" width="30" height="30" fill="hsl(240 100% 80.61096483485953%)" />
  <rect x="590" y="155" width="30" height="30" fill="hsl(240 100% 96.00431297408912%)" />
  <rect x="625" y="155" width="30" height="30" fill="hsl(240 100% 99.56228278518246%)" />
  <rect x="660" y="155" width="30" height="30" fill="hsl(240 100% 81.85242399552111%)" />
  <rect x="730" y="155" width="30" height="30" fill="hsl(240 100% 95.01809315253458%)" />
  <rect x="765" y="155" width="30" height="30" fill="hsl(240 100% 89.7624681704655%)" />
  <rect x="800" y="155" width="30" height="30" fill="hsl(240 100% 99.36339032284306%)" />
  <rect x="870" y="155" width="30" height="30" fill="hsl(240 100% 95.94403293088028%)" />
  <rect x="65" y="190" width="30" height="30" fill="hsl(240 100% 50%)" />
  <rect x="100" y="190" width="30" height="30" fill="hsl(240 100% 50%)" />
  <rect x="135" y="190" width="30" height="30" fill="hsl(240 100% 50%)" />
  <rect x="170" y="190" width="30" height="30" fill="hsl(240 100% 50%)" />
  <rect x="205" y="190" width="30" height="30" fill="hsl(240 100% 50%)" />
  <rect x="240" y="190" width="30" height="30" fill="hsl(240 100% 50%)" />
  <rect x="275" y="190" width="30" height="30" fill="hsl(240 100% 50%)" />
  <rect x="310" y="190" width="30" height="30" fill="hsl(240 100% 50%)" />
  <rect x="345" y="190" width="30" height="30" fill="hsl(240 100% 50%)" />
  <rect x="380" y="190" width="30" height="30" fill="hsl(240 100% 50%)" />
  <rect x="415" y="190" width="30" height="30" fill="hsl(240 100% 50%)" />
  <rect x="450" y="190" width="30" height="30" fill="hsl(240 100% 50%)" />
  <rect x="485" y="190" width="30" height="30" fill="hsl(240 100% 50%)" />
  <rect x="520" y="190" width="30" height="30" fill="hsl(240 100% 50%)" />
  <rect x="555" y="190" width="30" height="30" fill="hsl(240 100% 50%)" />
  <rect x="590" y="190" width="30" height="30" fill="hsl(240 100% 50%)" />
  <rect x="625" y="190" width="30" height="30" fill="hsl(240 100% 50%)" />
  <rect x="660" y="190" width="30" height="30" fill="hsl(240 100% 50%)" />
  <rect x="695" y="190" width="30" height="30" fill="hsl(240 100% 50%)" />
  <rect x="730" y="190" width="30" height="30" fill="hsl(240 100% 50%)" />
  <rect x="765" y="190" width="30" height="30" fill="hsl(240 100% 50%)" />
  <rect x="800" y="190" width="30" height="30" fill="hsl(240 100% 50%)" />
  <rect x="835" y="190" width="30" height="30" fill="hsl(240 100% 50%)" />
  <rect x="870" y="190" width="30" height="30" fill="hsl(240 100% 50%)" />
  <rect x="100" y="225" width="30" height="30" fill="hsl(240 100% 97.47484463069485%)" />
  <rect x="135" y="225" width="30" height="30" fill="hsl(240 100% 92.8302472269264%)" />
  <rect x="170" y="225" width="30" height="30" fill="hsl(240 100% 93.2200705555857%)" />
  <rect x="240" y="225" width="30" height="30" fill="hsl(240 100% 94.53654186615853%)" />
  <rect x="310" y="225" width="30" height="30" fill="rgb(255 255 255 / 50%)" />
  <rect x="415" y="225" width="30" height="30" fill="hsl(240 100% 92.45473452876595%)" />
  <rect x="555" y="225" width="30" height="30" fill="hsl(240 100% 50%)" />
  <rect x="660" y="225" width="30" height="30" fill="rgb(255 255 255 / 50%)" />
  <rect x="765" y="225" width="30" height="30" fill="hsl(240 100% 95.25825693385812%)" />
  <rect x="800" y="225" width="30" height="30" fill="rgb(255 255 255 / 50%)" />
  <rect x="870" y="225" width="30" height="30" fill="hsl(240 100% 96.1517904902555%)" />
  <rect x="135" y="260" width="30" height="30" fill="hsl(240 100% 99.9275682655393%)" />
  <rect x="170" y="260" width="30" height="30" fill="hsl(240 100% 99.16645634565343%)" />
  <rect x="205" y="260" width="30" height="30" fill="rgb(255 255 255 / 50%)" />
  <rect x="240" y="260" width="30" height="30" fill="hsl(240 100% 86.21362538588569%)" />
  <rect x="310" y="260" width="30" height="30" fill="rgb(255 255 255 / 50%)" />
  <rect x="380" y="260" width="30" height="30" fill="rgb(255 255 255 / 50%)" />
  <rect x="415" y="260" width="30" height="30" fill="hsl(240 100% 85.07817103838988%)" />
  <rect x="450" y="260" width="30" height="30" fill="rgb(255 255 255 / 50%)" />
  <rect x="485" y="260" width="30" height="30" fill="hsl(240 100% 98.91936468184026%)" />
  <rect x="520" y="260" width="30" height="30" fill="hsl(240 100% 50%)" />
  <rect x="555" y="260" width="30" height="30" fill="hsl(240 100% 72.41075425581107%)" />
  <rect x="660" y="260" width="30" height="30" fill="hsl(240 100% 96.87761129617763%)" />
  <rect x="695" y="260" width="30" height="30" fill="rgb(255 255 255 / 50%)" />
  <rect x="730" y="260" width="30" height="30" fill="hsl(240 100% 94.02258999337191%)" />
  <rect x="65" y="295" width="30" height="30" fill="hsl(240 100% 89.1012176368759%)" />
  <rect x="100" y="295" width="30" height="30" fill="hsl(240 100% 97.20938503725313%)" />
  <rect x="135" y="295" width="30" height="30" fill="hsl(240 100% 93.67361770137187%)" />
  <rect x="170" y="295" width="30" height="30" fill="hsl(240 100% 88.98057551579713%)" />
  <rect x="205" y="295" width="30" height="30" fill="hsl(240 100% 99.4610857308266%)" />
  <rect x="240" y="295" width="30" height="30" fill="hsl(240 100% 50%)" />
  <rect x="275" y="295" width="30" height="30" fill="hsl(240 100% 57.30242066584722%)" />
  <rect x="310" y="295" width="30" height="30" fill="hsl(240 100% 99.47745245791387%)" />
  <rect x="345" y="295" width="30" height="30" fill="hsl(240 100% 94.53267682996153%)" />
  <rect x="415" y="295" width="30" height="30" fill="hsl(240 100% 52.47389105989371%)" />
  <rect x="450" y="295" width="30" height="30" fill="hsl(240 100% 99.24957377370224%)" />
  <rect x="485" y="295" width="30" height="30" fill="hsl(240 100% 96.32700122943015%)" />
  <rect x="520" y="295" width="30" height="30" fill="hsl(240 100% 87.81843234021711%)" />
  <rect x="555" y="295" width="30" height="30" fill="hsl(240 100% 55.99507112933717%)" />
  <rect x="590" y="295" width="30" height="30" fill="hsl(240 100% 90.50331848064239%)" />
  <rect x="730" y="295" width="30" height="30" fill="hsl(240 100% 96.9516412856725%)" />
  <rect x="835" y="295" width="30" height="30" fill="hsl(240 100% 99.49379761956298%)" />
  <rect x="870" y="295" width="30" height="30" fill="hsl(240 100% 99.95373132386308%)" />
  <rect x="65" y="330" width="30" height="30" fill="hsl(240 100% 93.25367987337793%)" />
  <rect x="100" y="330" width="30" height="30" fill="hsl(240 100% 96.81441447192584%)" />
  <rect x="135" y="330" width="30" height="30" fill="hsl(240 100% 95.90771841145659%)" />
  <rect x="170" y="330" width="30" height="30" fill="hsl(240 100% 92.91763864488034%)" />
  <rect x="205" y="330" width="30" height="30" fill="hsl(240 100% 99.56705583196893%)" />
  <rect x="240" y="330" width="30" height="30" fill="hsl(240 100% 88.81745909921324%)" />
  <rect x="275" y="330" width="30" height="30" fill="hsl(240 100% 97.34750796692201%)" />
  <rect x="310" y="330" width="30" height="30" fill="rgb(255 255 255 / 50%)" />
  <rect x="345" y="330" width="30" height="30" fill="hsl(240 100% 98.40988260976215%)" />
  <rect x="415" y="330" width="30" height="30" fill="hsl(240 100% 89.17617582174518%)" />
  <rect x="450" y="330" width="30" height="30" fill="hsl(240 100% 99.8727193252287%)" />
  <rect x="485" y="330" width="30" height="30" fill="hsl(240 100% 93.69340962528698%)" />
  <rect x="520" y="330" width="30" height="30" fill="hsl(240 100% 84.17789501023327%)" />
  <rect x="555" y="330" width="30" height="30" fill="hsl(240 100% 86.00362513054486%)" />
  <rect x="590" y="330" width="30" height="30" fill="hsl(240 100% 99.49649817277727%)" />
  <rect x="625" y="330" width="30" height="30" fill="hsl(240 100% 96.60146064191622%)" />
  <rect x="660" y="330" width="30" height="30" fill="hsl(240 100% 50%)" />
  <rect x="800" y="330" width="30" height="30" fill="hsl(240 100% 97.32287480676649%)" />
  <rect x="835" y="330" width="30" height="30" fill="hsl(240 100% 99.53839574025481%)" />
  <rect x="870" y="330" width="30" height="30" fill="hsl(240 100% 98.03728581102752%)" />
  <rect x="65" y="365" width="30" height="30" fill="hsl(240 100% 69.28523072937344%)" />
  <rect x="100" y="365" width="30" height="30" fill="hsl(240 100% 75.75030209592349%)" />
  <rect x="135" y="365" width="30" height="30" fill="hsl(240 100% 81.54178766897631%)" />
  <rect x="170" y="365" width="30" height="30" fill="hsl(240 100% 61.286800568952366%)" />
  <rect x="205" y="365" width="30" height="30" fill="hsl(240 100% 96.92024093637855%)" />
  <rect x="240" y="365" width="30" height="30" fill="hsl(240 100% 50%)" />
  <rect x="275" y="365" width="30" height="30" fill="hsl(240 100% 94.69517152170464%)" />
  <rect x="310" y="365" width="30" height="30" fill="hsl(240 100% 99.89225775079683%)" />
  <rect x="415" y="365" width="30" height="30" fill="hsl(240 100% 55.30568685562399%)" />
  <rect x="485" y="365" width="30" height="30" fill="hsl(240 100% 99.56376028911933%)" />
  <rect x="555" y="365" width="30" height="30" fill="hsl(240 100% 89.2445223948965%)" />
  <rect x="590" y="365" width="30" height="30" fill="hsl(240 100% 96.21988682847325%)" />
  <rect x="660" y="365" width="30" height="30" fill="hsl(240 100% 99.51531064120059%)" />
  <rect x="765" y="365" width="30" height="30" fill="hsl(240 100% 59.12884070035072%)" />
  <rect x="800" y="365" width="30" height="30" fill="hsl(240 100% 98.5028437307627%)" />
  <rect x="870" y="365" width="30" height="30" fill="hsl(240 100% 98.88663182137485%)" />
  <rect x="65" y="400" width="30" height="30" fill="hsl(240 100% 97.92093644227312%)" />
  <rect x="100" y="400" width="30" height="30" fill="hsl(240 100% 99.19652398236443%)" />
  <rect x="135" y="400" width="30" height="30" fill="hsl(240 100% 99.6626615518904%)" />
  <rect x="170" y="400" width="30" height="30" fill="hsl(240 100% 93.31605031076313%)" />
  <rect x="205" y="400" width="30" height="30" fill="hsl(240 100% 98.79998695165699%)" />
  <rect x="240" y="400" width="30" height="30" fill="hsl(240 100% 85.65644685845163%)" />
  <rect x="275" y="400" width="30" height="30" fill="hsl(240 100% 94.31262316946602%)" />
  <rect x="310" y="400" width="30" height="30" fill="rgb(255 255 255 / 50%)" />
  <rect x="380" y="400" width="30" height="30" fill="rgb(255 255 255 / 50%)" />
  <rect x="415" y="400" width="30" height="30" fill="hsl(240 100% 92.73504178447163%)" />
  <rect x="450" y="400" width="30" height="30" fill="hsl(240 100% 99.96759180146401%)" />
  <rect x="485" y="400" width="30" height="30" fill="hsl(240 100% 99.34481204733926%)" />
  <rect x="520" y="400" width="30" height="30" fill="hsl(240 100% 74.49417828022678%)" />
  <rect x="555" y="400" width="30" height="30" fill="hsl(240 100% 50%)" />
  <rect x="590" y="400" width="30" height="30" fill="hsl(240 100% 99.03581276817786%)" />
  <rect x="695" y="400" width="30" height="30" fill="rgb(255 255 255 / 50%)" />
  <rect x="870" y="400" width="30" height="30" fill="hsl(240 100% 98.99031404573695%)" />
  <rect x="65" y="435" width="30" height="30" fill="hsl(240 100% 91.65422921907545%)" />
  <rect x="240" y="435" width="30" height="30" fill="hsl(240 100% 50%)" />
  <rect x="310" y="435" width="30" height="30" fill="hsl(240 100% 95.17331069597608%)" />
  <rect x="415" y="435" width="30" height="30" fill="hsl(240 100% 85.28355790746161%)" />
  <rect x="450" y="435" width="30" height="30" fill="hsl(240 100% 99.83395622272174%)" />
  <rect x="485" y="435" width="30" height="30" fill="hsl(240 100% 99.94592547424558%)" />
  <rect x="65" y="470" width="30" height="30" fill="hsl(240 100% 58.51901740677473%)" />
  <rect x="240" y="470" width="30" height="30" fill="hsl(240 100% 50%)" />
  <rect x="310" y="470" width="30" height="30" fill="hsl(240 100% 97.66400924698175%)" />
  <rect x="415" y="470" width="30" height="30" fill="hsl(240 100% 89.07540294134006%)" />
  <rect x="450" y="470" width="30" height="30" fill="hsl(240 100% 99.67761255417993%)" />
  <rect x="485" y="470" width="30" height="30" fill="hsl(240 100% 99.94669146088341%)" />
</svg>
