<svg xmlns="http://www.w3.org/2000/svg" viewBox="0 0 870 505">
  <rect x="0" y="0" width="870" height="505" rx="5" ry="5" fill="#222" />
  <text x="60" y="100" fill="white" font-family="sans-serif" font-weight="bold" font-size="12" text-anchor="end" dominant-baseline="middle">ba</text>
  <text x="60" y="135" fill="white" font-family="sans-serif" font-weight="bold" font-size="12" text-anchor="end" dominant-baseline="middle">det</text>
  <text x="60" y="170" fill="white" font-family="sans-serif" font-weight="bold" font-size="12" text-anchor="end" dominant-baseline="middle">gmm</text>
  <text x="60" y="205" fill="white" font-family="sans-serif" font-weight="bold" font-size="12" text-anchor="end" dominant-baseline="middle">hello</text>
  <text x="60" y="240" fill="white" font-family="sans-serif" font-weight="bold" font-size="12" text-anchor="end" dominant-baseline="middle">ht</text>
  <text x="60" y="275" fill="white" font-family="sans-serif" font-weight="bold" font-size="12" text-anchor="end" dominant-baseline="middle">kmeans</text>
  <text x="60" y="310" fill="white" font-family="sans-serif" font-weight="bold" font-size="12" text-anchor="end" dominant-baseline="middle">llsq</text>
  <text x="60" y="345" fill="white" font-family="sans-serif" font-weight="bold" font-size="12" text-anchor="end" dominant-baseline="middle">lse</text>
  <text x="60" y="380" fill="white" font-family="sans-serif" font-weight="bold" font-size="12" text-anchor="end" dominant-baseline="middle">lstm</text>
  <text x="60" y="415" fill="white" font-family="sans-serif" font-weight="bold" font-size="12" text-anchor="end" dominant-baseline="middle">ode</text>
  <text x="60" y="450" fill="white" font-family="sans-serif" font-weight="bold" font-size="12" text-anchor="end" dominant-baseline="middle">particle</text>
  <text x="60" y="485" fill="white" font-family="sans-serif" font-weight="bold" font-size="12" text-anchor="end" dominant-baseline="middle">saddle</text>
  <text x="80" y="80" fill="white" font-family="sans-serif" font-weight="bold" font-size="12" text-anchor="end" dominant-baseline="middle" transform="rotate(90 80 80)">ad-hpp</text>
  <text x="115" y="80" fill="white" font-family="sans-serif" font-weight="bold" font-size="12" text-anchor="end" dominant-baseline="middle" transform="rotate(90 115 80)">adept</text>
  <text x="150" y="80" fill="white" font-family="sans-serif" font-weight="bold" font-size="12" text-anchor="end" dominant-baseline="middle" transform="rotate(90 150 80)">adol-c</text>
  <text x="185" y="80" fill="white" font-family="sans-serif" font-weight="bold" font-size="12" text-anchor="end" dominant-baseline="middle" transform="rotate(90 185 80)">codipack</text>
  <text x="220" y="80" fill="white" font-family="sans-serif" font-weight="bold" font-size="12" text-anchor="end" dominant-baseline="middle" transform="rotate(90 220 80)">cppad</text>
  <text x="255" y="80" fill="white" font-family="sans-serif" font-weight="bold" font-size="12" text-anchor="end" dominant-baseline="middle" transform="rotate(90 255 80)">enzyme</text>
  <text x="290" y="80" fill="white" font-family="sans-serif" font-weight="bold" font-size="12" text-anchor="end" dominant-baseline="middle" transform="rotate(90 290 80)">enzyme-jl</text>
  <text x="325" y="80" fill="white" font-family="sans-serif" font-weight="bold" font-size="12" text-anchor="end" dominant-baseline="middle" transform="rotate(90 325 80)">finite</text>
  <text x="360" y="80" fill="white" font-family="sans-serif" font-weight="bold" font-size="12" text-anchor="end" dominant-baseline="middle" transform="rotate(90 360 80)">floretta</text>
  <text x="395" y="80" fill="white" font-family="sans-serif" font-weight="bold" font-size="12" text-anchor="end" dominant-baseline="middle" transform="rotate(90 395 80)">forwarddiff-jl</text>
  <text x="430" y="80" fill="white" font-family="sans-serif" font-weight="bold" font-size="12" text-anchor="end" dominant-baseline="middle" transform="rotate(90 430 80)">futhark</text>
  <text x="465" y="80" fill="white" font-family="sans-serif" font-weight="bold" font-size="12" text-anchor="end" dominant-baseline="middle" transform="rotate(90 465 80)">haskell</text>
  <text x="500" y="80" fill="white" font-family="sans-serif" font-weight="bold" font-size="12" text-anchor="end" dominant-baseline="middle" transform="rotate(90 500 80)">jax</text>
  <text x="535" y="80" fill="white" font-family="sans-serif" font-weight="bold" font-size="12" text-anchor="end" dominant-baseline="middle" transform="rotate(90 535 80)">manual</text>
  <text x="570" y="80" fill="white" font-family="sans-serif" font-weight="bold" font-size="12" text-anchor="end" dominant-baseline="middle" transform="rotate(90 570 80)">mooncake-jl</text>
  <text x="605" y="80" fill="white" font-family="sans-serif" font-weight="bold" font-size="12" text-anchor="end" dominant-baseline="middle" transform="rotate(90 605 80)">ocaml</text>
  <text x="640" y="80" fill="white" font-family="sans-serif" font-weight="bold" font-size="12" text-anchor="end" dominant-baseline="middle" transform="rotate(90 640 80)">pytorch</text>
  <text x="675" y="80" fill="white" font-family="sans-serif" font-weight="bold" font-size="12" text-anchor="end" dominant-baseline="middle" transform="rotate(90 675 80)">reversediff-jl</text>
  <text x="710" y="80" fill="white" font-family="sans-serif" font-weight="bold" font-size="12" text-anchor="end" dominant-baseline="middle" transform="rotate(90 710 80)">scilean</text>
  <text x="745" y="80" fill="white" font-family="sans-serif" font-weight="bold" font-size="12" text-anchor="end" dominant-baseline="middle" transform="rotate(90 745 80)">tapenade</text>
  <text x="780" y="80" fill="white" font-family="sans-serif" font-weight="bold" font-size="12" text-anchor="end" dominant-baseline="middle" transform="rotate(90 780 80)">tensorflow</text>
  <text x="815" y="80" fill="white" font-family="sans-serif" font-weight="bold" font-size="12" text-anchor="end" dominant-baseline="middle" transform="rotate(90 815 80)">tensorflow-js</text>
  <text x="850" y="80" fill="white" font-family="sans-serif" font-weight="bold" font-size="12" text-anchor="end" dominant-baseline="middle" transform="rotate(90 850 80)">zygote</text>
  <rect x="65" y="85" width="30" height="30" fill="hsl(240 100% 80.57910939695185%)" />
  <rect x="100" y="85" width="30" height="30" fill="hsl(240 100% 82.33549732429404%)" />
  <rect x="135" y="85" width="30" height="30" fill="hsl(240 100% 97.92220513874217%)" />
  <rect x="170" y="85" width="30" height="30" fill="hsl(240 100% 80.18661762182799%)" />
  <rect x="205" y="85" width="30" height="30" fill="hsl(240 100% 98.94977534174993%)" />
  <rect x="240" y="85" width="30" height="30" fill="hsl(240 100% 50%)" />
  <rect x="310" y="85" width="30" height="30" fill="hsl(240 100% 92.98343206935904%)" />
  <rect x="415" y="85" width="30" height="30" fill="hsl(240 100% 67.10550399684873%)" />
  <rect x="520" y="85" width="30" height="30" fill="hsl(240 100% 54.1318509233619%)" />
  <rect x="625" y="85" width="30" height="30" fill="rgb(255 255 255 / 50%)" />
  <rect x="730" y="85" width="30" height="30" fill="hsl(240 100% 74.12483440281292%)" />
  <rect x="765" y="85" width="30" height="30" fill="rgb(255 255 255 / 50%)" />
  <rect x="835" y="85" width="30" height="30" fill="hsl(240 100% 99.74001186172138%)" />
  <rect x="65" y="120" width="30" height="30" fill="hsl(240 100% 50%)" />
  <rect x="100" y="120" width="30" height="30" fill="hsl(240 100% 84.70974944911531%)" />
  <rect x="135" y="120" width="30" height="30" fill="hsl(240 100% 85.6061017988626%)" />
  <rect x="170" y="120" width="30" height="30" fill="hsl(240 100% 52.43090516939685%)" />
  <rect x="205" y="120" width="30" height="30" fill="hsl(240 100% 92.54402765312673%)" />
  <rect x="240" y="120" width="30" height="30" fill="hsl(240 100% 91.67296109625985%)" />
  <rect x="275" y="120" width="30" height="30" fill="hsl(240 100% 99.35298506069375%)" />
  <rect x="310" y="120" width="30" height="30" fill="hsl(240 100% 98.99106990378722%)" />
  <rect x="380" y="120" width="30" height="30" fill="hsl(240 100% 93.31736746570131%)" />
  <rect x="415" y="120" width="30" height="30" fill="hsl(240 100% 94.59332213529628%)" />
  <rect x="450" y="120" width="30" height="30" fill="hsl(240 100% 97.78618858337119%)" />
  <rect x="520" y="120" width="30" height="30" fill="hsl(240 100% 79.50573034832051%)" />
  <rect x="555" y="120" width="30" height="30" fill="hsl(240 100% 90.76691225686267%)" />
  <rect x="660" y="120" width="30" height="30" fill="rgb(255 255 255 / 50%)" />
  <rect x="835" y="120" width="30" height="30" fill="rgb(255 255 255 / 50%)" />
  <rect x="65" y="155" width="30" height="30" fill="hsl(240 100% 98.02647951684067%)" />
  <rect x="100" y="155" width="30" height="30" fill="hsl(240 100% 98.85926123626999%)" />
  <rect x="135" y="155" width="30" height="30" fill="hsl(240 100% 99.21277750267434%)" />
  <rect x="170" y="155" width="30" height="30" fill="hsl(240 100% 98.0790000105077%)" />
  <rect x="205" y="155" width="30" height="30" fill="hsl(240 100% 99.81257391502585%)" />
  <rect x="240" y="155" width="30" height="30" fill="hsl(240 100% 91.09444136947785%)" />
  <rect x="275" y="155" width="30" height="30" fill="hsl(240 100% 92.20243077259184%)" />
  <rect x="310" y="155" width="30" height="30" fill="rgb(255 255 255 / 50%)" />
  <rect x="415" y="155" width="30" height="30" fill="hsl(240 100% 92.80696922558381%)" />
  <rect x="485" y="155" width="30" height="30" fill="hsl(240 100% 50%)" />
  <rect x="520" y="155" width="30" height="30" fill="hsl(240 100% 80.81782537904596%)" />
  <rect x="590" y="155" width="30" height="30" fill="hsl(240 100% 99.57102063093053%)" />
  <rect x="625" y="155" width="30" height="30" fill="hsl(240 100% 67.60839554852467%)" />
  <rect x="695" y="155" width="30" height="30" fill="hsl(240 100% 95.36188899058916%)" />
  <rect x="730" y="155" width="30" height="30" fill="hsl(240 100% 83.27951012421713%)" />
  <rect x="765" y="155" width="30" height="30" fill="hsl(240 100% 99.55397643963502%)" />
  <rect x="835" y="155" width="30" height="30" fill="hsl(240 100% 96.17843533751606%)" />
  <rect x="65" y="190" width="30" height="30" fill="hsl(240 100% 50%)" />
  <rect x="100" y="190" width="30" height="30" fill="hsl(240 100% 50%)" />
  <rect x="135" y="190" width="30" height="30" fill="hsl(240 100% 50%)" />
  <rect x="170" y="190" width="30" height="30" fill="hsl(240 100% 50%)" />
  <rect x="205" y="190" width="30" height="30" fill="hsl(240 100% 50%)" />
  <rect x="240" y="190" width="30" height="30" fill="hsl(240 100% 50%)" />
  <rect x="275" y="190" width="30" height="30" fill="hsl(240 100% 50%)" />
  <rect x="310" y="190" width="30" height="30" fill="hsl(240 100% 50%)" />
  <rect x="345" y="190" width="30" height="30" fill="hsl(240 100% 50%)" />
  <rect x="380" y="190" width="30" height="30" fill="hsl(240 100% 50%)" />
  <rect x="415" y="190" width="30" height="30" fill="hsl(240 100% 50%)" />
  <rect x="450" y="190" width="30" height="30" fill="hsl(240 100% 50%)" />
  <rect x="485" y="190" width="30" height="30" fill="hsl(240 100% 50%)" />
  <rect x="520" y="190" width="30" height="30" fill="hsl(240 100% 50%)" />
  <rect x="555" y="190" width="30" height="30" fill="hsl(240 100% 50%)" />
  <rect x="590" y="190" width="30" height="30" fill="hsl(240 100% 50%)" />
  <rect x="625" y="190" width="30" height="30" fill="hsl(240 100% 50%)" />
  <rect x="660" y="190" width="30" height="30" fill="hsl(240 100% 50%)" />
  <rect x="695" y="190" width="30" height="30" fill="hsl(240 100% 50%)" />
  <rect x="730" y="190" width="30" height="30" fill="hsl(240 100% 50%)" />
  <rect x="765" y="190" width="30" height="30" fill="hsl(240 100% 50%)" />
  <rect x="800" y="190" width="30" height="30" fill="hsl(240 100% 50%)" />
  <rect x="835" y="190" width="30" height="30" fill="hsl(240 100% 50%)" />
  <rect x="100" y="225" width="30" height="30" fill="hsl(240 100% 96.32914293758985%)" />
  <rect x="135" y="225" width="30" height="30" fill="hsl(240 100% 89.73531730251412%)" />
  <rect x="170" y="225" width="30" height="30" fill="hsl(240 100% 88.11353051880205%)" />
  <rect x="240" y="225" width="30" height="30" fill="hsl(240 100% 90.44035440965813%)" />
  <rect x="310" y="225" width="30" height="30" fill="rgb(255 255 255 / 50%)" />
  <rect x="415" y="225" width="30" height="30" fill="hsl(240 100% 89.55410601418616%)" />
  <rect x="520" y="225" width="30" height="30" fill="hsl(240 100% 50%)" />
  <rect x="625" y="225" width="30" height="30" fill="rgb(255 255 255 / 50%)" />
  <rect x="730" y="225" width="30" height="30" fill="hsl(240 100% 92.47691732083929%)" />
  <rect x="765" y="225" width="30" height="30" fill="rgb(255 255 255 / 50%)" />
  <rect x="835" y="225" width="30" height="30" fill="hsl(240 100% 93.79422856612793%)" />
  <rect x="65" y="260" width="30" height="30" fill="hsl(240 100% 99.88460306492492%)" />
  <rect x="135" y="260" width="30" height="30" fill="hsl(240 100% 99.87697611313895%)" />
  <rect x="170" y="260" width="30" height="30" fill="hsl(240 100% 98.99457277765018%)" />
  <rect x="205" y="260" width="30" height="30" fill="rgb(255 255 255 / 50%)" />
  <rect x="240" y="260" width="30" height="30" fill="hsl(240 100% 87.13787137997%)" />
  <rect x="310" y="260" width="30" height="30" fill="rgb(255 255 255 / 50%)" />
  <rect x="415" y="260" width="30" height="30" fill="hsl(240 100% 81.022986358007%)" />
  <rect x="450" y="260" width="30" height="30" fill="rgb(255 255 255 / 50%)" />
  <rect x="485" y="260" width="30" height="30" fill="hsl(240 100% 50%)" />
  <rect x="520" y="260" width="30" height="30" fill="hsl(240 100% 72.5764488296003%)" />
  <rect x="625" y="260" width="30" height="30" fill="hsl(240 100% 97.00987903279831%)" />
  <rect x="695" y="260" width="30" height="30" fill="hsl(240 100% 94.19246244666098%)" />
  <rect x="65" y="295" width="30" height="30" fill="hsl(240 100% 86.01797609782783%)" />
  <rect x="100" y="295" width="30" height="30" fill="hsl(240 100% 97.46948434069755%)" />
  <rect x="135" y="295" width="30" height="30" fill="hsl(240 100% 95.14619091194126%)" />
  <rect x="170" y="295" width="30" height="30" fill="hsl(240 100% 89.35157975748436%)" />
  <rect x="205" y="295" width="30" height="30" fill="hsl(240 100% 99.48242539607146%)" />
  <rect x="240" y="295" width="30" height="30" fill="hsl(240 100% 50.33736225271064%)" />
  <rect x="275" y="295" width="30" height="30" fill="hsl(240 100% 50%)" />
  <rect x="310" y="295" width="30" height="30" fill="hsl(240 100% 99.49694592247823%)" />
  <rect x="345" y="295" width="30" height="30" fill="hsl(240 100% 94.70268022370561%)" />
  <rect x="415" y="295" width="30" height="30" fill="hsl(240 100% 54.97208254972132%)" />
  <rect x="450" y="295" width="30" height="30" fill="hsl(240 100% 99.30950573577385%)" />
  <rect x="485" y="295" width="30" height="30" fill="hsl(240 100% 88.3579515998326%)" />
  <rect x="520" y="295" width="30" height="30" fill="hsl(240 100% 57.65117010010195%)" />
  <rect x="695" y="295" width="30" height="30" fill="hsl(240 100% 97.59998767868206%)" />
  <rect x="800" y="295" width="30" height="30" fill="hsl(240 100% 99.57259437753798%)" />
  <rect x="835" y="295" width="30" height="30" fill="hsl(240 100% 99.95285767106989%)" />
  <rect x="65" y="330" width="30" height="30" fill="hsl(240 100% 84.20135585989425%)" />
  <rect x="100" y="330" width="30" height="30" fill="hsl(240 100% 92.95079210142514%)" />
  <rect x="135" y="330" width="30" height="30" fill="hsl(240 100% 96.23960766524412%)" />
  <rect x="170" y="330" width="30" height="30" fill="hsl(240 100% 83.68401445348519%)" />
  <rect x="205" y="330" width="30" height="30" fill="hsl(240 100% 98.89346563715577%)" />
  <rect x="240" y="330" width="30" height="30" fill="hsl(240 100% 76.95815740696466%)" />
  <rect x="275" y="330" width="30" height="30" fill="hsl(240 100% 86.33355195425554%)" />
  <rect x="310" y="330" width="30" height="30" fill="rgb(255 255 255 / 50%)" />
  <rect x="345" y="330" width="30" height="30" fill="hsl(240 100% 96.52060365942721%)" />
  <rect x="415" y="330" width="30" height="30" fill="hsl(240 100% 82.31634336194755%)" />
  <rect x="450" y="330" width="30" height="30" fill="hsl(240 100% 99.75550722198825%)" />
  <rect x="485" y="330" width="30" height="30" fill="hsl(240 100% 65.35018199902704%)" />
  <rect x="520" y="330" width="30" height="30" fill="hsl(240 100% 63.07566504022007%)" />
  <rect x="590" y="330" width="30" height="30" fill="hsl(240 100% 92.25117797268844%)" />
  <rect x="625" y="330" width="30" height="30" fill="hsl(240 100% 50%)" />
  <rect x="765" y="330" width="30" height="30" fill="hsl(240 100% 93.3684163733277%)" />
  <rect x="800" y="330" width="30" height="30" fill="hsl(240 100% 99.03517458936709%)" />
  <rect x="835" y="330" width="30" height="30" fill="hsl(240 100% 77.14340119390347%)" />
  <rect x="65" y="365" width="30" height="30" fill="hsl(240 100% 56.728295842058586%)" />
  <rect x="100" y="365" width="30" height="30" fill="hsl(240 100% 70.99167911098165%)" />
  <rect x="135" y="365" width="30" height="30" fill="hsl(240 100% 82.09108254124429%)" />
  <rect x="170" y="365" width="30" height="30" fill="hsl(240 100% 50%)" />
  <rect x="205" y="365" width="30" height="30" fill="hsl(240 100% 96.0564118150352%)" />
  <rect x="240" y="365" width="30" height="30" fill="hsl(240 100% 58.736629304541275%)" />
  <rect x="275" y="365" width="30" height="30" fill="hsl(240 100% 93.0437174299468%)" />
  <rect x="310" y="365" width="30" height="30" fill="hsl(240 100% 99.85983215304475%)" />
  <rect x="415" y="365" width="30" height="30" fill="hsl(240 100% 66.2291417951806%)" />
  <rect x="520" y="365" width="30" height="30" fill="hsl(240 100% 86.06906679348374%)" />
  <rect x="625" y="365" width="30" height="30" fill="hsl(240 100% 99.63291582010162%)" />
  <rect x="730" y="365" width="30" height="30" fill="hsl(240 100% 63.25640194428065%)" />
  <rect x="765" y="365" width="30" height="30" fill="hsl(240 100% 98.1617095081968%)" />
  <rect x="835" y="365" width="30" height="30" fill="hsl(240 100% 98.86174537653694%)" />
  <rect x="65" y="400" width="30" height="30" fill="hsl(240 100% 98.12118154674437%)" />
  <rect x="100" y="400" width="30" height="30" fill="hsl(240 100% 99.4706295739633%)" />
  <rect x="135" y="400" width="30" height="30" fill="hsl(240 100% 99.65062601999885%)" />
  <rect x="170" y="400" width="30" height="30" fill="hsl(240 100% 93.85581948776382%)" />
  <rect x="205" y="400" width="30" height="30" fill="hsl(240 100% 99.22060252772546%)" />
  <rect x="240" y="400" width="30" height="30" fill="hsl(240 100% 94.8260635583283%)" />
  <rect x="275" y="400" width="30" height="30" fill="hsl(240 100% 96.76590238331887%)" />
  <rect x="310" y="400" width="30" height="30" fill="rgb(255 255 255 / 50%)" />
  <rect x="380" y="400" width="30" height="30" fill="rgb(255 255 255 / 50%)" />
  <rect x="415" y="400" width="30" height="30" fill="hsl(240 100% 93.88618993953747%)" />
  <rect x="450" y="400" width="30" height="30" fill="hsl(240 100% 99.97063543731737%)" />
  <rect x="485" y="400" width="30" height="30" fill="hsl(240 100% 78.20319297943703%)" />
  <rect x="520" y="400" width="30" height="30" fill="hsl(240 100% 50%)" />
  <rect x="555" y="400" width="30" height="30" fill="hsl(240 100% 99.10876449048914%)" />
  <rect x="660" y="400" width="30" height="30" fill="rgb(255 255 255 / 50%)" />
  <rect x="835" y="400" width="30" height="30" fill="hsl(240 100% 99.01373026685575%)" />
  <rect x="65" y="435" width="30" height="30" fill="hsl(240 100% 93.93557250757833%)" />
  <rect x="240" y="435" width="30" height="30" fill="hsl(240 100% 50%)" />
  <rect x="310" y="435" width="30" height="30" fill="hsl(240 100% 93.85411477179572%)" />
  <rect x="415" y="435" width="30" height="30" fill="hsl(240 100% 87.03419998669663%)" />
  <rect x="450" y="435" width="30" height="30" fill="hsl(240 100% 99.77959052261681%)" />
  <rect x="65" y="470" width="30" height="30" fill="hsl(240 100% 50.08279162020307%)" />
  <rect x="240" y="470" width="30" height="30" fill="hsl(240 100% 50%)" />
  <rect x="310" y="470" width="30" height="30" fill="hsl(240 100% 96.98385106441451%)" />
  <rect x="415" y="470" width="30" height="30" fill="hsl(240 100% 89.38452949270149%)" />
  <rect x="450" y="470" width="30" height="30" fill="hsl(240 100% 99.56835989847457%)" />
</svg>
