<svg xmlns="http://www.w3.org/2000/svg" viewBox="0 0 870 505">
  <rect x="0" y="0" width="870" height="505" rx="5" ry="5" fill="#222" />
  <text x="60" y="100" fill="white" font-family="sans-serif" font-weight="bold" font-size="12" text-anchor="end" dominant-baseline="middle">ba</text>
  <text x="60" y="135" fill="white" font-family="sans-serif" font-weight="bold" font-size="12" text-anchor="end" dominant-baseline="middle">det</text>
  <text x="60" y="170" fill="white" font-family="sans-serif" font-weight="bold" font-size="12" text-anchor="end" dominant-baseline="middle">gmm</text>
  <text x="60" y="205" fill="white" font-family="sans-serif" font-weight="bold" font-size="12" text-anchor="end" dominant-baseline="middle">hello</text>
  <text x="60" y="240" fill="white" font-family="sans-serif" font-weight="bold" font-size="12" text-anchor="end" dominant-baseline="middle">ht</text>
  <text x="60" y="275" fill="white" font-family="sans-serif" font-weight="bold" font-size="12" text-anchor="end" dominant-baseline="middle">kmeans</text>
  <text x="60" y="310" fill="white" font-family="sans-serif" font-weight="bold" font-size="12" text-anchor="end" dominant-baseline="middle">llsq</text>
  <text x="60" y="345" fill="white" font-family="sans-serif" font-weight="bold" font-size="12" text-anchor="end" dominant-baseline="middle">lse</text>
  <text x="60" y="380" fill="white" font-family="sans-serif" font-weight="bold" font-size="12" text-anchor="end" dominant-baseline="middle">lstm</text>
  <text x="60" y="415" fill="white" font-family="sans-serif" font-weight="bold" font-size="12" text-anchor="end" dominant-baseline="middle">ode</text>
  <text x="60" y="450" fill="white" font-family="sans-serif" font-weight="bold" font-size="12" text-anchor="end" dominant-baseline="middle">particle</text>
  <text x="60" y="485" fill="white" font-family="sans-serif" font-weight="bold" font-size="12" text-anchor="end" dominant-baseline="middle">saddle</text>
  <text x="80" y="80" fill="white" font-family="sans-serif" font-weight="bold" font-size="12" text-anchor="end" dominant-baseline="middle" transform="rotate(90 80 80)">ad-hpp</text>
  <text x="115" y="80" fill="white" font-family="sans-serif" font-weight="bold" font-size="12" text-anchor="end" dominant-baseline="middle" transform="rotate(90 115 80)">adept</text>
  <text x="150" y="80" fill="white" font-family="sans-serif" font-weight="bold" font-size="12" text-anchor="end" dominant-baseline="middle" transform="rotate(90 150 80)">adol-c</text>
  <text x="185" y="80" fill="white" font-family="sans-serif" font-weight="bold" font-size="12" text-anchor="end" dominant-baseline="middle" transform="rotate(90 185 80)">codipack</text>
  <text x="220" y="80" fill="white" font-family="sans-serif" font-weight="bold" font-size="12" text-anchor="end" dominant-baseline="middle" transform="rotate(90 220 80)">cppad</text>
  <text x="255" y="80" fill="white" font-family="sans-serif" font-weight="bold" font-size="12" text-anchor="end" dominant-baseline="middle" transform="rotate(90 255 80)">enzyme</text>
  <text x="290" y="80" fill="white" font-family="sans-serif" font-weight="bold" font-size="12" text-anchor="end" dominant-baseline="middle" transform="rotate(90 290 80)">enzyme-jl</text>
  <text x="325" y="80" fill="white" font-family="sans-serif" font-weight="bold" font-size="12" text-anchor="end" dominant-baseline="middle" transform="rotate(90 325 80)">finite</text>
  <text x="360" y="80" fill="white" font-family="sans-serif" font-weight="bold" font-size="12" text-anchor="end" dominant-baseline="middle" transform="rotate(90 360 80)">floretta</text>
  <text x="395" y="80" fill="white" font-family="sans-serif" font-weight="bold" font-size="12" text-anchor="end" dominant-baseline="middle" transform="rotate(90 395 80)">forwarddiff-jl</text>
  <text x="430" y="80" fill="white" font-family="sans-serif" font-weight="bold" font-size="12" text-anchor="end" dominant-baseline="middle" transform="rotate(90 430 80)">futhark</text>
  <text x="465" y="80" fill="white" font-family="sans-serif" font-weight="bold" font-size="12" text-anchor="end" dominant-baseline="middle" transform="rotate(90 465 80)">haskell</text>
  <text x="500" y="80" fill="white" font-family="sans-serif" font-weight="bold" font-size="12" text-anchor="end" dominant-baseline="middle" transform="rotate(90 500 80)">jax</text>
  <text x="535" y="80" fill="white" font-family="sans-serif" font-weight="bold" font-size="12" text-anchor="end" dominant-baseline="middle" transform="rotate(90 535 80)">manual</text>
  <text x="570" y="80" fill="white" font-family="sans-serif" font-weight="bold" font-size="12" text-anchor="end" dominant-baseline="middle" transform="rotate(90 570 80)">mooncake-jl</text>
  <text x="605" y="80" fill="white" font-family="sans-serif" font-weight="bold" font-size="12" text-anchor="end" dominant-baseline="middle" transform="rotate(90 605 80)">ocaml</text>
  <text x="640" y="80" fill="white" font-family="sans-serif" font-weight="bold" font-size="12" text-anchor="end" dominant-baseline="middle" transform="rotate(90 640 80)">pytorch</text>
  <text x="675" y="80" fill="white" font-family="sans-serif" font-weight="bold" font-size="12" text-anchor="end" dominant-baseline="middle" transform="rotate(90 675 80)">reversediff-jl</text>
  <text x="710" y="80" fill="white" font-family="sans-serif" font-weight="bold" font-size="12" text-anchor="end" dominant-baseline="middle" transform="rotate(90 710 80)">scilean</text>
  <text x="745" y="80" fill="white" font-family="sans-serif" font-weight="bold" font-size="12" text-anchor="end" dominant-baseline="middle" transform="rotate(90 745 80)">tapenade</text>
  <text x="780" y="80" fill="white" font-family="sans-serif" font-weight="bold" font-size="12" text-anchor="end" dominant-baseline="middle" transform="rotate(90 780 80)">tensorflow</text>
  <text x="815" y="80" fill="white" font-family="sans-serif" font-weight="bold" font-size="12" text-anchor="end" dominant-baseline="middle" transform="rotate(90 815 80)">tensorflow-js</text>
  <text x="850" y="80" fill="white" font-family="sans-serif" font-weight="bold" font-size="12" text-anchor="end" dominant-baseline="middle" transform="rotate(90 850 80)">zygote</text>
  <rect x="65" y="85" width="30" height="30" fill="hsl(240 100% 80.94144057276642%)" />
  <rect x="100" y="85" width="30" height="30" fill="hsl(240 100% 82.51374643726456%)" />
  <rect x="135" y="85" width="30" height="30" fill="hsl(240 100% 97.99161147786661%)" />
  <rect x="170" y="85" width="30" height="30" fill="hsl(240 100% 82.31994042198897%)" />
  <rect x="205" y="85" width="30" height="30" fill="hsl(240 100% 98.99822129226409%)" />
  <rect x="240" y="85" width="30" height="30" fill="hsl(240 100% 51.67731418807292%)" />
  <rect x="310" y="85" width="30" height="30" fill="hsl(240 100% 93.25600297336659%)" />
  <rect x="415" y="85" width="30" height="30" fill="hsl(240 100% 68.52552662486869%)" />
  <rect x="520" y="85" width="30" height="30" fill="hsl(240 100% 50%)" />
  <rect x="625" y="85" width="30" height="30" fill="rgb(255 255 255 / 50%)" />
  <rect x="730" y="85" width="30" height="30" fill="hsl(240 100% 74.8525414886742%)" />
  <rect x="765" y="85" width="30" height="30" fill="rgb(255 255 255 / 50%)" />
  <rect x="835" y="85" width="30" height="30" fill="hsl(240 100% 99.77463042181706%)" />
  <rect x="65" y="120" width="30" height="30" fill="hsl(240 100% 50%)" />
  <rect x="100" y="120" width="30" height="30" fill="hsl(240 100% 83.66224369992727%)" />
  <rect x="135" y="120" width="30" height="30" fill="hsl(240 100% 85.65431130712878%)" />
  <rect x="170" y="120" width="30" height="30" fill="hsl(240 100% 52.33894666637751%)" />
  <rect x="205" y="120" width="30" height="30" fill="hsl(240 100% 92.50889180748311%)" />
  <rect x="240" y="120" width="30" height="30" fill="hsl(240 100% 91.42548399244419%)" />
  <rect x="275" y="120" width="30" height="30" fill="hsl(240 100% 99.3642837672441%)" />
  <rect x="310" y="120" width="30" height="30" fill="hsl(240 100% 99.00223740564759%)" />
  <rect x="380" y="120" width="30" height="30" fill="hsl(240 100% 93.31665589859621%)" />
  <rect x="415" y="120" width="30" height="30" fill="hsl(240 100% 94.59254121229026%)" />
  <rect x="450" y="120" width="30" height="30" fill="hsl(240 100% 97.85829995979861%)" />
  <rect x="520" y="120" width="30" height="30" fill="hsl(240 100% 79.7095196633413%)" />
  <rect x="555" y="120" width="30" height="30" fill="hsl(240 100% 92.55770758189148%)" />
  <rect x="660" y="120" width="30" height="30" fill="rgb(255 255 255 / 50%)" />
  <rect x="835" y="120" width="30" height="30" fill="rgb(255 255 255 / 50%)" />
  <rect x="65" y="155" width="30" height="30" fill="hsl(240 100% 98.44482292177811%)" />
  <rect x="100" y="155" width="30" height="30" fill="hsl(240 100% 98.77667599428462%)" />
  <rect x="135" y="155" width="30" height="30" fill="hsl(240 100% 99.11662664881946%)" />
  <rect x="170" y="155" width="30" height="30" fill="hsl(240 100% 98.04574689786305%)" />
  <rect x="205" y="155" width="30" height="30" fill="hsl(240 100% 99.84707085708096%)" />
  <rect x="240" y="155" width="30" height="30" fill="hsl(240 100% 91.32263177558146%)" />
  <rect x="275" y="155" width="30" height="30" fill="hsl(240 100% 91.97365318746182%)" />
  <rect x="310" y="155" width="30" height="30" fill="rgb(255 255 255 / 50%)" />
  <rect x="415" y="155" width="30" height="30" fill="hsl(240 100% 92.81365683938941%)" />
  <rect x="485" y="155" width="30" height="30" fill="hsl(240 100% 50%)" />
  <rect x="520" y="155" width="30" height="30" fill="hsl(240 100% 83.42677610128263%)" />
  <rect x="590" y="155" width="30" height="30" fill="hsl(240 100% 99.58462917225503%)" />
  <rect x="625" y="155" width="30" height="30" fill="hsl(240 100% 67.55983048486587%)" />
  <rect x="695" y="155" width="30" height="30" fill="hsl(240 100% 95.36727444262004%)" />
  <rect x="730" y="155" width="30" height="30" fill="hsl(240 100% 83.58461175825899%)" />
  <rect x="765" y="155" width="30" height="30" fill="hsl(240 100% 99.5692032041611%)" />
  <rect x="835" y="155" width="30" height="30" fill="hsl(240 100% 96.11335497759887%)" />
  <rect x="65" y="190" width="30" height="30" fill="hsl(240 100% 50%)" />
  <rect x="100" y="190" width="30" height="30" fill="hsl(240 100% 50%)" />
  <rect x="135" y="190" width="30" height="30" fill="hsl(240 100% 50%)" />
  <rect x="170" y="190" width="30" height="30" fill="hsl(240 100% 50%)" />
  <rect x="205" y="190" width="30" height="30" fill="hsl(240 100% 50%)" />
  <rect x="240" y="190" width="30" height="30" fill="hsl(240 100% 50%)" />
  <rect x="275" y="190" width="30" height="30" fill="hsl(240 100% 50%)" />
  <rect x="310" y="190" width="30" height="30" fill="hsl(240 100% 50%)" />
  <rect x="345" y="190" width="30" height="30" fill="hsl(240 100% 50%)" />
  <rect x="380" y="190" width="30" height="30" fill="hsl(240 100% 50%)" />
  <rect x="415" y="190" width="30" height="30" fill="hsl(240 100% 50%)" />
  <rect x="450" y="190" width="30" height="30" fill="hsl(240 100% 50%)" />
  <rect x="485" y="190" width="30" height="30" fill="hsl(240 100% 50%)" />
  <rect x="520" y="190" width="30" height="30" fill="hsl(240 100% 50%)" />
  <rect x="555" y="190" width="30" height="30" fill="hsl(240 100% 50%)" />
  <rect x="590" y="190" width="30" height="30" fill="hsl(240 100% 50%)" />
  <rect x="625" y="190" width="30" height="30" fill="hsl(240 100% 50%)" />
  <rect x="660" y="190" width="30" height="30" fill="hsl(240 100% 50%)" />
  <rect x="695" y="190" width="30" height="30" fill="hsl(240 100% 50%)" />
  <rect x="730" y="190" width="30" height="30" fill="hsl(240 100% 50%)" />
  <rect x="765" y="190" width="30" height="30" fill="hsl(240 100% 50%)" />
  <rect x="800" y="190" width="30" height="30" fill="hsl(240 100% 50%)" />
  <rect x="835" y="190" width="30" height="30" fill="hsl(240 100% 50%)" />
  <rect x="100" y="225" width="30" height="30" fill="hsl(240 100% 96.75993693894982%)" />
  <rect x="135" y="225" width="30" height="30" fill="hsl(240 100% 89.96843885228571%)" />
  <rect x="170" y="225" width="30" height="30" fill="hsl(240 100% 89.57777549240004%)" />
  <rect x="240" y="225" width="30" height="30" fill="hsl(240 100% 91.53793537714165%)" />
  <rect x="310" y="225" width="30" height="30" fill="rgb(255 255 255 / 50%)" />
  <rect x="415" y="225" width="30" height="30" fill="hsl(240 100% 90.8356792499874%)" />
  <rect x="520" y="225" width="30" height="30" fill="hsl(240 100% 50%)" />
  <rect x="625" y="225" width="30" height="30" fill="rgb(255 255 255 / 50%)" />
  <rect x="730" y="225" width="30" height="30" fill="hsl(240 100% 93.31474333717546%)" />
  <rect x="765" y="225" width="30" height="30" fill="rgb(255 255 255 / 50%)" />
  <rect x="835" y="225" width="30" height="30" fill="hsl(240 100% 94.44638291148115%)" />
  <rect x="65" y="260" width="30" height="30" fill="hsl(240 100% 99.85294136686448%)" />
  <rect x="135" y="260" width="30" height="30" fill="hsl(240 100% 99.88395232862926%)" />
  <rect x="170" y="260" width="30" height="30" fill="hsl(240 100% 98.86257911575679%)" />
  <rect x="205" y="260" width="30" height="30" fill="rgb(255 255 255 / 50%)" />
  <rect x="240" y="260" width="30" height="30" fill="hsl(240 100% 87.07985175883253%)" />
  <rect x="310" y="260" width="30" height="30" fill="rgb(255 255 255 / 50%)" />
  <rect x="415" y="260" width="30" height="30" fill="hsl(240 100% 80.76971159613174%)" />
  <rect x="450" y="260" width="30" height="30" fill="rgb(255 255 255 / 50%)" />
  <rect x="485" y="260" width="30" height="30" fill="hsl(240 100% 50%)" />
  <rect x="520" y="260" width="30" height="30" fill="hsl(240 100% 71.17445673498703%)" />
  <rect x="625" y="260" width="30" height="30" fill="hsl(240 100% 97.02571984173856%)" />
  <rect x="695" y="260" width="30" height="30" fill="hsl(240 100% 94.0874364945513%)" />
  <rect x="65" y="295" width="30" height="30" fill="hsl(240 100% 86.06850423350039%)" />
  <rect x="100" y="295" width="30" height="30" fill="hsl(240 100% 97.59599425056675%)" />
  <rect x="135" y="295" width="30" height="30" fill="hsl(240 100% 95.27799618896488%)" />
  <rect x="170" y="295" width="30" height="30" fill="hsl(240 100% 90.67172202085119%)" />
  <rect x="205" y="295" width="30" height="30" fill="hsl(240 100% 99.474406824301%)" />
  <rect x="240" y="295" width="30" height="30" fill="hsl(240 100% 50.59666292644365%)" />
  <rect x="275" y="295" width="30" height="30" fill="hsl(240 100% 50%)" />
  <rect x="310" y="295" width="30" height="30" fill="hsl(240 100% 99.49924885973812%)" />
  <rect x="345" y="295" width="30" height="30" fill="hsl(240 100% 94.8181433799378%)" />
  <rect x="415" y="295" width="30" height="30" fill="hsl(240 100% 55.19990501271762%)" />
  <rect x="450" y="295" width="30" height="30" fill="hsl(240 100% 99.34657956454392%)" />
  <rect x="485" y="295" width="30" height="30" fill="hsl(240 100% 89.15348745358787%)" />
  <rect x="520" y="295" width="30" height="30" fill="hsl(240 100% 57.84656220473118%)" />
  <rect x="695" y="295" width="30" height="30" fill="hsl(240 100% 97.60650644600256%)" />
  <rect x="800" y="295" width="30" height="30" fill="hsl(240 100% 99.57505743365707%)" />
  <rect x="835" y="295" width="30" height="30" fill="hsl(240 100% 99.95203822998388%)" />
  <rect x="65" y="330" width="30" height="30" fill="hsl(240 100% 87.42887022799192%)" />
  <rect x="100" y="330" width="30" height="30" fill="hsl(240 100% 94.19303952847463%)" />
  <rect x="135" y="330" width="30" height="30" fill="hsl(240 100% 96.82664798767996%)" />
  <rect x="170" y="330" width="30" height="30" fill="hsl(240 100% 87.03452532444797%)" />
  <rect x="205" y="330" width="30" height="30" fill="hsl(240 100% 99.10526331404778%)" />
  <rect x="240" y="330" width="30" height="30" fill="hsl(240 100% 77.2847893744428%)" />
  <rect x="275" y="330" width="30" height="30" fill="hsl(240 100% 85.79665882020925%)" />
  <rect x="310" y="330" width="30" height="30" fill="rgb(255 255 255 / 50%)" />
  <rect x="345" y="330" width="30" height="30" fill="hsl(240 100% 96.89135601826771%)" />
  <rect x="415" y="330" width="30" height="30" fill="hsl(240 100% 84.20949072326242%)" />
  <rect x="450" y="330" width="30" height="30" fill="hsl(240 100% 99.79065353718073%)" />
  <rect x="485" y="330" width="30" height="30" fill="hsl(240 100% 67.82346178996406%)" />
  <rect x="520" y="330" width="30" height="30" fill="hsl(240 100% 74.09533838570451%)" />
  <rect x="590" y="330" width="30" height="30" fill="hsl(240 100% 93.12564225559287%)" />
  <rect x="625" y="330" width="30" height="30" fill="hsl(240 100% 50%)" />
  <rect x="765" y="330" width="30" height="30" fill="hsl(240 100% 94.07714662025072%)" />
  <rect x="800" y="330" width="30" height="30" fill="hsl(240 100% 99.06978378417533%)" />
  <rect x="835" y="330" width="30" height="30" fill="hsl(240 100% 78.45486911530058%)" />
  <rect x="65" y="365" width="30" height="30" fill="hsl(240 100% 57.29856344456227%)" />
  <rect x="100" y="365" width="30" height="30" fill="hsl(240 100% 71.86302698599053%)" />
  <rect x="135" y="365" width="30" height="30" fill="hsl(240 100% 82.168879891984%)" />
  <rect x="170" y="365" width="30" height="30" fill="hsl(240 100% 50%)" />
  <rect x="205" y="365" width="30" height="30" fill="hsl(240 100% 96.21142883481069%)" />
  <rect x="240" y="365" width="30" height="30" fill="hsl(240 100% 59.751144037013134%)" />
  <rect x="275" y="365" width="30" height="30" fill="hsl(240 100% 92.48696498408594%)" />
  <rect x="310" y="365" width="30" height="30" fill="hsl(240 100% 99.86294482914164%)" />
  <rect x="415" y="365" width="30" height="30" fill="hsl(240 100% 67.12053196004081%)" />
  <rect x="520" y="365" width="30" height="30" fill="hsl(240 100% 86.00367261884728%)" />
  <rect x="625" y="365" width="30" height="30" fill="hsl(240 100% 99.63316020213732%)" />
  <rect x="730" y="365" width="30" height="30" fill="hsl(240 100% 64.20255039267123%)" />
  <rect x="765" y="365" width="30" height="30" fill="hsl(240 100% 98.20380538837115%)" />
  <rect x="835" y="365" width="30" height="30" fill="hsl(240 100% 98.739114061765%)" />
  <rect x="65" y="400" width="30" height="30" fill="hsl(240 100% 97.78453220729135%)" />
  <rect x="100" y="400" width="30" height="30" fill="hsl(240 100% 99.2862200546457%)" />
  <rect x="135" y="400" width="30" height="30" fill="hsl(240 100% 99.5981305814922%)" />
  <rect x="170" y="400" width="30" height="30" fill="hsl(240 100% 94.23560931164388%)" />
  <rect x="205" y="400" width="30" height="30" fill="hsl(240 100% 99.05734848244072%)" />
  <rect x="240" y="400" width="30" height="30" fill="hsl(240 100% 82.61907921417082%)" />
  <rect x="275" y="400" width="30" height="30" fill="hsl(240 100% 94.3318931553037%)" />
  <rect x="310" y="400" width="30" height="30" fill="rgb(255 255 255 / 50%)" />
  <rect x="380" y="400" width="30" height="30" fill="rgb(255 255 255 / 50%)" />
  <rect x="415" y="400" width="30" height="30" fill="hsl(240 100% 92.61422765278692%)" />
  <rect x="450" y="400" width="30" height="30" fill="hsl(240 100% 99.96899447410831%)" />
  <rect x="485" y="400" width="30" height="30" fill="hsl(240 100% 73.89732301102651%)" />
  <rect x="520" y="400" width="30" height="30" fill="hsl(240 100% 50%)" />
  <rect x="555" y="400" width="30" height="30" fill="hsl(240 100% 98.928025204737%)" />
  <rect x="660" y="400" width="30" height="30" fill="rgb(255 255 255 / 50%)" />
  <rect x="835" y="400" width="30" height="30" fill="hsl(240 100% 98.91415898621626%)" />
  <rect x="65" y="435" width="30" height="30" fill="hsl(240 100% 92.83967831606051%)" />
  <rect x="240" y="435" width="30" height="30" fill="hsl(240 100% 50%)" />
  <rect x="310" y="435" width="30" height="30" fill="hsl(240 100% 94.32378064204124%)" />
  <rect x="415" y="435" width="30" height="30" fill="hsl(240 100% 87.04625369128547%)" />
  <rect x="450" y="435" width="30" height="30" fill="hsl(240 100% 99.78420181400244%)" />
  <rect x="65" y="470" width="30" height="30" fill="hsl(240 100% 50%)" />
  <rect x="240" y="470" width="30" height="30" fill="hsl(240 100% 50.20008521029137%)" />
  <rect x="310" y="470" width="30" height="30" fill="hsl(240 100% 97.15665823114972%)" />
  <rect x="415" y="470" width="30" height="30" fill="hsl(240 100% 89.09652664791186%)" />
  <rect x="450" y="470" width="30" height="30" fill="hsl(240 100% 99.56774736370895%)" />
</svg>
