<svg xmlns="http://www.w3.org/2000/svg" viewBox="0 0 765 505">
  <rect x="0" y="0" width="765" height="505" rx="5" ry="5" fill="#222" />
  <text x="60" y="100" fill="white" font-family="sans-serif" font-weight="bold" font-size="12" text-anchor="end" dominant-baseline="middle">ba</text>
  <text x="60" y="135" fill="white" font-family="sans-serif" font-weight="bold" font-size="12" text-anchor="end" dominant-baseline="middle">det</text>
  <text x="60" y="170" fill="white" font-family="sans-serif" font-weight="bold" font-size="12" text-anchor="end" dominant-baseline="middle">gmm</text>
  <text x="60" y="205" fill="white" font-family="sans-serif" font-weight="bold" font-size="12" text-anchor="end" dominant-baseline="middle">hello</text>
  <text x="60" y="240" fill="white" font-family="sans-serif" font-weight="bold" font-size="12" text-anchor="end" dominant-baseline="middle">ht</text>
  <text x="60" y="275" fill="white" font-family="sans-serif" font-weight="bold" font-size="12" text-anchor="end" dominant-baseline="middle">kmeans</text>
  <text x="60" y="310" fill="white" font-family="sans-serif" font-weight="bold" font-size="12" text-anchor="end" dominant-baseline="middle">llsq</text>
  <text x="60" y="345" fill="white" font-family="sans-serif" font-weight="bold" font-size="12" text-anchor="end" dominant-baseline="middle">lse</text>
  <text x="60" y="380" fill="white" font-family="sans-serif" font-weight="bold" font-size="12" text-anchor="end" dominant-baseline="middle">lstm</text>
  <text x="60" y="415" fill="white" font-family="sans-serif" font-weight="bold" font-size="12" text-anchor="end" dominant-baseline="middle">ode</text>
  <text x="60" y="450" fill="white" font-family="sans-serif" font-weight="bold" font-size="12" text-anchor="end" dominant-baseline="middle">particle</text>
  <text x="60" y="485" fill="white" font-family="sans-serif" font-weight="bold" font-size="12" text-anchor="end" dominant-baseline="middle">saddle</text>
  <text x="80" y="80" fill="white" font-family="sans-serif" font-weight="bold" font-size="12" text-anchor="end" dominant-baseline="middle" transform="rotate(90 80 80)">ad-hpp</text>
  <text x="115" y="80" fill="white" font-family="sans-serif" font-weight="bold" font-size="12" text-anchor="end" dominant-baseline="middle" transform="rotate(90 115 80)">adept</text>
  <text x="150" y="80" fill="white" font-family="sans-serif" font-weight="bold" font-size="12" text-anchor="end" dominant-baseline="middle" transform="rotate(90 150 80)">adol-c</text>
  <text x="185" y="80" fill="white" font-family="sans-serif" font-weight="bold" font-size="12" text-anchor="end" dominant-baseline="middle" transform="rotate(90 185 80)">codipack</text>
  <text x="220" y="80" fill="white" font-family="sans-serif" font-weight="bold" font-size="12" text-anchor="end" dominant-baseline="middle" transform="rotate(90 220 80)">cppad</text>
  <text x="255" y="80" fill="white" font-family="sans-serif" font-weight="bold" font-size="12" text-anchor="end" dominant-baseline="middle" transform="rotate(90 255 80)">enzyme</text>
  <text x="290" y="80" fill="white" font-family="sans-serif" font-weight="bold" font-size="12" text-anchor="end" dominant-baseline="middle" transform="rotate(90 290 80)">enzyme-jl</text>
  <text x="325" y="80" fill="white" font-family="sans-serif" font-weight="bold" font-size="12" text-anchor="end" dominant-baseline="middle" transform="rotate(90 325 80)">finite</text>
  <text x="360" y="80" fill="white" font-family="sans-serif" font-weight="bold" font-size="12" text-anchor="end" dominant-baseline="middle" transform="rotate(90 360 80)">floretta</text>
  <text x="395" y="80" fill="white" font-family="sans-serif" font-weight="bold" font-size="12" text-anchor="end" dominant-baseline="middle" transform="rotate(90 395 80)">futhark</text>
  <text x="430" y="80" fill="white" font-family="sans-serif" font-weight="bold" font-size="12" text-anchor="end" dominant-baseline="middle" transform="rotate(90 430 80)">haskell</text>
  <text x="465" y="80" fill="white" font-family="sans-serif" font-weight="bold" font-size="12" text-anchor="end" dominant-baseline="middle" transform="rotate(90 465 80)">jax</text>
  <text x="500" y="80" fill="white" font-family="sans-serif" font-weight="bold" font-size="12" text-anchor="end" dominant-baseline="middle" transform="rotate(90 500 80)">manual</text>
  <text x="535" y="80" fill="white" font-family="sans-serif" font-weight="bold" font-size="12" text-anchor="end" dominant-baseline="middle" transform="rotate(90 535 80)">ocaml</text>
  <text x="570" y="80" fill="white" font-family="sans-serif" font-weight="bold" font-size="12" text-anchor="end" dominant-baseline="middle" transform="rotate(90 570 80)">pytorch</text>
  <text x="605" y="80" fill="white" font-family="sans-serif" font-weight="bold" font-size="12" text-anchor="end" dominant-baseline="middle" transform="rotate(90 605 80)">scilean</text>
  <text x="640" y="80" fill="white" font-family="sans-serif" font-weight="bold" font-size="12" text-anchor="end" dominant-baseline="middle" transform="rotate(90 640 80)">tapenade</text>
  <text x="675" y="80" fill="white" font-family="sans-serif" font-weight="bold" font-size="12" text-anchor="end" dominant-baseline="middle" transform="rotate(90 675 80)">tensorflow</text>
  <text x="710" y="80" fill="white" font-family="sans-serif" font-weight="bold" font-size="12" text-anchor="end" dominant-baseline="middle" transform="rotate(90 710 80)">tensorflow-js</text>
  <text x="745" y="80" fill="white" font-family="sans-serif" font-weight="bold" font-size="12" text-anchor="end" dominant-baseline="middle" transform="rotate(90 745 80)">zygote</text>
  <rect x="65" y="85" width="30" height="30" fill="hsl(240 100% 80.83150211770015%)" />
  <rect x="100" y="85" width="30" height="30" fill="hsl(240 100% 82.92651508511352%)" />
  <rect x="135" y="85" width="30" height="30" fill="hsl(240 100% 97.99820363860763%)" />
  <rect x="170" y="85" width="30" height="30" fill="hsl(240 100% 82.5246457135206%)" />
  <rect x="205" y="85" width="30" height="30" fill="hsl(240 100% 98.99876901554298%)" />
  <rect x="240" y="85" width="30" height="30" fill="hsl(240 100% 51.53779239037985%)" />
  <rect x="310" y="85" width="30" height="30" fill="hsl(240 100% 93.24930576496428%)" />
  <rect x="380" y="85" width="30" height="30" fill="hsl(240 100% 68.00854248489752%)" />
  <rect x="485" y="85" width="30" height="30" fill="hsl(240 100% 50%)" />
  <rect x="555" y="85" width="30" height="30" fill="rgb(255 255 255 / 50%)" />
  <rect x="625" y="85" width="30" height="30" fill="hsl(240 100% 74.80246663300349%)" />
  <rect x="660" y="85" width="30" height="30" fill="rgb(255 255 255 / 50%)" />
  <rect x="730" y="85" width="30" height="30" fill="hsl(240 100% 99.71876013166649%)" />
  <rect x="65" y="120" width="30" height="30" fill="hsl(240 100% 50%)" />
  <rect x="100" y="120" width="30" height="30" fill="hsl(240 100% 82.87876978685523%)" />
  <rect x="135" y="120" width="30" height="30" fill="hsl(240 100% 85.81690762787098%)" />
  <rect x="170" y="120" width="30" height="30" fill="hsl(240 100% 52.976315869790064%)" />
  <rect x="205" y="120" width="30" height="30" fill="hsl(240 100% 92.51142507186421%)" />
  <rect x="240" y="120" width="30" height="30" fill="hsl(240 100% 91.57601813410719%)" />
  <rect x="275" y="120" width="30" height="30" fill="hsl(240 100% 99.36105237588542%)" />
  <rect x="310" y="120" width="30" height="30" fill="hsl(240 100% 98.99616956667174%)" />
  <rect x="380" y="120" width="30" height="30" fill="hsl(240 100% 94.64456848743293%)" />
  <rect x="415" y="120" width="30" height="30" fill="hsl(240 100% 97.98540838061545%)" />
  <rect x="485" y="120" width="30" height="30" fill="hsl(240 100% 79.90967887805935%)" />
  <rect x="730" y="120" width="30" height="30" fill="rgb(255 255 255 / 50%)" />
  <rect x="65" y="155" width="30" height="30" fill="hsl(240 100% 97.33461873858776%)" />
  <rect x="100" y="155" width="30" height="30" fill="hsl(240 100% 98.22511461529251%)" />
  <rect x="135" y="155" width="30" height="30" fill="hsl(240 100% 98.68414564085168%)" />
  <rect x="170" y="155" width="30" height="30" fill="hsl(240 100% 97.11012373145431%)" />
  <rect x="205" y="155" width="30" height="30" fill="hsl(240 100% 99.76454441365927%)" />
  <rect x="240" y="155" width="30" height="30" fill="hsl(240 100% 86.51379758540706%)" />
  <rect x="275" y="155" width="30" height="30" fill="hsl(240 100% 88.43482357679306%)" />
  <rect x="310" y="155" width="30" height="30" fill="rgb(255 255 255 / 50%)" />
  <rect x="380" y="155" width="30" height="30" fill="hsl(240 100% 89.31055687258969%)" />
  <rect x="450" y="155" width="30" height="30" fill="hsl(240 100% 70.15492719530212%)" />
  <rect x="485" y="155" width="30" height="30" fill="hsl(240 100% 72.18908129543807%)" />
  <rect x="520" y="155" width="30" height="30" fill="hsl(240 100% 99.34565200652705%)" />
  <rect x="555" y="155" width="30" height="30" fill="hsl(240 100% 50%)" />
  <rect x="590" y="155" width="30" height="30" fill="hsl(240 100% 92.65964849973534%)" />
  <rect x="625" y="155" width="30" height="30" fill="hsl(240 100% 75.22108803215986%)" />
  <rect x="660" y="155" width="30" height="30" fill="hsl(240 100% 88.48321558117983%)" />
  <rect x="730" y="155" width="30" height="30" fill="hsl(240 100% 96.40074515271326%)" />
  <rect x="65" y="190" width="30" height="30" fill="hsl(240 100% 50%)" />
  <rect x="100" y="190" width="30" height="30" fill="hsl(240 100% 50%)" />
  <rect x="135" y="190" width="30" height="30" fill="hsl(240 100% 50%)" />
  <rect x="170" y="190" width="30" height="30" fill="hsl(240 100% 50%)" />
  <rect x="205" y="190" width="30" height="30" fill="hsl(240 100% 50%)" />
  <rect x="240" y="190" width="30" height="30" fill="hsl(240 100% 50%)" />
  <rect x="275" y="190" width="30" height="30" fill="hsl(240 100% 50%)" />
  <rect x="310" y="190" width="30" height="30" fill="hsl(240 100% 50%)" />
  <rect x="345" y="190" width="30" height="30" fill="hsl(240 100% 50%)" />
  <rect x="380" y="190" width="30" height="30" fill="hsl(240 100% 50%)" />
  <rect x="415" y="190" width="30" height="30" fill="hsl(240 100% 50%)" />
  <rect x="450" y="190" width="30" height="30" fill="hsl(240 100% 50%)" />
  <rect x="485" y="190" width="30" height="30" fill="hsl(240 100% 50%)" />
  <rect x="520" y="190" width="30" height="30" fill="hsl(240 100% 50%)" />
  <rect x="555" y="190" width="30" height="30" fill="hsl(240 100% 50%)" />
  <rect x="590" y="190" width="30" height="30" fill="hsl(240 100% 50%)" />
  <rect x="625" y="190" width="30" height="30" fill="hsl(240 100% 50%)" />
  <rect x="660" y="190" width="30" height="30" fill="hsl(240 100% 50%)" />
  <rect x="695" y="190" width="30" height="30" fill="hsl(240 100% 50%)" />
  <rect x="730" y="190" width="30" height="30" fill="hsl(240 100% 50%)" />
  <rect x="100" y="225" width="30" height="30" fill="hsl(240 100% 96.74428171052526%)" />
  <rect x="135" y="225" width="30" height="30" fill="hsl(240 100% 89.51155733628265%)" />
  <rect x="170" y="225" width="30" height="30" fill="hsl(240 100% 89.4555721323027%)" />
  <rect x="240" y="225" width="30" height="30" fill="hsl(240 100% 91.40631524133771%)" />
  <rect x="310" y="225" width="30" height="30" fill="rgb(255 255 255 / 50%)" />
  <rect x="380" y="225" width="30" height="30" fill="hsl(240 100% 90.67383789980559%)" />
  <rect x="485" y="225" width="30" height="30" fill="hsl(240 100% 50%)" />
  <rect x="555" y="225" width="30" height="30" fill="rgb(255 255 255 / 50%)" />
  <rect x="625" y="225" width="30" height="30" fill="hsl(240 100% 93.32946866460414%)" />
  <rect x="660" y="225" width="30" height="30" fill="rgb(255 255 255 / 50%)" />
  <rect x="730" y="225" width="30" height="30" fill="hsl(240 100% 94.62884557168408%)" />
  <rect x="65" y="260" width="30" height="30" fill="hsl(240 100% 99.82205183864815%)" />
  <rect x="135" y="260" width="30" height="30" fill="hsl(240 100% 99.84836700095623%)" />
  <rect x="170" y="260" width="30" height="30" fill="hsl(240 100% 98.82413322558344%)" />
  <rect x="205" y="260" width="30" height="30" fill="rgb(255 255 255 / 50%)" />
  <rect x="240" y="260" width="30" height="30" fill="hsl(240 100% 86.74129968230562%)" />
  <rect x="310" y="260" width="30" height="30" fill="rgb(255 255 255 / 50%)" />
  <rect x="380" y="260" width="30" height="30" fill="hsl(240 100% 80.32982790126405%)" />
  <rect x="415" y="260" width="30" height="30" fill="rgb(255 255 255 / 50%)" />
  <rect x="450" y="260" width="30" height="30" fill="hsl(240 100% 50%)" />
  <rect x="485" y="260" width="30" height="30" fill="hsl(240 100% 70.54578406747497%)" />
  <rect x="555" y="260" width="30" height="30" fill="hsl(240 100% 96.90684796308936%)" />
  <rect x="590" y="260" width="30" height="30" fill="hsl(240 100% 93.90047544612608%)" />
  <rect x="65" y="295" width="30" height="30" fill="hsl(240 100% 85.75784567477655%)" />
  <rect x="100" y="295" width="30" height="30" fill="hsl(240 100% 97.5920958654817%)" />
  <rect x="135" y="295" width="30" height="30" fill="hsl(240 100% 95.3114551600658%)" />
  <rect x="170" y="295" width="30" height="30" fill="hsl(240 100% 90.69798438358423%)" />
  <rect x="205" y="295" width="30" height="30" fill="hsl(240 100% 99.45618319360402%)" />
  <rect x="240" y="295" width="30" height="30" fill="hsl(240 100% 50.70077080299403%)" />
  <rect x="275" y="295" width="30" height="30" fill="hsl(240 100% 50%)" />
  <rect x="310" y="295" width="30" height="30" fill="hsl(240 100% 99.50035588697769%)" />
  <rect x="345" y="295" width="30" height="30" fill="hsl(240 100% 94.72714933362384%)" />
  <rect x="380" y="295" width="30" height="30" fill="hsl(240 100% 55.91001294377883%)" />
  <rect x="415" y="295" width="30" height="30" fill="hsl(240 100% 99.34520564892496%)" />
  <rect x="450" y="295" width="30" height="30" fill="hsl(240 100% 88.28966576588964%)" />
  <rect x="485" y="295" width="30" height="30" fill="hsl(240 100% 57.930034822037676%)" />
  <rect x="590" y="295" width="30" height="30" fill="hsl(240 100% 97.60898399169719%)" />
  <rect x="695" y="295" width="30" height="30" fill="hsl(240 100% 99.56806412127742%)" />
  <rect x="730" y="295" width="30" height="30" fill="hsl(240 100% 99.95461223178744%)" />
  <rect x="65" y="330" width="30" height="30" fill="hsl(240 100% 87.71787806938667%)" />
  <rect x="100" y="330" width="30" height="30" fill="hsl(240 100% 94.28362353536927%)" />
  <rect x="135" y="330" width="30" height="30" fill="hsl(240 100% 96.88314300014429%)" />
  <rect x="170" y="330" width="30" height="30" fill="hsl(240 100% 87.36706000927344%)" />
  <rect x="205" y="330" width="30" height="30" fill="hsl(240 100% 99.13817924946052%)" />
  <rect x="240" y="330" width="30" height="30" fill="hsl(240 100% 77.99850036627882%)" />
  <rect x="275" y="330" width="30" height="30" fill="hsl(240 100% 86.56822734928704%)" />
  <rect x="310" y="330" width="30" height="30" fill="rgb(255 255 255 / 50%)" />
  <rect x="345" y="330" width="30" height="30" fill="hsl(240 100% 96.96242040066353%)" />
  <rect x="380" y="330" width="30" height="30" fill="hsl(240 100% 84.53511014215792%)" />
  <rect x="415" y="330" width="30" height="30" fill="hsl(240 100% 99.79665412982398%)" />
  <rect x="450" y="330" width="30" height="30" fill="hsl(240 100% 68.68824499745389%)" />
  <rect x="485" y="330" width="30" height="30" fill="hsl(240 100% 74.48058466940702%)" />
  <rect x="520" y="330" width="30" height="30" fill="hsl(240 100% 93.25642758018643%)" />
  <rect x="555" y="330" width="30" height="30" fill="hsl(240 100% 50%)" />
  <rect x="660" y="330" width="30" height="30" fill="hsl(240 100% 94.41295562847596%)" />
  <rect x="695" y="330" width="30" height="30" fill="hsl(240 100% 99.15414952712291%)" />
  <rect x="730" y="330" width="30" height="30" fill="hsl(240 100% 76.94411544016626%)" />
  <rect x="65" y="365" width="30" height="30" fill="hsl(240 100% 57.00861333957191%)" />
  <rect x="100" y="365" width="30" height="30" fill="hsl(240 100% 71.28405274560005%)" />
  <rect x="135" y="365" width="30" height="30" fill="hsl(240 100% 81.79203013364989%)" />
  <rect x="170" y="365" width="30" height="30" fill="hsl(240 100% 50%)" />
  <rect x="205" y="365" width="30" height="30" fill="hsl(240 100% 96.22910439499708%)" />
  <rect x="240" y="365" width="30" height="30" fill="hsl(240 100% 57.22185695109917%)" />
  <rect x="275" y="365" width="30" height="30" fill="hsl(240 100% 92.67181436674528%)" />
  <rect x="310" y="365" width="30" height="30" fill="hsl(240 100% 99.86217885557447%)" />
  <rect x="380" y="365" width="30" height="30" fill="hsl(240 100% 66.03413709552504%)" />
  <rect x="485" y="365" width="30" height="30" fill="hsl(240 100% 85.82658897885945%)" />
  <rect x="555" y="365" width="30" height="30" fill="hsl(240 100% 99.63276326049957%)" />
  <rect x="625" y="365" width="30" height="30" fill="hsl(240 100% 63.5480703251407%)" />
  <rect x="660" y="365" width="30" height="30" fill="hsl(240 100% 98.18712383794939%)" />
  <rect x="730" y="365" width="30" height="30" fill="hsl(240 100% 98.78607768475491%)" />
  <rect x="65" y="400" width="30" height="30" fill="hsl(240 100% 98.22753721494726%)" />
  <rect x="100" y="400" width="30" height="30" fill="hsl(240 100% 99.27138192979798%)" />
  <rect x="135" y="400" width="30" height="30" fill="hsl(240 100% 99.61054718232273%)" />
  <rect x="170" y="400" width="30" height="30" fill="hsl(240 100% 94.31736240763756%)" />
  <rect x="205" y="400" width="30" height="30" fill="hsl(240 100% 99.0751796202995%)" />
  <rect x="240" y="400" width="30" height="30" fill="hsl(240 100% 86.11187084052602%)" />
  <rect x="275" y="400" width="30" height="30" fill="hsl(240 100% 94.38506650380208%)" />
  <rect x="310" y="400" width="30" height="30" fill="rgb(255 255 255 / 50%)" />
  <rect x="380" y="400" width="30" height="30" fill="hsl(240 100% 92.82239046551433%)" />
  <rect x="415" y="400" width="30" height="30" fill="hsl(240 100% 99.9638728960841%)" />
  <rect x="450" y="400" width="30" height="30" fill="hsl(240 100% 74.9704537727545%)" />
  <rect x="485" y="400" width="30" height="30" fill="hsl(240 100% 50%)" />
  <rect x="730" y="400" width="30" height="30" fill="hsl(240 100% 98.82847627864025%)" />
  <rect x="65" y="435" width="30" height="30" fill="hsl(240 100% 92.90726790147822%)" />
  <rect x="240" y="435" width="30" height="30" fill="hsl(240 100% 50%)" />
  <rect x="310" y="435" width="30" height="30" fill="hsl(240 100% 94.30533883471159%)" />
  <rect x="380" y="435" width="30" height="30" fill="hsl(240 100% 87.01150835475698%)" />
  <rect x="415" y="435" width="30" height="30" fill="hsl(240 100% 99.79433786123974%)" />
  <rect x="65" y="470" width="30" height="30" fill="hsl(240 100% 50%)" />
  <rect x="240" y="470" width="30" height="30" fill="hsl(240 100% 50.04729361265161%)" />
  <rect x="310" y="470" width="30" height="30" fill="hsl(240 100% 97.15549144280493%)" />
  <rect x="380" y="470" width="30" height="30" fill="hsl(240 100% 89.21465628276214%)" />
  <rect x="415" y="470" width="30" height="30" fill="hsl(240 100% 99.58393056125017%)" />
</svg>
