<svg xmlns="http://www.w3.org/2000/svg" viewBox="0 0 625 295">
  <rect x="0" y="0" width="625" height="295" rx="5" ry="5" fill="#222" />
  <text x="60" y="100" fill="white" font-family="sans-serif" font-weight="bold" font-size="12" text-anchor="end" dominant-baseline="middle">ba</text>
  <text x="60" y="135" fill="white" font-family="sans-serif" font-weight="bold" font-size="12" text-anchor="end" dominant-baseline="middle">gmm</text>
  <text x="60" y="170" fill="white" font-family="sans-serif" font-weight="bold" font-size="12" text-anchor="end" dominant-baseline="middle">hello</text>
  <text x="60" y="205" fill="white" font-family="sans-serif" font-weight="bold" font-size="12" text-anchor="end" dominant-baseline="middle">ht</text>
  <text x="60" y="240" fill="white" font-family="sans-serif" font-weight="bold" font-size="12" text-anchor="end" dominant-baseline="middle">kmeans</text>
  <text x="60" y="275" fill="white" font-family="sans-serif" font-weight="bold" font-size="12" text-anchor="end" dominant-baseline="middle">lstm</text>
  <text x="80" y="80" fill="white" font-family="sans-serif" font-weight="bold" font-size="12" text-anchor="end" dominant-baseline="middle" transform="rotate(90 80 80)">adept</text>
  <text x="115" y="80" fill="white" font-family="sans-serif" font-weight="bold" font-size="12" text-anchor="end" dominant-baseline="middle" transform="rotate(90 115 80)">adol-c</text>
  <text x="150" y="80" fill="white" font-family="sans-serif" font-weight="bold" font-size="12" text-anchor="end" dominant-baseline="middle" transform="rotate(90 150 80)">cppad</text>
  <text x="185" y="80" fill="white" font-family="sans-serif" font-weight="bold" font-size="12" text-anchor="end" dominant-baseline="middle" transform="rotate(90 185 80)">enzyme</text>
  <text x="220" y="80" fill="white" font-family="sans-serif" font-weight="bold" font-size="12" text-anchor="end" dominant-baseline="middle" transform="rotate(90 220 80)">finite</text>
  <text x="255" y="80" fill="white" font-family="sans-serif" font-weight="bold" font-size="12" text-anchor="end" dominant-baseline="middle" transform="rotate(90 255 80)">floretta</text>
  <text x="290" y="80" fill="white" font-family="sans-serif" font-weight="bold" font-size="12" text-anchor="end" dominant-baseline="middle" transform="rotate(90 290 80)">futhark</text>
  <text x="325" y="80" fill="white" font-family="sans-serif" font-weight="bold" font-size="12" text-anchor="end" dominant-baseline="middle" transform="rotate(90 325 80)">haskell</text>
  <text x="360" y="80" fill="white" font-family="sans-serif" font-weight="bold" font-size="12" text-anchor="end" dominant-baseline="middle" transform="rotate(90 360 80)">jax</text>
  <text x="395" y="80" fill="white" font-family="sans-serif" font-weight="bold" font-size="12" text-anchor="end" dominant-baseline="middle" transform="rotate(90 395 80)">manual</text>
  <text x="430" y="80" fill="white" font-family="sans-serif" font-weight="bold" font-size="12" text-anchor="end" dominant-baseline="middle" transform="rotate(90 430 80)">ocaml</text>
  <text x="465" y="80" fill="white" font-family="sans-serif" font-weight="bold" font-size="12" text-anchor="end" dominant-baseline="middle" transform="rotate(90 465 80)">pytorch</text>
  <text x="500" y="80" fill="white" font-family="sans-serif" font-weight="bold" font-size="12" text-anchor="end" dominant-baseline="middle" transform="rotate(90 500 80)">scilean</text>
  <text x="535" y="80" fill="white" font-family="sans-serif" font-weight="bold" font-size="12" text-anchor="end" dominant-baseline="middle" transform="rotate(90 535 80)">tapenade</text>
  <text x="570" y="80" fill="white" font-family="sans-serif" font-weight="bold" font-size="12" text-anchor="end" dominant-baseline="middle" transform="rotate(90 570 80)">tensorflow</text>
  <text x="605" y="80" fill="white" font-family="sans-serif" font-weight="bold" font-size="12" text-anchor="end" dominant-baseline="middle" transform="rotate(90 605 80)">zygote</text>
  <rect x="65" y="85" width="30" height="30" fill="hsl(240 100% 84.74834958078122%)" />
  <rect x="100" y="85" width="30" height="30" fill="hsl(240 100% 98.03488623085951%)" />
  <rect x="170" y="85" width="30" height="30" fill="hsl(240 100% 50%)" />
  <rect x="205" y="85" width="30" height="30" fill="hsl(240 100% 92.00050097291941%)" />
  <rect x="275" y="85" width="30" height="30" fill="hsl(240 100% 75.7904261909518%)" />
  <rect x="380" y="85" width="30" height="30" fill="hsl(240 100% 50.16869966153735%)" />
  <rect x="450" y="85" width="30" height="30" fill="hsl(240 100% 99.99186416241574%)" />
  <rect x="520" y="85" width="30" height="30" fill="hsl(240 100% 73.77682652693065%)" />
  <rect x="555" y="85" width="30" height="30" fill="hsl(240 100% 99.98402228127813%)" />
  <rect x="65" y="120" width="30" height="30" fill="hsl(240 100% 96.84175085489856%)" />
  <rect x="100" y="120" width="30" height="30" fill="hsl(240 100% 97.5068098086146%)" />
  <rect x="135" y="120" width="30" height="30" fill="hsl(240 100% 98.21306631588504%)" />
  <rect x="170" y="120" width="30" height="30" fill="hsl(240 100% 83.78724821186951%)" />
  <rect x="205" y="120" width="30" height="30" fill="hsl(240 100% 99.99497799317363%)" />
  <rect x="275" y="120" width="30" height="30" fill="hsl(240 100% 82.47382152270377%)" />
  <rect x="345" y="120" width="30" height="30" fill="hsl(240 100% 70.30597002652465%)" />
  <rect x="380" y="120" width="30" height="30" fill="hsl(240 100% 63.215886855775885%)" />
  <rect x="415" y="120" width="30" height="30" fill="hsl(240 100% 99.35535214700421%)" />
  <rect x="450" y="120" width="30" height="30" fill="hsl(240 100% 50%)" />
  <rect x="485" y="120" width="30" height="30" fill="hsl(240 100% 93.12177856773516%)" />
  <rect x="520" y="120" width="30" height="30" fill="hsl(240 100% 66.70539264735292%)" />
  <rect x="555" y="120" width="30" height="30" fill="hsl(240 100% 85.22120993597945%)" />
  <rect x="65" y="155" width="30" height="30" fill="hsl(240 100% 50%)" />
  <rect x="100" y="155" width="30" height="30" fill="hsl(240 100% 50%)" />
  <rect x="135" y="155" width="30" height="30" fill="hsl(240 100% 50%)" />
  <rect x="170" y="155" width="30" height="30" fill="hsl(240 100% 50%)" />
  <rect x="205" y="155" width="30" height="30" fill="hsl(240 100% 50%)" />
  <rect x="240" y="155" width="30" height="30" fill="hsl(240 100% 50%)" />
  <rect x="275" y="155" width="30" height="30" fill="hsl(240 100% 50%)" />
  <rect x="310" y="155" width="30" height="30" fill="hsl(240 100% 50%)" />
  <rect x="345" y="155" width="30" height="30" fill="hsl(240 100% 50%)" />
  <rect x="380" y="155" width="30" height="30" fill="hsl(240 100% 50%)" />
  <rect x="415" y="155" width="30" height="30" fill="hsl(240 100% 50%)" />
  <rect x="450" y="155" width="30" height="30" fill="hsl(240 100% 50%)" />
  <rect x="485" y="155" width="30" height="30" fill="hsl(240 100% 50%)" />
  <rect x="520" y="155" width="30" height="30" fill="hsl(240 100% 50%)" />
  <rect x="555" y="155" width="30" height="30" fill="hsl(240 100% 50%)" />
  <rect x="590" y="155" width="30" height="30" fill="hsl(240 100% 50%)" />
  <rect x="65" y="190" width="30" height="30" fill="hsl(240 100% 97.05391150551695%)" />
  <rect x="100" y="190" width="30" height="30" fill="hsl(240 100% 97.90846802430552%)" />
  <rect x="170" y="190" width="30" height="30" fill="hsl(240 100% 94.96804299787118%)" />
  <rect x="205" y="190" width="30" height="30" fill="hsl(240 100% 99.18899173793773%)" />
  <rect x="275" y="190" width="30" height="30" fill="hsl(240 100% 93.99787581055823%)" />
  <rect x="380" y="190" width="30" height="30" fill="hsl(240 100% 50%)" />
  <rect x="450" y="190" width="30" height="30" fill="hsl(240 100% 99.96728404153986%)" />
  <rect x="520" y="190" width="30" height="30" fill="hsl(240 100% 99.39154796296762%)" />
  <rect x="555" y="190" width="30" height="30" fill="hsl(240 100% 99.46035928164777%)" />
  <rect x="100" y="225" width="30" height="30" fill="hsl(240 100% 99.88452651305145%)" />
  <rect x="170" y="225" width="30" height="30" fill="hsl(240 100% 88.22900653601657%)" />
  <rect x="275" y="225" width="30" height="30" fill="hsl(240 100% 83.23629886940093%)" />
  <rect x="310" y="225" width="30" height="30" fill="hsl(240 100% 99.99228463069234%)" />
  <rect x="345" y="225" width="30" height="30" fill="hsl(240 100% 50%)" />
  <rect x="380" y="225" width="30" height="30" fill="hsl(240 100% 77.07193251257108%)" />
  <rect x="450" y="225" width="30" height="30" fill="hsl(240 100% 85.15026002665265%)" />
  <rect x="65" y="260" width="30" height="30" fill="hsl(240 100% 68.32271627810147%)" />
  <rect x="100" y="260" width="30" height="30" fill="hsl(240 100% 81.60212592454037%)" />
  <rect x="135" y="260" width="30" height="30" fill="hsl(240 100% 88.30324282469849%)" />
  <rect x="170" y="260" width="30" height="30" fill="hsl(240 100% 50%)" />
  <rect x="205" y="260" width="30" height="30" fill="hsl(240 100% 99.79800920259278%)" />
  <rect x="275" y="260" width="30" height="30" fill="hsl(240 100% 62.9643794017976%)" />
  <rect x="380" y="260" width="30" height="30" fill="hsl(240 100% 78.40790849509668%)" />
  <rect x="450" y="260" width="30" height="30" fill="hsl(240 100% 99.65378156823994%)" />
  <rect x="520" y="260" width="30" height="30" fill="hsl(240 100% 59.3524198641341%)" />
  <rect x="555" y="260" width="30" height="30" fill="hsl(240 100% 98.04864985260522%)" />
</svg>
