<svg xmlns="http://www.w3.org/2000/svg" viewBox="0 0 765 505">
  <rect x="0" y="0" width="765" height="505" rx="5" ry="5" fill="#222" />
  <text x="60" y="100" fill="white" font-family="sans-serif" font-weight="bold" font-size="12" text-anchor="end" dominant-baseline="middle">ba</text>
  <text x="60" y="135" fill="white" font-family="sans-serif" font-weight="bold" font-size="12" text-anchor="end" dominant-baseline="middle">det</text>
  <text x="60" y="170" fill="white" font-family="sans-serif" font-weight="bold" font-size="12" text-anchor="end" dominant-baseline="middle">gmm</text>
  <text x="60" y="205" fill="white" font-family="sans-serif" font-weight="bold" font-size="12" text-anchor="end" dominant-baseline="middle">hello</text>
  <text x="60" y="240" fill="white" font-family="sans-serif" font-weight="bold" font-size="12" text-anchor="end" dominant-baseline="middle">ht</text>
  <text x="60" y="275" fill="white" font-family="sans-serif" font-weight="bold" font-size="12" text-anchor="end" dominant-baseline="middle">kmeans</text>
  <text x="60" y="310" fill="white" font-family="sans-serif" font-weight="bold" font-size="12" text-anchor="end" dominant-baseline="middle">llsq</text>
  <text x="60" y="345" fill="white" font-family="sans-serif" font-weight="bold" font-size="12" text-anchor="end" dominant-baseline="middle">lse</text>
  <text x="60" y="380" fill="white" font-family="sans-serif" font-weight="bold" font-size="12" text-anchor="end" dominant-baseline="middle">lstm</text>
  <text x="60" y="415" fill="white" font-family="sans-serif" font-weight="bold" font-size="12" text-anchor="end" dominant-baseline="middle">ode</text>
  <text x="60" y="450" fill="white" font-family="sans-serif" font-weight="bold" font-size="12" text-anchor="end" dominant-baseline="middle">particle</text>
  <text x="60" y="485" fill="white" font-family="sans-serif" font-weight="bold" font-size="12" text-anchor="end" dominant-baseline="middle">saddle</text>
  <text x="80" y="80" fill="white" font-family="sans-serif" font-weight="bold" font-size="12" text-anchor="end" dominant-baseline="middle" transform="rotate(90 80 80)">ad-hpp</text>
  <text x="115" y="80" fill="white" font-family="sans-serif" font-weight="bold" font-size="12" text-anchor="end" dominant-baseline="middle" transform="rotate(90 115 80)">adept</text>
  <text x="150" y="80" fill="white" font-family="sans-serif" font-weight="bold" font-size="12" text-anchor="end" dominant-baseline="middle" transform="rotate(90 150 80)">adol-c</text>
  <text x="185" y="80" fill="white" font-family="sans-serif" font-weight="bold" font-size="12" text-anchor="end" dominant-baseline="middle" transform="rotate(90 185 80)">codipack</text>
  <text x="220" y="80" fill="white" font-family="sans-serif" font-weight="bold" font-size="12" text-anchor="end" dominant-baseline="middle" transform="rotate(90 220 80)">cppad</text>
  <text x="255" y="80" fill="white" font-family="sans-serif" font-weight="bold" font-size="12" text-anchor="end" dominant-baseline="middle" transform="rotate(90 255 80)">enzyme</text>
  <text x="290" y="80" fill="white" font-family="sans-serif" font-weight="bold" font-size="12" text-anchor="end" dominant-baseline="middle" transform="rotate(90 290 80)">enzyme-jl</text>
  <text x="325" y="80" fill="white" font-family="sans-serif" font-weight="bold" font-size="12" text-anchor="end" dominant-baseline="middle" transform="rotate(90 325 80)">finite</text>
  <text x="360" y="80" fill="white" font-family="sans-serif" font-weight="bold" font-size="12" text-anchor="end" dominant-baseline="middle" transform="rotate(90 360 80)">floretta</text>
  <text x="395" y="80" fill="white" font-family="sans-serif" font-weight="bold" font-size="12" text-anchor="end" dominant-baseline="middle" transform="rotate(90 395 80)">futhark</text>
  <text x="430" y="80" fill="white" font-family="sans-serif" font-weight="bold" font-size="12" text-anchor="end" dominant-baseline="middle" transform="rotate(90 430 80)">haskell</text>
  <text x="465" y="80" fill="white" font-family="sans-serif" font-weight="bold" font-size="12" text-anchor="end" dominant-baseline="middle" transform="rotate(90 465 80)">jax</text>
  <text x="500" y="80" fill="white" font-family="sans-serif" font-weight="bold" font-size="12" text-anchor="end" dominant-baseline="middle" transform="rotate(90 500 80)">manual</text>
  <text x="535" y="80" fill="white" font-family="sans-serif" font-weight="bold" font-size="12" text-anchor="end" dominant-baseline="middle" transform="rotate(90 535 80)">ocaml</text>
  <text x="570" y="80" fill="white" font-family="sans-serif" font-weight="bold" font-size="12" text-anchor="end" dominant-baseline="middle" transform="rotate(90 570 80)">pytorch</text>
  <text x="605" y="80" fill="white" font-family="sans-serif" font-weight="bold" font-size="12" text-anchor="end" dominant-baseline="middle" transform="rotate(90 605 80)">scilean</text>
  <text x="640" y="80" fill="white" font-family="sans-serif" font-weight="bold" font-size="12" text-anchor="end" dominant-baseline="middle" transform="rotate(90 640 80)">tapenade</text>
  <text x="675" y="80" fill="white" font-family="sans-serif" font-weight="bold" font-size="12" text-anchor="end" dominant-baseline="middle" transform="rotate(90 675 80)">tensorflow</text>
  <text x="710" y="80" fill="white" font-family="sans-serif" font-weight="bold" font-size="12" text-anchor="end" dominant-baseline="middle" transform="rotate(90 710 80)">tensorflow-js</text>
  <text x="745" y="80" fill="white" font-family="sans-serif" font-weight="bold" font-size="12" text-anchor="end" dominant-baseline="middle" transform="rotate(90 745 80)">zygote</text>
  <rect x="65" y="85" width="30" height="30" fill="hsl(240 100% 80.4784066589661%)" />
  <rect x="100" y="85" width="30" height="30" fill="hsl(240 100% 82.18096415782381%)" />
  <rect x="135" y="85" width="30" height="30" fill="hsl(240 100% 97.91482253604252%)" />
  <rect x="170" y="85" width="30" height="30" fill="hsl(240 100% 82.12751389417267%)" />
  <rect x="205" y="85" width="30" height="30" fill="hsl(240 100% 98.96758819404191%)" />
  <rect x="240" y="85" width="30" height="30" fill="hsl(240 100% 50%)" />
  <rect x="310" y="85" width="30" height="30" fill="hsl(240 100% 93.21943931903164%)" />
  <rect x="380" y="85" width="30" height="30" fill="hsl(240 100% 66.88804055880314%)" />
  <rect x="485" y="85" width="30" height="30" fill="hsl(240 100% 53.43649237776467%)" />
  <rect x="555" y="85" width="30" height="30" fill="rgb(255 255 255 / 50%)" />
  <rect x="625" y="85" width="30" height="30" fill="hsl(240 100% 74.03749089330313%)" />
  <rect x="660" y="85" width="30" height="30" fill="rgb(255 255 255 / 50%)" />
  <rect x="730" y="85" width="30" height="30" fill="hsl(240 100% 99.7070476267096%)" />
  <rect x="65" y="120" width="30" height="30" fill="hsl(240 100% 50%)" />
  <rect x="100" y="120" width="30" height="30" fill="hsl(240 100% 82.20321276067891%)" />
  <rect x="135" y="120" width="30" height="30" fill="hsl(240 100% 85.44666133204116%)" />
  <rect x="170" y="120" width="30" height="30" fill="hsl(240 100% 51.623550071914984%)" />
  <rect x="205" y="120" width="30" height="30" fill="hsl(240 100% 92.44399548166%)" />
  <rect x="240" y="120" width="30" height="30" fill="hsl(240 100% 91.30688370881022%)" />
  <rect x="275" y="120" width="30" height="30" fill="hsl(240 100% 99.33999678248672%)" />
  <rect x="310" y="120" width="30" height="30" fill="hsl(240 100% 98.97112144191367%)" />
  <rect x="380" y="120" width="30" height="30" fill="hsl(240 100% 94.52335365907777%)" />
  <rect x="415" y="120" width="30" height="30" fill="hsl(240 100% 98.0225297786217%)" />
  <rect x="485" y="120" width="30" height="30" fill="hsl(240 100% 79.38789802902127%)" />
  <rect x="730" y="120" width="30" height="30" fill="rgb(255 255 255 / 50%)" />
  <rect x="65" y="155" width="30" height="30" fill="hsl(240 100% 96.91830990792394%)" />
  <rect x="100" y="155" width="30" height="30" fill="hsl(240 100% 98.20552576145737%)" />
  <rect x="135" y="155" width="30" height="30" fill="hsl(240 100% 98.65613343975689%)" />
  <rect x="170" y="155" width="30" height="30" fill="hsl(240 100% 97.15657741915207%)" />
  <rect x="205" y="155" width="30" height="30" fill="hsl(240 100% 99.75209661476994%)" />
  <rect x="240" y="155" width="30" height="30" fill="hsl(240 100% 86.20493583719826%)" />
  <rect x="275" y="155" width="30" height="30" fill="hsl(240 100% 89.16634252192941%)" />
  <rect x="310" y="155" width="30" height="30" fill="rgb(255 255 255 / 50%)" />
  <rect x="380" y="155" width="30" height="30" fill="hsl(240 100% 89.12109854290682%)" />
  <rect x="450" y="155" width="30" height="30" fill="hsl(240 100% 68.48786697082716%)" />
  <rect x="485" y="155" width="30" height="30" fill="hsl(240 100% 71.21512724620804%)" />
  <rect x="520" y="155" width="30" height="30" fill="hsl(240 100% 99.37629827643588%)" />
  <rect x="555" y="155" width="30" height="30" fill="hsl(240 100% 50%)" />
  <rect x="590" y="155" width="30" height="30" fill="hsl(240 100% 92.42936157976357%)" />
  <rect x="625" y="155" width="30" height="30" fill="hsl(240 100% 74.61551163937789%)" />
  <rect x="660" y="155" width="30" height="30" fill="hsl(240 100% 87.77399061023199%)" />
  <rect x="730" y="155" width="30" height="30" fill="hsl(240 100% 96.89140435461437%)" />
  <rect x="65" y="190" width="30" height="30" fill="hsl(240 100% 50%)" />
  <rect x="100" y="190" width="30" height="30" fill="hsl(240 100% 50%)" />
  <rect x="135" y="190" width="30" height="30" fill="hsl(240 100% 50%)" />
  <rect x="170" y="190" width="30" height="30" fill="hsl(240 100% 50%)" />
  <rect x="205" y="190" width="30" height="30" fill="hsl(240 100% 50%)" />
  <rect x="240" y="190" width="30" height="30" fill="hsl(240 100% 50%)" />
  <rect x="275" y="190" width="30" height="30" fill="hsl(240 100% 50%)" />
  <rect x="310" y="190" width="30" height="30" fill="hsl(240 100% 50%)" />
  <rect x="345" y="190" width="30" height="30" fill="hsl(240 100% 50%)" />
  <rect x="380" y="190" width="30" height="30" fill="hsl(240 100% 50%)" />
  <rect x="415" y="190" width="30" height="30" fill="hsl(240 100% 50%)" />
  <rect x="450" y="190" width="30" height="30" fill="hsl(240 100% 50%)" />
  <rect x="485" y="190" width="30" height="30" fill="hsl(240 100% 50%)" />
  <rect x="520" y="190" width="30" height="30" fill="hsl(240 100% 50%)" />
  <rect x="555" y="190" width="30" height="30" fill="hsl(240 100% 50%)" />
  <rect x="590" y="190" width="30" height="30" fill="hsl(240 100% 50%)" />
  <rect x="625" y="190" width="30" height="30" fill="hsl(240 100% 50%)" />
  <rect x="660" y="190" width="30" height="30" fill="hsl(240 100% 50%)" />
  <rect x="695" y="190" width="30" height="30" fill="hsl(240 100% 50%)" />
  <rect x="730" y="190" width="30" height="30" fill="hsl(240 100% 50%)" />
  <rect x="100" y="225" width="30" height="30" fill="hsl(240 100% 96.75118683872272%)" />
  <rect x="135" y="225" width="30" height="30" fill="hsl(240 100% 89.42648916504481%)" />
  <rect x="170" y="225" width="30" height="30" fill="hsl(240 100% 89.34147592834957%)" />
  <rect x="240" y="225" width="30" height="30" fill="hsl(240 100% 91.37867712659533%)" />
  <rect x="310" y="225" width="30" height="30" fill="rgb(255 255 255 / 50%)" />
  <rect x="380" y="225" width="30" height="30" fill="hsl(240 100% 90.7234715619503%)" />
  <rect x="485" y="225" width="30" height="30" fill="hsl(240 100% 50%)" />
  <rect x="555" y="225" width="30" height="30" fill="rgb(255 255 255 / 50%)" />
  <rect x="625" y="225" width="30" height="30" fill="hsl(240 100% 93.29956792890079%)" />
  <rect x="660" y="225" width="30" height="30" fill="rgb(255 255 255 / 50%)" />
  <rect x="730" y="225" width="30" height="30" fill="hsl(240 100% 94.67130065648952%)" />
  <rect x="65" y="260" width="30" height="30" fill="hsl(240 100% 99.86796039801246%)" />
  <rect x="135" y="260" width="30" height="30" fill="hsl(240 100% 99.85079006251668%)" />
  <rect x="170" y="260" width="30" height="30" fill="hsl(240 100% 98.83012603154522%)" />
  <rect x="205" y="260" width="30" height="30" fill="rgb(255 255 255 / 50%)" />
  <rect x="240" y="260" width="30" height="30" fill="hsl(240 100% 87.13181281221142%)" />
  <rect x="310" y="260" width="30" height="30" fill="rgb(255 255 255 / 50%)" />
  <rect x="380" y="260" width="30" height="30" fill="hsl(240 100% 80.44960558988359%)" />
  <rect x="415" y="260" width="30" height="30" fill="rgb(255 255 255 / 50%)" />
  <rect x="450" y="260" width="30" height="30" fill="hsl(240 100% 50%)" />
  <rect x="485" y="260" width="30" height="30" fill="hsl(240 100% 71.00896425162821%)" />
  <rect x="555" y="260" width="30" height="30" fill="hsl(240 100% 96.97695627940477%)" />
  <rect x="590" y="260" width="30" height="30" fill="hsl(240 100% 94.02057836508781%)" />
  <rect x="65" y="295" width="30" height="30" fill="hsl(240 100% 85.89295434514545%)" />
  <rect x="100" y="295" width="30" height="30" fill="hsl(240 100% 97.60734079975907%)" />
  <rect x="135" y="295" width="30" height="30" fill="hsl(240 100% 95.13075179812402%)" />
  <rect x="170" y="295" width="30" height="30" fill="hsl(240 100% 90.70055269333204%)" />
  <rect x="205" y="295" width="30" height="30" fill="hsl(240 100% 99.47327935053592%)" />
  <rect x="240" y="295" width="30" height="30" fill="hsl(240 100% 50.76248538359977%)" />
  <rect x="275" y="295" width="30" height="30" fill="hsl(240 100% 50%)" />
  <rect x="310" y="295" width="30" height="30" fill="hsl(240 100% 99.50117998615%)" />
  <rect x="345" y="295" width="30" height="30" fill="hsl(240 100% 94.71192242808209%)" />
  <rect x="380" y="295" width="30" height="30" fill="hsl(240 100% 55.40390680975391%)" />
  <rect x="415" y="295" width="30" height="30" fill="hsl(240 100% 99.33168095810754%)" />
  <rect x="450" y="295" width="30" height="30" fill="hsl(240 100% 88.45598029789343%)" />
  <rect x="485" y="295" width="30" height="30" fill="hsl(240 100% 57.994162747325944%)" />
  <rect x="590" y="295" width="30" height="30" fill="hsl(240 100% 97.61653144289335%)" />
  <rect x="695" y="295" width="30" height="30" fill="hsl(240 100% 99.5729577291429%)" />
  <rect x="730" y="295" width="30" height="30" fill="hsl(240 100% 99.95353357433335%)" />
  <rect x="65" y="330" width="30" height="30" fill="hsl(240 100% 88.98238756163059%)" />
  <rect x="100" y="330" width="30" height="30" fill="hsl(240 100% 94.76367430389826%)" />
  <rect x="135" y="330" width="30" height="30" fill="hsl(240 100% 97.23452159497424%)" />
  <rect x="170" y="330" width="30" height="30" fill="hsl(240 100% 88.49932331815157%)" />
  <rect x="205" y="330" width="30" height="30" fill="hsl(240 100% 99.21008599854294%)" />
  <rect x="240" y="330" width="30" height="30" fill="hsl(240 100% 79.84016190689319%)" />
  <rect x="275" y="330" width="30" height="30" fill="hsl(240 100% 88.15382181271035%)" />
  <rect x="310" y="330" width="30" height="30" fill="rgb(255 255 255 / 50%)" />
  <rect x="345" y="330" width="30" height="30" fill="hsl(240 100% 97.25507650097364%)" />
  <rect x="380" y="330" width="30" height="30" fill="hsl(240 100% 86.02012866027385%)" />
  <rect x="415" y="330" width="30" height="30" fill="hsl(240 100% 99.80730365995802%)" />
  <rect x="450" y="330" width="30" height="30" fill="hsl(240 100% 71.45916685275245%)" />
  <rect x="485" y="330" width="30" height="30" fill="hsl(240 100% 76.87598770976697%)" />
  <rect x="520" y="330" width="30" height="30" fill="hsl(240 100% 94.01675107389806%)" />
  <rect x="555" y="330" width="30" height="30" fill="hsl(240 100% 50%)" />
  <rect x="660" y="330" width="30" height="30" fill="hsl(240 100% 94.90341141511004%)" />
  <rect x="695" y="330" width="30" height="30" fill="hsl(240 100% 99.23255465474922%)" />
  <rect x="730" y="330" width="30" height="30" fill="hsl(240 100% 81.31373124070748%)" />
  <rect x="65" y="365" width="30" height="30" fill="hsl(240 100% 57.232020222807364%)" />
  <rect x="100" y="365" width="30" height="30" fill="hsl(240 100% 72.31967069440121%)" />
  <rect x="135" y="365" width="30" height="30" fill="hsl(240 100% 81.94946821241962%)" />
  <rect x="170" y="365" width="30" height="30" fill="hsl(240 100% 50%)" />
  <rect x="205" y="365" width="30" height="30" fill="hsl(240 100% 96.12159315455948%)" />
  <rect x="240" y="365" width="30" height="30" fill="hsl(240 100% 59.48784367932859%)" />
  <rect x="275" y="365" width="30" height="30" fill="hsl(240 100% 92.22392311742244%)" />
  <rect x="310" y="365" width="30" height="30" fill="hsl(240 100% 99.86170330480843%)" />
  <rect x="380" y="365" width="30" height="30" fill="hsl(240 100% 66.89559672081836%)" />
  <rect x="485" y="365" width="30" height="30" fill="hsl(240 100% 85.84127187171501%)" />
  <rect x="555" y="365" width="30" height="30" fill="hsl(240 100% 99.63394962384241%)" />
  <rect x="625" y="365" width="30" height="30" fill="hsl(240 100% 63.146213549595295%)" />
  <rect x="660" y="365" width="30" height="30" fill="hsl(240 100% 98.17192819833696%)" />
  <rect x="730" y="365" width="30" height="30" fill="hsl(240 100% 98.70962528627145%)" />
  <rect x="65" y="400" width="30" height="30" fill="hsl(240 100% 98.17821436172206%)" />
  <rect x="100" y="400" width="30" height="30" fill="hsl(240 100% 99.40106380420312%)" />
  <rect x="135" y="400" width="30" height="30" fill="hsl(240 100% 99.67699322396639%)" />
  <rect x="170" y="400" width="30" height="30" fill="hsl(240 100% 95.44635866489355%)" />
  <rect x="205" y="400" width="30" height="30" fill="hsl(240 100% 99.23718202598069%)" />
  <rect x="240" y="400" width="30" height="30" fill="hsl(240 100% 85.97103959592785%)" />
  <rect x="275" y="400" width="30" height="30" fill="hsl(240 100% 95.24294712568043%)" />
  <rect x="310" y="400" width="30" height="30" fill="rgb(255 255 255 / 50%)" />
  <rect x="380" y="400" width="30" height="30" fill="hsl(240 100% 93.96949004929213%)" />
  <rect x="415" y="400" width="30" height="30" fill="hsl(240 100% 99.97434734962924%)" />
  <rect x="450" y="400" width="30" height="30" fill="hsl(240 100% 78.1469457973568%)" />
  <rect x="485" y="400" width="30" height="30" fill="hsl(240 100% 50%)" />
  <rect x="730" y="400" width="30" height="30" fill="hsl(240 100% 99.19507441663553%)" />
  <rect x="65" y="435" width="30" height="30" fill="hsl(240 100% 92.85835208470728%)" />
  <rect x="240" y="435" width="30" height="30" fill="hsl(240 100% 50%)" />
  <rect x="310" y="435" width="30" height="30" fill="hsl(240 100% 94.32463506689255%)" />
  <rect x="380" y="435" width="30" height="30" fill="hsl(240 100% 87.03874837099269%)" />
  <rect x="415" y="435" width="30" height="30" fill="hsl(240 100% 99.79471873665622%)" />
  <rect x="65" y="470" width="30" height="30" fill="hsl(240 100% 50%)" />
  <rect x="240" y="470" width="30" height="30" fill="hsl(240 100% 50.184733243800295%)" />
  <rect x="310" y="470" width="30" height="30" fill="hsl(240 100% 97.13616959649664%)" />
  <rect x="380" y="470" width="30" height="30" fill="hsl(240 100% 89.3522029609294%)" />
  <rect x="415" y="470" width="30" height="30" fill="hsl(240 100% 99.57965770279307%)" />
</svg>
