<svg xmlns="http://www.w3.org/2000/svg" viewBox="0 0 870 505">
  <rect x="0" y="0" width="870" height="505" rx="5" ry="5" fill="#222" />
  <text x="60" y="100" fill="white" font-family="sans-serif" font-weight="bold" font-size="12" text-anchor="end" dominant-baseline="middle">ba</text>
  <text x="60" y="135" fill="white" font-family="sans-serif" font-weight="bold" font-size="12" text-anchor="end" dominant-baseline="middle">det</text>
  <text x="60" y="170" fill="white" font-family="sans-serif" font-weight="bold" font-size="12" text-anchor="end" dominant-baseline="middle">gmm</text>
  <text x="60" y="205" fill="white" font-family="sans-serif" font-weight="bold" font-size="12" text-anchor="end" dominant-baseline="middle">hello</text>
  <text x="60" y="240" fill="white" font-family="sans-serif" font-weight="bold" font-size="12" text-anchor="end" dominant-baseline="middle">ht</text>
  <text x="60" y="275" fill="white" font-family="sans-serif" font-weight="bold" font-size="12" text-anchor="end" dominant-baseline="middle">kmeans</text>
  <text x="60" y="310" fill="white" font-family="sans-serif" font-weight="bold" font-size="12" text-anchor="end" dominant-baseline="middle">llsq</text>
  <text x="60" y="345" fill="white" font-family="sans-serif" font-weight="bold" font-size="12" text-anchor="end" dominant-baseline="middle">lse</text>
  <text x="60" y="380" fill="white" font-family="sans-serif" font-weight="bold" font-size="12" text-anchor="end" dominant-baseline="middle">lstm</text>
  <text x="60" y="415" fill="white" font-family="sans-serif" font-weight="bold" font-size="12" text-anchor="end" dominant-baseline="middle">ode</text>
  <text x="60" y="450" fill="white" font-family="sans-serif" font-weight="bold" font-size="12" text-anchor="end" dominant-baseline="middle">particle</text>
  <text x="60" y="485" fill="white" font-family="sans-serif" font-weight="bold" font-size="12" text-anchor="end" dominant-baseline="middle">saddle</text>
  <text x="80" y="80" fill="white" font-family="sans-serif" font-weight="bold" font-size="12" text-anchor="end" dominant-baseline="middle" transform="rotate(90 80 80)">ad-hpp</text>
  <text x="115" y="80" fill="white" font-family="sans-serif" font-weight="bold" font-size="12" text-anchor="end" dominant-baseline="middle" transform="rotate(90 115 80)">adept</text>
  <text x="150" y="80" fill="white" font-family="sans-serif" font-weight="bold" font-size="12" text-anchor="end" dominant-baseline="middle" transform="rotate(90 150 80)">adol-c</text>
  <text x="185" y="80" fill="white" font-family="sans-serif" font-weight="bold" font-size="12" text-anchor="end" dominant-baseline="middle" transform="rotate(90 185 80)">codipack</text>
  <text x="220" y="80" fill="white" font-family="sans-serif" font-weight="bold" font-size="12" text-anchor="end" dominant-baseline="middle" transform="rotate(90 220 80)">cppad</text>
  <text x="255" y="80" fill="white" font-family="sans-serif" font-weight="bold" font-size="12" text-anchor="end" dominant-baseline="middle" transform="rotate(90 255 80)">enzyme</text>
  <text x="290" y="80" fill="white" font-family="sans-serif" font-weight="bold" font-size="12" text-anchor="end" dominant-baseline="middle" transform="rotate(90 290 80)">enzyme-jl</text>
  <text x="325" y="80" fill="white" font-family="sans-serif" font-weight="bold" font-size="12" text-anchor="end" dominant-baseline="middle" transform="rotate(90 325 80)">finite</text>
  <text x="360" y="80" fill="white" font-family="sans-serif" font-weight="bold" font-size="12" text-anchor="end" dominant-baseline="middle" transform="rotate(90 360 80)">floretta</text>
  <text x="395" y="80" fill="white" font-family="sans-serif" font-weight="bold" font-size="12" text-anchor="end" dominant-baseline="middle" transform="rotate(90 395 80)">forwarddiff-jl</text>
  <text x="430" y="80" fill="white" font-family="sans-serif" font-weight="bold" font-size="12" text-anchor="end" dominant-baseline="middle" transform="rotate(90 430 80)">futhark</text>
  <text x="465" y="80" fill="white" font-family="sans-serif" font-weight="bold" font-size="12" text-anchor="end" dominant-baseline="middle" transform="rotate(90 465 80)">haskell</text>
  <text x="500" y="80" fill="white" font-family="sans-serif" font-weight="bold" font-size="12" text-anchor="end" dominant-baseline="middle" transform="rotate(90 500 80)">jax</text>
  <text x="535" y="80" fill="white" font-family="sans-serif" font-weight="bold" font-size="12" text-anchor="end" dominant-baseline="middle" transform="rotate(90 535 80)">manual</text>
  <text x="570" y="80" fill="white" font-family="sans-serif" font-weight="bold" font-size="12" text-anchor="end" dominant-baseline="middle" transform="rotate(90 570 80)">mooncake-jl</text>
  <text x="605" y="80" fill="white" font-family="sans-serif" font-weight="bold" font-size="12" text-anchor="end" dominant-baseline="middle" transform="rotate(90 605 80)">ocaml</text>
  <text x="640" y="80" fill="white" font-family="sans-serif" font-weight="bold" font-size="12" text-anchor="end" dominant-baseline="middle" transform="rotate(90 640 80)">pytorch</text>
  <text x="675" y="80" fill="white" font-family="sans-serif" font-weight="bold" font-size="12" text-anchor="end" dominant-baseline="middle" transform="rotate(90 675 80)">reversediff-jl</text>
  <text x="710" y="80" fill="white" font-family="sans-serif" font-weight="bold" font-size="12" text-anchor="end" dominant-baseline="middle" transform="rotate(90 710 80)">scilean</text>
  <text x="745" y="80" fill="white" font-family="sans-serif" font-weight="bold" font-size="12" text-anchor="end" dominant-baseline="middle" transform="rotate(90 745 80)">tapenade</text>
  <text x="780" y="80" fill="white" font-family="sans-serif" font-weight="bold" font-size="12" text-anchor="end" dominant-baseline="middle" transform="rotate(90 780 80)">tensorflow</text>
  <text x="815" y="80" fill="white" font-family="sans-serif" font-weight="bold" font-size="12" text-anchor="end" dominant-baseline="middle" transform="rotate(90 815 80)">tensorflow-js</text>
  <text x="850" y="80" fill="white" font-family="sans-serif" font-weight="bold" font-size="12" text-anchor="end" dominant-baseline="middle" transform="rotate(90 850 80)">zygote</text>
  <rect x="65" y="85" width="30" height="30" fill="hsl(240 100% 81.11592280559387%)" />
  <rect x="100" y="85" width="30" height="30" fill="hsl(240 100% 82.88777416027486%)" />
  <rect x="135" y="85" width="30" height="30" fill="hsl(240 100% 97.99194561655374%)" />
  <rect x="170" y="85" width="30" height="30" fill="hsl(240 100% 82.4431874293486%)" />
  <rect x="205" y="85" width="30" height="30" fill="hsl(240 100% 99.0179426669015%)" />
  <rect x="240" y="85" width="30" height="30" fill="hsl(240 100% 51.80141848121698%)" />
  <rect x="310" y="85" width="30" height="30" fill="hsl(240 100% 93.26966716610882%)" />
  <rect x="415" y="85" width="30" height="30" fill="hsl(240 100% 68.25837084477753%)" />
  <rect x="520" y="85" width="30" height="30" fill="hsl(240 100% 50%)" />
  <rect x="625" y="85" width="30" height="30" fill="rgb(255 255 255 / 50%)" />
  <rect x="730" y="85" width="30" height="30" fill="hsl(240 100% 75.08243636541027%)" />
  <rect x="765" y="85" width="30" height="30" fill="rgb(255 255 255 / 50%)" />
  <rect x="835" y="85" width="30" height="30" fill="hsl(240 100% 99.7366860875114%)" />
  <rect x="65" y="120" width="30" height="30" fill="hsl(240 100% 50%)" />
  <rect x="100" y="120" width="30" height="30" fill="hsl(240 100% 83.07548826755185%)" />
  <rect x="135" y="120" width="30" height="30" fill="hsl(240 100% 85.90169996741045%)" />
  <rect x="170" y="120" width="30" height="30" fill="hsl(240 100% 53.37312042529604%)" />
  <rect x="205" y="120" width="30" height="30" fill="hsl(240 100% 92.67964655199879%)" />
  <rect x="240" y="120" width="30" height="30" fill="hsl(240 100% 91.5729639385516%)" />
  <rect x="275" y="120" width="30" height="30" fill="hsl(240 100% 99.35905819631567%)" />
  <rect x="310" y="120" width="30" height="30" fill="hsl(240 100% 98.9987932117261%)" />
  <rect x="380" y="120" width="30" height="30" fill="hsl(240 100% 93.48606732803898%)" />
  <rect x="415" y="120" width="30" height="30" fill="hsl(240 100% 94.65250416709527%)" />
  <rect x="450" y="120" width="30" height="30" fill="hsl(240 100% 97.98782705598303%)" />
  <rect x="520" y="120" width="30" height="30" fill="hsl(240 100% 79.99907688846594%)" />
  <rect x="555" y="120" width="30" height="30" fill="hsl(240 100% 90.32017862065854%)" />
  <rect x="660" y="120" width="30" height="30" fill="rgb(255 255 255 / 50%)" />
  <rect x="835" y="120" width="30" height="30" fill="rgb(255 255 255 / 50%)" />
  <rect x="65" y="155" width="30" height="30" fill="hsl(240 100% 98.38653170609416%)" />
  <rect x="100" y="155" width="30" height="30" fill="hsl(240 100% 98.79815299413126%)" />
  <rect x="135" y="155" width="30" height="30" fill="hsl(240 100% 99.11009770004831%)" />
  <rect x="170" y="155" width="30" height="30" fill="hsl(240 100% 98.18396057420941%)" />
  <rect x="205" y="155" width="30" height="30" fill="hsl(240 100% 99.82886161866602%)" />
  <rect x="240" y="155" width="30" height="30" fill="hsl(240 100% 91.19328734812225%)" />
  <rect x="275" y="155" width="30" height="30" fill="hsl(240 100% 92.81593130196993%)" />
  <rect x="310" y="155" width="30" height="30" fill="rgb(255 255 255 / 50%)" />
  <rect x="415" y="155" width="30" height="30" fill="hsl(240 100% 92.94774665094084%)" />
  <rect x="485" y="155" width="30" height="30" fill="hsl(240 100% 50%)" />
  <rect x="520" y="155" width="30" height="30" fill="hsl(240 100% 83.78600860832353%)" />
  <rect x="590" y="155" width="30" height="30" fill="hsl(240 100% 99.58558042140126%)" />
  <rect x="625" y="155" width="30" height="30" fill="hsl(240 100% 68.02739495406028%)" />
  <rect x="695" y="155" width="30" height="30" fill="hsl(240 100% 95.47821143029223%)" />
  <rect x="730" y="155" width="30" height="30" fill="hsl(240 100% 83.80388796658568%)" />
  <rect x="765" y="155" width="30" height="30" fill="hsl(240 100% 99.57546950962814%)" />
  <rect x="835" y="155" width="30" height="30" fill="hsl(240 100% 96.34574258665423%)" />
  <rect x="65" y="190" width="30" height="30" fill="hsl(240 100% 50%)" />
  <rect x="100" y="190" width="30" height="30" fill="hsl(240 100% 50%)" />
  <rect x="135" y="190" width="30" height="30" fill="hsl(240 100% 50%)" />
  <rect x="170" y="190" width="30" height="30" fill="hsl(240 100% 50%)" />
  <rect x="205" y="190" width="30" height="30" fill="hsl(240 100% 50%)" />
  <rect x="240" y="190" width="30" height="30" fill="hsl(240 100% 50%)" />
  <rect x="275" y="190" width="30" height="30" fill="hsl(240 100% 50%)" />
  <rect x="310" y="190" width="30" height="30" fill="hsl(240 100% 50%)" />
  <rect x="345" y="190" width="30" height="30" fill="hsl(240 100% 50%)" />
  <rect x="380" y="190" width="30" height="30" fill="hsl(240 100% 50%)" />
  <rect x="415" y="190" width="30" height="30" fill="hsl(240 100% 50%)" />
  <rect x="450" y="190" width="30" height="30" fill="hsl(240 100% 50%)" />
  <rect x="485" y="190" width="30" height="30" fill="hsl(240 100% 50%)" />
  <rect x="520" y="190" width="30" height="30" fill="hsl(240 100% 50%)" />
  <rect x="555" y="190" width="30" height="30" fill="hsl(240 100% 50%)" />
  <rect x="590" y="190" width="30" height="30" fill="hsl(240 100% 50%)" />
  <rect x="625" y="190" width="30" height="30" fill="hsl(240 100% 50%)" />
  <rect x="660" y="190" width="30" height="30" fill="hsl(240 100% 50%)" />
  <rect x="695" y="190" width="30" height="30" fill="hsl(240 100% 50%)" />
  <rect x="730" y="190" width="30" height="30" fill="hsl(240 100% 50%)" />
  <rect x="765" y="190" width="30" height="30" fill="hsl(240 100% 50%)" />
  <rect x="800" y="190" width="30" height="30" fill="hsl(240 100% 50%)" />
  <rect x="835" y="190" width="30" height="30" fill="hsl(240 100% 50%)" />
  <rect x="100" y="225" width="30" height="30" fill="hsl(240 100% 96.63131443987429%)" />
  <rect x="135" y="225" width="30" height="30" fill="hsl(240 100% 89.63381922347689%)" />
  <rect x="170" y="225" width="30" height="30" fill="hsl(240 100% 89.18944047494786%)" />
  <rect x="240" y="225" width="30" height="30" fill="hsl(240 100% 91.20689074651712%)" />
  <rect x="310" y="225" width="30" height="30" fill="rgb(255 255 255 / 50%)" />
  <rect x="415" y="225" width="30" height="30" fill="hsl(240 100% 90.4898342491299%)" />
  <rect x="520" y="225" width="30" height="30" fill="hsl(240 100% 50%)" />
  <rect x="625" y="225" width="30" height="30" fill="rgb(255 255 255 / 50%)" />
  <rect x="730" y="225" width="30" height="30" fill="hsl(240 100% 93.172418864258%)" />
  <rect x="765" y="225" width="30" height="30" fill="rgb(255 255 255 / 50%)" />
  <rect x="835" y="225" width="30" height="30" fill="hsl(240 100% 94.79833814764656%)" />
  <rect x="65" y="260" width="30" height="30" fill="hsl(240 100% 99.8558267281831%)" />
  <rect x="135" y="260" width="30" height="30" fill="hsl(240 100% 99.84791072487431%)" />
  <rect x="170" y="260" width="30" height="30" fill="hsl(240 100% 98.85052701997229%)" />
  <rect x="205" y="260" width="30" height="30" fill="rgb(255 255 255 / 50%)" />
  <rect x="240" y="260" width="30" height="30" fill="hsl(240 100% 87.10597660002138%)" />
  <rect x="310" y="260" width="30" height="30" fill="rgb(255 255 255 / 50%)" />
  <rect x="415" y="260" width="30" height="30" fill="hsl(240 100% 80.65779479405221%)" />
  <rect x="450" y="260" width="30" height="30" fill="rgb(255 255 255 / 50%)" />
  <rect x="485" y="260" width="30" height="30" fill="hsl(240 100% 50%)" />
  <rect x="520" y="260" width="30" height="30" fill="hsl(240 100% 71.13333070326011%)" />
  <rect x="625" y="260" width="30" height="30" fill="hsl(240 100% 96.98211686478014%)" />
  <rect x="695" y="260" width="30" height="30" fill="hsl(240 100% 94.11346971444193%)" />
  <rect x="65" y="295" width="30" height="30" fill="hsl(240 100% 85.83393735888839%)" />
  <rect x="100" y="295" width="30" height="30" fill="hsl(240 100% 97.56509805134655%)" />
  <rect x="135" y="295" width="30" height="30" fill="hsl(240 100% 95.07303299356458%)" />
  <rect x="170" y="295" width="30" height="30" fill="hsl(240 100% 90.72912129293213%)" />
  <rect x="205" y="295" width="30" height="30" fill="hsl(240 100% 99.46822571014066%)" />
  <rect x="240" y="295" width="30" height="30" fill="hsl(240 100% 50.59935302195891%)" />
  <rect x="275" y="295" width="30" height="30" fill="hsl(240 100% 50%)" />
  <rect x="310" y="295" width="30" height="30" fill="hsl(240 100% 99.4993091125896%)" />
  <rect x="345" y="295" width="30" height="30" fill="hsl(240 100% 94.69629722452584%)" />
  <rect x="415" y="295" width="30" height="30" fill="hsl(240 100% 55.247071376870736%)" />
  <rect x="450" y="295" width="30" height="30" fill="hsl(240 100% 99.33137493601483%)" />
  <rect x="485" y="295" width="30" height="30" fill="hsl(240 100% 88.58209782635664%)" />
  <rect x="520" y="295" width="30" height="30" fill="hsl(240 100% 57.851407020416914%)" />
  <rect x="695" y="295" width="30" height="30" fill="hsl(240 100% 97.619924112972%)" />
  <rect x="800" y="295" width="30" height="30" fill="hsl(240 100% 99.57210104240315%)" />
  <rect x="835" y="295" width="30" height="30" fill="hsl(240 100% 99.95446599430859%)" />
  <rect x="65" y="330" width="30" height="30" fill="hsl(240 100% 89.05725338992256%)" />
  <rect x="100" y="330" width="30" height="30" fill="hsl(240 100% 94.63421093550517%)" />
  <rect x="135" y="330" width="30" height="30" fill="hsl(240 100% 97.17141384324988%)" />
  <rect x="170" y="330" width="30" height="30" fill="hsl(240 100% 88.58858399273437%)" />
  <rect x="205" y="330" width="30" height="30" fill="hsl(240 100% 99.20894468372296%)" />
  <rect x="240" y="330" width="30" height="30" fill="hsl(240 100% 80.02696139552032%)" />
  <rect x="275" y="330" width="30" height="30" fill="hsl(240 100% 87.48787272433506%)" />
  <rect x="310" y="330" width="30" height="30" fill="rgb(255 255 255 / 50%)" />
  <rect x="345" y="330" width="30" height="30" fill="hsl(240 100% 97.26970635073408%)" />
  <rect x="415" y="330" width="30" height="30" fill="hsl(240 100% 86.11777638880562%)" />
  <rect x="450" y="330" width="30" height="30" fill="hsl(240 100% 99.81138493351153%)" />
  <rect x="485" y="330" width="30" height="30" fill="hsl(240 100% 71.7400145804005%)" />
  <rect x="520" y="330" width="30" height="30" fill="hsl(240 100% 76.5103627366261%)" />
  <rect x="590" y="330" width="30" height="30" fill="hsl(240 100% 93.88289215551714%)" />
  <rect x="625" y="330" width="30" height="30" fill="hsl(240 100% 50%)" />
  <rect x="765" y="330" width="30" height="30" fill="hsl(240 100% 94.38510560321797%)" />
  <rect x="800" y="330" width="30" height="30" fill="hsl(240 100% 99.21576736327374%)" />
  <rect x="835" y="330" width="30" height="30" fill="hsl(240 100% 80.88954639261232%)" />
  <rect x="65" y="365" width="30" height="30" fill="hsl(240 100% 57.03505448573877%)" />
  <rect x="100" y="365" width="30" height="30" fill="hsl(240 100% 71.85240780650406%)" />
  <rect x="135" y="365" width="30" height="30" fill="hsl(240 100% 81.96980410198518%)" />
  <rect x="170" y="365" width="30" height="30" fill="hsl(240 100% 50%)" />
  <rect x="205" y="365" width="30" height="30" fill="hsl(240 100% 95.71674461563596%)" />
  <rect x="240" y="365" width="30" height="30" fill="hsl(240 100% 58.94698751417922%)" />
  <rect x="275" y="365" width="30" height="30" fill="hsl(240 100% 92.32584955131077%)" />
  <rect x="310" y="365" width="30" height="30" fill="hsl(240 100% 99.8605630348399%)" />
  <rect x="415" y="365" width="30" height="30" fill="hsl(240 100% 66.38093458164005%)" />
  <rect x="520" y="365" width="30" height="30" fill="hsl(240 100% 85.85521658807683%)" />
  <rect x="625" y="365" width="30" height="30" fill="hsl(240 100% 99.63309342756438%)" />
  <rect x="730" y="365" width="30" height="30" fill="hsl(240 100% 63.86265069785112%)" />
  <rect x="765" y="365" width="30" height="30" fill="hsl(240 100% 98.1683743061986%)" />
  <rect x="835" y="365" width="30" height="30" fill="hsl(240 100% 98.71023534525432%)" />
  <rect x="65" y="400" width="30" height="30" fill="hsl(240 100% 98.49146618543507%)" />
  <rect x="100" y="400" width="30" height="30" fill="hsl(240 100% 99.4095668583895%)" />
  <rect x="135" y="400" width="30" height="30" fill="hsl(240 100% 99.67496098992753%)" />
  <rect x="170" y="400" width="30" height="30" fill="hsl(240 100% 95.38091098686363%)" />
  <rect x="205" y="400" width="30" height="30" fill="hsl(240 100% 99.2376828498893%)" />
  <rect x="240" y="400" width="30" height="30" fill="hsl(240 100% 85.90307169420275%)" />
  <rect x="275" y="400" width="30" height="30" fill="hsl(240 100% 95.30094487391479%)" />
  <rect x="310" y="400" width="30" height="30" fill="rgb(255 255 255 / 50%)" />
  <rect x="380" y="400" width="30" height="30" fill="rgb(255 255 255 / 50%)" />
  <rect x="415" y="400" width="30" height="30" fill="hsl(240 100% 94.02975406465882%)" />
  <rect x="450" y="400" width="30" height="30" fill="hsl(240 100% 99.97432977911555%)" />
  <rect x="485" y="400" width="30" height="30" fill="hsl(240 100% 79.04526940722572%)" />
  <rect x="520" y="400" width="30" height="30" fill="hsl(240 100% 50%)" />
  <rect x="555" y="400" width="30" height="30" fill="hsl(240 100% 99.13639348382445%)" />
  <rect x="660" y="400" width="30" height="30" fill="rgb(255 255 255 / 50%)" />
  <rect x="835" y="400" width="30" height="30" fill="hsl(240 100% 99.23226081134746%)" />
  <rect x="65" y="435" width="30" height="30" fill="hsl(240 100% 92.84038926391433%)" />
  <rect x="240" y="435" width="30" height="30" fill="hsl(240 100% 50%)" />
  <rect x="310" y="435" width="30" height="30" fill="hsl(240 100% 94.32381381254167%)" />
  <rect x="415" y="435" width="30" height="30" fill="hsl(240 100% 87.01907343062435%)" />
  <rect x="450" y="435" width="30" height="30" fill="hsl(240 100% 99.79730731288876%)" />
  <rect x="65" y="470" width="30" height="30" fill="hsl(240 100% 50%)" />
  <rect x="240" y="470" width="30" height="30" fill="hsl(240 100% 50.177651815165774%)" />
  <rect x="310" y="470" width="30" height="30" fill="hsl(240 100% 97.1545704558773%)" />
  <rect x="415" y="470" width="30" height="30" fill="hsl(240 100% 89.15267435460106%)" />
  <rect x="450" y="470" width="30" height="30" fill="hsl(240 100% 99.5776216211132%)" />
</svg>
