<svg xmlns="http://www.w3.org/2000/svg" viewBox="0 0 870 505">
  <rect x="0" y="0" width="870" height="505" rx="5" ry="5" fill="#222" />
  <text x="60" y="100" fill="white" font-family="sans-serif" font-weight="bold" font-size="12" text-anchor="end" dominant-baseline="middle">ba</text>
  <text x="60" y="135" fill="white" font-family="sans-serif" font-weight="bold" font-size="12" text-anchor="end" dominant-baseline="middle">det</text>
  <text x="60" y="170" fill="white" font-family="sans-serif" font-weight="bold" font-size="12" text-anchor="end" dominant-baseline="middle">gmm</text>
  <text x="60" y="205" fill="white" font-family="sans-serif" font-weight="bold" font-size="12" text-anchor="end" dominant-baseline="middle">hello</text>
  <text x="60" y="240" fill="white" font-family="sans-serif" font-weight="bold" font-size="12" text-anchor="end" dominant-baseline="middle">ht</text>
  <text x="60" y="275" fill="white" font-family="sans-serif" font-weight="bold" font-size="12" text-anchor="end" dominant-baseline="middle">kmeans</text>
  <text x="60" y="310" fill="white" font-family="sans-serif" font-weight="bold" font-size="12" text-anchor="end" dominant-baseline="middle">llsq</text>
  <text x="60" y="345" fill="white" font-family="sans-serif" font-weight="bold" font-size="12" text-anchor="end" dominant-baseline="middle">lse</text>
  <text x="60" y="380" fill="white" font-family="sans-serif" font-weight="bold" font-size="12" text-anchor="end" dominant-baseline="middle">lstm</text>
  <text x="60" y="415" fill="white" font-family="sans-serif" font-weight="bold" font-size="12" text-anchor="end" dominant-baseline="middle">ode</text>
  <text x="60" y="450" fill="white" font-family="sans-serif" font-weight="bold" font-size="12" text-anchor="end" dominant-baseline="middle">particle</text>
  <text x="60" y="485" fill="white" font-family="sans-serif" font-weight="bold" font-size="12" text-anchor="end" dominant-baseline="middle">saddle</text>
  <text x="80" y="80" fill="white" font-family="sans-serif" font-weight="bold" font-size="12" text-anchor="end" dominant-baseline="middle" transform="rotate(90 80 80)">ad-hpp</text>
  <text x="115" y="80" fill="white" font-family="sans-serif" font-weight="bold" font-size="12" text-anchor="end" dominant-baseline="middle" transform="rotate(90 115 80)">adept</text>
  <text x="150" y="80" fill="white" font-family="sans-serif" font-weight="bold" font-size="12" text-anchor="end" dominant-baseline="middle" transform="rotate(90 150 80)">adol-c</text>
  <text x="185" y="80" fill="white" font-family="sans-serif" font-weight="bold" font-size="12" text-anchor="end" dominant-baseline="middle" transform="rotate(90 185 80)">codipack</text>
  <text x="220" y="80" fill="white" font-family="sans-serif" font-weight="bold" font-size="12" text-anchor="end" dominant-baseline="middle" transform="rotate(90 220 80)">cppad</text>
  <text x="255" y="80" fill="white" font-family="sans-serif" font-weight="bold" font-size="12" text-anchor="end" dominant-baseline="middle" transform="rotate(90 255 80)">enzyme</text>
  <text x="290" y="80" fill="white" font-family="sans-serif" font-weight="bold" font-size="12" text-anchor="end" dominant-baseline="middle" transform="rotate(90 290 80)">enzyme-jl</text>
  <text x="325" y="80" fill="white" font-family="sans-serif" font-weight="bold" font-size="12" text-anchor="end" dominant-baseline="middle" transform="rotate(90 325 80)">finite</text>
  <text x="360" y="80" fill="white" font-family="sans-serif" font-weight="bold" font-size="12" text-anchor="end" dominant-baseline="middle" transform="rotate(90 360 80)">floretta</text>
  <text x="395" y="80" fill="white" font-family="sans-serif" font-weight="bold" font-size="12" text-anchor="end" dominant-baseline="middle" transform="rotate(90 395 80)">forwarddiff-jl</text>
  <text x="430" y="80" fill="white" font-family="sans-serif" font-weight="bold" font-size="12" text-anchor="end" dominant-baseline="middle" transform="rotate(90 430 80)">futhark</text>
  <text x="465" y="80" fill="white" font-family="sans-serif" font-weight="bold" font-size="12" text-anchor="end" dominant-baseline="middle" transform="rotate(90 465 80)">haskell</text>
  <text x="500" y="80" fill="white" font-family="sans-serif" font-weight="bold" font-size="12" text-anchor="end" dominant-baseline="middle" transform="rotate(90 500 80)">jax</text>
  <text x="535" y="80" fill="white" font-family="sans-serif" font-weight="bold" font-size="12" text-anchor="end" dominant-baseline="middle" transform="rotate(90 535 80)">manual</text>
  <text x="570" y="80" fill="white" font-family="sans-serif" font-weight="bold" font-size="12" text-anchor="end" dominant-baseline="middle" transform="rotate(90 570 80)">mooncake-jl</text>
  <text x="605" y="80" fill="white" font-family="sans-serif" font-weight="bold" font-size="12" text-anchor="end" dominant-baseline="middle" transform="rotate(90 605 80)">ocaml</text>
  <text x="640" y="80" fill="white" font-family="sans-serif" font-weight="bold" font-size="12" text-anchor="end" dominant-baseline="middle" transform="rotate(90 640 80)">pytorch</text>
  <text x="675" y="80" fill="white" font-family="sans-serif" font-weight="bold" font-size="12" text-anchor="end" dominant-baseline="middle" transform="rotate(90 675 80)">reversediff-jl</text>
  <text x="710" y="80" fill="white" font-family="sans-serif" font-weight="bold" font-size="12" text-anchor="end" dominant-baseline="middle" transform="rotate(90 710 80)">scilean</text>
  <text x="745" y="80" fill="white" font-family="sans-serif" font-weight="bold" font-size="12" text-anchor="end" dominant-baseline="middle" transform="rotate(90 745 80)">tapenade</text>
  <text x="780" y="80" fill="white" font-family="sans-serif" font-weight="bold" font-size="12" text-anchor="end" dominant-baseline="middle" transform="rotate(90 780 80)">tensorflow</text>
  <text x="815" y="80" fill="white" font-family="sans-serif" font-weight="bold" font-size="12" text-anchor="end" dominant-baseline="middle" transform="rotate(90 815 80)">tensorflow-js</text>
  <text x="850" y="80" fill="white" font-family="sans-serif" font-weight="bold" font-size="12" text-anchor="end" dominant-baseline="middle" transform="rotate(90 850 80)">zygote</text>
  <rect x="65" y="85" width="30" height="30" fill="hsl(240 100% 80.9228159977234%)" />
  <rect x="100" y="85" width="30" height="30" fill="hsl(240 100% 82.95577096489907%)" />
  <rect x="135" y="85" width="30" height="30" fill="hsl(240 100% 98.00576550078435%)" />
  <rect x="170" y="85" width="30" height="30" fill="hsl(240 100% 82.38489942164757%)" />
  <rect x="205" y="85" width="30" height="30" fill="hsl(240 100% 98.9969940099597%)" />
  <rect x="240" y="85" width="30" height="30" fill="hsl(240 100% 51.3257815654093%)" />
  <rect x="310" y="85" width="30" height="30" fill="hsl(240 100% 93.2820123712223%)" />
  <rect x="415" y="85" width="30" height="30" fill="hsl(240 100% 69.36925930357287%)" />
  <rect x="520" y="85" width="30" height="30" fill="hsl(240 100% 50%)" />
  <rect x="625" y="85" width="30" height="30" fill="rgb(255 255 255 / 50%)" />
  <rect x="730" y="85" width="30" height="30" fill="hsl(240 100% 74.92377314194516%)" />
  <rect x="765" y="85" width="30" height="30" fill="rgb(255 255 255 / 50%)" />
  <rect x="835" y="85" width="30" height="30" fill="hsl(240 100% 99.73058368078719%)" />
  <rect x="65" y="120" width="30" height="30" fill="hsl(240 100% 50%)" />
  <rect x="100" y="120" width="30" height="30" fill="hsl(240 100% 82.42441659757951%)" />
  <rect x="135" y="120" width="30" height="30" fill="hsl(240 100% 85.60914201000074%)" />
  <rect x="170" y="120" width="30" height="30" fill="hsl(240 100% 51.95700438113976%)" />
  <rect x="205" y="120" width="30" height="30" fill="hsl(240 100% 92.49837773369593%)" />
  <rect x="240" y="120" width="30" height="30" fill="hsl(240 100% 91.30654219839012%)" />
  <rect x="275" y="120" width="30" height="30" fill="hsl(240 100% 99.34394119425733%)" />
  <rect x="310" y="120" width="30" height="30" fill="hsl(240 100% 98.97967334463848%)" />
  <rect x="380" y="120" width="30" height="30" fill="hsl(240 100% 93.28539053344844%)" />
  <rect x="415" y="120" width="30" height="30" fill="hsl(240 100% 94.55789866559032%)" />
  <rect x="450" y="120" width="30" height="30" fill="hsl(240 100% 97.83663355422114%)" />
  <rect x="520" y="120" width="30" height="30" fill="hsl(240 100% 79.5435228285046%)" />
  <rect x="555" y="120" width="30" height="30" fill="hsl(240 100% 90.31972048989111%)" />
  <rect x="660" y="120" width="30" height="30" fill="rgb(255 255 255 / 50%)" />
  <rect x="835" y="120" width="30" height="30" fill="rgb(255 255 255 / 50%)" />
  <rect x="65" y="155" width="30" height="30" fill="hsl(240 100% 98.29504937690498%)" />
  <rect x="100" y="155" width="30" height="30" fill="hsl(240 100% 98.69226195394734%)" />
  <rect x="135" y="155" width="30" height="30" fill="hsl(240 100% 99.05015868926954%)" />
  <rect x="170" y="155" width="30" height="30" fill="hsl(240 100% 97.90778960751709%)" />
  <rect x="205" y="155" width="30" height="30" fill="hsl(240 100% 99.83730578283406%)" />
  <rect x="240" y="155" width="30" height="30" fill="hsl(240 100% 90.52596976363243%)" />
  <rect x="275" y="155" width="30" height="30" fill="hsl(240 100% 91.79561109993894%)" />
  <rect x="310" y="155" width="30" height="30" fill="rgb(255 255 255 / 50%)" />
  <rect x="415" y="155" width="30" height="30" fill="hsl(240 100% 92.38822153282035%)" />
  <rect x="485" y="155" width="30" height="30" fill="hsl(240 100% 50%)" />
  <rect x="520" y="155" width="30" height="30" fill="hsl(240 100% 81.98685933515239%)" />
  <rect x="590" y="155" width="30" height="30" fill="hsl(240 100% 99.54789495878342%)" />
  <rect x="625" y="155" width="30" height="30" fill="hsl(240 100% 64.8962079480767%)" />
  <rect x="695" y="155" width="30" height="30" fill="hsl(240 100% 95.02660325809761%)" />
  <rect x="730" y="155" width="30" height="30" fill="hsl(240 100% 82.3562188341021%)" />
  <rect x="765" y="155" width="30" height="30" fill="hsl(240 100% 99.54374717469976%)" />
  <rect x="835" y="155" width="30" height="30" fill="hsl(240 100% 96.43176589623485%)" />
  <rect x="65" y="190" width="30" height="30" fill="hsl(240 100% 50%)" />
  <rect x="100" y="190" width="30" height="30" fill="hsl(240 100% 50%)" />
  <rect x="135" y="190" width="30" height="30" fill="hsl(240 100% 50%)" />
  <rect x="170" y="190" width="30" height="30" fill="hsl(240 100% 50%)" />
  <rect x="205" y="190" width="30" height="30" fill="hsl(240 100% 50%)" />
  <rect x="240" y="190" width="30" height="30" fill="hsl(240 100% 50%)" />
  <rect x="275" y="190" width="30" height="30" fill="hsl(240 100% 50%)" />
  <rect x="310" y="190" width="30" height="30" fill="hsl(240 100% 50%)" />
  <rect x="345" y="190" width="30" height="30" fill="hsl(240 100% 50%)" />
  <rect x="380" y="190" width="30" height="30" fill="hsl(240 100% 50%)" />
  <rect x="415" y="190" width="30" height="30" fill="hsl(240 100% 50%)" />
  <rect x="450" y="190" width="30" height="30" fill="hsl(240 100% 50%)" />
  <rect x="485" y="190" width="30" height="30" fill="hsl(240 100% 50%)" />
  <rect x="520" y="190" width="30" height="30" fill="hsl(240 100% 50%)" />
  <rect x="555" y="190" width="30" height="30" fill="hsl(240 100% 50%)" />
  <rect x="590" y="190" width="30" height="30" fill="hsl(240 100% 50%)" />
  <rect x="625" y="190" width="30" height="30" fill="hsl(240 100% 50%)" />
  <rect x="660" y="190" width="30" height="30" fill="hsl(240 100% 50%)" />
  <rect x="695" y="190" width="30" height="30" fill="hsl(240 100% 50%)" />
  <rect x="730" y="190" width="30" height="30" fill="hsl(240 100% 50%)" />
  <rect x="765" y="190" width="30" height="30" fill="hsl(240 100% 50%)" />
  <rect x="800" y="190" width="30" height="30" fill="hsl(240 100% 50%)" />
  <rect x="835" y="190" width="30" height="30" fill="hsl(240 100% 50%)" />
  <rect x="100" y="225" width="30" height="30" fill="hsl(240 100% 96.67085903590743%)" />
  <rect x="135" y="225" width="30" height="30" fill="hsl(240 100% 89.38449967715445%)" />
  <rect x="170" y="225" width="30" height="30" fill="hsl(240 100% 89.1910378999209%)" />
  <rect x="240" y="225" width="30" height="30" fill="hsl(240 100% 91.27353020561884%)" />
  <rect x="310" y="225" width="30" height="30" fill="rgb(255 255 255 / 50%)" />
  <rect x="415" y="225" width="30" height="30" fill="hsl(240 100% 90.60952836828663%)" />
  <rect x="520" y="225" width="30" height="30" fill="hsl(240 100% 50%)" />
  <rect x="625" y="225" width="30" height="30" fill="rgb(255 255 255 / 50%)" />
  <rect x="730" y="225" width="30" height="30" fill="hsl(240 100% 93.1440725107401%)" />
  <rect x="765" y="225" width="30" height="30" fill="rgb(255 255 255 / 50%)" />
  <rect x="835" y="225" width="30" height="30" fill="hsl(240 100% 94.54259363318462%)" />
  <rect x="65" y="260" width="30" height="30" fill="hsl(240 100% 99.91004492124472%)" />
  <rect x="135" y="260" width="30" height="30" fill="hsl(240 100% 99.8518120382357%)" />
  <rect x="170" y="260" width="30" height="30" fill="hsl(240 100% 98.85417092964018%)" />
  <rect x="205" y="260" width="30" height="30" fill="rgb(255 255 255 / 50%)" />
  <rect x="240" y="260" width="30" height="30" fill="hsl(240 100% 87.2250673246384%)" />
  <rect x="310" y="260" width="30" height="30" fill="rgb(255 255 255 / 50%)" />
  <rect x="415" y="260" width="30" height="30" fill="hsl(240 100% 80.84464161161972%)" />
  <rect x="450" y="260" width="30" height="30" fill="rgb(255 255 255 / 50%)" />
  <rect x="485" y="260" width="30" height="30" fill="hsl(240 100% 50%)" />
  <rect x="520" y="260" width="30" height="30" fill="hsl(240 100% 71.28814650641473%)" />
  <rect x="625" y="260" width="30" height="30" fill="hsl(240 100% 97.04588165007304%)" />
  <rect x="695" y="260" width="30" height="30" fill="hsl(240 100% 94.18988405601003%)" />
  <rect x="65" y="295" width="30" height="30" fill="hsl(240 100% 85.96408596546978%)" />
  <rect x="100" y="295" width="30" height="30" fill="hsl(240 100% 97.52509928798406%)" />
  <rect x="135" y="295" width="30" height="30" fill="hsl(240 100% 95.02593866149566%)" />
  <rect x="170" y="295" width="30" height="30" fill="hsl(240 100% 90.67743765836917%)" />
  <rect x="205" y="295" width="30" height="30" fill="hsl(240 100% 99.45805750674293%)" />
  <rect x="240" y="295" width="30" height="30" fill="hsl(240 100% 50.71285962330922%)" />
  <rect x="275" y="295" width="30" height="30" fill="hsl(240 100% 50%)" />
  <rect x="310" y="295" width="30" height="30" fill="hsl(240 100% 99.5000429606495%)" />
  <rect x="345" y="295" width="30" height="30" fill="hsl(240 100% 94.7437753902976%)" />
  <rect x="415" y="295" width="30" height="30" fill="hsl(240 100% 55.35351105737385%)" />
  <rect x="450" y="295" width="30" height="30" fill="hsl(240 100% 99.32761636302672%)" />
  <rect x="485" y="295" width="30" height="30" fill="hsl(240 100% 88.11917829260844%)" />
  <rect x="520" y="295" width="30" height="30" fill="hsl(240 100% 57.89512151049598%)" />
  <rect x="695" y="295" width="30" height="30" fill="hsl(240 100% 97.60813911273888%)" />
  <rect x="800" y="295" width="30" height="30" fill="hsl(240 100% 99.58298667173938%)" />
  <rect x="835" y="295" width="30" height="30" fill="hsl(240 100% 99.9581532487577%)" />
  <rect x="65" y="330" width="30" height="30" fill="hsl(240 100% 88.44198677266179%)" />
  <rect x="100" y="330" width="30" height="30" fill="hsl(240 100% 94.62603561583887%)" />
  <rect x="135" y="330" width="30" height="30" fill="hsl(240 100% 97.10088587313163%)" />
  <rect x="170" y="330" width="30" height="30" fill="hsl(240 100% 88.24812457072755%)" />
  <rect x="205" y="330" width="30" height="30" fill="hsl(240 100% 99.17174094526115%)" />
  <rect x="240" y="330" width="30" height="30" fill="hsl(240 100% 79.133775185776%)" />
  <rect x="275" y="330" width="30" height="30" fill="hsl(240 100% 87.06568637929722%)" />
  <rect x="310" y="330" width="30" height="30" fill="rgb(255 255 255 / 50%)" />
  <rect x="345" y="330" width="30" height="30" fill="hsl(240 100% 97.20682304608015%)" />
  <rect x="415" y="330" width="30" height="30" fill="hsl(240 100% 85.53578514170084%)" />
  <rect x="450" y="330" width="30" height="30" fill="hsl(240 100% 99.80525294830788%)" />
  <rect x="485" y="330" width="30" height="30" fill="hsl(240 100% 69.85343894152045%)" />
  <rect x="520" y="330" width="30" height="30" fill="hsl(240 100% 76.18226883241255%)" />
  <rect x="590" y="330" width="30" height="30" fill="hsl(240 100% 93.66859791305275%)" />
  <rect x="625" y="330" width="30" height="30" fill="hsl(240 100% 50%)" />
  <rect x="765" y="330" width="30" height="30" fill="hsl(240 100% 94.13455302860176%)" />
  <rect x="800" y="330" width="30" height="30" fill="hsl(240 100% 99.20441914524335%)" />
  <rect x="835" y="330" width="30" height="30" fill="hsl(240 100% 80.83336630355929%)" />
  <rect x="65" y="365" width="30" height="30" fill="hsl(240 100% 57.1476518606858%)" />
  <rect x="100" y="365" width="30" height="30" fill="hsl(240 100% 71.8766661335581%)" />
  <rect x="135" y="365" width="30" height="30" fill="hsl(240 100% 82.39437248445529%)" />
  <rect x="170" y="365" width="30" height="30" fill="hsl(240 100% 50%)" />
  <rect x="205" y="365" width="30" height="30" fill="hsl(240 100% 96.20663532032681%)" />
  <rect x="240" y="365" width="30" height="30" fill="hsl(240 100% 60.627803972849506%)" />
  <rect x="275" y="365" width="30" height="30" fill="hsl(240 100% 92.34186718935811%)" />
  <rect x="310" y="365" width="30" height="30" fill="hsl(240 100% 99.86277438906293%)" />
  <rect x="415" y="365" width="30" height="30" fill="hsl(240 100% 66.82687351022184%)" />
  <rect x="520" y="365" width="30" height="30" fill="hsl(240 100% 85.92946261709388%)" />
  <rect x="625" y="365" width="30" height="30" fill="hsl(240 100% 99.62720390450538%)" />
  <rect x="730" y="365" width="30" height="30" fill="hsl(240 100% 63.59419463467214%)" />
  <rect x="765" y="365" width="30" height="30" fill="hsl(240 100% 98.14881198055551%)" />
  <rect x="835" y="365" width="30" height="30" fill="hsl(240 100% 98.78314365103638%)" />
  <rect x="65" y="400" width="30" height="30" fill="hsl(240 100% 98.17552756465906%)" />
  <rect x="100" y="400" width="30" height="30" fill="hsl(240 100% 99.41634916786283%)" />
  <rect x="135" y="400" width="30" height="30" fill="hsl(240 100% 99.6799537886918%)" />
  <rect x="170" y="400" width="30" height="30" fill="hsl(240 100% 95.44554193362201%)" />
  <rect x="205" y="400" width="30" height="30" fill="hsl(240 100% 99.24341299364197%)" />
  <rect x="240" y="400" width="30" height="30" fill="hsl(240 100% 85.96894292988355%)" />
  <rect x="275" y="400" width="30" height="30" fill="hsl(240 100% 95.27694208607555%)" />
  <rect x="310" y="400" width="30" height="30" fill="rgb(255 255 255 / 50%)" />
  <rect x="380" y="400" width="30" height="30" fill="rgb(255 255 255 / 50%)" />
  <rect x="415" y="400" width="30" height="30" fill="hsl(240 100% 94.00915451353659%)" />
  <rect x="450" y="400" width="30" height="30" fill="hsl(240 100% 99.97407736294734%)" />
  <rect x="485" y="400" width="30" height="30" fill="hsl(240 100% 78.60495890409796%)" />
  <rect x="520" y="400" width="30" height="30" fill="hsl(240 100% 50%)" />
  <rect x="555" y="400" width="30" height="30" fill="hsl(240 100% 99.11907873292385%)" />
  <rect x="660" y="400" width="30" height="30" fill="rgb(255 255 255 / 50%)" />
  <rect x="835" y="400" width="30" height="30" fill="hsl(240 100% 99.09428057155624%)" />
  <rect x="65" y="435" width="30" height="30" fill="hsl(240 100% 92.84938663167553%)" />
  <rect x="240" y="435" width="30" height="30" fill="hsl(240 100% 50%)" />
  <rect x="310" y="435" width="30" height="30" fill="hsl(240 100% 94.28335751185854%)" />
  <rect x="415" y="435" width="30" height="30" fill="hsl(240 100% 87.00926612010103%)" />
  <rect x="450" y="435" width="30" height="30" fill="hsl(240 100% 99.78772017195854%)" />
  <rect x="65" y="470" width="30" height="30" fill="hsl(240 100% 50%)" />
  <rect x="240" y="470" width="30" height="30" fill="hsl(240 100% 50.48907462490263%)" />
  <rect x="310" y="470" width="30" height="30" fill="hsl(240 100% 97.15108258305155%)" />
  <rect x="415" y="470" width="30" height="30" fill="hsl(240 100% 89.2406856612052%)" />
  <rect x="450" y="470" width="30" height="30" fill="hsl(240 100% 99.57280277754919%)" />
</svg>
