<svg xmlns="http://www.w3.org/2000/svg" viewBox="0 0 730 505">
  <rect x="0" y="0" width="730" height="505" rx="5" ry="5" fill="#222" />
  <text x="60" y="100" fill="white" font-family="sans-serif" font-weight="bold" font-size="12" text-anchor="end" dominant-baseline="middle">ba</text>
  <text x="60" y="135" fill="white" font-family="sans-serif" font-weight="bold" font-size="12" text-anchor="end" dominant-baseline="middle">det</text>
  <text x="60" y="170" fill="white" font-family="sans-serif" font-weight="bold" font-size="12" text-anchor="end" dominant-baseline="middle">gmm</text>
  <text x="60" y="205" fill="white" font-family="sans-serif" font-weight="bold" font-size="12" text-anchor="end" dominant-baseline="middle">hello</text>
  <text x="60" y="240" fill="white" font-family="sans-serif" font-weight="bold" font-size="12" text-anchor="end" dominant-baseline="middle">ht</text>
  <text x="60" y="275" fill="white" font-family="sans-serif" font-weight="bold" font-size="12" text-anchor="end" dominant-baseline="middle">kmeans</text>
  <text x="60" y="310" fill="white" font-family="sans-serif" font-weight="bold" font-size="12" text-anchor="end" dominant-baseline="middle">llsq</text>
  <text x="60" y="345" fill="white" font-family="sans-serif" font-weight="bold" font-size="12" text-anchor="end" dominant-baseline="middle">lse</text>
  <text x="60" y="380" fill="white" font-family="sans-serif" font-weight="bold" font-size="12" text-anchor="end" dominant-baseline="middle">lstm</text>
  <text x="60" y="415" fill="white" font-family="sans-serif" font-weight="bold" font-size="12" text-anchor="end" dominant-baseline="middle">ode</text>
  <text x="60" y="450" fill="white" font-family="sans-serif" font-weight="bold" font-size="12" text-anchor="end" dominant-baseline="middle">particle</text>
  <text x="60" y="485" fill="white" font-family="sans-serif" font-weight="bold" font-size="12" text-anchor="end" dominant-baseline="middle">saddle</text>
  <text x="80" y="80" fill="white" font-family="sans-serif" font-weight="bold" font-size="12" text-anchor="end" dominant-baseline="middle" transform="rotate(90 80 80)">ad-hpp</text>
  <text x="115" y="80" fill="white" font-family="sans-serif" font-weight="bold" font-size="12" text-anchor="end" dominant-baseline="middle" transform="rotate(90 115 80)">adept</text>
  <text x="150" y="80" fill="white" font-family="sans-serif" font-weight="bold" font-size="12" text-anchor="end" dominant-baseline="middle" transform="rotate(90 150 80)">adol-c</text>
  <text x="185" y="80" fill="white" font-family="sans-serif" font-weight="bold" font-size="12" text-anchor="end" dominant-baseline="middle" transform="rotate(90 185 80)">codipack</text>
  <text x="220" y="80" fill="white" font-family="sans-serif" font-weight="bold" font-size="12" text-anchor="end" dominant-baseline="middle" transform="rotate(90 220 80)">cppad</text>
  <text x="255" y="80" fill="white" font-family="sans-serif" font-weight="bold" font-size="12" text-anchor="end" dominant-baseline="middle" transform="rotate(90 255 80)">enzyme</text>
  <text x="290" y="80" fill="white" font-family="sans-serif" font-weight="bold" font-size="12" text-anchor="end" dominant-baseline="middle" transform="rotate(90 290 80)">enzyme-jl</text>
  <text x="325" y="80" fill="white" font-family="sans-serif" font-weight="bold" font-size="12" text-anchor="end" dominant-baseline="middle" transform="rotate(90 325 80)">finite</text>
  <text x="360" y="80" fill="white" font-family="sans-serif" font-weight="bold" font-size="12" text-anchor="end" dominant-baseline="middle" transform="rotate(90 360 80)">floretta</text>
  <text x="395" y="80" fill="white" font-family="sans-serif" font-weight="bold" font-size="12" text-anchor="end" dominant-baseline="middle" transform="rotate(90 395 80)">futhark</text>
  <text x="430" y="80" fill="white" font-family="sans-serif" font-weight="bold" font-size="12" text-anchor="end" dominant-baseline="middle" transform="rotate(90 430 80)">haskell</text>
  <text x="465" y="80" fill="white" font-family="sans-serif" font-weight="bold" font-size="12" text-anchor="end" dominant-baseline="middle" transform="rotate(90 465 80)">jax</text>
  <text x="500" y="80" fill="white" font-family="sans-serif" font-weight="bold" font-size="12" text-anchor="end" dominant-baseline="middle" transform="rotate(90 500 80)">manual</text>
  <text x="535" y="80" fill="white" font-family="sans-serif" font-weight="bold" font-size="12" text-anchor="end" dominant-baseline="middle" transform="rotate(90 535 80)">ocaml</text>
  <text x="570" y="80" fill="white" font-family="sans-serif" font-weight="bold" font-size="12" text-anchor="end" dominant-baseline="middle" transform="rotate(90 570 80)">pytorch</text>
  <text x="605" y="80" fill="white" font-family="sans-serif" font-weight="bold" font-size="12" text-anchor="end" dominant-baseline="middle" transform="rotate(90 605 80)">scilean</text>
  <text x="640" y="80" fill="white" font-family="sans-serif" font-weight="bold" font-size="12" text-anchor="end" dominant-baseline="middle" transform="rotate(90 640 80)">tapenade</text>
  <text x="675" y="80" fill="white" font-family="sans-serif" font-weight="bold" font-size="12" text-anchor="end" dominant-baseline="middle" transform="rotate(90 675 80)">tensorflow</text>
  <text x="710" y="80" fill="white" font-family="sans-serif" font-weight="bold" font-size="12" text-anchor="end" dominant-baseline="middle" transform="rotate(90 710 80)">zygote</text>
  <rect x="65" y="85" width="30" height="30" fill="hsl(240 100% 78.02345822848422%)" />
  <rect x="100" y="85" width="30" height="30" fill="hsl(240 100% 83.22093042562598%)" />
  <rect x="135" y="85" width="30" height="30" fill="hsl(240 100% 97.7738380924245%)" />
  <rect x="170" y="85" width="30" height="30" fill="hsl(240 100% 88.98050245325436%)" />
  <rect x="205" y="85" width="30" height="30" fill="hsl(240 100% 98.88380626372503%)" />
  <rect x="240" y="85" width="30" height="30" fill="hsl(240 100% 50%)" />
  <rect x="310" y="85" width="30" height="30" fill="hsl(240 100% 92.47946646697835%)" />
  <rect x="380" y="85" width="30" height="30" fill="hsl(240 100% 68.30078784703221%)" />
  <rect x="485" y="85" width="30" height="30" fill="hsl(240 100% 51.37162235557399%)" />
  <rect x="555" y="85" width="30" height="30" fill="rgb(255 255 255 / 50%)" />
  <rect x="625" y="85" width="30" height="30" fill="hsl(240 100% 72.07431142174%)" />
  <rect x="660" y="85" width="30" height="30" fill="rgb(255 255 255 / 50%)" />
  <rect x="695" y="85" width="30" height="30" fill="rgb(255 255 255 / 50%)" />
  <rect x="65" y="120" width="30" height="30" fill="hsl(240 100% 50%)" />
  <rect x="100" y="120" width="30" height="30" fill="hsl(240 100% 84.67331427162298%)" />
  <rect x="135" y="120" width="30" height="30" fill="hsl(240 100% 85.45756869829809%)" />
  <rect x="170" y="120" width="30" height="30" fill="hsl(240 100% 52.07420413284808%)" />
  <rect x="205" y="120" width="30" height="30" fill="hsl(240 100% 92.861791014075%)" />
  <rect x="240" y="120" width="30" height="30" fill="hsl(240 100% 91.79135340072035%)" />
  <rect x="275" y="120" width="30" height="30" fill="hsl(240 100% 99.21359218488678%)" />
  <rect x="310" y="120" width="30" height="30" fill="hsl(240 100% 98.99856892978856%)" />
  <rect x="380" y="120" width="30" height="30" fill="hsl(240 100% 94.80192963270788%)" />
  <rect x="415" y="120" width="30" height="30" fill="hsl(240 100% 97.96920569851068%)" />
  <rect x="485" y="120" width="30" height="30" fill="hsl(240 100% 79.93507542702483%)" />
  <rect x="695" y="120" width="30" height="30" fill="rgb(255 255 255 / 50%)" />
  <rect x="65" y="155" width="30" height="30" fill="hsl(240 100% 97.04090546029698%)" />
  <rect x="100" y="155" width="30" height="30" fill="hsl(240 100% 98.16896139547973%)" />
  <rect x="135" y="155" width="30" height="30" fill="hsl(240 100% 98.69579486860887%)" />
  <rect x="170" y="155" width="30" height="30" fill="hsl(240 100% 97.00833311538896%)" />
  <rect x="205" y="155" width="30" height="30" fill="hsl(240 100% 99.75457390272776%)" />
  <rect x="240" y="155" width="30" height="30" fill="hsl(240 100% 86.09105643821519%)" />
  <rect x="310" y="155" width="30" height="30" fill="rgb(255 255 255 / 50%)" />
  <rect x="380" y="155" width="30" height="30" fill="hsl(240 100% 89.40706379636892%)" />
  <rect x="450" y="155" width="30" height="30" fill="hsl(240 100% 68.337352708992%)" />
  <rect x="485" y="155" width="30" height="30" fill="hsl(240 100% 73.77828681326139%)" />
  <rect x="520" y="155" width="30" height="30" fill="hsl(240 100% 99.30783948269244%)" />
  <rect x="555" y="155" width="30" height="30" fill="hsl(240 100% 50%)" />
  <rect x="590" y="155" width="30" height="30" fill="hsl(240 100% 92.181426633613%)" />
  <rect x="625" y="155" width="30" height="30" fill="hsl(240 100% 74.69052584565765%)" />
  <rect x="660" y="155" width="30" height="30" fill="hsl(240 100% 88.34366600326337%)" />
  <rect x="695" y="155" width="30" height="30" fill="rgb(255 255 255 / 50%)" />
  <rect x="65" y="190" width="30" height="30" fill="hsl(240 100% 50%)" />
  <rect x="100" y="190" width="30" height="30" fill="hsl(240 100% 50%)" />
  <rect x="135" y="190" width="30" height="30" fill="hsl(240 100% 50%)" />
  <rect x="170" y="190" width="30" height="30" fill="hsl(240 100% 50%)" />
  <rect x="205" y="190" width="30" height="30" fill="hsl(240 100% 50%)" />
  <rect x="240" y="190" width="30" height="30" fill="hsl(240 100% 50%)" />
  <rect x="275" y="190" width="30" height="30" fill="hsl(240 100% 50%)" />
  <rect x="310" y="190" width="30" height="30" fill="hsl(240 100% 50%)" />
  <rect x="345" y="190" width="30" height="30" fill="hsl(240 100% 50%)" />
  <rect x="380" y="190" width="30" height="30" fill="hsl(240 100% 50%)" />
  <rect x="415" y="190" width="30" height="30" fill="hsl(240 100% 50%)" />
  <rect x="450" y="190" width="30" height="30" fill="hsl(240 100% 50%)" />
  <rect x="485" y="190" width="30" height="30" fill="hsl(240 100% 50%)" />
  <rect x="520" y="190" width="30" height="30" fill="hsl(240 100% 50%)" />
  <rect x="555" y="190" width="30" height="30" fill="hsl(240 100% 50%)" />
  <rect x="590" y="190" width="30" height="30" fill="hsl(240 100% 50%)" />
  <rect x="625" y="190" width="30" height="30" fill="hsl(240 100% 50%)" />
  <rect x="660" y="190" width="30" height="30" fill="hsl(240 100% 50%)" />
  <rect x="695" y="190" width="30" height="30" fill="hsl(240 100% 50%)" />
  <rect x="100" y="225" width="30" height="30" fill="hsl(240 100% 96.06173033653657%)" />
  <rect x="135" y="225" width="30" height="30" fill="hsl(240 100% 90.04120703832182%)" />
  <rect x="170" y="225" width="30" height="30" fill="hsl(240 100% 88.2725169793593%)" />
  <rect x="240" y="225" width="30" height="30" fill="hsl(240 100% 90.29355443851571%)" />
  <rect x="310" y="225" width="30" height="30" fill="rgb(255 255 255 / 50%)" />
  <rect x="380" y="225" width="30" height="30" fill="hsl(240 100% 89.78657272352692%)" />
  <rect x="485" y="225" width="30" height="30" fill="hsl(240 100% 50%)" />
  <rect x="555" y="225" width="30" height="30" fill="rgb(255 255 255 / 50%)" />
  <rect x="625" y="225" width="30" height="30" fill="rgb(255 255 255 / 50%)" />
  <rect x="660" y="225" width="30" height="30" fill="rgb(255 255 255 / 50%)" />
  <rect x="695" y="225" width="30" height="30" fill="rgb(255 255 255 / 50%)" />
  <rect x="135" y="260" width="30" height="30" fill="hsl(240 100% 99.91870508475239%)" />
  <rect x="170" y="260" width="30" height="30" fill="hsl(240 100% 99.35279174369772%)" />
  <rect x="205" y="260" width="30" height="30" fill="rgb(255 255 255 / 50%)" />
  <rect x="240" y="260" width="30" height="30" fill="hsl(240 100% 87.99566845622284%)" />
  <rect x="310" y="260" width="30" height="30" fill="rgb(255 255 255 / 50%)" />
  <rect x="380" y="260" width="30" height="30" fill="hsl(240 100% 82.95976277795361%)" />
  <rect x="415" y="260" width="30" height="30" fill="rgb(255 255 255 / 50%)" />
  <rect x="450" y="260" width="30" height="30" fill="hsl(240 100% 50%)" />
  <rect x="485" y="260" width="30" height="30" fill="hsl(240 100% 76.54440181836772%)" />
  <rect x="555" y="260" width="30" height="30" fill="hsl(240 100% 97.04309555191364%)" />
  <rect x="590" y="260" width="30" height="30" fill="hsl(240 100% 94.1398136923004%)" />
  <rect x="65" y="295" width="30" height="30" fill="hsl(240 100% 58.9282362589828%)" />
  <rect x="100" y="295" width="30" height="30" fill="hsl(240 100% 67.52486563259362%)" />
  <rect x="135" y="295" width="30" height="30" fill="hsl(240 100% 59.62276946624937%)" />
  <rect x="170" y="295" width="30" height="30" fill="hsl(240 100% 59.99411055342708%)" />
  <rect x="205" y="295" width="30" height="30" fill="hsl(240 100% 91.6720548928687%)" />
  <rect x="240" y="295" width="30" height="30" fill="hsl(240 100% 50%)" />
  <rect x="310" y="295" width="30" height="30" fill="hsl(240 100% 99.42843099154175%)" />
  <rect x="380" y="295" width="30" height="30" fill="hsl(240 100% 50.56716309213842%)" />
  <rect x="415" y="295" width="30" height="30" fill="hsl(240 100% 89.83292982873677%)" />
  <rect x="485" y="295" width="30" height="30" fill="hsl(240 100% 53.491993343667964%)" />
  <rect x="590" y="295" width="30" height="30" fill="hsl(240 100% 55.315720296374465%)" />
  <rect x="65" y="330" width="30" height="30" fill="hsl(240 100% 88.55557583147598%)" />
  <rect x="100" y="330" width="30" height="30" fill="hsl(240 100% 94.3701476434781%)" />
  <rect x="135" y="330" width="30" height="30" fill="hsl(240 100% 97.0726630493442%)" />
  <rect x="170" y="330" width="30" height="30" fill="hsl(240 100% 88.98241850228354%)" />
  <rect x="205" y="330" width="30" height="30" fill="hsl(240 100% 99.16503003418215%)" />
  <rect x="240" y="330" width="30" height="30" fill="hsl(240 100% 80.5179930682199%)" />
  <rect x="275" y="330" width="30" height="30" fill="hsl(240 100% 99.84001928824614%)" />
  <rect x="310" y="330" width="30" height="30" fill="rgb(255 255 255 / 50%)" />
  <rect x="380" y="330" width="30" height="30" fill="hsl(240 100% 85.0256493929091%)" />
  <rect x="415" y="330" width="30" height="30" fill="hsl(240 100% 99.80011789914546%)" />
  <rect x="450" y="330" width="30" height="30" fill="hsl(240 100% 69.93140055999557%)" />
  <rect x="485" y="330" width="30" height="30" fill="hsl(240 100% 77.2896121035895%)" />
  <rect x="520" y="330" width="30" height="30" fill="hsl(240 100% 93.45238973821185%)" />
  <rect x="555" y="330" width="30" height="30" fill="hsl(240 100% 50%)" />
  <rect x="660" y="330" width="30" height="30" fill="hsl(240 100% 88.7924792014095%)" />
  <rect x="695" y="330" width="30" height="30" fill="hsl(240 100% 98.66090647432576%)" />
  <rect x="65" y="365" width="30" height="30" fill="hsl(240 100% 53.821872120094056%)" />
  <rect x="100" y="365" width="30" height="30" fill="hsl(240 100% 68.89044701882356%)" />
  <rect x="135" y="365" width="30" height="30" fill="hsl(240 100% 81.34182409661966%)" />
  <rect x="170" y="365" width="30" height="30" fill="hsl(240 100% 50%)" />
  <rect x="205" y="365" width="30" height="30" fill="hsl(240 100% 95.74906931924612%)" />
  <rect x="240" y="365" width="30" height="30" fill="hsl(240 100% 50.477361325525564%)" />
  <rect x="310" y="365" width="30" height="30" fill="hsl(240 100% 99.85125495983141%)" />
  <rect x="380" y="365" width="30" height="30" fill="hsl(240 100% 63.64531738373134%)" />
  <rect x="485" y="365" width="30" height="30" fill="hsl(240 100% 84.53094329528666%)" />
  <rect x="555" y="365" width="30" height="30" fill="hsl(240 100% 99.61097857062715%)" />
  <rect x="625" y="365" width="30" height="30" fill="hsl(240 100% 60.2632628084166%)" />
  <rect x="660" y="365" width="30" height="30" fill="hsl(240 100% 97.97742869254911%)" />
  <rect x="695" y="365" width="30" height="30" fill="hsl(240 100% 99.08338300898484%)" />
  <rect x="65" y="400" width="30" height="30" fill="hsl(240 100% 98.09827511657379%)" />
  <rect x="100" y="400" width="30" height="30" fill="hsl(240 100% 99.25268175509719%)" />
  <rect x="135" y="400" width="30" height="30" fill="hsl(240 100% 99.57452559688822%)" />
  <rect x="170" y="400" width="30" height="30" fill="hsl(240 100% 93.74603614031327%)" />
  <rect x="205" y="400" width="30" height="30" fill="hsl(240 100% 98.9991858136699%)" />
  <rect x="240" y="400" width="30" height="30" fill="hsl(240 100% 85.49527623519504%)" />
  <rect x="275" y="400" width="30" height="30" fill="hsl(240 100% 99.05366351209582%)" />
  <rect x="310" y="400" width="30" height="30" fill="rgb(255 255 255 / 50%)" />
  <rect x="380" y="400" width="30" height="30" fill="hsl(240 100% 95.44446949304138%)" />
  <rect x="415" y="400" width="30" height="30" fill="hsl(240 100% 99.96152615900559%)" />
  <rect x="485" y="400" width="30" height="30" fill="hsl(240 100% 50%)" />
  <rect x="240" y="435" width="30" height="30" fill="hsl(240 100% 50%)" />
  <rect x="310" y="435" width="30" height="30" fill="hsl(240 100% 95.18269922723573%)" />
  <rect x="380" y="435" width="30" height="30" fill="hsl(240 100% 87.92306180881657%)" />
  <rect x="415" y="435" width="30" height="30" fill="hsl(240 100% 99.76953675202235%)" />
  <rect x="240" y="470" width="30" height="30" fill="hsl(240 100% 50%)" />
  <rect x="310" y="470" width="30" height="30" fill="hsl(240 100% 95.84007878006022%)" />
  <rect x="380" y="470" width="30" height="30" fill="hsl(240 100% 89.15317661699636%)" />
  <rect x="415" y="470" width="30" height="30" fill="hsl(240 100% 99.569513434847%)" />
</svg>
