<svg xmlns="http://www.w3.org/2000/svg" viewBox="0 0 870 505">
  <rect x="0" y="0" width="870" height="505" rx="5" ry="5" fill="#222" />
  <text x="60" y="100" fill="white" font-family="sans-serif" font-weight="bold" font-size="12" text-anchor="end" dominant-baseline="middle">ba</text>
  <text x="60" y="135" fill="white" font-family="sans-serif" font-weight="bold" font-size="12" text-anchor="end" dominant-baseline="middle">det</text>
  <text x="60" y="170" fill="white" font-family="sans-serif" font-weight="bold" font-size="12" text-anchor="end" dominant-baseline="middle">gmm</text>
  <text x="60" y="205" fill="white" font-family="sans-serif" font-weight="bold" font-size="12" text-anchor="end" dominant-baseline="middle">hello</text>
  <text x="60" y="240" fill="white" font-family="sans-serif" font-weight="bold" font-size="12" text-anchor="end" dominant-baseline="middle">ht</text>
  <text x="60" y="275" fill="white" font-family="sans-serif" font-weight="bold" font-size="12" text-anchor="end" dominant-baseline="middle">kmeans</text>
  <text x="60" y="310" fill="white" font-family="sans-serif" font-weight="bold" font-size="12" text-anchor="end" dominant-baseline="middle">llsq</text>
  <text x="60" y="345" fill="white" font-family="sans-serif" font-weight="bold" font-size="12" text-anchor="end" dominant-baseline="middle">lse</text>
  <text x="60" y="380" fill="white" font-family="sans-serif" font-weight="bold" font-size="12" text-anchor="end" dominant-baseline="middle">lstm</text>
  <text x="60" y="415" fill="white" font-family="sans-serif" font-weight="bold" font-size="12" text-anchor="end" dominant-baseline="middle">ode</text>
  <text x="60" y="450" fill="white" font-family="sans-serif" font-weight="bold" font-size="12" text-anchor="end" dominant-baseline="middle">particle</text>
  <text x="60" y="485" fill="white" font-family="sans-serif" font-weight="bold" font-size="12" text-anchor="end" dominant-baseline="middle">saddle</text>
  <text x="80" y="80" fill="white" font-family="sans-serif" font-weight="bold" font-size="12" text-anchor="end" dominant-baseline="middle" transform="rotate(90 80 80)">ad-hpp</text>
  <text x="115" y="80" fill="white" font-family="sans-serif" font-weight="bold" font-size="12" text-anchor="end" dominant-baseline="middle" transform="rotate(90 115 80)">adept</text>
  <text x="150" y="80" fill="white" font-family="sans-serif" font-weight="bold" font-size="12" text-anchor="end" dominant-baseline="middle" transform="rotate(90 150 80)">adol-c</text>
  <text x="185" y="80" fill="white" font-family="sans-serif" font-weight="bold" font-size="12" text-anchor="end" dominant-baseline="middle" transform="rotate(90 185 80)">codipack</text>
  <text x="220" y="80" fill="white" font-family="sans-serif" font-weight="bold" font-size="12" text-anchor="end" dominant-baseline="middle" transform="rotate(90 220 80)">cppad</text>
  <text x="255" y="80" fill="white" font-family="sans-serif" font-weight="bold" font-size="12" text-anchor="end" dominant-baseline="middle" transform="rotate(90 255 80)">enzyme</text>
  <text x="290" y="80" fill="white" font-family="sans-serif" font-weight="bold" font-size="12" text-anchor="end" dominant-baseline="middle" transform="rotate(90 290 80)">enzyme-jl</text>
  <text x="325" y="80" fill="white" font-family="sans-serif" font-weight="bold" font-size="12" text-anchor="end" dominant-baseline="middle" transform="rotate(90 325 80)">finite</text>
  <text x="360" y="80" fill="white" font-family="sans-serif" font-weight="bold" font-size="12" text-anchor="end" dominant-baseline="middle" transform="rotate(90 360 80)">floretta</text>
  <text x="395" y="80" fill="white" font-family="sans-serif" font-weight="bold" font-size="12" text-anchor="end" dominant-baseline="middle" transform="rotate(90 395 80)">forwarddiff-jl</text>
  <text x="430" y="80" fill="white" font-family="sans-serif" font-weight="bold" font-size="12" text-anchor="end" dominant-baseline="middle" transform="rotate(90 430 80)">futhark</text>
  <text x="465" y="80" fill="white" font-family="sans-serif" font-weight="bold" font-size="12" text-anchor="end" dominant-baseline="middle" transform="rotate(90 465 80)">haskell</text>
  <text x="500" y="80" fill="white" font-family="sans-serif" font-weight="bold" font-size="12" text-anchor="end" dominant-baseline="middle" transform="rotate(90 500 80)">jax</text>
  <text x="535" y="80" fill="white" font-family="sans-serif" font-weight="bold" font-size="12" text-anchor="end" dominant-baseline="middle" transform="rotate(90 535 80)">manual</text>
  <text x="570" y="80" fill="white" font-family="sans-serif" font-weight="bold" font-size="12" text-anchor="end" dominant-baseline="middle" transform="rotate(90 570 80)">mooncake-jl</text>
  <text x="605" y="80" fill="white" font-family="sans-serif" font-weight="bold" font-size="12" text-anchor="end" dominant-baseline="middle" transform="rotate(90 605 80)">ocaml</text>
  <text x="640" y="80" fill="white" font-family="sans-serif" font-weight="bold" font-size="12" text-anchor="end" dominant-baseline="middle" transform="rotate(90 640 80)">pytorch</text>
  <text x="675" y="80" fill="white" font-family="sans-serif" font-weight="bold" font-size="12" text-anchor="end" dominant-baseline="middle" transform="rotate(90 675 80)">reversediff-jl</text>
  <text x="710" y="80" fill="white" font-family="sans-serif" font-weight="bold" font-size="12" text-anchor="end" dominant-baseline="middle" transform="rotate(90 710 80)">scilean</text>
  <text x="745" y="80" fill="white" font-family="sans-serif" font-weight="bold" font-size="12" text-anchor="end" dominant-baseline="middle" transform="rotate(90 745 80)">tapenade</text>
  <text x="780" y="80" fill="white" font-family="sans-serif" font-weight="bold" font-size="12" text-anchor="end" dominant-baseline="middle" transform="rotate(90 780 80)">tensorflow</text>
  <text x="815" y="80" fill="white" font-family="sans-serif" font-weight="bold" font-size="12" text-anchor="end" dominant-baseline="middle" transform="rotate(90 815 80)">tensorflow-js</text>
  <text x="850" y="80" fill="white" font-family="sans-serif" font-weight="bold" font-size="12" text-anchor="end" dominant-baseline="middle" transform="rotate(90 850 80)">zygote</text>
  <rect x="65" y="85" width="30" height="30" fill="hsl(240 100% 78.62341238980859%)" />
  <rect x="100" y="85" width="30" height="30" fill="hsl(240 100% 80.70294862615295%)" />
  <rect x="135" y="85" width="30" height="30" fill="hsl(240 100% 97.7283690593267%)" />
  <rect x="170" y="85" width="30" height="30" fill="hsl(240 100% 79.87244215892719%)" />
  <rect x="205" y="85" width="30" height="30" fill="hsl(240 100% 98.85878949431088%)" />
  <rect x="240" y="85" width="30" height="30" fill="hsl(240 100% 53.157311903965%)" />
  <rect x="310" y="85" width="30" height="30" fill="hsl(240 100% 92.30530485610572%)" />
  <rect x="415" y="85" width="30" height="30" fill="hsl(240 100% 63.922754309971836%)" />
  <rect x="520" y="85" width="30" height="30" fill="hsl(240 100% 50%)" />
  <rect x="625" y="85" width="30" height="30" fill="rgb(255 255 255 / 50%)" />
  <rect x="730" y="85" width="30" height="30" fill="hsl(240 100% 71.63623801163494%)" />
  <rect x="765" y="85" width="30" height="30" fill="rgb(255 255 255 / 50%)" />
  <rect x="835" y="85" width="30" height="30" fill="hsl(240 100% 99.70257263112438%)" />
  <rect x="65" y="120" width="30" height="30" fill="hsl(240 100% 50%)" />
  <rect x="100" y="120" width="30" height="30" fill="hsl(240 100% 82.8175850861994%)" />
  <rect x="135" y="120" width="30" height="30" fill="hsl(240 100% 85.50992679088736%)" />
  <rect x="170" y="120" width="30" height="30" fill="hsl(240 100% 56.772902581900674%)" />
  <rect x="205" y="120" width="30" height="30" fill="hsl(240 100% 91.99763718423425%)" />
  <rect x="240" y="120" width="30" height="30" fill="hsl(240 100% 91.45428836613837%)" />
  <rect x="275" y="120" width="30" height="30" fill="hsl(240 100% 99.33841681299808%)" />
  <rect x="310" y="120" width="30" height="30" fill="hsl(240 100% 98.99161865111432%)" />
  <rect x="380" y="120" width="30" height="30" fill="hsl(240 100% 93.45799254151635%)" />
  <rect x="415" y="120" width="30" height="30" fill="hsl(240 100% 94.63577718942416%)" />
  <rect x="450" y="120" width="30" height="30" fill="hsl(240 100% 97.8862598984805%)" />
  <rect x="520" y="120" width="30" height="30" fill="hsl(240 100% 79.50685400544494%)" />
  <rect x="555" y="120" width="30" height="30" fill="hsl(240 100% 90.41577911967478%)" />
  <rect x="660" y="120" width="30" height="30" fill="rgb(255 255 255 / 50%)" />
  <rect x="835" y="120" width="30" height="30" fill="rgb(255 255 255 / 50%)" />
  <rect x="65" y="155" width="30" height="30" fill="hsl(240 100% 98.55432500650988%)" />
  <rect x="100" y="155" width="30" height="30" fill="hsl(240 100% 98.80572596869183%)" />
  <rect x="135" y="155" width="30" height="30" fill="hsl(240 100% 99.10306693742123%)" />
  <rect x="170" y="155" width="30" height="30" fill="hsl(240 100% 98.81195208225384%)" />
  <rect x="205" y="155" width="30" height="30" fill="hsl(240 100% 99.85135368114429%)" />
  <rect x="240" y="155" width="30" height="30" fill="hsl(240 100% 91.1438467760813%)" />
  <rect x="275" y="155" width="30" height="30" fill="hsl(240 100% 95.04260967354934%)" />
  <rect x="310" y="155" width="30" height="30" fill="rgb(255 255 255 / 50%)" />
  <rect x="415" y="155" width="30" height="30" fill="hsl(240 100% 92.9141493958626%)" />
  <rect x="485" y="155" width="30" height="30" fill="hsl(240 100% 50%)" />
  <rect x="520" y="155" width="30" height="30" fill="hsl(240 100% 80.74520337603215%)" />
  <rect x="590" y="155" width="30" height="30" fill="hsl(240 100% 99.58171320089093%)" />
  <rect x="625" y="155" width="30" height="30" fill="hsl(240 100% 67.0599508538596%)" />
  <rect x="695" y="155" width="30" height="30" fill="hsl(240 100% 95.41612215270447%)" />
  <rect x="730" y="155" width="30" height="30" fill="hsl(240 100% 83.5386468352468%)" />
  <rect x="765" y="155" width="30" height="30" fill="hsl(240 100% 99.58376069531337%)" />
  <rect x="835" y="155" width="30" height="30" fill="hsl(240 100% 97.86961855339342%)" />
  <rect x="65" y="190" width="30" height="30" fill="hsl(240 100% 50%)" />
  <rect x="100" y="190" width="30" height="30" fill="hsl(240 100% 50%)" />
  <rect x="135" y="190" width="30" height="30" fill="hsl(240 100% 50%)" />
  <rect x="170" y="190" width="30" height="30" fill="hsl(240 100% 50%)" />
  <rect x="205" y="190" width="30" height="30" fill="hsl(240 100% 50%)" />
  <rect x="240" y="190" width="30" height="30" fill="hsl(240 100% 50%)" />
  <rect x="275" y="190" width="30" height="30" fill="hsl(240 100% 50%)" />
  <rect x="310" y="190" width="30" height="30" fill="hsl(240 100% 50%)" />
  <rect x="345" y="190" width="30" height="30" fill="hsl(240 100% 50%)" />
  <rect x="380" y="190" width="30" height="30" fill="hsl(240 100% 50%)" />
  <rect x="415" y="190" width="30" height="30" fill="hsl(240 100% 50%)" />
  <rect x="450" y="190" width="30" height="30" fill="hsl(240 100% 50%)" />
  <rect x="485" y="190" width="30" height="30" fill="hsl(240 100% 50%)" />
  <rect x="520" y="190" width="30" height="30" fill="hsl(240 100% 50%)" />
  <rect x="555" y="190" width="30" height="30" fill="hsl(240 100% 50%)" />
  <rect x="590" y="190" width="30" height="30" fill="hsl(240 100% 50%)" />
  <rect x="625" y="190" width="30" height="30" fill="hsl(240 100% 50%)" />
  <rect x="660" y="190" width="30" height="30" fill="hsl(240 100% 50%)" />
  <rect x="695" y="190" width="30" height="30" fill="hsl(240 100% 50%)" />
  <rect x="730" y="190" width="30" height="30" fill="hsl(240 100% 50%)" />
  <rect x="765" y="190" width="30" height="30" fill="hsl(240 100% 50%)" />
  <rect x="800" y="190" width="30" height="30" fill="hsl(240 100% 50%)" />
  <rect x="835" y="190" width="30" height="30" fill="hsl(240 100% 50%)" />
  <rect x="100" y="225" width="30" height="30" fill="hsl(240 100% 96.25441938476634%)" />
  <rect x="135" y="225" width="30" height="30" fill="hsl(240 100% 86.68948739397061%)" />
  <rect x="170" y="225" width="30" height="30" fill="hsl(240 100% 87.78487873521844%)" />
  <rect x="240" y="225" width="30" height="30" fill="hsl(240 100% 90.22237622274376%)" />
  <rect x="310" y="225" width="30" height="30" fill="rgb(255 255 255 / 50%)" />
  <rect x="415" y="225" width="30" height="30" fill="hsl(240 100% 89.37608209190984%)" />
  <rect x="520" y="225" width="30" height="30" fill="hsl(240 100% 50%)" />
  <rect x="625" y="225" width="30" height="30" fill="rgb(255 255 255 / 50%)" />
  <rect x="730" y="225" width="30" height="30" fill="hsl(240 100% 92.32841894823503%)" />
  <rect x="765" y="225" width="30" height="30" fill="rgb(255 255 255 / 50%)" />
  <rect x="835" y="225" width="30" height="30" fill="hsl(240 100% 93.51762480087896%)" />
  <rect x="65" y="260" width="30" height="30" fill="hsl(240 100% 99.86737262005765%)" />
  <rect x="135" y="260" width="30" height="30" fill="hsl(240 100% 99.84673170417923%)" />
  <rect x="170" y="260" width="30" height="30" fill="hsl(240 100% 98.92011982485086%)" />
  <rect x="205" y="260" width="30" height="30" fill="rgb(255 255 255 / 50%)" />
  <rect x="240" y="260" width="30" height="30" fill="hsl(240 100% 87.01799403792495%)" />
  <rect x="310" y="260" width="30" height="30" fill="rgb(255 255 255 / 50%)" />
  <rect x="415" y="260" width="30" height="30" fill="hsl(240 100% 80.67169235909029%)" />
  <rect x="450" y="260" width="30" height="30" fill="rgb(255 255 255 / 50%)" />
  <rect x="485" y="260" width="30" height="30" fill="hsl(240 100% 50%)" />
  <rect x="520" y="260" width="30" height="30" fill="hsl(240 100% 72.36464268005808%)" />
  <rect x="625" y="260" width="30" height="30" fill="hsl(240 100% 97.00621385681156%)" />
  <rect x="695" y="260" width="30" height="30" fill="hsl(240 100% 94.09716846045235%)" />
  <rect x="65" y="295" width="30" height="30" fill="hsl(240 100% 89.64688013434821%)" />
  <rect x="100" y="295" width="30" height="30" fill="hsl(240 100% 97.50705732175784%)" />
  <rect x="135" y="295" width="30" height="30" fill="hsl(240 100% 95.03286830206419%)" />
  <rect x="170" y="295" width="30" height="30" fill="hsl(240 100% 89.31564761758563%)" />
  <rect x="205" y="295" width="30" height="30" fill="hsl(240 100% 99.48093311700151%)" />
  <rect x="240" y="295" width="30" height="30" fill="hsl(240 100% 50.24941118852308%)" />
  <rect x="275" y="295" width="30" height="30" fill="hsl(240 100% 50%)" />
  <rect x="310" y="295" width="30" height="30" fill="hsl(240 100% 99.49579555448247%)" />
  <rect x="345" y="295" width="30" height="30" fill="hsl(240 100% 94.65655762630598%)" />
  <rect x="415" y="295" width="30" height="30" fill="hsl(240 100% 54.895518887586135%)" />
  <rect x="450" y="295" width="30" height="30" fill="hsl(240 100% 99.34241957117285%)" />
  <rect x="485" y="295" width="30" height="30" fill="hsl(240 100% 87.97297748533221%)" />
  <rect x="520" y="295" width="30" height="30" fill="hsl(240 100% 57.54600828763354%)" />
  <rect x="695" y="295" width="30" height="30" fill="hsl(240 100% 97.59477213064478%)" />
  <rect x="800" y="295" width="30" height="30" fill="hsl(240 100% 99.5971024929915%)" />
  <rect x="835" y="295" width="30" height="30" fill="hsl(240 100% 99.95454177569337%)" />
  <rect x="65" y="330" width="30" height="30" fill="hsl(240 100% 87.01855337652076%)" />
  <rect x="100" y="330" width="30" height="30" fill="hsl(240 100% 94.65486378556403%)" />
  <rect x="135" y="330" width="30" height="30" fill="hsl(240 100% 96.85971133835248%)" />
  <rect x="170" y="330" width="30" height="30" fill="hsl(240 100% 86.42763853036475%)" />
  <rect x="205" y="330" width="30" height="30" fill="hsl(240 100% 99.1335262830956%)" />
  <rect x="240" y="330" width="30" height="30" fill="hsl(240 100% 78.75204550441643%)" />
  <rect x="275" y="330" width="30" height="30" fill="hsl(240 100% 87.45398701612214%)" />
  <rect x="310" y="330" width="30" height="30" fill="rgb(255 255 255 / 50%)" />
  <rect x="345" y="330" width="30" height="30" fill="hsl(240 100% 97.08322382645788%)" />
  <rect x="415" y="330" width="30" height="30" fill="hsl(240 100% 85.11540655679832%)" />
  <rect x="450" y="330" width="30" height="30" fill="hsl(240 100% 99.80153687683165%)" />
  <rect x="485" y="330" width="30" height="30" fill="hsl(240 100% 69.00214306012938%)" />
  <rect x="520" y="330" width="30" height="30" fill="hsl(240 100% 69.05748485615871%)" />
  <rect x="590" y="330" width="30" height="30" fill="hsl(240 100% 93.57961995681505%)" />
  <rect x="625" y="330" width="30" height="30" fill="hsl(240 100% 50%)" />
  <rect x="765" y="330" width="30" height="30" fill="hsl(240 100% 94.03352747592292%)" />
  <rect x="800" y="330" width="30" height="30" fill="hsl(240 100% 99.19329752053403%)" />
  <rect x="835" y="330" width="30" height="30" fill="hsl(240 100% 80.18811772209683%)" />
  <rect x="65" y="365" width="30" height="30" fill="hsl(240 100% 61.153264218559045%)" />
  <rect x="100" y="365" width="30" height="30" fill="hsl(240 100% 70.92842101117607%)" />
  <rect x="135" y="365" width="30" height="30" fill="hsl(240 100% 81.41365396810154%)" />
  <rect x="170" y="365" width="30" height="30" fill="hsl(240 100% 50%)" />
  <rect x="205" y="365" width="30" height="30" fill="hsl(240 100% 95.97950457883123%)" />
  <rect x="240" y="365" width="30" height="30" fill="hsl(240 100% 59.38891619338245%)" />
  <rect x="275" y="365" width="30" height="30" fill="hsl(240 100% 92.21691889400992%)" />
  <rect x="310" y="365" width="30" height="30" fill="hsl(240 100% 99.86002693121061%)" />
  <rect x="415" y="365" width="30" height="30" fill="hsl(240 100% 65.81847040708993%)" />
  <rect x="520" y="365" width="30" height="30" fill="hsl(240 100% 85.97923936109797%)" />
  <rect x="625" y="365" width="30" height="30" fill="hsl(240 100% 99.6344586929618%)" />
  <rect x="730" y="365" width="30" height="30" fill="hsl(240 100% 62.96766761544701%)" />
  <rect x="765" y="365" width="30" height="30" fill="hsl(240 100% 98.10978726688322%)" />
  <rect x="835" y="365" width="30" height="30" fill="hsl(240 100% 98.69863376032545%)" />
  <rect x="65" y="400" width="30" height="30" fill="hsl(240 100% 97.75786467847419%)" />
  <rect x="100" y="400" width="30" height="30" fill="hsl(240 100% 99.29426460137023%)" />
  <rect x="135" y="400" width="30" height="30" fill="hsl(240 100% 99.57996523724879%)" />
  <rect x="170" y="400" width="30" height="30" fill="hsl(240 100% 93.57745546339045%)" />
  <rect x="205" y="400" width="30" height="30" fill="hsl(240 100% 99.02298617756776%)" />
  <rect x="240" y="400" width="30" height="30" fill="hsl(240 100% 93.39689581526649%)" />
  <rect x="275" y="400" width="30" height="30" fill="hsl(240 100% 94.24121047845718%)" />
  <rect x="310" y="400" width="30" height="30" fill="rgb(255 255 255 / 50%)" />
  <rect x="380" y="400" width="30" height="30" fill="rgb(255 255 255 / 50%)" />
  <rect x="415" y="400" width="30" height="30" fill="hsl(240 100% 92.60924218389505%)" />
  <rect x="450" y="400" width="30" height="30" fill="hsl(240 100% 99.96463944472184%)" />
  <rect x="485" y="400" width="30" height="30" fill="hsl(240 100% 73.59359367728784%)" />
  <rect x="520" y="400" width="30" height="30" fill="hsl(240 100% 50%)" />
  <rect x="555" y="400" width="30" height="30" fill="hsl(240 100% 98.90401835570991%)" />
  <rect x="660" y="400" width="30" height="30" fill="rgb(255 255 255 / 50%)" />
  <rect x="835" y="400" width="30" height="30" fill="hsl(240 100% 99.0562537231915%)" />
  <rect x="65" y="435" width="30" height="30" fill="hsl(240 100% 90.11850328004408%)" />
  <rect x="240" y="435" width="30" height="30" fill="hsl(240 100% 50%)" />
  <rect x="310" y="435" width="30" height="30" fill="hsl(240 100% 93.74884813308931%)" />
  <rect x="415" y="435" width="30" height="30" fill="hsl(240 100% 86.77490882668346%)" />
  <rect x="450" y="435" width="30" height="30" fill="hsl(240 100% 99.80556704967483%)" />
  <rect x="65" y="470" width="30" height="30" fill="hsl(240 100% 50%)" />
  <rect x="240" y="470" width="30" height="30" fill="hsl(240 100% 59.41758706477139%)" />
  <rect x="310" y="470" width="30" height="30" fill="hsl(240 100% 97.53972273940178%)" />
  <rect x="415" y="470" width="30" height="30" fill="hsl(240 100% 91.12933928729308%)" />
  <rect x="450" y="470" width="30" height="30" fill="hsl(240 100% 99.65532141243101%)" />
</svg>
