<svg xmlns="http://www.w3.org/2000/svg" viewBox="0 0 870 505">
  <rect x="0" y="0" width="870" height="505" rx="5" ry="5" fill="#222" />
  <text x="60" y="100" fill="white" font-family="sans-serif" font-weight="bold" font-size="12" text-anchor="end" dominant-baseline="middle">ba</text>
  <text x="60" y="135" fill="white" font-family="sans-serif" font-weight="bold" font-size="12" text-anchor="end" dominant-baseline="middle">det</text>
  <text x="60" y="170" fill="white" font-family="sans-serif" font-weight="bold" font-size="12" text-anchor="end" dominant-baseline="middle">gmm</text>
  <text x="60" y="205" fill="white" font-family="sans-serif" font-weight="bold" font-size="12" text-anchor="end" dominant-baseline="middle">hello</text>
  <text x="60" y="240" fill="white" font-family="sans-serif" font-weight="bold" font-size="12" text-anchor="end" dominant-baseline="middle">ht</text>
  <text x="60" y="275" fill="white" font-family="sans-serif" font-weight="bold" font-size="12" text-anchor="end" dominant-baseline="middle">kmeans</text>
  <text x="60" y="310" fill="white" font-family="sans-serif" font-weight="bold" font-size="12" text-anchor="end" dominant-baseline="middle">llsq</text>
  <text x="60" y="345" fill="white" font-family="sans-serif" font-weight="bold" font-size="12" text-anchor="end" dominant-baseline="middle">lse</text>
  <text x="60" y="380" fill="white" font-family="sans-serif" font-weight="bold" font-size="12" text-anchor="end" dominant-baseline="middle">lstm</text>
  <text x="60" y="415" fill="white" font-family="sans-serif" font-weight="bold" font-size="12" text-anchor="end" dominant-baseline="middle">ode</text>
  <text x="60" y="450" fill="white" font-family="sans-serif" font-weight="bold" font-size="12" text-anchor="end" dominant-baseline="middle">particle</text>
  <text x="60" y="485" fill="white" font-family="sans-serif" font-weight="bold" font-size="12" text-anchor="end" dominant-baseline="middle">saddle</text>
  <text x="80" y="80" fill="white" font-family="sans-serif" font-weight="bold" font-size="12" text-anchor="end" dominant-baseline="middle" transform="rotate(90 80 80)">ad-hpp</text>
  <text x="115" y="80" fill="white" font-family="sans-serif" font-weight="bold" font-size="12" text-anchor="end" dominant-baseline="middle" transform="rotate(90 115 80)">adept</text>
  <text x="150" y="80" fill="white" font-family="sans-serif" font-weight="bold" font-size="12" text-anchor="end" dominant-baseline="middle" transform="rotate(90 150 80)">adol-c</text>
  <text x="185" y="80" fill="white" font-family="sans-serif" font-weight="bold" font-size="12" text-anchor="end" dominant-baseline="middle" transform="rotate(90 185 80)">codipack</text>
  <text x="220" y="80" fill="white" font-family="sans-serif" font-weight="bold" font-size="12" text-anchor="end" dominant-baseline="middle" transform="rotate(90 220 80)">cppad</text>
  <text x="255" y="80" fill="white" font-family="sans-serif" font-weight="bold" font-size="12" text-anchor="end" dominant-baseline="middle" transform="rotate(90 255 80)">enzyme</text>
  <text x="290" y="80" fill="white" font-family="sans-serif" font-weight="bold" font-size="12" text-anchor="end" dominant-baseline="middle" transform="rotate(90 290 80)">enzyme-jl</text>
  <text x="325" y="80" fill="white" font-family="sans-serif" font-weight="bold" font-size="12" text-anchor="end" dominant-baseline="middle" transform="rotate(90 325 80)">finite</text>
  <text x="360" y="80" fill="white" font-family="sans-serif" font-weight="bold" font-size="12" text-anchor="end" dominant-baseline="middle" transform="rotate(90 360 80)">floretta</text>
  <text x="395" y="80" fill="white" font-family="sans-serif" font-weight="bold" font-size="12" text-anchor="end" dominant-baseline="middle" transform="rotate(90 395 80)">forwarddiff-jl</text>
  <text x="430" y="80" fill="white" font-family="sans-serif" font-weight="bold" font-size="12" text-anchor="end" dominant-baseline="middle" transform="rotate(90 430 80)">futhark</text>
  <text x="465" y="80" fill="white" font-family="sans-serif" font-weight="bold" font-size="12" text-anchor="end" dominant-baseline="middle" transform="rotate(90 465 80)">haskell</text>
  <text x="500" y="80" fill="white" font-family="sans-serif" font-weight="bold" font-size="12" text-anchor="end" dominant-baseline="middle" transform="rotate(90 500 80)">jax</text>
  <text x="535" y="80" fill="white" font-family="sans-serif" font-weight="bold" font-size="12" text-anchor="end" dominant-baseline="middle" transform="rotate(90 535 80)">manual</text>
  <text x="570" y="80" fill="white" font-family="sans-serif" font-weight="bold" font-size="12" text-anchor="end" dominant-baseline="middle" transform="rotate(90 570 80)">mooncake-jl</text>
  <text x="605" y="80" fill="white" font-family="sans-serif" font-weight="bold" font-size="12" text-anchor="end" dominant-baseline="middle" transform="rotate(90 605 80)">ocaml</text>
  <text x="640" y="80" fill="white" font-family="sans-serif" font-weight="bold" font-size="12" text-anchor="end" dominant-baseline="middle" transform="rotate(90 640 80)">pytorch</text>
  <text x="675" y="80" fill="white" font-family="sans-serif" font-weight="bold" font-size="12" text-anchor="end" dominant-baseline="middle" transform="rotate(90 675 80)">reversediff-jl</text>
  <text x="710" y="80" fill="white" font-family="sans-serif" font-weight="bold" font-size="12" text-anchor="end" dominant-baseline="middle" transform="rotate(90 710 80)">scilean</text>
  <text x="745" y="80" fill="white" font-family="sans-serif" font-weight="bold" font-size="12" text-anchor="end" dominant-baseline="middle" transform="rotate(90 745 80)">tapenade</text>
  <text x="780" y="80" fill="white" font-family="sans-serif" font-weight="bold" font-size="12" text-anchor="end" dominant-baseline="middle" transform="rotate(90 780 80)">tensorflow</text>
  <text x="815" y="80" fill="white" font-family="sans-serif" font-weight="bold" font-size="12" text-anchor="end" dominant-baseline="middle" transform="rotate(90 815 80)">tensorflow-js</text>
  <text x="850" y="80" fill="white" font-family="sans-serif" font-weight="bold" font-size="12" text-anchor="end" dominant-baseline="middle" transform="rotate(90 850 80)">zygote</text>
  <rect x="65" y="85" width="30" height="30" fill="hsl(240 100% 80.65480486754205%)" />
  <rect x="100" y="85" width="30" height="30" fill="hsl(240 100% 82.70028444502523%)" />
  <rect x="135" y="85" width="30" height="30" fill="hsl(240 100% 97.93085869469043%)" />
  <rect x="170" y="85" width="30" height="30" fill="hsl(240 100% 81.6035147378571%)" />
  <rect x="205" y="85" width="30" height="30" fill="hsl(240 100% 98.94963804704614%)" />
  <rect x="240" y="85" width="30" height="30" fill="hsl(240 100% 50%)" />
  <rect x="310" y="85" width="30" height="30" fill="hsl(240 100% 92.86882788238212%)" />
  <rect x="415" y="85" width="30" height="30" fill="hsl(240 100% 67.32835458056891%)" />
  <rect x="520" y="85" width="30" height="30" fill="hsl(240 100% 54.070158026966205%)" />
  <rect x="625" y="85" width="30" height="30" fill="rgb(255 255 255 / 50%)" />
  <rect x="730" y="85" width="30" height="30" fill="hsl(240 100% 74.29546956293404%)" />
  <rect x="765" y="85" width="30" height="30" fill="rgb(255 255 255 / 50%)" />
  <rect x="835" y="85" width="30" height="30" fill="hsl(240 100% 99.7290922679094%)" />
  <rect x="65" y="120" width="30" height="30" fill="hsl(240 100% 50%)" />
  <rect x="100" y="120" width="30" height="30" fill="hsl(240 100% 83.62653518206055%)" />
  <rect x="135" y="120" width="30" height="30" fill="hsl(240 100% 85.37464750317342%)" />
  <rect x="170" y="120" width="30" height="30" fill="hsl(240 100% 51.47956582115407%)" />
  <rect x="205" y="120" width="30" height="30" fill="hsl(240 100% 92.58347833238425%)" />
  <rect x="240" y="120" width="30" height="30" fill="hsl(240 100% 91.36057233586477%)" />
  <rect x="275" y="120" width="30" height="30" fill="hsl(240 100% 99.33840057227351%)" />
  <rect x="310" y="120" width="30" height="30" fill="hsl(240 100% 98.97862525974674%)" />
  <rect x="380" y="120" width="30" height="30" fill="hsl(240 100% 93.2513910235698%)" />
  <rect x="415" y="120" width="30" height="30" fill="hsl(240 100% 94.53246086979962%)" />
  <rect x="450" y="120" width="30" height="30" fill="hsl(240 100% 97.83208003534354%)" />
  <rect x="520" y="120" width="30" height="30" fill="hsl(240 100% 79.26195341579935%)" />
  <rect x="555" y="120" width="30" height="30" fill="hsl(240 100% 89.86387308173836%)" />
  <rect x="660" y="120" width="30" height="30" fill="rgb(255 255 255 / 50%)" />
  <rect x="835" y="120" width="30" height="30" fill="rgb(255 255 255 / 50%)" />
  <rect x="65" y="155" width="30" height="30" fill="hsl(240 100% 98.48963505971665%)" />
  <rect x="100" y="155" width="30" height="30" fill="hsl(240 100% 98.77924561939926%)" />
  <rect x="135" y="155" width="30" height="30" fill="hsl(240 100% 99.09107391500793%)" />
  <rect x="170" y="155" width="30" height="30" fill="hsl(240 100% 97.99273249970489%)" />
  <rect x="205" y="155" width="30" height="30" fill="hsl(240 100% 99.8442818945954%)" />
  <rect x="240" y="155" width="30" height="30" fill="hsl(240 100% 90.81340455298269%)" />
  <rect x="275" y="155" width="30" height="30" fill="hsl(240 100% 93.08191476812019%)" />
  <rect x="310" y="155" width="30" height="30" fill="rgb(255 255 255 / 50%)" />
  <rect x="415" y="155" width="30" height="30" fill="hsl(240 100% 92.68823962540856%)" />
  <rect x="485" y="155" width="30" height="30" fill="hsl(240 100% 50%)" />
  <rect x="520" y="155" width="30" height="30" fill="hsl(240 100% 80.56177663246436%)" />
  <rect x="590" y="155" width="30" height="30" fill="hsl(240 100% 99.57009666084616%)" />
  <rect x="625" y="155" width="30" height="30" fill="hsl(240 100% 64.38015148240251%)" />
  <rect x="695" y="155" width="30" height="30" fill="hsl(240 100% 95.26754192106372%)" />
  <rect x="730" y="155" width="30" height="30" fill="hsl(240 100% 83.2211866933956%)" />
  <rect x="765" y="155" width="30" height="30" fill="hsl(240 100% 99.56421134023451%)" />
  <rect x="835" y="155" width="30" height="30" fill="hsl(240 100% 96.14973022559211%)" />
  <rect x="65" y="190" width="30" height="30" fill="hsl(240 100% 50%)" />
  <rect x="100" y="190" width="30" height="30" fill="hsl(240 100% 50%)" />
  <rect x="135" y="190" width="30" height="30" fill="hsl(240 100% 50%)" />
  <rect x="170" y="190" width="30" height="30" fill="hsl(240 100% 50%)" />
  <rect x="205" y="190" width="30" height="30" fill="hsl(240 100% 50%)" />
  <rect x="240" y="190" width="30" height="30" fill="hsl(240 100% 50%)" />
  <rect x="275" y="190" width="30" height="30" fill="hsl(240 100% 50%)" />
  <rect x="310" y="190" width="30" height="30" fill="hsl(240 100% 50%)" />
  <rect x="345" y="190" width="30" height="30" fill="hsl(240 100% 50%)" />
  <rect x="380" y="190" width="30" height="30" fill="hsl(240 100% 50%)" />
  <rect x="415" y="190" width="30" height="30" fill="hsl(240 100% 50%)" />
  <rect x="450" y="190" width="30" height="30" fill="hsl(240 100% 50%)" />
  <rect x="485" y="190" width="30" height="30" fill="hsl(240 100% 50%)" />
  <rect x="520" y="190" width="30" height="30" fill="hsl(240 100% 50%)" />
  <rect x="555" y="190" width="30" height="30" fill="hsl(240 100% 50%)" />
  <rect x="590" y="190" width="30" height="30" fill="hsl(240 100% 50%)" />
  <rect x="625" y="190" width="30" height="30" fill="hsl(240 100% 50%)" />
  <rect x="660" y="190" width="30" height="30" fill="hsl(240 100% 50%)" />
  <rect x="695" y="190" width="30" height="30" fill="hsl(240 100% 50%)" />
  <rect x="730" y="190" width="30" height="30" fill="hsl(240 100% 50%)" />
  <rect x="765" y="190" width="30" height="30" fill="hsl(240 100% 50%)" />
  <rect x="800" y="190" width="30" height="30" fill="hsl(240 100% 50%)" />
  <rect x="835" y="190" width="30" height="30" fill="hsl(240 100% 50%)" />
  <rect x="100" y="225" width="30" height="30" fill="hsl(240 100% 96.25461835418493%)" />
  <rect x="135" y="225" width="30" height="30" fill="hsl(240 100% 86.12855486093406%)" />
  <rect x="170" y="225" width="30" height="30" fill="hsl(240 100% 87.99100730861761%)" />
  <rect x="240" y="225" width="30" height="30" fill="hsl(240 100% 90.21362665790112%)" />
  <rect x="310" y="225" width="30" height="30" fill="rgb(255 255 255 / 50%)" />
  <rect x="415" y="225" width="30" height="30" fill="hsl(240 100% 89.37185880021256%)" />
  <rect x="520" y="225" width="30" height="30" fill="hsl(240 100% 50%)" />
  <rect x="625" y="225" width="30" height="30" fill="rgb(255 255 255 / 50%)" />
  <rect x="730" y="225" width="30" height="30" fill="hsl(240 100% 92.38130422864532%)" />
  <rect x="765" y="225" width="30" height="30" fill="rgb(255 255 255 / 50%)" />
  <rect x="835" y="225" width="30" height="30" fill="hsl(240 100% 93.47212693884168%)" />
  <rect x="65" y="260" width="30" height="30" fill="hsl(240 100% 99.86667430144735%)" />
  <rect x="135" y="260" width="30" height="30" fill="hsl(240 100% 99.85679222439009%)" />
  <rect x="170" y="260" width="30" height="30" fill="hsl(240 100% 98.9114792572557%)" />
  <rect x="205" y="260" width="30" height="30" fill="rgb(255 255 255 / 50%)" />
  <rect x="240" y="260" width="30" height="30" fill="hsl(240 100% 87.08057123361779%)" />
  <rect x="310" y="260" width="30" height="30" fill="rgb(255 255 255 / 50%)" />
  <rect x="415" y="260" width="30" height="30" fill="hsl(240 100% 80.7139237323338%)" />
  <rect x="450" y="260" width="30" height="30" fill="rgb(255 255 255 / 50%)" />
  <rect x="485" y="260" width="30" height="30" fill="hsl(240 100% 50%)" />
  <rect x="520" y="260" width="30" height="30" fill="hsl(240 100% 72.27104044167123%)" />
  <rect x="625" y="260" width="30" height="30" fill="hsl(240 100% 96.96225085497956%)" />
  <rect x="695" y="260" width="30" height="30" fill="hsl(240 100% 94.09940920677978%)" />
  <rect x="65" y="295" width="30" height="30" fill="hsl(240 100% 86.22786902301337%)" />
  <rect x="100" y="295" width="30" height="30" fill="hsl(240 100% 97.57389947854392%)" />
  <rect x="135" y="295" width="30" height="30" fill="hsl(240 100% 95.24135751254396%)" />
  <rect x="170" y="295" width="30" height="30" fill="hsl(240 100% 89.39039485744227%)" />
  <rect x="205" y="295" width="30" height="30" fill="hsl(240 100% 99.48488523950654%)" />
  <rect x="240" y="295" width="30" height="30" fill="hsl(240 100% 50.68679745337748%)" />
  <rect x="275" y="295" width="30" height="30" fill="hsl(240 100% 50%)" />
  <rect x="310" y="295" width="30" height="30" fill="hsl(240 100% 99.50096294709218%)" />
  <rect x="345" y="295" width="30" height="30" fill="hsl(240 100% 94.77536236118034%)" />
  <rect x="415" y="295" width="30" height="30" fill="hsl(240 100% 55.30643981316812%)" />
  <rect x="450" y="295" width="30" height="30" fill="hsl(240 100% 99.31976503195523%)" />
  <rect x="485" y="295" width="30" height="30" fill="hsl(240 100% 88.150088337809%)" />
  <rect x="520" y="295" width="30" height="30" fill="hsl(240 100% 57.924452368604534%)" />
  <rect x="695" y="295" width="30" height="30" fill="hsl(240 100% 97.60931099113287%)" />
  <rect x="800" y="295" width="30" height="30" fill="hsl(240 100% 99.5697585840703%)" />
  <rect x="835" y="295" width="30" height="30" fill="hsl(240 100% 99.95386632758013%)" />
  <rect x="65" y="330" width="30" height="30" fill="hsl(240 100% 88.29460610485495%)" />
  <rect x="100" y="330" width="30" height="30" fill="hsl(240 100% 94.749642528206%)" />
  <rect x="135" y="330" width="30" height="30" fill="hsl(240 100% 97.22222356101463%)" />
  <rect x="170" y="330" width="30" height="30" fill="hsl(240 100% 88.00448985886624%)" />
  <rect x="205" y="330" width="30" height="30" fill="hsl(240 100% 99.26902440377235%)" />
  <rect x="240" y="330" width="30" height="30" fill="hsl(240 100% 81.46247388372754%)" />
  <rect x="275" y="330" width="30" height="30" fill="hsl(240 100% 88.33731740275583%)" />
  <rect x="310" y="330" width="30" height="30" fill="rgb(255 255 255 / 50%)" />
  <rect x="345" y="330" width="30" height="30" fill="hsl(240 100% 97.45089987457455%)" />
  <rect x="415" y="330" width="30" height="30" fill="hsl(240 100% 86.86918750864488%)" />
  <rect x="450" y="330" width="30" height="30" fill="hsl(240 100% 99.82393077432664%)" />
  <rect x="485" y="330" width="30" height="30" fill="hsl(240 100% 73.24531934179295%)" />
  <rect x="520" y="330" width="30" height="30" fill="hsl(240 100% 73.0511397668604%)" />
  <rect x="590" y="330" width="30" height="30" fill="hsl(240 100% 94.21212347498397%)" />
  <rect x="625" y="330" width="30" height="30" fill="hsl(240 100% 50%)" />
  <rect x="765" y="330" width="30" height="30" fill="hsl(240 100% 95.71590496932129%)" />
  <rect x="800" y="330" width="30" height="30" fill="hsl(240 100% 99.28353590448728%)" />
  <rect x="835" y="330" width="30" height="30" fill="hsl(240 100% 82.51807387809816%)" />
  <rect x="65" y="365" width="30" height="30" fill="hsl(240 100% 57.761035956956555%)" />
  <rect x="100" y="365" width="30" height="30" fill="hsl(240 100% 71.42510793254903%)" />
  <rect x="135" y="365" width="30" height="30" fill="hsl(240 100% 82.07164295011994%)" />
  <rect x="170" y="365" width="30" height="30" fill="hsl(240 100% 50%)" />
  <rect x="205" y="365" width="30" height="30" fill="hsl(240 100% 95.97038942573694%)" />
  <rect x="240" y="365" width="30" height="30" fill="hsl(240 100% 59.00138662537546%)" />
  <rect x="275" y="365" width="30" height="30" fill="hsl(240 100% 92.30210158253804%)" />
  <rect x="310" y="365" width="30" height="30" fill="hsl(240 100% 99.86091743941877%)" />
  <rect x="415" y="365" width="30" height="30" fill="hsl(240 100% 66.65762587240371%)" />
  <rect x="520" y="365" width="30" height="30" fill="hsl(240 100% 86.11253987774562%)" />
  <rect x="625" y="365" width="30" height="30" fill="hsl(240 100% 99.63593558640558%)" />
  <rect x="730" y="365" width="30" height="30" fill="hsl(240 100% 63.12340443976597%)" />
  <rect x="765" y="365" width="30" height="30" fill="hsl(240 100% 98.17982413074088%)" />
  <rect x="835" y="365" width="30" height="30" fill="hsl(240 100% 98.76161209270822%)" />
  <rect x="65" y="400" width="30" height="30" fill="hsl(240 100% 98.17361485065875%)" />
  <rect x="100" y="400" width="30" height="30" fill="hsl(240 100% 99.43406877244698%)" />
  <rect x="135" y="400" width="30" height="30" fill="hsl(240 100% 99.66337740098997%)" />
  <rect x="170" y="400" width="30" height="30" fill="hsl(240 100% 94.01592224359092%)" />
  <rect x="205" y="400" width="30" height="30" fill="hsl(240 100% 99.2393244961036%)" />
  <rect x="240" y="400" width="30" height="30" fill="hsl(240 100% 86.29704618333021%)" />
  <rect x="275" y="400" width="30" height="30" fill="hsl(240 100% 95.48309101087285%)" />
  <rect x="310" y="400" width="30" height="30" fill="rgb(255 255 255 / 50%)" />
  <rect x="380" y="400" width="30" height="30" fill="rgb(255 255 255 / 50%)" />
  <rect x="415" y="400" width="30" height="30" fill="hsl(240 100% 94.03195117437339%)" />
  <rect x="450" y="400" width="30" height="30" fill="hsl(240 100% 99.9715832808291%)" />
  <rect x="485" y="400" width="30" height="30" fill="hsl(240 100% 79.19405756731662%)" />
  <rect x="520" y="400" width="30" height="30" fill="hsl(240 100% 50%)" />
  <rect x="555" y="400" width="30" height="30" fill="hsl(240 100% 99.12110594044364%)" />
  <rect x="660" y="400" width="30" height="30" fill="rgb(255 255 255 / 50%)" />
  <rect x="835" y="400" width="30" height="30" fill="hsl(240 100% 99.17571125496956%)" />
  <rect x="65" y="435" width="30" height="30" fill="hsl(240 100% 93.31016899391845%)" />
  <rect x="240" y="435" width="30" height="30" fill="hsl(240 100% 50%)" />
  <rect x="310" y="435" width="30" height="30" fill="hsl(240 100% 93.85990743261365%)" />
  <rect x="415" y="435" width="30" height="30" fill="hsl(240 100% 87.01711628539827%)" />
  <rect x="450" y="435" width="30" height="30" fill="hsl(240 100% 99.78332427031576%)" />
  <rect x="65" y="470" width="30" height="30" fill="hsl(240 100% 50.13582696071354%)" />
  <rect x="240" y="470" width="30" height="30" fill="hsl(240 100% 50%)" />
  <rect x="310" y="470" width="30" height="30" fill="hsl(240 100% 96.9764044422509%)" />
  <rect x="415" y="470" width="30" height="30" fill="hsl(240 100% 89.10958578711173%)" />
  <rect x="450" y="470" width="30" height="30" fill="hsl(240 100% 99.57414628300471%)" />
</svg>
