<svg xmlns="http://www.w3.org/2000/svg" viewBox="0 0 730 505">
  <rect x="0" y="0" width="730" height="505" rx="5" ry="5" fill="#222" />
  <text x="60" y="100" fill="white" font-family="sans-serif" font-weight="bold" font-size="12" text-anchor="end" dominant-baseline="middle">ba</text>
  <text x="60" y="135" fill="white" font-family="sans-serif" font-weight="bold" font-size="12" text-anchor="end" dominant-baseline="middle">det</text>
  <text x="60" y="170" fill="white" font-family="sans-serif" font-weight="bold" font-size="12" text-anchor="end" dominant-baseline="middle">gmm</text>
  <text x="60" y="205" fill="white" font-family="sans-serif" font-weight="bold" font-size="12" text-anchor="end" dominant-baseline="middle">hello</text>
  <text x="60" y="240" fill="white" font-family="sans-serif" font-weight="bold" font-size="12" text-anchor="end" dominant-baseline="middle">ht</text>
  <text x="60" y="275" fill="white" font-family="sans-serif" font-weight="bold" font-size="12" text-anchor="end" dominant-baseline="middle">kmeans</text>
  <text x="60" y="310" fill="white" font-family="sans-serif" font-weight="bold" font-size="12" text-anchor="end" dominant-baseline="middle">llsq</text>
  <text x="60" y="345" fill="white" font-family="sans-serif" font-weight="bold" font-size="12" text-anchor="end" dominant-baseline="middle">lse</text>
  <text x="60" y="380" fill="white" font-family="sans-serif" font-weight="bold" font-size="12" text-anchor="end" dominant-baseline="middle">lstm</text>
  <text x="60" y="415" fill="white" font-family="sans-serif" font-weight="bold" font-size="12" text-anchor="end" dominant-baseline="middle">ode</text>
  <text x="60" y="450" fill="white" font-family="sans-serif" font-weight="bold" font-size="12" text-anchor="end" dominant-baseline="middle">particle</text>
  <text x="60" y="485" fill="white" font-family="sans-serif" font-weight="bold" font-size="12" text-anchor="end" dominant-baseline="middle">saddle</text>
  <text x="80" y="80" fill="white" font-family="sans-serif" font-weight="bold" font-size="12" text-anchor="end" dominant-baseline="middle" transform="rotate(90 80 80)">ad-hpp</text>
  <text x="115" y="80" fill="white" font-family="sans-serif" font-weight="bold" font-size="12" text-anchor="end" dominant-baseline="middle" transform="rotate(90 115 80)">adept</text>
  <text x="150" y="80" fill="white" font-family="sans-serif" font-weight="bold" font-size="12" text-anchor="end" dominant-baseline="middle" transform="rotate(90 150 80)">adol-c</text>
  <text x="185" y="80" fill="white" font-family="sans-serif" font-weight="bold" font-size="12" text-anchor="end" dominant-baseline="middle" transform="rotate(90 185 80)">codipack</text>
  <text x="220" y="80" fill="white" font-family="sans-serif" font-weight="bold" font-size="12" text-anchor="end" dominant-baseline="middle" transform="rotate(90 220 80)">cppad</text>
  <text x="255" y="80" fill="white" font-family="sans-serif" font-weight="bold" font-size="12" text-anchor="end" dominant-baseline="middle" transform="rotate(90 255 80)">enzyme</text>
  <text x="290" y="80" fill="white" font-family="sans-serif" font-weight="bold" font-size="12" text-anchor="end" dominant-baseline="middle" transform="rotate(90 290 80)">enzyme-jl</text>
  <text x="325" y="80" fill="white" font-family="sans-serif" font-weight="bold" font-size="12" text-anchor="end" dominant-baseline="middle" transform="rotate(90 325 80)">finite</text>
  <text x="360" y="80" fill="white" font-family="sans-serif" font-weight="bold" font-size="12" text-anchor="end" dominant-baseline="middle" transform="rotate(90 360 80)">floretta</text>
  <text x="395" y="80" fill="white" font-family="sans-serif" font-weight="bold" font-size="12" text-anchor="end" dominant-baseline="middle" transform="rotate(90 395 80)">futhark</text>
  <text x="430" y="80" fill="white" font-family="sans-serif" font-weight="bold" font-size="12" text-anchor="end" dominant-baseline="middle" transform="rotate(90 430 80)">haskell</text>
  <text x="465" y="80" fill="white" font-family="sans-serif" font-weight="bold" font-size="12" text-anchor="end" dominant-baseline="middle" transform="rotate(90 465 80)">jax</text>
  <text x="500" y="80" fill="white" font-family="sans-serif" font-weight="bold" font-size="12" text-anchor="end" dominant-baseline="middle" transform="rotate(90 500 80)">manual</text>
  <text x="535" y="80" fill="white" font-family="sans-serif" font-weight="bold" font-size="12" text-anchor="end" dominant-baseline="middle" transform="rotate(90 535 80)">ocaml</text>
  <text x="570" y="80" fill="white" font-family="sans-serif" font-weight="bold" font-size="12" text-anchor="end" dominant-baseline="middle" transform="rotate(90 570 80)">pytorch</text>
  <text x="605" y="80" fill="white" font-family="sans-serif" font-weight="bold" font-size="12" text-anchor="end" dominant-baseline="middle" transform="rotate(90 605 80)">scilean</text>
  <text x="640" y="80" fill="white" font-family="sans-serif" font-weight="bold" font-size="12" text-anchor="end" dominant-baseline="middle" transform="rotate(90 640 80)">tapenade</text>
  <text x="675" y="80" fill="white" font-family="sans-serif" font-weight="bold" font-size="12" text-anchor="end" dominant-baseline="middle" transform="rotate(90 675 80)">tensorflow</text>
  <text x="710" y="80" fill="white" font-family="sans-serif" font-weight="bold" font-size="12" text-anchor="end" dominant-baseline="middle" transform="rotate(90 710 80)">zygote</text>
  <rect x="65" y="85" width="30" height="30" fill="hsl(240 100% 80.80421397820842%)" />
  <rect x="100" y="85" width="30" height="30" fill="hsl(240 100% 82.70588650251118%)" />
  <rect x="135" y="85" width="30" height="30" fill="hsl(240 100% 97.95760958147194%)" />
  <rect x="170" y="85" width="30" height="30" fill="hsl(240 100% 82.2855237593374%)" />
  <rect x="205" y="85" width="30" height="30" fill="hsl(240 100% 98.98797848028241%)" />
  <rect x="240" y="85" width="30" height="30" fill="hsl(240 100% 51.487029616569245%)" />
  <rect x="310" y="85" width="30" height="30" fill="hsl(240 100% 93.25566656494493%)" />
  <rect x="380" y="85" width="30" height="30" fill="hsl(240 100% 67.85185906232626%)" />
  <rect x="485" y="85" width="30" height="30" fill="hsl(240 100% 50%)" />
  <rect x="555" y="85" width="30" height="30" fill="rgb(255 255 255 / 50%)" />
  <rect x="625" y="85" width="30" height="30" fill="hsl(240 100% 74.72495314602183%)" />
  <rect x="660" y="85" width="30" height="30" fill="rgb(255 255 255 / 50%)" />
  <rect x="695" y="85" width="30" height="30" fill="hsl(240 100% 99.72606029772369%)" />
  <rect x="65" y="120" width="30" height="30" fill="hsl(240 100% 50%)" />
  <rect x="100" y="120" width="30" height="30" fill="hsl(240 100% 84.20051303346429%)" />
  <rect x="135" y="120" width="30" height="30" fill="hsl(240 100% 85.95268505675041%)" />
  <rect x="170" y="120" width="30" height="30" fill="hsl(240 100% 52.14490940382999%)" />
  <rect x="205" y="120" width="30" height="30" fill="hsl(240 100% 92.56552324133057%)" />
  <rect x="240" y="120" width="30" height="30" fill="hsl(240 100% 92.12103141674481%)" />
  <rect x="275" y="120" width="30" height="30" fill="hsl(240 100% 99.19747096611512%)" />
  <rect x="310" y="120" width="30" height="30" fill="hsl(240 100% 98.99962203935354%)" />
  <rect x="380" y="120" width="30" height="30" fill="hsl(240 100% 94.59231793728931%)" />
  <rect x="415" y="120" width="30" height="30" fill="hsl(240 100% 98.06209253884072%)" />
  <rect x="485" y="120" width="30" height="30" fill="hsl(240 100% 79.64027058618169%)" />
  <rect x="695" y="120" width="30" height="30" fill="rgb(255 255 255 / 50%)" />
  <rect x="65" y="155" width="30" height="30" fill="hsl(240 100% 96.97784058258071%)" />
  <rect x="100" y="155" width="30" height="30" fill="hsl(240 100% 98.21895299358003%)" />
  <rect x="135" y="155" width="30" height="30" fill="hsl(240 100% 98.83121405298995%)" />
  <rect x="170" y="155" width="30" height="30" fill="hsl(240 100% 97.15063286080861%)" />
  <rect x="205" y="155" width="30" height="30" fill="hsl(240 100% 99.75976789793059%)" />
  <rect x="240" y="155" width="30" height="30" fill="hsl(240 100% 86.41196563894742%)" />
  <rect x="275" y="155" width="30" height="30" fill="hsl(240 100% 99.81939580201959%)" />
  <rect x="310" y="155" width="30" height="30" fill="rgb(255 255 255 / 50%)" />
  <rect x="380" y="155" width="30" height="30" fill="hsl(240 100% 88.8648523640618%)" />
  <rect x="450" y="155" width="30" height="30" fill="hsl(240 100% 68.774063235538%)" />
  <rect x="485" y="155" width="30" height="30" fill="hsl(240 100% 70.84805180417112%)" />
  <rect x="520" y="155" width="30" height="30" fill="hsl(240 100% 99.33855138361375%)" />
  <rect x="555" y="155" width="30" height="30" fill="hsl(240 100% 50%)" />
  <rect x="590" y="155" width="30" height="30" fill="hsl(240 100% 92.40785737314832%)" />
  <rect x="625" y="155" width="30" height="30" fill="hsl(240 100% 74.56437805347102%)" />
  <rect x="660" y="155" width="30" height="30" fill="hsl(240 100% 88.66876547328351%)" />
  <rect x="695" y="155" width="30" height="30" fill="hsl(240 100% 99.36442157222119%)" />
  <rect x="65" y="190" width="30" height="30" fill="hsl(240 100% 50%)" />
  <rect x="100" y="190" width="30" height="30" fill="hsl(240 100% 50%)" />
  <rect x="135" y="190" width="30" height="30" fill="hsl(240 100% 50%)" />
  <rect x="170" y="190" width="30" height="30" fill="hsl(240 100% 50%)" />
  <rect x="205" y="190" width="30" height="30" fill="hsl(240 100% 50%)" />
  <rect x="240" y="190" width="30" height="30" fill="hsl(240 100% 50%)" />
  <rect x="275" y="190" width="30" height="30" fill="hsl(240 100% 50%)" />
  <rect x="310" y="190" width="30" height="30" fill="hsl(240 100% 50%)" />
  <rect x="345" y="190" width="30" height="30" fill="hsl(240 100% 50%)" />
  <rect x="380" y="190" width="30" height="30" fill="hsl(240 100% 50%)" />
  <rect x="415" y="190" width="30" height="30" fill="hsl(240 100% 50%)" />
  <rect x="450" y="190" width="30" height="30" fill="hsl(240 100% 50%)" />
  <rect x="485" y="190" width="30" height="30" fill="hsl(240 100% 50%)" />
  <rect x="520" y="190" width="30" height="30" fill="hsl(240 100% 50%)" />
  <rect x="555" y="190" width="30" height="30" fill="hsl(240 100% 50%)" />
  <rect x="590" y="190" width="30" height="30" fill="hsl(240 100% 50%)" />
  <rect x="625" y="190" width="30" height="30" fill="hsl(240 100% 50%)" />
  <rect x="660" y="190" width="30" height="30" fill="hsl(240 100% 50%)" />
  <rect x="695" y="190" width="30" height="30" fill="hsl(240 100% 50%)" />
  <rect x="100" y="225" width="30" height="30" fill="hsl(240 100% 96.6269899315741%)" />
  <rect x="135" y="225" width="30" height="30" fill="hsl(240 100% 89.13173030772435%)" />
  <rect x="170" y="225" width="30" height="30" fill="hsl(240 100% 89.1139795562413%)" />
  <rect x="240" y="225" width="30" height="30" fill="hsl(240 100% 91.20165288150024%)" />
  <rect x="310" y="225" width="30" height="30" fill="rgb(255 255 255 / 50%)" />
  <rect x="380" y="225" width="30" height="30" fill="hsl(240 100% 90.45303565401586%)" />
  <rect x="485" y="225" width="30" height="30" fill="hsl(240 100% 50%)" />
  <rect x="555" y="225" width="30" height="30" fill="rgb(255 255 255 / 50%)" />
  <rect x="625" y="225" width="30" height="30" fill="hsl(240 100% 93.47376935700078%)" />
  <rect x="660" y="225" width="30" height="30" fill="rgb(255 255 255 / 50%)" />
  <rect x="695" y="225" width="30" height="30" fill="hsl(240 100% 99.44658582405822%)" />
  <rect x="65" y="260" width="30" height="30" fill="hsl(240 100% 99.89452054175493%)" />
  <rect x="135" y="260" width="30" height="30" fill="hsl(240 100% 99.91454121137366%)" />
  <rect x="170" y="260" width="30" height="30" fill="hsl(240 100% 98.97773141548996%)" />
  <rect x="205" y="260" width="30" height="30" fill="rgb(255 255 255 / 50%)" />
  <rect x="240" y="260" width="30" height="30" fill="hsl(240 100% 87.02166670474044%)" />
  <rect x="310" y="260" width="30" height="30" fill="rgb(255 255 255 / 50%)" />
  <rect x="380" y="260" width="30" height="30" fill="hsl(240 100% 80.78877674742102%)" />
  <rect x="415" y="260" width="30" height="30" fill="rgb(255 255 255 / 50%)" />
  <rect x="450" y="260" width="30" height="30" fill="hsl(240 100% 50%)" />
  <rect x="485" y="260" width="30" height="30" fill="hsl(240 100% 71.06861835036763%)" />
  <rect x="555" y="260" width="30" height="30" fill="hsl(240 100% 96.98140700531334%)" />
  <rect x="590" y="260" width="30" height="30" fill="hsl(240 100% 94.0418209763659%)" />
  <rect x="65" y="295" width="30" height="30" fill="hsl(240 100% 85.90777153103907%)" />
  <rect x="100" y="295" width="30" height="30" fill="hsl(240 100% 97.45809603534946%)" />
  <rect x="135" y="295" width="30" height="30" fill="hsl(240 100% 95.03337136502559%)" />
  <rect x="170" y="295" width="30" height="30" fill="hsl(240 100% 90.56392755545761%)" />
  <rect x="205" y="295" width="30" height="30" fill="hsl(240 100% 99.46208466295403%)" />
  <rect x="240" y="295" width="30" height="30" fill="hsl(240 100% 50%)" />
  <rect x="275" y="295" width="30" height="30" fill="hsl(240 100% 99.87318494696022%)" />
  <rect x="310" y="295" width="30" height="30" fill="hsl(240 100% 99.4932149139305%)" />
  <rect x="345" y="295" width="30" height="30" fill="hsl(240 100% 95.38220188071689%)" />
  <rect x="380" y="295" width="30" height="30" fill="hsl(240 100% 54.65833246212525%)" />
  <rect x="415" y="295" width="30" height="30" fill="hsl(240 100% 99.32283153626841%)" />
  <rect x="450" y="295" width="30" height="30" fill="hsl(240 100% 87.9677829155212%)" />
  <rect x="485" y="295" width="30" height="30" fill="hsl(240 100% 57.32196562329331%)" />
  <rect x="590" y="295" width="30" height="30" fill="hsl(240 100% 97.57718529286278%)" />
  <rect x="695" y="295" width="30" height="30" fill="hsl(240 100% 99.97350202139866%)" />
  <rect x="65" y="330" width="30" height="30" fill="hsl(240 100% 87.94124407706377%)" />
  <rect x="100" y="330" width="30" height="30" fill="hsl(240 100% 94.63875682586433%)" />
  <rect x="135" y="330" width="30" height="30" fill="hsl(240 100% 97.07203568034454%)" />
  <rect x="170" y="330" width="30" height="30" fill="hsl(240 100% 87.45209812978904%)" />
  <rect x="205" y="330" width="30" height="30" fill="hsl(240 100% 99.22004358032991%)" />
  <rect x="240" y="330" width="30" height="30" fill="hsl(240 100% 78.35310027617419%)" />
  <rect x="275" y="330" width="30" height="30" fill="hsl(240 100% 99.82550394325098%)" />
  <rect x="310" y="330" width="30" height="30" fill="rgb(255 255 255 / 50%)" />
  <rect x="345" y="330" width="30" height="30" fill="hsl(240 100% 97.20686847947034%)" />
  <rect x="380" y="330" width="30" height="30" fill="hsl(240 100% 85.73736792425397%)" />
  <rect x="415" y="330" width="30" height="30" fill="hsl(240 100% 99.80753804483349%)" />
  <rect x="450" y="330" width="30" height="30" fill="hsl(240 100% 69.67935821369925%)" />
  <rect x="485" y="330" width="30" height="30" fill="hsl(240 100% 73.33627604077435%)" />
  <rect x="520" y="330" width="30" height="30" fill="hsl(240 100% 93.7128234873669%)" />
  <rect x="555" y="330" width="30" height="30" fill="hsl(240 100% 50%)" />
  <rect x="660" y="330" width="30" height="30" fill="hsl(240 100% 93.74358995262861%)" />
  <rect x="695" y="330" width="30" height="30" fill="hsl(240 100% 95.05929880843604%)" />
  <rect x="65" y="365" width="30" height="30" fill="hsl(240 100% 56.91074552537065%)" />
  <rect x="100" y="365" width="30" height="30" fill="hsl(240 100% 71.66174093814328%)" />
  <rect x="135" y="365" width="30" height="30" fill="hsl(240 100% 82.04376097333284%)" />
  <rect x="170" y="365" width="30" height="30" fill="hsl(240 100% 50%)" />
  <rect x="205" y="365" width="30" height="30" fill="hsl(240 100% 96.19999882246249%)" />
  <rect x="240" y="365" width="30" height="30" fill="hsl(240 100% 59.53461273219954%)" />
  <rect x="275" y="365" width="30" height="30" fill="hsl(240 100% 98.97807475751326%)" />
  <rect x="310" y="365" width="30" height="30" fill="hsl(240 100% 99.86118500432083%)" />
  <rect x="380" y="365" width="30" height="30" fill="hsl(240 100% 66.32581081322398%)" />
  <rect x="485" y="365" width="30" height="30" fill="hsl(240 100% 85.85704211402742%)" />
  <rect x="555" y="365" width="30" height="30" fill="hsl(240 100% 99.64095442007635%)" />
  <rect x="625" y="365" width="30" height="30" fill="hsl(240 100% 63.450339746757194%)" />
  <rect x="660" y="365" width="30" height="30" fill="hsl(240 100% 98.16982574274152%)" />
  <rect x="695" y="365" width="30" height="30" fill="hsl(240 100% 99.18708409859956%)" />
  <rect x="65" y="400" width="30" height="30" fill="hsl(240 100% 97.8022696642525%)" />
  <rect x="100" y="400" width="30" height="30" fill="hsl(240 100% 99.33243014570186%)" />
  <rect x="135" y="400" width="30" height="30" fill="hsl(240 100% 99.608950314146%)" />
  <rect x="170" y="400" width="30" height="30" fill="hsl(240 100% 94.52035779750071%)" />
  <rect x="205" y="400" width="30" height="30" fill="hsl(240 100% 99.08358200179313%)" />
  <rect x="240" y="400" width="30" height="30" fill="hsl(240 100% 86.69847027278435%)" />
  <rect x="275" y="400" width="30" height="30" fill="hsl(240 100% 99.1608188866792%)" />
  <rect x="310" y="400" width="30" height="30" fill="rgb(255 255 255 / 50%)" />
  <rect x="380" y="400" width="30" height="30" fill="hsl(240 100% 92.81294573015607%)" />
  <rect x="415" y="400" width="30" height="30" fill="hsl(240 100% 99.96654187162538%)" />
  <rect x="450" y="400" width="30" height="30" fill="hsl(240 100% 74.6633209525538%)" />
  <rect x="485" y="400" width="30" height="30" fill="hsl(240 100% 50%)" />
  <rect x="695" y="400" width="30" height="30" fill="hsl(240 100% 99.6582955034898%)" />
  <rect x="65" y="435" width="30" height="30" fill="hsl(240 100% 93.11040948265546%)" />
  <rect x="240" y="435" width="30" height="30" fill="hsl(240 100% 50%)" />
  <rect x="310" y="435" width="30" height="30" fill="hsl(240 100% 94.3179564643922%)" />
  <rect x="380" y="435" width="30" height="30" fill="hsl(240 100% 87.01420194997196%)" />
  <rect x="415" y="435" width="30" height="30" fill="hsl(240 100% 99.78748946867219%)" />
  <rect x="65" y="470" width="30" height="30" fill="hsl(240 100% 50%)" />
  <rect x="240" y="470" width="30" height="30" fill="hsl(240 100% 50.46789008236232%)" />
  <rect x="310" y="470" width="30" height="30" fill="hsl(240 100% 97.16816318042703%)" />
  <rect x="380" y="470" width="30" height="30" fill="hsl(240 100% 89.14616591109296%)" />
  <rect x="415" y="470" width="30" height="30" fill="hsl(240 100% 99.585054398298%)" />
</svg>
