<svg xmlns="http://www.w3.org/2000/svg" viewBox="0 0 660 295">
  <rect x="0" y="0" width="660" height="295" rx="5" ry="5" fill="#222" />
  <text x="60" y="100" fill="white" font-family="sans-serif" font-weight="bold" font-size="12" text-anchor="end" dominant-baseline="middle">ba</text>
  <text x="60" y="135" fill="white" font-family="sans-serif" font-weight="bold" font-size="12" text-anchor="end" dominant-baseline="middle">gmm</text>
  <text x="60" y="170" fill="white" font-family="sans-serif" font-weight="bold" font-size="12" text-anchor="end" dominant-baseline="middle">hello</text>
  <text x="60" y="205" fill="white" font-family="sans-serif" font-weight="bold" font-size="12" text-anchor="end" dominant-baseline="middle">ht</text>
  <text x="60" y="240" fill="white" font-family="sans-serif" font-weight="bold" font-size="12" text-anchor="end" dominant-baseline="middle">kmeans</text>
  <text x="60" y="275" fill="white" font-family="sans-serif" font-weight="bold" font-size="12" text-anchor="end" dominant-baseline="middle">lstm</text>
  <text x="80" y="80" fill="white" font-family="sans-serif" font-weight="bold" font-size="12" text-anchor="end" dominant-baseline="middle" transform="rotate(90 80 80)">adept</text>
  <text x="115" y="80" fill="white" font-family="sans-serif" font-weight="bold" font-size="12" text-anchor="end" dominant-baseline="middle" transform="rotate(90 115 80)">adol-c</text>
  <text x="150" y="80" fill="white" font-family="sans-serif" font-weight="bold" font-size="12" text-anchor="end" dominant-baseline="middle" transform="rotate(90 150 80)">codipack</text>
  <text x="185" y="80" fill="white" font-family="sans-serif" font-weight="bold" font-size="12" text-anchor="end" dominant-baseline="middle" transform="rotate(90 185 80)">cppad</text>
  <text x="220" y="80" fill="white" font-family="sans-serif" font-weight="bold" font-size="12" text-anchor="end" dominant-baseline="middle" transform="rotate(90 220 80)">enzyme</text>
  <text x="255" y="80" fill="white" font-family="sans-serif" font-weight="bold" font-size="12" text-anchor="end" dominant-baseline="middle" transform="rotate(90 255 80)">finite</text>
  <text x="290" y="80" fill="white" font-family="sans-serif" font-weight="bold" font-size="12" text-anchor="end" dominant-baseline="middle" transform="rotate(90 290 80)">floretta</text>
  <text x="325" y="80" fill="white" font-family="sans-serif" font-weight="bold" font-size="12" text-anchor="end" dominant-baseline="middle" transform="rotate(90 325 80)">futhark</text>
  <text x="360" y="80" fill="white" font-family="sans-serif" font-weight="bold" font-size="12" text-anchor="end" dominant-baseline="middle" transform="rotate(90 360 80)">haskell</text>
  <text x="395" y="80" fill="white" font-family="sans-serif" font-weight="bold" font-size="12" text-anchor="end" dominant-baseline="middle" transform="rotate(90 395 80)">jax</text>
  <text x="430" y="80" fill="white" font-family="sans-serif" font-weight="bold" font-size="12" text-anchor="end" dominant-baseline="middle" transform="rotate(90 430 80)">manual</text>
  <text x="465" y="80" fill="white" font-family="sans-serif" font-weight="bold" font-size="12" text-anchor="end" dominant-baseline="middle" transform="rotate(90 465 80)">ocaml</text>
  <text x="500" y="80" fill="white" font-family="sans-serif" font-weight="bold" font-size="12" text-anchor="end" dominant-baseline="middle" transform="rotate(90 500 80)">pytorch</text>
  <text x="535" y="80" fill="white" font-family="sans-serif" font-weight="bold" font-size="12" text-anchor="end" dominant-baseline="middle" transform="rotate(90 535 80)">scilean</text>
  <text x="570" y="80" fill="white" font-family="sans-serif" font-weight="bold" font-size="12" text-anchor="end" dominant-baseline="middle" transform="rotate(90 570 80)">tapenade</text>
  <text x="605" y="80" fill="white" font-family="sans-serif" font-weight="bold" font-size="12" text-anchor="end" dominant-baseline="middle" transform="rotate(90 605 80)">tensorflow</text>
  <text x="640" y="80" fill="white" font-family="sans-serif" font-weight="bold" font-size="12" text-anchor="end" dominant-baseline="middle" transform="rotate(90 640 80)">zygote</text>
  <rect x="65" y="85" width="30" height="30" fill="hsl(240 100% 84.27484798601553%)" />
  <rect x="100" y="85" width="30" height="30" fill="hsl(240 100% 98.01440831492089%)" />
  <rect x="135" y="85" width="30" height="30" fill="hsl(240 100% 89.50227860880258%)" />
  <rect x="205" y="85" width="30" height="30" fill="hsl(240 100% 50.07659225918706%)" />
  <rect x="240" y="85" width="30" height="30" fill="hsl(240 100% 91.88408223484406%)" />
  <rect x="310" y="85" width="30" height="30" fill="hsl(240 100% 76.87191721139247%)" />
  <rect x="415" y="85" width="30" height="30" fill="hsl(240 100% 50%)" />
  <rect x="485" y="85" width="30" height="30" fill="hsl(240 100% 99.99206521740639%)" />
  <rect x="555" y="85" width="30" height="30" fill="hsl(240 100% 73.48563770094914%)" />
  <rect x="590" y="85" width="30" height="30" fill="hsl(240 100% 99.98405431642819%)" />
  <rect x="65" y="120" width="30" height="30" fill="hsl(240 100% 96.86581141932278%)" />
  <rect x="100" y="120" width="30" height="30" fill="hsl(240 100% 97.2750361905971%)" />
  <rect x="135" y="120" width="30" height="30" fill="hsl(240 100% 76.8253202681064%)" />
  <rect x="170" y="120" width="30" height="30" fill="hsl(240 100% 98.13550240770245%)" />
  <rect x="205" y="120" width="30" height="30" fill="hsl(240 100% 83.19290137891363%)" />
  <rect x="240" y="120" width="30" height="30" fill="hsl(240 100% 99.99477931439154%)" />
  <rect x="310" y="120" width="30" height="30" fill="hsl(240 100% 81.78139647305747%)" />
  <rect x="380" y="120" width="30" height="30" fill="hsl(240 100% 70.7494290775356%)" />
  <rect x="415" y="120" width="30" height="30" fill="hsl(240 100% 61.73908926386874%)" />
  <rect x="450" y="120" width="30" height="30" fill="hsl(240 100% 99.34235286072172%)" />
  <rect x="485" y="120" width="30" height="30" fill="hsl(240 100% 50%)" />
  <rect x="520" y="120" width="30" height="30" fill="hsl(240 100% 95.30390247807614%)" />
  <rect x="555" y="120" width="30" height="30" fill="hsl(240 100% 65.40719893041523%)" />
  <rect x="590" y="120" width="30" height="30" fill="hsl(240 100% 84.82886629552914%)" />
  <rect x="65" y="155" width="30" height="30" fill="hsl(240 100% 50%)" />
  <rect x="100" y="155" width="30" height="30" fill="hsl(240 100% 50%)" />
  <rect x="135" y="155" width="30" height="30" fill="hsl(240 100% 50%)" />
  <rect x="170" y="155" width="30" height="30" fill="hsl(240 100% 50%)" />
  <rect x="205" y="155" width="30" height="30" fill="hsl(240 100% 50%)" />
  <rect x="240" y="155" width="30" height="30" fill="hsl(240 100% 50%)" />
  <rect x="275" y="155" width="30" height="30" fill="hsl(240 100% 50%)" />
  <rect x="310" y="155" width="30" height="30" fill="hsl(240 100% 50%)" />
  <rect x="345" y="155" width="30" height="30" fill="hsl(240 100% 50%)" />
  <rect x="380" y="155" width="30" height="30" fill="hsl(240 100% 50%)" />
  <rect x="415" y="155" width="30" height="30" fill="hsl(240 100% 50%)" />
  <rect x="450" y="155" width="30" height="30" fill="hsl(240 100% 50%)" />
  <rect x="485" y="155" width="30" height="30" fill="hsl(240 100% 50%)" />
  <rect x="520" y="155" width="30" height="30" fill="hsl(240 100% 50%)" />
  <rect x="555" y="155" width="30" height="30" fill="hsl(240 100% 50%)" />
  <rect x="590" y="155" width="30" height="30" fill="hsl(240 100% 50%)" />
  <rect x="625" y="155" width="30" height="30" fill="hsl(240 100% 50%)" />
  <rect x="65" y="190" width="30" height="30" fill="hsl(240 100% 97.04241583516504%)" />
  <rect x="100" y="190" width="30" height="30" fill="hsl(240 100% 97.8748182463263%)" />
  <rect x="135" y="190" width="30" height="30" fill="hsl(240 100% 93.76145269124021%)" />
  <rect x="205" y="190" width="30" height="30" fill="hsl(240 100% 94.81029573051354%)" />
  <rect x="240" y="190" width="30" height="30" fill="hsl(240 100% 99.15419301804761%)" />
  <rect x="310" y="190" width="30" height="30" fill="hsl(240 100% 93.95437407678764%)" />
  <rect x="415" y="190" width="30" height="30" fill="hsl(240 100% 50%)" />
  <rect x="485" y="190" width="30" height="30" fill="hsl(240 100% 99.96853752174273%)" />
  <rect x="555" y="190" width="30" height="30" fill="hsl(240 100% 99.38066030618499%)" />
  <rect x="590" y="190" width="30" height="30" fill="hsl(240 100% 99.46229673055629%)" />
  <rect x="100" y="225" width="30" height="30" fill="hsl(240 100% 99.86902997304811%)" />
  <rect x="135" y="225" width="30" height="30" fill="hsl(240 100% 99.40431777094179%)" />
  <rect x="205" y="225" width="30" height="30" fill="hsl(240 100% 87.68804771919349%)" />
  <rect x="310" y="225" width="30" height="30" fill="hsl(240 100% 82.52673682529758%)" />
  <rect x="345" y="225" width="30" height="30" fill="hsl(240 100% 99.99143885059529%)" />
  <rect x="380" y="225" width="30" height="30" fill="hsl(240 100% 50%)" />
  <rect x="415" y="225" width="30" height="30" fill="hsl(240 100% 76.07852970125042%)" />
  <rect x="485" y="225" width="30" height="30" fill="hsl(240 100% 85.78044759933331%)" />
  <rect x="520" y="225" width="30" height="30" fill="hsl(240 100% 99.52570796934893%)" />
  <rect x="65" y="260" width="30" height="30" fill="hsl(240 100% 77.65621488862246%)" />
  <rect x="100" y="260" width="30" height="30" fill="hsl(240 100% 85.87081665904304%)" />
  <rect x="135" y="260" width="30" height="30" fill="hsl(240 100% 50%)" />
  <rect x="170" y="260" width="30" height="30" fill="hsl(240 100% 91.9614865675221%)" />
  <rect x="205" y="260" width="30" height="30" fill="hsl(240 100% 65.23087434761172%)" />
  <rect x="240" y="260" width="30" height="30" fill="hsl(240 100% 99.85820617725555%)" />
  <rect x="310" y="260" width="30" height="30" fill="hsl(240 100% 74.00142668020297%)" />
  <rect x="415" y="260" width="30" height="30" fill="hsl(240 100% 84.73734940347649%)" />
  <rect x="485" y="260" width="30" height="30" fill="hsl(240 100% 99.76314128440796%)" />
  <rect x="520" y="260" width="30" height="30" fill="hsl(240 100% 97.24159130533927%)" />
  <rect x="555" y="260" width="30" height="30" fill="hsl(240 100% 71.52238433850837%)" />
  <rect x="590" y="260" width="30" height="30" fill="hsl(240 100% 98.64973658432238%)" />
</svg>
