<svg xmlns="http://www.w3.org/2000/svg" viewBox="0 0 870 505">
  <rect x="0" y="0" width="870" height="505" rx="5" ry="5" fill="#222" />
  <text x="60" y="100" fill="white" font-family="sans-serif" font-weight="bold" font-size="12" text-anchor="end" dominant-baseline="middle">ba</text>
  <text x="60" y="135" fill="white" font-family="sans-serif" font-weight="bold" font-size="12" text-anchor="end" dominant-baseline="middle">det</text>
  <text x="60" y="170" fill="white" font-family="sans-serif" font-weight="bold" font-size="12" text-anchor="end" dominant-baseline="middle">gmm</text>
  <text x="60" y="205" fill="white" font-family="sans-serif" font-weight="bold" font-size="12" text-anchor="end" dominant-baseline="middle">hello</text>
  <text x="60" y="240" fill="white" font-family="sans-serif" font-weight="bold" font-size="12" text-anchor="end" dominant-baseline="middle">ht</text>
  <text x="60" y="275" fill="white" font-family="sans-serif" font-weight="bold" font-size="12" text-anchor="end" dominant-baseline="middle">kmeans</text>
  <text x="60" y="310" fill="white" font-family="sans-serif" font-weight="bold" font-size="12" text-anchor="end" dominant-baseline="middle">llsq</text>
  <text x="60" y="345" fill="white" font-family="sans-serif" font-weight="bold" font-size="12" text-anchor="end" dominant-baseline="middle">lse</text>
  <text x="60" y="380" fill="white" font-family="sans-serif" font-weight="bold" font-size="12" text-anchor="end" dominant-baseline="middle">lstm</text>
  <text x="60" y="415" fill="white" font-family="sans-serif" font-weight="bold" font-size="12" text-anchor="end" dominant-baseline="middle">ode</text>
  <text x="60" y="450" fill="white" font-family="sans-serif" font-weight="bold" font-size="12" text-anchor="end" dominant-baseline="middle">particle</text>
  <text x="60" y="485" fill="white" font-family="sans-serif" font-weight="bold" font-size="12" text-anchor="end" dominant-baseline="middle">saddle</text>
  <text x="80" y="80" fill="white" font-family="sans-serif" font-weight="bold" font-size="12" text-anchor="end" dominant-baseline="middle" transform="rotate(90 80 80)">ad-hpp</text>
  <text x="115" y="80" fill="white" font-family="sans-serif" font-weight="bold" font-size="12" text-anchor="end" dominant-baseline="middle" transform="rotate(90 115 80)">adept</text>
  <text x="150" y="80" fill="white" font-family="sans-serif" font-weight="bold" font-size="12" text-anchor="end" dominant-baseline="middle" transform="rotate(90 150 80)">adol-c</text>
  <text x="185" y="80" fill="white" font-family="sans-serif" font-weight="bold" font-size="12" text-anchor="end" dominant-baseline="middle" transform="rotate(90 185 80)">codipack</text>
  <text x="220" y="80" fill="white" font-family="sans-serif" font-weight="bold" font-size="12" text-anchor="end" dominant-baseline="middle" transform="rotate(90 220 80)">cppad</text>
  <text x="255" y="80" fill="white" font-family="sans-serif" font-weight="bold" font-size="12" text-anchor="end" dominant-baseline="middle" transform="rotate(90 255 80)">enzyme</text>
  <text x="290" y="80" fill="white" font-family="sans-serif" font-weight="bold" font-size="12" text-anchor="end" dominant-baseline="middle" transform="rotate(90 290 80)">enzyme-jl</text>
  <text x="325" y="80" fill="white" font-family="sans-serif" font-weight="bold" font-size="12" text-anchor="end" dominant-baseline="middle" transform="rotate(90 325 80)">finite</text>
  <text x="360" y="80" fill="white" font-family="sans-serif" font-weight="bold" font-size="12" text-anchor="end" dominant-baseline="middle" transform="rotate(90 360 80)">floretta</text>
  <text x="395" y="80" fill="white" font-family="sans-serif" font-weight="bold" font-size="12" text-anchor="end" dominant-baseline="middle" transform="rotate(90 395 80)">forwarddiff-jl</text>
  <text x="430" y="80" fill="white" font-family="sans-serif" font-weight="bold" font-size="12" text-anchor="end" dominant-baseline="middle" transform="rotate(90 430 80)">futhark</text>
  <text x="465" y="80" fill="white" font-family="sans-serif" font-weight="bold" font-size="12" text-anchor="end" dominant-baseline="middle" transform="rotate(90 465 80)">haskell</text>
  <text x="500" y="80" fill="white" font-family="sans-serif" font-weight="bold" font-size="12" text-anchor="end" dominant-baseline="middle" transform="rotate(90 500 80)">jax</text>
  <text x="535" y="80" fill="white" font-family="sans-serif" font-weight="bold" font-size="12" text-anchor="end" dominant-baseline="middle" transform="rotate(90 535 80)">manual</text>
  <text x="570" y="80" fill="white" font-family="sans-serif" font-weight="bold" font-size="12" text-anchor="end" dominant-baseline="middle" transform="rotate(90 570 80)">mooncake-jl</text>
  <text x="605" y="80" fill="white" font-family="sans-serif" font-weight="bold" font-size="12" text-anchor="end" dominant-baseline="middle" transform="rotate(90 605 80)">ocaml</text>
  <text x="640" y="80" fill="white" font-family="sans-serif" font-weight="bold" font-size="12" text-anchor="end" dominant-baseline="middle" transform="rotate(90 640 80)">pytorch</text>
  <text x="675" y="80" fill="white" font-family="sans-serif" font-weight="bold" font-size="12" text-anchor="end" dominant-baseline="middle" transform="rotate(90 675 80)">reversediff-jl</text>
  <text x="710" y="80" fill="white" font-family="sans-serif" font-weight="bold" font-size="12" text-anchor="end" dominant-baseline="middle" transform="rotate(90 710 80)">scilean</text>
  <text x="745" y="80" fill="white" font-family="sans-serif" font-weight="bold" font-size="12" text-anchor="end" dominant-baseline="middle" transform="rotate(90 745 80)">tapenade</text>
  <text x="780" y="80" fill="white" font-family="sans-serif" font-weight="bold" font-size="12" text-anchor="end" dominant-baseline="middle" transform="rotate(90 780 80)">tensorflow</text>
  <text x="815" y="80" fill="white" font-family="sans-serif" font-weight="bold" font-size="12" text-anchor="end" dominant-baseline="middle" transform="rotate(90 815 80)">tensorflow-js</text>
  <text x="850" y="80" fill="white" font-family="sans-serif" font-weight="bold" font-size="12" text-anchor="end" dominant-baseline="middle" transform="rotate(90 850 80)">zygote</text>
  <rect x="65" y="85" width="30" height="30" fill="hsl(240 100% 80.76515832436723%)" />
  <rect x="100" y="85" width="30" height="30" fill="hsl(240 100% 82.96714639105107%)" />
  <rect x="135" y="85" width="30" height="30" fill="hsl(240 100% 97.97384234636067%)" />
  <rect x="170" y="85" width="30" height="30" fill="hsl(240 100% 82.4320940536509%)" />
  <rect x="205" y="85" width="30" height="30" fill="hsl(240 100% 98.99678933332828%)" />
  <rect x="240" y="85" width="30" height="30" fill="hsl(240 100% 51.15795054107353%)" />
  <rect x="310" y="85" width="30" height="30" fill="hsl(240 100% 93.18783475063994%)" />
  <rect x="415" y="85" width="30" height="30" fill="hsl(240 100% 67.74657068281714%)" />
  <rect x="520" y="85" width="30" height="30" fill="hsl(240 100% 50%)" />
  <rect x="625" y="85" width="30" height="30" fill="rgb(255 255 255 / 50%)" />
  <rect x="730" y="85" width="30" height="30" fill="hsl(240 100% 74.63675943114049%)" />
  <rect x="765" y="85" width="30" height="30" fill="rgb(255 255 255 / 50%)" />
  <rect x="835" y="85" width="30" height="30" fill="hsl(240 100% 99.74088131709337%)" />
  <rect x="65" y="120" width="30" height="30" fill="hsl(240 100% 50%)" />
  <rect x="100" y="120" width="30" height="30" fill="hsl(240 100% 82.81569395968748%)" />
  <rect x="135" y="120" width="30" height="30" fill="hsl(240 100% 85.94488079233014%)" />
  <rect x="170" y="120" width="30" height="30" fill="hsl(240 100% 52.34218182069477%)" />
  <rect x="205" y="120" width="30" height="30" fill="hsl(240 100% 92.5854677066267%)" />
  <rect x="240" y="120" width="30" height="30" fill="hsl(240 100% 91.50702838401943%)" />
  <rect x="275" y="120" width="30" height="30" fill="hsl(240 100% 99.36026088201389%)" />
  <rect x="310" y="120" width="30" height="30" fill="hsl(240 100% 99.05494811328714%)" />
  <rect x="380" y="120" width="30" height="30" fill="hsl(240 100% 93.39095020864195%)" />
  <rect x="415" y="120" width="30" height="30" fill="hsl(240 100% 94.63560702672142%)" />
  <rect x="450" y="120" width="30" height="30" fill="hsl(240 100% 97.89998715987214%)" />
  <rect x="520" y="120" width="30" height="30" fill="hsl(240 100% 80.09362294877177%)" />
  <rect x="555" y="120" width="30" height="30" fill="hsl(240 100% 90.8485658471185%)" />
  <rect x="660" y="120" width="30" height="30" fill="rgb(255 255 255 / 50%)" />
  <rect x="835" y="120" width="30" height="30" fill="rgb(255 255 255 / 50%)" />
  <rect x="65" y="155" width="30" height="30" fill="hsl(240 100% 98.50904893628925%)" />
  <rect x="100" y="155" width="30" height="30" fill="hsl(240 100% 98.81947805261774%)" />
  <rect x="135" y="155" width="30" height="30" fill="hsl(240 100% 99.12630022668755%)" />
  <rect x="170" y="155" width="30" height="30" fill="hsl(240 100% 98.06705857744807%)" />
  <rect x="205" y="155" width="30" height="30" fill="hsl(240 100% 99.850492457921%)" />
  <rect x="240" y="155" width="30" height="30" fill="hsl(240 100% 91.30843115634872%)" />
  <rect x="275" y="155" width="30" height="30" fill="hsl(240 100% 93.07456229749332%)" />
  <rect x="310" y="155" width="30" height="30" fill="rgb(255 255 255 / 50%)" />
  <rect x="415" y="155" width="30" height="30" fill="hsl(240 100% 92.96256676934632%)" />
  <rect x="485" y="155" width="30" height="30" fill="hsl(240 100% 50%)" />
  <rect x="520" y="155" width="30" height="30" fill="hsl(240 100% 83.86432907431971%)" />
  <rect x="590" y="155" width="30" height="30" fill="hsl(240 100% 99.57917273175033%)" />
  <rect x="625" y="155" width="30" height="30" fill="hsl(240 100% 68.2940711197354%)" />
  <rect x="695" y="155" width="30" height="30" fill="hsl(240 100% 95.47910046260094%)" />
  <rect x="730" y="155" width="30" height="30" fill="hsl(240 100% 83.89383994752963%)" />
  <rect x="765" y="155" width="30" height="30" fill="hsl(240 100% 99.58081274205199%)" />
  <rect x="835" y="155" width="30" height="30" fill="hsl(240 100% 96.51056879578958%)" />
  <rect x="65" y="190" width="30" height="30" fill="hsl(240 100% 50%)" />
  <rect x="100" y="190" width="30" height="30" fill="hsl(240 100% 50%)" />
  <rect x="135" y="190" width="30" height="30" fill="hsl(240 100% 50%)" />
  <rect x="170" y="190" width="30" height="30" fill="hsl(240 100% 50%)" />
  <rect x="205" y="190" width="30" height="30" fill="hsl(240 100% 50%)" />
  <rect x="240" y="190" width="30" height="30" fill="hsl(240 100% 50%)" />
  <rect x="275" y="190" width="30" height="30" fill="hsl(240 100% 50%)" />
  <rect x="310" y="190" width="30" height="30" fill="hsl(240 100% 50%)" />
  <rect x="345" y="190" width="30" height="30" fill="hsl(240 100% 50%)" />
  <rect x="380" y="190" width="30" height="30" fill="hsl(240 100% 50%)" />
  <rect x="415" y="190" width="30" height="30" fill="hsl(240 100% 50%)" />
  <rect x="450" y="190" width="30" height="30" fill="hsl(240 100% 50%)" />
  <rect x="485" y="190" width="30" height="30" fill="hsl(240 100% 50%)" />
  <rect x="520" y="190" width="30" height="30" fill="hsl(240 100% 50%)" />
  <rect x="555" y="190" width="30" height="30" fill="hsl(240 100% 50%)" />
  <rect x="590" y="190" width="30" height="30" fill="hsl(240 100% 50%)" />
  <rect x="625" y="190" width="30" height="30" fill="hsl(240 100% 50%)" />
  <rect x="660" y="190" width="30" height="30" fill="hsl(240 100% 50%)" />
  <rect x="695" y="190" width="30" height="30" fill="hsl(240 100% 50%)" />
  <rect x="730" y="190" width="30" height="30" fill="hsl(240 100% 50%)" />
  <rect x="765" y="190" width="30" height="30" fill="hsl(240 100% 50%)" />
  <rect x="800" y="190" width="30" height="30" fill="hsl(240 100% 50%)" />
  <rect x="835" y="190" width="30" height="30" fill="hsl(240 100% 50%)" />
  <rect x="100" y="225" width="30" height="30" fill="hsl(240 100% 96.69069149248291%)" />
  <rect x="135" y="225" width="30" height="30" fill="hsl(240 100% 89.4735220679965%)" />
  <rect x="170" y="225" width="30" height="30" fill="hsl(240 100% 89.29760527540515%)" />
  <rect x="240" y="225" width="30" height="30" fill="hsl(240 100% 91.29127251315975%)" />
  <rect x="310" y="225" width="30" height="30" fill="rgb(255 255 255 / 50%)" />
  <rect x="415" y="225" width="30" height="30" fill="hsl(240 100% 90.61950283922882%)" />
  <rect x="520" y="225" width="30" height="30" fill="hsl(240 100% 50%)" />
  <rect x="625" y="225" width="30" height="30" fill="rgb(255 255 255 / 50%)" />
  <rect x="730" y="225" width="30" height="30" fill="hsl(240 100% 93.27486886142175%)" />
  <rect x="765" y="225" width="30" height="30" fill="rgb(255 255 255 / 50%)" />
  <rect x="835" y="225" width="30" height="30" fill="hsl(240 100% 94.67578844290044%)" />
  <rect x="65" y="260" width="30" height="30" fill="hsl(240 100% 99.85745275101831%)" />
  <rect x="135" y="260" width="30" height="30" fill="hsl(240 100% 99.85074920799637%)" />
  <rect x="170" y="260" width="30" height="30" fill="hsl(240 100% 98.82899202154893%)" />
  <rect x="205" y="260" width="30" height="30" fill="rgb(255 255 255 / 50%)" />
  <rect x="240" y="260" width="30" height="30" fill="hsl(240 100% 86.69545308669981%)" />
  <rect x="310" y="260" width="30" height="30" fill="rgb(255 255 255 / 50%)" />
  <rect x="415" y="260" width="30" height="30" fill="hsl(240 100% 80.24432138526629%)" />
  <rect x="450" y="260" width="30" height="30" fill="rgb(255 255 255 / 50%)" />
  <rect x="485" y="260" width="30" height="30" fill="hsl(240 100% 50%)" />
  <rect x="520" y="260" width="30" height="30" fill="hsl(240 100% 70.7165191794962%)" />
  <rect x="625" y="260" width="30" height="30" fill="hsl(240 100% 97.14406583343354%)" />
  <rect x="695" y="260" width="30" height="30" fill="hsl(240 100% 93.99951434990824%)" />
  <rect x="65" y="295" width="30" height="30" fill="hsl(240 100% 85.77641697484077%)" />
  <rect x="100" y="295" width="30" height="30" fill="hsl(240 100% 97.50625527530632%)" />
  <rect x="135" y="295" width="30" height="30" fill="hsl(240 100% 95.17660950144257%)" />
  <rect x="170" y="295" width="30" height="30" fill="hsl(240 100% 90.65034237894568%)" />
  <rect x="205" y="295" width="30" height="30" fill="hsl(240 100% 99.44955270992003%)" />
  <rect x="240" y="295" width="30" height="30" fill="hsl(240 100% 50.56601121309466%)" />
  <rect x="275" y="295" width="30" height="30" fill="hsl(240 100% 50%)" />
  <rect x="310" y="295" width="30" height="30" fill="hsl(240 100% 99.49906837804738%)" />
  <rect x="345" y="295" width="30" height="30" fill="hsl(240 100% 94.70741264571159%)" />
  <rect x="415" y="295" width="30" height="30" fill="hsl(240 100% 55.20416978267192%)" />
  <rect x="450" y="295" width="30" height="30" fill="hsl(240 100% 99.3469561123227%)" />
  <rect x="485" y="295" width="30" height="30" fill="hsl(240 100% 88.3927130806244%)" />
  <rect x="520" y="295" width="30" height="30" fill="hsl(240 100% 57.82848906856261%)" />
  <rect x="695" y="295" width="30" height="30" fill="hsl(240 100% 97.60818453869143%)" />
  <rect x="800" y="295" width="30" height="30" fill="hsl(240 100% 99.57404251107079%)" />
  <rect x="835" y="295" width="30" height="30" fill="hsl(240 100% 99.9557187590251%)" />
  <rect x="65" y="330" width="30" height="30" fill="hsl(240 100% 88.29683087981849%)" />
  <rect x="100" y="330" width="30" height="30" fill="hsl(240 100% 94.69784196605313%)" />
  <rect x="135" y="330" width="30" height="30" fill="hsl(240 100% 97.09207307110346%)" />
  <rect x="170" y="330" width="30" height="30" fill="hsl(240 100% 87.98806497675957%)" />
  <rect x="205" y="330" width="30" height="30" fill="hsl(240 100% 99.17141923581788%)" />
  <rect x="240" y="330" width="30" height="30" fill="hsl(240 100% 78.90425798611398%)" />
  <rect x="275" y="330" width="30" height="30" fill="hsl(240 100% 87.41952005934314%)" />
  <rect x="310" y="330" width="30" height="30" fill="rgb(255 255 255 / 50%)" />
  <rect x="345" y="330" width="30" height="30" fill="hsl(240 100% 97.13754671015056%)" />
  <rect x="415" y="330" width="30" height="30" fill="hsl(240 100% 85.31614877291207%)" />
  <rect x="450" y="330" width="30" height="30" fill="hsl(240 100% 99.7889955009941%)" />
  <rect x="485" y="330" width="30" height="30" fill="hsl(240 100% 68.89194129306578%)" />
  <rect x="520" y="330" width="30" height="30" fill="hsl(240 100% 75.86308331774457%)" />
  <rect x="590" y="330" width="30" height="30" fill="hsl(240 100% 93.64907160571623%)" />
  <rect x="625" y="330" width="30" height="30" fill="hsl(240 100% 50%)" />
  <rect x="765" y="330" width="30" height="30" fill="hsl(240 100% 95.00799729135602%)" />
  <rect x="800" y="330" width="30" height="30" fill="hsl(240 100% 99.1855349078111%)" />
  <rect x="835" y="330" width="30" height="30" fill="hsl(240 100% 79.65997056851143%)" />
  <rect x="65" y="365" width="30" height="30" fill="hsl(240 100% 57.43975476498121%)" />
  <rect x="100" y="365" width="30" height="30" fill="hsl(240 100% 71.68875273289895%)" />
  <rect x="135" y="365" width="30" height="30" fill="hsl(240 100% 82.09105514865307%)" />
  <rect x="170" y="365" width="30" height="30" fill="hsl(240 100% 50%)" />
  <rect x="205" y="365" width="30" height="30" fill="hsl(240 100% 96.21450536116872%)" />
  <rect x="240" y="365" width="30" height="30" fill="hsl(240 100% 59.85619878897428%)" />
  <rect x="275" y="365" width="30" height="30" fill="hsl(240 100% 92.67418281054566%)" />
  <rect x="310" y="365" width="30" height="30" fill="hsl(240 100% 99.86284786372458%)" />
  <rect x="415" y="365" width="30" height="30" fill="hsl(240 100% 67.46185104839485%)" />
  <rect x="520" y="365" width="30" height="30" fill="hsl(240 100% 85.9524590604289%)" />
  <rect x="625" y="365" width="30" height="30" fill="hsl(240 100% 99.64928102927473%)" />
  <rect x="730" y="365" width="30" height="30" fill="hsl(240 100% 63.840559423977005%)" />
  <rect x="765" y="365" width="30" height="30" fill="hsl(240 100% 98.13983285216086%)" />
  <rect x="835" y="365" width="30" height="30" fill="hsl(240 100% 98.7517803651445%)" />
  <rect x="65" y="400" width="30" height="30" fill="hsl(240 100% 98.24969417826935%)" />
  <rect x="100" y="400" width="30" height="30" fill="hsl(240 100% 99.33507418214519%)" />
  <rect x="135" y="400" width="30" height="30" fill="hsl(240 100% 99.62124231463119%)" />
  <rect x="170" y="400" width="30" height="30" fill="hsl(240 100% 94.72991143624299%)" />
  <rect x="205" y="400" width="30" height="30" fill="hsl(240 100% 99.1196674715249%)" />
  <rect x="240" y="400" width="30" height="30" fill="hsl(240 100% 83.98981799803477%)" />
  <rect x="275" y="400" width="30" height="30" fill="hsl(240 100% 94.80099584128475%)" />
  <rect x="310" y="400" width="30" height="30" fill="rgb(255 255 255 / 50%)" />
  <rect x="380" y="400" width="30" height="30" fill="rgb(255 255 255 / 50%)" />
  <rect x="415" y="400" width="30" height="30" fill="hsl(240 100% 93.10382501945527%)" />
  <rect x="450" y="400" width="30" height="30" fill="hsl(240 100% 99.96652479287619%)" />
  <rect x="485" y="400" width="30" height="30" fill="hsl(240 100% 75.40018375818607%)" />
  <rect x="520" y="400" width="30" height="30" fill="hsl(240 100% 50%)" />
  <rect x="555" y="400" width="30" height="30" fill="hsl(240 100% 98.97811672869895%)" />
  <rect x="660" y="400" width="30" height="30" fill="rgb(255 255 255 / 50%)" />
  <rect x="835" y="400" width="30" height="30" fill="hsl(240 100% 98.87187292566759%)" />
  <rect x="65" y="435" width="30" height="30" fill="hsl(240 100% 92.85572264316743%)" />
  <rect x="240" y="435" width="30" height="30" fill="hsl(240 100% 50%)" />
  <rect x="310" y="435" width="30" height="30" fill="hsl(240 100% 94.28213277129291%)" />
  <rect x="415" y="435" width="30" height="30" fill="hsl(240 100% 86.9930378312589%)" />
  <rect x="450" y="435" width="30" height="30" fill="hsl(240 100% 99.78708715594622%)" />
  <rect x="65" y="470" width="30" height="30" fill="hsl(240 100% 50%)" />
  <rect x="240" y="470" width="30" height="30" fill="hsl(240 100% 50.26495777007168%)" />
  <rect x="310" y="470" width="30" height="30" fill="hsl(240 100% 97.15433800619684%)" />
  <rect x="415" y="470" width="30" height="30" fill="hsl(240 100% 89.09554436174324%)" />
  <rect x="450" y="470" width="30" height="30" fill="hsl(240 100% 99.57031279745351%)" />
</svg>
