<svg xmlns="http://www.w3.org/2000/svg" viewBox="0 0 870 505">
  <rect x="0" y="0" width="870" height="505" rx="5" ry="5" fill="#222" />
  <text x="60" y="100" fill="white" font-family="sans-serif" font-weight="bold" font-size="12" text-anchor="end" dominant-baseline="middle">ba</text>
  <text x="60" y="135" fill="white" font-family="sans-serif" font-weight="bold" font-size="12" text-anchor="end" dominant-baseline="middle">det</text>
  <text x="60" y="170" fill="white" font-family="sans-serif" font-weight="bold" font-size="12" text-anchor="end" dominant-baseline="middle">gmm</text>
  <text x="60" y="205" fill="white" font-family="sans-serif" font-weight="bold" font-size="12" text-anchor="end" dominant-baseline="middle">hello</text>
  <text x="60" y="240" fill="white" font-family="sans-serif" font-weight="bold" font-size="12" text-anchor="end" dominant-baseline="middle">ht</text>
  <text x="60" y="275" fill="white" font-family="sans-serif" font-weight="bold" font-size="12" text-anchor="end" dominant-baseline="middle">kmeans</text>
  <text x="60" y="310" fill="white" font-family="sans-serif" font-weight="bold" font-size="12" text-anchor="end" dominant-baseline="middle">llsq</text>
  <text x="60" y="345" fill="white" font-family="sans-serif" font-weight="bold" font-size="12" text-anchor="end" dominant-baseline="middle">lse</text>
  <text x="60" y="380" fill="white" font-family="sans-serif" font-weight="bold" font-size="12" text-anchor="end" dominant-baseline="middle">lstm</text>
  <text x="60" y="415" fill="white" font-family="sans-serif" font-weight="bold" font-size="12" text-anchor="end" dominant-baseline="middle">ode</text>
  <text x="60" y="450" fill="white" font-family="sans-serif" font-weight="bold" font-size="12" text-anchor="end" dominant-baseline="middle">particle</text>
  <text x="60" y="485" fill="white" font-family="sans-serif" font-weight="bold" font-size="12" text-anchor="end" dominant-baseline="middle">saddle</text>
  <text x="80" y="80" fill="white" font-family="sans-serif" font-weight="bold" font-size="12" text-anchor="end" dominant-baseline="middle" transform="rotate(90 80 80)">ad-hpp</text>
  <text x="115" y="80" fill="white" font-family="sans-serif" font-weight="bold" font-size="12" text-anchor="end" dominant-baseline="middle" transform="rotate(90 115 80)">adept</text>
  <text x="150" y="80" fill="white" font-family="sans-serif" font-weight="bold" font-size="12" text-anchor="end" dominant-baseline="middle" transform="rotate(90 150 80)">adol-c</text>
  <text x="185" y="80" fill="white" font-family="sans-serif" font-weight="bold" font-size="12" text-anchor="end" dominant-baseline="middle" transform="rotate(90 185 80)">codipack</text>
  <text x="220" y="80" fill="white" font-family="sans-serif" font-weight="bold" font-size="12" text-anchor="end" dominant-baseline="middle" transform="rotate(90 220 80)">cppad</text>
  <text x="255" y="80" fill="white" font-family="sans-serif" font-weight="bold" font-size="12" text-anchor="end" dominant-baseline="middle" transform="rotate(90 255 80)">enzyme</text>
  <text x="290" y="80" fill="white" font-family="sans-serif" font-weight="bold" font-size="12" text-anchor="end" dominant-baseline="middle" transform="rotate(90 290 80)">enzyme-jl</text>
  <text x="325" y="80" fill="white" font-family="sans-serif" font-weight="bold" font-size="12" text-anchor="end" dominant-baseline="middle" transform="rotate(90 325 80)">finite</text>
  <text x="360" y="80" fill="white" font-family="sans-serif" font-weight="bold" font-size="12" text-anchor="end" dominant-baseline="middle" transform="rotate(90 360 80)">floretta</text>
  <text x="395" y="80" fill="white" font-family="sans-serif" font-weight="bold" font-size="12" text-anchor="end" dominant-baseline="middle" transform="rotate(90 395 80)">forwarddiff-jl</text>
  <text x="430" y="80" fill="white" font-family="sans-serif" font-weight="bold" font-size="12" text-anchor="end" dominant-baseline="middle" transform="rotate(90 430 80)">futhark</text>
  <text x="465" y="80" fill="white" font-family="sans-serif" font-weight="bold" font-size="12" text-anchor="end" dominant-baseline="middle" transform="rotate(90 465 80)">haskell</text>
  <text x="500" y="80" fill="white" font-family="sans-serif" font-weight="bold" font-size="12" text-anchor="end" dominant-baseline="middle" transform="rotate(90 500 80)">jax</text>
  <text x="535" y="80" fill="white" font-family="sans-serif" font-weight="bold" font-size="12" text-anchor="end" dominant-baseline="middle" transform="rotate(90 535 80)">manual</text>
  <text x="570" y="80" fill="white" font-family="sans-serif" font-weight="bold" font-size="12" text-anchor="end" dominant-baseline="middle" transform="rotate(90 570 80)">mooncake-jl</text>
  <text x="605" y="80" fill="white" font-family="sans-serif" font-weight="bold" font-size="12" text-anchor="end" dominant-baseline="middle" transform="rotate(90 605 80)">ocaml</text>
  <text x="640" y="80" fill="white" font-family="sans-serif" font-weight="bold" font-size="12" text-anchor="end" dominant-baseline="middle" transform="rotate(90 640 80)">pytorch</text>
  <text x="675" y="80" fill="white" font-family="sans-serif" font-weight="bold" font-size="12" text-anchor="end" dominant-baseline="middle" transform="rotate(90 675 80)">reversediff-jl</text>
  <text x="710" y="80" fill="white" font-family="sans-serif" font-weight="bold" font-size="12" text-anchor="end" dominant-baseline="middle" transform="rotate(90 710 80)">scilean</text>
  <text x="745" y="80" fill="white" font-family="sans-serif" font-weight="bold" font-size="12" text-anchor="end" dominant-baseline="middle" transform="rotate(90 745 80)">tapenade</text>
  <text x="780" y="80" fill="white" font-family="sans-serif" font-weight="bold" font-size="12" text-anchor="end" dominant-baseline="middle" transform="rotate(90 780 80)">tensorflow</text>
  <text x="815" y="80" fill="white" font-family="sans-serif" font-weight="bold" font-size="12" text-anchor="end" dominant-baseline="middle" transform="rotate(90 815 80)">tensorflow-js</text>
  <text x="850" y="80" fill="white" font-family="sans-serif" font-weight="bold" font-size="12" text-anchor="end" dominant-baseline="middle" transform="rotate(90 850 80)">zygote</text>
  <rect x="65" y="85" width="30" height="30" fill="hsl(240 100% 80.34613459657862%)" />
  <rect x="100" y="85" width="30" height="30" fill="hsl(240 100% 81.73700513462296%)" />
  <rect x="135" y="85" width="30" height="30" fill="hsl(240 100% 97.8891363565339%)" />
  <rect x="170" y="85" width="30" height="30" fill="hsl(240 100% 81.26419441541718%)" />
  <rect x="205" y="85" width="30" height="30" fill="hsl(240 100% 98.93416133061274%)" />
  <rect x="240" y="85" width="30" height="30" fill="hsl(240 100% 50%)" />
  <rect x="310" y="85" width="30" height="30" fill="hsl(240 100% 92.80011376359667%)" />
  <rect x="415" y="85" width="30" height="30" fill="hsl(240 100% 66.38061245025114%)" />
  <rect x="520" y="85" width="30" height="30" fill="hsl(240 100% 53.565157695390276%)" />
  <rect x="625" y="85" width="30" height="30" fill="rgb(255 255 255 / 50%)" />
  <rect x="730" y="85" width="30" height="30" fill="hsl(240 100% 73.55056963694221%)" />
  <rect x="765" y="85" width="30" height="30" fill="rgb(255 255 255 / 50%)" />
  <rect x="835" y="85" width="30" height="30" fill="hsl(240 100% 99.71849408738159%)" />
  <rect x="65" y="120" width="30" height="30" fill="hsl(240 100% 50%)" />
  <rect x="100" y="120" width="30" height="30" fill="hsl(240 100% 82.79027300696045%)" />
  <rect x="135" y="120" width="30" height="30" fill="hsl(240 100% 85.50056930759413%)" />
  <rect x="170" y="120" width="30" height="30" fill="hsl(240 100% 53.072548204572186%)" />
  <rect x="205" y="120" width="30" height="30" fill="hsl(240 100% 92.63067200404161%)" />
  <rect x="240" y="120" width="30" height="30" fill="hsl(240 100% 91.41011868723513%)" />
  <rect x="275" y="120" width="30" height="30" fill="hsl(240 100% 99.3625487367634%)" />
  <rect x="310" y="120" width="30" height="30" fill="hsl(240 100% 98.99615684706272%)" />
  <rect x="380" y="120" width="30" height="30" fill="hsl(240 100% 93.33840843974532%)" />
  <rect x="415" y="120" width="30" height="30" fill="hsl(240 100% 94.57830263045014%)" />
  <rect x="450" y="120" width="30" height="30" fill="hsl(240 100% 97.86798579756389%)" />
  <rect x="520" y="120" width="30" height="30" fill="hsl(240 100% 79.8653499895734%)" />
  <rect x="555" y="120" width="30" height="30" fill="hsl(240 100% 90.04687238412755%)" />
  <rect x="660" y="120" width="30" height="30" fill="rgb(255 255 255 / 50%)" />
  <rect x="835" y="120" width="30" height="30" fill="rgb(255 255 255 / 50%)" />
  <rect x="65" y="155" width="30" height="30" fill="hsl(240 100% 98.36796454471072%)" />
  <rect x="100" y="155" width="30" height="30" fill="hsl(240 100% 98.82890922450257%)" />
  <rect x="135" y="155" width="30" height="30" fill="hsl(240 100% 99.09469086997531%)" />
  <rect x="170" y="155" width="30" height="30" fill="hsl(240 100% 98.03424872968051%)" />
  <rect x="205" y="155" width="30" height="30" fill="hsl(240 100% 99.84806269129626%)" />
  <rect x="240" y="155" width="30" height="30" fill="hsl(240 100% 95.4117930530309%)" />
  <rect x="275" y="155" width="30" height="30" fill="hsl(240 100% 91.8281141838811%)" />
  <rect x="310" y="155" width="30" height="30" fill="rgb(255 255 255 / 50%)" />
  <rect x="415" y="155" width="30" height="30" fill="hsl(240 100% 92.89388034050123%)" />
  <rect x="485" y="155" width="30" height="30" fill="hsl(240 100% 50%)" />
  <rect x="520" y="155" width="30" height="30" fill="hsl(240 100% 81.16707343832297%)" />
  <rect x="590" y="155" width="30" height="30" fill="hsl(240 100% 99.58810236277586%)" />
  <rect x="625" y="155" width="30" height="30" fill="hsl(240 100% 68.12573602098803%)" />
  <rect x="695" y="155" width="30" height="30" fill="hsl(240 100% 95.37263759830267%)" />
  <rect x="730" y="155" width="30" height="30" fill="hsl(240 100% 83.49696485331543%)" />
  <rect x="765" y="155" width="30" height="30" fill="hsl(240 100% 99.57849727853194%)" />
  <rect x="835" y="155" width="30" height="30" fill="hsl(240 100% 96.0958904961551%)" />
  <rect x="65" y="190" width="30" height="30" fill="hsl(240 100% 50%)" />
  <rect x="100" y="190" width="30" height="30" fill="hsl(240 100% 50%)" />
  <rect x="135" y="190" width="30" height="30" fill="hsl(240 100% 50%)" />
  <rect x="170" y="190" width="30" height="30" fill="hsl(240 100% 50%)" />
  <rect x="205" y="190" width="30" height="30" fill="hsl(240 100% 50%)" />
  <rect x="240" y="190" width="30" height="30" fill="hsl(240 100% 50%)" />
  <rect x="275" y="190" width="30" height="30" fill="hsl(240 100% 50%)" />
  <rect x="310" y="190" width="30" height="30" fill="hsl(240 100% 50%)" />
  <rect x="345" y="190" width="30" height="30" fill="hsl(240 100% 50%)" />
  <rect x="380" y="190" width="30" height="30" fill="hsl(240 100% 50%)" />
  <rect x="415" y="190" width="30" height="30" fill="hsl(240 100% 50%)" />
  <rect x="450" y="190" width="30" height="30" fill="hsl(240 100% 50%)" />
  <rect x="485" y="190" width="30" height="30" fill="hsl(240 100% 50%)" />
  <rect x="520" y="190" width="30" height="30" fill="hsl(240 100% 50%)" />
  <rect x="555" y="190" width="30" height="30" fill="hsl(240 100% 50%)" />
  <rect x="590" y="190" width="30" height="30" fill="hsl(240 100% 50%)" />
  <rect x="625" y="190" width="30" height="30" fill="hsl(240 100% 50%)" />
  <rect x="660" y="190" width="30" height="30" fill="hsl(240 100% 50%)" />
  <rect x="695" y="190" width="30" height="30" fill="hsl(240 100% 50%)" />
  <rect x="730" y="190" width="30" height="30" fill="hsl(240 100% 50%)" />
  <rect x="765" y="190" width="30" height="30" fill="hsl(240 100% 50%)" />
  <rect x="800" y="190" width="30" height="30" fill="hsl(240 100% 50%)" />
  <rect x="835" y="190" width="30" height="30" fill="hsl(240 100% 50%)" />
  <rect x="100" y="225" width="30" height="30" fill="hsl(240 100% 96.28124215084624%)" />
  <rect x="135" y="225" width="30" height="30" fill="hsl(240 100% 86.0827169300107%)" />
  <rect x="170" y="225" width="30" height="30" fill="hsl(240 100% 87.72677810636785%)" />
  <rect x="240" y="225" width="30" height="30" fill="hsl(240 100% 90.00415193693821%)" />
  <rect x="310" y="225" width="30" height="30" fill="rgb(255 255 255 / 50%)" />
  <rect x="415" y="225" width="30" height="30" fill="hsl(240 100% 89.2287349882698%)" />
  <rect x="520" y="225" width="30" height="30" fill="hsl(240 100% 50%)" />
  <rect x="625" y="225" width="30" height="30" fill="rgb(255 255 255 / 50%)" />
  <rect x="730" y="225" width="30" height="30" fill="hsl(240 100% 92.25010518514257%)" />
  <rect x="765" y="225" width="30" height="30" fill="rgb(255 255 255 / 50%)" />
  <rect x="835" y="225" width="30" height="30" fill="hsl(240 100% 93.39834090950632%)" />
  <rect x="65" y="260" width="30" height="30" fill="hsl(240 100% 99.82591045862726%)" />
  <rect x="135" y="260" width="30" height="30" fill="hsl(240 100% 99.85722014352119%)" />
  <rect x="170" y="260" width="30" height="30" fill="hsl(240 100% 98.90996254575387%)" />
  <rect x="205" y="260" width="30" height="30" fill="rgb(255 255 255 / 50%)" />
  <rect x="240" y="260" width="30" height="30" fill="hsl(240 100% 86.93137017283199%)" />
  <rect x="310" y="260" width="30" height="30" fill="rgb(255 255 255 / 50%)" />
  <rect x="415" y="260" width="30" height="30" fill="hsl(240 100% 80.52254768541874%)" />
  <rect x="450" y="260" width="30" height="30" fill="rgb(255 255 255 / 50%)" />
  <rect x="485" y="260" width="30" height="30" fill="hsl(240 100% 50%)" />
  <rect x="520" y="260" width="30" height="30" fill="hsl(240 100% 72.2875504352846%)" />
  <rect x="625" y="260" width="30" height="30" fill="hsl(240 100% 96.99699215715873%)" />
  <rect x="695" y="260" width="30" height="30" fill="hsl(240 100% 94.07085515341902%)" />
  <rect x="65" y="295" width="30" height="30" fill="hsl(240 100% 85.99328971389068%)" />
  <rect x="100" y="295" width="30" height="30" fill="hsl(240 100% 97.50729696947587%)" />
  <rect x="135" y="295" width="30" height="30" fill="hsl(240 100% 94.99099024943338%)" />
  <rect x="170" y="295" width="30" height="30" fill="hsl(240 100% 89.27130047893806%)" />
  <rect x="205" y="295" width="30" height="30" fill="hsl(240 100% 99.4853267185125%)" />
  <rect x="240" y="295" width="30" height="30" fill="hsl(240 100% 50.61758981479307%)" />
  <rect x="275" y="295" width="30" height="30" fill="hsl(240 100% 50%)" />
  <rect x="310" y="295" width="30" height="30" fill="hsl(240 100% 99.49932115126276%)" />
  <rect x="345" y="295" width="30" height="30" fill="hsl(240 100% 94.7346344664893%)" />
  <rect x="415" y="295" width="30" height="30" fill="hsl(240 100% 55.212253950676306%)" />
  <rect x="450" y="295" width="30" height="30" fill="hsl(240 100% 99.32145938574607%)" />
  <rect x="485" y="295" width="30" height="30" fill="hsl(240 100% 88.23642377516686%)" />
  <rect x="520" y="295" width="30" height="30" fill="hsl(240 100% 57.84357473790987%)" />
  <rect x="695" y="295" width="30" height="30" fill="hsl(240 100% 97.61083809904841%)" />
  <rect x="800" y="295" width="30" height="30" fill="hsl(240 100% 99.57144183141212%)" />
  <rect x="835" y="295" width="30" height="30" fill="hsl(240 100% 99.95393418034956%)" />
  <rect x="65" y="330" width="30" height="30" fill="hsl(240 100% 87.74865546414217%)" />
  <rect x="100" y="330" width="30" height="30" fill="hsl(240 100% 94.39301466051613%)" />
  <rect x="135" y="330" width="30" height="30" fill="hsl(240 100% 97.11416543882878%)" />
  <rect x="170" y="330" width="30" height="30" fill="hsl(240 100% 87.34650206592703%)" />
  <rect x="205" y="330" width="30" height="30" fill="hsl(240 100% 99.22688251234288%)" />
  <rect x="240" y="330" width="30" height="30" fill="hsl(240 100% 80.47299763818808%)" />
  <rect x="275" y="330" width="30" height="30" fill="hsl(240 100% 88.48877834694676%)" />
  <rect x="310" y="330" width="30" height="30" fill="rgb(255 255 255 / 50%)" />
  <rect x="345" y="330" width="30" height="30" fill="hsl(240 100% 97.35065370953656%)" />
  <rect x="415" y="330" width="30" height="30" fill="hsl(240 100% 86.25194415895555%)" />
  <rect x="450" y="330" width="30" height="30" fill="hsl(240 100% 99.82217522090363%)" />
  <rect x="485" y="330" width="30" height="30" fill="hsl(240 100% 71.569058879144%)" />
  <rect x="520" y="330" width="30" height="30" fill="hsl(240 100% 70.99050941411637%)" />
  <rect x="590" y="330" width="30" height="30" fill="hsl(240 100% 93.940024412351%)" />
  <rect x="625" y="330" width="30" height="30" fill="hsl(240 100% 50%)" />
  <rect x="765" y="330" width="30" height="30" fill="hsl(240 100% 94.54451520522102%)" />
  <rect x="800" y="330" width="30" height="30" fill="hsl(240 100% 99.24084036077022%)" />
  <rect x="835" y="330" width="30" height="30" fill="hsl(240 100% 81.40978733392618%)" />
  <rect x="65" y="365" width="30" height="30" fill="hsl(240 100% 56.90303150754317%)" />
  <rect x="100" y="365" width="30" height="30" fill="hsl(240 100% 71.3167548181029%)" />
  <rect x="135" y="365" width="30" height="30" fill="hsl(240 100% 81.64022374793058%)" />
  <rect x="170" y="365" width="30" height="30" fill="hsl(240 100% 50%)" />
  <rect x="205" y="365" width="30" height="30" fill="hsl(240 100% 96.02557457265473%)" />
  <rect x="240" y="365" width="30" height="30" fill="hsl(240 100% 59.56961657415511%)" />
  <rect x="275" y="365" width="30" height="30" fill="hsl(240 100% 92.73473577355782%)" />
  <rect x="310" y="365" width="30" height="30" fill="hsl(240 100% 99.85838232917467%)" />
  <rect x="415" y="365" width="30" height="30" fill="hsl(240 100% 66.229357861028%)" />
  <rect x="520" y="365" width="30" height="30" fill="hsl(240 100% 85.96475430692571%)" />
  <rect x="625" y="365" width="30" height="30" fill="hsl(240 100% 99.63103437659662%)" />
  <rect x="730" y="365" width="30" height="30" fill="hsl(240 100% 62.97386112786093%)" />
  <rect x="765" y="365" width="30" height="30" fill="hsl(240 100% 98.12075790336958%)" />
  <rect x="835" y="365" width="30" height="30" fill="hsl(240 100% 98.75856743648731%)" />
  <rect x="65" y="400" width="30" height="30" fill="hsl(240 100% 98.2399338139626%)" />
  <rect x="100" y="400" width="30" height="30" fill="hsl(240 100% 99.49443784060485%)" />
  <rect x="135" y="400" width="30" height="30" fill="hsl(240 100% 99.6512811991881%)" />
  <rect x="170" y="400" width="30" height="30" fill="hsl(240 100% 94.24310912097917%)" />
  <rect x="205" y="400" width="30" height="30" fill="hsl(240 100% 99.25019914999699%)" />
  <rect x="240" y="400" width="30" height="30" fill="hsl(240 100% 86.93983755958999%)" />
  <rect x="275" y="400" width="30" height="30" fill="hsl(240 100% 95.39754956485793%)" />
  <rect x="310" y="400" width="30" height="30" fill="rgb(255 255 255 / 50%)" />
  <rect x="380" y="400" width="30" height="30" fill="rgb(255 255 255 / 50%)" />
  <rect x="415" y="400" width="30" height="30" fill="hsl(240 100% 94.06464403161347%)" />
  <rect x="450" y="400" width="30" height="30" fill="hsl(240 100% 99.97701800471499%)" />
  <rect x="485" y="400" width="30" height="30" fill="hsl(240 100% 79.00945737738869%)" />
  <rect x="520" y="400" width="30" height="30" fill="hsl(240 100% 50%)" />
  <rect x="555" y="400" width="30" height="30" fill="hsl(240 100% 99.14819236736608%)" />
  <rect x="660" y="400" width="30" height="30" fill="rgb(255 255 255 / 50%)" />
  <rect x="835" y="400" width="30" height="30" fill="hsl(240 100% 99.14974097365204%)" />
  <rect x="65" y="435" width="30" height="30" fill="hsl(240 100% 93.28123017222389%)" />
  <rect x="240" y="435" width="30" height="30" fill="hsl(240 100% 50%)" />
  <rect x="310" y="435" width="30" height="30" fill="hsl(240 100% 93.85580307383161%)" />
  <rect x="415" y="435" width="30" height="30" fill="hsl(240 100% 87.00284743759839%)" />
  <rect x="450" y="435" width="30" height="30" fill="hsl(240 100% 99.77869330361685%)" />
  <rect x="65" y="470" width="30" height="30" fill="hsl(240 100% 50.14177666762941%)" />
  <rect x="240" y="470" width="30" height="30" fill="hsl(240 100% 50%)" />
  <rect x="310" y="470" width="30" height="30" fill="hsl(240 100% 96.96545372619151%)" />
  <rect x="415" y="470" width="30" height="30" fill="hsl(240 100% 89.03086152082211%)" />
  <rect x="450" y="470" width="30" height="30" fill="hsl(240 100% 99.57706663425564%)" />
</svg>
