<svg xmlns="http://www.w3.org/2000/svg" viewBox="0 0 730 505">
  <rect x="0" y="0" width="730" height="505" rx="5" ry="5" fill="#222" />
  <text x="60" y="100" fill="white" font-family="sans-serif" font-weight="bold" font-size="12" text-anchor="end" dominant-baseline="middle">ba</text>
  <text x="60" y="135" fill="white" font-family="sans-serif" font-weight="bold" font-size="12" text-anchor="end" dominant-baseline="middle">det</text>
  <text x="60" y="170" fill="white" font-family="sans-serif" font-weight="bold" font-size="12" text-anchor="end" dominant-baseline="middle">gmm</text>
  <text x="60" y="205" fill="white" font-family="sans-serif" font-weight="bold" font-size="12" text-anchor="end" dominant-baseline="middle">hello</text>
  <text x="60" y="240" fill="white" font-family="sans-serif" font-weight="bold" font-size="12" text-anchor="end" dominant-baseline="middle">ht</text>
  <text x="60" y="275" fill="white" font-family="sans-serif" font-weight="bold" font-size="12" text-anchor="end" dominant-baseline="middle">kmeans</text>
  <text x="60" y="310" fill="white" font-family="sans-serif" font-weight="bold" font-size="12" text-anchor="end" dominant-baseline="middle">llsq</text>
  <text x="60" y="345" fill="white" font-family="sans-serif" font-weight="bold" font-size="12" text-anchor="end" dominant-baseline="middle">lse</text>
  <text x="60" y="380" fill="white" font-family="sans-serif" font-weight="bold" font-size="12" text-anchor="end" dominant-baseline="middle">lstm</text>
  <text x="60" y="415" fill="white" font-family="sans-serif" font-weight="bold" font-size="12" text-anchor="end" dominant-baseline="middle">ode</text>
  <text x="60" y="450" fill="white" font-family="sans-serif" font-weight="bold" font-size="12" text-anchor="end" dominant-baseline="middle">particle</text>
  <text x="60" y="485" fill="white" font-family="sans-serif" font-weight="bold" font-size="12" text-anchor="end" dominant-baseline="middle">saddle</text>
  <text x="80" y="80" fill="white" font-family="sans-serif" font-weight="bold" font-size="12" text-anchor="end" dominant-baseline="middle" transform="rotate(90 80 80)">ad-hpp</text>
  <text x="115" y="80" fill="white" font-family="sans-serif" font-weight="bold" font-size="12" text-anchor="end" dominant-baseline="middle" transform="rotate(90 115 80)">adept</text>
  <text x="150" y="80" fill="white" font-family="sans-serif" font-weight="bold" font-size="12" text-anchor="end" dominant-baseline="middle" transform="rotate(90 150 80)">adol-c</text>
  <text x="185" y="80" fill="white" font-family="sans-serif" font-weight="bold" font-size="12" text-anchor="end" dominant-baseline="middle" transform="rotate(90 185 80)">codipack</text>
  <text x="220" y="80" fill="white" font-family="sans-serif" font-weight="bold" font-size="12" text-anchor="end" dominant-baseline="middle" transform="rotate(90 220 80)">cppad</text>
  <text x="255" y="80" fill="white" font-family="sans-serif" font-weight="bold" font-size="12" text-anchor="end" dominant-baseline="middle" transform="rotate(90 255 80)">enzyme</text>
  <text x="290" y="80" fill="white" font-family="sans-serif" font-weight="bold" font-size="12" text-anchor="end" dominant-baseline="middle" transform="rotate(90 290 80)">enzyme-jl</text>
  <text x="325" y="80" fill="white" font-family="sans-serif" font-weight="bold" font-size="12" text-anchor="end" dominant-baseline="middle" transform="rotate(90 325 80)">finite</text>
  <text x="360" y="80" fill="white" font-family="sans-serif" font-weight="bold" font-size="12" text-anchor="end" dominant-baseline="middle" transform="rotate(90 360 80)">floretta</text>
  <text x="395" y="80" fill="white" font-family="sans-serif" font-weight="bold" font-size="12" text-anchor="end" dominant-baseline="middle" transform="rotate(90 395 80)">futhark</text>
  <text x="430" y="80" fill="white" font-family="sans-serif" font-weight="bold" font-size="12" text-anchor="end" dominant-baseline="middle" transform="rotate(90 430 80)">haskell</text>
  <text x="465" y="80" fill="white" font-family="sans-serif" font-weight="bold" font-size="12" text-anchor="end" dominant-baseline="middle" transform="rotate(90 465 80)">jax</text>
  <text x="500" y="80" fill="white" font-family="sans-serif" font-weight="bold" font-size="12" text-anchor="end" dominant-baseline="middle" transform="rotate(90 500 80)">manual</text>
  <text x="535" y="80" fill="white" font-family="sans-serif" font-weight="bold" font-size="12" text-anchor="end" dominant-baseline="middle" transform="rotate(90 535 80)">ocaml</text>
  <text x="570" y="80" fill="white" font-family="sans-serif" font-weight="bold" font-size="12" text-anchor="end" dominant-baseline="middle" transform="rotate(90 570 80)">pytorch</text>
  <text x="605" y="80" fill="white" font-family="sans-serif" font-weight="bold" font-size="12" text-anchor="end" dominant-baseline="middle" transform="rotate(90 605 80)">scilean</text>
  <text x="640" y="80" fill="white" font-family="sans-serif" font-weight="bold" font-size="12" text-anchor="end" dominant-baseline="middle" transform="rotate(90 640 80)">tapenade</text>
  <text x="675" y="80" fill="white" font-family="sans-serif" font-weight="bold" font-size="12" text-anchor="end" dominant-baseline="middle" transform="rotate(90 675 80)">tensorflow</text>
  <text x="710" y="80" fill="white" font-family="sans-serif" font-weight="bold" font-size="12" text-anchor="end" dominant-baseline="middle" transform="rotate(90 710 80)">zygote</text>
  <rect x="65" y="85" width="30" height="30" fill="hsl(240 100% 78.07029826846758%)" />
  <rect x="100" y="85" width="30" height="30" fill="hsl(240 100% 83.23424231283107%)" />
  <rect x="135" y="85" width="30" height="30" fill="hsl(240 100% 97.78912822440442%)" />
  <rect x="170" y="85" width="30" height="30" fill="hsl(240 100% 89.97892287311169%)" />
  <rect x="205" y="85" width="30" height="30" fill="hsl(240 100% 98.88659922900182%)" />
  <rect x="240" y="85" width="30" height="30" fill="hsl(240 100% 50%)" />
  <rect x="310" y="85" width="30" height="30" fill="hsl(240 100% 92.5093134895193%)" />
  <rect x="380" y="85" width="30" height="30" fill="hsl(240 100% 68.1366925245509%)" />
  <rect x="485" y="85" width="30" height="30" fill="hsl(240 100% 51.607481214907615%)" />
  <rect x="555" y="85" width="30" height="30" fill="rgb(255 255 255 / 50%)" />
  <rect x="625" y="85" width="30" height="30" fill="hsl(240 100% 72.17153537669063%)" />
  <rect x="660" y="85" width="30" height="30" fill="rgb(255 255 255 / 50%)" />
  <rect x="695" y="85" width="30" height="30" fill="hsl(240 100% 99.6918122858908%)" />
  <rect x="65" y="120" width="30" height="30" fill="hsl(240 100% 50%)" />
  <rect x="100" y="120" width="30" height="30" fill="hsl(240 100% 84.71672963648255%)" />
  <rect x="135" y="120" width="30" height="30" fill="hsl(240 100% 86.26770396045113%)" />
  <rect x="170" y="120" width="30" height="30" fill="hsl(240 100% 51.17693116497556%)" />
  <rect x="205" y="120" width="30" height="30" fill="hsl(240 100% 93.09694667543205%)" />
  <rect x="240" y="120" width="30" height="30" fill="hsl(240 100% 91.88401320025224%)" />
  <rect x="275" y="120" width="30" height="30" fill="hsl(240 100% 99.19673494179104%)" />
  <rect x="310" y="120" width="30" height="30" fill="hsl(240 100% 98.99877801341442%)" />
  <rect x="380" y="120" width="30" height="30" fill="hsl(240 100% 94.80252909926708%)" />
  <rect x="415" y="120" width="30" height="30" fill="hsl(240 100% 98.00726706571491%)" />
  <rect x="485" y="120" width="30" height="30" fill="hsl(240 100% 80.12431541960453%)" />
  <rect x="695" y="120" width="30" height="30" fill="rgb(255 255 255 / 50%)" />
  <rect x="65" y="155" width="30" height="30" fill="hsl(240 100% 97.19455835197977%)" />
  <rect x="100" y="155" width="30" height="30" fill="hsl(240 100% 98.27770140376731%)" />
  <rect x="135" y="155" width="30" height="30" fill="hsl(240 100% 98.82237663301204%)" />
  <rect x="170" y="155" width="30" height="30" fill="hsl(240 100% 97.25759064235837%)" />
  <rect x="205" y="155" width="30" height="30" fill="hsl(240 100% 99.77103405955283%)" />
  <rect x="240" y="155" width="30" height="30" fill="hsl(240 100% 87.28500603951333%)" />
  <rect x="275" y="155" width="30" height="30" fill="hsl(240 100% 99.82618838715607%)" />
  <rect x="310" y="155" width="30" height="30" fill="rgb(255 255 255 / 50%)" />
  <rect x="380" y="155" width="30" height="30" fill="hsl(240 100% 90.00326670849277%)" />
  <rect x="450" y="155" width="30" height="30" fill="hsl(240 100% 71.35291810656925%)" />
  <rect x="485" y="155" width="30" height="30" fill="hsl(240 100% 75.5739534865092%)" />
  <rect x="520" y="155" width="30" height="30" fill="hsl(240 100% 99.3641400417159%)" />
  <rect x="555" y="155" width="30" height="30" fill="hsl(240 100% 50%)" />
  <rect x="590" y="155" width="30" height="30" fill="hsl(240 100% 92.62353940306792%)" />
  <rect x="625" y="155" width="30" height="30" fill="hsl(240 100% 76.24316064938907%)" />
  <rect x="660" y="155" width="30" height="30" fill="hsl(240 100% 89.0075546886773%)" />
  <rect x="695" y="155" width="30" height="30" fill="hsl(240 100% 99.33970488075413%)" />
  <rect x="65" y="190" width="30" height="30" fill="hsl(240 100% 50%)" />
  <rect x="100" y="190" width="30" height="30" fill="hsl(240 100% 50%)" />
  <rect x="135" y="190" width="30" height="30" fill="hsl(240 100% 50%)" />
  <rect x="170" y="190" width="30" height="30" fill="hsl(240 100% 50%)" />
  <rect x="205" y="190" width="30" height="30" fill="hsl(240 100% 50%)" />
  <rect x="240" y="190" width="30" height="30" fill="hsl(240 100% 50%)" />
  <rect x="275" y="190" width="30" height="30" fill="hsl(240 100% 50%)" />
  <rect x="310" y="190" width="30" height="30" fill="hsl(240 100% 50%)" />
  <rect x="345" y="190" width="30" height="30" fill="hsl(240 100% 50%)" />
  <rect x="380" y="190" width="30" height="30" fill="hsl(240 100% 50%)" />
  <rect x="415" y="190" width="30" height="30" fill="hsl(240 100% 50%)" />
  <rect x="450" y="190" width="30" height="30" fill="hsl(240 100% 50%)" />
  <rect x="485" y="190" width="30" height="30" fill="hsl(240 100% 50%)" />
  <rect x="520" y="190" width="30" height="30" fill="hsl(240 100% 50%)" />
  <rect x="555" y="190" width="30" height="30" fill="hsl(240 100% 50%)" />
  <rect x="590" y="190" width="30" height="30" fill="hsl(240 100% 50%)" />
  <rect x="625" y="190" width="30" height="30" fill="hsl(240 100% 50%)" />
  <rect x="660" y="190" width="30" height="30" fill="hsl(240 100% 50%)" />
  <rect x="695" y="190" width="30" height="30" fill="hsl(240 100% 50%)" />
  <rect x="100" y="225" width="30" height="30" fill="hsl(240 100% 95.95293334165515%)" />
  <rect x="135" y="225" width="30" height="30" fill="hsl(240 100% 89.83443994852988%)" />
  <rect x="170" y="225" width="30" height="30" fill="hsl(240 100% 88.25140632932738%)" />
  <rect x="240" y="225" width="30" height="30" fill="hsl(240 100% 89.92671782543349%)" />
  <rect x="310" y="225" width="30" height="30" fill="rgb(255 255 255 / 50%)" />
  <rect x="380" y="225" width="30" height="30" fill="hsl(240 100% 89.43128013373024%)" />
  <rect x="485" y="225" width="30" height="30" fill="hsl(240 100% 50%)" />
  <rect x="555" y="225" width="30" height="30" fill="rgb(255 255 255 / 50%)" />
  <rect x="625" y="225" width="30" height="30" fill="rgb(255 255 255 / 50%)" />
  <rect x="660" y="225" width="30" height="30" fill="rgb(255 255 255 / 50%)" />
  <rect x="695" y="225" width="30" height="30" fill="hsl(240 100% 99.42091018763%)" />
  <rect x="135" y="260" width="30" height="30" fill="hsl(240 100% 99.91230168295175%)" />
  <rect x="170" y="260" width="30" height="30" fill="hsl(240 100% 99.35449426620669%)" />
  <rect x="205" y="260" width="30" height="30" fill="rgb(255 255 255 / 50%)" />
  <rect x="240" y="260" width="30" height="30" fill="hsl(240 100% 87.59064199382597%)" />
  <rect x="310" y="260" width="30" height="30" fill="rgb(255 255 255 / 50%)" />
  <rect x="380" y="260" width="30" height="30" fill="hsl(240 100% 83.12894726311075%)" />
  <rect x="415" y="260" width="30" height="30" fill="rgb(255 255 255 / 50%)" />
  <rect x="450" y="260" width="30" height="30" fill="hsl(240 100% 50%)" />
  <rect x="485" y="260" width="30" height="30" fill="hsl(240 100% 76.70003654781206%)" />
  <rect x="555" y="260" width="30" height="30" fill="hsl(240 100% 97.03299620388768%)" />
  <rect x="590" y="260" width="30" height="30" fill="hsl(240 100% 94.19796563984785%)" />
  <rect x="65" y="295" width="30" height="30" fill="hsl(240 100% 59.101425536688126%)" />
  <rect x="100" y="295" width="30" height="30" fill="hsl(240 100% 66.90652736298587%)" />
  <rect x="135" y="295" width="30" height="30" fill="hsl(240 100% 58.732817871329964%)" />
  <rect x="170" y="295" width="30" height="30" fill="hsl(240 100% 60.0229550077881%)" />
  <rect x="205" y="295" width="30" height="30" fill="hsl(240 100% 91.50334241724299%)" />
  <rect x="240" y="295" width="30" height="30" fill="hsl(240 100% 50%)" />
  <rect x="275" y="295" width="30" height="30" fill="hsl(240 100% 98.86227544953883%)" />
  <rect x="310" y="295" width="30" height="30" fill="hsl(240 100% 99.42742143600228%)" />
  <rect x="380" y="295" width="30" height="30" fill="hsl(240 100% 50.6068214631506%)" />
  <rect x="415" y="295" width="30" height="30" fill="hsl(240 100% 89.68971415353624%)" />
  <rect x="485" y="295" width="30" height="30" fill="hsl(240 100% 53.5362154534575%)" />
  <rect x="590" y="295" width="30" height="30" fill="hsl(240 100% 55.30868199829016%)" />
  <rect x="695" y="295" width="30" height="30" fill="hsl(240 100% 99.72841704140112%)" />
  <rect x="65" y="330" width="30" height="30" fill="hsl(240 100% 88.96899078344805%)" />
  <rect x="100" y="330" width="30" height="30" fill="hsl(240 100% 95.21231541469709%)" />
  <rect x="135" y="330" width="30" height="30" fill="hsl(240 100% 97.20905874547104%)" />
  <rect x="170" y="330" width="30" height="30" fill="hsl(240 100% 89.14230007539511%)" />
  <rect x="205" y="330" width="30" height="30" fill="hsl(240 100% 99.20622765762542%)" />
  <rect x="240" y="330" width="30" height="30" fill="hsl(240 100% 80.99674324987446%)" />
  <rect x="275" y="330" width="30" height="30" fill="hsl(240 100% 99.82554939379018%)" />
  <rect x="310" y="330" width="30" height="30" fill="rgb(255 255 255 / 50%)" />
  <rect x="380" y="330" width="30" height="30" fill="hsl(240 100% 85.88461658579334%)" />
  <rect x="415" y="330" width="30" height="30" fill="hsl(240 100% 99.80471816474075%)" />
  <rect x="450" y="330" width="30" height="30" fill="hsl(240 100% 70.97672362044668%)" />
  <rect x="485" y="330" width="30" height="30" fill="hsl(240 100% 78.13054580022774%)" />
  <rect x="520" y="330" width="30" height="30" fill="hsl(240 100% 93.78220279977842%)" />
  <rect x="555" y="330" width="30" height="30" fill="hsl(240 100% 50%)" />
  <rect x="660" y="330" width="30" height="30" fill="hsl(240 100% 89.08262797610719%)" />
  <rect x="695" y="330" width="30" height="30" fill="hsl(240 100% 95.218751055575%)" />
  <rect x="65" y="365" width="30" height="30" fill="hsl(240 100% 53.636199165237734%)" />
  <rect x="100" y="365" width="30" height="30" fill="hsl(240 100% 69.00341113757563%)" />
  <rect x="135" y="365" width="30" height="30" fill="hsl(240 100% 80.69423533043606%)" />
  <rect x="170" y="365" width="30" height="30" fill="hsl(240 100% 50%)" />
  <rect x="205" y="365" width="30" height="30" fill="hsl(240 100% 95.89247569529601%)" />
  <rect x="240" y="365" width="30" height="30" fill="hsl(240 100% 50.471959683715376%)" />
  <rect x="310" y="365" width="30" height="30" fill="hsl(240 100% 99.84957738071361%)" />
  <rect x="380" y="365" width="30" height="30" fill="hsl(240 100% 63.62133199963218%)" />
  <rect x="485" y="365" width="30" height="30" fill="hsl(240 100% 84.4041295807746%)" />
  <rect x="555" y="365" width="30" height="30" fill="hsl(240 100% 99.60290322947495%)" />
  <rect x="625" y="365" width="30" height="30" fill="hsl(240 100% 59.9002061509756%)" />
  <rect x="660" y="365" width="30" height="30" fill="hsl(240 100% 97.95417073549018%)" />
  <rect x="695" y="365" width="30" height="30" fill="hsl(240 100% 99.0804929269133%)" />
  <rect x="65" y="400" width="30" height="30" fill="hsl(240 100% 97.54572908533405%)" />
  <rect x="100" y="400" width="30" height="30" fill="hsl(240 100% 99.24186876089912%)" />
  <rect x="135" y="400" width="30" height="30" fill="hsl(240 100% 99.56373178394409%)" />
  <rect x="170" y="400" width="30" height="30" fill="hsl(240 100% 93.71699313624987%)" />
  <rect x="205" y="400" width="30" height="30" fill="hsl(240 100% 98.97594146490034%)" />
  <rect x="240" y="400" width="30" height="30" fill="hsl(240 100% 85.63428578647435%)" />
  <rect x="275" y="400" width="30" height="30" fill="hsl(240 100% 98.98760172046546%)" />
  <rect x="310" y="400" width="30" height="30" fill="rgb(255 255 255 / 50%)" />
  <rect x="380" y="400" width="30" height="30" fill="hsl(240 100% 95.4121481396108%)" />
  <rect x="415" y="400" width="30" height="30" fill="hsl(240 100% 99.9605072552512%)" />
  <rect x="485" y="400" width="30" height="30" fill="hsl(240 100% 50%)" />
  <rect x="695" y="400" width="30" height="30" fill="hsl(240 100% 99.61718712029607%)" />
  <rect x="240" y="435" width="30" height="30" fill="hsl(240 100% 50%)" />
  <rect x="310" y="435" width="30" height="30" fill="hsl(240 100% 95.22095171184985%)" />
  <rect x="380" y="435" width="30" height="30" fill="hsl(240 100% 88.02837557780231%)" />
  <rect x="415" y="435" width="30" height="30" fill="hsl(240 100% 99.78929368960343%)" />
  <rect x="240" y="470" width="30" height="30" fill="hsl(240 100% 50%)" />
  <rect x="310" y="470" width="30" height="30" fill="hsl(240 100% 95.82640487379071%)" />
  <rect x="380" y="470" width="30" height="30" fill="hsl(240 100% 89.11233287660508%)" />
  <rect x="415" y="470" width="30" height="30" fill="hsl(240 100% 99.56979531213777%)" />
</svg>
