<svg xmlns="http://www.w3.org/2000/svg" viewBox="0 0 625 295">
  <rect x="0" y="0" width="625" height="295" rx="5" ry="5" fill="#222" />
  <text x="60" y="100" fill="white" font-family="sans-serif" font-weight="bold" font-size="12" text-anchor="end" dominant-baseline="middle">ba</text>
  <text x="60" y="135" fill="white" font-family="sans-serif" font-weight="bold" font-size="12" text-anchor="end" dominant-baseline="middle">gmm</text>
  <text x="60" y="170" fill="white" font-family="sans-serif" font-weight="bold" font-size="12" text-anchor="end" dominant-baseline="middle">hello</text>
  <text x="60" y="205" fill="white" font-family="sans-serif" font-weight="bold" font-size="12" text-anchor="end" dominant-baseline="middle">ht</text>
  <text x="60" y="240" fill="white" font-family="sans-serif" font-weight="bold" font-size="12" text-anchor="end" dominant-baseline="middle">kmeans</text>
  <text x="60" y="275" fill="white" font-family="sans-serif" font-weight="bold" font-size="12" text-anchor="end" dominant-baseline="middle">lstm</text>
  <text x="80" y="80" fill="white" font-family="sans-serif" font-weight="bold" font-size="12" text-anchor="end" dominant-baseline="middle" transform="rotate(90 80 80)">adept</text>
  <text x="115" y="80" fill="white" font-family="sans-serif" font-weight="bold" font-size="12" text-anchor="end" dominant-baseline="middle" transform="rotate(90 115 80)">adol-c</text>
  <text x="150" y="80" fill="white" font-family="sans-serif" font-weight="bold" font-size="12" text-anchor="end" dominant-baseline="middle" transform="rotate(90 150 80)">cppad</text>
  <text x="185" y="80" fill="white" font-family="sans-serif" font-weight="bold" font-size="12" text-anchor="end" dominant-baseline="middle" transform="rotate(90 185 80)">enzyme</text>
  <text x="220" y="80" fill="white" font-family="sans-serif" font-weight="bold" font-size="12" text-anchor="end" dominant-baseline="middle" transform="rotate(90 220 80)">finite</text>
  <text x="255" y="80" fill="white" font-family="sans-serif" font-weight="bold" font-size="12" text-anchor="end" dominant-baseline="middle" transform="rotate(90 255 80)">floretta</text>
  <text x="290" y="80" fill="white" font-family="sans-serif" font-weight="bold" font-size="12" text-anchor="end" dominant-baseline="middle" transform="rotate(90 290 80)">futhark</text>
  <text x="325" y="80" fill="white" font-family="sans-serif" font-weight="bold" font-size="12" text-anchor="end" dominant-baseline="middle" transform="rotate(90 325 80)">haskell</text>
  <text x="360" y="80" fill="white" font-family="sans-serif" font-weight="bold" font-size="12" text-anchor="end" dominant-baseline="middle" transform="rotate(90 360 80)">jax</text>
  <text x="395" y="80" fill="white" font-family="sans-serif" font-weight="bold" font-size="12" text-anchor="end" dominant-baseline="middle" transform="rotate(90 395 80)">manual</text>
  <text x="430" y="80" fill="white" font-family="sans-serif" font-weight="bold" font-size="12" text-anchor="end" dominant-baseline="middle" transform="rotate(90 430 80)">ocaml</text>
  <text x="465" y="80" fill="white" font-family="sans-serif" font-weight="bold" font-size="12" text-anchor="end" dominant-baseline="middle" transform="rotate(90 465 80)">pytorch</text>
  <text x="500" y="80" fill="white" font-family="sans-serif" font-weight="bold" font-size="12" text-anchor="end" dominant-baseline="middle" transform="rotate(90 500 80)">scilean</text>
  <text x="535" y="80" fill="white" font-family="sans-serif" font-weight="bold" font-size="12" text-anchor="end" dominant-baseline="middle" transform="rotate(90 535 80)">tapenade</text>
  <text x="570" y="80" fill="white" font-family="sans-serif" font-weight="bold" font-size="12" text-anchor="end" dominant-baseline="middle" transform="rotate(90 570 80)">tensorflow</text>
  <text x="605" y="80" fill="white" font-family="sans-serif" font-weight="bold" font-size="12" text-anchor="end" dominant-baseline="middle" transform="rotate(90 605 80)">zygote</text>
  <rect x="65" y="85" width="30" height="30" fill="hsl(240 100% 84.6520006928158%)" />
  <rect x="100" y="85" width="30" height="30" fill="hsl(240 100% 98.12061264598945%)" />
  <rect x="170" y="85" width="30" height="30" fill="hsl(240 100% 50.44101330275828%)" />
  <rect x="205" y="85" width="30" height="30" fill="hsl(240 100% 92.0008946918126%)" />
  <rect x="275" y="85" width="30" height="30" fill="hsl(240 100% 75.87965824635332%)" />
  <rect x="380" y="85" width="30" height="30" fill="hsl(240 100% 50%)" />
  <rect x="450" y="85" width="30" height="30" fill="hsl(240 100% 99.99179858727894%)" />
  <rect x="520" y="85" width="30" height="30" fill="hsl(240 100% 73.88751342698765%)" />
  <rect x="555" y="85" width="30" height="30" fill="hsl(240 100% 99.98453486343325%)" />
  <rect x="65" y="120" width="30" height="30" fill="hsl(240 100% 96.88700804555825%)" />
  <rect x="100" y="120" width="30" height="30" fill="hsl(240 100% 97.41267141403893%)" />
  <rect x="135" y="120" width="30" height="30" fill="hsl(240 100% 98.1288889339815%)" />
  <rect x="170" y="120" width="30" height="30" fill="hsl(240 100% 83.12137870115257%)" />
  <rect x="205" y="120" width="30" height="30" fill="hsl(240 100% 99.99476749225572%)" />
  <rect x="275" y="120" width="30" height="30" fill="hsl(240 100% 81.6009687050531%)" />
  <rect x="345" y="120" width="30" height="30" fill="hsl(240 100% 70.7794764828516%)" />
  <rect x="380" y="120" width="30" height="30" fill="hsl(240 100% 61.768984080400294%)" />
  <rect x="415" y="120" width="30" height="30" fill="hsl(240 100% 99.32908351408517%)" />
  <rect x="450" y="120" width="30" height="30" fill="hsl(240 100% 50%)" />
  <rect x="485" y="120" width="30" height="30" fill="hsl(240 100% 95.36884269504611%)" />
  <rect x="520" y="120" width="30" height="30" fill="hsl(240 100% 65.13267064547726%)" />
  <rect x="555" y="120" width="30" height="30" fill="hsl(240 100% 85.13839393570471%)" />
  <rect x="65" y="155" width="30" height="30" fill="hsl(240 100% 50%)" />
  <rect x="100" y="155" width="30" height="30" fill="hsl(240 100% 50%)" />
  <rect x="135" y="155" width="30" height="30" fill="hsl(240 100% 50%)" />
  <rect x="170" y="155" width="30" height="30" fill="hsl(240 100% 50%)" />
  <rect x="205" y="155" width="30" height="30" fill="hsl(240 100% 50%)" />
  <rect x="240" y="155" width="30" height="30" fill="hsl(240 100% 50%)" />
  <rect x="275" y="155" width="30" height="30" fill="hsl(240 100% 50%)" />
  <rect x="310" y="155" width="30" height="30" fill="hsl(240 100% 50%)" />
  <rect x="345" y="155" width="30" height="30" fill="hsl(240 100% 50%)" />
  <rect x="380" y="155" width="30" height="30" fill="hsl(240 100% 50%)" />
  <rect x="415" y="155" width="30" height="30" fill="hsl(240 100% 50%)" />
  <rect x="450" y="155" width="30" height="30" fill="hsl(240 100% 50%)" />
  <rect x="485" y="155" width="30" height="30" fill="hsl(240 100% 50%)" />
  <rect x="520" y="155" width="30" height="30" fill="hsl(240 100% 50%)" />
  <rect x="555" y="155" width="30" height="30" fill="hsl(240 100% 50%)" />
  <rect x="590" y="155" width="30" height="30" fill="hsl(240 100% 50%)" />
  <rect x="65" y="190" width="30" height="30" fill="hsl(240 100% 97.1639208787066%)" />
  <rect x="100" y="190" width="30" height="30" fill="hsl(240 100% 97.95872505937783%)" />
  <rect x="170" y="190" width="30" height="30" fill="hsl(240 100% 95.08178953115642%)" />
  <rect x="205" y="190" width="30" height="30" fill="hsl(240 100% 99.20091567940811%)" />
  <rect x="275" y="190" width="30" height="30" fill="hsl(240 100% 94.15427337998703%)" />
  <rect x="380" y="190" width="30" height="30" fill="hsl(240 100% 50%)" />
  <rect x="450" y="190" width="30" height="30" fill="hsl(240 100% 99.96786323008892%)" />
  <rect x="520" y="190" width="30" height="30" fill="hsl(240 100% 99.41318036700743%)" />
  <rect x="555" y="190" width="30" height="30" fill="hsl(240 100% 99.48422152553948%)" />
  <rect x="100" y="225" width="30" height="30" fill="hsl(240 100% 99.87612510524816%)" />
  <rect x="170" y="225" width="30" height="30" fill="hsl(240 100% 87.6906251088798%)" />
  <rect x="275" y="225" width="30" height="30" fill="hsl(240 100% 83.05777190046045%)" />
  <rect x="310" y="225" width="30" height="30" fill="hsl(240 100% 99.99215606020609%)" />
  <rect x="345" y="225" width="30" height="30" fill="hsl(240 100% 50%)" />
  <rect x="380" y="225" width="30" height="30" fill="hsl(240 100% 76.88332471445564%)" />
  <rect x="450" y="225" width="30" height="30" fill="hsl(240 100% 87.17790453662012%)" />
  <rect x="485" y="225" width="30" height="30" fill="hsl(240 100% 99.53997450479213%)" />
  <rect x="65" y="260" width="30" height="30" fill="hsl(240 100% 69.33894934737245%)" />
  <rect x="100" y="260" width="30" height="30" fill="hsl(240 100% 80.14861554975634%)" />
  <rect x="135" y="260" width="30" height="30" fill="hsl(240 100% 88.71446175120839%)" />
  <rect x="170" y="260" width="30" height="30" fill="hsl(240 100% 50%)" />
  <rect x="205" y="260" width="30" height="30" fill="hsl(240 100% 99.79819757654279%)" />
  <rect x="275" y="260" width="30" height="30" fill="hsl(240 100% 62.97315592515352%)" />
  <rect x="380" y="260" width="30" height="30" fill="hsl(240 100% 78.44675060986732%)" />
  <rect x="450" y="260" width="30" height="30" fill="hsl(240 100% 99.66039406625475%)" />
  <rect x="485" y="260" width="30" height="30" fill="hsl(240 100% 96.152058724317%)" />
  <rect x="520" y="260" width="30" height="30" fill="hsl(240 100% 59.55722680986935%)" />
  <rect x="555" y="260" width="30" height="30" fill="hsl(240 100% 98.05300599886176%)" />
</svg>
