<svg xmlns="http://www.w3.org/2000/svg" viewBox="0 0 660 295">
  <rect x="0" y="0" width="660" height="295" rx="5" ry="5" fill="#222" />
  <text x="60" y="100" fill="white" font-family="sans-serif" font-weight="bold" font-size="12" text-anchor="end" dominant-baseline="middle">ba</text>
  <text x="60" y="135" fill="white" font-family="sans-serif" font-weight="bold" font-size="12" text-anchor="end" dominant-baseline="middle">gmm</text>
  <text x="60" y="170" fill="white" font-family="sans-serif" font-weight="bold" font-size="12" text-anchor="end" dominant-baseline="middle">hello</text>
  <text x="60" y="205" fill="white" font-family="sans-serif" font-weight="bold" font-size="12" text-anchor="end" dominant-baseline="middle">ht</text>
  <text x="60" y="240" fill="white" font-family="sans-serif" font-weight="bold" font-size="12" text-anchor="end" dominant-baseline="middle">kmeans</text>
  <text x="60" y="275" fill="white" font-family="sans-serif" font-weight="bold" font-size="12" text-anchor="end" dominant-baseline="middle">lstm</text>
  <text x="80" y="80" fill="white" font-family="sans-serif" font-weight="bold" font-size="12" text-anchor="end" dominant-baseline="middle" transform="rotate(90 80 80)">adept</text>
  <text x="115" y="80" fill="white" font-family="sans-serif" font-weight="bold" font-size="12" text-anchor="end" dominant-baseline="middle" transform="rotate(90 115 80)">adol-c</text>
  <text x="150" y="80" fill="white" font-family="sans-serif" font-weight="bold" font-size="12" text-anchor="end" dominant-baseline="middle" transform="rotate(90 150 80)">codipack</text>
  <text x="185" y="80" fill="white" font-family="sans-serif" font-weight="bold" font-size="12" text-anchor="end" dominant-baseline="middle" transform="rotate(90 185 80)">cppad</text>
  <text x="220" y="80" fill="white" font-family="sans-serif" font-weight="bold" font-size="12" text-anchor="end" dominant-baseline="middle" transform="rotate(90 220 80)">enzyme</text>
  <text x="255" y="80" fill="white" font-family="sans-serif" font-weight="bold" font-size="12" text-anchor="end" dominant-baseline="middle" transform="rotate(90 255 80)">finite</text>
  <text x="290" y="80" fill="white" font-family="sans-serif" font-weight="bold" font-size="12" text-anchor="end" dominant-baseline="middle" transform="rotate(90 290 80)">floretta</text>
  <text x="325" y="80" fill="white" font-family="sans-serif" font-weight="bold" font-size="12" text-anchor="end" dominant-baseline="middle" transform="rotate(90 325 80)">futhark</text>
  <text x="360" y="80" fill="white" font-family="sans-serif" font-weight="bold" font-size="12" text-anchor="end" dominant-baseline="middle" transform="rotate(90 360 80)">haskell</text>
  <text x="395" y="80" fill="white" font-family="sans-serif" font-weight="bold" font-size="12" text-anchor="end" dominant-baseline="middle" transform="rotate(90 395 80)">jax</text>
  <text x="430" y="80" fill="white" font-family="sans-serif" font-weight="bold" font-size="12" text-anchor="end" dominant-baseline="middle" transform="rotate(90 430 80)">manual</text>
  <text x="465" y="80" fill="white" font-family="sans-serif" font-weight="bold" font-size="12" text-anchor="end" dominant-baseline="middle" transform="rotate(90 465 80)">ocaml</text>
  <text x="500" y="80" fill="white" font-family="sans-serif" font-weight="bold" font-size="12" text-anchor="end" dominant-baseline="middle" transform="rotate(90 500 80)">pytorch</text>
  <text x="535" y="80" fill="white" font-family="sans-serif" font-weight="bold" font-size="12" text-anchor="end" dominant-baseline="middle" transform="rotate(90 535 80)">scilean</text>
  <text x="570" y="80" fill="white" font-family="sans-serif" font-weight="bold" font-size="12" text-anchor="end" dominant-baseline="middle" transform="rotate(90 570 80)">tapenade</text>
  <text x="605" y="80" fill="white" font-family="sans-serif" font-weight="bold" font-size="12" text-anchor="end" dominant-baseline="middle" transform="rotate(90 605 80)">tensorflow</text>
  <text x="640" y="80" fill="white" font-family="sans-serif" font-weight="bold" font-size="12" text-anchor="end" dominant-baseline="middle" transform="rotate(90 640 80)">zygote</text>
  <rect x="65" y="85" width="30" height="30" fill="hsl(240 100% 83.36959797038114%)" />
  <rect x="100" y="85" width="30" height="30" fill="hsl(240 100% 97.82050193491476%)" />
  <rect x="135" y="85" width="30" height="30" fill="hsl(240 100% 89.1326952633262%)" />
  <rect x="205" y="85" width="30" height="30" fill="hsl(240 100% 50.8518843372933%)" />
  <rect x="240" y="85" width="30" height="30" fill="hsl(240 100% 92.65832810342677%)" />
  <rect x="310" y="85" width="30" height="30" fill="hsl(240 100% 68.58728203273202%)" />
  <rect x="415" y="85" width="30" height="30" fill="hsl(240 100% 50%)" />
  <rect x="485" y="85" width="30" height="30" fill="rgb(255 255 255 / 50%)" />
  <rect x="555" y="85" width="30" height="30" fill="hsl(240 100% 72.66556605270763%)" />
  <rect x="590" y="85" width="30" height="30" fill="rgb(255 255 255 / 50%)" />
  <rect x="65" y="120" width="30" height="30" fill="hsl(240 100% 98.41594189718224%)" />
  <rect x="100" y="120" width="30" height="30" fill="hsl(240 100% 98.96910789936182%)" />
  <rect x="135" y="120" width="30" height="30" fill="hsl(240 100% 97.32571099982178%)" />
  <rect x="170" y="120" width="30" height="30" fill="rgb(255 255 255 / 50%)" />
  <rect x="205" y="120" width="30" height="30" fill="hsl(240 100% 87.75439410688831%)" />
  <rect x="240" y="120" width="30" height="30" fill="rgb(255 255 255 / 50%)" />
  <rect x="310" y="120" width="30" height="30" fill="hsl(240 100% 90.65595576004092%)" />
  <rect x="380" y="120" width="30" height="30" fill="hsl(240 100% 83.7471837735144%)" />
  <rect x="415" y="120" width="30" height="30" fill="hsl(240 100% 76.1755224873394%)" />
  <rect x="450" y="120" width="30" height="30" fill="hsl(240 100% 99.40267810187996%)" />
  <rect x="485" y="120" width="30" height="30" fill="hsl(240 100% 50%)" />
  <rect x="520" y="120" width="30" height="30" fill="hsl(240 100% 96.24171337756562%)" />
  <rect x="555" y="120" width="30" height="30" fill="hsl(240 100% 77.08646987524263%)" />
  <rect x="590" y="120" width="30" height="30" fill="hsl(240 100% 88.37938884048778%)" />
  <rect x="65" y="155" width="30" height="30" fill="hsl(240 100% 50%)" />
  <rect x="100" y="155" width="30" height="30" fill="hsl(240 100% 50%)" />
  <rect x="135" y="155" width="30" height="30" fill="hsl(240 100% 50%)" />
  <rect x="170" y="155" width="30" height="30" fill="hsl(240 100% 50%)" />
  <rect x="205" y="155" width="30" height="30" fill="hsl(240 100% 50%)" />
  <rect x="240" y="155" width="30" height="30" fill="hsl(240 100% 50%)" />
  <rect x="275" y="155" width="30" height="30" fill="hsl(240 100% 50%)" />
  <rect x="310" y="155" width="30" height="30" fill="hsl(240 100% 50%)" />
  <rect x="345" y="155" width="30" height="30" fill="hsl(240 100% 50%)" />
  <rect x="380" y="155" width="30" height="30" fill="hsl(240 100% 50%)" />
  <rect x="415" y="155" width="30" height="30" fill="hsl(240 100% 50%)" />
  <rect x="450" y="155" width="30" height="30" fill="hsl(240 100% 50%)" />
  <rect x="485" y="155" width="30" height="30" fill="hsl(240 100% 50%)" />
  <rect x="520" y="155" width="30" height="30" fill="hsl(240 100% 50%)" />
  <rect x="555" y="155" width="30" height="30" fill="hsl(240 100% 50%)" />
  <rect x="590" y="155" width="30" height="30" fill="hsl(240 100% 50%)" />
  <rect x="625" y="155" width="30" height="30" fill="hsl(240 100% 50%)" />
  <rect x="65" y="190" width="30" height="30" fill="hsl(240 100% 96.27747572568391%)" />
  <rect x="100" y="190" width="30" height="30" fill="hsl(240 100% 96.54508826303235%)" />
  <rect x="135" y="190" width="30" height="30" fill="hsl(240 100% 89.01998945428636%)" />
  <rect x="205" y="190" width="30" height="30" fill="hsl(240 100% 90.76276022353574%)" />
  <rect x="240" y="190" width="30" height="30" fill="rgb(255 255 255 / 50%)" />
  <rect x="310" y="190" width="30" height="30" fill="hsl(240 100% 90.16174960331645%)" />
  <rect x="415" y="190" width="30" height="30" fill="hsl(240 100% 50%)" />
  <rect x="485" y="190" width="30" height="30" fill="rgb(255 255 255 / 50%)" />
  <rect x="555" y="190" width="30" height="30" fill="rgb(255 255 255 / 50%)" />
  <rect x="590" y="190" width="30" height="30" fill="rgb(255 255 255 / 50%)" />
  <rect x="100" y="225" width="30" height="30" fill="hsl(240 100% 99.87536440007824%)" />
  <rect x="135" y="225" width="30" height="30" fill="hsl(240 100% 99.40381051243878%)" />
  <rect x="170" y="225" width="30" height="30" fill="rgb(255 255 255 / 50%)" />
  <rect x="205" y="225" width="30" height="30" fill="hsl(240 100% 87.86763868301607%)" />
  <rect x="240" y="225" width="30" height="30" fill="rgb(255 255 255 / 50%)" />
  <rect x="310" y="225" width="30" height="30" fill="hsl(240 100% 82.80607538241759%)" />
  <rect x="345" y="225" width="30" height="30" fill="rgb(255 255 255 / 50%)" />
  <rect x="380" y="225" width="30" height="30" fill="hsl(240 100% 50%)" />
  <rect x="415" y="225" width="30" height="30" fill="hsl(240 100% 76.80132649447845%)" />
  <rect x="485" y="225" width="30" height="30" fill="hsl(240 100% 85.3556629888278%)" />
  <rect x="520" y="225" width="30" height="30" fill="hsl(240 100% 99.5323224410609%)" />
  <rect x="65" y="260" width="30" height="30" fill="hsl(240 100% 68.24493858993259%)" />
  <rect x="100" y="260" width="30" height="30" fill="hsl(240 100% 79.95580207508583%)" />
  <rect x="135" y="260" width="30" height="30" fill="hsl(240 100% 50%)" />
  <rect x="170" y="260" width="30" height="30" fill="hsl(240 100% 89.6767632591753%)" />
  <rect x="205" y="260" width="30" height="30" fill="hsl(240 100% 51.88510808635967%)" />
  <rect x="240" y="260" width="30" height="30" fill="hsl(240 100% 99.85455304000727%)" />
  <rect x="310" y="260" width="30" height="30" fill="hsl(240 100% 63.826480517652044%)" />
  <rect x="415" y="260" width="30" height="30" fill="hsl(240 100% 84.14169973730671%)" />
  <rect x="485" y="260" width="30" height="30" fill="hsl(240 100% 99.64340953208479%)" />
  <rect x="520" y="260" width="30" height="30" fill="hsl(240 100% 96.0942153805367%)" />
  <rect x="555" y="260" width="30" height="30" fill="hsl(240 100% 60.67922649418767%)" />
  <rect x="590" y="260" width="30" height="30" fill="hsl(240 100% 97.90966060358001%)" />
</svg>
