<svg xmlns="http://www.w3.org/2000/svg" viewBox="0 0 870 505">
  <rect x="0" y="0" width="870" height="505" rx="5" ry="5" fill="#222" />
  <text x="60" y="100" fill="white" font-family="sans-serif" font-weight="bold" font-size="12" text-anchor="end" dominant-baseline="middle">ba</text>
  <text x="60" y="135" fill="white" font-family="sans-serif" font-weight="bold" font-size="12" text-anchor="end" dominant-baseline="middle">det</text>
  <text x="60" y="170" fill="white" font-family="sans-serif" font-weight="bold" font-size="12" text-anchor="end" dominant-baseline="middle">gmm</text>
  <text x="60" y="205" fill="white" font-family="sans-serif" font-weight="bold" font-size="12" text-anchor="end" dominant-baseline="middle">hello</text>
  <text x="60" y="240" fill="white" font-family="sans-serif" font-weight="bold" font-size="12" text-anchor="end" dominant-baseline="middle">ht</text>
  <text x="60" y="275" fill="white" font-family="sans-serif" font-weight="bold" font-size="12" text-anchor="end" dominant-baseline="middle">kmeans</text>
  <text x="60" y="310" fill="white" font-family="sans-serif" font-weight="bold" font-size="12" text-anchor="end" dominant-baseline="middle">llsq</text>
  <text x="60" y="345" fill="white" font-family="sans-serif" font-weight="bold" font-size="12" text-anchor="end" dominant-baseline="middle">lse</text>
  <text x="60" y="380" fill="white" font-family="sans-serif" font-weight="bold" font-size="12" text-anchor="end" dominant-baseline="middle">lstm</text>
  <text x="60" y="415" fill="white" font-family="sans-serif" font-weight="bold" font-size="12" text-anchor="end" dominant-baseline="middle">ode</text>
  <text x="60" y="450" fill="white" font-family="sans-serif" font-weight="bold" font-size="12" text-anchor="end" dominant-baseline="middle">particle</text>
  <text x="60" y="485" fill="white" font-family="sans-serif" font-weight="bold" font-size="12" text-anchor="end" dominant-baseline="middle">saddle</text>
  <text x="80" y="80" fill="white" font-family="sans-serif" font-weight="bold" font-size="12" text-anchor="end" dominant-baseline="middle" transform="rotate(90 80 80)">ad-hpp</text>
  <text x="115" y="80" fill="white" font-family="sans-serif" font-weight="bold" font-size="12" text-anchor="end" dominant-baseline="middle" transform="rotate(90 115 80)">adept</text>
  <text x="150" y="80" fill="white" font-family="sans-serif" font-weight="bold" font-size="12" text-anchor="end" dominant-baseline="middle" transform="rotate(90 150 80)">adol-c</text>
  <text x="185" y="80" fill="white" font-family="sans-serif" font-weight="bold" font-size="12" text-anchor="end" dominant-baseline="middle" transform="rotate(90 185 80)">codipack</text>
  <text x="220" y="80" fill="white" font-family="sans-serif" font-weight="bold" font-size="12" text-anchor="end" dominant-baseline="middle" transform="rotate(90 220 80)">cppad</text>
  <text x="255" y="80" fill="white" font-family="sans-serif" font-weight="bold" font-size="12" text-anchor="end" dominant-baseline="middle" transform="rotate(90 255 80)">enzyme</text>
  <text x="290" y="80" fill="white" font-family="sans-serif" font-weight="bold" font-size="12" text-anchor="end" dominant-baseline="middle" transform="rotate(90 290 80)">enzyme-jl</text>
  <text x="325" y="80" fill="white" font-family="sans-serif" font-weight="bold" font-size="12" text-anchor="end" dominant-baseline="middle" transform="rotate(90 325 80)">finite</text>
  <text x="360" y="80" fill="white" font-family="sans-serif" font-weight="bold" font-size="12" text-anchor="end" dominant-baseline="middle" transform="rotate(90 360 80)">floretta</text>
  <text x="395" y="80" fill="white" font-family="sans-serif" font-weight="bold" font-size="12" text-anchor="end" dominant-baseline="middle" transform="rotate(90 395 80)">forwarddiff-jl</text>
  <text x="430" y="80" fill="white" font-family="sans-serif" font-weight="bold" font-size="12" text-anchor="end" dominant-baseline="middle" transform="rotate(90 430 80)">futhark</text>
  <text x="465" y="80" fill="white" font-family="sans-serif" font-weight="bold" font-size="12" text-anchor="end" dominant-baseline="middle" transform="rotate(90 465 80)">haskell</text>
  <text x="500" y="80" fill="white" font-family="sans-serif" font-weight="bold" font-size="12" text-anchor="end" dominant-baseline="middle" transform="rotate(90 500 80)">jax</text>
  <text x="535" y="80" fill="white" font-family="sans-serif" font-weight="bold" font-size="12" text-anchor="end" dominant-baseline="middle" transform="rotate(90 535 80)">manual</text>
  <text x="570" y="80" fill="white" font-family="sans-serif" font-weight="bold" font-size="12" text-anchor="end" dominant-baseline="middle" transform="rotate(90 570 80)">mooncake-jl</text>
  <text x="605" y="80" fill="white" font-family="sans-serif" font-weight="bold" font-size="12" text-anchor="end" dominant-baseline="middle" transform="rotate(90 605 80)">ocaml</text>
  <text x="640" y="80" fill="white" font-family="sans-serif" font-weight="bold" font-size="12" text-anchor="end" dominant-baseline="middle" transform="rotate(90 640 80)">pytorch</text>
  <text x="675" y="80" fill="white" font-family="sans-serif" font-weight="bold" font-size="12" text-anchor="end" dominant-baseline="middle" transform="rotate(90 675 80)">reversediff-jl</text>
  <text x="710" y="80" fill="white" font-family="sans-serif" font-weight="bold" font-size="12" text-anchor="end" dominant-baseline="middle" transform="rotate(90 710 80)">scilean</text>
  <text x="745" y="80" fill="white" font-family="sans-serif" font-weight="bold" font-size="12" text-anchor="end" dominant-baseline="middle" transform="rotate(90 745 80)">tapenade</text>
  <text x="780" y="80" fill="white" font-family="sans-serif" font-weight="bold" font-size="12" text-anchor="end" dominant-baseline="middle" transform="rotate(90 780 80)">tensorflow</text>
  <text x="815" y="80" fill="white" font-family="sans-serif" font-weight="bold" font-size="12" text-anchor="end" dominant-baseline="middle" transform="rotate(90 815 80)">tensorflow-js</text>
  <text x="850" y="80" fill="white" font-family="sans-serif" font-weight="bold" font-size="12" text-anchor="end" dominant-baseline="middle" transform="rotate(90 850 80)">zygote</text>
  <rect x="65" y="85" width="30" height="30" fill="hsl(240 100% 80.76986808178984%)" />
  <rect x="100" y="85" width="30" height="30" fill="hsl(240 100% 82.55733832316562%)" />
  <rect x="135" y="85" width="30" height="30" fill="hsl(240 100% 97.92801603062219%)" />
  <rect x="170" y="85" width="30" height="30" fill="hsl(240 100% 81.60184439332545%)" />
  <rect x="205" y="85" width="30" height="30" fill="hsl(240 100% 98.95364319642374%)" />
  <rect x="240" y="85" width="30" height="30" fill="hsl(240 100% 50%)" />
  <rect x="310" y="85" width="30" height="30" fill="hsl(240 100% 92.89089119827135%)" />
  <rect x="415" y="85" width="30" height="30" fill="hsl(240 100% 67.15687911707542%)" />
  <rect x="520" y="85" width="30" height="30" fill="hsl(240 100% 54.33337624045567%)" />
  <rect x="625" y="85" width="30" height="30" fill="rgb(255 255 255 / 50%)" />
  <rect x="730" y="85" width="30" height="30" fill="hsl(240 100% 74.05988845602111%)" />
  <rect x="765" y="85" width="30" height="30" fill="rgb(255 255 255 / 50%)" />
  <rect x="835" y="85" width="30" height="30" fill="hsl(240 100% 99.71953995717614%)" />
  <rect x="65" y="120" width="30" height="30" fill="hsl(240 100% 50%)" />
  <rect x="100" y="120" width="30" height="30" fill="hsl(240 100% 86.94779382267986%)" />
  <rect x="135" y="120" width="30" height="30" fill="hsl(240 100% 85.4126718811235%)" />
  <rect x="170" y="120" width="30" height="30" fill="hsl(240 100% 51.75767734775848%)" />
  <rect x="205" y="120" width="30" height="30" fill="hsl(240 100% 92.00754918876233%)" />
  <rect x="240" y="120" width="30" height="30" fill="hsl(240 100% 91.71466113473446%)" />
  <rect x="275" y="120" width="30" height="30" fill="hsl(240 100% 99.34996571384212%)" />
  <rect x="310" y="120" width="30" height="30" fill="hsl(240 100% 98.93546709475831%)" />
  <rect x="380" y="120" width="30" height="30" fill="hsl(240 100% 93.35588587955203%)" />
  <rect x="415" y="120" width="30" height="30" fill="hsl(240 100% 94.58833838643416%)" />
  <rect x="450" y="120" width="30" height="30" fill="hsl(240 100% 97.75545560017834%)" />
  <rect x="520" y="120" width="30" height="30" fill="hsl(240 100% 79.42982284204595%)" />
  <rect x="555" y="120" width="30" height="30" fill="hsl(240 100% 87.89856406573168%)" />
  <rect x="660" y="120" width="30" height="30" fill="rgb(255 255 255 / 50%)" />
  <rect x="835" y="120" width="30" height="30" fill="rgb(255 255 255 / 50%)" />
  <rect x="65" y="155" width="30" height="30" fill="hsl(240 100% 98.12083758640696%)" />
  <rect x="100" y="155" width="30" height="30" fill="hsl(240 100% 98.86321497701289%)" />
  <rect x="135" y="155" width="30" height="30" fill="hsl(240 100% 99.22114048245061%)" />
  <rect x="170" y="155" width="30" height="30" fill="hsl(240 100% 98.11109255381368%)" />
  <rect x="205" y="155" width="30" height="30" fill="hsl(240 100% 99.85060851462721%)" />
  <rect x="240" y="155" width="30" height="30" fill="hsl(240 100% 95.32659645412345%)" />
  <rect x="275" y="155" width="30" height="30" fill="hsl(240 100% 93.44983279739114%)" />
  <rect x="310" y="155" width="30" height="30" fill="rgb(255 255 255 / 50%)" />
  <rect x="415" y="155" width="30" height="30" fill="hsl(240 100% 92.98269404302644%)" />
  <rect x="485" y="155" width="30" height="30" fill="hsl(240 100% 50%)" />
  <rect x="520" y="155" width="30" height="30" fill="hsl(240 100% 81.03989508291157%)" />
  <rect x="590" y="155" width="30" height="30" fill="hsl(240 100% 99.57498047036783%)" />
  <rect x="625" y="155" width="30" height="30" fill="hsl(240 100% 67.52420537339253%)" />
  <rect x="695" y="155" width="30" height="30" fill="hsl(240 100% 96.02756171312147%)" />
  <rect x="730" y="155" width="30" height="30" fill="hsl(240 100% 83.57923407209503%)" />
  <rect x="765" y="155" width="30" height="30" fill="hsl(240 100% 99.58332032811836%)" />
  <rect x="835" y="155" width="30" height="30" fill="hsl(240 100% 96.47241157805662%)" />
  <rect x="65" y="190" width="30" height="30" fill="hsl(240 100% 50%)" />
  <rect x="100" y="190" width="30" height="30" fill="hsl(240 100% 50%)" />
  <rect x="135" y="190" width="30" height="30" fill="hsl(240 100% 50%)" />
  <rect x="170" y="190" width="30" height="30" fill="hsl(240 100% 50%)" />
  <rect x="205" y="190" width="30" height="30" fill="hsl(240 100% 50%)" />
  <rect x="240" y="190" width="30" height="30" fill="hsl(240 100% 50%)" />
  <rect x="275" y="190" width="30" height="30" fill="hsl(240 100% 50%)" />
  <rect x="310" y="190" width="30" height="30" fill="hsl(240 100% 50%)" />
  <rect x="345" y="190" width="30" height="30" fill="hsl(240 100% 50%)" />
  <rect x="380" y="190" width="30" height="30" fill="hsl(240 100% 50%)" />
  <rect x="415" y="190" width="30" height="30" fill="hsl(240 100% 50%)" />
  <rect x="450" y="190" width="30" height="30" fill="hsl(240 100% 50%)" />
  <rect x="485" y="190" width="30" height="30" fill="hsl(240 100% 50%)" />
  <rect x="520" y="190" width="30" height="30" fill="hsl(240 100% 50%)" />
  <rect x="555" y="190" width="30" height="30" fill="hsl(240 100% 50%)" />
  <rect x="590" y="190" width="30" height="30" fill="hsl(240 100% 50%)" />
  <rect x="625" y="190" width="30" height="30" fill="hsl(240 100% 50%)" />
  <rect x="660" y="190" width="30" height="30" fill="hsl(240 100% 50%)" />
  <rect x="695" y="190" width="30" height="30" fill="hsl(240 100% 50%)" />
  <rect x="730" y="190" width="30" height="30" fill="hsl(240 100% 50%)" />
  <rect x="765" y="190" width="30" height="30" fill="hsl(240 100% 50%)" />
  <rect x="800" y="190" width="30" height="30" fill="hsl(240 100% 50%)" />
  <rect x="835" y="190" width="30" height="30" fill="hsl(240 100% 50%)" />
  <rect x="100" y="225" width="30" height="30" fill="hsl(240 100% 96.29272094754279%)" />
  <rect x="135" y="225" width="30" height="30" fill="hsl(240 100% 86.57471987714305%)" />
  <rect x="170" y="225" width="30" height="30" fill="hsl(240 100% 88.10384239574226%)" />
  <rect x="240" y="225" width="30" height="30" fill="hsl(240 100% 90.47147002459614%)" />
  <rect x="310" y="225" width="30" height="30" fill="rgb(255 255 255 / 50%)" />
  <rect x="415" y="225" width="30" height="30" fill="hsl(240 100% 89.46011265376508%)" />
  <rect x="520" y="225" width="30" height="30" fill="hsl(240 100% 50%)" />
  <rect x="625" y="225" width="30" height="30" fill="rgb(255 255 255 / 50%)" />
  <rect x="730" y="225" width="30" height="30" fill="hsl(240 100% 92.33119367372666%)" />
  <rect x="765" y="225" width="30" height="30" fill="rgb(255 255 255 / 50%)" />
  <rect x="835" y="225" width="30" height="30" fill="hsl(240 100% 94.1066457819203%)" />
  <rect x="65" y="260" width="30" height="30" fill="hsl(240 100% 99.86844290306242%)" />
  <rect x="135" y="260" width="30" height="30" fill="hsl(240 100% 99.90836956524797%)" />
  <rect x="170" y="260" width="30" height="30" fill="hsl(240 100% 98.96223170776626%)" />
  <rect x="205" y="260" width="30" height="30" fill="rgb(255 255 255 / 50%)" />
  <rect x="240" y="260" width="30" height="30" fill="hsl(240 100% 87.97113256346542%)" />
  <rect x="310" y="260" width="30" height="30" fill="rgb(255 255 255 / 50%)" />
  <rect x="415" y="260" width="30" height="30" fill="hsl(240 100% 80.6181028254414%)" />
  <rect x="450" y="260" width="30" height="30" fill="rgb(255 255 255 / 50%)" />
  <rect x="485" y="260" width="30" height="30" fill="hsl(240 100% 50%)" />
  <rect x="520" y="260" width="30" height="30" fill="hsl(240 100% 71.70182513851555%)" />
  <rect x="625" y="260" width="30" height="30" fill="hsl(240 100% 96.93549957710773%)" />
  <rect x="695" y="260" width="30" height="30" fill="hsl(240 100% 93.99548269319112%)" />
  <rect x="65" y="295" width="30" height="30" fill="hsl(240 100% 85.91824514123103%)" />
  <rect x="100" y="295" width="30" height="30" fill="hsl(240 100% 97.53794125740207%)" />
  <rect x="135" y="295" width="30" height="30" fill="hsl(240 100% 95.30519839694693%)" />
  <rect x="170" y="295" width="30" height="30" fill="hsl(240 100% 89.19232325772796%)" />
  <rect x="205" y="295" width="30" height="30" fill="hsl(240 100% 99.47761530430726%)" />
  <rect x="240" y="295" width="30" height="30" fill="hsl(240 100% 50%)" />
  <rect x="275" y="295" width="30" height="30" fill="hsl(240 100% 50.126132469249576%)" />
  <rect x="310" y="295" width="30" height="30" fill="hsl(240 100% 99.50490561566194%)" />
  <rect x="345" y="295" width="30" height="30" fill="hsl(240 100% 94.68415567993618%)" />
  <rect x="415" y="295" width="30" height="30" fill="hsl(240 100% 54.69611635109389%)" />
  <rect x="450" y="295" width="30" height="30" fill="hsl(240 100% 99.31406678268596%)" />
  <rect x="485" y="295" width="30" height="30" fill="hsl(240 100% 88.2563119293304%)" />
  <rect x="520" y="295" width="30" height="30" fill="hsl(240 100% 59.94870941529965%)" />
  <rect x="695" y="295" width="30" height="30" fill="hsl(240 100% 97.586827391895%)" />
  <rect x="800" y="295" width="30" height="30" fill="hsl(240 100% 99.59044935392193%)" />
  <rect x="835" y="295" width="30" height="30" fill="hsl(240 100% 99.95046534826066%)" />
  <rect x="65" y="330" width="30" height="30" fill="hsl(240 100% 87.76814923351817%)" />
  <rect x="100" y="330" width="30" height="30" fill="hsl(240 100% 93.31913542430826%)" />
  <rect x="135" y="330" width="30" height="30" fill="hsl(240 100% 96.47246357544539%)" />
  <rect x="170" y="330" width="30" height="30" fill="hsl(240 100% 84.90646704319698%)" />
  <rect x="205" y="330" width="30" height="30" fill="hsl(240 100% 99.0727024613789%)" />
  <rect x="240" y="330" width="30" height="30" fill="hsl(240 100% 76.18305183165442%)" />
  <rect x="275" y="330" width="30" height="30" fill="hsl(240 100% 86.05185993449777%)" />
  <rect x="310" y="330" width="30" height="30" fill="rgb(255 255 255 / 50%)" />
  <rect x="345" y="330" width="30" height="30" fill="hsl(240 100% 96.68525783905903%)" />
  <rect x="415" y="330" width="30" height="30" fill="hsl(240 100% 83.35069925079898%)" />
  <rect x="450" y="330" width="30" height="30" fill="hsl(240 100% 99.78108155339216%)" />
  <rect x="485" y="330" width="30" height="30" fill="hsl(240 100% 67.3497638235028%)" />
  <rect x="520" y="330" width="30" height="30" fill="hsl(240 100% 65.52400698156583%)" />
  <rect x="590" y="330" width="30" height="30" fill="hsl(240 100% 92.73801729382794%)" />
  <rect x="625" y="330" width="30" height="30" fill="hsl(240 100% 50%)" />
  <rect x="765" y="330" width="30" height="30" fill="hsl(240 100% 93.30529806903101%)" />
  <rect x="800" y="330" width="30" height="30" fill="hsl(240 100% 99.10202213796191%)" />
  <rect x="835" y="330" width="30" height="30" fill="hsl(240 100% 78.98724066140916%)" />
  <rect x="65" y="365" width="30" height="30" fill="hsl(240 100% 57.32818847686587%)" />
  <rect x="100" y="365" width="30" height="30" fill="hsl(240 100% 72.34932228139034%)" />
  <rect x="135" y="365" width="30" height="30" fill="hsl(240 100% 81.70975591950017%)" />
  <rect x="170" y="365" width="30" height="30" fill="hsl(240 100% 50%)" />
  <rect x="205" y="365" width="30" height="30" fill="hsl(240 100% 96.02358475979894%)" />
  <rect x="240" y="365" width="30" height="30" fill="hsl(240 100% 59.63881993597634%)" />
  <rect x="275" y="365" width="30" height="30" fill="hsl(240 100% 93.05261702035956%)" />
  <rect x="310" y="365" width="30" height="30" fill="hsl(240 100% 99.83880899255023%)" />
  <rect x="415" y="365" width="30" height="30" fill="hsl(240 100% 67.15762294091653%)" />
  <rect x="520" y="365" width="30" height="30" fill="hsl(240 100% 86.12799117109851%)" />
  <rect x="625" y="365" width="30" height="30" fill="hsl(240 100% 99.63777124716921%)" />
  <rect x="730" y="365" width="30" height="30" fill="hsl(240 100% 63.65291114063452%)" />
  <rect x="765" y="365" width="30" height="30" fill="hsl(240 100% 98.38963812150612%)" />
  <rect x="835" y="365" width="30" height="30" fill="hsl(240 100% 98.73926132840558%)" />
  <rect x="65" y="400" width="30" height="30" fill="hsl(240 100% 98.13630350133258%)" />
  <rect x="100" y="400" width="30" height="30" fill="hsl(240 100% 99.3650314090529%)" />
  <rect x="135" y="400" width="30" height="30" fill="hsl(240 100% 99.57154375785176%)" />
  <rect x="170" y="400" width="30" height="30" fill="hsl(240 100% 92.54020815495102%)" />
  <rect x="205" y="400" width="30" height="30" fill="hsl(240 100% 99.0516054614875%)" />
  <rect x="240" y="400" width="30" height="30" fill="hsl(240 100% 83.96848598486635%)" />
  <rect x="275" y="400" width="30" height="30" fill="hsl(240 100% 94.23293027210812%)" />
  <rect x="310" y="400" width="30" height="30" fill="rgb(255 255 255 / 50%)" />
  <rect x="380" y="400" width="30" height="30" fill="rgb(255 255 255 / 50%)" />
  <rect x="415" y="400" width="30" height="30" fill="hsl(240 100% 92.58895807287092%)" />
  <rect x="450" y="400" width="30" height="30" fill="hsl(240 100% 99.95959427027321%)" />
  <rect x="485" y="400" width="30" height="30" fill="hsl(240 100% 73.77768083937599%)" />
  <rect x="520" y="400" width="30" height="30" fill="hsl(240 100% 50%)" />
  <rect x="555" y="400" width="30" height="30" fill="hsl(240 100% 98.91444443258992%)" />
  <rect x="660" y="400" width="30" height="30" fill="rgb(255 255 255 / 50%)" />
  <rect x="835" y="400" width="30" height="30" fill="hsl(240 100% 98.86986213380783%)" />
  <rect x="65" y="435" width="30" height="30" fill="hsl(240 100% 93.2850867095193%)" />
  <rect x="240" y="435" width="30" height="30" fill="hsl(240 100% 50%)" />
  <rect x="310" y="435" width="30" height="30" fill="hsl(240 100% 91.68170207960637%)" />
  <rect x="415" y="435" width="30" height="30" fill="hsl(240 100% 87.10354494214194%)" />
  <rect x="450" y="435" width="30" height="30" fill="hsl(240 100% 99.81101546104503%)" />
  <rect x="65" y="470" width="30" height="30" fill="hsl(240 100% 50.097394189733656%)" />
  <rect x="240" y="470" width="30" height="30" fill="hsl(240 100% 50%)" />
  <rect x="310" y="470" width="30" height="30" fill="hsl(240 100% 96.37084186779138%)" />
  <rect x="415" y="470" width="30" height="30" fill="hsl(240 100% 89.00395958626295%)" />
  <rect x="450" y="470" width="30" height="30" fill="hsl(240 100% 99.57005253129297%)" />
</svg>
