<svg xmlns="http://www.w3.org/2000/svg" viewBox="0 0 660 470">
  <rect x="0" y="0" width="660" height="470" rx="5" ry="5" fill="#222" />
  <text x="60" y="100" fill="white" font-family="sans-serif" font-weight="bold" font-size="12" text-anchor="end" dominant-baseline="middle">ba</text>
  <text x="60" y="135" fill="white" font-family="sans-serif" font-weight="bold" font-size="12" text-anchor="end" dominant-baseline="middle">det</text>
  <text x="60" y="170" fill="white" font-family="sans-serif" font-weight="bold" font-size="12" text-anchor="end" dominant-baseline="middle">gmm</text>
  <text x="60" y="205" fill="white" font-family="sans-serif" font-weight="bold" font-size="12" text-anchor="end" dominant-baseline="middle">hello</text>
  <text x="60" y="240" fill="white" font-family="sans-serif" font-weight="bold" font-size="12" text-anchor="end" dominant-baseline="middle">ht</text>
  <text x="60" y="275" fill="white" font-family="sans-serif" font-weight="bold" font-size="12" text-anchor="end" dominant-baseline="middle">kmeans</text>
  <text x="60" y="310" fill="white" font-family="sans-serif" font-weight="bold" font-size="12" text-anchor="end" dominant-baseline="middle">llsq</text>
  <text x="60" y="345" fill="white" font-family="sans-serif" font-weight="bold" font-size="12" text-anchor="end" dominant-baseline="middle">lstm</text>
  <text x="60" y="380" fill="white" font-family="sans-serif" font-weight="bold" font-size="12" text-anchor="end" dominant-baseline="middle">ode</text>
  <text x="60" y="415" fill="white" font-family="sans-serif" font-weight="bold" font-size="12" text-anchor="end" dominant-baseline="middle">particle</text>
  <text x="60" y="450" fill="white" font-family="sans-serif" font-weight="bold" font-size="12" text-anchor="end" dominant-baseline="middle">saddle</text>
  <text x="80" y="80" fill="white" font-family="sans-serif" font-weight="bold" font-size="12" text-anchor="end" dominant-baseline="middle" transform="rotate(90 80 80)">adept</text>
  <text x="115" y="80" fill="white" font-family="sans-serif" font-weight="bold" font-size="12" text-anchor="end" dominant-baseline="middle" transform="rotate(90 115 80)">adol-c</text>
  <text x="150" y="80" fill="white" font-family="sans-serif" font-weight="bold" font-size="12" text-anchor="end" dominant-baseline="middle" transform="rotate(90 150 80)">codipack</text>
  <text x="185" y="80" fill="white" font-family="sans-serif" font-weight="bold" font-size="12" text-anchor="end" dominant-baseline="middle" transform="rotate(90 185 80)">cppad</text>
  <text x="220" y="80" fill="white" font-family="sans-serif" font-weight="bold" font-size="12" text-anchor="end" dominant-baseline="middle" transform="rotate(90 220 80)">enzyme</text>
  <text x="255" y="80" fill="white" font-family="sans-serif" font-weight="bold" font-size="12" text-anchor="end" dominant-baseline="middle" transform="rotate(90 255 80)">finite</text>
  <text x="290" y="80" fill="white" font-family="sans-serif" font-weight="bold" font-size="12" text-anchor="end" dominant-baseline="middle" transform="rotate(90 290 80)">floretta</text>
  <text x="325" y="80" fill="white" font-family="sans-serif" font-weight="bold" font-size="12" text-anchor="end" dominant-baseline="middle" transform="rotate(90 325 80)">futhark</text>
  <text x="360" y="80" fill="white" font-family="sans-serif" font-weight="bold" font-size="12" text-anchor="end" dominant-baseline="middle" transform="rotate(90 360 80)">haskell</text>
  <text x="395" y="80" fill="white" font-family="sans-serif" font-weight="bold" font-size="12" text-anchor="end" dominant-baseline="middle" transform="rotate(90 395 80)">jax</text>
  <text x="430" y="80" fill="white" font-family="sans-serif" font-weight="bold" font-size="12" text-anchor="end" dominant-baseline="middle" transform="rotate(90 430 80)">manual</text>
  <text x="465" y="80" fill="white" font-family="sans-serif" font-weight="bold" font-size="12" text-anchor="end" dominant-baseline="middle" transform="rotate(90 465 80)">ocaml</text>
  <text x="500" y="80" fill="white" font-family="sans-serif" font-weight="bold" font-size="12" text-anchor="end" dominant-baseline="middle" transform="rotate(90 500 80)">pytorch</text>
  <text x="535" y="80" fill="white" font-family="sans-serif" font-weight="bold" font-size="12" text-anchor="end" dominant-baseline="middle" transform="rotate(90 535 80)">scilean</text>
  <text x="570" y="80" fill="white" font-family="sans-serif" font-weight="bold" font-size="12" text-anchor="end" dominant-baseline="middle" transform="rotate(90 570 80)">tapenade</text>
  <text x="605" y="80" fill="white" font-family="sans-serif" font-weight="bold" font-size="12" text-anchor="end" dominant-baseline="middle" transform="rotate(90 605 80)">tensorflow</text>
  <text x="640" y="80" fill="white" font-family="sans-serif" font-weight="bold" font-size="12" text-anchor="end" dominant-baseline="middle" transform="rotate(90 640 80)">zygote</text>
  <rect x="65" y="85" width="30" height="30" fill="hsl(240 100% 83.54910419348263%)" />
  <rect x="100" y="85" width="30" height="30" fill="hsl(240 100% 97.82462099369734%)" />
  <rect x="135" y="85" width="30" height="30" fill="hsl(240 100% 88.93530806148398%)" />
  <rect x="205" y="85" width="30" height="30" fill="hsl(240 100% 50.9370754400025%)" />
  <rect x="240" y="85" width="30" height="30" fill="hsl(240 100% 92.640856136728%)" />
  <rect x="310" y="85" width="30" height="30" fill="hsl(240 100% 68.50657737819111%)" />
  <rect x="415" y="85" width="30" height="30" fill="hsl(240 100% 50%)" />
  <rect x="485" y="85" width="30" height="30" fill="rgb(255 255 255 / 50%)" />
  <rect x="555" y="85" width="30" height="30" fill="hsl(240 100% 72.64367681054381%)" />
  <rect x="590" y="85" width="30" height="30" fill="rgb(255 255 255 / 50%)" />
  <rect x="65" y="120" width="30" height="30" fill="hsl(240 100% 89.41197728524892%)" />
  <rect x="100" y="120" width="30" height="30" fill="hsl(240 100% 90.76608327036787%)" />
  <rect x="135" y="120" width="30" height="30" fill="hsl(240 100% 67.4839846428138%)" />
  <rect x="170" y="120" width="30" height="30" fill="hsl(240 100% 50%)" />
  <rect x="205" y="120" width="30" height="30" fill="hsl(240 100% 94.57828218000535%)" />
  <rect x="240" y="120" width="30" height="30" fill="hsl(240 100% 99.32876628715256%)" />
  <rect x="310" y="120" width="30" height="30" fill="hsl(240 100% 96.5720077997096%)" />
  <rect x="345" y="120" width="30" height="30" fill="hsl(240 100% 98.64534343931535%)" />
  <rect x="415" y="120" width="30" height="30" fill="hsl(240 100% 86.60486869892684%)" />
  <rect x="65" y="155" width="30" height="30" fill="hsl(240 100% 98.3004175175034%)" />
  <rect x="100" y="155" width="30" height="30" fill="hsl(240 100% 98.83125812064947%)" />
  <rect x="135" y="155" width="30" height="30" fill="hsl(240 100% 97.24358879621539%)" />
  <rect x="170" y="155" width="30" height="30" fill="rgb(255 255 255 / 50%)" />
  <rect x="205" y="155" width="30" height="30" fill="hsl(240 100% 87.00948200306695%)" />
  <rect x="240" y="155" width="30" height="30" fill="rgb(255 255 255 / 50%)" />
  <rect x="310" y="155" width="30" height="30" fill="hsl(240 100% 90.1047448727653%)" />
  <rect x="380" y="155" width="30" height="30" fill="hsl(240 100% 69.89854563885952%)" />
  <rect x="415" y="155" width="30" height="30" fill="hsl(240 100% 75.68360079711795%)" />
  <rect x="450" y="155" width="30" height="30" fill="hsl(240 100% 99.350364958832%)" />
  <rect x="485" y="155" width="30" height="30" fill="hsl(240 100% 50%)" />
  <rect x="520" y="155" width="30" height="30" fill="hsl(240 100% 93.22561147628146%)" />
  <rect x="555" y="155" width="30" height="30" fill="hsl(240 100% 75.08043958227384%)" />
  <rect x="590" y="155" width="30" height="30" fill="hsl(240 100% 88.61381690729911%)" />
  <rect x="65" y="190" width="30" height="30" fill="hsl(240 100% 50%)" />
  <rect x="100" y="190" width="30" height="30" fill="hsl(240 100% 50%)" />
  <rect x="135" y="190" width="30" height="30" fill="hsl(240 100% 50%)" />
  <rect x="170" y="190" width="30" height="30" fill="hsl(240 100% 50%)" />
  <rect x="205" y="190" width="30" height="30" fill="hsl(240 100% 50%)" />
  <rect x="240" y="190" width="30" height="30" fill="hsl(240 100% 50%)" />
  <rect x="275" y="190" width="30" height="30" fill="hsl(240 100% 50%)" />
  <rect x="310" y="190" width="30" height="30" fill="hsl(240 100% 50%)" />
  <rect x="345" y="190" width="30" height="30" fill="hsl(240 100% 50%)" />
  <rect x="380" y="190" width="30" height="30" fill="hsl(240 100% 50%)" />
  <rect x="415" y="190" width="30" height="30" fill="hsl(240 100% 50%)" />
  <rect x="450" y="190" width="30" height="30" fill="hsl(240 100% 50%)" />
  <rect x="485" y="190" width="30" height="30" fill="hsl(240 100% 50%)" />
  <rect x="520" y="190" width="30" height="30" fill="hsl(240 100% 50%)" />
  <rect x="555" y="190" width="30" height="30" fill="hsl(240 100% 50%)" />
  <rect x="590" y="190" width="30" height="30" fill="hsl(240 100% 50%)" />
  <rect x="625" y="190" width="30" height="30" fill="hsl(240 100% 50%)" />
  <rect x="65" y="225" width="30" height="30" fill="hsl(240 100% 96.05082384079248%)" />
  <rect x="100" y="225" width="30" height="30" fill="hsl(240 100% 96.319398791572%)" />
  <rect x="135" y="225" width="30" height="30" fill="hsl(240 100% 88.52228026278684%)" />
  <rect x="205" y="225" width="30" height="30" fill="hsl(240 100% 90.11352548120976%)" />
  <rect x="240" y="225" width="30" height="30" fill="rgb(255 255 255 / 50%)" />
  <rect x="310" y="225" width="30" height="30" fill="hsl(240 100% 89.6097675848198%)" />
  <rect x="415" y="225" width="30" height="30" fill="hsl(240 100% 50%)" />
  <rect x="485" y="225" width="30" height="30" fill="rgb(255 255 255 / 50%)" />
  <rect x="555" y="225" width="30" height="30" fill="rgb(255 255 255 / 50%)" />
  <rect x="590" y="225" width="30" height="30" fill="rgb(255 255 255 / 50%)" />
  <rect x="100" y="260" width="30" height="30" fill="hsl(240 100% 99.86615190256651%)" />
  <rect x="135" y="260" width="30" height="30" fill="hsl(240 100% 99.40414285980572%)" />
  <rect x="170" y="260" width="30" height="30" fill="rgb(255 255 255 / 50%)" />
  <rect x="205" y="260" width="30" height="30" fill="hsl(240 100% 87.48049679931073%)" />
  <rect x="240" y="260" width="30" height="30" fill="rgb(255 255 255 / 50%)" />
  <rect x="310" y="260" width="30" height="30" fill="hsl(240 100% 83.06053764130377%)" />
  <rect x="345" y="260" width="30" height="30" fill="rgb(255 255 255 / 50%)" />
  <rect x="380" y="260" width="30" height="30" fill="hsl(240 100% 50%)" />
  <rect x="415" y="260" width="30" height="30" fill="hsl(240 100% 76.44093689032553%)" />
  <rect x="485" y="260" width="30" height="30" fill="hsl(240 100% 96.99198068803548%)" />
  <rect x="520" y="260" width="30" height="30" fill="hsl(240 100% 94.15497571025894%)" />
  <rect x="65" y="295" width="30" height="30" fill="hsl(240 100% 66.61977134782121%)" />
  <rect x="100" y="295" width="30" height="30" fill="hsl(240 100% 59.31044247515092%)" />
  <rect x="135" y="295" width="30" height="30" fill="hsl(240 100% 60.02291015873085%)" />
  <rect x="170" y="295" width="30" height="30" fill="hsl(240 100% 57.00948614091329%)" />
  <rect x="205" y="295" width="30" height="30" fill="hsl(240 100% 50%)" />
  <rect x="240" y="295" width="30" height="30" fill="hsl(240 100% 99.42855522151561%)" />
  <rect x="310" y="295" width="30" height="30" fill="hsl(240 100% 50.77839865349472%)" />
  <rect x="345" y="295" width="30" height="30" fill="hsl(240 100% 89.37856213112728%)" />
  <rect x="415" y="295" width="30" height="30" fill="hsl(240 100% 53.6242905475326%)" />
  <rect x="65" y="330" width="30" height="30" fill="hsl(240 100% 68.58501103588532%)" />
  <rect x="100" y="330" width="30" height="30" fill="hsl(240 100% 80.90871111150544%)" />
  <rect x="135" y="330" width="30" height="30" fill="hsl(240 100% 50%)" />
  <rect x="170" y="330" width="30" height="30" fill="hsl(240 100% 89.62882414078987%)" />
  <rect x="205" y="330" width="30" height="30" fill="hsl(240 100% 50.61163803116806%)" />
  <rect x="240" y="330" width="30" height="30" fill="hsl(240 100% 99.85305417724278%)" />
  <rect x="310" y="330" width="30" height="30" fill="hsl(240 100% 63.02672966678933%)" />
  <rect x="415" y="330" width="30" height="30" fill="hsl(240 100% 84.55424176410683%)" />
  <rect x="485" y="330" width="30" height="30" fill="hsl(240 100% 99.59691838828266%)" />
  <rect x="520" y="330" width="30" height="30" fill="hsl(240 100% 89.87375124508706%)" />
  <rect x="555" y="330" width="30" height="30" fill="hsl(240 100% 60.03464894058481%)" />
  <rect x="590" y="330" width="30" height="30" fill="hsl(240 100% 98.00538776447841%)" />
  <rect x="65" y="365" width="30" height="30" fill="hsl(240 100% 99.32629106813617%)" />
  <rect x="100" y="365" width="30" height="30" fill="hsl(240 100% 99.62285813231806%)" />
  <rect x="135" y="365" width="30" height="30" fill="hsl(240 100% 94.575795167904%)" />
  <rect x="170" y="365" width="30" height="30" fill="hsl(240 100% 55.89595290478167%)" />
  <rect x="205" y="365" width="30" height="30" fill="hsl(240 100% 87.41463989592168%)" />
  <rect x="240" y="365" width="30" height="30" fill="rgb(255 255 255 / 50%)" />
  <rect x="310" y="365" width="30" height="30" fill="hsl(240 100% 96.17119344671926%)" />
  <rect x="345" y="365" width="30" height="30" fill="hsl(240 100% 99.9699862005838%)" />
  <rect x="415" y="365" width="30" height="30" fill="hsl(240 100% 50%)" />
  <rect x="205" y="400" width="30" height="30" fill="hsl(240 100% 50%)" />
  <rect x="240" y="400" width="30" height="30" fill="hsl(240 100% 95.20305061844208%)" />
  <rect x="310" y="400" width="30" height="30" fill="hsl(240 100% 87.89074975134952%)" />
  <rect x="345" y="400" width="30" height="30" fill="hsl(240 100% 99.78719106990187%)" />
  <rect x="205" y="435" width="30" height="30" fill="hsl(240 100% 50%)" />
  <rect x="240" y="435" width="30" height="30" fill="hsl(240 100% 95.81747577710445%)" />
  <rect x="310" y="435" width="30" height="30" fill="hsl(240 100% 89.03043265751008%)" />
  <rect x="345" y="435" width="30" height="30" fill="hsl(240 100% 99.60495187070192%)" />
</svg>
