<svg xmlns="http://www.w3.org/2000/svg" viewBox="0 0 870 505">
  <rect x="0" y="0" width="870" height="505" rx="5" ry="5" fill="#222" />
  <text x="60" y="100" fill="white" font-family="sans-serif" font-weight="bold" font-size="12" text-anchor="end" dominant-baseline="middle">ba</text>
  <text x="60" y="135" fill="white" font-family="sans-serif" font-weight="bold" font-size="12" text-anchor="end" dominant-baseline="middle">det</text>
  <text x="60" y="170" fill="white" font-family="sans-serif" font-weight="bold" font-size="12" text-anchor="end" dominant-baseline="middle">gmm</text>
  <text x="60" y="205" fill="white" font-family="sans-serif" font-weight="bold" font-size="12" text-anchor="end" dominant-baseline="middle">hello</text>
  <text x="60" y="240" fill="white" font-family="sans-serif" font-weight="bold" font-size="12" text-anchor="end" dominant-baseline="middle">ht</text>
  <text x="60" y="275" fill="white" font-family="sans-serif" font-weight="bold" font-size="12" text-anchor="end" dominant-baseline="middle">kmeans</text>
  <text x="60" y="310" fill="white" font-family="sans-serif" font-weight="bold" font-size="12" text-anchor="end" dominant-baseline="middle">llsq</text>
  <text x="60" y="345" fill="white" font-family="sans-serif" font-weight="bold" font-size="12" text-anchor="end" dominant-baseline="middle">lse</text>
  <text x="60" y="380" fill="white" font-family="sans-serif" font-weight="bold" font-size="12" text-anchor="end" dominant-baseline="middle">lstm</text>
  <text x="60" y="415" fill="white" font-family="sans-serif" font-weight="bold" font-size="12" text-anchor="end" dominant-baseline="middle">ode</text>
  <text x="60" y="450" fill="white" font-family="sans-serif" font-weight="bold" font-size="12" text-anchor="end" dominant-baseline="middle">particle</text>
  <text x="60" y="485" fill="white" font-family="sans-serif" font-weight="bold" font-size="12" text-anchor="end" dominant-baseline="middle">saddle</text>
  <text x="80" y="80" fill="white" font-family="sans-serif" font-weight="bold" font-size="12" text-anchor="end" dominant-baseline="middle" transform="rotate(90 80 80)">ad-hpp</text>
  <text x="115" y="80" fill="white" font-family="sans-serif" font-weight="bold" font-size="12" text-anchor="end" dominant-baseline="middle" transform="rotate(90 115 80)">adept</text>
  <text x="150" y="80" fill="white" font-family="sans-serif" font-weight="bold" font-size="12" text-anchor="end" dominant-baseline="middle" transform="rotate(90 150 80)">adol-c</text>
  <text x="185" y="80" fill="white" font-family="sans-serif" font-weight="bold" font-size="12" text-anchor="end" dominant-baseline="middle" transform="rotate(90 185 80)">codipack</text>
  <text x="220" y="80" fill="white" font-family="sans-serif" font-weight="bold" font-size="12" text-anchor="end" dominant-baseline="middle" transform="rotate(90 220 80)">cppad</text>
  <text x="255" y="80" fill="white" font-family="sans-serif" font-weight="bold" font-size="12" text-anchor="end" dominant-baseline="middle" transform="rotate(90 255 80)">enzyme</text>
  <text x="290" y="80" fill="white" font-family="sans-serif" font-weight="bold" font-size="12" text-anchor="end" dominant-baseline="middle" transform="rotate(90 290 80)">enzyme-jl</text>
  <text x="325" y="80" fill="white" font-family="sans-serif" font-weight="bold" font-size="12" text-anchor="end" dominant-baseline="middle" transform="rotate(90 325 80)">finite</text>
  <text x="360" y="80" fill="white" font-family="sans-serif" font-weight="bold" font-size="12" text-anchor="end" dominant-baseline="middle" transform="rotate(90 360 80)">floretta</text>
  <text x="395" y="80" fill="white" font-family="sans-serif" font-weight="bold" font-size="12" text-anchor="end" dominant-baseline="middle" transform="rotate(90 395 80)">forwarddiff-jl</text>
  <text x="430" y="80" fill="white" font-family="sans-serif" font-weight="bold" font-size="12" text-anchor="end" dominant-baseline="middle" transform="rotate(90 430 80)">futhark</text>
  <text x="465" y="80" fill="white" font-family="sans-serif" font-weight="bold" font-size="12" text-anchor="end" dominant-baseline="middle" transform="rotate(90 465 80)">haskell</text>
  <text x="500" y="80" fill="white" font-family="sans-serif" font-weight="bold" font-size="12" text-anchor="end" dominant-baseline="middle" transform="rotate(90 500 80)">jax</text>
  <text x="535" y="80" fill="white" font-family="sans-serif" font-weight="bold" font-size="12" text-anchor="end" dominant-baseline="middle" transform="rotate(90 535 80)">manual</text>
  <text x="570" y="80" fill="white" font-family="sans-serif" font-weight="bold" font-size="12" text-anchor="end" dominant-baseline="middle" transform="rotate(90 570 80)">mooncake-jl</text>
  <text x="605" y="80" fill="white" font-family="sans-serif" font-weight="bold" font-size="12" text-anchor="end" dominant-baseline="middle" transform="rotate(90 605 80)">ocaml</text>
  <text x="640" y="80" fill="white" font-family="sans-serif" font-weight="bold" font-size="12" text-anchor="end" dominant-baseline="middle" transform="rotate(90 640 80)">pytorch</text>
  <text x="675" y="80" fill="white" font-family="sans-serif" font-weight="bold" font-size="12" text-anchor="end" dominant-baseline="middle" transform="rotate(90 675 80)">reversediff-jl</text>
  <text x="710" y="80" fill="white" font-family="sans-serif" font-weight="bold" font-size="12" text-anchor="end" dominant-baseline="middle" transform="rotate(90 710 80)">scilean</text>
  <text x="745" y="80" fill="white" font-family="sans-serif" font-weight="bold" font-size="12" text-anchor="end" dominant-baseline="middle" transform="rotate(90 745 80)">tapenade</text>
  <text x="780" y="80" fill="white" font-family="sans-serif" font-weight="bold" font-size="12" text-anchor="end" dominant-baseline="middle" transform="rotate(90 780 80)">tensorflow</text>
  <text x="815" y="80" fill="white" font-family="sans-serif" font-weight="bold" font-size="12" text-anchor="end" dominant-baseline="middle" transform="rotate(90 815 80)">tensorflow-js</text>
  <text x="850" y="80" fill="white" font-family="sans-serif" font-weight="bold" font-size="12" text-anchor="end" dominant-baseline="middle" transform="rotate(90 850 80)">zygote</text>
  <rect x="65" y="85" width="30" height="30" fill="hsl(240 100% 80.58375752998495%)" />
  <rect x="100" y="85" width="30" height="30" fill="hsl(240 100% 81.9919476093055%)" />
  <rect x="135" y="85" width="30" height="30" fill="hsl(240 100% 97.92167819466886%)" />
  <rect x="170" y="85" width="30" height="30" fill="hsl(240 100% 81.53134428262557%)" />
  <rect x="205" y="85" width="30" height="30" fill="hsl(240 100% 98.94226521952277%)" />
  <rect x="240" y="85" width="30" height="30" fill="hsl(240 100% 50%)" />
  <rect x="310" y="85" width="30" height="30" fill="hsl(240 100% 92.8376779879263%)" />
  <rect x="415" y="85" width="30" height="30" fill="hsl(240 100% 67.16901111456826%)" />
  <rect x="520" y="85" width="30" height="30" fill="hsl(240 100% 54.07724163373548%)" />
  <rect x="625" y="85" width="30" height="30" fill="rgb(255 255 255 / 50%)" />
  <rect x="730" y="85" width="30" height="30" fill="hsl(240 100% 73.87366974871448%)" />
  <rect x="765" y="85" width="30" height="30" fill="rgb(255 255 255 / 50%)" />
  <rect x="835" y="85" width="30" height="30" fill="hsl(240 100% 99.72486174771682%)" />
  <rect x="65" y="120" width="30" height="30" fill="hsl(240 100% 50%)" />
  <rect x="100" y="120" width="30" height="30" fill="hsl(240 100% 84.3133571036299%)" />
  <rect x="135" y="120" width="30" height="30" fill="hsl(240 100% 85.48023064003279%)" />
  <rect x="170" y="120" width="30" height="30" fill="hsl(240 100% 51.72412984480791%)" />
  <rect x="205" y="120" width="30" height="30" fill="hsl(240 100% 92.63330236958225%)" />
  <rect x="240" y="120" width="30" height="30" fill="hsl(240 100% 91.39515430052963%)" />
  <rect x="275" y="120" width="30" height="30" fill="hsl(240 100% 99.3612906897136%)" />
  <rect x="310" y="120" width="30" height="30" fill="hsl(240 100% 98.99134690776084%)" />
  <rect x="380" y="120" width="30" height="30" fill="hsl(240 100% 93.42059170657993%)" />
  <rect x="415" y="120" width="30" height="30" fill="hsl(240 100% 94.64051096437322%)" />
  <rect x="450" y="120" width="30" height="30" fill="hsl(240 100% 97.91058691077643%)" />
  <rect x="520" y="120" width="30" height="30" fill="hsl(240 100% 79.48605894700646%)" />
  <rect x="555" y="120" width="30" height="30" fill="hsl(240 100% 90.42204891282793%)" />
  <rect x="660" y="120" width="30" height="30" fill="rgb(255 255 255 / 50%)" />
  <rect x="835" y="120" width="30" height="30" fill="rgb(255 255 255 / 50%)" />
  <rect x="65" y="155" width="30" height="30" fill="hsl(240 100% 98.64253721362813%)" />
  <rect x="100" y="155" width="30" height="30" fill="hsl(240 100% 98.77644043515203%)" />
  <rect x="135" y="155" width="30" height="30" fill="hsl(240 100% 99.09148698486406%)" />
  <rect x="170" y="155" width="30" height="30" fill="hsl(240 100% 98.0507315223946%)" />
  <rect x="205" y="155" width="30" height="30" fill="hsl(240 100% 99.84658856355918%)" />
  <rect x="240" y="155" width="30" height="30" fill="hsl(240 100% 91.09355889921926%)" />
  <rect x="275" y="155" width="30" height="30" fill="hsl(240 100% 92.96723231763467%)" />
  <rect x="310" y="155" width="30" height="30" fill="rgb(255 255 255 / 50%)" />
  <rect x="415" y="155" width="30" height="30" fill="hsl(240 100% 92.83149446020799%)" />
  <rect x="485" y="155" width="30" height="30" fill="hsl(240 100% 50%)" />
  <rect x="520" y="155" width="30" height="30" fill="hsl(240 100% 80.81291774527057%)" />
  <rect x="590" y="155" width="30" height="30" fill="hsl(240 100% 99.57364415973782%)" />
  <rect x="625" y="155" width="30" height="30" fill="hsl(240 100% 78.56758338160722%)" />
  <rect x="695" y="155" width="30" height="30" fill="hsl(240 100% 95.35597359156077%)" />
  <rect x="730" y="155" width="30" height="30" fill="hsl(240 100% 83.27636917659792%)" />
  <rect x="765" y="155" width="30" height="30" fill="hsl(240 100% 99.55829442675798%)" />
  <rect x="835" y="155" width="30" height="30" fill="hsl(240 100% 96.27859904318133%)" />
  <rect x="65" y="190" width="30" height="30" fill="hsl(240 100% 50%)" />
  <rect x="100" y="190" width="30" height="30" fill="hsl(240 100% 50%)" />
  <rect x="135" y="190" width="30" height="30" fill="hsl(240 100% 50%)" />
  <rect x="170" y="190" width="30" height="30" fill="hsl(240 100% 50%)" />
  <rect x="205" y="190" width="30" height="30" fill="hsl(240 100% 50%)" />
  <rect x="240" y="190" width="30" height="30" fill="hsl(240 100% 50%)" />
  <rect x="275" y="190" width="30" height="30" fill="hsl(240 100% 50%)" />
  <rect x="310" y="190" width="30" height="30" fill="hsl(240 100% 50%)" />
  <rect x="345" y="190" width="30" height="30" fill="hsl(240 100% 50%)" />
  <rect x="380" y="190" width="30" height="30" fill="hsl(240 100% 50%)" />
  <rect x="415" y="190" width="30" height="30" fill="hsl(240 100% 50%)" />
  <rect x="450" y="190" width="30" height="30" fill="hsl(240 100% 50%)" />
  <rect x="485" y="190" width="30" height="30" fill="hsl(240 100% 50%)" />
  <rect x="520" y="190" width="30" height="30" fill="hsl(240 100% 50%)" />
  <rect x="555" y="190" width="30" height="30" fill="hsl(240 100% 50%)" />
  <rect x="590" y="190" width="30" height="30" fill="hsl(240 100% 50%)" />
  <rect x="625" y="190" width="30" height="30" fill="hsl(240 100% 50%)" />
  <rect x="660" y="190" width="30" height="30" fill="hsl(240 100% 50%)" />
  <rect x="695" y="190" width="30" height="30" fill="hsl(240 100% 50%)" />
  <rect x="730" y="190" width="30" height="30" fill="hsl(240 100% 50%)" />
  <rect x="765" y="190" width="30" height="30" fill="hsl(240 100% 50%)" />
  <rect x="800" y="190" width="30" height="30" fill="hsl(240 100% 50%)" />
  <rect x="835" y="190" width="30" height="30" fill="hsl(240 100% 50%)" />
  <rect x="100" y="225" width="30" height="30" fill="hsl(240 100% 96.28702386272235%)" />
  <rect x="135" y="225" width="30" height="30" fill="hsl(240 100% 86.19493793017398%)" />
  <rect x="170" y="225" width="30" height="30" fill="hsl(240 100% 87.87340986935732%)" />
  <rect x="240" y="225" width="30" height="30" fill="hsl(240 100% 90.15746481389965%)" />
  <rect x="310" y="225" width="30" height="30" fill="rgb(255 255 255 / 50%)" />
  <rect x="415" y="225" width="30" height="30" fill="hsl(240 100% 89.40191889052016%)" />
  <rect x="520" y="225" width="30" height="30" fill="hsl(240 100% 50%)" />
  <rect x="625" y="225" width="30" height="30" fill="rgb(255 255 255 / 50%)" />
  <rect x="730" y="225" width="30" height="30" fill="hsl(240 100% 92.39131123460027%)" />
  <rect x="765" y="225" width="30" height="30" fill="rgb(255 255 255 / 50%)" />
  <rect x="835" y="225" width="30" height="30" fill="hsl(240 100% 93.71392111121315%)" />
  <rect x="65" y="260" width="30" height="30" fill="hsl(240 100% 99.87786530710906%)" />
  <rect x="135" y="260" width="30" height="30" fill="hsl(240 100% 99.859142864047%)" />
  <rect x="170" y="260" width="30" height="30" fill="hsl(240 100% 98.90749399404145%)" />
  <rect x="205" y="260" width="30" height="30" fill="rgb(255 255 255 / 50%)" />
  <rect x="240" y="260" width="30" height="30" fill="hsl(240 100% 87.24149388274117%)" />
  <rect x="310" y="260" width="30" height="30" fill="rgb(255 255 255 / 50%)" />
  <rect x="415" y="260" width="30" height="30" fill="hsl(240 100% 81.28398730091024%)" />
  <rect x="450" y="260" width="30" height="30" fill="rgb(255 255 255 / 50%)" />
  <rect x="485" y="260" width="30" height="30" fill="hsl(240 100% 50%)" />
  <rect x="520" y="260" width="30" height="30" fill="hsl(240 100% 72.70528122283423%)" />
  <rect x="625" y="260" width="30" height="30" fill="hsl(240 100% 96.99169577555823%)" />
  <rect x="695" y="260" width="30" height="30" fill="hsl(240 100% 94.17699243125985%)" />
  <rect x="65" y="295" width="30" height="30" fill="hsl(240 100% 86.0966108151966%)" />
  <rect x="100" y="295" width="30" height="30" fill="hsl(240 100% 97.54306660556578%)" />
  <rect x="135" y="295" width="30" height="30" fill="hsl(240 100% 94.85852699148887%)" />
  <rect x="170" y="295" width="30" height="30" fill="hsl(240 100% 89.32239300659815%)" />
  <rect x="205" y="295" width="30" height="30" fill="hsl(240 100% 99.48242840944532%)" />
  <rect x="240" y="295" width="30" height="30" fill="hsl(240 100% 51.462116829531276%)" />
  <rect x="275" y="295" width="30" height="30" fill="hsl(240 100% 50%)" />
  <rect x="310" y="295" width="30" height="30" fill="hsl(240 100% 99.49796882490911%)" />
  <rect x="345" y="295" width="30" height="30" fill="hsl(240 100% 94.7344545098785%)" />
  <rect x="415" y="295" width="30" height="30" fill="hsl(240 100% 55.117394046105375%)" />
  <rect x="450" y="295" width="30" height="30" fill="hsl(240 100% 99.33365226981593%)" />
  <rect x="485" y="295" width="30" height="30" fill="hsl(240 100% 88.33697628088689%)" />
  <rect x="520" y="295" width="30" height="30" fill="hsl(240 100% 57.75520843633512%)" />
  <rect x="695" y="295" width="30" height="30" fill="hsl(240 100% 97.6272735721383%)" />
  <rect x="800" y="295" width="30" height="30" fill="hsl(240 100% 99.56903032828335%)" />
  <rect x="835" y="295" width="30" height="30" fill="hsl(240 100% 99.956359138307%)" />
  <rect x="65" y="330" width="30" height="30" fill="hsl(240 100% 87.25017299134045%)" />
  <rect x="100" y="330" width="30" height="30" fill="hsl(240 100% 94.30953878324426%)" />
  <rect x="135" y="330" width="30" height="30" fill="hsl(240 100% 96.98225480530348%)" />
  <rect x="170" y="330" width="30" height="30" fill="hsl(240 100% 86.9724057523248%)" />
  <rect x="205" y="330" width="30" height="30" fill="hsl(240 100% 99.20332538917773%)" />
  <rect x="240" y="330" width="30" height="30" fill="hsl(240 100% 79.40494225334368%)" />
  <rect x="275" y="330" width="30" height="30" fill="hsl(240 100% 88.60691273657771%)" />
  <rect x="310" y="330" width="30" height="30" fill="rgb(255 255 255 / 50%)" />
  <rect x="345" y="330" width="30" height="30" fill="hsl(240 100% 97.33215795288706%)" />
  <rect x="415" y="330" width="30" height="30" fill="hsl(240 100% 85.93565157877558%)" />
  <rect x="450" y="330" width="30" height="30" fill="hsl(240 100% 99.8118978967761%)" />
  <rect x="485" y="330" width="30" height="30" fill="hsl(240 100% 70.93807457155245%)" />
  <rect x="520" y="330" width="30" height="30" fill="hsl(240 100% 70.39073438956154%)" />
  <rect x="590" y="330" width="30" height="30" fill="hsl(240 100% 93.81843579059709%)" />
  <rect x="625" y="330" width="30" height="30" fill="hsl(240 100% 50%)" />
  <rect x="765" y="330" width="30" height="30" fill="hsl(240 100% 94.58678017983733%)" />
  <rect x="800" y="330" width="30" height="30" fill="hsl(240 100% 99.21645084192932%)" />
  <rect x="835" y="330" width="30" height="30" fill="hsl(240 100% 80.07613120558939%)" />
  <rect x="65" y="365" width="30" height="30" fill="hsl(240 100% 57.409002577904275%)" />
  <rect x="100" y="365" width="30" height="30" fill="hsl(240 100% 71.7104682111076%)" />
  <rect x="135" y="365" width="30" height="30" fill="hsl(240 100% 81.3941403114454%)" />
  <rect x="170" y="365" width="30" height="30" fill="hsl(240 100% 50%)" />
  <rect x="205" y="365" width="30" height="30" fill="hsl(240 100% 96.06558294577609%)" />
  <rect x="240" y="365" width="30" height="30" fill="hsl(240 100% 59.59106254001318%)" />
  <rect x="275" y="365" width="30" height="30" fill="hsl(240 100% 92.23831487998956%)" />
  <rect x="310" y="365" width="30" height="30" fill="hsl(240 100% 99.86103656699837%)" />
  <rect x="415" y="365" width="30" height="30" fill="hsl(240 100% 66.44010964782254%)" />
  <rect x="520" y="365" width="30" height="30" fill="hsl(240 100% 86.05235614086558%)" />
  <rect x="625" y="365" width="30" height="30" fill="hsl(240 100% 99.63890739942354%)" />
  <rect x="730" y="365" width="30" height="30" fill="hsl(240 100% 63.62694677483111%)" />
  <rect x="765" y="365" width="30" height="30" fill="hsl(240 100% 98.17304149668576%)" />
  <rect x="835" y="365" width="30" height="30" fill="hsl(240 100% 98.73064302723662%)" />
  <rect x="65" y="400" width="30" height="30" fill="hsl(240 100% 98.13797552257684%)" />
  <rect x="100" y="400" width="30" height="30" fill="hsl(240 100% 99.40992898548005%)" />
  <rect x="135" y="400" width="30" height="30" fill="hsl(240 100% 99.6557883179556%)" />
  <rect x="170" y="400" width="30" height="30" fill="hsl(240 100% 93.90330007956857%)" />
  <rect x="205" y="400" width="30" height="30" fill="hsl(240 100% 99.22251476523321%)" />
  <rect x="240" y="400" width="30" height="30" fill="hsl(240 100% 87.14037872451158%)" />
  <rect x="275" y="400" width="30" height="30" fill="hsl(240 100% 95.32579054355288%)" />
  <rect x="310" y="400" width="30" height="30" fill="rgb(255 255 255 / 50%)" />
  <rect x="380" y="400" width="30" height="30" fill="rgb(255 255 255 / 50%)" />
  <rect x="415" y="400" width="30" height="30" fill="hsl(240 100% 93.90051612069476%)" />
  <rect x="450" y="400" width="30" height="30" fill="hsl(240 100% 99.97403918177808%)" />
  <rect x="485" y="400" width="30" height="30" fill="hsl(240 100% 77.81560373898192%)" />
  <rect x="520" y="400" width="30" height="30" fill="hsl(240 100% 50%)" />
  <rect x="555" y="400" width="30" height="30" fill="hsl(240 100% 99.1103472652926%)" />
  <rect x="660" y="400" width="30" height="30" fill="rgb(255 255 255 / 50%)" />
  <rect x="835" y="400" width="30" height="30" fill="hsl(240 100% 99.1360601551633%)" />
  <rect x="65" y="435" width="30" height="30" fill="hsl(240 100% 93.29482692338277%)" />
  <rect x="240" y="435" width="30" height="30" fill="hsl(240 100% 50%)" />
  <rect x="310" y="435" width="30" height="30" fill="hsl(240 100% 93.86069567053445%)" />
  <rect x="415" y="435" width="30" height="30" fill="hsl(240 100% 87.02145101100946%)" />
  <rect x="450" y="435" width="30" height="30" fill="hsl(240 100% 99.78565155869906%)" />
  <rect x="65" y="470" width="30" height="30" fill="hsl(240 100% 50%)" />
  <rect x="240" y="470" width="30" height="30" fill="hsl(240 100% 50.26560349364424%)" />
  <rect x="310" y="470" width="30" height="30" fill="hsl(240 100% 96.97883286768862%)" />
  <rect x="415" y="470" width="30" height="30" fill="hsl(240 100% 88.96016186305386%)" />
  <rect x="450" y="470" width="30" height="30" fill="hsl(240 100% 99.57483151604154%)" />
</svg>
