<svg xmlns="http://www.w3.org/2000/svg" viewBox="0 0 870 505">
  <rect x="0" y="0" width="870" height="505" rx="5" ry="5" fill="#222" />
  <text x="60" y="100" fill="white" font-family="sans-serif" font-weight="bold" font-size="12" text-anchor="end" dominant-baseline="middle">ba</text>
  <text x="60" y="135" fill="white" font-family="sans-serif" font-weight="bold" font-size="12" text-anchor="end" dominant-baseline="middle">det</text>
  <text x="60" y="170" fill="white" font-family="sans-serif" font-weight="bold" font-size="12" text-anchor="end" dominant-baseline="middle">gmm</text>
  <text x="60" y="205" fill="white" font-family="sans-serif" font-weight="bold" font-size="12" text-anchor="end" dominant-baseline="middle">hello</text>
  <text x="60" y="240" fill="white" font-family="sans-serif" font-weight="bold" font-size="12" text-anchor="end" dominant-baseline="middle">ht</text>
  <text x="60" y="275" fill="white" font-family="sans-serif" font-weight="bold" font-size="12" text-anchor="end" dominant-baseline="middle">kmeans</text>
  <text x="60" y="310" fill="white" font-family="sans-serif" font-weight="bold" font-size="12" text-anchor="end" dominant-baseline="middle">llsq</text>
  <text x="60" y="345" fill="white" font-family="sans-serif" font-weight="bold" font-size="12" text-anchor="end" dominant-baseline="middle">lse</text>
  <text x="60" y="380" fill="white" font-family="sans-serif" font-weight="bold" font-size="12" text-anchor="end" dominant-baseline="middle">lstm</text>
  <text x="60" y="415" fill="white" font-family="sans-serif" font-weight="bold" font-size="12" text-anchor="end" dominant-baseline="middle">ode</text>
  <text x="60" y="450" fill="white" font-family="sans-serif" font-weight="bold" font-size="12" text-anchor="end" dominant-baseline="middle">particle</text>
  <text x="60" y="485" fill="white" font-family="sans-serif" font-weight="bold" font-size="12" text-anchor="end" dominant-baseline="middle">saddle</text>
  <text x="80" y="80" fill="white" font-family="sans-serif" font-weight="bold" font-size="12" text-anchor="end" dominant-baseline="middle" transform="rotate(90 80 80)">ad-hpp</text>
  <text x="115" y="80" fill="white" font-family="sans-serif" font-weight="bold" font-size="12" text-anchor="end" dominant-baseline="middle" transform="rotate(90 115 80)">adept</text>
  <text x="150" y="80" fill="white" font-family="sans-serif" font-weight="bold" font-size="12" text-anchor="end" dominant-baseline="middle" transform="rotate(90 150 80)">adol-c</text>
  <text x="185" y="80" fill="white" font-family="sans-serif" font-weight="bold" font-size="12" text-anchor="end" dominant-baseline="middle" transform="rotate(90 185 80)">codipack</text>
  <text x="220" y="80" fill="white" font-family="sans-serif" font-weight="bold" font-size="12" text-anchor="end" dominant-baseline="middle" transform="rotate(90 220 80)">cppad</text>
  <text x="255" y="80" fill="white" font-family="sans-serif" font-weight="bold" font-size="12" text-anchor="end" dominant-baseline="middle" transform="rotate(90 255 80)">enzyme</text>
  <text x="290" y="80" fill="white" font-family="sans-serif" font-weight="bold" font-size="12" text-anchor="end" dominant-baseline="middle" transform="rotate(90 290 80)">enzyme-jl</text>
  <text x="325" y="80" fill="white" font-family="sans-serif" font-weight="bold" font-size="12" text-anchor="end" dominant-baseline="middle" transform="rotate(90 325 80)">finite</text>
  <text x="360" y="80" fill="white" font-family="sans-serif" font-weight="bold" font-size="12" text-anchor="end" dominant-baseline="middle" transform="rotate(90 360 80)">floretta</text>
  <text x="395" y="80" fill="white" font-family="sans-serif" font-weight="bold" font-size="12" text-anchor="end" dominant-baseline="middle" transform="rotate(90 395 80)">forwarddiff-jl</text>
  <text x="430" y="80" fill="white" font-family="sans-serif" font-weight="bold" font-size="12" text-anchor="end" dominant-baseline="middle" transform="rotate(90 430 80)">futhark</text>
  <text x="465" y="80" fill="white" font-family="sans-serif" font-weight="bold" font-size="12" text-anchor="end" dominant-baseline="middle" transform="rotate(90 465 80)">haskell</text>
  <text x="500" y="80" fill="white" font-family="sans-serif" font-weight="bold" font-size="12" text-anchor="end" dominant-baseline="middle" transform="rotate(90 500 80)">jax</text>
  <text x="535" y="80" fill="white" font-family="sans-serif" font-weight="bold" font-size="12" text-anchor="end" dominant-baseline="middle" transform="rotate(90 535 80)">manual</text>
  <text x="570" y="80" fill="white" font-family="sans-serif" font-weight="bold" font-size="12" text-anchor="end" dominant-baseline="middle" transform="rotate(90 570 80)">mooncake-jl</text>
  <text x="605" y="80" fill="white" font-family="sans-serif" font-weight="bold" font-size="12" text-anchor="end" dominant-baseline="middle" transform="rotate(90 605 80)">ocaml</text>
  <text x="640" y="80" fill="white" font-family="sans-serif" font-weight="bold" font-size="12" text-anchor="end" dominant-baseline="middle" transform="rotate(90 640 80)">pytorch</text>
  <text x="675" y="80" fill="white" font-family="sans-serif" font-weight="bold" font-size="12" text-anchor="end" dominant-baseline="middle" transform="rotate(90 675 80)">reversediff-jl</text>
  <text x="710" y="80" fill="white" font-family="sans-serif" font-weight="bold" font-size="12" text-anchor="end" dominant-baseline="middle" transform="rotate(90 710 80)">scilean</text>
  <text x="745" y="80" fill="white" font-family="sans-serif" font-weight="bold" font-size="12" text-anchor="end" dominant-baseline="middle" transform="rotate(90 745 80)">tapenade</text>
  <text x="780" y="80" fill="white" font-family="sans-serif" font-weight="bold" font-size="12" text-anchor="end" dominant-baseline="middle" transform="rotate(90 780 80)">tensorflow</text>
  <text x="815" y="80" fill="white" font-family="sans-serif" font-weight="bold" font-size="12" text-anchor="end" dominant-baseline="middle" transform="rotate(90 815 80)">tensorflow-js</text>
  <text x="850" y="80" fill="white" font-family="sans-serif" font-weight="bold" font-size="12" text-anchor="end" dominant-baseline="middle" transform="rotate(90 850 80)">zygote</text>
  <rect x="65" y="85" width="30" height="30" fill="hsl(240 100% 81.51729550737659%)" />
  <rect x="100" y="85" width="30" height="30" fill="hsl(240 100% 83.05465121754612%)" />
  <rect x="135" y="85" width="30" height="30" fill="hsl(240 100% 98.04331612221453%)" />
  <rect x="170" y="85" width="30" height="30" fill="hsl(240 100% 82.39309353247427%)" />
  <rect x="205" y="85" width="30" height="30" fill="hsl(240 100% 98.9980614647168%)" />
  <rect x="240" y="85" width="30" height="30" fill="hsl(240 100% 50%)" />
  <rect x="310" y="85" width="30" height="30" fill="hsl(240 100% 93.21754362996343%)" />
  <rect x="415" y="85" width="30" height="30" fill="hsl(240 100% 68.66487645394122%)" />
  <rect x="520" y="85" width="30" height="30" fill="hsl(240 100% 55.34517455957163%)" />
  <rect x="625" y="85" width="30" height="30" fill="rgb(255 255 255 / 50%)" />
  <rect x="730" y="85" width="30" height="30" fill="hsl(240 100% 72.22398716185695%)" />
  <rect x="765" y="85" width="30" height="30" fill="rgb(255 255 255 / 50%)" />
  <rect x="835" y="85" width="30" height="30" fill="hsl(240 100% 99.76213598719106%)" />
  <rect x="65" y="120" width="30" height="30" fill="hsl(240 100% 50%)" />
  <rect x="100" y="120" width="30" height="30" fill="hsl(240 100% 85.95808157149168%)" />
  <rect x="135" y="120" width="30" height="30" fill="hsl(240 100% 86.46402368090226%)" />
  <rect x="170" y="120" width="30" height="30" fill="hsl(240 100% 54.56548278309946%)" />
  <rect x="205" y="120" width="30" height="30" fill="hsl(240 100% 92.94294472825284%)" />
  <rect x="240" y="120" width="30" height="30" fill="hsl(240 100% 92.5701921169427%)" />
  <rect x="275" y="120" width="30" height="30" fill="hsl(240 100% 99.34594540998773%)" />
  <rect x="310" y="120" width="30" height="30" fill="hsl(240 100% 99.06142272292315%)" />
  <rect x="380" y="120" width="30" height="30" fill="hsl(240 100% 93.7754694455673%)" />
  <rect x="415" y="120" width="30" height="30" fill="hsl(240 100% 94.94310045589775%)" />
  <rect x="450" y="120" width="30" height="30" fill="hsl(240 100% 97.99388316294464%)" />
  <rect x="520" y="120" width="30" height="30" fill="hsl(240 100% 81.06412562728997%)" />
  <rect x="555" y="120" width="30" height="30" fill="hsl(240 100% 95.80671710985318%)" />
  <rect x="660" y="120" width="30" height="30" fill="rgb(255 255 255 / 50%)" />
  <rect x="835" y="120" width="30" height="30" fill="rgb(255 255 255 / 50%)" />
  <rect x="65" y="155" width="30" height="30" fill="hsl(240 100% 98.42866496154217%)" />
  <rect x="100" y="155" width="30" height="30" fill="hsl(240 100% 98.69655254395924%)" />
  <rect x="135" y="155" width="30" height="30" fill="hsl(240 100% 99.11374104079228%)" />
  <rect x="170" y="155" width="30" height="30" fill="hsl(240 100% 97.91770470899272%)" />
  <rect x="205" y="155" width="30" height="30" fill="hsl(240 100% 99.8187259493414%)" />
  <rect x="240" y="155" width="30" height="30" fill="hsl(240 100% 91.15149164765054%)" />
  <rect x="275" y="155" width="30" height="30" fill="hsl(240 100% 89.65350382241745%)" />
  <rect x="310" y="155" width="30" height="30" fill="rgb(255 255 255 / 50%)" />
  <rect x="415" y="155" width="30" height="30" fill="hsl(240 100% 92.94882660069673%)" />
  <rect x="485" y="155" width="30" height="30" fill="hsl(240 100% 50%)" />
  <rect x="520" y="155" width="30" height="30" fill="hsl(240 100% 85.6886409849638%)" />
  <rect x="555" y="155" width="30" height="30" fill="hsl(240 100% 95.892923974601%)" />
  <rect x="590" y="155" width="30" height="30" fill="hsl(240 100% 99.57519808894234%)" />
  <rect x="625" y="155" width="30" height="30" fill="hsl(240 100% 64.79373654483021%)" />
  <rect x="695" y="155" width="30" height="30" fill="hsl(240 100% 95.37521836923399%)" />
  <rect x="730" y="155" width="30" height="30" fill="hsl(240 100% 83.58493623289557%)" />
  <rect x="765" y="155" width="30" height="30" fill="hsl(240 100% 99.57766764300362%)" />
  <rect x="835" y="155" width="30" height="30" fill="hsl(240 100% 96.29736122892481%)" />
  <rect x="65" y="190" width="30" height="30" fill="hsl(240 100% 50%)" />
  <rect x="100" y="190" width="30" height="30" fill="hsl(240 100% 50%)" />
  <rect x="135" y="190" width="30" height="30" fill="hsl(240 100% 50%)" />
  <rect x="170" y="190" width="30" height="30" fill="hsl(240 100% 50%)" />
  <rect x="205" y="190" width="30" height="30" fill="hsl(240 100% 50%)" />
  <rect x="240" y="190" width="30" height="30" fill="hsl(240 100% 50%)" />
  <rect x="275" y="190" width="30" height="30" fill="hsl(240 100% 50%)" />
  <rect x="310" y="190" width="30" height="30" fill="hsl(240 100% 50%)" />
  <rect x="345" y="190" width="30" height="30" fill="hsl(240 100% 50%)" />
  <rect x="380" y="190" width="30" height="30" fill="hsl(240 100% 50%)" />
  <rect x="415" y="190" width="30" height="30" fill="hsl(240 100% 50%)" />
  <rect x="450" y="190" width="30" height="30" fill="hsl(240 100% 50%)" />
  <rect x="485" y="190" width="30" height="30" fill="hsl(240 100% 50%)" />
  <rect x="520" y="190" width="30" height="30" fill="hsl(240 100% 50%)" />
  <rect x="555" y="190" width="30" height="30" fill="hsl(240 100% 50%)" />
  <rect x="590" y="190" width="30" height="30" fill="hsl(240 100% 50%)" />
  <rect x="625" y="190" width="30" height="30" fill="hsl(240 100% 50%)" />
  <rect x="660" y="190" width="30" height="30" fill="hsl(240 100% 50%)" />
  <rect x="695" y="190" width="30" height="30" fill="hsl(240 100% 50%)" />
  <rect x="730" y="190" width="30" height="30" fill="hsl(240 100% 50%)" />
  <rect x="765" y="190" width="30" height="30" fill="hsl(240 100% 50%)" />
  <rect x="800" y="190" width="30" height="30" fill="hsl(240 100% 50%)" />
  <rect x="835" y="190" width="30" height="30" fill="hsl(240 100% 50%)" />
  <rect x="100" y="225" width="30" height="30" fill="hsl(240 100% 96.26328862608338%)" />
  <rect x="135" y="225" width="30" height="30" fill="hsl(240 100% 86.4143250721371%)" />
  <rect x="170" y="225" width="30" height="30" fill="hsl(240 100% 88.39821770091139%)" />
  <rect x="240" y="225" width="30" height="30" fill="hsl(240 100% 90.49277633977863%)" />
  <rect x="310" y="225" width="30" height="30" fill="rgb(255 255 255 / 50%)" />
  <rect x="415" y="225" width="30" height="30" fill="hsl(240 100% 89.50730970826936%)" />
  <rect x="520" y="225" width="30" height="30" fill="hsl(240 100% 50%)" />
  <rect x="625" y="225" width="30" height="30" fill="rgb(255 255 255 / 50%)" />
  <rect x="730" y="225" width="30" height="30" fill="hsl(240 100% 92.49794204095208%)" />
  <rect x="765" y="225" width="30" height="30" fill="rgb(255 255 255 / 50%)" />
  <rect x="835" y="225" width="30" height="30" fill="hsl(240 100% 93.73334340775742%)" />
  <rect x="135" y="260" width="30" height="30" fill="hsl(240 100% 99.85263402075007%)" />
  <rect x="170" y="260" width="30" height="30" fill="hsl(240 100% 98.90863791784163%)" />
  <rect x="205" y="260" width="30" height="30" fill="rgb(255 255 255 / 50%)" />
  <rect x="240" y="260" width="30" height="30" fill="hsl(240 100% 86.71772652224783%)" />
  <rect x="310" y="260" width="30" height="30" fill="rgb(255 255 255 / 50%)" />
  <rect x="380" y="260" width="30" height="30" fill="rgb(255 255 255 / 50%)" />
  <rect x="415" y="260" width="30" height="30" fill="hsl(240 100% 80.52670006868456%)" />
  <rect x="450" y="260" width="30" height="30" fill="rgb(255 255 255 / 50%)" />
  <rect x="485" y="260" width="30" height="30" fill="hsl(240 100% 50%)" />
  <rect x="520" y="260" width="30" height="30" fill="hsl(240 100% 71.99262732454307%)" />
  <rect x="625" y="260" width="30" height="30" fill="hsl(240 100% 97.1108939656299%)" />
  <rect x="660" y="260" width="30" height="30" fill="rgb(255 255 255 / 50%)" />
  <rect x="695" y="260" width="30" height="30" fill="hsl(240 100% 94.03718271723305%)" />
  <rect x="65" y="295" width="30" height="30" fill="hsl(240 100% 85.73063783440736%)" />
  <rect x="100" y="295" width="30" height="30" fill="hsl(240 100% 97.33975379233873%)" />
  <rect x="135" y="295" width="30" height="30" fill="hsl(240 100% 94.9828723843734%)" />
  <rect x="170" y="295" width="30" height="30" fill="hsl(240 100% 87.6365729117284%)" />
  <rect x="205" y="295" width="30" height="30" fill="hsl(240 100% 99.4753021915092%)" />
  <rect x="240" y="295" width="30" height="30" fill="hsl(240 100% 50%)" />
  <rect x="275" y="295" width="30" height="30" fill="hsl(240 100% 60.8604232168776%)" />
  <rect x="310" y="295" width="30" height="30" fill="hsl(240 100% 99.5039368778207%)" />
  <rect x="345" y="295" width="30" height="30" fill="hsl(240 100% 94.75645079219987%)" />
  <rect x="415" y="295" width="30" height="30" fill="hsl(240 100% 54.70736323039849%)" />
  <rect x="450" y="295" width="30" height="30" fill="hsl(240 100% 99.26036620407231%)" />
  <rect x="485" y="295" width="30" height="30" fill="hsl(240 100% 91.58638014849816%)" />
  <rect x="520" y="295" width="30" height="30" fill="hsl(240 100% 59.76950745127491%)" />
  <rect x="555" y="295" width="30" height="30" fill="hsl(240 100% 90.80346355135202%)" />
  <rect x="695" y="295" width="30" height="30" fill="hsl(240 100% 97.58794717752004%)" />
  <rect x="800" y="295" width="30" height="30" fill="hsl(240 100% 99.57022887942418%)" />
  <rect x="835" y="295" width="30" height="30" fill="hsl(240 100% 99.96021536833875%)" />
  <rect x="65" y="330" width="30" height="30" fill="hsl(240 100% 87.89822338876498%)" />
  <rect x="100" y="330" width="30" height="30" fill="hsl(240 100% 94.42746751592982%)" />
  <rect x="135" y="330" width="30" height="30" fill="hsl(240 100% 97.03601266605358%)" />
  <rect x="170" y="330" width="30" height="30" fill="hsl(240 100% 87.54231839189481%)" />
  <rect x="205" y="330" width="30" height="30" fill="hsl(240 100% 99.23916290201605%)" />
  <rect x="240" y="330" width="30" height="30" fill="hsl(240 100% 80.62166450572991%)" />
  <rect x="275" y="330" width="30" height="30" fill="hsl(240 100% 88.18825462844472%)" />
  <rect x="310" y="330" width="30" height="30" fill="rgb(255 255 255 / 50%)" />
  <rect x="345" y="330" width="30" height="30" fill="hsl(240 100% 97.34060438830578%)" />
  <rect x="415" y="330" width="30" height="30" fill="hsl(240 100% 86.36845391973826%)" />
  <rect x="450" y="330" width="30" height="30" fill="hsl(240 100% 99.82015009151245%)" />
  <rect x="485" y="330" width="30" height="30" fill="hsl(240 100% 72.59211821755352%)" />
  <rect x="520" y="330" width="30" height="30" fill="hsl(240 100% 72.1522892788092%)" />
  <rect x="555" y="330" width="30" height="30" fill="hsl(240 100% 99.16188541881888%)" />
  <rect x="590" y="330" width="30" height="30" fill="hsl(240 100% 94.11749182191976%)" />
  <rect x="625" y="330" width="30" height="30" fill="hsl(240 100% 50%)" />
  <rect x="765" y="330" width="30" height="30" fill="hsl(240 100% 95.28037177258349%)" />
  <rect x="800" y="330" width="30" height="30" fill="hsl(240 100% 99.3027382858864%)" />
  <rect x="835" y="330" width="30" height="30" fill="hsl(240 100% 96.8993211656801%)" />
  <rect x="65" y="365" width="30" height="30" fill="hsl(240 100% 58.52530660258705%)" />
  <rect x="100" y="365" width="30" height="30" fill="hsl(240 100% 71.01544517690117%)" />
  <rect x="135" y="365" width="30" height="30" fill="hsl(240 100% 82.58671884660734%)" />
  <rect x="170" y="365" width="30" height="30" fill="hsl(240 100% 50%)" />
  <rect x="205" y="365" width="30" height="30" fill="hsl(240 100% 96.1836799550927%)" />
  <rect x="240" y="365" width="30" height="30" fill="hsl(240 100% 60.9421201258524%)" />
  <rect x="275" y="365" width="30" height="30" fill="hsl(240 100% 92.84493442556976%)" />
  <rect x="310" y="365" width="30" height="30" fill="hsl(240 100% 99.84210892428014%)" />
  <rect x="415" y="365" width="30" height="30" fill="hsl(240 100% 67.7584082483005%)" />
  <rect x="520" y="365" width="30" height="30" fill="hsl(240 100% 87.0571417527472%)" />
  <rect x="555" y="365" width="30" height="30" fill="hsl(240 100% 94.81131900707462%)" />
  <rect x="625" y="365" width="30" height="30" fill="hsl(240 100% 99.64896380785851%)" />
  <rect x="730" y="365" width="30" height="30" fill="hsl(240 100% 64.40241844182366%)" />
  <rect x="765" y="365" width="30" height="30" fill="hsl(240 100% 98.33338914760522%)" />
  <rect x="835" y="365" width="30" height="30" fill="hsl(240 100% 98.80633282742394%)" />
  <rect x="65" y="400" width="30" height="30" fill="hsl(240 100% 98.20249171432387%)" />
  <rect x="100" y="400" width="30" height="30" fill="hsl(240 100% 99.32849509582961%)" />
  <rect x="135" y="400" width="30" height="30" fill="hsl(240 100% 99.71364680534924%)" />
  <rect x="170" y="400" width="30" height="30" fill="hsl(240 100% 94.15724604447993%)" />
  <rect x="205" y="400" width="30" height="30" fill="hsl(240 100% 99.2307143245085%)" />
  <rect x="240" y="400" width="30" height="30" fill="hsl(240 100% 85.68753539155774%)" />
  <rect x="275" y="400" width="30" height="30" fill="hsl(240 100% 95.32086126491083%)" />
  <rect x="310" y="400" width="30" height="30" fill="rgb(255 255 255 / 50%)" />
  <rect x="380" y="400" width="30" height="30" fill="rgb(255 255 255 / 50%)" />
  <rect x="415" y="400" width="30" height="30" fill="hsl(240 100% 93.95775530071641%)" />
  <rect x="450" y="400" width="30" height="30" fill="hsl(240 100% 99.97547896843817%)" />
  <rect x="485" y="400" width="30" height="30" fill="hsl(240 100% 78.5822168423527%)" />
  <rect x="520" y="400" width="30" height="30" fill="hsl(240 100% 50%)" />
  <rect x="555" y="400" width="30" height="30" fill="hsl(240 100% 99.230773311527%)" />
  <rect x="660" y="400" width="30" height="30" fill="rgb(255 255 255 / 50%)" />
  <rect x="835" y="400" width="30" height="30" fill="hsl(240 100% 99.20977198209962%)" />
  <rect x="65" y="435" width="30" height="30" fill="hsl(240 100% 93.53779871405443%)" />
  <rect x="240" y="435" width="30" height="30" fill="hsl(240 100% 50%)" />
  <rect x="310" y="435" width="30" height="30" fill="hsl(240 100% 91.6738115725019%)" />
  <rect x="415" y="435" width="30" height="30" fill="hsl(240 100% 87.03489382397912%)" />
  <rect x="450" y="435" width="30" height="30" fill="hsl(240 100% 99.7890038018843%)" />
  <rect x="65" y="470" width="30" height="30" fill="hsl(240 100% 50%)" />
  <rect x="240" y="470" width="30" height="30" fill="hsl(240 100% 50.46923859350531%)" />
  <rect x="310" y="470" width="30" height="30" fill="hsl(240 100% 96.36538168510641%)" />
  <rect x="415" y="470" width="30" height="30" fill="hsl(240 100% 89.15288913014501%)" />
  <rect x="450" y="470" width="30" height="30" fill="hsl(240 100% 99.57192960261585%)" />
</svg>
