<svg xmlns="http://www.w3.org/2000/svg" viewBox="0 0 765 505">
  <rect x="0" y="0" width="765" height="505" rx="5" ry="5" fill="#222" />
  <text x="60" y="100" fill="white" font-family="sans-serif" font-weight="bold" font-size="12" text-anchor="end" dominant-baseline="middle">ba</text>
  <text x="60" y="135" fill="white" font-family="sans-serif" font-weight="bold" font-size="12" text-anchor="end" dominant-baseline="middle">det</text>
  <text x="60" y="170" fill="white" font-family="sans-serif" font-weight="bold" font-size="12" text-anchor="end" dominant-baseline="middle">gmm</text>
  <text x="60" y="205" fill="white" font-family="sans-serif" font-weight="bold" font-size="12" text-anchor="end" dominant-baseline="middle">hello</text>
  <text x="60" y="240" fill="white" font-family="sans-serif" font-weight="bold" font-size="12" text-anchor="end" dominant-baseline="middle">ht</text>
  <text x="60" y="275" fill="white" font-family="sans-serif" font-weight="bold" font-size="12" text-anchor="end" dominant-baseline="middle">kmeans</text>
  <text x="60" y="310" fill="white" font-family="sans-serif" font-weight="bold" font-size="12" text-anchor="end" dominant-baseline="middle">llsq</text>
  <text x="60" y="345" fill="white" font-family="sans-serif" font-weight="bold" font-size="12" text-anchor="end" dominant-baseline="middle">lse</text>
  <text x="60" y="380" fill="white" font-family="sans-serif" font-weight="bold" font-size="12" text-anchor="end" dominant-baseline="middle">lstm</text>
  <text x="60" y="415" fill="white" font-family="sans-serif" font-weight="bold" font-size="12" text-anchor="end" dominant-baseline="middle">ode</text>
  <text x="60" y="450" fill="white" font-family="sans-serif" font-weight="bold" font-size="12" text-anchor="end" dominant-baseline="middle">particle</text>
  <text x="60" y="485" fill="white" font-family="sans-serif" font-weight="bold" font-size="12" text-anchor="end" dominant-baseline="middle">saddle</text>
  <text x="80" y="80" fill="white" font-family="sans-serif" font-weight="bold" font-size="12" text-anchor="end" dominant-baseline="middle" transform="rotate(90 80 80)">ad-hpp</text>
  <text x="115" y="80" fill="white" font-family="sans-serif" font-weight="bold" font-size="12" text-anchor="end" dominant-baseline="middle" transform="rotate(90 115 80)">adept</text>
  <text x="150" y="80" fill="white" font-family="sans-serif" font-weight="bold" font-size="12" text-anchor="end" dominant-baseline="middle" transform="rotate(90 150 80)">adol-c</text>
  <text x="185" y="80" fill="white" font-family="sans-serif" font-weight="bold" font-size="12" text-anchor="end" dominant-baseline="middle" transform="rotate(90 185 80)">codipack</text>
  <text x="220" y="80" fill="white" font-family="sans-serif" font-weight="bold" font-size="12" text-anchor="end" dominant-baseline="middle" transform="rotate(90 220 80)">cppad</text>
  <text x="255" y="80" fill="white" font-family="sans-serif" font-weight="bold" font-size="12" text-anchor="end" dominant-baseline="middle" transform="rotate(90 255 80)">enzyme</text>
  <text x="290" y="80" fill="white" font-family="sans-serif" font-weight="bold" font-size="12" text-anchor="end" dominant-baseline="middle" transform="rotate(90 290 80)">enzyme-jl</text>
  <text x="325" y="80" fill="white" font-family="sans-serif" font-weight="bold" font-size="12" text-anchor="end" dominant-baseline="middle" transform="rotate(90 325 80)">finite</text>
  <text x="360" y="80" fill="white" font-family="sans-serif" font-weight="bold" font-size="12" text-anchor="end" dominant-baseline="middle" transform="rotate(90 360 80)">floretta</text>
  <text x="395" y="80" fill="white" font-family="sans-serif" font-weight="bold" font-size="12" text-anchor="end" dominant-baseline="middle" transform="rotate(90 395 80)">futhark</text>
  <text x="430" y="80" fill="white" font-family="sans-serif" font-weight="bold" font-size="12" text-anchor="end" dominant-baseline="middle" transform="rotate(90 430 80)">haskell</text>
  <text x="465" y="80" fill="white" font-family="sans-serif" font-weight="bold" font-size="12" text-anchor="end" dominant-baseline="middle" transform="rotate(90 465 80)">jax</text>
  <text x="500" y="80" fill="white" font-family="sans-serif" font-weight="bold" font-size="12" text-anchor="end" dominant-baseline="middle" transform="rotate(90 500 80)">manual</text>
  <text x="535" y="80" fill="white" font-family="sans-serif" font-weight="bold" font-size="12" text-anchor="end" dominant-baseline="middle" transform="rotate(90 535 80)">ocaml</text>
  <text x="570" y="80" fill="white" font-family="sans-serif" font-weight="bold" font-size="12" text-anchor="end" dominant-baseline="middle" transform="rotate(90 570 80)">pytorch</text>
  <text x="605" y="80" fill="white" font-family="sans-serif" font-weight="bold" font-size="12" text-anchor="end" dominant-baseline="middle" transform="rotate(90 605 80)">scilean</text>
  <text x="640" y="80" fill="white" font-family="sans-serif" font-weight="bold" font-size="12" text-anchor="end" dominant-baseline="middle" transform="rotate(90 640 80)">tapenade</text>
  <text x="675" y="80" fill="white" font-family="sans-serif" font-weight="bold" font-size="12" text-anchor="end" dominant-baseline="middle" transform="rotate(90 675 80)">tensorflow</text>
  <text x="710" y="80" fill="white" font-family="sans-serif" font-weight="bold" font-size="12" text-anchor="end" dominant-baseline="middle" transform="rotate(90 710 80)">tensorflow-js</text>
  <text x="745" y="80" fill="white" font-family="sans-serif" font-weight="bold" font-size="12" text-anchor="end" dominant-baseline="middle" transform="rotate(90 745 80)">zygote</text>
  <rect x="65" y="85" width="30" height="30" fill="hsl(240 100% 80.88683928449534%)" />
  <rect x="100" y="85" width="30" height="30" fill="hsl(240 100% 82.69266301282732%)" />
  <rect x="135" y="85" width="30" height="30" fill="hsl(240 100% 97.98720536851252%)" />
  <rect x="170" y="85" width="30" height="30" fill="hsl(240 100% 82.2654391291747%)" />
  <rect x="205" y="85" width="30" height="30" fill="hsl(240 100% 99.00877505284276%)" />
  <rect x="240" y="85" width="30" height="30" fill="hsl(240 100% 51.445812858389125%)" />
  <rect x="310" y="85" width="30" height="30" fill="hsl(240 100% 93.2657999883631%)" />
  <rect x="380" y="85" width="30" height="30" fill="hsl(240 100% 68.39190962563353%)" />
  <rect x="485" y="85" width="30" height="30" fill="hsl(240 100% 50%)" />
  <rect x="555" y="85" width="30" height="30" fill="rgb(255 255 255 / 50%)" />
  <rect x="625" y="85" width="30" height="30" fill="hsl(240 100% 74.75059168250763%)" />
  <rect x="660" y="85" width="30" height="30" fill="rgb(255 255 255 / 50%)" />
  <rect x="730" y="85" width="30" height="30" fill="hsl(240 100% 99.71707801796968%)" />
  <rect x="65" y="120" width="30" height="30" fill="hsl(240 100% 50%)" />
  <rect x="100" y="120" width="30" height="30" fill="hsl(240 100% 82.29715055827513%)" />
  <rect x="135" y="120" width="30" height="30" fill="hsl(240 100% 85.60233587009273%)" />
  <rect x="170" y="120" width="30" height="30" fill="hsl(240 100% 51.57410716978643%)" />
  <rect x="205" y="120" width="30" height="30" fill="hsl(240 100% 92.613786810492%)" />
  <rect x="240" y="120" width="30" height="30" fill="hsl(240 100% 91.32847714627566%)" />
  <rect x="275" y="120" width="30" height="30" fill="hsl(240 100% 99.34791180176958%)" />
  <rect x="310" y="120" width="30" height="30" fill="hsl(240 100% 98.98487735736317%)" />
  <rect x="380" y="120" width="30" height="30" fill="hsl(240 100% 94.59045237785158%)" />
  <rect x="415" y="120" width="30" height="30" fill="hsl(240 100% 97.91463531899929%)" />
  <rect x="485" y="120" width="30" height="30" fill="hsl(240 100% 79.68072299835589%)" />
  <rect x="730" y="120" width="30" height="30" fill="rgb(255 255 255 / 50%)" />
  <rect x="65" y="155" width="30" height="30" fill="hsl(240 100% 97.63332329515399%)" />
  <rect x="100" y="155" width="30" height="30" fill="hsl(240 100% 98.23270778080605%)" />
  <rect x="135" y="155" width="30" height="30" fill="hsl(240 100% 98.64940038699406%)" />
  <rect x="170" y="155" width="30" height="30" fill="hsl(240 100% 97.20724089556666%)" />
  <rect x="205" y="155" width="30" height="30" fill="hsl(240 100% 99.76312482578392%)" />
  <rect x="240" y="155" width="30" height="30" fill="hsl(240 100% 86.30216084730147%)" />
  <rect x="275" y="155" width="30" height="30" fill="hsl(240 100% 88.6167054686532%)" />
  <rect x="310" y="155" width="30" height="30" fill="rgb(255 255 255 / 50%)" />
  <rect x="380" y="155" width="30" height="30" fill="hsl(240 100% 89.08096547290245%)" />
  <rect x="450" y="155" width="30" height="30" fill="hsl(240 100% 71.5970360470669%)" />
  <rect x="485" y="155" width="30" height="30" fill="hsl(240 100% 72.08221703357324%)" />
  <rect x="520" y="155" width="30" height="30" fill="hsl(240 100% 99.37437193217804%)" />
  <rect x="555" y="155" width="30" height="30" fill="hsl(240 100% 50%)" />
  <rect x="590" y="155" width="30" height="30" fill="hsl(240 100% 92.65324244510425%)" />
  <rect x="625" y="155" width="30" height="30" fill="hsl(240 100% 74.9179544294077%)" />
  <rect x="660" y="155" width="30" height="30" fill="hsl(240 100% 87.69041279217595%)" />
  <rect x="730" y="155" width="30" height="30" fill="hsl(240 100% 96.47979526950364%)" />
  <rect x="65" y="190" width="30" height="30" fill="hsl(240 100% 50%)" />
  <rect x="100" y="190" width="30" height="30" fill="hsl(240 100% 50%)" />
  <rect x="135" y="190" width="30" height="30" fill="hsl(240 100% 50%)" />
  <rect x="170" y="190" width="30" height="30" fill="hsl(240 100% 50%)" />
  <rect x="205" y="190" width="30" height="30" fill="hsl(240 100% 50%)" />
  <rect x="240" y="190" width="30" height="30" fill="hsl(240 100% 50%)" />
  <rect x="275" y="190" width="30" height="30" fill="hsl(240 100% 50%)" />
  <rect x="310" y="190" width="30" height="30" fill="hsl(240 100% 50%)" />
  <rect x="345" y="190" width="30" height="30" fill="hsl(240 100% 50%)" />
  <rect x="380" y="190" width="30" height="30" fill="hsl(240 100% 50%)" />
  <rect x="415" y="190" width="30" height="30" fill="hsl(240 100% 50%)" />
  <rect x="450" y="190" width="30" height="30" fill="hsl(240 100% 50%)" />
  <rect x="485" y="190" width="30" height="30" fill="hsl(240 100% 50%)" />
  <rect x="520" y="190" width="30" height="30" fill="hsl(240 100% 50%)" />
  <rect x="555" y="190" width="30" height="30" fill="hsl(240 100% 50%)" />
  <rect x="590" y="190" width="30" height="30" fill="hsl(240 100% 50%)" />
  <rect x="625" y="190" width="30" height="30" fill="hsl(240 100% 50%)" />
  <rect x="660" y="190" width="30" height="30" fill="hsl(240 100% 50%)" />
  <rect x="695" y="190" width="30" height="30" fill="hsl(240 100% 50%)" />
  <rect x="730" y="190" width="30" height="30" fill="hsl(240 100% 50%)" />
  <rect x="100" y="225" width="30" height="30" fill="hsl(240 100% 96.72093530656905%)" />
  <rect x="135" y="225" width="30" height="30" fill="hsl(240 100% 89.36134031365586%)" />
  <rect x="170" y="225" width="30" height="30" fill="hsl(240 100% 89.43938511117172%)" />
  <rect x="240" y="225" width="30" height="30" fill="hsl(240 100% 91.40598117958643%)" />
  <rect x="310" y="225" width="30" height="30" fill="rgb(255 255 255 / 50%)" />
  <rect x="380" y="225" width="30" height="30" fill="hsl(240 100% 90.6636898957953%)" />
  <rect x="485" y="225" width="30" height="30" fill="hsl(240 100% 50%)" />
  <rect x="555" y="225" width="30" height="30" fill="rgb(255 255 255 / 50%)" />
  <rect x="625" y="225" width="30" height="30" fill="hsl(240 100% 93.26747105848474%)" />
  <rect x="660" y="225" width="30" height="30" fill="rgb(255 255 255 / 50%)" />
  <rect x="730" y="225" width="30" height="30" fill="hsl(240 100% 94.63444783412167%)" />
  <rect x="65" y="260" width="30" height="30" fill="hsl(240 100% 99.83670769726417%)" />
  <rect x="135" y="260" width="30" height="30" fill="hsl(240 100% 99.84138008662481%)" />
  <rect x="170" y="260" width="30" height="30" fill="hsl(240 100% 98.78499829940424%)" />
  <rect x="205" y="260" width="30" height="30" fill="rgb(255 255 255 / 50%)" />
  <rect x="240" y="260" width="30" height="30" fill="hsl(240 100% 86.45190902679771%)" />
  <rect x="310" y="260" width="30" height="30" fill="rgb(255 255 255 / 50%)" />
  <rect x="380" y="260" width="30" height="30" fill="hsl(240 100% 79.9332945207587%)" />
  <rect x="415" y="260" width="30" height="30" fill="rgb(255 255 255 / 50%)" />
  <rect x="450" y="260" width="30" height="30" fill="hsl(240 100% 50%)" />
  <rect x="485" y="260" width="30" height="30" fill="hsl(240 100% 69.87639843086919%)" />
  <rect x="555" y="260" width="30" height="30" fill="hsl(240 100% 96.81460542159564%)" />
  <rect x="590" y="260" width="30" height="30" fill="hsl(240 100% 93.77321945138002%)" />
  <rect x="65" y="295" width="30" height="30" fill="hsl(240 100% 85.81588516168462%)" />
  <rect x="100" y="295" width="30" height="30" fill="hsl(240 100% 97.53894462983175%)" />
  <rect x="135" y="295" width="30" height="30" fill="hsl(240 100% 95.08739705395635%)" />
  <rect x="170" y="295" width="30" height="30" fill="hsl(240 100% 90.6871886862124%)" />
  <rect x="205" y="295" width="30" height="30" fill="hsl(240 100% 99.47278074356255%)" />
  <rect x="240" y="295" width="30" height="30" fill="hsl(240 100% 50.92213580607107%)" />
  <rect x="275" y="295" width="30" height="30" fill="hsl(240 100% 50%)" />
  <rect x="310" y="295" width="30" height="30" fill="hsl(240 100% 99.50021026539633%)" />
  <rect x="345" y="295" width="30" height="30" fill="hsl(240 100% 94.75129701726306%)" />
  <rect x="380" y="295" width="30" height="30" fill="hsl(240 100% 55.28905969657739%)" />
  <rect x="415" y="295" width="30" height="30" fill="hsl(240 100% 99.34292987294005%)" />
  <rect x="450" y="295" width="30" height="30" fill="hsl(240 100% 88.66485330290593%)" />
  <rect x="485" y="295" width="30" height="30" fill="hsl(240 100% 57.911417883171715%)" />
  <rect x="590" y="295" width="30" height="30" fill="hsl(240 100% 97.60931915842335%)" />
  <rect x="695" y="295" width="30" height="30" fill="hsl(240 100% 99.56774543581972%)" />
  <rect x="730" y="295" width="30" height="30" fill="hsl(240 100% 99.95519741470291%)" />
  <rect x="65" y="330" width="30" height="30" fill="hsl(240 100% 87.8656420497611%)" />
  <rect x="100" y="330" width="30" height="30" fill="hsl(240 100% 94.63218791240324%)" />
  <rect x="135" y="330" width="30" height="30" fill="hsl(240 100% 97.118669327387%)" />
  <rect x="170" y="330" width="30" height="30" fill="hsl(240 100% 87.47015263437072%)" />
  <rect x="205" y="330" width="30" height="30" fill="hsl(240 100% 99.21153279268995%)" />
  <rect x="240" y="330" width="30" height="30" fill="hsl(240 100% 78.51513601917503%)" />
  <rect x="275" y="330" width="30" height="30" fill="hsl(240 100% 88.04222588886074%)" />
  <rect x="310" y="330" width="30" height="30" fill="rgb(255 255 255 / 50%)" />
  <rect x="345" y="330" width="30" height="30" fill="hsl(240 100% 97.22463135971192%)" />
  <rect x="380" y="330" width="30" height="30" fill="hsl(240 100% 85.76494705353079%)" />
  <rect x="415" y="330" width="30" height="30" fill="hsl(240 100% 99.81164648881892%)" />
  <rect x="450" y="330" width="30" height="30" fill="hsl(240 100% 72.00303939525797%)" />
  <rect x="485" y="330" width="30" height="30" fill="hsl(240 100% 73.2490769103093%)" />
  <rect x="520" y="330" width="30" height="30" fill="hsl(240 100% 93.8400942528499%)" />
  <rect x="555" y="330" width="30" height="30" fill="hsl(240 100% 50%)" />
  <rect x="660" y="330" width="30" height="30" fill="hsl(240 100% 94.84039037237837%)" />
  <rect x="695" y="330" width="30" height="30" fill="hsl(240 100% 99.21500473184183%)" />
  <rect x="730" y="330" width="30" height="30" fill="hsl(240 100% 81.15663959788436%)" />
  <rect x="65" y="365" width="30" height="30" fill="hsl(240 100% 56.70766756507655%)" />
  <rect x="100" y="365" width="30" height="30" fill="hsl(240 100% 71.29225501308372%)" />
  <rect x="135" y="365" width="30" height="30" fill="hsl(240 100% 81.93973497595061%)" />
  <rect x="170" y="365" width="30" height="30" fill="hsl(240 100% 50%)" />
  <rect x="205" y="365" width="30" height="30" fill="hsl(240 100% 96.1389396979362%)" />
  <rect x="240" y="365" width="30" height="30" fill="hsl(240 100% 59.23118448436466%)" />
  <rect x="275" y="365" width="30" height="30" fill="hsl(240 100% 92.20323318363619%)" />
  <rect x="310" y="365" width="30" height="30" fill="hsl(240 100% 99.8601904766222%)" />
  <rect x="380" y="365" width="30" height="30" fill="hsl(240 100% 66.27050362096614%)" />
  <rect x="485" y="365" width="30" height="30" fill="hsl(240 100% 85.7578755110863%)" />
  <rect x="555" y="365" width="30" height="30" fill="hsl(240 100% 99.63522942862305%)" />
  <rect x="625" y="365" width="30" height="30" fill="hsl(240 100% 63.395102335504006%)" />
  <rect x="660" y="365" width="30" height="30" fill="hsl(240 100% 98.12727625133788%)" />
  <rect x="730" y="365" width="30" height="30" fill="hsl(240 100% 98.71254831125977%)" />
  <rect x="65" y="400" width="30" height="30" fill="hsl(240 100% 98.48387852843352%)" />
  <rect x="100" y="400" width="30" height="30" fill="hsl(240 100% 99.41234855646432%)" />
  <rect x="135" y="400" width="30" height="30" fill="hsl(240 100% 99.67290215022517%)" />
  <rect x="170" y="400" width="30" height="30" fill="hsl(240 100% 95.54047109308999%)" />
  <rect x="205" y="400" width="30" height="30" fill="hsl(240 100% 99.2456552947377%)" />
  <rect x="240" y="400" width="30" height="30" fill="hsl(240 100% 88.30803732613076%)" />
  <rect x="275" y="400" width="30" height="30" fill="hsl(240 100% 95.3551410751313%)" />
  <rect x="310" y="400" width="30" height="30" fill="rgb(255 255 255 / 50%)" />
  <rect x="380" y="400" width="30" height="30" fill="hsl(240 100% 94.08969806171278%)" />
  <rect x="415" y="400" width="30" height="30" fill="hsl(240 100% 99.97094732877714%)" />
  <rect x="450" y="400" width="30" height="30" fill="hsl(240 100% 78.81442749005073%)" />
  <rect x="485" y="400" width="30" height="30" fill="hsl(240 100% 50%)" />
  <rect x="730" y="400" width="30" height="30" fill="hsl(240 100% 99.05411071808456%)" />
  <rect x="65" y="435" width="30" height="30" fill="hsl(240 100% 92.87606745658915%)" />
  <rect x="240" y="435" width="30" height="30" fill="hsl(240 100% 50%)" />
  <rect x="310" y="435" width="30" height="30" fill="hsl(240 100% 94.31691467190588%)" />
  <rect x="380" y="435" width="30" height="30" fill="hsl(240 100% 86.9876771293008%)" />
  <rect x="415" y="435" width="30" height="30" fill="hsl(240 100% 99.80150159561413%)" />
  <rect x="65" y="470" width="30" height="30" fill="hsl(240 100% 50%)" />
  <rect x="240" y="470" width="30" height="30" fill="hsl(240 100% 50.42363760450867%)" />
  <rect x="310" y="470" width="30" height="30" fill="hsl(240 100% 97.16867733865132%)" />
  <rect x="380" y="470" width="30" height="30" fill="hsl(240 100% 89.01328310516698%)" />
  <rect x="415" y="470" width="30" height="30" fill="hsl(240 100% 99.5757077886628%)" />
</svg>
