<svg xmlns="http://www.w3.org/2000/svg" viewBox="0 0 870 505">
  <rect x="0" y="0" width="870" height="505" rx="5" ry="5" fill="#222" />
  <text x="60" y="100" fill="white" font-family="sans-serif" font-weight="bold" font-size="12" text-anchor="end" dominant-baseline="middle">ba</text>
  <text x="60" y="135" fill="white" font-family="sans-serif" font-weight="bold" font-size="12" text-anchor="end" dominant-baseline="middle">det</text>
  <text x="60" y="170" fill="white" font-family="sans-serif" font-weight="bold" font-size="12" text-anchor="end" dominant-baseline="middle">gmm</text>
  <text x="60" y="205" fill="white" font-family="sans-serif" font-weight="bold" font-size="12" text-anchor="end" dominant-baseline="middle">hello</text>
  <text x="60" y="240" fill="white" font-family="sans-serif" font-weight="bold" font-size="12" text-anchor="end" dominant-baseline="middle">ht</text>
  <text x="60" y="275" fill="white" font-family="sans-serif" font-weight="bold" font-size="12" text-anchor="end" dominant-baseline="middle">kmeans</text>
  <text x="60" y="310" fill="white" font-family="sans-serif" font-weight="bold" font-size="12" text-anchor="end" dominant-baseline="middle">llsq</text>
  <text x="60" y="345" fill="white" font-family="sans-serif" font-weight="bold" font-size="12" text-anchor="end" dominant-baseline="middle">lse</text>
  <text x="60" y="380" fill="white" font-family="sans-serif" font-weight="bold" font-size="12" text-anchor="end" dominant-baseline="middle">lstm</text>
  <text x="60" y="415" fill="white" font-family="sans-serif" font-weight="bold" font-size="12" text-anchor="end" dominant-baseline="middle">ode</text>
  <text x="60" y="450" fill="white" font-family="sans-serif" font-weight="bold" font-size="12" text-anchor="end" dominant-baseline="middle">particle</text>
  <text x="60" y="485" fill="white" font-family="sans-serif" font-weight="bold" font-size="12" text-anchor="end" dominant-baseline="middle">saddle</text>
  <text x="80" y="80" fill="white" font-family="sans-serif" font-weight="bold" font-size="12" text-anchor="end" dominant-baseline="middle" transform="rotate(90 80 80)">ad-hpp</text>
  <text x="115" y="80" fill="white" font-family="sans-serif" font-weight="bold" font-size="12" text-anchor="end" dominant-baseline="middle" transform="rotate(90 115 80)">adept</text>
  <text x="150" y="80" fill="white" font-family="sans-serif" font-weight="bold" font-size="12" text-anchor="end" dominant-baseline="middle" transform="rotate(90 150 80)">adol-c</text>
  <text x="185" y="80" fill="white" font-family="sans-serif" font-weight="bold" font-size="12" text-anchor="end" dominant-baseline="middle" transform="rotate(90 185 80)">codipack</text>
  <text x="220" y="80" fill="white" font-family="sans-serif" font-weight="bold" font-size="12" text-anchor="end" dominant-baseline="middle" transform="rotate(90 220 80)">cppad</text>
  <text x="255" y="80" fill="white" font-family="sans-serif" font-weight="bold" font-size="12" text-anchor="end" dominant-baseline="middle" transform="rotate(90 255 80)">enzyme</text>
  <text x="290" y="80" fill="white" font-family="sans-serif" font-weight="bold" font-size="12" text-anchor="end" dominant-baseline="middle" transform="rotate(90 290 80)">enzyme-jl</text>
  <text x="325" y="80" fill="white" font-family="sans-serif" font-weight="bold" font-size="12" text-anchor="end" dominant-baseline="middle" transform="rotate(90 325 80)">finite</text>
  <text x="360" y="80" fill="white" font-family="sans-serif" font-weight="bold" font-size="12" text-anchor="end" dominant-baseline="middle" transform="rotate(90 360 80)">floretta</text>
  <text x="395" y="80" fill="white" font-family="sans-serif" font-weight="bold" font-size="12" text-anchor="end" dominant-baseline="middle" transform="rotate(90 395 80)">forwarddiff-jl</text>
  <text x="430" y="80" fill="white" font-family="sans-serif" font-weight="bold" font-size="12" text-anchor="end" dominant-baseline="middle" transform="rotate(90 430 80)">futhark</text>
  <text x="465" y="80" fill="white" font-family="sans-serif" font-weight="bold" font-size="12" text-anchor="end" dominant-baseline="middle" transform="rotate(90 465 80)">haskell</text>
  <text x="500" y="80" fill="white" font-family="sans-serif" font-weight="bold" font-size="12" text-anchor="end" dominant-baseline="middle" transform="rotate(90 500 80)">jax</text>
  <text x="535" y="80" fill="white" font-family="sans-serif" font-weight="bold" font-size="12" text-anchor="end" dominant-baseline="middle" transform="rotate(90 535 80)">manual</text>
  <text x="570" y="80" fill="white" font-family="sans-serif" font-weight="bold" font-size="12" text-anchor="end" dominant-baseline="middle" transform="rotate(90 570 80)">mooncake-jl</text>
  <text x="605" y="80" fill="white" font-family="sans-serif" font-weight="bold" font-size="12" text-anchor="end" dominant-baseline="middle" transform="rotate(90 605 80)">ocaml</text>
  <text x="640" y="80" fill="white" font-family="sans-serif" font-weight="bold" font-size="12" text-anchor="end" dominant-baseline="middle" transform="rotate(90 640 80)">pytorch</text>
  <text x="675" y="80" fill="white" font-family="sans-serif" font-weight="bold" font-size="12" text-anchor="end" dominant-baseline="middle" transform="rotate(90 675 80)">reversediff-jl</text>
  <text x="710" y="80" fill="white" font-family="sans-serif" font-weight="bold" font-size="12" text-anchor="end" dominant-baseline="middle" transform="rotate(90 710 80)">scilean</text>
  <text x="745" y="80" fill="white" font-family="sans-serif" font-weight="bold" font-size="12" text-anchor="end" dominant-baseline="middle" transform="rotate(90 745 80)">tapenade</text>
  <text x="780" y="80" fill="white" font-family="sans-serif" font-weight="bold" font-size="12" text-anchor="end" dominant-baseline="middle" transform="rotate(90 780 80)">tensorflow</text>
  <text x="815" y="80" fill="white" font-family="sans-serif" font-weight="bold" font-size="12" text-anchor="end" dominant-baseline="middle" transform="rotate(90 815 80)">tensorflow-js</text>
  <text x="850" y="80" fill="white" font-family="sans-serif" font-weight="bold" font-size="12" text-anchor="end" dominant-baseline="middle" transform="rotate(90 850 80)">zygote</text>
  <rect x="65" y="85" width="30" height="30" fill="hsl(240 100% 80.43098329661251%)" />
  <rect x="100" y="85" width="30" height="30" fill="hsl(240 100% 82.30273164353348%)" />
  <rect x="135" y="85" width="30" height="30" fill="hsl(240 100% 97.89584957278754%)" />
  <rect x="170" y="85" width="30" height="30" fill="hsl(240 100% 81.73975079125441%)" />
  <rect x="205" y="85" width="30" height="30" fill="hsl(240 100% 98.94623192618202%)" />
  <rect x="240" y="85" width="30" height="30" fill="hsl(240 100% 50%)" />
  <rect x="310" y="85" width="30" height="30" fill="hsl(240 100% 92.95984053135841%)" />
  <rect x="415" y="85" width="30" height="30" fill="hsl(240 100% 66.94339770634271%)" />
  <rect x="520" y="85" width="30" height="30" fill="hsl(240 100% 53.8129698343412%)" />
  <rect x="625" y="85" width="30" height="30" fill="rgb(255 255 255 / 50%)" />
  <rect x="730" y="85" width="30" height="30" fill="hsl(240 100% 73.84860301143104%)" />
  <rect x="765" y="85" width="30" height="30" fill="rgb(255 255 255 / 50%)" />
  <rect x="835" y="85" width="30" height="30" fill="hsl(240 100% 99.72330357625226%)" />
  <rect x="65" y="120" width="30" height="30" fill="hsl(240 100% 50%)" />
  <rect x="100" y="120" width="30" height="30" fill="hsl(240 100% 83.41928302040256%)" />
  <rect x="135" y="120" width="30" height="30" fill="hsl(240 100% 85.6059363640528%)" />
  <rect x="170" y="120" width="30" height="30" fill="hsl(240 100% 53.144044459502716%)" />
  <rect x="205" y="120" width="30" height="30" fill="hsl(240 100% 92.74659716794572%)" />
  <rect x="240" y="120" width="30" height="30" fill="hsl(240 100% 91.69251346502023%)" />
  <rect x="275" y="120" width="30" height="30" fill="hsl(240 100% 99.42731575429175%)" />
  <rect x="310" y="120" width="30" height="30" fill="hsl(240 100% 99.02686511606049%)" />
  <rect x="380" y="120" width="30" height="30" fill="hsl(240 100% 93.45580653180504%)" />
  <rect x="415" y="120" width="30" height="30" fill="hsl(240 100% 94.66829310145036%)" />
  <rect x="450" y="120" width="30" height="30" fill="hsl(240 100% 97.87786021821836%)" />
  <rect x="520" y="120" width="30" height="30" fill="hsl(240 100% 79.77237490050848%)" />
  <rect x="555" y="120" width="30" height="30" fill="hsl(240 100% 90.55804678412481%)" />
  <rect x="660" y="120" width="30" height="30" fill="rgb(255 255 255 / 50%)" />
  <rect x="835" y="120" width="30" height="30" fill="rgb(255 255 255 / 50%)" />
  <rect x="65" y="155" width="30" height="30" fill="hsl(240 100% 98.39649935582028%)" />
  <rect x="100" y="155" width="30" height="30" fill="hsl(240 100% 98.80631756636465%)" />
  <rect x="135" y="155" width="30" height="30" fill="hsl(240 100% 99.08071570066491%)" />
  <rect x="170" y="155" width="30" height="30" fill="hsl(240 100% 97.95747240335899%)" />
  <rect x="205" y="155" width="30" height="30" fill="hsl(240 100% 99.84481013854388%)" />
  <rect x="240" y="155" width="30" height="30" fill="hsl(240 100% 90.97683598293602%)" />
  <rect x="275" y="155" width="30" height="30" fill="hsl(240 100% 92.75158129548308%)" />
  <rect x="310" y="155" width="30" height="30" fill="rgb(255 255 255 / 50%)" />
  <rect x="415" y="155" width="30" height="30" fill="hsl(240 100% 92.79622629320097%)" />
  <rect x="485" y="155" width="30" height="30" fill="hsl(240 100% 50%)" />
  <rect x="520" y="155" width="30" height="30" fill="hsl(240 100% 80.60229890322611%)" />
  <rect x="590" y="155" width="30" height="30" fill="hsl(240 100% 99.57293412934918%)" />
  <rect x="625" y="155" width="30" height="30" fill="hsl(240 100% 65.38801277389507%)" />
  <rect x="695" y="155" width="30" height="30" fill="hsl(240 100% 95.29255551794996%)" />
  <rect x="730" y="155" width="30" height="30" fill="hsl(240 100% 83.27489170589148%)" />
  <rect x="765" y="155" width="30" height="30" fill="hsl(240 100% 99.57506626125877%)" />
  <rect x="835" y="155" width="30" height="30" fill="hsl(240 100% 97.1248683128522%)" />
  <rect x="65" y="190" width="30" height="30" fill="hsl(240 100% 50%)" />
  <rect x="100" y="190" width="30" height="30" fill="hsl(240 100% 50%)" />
  <rect x="135" y="190" width="30" height="30" fill="hsl(240 100% 50%)" />
  <rect x="170" y="190" width="30" height="30" fill="hsl(240 100% 50%)" />
  <rect x="205" y="190" width="30" height="30" fill="hsl(240 100% 50%)" />
  <rect x="240" y="190" width="30" height="30" fill="hsl(240 100% 50%)" />
  <rect x="275" y="190" width="30" height="30" fill="hsl(240 100% 50%)" />
  <rect x="310" y="190" width="30" height="30" fill="hsl(240 100% 50%)" />
  <rect x="345" y="190" width="30" height="30" fill="hsl(240 100% 50%)" />
  <rect x="380" y="190" width="30" height="30" fill="hsl(240 100% 50%)" />
  <rect x="415" y="190" width="30" height="30" fill="hsl(240 100% 50%)" />
  <rect x="450" y="190" width="30" height="30" fill="hsl(240 100% 50%)" />
  <rect x="485" y="190" width="30" height="30" fill="hsl(240 100% 50%)" />
  <rect x="520" y="190" width="30" height="30" fill="hsl(240 100% 50%)" />
  <rect x="555" y="190" width="30" height="30" fill="hsl(240 100% 50%)" />
  <rect x="590" y="190" width="30" height="30" fill="hsl(240 100% 50%)" />
  <rect x="625" y="190" width="30" height="30" fill="hsl(240 100% 50%)" />
  <rect x="660" y="190" width="30" height="30" fill="hsl(240 100% 50%)" />
  <rect x="695" y="190" width="30" height="30" fill="hsl(240 100% 50%)" />
  <rect x="730" y="190" width="30" height="30" fill="hsl(240 100% 50%)" />
  <rect x="765" y="190" width="30" height="30" fill="hsl(240 100% 50%)" />
  <rect x="800" y="190" width="30" height="30" fill="hsl(240 100% 50%)" />
  <rect x="835" y="190" width="30" height="30" fill="hsl(240 100% 50%)" />
  <rect x="100" y="225" width="30" height="30" fill="hsl(240 100% 96.34617172866494%)" />
  <rect x="135" y="225" width="30" height="30" fill="hsl(240 100% 86.94542582378119%)" />
  <rect x="170" y="225" width="30" height="30" fill="hsl(240 100% 88.47998309229038%)" />
  <rect x="240" y="225" width="30" height="30" fill="hsl(240 100% 90.40031448076112%)" />
  <rect x="310" y="225" width="30" height="30" fill="rgb(255 255 255 / 50%)" />
  <rect x="415" y="225" width="30" height="30" fill="hsl(240 100% 89.63774146627924%)" />
  <rect x="520" y="225" width="30" height="30" fill="hsl(240 100% 50%)" />
  <rect x="625" y="225" width="30" height="30" fill="rgb(255 255 255 / 50%)" />
  <rect x="730" y="225" width="30" height="30" fill="hsl(240 100% 92.60299396004332%)" />
  <rect x="765" y="225" width="30" height="30" fill="rgb(255 255 255 / 50%)" />
  <rect x="835" y="225" width="30" height="30" fill="hsl(240 100% 93.980858870633%)" />
  <rect x="65" y="260" width="30" height="30" fill="hsl(240 100% 99.88516205166286%)" />
  <rect x="135" y="260" width="30" height="30" fill="hsl(240 100% 99.85599042254638%)" />
  <rect x="170" y="260" width="30" height="30" fill="hsl(240 100% 98.92899396072411%)" />
  <rect x="205" y="260" width="30" height="30" fill="rgb(255 255 255 / 50%)" />
  <rect x="240" y="260" width="30" height="30" fill="hsl(240 100% 87.08745373190885%)" />
  <rect x="310" y="260" width="30" height="30" fill="rgb(255 255 255 / 50%)" />
  <rect x="415" y="260" width="30" height="30" fill="hsl(240 100% 80.83676577643703%)" />
  <rect x="450" y="260" width="30" height="30" fill="rgb(255 255 255 / 50%)" />
  <rect x="485" y="260" width="30" height="30" fill="hsl(240 100% 50%)" />
  <rect x="520" y="260" width="30" height="30" fill="hsl(240 100% 72.37035390911527%)" />
  <rect x="625" y="260" width="30" height="30" fill="hsl(240 100% 96.96853336192571%)" />
  <rect x="695" y="260" width="30" height="30" fill="hsl(240 100% 94.10884994032982%)" />
  <rect x="65" y="295" width="30" height="30" fill="hsl(240 100% 86.30210395783857%)" />
  <rect x="100" y="295" width="30" height="30" fill="hsl(240 100% 97.57043109295675%)" />
  <rect x="135" y="295" width="30" height="30" fill="hsl(240 100% 95.1047875657475%)" />
  <rect x="170" y="295" width="30" height="30" fill="hsl(240 100% 89.3133085061338%)" />
  <rect x="205" y="295" width="30" height="30" fill="hsl(240 100% 99.48008254110108%)" />
  <rect x="240" y="295" width="30" height="30" fill="hsl(240 100% 50.256248889400794%)" />
  <rect x="275" y="295" width="30" height="30" fill="hsl(240 100% 50%)" />
  <rect x="310" y="295" width="30" height="30" fill="hsl(240 100% 99.49580133767002%)" />
  <rect x="345" y="295" width="30" height="30" fill="hsl(240 100% 94.67010654028556%)" />
  <rect x="415" y="295" width="30" height="30" fill="hsl(240 100% 54.918940376707766%)" />
  <rect x="450" y="295" width="30" height="30" fill="hsl(240 100% 99.32462321955835%)" />
  <rect x="485" y="295" width="30" height="30" fill="hsl(240 100% 89.00157098767276%)" />
  <rect x="520" y="295" width="30" height="30" fill="hsl(240 100% 57.542535108276546%)" />
  <rect x="695" y="295" width="30" height="30" fill="hsl(240 100% 97.58804350639306%)" />
  <rect x="800" y="295" width="30" height="30" fill="hsl(240 100% 99.58107273882167%)" />
  <rect x="835" y="295" width="30" height="30" fill="hsl(240 100% 99.95333578432208%)" />
  <rect x="65" y="330" width="30" height="30" fill="hsl(240 100% 85.39214557742686%)" />
  <rect x="100" y="330" width="30" height="30" fill="hsl(240 100% 93.5348778656916%)" />
  <rect x="135" y="330" width="30" height="30" fill="hsl(240 100% 96.56105948478876%)" />
  <rect x="170" y="330" width="30" height="30" fill="hsl(240 100% 85.02577405522135%)" />
  <rect x="205" y="330" width="30" height="30" fill="hsl(240 100% 99.0837666819113%)" />
  <rect x="240" y="330" width="30" height="30" fill="hsl(240 100% 76.85035682178082%)" />
  <rect x="275" y="330" width="30" height="30" fill="hsl(240 100% 85.48040839004773%)" />
  <rect x="310" y="330" width="30" height="30" fill="rgb(255 255 255 / 50%)" />
  <rect x="345" y="330" width="30" height="30" fill="hsl(240 100% 96.8001120540168%)" />
  <rect x="415" y="330" width="30" height="30" fill="hsl(240 100% 83.70542800455326%)" />
  <rect x="450" y="330" width="30" height="30" fill="hsl(240 100% 99.79838048984168%)" />
  <rect x="485" y="330" width="30" height="30" fill="hsl(240 100% 67.74906078818475%)" />
  <rect x="520" y="330" width="30" height="30" fill="hsl(240 100% 66.52842879483114%)" />
  <rect x="590" y="330" width="30" height="30" fill="hsl(240 100% 92.9091400346849%)" />
  <rect x="625" y="330" width="30" height="30" fill="hsl(240 100% 50%)" />
  <rect x="765" y="330" width="30" height="30" fill="hsl(240 100% 94.86000927858791%)" />
  <rect x="800" y="330" width="30" height="30" fill="hsl(240 100% 99.14262247839658%)" />
  <rect x="835" y="330" width="30" height="30" fill="hsl(240 100% 78.54546138177353%)" />
  <rect x="65" y="365" width="30" height="30" fill="hsl(240 100% 56.92157961462508%)" />
  <rect x="100" y="365" width="30" height="30" fill="hsl(240 100% 71.38886391784047%)" />
  <rect x="135" y="365" width="30" height="30" fill="hsl(240 100% 82.22444386697003%)" />
  <rect x="170" y="365" width="30" height="30" fill="hsl(240 100% 50%)" />
  <rect x="205" y="365" width="30" height="30" fill="hsl(240 100% 96.03217630738523%)" />
  <rect x="240" y="365" width="30" height="30" fill="hsl(240 100% 58.92705809915994%)" />
  <rect x="275" y="365" width="30" height="30" fill="hsl(240 100% 92.92045869510706%)" />
  <rect x="310" y="365" width="30" height="30" fill="hsl(240 100% 99.86154592746323%)" />
  <rect x="415" y="365" width="30" height="30" fill="hsl(240 100% 66.78178008364517%)" />
  <rect x="520" y="365" width="30" height="30" fill="hsl(240 100% 86.06232838187812%)" />
  <rect x="625" y="365" width="30" height="30" fill="hsl(240 100% 99.6392042810076%)" />
  <rect x="730" y="365" width="30" height="30" fill="hsl(240 100% 62.77292516837271%)" />
  <rect x="765" y="365" width="30" height="30" fill="hsl(240 100% 98.12054990187994%)" />
  <rect x="835" y="365" width="30" height="30" fill="hsl(240 100% 98.78944838993417%)" />
  <rect x="65" y="400" width="30" height="30" fill="hsl(240 100% 98.1664576186863%)" />
  <rect x="100" y="400" width="30" height="30" fill="hsl(240 100% 99.2733297951519%)" />
  <rect x="135" y="400" width="30" height="30" fill="hsl(240 100% 99.55917387947115%)" />
  <rect x="170" y="400" width="30" height="30" fill="hsl(240 100% 92.56004361043598%)" />
  <rect x="205" y="400" width="30" height="30" fill="hsl(240 100% 99.03006442383837%)" />
  <rect x="240" y="400" width="30" height="30" fill="hsl(240 100% 84.59288068482284%)" />
  <rect x="275" y="400" width="30" height="30" fill="hsl(240 100% 94.00368845922186%)" />
  <rect x="310" y="400" width="30" height="30" fill="rgb(255 255 255 / 50%)" />
  <rect x="380" y="400" width="30" height="30" fill="rgb(255 255 255 / 50%)" />
  <rect x="415" y="400" width="30" height="30" fill="hsl(240 100% 92.33403644849683%)" />
  <rect x="450" y="400" width="30" height="30" fill="hsl(240 100% 99.96196096619583%)" />
  <rect x="485" y="400" width="30" height="30" fill="hsl(240 100% 73.21461322581965%)" />
  <rect x="520" y="400" width="30" height="30" fill="hsl(240 100% 50%)" />
  <rect x="555" y="400" width="30" height="30" fill="hsl(240 100% 98.85930663755819%)" />
  <rect x="660" y="400" width="30" height="30" fill="rgb(255 255 255 / 50%)" />
  <rect x="835" y="400" width="30" height="30" fill="hsl(240 100% 98.79321654919558%)" />
  <rect x="65" y="435" width="30" height="30" fill="hsl(240 100% 93.28959530824011%)" />
  <rect x="240" y="435" width="30" height="30" fill="hsl(240 100% 50%)" />
  <rect x="310" y="435" width="30" height="30" fill="hsl(240 100% 93.84853744681087%)" />
  <rect x="415" y="435" width="30" height="30" fill="hsl(240 100% 87.0813515420161%)" />
  <rect x="450" y="435" width="30" height="30" fill="hsl(240 100% 99.78262869625637%)" />
  <rect x="65" y="470" width="30" height="30" fill="hsl(240 100% 50.03714535559132%)" />
  <rect x="240" y="470" width="30" height="30" fill="hsl(240 100% 50%)" />
  <rect x="310" y="470" width="30" height="30" fill="hsl(240 100% 96.98036655121722%)" />
  <rect x="415" y="470" width="30" height="30" fill="hsl(240 100% 89.0353197958216%)" />
  <rect x="450" y="470" width="30" height="30" fill="hsl(240 100% 99.57715078413868%)" />
</svg>
