<svg xmlns="http://www.w3.org/2000/svg" viewBox="0 0 905 505">
  <rect x="0" y="0" width="905" height="505" rx="5" ry="5" fill="#222" />
  <text x="60" y="100" fill="white" font-family="sans-serif" font-weight="bold" font-size="12" text-anchor="end" dominant-baseline="middle">ba</text>
  <text x="60" y="135" fill="white" font-family="sans-serif" font-weight="bold" font-size="12" text-anchor="end" dominant-baseline="middle">det</text>
  <text x="60" y="170" fill="white" font-family="sans-serif" font-weight="bold" font-size="12" text-anchor="end" dominant-baseline="middle">gmm</text>
  <text x="60" y="205" fill="white" font-family="sans-serif" font-weight="bold" font-size="12" text-anchor="end" dominant-baseline="middle">hello</text>
  <text x="60" y="240" fill="white" font-family="sans-serif" font-weight="bold" font-size="12" text-anchor="end" dominant-baseline="middle">ht</text>
  <text x="60" y="275" fill="white" font-family="sans-serif" font-weight="bold" font-size="12" text-anchor="end" dominant-baseline="middle">kmeans</text>
  <text x="60" y="310" fill="white" font-family="sans-serif" font-weight="bold" font-size="12" text-anchor="end" dominant-baseline="middle">llsq</text>
  <text x="60" y="345" fill="white" font-family="sans-serif" font-weight="bold" font-size="12" text-anchor="end" dominant-baseline="middle">lse</text>
  <text x="60" y="380" fill="white" font-family="sans-serif" font-weight="bold" font-size="12" text-anchor="end" dominant-baseline="middle">lstm</text>
  <text x="60" y="415" fill="white" font-family="sans-serif" font-weight="bold" font-size="12" text-anchor="end" dominant-baseline="middle">ode</text>
  <text x="60" y="450" fill="white" font-family="sans-serif" font-weight="bold" font-size="12" text-anchor="end" dominant-baseline="middle">particle</text>
  <text x="60" y="485" fill="white" font-family="sans-serif" font-weight="bold" font-size="12" text-anchor="end" dominant-baseline="middle">saddle</text>
  <text x="80" y="80" fill="white" font-family="sans-serif" font-weight="bold" font-size="12" text-anchor="end" dominant-baseline="middle" transform="rotate(90 80 80)">ad-hpp</text>
  <text x="115" y="80" fill="white" font-family="sans-serif" font-weight="bold" font-size="12" text-anchor="end" dominant-baseline="middle" transform="rotate(90 115 80)">adept</text>
  <text x="150" y="80" fill="white" font-family="sans-serif" font-weight="bold" font-size="12" text-anchor="end" dominant-baseline="middle" transform="rotate(90 150 80)">adol-c</text>
  <text x="185" y="80" fill="white" font-family="sans-serif" font-weight="bold" font-size="12" text-anchor="end" dominant-baseline="middle" transform="rotate(90 185 80)">codipack</text>
  <text x="220" y="80" fill="white" font-family="sans-serif" font-weight="bold" font-size="12" text-anchor="end" dominant-baseline="middle" transform="rotate(90 220 80)">cppad</text>
  <text x="255" y="80" fill="white" font-family="sans-serif" font-weight="bold" font-size="12" text-anchor="end" dominant-baseline="middle" transform="rotate(90 255 80)">enzyme</text>
  <text x="290" y="80" fill="white" font-family="sans-serif" font-weight="bold" font-size="12" text-anchor="end" dominant-baseline="middle" transform="rotate(90 290 80)">enzyme-jl</text>
  <text x="325" y="80" fill="white" font-family="sans-serif" font-weight="bold" font-size="12" text-anchor="end" dominant-baseline="middle" transform="rotate(90 325 80)">finite</text>
  <text x="360" y="80" fill="white" font-family="sans-serif" font-weight="bold" font-size="12" text-anchor="end" dominant-baseline="middle" transform="rotate(90 360 80)">floretta</text>
  <text x="395" y="80" fill="white" font-family="sans-serif" font-weight="bold" font-size="12" text-anchor="end" dominant-baseline="middle" transform="rotate(90 395 80)">forwarddiff-jl</text>
  <text x="430" y="80" fill="white" font-family="sans-serif" font-weight="bold" font-size="12" text-anchor="end" dominant-baseline="middle" transform="rotate(90 430 80)">futhark</text>
  <text x="465" y="80" fill="white" font-family="sans-serif" font-weight="bold" font-size="12" text-anchor="end" dominant-baseline="middle" transform="rotate(90 465 80)">haskell-ad</text>
  <text x="500" y="80" fill="white" font-family="sans-serif" font-weight="bold" font-size="12" text-anchor="end" dominant-baseline="middle" transform="rotate(90 500 80)">horde-ad</text>
  <text x="535" y="80" fill="white" font-family="sans-serif" font-weight="bold" font-size="12" text-anchor="end" dominant-baseline="middle" transform="rotate(90 535 80)">jax</text>
  <text x="570" y="80" fill="white" font-family="sans-serif" font-weight="bold" font-size="12" text-anchor="end" dominant-baseline="middle" transform="rotate(90 570 80)">manual</text>
  <text x="605" y="80" fill="white" font-family="sans-serif" font-weight="bold" font-size="12" text-anchor="end" dominant-baseline="middle" transform="rotate(90 605 80)">mooncake-jl</text>
  <text x="640" y="80" fill="white" font-family="sans-serif" font-weight="bold" font-size="12" text-anchor="end" dominant-baseline="middle" transform="rotate(90 640 80)">ocaml</text>
  <text x="675" y="80" fill="white" font-family="sans-serif" font-weight="bold" font-size="12" text-anchor="end" dominant-baseline="middle" transform="rotate(90 675 80)">pytorch</text>
  <text x="710" y="80" fill="white" font-family="sans-serif" font-weight="bold" font-size="12" text-anchor="end" dominant-baseline="middle" transform="rotate(90 710 80)">reversediff-jl</text>
  <text x="745" y="80" fill="white" font-family="sans-serif" font-weight="bold" font-size="12" text-anchor="end" dominant-baseline="middle" transform="rotate(90 745 80)">scilean</text>
  <text x="780" y="80" fill="white" font-family="sans-serif" font-weight="bold" font-size="12" text-anchor="end" dominant-baseline="middle" transform="rotate(90 780 80)">tapenade</text>
  <text x="815" y="80" fill="white" font-family="sans-serif" font-weight="bold" font-size="12" text-anchor="end" dominant-baseline="middle" transform="rotate(90 815 80)">tensorflow</text>
  <text x="850" y="80" fill="white" font-family="sans-serif" font-weight="bold" font-size="12" text-anchor="end" dominant-baseline="middle" transform="rotate(90 850 80)">tensorflow-js</text>
  <text x="885" y="80" fill="white" font-family="sans-serif" font-weight="bold" font-size="12" text-anchor="end" dominant-baseline="middle" transform="rotate(90 885 80)">zygote</text>
  <rect x="65" y="85" width="30" height="30" fill="hsl(240 100% 82.23038696878724%)" />
  <rect x="100" y="85" width="30" height="30" fill="hsl(240 100% 83.64941629150829%)" />
  <rect x="135" y="85" width="30" height="30" fill="hsl(240 100% 96.99423539740202%)" />
  <rect x="170" y="85" width="30" height="30" fill="hsl(240 100% 83.1452972638354%)" />
  <rect x="205" y="85" width="30" height="30" fill="hsl(240 100% 99.04619974513793%)" />
  <rect x="240" y="85" width="30" height="30" fill="hsl(240 100% 50%)" />
  <rect x="310" y="85" width="30" height="30" fill="hsl(240 100% 93.98353436326124%)" />
  <rect x="415" y="85" width="30" height="30" fill="hsl(240 100% 60.33166664279017%)" />
  <rect x="555" y="85" width="30" height="30" fill="hsl(240 100% 52.341798078909065%)" />
  <rect x="660" y="85" width="30" height="30" fill="rgb(255 255 255 / 50%)" />
  <rect x="765" y="85" width="30" height="30" fill="hsl(240 100% 76.12111369761845%)" />
  <rect x="800" y="85" width="30" height="30" fill="rgb(255 255 255 / 50%)" />
  <rect x="870" y="85" width="30" height="30" fill="hsl(240 100% 99.76783187114644%)" />
  <rect x="65" y="120" width="30" height="30" fill="hsl(240 100% 50%)" />
  <rect x="100" y="120" width="30" height="30" fill="hsl(240 100% 85.1931016255809%)" />
  <rect x="135" y="120" width="30" height="30" fill="hsl(240 100% 87.87356068860625%)" />
  <rect x="170" y="120" width="30" height="30" fill="hsl(240 100% 65.66262929166268%)" />
  <rect x="205" y="120" width="30" height="30" fill="hsl(240 100% 93.82255932683266%)" />
  <rect x="240" y="120" width="30" height="30" fill="hsl(240 100% 93.69996068061191%)" />
  <rect x="275" y="120" width="30" height="30" fill="hsl(240 100% 99.59449075586453%)" />
  <rect x="310" y="120" width="30" height="30" fill="hsl(240 100% 99.21895468452993%)" />
  <rect x="380" y="120" width="30" height="30" fill="hsl(240 100% 95.07653102684098%)" />
  <rect x="415" y="120" width="30" height="30" fill="hsl(240 100% 96.2606329225584%)" />
  <rect x="450" y="120" width="30" height="30" fill="hsl(240 100% 98.09608215661669%)" />
  <rect x="485" y="120" width="30" height="30" fill="hsl(240 100% 98.25673451575247%)" />
  <rect x="555" y="120" width="30" height="30" fill="hsl(240 100% 84.81307949092303%)" />
  <rect x="590" y="120" width="30" height="30" fill="hsl(240 100% 96.43320536841753%)" />
  <rect x="695" y="120" width="30" height="30" fill="rgb(255 255 255 / 50%)" />
  <rect x="870" y="120" width="30" height="30" fill="rgb(255 255 255 / 50%)" />
  <rect x="65" y="155" width="30" height="30" fill="hsl(240 100% 98.99234297376347%)" />
  <rect x="100" y="155" width="30" height="30" fill="hsl(240 100% 98.73574340568307%)" />
  <rect x="135" y="155" width="30" height="30" fill="hsl(240 100% 99.120151814195%)" />
  <rect x="170" y="155" width="30" height="30" fill="hsl(240 100% 97.95046431396626%)" />
  <rect x="205" y="155" width="30" height="30" fill="hsl(240 100% 99.80520226674257%)" />
  <rect x="240" y="155" width="30" height="30" fill="hsl(240 100% 91.9169069971861%)" />
  <rect x="275" y="155" width="30" height="30" fill="hsl(240 100% 91.74050264073924%)" />
  <rect x="310" y="155" width="30" height="30" fill="rgb(255 255 255 / 50%)" />
  <rect x="415" y="155" width="30" height="30" fill="hsl(240 100% 93.0443071027284%)" />
  <rect x="485" y="155" width="30" height="30" fill="hsl(240 100% 98.59293173834355%)" />
  <rect x="520" y="155" width="30" height="30" fill="hsl(240 100% 50%)" />
  <rect x="555" y="155" width="30" height="30" fill="hsl(240 100% 82.46964099398099%)" />
  <rect x="590" y="155" width="30" height="30" fill="hsl(240 100% 96.47321310991879%)" />
  <rect x="625" y="155" width="30" height="30" fill="hsl(240 100% 99.60652389887511%)" />
  <rect x="660" y="155" width="30" height="30" fill="hsl(240 100% 67.05490609006065%)" />
  <rect x="730" y="155" width="30" height="30" fill="hsl(240 100% 95.18519449628296%)" />
  <rect x="765" y="155" width="30" height="30" fill="hsl(240 100% 85.23767306090284%)" />
  <rect x="800" y="155" width="30" height="30" fill="hsl(240 100% 99.5856061689303%)" />
  <rect x="870" y="155" width="30" height="30" fill="hsl(240 100% 96.47288682698097%)" />
  <rect x="65" y="190" width="30" height="30" fill="hsl(240 100% 50%)" />
  <rect x="100" y="190" width="30" height="30" fill="hsl(240 100% 50%)" />
  <rect x="135" y="190" width="30" height="30" fill="hsl(240 100% 50%)" />
  <rect x="170" y="190" width="30" height="30" fill="hsl(240 100% 50%)" />
  <rect x="205" y="190" width="30" height="30" fill="hsl(240 100% 50%)" />
  <rect x="240" y="190" width="30" height="30" fill="hsl(240 100% 50%)" />
  <rect x="275" y="190" width="30" height="30" fill="hsl(240 100% 50%)" />
  <rect x="310" y="190" width="30" height="30" fill="hsl(240 100% 50%)" />
  <rect x="345" y="190" width="30" height="30" fill="hsl(240 100% 50%)" />
  <rect x="380" y="190" width="30" height="30" fill="hsl(240 100% 50%)" />
  <rect x="415" y="190" width="30" height="30" fill="hsl(240 100% 50%)" />
  <rect x="450" y="190" width="30" height="30" fill="hsl(240 100% 50%)" />
  <rect x="485" y="190" width="30" height="30" fill="hsl(240 100% 50%)" />
  <rect x="520" y="190" width="30" height="30" fill="hsl(240 100% 50%)" />
  <rect x="555" y="190" width="30" height="30" fill="hsl(240 100% 50%)" />
  <rect x="590" y="190" width="30" height="30" fill="hsl(240 100% 50%)" />
  <rect x="625" y="190" width="30" height="30" fill="hsl(240 100% 50%)" />
  <rect x="660" y="190" width="30" height="30" fill="hsl(240 100% 50%)" />
  <rect x="695" y="190" width="30" height="30" fill="hsl(240 100% 50%)" />
  <rect x="730" y="190" width="30" height="30" fill="hsl(240 100% 50%)" />
  <rect x="765" y="190" width="30" height="30" fill="hsl(240 100% 50%)" />
  <rect x="800" y="190" width="30" height="30" fill="hsl(240 100% 50%)" />
  <rect x="835" y="190" width="30" height="30" fill="hsl(240 100% 50%)" />
  <rect x="870" y="190" width="30" height="30" fill="hsl(240 100% 50%)" />
  <rect x="100" y="225" width="30" height="30" fill="hsl(240 100% 96.00653821513501%)" />
  <rect x="135" y="225" width="30" height="30" fill="hsl(240 100% 87.02263467605471%)" />
  <rect x="170" y="225" width="30" height="30" fill="hsl(240 100% 87.87923380184343%)" />
  <rect x="240" y="225" width="30" height="30" fill="hsl(240 100% 90.50688999516137%)" />
  <rect x="310" y="225" width="30" height="30" fill="rgb(255 255 255 / 50%)" />
  <rect x="415" y="225" width="30" height="30" fill="hsl(240 100% 89.16286190767991%)" />
  <rect x="555" y="225" width="30" height="30" fill="hsl(240 100% 50%)" />
  <rect x="660" y="225" width="30" height="30" fill="rgb(255 255 255 / 50%)" />
  <rect x="765" y="225" width="30" height="30" fill="hsl(240 100% 92.53484974002188%)" />
  <rect x="800" y="225" width="30" height="30" fill="rgb(255 255 255 / 50%)" />
  <rect x="870" y="225" width="30" height="30" fill="hsl(240 100% 93.4386648927829%)" />
  <rect x="135" y="260" width="30" height="30" fill="hsl(240 100% 99.90862665741375%)" />
  <rect x="170" y="260" width="30" height="30" fill="hsl(240 100% 98.33630837709951%)" />
  <rect x="205" y="260" width="30" height="30" fill="rgb(255 255 255 / 50%)" />
  <rect x="240" y="260" width="30" height="30" fill="hsl(240 100% 87.0448834682361%)" />
  <rect x="310" y="260" width="30" height="30" fill="rgb(255 255 255 / 50%)" />
  <rect x="380" y="260" width="30" height="30" fill="rgb(255 255 255 / 50%)" />
  <rect x="415" y="260" width="30" height="30" fill="hsl(240 100% 85.40227570290364%)" />
  <rect x="450" y="260" width="30" height="30" fill="rgb(255 255 255 / 50%)" />
  <rect x="485" y="260" width="30" height="30" fill="hsl(240 100% 99.1063368836614%)" />
  <rect x="520" y="260" width="30" height="30" fill="hsl(240 100% 50%)" />
  <rect x="555" y="260" width="30" height="30" fill="hsl(240 100% 73.0575957523847%)" />
  <rect x="660" y="260" width="30" height="30" fill="hsl(240 100% 97.00805519419703%)" />
  <rect x="695" y="260" width="30" height="30" fill="rgb(255 255 255 / 50%)" />
  <rect x="730" y="260" width="30" height="30" fill="hsl(240 100% 93.65866057663834%)" />
  <rect x="65" y="295" width="30" height="30" fill="hsl(240 100% 84.80648794146431%)" />
  <rect x="100" y="295" width="30" height="30" fill="hsl(240 100% 97.58455743106897%)" />
  <rect x="135" y="295" width="30" height="30" fill="hsl(240 100% 93.46247671912316%)" />
  <rect x="170" y="295" width="30" height="30" fill="hsl(240 100% 86.0048105273458%)" />
  <rect x="205" y="295" width="30" height="30" fill="hsl(240 100% 99.42277312844254%)" />
  <rect x="240" y="295" width="30" height="30" fill="hsl(240 100% 50%)" />
  <rect x="275" y="295" width="30" height="30" fill="hsl(240 100% 60.66715322273766%)" />
  <rect x="310" y="295" width="30" height="30" fill="hsl(240 100% 99.49369489998179%)" />
  <rect x="345" y="295" width="30" height="30" fill="hsl(240 100% 94.25789291134029%)" />
  <rect x="415" y="295" width="30" height="30" fill="hsl(240 100% 50.91557060370238%)" />
  <rect x="450" y="295" width="30" height="30" fill="hsl(240 100% 99.20729239143115%)" />
  <rect x="485" y="295" width="30" height="30" fill="hsl(240 100% 96.04536692955095%)" />
  <rect x="520" y="295" width="30" height="30" fill="hsl(240 100% 87.11693705104149%)" />
  <rect x="555" y="295" width="30" height="30" fill="hsl(240 100% 53.968808297311476%)" />
  <rect x="590" y="295" width="30" height="30" fill="hsl(240 100% 90.15951684986265%)" />
  <rect x="730" y="295" width="30" height="30" fill="hsl(240 100% 96.30358614519572%)" />
  <rect x="835" y="295" width="30" height="30" fill="hsl(240 100% 99.54327439831422%)" />
  <rect x="870" y="295" width="30" height="30" fill="hsl(240 100% 99.9590848492699%)" />
  <rect x="65" y="330" width="30" height="30" fill="hsl(240 100% 87.3519900506331%)" />
  <rect x="100" y="330" width="30" height="30" fill="hsl(240 100% 94.25173311401224%)" />
  <rect x="135" y="330" width="30" height="30" fill="hsl(240 100% 95.85025815346438%)" />
  <rect x="170" y="330" width="30" height="30" fill="hsl(240 100% 87.98236964421557%)" />
  <rect x="205" y="330" width="30" height="30" fill="hsl(240 100% 99.21615283628489%)" />
  <rect x="240" y="330" width="30" height="30" fill="hsl(240 100% 79.95388806132927%)" />
  <rect x="275" y="330" width="30" height="30" fill="hsl(240 100% 95.33100309969767%)" />
  <rect x="310" y="330" width="30" height="30" fill="rgb(255 255 255 / 50%)" />
  <rect x="345" y="330" width="30" height="30" fill="hsl(240 100% 97.09426904588086%)" />
  <rect x="415" y="330" width="30" height="30" fill="hsl(240 100% 85.79889043277508%)" />
  <rect x="450" y="330" width="30" height="30" fill="hsl(240 100% 99.7930688779593%)" />
  <rect x="485" y="330" width="30" height="30" fill="hsl(240 100% 87.93274795430725%)" />
  <rect x="520" y="330" width="30" height="30" fill="hsl(240 100% 50%)" />
  <rect x="555" y="330" width="30" height="30" fill="hsl(240 100% 71.1151443172357%)" />
  <rect x="590" y="330" width="30" height="30" fill="hsl(240 100% 98.86816410621954%)" />
  <rect x="625" y="330" width="30" height="30" fill="hsl(240 100% 93.86961755856325%)" />
  <rect x="660" y="330" width="30" height="30" fill="hsl(240 100% 50.932382181320165%)" />
  <rect x="800" y="330" width="30" height="30" fill="hsl(240 100% 94.99511299505177%)" />
  <rect x="835" y="330" width="30" height="30" fill="hsl(240 100% 99.16553979966424%)" />
  <rect x="870" y="330" width="30" height="30" fill="hsl(240 100% 93.84731688945108%)" />
  <rect x="65" y="365" width="30" height="30" fill="hsl(240 100% 69.64794046654255%)" />
  <rect x="100" y="365" width="30" height="30" fill="hsl(240 100% 80.81887000807544%)" />
  <rect x="135" y="365" width="30" height="30" fill="hsl(240 100% 82.59894102171546%)" />
  <rect x="170" y="365" width="30" height="30" fill="hsl(240 100% 62.98927499118406%)" />
  <rect x="205" y="365" width="30" height="30" fill="hsl(240 100% 96.68249978660239%)" />
  <rect x="240" y="365" width="30" height="30" fill="hsl(240 100% 69.03204786164994%)" />
  <rect x="275" y="365" width="30" height="30" fill="hsl(240 100% 95.81132438134105%)" />
  <rect x="310" y="365" width="30" height="30" fill="hsl(240 100% 99.87306261462535%)" />
  <rect x="415" y="365" width="30" height="30" fill="hsl(240 100% 76.24840160161823%)" />
  <rect x="485" y="365" width="30" height="30" fill="hsl(240 100% 99.61236322215645%)" />
  <rect x="555" y="365" width="30" height="30" fill="hsl(240 100% 90.10327962849436%)" />
  <rect x="590" y="365" width="30" height="30" fill="hsl(240 100% 97.1952184591006%)" />
  <rect x="660" y="365" width="30" height="30" fill="hsl(240 100% 99.71491438700767%)" />
  <rect x="765" y="365" width="30" height="30" fill="hsl(240 100% 50%)" />
  <rect x="800" y="365" width="30" height="30" fill="hsl(240 100% 98.63690318395457%)" />
  <rect x="870" y="365" width="30" height="30" fill="hsl(240 100% 99.13302695580644%)" />
  <rect x="65" y="400" width="30" height="30" fill="hsl(240 100% 98.17683890097805%)" />
  <rect x="100" y="400" width="30" height="30" fill="hsl(240 100% 99.5091968066951%)" />
  <rect x="135" y="400" width="30" height="30" fill="hsl(240 100% 99.65298933826045%)" />
  <rect x="170" y="400" width="30" height="30" fill="hsl(240 100% 94.17080546088509%)" />
  <rect x="205" y="400" width="30" height="30" fill="hsl(240 100% 99.20449135294973%)" />
  <rect x="240" y="400" width="30" height="30" fill="hsl(240 100% 86.1011580860249%)" />
  <rect x="275" y="400" width="30" height="30" fill="hsl(240 100% 95.10400998886222%)" />
  <rect x="310" y="400" width="30" height="30" fill="rgb(255 255 255 / 50%)" />
  <rect x="380" y="400" width="30" height="30" fill="rgb(255 255 255 / 50%)" />
  <rect x="415" y="400" width="30" height="30" fill="hsl(240 100% 94.96226993109039%)" />
  <rect x="450" y="400" width="30" height="30" fill="hsl(240 100% 99.97337120683484%)" />
  <rect x="485" y="400" width="30" height="30" fill="hsl(240 100% 99.51183369593419%)" />
  <rect x="520" y="400" width="30" height="30" fill="hsl(240 100% 73.17681925150235%)" />
  <rect x="555" y="400" width="30" height="30" fill="hsl(240 100% 50%)" />
  <rect x="590" y="400" width="30" height="30" fill="hsl(240 100% 99.31303781998643%)" />
  <rect x="695" y="400" width="30" height="30" fill="rgb(255 255 255 / 50%)" />
  <rect x="870" y="400" width="30" height="30" fill="hsl(240 100% 99.09743493246985%)" />
  <rect x="65" y="435" width="30" height="30" fill="hsl(240 100% 92.80846051899836%)" />
  <rect x="240" y="435" width="30" height="30" fill="hsl(240 100% 50%)" />
  <rect x="310" y="435" width="30" height="30" fill="hsl(240 100% 93.60138001730854%)" />
  <rect x="415" y="435" width="30" height="30" fill="hsl(240 100% 86.43627893294772%)" />
  <rect x="450" y="435" width="30" height="30" fill="hsl(240 100% 99.7805771362361%)" />
  <rect x="485" y="435" width="30" height="30" fill="hsl(240 100% 99.93190714466934%)" />
  <rect x="65" y="470" width="30" height="30" fill="hsl(240 100% 50%)" />
  <rect x="240" y="470" width="30" height="30" fill="hsl(240 100% 56.282810349099336%)" />
  <rect x="310" y="470" width="30" height="30" fill="hsl(240 100% 97.08009564700458%)" />
  <rect x="415" y="470" width="30" height="30" fill="hsl(240 100% 89.13834814106107%)" />
  <rect x="450" y="470" width="30" height="30" fill="hsl(240 100% 99.57580127213963%)" />
  <rect x="485" y="470" width="30" height="30" fill="hsl(240 100% 99.9319724701574%)" />
</svg>
