<svg xmlns="http://www.w3.org/2000/svg" viewBox="0 0 870 505">
  <rect x="0" y="0" width="870" height="505" rx="5" ry="5" fill="#222" />
  <text x="60" y="100" fill="white" font-family="sans-serif" font-weight="bold" font-size="12" text-anchor="end" dominant-baseline="middle">ba</text>
  <text x="60" y="135" fill="white" font-family="sans-serif" font-weight="bold" font-size="12" text-anchor="end" dominant-baseline="middle">det</text>
  <text x="60" y="170" fill="white" font-family="sans-serif" font-weight="bold" font-size="12" text-anchor="end" dominant-baseline="middle">gmm</text>
  <text x="60" y="205" fill="white" font-family="sans-serif" font-weight="bold" font-size="12" text-anchor="end" dominant-baseline="middle">hello</text>
  <text x="60" y="240" fill="white" font-family="sans-serif" font-weight="bold" font-size="12" text-anchor="end" dominant-baseline="middle">ht</text>
  <text x="60" y="275" fill="white" font-family="sans-serif" font-weight="bold" font-size="12" text-anchor="end" dominant-baseline="middle">kmeans</text>
  <text x="60" y="310" fill="white" font-family="sans-serif" font-weight="bold" font-size="12" text-anchor="end" dominant-baseline="middle">llsq</text>
  <text x="60" y="345" fill="white" font-family="sans-serif" font-weight="bold" font-size="12" text-anchor="end" dominant-baseline="middle">lse</text>
  <text x="60" y="380" fill="white" font-family="sans-serif" font-weight="bold" font-size="12" text-anchor="end" dominant-baseline="middle">lstm</text>
  <text x="60" y="415" fill="white" font-family="sans-serif" font-weight="bold" font-size="12" text-anchor="end" dominant-baseline="middle">ode</text>
  <text x="60" y="450" fill="white" font-family="sans-serif" font-weight="bold" font-size="12" text-anchor="end" dominant-baseline="middle">particle</text>
  <text x="60" y="485" fill="white" font-family="sans-serif" font-weight="bold" font-size="12" text-anchor="end" dominant-baseline="middle">saddle</text>
  <text x="80" y="80" fill="white" font-family="sans-serif" font-weight="bold" font-size="12" text-anchor="end" dominant-baseline="middle" transform="rotate(90 80 80)">ad-hpp</text>
  <text x="115" y="80" fill="white" font-family="sans-serif" font-weight="bold" font-size="12" text-anchor="end" dominant-baseline="middle" transform="rotate(90 115 80)">adept</text>
  <text x="150" y="80" fill="white" font-family="sans-serif" font-weight="bold" font-size="12" text-anchor="end" dominant-baseline="middle" transform="rotate(90 150 80)">adol-c</text>
  <text x="185" y="80" fill="white" font-family="sans-serif" font-weight="bold" font-size="12" text-anchor="end" dominant-baseline="middle" transform="rotate(90 185 80)">codipack</text>
  <text x="220" y="80" fill="white" font-family="sans-serif" font-weight="bold" font-size="12" text-anchor="end" dominant-baseline="middle" transform="rotate(90 220 80)">cppad</text>
  <text x="255" y="80" fill="white" font-family="sans-serif" font-weight="bold" font-size="12" text-anchor="end" dominant-baseline="middle" transform="rotate(90 255 80)">enzyme</text>
  <text x="290" y="80" fill="white" font-family="sans-serif" font-weight="bold" font-size="12" text-anchor="end" dominant-baseline="middle" transform="rotate(90 290 80)">enzyme-jl</text>
  <text x="325" y="80" fill="white" font-family="sans-serif" font-weight="bold" font-size="12" text-anchor="end" dominant-baseline="middle" transform="rotate(90 325 80)">finite</text>
  <text x="360" y="80" fill="white" font-family="sans-serif" font-weight="bold" font-size="12" text-anchor="end" dominant-baseline="middle" transform="rotate(90 360 80)">floretta</text>
  <text x="395" y="80" fill="white" font-family="sans-serif" font-weight="bold" font-size="12" text-anchor="end" dominant-baseline="middle" transform="rotate(90 395 80)">forwarddiff-jl</text>
  <text x="430" y="80" fill="white" font-family="sans-serif" font-weight="bold" font-size="12" text-anchor="end" dominant-baseline="middle" transform="rotate(90 430 80)">futhark</text>
  <text x="465" y="80" fill="white" font-family="sans-serif" font-weight="bold" font-size="12" text-anchor="end" dominant-baseline="middle" transform="rotate(90 465 80)">haskell</text>
  <text x="500" y="80" fill="white" font-family="sans-serif" font-weight="bold" font-size="12" text-anchor="end" dominant-baseline="middle" transform="rotate(90 500 80)">jax</text>
  <text x="535" y="80" fill="white" font-family="sans-serif" font-weight="bold" font-size="12" text-anchor="end" dominant-baseline="middle" transform="rotate(90 535 80)">manual</text>
  <text x="570" y="80" fill="white" font-family="sans-serif" font-weight="bold" font-size="12" text-anchor="end" dominant-baseline="middle" transform="rotate(90 570 80)">mooncake-jl</text>
  <text x="605" y="80" fill="white" font-family="sans-serif" font-weight="bold" font-size="12" text-anchor="end" dominant-baseline="middle" transform="rotate(90 605 80)">ocaml</text>
  <text x="640" y="80" fill="white" font-family="sans-serif" font-weight="bold" font-size="12" text-anchor="end" dominant-baseline="middle" transform="rotate(90 640 80)">pytorch</text>
  <text x="675" y="80" fill="white" font-family="sans-serif" font-weight="bold" font-size="12" text-anchor="end" dominant-baseline="middle" transform="rotate(90 675 80)">reversediff-jl</text>
  <text x="710" y="80" fill="white" font-family="sans-serif" font-weight="bold" font-size="12" text-anchor="end" dominant-baseline="middle" transform="rotate(90 710 80)">scilean</text>
  <text x="745" y="80" fill="white" font-family="sans-serif" font-weight="bold" font-size="12" text-anchor="end" dominant-baseline="middle" transform="rotate(90 745 80)">tapenade</text>
  <text x="780" y="80" fill="white" font-family="sans-serif" font-weight="bold" font-size="12" text-anchor="end" dominant-baseline="middle" transform="rotate(90 780 80)">tensorflow</text>
  <text x="815" y="80" fill="white" font-family="sans-serif" font-weight="bold" font-size="12" text-anchor="end" dominant-baseline="middle" transform="rotate(90 815 80)">tensorflow-js</text>
  <text x="850" y="80" fill="white" font-family="sans-serif" font-weight="bold" font-size="12" text-anchor="end" dominant-baseline="middle" transform="rotate(90 850 80)">zygote</text>
  <rect x="65" y="85" width="30" height="30" fill="hsl(240 100% 80.59145125657892%)" />
  <rect x="100" y="85" width="30" height="30" fill="hsl(240 100% 82.19967516954375%)" />
  <rect x="135" y="85" width="30" height="30" fill="hsl(240 100% 97.91664362026188%)" />
  <rect x="170" y="85" width="30" height="30" fill="hsl(240 100% 81.9478118722661%)" />
  <rect x="205" y="85" width="30" height="30" fill="hsl(240 100% 98.94572800981412%)" />
  <rect x="240" y="85" width="30" height="30" fill="hsl(240 100% 50%)" />
  <rect x="310" y="85" width="30" height="30" fill="hsl(240 100% 92.85933104478603%)" />
  <rect x="415" y="85" width="30" height="30" fill="hsl(240 100% 67.06282551493084%)" />
  <rect x="520" y="85" width="30" height="30" fill="hsl(240 100% 54.468729070277575%)" />
  <rect x="625" y="85" width="30" height="30" fill="rgb(255 255 255 / 50%)" />
  <rect x="730" y="85" width="30" height="30" fill="hsl(240 100% 73.89145325691416%)" />
  <rect x="765" y="85" width="30" height="30" fill="rgb(255 255 255 / 50%)" />
  <rect x="835" y="85" width="30" height="30" fill="hsl(240 100% 99.72688120638213%)" />
  <rect x="65" y="120" width="30" height="30" fill="hsl(240 100% 50%)" />
  <rect x="100" y="120" width="30" height="30" fill="hsl(240 100% 83.07703636741508%)" />
  <rect x="135" y="120" width="30" height="30" fill="hsl(240 100% 85.47561120624626%)" />
  <rect x="170" y="120" width="30" height="30" fill="hsl(240 100% 52.050258224122715%)" />
  <rect x="205" y="120" width="30" height="30" fill="hsl(240 100% 92.65756798385017%)" />
  <rect x="240" y="120" width="30" height="30" fill="hsl(240 100% 91.6155038274004%)" />
  <rect x="275" y="120" width="30" height="30" fill="hsl(240 100% 99.37803838683708%)" />
  <rect x="310" y="120" width="30" height="30" fill="hsl(240 100% 98.99787160075203%)" />
  <rect x="380" y="120" width="30" height="30" fill="hsl(240 100% 93.36530976204818%)" />
  <rect x="415" y="120" width="30" height="30" fill="hsl(240 100% 94.62638439304334%)" />
  <rect x="450" y="120" width="30" height="30" fill="hsl(240 100% 97.87459098628159%)" />
  <rect x="520" y="120" width="30" height="30" fill="hsl(240 100% 79.62307703879972%)" />
  <rect x="555" y="120" width="30" height="30" fill="hsl(240 100% 90.1234720532975%)" />
  <rect x="660" y="120" width="30" height="30" fill="rgb(255 255 255 / 50%)" />
  <rect x="835" y="120" width="30" height="30" fill="rgb(255 255 255 / 50%)" />
  <rect x="65" y="155" width="30" height="30" fill="hsl(240 100% 98.29741660190794%)" />
  <rect x="100" y="155" width="30" height="30" fill="hsl(240 100% 98.79192759033765%)" />
  <rect x="135" y="155" width="30" height="30" fill="hsl(240 100% 99.09829274850414%)" />
  <rect x="170" y="155" width="30" height="30" fill="hsl(240 100% 97.96465944751515%)" />
  <rect x="205" y="155" width="30" height="30" fill="hsl(240 100% 99.84530710053383%)" />
  <rect x="240" y="155" width="30" height="30" fill="hsl(240 100% 91.06857719096494%)" />
  <rect x="275" y="155" width="30" height="30" fill="hsl(240 100% 92.61791081332487%)" />
  <rect x="310" y="155" width="30" height="30" fill="rgb(255 255 255 / 50%)" />
  <rect x="415" y="155" width="30" height="30" fill="hsl(240 100% 92.78694599451892%)" />
  <rect x="485" y="155" width="30" height="30" fill="hsl(240 100% 50%)" />
  <rect x="520" y="155" width="30" height="30" fill="hsl(240 100% 80.79918520116344%)" />
  <rect x="590" y="155" width="30" height="30" fill="hsl(240 100% 99.61994848429684%)" />
  <rect x="625" y="155" width="30" height="30" fill="hsl(240 100% 66.15727279558263%)" />
  <rect x="695" y="155" width="30" height="30" fill="hsl(240 100% 94.93072471241578%)" />
  <rect x="730" y="155" width="30" height="30" fill="hsl(240 100% 83.43875737188554%)" />
  <rect x="765" y="155" width="30" height="30" fill="hsl(240 100% 99.56945658507014%)" />
  <rect x="835" y="155" width="30" height="30" fill="hsl(240 100% 96.2546543552367%)" />
  <rect x="65" y="190" width="30" height="30" fill="hsl(240 100% 50%)" />
  <rect x="100" y="190" width="30" height="30" fill="hsl(240 100% 50%)" />
  <rect x="135" y="190" width="30" height="30" fill="hsl(240 100% 50%)" />
  <rect x="170" y="190" width="30" height="30" fill="hsl(240 100% 50%)" />
  <rect x="205" y="190" width="30" height="30" fill="hsl(240 100% 50%)" />
  <rect x="240" y="190" width="30" height="30" fill="hsl(240 100% 50%)" />
  <rect x="275" y="190" width="30" height="30" fill="hsl(240 100% 50%)" />
  <rect x="310" y="190" width="30" height="30" fill="hsl(240 100% 50%)" />
  <rect x="345" y="190" width="30" height="30" fill="hsl(240 100% 50%)" />
  <rect x="380" y="190" width="30" height="30" fill="hsl(240 100% 50%)" />
  <rect x="415" y="190" width="30" height="30" fill="hsl(240 100% 50%)" />
  <rect x="450" y="190" width="30" height="30" fill="hsl(240 100% 50%)" />
  <rect x="485" y="190" width="30" height="30" fill="hsl(240 100% 50%)" />
  <rect x="520" y="190" width="30" height="30" fill="hsl(240 100% 50%)" />
  <rect x="555" y="190" width="30" height="30" fill="hsl(240 100% 50%)" />
  <rect x="590" y="190" width="30" height="30" fill="hsl(240 100% 50%)" />
  <rect x="625" y="190" width="30" height="30" fill="hsl(240 100% 50%)" />
  <rect x="660" y="190" width="30" height="30" fill="hsl(240 100% 50%)" />
  <rect x="695" y="190" width="30" height="30" fill="hsl(240 100% 50%)" />
  <rect x="730" y="190" width="30" height="30" fill="hsl(240 100% 50%)" />
  <rect x="765" y="190" width="30" height="30" fill="hsl(240 100% 50%)" />
  <rect x="800" y="190" width="30" height="30" fill="hsl(240 100% 50%)" />
  <rect x="835" y="190" width="30" height="30" fill="hsl(240 100% 50%)" />
  <rect x="100" y="225" width="30" height="30" fill="hsl(240 100% 96.29090101685131%)" />
  <rect x="135" y="225" width="30" height="30" fill="hsl(240 100% 86.33573035052473%)" />
  <rect x="170" y="225" width="30" height="30" fill="hsl(240 100% 88.00879958973846%)" />
  <rect x="240" y="225" width="30" height="30" fill="hsl(240 100% 90.23385240081215%)" />
  <rect x="310" y="225" width="30" height="30" fill="rgb(255 255 255 / 50%)" />
  <rect x="415" y="225" width="30" height="30" fill="hsl(240 100% 89.3992431054965%)" />
  <rect x="520" y="225" width="30" height="30" fill="hsl(240 100% 50%)" />
  <rect x="625" y="225" width="30" height="30" fill="rgb(255 255 255 / 50%)" />
  <rect x="730" y="225" width="30" height="30" fill="hsl(240 100% 92.42150426199319%)" />
  <rect x="765" y="225" width="30" height="30" fill="rgb(255 255 255 / 50%)" />
  <rect x="835" y="225" width="30" height="30" fill="hsl(240 100% 93.60834904775672%)" />
  <rect x="65" y="260" width="30" height="30" fill="hsl(240 100% 99.84399197945007%)" />
  <rect x="135" y="260" width="30" height="30" fill="hsl(240 100% 99.86044478594157%)" />
  <rect x="170" y="260" width="30" height="30" fill="hsl(240 100% 98.92108109398065%)" />
  <rect x="205" y="260" width="30" height="30" fill="rgb(255 255 255 / 50%)" />
  <rect x="240" y="260" width="30" height="30" fill="hsl(240 100% 87.36373114619971%)" />
  <rect x="310" y="260" width="30" height="30" fill="rgb(255 255 255 / 50%)" />
  <rect x="415" y="260" width="30" height="30" fill="hsl(240 100% 80.96066941778622%)" />
  <rect x="450" y="260" width="30" height="30" fill="rgb(255 255 255 / 50%)" />
  <rect x="485" y="260" width="30" height="30" fill="hsl(240 100% 50%)" />
  <rect x="520" y="260" width="30" height="30" fill="hsl(240 100% 72.73139769475014%)" />
  <rect x="625" y="260" width="30" height="30" fill="hsl(240 100% 97.01334549314618%)" />
  <rect x="695" y="260" width="30" height="30" fill="hsl(240 100% 94.17515392948896%)" />
  <rect x="65" y="295" width="30" height="30" fill="hsl(240 100% 86.1117072457135%)" />
  <rect x="100" y="295" width="30" height="30" fill="hsl(240 100% 97.58259687600012%)" />
  <rect x="135" y="295" width="30" height="30" fill="hsl(240 100% 95.32355092370467%)" />
  <rect x="170" y="295" width="30" height="30" fill="hsl(240 100% 89.40623376596943%)" />
  <rect x="205" y="295" width="30" height="30" fill="hsl(240 100% 99.48459398055388%)" />
  <rect x="240" y="295" width="30" height="30" fill="hsl(240 100% 50.70382008504424%)" />
  <rect x="275" y="295" width="30" height="30" fill="hsl(240 100% 50%)" />
  <rect x="310" y="295" width="30" height="30" fill="hsl(240 100% 99.50030224214225%)" />
  <rect x="345" y="295" width="30" height="30" fill="hsl(240 100% 94.74169302593148%)" />
  <rect x="415" y="295" width="30" height="30" fill="hsl(240 100% 55.970093817339844%)" />
  <rect x="450" y="295" width="30" height="30" fill="hsl(240 100% 99.33334418228702%)" />
  <rect x="485" y="295" width="30" height="30" fill="hsl(240 100% 88.16087286243543%)" />
  <rect x="520" y="295" width="30" height="30" fill="hsl(240 100% 57.93533660997948%)" />
  <rect x="695" y="295" width="30" height="30" fill="hsl(240 100% 97.7506386103529%)" />
  <rect x="800" y="295" width="30" height="30" fill="hsl(240 100% 99.5706344967677%)" />
  <rect x="835" y="295" width="30" height="30" fill="hsl(240 100% 99.95632809043288%)" />
  <rect x="65" y="330" width="30" height="30" fill="hsl(240 100% 87.06701686878125%)" />
  <rect x="100" y="330" width="30" height="30" fill="hsl(240 100% 94.41376052903044%)" />
  <rect x="135" y="330" width="30" height="30" fill="hsl(240 100% 96.94896144756702%)" />
  <rect x="170" y="330" width="30" height="30" fill="hsl(240 100% 86.77721476460952%)" />
  <rect x="205" y="330" width="30" height="30" fill="hsl(240 100% 99.19899729671181%)" />
  <rect x="240" y="330" width="30" height="30" fill="hsl(240 100% 79.33203921669624%)" />
  <rect x="275" y="330" width="30" height="30" fill="hsl(240 100% 87.48733843445245%)" />
  <rect x="310" y="330" width="30" height="30" fill="rgb(255 255 255 / 50%)" />
  <rect x="345" y="330" width="30" height="30" fill="hsl(240 100% 97.2093434973648%)" />
  <rect x="415" y="330" width="30" height="30" fill="hsl(240 100% 85.90537118993436%)" />
  <rect x="450" y="330" width="30" height="30" fill="hsl(240 100% 99.81209170667299%)" />
  <rect x="485" y="330" width="30" height="30" fill="hsl(240 100% 70.11701438042128%)" />
  <rect x="520" y="330" width="30" height="30" fill="hsl(240 100% 70.45487917523806%)" />
  <rect x="590" y="330" width="30" height="30" fill="hsl(240 100% 93.73597576073783%)" />
  <rect x="625" y="330" width="30" height="30" fill="hsl(240 100% 50%)" />
  <rect x="765" y="330" width="30" height="30" fill="hsl(240 100% 94.11175251187066%)" />
  <rect x="800" y="330" width="30" height="30" fill="hsl(240 100% 99.19281497911662%)" />
  <rect x="835" y="330" width="30" height="30" fill="hsl(240 100% 81.22250213253996%)" />
  <rect x="65" y="365" width="30" height="30" fill="hsl(240 100% 57.47129583591582%)" />
  <rect x="100" y="365" width="30" height="30" fill="hsl(240 100% 71.4991088804858%)" />
  <rect x="135" y="365" width="30" height="30" fill="hsl(240 100% 82.54055930518321%)" />
  <rect x="170" y="365" width="30" height="30" fill="hsl(240 100% 50%)" />
  <rect x="205" y="365" width="30" height="30" fill="hsl(240 100% 95.69204505480958%)" />
  <rect x="240" y="365" width="30" height="30" fill="hsl(240 100% 59.04509916058059%)" />
  <rect x="275" y="365" width="30" height="30" fill="hsl(240 100% 92.25288378440762%)" />
  <rect x="310" y="365" width="30" height="30" fill="hsl(240 100% 99.86282793096618%)" />
  <rect x="415" y="365" width="30" height="30" fill="hsl(240 100% 66.80627015474603%)" />
  <rect x="520" y="365" width="30" height="30" fill="hsl(240 100% 86.15014322976774%)" />
  <rect x="625" y="365" width="30" height="30" fill="hsl(240 100% 99.63331300791833%)" />
  <rect x="730" y="365" width="30" height="30" fill="hsl(240 100% 63.534740318405994%)" />
  <rect x="765" y="365" width="30" height="30" fill="hsl(240 100% 98.19308512187885%)" />
  <rect x="835" y="365" width="30" height="30" fill="hsl(240 100% 98.81255776257932%)" />
  <rect x="65" y="400" width="30" height="30" fill="hsl(240 100% 98.27580718481411%)" />
  <rect x="100" y="400" width="30" height="30" fill="hsl(240 100% 99.43295963995736%)" />
  <rect x="135" y="400" width="30" height="30" fill="hsl(240 100% 99.67881185772278%)" />
  <rect x="170" y="400" width="30" height="30" fill="hsl(240 100% 94.07897700742365%)" />
  <rect x="205" y="400" width="30" height="30" fill="hsl(240 100% 99.24893482952005%)" />
  <rect x="240" y="400" width="30" height="30" fill="hsl(240 100% 86.35146263726865%)" />
  <rect x="275" y="400" width="30" height="30" fill="hsl(240 100% 95.4294532480828%)" />
  <rect x="310" y="400" width="30" height="30" fill="rgb(255 255 255 / 50%)" />
  <rect x="380" y="400" width="30" height="30" fill="rgb(255 255 255 / 50%)" />
  <rect x="415" y="400" width="30" height="30" fill="hsl(240 100% 94.0862236604364%)" />
  <rect x="450" y="400" width="30" height="30" fill="hsl(240 100% 99.97420784382872%)" />
  <rect x="485" y="400" width="30" height="30" fill="hsl(240 100% 78.90639281140629%)" />
  <rect x="520" y="400" width="30" height="30" fill="hsl(240 100% 50%)" />
  <rect x="555" y="400" width="30" height="30" fill="hsl(240 100% 99.12832669156482%)" />
  <rect x="660" y="400" width="30" height="30" fill="rgb(255 255 255 / 50%)" />
  <rect x="835" y="400" width="30" height="30" fill="hsl(240 100% 99.11196039954464%)" />
  <rect x="65" y="435" width="30" height="30" fill="hsl(240 100% 93.29474878951011%)" />
  <rect x="240" y="435" width="30" height="30" fill="hsl(240 100% 50%)" />
  <rect x="310" y="435" width="30" height="30" fill="hsl(240 100% 93.8545081022495%)" />
  <rect x="415" y="435" width="30" height="30" fill="hsl(240 100% 87.00732978286325%)" />
  <rect x="450" y="435" width="30" height="30" fill="hsl(240 100% 99.78809376900968%)" />
  <rect x="65" y="470" width="30" height="30" fill="hsl(240 100% 50%)" />
  <rect x="240" y="470" width="30" height="30" fill="hsl(240 100% 50.28433308549056%)" />
  <rect x="310" y="470" width="30" height="30" fill="hsl(240 100% 96.98533231260825%)" />
  <rect x="415" y="470" width="30" height="30" fill="hsl(240 100% 89.30559553711764%)" />
  <rect x="450" y="470" width="30" height="30" fill="hsl(240 100% 99.57976459028946%)" />
</svg>
