<svg xmlns="http://www.w3.org/2000/svg" viewBox="0 0 730 505">
  <rect x="0" y="0" width="730" height="505" rx="5" ry="5" fill="#222" />
  <text x="60" y="100" fill="white" font-family="sans-serif" font-weight="bold" font-size="12" text-anchor="end" dominant-baseline="middle">ba</text>
  <text x="60" y="135" fill="white" font-family="sans-serif" font-weight="bold" font-size="12" text-anchor="end" dominant-baseline="middle">det</text>
  <text x="60" y="170" fill="white" font-family="sans-serif" font-weight="bold" font-size="12" text-anchor="end" dominant-baseline="middle">gmm</text>
  <text x="60" y="205" fill="white" font-family="sans-serif" font-weight="bold" font-size="12" text-anchor="end" dominant-baseline="middle">hello</text>
  <text x="60" y="240" fill="white" font-family="sans-serif" font-weight="bold" font-size="12" text-anchor="end" dominant-baseline="middle">ht</text>
  <text x="60" y="275" fill="white" font-family="sans-serif" font-weight="bold" font-size="12" text-anchor="end" dominant-baseline="middle">kmeans</text>
  <text x="60" y="310" fill="white" font-family="sans-serif" font-weight="bold" font-size="12" text-anchor="end" dominant-baseline="middle">llsq</text>
  <text x="60" y="345" fill="white" font-family="sans-serif" font-weight="bold" font-size="12" text-anchor="end" dominant-baseline="middle">lse</text>
  <text x="60" y="380" fill="white" font-family="sans-serif" font-weight="bold" font-size="12" text-anchor="end" dominant-baseline="middle">lstm</text>
  <text x="60" y="415" fill="white" font-family="sans-serif" font-weight="bold" font-size="12" text-anchor="end" dominant-baseline="middle">ode</text>
  <text x="60" y="450" fill="white" font-family="sans-serif" font-weight="bold" font-size="12" text-anchor="end" dominant-baseline="middle">particle</text>
  <text x="60" y="485" fill="white" font-family="sans-serif" font-weight="bold" font-size="12" text-anchor="end" dominant-baseline="middle">saddle</text>
  <text x="80" y="80" fill="white" font-family="sans-serif" font-weight="bold" font-size="12" text-anchor="end" dominant-baseline="middle" transform="rotate(90 80 80)">ad-hpp</text>
  <text x="115" y="80" fill="white" font-family="sans-serif" font-weight="bold" font-size="12" text-anchor="end" dominant-baseline="middle" transform="rotate(90 115 80)">adept</text>
  <text x="150" y="80" fill="white" font-family="sans-serif" font-weight="bold" font-size="12" text-anchor="end" dominant-baseline="middle" transform="rotate(90 150 80)">adol-c</text>
  <text x="185" y="80" fill="white" font-family="sans-serif" font-weight="bold" font-size="12" text-anchor="end" dominant-baseline="middle" transform="rotate(90 185 80)">codipack</text>
  <text x="220" y="80" fill="white" font-family="sans-serif" font-weight="bold" font-size="12" text-anchor="end" dominant-baseline="middle" transform="rotate(90 220 80)">cppad</text>
  <text x="255" y="80" fill="white" font-family="sans-serif" font-weight="bold" font-size="12" text-anchor="end" dominant-baseline="middle" transform="rotate(90 255 80)">enzyme</text>
  <text x="290" y="80" fill="white" font-family="sans-serif" font-weight="bold" font-size="12" text-anchor="end" dominant-baseline="middle" transform="rotate(90 290 80)">enzyme-jl</text>
  <text x="325" y="80" fill="white" font-family="sans-serif" font-weight="bold" font-size="12" text-anchor="end" dominant-baseline="middle" transform="rotate(90 325 80)">finite</text>
  <text x="360" y="80" fill="white" font-family="sans-serif" font-weight="bold" font-size="12" text-anchor="end" dominant-baseline="middle" transform="rotate(90 360 80)">floretta</text>
  <text x="395" y="80" fill="white" font-family="sans-serif" font-weight="bold" font-size="12" text-anchor="end" dominant-baseline="middle" transform="rotate(90 395 80)">futhark</text>
  <text x="430" y="80" fill="white" font-family="sans-serif" font-weight="bold" font-size="12" text-anchor="end" dominant-baseline="middle" transform="rotate(90 430 80)">haskell</text>
  <text x="465" y="80" fill="white" font-family="sans-serif" font-weight="bold" font-size="12" text-anchor="end" dominant-baseline="middle" transform="rotate(90 465 80)">jax</text>
  <text x="500" y="80" fill="white" font-family="sans-serif" font-weight="bold" font-size="12" text-anchor="end" dominant-baseline="middle" transform="rotate(90 500 80)">manual</text>
  <text x="535" y="80" fill="white" font-family="sans-serif" font-weight="bold" font-size="12" text-anchor="end" dominant-baseline="middle" transform="rotate(90 535 80)">ocaml</text>
  <text x="570" y="80" fill="white" font-family="sans-serif" font-weight="bold" font-size="12" text-anchor="end" dominant-baseline="middle" transform="rotate(90 570 80)">pytorch</text>
  <text x="605" y="80" fill="white" font-family="sans-serif" font-weight="bold" font-size="12" text-anchor="end" dominant-baseline="middle" transform="rotate(90 605 80)">scilean</text>
  <text x="640" y="80" fill="white" font-family="sans-serif" font-weight="bold" font-size="12" text-anchor="end" dominant-baseline="middle" transform="rotate(90 640 80)">tapenade</text>
  <text x="675" y="80" fill="white" font-family="sans-serif" font-weight="bold" font-size="12" text-anchor="end" dominant-baseline="middle" transform="rotate(90 675 80)">tensorflow</text>
  <text x="710" y="80" fill="white" font-family="sans-serif" font-weight="bold" font-size="12" text-anchor="end" dominant-baseline="middle" transform="rotate(90 710 80)">zygote</text>
  <rect x="65" y="85" width="30" height="30" fill="hsl(240 100% 80.98301806096765%)" />
  <rect x="100" y="85" width="30" height="30" fill="hsl(240 100% 82.71237784305302%)" />
  <rect x="135" y="85" width="30" height="30" fill="hsl(240 100% 97.99430545883752%)" />
  <rect x="170" y="85" width="30" height="30" fill="hsl(240 100% 82.85839074533807%)" />
  <rect x="205" y="85" width="30" height="30" fill="hsl(240 100% 98.96175008405625%)" />
  <rect x="240" y="85" width="30" height="30" fill="hsl(240 100% 51.64532641731025%)" />
  <rect x="310" y="85" width="30" height="30" fill="hsl(240 100% 93.26765425883814%)" />
  <rect x="380" y="85" width="30" height="30" fill="hsl(240 100% 68.11282932155764%)" />
  <rect x="485" y="85" width="30" height="30" fill="hsl(240 100% 50%)" />
  <rect x="555" y="85" width="30" height="30" fill="rgb(255 255 255 / 50%)" />
  <rect x="625" y="85" width="30" height="30" fill="hsl(240 100% 74.80659056762025%)" />
  <rect x="660" y="85" width="30" height="30" fill="rgb(255 255 255 / 50%)" />
  <rect x="695" y="85" width="30" height="30" fill="hsl(240 100% 99.72118502084557%)" />
  <rect x="65" y="120" width="30" height="30" fill="hsl(240 100% 50%)" />
  <rect x="100" y="120" width="30" height="30" fill="hsl(240 100% 83.05355991795015%)" />
  <rect x="135" y="120" width="30" height="30" fill="hsl(240 100% 85.54029205480606%)" />
  <rect x="170" y="120" width="30" height="30" fill="hsl(240 100% 51.781144109873814%)" />
  <rect x="205" y="120" width="30" height="30" fill="hsl(240 100% 92.51000913683475%)" />
  <rect x="240" y="120" width="30" height="30" fill="hsl(240 100% 91.66084596877326%)" />
  <rect x="275" y="120" width="30" height="30" fill="hsl(240 100% 99.25952758648539%)" />
  <rect x="310" y="120" width="30" height="30" fill="hsl(240 100% 98.99028423583862%)" />
  <rect x="380" y="120" width="30" height="30" fill="hsl(240 100% 94.55324929874902%)" />
  <rect x="415" y="120" width="30" height="30" fill="hsl(240 100% 97.91796479032774%)" />
  <rect x="485" y="120" width="30" height="30" fill="hsl(240 100% 79.47817886078327%)" />
  <rect x="695" y="120" width="30" height="30" fill="rgb(255 255 255 / 50%)" />
  <rect x="65" y="155" width="30" height="30" fill="hsl(240 100% 97.22741193508692%)" />
  <rect x="100" y="155" width="30" height="30" fill="hsl(240 100% 98.31750926617092%)" />
  <rect x="135" y="155" width="30" height="30" fill="hsl(240 100% 98.78567336310661%)" />
  <rect x="170" y="155" width="30" height="30" fill="hsl(240 100% 97.32611285150486%)" />
  <rect x="205" y="155" width="30" height="30" fill="hsl(240 100% 99.77275899787773%)" />
  <rect x="240" y="155" width="30" height="30" fill="hsl(240 100% 87.049573532848%)" />
  <rect x="275" y="155" width="30" height="30" fill="hsl(240 100% 99.8294880778481%)" />
  <rect x="310" y="155" width="30" height="30" fill="rgb(255 255 255 / 50%)" />
  <rect x="380" y="155" width="30" height="30" fill="hsl(240 100% 89.48192206152751%)" />
  <rect x="450" y="155" width="30" height="30" fill="hsl(240 100% 71.14107211346821%)" />
  <rect x="485" y="155" width="30" height="30" fill="hsl(240 100% 72.56839076110921%)" />
  <rect x="520" y="155" width="30" height="30" fill="hsl(240 100% 99.37681999894407%)" />
  <rect x="555" y="155" width="30" height="30" fill="hsl(240 100% 50%)" />
  <rect x="590" y="155" width="30" height="30" fill="hsl(240 100% 92.81662143623956%)" />
  <rect x="625" y="155" width="30" height="30" fill="hsl(240 100% 75.75900818927823%)" />
  <rect x="660" y="155" width="30" height="30" fill="hsl(240 100% 88.57181642460576%)" />
  <rect x="695" y="155" width="30" height="30" fill="hsl(240 100% 99.36474854347962%)" />
  <rect x="65" y="190" width="30" height="30" fill="hsl(240 100% 50%)" />
  <rect x="100" y="190" width="30" height="30" fill="hsl(240 100% 50%)" />
  <rect x="135" y="190" width="30" height="30" fill="hsl(240 100% 50%)" />
  <rect x="170" y="190" width="30" height="30" fill="hsl(240 100% 50%)" />
  <rect x="205" y="190" width="30" height="30" fill="hsl(240 100% 50%)" />
  <rect x="240" y="190" width="30" height="30" fill="hsl(240 100% 50%)" />
  <rect x="275" y="190" width="30" height="30" fill="hsl(240 100% 50%)" />
  <rect x="310" y="190" width="30" height="30" fill="hsl(240 100% 50%)" />
  <rect x="345" y="190" width="30" height="30" fill="hsl(240 100% 50%)" />
  <rect x="380" y="190" width="30" height="30" fill="hsl(240 100% 50%)" />
  <rect x="415" y="190" width="30" height="30" fill="hsl(240 100% 50%)" />
  <rect x="450" y="190" width="30" height="30" fill="hsl(240 100% 50%)" />
  <rect x="485" y="190" width="30" height="30" fill="hsl(240 100% 50%)" />
  <rect x="520" y="190" width="30" height="30" fill="hsl(240 100% 50%)" />
  <rect x="555" y="190" width="30" height="30" fill="hsl(240 100% 50%)" />
  <rect x="590" y="190" width="30" height="30" fill="hsl(240 100% 50%)" />
  <rect x="625" y="190" width="30" height="30" fill="hsl(240 100% 50%)" />
  <rect x="660" y="190" width="30" height="30" fill="hsl(240 100% 50%)" />
  <rect x="695" y="190" width="30" height="30" fill="hsl(240 100% 50%)" />
  <rect x="100" y="225" width="30" height="30" fill="hsl(240 100% 96.64786124979305%)" />
  <rect x="135" y="225" width="30" height="30" fill="hsl(240 100% 89.05563554372783%)" />
  <rect x="170" y="225" width="30" height="30" fill="hsl(240 100% 89.05176602598468%)" />
  <rect x="240" y="225" width="30" height="30" fill="hsl(240 100% 91.35225741348808%)" />
  <rect x="310" y="225" width="30" height="30" fill="rgb(255 255 255 / 50%)" />
  <rect x="380" y="225" width="30" height="30" fill="hsl(240 100% 90.5912059098298%)" />
  <rect x="485" y="225" width="30" height="30" fill="hsl(240 100% 50%)" />
  <rect x="555" y="225" width="30" height="30" fill="rgb(255 255 255 / 50%)" />
  <rect x="625" y="225" width="30" height="30" fill="hsl(240 100% 93.10612964054417%)" />
  <rect x="660" y="225" width="30" height="30" fill="rgb(255 255 255 / 50%)" />
  <rect x="695" y="225" width="30" height="30" fill="hsl(240 100% 99.46633372791216%)" />
  <rect x="65" y="260" width="30" height="30" fill="hsl(240 100% 99.89436172190653%)" />
  <rect x="135" y="260" width="30" height="30" fill="hsl(240 100% 99.91549395912725%)" />
  <rect x="170" y="260" width="30" height="30" fill="hsl(240 100% 98.95601838354104%)" />
  <rect x="205" y="260" width="30" height="30" fill="rgb(255 255 255 / 50%)" />
  <rect x="240" y="260" width="30" height="30" fill="hsl(240 100% 86.97001597301676%)" />
  <rect x="310" y="260" width="30" height="30" fill="rgb(255 255 255 / 50%)" />
  <rect x="380" y="260" width="30" height="30" fill="hsl(240 100% 80.60206739231664%)" />
  <rect x="415" y="260" width="30" height="30" fill="rgb(255 255 255 / 50%)" />
  <rect x="450" y="260" width="30" height="30" fill="hsl(240 100% 50%)" />
  <rect x="485" y="260" width="30" height="30" fill="hsl(240 100% 71.068855279144%)" />
  <rect x="555" y="260" width="30" height="30" fill="hsl(240 100% 96.96741169279129%)" />
  <rect x="590" y="260" width="30" height="30" fill="hsl(240 100% 94.03031633371221%)" />
  <rect x="65" y="295" width="30" height="30" fill="hsl(240 100% 85.63550427390413%)" />
  <rect x="100" y="295" width="30" height="30" fill="hsl(240 100% 97.50063947325154%)" />
  <rect x="135" y="295" width="30" height="30" fill="hsl(240 100% 94.9781157014976%)" />
  <rect x="170" y="295" width="30" height="30" fill="hsl(240 100% 90.57350329105216%)" />
  <rect x="205" y="295" width="30" height="30" fill="hsl(240 100% 99.45476574082336%)" />
  <rect x="240" y="295" width="30" height="30" fill="hsl(240 100% 50%)" />
  <rect x="275" y="295" width="30" height="30" fill="hsl(240 100% 99.85783503064603%)" />
  <rect x="310" y="295" width="30" height="30" fill="hsl(240 100% 99.49340201287708%)" />
  <rect x="345" y="295" width="30" height="30" fill="hsl(240 100% 95.15905386349469%)" />
  <rect x="380" y="295" width="30" height="30" fill="hsl(240 100% 54.688864196280946%)" />
  <rect x="415" y="295" width="30" height="30" fill="hsl(240 100% 99.33324801019464%)" />
  <rect x="450" y="295" width="30" height="30" fill="hsl(240 100% 88.28610878317072%)" />
  <rect x="485" y="295" width="30" height="30" fill="hsl(240 100% 57.36732147386232%)" />
  <rect x="590" y="295" width="30" height="30" fill="hsl(240 100% 97.57630812486305%)" />
  <rect x="695" y="295" width="30" height="30" fill="hsl(240 100% 99.97459841179611%)" />
  <rect x="65" y="330" width="30" height="30" fill="hsl(240 100% 84.99534956050647%)" />
  <rect x="100" y="330" width="30" height="30" fill="hsl(240 100% 93.30020633446178%)" />
  <rect x="135" y="330" width="30" height="30" fill="hsl(240 100% 96.43630549263456%)" />
  <rect x="170" y="330" width="30" height="30" fill="hsl(240 100% 84.544719439515%)" />
  <rect x="205" y="330" width="30" height="30" fill="hsl(240 100% 99.01652326782069%)" />
  <rect x="240" y="330" width="30" height="30" fill="hsl(240 100% 73.12911710388775%)" />
  <rect x="275" y="330" width="30" height="30" fill="hsl(240 100% 99.77800118928039%)" />
  <rect x="310" y="330" width="30" height="30" fill="rgb(255 255 255 / 50%)" />
  <rect x="345" y="330" width="30" height="30" fill="hsl(240 100% 96.53375398490799%)" />
  <rect x="380" y="330" width="30" height="30" fill="hsl(240 100% 82.19268909800907%)" />
  <rect x="415" y="330" width="30" height="30" fill="hsl(240 100% 99.76138918785001%)" />
  <rect x="450" y="330" width="30" height="30" fill="hsl(240 100% 62.59077775072529%)" />
  <rect x="485" y="330" width="30" height="30" fill="hsl(240 100% 66.7760082852443%)" />
  <rect x="520" y="330" width="30" height="30" fill="hsl(240 100% 92.26490283956336%)" />
  <rect x="555" y="330" width="30" height="30" fill="hsl(240 100% 50%)" />
  <rect x="660" y="330" width="30" height="30" fill="hsl(240 100% 93.9732624068041%)" />
  <rect x="695" y="330" width="30" height="30" fill="hsl(240 100% 94.02975584950931%)" />
  <rect x="65" y="365" width="30" height="30" fill="hsl(240 100% 56.960183099945866%)" />
  <rect x="100" y="365" width="30" height="30" fill="hsl(240 100% 71.2913933819175%)" />
  <rect x="135" y="365" width="30" height="30" fill="hsl(240 100% 81.77985105853512%)" />
  <rect x="170" y="365" width="30" height="30" fill="hsl(240 100% 50%)" />
  <rect x="205" y="365" width="30" height="30" fill="hsl(240 100% 96.09750451953012%)" />
  <rect x="240" y="365" width="30" height="30" fill="hsl(240 100% 58.67053767330125%)" />
  <rect x="275" y="365" width="30" height="30" fill="hsl(240 100% 99.00997465729588%)" />
  <rect x="310" y="365" width="30" height="30" fill="hsl(240 100% 99.85995128052157%)" />
  <rect x="380" y="365" width="30" height="30" fill="hsl(240 100% 66.5324155317959%)" />
  <rect x="485" y="365" width="30" height="30" fill="hsl(240 100% 85.8030015722679%)" />
  <rect x="555" y="365" width="30" height="30" fill="hsl(240 100% 99.62104796944632%)" />
  <rect x="625" y="365" width="30" height="30" fill="hsl(240 100% 63.14552927733745%)" />
  <rect x="660" y="365" width="30" height="30" fill="hsl(240 100% 98.1653931849268%)" />
  <rect x="695" y="365" width="30" height="30" fill="hsl(240 100% 99.19035182571514%)" />
  <rect x="65" y="400" width="30" height="30" fill="hsl(240 100% 98.20528076867885%)" />
  <rect x="100" y="400" width="30" height="30" fill="hsl(240 100% 99.29259267017713%)" />
  <rect x="135" y="400" width="30" height="30" fill="hsl(240 100% 99.60321022911306%)" />
  <rect x="170" y="400" width="30" height="30" fill="hsl(240 100% 94.429033447987%)" />
  <rect x="205" y="400" width="30" height="30" fill="hsl(240 100% 99.07267379118953%)" />
  <rect x="240" y="400" width="30" height="30" fill="hsl(240 100% 83.01628195555561%)" />
  <rect x="275" y="400" width="30" height="30" fill="hsl(240 100% 99.09252877145438%)" />
  <rect x="310" y="400" width="30" height="30" fill="rgb(255 255 255 / 50%)" />
  <rect x="380" y="400" width="30" height="30" fill="hsl(240 100% 92.6611686425129%)" />
  <rect x="415" y="400" width="30" height="30" fill="hsl(240 100% 99.96955081841081%)" />
  <rect x="450" y="400" width="30" height="30" fill="hsl(240 100% 74.03857026052806%)" />
  <rect x="485" y="400" width="30" height="30" fill="hsl(240 100% 50%)" />
  <rect x="695" y="400" width="30" height="30" fill="hsl(240 100% 99.65697866913095%)" />
  <rect x="65" y="435" width="30" height="30" fill="hsl(240 100% 92.90629141184164%)" />
  <rect x="240" y="435" width="30" height="30" fill="hsl(240 100% 50%)" />
  <rect x="310" y="435" width="30" height="30" fill="hsl(240 100% 94.29351768433199%)" />
  <rect x="380" y="435" width="30" height="30" fill="hsl(240 100% 86.90353386223815%)" />
  <rect x="415" y="435" width="30" height="30" fill="hsl(240 100% 99.78912123720345%)" />
  <rect x="65" y="470" width="30" height="30" fill="hsl(240 100% 50%)" />
  <rect x="240" y="470" width="30" height="30" fill="hsl(240 100% 50.13464365268176%)" />
  <rect x="310" y="470" width="30" height="30" fill="hsl(240 100% 97.15709143888338%)" />
  <rect x="380" y="470" width="30" height="30" fill="hsl(240 100% 89.45388065858693%)" />
  <rect x="415" y="470" width="30" height="30" fill="hsl(240 100% 99.57248830606655%)" />
</svg>
