<svg xmlns="http://www.w3.org/2000/svg" viewBox="0 0 870 505">
  <rect x="0" y="0" width="870" height="505" rx="5" ry="5" fill="#222" />
  <text x="60" y="100" fill="white" font-family="sans-serif" font-weight="bold" font-size="12" text-anchor="end" dominant-baseline="middle">ba</text>
  <text x="60" y="135" fill="white" font-family="sans-serif" font-weight="bold" font-size="12" text-anchor="end" dominant-baseline="middle">det</text>
  <text x="60" y="170" fill="white" font-family="sans-serif" font-weight="bold" font-size="12" text-anchor="end" dominant-baseline="middle">gmm</text>
  <text x="60" y="205" fill="white" font-family="sans-serif" font-weight="bold" font-size="12" text-anchor="end" dominant-baseline="middle">hello</text>
  <text x="60" y="240" fill="white" font-family="sans-serif" font-weight="bold" font-size="12" text-anchor="end" dominant-baseline="middle">ht</text>
  <text x="60" y="275" fill="white" font-family="sans-serif" font-weight="bold" font-size="12" text-anchor="end" dominant-baseline="middle">kmeans</text>
  <text x="60" y="310" fill="white" font-family="sans-serif" font-weight="bold" font-size="12" text-anchor="end" dominant-baseline="middle">llsq</text>
  <text x="60" y="345" fill="white" font-family="sans-serif" font-weight="bold" font-size="12" text-anchor="end" dominant-baseline="middle">lse</text>
  <text x="60" y="380" fill="white" font-family="sans-serif" font-weight="bold" font-size="12" text-anchor="end" dominant-baseline="middle">lstm</text>
  <text x="60" y="415" fill="white" font-family="sans-serif" font-weight="bold" font-size="12" text-anchor="end" dominant-baseline="middle">ode</text>
  <text x="60" y="450" fill="white" font-family="sans-serif" font-weight="bold" font-size="12" text-anchor="end" dominant-baseline="middle">particle</text>
  <text x="60" y="485" fill="white" font-family="sans-serif" font-weight="bold" font-size="12" text-anchor="end" dominant-baseline="middle">saddle</text>
  <text x="80" y="80" fill="white" font-family="sans-serif" font-weight="bold" font-size="12" text-anchor="end" dominant-baseline="middle" transform="rotate(90 80 80)">ad-hpp</text>
  <text x="115" y="80" fill="white" font-family="sans-serif" font-weight="bold" font-size="12" text-anchor="end" dominant-baseline="middle" transform="rotate(90 115 80)">adept</text>
  <text x="150" y="80" fill="white" font-family="sans-serif" font-weight="bold" font-size="12" text-anchor="end" dominant-baseline="middle" transform="rotate(90 150 80)">adol-c</text>
  <text x="185" y="80" fill="white" font-family="sans-serif" font-weight="bold" font-size="12" text-anchor="end" dominant-baseline="middle" transform="rotate(90 185 80)">codipack</text>
  <text x="220" y="80" fill="white" font-family="sans-serif" font-weight="bold" font-size="12" text-anchor="end" dominant-baseline="middle" transform="rotate(90 220 80)">cppad</text>
  <text x="255" y="80" fill="white" font-family="sans-serif" font-weight="bold" font-size="12" text-anchor="end" dominant-baseline="middle" transform="rotate(90 255 80)">enzyme</text>
  <text x="290" y="80" fill="white" font-family="sans-serif" font-weight="bold" font-size="12" text-anchor="end" dominant-baseline="middle" transform="rotate(90 290 80)">enzyme-jl</text>
  <text x="325" y="80" fill="white" font-family="sans-serif" font-weight="bold" font-size="12" text-anchor="end" dominant-baseline="middle" transform="rotate(90 325 80)">finite</text>
  <text x="360" y="80" fill="white" font-family="sans-serif" font-weight="bold" font-size="12" text-anchor="end" dominant-baseline="middle" transform="rotate(90 360 80)">floretta</text>
  <text x="395" y="80" fill="white" font-family="sans-serif" font-weight="bold" font-size="12" text-anchor="end" dominant-baseline="middle" transform="rotate(90 395 80)">forwarddiff-jl</text>
  <text x="430" y="80" fill="white" font-family="sans-serif" font-weight="bold" font-size="12" text-anchor="end" dominant-baseline="middle" transform="rotate(90 430 80)">futhark</text>
  <text x="465" y="80" fill="white" font-family="sans-serif" font-weight="bold" font-size="12" text-anchor="end" dominant-baseline="middle" transform="rotate(90 465 80)">haskell</text>
  <text x="500" y="80" fill="white" font-family="sans-serif" font-weight="bold" font-size="12" text-anchor="end" dominant-baseline="middle" transform="rotate(90 500 80)">jax</text>
  <text x="535" y="80" fill="white" font-family="sans-serif" font-weight="bold" font-size="12" text-anchor="end" dominant-baseline="middle" transform="rotate(90 535 80)">manual</text>
  <text x="570" y="80" fill="white" font-family="sans-serif" font-weight="bold" font-size="12" text-anchor="end" dominant-baseline="middle" transform="rotate(90 570 80)">mooncake-jl</text>
  <text x="605" y="80" fill="white" font-family="sans-serif" font-weight="bold" font-size="12" text-anchor="end" dominant-baseline="middle" transform="rotate(90 605 80)">ocaml</text>
  <text x="640" y="80" fill="white" font-family="sans-serif" font-weight="bold" font-size="12" text-anchor="end" dominant-baseline="middle" transform="rotate(90 640 80)">pytorch</text>
  <text x="675" y="80" fill="white" font-family="sans-serif" font-weight="bold" font-size="12" text-anchor="end" dominant-baseline="middle" transform="rotate(90 675 80)">reversediff-jl</text>
  <text x="710" y="80" fill="white" font-family="sans-serif" font-weight="bold" font-size="12" text-anchor="end" dominant-baseline="middle" transform="rotate(90 710 80)">scilean</text>
  <text x="745" y="80" fill="white" font-family="sans-serif" font-weight="bold" font-size="12" text-anchor="end" dominant-baseline="middle" transform="rotate(90 745 80)">tapenade</text>
  <text x="780" y="80" fill="white" font-family="sans-serif" font-weight="bold" font-size="12" text-anchor="end" dominant-baseline="middle" transform="rotate(90 780 80)">tensorflow</text>
  <text x="815" y="80" fill="white" font-family="sans-serif" font-weight="bold" font-size="12" text-anchor="end" dominant-baseline="middle" transform="rotate(90 815 80)">tensorflow-js</text>
  <text x="850" y="80" fill="white" font-family="sans-serif" font-weight="bold" font-size="12" text-anchor="end" dominant-baseline="middle" transform="rotate(90 850 80)">zygote</text>
  <rect x="65" y="85" width="30" height="30" fill="hsl(240 100% 80.80683218443171%)" />
  <rect x="100" y="85" width="30" height="30" fill="hsl(240 100% 82.94269554333326%)" />
  <rect x="135" y="85" width="30" height="30" fill="hsl(240 100% 97.98561193144029%)" />
  <rect x="170" y="85" width="30" height="30" fill="hsl(240 100% 82.35686999512465%)" />
  <rect x="205" y="85" width="30" height="30" fill="hsl(240 100% 98.9998950181348%)" />
  <rect x="240" y="85" width="30" height="30" fill="hsl(240 100% 51.45313860922462%)" />
  <rect x="310" y="85" width="30" height="30" fill="hsl(240 100% 93.24736948123274%)" />
  <rect x="415" y="85" width="30" height="30" fill="hsl(240 100% 68.13377942141148%)" />
  <rect x="520" y="85" width="30" height="30" fill="hsl(240 100% 50%)" />
  <rect x="625" y="85" width="30" height="30" fill="rgb(255 255 255 / 50%)" />
  <rect x="730" y="85" width="30" height="30" fill="hsl(240 100% 74.8802667810098%)" />
  <rect x="765" y="85" width="30" height="30" fill="rgb(255 255 255 / 50%)" />
  <rect x="835" y="85" width="30" height="30" fill="hsl(240 100% 99.73149289718714%)" />
  <rect x="65" y="120" width="30" height="30" fill="hsl(240 100% 50%)" />
  <rect x="100" y="120" width="30" height="30" fill="hsl(240 100% 83.1064746118879%)" />
  <rect x="135" y="120" width="30" height="30" fill="hsl(240 100% 85.8646288011603%)" />
  <rect x="170" y="120" width="30" height="30" fill="hsl(240 100% 52.74141885592832%)" />
  <rect x="205" y="120" width="30" height="30" fill="hsl(240 100% 92.67405643424549%)" />
  <rect x="240" y="120" width="30" height="30" fill="hsl(240 100% 91.50168032906775%)" />
  <rect x="275" y="120" width="30" height="30" fill="hsl(240 100% 99.36529379855668%)" />
  <rect x="310" y="120" width="30" height="30" fill="hsl(240 100% 98.99739442181888%)" />
  <rect x="380" y="120" width="30" height="30" fill="hsl(240 100% 93.33649869465603%)" />
  <rect x="415" y="120" width="30" height="30" fill="hsl(240 100% 94.65121063833229%)" />
  <rect x="450" y="120" width="30" height="30" fill="hsl(240 100% 97.8772594139569%)" />
  <rect x="520" y="120" width="30" height="30" fill="hsl(240 100% 79.99272558329169%)" />
  <rect x="555" y="120" width="30" height="30" fill="hsl(240 100% 93.27094094480995%)" />
  <rect x="660" y="120" width="30" height="30" fill="rgb(255 255 255 / 50%)" />
  <rect x="835" y="120" width="30" height="30" fill="rgb(255 255 255 / 50%)" />
  <rect x="65" y="155" width="30" height="30" fill="hsl(240 100% 98.3818897428882%)" />
  <rect x="100" y="155" width="30" height="30" fill="hsl(240 100% 98.68329805120077%)" />
  <rect x="135" y="155" width="30" height="30" fill="hsl(240 100% 99.01746630601718%)" />
  <rect x="170" y="155" width="30" height="30" fill="hsl(240 100% 97.8651620746742%)" />
  <rect x="205" y="155" width="30" height="30" fill="hsl(240 100% 99.83423955419939%)" />
  <rect x="240" y="155" width="30" height="30" fill="hsl(240 100% 90.16946641677004%)" />
  <rect x="275" y="155" width="30" height="30" fill="hsl(240 100% 92.86821910179346%)" />
  <rect x="310" y="155" width="30" height="30" fill="rgb(255 255 255 / 50%)" />
  <rect x="415" y="155" width="30" height="30" fill="hsl(240 100% 92.22604440708585%)" />
  <rect x="485" y="155" width="30" height="30" fill="hsl(240 100% 50%)" />
  <rect x="520" y="155" width="30" height="30" fill="hsl(240 100% 81.70233362839102%)" />
  <rect x="590" y="155" width="30" height="30" fill="hsl(240 100% 99.5339538272194%)" />
  <rect x="625" y="155" width="30" height="30" fill="hsl(240 100% 61.72714453080052%)" />
  <rect x="695" y="155" width="30" height="30" fill="hsl(240 100% 94.93951210114577%)" />
  <rect x="730" y="155" width="30" height="30" fill="hsl(240 100% 82.33589870171579%)" />
  <rect x="765" y="155" width="30" height="30" fill="hsl(240 100% 99.53760549006412%)" />
  <rect x="835" y="155" width="30" height="30" fill="hsl(240 100% 96.04789496439787%)" />
  <rect x="65" y="190" width="30" height="30" fill="hsl(240 100% 50%)" />
  <rect x="100" y="190" width="30" height="30" fill="hsl(240 100% 50%)" />
  <rect x="135" y="190" width="30" height="30" fill="hsl(240 100% 50%)" />
  <rect x="170" y="190" width="30" height="30" fill="hsl(240 100% 50%)" />
  <rect x="205" y="190" width="30" height="30" fill="hsl(240 100% 50%)" />
  <rect x="240" y="190" width="30" height="30" fill="hsl(240 100% 50%)" />
  <rect x="275" y="190" width="30" height="30" fill="hsl(240 100% 50%)" />
  <rect x="310" y="190" width="30" height="30" fill="hsl(240 100% 50%)" />
  <rect x="345" y="190" width="30" height="30" fill="hsl(240 100% 50%)" />
  <rect x="380" y="190" width="30" height="30" fill="hsl(240 100% 50%)" />
  <rect x="415" y="190" width="30" height="30" fill="hsl(240 100% 50%)" />
  <rect x="450" y="190" width="30" height="30" fill="hsl(240 100% 50%)" />
  <rect x="485" y="190" width="30" height="30" fill="hsl(240 100% 50%)" />
  <rect x="520" y="190" width="30" height="30" fill="hsl(240 100% 50%)" />
  <rect x="555" y="190" width="30" height="30" fill="hsl(240 100% 50%)" />
  <rect x="590" y="190" width="30" height="30" fill="hsl(240 100% 50%)" />
  <rect x="625" y="190" width="30" height="30" fill="hsl(240 100% 50%)" />
  <rect x="660" y="190" width="30" height="30" fill="hsl(240 100% 50%)" />
  <rect x="695" y="190" width="30" height="30" fill="hsl(240 100% 50%)" />
  <rect x="730" y="190" width="30" height="30" fill="hsl(240 100% 50%)" />
  <rect x="765" y="190" width="30" height="30" fill="hsl(240 100% 50%)" />
  <rect x="800" y="190" width="30" height="30" fill="hsl(240 100% 50%)" />
  <rect x="835" y="190" width="30" height="30" fill="hsl(240 100% 50%)" />
  <rect x="100" y="225" width="30" height="30" fill="hsl(240 100% 96.76313661449824%)" />
  <rect x="135" y="225" width="30" height="30" fill="hsl(240 100% 89.37395803350572%)" />
  <rect x="170" y="225" width="30" height="30" fill="hsl(240 100% 89.44867812025765%)" />
  <rect x="240" y="225" width="30" height="30" fill="hsl(240 100% 91.54626795672074%)" />
  <rect x="310" y="225" width="30" height="30" fill="rgb(255 255 255 / 50%)" />
  <rect x="415" y="225" width="30" height="30" fill="hsl(240 100% 90.80116745808239%)" />
  <rect x="520" y="225" width="30" height="30" fill="hsl(240 100% 50%)" />
  <rect x="625" y="225" width="30" height="30" fill="rgb(255 255 255 / 50%)" />
  <rect x="730" y="225" width="30" height="30" fill="hsl(240 100% 93.38516856218294%)" />
  <rect x="765" y="225" width="30" height="30" fill="rgb(255 255 255 / 50%)" />
  <rect x="835" y="225" width="30" height="30" fill="hsl(240 100% 94.56759782896994%)" />
  <rect x="65" y="260" width="30" height="30" fill="hsl(240 100% 99.8830752590977%)" />
  <rect x="135" y="260" width="30" height="30" fill="hsl(240 100% 99.84258471377184%)" />
  <rect x="170" y="260" width="30" height="30" fill="hsl(240 100% 98.8272051878043%)" />
  <rect x="205" y="260" width="30" height="30" fill="rgb(255 255 255 / 50%)" />
  <rect x="240" y="260" width="30" height="30" fill="hsl(240 100% 86.31129449949728%)" />
  <rect x="310" y="260" width="30" height="30" fill="rgb(255 255 255 / 50%)" />
  <rect x="415" y="260" width="30" height="30" fill="hsl(240 100% 79.73967617860087%)" />
  <rect x="450" y="260" width="30" height="30" fill="rgb(255 255 255 / 50%)" />
  <rect x="485" y="260" width="30" height="30" fill="hsl(240 100% 50%)" />
  <rect x="520" y="260" width="30" height="30" fill="hsl(240 100% 69.72631676855339%)" />
  <rect x="625" y="260" width="30" height="30" fill="hsl(240 100% 96.92281213359352%)" />
  <rect x="695" y="260" width="30" height="30" fill="hsl(240 100% 93.8397187517143%)" />
  <rect x="65" y="295" width="30" height="30" fill="hsl(240 100% 86.21489655418864%)" />
  <rect x="100" y="295" width="30" height="30" fill="hsl(240 100% 97.49217195828058%)" />
  <rect x="135" y="295" width="30" height="30" fill="hsl(240 100% 95.15426280469804%)" />
  <rect x="170" y="295" width="30" height="30" fill="hsl(240 100% 90.6357531565459%)" />
  <rect x="205" y="295" width="30" height="30" fill="hsl(240 100% 99.40582868245595%)" />
  <rect x="240" y="295" width="30" height="30" fill="hsl(240 100% 50.35209248454503%)" />
  <rect x="275" y="295" width="30" height="30" fill="hsl(240 100% 50%)" />
  <rect x="310" y="295" width="30" height="30" fill="hsl(240 100% 99.49717791711485%)" />
  <rect x="345" y="295" width="30" height="30" fill="hsl(240 100% 94.6655959372176%)" />
  <rect x="415" y="295" width="30" height="30" fill="hsl(240 100% 55.02744528377054%)" />
  <rect x="450" y="295" width="30" height="30" fill="hsl(240 100% 99.33881331711007%)" />
  <rect x="485" y="295" width="30" height="30" fill="hsl(240 100% 88.39519726614805%)" />
  <rect x="520" y="295" width="30" height="30" fill="hsl(240 100% 57.64571936460336%)" />
  <rect x="695" y="295" width="30" height="30" fill="hsl(240 100% 97.59690462165621%)" />
  <rect x="800" y="295" width="30" height="30" fill="hsl(240 100% 99.5704257981108%)" />
  <rect x="835" y="295" width="30" height="30" fill="hsl(240 100% 99.95721901837808%)" />
  <rect x="65" y="330" width="30" height="30" fill="hsl(240 100% 87.35242398483813%)" />
  <rect x="100" y="330" width="30" height="30" fill="hsl(240 100% 94.14436915037021%)" />
  <rect x="135" y="330" width="30" height="30" fill="hsl(240 100% 96.79995832853163%)" />
  <rect x="170" y="330" width="30" height="30" fill="hsl(240 100% 87.03570226713654%)" />
  <rect x="205" y="330" width="30" height="30" fill="hsl(240 100% 99.10681968106967%)" />
  <rect x="240" y="330" width="30" height="30" fill="hsl(240 100% 77.19128817957537%)" />
  <rect x="275" y="330" width="30" height="30" fill="hsl(240 100% 86.44110657965166%)" />
  <rect x="310" y="330" width="30" height="30" fill="rgb(255 255 255 / 50%)" />
  <rect x="345" y="330" width="30" height="30" fill="hsl(240 100% 97.04866884037021%)" />
  <rect x="415" y="330" width="30" height="30" fill="hsl(240 100% 83.98979822825567%)" />
  <rect x="450" y="330" width="30" height="30" fill="hsl(240 100% 99.78948037856279%)" />
  <rect x="485" y="330" width="30" height="30" fill="hsl(240 100% 67.23967478768549%)" />
  <rect x="520" y="330" width="30" height="30" fill="hsl(240 100% 73.76287624683982%)" />
  <rect x="590" y="330" width="30" height="30" fill="hsl(240 100% 93.06873966222258%)" />
  <rect x="625" y="330" width="30" height="30" fill="hsl(240 100% 50%)" />
  <rect x="765" y="330" width="30" height="30" fill="hsl(240 100% 94.3783427202141%)" />
  <rect x="800" y="330" width="30" height="30" fill="hsl(240 100% 99.13517624945698%)" />
  <rect x="835" y="330" width="30" height="30" fill="hsl(240 100% 78.05033679490674%)" />
  <rect x="65" y="365" width="30" height="30" fill="hsl(240 100% 57.51392934507266%)" />
  <rect x="100" y="365" width="30" height="30" fill="hsl(240 100% 72.08849022075968%)" />
  <rect x="135" y="365" width="30" height="30" fill="hsl(240 100% 82.08478210469728%)" />
  <rect x="170" y="365" width="30" height="30" fill="hsl(240 100% 50%)" />
  <rect x="205" y="365" width="30" height="30" fill="hsl(240 100% 96.26324916055943%)" />
  <rect x="240" y="365" width="30" height="30" fill="hsl(240 100% 59.603277284775416%)" />
  <rect x="275" y="365" width="30" height="30" fill="hsl(240 100% 92.24414302737424%)" />
  <rect x="310" y="365" width="30" height="30" fill="hsl(240 100% 99.86093446763999%)" />
  <rect x="415" y="365" width="30" height="30" fill="hsl(240 100% 66.45606914177922%)" />
  <rect x="520" y="365" width="30" height="30" fill="hsl(240 100% 85.97252312921594%)" />
  <rect x="625" y="365" width="30" height="30" fill="hsl(240 100% 99.63965955751169%)" />
  <rect x="730" y="365" width="30" height="30" fill="hsl(240 100% 63.316329533183456%)" />
  <rect x="765" y="365" width="30" height="30" fill="hsl(240 100% 98.43104664229048%)" />
  <rect x="835" y="365" width="30" height="30" fill="hsl(240 100% 98.72362311359639%)" />
  <rect x="65" y="400" width="30" height="30" fill="hsl(240 100% 98.53226426327953%)" />
  <rect x="100" y="400" width="30" height="30" fill="hsl(240 100% 99.40959640705474%)" />
  <rect x="135" y="400" width="30" height="30" fill="hsl(240 100% 99.67169703383723%)" />
  <rect x="170" y="400" width="30" height="30" fill="hsl(240 100% 95.51478620864765%)" />
  <rect x="205" y="400" width="30" height="30" fill="hsl(240 100% 99.23346538082527%)" />
  <rect x="240" y="400" width="30" height="30" fill="hsl(240 100% 87.18785549220065%)" />
  <rect x="275" y="400" width="30" height="30" fill="hsl(240 100% 95.4069220749319%)" />
  <rect x="310" y="400" width="30" height="30" fill="rgb(255 255 255 / 50%)" />
  <rect x="380" y="400" width="30" height="30" fill="rgb(255 255 255 / 50%)" />
  <rect x="415" y="400" width="30" height="30" fill="hsl(240 100% 94.00406652461778%)" />
  <rect x="450" y="400" width="30" height="30" fill="hsl(240 100% 99.97194295354173%)" />
  <rect x="485" y="400" width="30" height="30" fill="hsl(240 100% 78.40108601957664%)" />
  <rect x="520" y="400" width="30" height="30" fill="hsl(240 100% 50%)" />
  <rect x="555" y="400" width="30" height="30" fill="hsl(240 100% 99.2681236628584%)" />
  <rect x="660" y="400" width="30" height="30" fill="rgb(255 255 255 / 50%)" />
  <rect x="835" y="400" width="30" height="30" fill="hsl(240 100% 99.1063928053546%)" />
  <rect x="65" y="435" width="30" height="30" fill="hsl(240 100% 92.8018989980823%)" />
  <rect x="240" y="435" width="30" height="30" fill="hsl(240 100% 50%)" />
  <rect x="310" y="435" width="30" height="30" fill="hsl(240 100% 94.2913788922205%)" />
  <rect x="415" y="435" width="30" height="30" fill="hsl(240 100% 87.0652539677722%)" />
  <rect x="450" y="435" width="30" height="30" fill="hsl(240 100% 99.78329463695249%)" />
  <rect x="65" y="470" width="30" height="30" fill="hsl(240 100% 50%)" />
  <rect x="240" y="470" width="30" height="30" fill="hsl(240 100% 50.22220242848008%)" />
  <rect x="310" y="470" width="30" height="30" fill="hsl(240 100% 97.1744272137918%)" />
  <rect x="415" y="470" width="30" height="30" fill="hsl(240 100% 89.06290058826802%)" />
  <rect x="450" y="470" width="30" height="30" fill="hsl(240 100% 99.55709356554246%)" />
</svg>
