<svg xmlns="http://www.w3.org/2000/svg" viewBox="0 0 660 470">
  <rect x="0" y="0" width="660" height="470" rx="5" ry="5" fill="#222" />
  <text x="60" y="100" fill="white" font-family="sans-serif" font-weight="bold" font-size="12" text-anchor="end" dominant-baseline="middle">ba</text>
  <text x="60" y="135" fill="white" font-family="sans-serif" font-weight="bold" font-size="12" text-anchor="end" dominant-baseline="middle">det</text>
  <text x="60" y="170" fill="white" font-family="sans-serif" font-weight="bold" font-size="12" text-anchor="end" dominant-baseline="middle">gmm</text>
  <text x="60" y="205" fill="white" font-family="sans-serif" font-weight="bold" font-size="12" text-anchor="end" dominant-baseline="middle">hello</text>
  <text x="60" y="240" fill="white" font-family="sans-serif" font-weight="bold" font-size="12" text-anchor="end" dominant-baseline="middle">ht</text>
  <text x="60" y="275" fill="white" font-family="sans-serif" font-weight="bold" font-size="12" text-anchor="end" dominant-baseline="middle">kmeans</text>
  <text x="60" y="310" fill="white" font-family="sans-serif" font-weight="bold" font-size="12" text-anchor="end" dominant-baseline="middle">llsq</text>
  <text x="60" y="345" fill="white" font-family="sans-serif" font-weight="bold" font-size="12" text-anchor="end" dominant-baseline="middle">lstm</text>
  <text x="60" y="380" fill="white" font-family="sans-serif" font-weight="bold" font-size="12" text-anchor="end" dominant-baseline="middle">ode</text>
  <text x="60" y="415" fill="white" font-family="sans-serif" font-weight="bold" font-size="12" text-anchor="end" dominant-baseline="middle">particle</text>
  <text x="60" y="450" fill="white" font-family="sans-serif" font-weight="bold" font-size="12" text-anchor="end" dominant-baseline="middle">saddle</text>
  <text x="80" y="80" fill="white" font-family="sans-serif" font-weight="bold" font-size="12" text-anchor="end" dominant-baseline="middle" transform="rotate(90 80 80)">adept</text>
  <text x="115" y="80" fill="white" font-family="sans-serif" font-weight="bold" font-size="12" text-anchor="end" dominant-baseline="middle" transform="rotate(90 115 80)">adol-c</text>
  <text x="150" y="80" fill="white" font-family="sans-serif" font-weight="bold" font-size="12" text-anchor="end" dominant-baseline="middle" transform="rotate(90 150 80)">codipack</text>
  <text x="185" y="80" fill="white" font-family="sans-serif" font-weight="bold" font-size="12" text-anchor="end" dominant-baseline="middle" transform="rotate(90 185 80)">cppad</text>
  <text x="220" y="80" fill="white" font-family="sans-serif" font-weight="bold" font-size="12" text-anchor="end" dominant-baseline="middle" transform="rotate(90 220 80)">enzyme</text>
  <text x="255" y="80" fill="white" font-family="sans-serif" font-weight="bold" font-size="12" text-anchor="end" dominant-baseline="middle" transform="rotate(90 255 80)">finite</text>
  <text x="290" y="80" fill="white" font-family="sans-serif" font-weight="bold" font-size="12" text-anchor="end" dominant-baseline="middle" transform="rotate(90 290 80)">floretta</text>
  <text x="325" y="80" fill="white" font-family="sans-serif" font-weight="bold" font-size="12" text-anchor="end" dominant-baseline="middle" transform="rotate(90 325 80)">futhark</text>
  <text x="360" y="80" fill="white" font-family="sans-serif" font-weight="bold" font-size="12" text-anchor="end" dominant-baseline="middle" transform="rotate(90 360 80)">haskell</text>
  <text x="395" y="80" fill="white" font-family="sans-serif" font-weight="bold" font-size="12" text-anchor="end" dominant-baseline="middle" transform="rotate(90 395 80)">jax</text>
  <text x="430" y="80" fill="white" font-family="sans-serif" font-weight="bold" font-size="12" text-anchor="end" dominant-baseline="middle" transform="rotate(90 430 80)">manual</text>
  <text x="465" y="80" fill="white" font-family="sans-serif" font-weight="bold" font-size="12" text-anchor="end" dominant-baseline="middle" transform="rotate(90 465 80)">ocaml</text>
  <text x="500" y="80" fill="white" font-family="sans-serif" font-weight="bold" font-size="12" text-anchor="end" dominant-baseline="middle" transform="rotate(90 500 80)">pytorch</text>
  <text x="535" y="80" fill="white" font-family="sans-serif" font-weight="bold" font-size="12" text-anchor="end" dominant-baseline="middle" transform="rotate(90 535 80)">scilean</text>
  <text x="570" y="80" fill="white" font-family="sans-serif" font-weight="bold" font-size="12" text-anchor="end" dominant-baseline="middle" transform="rotate(90 570 80)">tapenade</text>
  <text x="605" y="80" fill="white" font-family="sans-serif" font-weight="bold" font-size="12" text-anchor="end" dominant-baseline="middle" transform="rotate(90 605 80)">tensorflow</text>
  <text x="640" y="80" fill="white" font-family="sans-serif" font-weight="bold" font-size="12" text-anchor="end" dominant-baseline="middle" transform="rotate(90 640 80)">zygote</text>
  <rect x="65" y="85" width="30" height="30" fill="hsl(240 100% 83.48618535771783%)" />
  <rect x="100" y="85" width="30" height="30" fill="hsl(240 100% 97.84824455267417%)" />
  <rect x="135" y="85" width="30" height="30" fill="hsl(240 100% 89.18949266145985%)" />
  <rect x="205" y="85" width="30" height="30" fill="hsl(240 100% 51.34546325334888%)" />
  <rect x="240" y="85" width="30" height="30" fill="hsl(240 100% 92.68192626726237%)" />
  <rect x="310" y="85" width="30" height="30" fill="hsl(240 100% 68.79076835231312%)" />
  <rect x="415" y="85" width="30" height="30" fill="hsl(240 100% 50%)" />
  <rect x="485" y="85" width="30" height="30" fill="rgb(255 255 255 / 50%)" />
  <rect x="555" y="85" width="30" height="30" fill="hsl(240 100% 72.91460122587105%)" />
  <rect x="590" y="85" width="30" height="30" fill="rgb(255 255 255 / 50%)" />
  <rect x="65" y="120" width="30" height="30" fill="hsl(240 100% 89.30686360630389%)" />
  <rect x="100" y="120" width="30" height="30" fill="hsl(240 100% 90.30796734314096%)" />
  <rect x="135" y="120" width="30" height="30" fill="hsl(240 100% 67.0815624499325%)" />
  <rect x="170" y="120" width="30" height="30" fill="hsl(240 100% 50%)" />
  <rect x="205" y="120" width="30" height="30" fill="hsl(240 100% 94.58371012413316%)" />
  <rect x="240" y="120" width="30" height="30" fill="hsl(240 100% 99.3264239838888%)" />
  <rect x="310" y="120" width="30" height="30" fill="hsl(240 100% 96.47349513273464%)" />
  <rect x="345" y="120" width="30" height="30" fill="hsl(240 100% 98.62449914804942%)" />
  <rect x="415" y="120" width="30" height="30" fill="hsl(240 100% 86.4666967548513%)" />
  <rect x="65" y="155" width="30" height="30" fill="hsl(240 100% 98.39779702531311%)" />
  <rect x="100" y="155" width="30" height="30" fill="hsl(240 100% 98.91789650663125%)" />
  <rect x="135" y="155" width="30" height="30" fill="hsl(240 100% 97.33464096651159%)" />
  <rect x="170" y="155" width="30" height="30" fill="rgb(255 255 255 / 50%)" />
  <rect x="205" y="155" width="30" height="30" fill="hsl(240 100% 87.30982078700663%)" />
  <rect x="240" y="155" width="30" height="30" fill="rgb(255 255 255 / 50%)" />
  <rect x="310" y="155" width="30" height="30" fill="hsl(240 100% 90.38064335417477%)" />
  <rect x="380" y="155" width="30" height="30" fill="hsl(240 100% 71.16749239987188%)" />
  <rect x="415" y="155" width="30" height="30" fill="hsl(240 100% 76.64886577157387%)" />
  <rect x="450" y="155" width="30" height="30" fill="hsl(240 100% 99.3931831299618%)" />
  <rect x="485" y="155" width="30" height="30" fill="hsl(240 100% 50%)" />
  <rect x="520" y="155" width="30" height="30" fill="hsl(240 100% 93.54366468434223%)" />
  <rect x="555" y="155" width="30" height="30" fill="hsl(240 100% 77.35680444126734%)" />
  <rect x="590" y="155" width="30" height="30" fill="hsl(240 100% 90.4720665035892%)" />
  <rect x="65" y="190" width="30" height="30" fill="hsl(240 100% 50%)" />
  <rect x="100" y="190" width="30" height="30" fill="hsl(240 100% 50%)" />
  <rect x="135" y="190" width="30" height="30" fill="hsl(240 100% 50%)" />
  <rect x="170" y="190" width="30" height="30" fill="hsl(240 100% 50%)" />
  <rect x="205" y="190" width="30" height="30" fill="hsl(240 100% 50%)" />
  <rect x="240" y="190" width="30" height="30" fill="hsl(240 100% 50%)" />
  <rect x="275" y="190" width="30" height="30" fill="hsl(240 100% 50%)" />
  <rect x="310" y="190" width="30" height="30" fill="hsl(240 100% 50%)" />
  <rect x="345" y="190" width="30" height="30" fill="hsl(240 100% 50%)" />
  <rect x="380" y="190" width="30" height="30" fill="hsl(240 100% 50%)" />
  <rect x="415" y="190" width="30" height="30" fill="hsl(240 100% 50%)" />
  <rect x="450" y="190" width="30" height="30" fill="hsl(240 100% 50%)" />
  <rect x="485" y="190" width="30" height="30" fill="hsl(240 100% 50%)" />
  <rect x="520" y="190" width="30" height="30" fill="hsl(240 100% 50%)" />
  <rect x="555" y="190" width="30" height="30" fill="hsl(240 100% 50%)" />
  <rect x="590" y="190" width="30" height="30" fill="hsl(240 100% 50%)" />
  <rect x="625" y="190" width="30" height="30" fill="hsl(240 100% 50%)" />
  <rect x="65" y="225" width="30" height="30" fill="hsl(240 100% 96.06182033146065%)" />
  <rect x="100" y="225" width="30" height="30" fill="hsl(240 100% 96.29900201208544%)" />
  <rect x="135" y="225" width="30" height="30" fill="hsl(240 100% 88.24619449965697%)" />
  <rect x="205" y="225" width="30" height="30" fill="hsl(240 100% 89.96767977726111%)" />
  <rect x="240" y="225" width="30" height="30" fill="rgb(255 255 255 / 50%)" />
  <rect x="310" y="225" width="30" height="30" fill="hsl(240 100% 89.46823719433156%)" />
  <rect x="415" y="225" width="30" height="30" fill="hsl(240 100% 50%)" />
  <rect x="485" y="225" width="30" height="30" fill="rgb(255 255 255 / 50%)" />
  <rect x="555" y="225" width="30" height="30" fill="rgb(255 255 255 / 50%)" />
  <rect x="590" y="225" width="30" height="30" fill="rgb(255 255 255 / 50%)" />
  <rect x="100" y="260" width="30" height="30" fill="hsl(240 100% 99.87432064060259%)" />
  <rect x="135" y="260" width="30" height="30" fill="hsl(240 100% 99.41981695334586%)" />
  <rect x="170" y="260" width="30" height="30" fill="rgb(255 255 255 / 50%)" />
  <rect x="205" y="260" width="30" height="30" fill="hsl(240 100% 87.9084958755283%)" />
  <rect x="240" y="260" width="30" height="30" fill="rgb(255 255 255 / 50%)" />
  <rect x="310" y="260" width="30" height="30" fill="hsl(240 100% 82.92838276213817%)" />
  <rect x="345" y="260" width="30" height="30" fill="rgb(255 255 255 / 50%)" />
  <rect x="380" y="260" width="30" height="30" fill="hsl(240 100% 50%)" />
  <rect x="415" y="260" width="30" height="30" fill="hsl(240 100% 76.55616743713078%)" />
  <rect x="485" y="260" width="30" height="30" fill="hsl(240 100% 97.03693962455448%)" />
  <rect x="520" y="260" width="30" height="30" fill="hsl(240 100% 94.21329670764604%)" />
  <rect x="65" y="295" width="30" height="30" fill="hsl(240 100% 66.94794254056862%)" />
  <rect x="100" y="295" width="30" height="30" fill="hsl(240 100% 58.78766126324159%)" />
  <rect x="135" y="295" width="30" height="30" fill="hsl(240 100% 59.21729195269947%)" />
  <rect x="170" y="295" width="30" height="30" fill="hsl(240 100% 57.02206145700955%)" />
  <rect x="205" y="295" width="30" height="30" fill="hsl(240 100% 50%)" />
  <rect x="240" y="295" width="30" height="30" fill="hsl(240 100% 99.42771445649758%)" />
  <rect x="310" y="295" width="30" height="30" fill="hsl(240 100% 50.591454894498675%)" />
  <rect x="345" y="295" width="30" height="30" fill="hsl(240 100% 89.43447210880896%)" />
  <rect x="415" y="295" width="30" height="30" fill="hsl(240 100% 53.7002944385734%)" />
  <rect x="65" y="330" width="30" height="30" fill="hsl(240 100% 68.36612242257424%)" />
  <rect x="100" y="330" width="30" height="30" fill="hsl(240 100% 80.93940849536185%)" />
  <rect x="135" y="330" width="30" height="30" fill="hsl(240 100% 50%)" />
  <rect x="170" y="330" width="30" height="30" fill="hsl(240 100% 89.58968266387703%)" />
  <rect x="205" y="330" width="30" height="30" fill="hsl(240 100% 50.12262164949537%)" />
  <rect x="240" y="330" width="30" height="30" fill="hsl(240 100% 99.84834783371183%)" />
  <rect x="310" y="330" width="30" height="30" fill="hsl(240 100% 63.13437902665677%)" />
  <rect x="415" y="330" width="30" height="30" fill="hsl(240 100% 83.67488940273324%)" />
  <rect x="485" y="330" width="30" height="30" fill="hsl(240 100% 99.59116223832548%)" />
  <rect x="520" y="330" width="30" height="30" fill="hsl(240 100% 89.83277006024646%)" />
  <rect x="555" y="330" width="30" height="30" fill="hsl(240 100% 59.93359406370454%)" />
  <rect x="590" y="330" width="30" height="30" fill="hsl(240 100% 97.97616727805568%)" />
  <rect x="65" y="365" width="30" height="30" fill="hsl(240 100% 99.21630483780994%)" />
  <rect x="100" y="365" width="30" height="30" fill="hsl(240 100% 99.55416229058419%)" />
  <rect x="135" y="365" width="30" height="30" fill="hsl(240 100% 93.68037457251535%)" />
  <rect x="170" y="365" width="30" height="30" fill="hsl(240 100% 55.67113374464911%)" />
  <rect x="205" y="365" width="30" height="30" fill="hsl(240 100% 85.05922068889723%)" />
  <rect x="240" y="365" width="30" height="30" fill="rgb(255 255 255 / 50%)" />
  <rect x="310" y="365" width="30" height="30" fill="hsl(240 100% 95.37650123056945%)" />
  <rect x="345" y="365" width="30" height="30" fill="hsl(240 100% 99.96518278758147%)" />
  <rect x="415" y="365" width="30" height="30" fill="hsl(240 100% 50%)" />
  <rect x="205" y="400" width="30" height="30" fill="hsl(240 100% 50%)" />
  <rect x="240" y="400" width="30" height="30" fill="hsl(240 100% 95.18251101360725%)" />
  <rect x="310" y="400" width="30" height="30" fill="hsl(240 100% 87.94257351152513%)" />
  <rect x="345" y="400" width="30" height="30" fill="hsl(240 100% 99.78354911587729%)" />
  <rect x="205" y="435" width="30" height="30" fill="hsl(240 100% 50%)" />
  <rect x="240" y="435" width="30" height="30" fill="hsl(240 100% 95.82571340980508%)" />
  <rect x="310" y="435" width="30" height="30" fill="hsl(240 100% 89.05635884008217%)" />
  <rect x="345" y="435" width="30" height="30" fill="hsl(240 100% 99.60703362294109%)" />
</svg>
