<svg xmlns="http://www.w3.org/2000/svg" viewBox="0 0 870 505">
  <rect x="0" y="0" width="870" height="505" rx="5" ry="5" fill="#222" />
  <text x="60" y="100" fill="white" font-family="sans-serif" font-weight="bold" font-size="12" text-anchor="end" dominant-baseline="middle">ba</text>
  <text x="60" y="135" fill="white" font-family="sans-serif" font-weight="bold" font-size="12" text-anchor="end" dominant-baseline="middle">det</text>
  <text x="60" y="170" fill="white" font-family="sans-serif" font-weight="bold" font-size="12" text-anchor="end" dominant-baseline="middle">gmm</text>
  <text x="60" y="205" fill="white" font-family="sans-serif" font-weight="bold" font-size="12" text-anchor="end" dominant-baseline="middle">hello</text>
  <text x="60" y="240" fill="white" font-family="sans-serif" font-weight="bold" font-size="12" text-anchor="end" dominant-baseline="middle">ht</text>
  <text x="60" y="275" fill="white" font-family="sans-serif" font-weight="bold" font-size="12" text-anchor="end" dominant-baseline="middle">kmeans</text>
  <text x="60" y="310" fill="white" font-family="sans-serif" font-weight="bold" font-size="12" text-anchor="end" dominant-baseline="middle">llsq</text>
  <text x="60" y="345" fill="white" font-family="sans-serif" font-weight="bold" font-size="12" text-anchor="end" dominant-baseline="middle">lse</text>
  <text x="60" y="380" fill="white" font-family="sans-serif" font-weight="bold" font-size="12" text-anchor="end" dominant-baseline="middle">lstm</text>
  <text x="60" y="415" fill="white" font-family="sans-serif" font-weight="bold" font-size="12" text-anchor="end" dominant-baseline="middle">ode</text>
  <text x="60" y="450" fill="white" font-family="sans-serif" font-weight="bold" font-size="12" text-anchor="end" dominant-baseline="middle">particle</text>
  <text x="60" y="485" fill="white" font-family="sans-serif" font-weight="bold" font-size="12" text-anchor="end" dominant-baseline="middle">saddle</text>
  <text x="80" y="80" fill="white" font-family="sans-serif" font-weight="bold" font-size="12" text-anchor="end" dominant-baseline="middle" transform="rotate(90 80 80)">ad-hpp</text>
  <text x="115" y="80" fill="white" font-family="sans-serif" font-weight="bold" font-size="12" text-anchor="end" dominant-baseline="middle" transform="rotate(90 115 80)">adept</text>
  <text x="150" y="80" fill="white" font-family="sans-serif" font-weight="bold" font-size="12" text-anchor="end" dominant-baseline="middle" transform="rotate(90 150 80)">adol-c</text>
  <text x="185" y="80" fill="white" font-family="sans-serif" font-weight="bold" font-size="12" text-anchor="end" dominant-baseline="middle" transform="rotate(90 185 80)">codipack</text>
  <text x="220" y="80" fill="white" font-family="sans-serif" font-weight="bold" font-size="12" text-anchor="end" dominant-baseline="middle" transform="rotate(90 220 80)">cppad</text>
  <text x="255" y="80" fill="white" font-family="sans-serif" font-weight="bold" font-size="12" text-anchor="end" dominant-baseline="middle" transform="rotate(90 255 80)">enzyme</text>
  <text x="290" y="80" fill="white" font-family="sans-serif" font-weight="bold" font-size="12" text-anchor="end" dominant-baseline="middle" transform="rotate(90 290 80)">enzyme-jl</text>
  <text x="325" y="80" fill="white" font-family="sans-serif" font-weight="bold" font-size="12" text-anchor="end" dominant-baseline="middle" transform="rotate(90 325 80)">finite</text>
  <text x="360" y="80" fill="white" font-family="sans-serif" font-weight="bold" font-size="12" text-anchor="end" dominant-baseline="middle" transform="rotate(90 360 80)">floretta</text>
  <text x="395" y="80" fill="white" font-family="sans-serif" font-weight="bold" font-size="12" text-anchor="end" dominant-baseline="middle" transform="rotate(90 395 80)">forwarddiff-jl</text>
  <text x="430" y="80" fill="white" font-family="sans-serif" font-weight="bold" font-size="12" text-anchor="end" dominant-baseline="middle" transform="rotate(90 430 80)">futhark</text>
  <text x="465" y="80" fill="white" font-family="sans-serif" font-weight="bold" font-size="12" text-anchor="end" dominant-baseline="middle" transform="rotate(90 465 80)">haskell</text>
  <text x="500" y="80" fill="white" font-family="sans-serif" font-weight="bold" font-size="12" text-anchor="end" dominant-baseline="middle" transform="rotate(90 500 80)">jax</text>
  <text x="535" y="80" fill="white" font-family="sans-serif" font-weight="bold" font-size="12" text-anchor="end" dominant-baseline="middle" transform="rotate(90 535 80)">manual</text>
  <text x="570" y="80" fill="white" font-family="sans-serif" font-weight="bold" font-size="12" text-anchor="end" dominant-baseline="middle" transform="rotate(90 570 80)">mooncake-jl</text>
  <text x="605" y="80" fill="white" font-family="sans-serif" font-weight="bold" font-size="12" text-anchor="end" dominant-baseline="middle" transform="rotate(90 605 80)">ocaml</text>
  <text x="640" y="80" fill="white" font-family="sans-serif" font-weight="bold" font-size="12" text-anchor="end" dominant-baseline="middle" transform="rotate(90 640 80)">pytorch</text>
  <text x="675" y="80" fill="white" font-family="sans-serif" font-weight="bold" font-size="12" text-anchor="end" dominant-baseline="middle" transform="rotate(90 675 80)">reversediff-jl</text>
  <text x="710" y="80" fill="white" font-family="sans-serif" font-weight="bold" font-size="12" text-anchor="end" dominant-baseline="middle" transform="rotate(90 710 80)">scilean</text>
  <text x="745" y="80" fill="white" font-family="sans-serif" font-weight="bold" font-size="12" text-anchor="end" dominant-baseline="middle" transform="rotate(90 745 80)">tapenade</text>
  <text x="780" y="80" fill="white" font-family="sans-serif" font-weight="bold" font-size="12" text-anchor="end" dominant-baseline="middle" transform="rotate(90 780 80)">tensorflow</text>
  <text x="815" y="80" fill="white" font-family="sans-serif" font-weight="bold" font-size="12" text-anchor="end" dominant-baseline="middle" transform="rotate(90 815 80)">tensorflow-js</text>
  <text x="850" y="80" fill="white" font-family="sans-serif" font-weight="bold" font-size="12" text-anchor="end" dominant-baseline="middle" transform="rotate(90 850 80)">zygote</text>
  <rect x="65" y="85" width="30" height="30" fill="hsl(240 100% 80.84884430803878%)" />
  <rect x="100" y="85" width="30" height="30" fill="hsl(240 100% 83.08169137513715%)" />
  <rect x="135" y="85" width="30" height="30" fill="hsl(240 100% 97.97483984550304%)" />
  <rect x="170" y="85" width="30" height="30" fill="hsl(240 100% 82.33179032136735%)" />
  <rect x="205" y="85" width="30" height="30" fill="hsl(240 100% 99.00167290893611%)" />
  <rect x="240" y="85" width="30" height="30" fill="hsl(240 100% 51.61770744270549%)" />
  <rect x="310" y="85" width="30" height="30" fill="hsl(240 100% 93.24892319442623%)" />
  <rect x="415" y="85" width="30" height="30" fill="hsl(240 100% 68.13817640227552%)" />
  <rect x="520" y="85" width="30" height="30" fill="hsl(240 100% 50%)" />
  <rect x="625" y="85" width="30" height="30" fill="rgb(255 255 255 / 50%)" />
  <rect x="730" y="85" width="30" height="30" fill="hsl(240 100% 74.7647995261729%)" />
  <rect x="765" y="85" width="30" height="30" fill="rgb(255 255 255 / 50%)" />
  <rect x="835" y="85" width="30" height="30" fill="hsl(240 100% 99.73685062873325%)" />
  <rect x="65" y="120" width="30" height="30" fill="hsl(240 100% 50%)" />
  <rect x="100" y="120" width="30" height="30" fill="hsl(240 100% 82.28199813711716%)" />
  <rect x="135" y="120" width="30" height="30" fill="hsl(240 100% 85.69814707254795%)" />
  <rect x="170" y="120" width="30" height="30" fill="hsl(240 100% 51.55941080464335%)" />
  <rect x="205" y="120" width="30" height="30" fill="hsl(240 100% 92.4498860357989%)" />
  <rect x="240" y="120" width="30" height="30" fill="hsl(240 100% 91.39108254721549%)" />
  <rect x="275" y="120" width="30" height="30" fill="hsl(240 100% 99.3371452833979%)" />
  <rect x="310" y="120" width="30" height="30" fill="hsl(240 100% 98.97209405859215%)" />
  <rect x="380" y="120" width="30" height="30" fill="hsl(240 100% 93.33583927229851%)" />
  <rect x="415" y="120" width="30" height="30" fill="hsl(240 100% 94.53685638317776%)" />
  <rect x="450" y="120" width="30" height="30" fill="hsl(240 100% 97.85464706822007%)" />
  <rect x="520" y="120" width="30" height="30" fill="hsl(240 100% 79.40486399201696%)" />
  <rect x="555" y="120" width="30" height="30" fill="hsl(240 100% 89.92554355178291%)" />
  <rect x="660" y="120" width="30" height="30" fill="rgb(255 255 255 / 50%)" />
  <rect x="835" y="120" width="30" height="30" fill="rgb(255 255 255 / 50%)" />
  <rect x="65" y="155" width="30" height="30" fill="hsl(240 100% 98.34196514816689%)" />
  <rect x="100" y="155" width="30" height="30" fill="hsl(240 100% 98.76594879308628%)" />
  <rect x="135" y="155" width="30" height="30" fill="hsl(240 100% 99.1060701614161%)" />
  <rect x="170" y="155" width="30" height="30" fill="hsl(240 100% 97.99665443600249%)" />
  <rect x="205" y="155" width="30" height="30" fill="hsl(240 100% 99.84741539047357%)" />
  <rect x="240" y="155" width="30" height="30" fill="hsl(240 100% 90.96179198560158%)" />
  <rect x="275" y="155" width="30" height="30" fill="hsl(240 100% 92.89588966795246%)" />
  <rect x="310" y="155" width="30" height="30" fill="rgb(255 255 255 / 50%)" />
  <rect x="415" y="155" width="30" height="30" fill="hsl(240 100% 92.92826383486754%)" />
  <rect x="485" y="155" width="30" height="30" fill="hsl(240 100% 50%)" />
  <rect x="520" y="155" width="30" height="30" fill="hsl(240 100% 83.17389316102077%)" />
  <rect x="590" y="155" width="30" height="30" fill="hsl(240 100% 99.57566594421836%)" />
  <rect x="625" y="155" width="30" height="30" fill="hsl(240 100% 66.43788873117676%)" />
  <rect x="695" y="155" width="30" height="30" fill="hsl(240 100% 95.36947676198808%)" />
  <rect x="730" y="155" width="30" height="30" fill="hsl(240 100% 83.46617280142917%)" />
  <rect x="765" y="155" width="30" height="30" fill="hsl(240 100% 99.5621992476971%)" />
  <rect x="835" y="155" width="30" height="30" fill="hsl(240 100% 96.29449658873347%)" />
  <rect x="65" y="190" width="30" height="30" fill="hsl(240 100% 50%)" />
  <rect x="100" y="190" width="30" height="30" fill="hsl(240 100% 50%)" />
  <rect x="135" y="190" width="30" height="30" fill="hsl(240 100% 50%)" />
  <rect x="170" y="190" width="30" height="30" fill="hsl(240 100% 50%)" />
  <rect x="205" y="190" width="30" height="30" fill="hsl(240 100% 50%)" />
  <rect x="240" y="190" width="30" height="30" fill="hsl(240 100% 50%)" />
  <rect x="275" y="190" width="30" height="30" fill="hsl(240 100% 50%)" />
  <rect x="310" y="190" width="30" height="30" fill="hsl(240 100% 50%)" />
  <rect x="345" y="190" width="30" height="30" fill="hsl(240 100% 50%)" />
  <rect x="380" y="190" width="30" height="30" fill="hsl(240 100% 50%)" />
  <rect x="415" y="190" width="30" height="30" fill="hsl(240 100% 50%)" />
  <rect x="450" y="190" width="30" height="30" fill="hsl(240 100% 50%)" />
  <rect x="485" y="190" width="30" height="30" fill="hsl(240 100% 50%)" />
  <rect x="520" y="190" width="30" height="30" fill="hsl(240 100% 50%)" />
  <rect x="555" y="190" width="30" height="30" fill="hsl(240 100% 50%)" />
  <rect x="590" y="190" width="30" height="30" fill="hsl(240 100% 50%)" />
  <rect x="625" y="190" width="30" height="30" fill="hsl(240 100% 50%)" />
  <rect x="660" y="190" width="30" height="30" fill="hsl(240 100% 50%)" />
  <rect x="695" y="190" width="30" height="30" fill="hsl(240 100% 50%)" />
  <rect x="730" y="190" width="30" height="30" fill="hsl(240 100% 50%)" />
  <rect x="765" y="190" width="30" height="30" fill="hsl(240 100% 50%)" />
  <rect x="800" y="190" width="30" height="30" fill="hsl(240 100% 50%)" />
  <rect x="835" y="190" width="30" height="30" fill="hsl(240 100% 50%)" />
  <rect x="100" y="225" width="30" height="30" fill="hsl(240 100% 96.66587789477178%)" />
  <rect x="135" y="225" width="30" height="30" fill="hsl(240 100% 89.43324726941364%)" />
  <rect x="170" y="225" width="30" height="30" fill="hsl(240 100% 89.53343966018562%)" />
  <rect x="240" y="225" width="30" height="30" fill="hsl(240 100% 91.20359945247527%)" />
  <rect x="310" y="225" width="30" height="30" fill="rgb(255 255 255 / 50%)" />
  <rect x="415" y="225" width="30" height="30" fill="hsl(240 100% 90.63133514663177%)" />
  <rect x="520" y="225" width="30" height="30" fill="hsl(240 100% 50%)" />
  <rect x="625" y="225" width="30" height="30" fill="rgb(255 255 255 / 50%)" />
  <rect x="730" y="225" width="30" height="30" fill="hsl(240 100% 93.1250294138469%)" />
  <rect x="765" y="225" width="30" height="30" fill="rgb(255 255 255 / 50%)" />
  <rect x="835" y="225" width="30" height="30" fill="hsl(240 100% 93.94038369338979%)" />
  <rect x="65" y="260" width="30" height="30" fill="hsl(240 100% 99.87062728491574%)" />
  <rect x="135" y="260" width="30" height="30" fill="hsl(240 100% 99.85308421937582%)" />
  <rect x="170" y="260" width="30" height="30" fill="hsl(240 100% 98.8534470285217%)" />
  <rect x="205" y="260" width="30" height="30" fill="rgb(255 255 255 / 50%)" />
  <rect x="240" y="260" width="30" height="30" fill="hsl(240 100% 87.13518595854056%)" />
  <rect x="310" y="260" width="30" height="30" fill="rgb(255 255 255 / 50%)" />
  <rect x="415" y="260" width="30" height="30" fill="hsl(240 100% 80.52776466504889%)" />
  <rect x="450" y="260" width="30" height="30" fill="rgb(255 255 255 / 50%)" />
  <rect x="485" y="260" width="30" height="30" fill="hsl(240 100% 50%)" />
  <rect x="520" y="260" width="30" height="30" fill="hsl(240 100% 72.30304746960374%)" />
  <rect x="625" y="260" width="30" height="30" fill="hsl(240 100% 96.95322454119002%)" />
  <rect x="695" y="260" width="30" height="30" fill="hsl(240 100% 94.06755250386826%)" />
  <rect x="65" y="295" width="30" height="30" fill="hsl(240 100% 85.99030604596122%)" />
  <rect x="100" y="295" width="30" height="30" fill="hsl(240 100% 97.52535821854462%)" />
  <rect x="135" y="295" width="30" height="30" fill="hsl(240 100% 95.20368163499398%)" />
  <rect x="170" y="295" width="30" height="30" fill="hsl(240 100% 90.66848748279097%)" />
  <rect x="205" y="295" width="30" height="30" fill="hsl(240 100% 99.46604583452773%)" />
  <rect x="240" y="295" width="30" height="30" fill="hsl(240 100% 50.57853231385008%)" />
  <rect x="275" y="295" width="30" height="30" fill="hsl(240 100% 50%)" />
  <rect x="310" y="295" width="30" height="30" fill="hsl(240 100% 99.49906216094386%)" />
  <rect x="345" y="295" width="30" height="30" fill="hsl(240 100% 94.72329924608201%)" />
  <rect x="415" y="295" width="30" height="30" fill="hsl(240 100% 55.195330641584704%)" />
  <rect x="450" y="295" width="30" height="30" fill="hsl(240 100% 99.34881428913255%)" />
  <rect x="485" y="295" width="30" height="30" fill="hsl(240 100% 88.21087260240613%)" />
  <rect x="520" y="295" width="30" height="30" fill="hsl(240 100% 57.831802080048945%)" />
  <rect x="695" y="295" width="30" height="30" fill="hsl(240 100% 97.60592932421787%)" />
  <rect x="800" y="295" width="30" height="30" fill="hsl(240 100% 99.57029906851423%)" />
  <rect x="835" y="295" width="30" height="30" fill="hsl(240 100% 99.95582037205502%)" />
  <rect x="65" y="330" width="30" height="30" fill="hsl(240 100% 87.12276130768632%)" />
  <rect x="100" y="330" width="30" height="30" fill="hsl(240 100% 94.12783484124233%)" />
  <rect x="135" y="330" width="30" height="30" fill="hsl(240 100% 96.75274805302124%)" />
  <rect x="170" y="330" width="30" height="30" fill="hsl(240 100% 86.97867460351465%)" />
  <rect x="205" y="330" width="30" height="30" fill="hsl(240 100% 99.08620142733562%)" />
  <rect x="240" y="330" width="30" height="30" fill="hsl(240 100% 76.93869949909495%)" />
  <rect x="275" y="330" width="30" height="30" fill="hsl(240 100% 85.75263142525938%)" />
  <rect x="310" y="330" width="30" height="30" fill="rgb(255 255 255 / 50%)" />
  <rect x="345" y="330" width="30" height="30" fill="hsl(240 100% 96.89618570019196%)" />
  <rect x="415" y="330" width="30" height="30" fill="hsl(240 100% 84.00266690617718%)" />
  <rect x="450" y="330" width="30" height="30" fill="hsl(240 100% 99.78116770274167%)" />
  <rect x="485" y="330" width="30" height="30" fill="hsl(240 100% 67.91774035332224%)" />
  <rect x="520" y="330" width="30" height="30" fill="hsl(240 100% 73.66408069462643%)" />
  <rect x="590" y="330" width="30" height="30" fill="hsl(240 100% 92.88623788943309%)" />
  <rect x="625" y="330" width="30" height="30" fill="hsl(240 100% 50%)" />
  <rect x="765" y="330" width="30" height="30" fill="hsl(240 100% 93.48467797857438%)" />
  <rect x="800" y="330" width="30" height="30" fill="hsl(240 100% 99.10387115160414%)" />
  <rect x="835" y="330" width="30" height="30" fill="hsl(240 100% 78.19819148046362%)" />
  <rect x="65" y="365" width="30" height="30" fill="hsl(240 100% 57.13029140706997%)" />
  <rect x="100" y="365" width="30" height="30" fill="hsl(240 100% 71.58695102231925%)" />
  <rect x="135" y="365" width="30" height="30" fill="hsl(240 100% 82.18623377845901%)" />
  <rect x="170" y="365" width="30" height="30" fill="hsl(240 100% 50%)" />
  <rect x="205" y="365" width="30" height="30" fill="hsl(240 100% 96.25324287791985%)" />
  <rect x="240" y="365" width="30" height="30" fill="hsl(240 100% 59.76311075602142%)" />
  <rect x="275" y="365" width="30" height="30" fill="hsl(240 100% 92.62311137643971%)" />
  <rect x="310" y="365" width="30" height="30" fill="hsl(240 100% 99.86055379972062%)" />
  <rect x="415" y="365" width="30" height="30" fill="hsl(240 100% 66.59212021141906%)" />
  <rect x="520" y="365" width="30" height="30" fill="hsl(240 100% 85.88864802565512%)" />
  <rect x="625" y="365" width="30" height="30" fill="hsl(240 100% 99.64155295778515%)" />
  <rect x="730" y="365" width="30" height="30" fill="hsl(240 100% 63.350896916536%)" />
  <rect x="765" y="365" width="30" height="30" fill="hsl(240 100% 98.13851382096001%)" />
  <rect x="835" y="365" width="30" height="30" fill="hsl(240 100% 98.7699488384263%)" />
  <rect x="65" y="400" width="30" height="30" fill="hsl(240 100% 98.18185152821498%)" />
  <rect x="100" y="400" width="30" height="30" fill="hsl(240 100% 99.40695363876283%)" />
  <rect x="135" y="400" width="30" height="30" fill="hsl(240 100% 99.67679267829078%)" />
  <rect x="170" y="400" width="30" height="30" fill="hsl(240 100% 95.31618659898328%)" />
  <rect x="205" y="400" width="30" height="30" fill="hsl(240 100% 99.23431807159133%)" />
  <rect x="240" y="400" width="30" height="30" fill="hsl(240 100% 88.20312498532371%)" />
  <rect x="275" y="400" width="30" height="30" fill="hsl(240 100% 95.34838304095422%)" />
  <rect x="310" y="400" width="30" height="30" fill="rgb(255 255 255 / 50%)" />
  <rect x="380" y="400" width="30" height="30" fill="rgb(255 255 255 / 50%)" />
  <rect x="415" y="400" width="30" height="30" fill="hsl(240 100% 94.04429075771823%)" />
  <rect x="450" y="400" width="30" height="30" fill="hsl(240 100% 99.97444307975091%)" />
  <rect x="485" y="400" width="30" height="30" fill="hsl(240 100% 78.38573180131834%)" />
  <rect x="520" y="400" width="30" height="30" fill="hsl(240 100% 50%)" />
  <rect x="555" y="400" width="30" height="30" fill="hsl(240 100% 99.21235647670217%)" />
  <rect x="660" y="400" width="30" height="30" fill="rgb(255 255 255 / 50%)" />
  <rect x="835" y="400" width="30" height="30" fill="hsl(240 100% 99.20551066647924%)" />
  <rect x="65" y="435" width="30" height="30" fill="hsl(240 100% 92.8421502928986%)" />
  <rect x="240" y="435" width="30" height="30" fill="hsl(240 100% 50%)" />
  <rect x="310" y="435" width="30" height="30" fill="hsl(240 100% 94.33311392168638%)" />
  <rect x="415" y="435" width="30" height="30" fill="hsl(240 100% 87.00688668385835%)" />
  <rect x="450" y="435" width="30" height="30" fill="hsl(240 100% 99.77393666463274%)" />
  <rect x="65" y="470" width="30" height="30" fill="hsl(240 100% 50%)" />
  <rect x="240" y="470" width="30" height="30" fill="hsl(240 100% 50.45005605917012%)" />
  <rect x="310" y="470" width="30" height="30" fill="hsl(240 100% 97.16675231407272%)" />
  <rect x="415" y="470" width="30" height="30" fill="hsl(240 100% 89.10672929714683%)" />
  <rect x="450" y="470" width="30" height="30" fill="hsl(240 100% 99.56694584316473%)" />
</svg>
