<svg xmlns="http://www.w3.org/2000/svg" viewBox="0 0 730 505">
  <rect x="0" y="0" width="730" height="505" rx="5" ry="5" fill="#222" />
  <text x="60" y="100" fill="white" font-family="sans-serif" font-weight="bold" font-size="12" text-anchor="end" dominant-baseline="middle">ba</text>
  <text x="60" y="135" fill="white" font-family="sans-serif" font-weight="bold" font-size="12" text-anchor="end" dominant-baseline="middle">det</text>
  <text x="60" y="170" fill="white" font-family="sans-serif" font-weight="bold" font-size="12" text-anchor="end" dominant-baseline="middle">gmm</text>
  <text x="60" y="205" fill="white" font-family="sans-serif" font-weight="bold" font-size="12" text-anchor="end" dominant-baseline="middle">hello</text>
  <text x="60" y="240" fill="white" font-family="sans-serif" font-weight="bold" font-size="12" text-anchor="end" dominant-baseline="middle">ht</text>
  <text x="60" y="275" fill="white" font-family="sans-serif" font-weight="bold" font-size="12" text-anchor="end" dominant-baseline="middle">kmeans</text>
  <text x="60" y="310" fill="white" font-family="sans-serif" font-weight="bold" font-size="12" text-anchor="end" dominant-baseline="middle">llsq</text>
  <text x="60" y="345" fill="white" font-family="sans-serif" font-weight="bold" font-size="12" text-anchor="end" dominant-baseline="middle">lse</text>
  <text x="60" y="380" fill="white" font-family="sans-serif" font-weight="bold" font-size="12" text-anchor="end" dominant-baseline="middle">lstm</text>
  <text x="60" y="415" fill="white" font-family="sans-serif" font-weight="bold" font-size="12" text-anchor="end" dominant-baseline="middle">ode</text>
  <text x="60" y="450" fill="white" font-family="sans-serif" font-weight="bold" font-size="12" text-anchor="end" dominant-baseline="middle">particle</text>
  <text x="60" y="485" fill="white" font-family="sans-serif" font-weight="bold" font-size="12" text-anchor="end" dominant-baseline="middle">saddle</text>
  <text x="80" y="80" fill="white" font-family="sans-serif" font-weight="bold" font-size="12" text-anchor="end" dominant-baseline="middle" transform="rotate(90 80 80)">ad-hpp</text>
  <text x="115" y="80" fill="white" font-family="sans-serif" font-weight="bold" font-size="12" text-anchor="end" dominant-baseline="middle" transform="rotate(90 115 80)">adept</text>
  <text x="150" y="80" fill="white" font-family="sans-serif" font-weight="bold" font-size="12" text-anchor="end" dominant-baseline="middle" transform="rotate(90 150 80)">adol-c</text>
  <text x="185" y="80" fill="white" font-family="sans-serif" font-weight="bold" font-size="12" text-anchor="end" dominant-baseline="middle" transform="rotate(90 185 80)">codipack</text>
  <text x="220" y="80" fill="white" font-family="sans-serif" font-weight="bold" font-size="12" text-anchor="end" dominant-baseline="middle" transform="rotate(90 220 80)">cppad</text>
  <text x="255" y="80" fill="white" font-family="sans-serif" font-weight="bold" font-size="12" text-anchor="end" dominant-baseline="middle" transform="rotate(90 255 80)">enzyme</text>
  <text x="290" y="80" fill="white" font-family="sans-serif" font-weight="bold" font-size="12" text-anchor="end" dominant-baseline="middle" transform="rotate(90 290 80)">enzyme-jl</text>
  <text x="325" y="80" fill="white" font-family="sans-serif" font-weight="bold" font-size="12" text-anchor="end" dominant-baseline="middle" transform="rotate(90 325 80)">finite</text>
  <text x="360" y="80" fill="white" font-family="sans-serif" font-weight="bold" font-size="12" text-anchor="end" dominant-baseline="middle" transform="rotate(90 360 80)">floretta</text>
  <text x="395" y="80" fill="white" font-family="sans-serif" font-weight="bold" font-size="12" text-anchor="end" dominant-baseline="middle" transform="rotate(90 395 80)">futhark</text>
  <text x="430" y="80" fill="white" font-family="sans-serif" font-weight="bold" font-size="12" text-anchor="end" dominant-baseline="middle" transform="rotate(90 430 80)">haskell</text>
  <text x="465" y="80" fill="white" font-family="sans-serif" font-weight="bold" font-size="12" text-anchor="end" dominant-baseline="middle" transform="rotate(90 465 80)">jax</text>
  <text x="500" y="80" fill="white" font-family="sans-serif" font-weight="bold" font-size="12" text-anchor="end" dominant-baseline="middle" transform="rotate(90 500 80)">manual</text>
  <text x="535" y="80" fill="white" font-family="sans-serif" font-weight="bold" font-size="12" text-anchor="end" dominant-baseline="middle" transform="rotate(90 535 80)">ocaml</text>
  <text x="570" y="80" fill="white" font-family="sans-serif" font-weight="bold" font-size="12" text-anchor="end" dominant-baseline="middle" transform="rotate(90 570 80)">pytorch</text>
  <text x="605" y="80" fill="white" font-family="sans-serif" font-weight="bold" font-size="12" text-anchor="end" dominant-baseline="middle" transform="rotate(90 605 80)">scilean</text>
  <text x="640" y="80" fill="white" font-family="sans-serif" font-weight="bold" font-size="12" text-anchor="end" dominant-baseline="middle" transform="rotate(90 640 80)">tapenade</text>
  <text x="675" y="80" fill="white" font-family="sans-serif" font-weight="bold" font-size="12" text-anchor="end" dominant-baseline="middle" transform="rotate(90 675 80)">tensorflow</text>
  <text x="710" y="80" fill="white" font-family="sans-serif" font-weight="bold" font-size="12" text-anchor="end" dominant-baseline="middle" transform="rotate(90 710 80)">zygote</text>
  <rect x="65" y="85" width="30" height="30" fill="hsl(240 100% 78.1064630753433%)" />
  <rect x="100" y="85" width="30" height="30" fill="hsl(240 100% 83.19041692380375%)" />
  <rect x="135" y="85" width="30" height="30" fill="hsl(240 100% 97.8021379700996%)" />
  <rect x="170" y="85" width="30" height="30" fill="hsl(240 100% 88.77868080836937%)" />
  <rect x="205" y="85" width="30" height="30" fill="hsl(240 100% 98.87684852767963%)" />
  <rect x="240" y="85" width="30" height="30" fill="hsl(240 100% 50%)" />
  <rect x="310" y="85" width="30" height="30" fill="hsl(240 100% 92.52056145105689%)" />
  <rect x="380" y="85" width="30" height="30" fill="hsl(240 100% 67.95422800071157%)" />
  <rect x="485" y="85" width="30" height="30" fill="hsl(240 100% 51.391938908954714%)" />
  <rect x="555" y="85" width="30" height="30" fill="rgb(255 255 255 / 50%)" />
  <rect x="625" y="85" width="30" height="30" fill="hsl(240 100% 73.04454152420806%)" />
  <rect x="660" y="85" width="30" height="30" fill="rgb(255 255 255 / 50%)" />
  <rect x="695" y="85" width="30" height="30" fill="hsl(240 100% 99.69763555600089%)" />
  <rect x="65" y="120" width="30" height="30" fill="hsl(240 100% 50%)" />
  <rect x="100" y="120" width="30" height="30" fill="hsl(240 100% 84.59317108200601%)" />
  <rect x="135" y="120" width="30" height="30" fill="hsl(240 100% 85.11323989025978%)" />
  <rect x="170" y="120" width="30" height="30" fill="hsl(240 100% 50.85466938963872%)" />
  <rect x="205" y="120" width="30" height="30" fill="hsl(240 100% 92.83581967928068%)" />
  <rect x="240" y="120" width="30" height="30" fill="hsl(240 100% 92.0283036061943%)" />
  <rect x="275" y="120" width="30" height="30" fill="hsl(240 100% 99.17590374481762%)" />
  <rect x="310" y="120" width="30" height="30" fill="hsl(240 100% 99.0241748096543%)" />
  <rect x="380" y="120" width="30" height="30" fill="hsl(240 100% 94.78763529486325%)" />
  <rect x="415" y="120" width="30" height="30" fill="hsl(240 100% 97.94989869308799%)" />
  <rect x="485" y="120" width="30" height="30" fill="hsl(240 100% 79.96789749048862%)" />
  <rect x="695" y="120" width="30" height="30" fill="rgb(255 255 255 / 50%)" />
  <rect x="65" y="155" width="30" height="30" fill="hsl(240 100% 97.1938715125468%)" />
  <rect x="100" y="155" width="30" height="30" fill="hsl(240 100% 98.33715599675301%)" />
  <rect x="135" y="155" width="30" height="30" fill="hsl(240 100% 98.8941172098637%)" />
  <rect x="170" y="155" width="30" height="30" fill="hsl(240 100% 97.28221363559346%)" />
  <rect x="205" y="155" width="30" height="30" fill="hsl(240 100% 99.77505057668196%)" />
  <rect x="240" y="155" width="30" height="30" fill="hsl(240 100% 87.09296315616946%)" />
  <rect x="275" y="155" width="30" height="30" fill="hsl(240 100% 99.82945897441832%)" />
  <rect x="310" y="155" width="30" height="30" fill="rgb(255 255 255 / 50%)" />
  <rect x="380" y="155" width="30" height="30" fill="hsl(240 100% 90.15490369842465%)" />
  <rect x="450" y="155" width="30" height="30" fill="hsl(240 100% 68.91301127065407%)" />
  <rect x="485" y="155" width="30" height="30" fill="hsl(240 100% 75.75525189428457%)" />
  <rect x="520" y="155" width="30" height="30" fill="hsl(240 100% 99.3601742436088%)" />
  <rect x="555" y="155" width="30" height="30" fill="hsl(240 100% 50%)" />
  <rect x="590" y="155" width="30" height="30" fill="hsl(240 100% 92.4583845722645%)" />
  <rect x="625" y="155" width="30" height="30" fill="hsl(240 100% 76.51467445932198%)" />
  <rect x="660" y="155" width="30" height="30" fill="hsl(240 100% 88.96918028648695%)" />
  <rect x="695" y="155" width="30" height="30" fill="hsl(240 100% 99.33104701685153%)" />
  <rect x="65" y="190" width="30" height="30" fill="hsl(240 100% 50%)" />
  <rect x="100" y="190" width="30" height="30" fill="hsl(240 100% 50%)" />
  <rect x="135" y="190" width="30" height="30" fill="hsl(240 100% 50%)" />
  <rect x="170" y="190" width="30" height="30" fill="hsl(240 100% 50%)" />
  <rect x="205" y="190" width="30" height="30" fill="hsl(240 100% 50%)" />
  <rect x="240" y="190" width="30" height="30" fill="hsl(240 100% 50%)" />
  <rect x="275" y="190" width="30" height="30" fill="hsl(240 100% 50%)" />
  <rect x="310" y="190" width="30" height="30" fill="hsl(240 100% 50%)" />
  <rect x="345" y="190" width="30" height="30" fill="hsl(240 100% 50%)" />
  <rect x="380" y="190" width="30" height="30" fill="hsl(240 100% 50%)" />
  <rect x="415" y="190" width="30" height="30" fill="hsl(240 100% 50%)" />
  <rect x="450" y="190" width="30" height="30" fill="hsl(240 100% 50%)" />
  <rect x="485" y="190" width="30" height="30" fill="hsl(240 100% 50%)" />
  <rect x="520" y="190" width="30" height="30" fill="hsl(240 100% 50%)" />
  <rect x="555" y="190" width="30" height="30" fill="hsl(240 100% 50%)" />
  <rect x="590" y="190" width="30" height="30" fill="hsl(240 100% 50%)" />
  <rect x="625" y="190" width="30" height="30" fill="hsl(240 100% 50%)" />
  <rect x="660" y="190" width="30" height="30" fill="hsl(240 100% 50%)" />
  <rect x="695" y="190" width="30" height="30" fill="hsl(240 100% 50%)" />
  <rect x="100" y="225" width="30" height="30" fill="hsl(240 100% 95.90831965505808%)" />
  <rect x="135" y="225" width="30" height="30" fill="hsl(240 100% 89.73090459060107%)" />
  <rect x="170" y="225" width="30" height="30" fill="hsl(240 100% 87.9333035592287%)" />
  <rect x="240" y="225" width="30" height="30" fill="hsl(240 100% 89.97160923992539%)" />
  <rect x="310" y="225" width="30" height="30" fill="rgb(255 255 255 / 50%)" />
  <rect x="380" y="225" width="30" height="30" fill="hsl(240 100% 89.33730082567583%)" />
  <rect x="485" y="225" width="30" height="30" fill="hsl(240 100% 50%)" />
  <rect x="555" y="225" width="30" height="30" fill="rgb(255 255 255 / 50%)" />
  <rect x="625" y="225" width="30" height="30" fill="rgb(255 255 255 / 50%)" />
  <rect x="660" y="225" width="30" height="30" fill="rgb(255 255 255 / 50%)" />
  <rect x="695" y="225" width="30" height="30" fill="hsl(240 100% 99.40795326539924%)" />
  <rect x="135" y="260" width="30" height="30" fill="hsl(240 100% 99.89704023936652%)" />
  <rect x="170" y="260" width="30" height="30" fill="hsl(240 100% 99.35661320326604%)" />
  <rect x="205" y="260" width="30" height="30" fill="rgb(255 255 255 / 50%)" />
  <rect x="240" y="260" width="30" height="30" fill="hsl(240 100% 87.9271167579677%)" />
  <rect x="310" y="260" width="30" height="30" fill="rgb(255 255 255 / 50%)" />
  <rect x="380" y="260" width="30" height="30" fill="hsl(240 100% 83.01897151210373%)" />
  <rect x="415" y="260" width="30" height="30" fill="rgb(255 255 255 / 50%)" />
  <rect x="450" y="260" width="30" height="30" fill="hsl(240 100% 50%)" />
  <rect x="485" y="260" width="30" height="30" fill="hsl(240 100% 76.76964497725072%)" />
  <rect x="555" y="260" width="30" height="30" fill="hsl(240 100% 96.95333759259364%)" />
  <rect x="590" y="260" width="30" height="30" fill="hsl(240 100% 94.23247399198235%)" />
  <rect x="65" y="295" width="30" height="30" fill="hsl(240 100% 55.41731816584575%)" />
  <rect x="100" y="295" width="30" height="30" fill="hsl(240 100% 66.69733939381828%)" />
  <rect x="135" y="295" width="30" height="30" fill="hsl(240 100% 59.77846608546131%)" />
  <rect x="170" y="295" width="30" height="30" fill="hsl(240 100% 60.03692109786605%)" />
  <rect x="205" y="295" width="30" height="30" fill="hsl(240 100% 91.2090004948926%)" />
  <rect x="240" y="295" width="30" height="30" fill="hsl(240 100% 50%)" />
  <rect x="275" y="295" width="30" height="30" fill="hsl(240 100% 98.81695336274434%)" />
  <rect x="310" y="295" width="30" height="30" fill="hsl(240 100% 99.43002389416017%)" />
  <rect x="380" y="295" width="30" height="30" fill="hsl(240 100% 55.553060313702865%)" />
  <rect x="415" y="295" width="30" height="30" fill="hsl(240 100% 89.77742669792994%)" />
  <rect x="485" y="295" width="30" height="30" fill="hsl(240 100% 53.5198551396749%)" />
  <rect x="590" y="295" width="30" height="30" fill="hsl(240 100% 55.391851543230175%)" />
  <rect x="695" y="295" width="30" height="30" fill="hsl(240 100% 99.72347949189832%)" />
  <rect x="65" y="330" width="30" height="30" fill="hsl(240 100% 88.21725383973885%)" />
  <rect x="100" y="330" width="30" height="30" fill="hsl(240 100% 94.12351699253173%)" />
  <rect x="135" y="330" width="30" height="30" fill="hsl(240 100% 96.97905113706605%)" />
  <rect x="170" y="330" width="30" height="30" fill="hsl(240 100% 88.35921837996335%)" />
  <rect x="205" y="330" width="30" height="30" fill="hsl(240 100% 99.14283019907742%)" />
  <rect x="240" y="330" width="30" height="30" fill="hsl(240 100% 79.83162070340828%)" />
  <rect x="275" y="330" width="30" height="30" fill="hsl(240 100% 99.81620176776244%)" />
  <rect x="310" y="330" width="30" height="30" fill="rgb(255 255 255 / 50%)" />
  <rect x="380" y="330" width="30" height="30" fill="hsl(240 100% 84.51886451586773%)" />
  <rect x="415" y="330" width="30" height="30" fill="hsl(240 100% 99.80082155065143%)" />
  <rect x="450" y="330" width="30" height="30" fill="hsl(240 100% 69.72282945877801%)" />
  <rect x="485" y="330" width="30" height="30" fill="hsl(240 100% 76.73513009618573%)" />
  <rect x="520" y="330" width="30" height="30" fill="hsl(240 100% 93.21786077345138%)" />
  <rect x="555" y="330" width="30" height="30" fill="hsl(240 100% 50%)" />
  <rect x="660" y="330" width="30" height="30" fill="hsl(240 100% 88.33179820488228%)" />
  <rect x="695" y="330" width="30" height="30" fill="hsl(240 100% 94.70996654247689%)" />
  <rect x="65" y="365" width="30" height="30" fill="hsl(240 100% 52.77678011180401%)" />
  <rect x="100" y="365" width="30" height="30" fill="hsl(240 100% 68.80617006379508%)" />
  <rect x="135" y="365" width="30" height="30" fill="hsl(240 100% 80.4007714531371%)" />
  <rect x="170" y="365" width="30" height="30" fill="hsl(240 100% 50%)" />
  <rect x="205" y="365" width="30" height="30" fill="hsl(240 100% 95.80786469435722%)" />
  <rect x="240" y="365" width="30" height="30" fill="hsl(240 100% 50.008710394499225%)" />
  <rect x="275" y="365" width="30" height="30" fill="hsl(240 100% 98.88055495510102%)" />
  <rect x="310" y="365" width="30" height="30" fill="hsl(240 100% 99.85158742958332%)" />
  <rect x="380" y="365" width="30" height="30" fill="hsl(240 100% 62.96197945505806%)" />
  <rect x="485" y="365" width="30" height="30" fill="hsl(240 100% 84.66770796385202%)" />
  <rect x="555" y="365" width="30" height="30" fill="hsl(240 100% 99.59327617264321%)" />
  <rect x="625" y="365" width="30" height="30" fill="hsl(240 100% 59.817140337519206%)" />
  <rect x="660" y="365" width="30" height="30" fill="hsl(240 100% 97.98103476504602%)" />
  <rect x="695" y="365" width="30" height="30" fill="hsl(240 100% 99.08000280601111%)" />
  <rect x="65" y="400" width="30" height="30" fill="hsl(240 100% 97.47711586009255%)" />
  <rect x="100" y="400" width="30" height="30" fill="hsl(240 100% 99.23010437693986%)" />
  <rect x="135" y="400" width="30" height="30" fill="hsl(240 100% 99.56722110171289%)" />
  <rect x="170" y="400" width="30" height="30" fill="hsl(240 100% 93.59191573200172%)" />
  <rect x="205" y="400" width="30" height="30" fill="hsl(240 100% 98.98195874365518%)" />
  <rect x="240" y="400" width="30" height="30" fill="hsl(240 100% 85.05068484674345%)" />
  <rect x="275" y="400" width="30" height="30" fill="hsl(240 100% 99.01147531302537%)" />
  <rect x="310" y="400" width="30" height="30" fill="rgb(255 255 255 / 50%)" />
  <rect x="380" y="400" width="30" height="30" fill="hsl(240 100% 95.375179225159%)" />
  <rect x="415" y="400" width="30" height="30" fill="hsl(240 100% 99.96892046298271%)" />
  <rect x="485" y="400" width="30" height="30" fill="hsl(240 100% 50%)" />
  <rect x="695" y="400" width="30" height="30" fill="hsl(240 100% 99.60818852770164%)" />
  <rect x="240" y="435" width="30" height="30" fill="hsl(240 100% 50%)" />
  <rect x="310" y="435" width="30" height="30" fill="hsl(240 100% 95.21835047248472%)" />
  <rect x="380" y="435" width="30" height="30" fill="hsl(240 100% 88.10002930784275%)" />
  <rect x="415" y="435" width="30" height="30" fill="hsl(240 100% 99.77183942733066%)" />
  <rect x="240" y="470" width="30" height="30" fill="hsl(240 100% 50%)" />
  <rect x="310" y="470" width="30" height="30" fill="hsl(240 100% 95.84124559749583%)" />
  <rect x="380" y="470" width="30" height="30" fill="hsl(240 100% 89.21710778672804%)" />
  <rect x="415" y="470" width="30" height="30" fill="hsl(240 100% 99.56711749242275%)" />
</svg>
