<svg xmlns="http://www.w3.org/2000/svg" viewBox="0 0 660 470">
  <rect x="0" y="0" width="660" height="470" rx="5" ry="5" fill="#222" />
  <text x="60" y="100" fill="white" font-family="sans-serif" font-weight="bold" font-size="12" text-anchor="end" dominant-baseline="middle">ba</text>
  <text x="60" y="135" fill="white" font-family="sans-serif" font-weight="bold" font-size="12" text-anchor="end" dominant-baseline="middle">det</text>
  <text x="60" y="170" fill="white" font-family="sans-serif" font-weight="bold" font-size="12" text-anchor="end" dominant-baseline="middle">gmm</text>
  <text x="60" y="205" fill="white" font-family="sans-serif" font-weight="bold" font-size="12" text-anchor="end" dominant-baseline="middle">hello</text>
  <text x="60" y="240" fill="white" font-family="sans-serif" font-weight="bold" font-size="12" text-anchor="end" dominant-baseline="middle">ht</text>
  <text x="60" y="275" fill="white" font-family="sans-serif" font-weight="bold" font-size="12" text-anchor="end" dominant-baseline="middle">kmeans</text>
  <text x="60" y="310" fill="white" font-family="sans-serif" font-weight="bold" font-size="12" text-anchor="end" dominant-baseline="middle">llsq</text>
  <text x="60" y="345" fill="white" font-family="sans-serif" font-weight="bold" font-size="12" text-anchor="end" dominant-baseline="middle">lstm</text>
  <text x="60" y="380" fill="white" font-family="sans-serif" font-weight="bold" font-size="12" text-anchor="end" dominant-baseline="middle">ode</text>
  <text x="60" y="415" fill="white" font-family="sans-serif" font-weight="bold" font-size="12" text-anchor="end" dominant-baseline="middle">particle</text>
  <text x="60" y="450" fill="white" font-family="sans-serif" font-weight="bold" font-size="12" text-anchor="end" dominant-baseline="middle">saddle</text>
  <text x="80" y="80" fill="white" font-family="sans-serif" font-weight="bold" font-size="12" text-anchor="end" dominant-baseline="middle" transform="rotate(90 80 80)">adept</text>
  <text x="115" y="80" fill="white" font-family="sans-serif" font-weight="bold" font-size="12" text-anchor="end" dominant-baseline="middle" transform="rotate(90 115 80)">adol-c</text>
  <text x="150" y="80" fill="white" font-family="sans-serif" font-weight="bold" font-size="12" text-anchor="end" dominant-baseline="middle" transform="rotate(90 150 80)">codipack</text>
  <text x="185" y="80" fill="white" font-family="sans-serif" font-weight="bold" font-size="12" text-anchor="end" dominant-baseline="middle" transform="rotate(90 185 80)">cppad</text>
  <text x="220" y="80" fill="white" font-family="sans-serif" font-weight="bold" font-size="12" text-anchor="end" dominant-baseline="middle" transform="rotate(90 220 80)">enzyme</text>
  <text x="255" y="80" fill="white" font-family="sans-serif" font-weight="bold" font-size="12" text-anchor="end" dominant-baseline="middle" transform="rotate(90 255 80)">finite</text>
  <text x="290" y="80" fill="white" font-family="sans-serif" font-weight="bold" font-size="12" text-anchor="end" dominant-baseline="middle" transform="rotate(90 290 80)">floretta</text>
  <text x="325" y="80" fill="white" font-family="sans-serif" font-weight="bold" font-size="12" text-anchor="end" dominant-baseline="middle" transform="rotate(90 325 80)">futhark</text>
  <text x="360" y="80" fill="white" font-family="sans-serif" font-weight="bold" font-size="12" text-anchor="end" dominant-baseline="middle" transform="rotate(90 360 80)">haskell</text>
  <text x="395" y="80" fill="white" font-family="sans-serif" font-weight="bold" font-size="12" text-anchor="end" dominant-baseline="middle" transform="rotate(90 395 80)">jax</text>
  <text x="430" y="80" fill="white" font-family="sans-serif" font-weight="bold" font-size="12" text-anchor="end" dominant-baseline="middle" transform="rotate(90 430 80)">manual</text>
  <text x="465" y="80" fill="white" font-family="sans-serif" font-weight="bold" font-size="12" text-anchor="end" dominant-baseline="middle" transform="rotate(90 465 80)">ocaml</text>
  <text x="500" y="80" fill="white" font-family="sans-serif" font-weight="bold" font-size="12" text-anchor="end" dominant-baseline="middle" transform="rotate(90 500 80)">pytorch</text>
  <text x="535" y="80" fill="white" font-family="sans-serif" font-weight="bold" font-size="12" text-anchor="end" dominant-baseline="middle" transform="rotate(90 535 80)">scilean</text>
  <text x="570" y="80" fill="white" font-family="sans-serif" font-weight="bold" font-size="12" text-anchor="end" dominant-baseline="middle" transform="rotate(90 570 80)">tapenade</text>
  <text x="605" y="80" fill="white" font-family="sans-serif" font-weight="bold" font-size="12" text-anchor="end" dominant-baseline="middle" transform="rotate(90 605 80)">tensorflow</text>
  <text x="640" y="80" fill="white" font-family="sans-serif" font-weight="bold" font-size="12" text-anchor="end" dominant-baseline="middle" transform="rotate(90 640 80)">zygote</text>
  <rect x="65" y="85" width="30" height="30" fill="hsl(240 100% 83.4600854705077%)" />
  <rect x="100" y="85" width="30" height="30" fill="hsl(240 100% 97.80242212661955%)" />
  <rect x="135" y="85" width="30" height="30" fill="hsl(240 100% 89.03112275418324%)" />
  <rect x="205" y="85" width="30" height="30" fill="hsl(240 100% 50.840552005483666%)" />
  <rect x="240" y="85" width="30" height="30" fill="hsl(240 100% 92.62111879566734%)" />
  <rect x="310" y="85" width="30" height="30" fill="hsl(240 100% 68.47020299454172%)" />
  <rect x="415" y="85" width="30" height="30" fill="hsl(240 100% 50%)" />
  <rect x="485" y="85" width="30" height="30" fill="rgb(255 255 255 / 50%)" />
  <rect x="555" y="85" width="30" height="30" fill="hsl(240 100% 72.52756835476836%)" />
  <rect x="590" y="85" width="30" height="30" fill="rgb(255 255 255 / 50%)" />
  <rect x="65" y="120" width="30" height="30" fill="hsl(240 100% 83.82024540076327%)" />
  <rect x="100" y="120" width="30" height="30" fill="hsl(240 100% 85.28981743360116%)" />
  <rect x="135" y="120" width="30" height="30" fill="hsl(240 100% 50%)" />
  <rect x="170" y="120" width="30" height="30" fill="hsl(240 100% 92.67825840270464%)" />
  <rect x="205" y="120" width="30" height="30" fill="hsl(240 100% 91.55252364155722%)" />
  <rect x="240" y="120" width="30" height="30" fill="hsl(240 100% 98.97796656772465%)" />
  <rect x="310" y="120" width="30" height="30" fill="hsl(240 100% 94.6956312329404%)" />
  <rect x="345" y="120" width="30" height="30" fill="hsl(240 100% 97.91001525462241%)" />
  <rect x="415" y="120" width="30" height="30" fill="hsl(240 100% 79.63902430756247%)" />
  <rect x="65" y="155" width="30" height="30" fill="hsl(240 100% 98.30206060585027%)" />
  <rect x="100" y="155" width="30" height="30" fill="hsl(240 100% 98.8989775833126%)" />
  <rect x="135" y="155" width="30" height="30" fill="hsl(240 100% 97.27898353275785%)" />
  <rect x="170" y="155" width="30" height="30" fill="hsl(240 100% 99.77493395738313%)" />
  <rect x="205" y="155" width="30" height="30" fill="hsl(240 100% 87.16540736903873%)" />
  <rect x="240" y="155" width="30" height="30" fill="rgb(255 255 255 / 50%)" />
  <rect x="310" y="155" width="30" height="30" fill="hsl(240 100% 90.05670080649185%)" />
  <rect x="380" y="155" width="30" height="30" fill="hsl(240 100% 71.37849408215237%)" />
  <rect x="415" y="155" width="30" height="30" fill="hsl(240 100% 75.54071993368412%)" />
  <rect x="450" y="155" width="30" height="30" fill="hsl(240 100% 99.36543719820314%)" />
  <rect x="485" y="155" width="30" height="30" fill="hsl(240 100% 50%)" />
  <rect x="520" y="155" width="30" height="30" fill="hsl(240 100% 92.87535046738786%)" />
  <rect x="555" y="155" width="30" height="30" fill="hsl(240 100% 76.63015376514161%)" />
  <rect x="590" y="155" width="30" height="30" fill="hsl(240 100% 89.24215041759608%)" />
  <rect x="65" y="190" width="30" height="30" fill="hsl(240 100% 50%)" />
  <rect x="100" y="190" width="30" height="30" fill="hsl(240 100% 50%)" />
  <rect x="135" y="190" width="30" height="30" fill="hsl(240 100% 50%)" />
  <rect x="170" y="190" width="30" height="30" fill="hsl(240 100% 50%)" />
  <rect x="205" y="190" width="30" height="30" fill="hsl(240 100% 50%)" />
  <rect x="240" y="190" width="30" height="30" fill="hsl(240 100% 50%)" />
  <rect x="275" y="190" width="30" height="30" fill="hsl(240 100% 50%)" />
  <rect x="310" y="190" width="30" height="30" fill="hsl(240 100% 50%)" />
  <rect x="345" y="190" width="30" height="30" fill="hsl(240 100% 50%)" />
  <rect x="380" y="190" width="30" height="30" fill="hsl(240 100% 50%)" />
  <rect x="415" y="190" width="30" height="30" fill="hsl(240 100% 50%)" />
  <rect x="450" y="190" width="30" height="30" fill="hsl(240 100% 50%)" />
  <rect x="485" y="190" width="30" height="30" fill="hsl(240 100% 50%)" />
  <rect x="520" y="190" width="30" height="30" fill="hsl(240 100% 50%)" />
  <rect x="555" y="190" width="30" height="30" fill="hsl(240 100% 50%)" />
  <rect x="590" y="190" width="30" height="30" fill="hsl(240 100% 50%)" />
  <rect x="625" y="190" width="30" height="30" fill="hsl(240 100% 50%)" />
  <rect x="65" y="225" width="30" height="30" fill="hsl(240 100% 95.96901218569056%)" />
  <rect x="100" y="225" width="30" height="30" fill="hsl(240 100% 89.93236469430877%)" />
  <rect x="135" y="225" width="30" height="30" fill="hsl(240 100% 88.20914399096816%)" />
  <rect x="205" y="225" width="30" height="30" fill="hsl(240 100% 90.1422968206797%)" />
  <rect x="240" y="225" width="30" height="30" fill="rgb(255 255 255 / 50%)" />
  <rect x="310" y="225" width="30" height="30" fill="hsl(240 100% 89.46192841852253%)" />
  <rect x="415" y="225" width="30" height="30" fill="hsl(240 100% 50%)" />
  <rect x="485" y="225" width="30" height="30" fill="rgb(255 255 255 / 50%)" />
  <rect x="555" y="225" width="30" height="30" fill="rgb(255 255 255 / 50%)" />
  <rect x="590" y="225" width="30" height="30" fill="rgb(255 255 255 / 50%)" />
  <rect x="100" y="260" width="30" height="30" fill="hsl(240 100% 99.87473275082635%)" />
  <rect x="135" y="260" width="30" height="30" fill="hsl(240 100% 99.41367458665293%)" />
  <rect x="170" y="260" width="30" height="30" fill="rgb(255 255 255 / 50%)" />
  <rect x="205" y="260" width="30" height="30" fill="hsl(240 100% 87.8793115215781%)" />
  <rect x="240" y="260" width="30" height="30" fill="rgb(255 255 255 / 50%)" />
  <rect x="310" y="260" width="30" height="30" fill="hsl(240 100% 83.09531472730384%)" />
  <rect x="345" y="260" width="30" height="30" fill="rgb(255 255 255 / 50%)" />
  <rect x="380" y="260" width="30" height="30" fill="hsl(240 100% 50%)" />
  <rect x="415" y="260" width="30" height="30" fill="hsl(240 100% 76.51044111623037%)" />
  <rect x="485" y="260" width="30" height="30" fill="hsl(240 100% 96.93025163595253%)" />
  <rect x="520" y="260" width="30" height="30" fill="hsl(240 100% 94.10906636444359%)" />
  <rect x="65" y="295" width="30" height="30" fill="hsl(240 100% 66.29972876044968%)" />
  <rect x="100" y="295" width="30" height="30" fill="hsl(240 100% 59.95477813559301%)" />
  <rect x="135" y="295" width="30" height="30" fill="hsl(240 100% 60.04505990521736%)" />
  <rect x="170" y="295" width="30" height="30" fill="hsl(240 100% 91.67437651687408%)" />
  <rect x="205" y="295" width="30" height="30" fill="hsl(240 100% 50%)" />
  <rect x="240" y="295" width="30" height="30" fill="hsl(240 100% 99.42757540362679%)" />
  <rect x="310" y="295" width="30" height="30" fill="hsl(240 100% 50.64298592394973%)" />
  <rect x="345" y="295" width="30" height="30" fill="hsl(240 100% 89.78777765705402%)" />
  <rect x="415" y="295" width="30" height="30" fill="hsl(240 100% 53.5537952671384%)" />
  <rect x="520" y="295" width="30" height="30" fill="hsl(240 100% 55.30690562669745%)" />
  <rect x="65" y="330" width="30" height="30" fill="hsl(240 100% 68.32931847975695%)" />
  <rect x="100" y="330" width="30" height="30" fill="hsl(240 100% 81.2383845764689%)" />
  <rect x="135" y="330" width="30" height="30" fill="hsl(240 100% 50%)" />
  <rect x="170" y="330" width="30" height="30" fill="hsl(240 100% 95.83150023753666%)" />
  <rect x="205" y="330" width="30" height="30" fill="hsl(240 100% 50.353798932107516%)" />
  <rect x="240" y="330" width="30" height="30" fill="hsl(240 100% 99.85217618279773%)" />
  <rect x="310" y="330" width="30" height="30" fill="hsl(240 100% 63.217630950210676%)" />
  <rect x="415" y="330" width="30" height="30" fill="hsl(240 100% 84.54939453360551%)" />
  <rect x="485" y="330" width="30" height="30" fill="hsl(240 100% 99.59717474473617%)" />
  <rect x="555" y="330" width="30" height="30" fill="hsl(240 100% 60.594580773334286%)" />
  <rect x="590" y="330" width="30" height="30" fill="hsl(240 100% 97.96259138778788%)" />
  <rect x="65" y="365" width="30" height="30" fill="hsl(240 100% 99.24353969514537%)" />
  <rect x="100" y="365" width="30" height="30" fill="hsl(240 100% 99.56946326558652%)" />
  <rect x="135" y="365" width="30" height="30" fill="hsl(240 100% 93.6771738983758%)" />
  <rect x="170" y="365" width="30" height="30" fill="hsl(240 100% 98.98352270146654%)" />
  <rect x="205" y="365" width="30" height="30" fill="hsl(240 100% 85.14636630102251%)" />
  <rect x="240" y="365" width="30" height="30" fill="rgb(255 255 255 / 50%)" />
  <rect x="310" y="365" width="30" height="30" fill="hsl(240 100% 95.37503325419902%)" />
  <rect x="345" y="365" width="30" height="30" fill="hsl(240 100% 99.96498165533622%)" />
  <rect x="415" y="365" width="30" height="30" fill="hsl(240 100% 50%)" />
  <rect x="205" y="400" width="30" height="30" fill="hsl(240 100% 50%)" />
  <rect x="240" y="400" width="30" height="30" fill="hsl(240 100% 95.19840366359384%)" />
  <rect x="310" y="400" width="30" height="30" fill="hsl(240 100% 87.9225651928152%)" />
  <rect x="345" y="400" width="30" height="30" fill="hsl(240 100% 99.77481904713174%)" />
  <rect x="205" y="435" width="30" height="30" fill="hsl(240 100% 50%)" />
  <rect x="240" y="435" width="30" height="30" fill="hsl(240 100% 95.82424600556203%)" />
  <rect x="310" y="435" width="30" height="30" fill="hsl(240 100% 89.05861767255684%)" />
  <rect x="345" y="435" width="30" height="30" fill="hsl(240 100% 99.56326193720307%)" />
</svg>
