<svg xmlns="http://www.w3.org/2000/svg" viewBox="0 0 730 505">
  <rect x="0" y="0" width="730" height="505" rx="5" ry="5" fill="#222" />
  <text x="60" y="100" fill="white" font-family="sans-serif" font-weight="bold" font-size="12" text-anchor="end" dominant-baseline="middle">ba</text>
  <text x="60" y="135" fill="white" font-family="sans-serif" font-weight="bold" font-size="12" text-anchor="end" dominant-baseline="middle">det</text>
  <text x="60" y="170" fill="white" font-family="sans-serif" font-weight="bold" font-size="12" text-anchor="end" dominant-baseline="middle">gmm</text>
  <text x="60" y="205" fill="white" font-family="sans-serif" font-weight="bold" font-size="12" text-anchor="end" dominant-baseline="middle">hello</text>
  <text x="60" y="240" fill="white" font-family="sans-serif" font-weight="bold" font-size="12" text-anchor="end" dominant-baseline="middle">ht</text>
  <text x="60" y="275" fill="white" font-family="sans-serif" font-weight="bold" font-size="12" text-anchor="end" dominant-baseline="middle">kmeans</text>
  <text x="60" y="310" fill="white" font-family="sans-serif" font-weight="bold" font-size="12" text-anchor="end" dominant-baseline="middle">llsq</text>
  <text x="60" y="345" fill="white" font-family="sans-serif" font-weight="bold" font-size="12" text-anchor="end" dominant-baseline="middle">lse</text>
  <text x="60" y="380" fill="white" font-family="sans-serif" font-weight="bold" font-size="12" text-anchor="end" dominant-baseline="middle">lstm</text>
  <text x="60" y="415" fill="white" font-family="sans-serif" font-weight="bold" font-size="12" text-anchor="end" dominant-baseline="middle">ode</text>
  <text x="60" y="450" fill="white" font-family="sans-serif" font-weight="bold" font-size="12" text-anchor="end" dominant-baseline="middle">particle</text>
  <text x="60" y="485" fill="white" font-family="sans-serif" font-weight="bold" font-size="12" text-anchor="end" dominant-baseline="middle">saddle</text>
  <text x="80" y="80" fill="white" font-family="sans-serif" font-weight="bold" font-size="12" text-anchor="end" dominant-baseline="middle" transform="rotate(90 80 80)">ad-hpp</text>
  <text x="115" y="80" fill="white" font-family="sans-serif" font-weight="bold" font-size="12" text-anchor="end" dominant-baseline="middle" transform="rotate(90 115 80)">adept</text>
  <text x="150" y="80" fill="white" font-family="sans-serif" font-weight="bold" font-size="12" text-anchor="end" dominant-baseline="middle" transform="rotate(90 150 80)">adol-c</text>
  <text x="185" y="80" fill="white" font-family="sans-serif" font-weight="bold" font-size="12" text-anchor="end" dominant-baseline="middle" transform="rotate(90 185 80)">codipack</text>
  <text x="220" y="80" fill="white" font-family="sans-serif" font-weight="bold" font-size="12" text-anchor="end" dominant-baseline="middle" transform="rotate(90 220 80)">cppad</text>
  <text x="255" y="80" fill="white" font-family="sans-serif" font-weight="bold" font-size="12" text-anchor="end" dominant-baseline="middle" transform="rotate(90 255 80)">enzyme</text>
  <text x="290" y="80" fill="white" font-family="sans-serif" font-weight="bold" font-size="12" text-anchor="end" dominant-baseline="middle" transform="rotate(90 290 80)">enzyme-jl</text>
  <text x="325" y="80" fill="white" font-family="sans-serif" font-weight="bold" font-size="12" text-anchor="end" dominant-baseline="middle" transform="rotate(90 325 80)">finite</text>
  <text x="360" y="80" fill="white" font-family="sans-serif" font-weight="bold" font-size="12" text-anchor="end" dominant-baseline="middle" transform="rotate(90 360 80)">floretta</text>
  <text x="395" y="80" fill="white" font-family="sans-serif" font-weight="bold" font-size="12" text-anchor="end" dominant-baseline="middle" transform="rotate(90 395 80)">futhark</text>
  <text x="430" y="80" fill="white" font-family="sans-serif" font-weight="bold" font-size="12" text-anchor="end" dominant-baseline="middle" transform="rotate(90 430 80)">haskell</text>
  <text x="465" y="80" fill="white" font-family="sans-serif" font-weight="bold" font-size="12" text-anchor="end" dominant-baseline="middle" transform="rotate(90 465 80)">jax</text>
  <text x="500" y="80" fill="white" font-family="sans-serif" font-weight="bold" font-size="12" text-anchor="end" dominant-baseline="middle" transform="rotate(90 500 80)">manual</text>
  <text x="535" y="80" fill="white" font-family="sans-serif" font-weight="bold" font-size="12" text-anchor="end" dominant-baseline="middle" transform="rotate(90 535 80)">ocaml</text>
  <text x="570" y="80" fill="white" font-family="sans-serif" font-weight="bold" font-size="12" text-anchor="end" dominant-baseline="middle" transform="rotate(90 570 80)">pytorch</text>
  <text x="605" y="80" fill="white" font-family="sans-serif" font-weight="bold" font-size="12" text-anchor="end" dominant-baseline="middle" transform="rotate(90 605 80)">scilean</text>
  <text x="640" y="80" fill="white" font-family="sans-serif" font-weight="bold" font-size="12" text-anchor="end" dominant-baseline="middle" transform="rotate(90 640 80)">tapenade</text>
  <text x="675" y="80" fill="white" font-family="sans-serif" font-weight="bold" font-size="12" text-anchor="end" dominant-baseline="middle" transform="rotate(90 675 80)">tensorflow</text>
  <text x="710" y="80" fill="white" font-family="sans-serif" font-weight="bold" font-size="12" text-anchor="end" dominant-baseline="middle" transform="rotate(90 710 80)">zygote</text>
  <rect x="65" y="85" width="30" height="30" fill="hsl(240 100% 80.92259145990903%)" />
  <rect x="100" y="85" width="30" height="30" fill="hsl(240 100% 82.97107893339451%)" />
  <rect x="135" y="85" width="30" height="30" fill="hsl(240 100% 97.96834324450607%)" />
  <rect x="170" y="85" width="30" height="30" fill="hsl(240 100% 82.22099370141544%)" />
  <rect x="205" y="85" width="30" height="30" fill="hsl(240 100% 98.99745880986167%)" />
  <rect x="240" y="85" width="30" height="30" fill="hsl(240 100% 51.507276064563925%)" />
  <rect x="310" y="85" width="30" height="30" fill="hsl(240 100% 93.30158633864883%)" />
  <rect x="380" y="85" width="30" height="30" fill="hsl(240 100% 67.98340111579418%)" />
  <rect x="485" y="85" width="30" height="30" fill="hsl(240 100% 50%)" />
  <rect x="555" y="85" width="30" height="30" fill="rgb(255 255 255 / 50%)" />
  <rect x="625" y="85" width="30" height="30" fill="hsl(240 100% 74.64061100508303%)" />
  <rect x="660" y="85" width="30" height="30" fill="rgb(255 255 255 / 50%)" />
  <rect x="695" y="85" width="30" height="30" fill="hsl(240 100% 99.7221412442363%)" />
  <rect x="65" y="120" width="30" height="30" fill="hsl(240 100% 50%)" />
  <rect x="100" y="120" width="30" height="30" fill="hsl(240 100% 83.00690216274498%)" />
  <rect x="135" y="120" width="30" height="30" fill="hsl(240 100% 85.70353701909055%)" />
  <rect x="170" y="120" width="30" height="30" fill="hsl(240 100% 52.02694658604583%)" />
  <rect x="205" y="120" width="30" height="30" fill="hsl(240 100% 92.52123230499112%)" />
  <rect x="240" y="120" width="30" height="30" fill="hsl(240 100% 91.91628876378712%)" />
  <rect x="275" y="120" width="30" height="30" fill="hsl(240 100% 99.2999324325474%)" />
  <rect x="310" y="120" width="30" height="30" fill="hsl(240 100% 99.00578212386552%)" />
  <rect x="380" y="120" width="30" height="30" fill="hsl(240 100% 94.57585867223176%)" />
  <rect x="415" y="120" width="30" height="30" fill="hsl(240 100% 97.91625075398379%)" />
  <rect x="485" y="120" width="30" height="30" fill="hsl(240 100% 79.61529510019076%)" />
  <rect x="695" y="120" width="30" height="30" fill="rgb(255 255 255 / 50%)" />
  <rect x="65" y="155" width="30" height="30" fill="hsl(240 100% 97.20273425145864%)" />
  <rect x="100" y="155" width="30" height="30" fill="hsl(240 100% 98.26734769012997%)" />
  <rect x="135" y="155" width="30" height="30" fill="hsl(240 100% 98.87020552904116%)" />
  <rect x="170" y="155" width="30" height="30" fill="hsl(240 100% 97.25654142470614%)" />
  <rect x="205" y="155" width="30" height="30" fill="hsl(240 100% 99.76680135303702%)" />
  <rect x="240" y="155" width="30" height="30" fill="hsl(240 100% 86.46164571694472%)" />
  <rect x="275" y="155" width="30" height="30" fill="hsl(240 100% 99.8237886449939%)" />
  <rect x="310" y="155" width="30" height="30" fill="rgb(255 255 255 / 50%)" />
  <rect x="380" y="155" width="30" height="30" fill="hsl(240 100% 89.32586116696424%)" />
  <rect x="450" y="155" width="30" height="30" fill="hsl(240 100% 75.09714624159412%)" />
  <rect x="485" y="155" width="30" height="30" fill="hsl(240 100% 72.08891913732005%)" />
  <rect x="520" y="155" width="30" height="30" fill="hsl(240 100% 99.38069363578506%)" />
  <rect x="555" y="155" width="30" height="30" fill="hsl(240 100% 50%)" />
  <rect x="590" y="155" width="30" height="30" fill="hsl(240 100% 92.62324976011436%)" />
  <rect x="625" y="155" width="30" height="30" fill="hsl(240 100% 75.37615958427838%)" />
  <rect x="660" y="155" width="30" height="30" fill="hsl(240 100% 88.18540219202204%)" />
  <rect x="695" y="155" width="30" height="30" fill="hsl(240 100% 99.33393275517976%)" />
  <rect x="65" y="190" width="30" height="30" fill="hsl(240 100% 50%)" />
  <rect x="100" y="190" width="30" height="30" fill="hsl(240 100% 50%)" />
  <rect x="135" y="190" width="30" height="30" fill="hsl(240 100% 50%)" />
  <rect x="170" y="190" width="30" height="30" fill="hsl(240 100% 50%)" />
  <rect x="205" y="190" width="30" height="30" fill="hsl(240 100% 50%)" />
  <rect x="240" y="190" width="30" height="30" fill="hsl(240 100% 50%)" />
  <rect x="275" y="190" width="30" height="30" fill="hsl(240 100% 50%)" />
  <rect x="310" y="190" width="30" height="30" fill="hsl(240 100% 50%)" />
  <rect x="345" y="190" width="30" height="30" fill="hsl(240 100% 50%)" />
  <rect x="380" y="190" width="30" height="30" fill="hsl(240 100% 50%)" />
  <rect x="415" y="190" width="30" height="30" fill="hsl(240 100% 50%)" />
  <rect x="450" y="190" width="30" height="30" fill="hsl(240 100% 50%)" />
  <rect x="485" y="190" width="30" height="30" fill="hsl(240 100% 50%)" />
  <rect x="520" y="190" width="30" height="30" fill="hsl(240 100% 50%)" />
  <rect x="555" y="190" width="30" height="30" fill="hsl(240 100% 50%)" />
  <rect x="590" y="190" width="30" height="30" fill="hsl(240 100% 50%)" />
  <rect x="625" y="190" width="30" height="30" fill="hsl(240 100% 50%)" />
  <rect x="660" y="190" width="30" height="30" fill="hsl(240 100% 50%)" />
  <rect x="695" y="190" width="30" height="30" fill="hsl(240 100% 50%)" />
  <rect x="100" y="225" width="30" height="30" fill="hsl(240 100% 96.70289652552097%)" />
  <rect x="135" y="225" width="30" height="30" fill="hsl(240 100% 89.22215349245253%)" />
  <rect x="170" y="225" width="30" height="30" fill="hsl(240 100% 89.2138911063829%)" />
  <rect x="240" y="225" width="30" height="30" fill="hsl(240 100% 91.32778219785392%)" />
  <rect x="310" y="225" width="30" height="30" fill="rgb(255 255 255 / 50%)" />
  <rect x="380" y="225" width="30" height="30" fill="hsl(240 100% 90.61890650917411%)" />
  <rect x="485" y="225" width="30" height="30" fill="hsl(240 100% 50%)" />
  <rect x="555" y="225" width="30" height="30" fill="rgb(255 255 255 / 50%)" />
  <rect x="625" y="225" width="30" height="30" fill="hsl(240 100% 93.18657233327401%)" />
  <rect x="660" y="225" width="30" height="30" fill="rgb(255 255 255 / 50%)" />
  <rect x="695" y="225" width="30" height="30" fill="hsl(240 100% 99.49744905293488%)" />
  <rect x="65" y="260" width="30" height="30" fill="hsl(240 100% 99.88799771495981%)" />
  <rect x="135" y="260" width="30" height="30" fill="hsl(240 100% 99.87504359025979%)" />
  <rect x="170" y="260" width="30" height="30" fill="hsl(240 100% 98.96945734431192%)" />
  <rect x="205" y="260" width="30" height="30" fill="rgb(255 255 255 / 50%)" />
  <rect x="240" y="260" width="30" height="30" fill="hsl(240 100% 86.9050560956395%)" />
  <rect x="310" y="260" width="30" height="30" fill="rgb(255 255 255 / 50%)" />
  <rect x="380" y="260" width="30" height="30" fill="hsl(240 100% 80.5316764140671%)" />
  <rect x="415" y="260" width="30" height="30" fill="rgb(255 255 255 / 50%)" />
  <rect x="450" y="260" width="30" height="30" fill="hsl(240 100% 50%)" />
  <rect x="485" y="260" width="30" height="30" fill="hsl(240 100% 71.04711012584886%)" />
  <rect x="555" y="260" width="30" height="30" fill="hsl(240 100% 96.92880662691844%)" />
  <rect x="590" y="260" width="30" height="30" fill="hsl(240 100% 94.01793596300973%)" />
  <rect x="65" y="295" width="30" height="30" fill="hsl(240 100% 85.76356537616321%)" />
  <rect x="100" y="295" width="30" height="30" fill="hsl(240 100% 97.50731250617312%)" />
  <rect x="135" y="295" width="30" height="30" fill="hsl(240 100% 95.0015725140734%)" />
  <rect x="170" y="295" width="30" height="30" fill="hsl(240 100% 90.55037125120687%)" />
  <rect x="205" y="295" width="30" height="30" fill="hsl(240 100% 99.4650823664456%)" />
  <rect x="240" y="295" width="30" height="30" fill="hsl(240 100% 50%)" />
  <rect x="275" y="295" width="30" height="30" fill="hsl(240 100% 99.86029485364449%)" />
  <rect x="310" y="295" width="30" height="30" fill="hsl(240 100% 99.49364994974533%)" />
  <rect x="345" y="295" width="30" height="30" fill="hsl(240 100% 95.16848921183868%)" />
  <rect x="380" y="295" width="30" height="30" fill="hsl(240 100% 54.65347463937272%)" />
  <rect x="415" y="295" width="30" height="30" fill="hsl(240 100% 99.35706349161184%)" />
  <rect x="450" y="295" width="30" height="30" fill="hsl(240 100% 88.1893396125242%)" />
  <rect x="485" y="295" width="30" height="30" fill="hsl(240 100% 57.34040191901773%)" />
  <rect x="590" y="295" width="30" height="30" fill="hsl(240 100% 97.58173416988292%)" />
  <rect x="695" y="295" width="30" height="30" fill="hsl(240 100% 99.97415178818862%)" />
  <rect x="65" y="330" width="30" height="30" fill="hsl(240 100% 88.61702746626541%)" />
  <rect x="100" y="330" width="30" height="30" fill="hsl(240 100% 94.95217928115275%)" />
  <rect x="135" y="330" width="30" height="30" fill="hsl(240 100% 97.22000825188064%)" />
  <rect x="170" y="330" width="30" height="30" fill="hsl(240 100% 88.48593017288376%)" />
  <rect x="205" y="330" width="30" height="30" fill="hsl(240 100% 99.2714000421424%)" />
  <rect x="240" y="330" width="30" height="30" fill="hsl(240 100% 80.03331508418917%)" />
  <rect x="275" y="330" width="30" height="30" fill="hsl(240 100% 99.83972484414673%)" />
  <rect x="310" y="330" width="30" height="30" fill="rgb(255 255 255 / 50%)" />
  <rect x="345" y="330" width="30" height="30" fill="hsl(240 100% 97.38725968043688%)" />
  <rect x="380" y="330" width="30" height="30" fill="hsl(240 100% 86.69200452363697%)" />
  <rect x="415" y="330" width="30" height="30" fill="hsl(240 100% 99.82013044845296%)" />
  <rect x="450" y="330" width="30" height="30" fill="hsl(240 100% 71.61066859945416%)" />
  <rect x="485" y="330" width="30" height="30" fill="hsl(240 100% 74.983001524903%)" />
  <rect x="520" y="330" width="30" height="30" fill="hsl(240 100% 94.10113027316123%)" />
  <rect x="555" y="330" width="30" height="30" fill="hsl(240 100% 50%)" />
  <rect x="660" y="330" width="30" height="30" fill="hsl(240 100% 94.63331215953689%)" />
  <rect x="695" y="330" width="30" height="30" fill="hsl(240 100% 95.59570162050423%)" />
  <rect x="65" y="365" width="30" height="30" fill="hsl(240 100% 57.19222104933346%)" />
  <rect x="100" y="365" width="30" height="30" fill="hsl(240 100% 71.69020486963545%)" />
  <rect x="135" y="365" width="30" height="30" fill="hsl(240 100% 82.23575769887445%)" />
  <rect x="170" y="365" width="30" height="30" fill="hsl(240 100% 50%)" />
  <rect x="205" y="365" width="30" height="30" fill="hsl(240 100% 96.2461572246631%)" />
  <rect x="240" y="365" width="30" height="30" fill="hsl(240 100% 59.288858345148284%)" />
  <rect x="275" y="365" width="30" height="30" fill="hsl(240 100% 98.9578698968325%)" />
  <rect x="310" y="365" width="30" height="30" fill="hsl(240 100% 99.86421451212797%)" />
  <rect x="380" y="365" width="30" height="30" fill="hsl(240 100% 66.79189458248217%)" />
  <rect x="485" y="365" width="30" height="30" fill="hsl(240 100% 86.05076901691497%)" />
  <rect x="555" y="365" width="30" height="30" fill="hsl(240 100% 99.63248008389193%)" />
  <rect x="625" y="365" width="30" height="30" fill="hsl(240 100% 63.990513818648665%)" />
  <rect x="660" y="365" width="30" height="30" fill="hsl(240 100% 98.16948463066689%)" />
  <rect x="695" y="365" width="30" height="30" fill="hsl(240 100% 99.15971663711488%)" />
  <rect x="65" y="400" width="30" height="30" fill="hsl(240 100% 97.8316757600807%)" />
  <rect x="100" y="400" width="30" height="30" fill="hsl(240 100% 99.31996706374096%)" />
  <rect x="135" y="400" width="30" height="30" fill="hsl(240 100% 99.62041699004392%)" />
  <rect x="170" y="400" width="30" height="30" fill="hsl(240 100% 94.4231040984914%)" />
  <rect x="205" y="400" width="30" height="30" fill="hsl(240 100% 99.09521029734759%)" />
  <rect x="240" y="400" width="30" height="30" fill="hsl(240 100% 85.3067869405955%)" />
  <rect x="275" y="400" width="30" height="30" fill="hsl(240 100% 99.18051035455657%)" />
  <rect x="310" y="400" width="30" height="30" fill="rgb(255 255 255 / 50%)" />
  <rect x="380" y="400" width="30" height="30" fill="hsl(240 100% 92.91706260439071%)" />
  <rect x="415" y="400" width="30" height="30" fill="hsl(240 100% 99.96927086054693%)" />
  <rect x="450" y="400" width="30" height="30" fill="hsl(240 100% 75.00095541251989%)" />
  <rect x="485" y="400" width="30" height="30" fill="hsl(240 100% 50%)" />
  <rect x="695" y="400" width="30" height="30" fill="hsl(240 100% 99.67661303657907%)" />
  <rect x="65" y="435" width="30" height="30" fill="hsl(240 100% 92.85930215756211%)" />
  <rect x="240" y="435" width="30" height="30" fill="hsl(240 100% 50%)" />
  <rect x="310" y="435" width="30" height="30" fill="hsl(240 100% 94.30928332268225%)" />
  <rect x="380" y="435" width="30" height="30" fill="hsl(240 100% 87.03306512289636%)" />
  <rect x="415" y="435" width="30" height="30" fill="hsl(240 100% 99.78375996945829%)" />
  <rect x="65" y="470" width="30" height="30" fill="hsl(240 100% 50%)" />
  <rect x="240" y="470" width="30" height="30" fill="hsl(240 100% 50.066529783548795%)" />
  <rect x="310" y="470" width="30" height="30" fill="hsl(240 100% 97.1815247859293%)" />
  <rect x="380" y="470" width="30" height="30" fill="hsl(240 100% 89.10739881485844%)" />
  <rect x="415" y="470" width="30" height="30" fill="hsl(240 100% 99.58044395172197%)" />
</svg>
