<svg xmlns="http://www.w3.org/2000/svg" viewBox="0 0 870 505">
  <rect x="0" y="0" width="870" height="505" rx="5" ry="5" fill="#222" />
  <text x="60" y="100" fill="white" font-family="sans-serif" font-weight="bold" font-size="12" text-anchor="end" dominant-baseline="middle">ba</text>
  <text x="60" y="135" fill="white" font-family="sans-serif" font-weight="bold" font-size="12" text-anchor="end" dominant-baseline="middle">det</text>
  <text x="60" y="170" fill="white" font-family="sans-serif" font-weight="bold" font-size="12" text-anchor="end" dominant-baseline="middle">gmm</text>
  <text x="60" y="205" fill="white" font-family="sans-serif" font-weight="bold" font-size="12" text-anchor="end" dominant-baseline="middle">hello</text>
  <text x="60" y="240" fill="white" font-family="sans-serif" font-weight="bold" font-size="12" text-anchor="end" dominant-baseline="middle">ht</text>
  <text x="60" y="275" fill="white" font-family="sans-serif" font-weight="bold" font-size="12" text-anchor="end" dominant-baseline="middle">kmeans</text>
  <text x="60" y="310" fill="white" font-family="sans-serif" font-weight="bold" font-size="12" text-anchor="end" dominant-baseline="middle">llsq</text>
  <text x="60" y="345" fill="white" font-family="sans-serif" font-weight="bold" font-size="12" text-anchor="end" dominant-baseline="middle">lse</text>
  <text x="60" y="380" fill="white" font-family="sans-serif" font-weight="bold" font-size="12" text-anchor="end" dominant-baseline="middle">lstm</text>
  <text x="60" y="415" fill="white" font-family="sans-serif" font-weight="bold" font-size="12" text-anchor="end" dominant-baseline="middle">ode</text>
  <text x="60" y="450" fill="white" font-family="sans-serif" font-weight="bold" font-size="12" text-anchor="end" dominant-baseline="middle">particle</text>
  <text x="60" y="485" fill="white" font-family="sans-serif" font-weight="bold" font-size="12" text-anchor="end" dominant-baseline="middle">saddle</text>
  <text x="80" y="80" fill="white" font-family="sans-serif" font-weight="bold" font-size="12" text-anchor="end" dominant-baseline="middle" transform="rotate(90 80 80)">ad-hpp</text>
  <text x="115" y="80" fill="white" font-family="sans-serif" font-weight="bold" font-size="12" text-anchor="end" dominant-baseline="middle" transform="rotate(90 115 80)">adept</text>
  <text x="150" y="80" fill="white" font-family="sans-serif" font-weight="bold" font-size="12" text-anchor="end" dominant-baseline="middle" transform="rotate(90 150 80)">adol-c</text>
  <text x="185" y="80" fill="white" font-family="sans-serif" font-weight="bold" font-size="12" text-anchor="end" dominant-baseline="middle" transform="rotate(90 185 80)">codipack</text>
  <text x="220" y="80" fill="white" font-family="sans-serif" font-weight="bold" font-size="12" text-anchor="end" dominant-baseline="middle" transform="rotate(90 220 80)">cppad</text>
  <text x="255" y="80" fill="white" font-family="sans-serif" font-weight="bold" font-size="12" text-anchor="end" dominant-baseline="middle" transform="rotate(90 255 80)">enzyme</text>
  <text x="290" y="80" fill="white" font-family="sans-serif" font-weight="bold" font-size="12" text-anchor="end" dominant-baseline="middle" transform="rotate(90 290 80)">enzyme-jl</text>
  <text x="325" y="80" fill="white" font-family="sans-serif" font-weight="bold" font-size="12" text-anchor="end" dominant-baseline="middle" transform="rotate(90 325 80)">finite</text>
  <text x="360" y="80" fill="white" font-family="sans-serif" font-weight="bold" font-size="12" text-anchor="end" dominant-baseline="middle" transform="rotate(90 360 80)">floretta</text>
  <text x="395" y="80" fill="white" font-family="sans-serif" font-weight="bold" font-size="12" text-anchor="end" dominant-baseline="middle" transform="rotate(90 395 80)">forwarddiff-jl</text>
  <text x="430" y="80" fill="white" font-family="sans-serif" font-weight="bold" font-size="12" text-anchor="end" dominant-baseline="middle" transform="rotate(90 430 80)">futhark</text>
  <text x="465" y="80" fill="white" font-family="sans-serif" font-weight="bold" font-size="12" text-anchor="end" dominant-baseline="middle" transform="rotate(90 465 80)">haskell</text>
  <text x="500" y="80" fill="white" font-family="sans-serif" font-weight="bold" font-size="12" text-anchor="end" dominant-baseline="middle" transform="rotate(90 500 80)">jax</text>
  <text x="535" y="80" fill="white" font-family="sans-serif" font-weight="bold" font-size="12" text-anchor="end" dominant-baseline="middle" transform="rotate(90 535 80)">manual</text>
  <text x="570" y="80" fill="white" font-family="sans-serif" font-weight="bold" font-size="12" text-anchor="end" dominant-baseline="middle" transform="rotate(90 570 80)">mooncake-jl</text>
  <text x="605" y="80" fill="white" font-family="sans-serif" font-weight="bold" font-size="12" text-anchor="end" dominant-baseline="middle" transform="rotate(90 605 80)">ocaml</text>
  <text x="640" y="80" fill="white" font-family="sans-serif" font-weight="bold" font-size="12" text-anchor="end" dominant-baseline="middle" transform="rotate(90 640 80)">pytorch</text>
  <text x="675" y="80" fill="white" font-family="sans-serif" font-weight="bold" font-size="12" text-anchor="end" dominant-baseline="middle" transform="rotate(90 675 80)">reversediff-jl</text>
  <text x="710" y="80" fill="white" font-family="sans-serif" font-weight="bold" font-size="12" text-anchor="end" dominant-baseline="middle" transform="rotate(90 710 80)">scilean</text>
  <text x="745" y="80" fill="white" font-family="sans-serif" font-weight="bold" font-size="12" text-anchor="end" dominant-baseline="middle" transform="rotate(90 745 80)">tapenade</text>
  <text x="780" y="80" fill="white" font-family="sans-serif" font-weight="bold" font-size="12" text-anchor="end" dominant-baseline="middle" transform="rotate(90 780 80)">tensorflow</text>
  <text x="815" y="80" fill="white" font-family="sans-serif" font-weight="bold" font-size="12" text-anchor="end" dominant-baseline="middle" transform="rotate(90 815 80)">tensorflow-js</text>
  <text x="850" y="80" fill="white" font-family="sans-serif" font-weight="bold" font-size="12" text-anchor="end" dominant-baseline="middle" transform="rotate(90 850 80)">zygote</text>
  <rect x="65" y="85" width="30" height="30" fill="hsl(240 100% 78.81072226884001%)" />
  <rect x="100" y="85" width="30" height="30" fill="hsl(240 100% 80.99340872699672%)" />
  <rect x="135" y="85" width="30" height="30" fill="hsl(240 100% 97.72795497790574%)" />
  <rect x="170" y="85" width="30" height="30" fill="hsl(240 100% 79.83485209391678%)" />
  <rect x="205" y="85" width="30" height="30" fill="hsl(240 100% 98.85840932998967%)" />
  <rect x="240" y="85" width="30" height="30" fill="hsl(240 100% 53.990687599642065%)" />
  <rect x="310" y="85" width="30" height="30" fill="hsl(240 100% 92.471614419423%)" />
  <rect x="415" y="85" width="30" height="30" fill="hsl(240 100% 63.9520484054664%)" />
  <rect x="520" y="85" width="30" height="30" fill="hsl(240 100% 50%)" />
  <rect x="625" y="85" width="30" height="30" fill="rgb(255 255 255 / 50%)" />
  <rect x="730" y="85" width="30" height="30" fill="hsl(240 100% 71.5403518063025%)" />
  <rect x="765" y="85" width="30" height="30" fill="rgb(255 255 255 / 50%)" />
  <rect x="835" y="85" width="30" height="30" fill="hsl(240 100% 99.69654265630082%)" />
  <rect x="65" y="120" width="30" height="30" fill="hsl(240 100% 50%)" />
  <rect x="100" y="120" width="30" height="30" fill="hsl(240 100% 84.58464837694797%)" />
  <rect x="135" y="120" width="30" height="30" fill="hsl(240 100% 85.86596617130795%)" />
  <rect x="170" y="120" width="30" height="30" fill="hsl(240 100% 52.799848160560245%)" />
  <rect x="205" y="120" width="30" height="30" fill="hsl(240 100% 92.7619661952618%)" />
  <rect x="240" y="120" width="30" height="30" fill="hsl(240 100% 91.8979896275446%)" />
  <rect x="275" y="120" width="30" height="30" fill="hsl(240 100% 99.38131170294237%)" />
  <rect x="310" y="120" width="30" height="30" fill="hsl(240 100% 99.00668787459198%)" />
  <rect x="380" y="120" width="30" height="30" fill="hsl(240 100% 93.48685450233478%)" />
  <rect x="415" y="120" width="30" height="30" fill="hsl(240 100% 95.99468139813249%)" />
  <rect x="450" y="120" width="30" height="30" fill="hsl(240 100% 97.8627063194145%)" />
  <rect x="520" y="120" width="30" height="30" fill="hsl(240 100% 79.30977168562363%)" />
  <rect x="555" y="120" width="30" height="30" fill="hsl(240 100% 90.72378630726139%)" />
  <rect x="660" y="120" width="30" height="30" fill="rgb(255 255 255 / 50%)" />
  <rect x="835" y="120" width="30" height="30" fill="rgb(255 255 255 / 50%)" />
  <rect x="65" y="155" width="30" height="30" fill="hsl(240 100% 98.85190260531766%)" />
  <rect x="100" y="155" width="30" height="30" fill="hsl(240 100% 98.84809575592912%)" />
  <rect x="135" y="155" width="30" height="30" fill="hsl(240 100% 99.21827636405838%)" />
  <rect x="170" y="155" width="30" height="30" fill="hsl(240 100% 98.05148761546413%)" />
  <rect x="205" y="155" width="30" height="30" fill="hsl(240 100% 99.84168043629552%)" />
  <rect x="240" y="155" width="30" height="30" fill="hsl(240 100% 95.1166813354909%)" />
  <rect x="275" y="155" width="30" height="30" fill="hsl(240 100% 91.716091492528%)" />
  <rect x="310" y="155" width="30" height="30" fill="rgb(255 255 255 / 50%)" />
  <rect x="415" y="155" width="30" height="30" fill="hsl(240 100% 92.6850075284493%)" />
  <rect x="485" y="155" width="30" height="30" fill="hsl(240 100% 50%)" />
  <rect x="520" y="155" width="30" height="30" fill="hsl(240 100% 80.68158663604211%)" />
  <rect x="590" y="155" width="30" height="30" fill="hsl(240 100% 99.55649414447649%)" />
  <rect x="625" y="155" width="30" height="30" fill="hsl(240 100% 65.41945176698997%)" />
  <rect x="695" y="155" width="30" height="30" fill="hsl(240 100% 95.20387162748285%)" />
  <rect x="730" y="155" width="30" height="30" fill="hsl(240 100% 83.02905601502587%)" />
  <rect x="765" y="155" width="30" height="30" fill="hsl(240 100% 99.575036332894%)" />
  <rect x="835" y="155" width="30" height="30" fill="hsl(240 100% 96.2287128114358%)" />
  <rect x="65" y="190" width="30" height="30" fill="hsl(240 100% 50%)" />
  <rect x="100" y="190" width="30" height="30" fill="hsl(240 100% 50%)" />
  <rect x="135" y="190" width="30" height="30" fill="hsl(240 100% 50%)" />
  <rect x="170" y="190" width="30" height="30" fill="hsl(240 100% 50%)" />
  <rect x="205" y="190" width="30" height="30" fill="hsl(240 100% 50%)" />
  <rect x="240" y="190" width="30" height="30" fill="hsl(240 100% 50%)" />
  <rect x="275" y="190" width="30" height="30" fill="hsl(240 100% 50%)" />
  <rect x="310" y="190" width="30" height="30" fill="hsl(240 100% 50%)" />
  <rect x="345" y="190" width="30" height="30" fill="hsl(240 100% 50%)" />
  <rect x="380" y="190" width="30" height="30" fill="hsl(240 100% 50%)" />
  <rect x="415" y="190" width="30" height="30" fill="hsl(240 100% 50%)" />
  <rect x="450" y="190" width="30" height="30" fill="hsl(240 100% 50%)" />
  <rect x="485" y="190" width="30" height="30" fill="hsl(240 100% 50%)" />
  <rect x="520" y="190" width="30" height="30" fill="hsl(240 100% 50%)" />
  <rect x="555" y="190" width="30" height="30" fill="hsl(240 100% 50%)" />
  <rect x="590" y="190" width="30" height="30" fill="hsl(240 100% 50%)" />
  <rect x="625" y="190" width="30" height="30" fill="hsl(240 100% 50%)" />
  <rect x="660" y="190" width="30" height="30" fill="hsl(240 100% 50%)" />
  <rect x="695" y="190" width="30" height="30" fill="hsl(240 100% 50%)" />
  <rect x="730" y="190" width="30" height="30" fill="hsl(240 100% 50%)" />
  <rect x="765" y="190" width="30" height="30" fill="hsl(240 100% 50%)" />
  <rect x="800" y="190" width="30" height="30" fill="hsl(240 100% 50%)" />
  <rect x="835" y="190" width="30" height="30" fill="hsl(240 100% 50%)" />
  <rect x="100" y="225" width="30" height="30" fill="hsl(240 100% 96.7034174290454%)" />
  <rect x="135" y="225" width="30" height="30" fill="hsl(240 100% 86.02201111529132%)" />
  <rect x="170" y="225" width="30" height="30" fill="hsl(240 100% 87.78064928602984%)" />
  <rect x="240" y="225" width="30" height="30" fill="hsl(240 100% 90.10793921443582%)" />
  <rect x="310" y="225" width="30" height="30" fill="rgb(255 255 255 / 50%)" />
  <rect x="415" y="225" width="30" height="30" fill="hsl(240 100% 89.27722052136595%)" />
  <rect x="520" y="225" width="30" height="30" fill="hsl(240 100% 50%)" />
  <rect x="625" y="225" width="30" height="30" fill="rgb(255 255 255 / 50%)" />
  <rect x="730" y="225" width="30" height="30" fill="hsl(240 100% 92.37635321666842%)" />
  <rect x="765" y="225" width="30" height="30" fill="rgb(255 255 255 / 50%)" />
  <rect x="835" y="225" width="30" height="30" fill="hsl(240 100% 94.32155507416583%)" />
  <rect x="65" y="260" width="30" height="30" fill="hsl(240 100% 99.88546181072424%)" />
  <rect x="135" y="260" width="30" height="30" fill="hsl(240 100% 99.85925933364538%)" />
  <rect x="170" y="260" width="30" height="30" fill="hsl(240 100% 98.9605550888756%)" />
  <rect x="205" y="260" width="30" height="30" fill="rgb(255 255 255 / 50%)" />
  <rect x="240" y="260" width="30" height="30" fill="hsl(240 100% 88.14091041525143%)" />
  <rect x="310" y="260" width="30" height="30" fill="rgb(255 255 255 / 50%)" />
  <rect x="415" y="260" width="30" height="30" fill="hsl(240 100% 80.7589968235989%)" />
  <rect x="450" y="260" width="30" height="30" fill="rgb(255 255 255 / 50%)" />
  <rect x="485" y="260" width="30" height="30" fill="hsl(240 100% 50%)" />
  <rect x="520" y="260" width="30" height="30" fill="hsl(240 100% 71.94635998398378%)" />
  <rect x="625" y="260" width="30" height="30" fill="hsl(240 100% 97.00512169241425%)" />
  <rect x="695" y="260" width="30" height="30" fill="hsl(240 100% 93.36700525827293%)" />
  <rect x="65" y="295" width="30" height="30" fill="hsl(240 100% 85.97697264447287%)" />
  <rect x="100" y="295" width="30" height="30" fill="hsl(240 100% 97.48454294291223%)" />
  <rect x="135" y="295" width="30" height="30" fill="hsl(240 100% 95.03783071313134%)" />
  <rect x="170" y="295" width="30" height="30" fill="hsl(240 100% 86.92742769842877%)" />
  <rect x="205" y="295" width="30" height="30" fill="hsl(240 100% 99.47729222381598%)" />
  <rect x="240" y="295" width="30" height="30" fill="hsl(240 100% 71.6271860674643%)" />
  <rect x="275" y="295" width="30" height="30" fill="hsl(240 100% 50%)" />
  <rect x="310" y="295" width="30" height="30" fill="hsl(240 100% 99.49188862703043%)" />
  <rect x="345" y="295" width="30" height="30" fill="hsl(240 100% 94.60542838450328%)" />
  <rect x="415" y="295" width="30" height="30" fill="hsl(240 100% 54.55363878065068%)" />
  <rect x="450" y="295" width="30" height="30" fill="hsl(240 100% 99.30463050179537%)" />
  <rect x="485" y="295" width="30" height="30" fill="hsl(240 100% 91.60408981034055%)" />
  <rect x="520" y="295" width="30" height="30" fill="hsl(240 100% 59.427384667544416%)" />
  <rect x="695" y="295" width="30" height="30" fill="hsl(240 100% 97.71599565065641%)" />
  <rect x="800" y="295" width="30" height="30" fill="hsl(240 100% 99.58299986300841%)" />
  <rect x="835" y="295" width="30" height="30" fill="hsl(240 100% 99.95520305487645%)" />
  <rect x="65" y="330" width="30" height="30" fill="hsl(240 100% 86.97138519110422%)" />
  <rect x="100" y="330" width="30" height="30" fill="hsl(240 100% 94.24265390629782%)" />
  <rect x="135" y="330" width="30" height="30" fill="hsl(240 100% 96.94158825823826%)" />
  <rect x="170" y="330" width="30" height="30" fill="hsl(240 100% 86.48949312873533%)" />
  <rect x="205" y="330" width="30" height="30" fill="hsl(240 100% 99.04994446230123%)" />
  <rect x="240" y="330" width="30" height="30" fill="hsl(240 100% 79.23744111076653%)" />
  <rect x="275" y="330" width="30" height="30" fill="hsl(240 100% 88.73396343254646%)" />
  <rect x="310" y="330" width="30" height="30" fill="rgb(255 255 255 / 50%)" />
  <rect x="345" y="330" width="30" height="30" fill="hsl(240 100% 97.07136034509331%)" />
  <rect x="415" y="330" width="30" height="30" fill="hsl(240 100% 85.61625686365322%)" />
  <rect x="450" y="330" width="30" height="30" fill="hsl(240 100% 99.81952056840127%)" />
  <rect x="485" y="330" width="30" height="30" fill="hsl(240 100% 68.83928642738158%)" />
  <rect x="520" y="330" width="30" height="30" fill="hsl(240 100% 69.95822764170578%)" />
  <rect x="590" y="330" width="30" height="30" fill="hsl(240 100% 93.6587482095367%)" />
  <rect x="625" y="330" width="30" height="30" fill="hsl(240 100% 50%)" />
  <rect x="765" y="330" width="30" height="30" fill="hsl(240 100% 94.192315020523%)" />
  <rect x="800" y="330" width="30" height="30" fill="hsl(240 100% 99.26496980730829%)" />
  <rect x="835" y="330" width="30" height="30" fill="hsl(240 100% 80.07110100386335%)" />
  <rect x="65" y="365" width="30" height="30" fill="hsl(240 100% 59.194314336262586%)" />
  <rect x="100" y="365" width="30" height="30" fill="hsl(240 100% 72.75218120505949%)" />
  <rect x="135" y="365" width="30" height="30" fill="hsl(240 100% 82.95795891353424%)" />
  <rect x="170" y="365" width="30" height="30" fill="hsl(240 100% 50%)" />
  <rect x="205" y="365" width="30" height="30" fill="hsl(240 100% 96.21145248518904%)" />
  <rect x="240" y="365" width="30" height="30" fill="hsl(240 100% 54.31561910166504%)" />
  <rect x="275" y="365" width="30" height="30" fill="hsl(240 100% 92.62217179437992%)" />
  <rect x="310" y="365" width="30" height="30" fill="hsl(240 100% 99.86562200669685%)" />
  <rect x="415" y="365" width="30" height="30" fill="hsl(240 100% 67.55098375489507%)" />
  <rect x="520" y="365" width="30" height="30" fill="hsl(240 100% 87.19793559965447%)" />
  <rect x="625" y="365" width="30" height="30" fill="hsl(240 100% 99.65451092894061%)" />
  <rect x="730" y="365" width="30" height="30" fill="hsl(240 100% 64.99218041007387%)" />
  <rect x="765" y="365" width="30" height="30" fill="hsl(240 100% 98.2452776932325%)" />
  <rect x="835" y="365" width="30" height="30" fill="hsl(240 100% 98.82771481388271%)" />
  <rect x="65" y="400" width="30" height="30" fill="hsl(240 100% 98.18698404160259%)" />
  <rect x="100" y="400" width="30" height="30" fill="hsl(240 100% 99.47894591915967%)" />
  <rect x="135" y="400" width="30" height="30" fill="hsl(240 100% 99.66635332413239%)" />
  <rect x="170" y="400" width="30" height="30" fill="hsl(240 100% 94.05381507293194%)" />
  <rect x="205" y="400" width="30" height="30" fill="hsl(240 100% 99.24040068312496%)" />
  <rect x="240" y="400" width="30" height="30" fill="hsl(240 100% 87.19595538017641%)" />
  <rect x="275" y="400" width="30" height="30" fill="hsl(240 100% 95.72358113541223%)" />
  <rect x="310" y="400" width="30" height="30" fill="rgb(255 255 255 / 50%)" />
  <rect x="380" y="400" width="30" height="30" fill="rgb(255 255 255 / 50%)" />
  <rect x="415" y="400" width="30" height="30" fill="hsl(240 100% 94.04547692283315%)" />
  <rect x="450" y="400" width="30" height="30" fill="hsl(240 100% 99.97146278186098%)" />
  <rect x="485" y="400" width="30" height="30" fill="hsl(240 100% 78.91681311958469%)" />
  <rect x="520" y="400" width="30" height="30" fill="hsl(240 100% 50%)" />
  <rect x="555" y="400" width="30" height="30" fill="hsl(240 100% 99.11487797443434%)" />
  <rect x="660" y="400" width="30" height="30" fill="rgb(255 255 255 / 50%)" />
  <rect x="835" y="400" width="30" height="30" fill="hsl(240 100% 99.06410703410072%)" />
  <rect x="65" y="435" width="30" height="30" fill="hsl(240 100% 94.50094073672958%)" />
  <rect x="240" y="435" width="30" height="30" fill="hsl(240 100% 50%)" />
  <rect x="310" y="435" width="30" height="30" fill="hsl(240 100% 94.9406920538795%)" />
  <rect x="415" y="435" width="30" height="30" fill="hsl(240 100% 89.34218657825608%)" />
  <rect x="450" y="435" width="30" height="30" fill="hsl(240 100% 99.82122666991702%)" />
  <rect x="65" y="470" width="30" height="30" fill="hsl(240 100% 59.7904781964351%)" />
  <rect x="240" y="470" width="30" height="30" fill="hsl(240 100% 50%)" />
  <rect x="310" y="470" width="30" height="30" fill="hsl(240 100% 97.56282473383453%)" />
  <rect x="415" y="470" width="30" height="30" fill="hsl(240 100% 91.50457848404702%)" />
  <rect x="450" y="470" width="30" height="30" fill="hsl(240 100% 99.64884476295738%)" />
</svg>
