<svg xmlns="http://www.w3.org/2000/svg" viewBox="0 0 870 505">
  <rect x="0" y="0" width="870" height="505" rx="5" ry="5" fill="#222" />
  <text x="60" y="100" fill="white" font-family="sans-serif" font-weight="bold" font-size="12" text-anchor="end" dominant-baseline="middle">ba</text>
  <text x="60" y="135" fill="white" font-family="sans-serif" font-weight="bold" font-size="12" text-anchor="end" dominant-baseline="middle">det</text>
  <text x="60" y="170" fill="white" font-family="sans-serif" font-weight="bold" font-size="12" text-anchor="end" dominant-baseline="middle">gmm</text>
  <text x="60" y="205" fill="white" font-family="sans-serif" font-weight="bold" font-size="12" text-anchor="end" dominant-baseline="middle">hello</text>
  <text x="60" y="240" fill="white" font-family="sans-serif" font-weight="bold" font-size="12" text-anchor="end" dominant-baseline="middle">ht</text>
  <text x="60" y="275" fill="white" font-family="sans-serif" font-weight="bold" font-size="12" text-anchor="end" dominant-baseline="middle">kmeans</text>
  <text x="60" y="310" fill="white" font-family="sans-serif" font-weight="bold" font-size="12" text-anchor="end" dominant-baseline="middle">llsq</text>
  <text x="60" y="345" fill="white" font-family="sans-serif" font-weight="bold" font-size="12" text-anchor="end" dominant-baseline="middle">lse</text>
  <text x="60" y="380" fill="white" font-family="sans-serif" font-weight="bold" font-size="12" text-anchor="end" dominant-baseline="middle">lstm</text>
  <text x="60" y="415" fill="white" font-family="sans-serif" font-weight="bold" font-size="12" text-anchor="end" dominant-baseline="middle">ode</text>
  <text x="60" y="450" fill="white" font-family="sans-serif" font-weight="bold" font-size="12" text-anchor="end" dominant-baseline="middle">particle</text>
  <text x="60" y="485" fill="white" font-family="sans-serif" font-weight="bold" font-size="12" text-anchor="end" dominant-baseline="middle">saddle</text>
  <text x="80" y="80" fill="white" font-family="sans-serif" font-weight="bold" font-size="12" text-anchor="end" dominant-baseline="middle" transform="rotate(90 80 80)">ad-hpp</text>
  <text x="115" y="80" fill="white" font-family="sans-serif" font-weight="bold" font-size="12" text-anchor="end" dominant-baseline="middle" transform="rotate(90 115 80)">adept</text>
  <text x="150" y="80" fill="white" font-family="sans-serif" font-weight="bold" font-size="12" text-anchor="end" dominant-baseline="middle" transform="rotate(90 150 80)">adol-c</text>
  <text x="185" y="80" fill="white" font-family="sans-serif" font-weight="bold" font-size="12" text-anchor="end" dominant-baseline="middle" transform="rotate(90 185 80)">codipack</text>
  <text x="220" y="80" fill="white" font-family="sans-serif" font-weight="bold" font-size="12" text-anchor="end" dominant-baseline="middle" transform="rotate(90 220 80)">cppad</text>
  <text x="255" y="80" fill="white" font-family="sans-serif" font-weight="bold" font-size="12" text-anchor="end" dominant-baseline="middle" transform="rotate(90 255 80)">enzyme</text>
  <text x="290" y="80" fill="white" font-family="sans-serif" font-weight="bold" font-size="12" text-anchor="end" dominant-baseline="middle" transform="rotate(90 290 80)">enzyme-jl</text>
  <text x="325" y="80" fill="white" font-family="sans-serif" font-weight="bold" font-size="12" text-anchor="end" dominant-baseline="middle" transform="rotate(90 325 80)">finite</text>
  <text x="360" y="80" fill="white" font-family="sans-serif" font-weight="bold" font-size="12" text-anchor="end" dominant-baseline="middle" transform="rotate(90 360 80)">floretta</text>
  <text x="395" y="80" fill="white" font-family="sans-serif" font-weight="bold" font-size="12" text-anchor="end" dominant-baseline="middle" transform="rotate(90 395 80)">forwarddiff-jl</text>
  <text x="430" y="80" fill="white" font-family="sans-serif" font-weight="bold" font-size="12" text-anchor="end" dominant-baseline="middle" transform="rotate(90 430 80)">futhark</text>
  <text x="465" y="80" fill="white" font-family="sans-serif" font-weight="bold" font-size="12" text-anchor="end" dominant-baseline="middle" transform="rotate(90 465 80)">haskell</text>
  <text x="500" y="80" fill="white" font-family="sans-serif" font-weight="bold" font-size="12" text-anchor="end" dominant-baseline="middle" transform="rotate(90 500 80)">jax</text>
  <text x="535" y="80" fill="white" font-family="sans-serif" font-weight="bold" font-size="12" text-anchor="end" dominant-baseline="middle" transform="rotate(90 535 80)">manual</text>
  <text x="570" y="80" fill="white" font-family="sans-serif" font-weight="bold" font-size="12" text-anchor="end" dominant-baseline="middle" transform="rotate(90 570 80)">mooncake-jl</text>
  <text x="605" y="80" fill="white" font-family="sans-serif" font-weight="bold" font-size="12" text-anchor="end" dominant-baseline="middle" transform="rotate(90 605 80)">ocaml</text>
  <text x="640" y="80" fill="white" font-family="sans-serif" font-weight="bold" font-size="12" text-anchor="end" dominant-baseline="middle" transform="rotate(90 640 80)">pytorch</text>
  <text x="675" y="80" fill="white" font-family="sans-serif" font-weight="bold" font-size="12" text-anchor="end" dominant-baseline="middle" transform="rotate(90 675 80)">reversediff-jl</text>
  <text x="710" y="80" fill="white" font-family="sans-serif" font-weight="bold" font-size="12" text-anchor="end" dominant-baseline="middle" transform="rotate(90 710 80)">scilean</text>
  <text x="745" y="80" fill="white" font-family="sans-serif" font-weight="bold" font-size="12" text-anchor="end" dominant-baseline="middle" transform="rotate(90 745 80)">tapenade</text>
  <text x="780" y="80" fill="white" font-family="sans-serif" font-weight="bold" font-size="12" text-anchor="end" dominant-baseline="middle" transform="rotate(90 780 80)">tensorflow</text>
  <text x="815" y="80" fill="white" font-family="sans-serif" font-weight="bold" font-size="12" text-anchor="end" dominant-baseline="middle" transform="rotate(90 815 80)">tensorflow-js</text>
  <text x="850" y="80" fill="white" font-family="sans-serif" font-weight="bold" font-size="12" text-anchor="end" dominant-baseline="middle" transform="rotate(90 850 80)">zygote</text>
  <rect x="65" y="85" width="30" height="30" fill="hsl(240 100% 80.66555053693395%)" />
  <rect x="100" y="85" width="30" height="30" fill="hsl(240 100% 82.21890890618107%)" />
  <rect x="135" y="85" width="30" height="30" fill="hsl(240 100% 97.95083927602187%)" />
  <rect x="170" y="85" width="30" height="30" fill="hsl(240 100% 81.62481650785078%)" />
  <rect x="205" y="85" width="30" height="30" fill="hsl(240 100% 98.94996659463962%)" />
  <rect x="240" y="85" width="30" height="30" fill="hsl(240 100% 50%)" />
  <rect x="310" y="85" width="30" height="30" fill="hsl(240 100% 91.7814429098161%)" />
  <rect x="415" y="85" width="30" height="30" fill="hsl(240 100% 67.24258826619663%)" />
  <rect x="520" y="85" width="30" height="30" fill="hsl(240 100% 54.20932997767647%)" />
  <rect x="625" y="85" width="30" height="30" fill="rgb(255 255 255 / 50%)" />
  <rect x="730" y="85" width="30" height="30" fill="hsl(240 100% 74.08457726089435%)" />
  <rect x="765" y="85" width="30" height="30" fill="rgb(255 255 255 / 50%)" />
  <rect x="835" y="85" width="30" height="30" fill="hsl(240 100% 99.71844919005149%)" />
  <rect x="65" y="120" width="30" height="30" fill="hsl(240 100% 59.465915992593494%)" />
  <rect x="100" y="120" width="30" height="30" fill="hsl(240 100% 81.34215841508214%)" />
  <rect x="135" y="120" width="30" height="30" fill="hsl(240 100% 84.15454997471414%)" />
  <rect x="170" y="120" width="30" height="30" fill="hsl(240 100% 50%)" />
  <rect x="205" y="120" width="30" height="30" fill="hsl(240 100% 91.97540218015948%)" />
  <rect x="240" y="120" width="30" height="30" fill="hsl(240 100% 90.85564729810534%)" />
  <rect x="275" y="120" width="30" height="30" fill="hsl(240 100% 99.3072986585686%)" />
  <rect x="310" y="120" width="30" height="30" fill="hsl(240 100% 98.90590088771302%)" />
  <rect x="380" y="120" width="30" height="30" fill="hsl(240 100% 92.76592534144223%)" />
  <rect x="415" y="120" width="30" height="30" fill="hsl(240 100% 94.12648009916028%)" />
  <rect x="450" y="120" width="30" height="30" fill="hsl(240 100% 97.67595140264228%)" />
  <rect x="520" y="120" width="30" height="30" fill="hsl(240 100% 77.72645545357267%)" />
  <rect x="555" y="120" width="30" height="30" fill="hsl(240 100% 89.82811025527887%)" />
  <rect x="660" y="120" width="30" height="30" fill="rgb(255 255 255 / 50%)" />
  <rect x="835" y="120" width="30" height="30" fill="rgb(255 255 255 / 50%)" />
  <rect x="65" y="155" width="30" height="30" fill="hsl(240 100% 98.35271236812311%)" />
  <rect x="100" y="155" width="30" height="30" fill="hsl(240 100% 98.83092615938529%)" />
  <rect x="135" y="155" width="30" height="30" fill="hsl(240 100% 99.13382157529051%)" />
  <rect x="170" y="155" width="30" height="30" fill="hsl(240 100% 98.00500851020175%)" />
  <rect x="205" y="155" width="30" height="30" fill="hsl(240 100% 99.85026737834109%)" />
  <rect x="240" y="155" width="30" height="30" fill="hsl(240 100% 91.26780060481065%)" />
  <rect x="275" y="155" width="30" height="30" fill="hsl(240 100% 93.26900300665521%)" />
  <rect x="310" y="155" width="30" height="30" fill="rgb(255 255 255 / 50%)" />
  <rect x="415" y="155" width="30" height="30" fill="hsl(240 100% 94.20041574672898%)" />
  <rect x="485" y="155" width="30" height="30" fill="hsl(240 100% 50%)" />
  <rect x="520" y="155" width="30" height="30" fill="hsl(240 100% 81.04249434018011%)" />
  <rect x="590" y="155" width="30" height="30" fill="hsl(240 100% 99.59601686626273%)" />
  <rect x="625" y="155" width="30" height="30" fill="hsl(240 100% 68.1417206144169%)" />
  <rect x="695" y="155" width="30" height="30" fill="hsl(240 100% 96.07505927556026%)" />
  <rect x="730" y="155" width="30" height="30" fill="hsl(240 100% 91.48521443286337%)" />
  <rect x="765" y="155" width="30" height="30" fill="hsl(240 100% 99.59332779145542%)" />
  <rect x="835" y="155" width="30" height="30" fill="hsl(240 100% 96.13361615601015%)" />
  <rect x="65" y="190" width="30" height="30" fill="hsl(240 100% 50%)" />
  <rect x="100" y="190" width="30" height="30" fill="hsl(240 100% 50%)" />
  <rect x="135" y="190" width="30" height="30" fill="hsl(240 100% 50%)" />
  <rect x="170" y="190" width="30" height="30" fill="hsl(240 100% 50%)" />
  <rect x="205" y="190" width="30" height="30" fill="hsl(240 100% 50%)" />
  <rect x="240" y="190" width="30" height="30" fill="hsl(240 100% 50%)" />
  <rect x="275" y="190" width="30" height="30" fill="hsl(240 100% 50%)" />
  <rect x="310" y="190" width="30" height="30" fill="hsl(240 100% 50%)" />
  <rect x="345" y="190" width="30" height="30" fill="hsl(240 100% 50%)" />
  <rect x="380" y="190" width="30" height="30" fill="hsl(240 100% 50%)" />
  <rect x="415" y="190" width="30" height="30" fill="hsl(240 100% 50%)" />
  <rect x="450" y="190" width="30" height="30" fill="hsl(240 100% 50%)" />
  <rect x="485" y="190" width="30" height="30" fill="hsl(240 100% 50%)" />
  <rect x="520" y="190" width="30" height="30" fill="hsl(240 100% 50%)" />
  <rect x="555" y="190" width="30" height="30" fill="hsl(240 100% 50%)" />
  <rect x="590" y="190" width="30" height="30" fill="hsl(240 100% 50%)" />
  <rect x="625" y="190" width="30" height="30" fill="hsl(240 100% 50%)" />
  <rect x="660" y="190" width="30" height="30" fill="hsl(240 100% 50%)" />
  <rect x="695" y="190" width="30" height="30" fill="hsl(240 100% 50%)" />
  <rect x="730" y="190" width="30" height="30" fill="hsl(240 100% 50%)" />
  <rect x="765" y="190" width="30" height="30" fill="hsl(240 100% 50%)" />
  <rect x="800" y="190" width="30" height="30" fill="hsl(240 100% 50%)" />
  <rect x="835" y="190" width="30" height="30" fill="hsl(240 100% 50%)" />
  <rect x="100" y="225" width="30" height="30" fill="hsl(240 100% 96.19731208620183%)" />
  <rect x="135" y="225" width="30" height="30" fill="hsl(240 100% 85.88155919201378%)" />
  <rect x="170" y="225" width="30" height="30" fill="hsl(240 100% 87.62656057820622%)" />
  <rect x="240" y="225" width="30" height="30" fill="hsl(240 100% 90.26546683194294%)" />
  <rect x="310" y="225" width="30" height="30" fill="rgb(255 255 255 / 50%)" />
  <rect x="415" y="225" width="30" height="30" fill="hsl(240 100% 89.22886255512998%)" />
  <rect x="520" y="225" width="30" height="30" fill="hsl(240 100% 50%)" />
  <rect x="625" y="225" width="30" height="30" fill="rgb(255 255 255 / 50%)" />
  <rect x="730" y="225" width="30" height="30" fill="hsl(240 100% 92.19206167071967%)" />
  <rect x="765" y="225" width="30" height="30" fill="rgb(255 255 255 / 50%)" />
  <rect x="835" y="225" width="30" height="30" fill="hsl(240 100% 93.97395752706657%)" />
  <rect x="65" y="260" width="30" height="30" fill="hsl(240 100% 99.86004871215891%)" />
  <rect x="135" y="260" width="30" height="30" fill="hsl(240 100% 99.86238439145401%)" />
  <rect x="170" y="260" width="30" height="30" fill="hsl(240 100% 98.92803394369916%)" />
  <rect x="205" y="260" width="30" height="30" fill="rgb(255 255 255 / 50%)" />
  <rect x="240" y="260" width="30" height="30" fill="hsl(240 100% 87.11826340397869%)" />
  <rect x="310" y="260" width="30" height="30" fill="rgb(255 255 255 / 50%)" />
  <rect x="415" y="260" width="30" height="30" fill="hsl(240 100% 80.80275912650909%)" />
  <rect x="450" y="260" width="30" height="30" fill="rgb(255 255 255 / 50%)" />
  <rect x="485" y="260" width="30" height="30" fill="hsl(240 100% 50%)" />
  <rect x="520" y="260" width="30" height="30" fill="hsl(240 100% 72.46412596558034%)" />
  <rect x="625" y="260" width="30" height="30" fill="hsl(240 100% 97.02761252016259%)" />
  <rect x="695" y="260" width="30" height="30" fill="hsl(240 100% 94.15679840079355%)" />
  <rect x="65" y="295" width="30" height="30" fill="hsl(240 100% 86.09309637320649%)" />
  <rect x="100" y="295" width="30" height="30" fill="hsl(240 100% 97.56256619540164%)" />
  <rect x="135" y="295" width="30" height="30" fill="hsl(240 100% 95.41277160639628%)" />
  <rect x="170" y="295" width="30" height="30" fill="hsl(240 100% 86.86853832849167%)" />
  <rect x="205" y="295" width="30" height="30" fill="hsl(240 100% 99.48859489323202%)" />
  <rect x="240" y="295" width="30" height="30" fill="hsl(240 100% 50.513716500856525%)" />
  <rect x="275" y="295" width="30" height="30" fill="hsl(240 100% 50%)" />
  <rect x="310" y="295" width="30" height="30" fill="hsl(240 100% 99.49832154500984%)" />
  <rect x="345" y="295" width="30" height="30" fill="hsl(240 100% 94.72168381690068%)" />
  <rect x="415" y="295" width="30" height="30" fill="hsl(240 100% 55.13182645565943%)" />
  <rect x="450" y="295" width="30" height="30" fill="hsl(240 100% 99.33030386916396%)" />
  <rect x="485" y="295" width="30" height="30" fill="hsl(240 100% 88.21100226024265%)" />
  <rect x="520" y="295" width="30" height="30" fill="hsl(240 100% 57.76937468563816%)" />
  <rect x="695" y="295" width="30" height="30" fill="hsl(240 100% 97.61196629486125%)" />
  <rect x="800" y="295" width="30" height="30" fill="hsl(240 100% 99.57528033514014%)" />
  <rect x="835" y="295" width="30" height="30" fill="hsl(240 100% 99.95422588375102%)" />
  <rect x="65" y="330" width="30" height="30" fill="hsl(240 100% 87.36571932396588%)" />
  <rect x="100" y="330" width="30" height="30" fill="hsl(240 100% 94.27063200207836%)" />
  <rect x="135" y="330" width="30" height="30" fill="hsl(240 100% 97.12097816781495%)" />
  <rect x="170" y="330" width="30" height="30" fill="hsl(240 100% 87.06744438808336%)" />
  <rect x="205" y="330" width="30" height="30" fill="hsl(240 100% 99.2118198774304%)" />
  <rect x="240" y="330" width="30" height="30" fill="hsl(240 100% 83.78137064158506%)" />
  <rect x="275" y="330" width="30" height="30" fill="hsl(240 100% 88.28058537818156%)" />
  <rect x="310" y="330" width="30" height="30" fill="rgb(255 255 255 / 50%)" />
  <rect x="345" y="330" width="30" height="30" fill="hsl(240 100% 97.27167770904336%)" />
  <rect x="415" y="330" width="30" height="30" fill="hsl(240 100% 85.92392529199647%)" />
  <rect x="450" y="330" width="30" height="30" fill="hsl(240 100% 99.82961856652823%)" />
  <rect x="485" y="330" width="30" height="30" fill="hsl(240 100% 71.2683912316764%)" />
  <rect x="520" y="330" width="30" height="30" fill="hsl(240 100% 70.90067355517812%)" />
  <rect x="590" y="330" width="30" height="30" fill="hsl(240 100% 93.8367154177175%)" />
  <rect x="625" y="330" width="30" height="30" fill="hsl(240 100% 50%)" />
  <rect x="765" y="330" width="30" height="30" fill="hsl(240 100% 95.47867320846106%)" />
  <rect x="800" y="330" width="30" height="30" fill="hsl(240 100% 99.2152204539555%)" />
  <rect x="835" y="330" width="30" height="30" fill="hsl(240 100% 81.54488860913162%)" />
  <rect x="65" y="365" width="30" height="30" fill="hsl(240 100% 59.86238115635994%)" />
  <rect x="100" y="365" width="30" height="30" fill="hsl(240 100% 72.84444185214195%)" />
  <rect x="135" y="365" width="30" height="30" fill="hsl(240 100% 82.95888670358285%)" />
  <rect x="170" y="365" width="30" height="30" fill="hsl(240 100% 50%)" />
  <rect x="205" y="365" width="30" height="30" fill="hsl(240 100% 96.2524502239806%)" />
  <rect x="240" y="365" width="30" height="30" fill="hsl(240 100% 61.5830488376788%)" />
  <rect x="275" y="365" width="30" height="30" fill="hsl(240 100% 92.57979457330603%)" />
  <rect x="310" y="365" width="30" height="30" fill="hsl(240 100% 99.86737880310804%)" />
  <rect x="415" y="365" width="30" height="30" fill="hsl(240 100% 68.05117308381335%)" />
  <rect x="520" y="365" width="30" height="30" fill="hsl(240 100% 86.76240624723786%)" />
  <rect x="625" y="365" width="30" height="30" fill="hsl(240 100% 99.65125560883585%)" />
  <rect x="730" y="365" width="30" height="30" fill="hsl(240 100% 65.01441021683297%)" />
  <rect x="765" y="365" width="30" height="30" fill="hsl(240 100% 98.24737544237891%)" />
  <rect x="835" y="365" width="30" height="30" fill="hsl(240 100% 98.76589189510743%)" />
  <rect x="65" y="400" width="30" height="30" fill="hsl(240 100% 97.55690206026537%)" />
  <rect x="100" y="400" width="30" height="30" fill="hsl(240 100% 99.24529631172885%)" />
  <rect x="135" y="400" width="30" height="30" fill="hsl(240 100% 99.55560716223813%)" />
  <rect x="170" y="400" width="30" height="30" fill="hsl(240 100% 92.1521019619897%)" />
  <rect x="205" y="400" width="30" height="30" fill="hsl(240 100% 99.00974712017502%)" />
  <rect x="240" y="400" width="30" height="30" fill="hsl(240 100% 81.54061253171453%)" />
  <rect x="275" y="400" width="30" height="30" fill="hsl(240 100% 93.94812646593991%)" />
  <rect x="310" y="400" width="30" height="30" fill="rgb(255 255 255 / 50%)" />
  <rect x="380" y="400" width="30" height="30" fill="rgb(255 255 255 / 50%)" />
  <rect x="415" y="400" width="30" height="30" fill="hsl(240 100% 92.19590959224571%)" />
  <rect x="450" y="400" width="30" height="30" fill="hsl(240 100% 99.9669262801932%)" />
  <rect x="485" y="400" width="30" height="30" fill="hsl(240 100% 71.90951652936418%)" />
  <rect x="520" y="400" width="30" height="30" fill="hsl(240 100% 50%)" />
  <rect x="555" y="400" width="30" height="30" fill="hsl(240 100% 98.88646982118347%)" />
  <rect x="660" y="400" width="30" height="30" fill="rgb(255 255 255 / 50%)" />
  <rect x="835" y="400" width="30" height="30" fill="hsl(240 100% 98.8368833257256%)" />
  <rect x="65" y="435" width="30" height="30" fill="hsl(240 100% 93.27962107966906%)" />
  <rect x="240" y="435" width="30" height="30" fill="hsl(240 100% 50%)" />
  <rect x="310" y="435" width="30" height="30" fill="hsl(240 100% 93.8567283281204%)" />
  <rect x="415" y="435" width="30" height="30" fill="hsl(240 100% 86.9938175951264%)" />
  <rect x="450" y="435" width="30" height="30" fill="hsl(240 100% 99.7787796069369%)" />
  <rect x="65" y="470" width="30" height="30" fill="hsl(240 100% 50%)" />
  <rect x="240" y="470" width="30" height="30" fill="hsl(240 100% 50.31641615870973%)" />
  <rect x="310" y="470" width="30" height="30" fill="hsl(240 100% 96.96480197916179%)" />
  <rect x="415" y="470" width="30" height="30" fill="hsl(240 100% 89.17345249047904%)" />
  <rect x="450" y="470" width="30" height="30" fill="hsl(240 100% 99.57535874552174%)" />
</svg>
