<svg xmlns="http://www.w3.org/2000/svg" viewBox="0 0 870 505">
  <rect x="0" y="0" width="870" height="505" rx="5" ry="5" fill="#222" />
  <text x="60" y="100" fill="white" font-family="sans-serif" font-weight="bold" font-size="12" text-anchor="end" dominant-baseline="middle">ba</text>
  <text x="60" y="135" fill="white" font-family="sans-serif" font-weight="bold" font-size="12" text-anchor="end" dominant-baseline="middle">det</text>
  <text x="60" y="170" fill="white" font-family="sans-serif" font-weight="bold" font-size="12" text-anchor="end" dominant-baseline="middle">gmm</text>
  <text x="60" y="205" fill="white" font-family="sans-serif" font-weight="bold" font-size="12" text-anchor="end" dominant-baseline="middle">hello</text>
  <text x="60" y="240" fill="white" font-family="sans-serif" font-weight="bold" font-size="12" text-anchor="end" dominant-baseline="middle">ht</text>
  <text x="60" y="275" fill="white" font-family="sans-serif" font-weight="bold" font-size="12" text-anchor="end" dominant-baseline="middle">kmeans</text>
  <text x="60" y="310" fill="white" font-family="sans-serif" font-weight="bold" font-size="12" text-anchor="end" dominant-baseline="middle">llsq</text>
  <text x="60" y="345" fill="white" font-family="sans-serif" font-weight="bold" font-size="12" text-anchor="end" dominant-baseline="middle">lse</text>
  <text x="60" y="380" fill="white" font-family="sans-serif" font-weight="bold" font-size="12" text-anchor="end" dominant-baseline="middle">lstm</text>
  <text x="60" y="415" fill="white" font-family="sans-serif" font-weight="bold" font-size="12" text-anchor="end" dominant-baseline="middle">ode</text>
  <text x="60" y="450" fill="white" font-family="sans-serif" font-weight="bold" font-size="12" text-anchor="end" dominant-baseline="middle">particle</text>
  <text x="60" y="485" fill="white" font-family="sans-serif" font-weight="bold" font-size="12" text-anchor="end" dominant-baseline="middle">saddle</text>
  <text x="80" y="80" fill="white" font-family="sans-serif" font-weight="bold" font-size="12" text-anchor="end" dominant-baseline="middle" transform="rotate(90 80 80)">ad-hpp</text>
  <text x="115" y="80" fill="white" font-family="sans-serif" font-weight="bold" font-size="12" text-anchor="end" dominant-baseline="middle" transform="rotate(90 115 80)">adept</text>
  <text x="150" y="80" fill="white" font-family="sans-serif" font-weight="bold" font-size="12" text-anchor="end" dominant-baseline="middle" transform="rotate(90 150 80)">adol-c</text>
  <text x="185" y="80" fill="white" font-family="sans-serif" font-weight="bold" font-size="12" text-anchor="end" dominant-baseline="middle" transform="rotate(90 185 80)">codipack</text>
  <text x="220" y="80" fill="white" font-family="sans-serif" font-weight="bold" font-size="12" text-anchor="end" dominant-baseline="middle" transform="rotate(90 220 80)">cppad</text>
  <text x="255" y="80" fill="white" font-family="sans-serif" font-weight="bold" font-size="12" text-anchor="end" dominant-baseline="middle" transform="rotate(90 255 80)">enzyme</text>
  <text x="290" y="80" fill="white" font-family="sans-serif" font-weight="bold" font-size="12" text-anchor="end" dominant-baseline="middle" transform="rotate(90 290 80)">enzyme-jl</text>
  <text x="325" y="80" fill="white" font-family="sans-serif" font-weight="bold" font-size="12" text-anchor="end" dominant-baseline="middle" transform="rotate(90 325 80)">finite</text>
  <text x="360" y="80" fill="white" font-family="sans-serif" font-weight="bold" font-size="12" text-anchor="end" dominant-baseline="middle" transform="rotate(90 360 80)">floretta</text>
  <text x="395" y="80" fill="white" font-family="sans-serif" font-weight="bold" font-size="12" text-anchor="end" dominant-baseline="middle" transform="rotate(90 395 80)">forwarddiff-jl</text>
  <text x="430" y="80" fill="white" font-family="sans-serif" font-weight="bold" font-size="12" text-anchor="end" dominant-baseline="middle" transform="rotate(90 430 80)">futhark</text>
  <text x="465" y="80" fill="white" font-family="sans-serif" font-weight="bold" font-size="12" text-anchor="end" dominant-baseline="middle" transform="rotate(90 465 80)">haskell</text>
  <text x="500" y="80" fill="white" font-family="sans-serif" font-weight="bold" font-size="12" text-anchor="end" dominant-baseline="middle" transform="rotate(90 500 80)">jax</text>
  <text x="535" y="80" fill="white" font-family="sans-serif" font-weight="bold" font-size="12" text-anchor="end" dominant-baseline="middle" transform="rotate(90 535 80)">manual</text>
  <text x="570" y="80" fill="white" font-family="sans-serif" font-weight="bold" font-size="12" text-anchor="end" dominant-baseline="middle" transform="rotate(90 570 80)">mooncake-jl</text>
  <text x="605" y="80" fill="white" font-family="sans-serif" font-weight="bold" font-size="12" text-anchor="end" dominant-baseline="middle" transform="rotate(90 605 80)">ocaml</text>
  <text x="640" y="80" fill="white" font-family="sans-serif" font-weight="bold" font-size="12" text-anchor="end" dominant-baseline="middle" transform="rotate(90 640 80)">pytorch</text>
  <text x="675" y="80" fill="white" font-family="sans-serif" font-weight="bold" font-size="12" text-anchor="end" dominant-baseline="middle" transform="rotate(90 675 80)">reversediff-jl</text>
  <text x="710" y="80" fill="white" font-family="sans-serif" font-weight="bold" font-size="12" text-anchor="end" dominant-baseline="middle" transform="rotate(90 710 80)">scilean</text>
  <text x="745" y="80" fill="white" font-family="sans-serif" font-weight="bold" font-size="12" text-anchor="end" dominant-baseline="middle" transform="rotate(90 745 80)">tapenade</text>
  <text x="780" y="80" fill="white" font-family="sans-serif" font-weight="bold" font-size="12" text-anchor="end" dominant-baseline="middle" transform="rotate(90 780 80)">tensorflow</text>
  <text x="815" y="80" fill="white" font-family="sans-serif" font-weight="bold" font-size="12" text-anchor="end" dominant-baseline="middle" transform="rotate(90 815 80)">tensorflow-js</text>
  <text x="850" y="80" fill="white" font-family="sans-serif" font-weight="bold" font-size="12" text-anchor="end" dominant-baseline="middle" transform="rotate(90 850 80)">zygote</text>
  <rect x="65" y="85" width="30" height="30" fill="hsl(240 100% 80.9889588412428%)" />
  <rect x="100" y="85" width="30" height="30" fill="hsl(240 100% 82.67519488965387%)" />
  <rect x="135" y="85" width="30" height="30" fill="hsl(240 100% 97.98837371887247%)" />
  <rect x="170" y="85" width="30" height="30" fill="hsl(240 100% 81.94347517308663%)" />
  <rect x="205" y="85" width="30" height="30" fill="hsl(240 100% 98.9823443097254%)" />
  <rect x="240" y="85" width="30" height="30" fill="hsl(240 100% 50%)" />
  <rect x="310" y="85" width="30" height="30" fill="hsl(240 100% 93.07937147800564%)" />
  <rect x="415" y="85" width="30" height="30" fill="hsl(240 100% 67.82163220118935%)" />
  <rect x="520" y="85" width="30" height="30" fill="hsl(240 100% 54.29726252219615%)" />
  <rect x="625" y="85" width="30" height="30" fill="rgb(255 255 255 / 50%)" />
  <rect x="730" y="85" width="30" height="30" fill="hsl(240 100% 74.36355475511253%)" />
  <rect x="765" y="85" width="30" height="30" fill="rgb(255 255 255 / 50%)" />
  <rect x="835" y="85" width="30" height="30" fill="hsl(240 100% 99.757014920115%)" />
  <rect x="65" y="120" width="30" height="30" fill="hsl(240 100% 50%)" />
  <rect x="100" y="120" width="30" height="30" fill="hsl(240 100% 86.11444667631562%)" />
  <rect x="135" y="120" width="30" height="30" fill="hsl(240 100% 86.48948215552993%)" />
  <rect x="170" y="120" width="30" height="30" fill="hsl(240 100% 54.60692199828679%)" />
  <rect x="205" y="120" width="30" height="30" fill="hsl(240 100% 93.13305709873475%)" />
  <rect x="240" y="120" width="30" height="30" fill="hsl(240 100% 92.72326899951027%)" />
  <rect x="275" y="120" width="30" height="30" fill="hsl(240 100% 99.4021741960788%)" />
  <rect x="310" y="120" width="30" height="30" fill="hsl(240 100% 99.06364562309933%)" />
  <rect x="380" y="120" width="30" height="30" fill="hsl(240 100% 93.76421466756169%)" />
  <rect x="415" y="120" width="30" height="30" fill="hsl(240 100% 94.97075005306128%)" />
  <rect x="450" y="120" width="30" height="30" fill="hsl(240 100% 98.07861774120336%)" />
  <rect x="520" y="120" width="30" height="30" fill="hsl(240 100% 81.08762721452604%)" />
  <rect x="555" y="120" width="30" height="30" fill="hsl(240 100% 97.21822374762706%)" />
  <rect x="660" y="120" width="30" height="30" fill="rgb(255 255 255 / 50%)" />
  <rect x="835" y="120" width="30" height="30" fill="rgb(255 255 255 / 50%)" />
  <rect x="65" y="155" width="30" height="30" fill="hsl(240 100% 98.35094329997986%)" />
  <rect x="100" y="155" width="30" height="30" fill="hsl(240 100% 98.72857927329956%)" />
  <rect x="135" y="155" width="30" height="30" fill="hsl(240 100% 99.12912627471347%)" />
  <rect x="170" y="155" width="30" height="30" fill="hsl(240 100% 98.04100243888733%)" />
  <rect x="205" y="155" width="30" height="30" fill="hsl(240 100% 99.84895377624314%)" />
  <rect x="240" y="155" width="30" height="30" fill="hsl(240 100% 91.52912283570048%)" />
  <rect x="275" y="155" width="30" height="30" fill="hsl(240 100% 92.58579868492916%)" />
  <rect x="310" y="155" width="30" height="30" fill="rgb(255 255 255 / 50%)" />
  <rect x="415" y="155" width="30" height="30" fill="hsl(240 100% 94.19788405868184%)" />
  <rect x="485" y="155" width="30" height="30" fill="hsl(240 100% 50%)" />
  <rect x="520" y="155" width="30" height="30" fill="hsl(240 100% 81.16085586894422%)" />
  <rect x="590" y="155" width="30" height="30" fill="hsl(240 100% 99.57079039570041%)" />
  <rect x="625" y="155" width="30" height="30" fill="hsl(240 100% 81.63228033226616%)" />
  <rect x="695" y="155" width="30" height="30" fill="hsl(240 100% 95.49465424107075%)" />
  <rect x="730" y="155" width="30" height="30" fill="hsl(240 100% 84.03450762336905%)" />
  <rect x="765" y="155" width="30" height="30" fill="hsl(240 100% 99.59807517308441%)" />
  <rect x="835" y="155" width="30" height="30" fill="hsl(240 100% 96.25068293056718%)" />
  <rect x="65" y="190" width="30" height="30" fill="hsl(240 100% 50%)" />
  <rect x="100" y="190" width="30" height="30" fill="hsl(240 100% 50%)" />
  <rect x="135" y="190" width="30" height="30" fill="hsl(240 100% 50%)" />
  <rect x="170" y="190" width="30" height="30" fill="hsl(240 100% 50%)" />
  <rect x="205" y="190" width="30" height="30" fill="hsl(240 100% 50%)" />
  <rect x="240" y="190" width="30" height="30" fill="hsl(240 100% 50%)" />
  <rect x="275" y="190" width="30" height="30" fill="hsl(240 100% 50%)" />
  <rect x="310" y="190" width="30" height="30" fill="hsl(240 100% 50%)" />
  <rect x="345" y="190" width="30" height="30" fill="hsl(240 100% 50%)" />
  <rect x="380" y="190" width="30" height="30" fill="hsl(240 100% 50%)" />
  <rect x="415" y="190" width="30" height="30" fill="hsl(240 100% 50%)" />
  <rect x="450" y="190" width="30" height="30" fill="hsl(240 100% 50%)" />
  <rect x="485" y="190" width="30" height="30" fill="hsl(240 100% 50%)" />
  <rect x="520" y="190" width="30" height="30" fill="hsl(240 100% 50%)" />
  <rect x="555" y="190" width="30" height="30" fill="hsl(240 100% 50%)" />
  <rect x="590" y="190" width="30" height="30" fill="hsl(240 100% 50%)" />
  <rect x="625" y="190" width="30" height="30" fill="hsl(240 100% 50%)" />
  <rect x="660" y="190" width="30" height="30" fill="hsl(240 100% 50%)" />
  <rect x="695" y="190" width="30" height="30" fill="hsl(240 100% 50%)" />
  <rect x="730" y="190" width="30" height="30" fill="hsl(240 100% 50%)" />
  <rect x="765" y="190" width="30" height="30" fill="hsl(240 100% 50%)" />
  <rect x="800" y="190" width="30" height="30" fill="hsl(240 100% 50%)" />
  <rect x="835" y="190" width="30" height="30" fill="hsl(240 100% 50%)" />
  <rect x="100" y="225" width="30" height="30" fill="hsl(240 100% 95.98528837306888%)" />
  <rect x="135" y="225" width="30" height="30" fill="hsl(240 100% 86.08854768191398%)" />
  <rect x="170" y="225" width="30" height="30" fill="hsl(240 100% 88.12352954683115%)" />
  <rect x="240" y="225" width="30" height="30" fill="hsl(240 100% 91.81838582490589%)" />
  <rect x="310" y="225" width="30" height="30" fill="rgb(255 255 255 / 50%)" />
  <rect x="415" y="225" width="30" height="30" fill="hsl(240 100% 89.30784310733267%)" />
  <rect x="520" y="225" width="30" height="30" fill="hsl(240 100% 50%)" />
  <rect x="625" y="225" width="30" height="30" fill="rgb(255 255 255 / 50%)" />
  <rect x="730" y="225" width="30" height="30" fill="hsl(240 100% 92.28898838917522%)" />
  <rect x="765" y="225" width="30" height="30" fill="rgb(255 255 255 / 50%)" />
  <rect x="835" y="225" width="30" height="30" fill="hsl(240 100% 93.33994461548107%)" />
  <rect x="135" y="260" width="30" height="30" fill="hsl(240 100% 99.87700295269298%)" />
  <rect x="170" y="260" width="30" height="30" fill="hsl(240 100% 98.88508875579284%)" />
  <rect x="205" y="260" width="30" height="30" fill="rgb(255 255 255 / 50%)" />
  <rect x="240" y="260" width="30" height="30" fill="hsl(240 100% 87.01597063817987%)" />
  <rect x="310" y="260" width="30" height="30" fill="rgb(255 255 255 / 50%)" />
  <rect x="380" y="260" width="30" height="30" fill="rgb(255 255 255 / 50%)" />
  <rect x="415" y="260" width="30" height="30" fill="hsl(240 100% 80.85733977595504%)" />
  <rect x="450" y="260" width="30" height="30" fill="rgb(255 255 255 / 50%)" />
  <rect x="485" y="260" width="30" height="30" fill="hsl(240 100% 50%)" />
  <rect x="520" y="260" width="30" height="30" fill="hsl(240 100% 72.5027174065941%)" />
  <rect x="625" y="260" width="30" height="30" fill="hsl(240 100% 97.13246105857984%)" />
  <rect x="660" y="260" width="30" height="30" fill="rgb(255 255 255 / 50%)" />
  <rect x="695" y="260" width="30" height="30" fill="hsl(240 100% 94.13820007958438%)" />
  <rect x="65" y="295" width="30" height="30" fill="hsl(240 100% 85.85733713500633%)" />
  <rect x="100" y="295" width="30" height="30" fill="hsl(240 100% 97.37290015021219%)" />
  <rect x="135" y="295" width="30" height="30" fill="hsl(240 100% 95.06015289665339%)" />
  <rect x="170" y="295" width="30" height="30" fill="hsl(240 100% 89.25772419860262%)" />
  <rect x="205" y="295" width="30" height="30" fill="hsl(240 100% 99.48168831443247%)" />
  <rect x="240" y="295" width="30" height="30" fill="hsl(240 100% 50%)" />
  <rect x="275" y="295" width="30" height="30" fill="hsl(240 100% 55.816159712581765%)" />
  <rect x="310" y="295" width="30" height="30" fill="hsl(240 100% 99.49335294889134%)" />
  <rect x="345" y="295" width="30" height="30" fill="hsl(240 100% 94.66854175991806%)" />
  <rect x="415" y="295" width="30" height="30" fill="hsl(240 100% 54.690707108741165%)" />
  <rect x="450" y="295" width="30" height="30" fill="hsl(240 100% 99.27093847236122%)" />
  <rect x="485" y="295" width="30" height="30" fill="hsl(240 100% 88.11788618972079%)" />
  <rect x="520" y="295" width="30" height="30" fill="hsl(240 100% 57.360777467286276%)" />
  <rect x="695" y="295" width="30" height="30" fill="hsl(240 100% 97.5809520825414%)" />
  <rect x="800" y="295" width="30" height="30" fill="hsl(240 100% 99.5761250245685%)" />
  <rect x="835" y="295" width="30" height="30" fill="hsl(240 100% 99.95892548633111%)" />
  <rect x="65" y="330" width="30" height="30" fill="hsl(240 100% 87.64581710515023%)" />
  <rect x="100" y="330" width="30" height="30" fill="hsl(240 100% 94.31599423205614%)" />
  <rect x="135" y="330" width="30" height="30" fill="hsl(240 100% 96.98571236360846%)" />
  <rect x="170" y="330" width="30" height="30" fill="hsl(240 100% 87.08801669838621%)" />
  <rect x="205" y="330" width="30" height="30" fill="hsl(240 100% 99.05770184903413%)" />
  <rect x="240" y="330" width="30" height="30" fill="hsl(240 100% 80.1033104034154%)" />
  <rect x="275" y="330" width="30" height="30" fill="hsl(240 100% 87.88097468187912%)" />
  <rect x="310" y="330" width="30" height="30" fill="rgb(255 255 255 / 50%)" />
  <rect x="345" y="330" width="30" height="30" fill="hsl(240 100% 97.20862201098683%)" />
  <rect x="415" y="330" width="30" height="30" fill="hsl(240 100% 85.91536514402479%)" />
  <rect x="450" y="330" width="30" height="30" fill="hsl(240 100% 99.81822602055992%)" />
  <rect x="485" y="330" width="30" height="30" fill="hsl(240 100% 71.99077568531533%)" />
  <rect x="520" y="330" width="30" height="30" fill="hsl(240 100% 70.74982554137176%)" />
  <rect x="590" y="330" width="30" height="30" fill="hsl(240 100% 93.91535854906928%)" />
  <rect x="625" y="330" width="30" height="30" fill="hsl(240 100% 50%)" />
  <rect x="765" y="330" width="30" height="30" fill="hsl(240 100% 94.89433218566167%)" />
  <rect x="800" y="330" width="30" height="30" fill="hsl(240 100% 99.24119865585287%)" />
  <rect x="835" y="330" width="30" height="30" fill="hsl(240 100% 81.76716292075818%)" />
  <rect x="65" y="365" width="30" height="30" fill="hsl(240 100% 56.79447727179218%)" />
  <rect x="100" y="365" width="30" height="30" fill="hsl(240 100% 70.36958835076433%)" />
  <rect x="135" y="365" width="30" height="30" fill="hsl(240 100% 81.79956249264073%)" />
  <rect x="170" y="365" width="30" height="30" fill="hsl(240 100% 50%)" />
  <rect x="205" y="365" width="30" height="30" fill="hsl(240 100% 96.06522282013049%)" />
  <rect x="240" y="365" width="30" height="30" fill="hsl(240 100% 59.79586723702335%)" />
  <rect x="275" y="365" width="30" height="30" fill="hsl(240 100% 90.96151283721873%)" />
  <rect x="310" y="365" width="30" height="30" fill="hsl(240 100% 99.85946722389214%)" />
  <rect x="415" y="365" width="30" height="30" fill="hsl(240 100% 66.52933247316864%)" />
  <rect x="520" y="365" width="30" height="30" fill="hsl(240 100% 86.140716220974%)" />
  <rect x="625" y="365" width="30" height="30" fill="hsl(240 100% 99.62528837412543%)" />
  <rect x="730" y="365" width="30" height="30" fill="hsl(240 100% 63.44789688967587%)" />
  <rect x="765" y="365" width="30" height="30" fill="hsl(240 100% 98.1789927689208%)" />
  <rect x="835" y="365" width="30" height="30" fill="hsl(240 100% 98.75689328213835%)" />
  <rect x="65" y="400" width="30" height="30" fill="hsl(240 100% 98.1043006814838%)" />
  <rect x="100" y="400" width="30" height="30" fill="hsl(240 100% 99.3362578109945%)" />
  <rect x="135" y="400" width="30" height="30" fill="hsl(240 100% 99.6617361784343%)" />
  <rect x="170" y="400" width="30" height="30" fill="hsl(240 100% 94.16311422255379%)" />
  <rect x="205" y="400" width="30" height="30" fill="hsl(240 100% 99.23353364002149%)" />
  <rect x="240" y="400" width="30" height="30" fill="hsl(240 100% 88.20812988040943%)" />
  <rect x="275" y="400" width="30" height="30" fill="hsl(240 100% 95.13823910218434%)" />
  <rect x="310" y="400" width="30" height="30" fill="rgb(255 255 255 / 50%)" />
  <rect x="380" y="400" width="30" height="30" fill="rgb(255 255 255 / 50%)" />
  <rect x="415" y="400" width="30" height="30" fill="hsl(240 100% 94.00405902707472%)" />
  <rect x="450" y="400" width="30" height="30" fill="hsl(240 100% 99.9713707053313%)" />
  <rect x="485" y="400" width="30" height="30" fill="hsl(240 100% 78.75136737324767%)" />
  <rect x="520" y="400" width="30" height="30" fill="hsl(240 100% 50%)" />
  <rect x="555" y="400" width="30" height="30" fill="hsl(240 100% 99.12504259790704%)" />
  <rect x="660" y="400" width="30" height="30" fill="rgb(255 255 255 / 50%)" />
  <rect x="835" y="400" width="30" height="30" fill="hsl(240 100% 99.08307891304746%)" />
  <rect x="65" y="435" width="30" height="30" fill="hsl(240 100% 93.31831029076368%)" />
  <rect x="240" y="435" width="30" height="30" fill="hsl(240 100% 50%)" />
  <rect x="310" y="435" width="30" height="30" fill="hsl(240 100% 93.86148390990869%)" />
  <rect x="415" y="435" width="30" height="30" fill="hsl(240 100% 87.0085457603762%)" />
  <rect x="450" y="435" width="30" height="30" fill="hsl(240 100% 99.79788578593751%)" />
  <rect x="65" y="470" width="30" height="30" fill="hsl(240 100% 50.044115741411254%)" />
  <rect x="240" y="470" width="30" height="30" fill="hsl(240 100% 50%)" />
  <rect x="310" y="470" width="30" height="30" fill="hsl(240 100% 96.98856950719059%)" />
  <rect x="415" y="470" width="30" height="30" fill="hsl(240 100% 89.44085672993421%)" />
  <rect x="450" y="470" width="30" height="30" fill="hsl(240 100% 99.5716676499189%)" />
</svg>
