<svg xmlns="http://www.w3.org/2000/svg" viewBox="0 0 870 505">
  <rect x="0" y="0" width="870" height="505" rx="5" ry="5" fill="#222" />
  <text x="60" y="100" fill="white" font-family="sans-serif" font-weight="bold" font-size="12" text-anchor="end" dominant-baseline="middle">ba</text>
  <text x="60" y="135" fill="white" font-family="sans-serif" font-weight="bold" font-size="12" text-anchor="end" dominant-baseline="middle">det</text>
  <text x="60" y="170" fill="white" font-family="sans-serif" font-weight="bold" font-size="12" text-anchor="end" dominant-baseline="middle">gmm</text>
  <text x="60" y="205" fill="white" font-family="sans-serif" font-weight="bold" font-size="12" text-anchor="end" dominant-baseline="middle">hello</text>
  <text x="60" y="240" fill="white" font-family="sans-serif" font-weight="bold" font-size="12" text-anchor="end" dominant-baseline="middle">ht</text>
  <text x="60" y="275" fill="white" font-family="sans-serif" font-weight="bold" font-size="12" text-anchor="end" dominant-baseline="middle">kmeans</text>
  <text x="60" y="310" fill="white" font-family="sans-serif" font-weight="bold" font-size="12" text-anchor="end" dominant-baseline="middle">llsq</text>
  <text x="60" y="345" fill="white" font-family="sans-serif" font-weight="bold" font-size="12" text-anchor="end" dominant-baseline="middle">lse</text>
  <text x="60" y="380" fill="white" font-family="sans-serif" font-weight="bold" font-size="12" text-anchor="end" dominant-baseline="middle">lstm</text>
  <text x="60" y="415" fill="white" font-family="sans-serif" font-weight="bold" font-size="12" text-anchor="end" dominant-baseline="middle">ode</text>
  <text x="60" y="450" fill="white" font-family="sans-serif" font-weight="bold" font-size="12" text-anchor="end" dominant-baseline="middle">particle</text>
  <text x="60" y="485" fill="white" font-family="sans-serif" font-weight="bold" font-size="12" text-anchor="end" dominant-baseline="middle">saddle</text>
  <text x="80" y="80" fill="white" font-family="sans-serif" font-weight="bold" font-size="12" text-anchor="end" dominant-baseline="middle" transform="rotate(90 80 80)">ad-hpp</text>
  <text x="115" y="80" fill="white" font-family="sans-serif" font-weight="bold" font-size="12" text-anchor="end" dominant-baseline="middle" transform="rotate(90 115 80)">adept</text>
  <text x="150" y="80" fill="white" font-family="sans-serif" font-weight="bold" font-size="12" text-anchor="end" dominant-baseline="middle" transform="rotate(90 150 80)">adol-c</text>
  <text x="185" y="80" fill="white" font-family="sans-serif" font-weight="bold" font-size="12" text-anchor="end" dominant-baseline="middle" transform="rotate(90 185 80)">codipack</text>
  <text x="220" y="80" fill="white" font-family="sans-serif" font-weight="bold" font-size="12" text-anchor="end" dominant-baseline="middle" transform="rotate(90 220 80)">cppad</text>
  <text x="255" y="80" fill="white" font-family="sans-serif" font-weight="bold" font-size="12" text-anchor="end" dominant-baseline="middle" transform="rotate(90 255 80)">enzyme</text>
  <text x="290" y="80" fill="white" font-family="sans-serif" font-weight="bold" font-size="12" text-anchor="end" dominant-baseline="middle" transform="rotate(90 290 80)">enzyme-jl</text>
  <text x="325" y="80" fill="white" font-family="sans-serif" font-weight="bold" font-size="12" text-anchor="end" dominant-baseline="middle" transform="rotate(90 325 80)">finite</text>
  <text x="360" y="80" fill="white" font-family="sans-serif" font-weight="bold" font-size="12" text-anchor="end" dominant-baseline="middle" transform="rotate(90 360 80)">floretta</text>
  <text x="395" y="80" fill="white" font-family="sans-serif" font-weight="bold" font-size="12" text-anchor="end" dominant-baseline="middle" transform="rotate(90 395 80)">forwarddiff-jl</text>
  <text x="430" y="80" fill="white" font-family="sans-serif" font-weight="bold" font-size="12" text-anchor="end" dominant-baseline="middle" transform="rotate(90 430 80)">futhark</text>
  <text x="465" y="80" fill="white" font-family="sans-serif" font-weight="bold" font-size="12" text-anchor="end" dominant-baseline="middle" transform="rotate(90 465 80)">haskell</text>
  <text x="500" y="80" fill="white" font-family="sans-serif" font-weight="bold" font-size="12" text-anchor="end" dominant-baseline="middle" transform="rotate(90 500 80)">jax</text>
  <text x="535" y="80" fill="white" font-family="sans-serif" font-weight="bold" font-size="12" text-anchor="end" dominant-baseline="middle" transform="rotate(90 535 80)">manual</text>
  <text x="570" y="80" fill="white" font-family="sans-serif" font-weight="bold" font-size="12" text-anchor="end" dominant-baseline="middle" transform="rotate(90 570 80)">mooncake-jl</text>
  <text x="605" y="80" fill="white" font-family="sans-serif" font-weight="bold" font-size="12" text-anchor="end" dominant-baseline="middle" transform="rotate(90 605 80)">ocaml</text>
  <text x="640" y="80" fill="white" font-family="sans-serif" font-weight="bold" font-size="12" text-anchor="end" dominant-baseline="middle" transform="rotate(90 640 80)">pytorch</text>
  <text x="675" y="80" fill="white" font-family="sans-serif" font-weight="bold" font-size="12" text-anchor="end" dominant-baseline="middle" transform="rotate(90 675 80)">reversediff-jl</text>
  <text x="710" y="80" fill="white" font-family="sans-serif" font-weight="bold" font-size="12" text-anchor="end" dominant-baseline="middle" transform="rotate(90 710 80)">scilean</text>
  <text x="745" y="80" fill="white" font-family="sans-serif" font-weight="bold" font-size="12" text-anchor="end" dominant-baseline="middle" transform="rotate(90 745 80)">tapenade</text>
  <text x="780" y="80" fill="white" font-family="sans-serif" font-weight="bold" font-size="12" text-anchor="end" dominant-baseline="middle" transform="rotate(90 780 80)">tensorflow</text>
  <text x="815" y="80" fill="white" font-family="sans-serif" font-weight="bold" font-size="12" text-anchor="end" dominant-baseline="middle" transform="rotate(90 815 80)">tensorflow-js</text>
  <text x="850" y="80" fill="white" font-family="sans-serif" font-weight="bold" font-size="12" text-anchor="end" dominant-baseline="middle" transform="rotate(90 850 80)">zygote</text>
  <rect x="65" y="85" width="30" height="30" fill="hsl(240 100% 80.64664630547477%)" />
  <rect x="100" y="85" width="30" height="30" fill="hsl(240 100% 82.28740280216866%)" />
  <rect x="135" y="85" width="30" height="30" fill="hsl(240 100% 97.90348740090317%)" />
  <rect x="170" y="85" width="30" height="30" fill="hsl(240 100% 81.55560465651362%)" />
  <rect x="205" y="85" width="30" height="30" fill="hsl(240 100% 98.95569869084878%)" />
  <rect x="240" y="85" width="30" height="30" fill="hsl(240 100% 50%)" />
  <rect x="310" y="85" width="30" height="30" fill="hsl(240 100% 92.87974662958548%)" />
  <rect x="415" y="85" width="30" height="30" fill="hsl(240 100% 66.97967192708239%)" />
  <rect x="520" y="85" width="30" height="30" fill="hsl(240 100% 54.07899246867675%)" />
  <rect x="625" y="85" width="30" height="30" fill="rgb(255 255 255 / 50%)" />
  <rect x="730" y="85" width="30" height="30" fill="hsl(240 100% 73.92566279935754%)" />
  <rect x="765" y="85" width="30" height="30" fill="rgb(255 255 255 / 50%)" />
  <rect x="835" y="85" width="30" height="30" fill="hsl(240 100% 99.72703995484372%)" />
  <rect x="65" y="120" width="30" height="30" fill="hsl(240 100% 50%)" />
  <rect x="100" y="120" width="30" height="30" fill="hsl(240 100% 82.86211242108428%)" />
  <rect x="135" y="120" width="30" height="30" fill="hsl(240 100% 85.50407033050108%)" />
  <rect x="170" y="120" width="30" height="30" fill="hsl(240 100% 51.50840605899007%)" />
  <rect x="205" y="120" width="30" height="30" fill="hsl(240 100% 92.6471183145235%)" />
  <rect x="240" y="120" width="30" height="30" fill="hsl(240 100% 91.49916255277253%)" />
  <rect x="275" y="120" width="30" height="30" fill="hsl(240 100% 99.39701380306369%)" />
  <rect x="310" y="120" width="30" height="30" fill="hsl(240 100% 98.98795180558427%)" />
  <rect x="380" y="120" width="30" height="30" fill="hsl(240 100% 93.33376526081967%)" />
  <rect x="415" y="120" width="30" height="30" fill="hsl(240 100% 94.57529770721533%)" />
  <rect x="450" y="120" width="30" height="30" fill="hsl(240 100% 97.87548341103013%)" />
  <rect x="520" y="120" width="30" height="30" fill="hsl(240 100% 79.61150185117205%)" />
  <rect x="555" y="120" width="30" height="30" fill="hsl(240 100% 90.32851816023768%)" />
  <rect x="660" y="120" width="30" height="30" fill="rgb(255 255 255 / 50%)" />
  <rect x="835" y="120" width="30" height="30" fill="rgb(255 255 255 / 50%)" />
  <rect x="65" y="155" width="30" height="30" fill="hsl(240 100% 98.37121614515624%)" />
  <rect x="100" y="155" width="30" height="30" fill="hsl(240 100% 98.81816993321863%)" />
  <rect x="135" y="155" width="30" height="30" fill="hsl(240 100% 99.11149495870362%)" />
  <rect x="170" y="155" width="30" height="30" fill="hsl(240 100% 98.04470202725466%)" />
  <rect x="205" y="155" width="30" height="30" fill="hsl(240 100% 99.84796311813975%)" />
  <rect x="240" y="155" width="30" height="30" fill="hsl(240 100% 91.1827320219146%)" />
  <rect x="275" y="155" width="30" height="30" fill="hsl(240 100% 92.98219704210663%)" />
  <rect x="310" y="155" width="30" height="30" fill="rgb(255 255 255 / 50%)" />
  <rect x="415" y="155" width="30" height="30" fill="hsl(240 100% 92.97305697229714%)" />
  <rect x="485" y="155" width="30" height="30" fill="hsl(240 100% 50%)" />
  <rect x="520" y="155" width="30" height="30" fill="hsl(240 100% 81.37280862817917%)" />
  <rect x="590" y="155" width="30" height="30" fill="hsl(240 100% 99.57941261781355%)" />
  <rect x="625" y="155" width="30" height="30" fill="hsl(240 100% 67.45315252239095%)" />
  <rect x="695" y="155" width="30" height="30" fill="hsl(240 100% 95.39683157540303%)" />
  <rect x="730" y="155" width="30" height="30" fill="hsl(240 100% 83.6696230131248%)" />
  <rect x="765" y="155" width="30" height="30" fill="hsl(240 100% 99.58068613224918%)" />
  <rect x="835" y="155" width="30" height="30" fill="hsl(240 100% 96.30864648519734%)" />
  <rect x="65" y="190" width="30" height="30" fill="hsl(240 100% 50%)" />
  <rect x="100" y="190" width="30" height="30" fill="hsl(240 100% 50%)" />
  <rect x="135" y="190" width="30" height="30" fill="hsl(240 100% 50%)" />
  <rect x="170" y="190" width="30" height="30" fill="hsl(240 100% 50%)" />
  <rect x="205" y="190" width="30" height="30" fill="hsl(240 100% 50%)" />
  <rect x="240" y="190" width="30" height="30" fill="hsl(240 100% 50%)" />
  <rect x="275" y="190" width="30" height="30" fill="hsl(240 100% 50%)" />
  <rect x="310" y="190" width="30" height="30" fill="hsl(240 100% 50%)" />
  <rect x="345" y="190" width="30" height="30" fill="hsl(240 100% 50%)" />
  <rect x="380" y="190" width="30" height="30" fill="hsl(240 100% 50%)" />
  <rect x="415" y="190" width="30" height="30" fill="hsl(240 100% 50%)" />
  <rect x="450" y="190" width="30" height="30" fill="hsl(240 100% 50%)" />
  <rect x="485" y="190" width="30" height="30" fill="hsl(240 100% 50%)" />
  <rect x="520" y="190" width="30" height="30" fill="hsl(240 100% 50%)" />
  <rect x="555" y="190" width="30" height="30" fill="hsl(240 100% 50%)" />
  <rect x="590" y="190" width="30" height="30" fill="hsl(240 100% 50%)" />
  <rect x="625" y="190" width="30" height="30" fill="hsl(240 100% 50%)" />
  <rect x="660" y="190" width="30" height="30" fill="hsl(240 100% 50%)" />
  <rect x="695" y="190" width="30" height="30" fill="hsl(240 100% 50%)" />
  <rect x="730" y="190" width="30" height="30" fill="hsl(240 100% 50%)" />
  <rect x="765" y="190" width="30" height="30" fill="hsl(240 100% 50%)" />
  <rect x="800" y="190" width="30" height="30" fill="hsl(240 100% 50%)" />
  <rect x="835" y="190" width="30" height="30" fill="hsl(240 100% 50%)" />
  <rect x="100" y="225" width="30" height="30" fill="hsl(240 100% 96.19784668265731%)" />
  <rect x="135" y="225" width="30" height="30" fill="hsl(240 100% 86.44008473358952%)" />
  <rect x="170" y="225" width="30" height="30" fill="hsl(240 100% 87.74192757345205%)" />
  <rect x="240" y="225" width="30" height="30" fill="hsl(240 100% 90.06162155201513%)" />
  <rect x="310" y="225" width="30" height="30" fill="rgb(255 255 255 / 50%)" />
  <rect x="415" y="225" width="30" height="30" fill="hsl(240 100% 89.15717578827622%)" />
  <rect x="520" y="225" width="30" height="30" fill="hsl(240 100% 50%)" />
  <rect x="625" y="225" width="30" height="30" fill="rgb(255 255 255 / 50%)" />
  <rect x="730" y="225" width="30" height="30" fill="hsl(240 100% 92.16811996532806%)" />
  <rect x="765" y="225" width="30" height="30" fill="rgb(255 255 255 / 50%)" />
  <rect x="835" y="225" width="30" height="30" fill="hsl(240 100% 93.53647113291171%)" />
  <rect x="65" y="260" width="30" height="30" fill="hsl(240 100% 99.83329748181558%)" />
  <rect x="135" y="260" width="30" height="30" fill="hsl(240 100% 99.8560762392418%)" />
  <rect x="170" y="260" width="30" height="30" fill="hsl(240 100% 98.92131830750654%)" />
  <rect x="205" y="260" width="30" height="30" fill="rgb(255 255 255 / 50%)" />
  <rect x="240" y="260" width="30" height="30" fill="hsl(240 100% 86.88648592821002%)" />
  <rect x="310" y="260" width="30" height="30" fill="rgb(255 255 255 / 50%)" />
  <rect x="415" y="260" width="30" height="30" fill="hsl(240 100% 80.775806719383%)" />
  <rect x="450" y="260" width="30" height="30" fill="rgb(255 255 255 / 50%)" />
  <rect x="485" y="260" width="30" height="30" fill="hsl(240 100% 50%)" />
  <rect x="520" y="260" width="30" height="30" fill="hsl(240 100% 72.17804756104874%)" />
  <rect x="625" y="260" width="30" height="30" fill="hsl(240 100% 96.9402441453138%)" />
  <rect x="695" y="260" width="30" height="30" fill="hsl(240 100% 94.07667769785479%)" />
  <rect x="65" y="295" width="30" height="30" fill="hsl(240 100% 86.12705808917383%)" />
  <rect x="100" y="295" width="30" height="30" fill="hsl(240 100% 97.53674284153914%)" />
  <rect x="135" y="295" width="30" height="30" fill="hsl(240 100% 95.1747113837015%)" />
  <rect x="170" y="295" width="30" height="30" fill="hsl(240 100% 89.3948662209498%)" />
  <rect x="205" y="295" width="30" height="30" fill="hsl(240 100% 99.48626645811%)" />
  <rect x="240" y="295" width="30" height="30" fill="hsl(240 100% 50.367009375839345%)" />
  <rect x="275" y="295" width="30" height="30" fill="hsl(240 100% 50%)" />
  <rect x="310" y="295" width="30" height="30" fill="hsl(240 100% 99.49700479102437%)" />
  <rect x="345" y="295" width="30" height="30" fill="hsl(240 100% 94.66730717204379%)" />
  <rect x="415" y="295" width="30" height="30" fill="hsl(240 100% 54.99711282458803%)" />
  <rect x="450" y="295" width="30" height="30" fill="hsl(240 100% 99.30680637083877%)" />
  <rect x="485" y="295" width="30" height="30" fill="hsl(240 100% 88.00803498387884%)" />
  <rect x="520" y="295" width="30" height="30" fill="hsl(240 100% 57.70853102365456%)" />
  <rect x="695" y="295" width="30" height="30" fill="hsl(240 100% 97.59658962001618%)" />
  <rect x="800" y="295" width="30" height="30" fill="hsl(240 100% 99.57178936854604%)" />
  <rect x="835" y="295" width="30" height="30" fill="hsl(240 100% 99.95353142195884%)" />
  <rect x="65" y="330" width="30" height="30" fill="hsl(240 100% 87.51832871975104%)" />
  <rect x="100" y="330" width="30" height="30" fill="hsl(240 100% 94.30405325400928%)" />
  <rect x="135" y="330" width="30" height="30" fill="hsl(240 100% 97.06256222163688%)" />
  <rect x="170" y="330" width="30" height="30" fill="hsl(240 100% 86.98776536716849%)" />
  <rect x="205" y="330" width="30" height="30" fill="hsl(240 100% 99.2176344195113%)" />
  <rect x="240" y="330" width="30" height="30" fill="hsl(240 100% 80.06453763410383%)" />
  <rect x="275" y="330" width="30" height="30" fill="hsl(240 100% 88.19170091667847%)" />
  <rect x="310" y="330" width="30" height="30" fill="rgb(255 255 255 / 50%)" />
  <rect x="345" y="330" width="30" height="30" fill="hsl(240 100% 97.25091185540734%)" />
  <rect x="415" y="330" width="30" height="30" fill="hsl(240 100% 85.98053532038892%)" />
  <rect x="450" y="330" width="30" height="30" fill="hsl(240 100% 99.81081259130076%)" />
  <rect x="485" y="330" width="30" height="30" fill="hsl(240 100% 72.13659340906963%)" />
  <rect x="520" y="330" width="30" height="30" fill="hsl(240 100% 71.03955061096468%)" />
  <rect x="590" y="330" width="30" height="30" fill="hsl(240 100% 94.05924644589702%)" />
  <rect x="625" y="330" width="30" height="30" fill="hsl(240 100% 50%)" />
  <rect x="765" y="330" width="30" height="30" fill="hsl(240 100% 94.85676176791564%)" />
  <rect x="800" y="330" width="30" height="30" fill="hsl(240 100% 99.2206621840463%)" />
  <rect x="835" y="330" width="30" height="30" fill="hsl(240 100% 81.03614779722069%)" />
  <rect x="65" y="365" width="30" height="30" fill="hsl(240 100% 57.31921771067343%)" />
  <rect x="100" y="365" width="30" height="30" fill="hsl(240 100% 71.46400073485887%)" />
  <rect x="135" y="365" width="30" height="30" fill="hsl(240 100% 81.90474925879664%)" />
  <rect x="170" y="365" width="30" height="30" fill="hsl(240 100% 50%)" />
  <rect x="205" y="365" width="30" height="30" fill="hsl(240 100% 96.06625841414811%)" />
  <rect x="240" y="365" width="30" height="30" fill="hsl(240 100% 59.14835006560742%)" />
  <rect x="275" y="365" width="30" height="30" fill="hsl(240 100% 92.76304527108421%)" />
  <rect x="310" y="365" width="30" height="30" fill="hsl(240 100% 99.86027518469312%)" />
  <rect x="415" y="365" width="30" height="30" fill="hsl(240 100% 66.4224562460569%)" />
  <rect x="520" y="365" width="30" height="30" fill="hsl(240 100% 86.08105972662291%)" />
  <rect x="625" y="365" width="30" height="30" fill="hsl(240 100% 99.64380326686125%)" />
  <rect x="730" y="365" width="30" height="30" fill="hsl(240 100% 63.05815681750654%)" />
  <rect x="765" y="365" width="30" height="30" fill="hsl(240 100% 98.17565147064938%)" />
  <rect x="835" y="365" width="30" height="30" fill="hsl(240 100% 98.75865171869981%)" />
  <rect x="65" y="400" width="30" height="30" fill="hsl(240 100% 98.21131057263757%)" />
  <rect x="100" y="400" width="30" height="30" fill="hsl(240 100% 99.42331536915772%)" />
  <rect x="135" y="400" width="30" height="30" fill="hsl(240 100% 99.65495021984081%)" />
  <rect x="170" y="400" width="30" height="30" fill="hsl(240 100% 94.2231874447143%)" />
  <rect x="205" y="400" width="30" height="30" fill="hsl(240 100% 99.23719850298201%)" />
  <rect x="240" y="400" width="30" height="30" fill="hsl(240 100% 86.11656737820951%)" />
  <rect x="275" y="400" width="30" height="30" fill="hsl(240 100% 95.35455233501234%)" />
  <rect x="310" y="400" width="30" height="30" fill="rgb(255 255 255 / 50%)" />
  <rect x="380" y="400" width="30" height="30" fill="rgb(255 255 255 / 50%)" />
  <rect x="415" y="400" width="30" height="30" fill="hsl(240 100% 94.02207369911504%)" />
  <rect x="450" y="400" width="30" height="30" fill="hsl(240 100% 99.97169996950029%)" />
  <rect x="485" y="400" width="30" height="30" fill="hsl(240 100% 78.82272319661281%)" />
  <rect x="520" y="400" width="30" height="30" fill="hsl(240 100% 50%)" />
  <rect x="555" y="400" width="30" height="30" fill="hsl(240 100% 99.1287771083333%)" />
  <rect x="660" y="400" width="30" height="30" fill="rgb(255 255 255 / 50%)" />
  <rect x="835" y="400" width="30" height="30" fill="hsl(240 100% 99.25338213906767%)" />
  <rect x="65" y="435" width="30" height="30" fill="hsl(240 100% 93.39810633082561%)" />
  <rect x="240" y="435" width="30" height="30" fill="hsl(240 100% 50%)" />
  <rect x="310" y="435" width="30" height="30" fill="hsl(240 100% 93.85997150988207%)" />
  <rect x="415" y="435" width="30" height="30" fill="hsl(240 100% 87.1000980810617%)" />
  <rect x="450" y="435" width="30" height="30" fill="hsl(240 100% 99.78097235434062%)" />
  <rect x="65" y="470" width="30" height="30" fill="hsl(240 100% 50.101078188521306%)" />
  <rect x="240" y="470" width="30" height="30" fill="hsl(240 100% 50%)" />
  <rect x="310" y="470" width="30" height="30" fill="hsl(240 100% 96.97691411440572%)" />
  <rect x="415" y="470" width="30" height="30" fill="hsl(240 100% 89.09616673841731%)" />
  <rect x="450" y="470" width="30" height="30" fill="hsl(240 100% 99.56753706579342%)" />
</svg>
