<svg xmlns="http://www.w3.org/2000/svg" viewBox="0 0 730 505">
  <rect x="0" y="0" width="730" height="505" rx="5" ry="5" fill="#222" />
  <text x="60" y="100" fill="white" font-family="sans-serif" font-weight="bold" font-size="12" text-anchor="end" dominant-baseline="middle">ba</text>
  <text x="60" y="135" fill="white" font-family="sans-serif" font-weight="bold" font-size="12" text-anchor="end" dominant-baseline="middle">det</text>
  <text x="60" y="170" fill="white" font-family="sans-serif" font-weight="bold" font-size="12" text-anchor="end" dominant-baseline="middle">gmm</text>
  <text x="60" y="205" fill="white" font-family="sans-serif" font-weight="bold" font-size="12" text-anchor="end" dominant-baseline="middle">hello</text>
  <text x="60" y="240" fill="white" font-family="sans-serif" font-weight="bold" font-size="12" text-anchor="end" dominant-baseline="middle">ht</text>
  <text x="60" y="275" fill="white" font-family="sans-serif" font-weight="bold" font-size="12" text-anchor="end" dominant-baseline="middle">kmeans</text>
  <text x="60" y="310" fill="white" font-family="sans-serif" font-weight="bold" font-size="12" text-anchor="end" dominant-baseline="middle">llsq</text>
  <text x="60" y="345" fill="white" font-family="sans-serif" font-weight="bold" font-size="12" text-anchor="end" dominant-baseline="middle">lse</text>
  <text x="60" y="380" fill="white" font-family="sans-serif" font-weight="bold" font-size="12" text-anchor="end" dominant-baseline="middle">lstm</text>
  <text x="60" y="415" fill="white" font-family="sans-serif" font-weight="bold" font-size="12" text-anchor="end" dominant-baseline="middle">ode</text>
  <text x="60" y="450" fill="white" font-family="sans-serif" font-weight="bold" font-size="12" text-anchor="end" dominant-baseline="middle">particle</text>
  <text x="60" y="485" fill="white" font-family="sans-serif" font-weight="bold" font-size="12" text-anchor="end" dominant-baseline="middle">saddle</text>
  <text x="80" y="80" fill="white" font-family="sans-serif" font-weight="bold" font-size="12" text-anchor="end" dominant-baseline="middle" transform="rotate(90 80 80)">ad-hpp</text>
  <text x="115" y="80" fill="white" font-family="sans-serif" font-weight="bold" font-size="12" text-anchor="end" dominant-baseline="middle" transform="rotate(90 115 80)">adept</text>
  <text x="150" y="80" fill="white" font-family="sans-serif" font-weight="bold" font-size="12" text-anchor="end" dominant-baseline="middle" transform="rotate(90 150 80)">adol-c</text>
  <text x="185" y="80" fill="white" font-family="sans-serif" font-weight="bold" font-size="12" text-anchor="end" dominant-baseline="middle" transform="rotate(90 185 80)">codipack</text>
  <text x="220" y="80" fill="white" font-family="sans-serif" font-weight="bold" font-size="12" text-anchor="end" dominant-baseline="middle" transform="rotate(90 220 80)">cppad</text>
  <text x="255" y="80" fill="white" font-family="sans-serif" font-weight="bold" font-size="12" text-anchor="end" dominant-baseline="middle" transform="rotate(90 255 80)">enzyme</text>
  <text x="290" y="80" fill="white" font-family="sans-serif" font-weight="bold" font-size="12" text-anchor="end" dominant-baseline="middle" transform="rotate(90 290 80)">enzyme-jl</text>
  <text x="325" y="80" fill="white" font-family="sans-serif" font-weight="bold" font-size="12" text-anchor="end" dominant-baseline="middle" transform="rotate(90 325 80)">finite</text>
  <text x="360" y="80" fill="white" font-family="sans-serif" font-weight="bold" font-size="12" text-anchor="end" dominant-baseline="middle" transform="rotate(90 360 80)">floretta</text>
  <text x="395" y="80" fill="white" font-family="sans-serif" font-weight="bold" font-size="12" text-anchor="end" dominant-baseline="middle" transform="rotate(90 395 80)">futhark</text>
  <text x="430" y="80" fill="white" font-family="sans-serif" font-weight="bold" font-size="12" text-anchor="end" dominant-baseline="middle" transform="rotate(90 430 80)">haskell</text>
  <text x="465" y="80" fill="white" font-family="sans-serif" font-weight="bold" font-size="12" text-anchor="end" dominant-baseline="middle" transform="rotate(90 465 80)">jax</text>
  <text x="500" y="80" fill="white" font-family="sans-serif" font-weight="bold" font-size="12" text-anchor="end" dominant-baseline="middle" transform="rotate(90 500 80)">manual</text>
  <text x="535" y="80" fill="white" font-family="sans-serif" font-weight="bold" font-size="12" text-anchor="end" dominant-baseline="middle" transform="rotate(90 535 80)">ocaml</text>
  <text x="570" y="80" fill="white" font-family="sans-serif" font-weight="bold" font-size="12" text-anchor="end" dominant-baseline="middle" transform="rotate(90 570 80)">pytorch</text>
  <text x="605" y="80" fill="white" font-family="sans-serif" font-weight="bold" font-size="12" text-anchor="end" dominant-baseline="middle" transform="rotate(90 605 80)">scilean</text>
  <text x="640" y="80" fill="white" font-family="sans-serif" font-weight="bold" font-size="12" text-anchor="end" dominant-baseline="middle" transform="rotate(90 640 80)">tapenade</text>
  <text x="675" y="80" fill="white" font-family="sans-serif" font-weight="bold" font-size="12" text-anchor="end" dominant-baseline="middle" transform="rotate(90 675 80)">tensorflow</text>
  <text x="710" y="80" fill="white" font-family="sans-serif" font-weight="bold" font-size="12" text-anchor="end" dominant-baseline="middle" transform="rotate(90 710 80)">zygote</text>
  <rect x="65" y="85" width="30" height="30" fill="hsl(240 100% 78.54789151991551%)" />
  <rect x="100" y="85" width="30" height="30" fill="hsl(240 100% 83.09410126884838%)" />
  <rect x="135" y="85" width="30" height="30" fill="hsl(240 100% 97.77535086195388%)" />
  <rect x="170" y="85" width="30" height="30" fill="hsl(240 100% 88.94727362429042%)" />
  <rect x="205" y="85" width="30" height="30" fill="hsl(240 100% 98.87651444865534%)" />
  <rect x="240" y="85" width="30" height="30" fill="hsl(240 100% 50%)" />
  <rect x="310" y="85" width="30" height="30" fill="hsl(240 100% 92.54078439599718%)" />
  <rect x="380" y="85" width="30" height="30" fill="hsl(240 100% 68.07174289956819%)" />
  <rect x="485" y="85" width="30" height="30" fill="hsl(240 100% 51.66855155800337%)" />
  <rect x="555" y="85" width="30" height="30" fill="rgb(255 255 255 / 50%)" />
  <rect x="625" y="85" width="30" height="30" fill="hsl(240 100% 71.82357551023352%)" />
  <rect x="660" y="85" width="30" height="30" fill="rgb(255 255 255 / 50%)" />
  <rect x="695" y="85" width="30" height="30" fill="hsl(240 100% 99.70019165887773%)" />
  <rect x="65" y="120" width="30" height="30" fill="hsl(240 100% 50%)" />
  <rect x="100" y="120" width="30" height="30" fill="hsl(240 100% 84.29475829023013%)" />
  <rect x="135" y="120" width="30" height="30" fill="hsl(240 100% 86.33393272211406%)" />
  <rect x="170" y="120" width="30" height="30" fill="hsl(240 100% 52.20443140518603%)" />
  <rect x="205" y="120" width="30" height="30" fill="hsl(240 100% 92.89729565139325%)" />
  <rect x="240" y="120" width="30" height="30" fill="hsl(240 100% 91.96823832708984%)" />
  <rect x="275" y="120" width="30" height="30" fill="hsl(240 100% 99.4947172561229%)" />
  <rect x="310" y="120" width="30" height="30" fill="hsl(240 100% 99.00869666117286%)" />
  <rect x="380" y="120" width="30" height="30" fill="hsl(240 100% 94.87579854639517%)" />
  <rect x="415" y="120" width="30" height="30" fill="hsl(240 100% 97.9851102926926%)" />
  <rect x="485" y="120" width="30" height="30" fill="hsl(240 100% 80.22328920807104%)" />
  <rect x="695" y="120" width="30" height="30" fill="rgb(255 255 255 / 50%)" />
  <rect x="65" y="155" width="30" height="30" fill="hsl(240 100% 97.20763523354196%)" />
  <rect x="100" y="155" width="30" height="30" fill="hsl(240 100% 98.28807829119464%)" />
  <rect x="135" y="155" width="30" height="30" fill="hsl(240 100% 98.8918265920367%)" />
  <rect x="170" y="155" width="30" height="30" fill="hsl(240 100% 97.22029481544406%)" />
  <rect x="205" y="155" width="30" height="30" fill="hsl(240 100% 99.77384193903795%)" />
  <rect x="240" y="155" width="30" height="30" fill="hsl(240 100% 86.7267019632159%)" />
  <rect x="275" y="155" width="30" height="30" fill="hsl(240 100% 99.83788490957119%)" />
  <rect x="310" y="155" width="30" height="30" fill="rgb(255 255 255 / 50%)" />
  <rect x="380" y="155" width="30" height="30" fill="hsl(240 100% 89.87037669622269%)" />
  <rect x="450" y="155" width="30" height="30" fill="hsl(240 100% 70.13969439982736%)" />
  <rect x="485" y="155" width="30" height="30" fill="hsl(240 100% 75.4492141938939%)" />
  <rect x="520" y="155" width="30" height="30" fill="hsl(240 100% 99.34434934887426%)" />
  <rect x="555" y="155" width="30" height="30" fill="hsl(240 100% 50%)" />
  <rect x="590" y="155" width="30" height="30" fill="hsl(240 100% 92.5955585624888%)" />
  <rect x="625" y="155" width="30" height="30" fill="hsl(240 100% 76.15061786619457%)" />
  <rect x="660" y="155" width="30" height="30" fill="hsl(240 100% 89.09790143010244%)" />
  <rect x="695" y="155" width="30" height="30" fill="hsl(240 100% 99.33336103026316%)" />
  <rect x="65" y="190" width="30" height="30" fill="hsl(240 100% 50%)" />
  <rect x="100" y="190" width="30" height="30" fill="hsl(240 100% 50%)" />
  <rect x="135" y="190" width="30" height="30" fill="hsl(240 100% 50%)" />
  <rect x="170" y="190" width="30" height="30" fill="hsl(240 100% 50%)" />
  <rect x="205" y="190" width="30" height="30" fill="hsl(240 100% 50%)" />
  <rect x="240" y="190" width="30" height="30" fill="hsl(240 100% 50%)" />
  <rect x="275" y="190" width="30" height="30" fill="hsl(240 100% 50%)" />
  <rect x="310" y="190" width="30" height="30" fill="hsl(240 100% 50%)" />
  <rect x="345" y="190" width="30" height="30" fill="hsl(240 100% 50%)" />
  <rect x="380" y="190" width="30" height="30" fill="hsl(240 100% 50%)" />
  <rect x="415" y="190" width="30" height="30" fill="hsl(240 100% 50%)" />
  <rect x="450" y="190" width="30" height="30" fill="hsl(240 100% 50%)" />
  <rect x="485" y="190" width="30" height="30" fill="hsl(240 100% 50%)" />
  <rect x="520" y="190" width="30" height="30" fill="hsl(240 100% 50%)" />
  <rect x="555" y="190" width="30" height="30" fill="hsl(240 100% 50%)" />
  <rect x="590" y="190" width="30" height="30" fill="hsl(240 100% 50%)" />
  <rect x="625" y="190" width="30" height="30" fill="hsl(240 100% 50%)" />
  <rect x="660" y="190" width="30" height="30" fill="hsl(240 100% 50%)" />
  <rect x="695" y="190" width="30" height="30" fill="hsl(240 100% 50%)" />
  <rect x="100" y="225" width="30" height="30" fill="hsl(240 100% 96.06035007791647%)" />
  <rect x="135" y="225" width="30" height="30" fill="hsl(240 100% 90.0864799020125%)" />
  <rect x="170" y="225" width="30" height="30" fill="hsl(240 100% 88.33977188167191%)" />
  <rect x="240" y="225" width="30" height="30" fill="hsl(240 100% 90.34193705217572%)" />
  <rect x="310" y="225" width="30" height="30" fill="rgb(255 255 255 / 50%)" />
  <rect x="380" y="225" width="30" height="30" fill="hsl(240 100% 89.6294254083125%)" />
  <rect x="485" y="225" width="30" height="30" fill="hsl(240 100% 50%)" />
  <rect x="555" y="225" width="30" height="30" fill="rgb(255 255 255 / 50%)" />
  <rect x="625" y="225" width="30" height="30" fill="rgb(255 255 255 / 50%)" />
  <rect x="660" y="225" width="30" height="30" fill="rgb(255 255 255 / 50%)" />
  <rect x="695" y="225" width="30" height="30" fill="hsl(240 100% 99.4262923739199%)" />
  <rect x="135" y="260" width="30" height="30" fill="hsl(240 100% 99.90580681090015%)" />
  <rect x="170" y="260" width="30" height="30" fill="hsl(240 100% 99.33454818562777%)" />
  <rect x="205" y="260" width="30" height="30" fill="rgb(255 255 255 / 50%)" />
  <rect x="240" y="260" width="30" height="30" fill="hsl(240 100% 87.75382535365104%)" />
  <rect x="310" y="260" width="30" height="30" fill="rgb(255 255 255 / 50%)" />
  <rect x="380" y="260" width="30" height="30" fill="hsl(240 100% 82.634539998051%)" />
  <rect x="415" y="260" width="30" height="30" fill="rgb(255 255 255 / 50%)" />
  <rect x="450" y="260" width="30" height="30" fill="hsl(240 100% 50%)" />
  <rect x="485" y="260" width="30" height="30" fill="hsl(240 100% 75.87292688360426%)" />
  <rect x="555" y="260" width="30" height="30" fill="hsl(240 100% 96.94254931851538%)" />
  <rect x="590" y="260" width="30" height="30" fill="hsl(240 100% 93.99136026775378%)" />
  <rect x="65" y="295" width="30" height="30" fill="hsl(240 100% 58.77907491608072%)" />
  <rect x="100" y="295" width="30" height="30" fill="hsl(240 100% 67.33039182455393%)" />
  <rect x="135" y="295" width="30" height="30" fill="hsl(240 100% 61.03938501366153%)" />
  <rect x="170" y="295" width="30" height="30" fill="hsl(240 100% 59.94368157291846%)" />
  <rect x="205" y="295" width="30" height="30" fill="hsl(240 100% 91.11604988650349%)" />
  <rect x="240" y="295" width="30" height="30" fill="hsl(240 100% 50%)" />
  <rect x="310" y="295" width="30" height="30" fill="hsl(240 100% 99.42774831588825%)" />
  <rect x="380" y="295" width="30" height="30" fill="hsl(240 100% 50.549348646912975%)" />
  <rect x="415" y="295" width="30" height="30" fill="hsl(240 100% 89.86864785788904%)" />
  <rect x="485" y="295" width="30" height="30" fill="hsl(240 100% 53.5189155084574%)" />
  <rect x="590" y="295" width="30" height="30" fill="hsl(240 100% 55.30019147371732%)" />
  <rect x="65" y="330" width="30" height="30" fill="hsl(240 100% 88.7226510326747%)" />
  <rect x="100" y="330" width="30" height="30" fill="hsl(240 100% 94.28961222949359%)" />
  <rect x="135" y="330" width="30" height="30" fill="hsl(240 100% 97.1619478924617%)" />
  <rect x="170" y="330" width="30" height="30" fill="hsl(240 100% 88.90580038307458%)" />
  <rect x="205" y="330" width="30" height="30" fill="hsl(240 100% 99.18170118641729%)" />
  <rect x="240" y="330" width="30" height="30" fill="hsl(240 100% 80.77386442203861%)" />
  <rect x="275" y="330" width="30" height="30" fill="hsl(240 100% 99.81602292331534%)" />
  <rect x="310" y="330" width="30" height="30" fill="rgb(255 255 255 / 50%)" />
  <rect x="380" y="330" width="30" height="30" fill="hsl(240 100% 85.34162296601893%)" />
  <rect x="415" y="330" width="30" height="30" fill="hsl(240 100% 99.81910132542649%)" />
  <rect x="450" y="330" width="30" height="30" fill="hsl(240 100% 69.9199219085039%)" />
  <rect x="485" y="330" width="30" height="30" fill="hsl(240 100% 77.80309577048833%)" />
  <rect x="520" y="330" width="30" height="30" fill="hsl(240 100% 93.55722649111206%)" />
  <rect x="555" y="330" width="30" height="30" fill="hsl(240 100% 50%)" />
  <rect x="660" y="330" width="30" height="30" fill="hsl(240 100% 88.74771196866448%)" />
  <rect x="695" y="330" width="30" height="30" fill="hsl(240 100% 95.05276068158692%)" />
  <rect x="65" y="365" width="30" height="30" fill="hsl(240 100% 53.099459311266315%)" />
  <rect x="100" y="365" width="30" height="30" fill="hsl(240 100% 69.44931524117975%)" />
  <rect x="135" y="365" width="30" height="30" fill="hsl(240 100% 80.71618697452013%)" />
  <rect x="170" y="365" width="30" height="30" fill="hsl(240 100% 50%)" />
  <rect x="205" y="365" width="30" height="30" fill="hsl(240 100% 95.41516233924757%)" />
  <rect x="240" y="365" width="30" height="30" fill="hsl(240 100% 50.47026618357551%)" />
  <rect x="310" y="365" width="30" height="30" fill="hsl(240 100% 99.8500440531919%)" />
  <rect x="380" y="365" width="30" height="30" fill="hsl(240 100% 63.741472175962%)" />
  <rect x="485" y="365" width="30" height="30" fill="hsl(240 100% 84.58924966225537%)" />
  <rect x="555" y="365" width="30" height="30" fill="hsl(240 100% 99.61671344930403%)" />
  <rect x="625" y="365" width="30" height="30" fill="hsl(240 100% 60.1300273002169%)" />
  <rect x="660" y="365" width="30" height="30" fill="hsl(240 100% 98.00415492195401%)" />
  <rect x="695" y="365" width="30" height="30" fill="hsl(240 100% 99.10738296715166%)" />
  <rect x="65" y="400" width="30" height="30" fill="hsl(240 100% 97.99021369961918%)" />
  <rect x="100" y="400" width="30" height="30" fill="hsl(240 100% 99.23030839090474%)" />
  <rect x="135" y="400" width="30" height="30" fill="hsl(240 100% 99.54400231138185%)" />
  <rect x="170" y="400" width="30" height="30" fill="hsl(240 100% 93.47454390006959%)" />
  <rect x="205" y="400" width="30" height="30" fill="hsl(240 100% 98.93512854552702%)" />
  <rect x="240" y="400" width="30" height="30" fill="hsl(240 100% 86.17987961140904%)" />
  <rect x="275" y="400" width="30" height="30" fill="hsl(240 100% 98.96667097176088%)" />
  <rect x="310" y="400" width="30" height="30" fill="rgb(255 255 255 / 50%)" />
  <rect x="380" y="400" width="30" height="30" fill="hsl(240 100% 95.30396666189252%)" />
  <rect x="415" y="400" width="30" height="30" fill="hsl(240 100% 99.96053676199548%)" />
  <rect x="485" y="400" width="30" height="30" fill="hsl(240 100% 50%)" />
  <rect x="240" y="435" width="30" height="30" fill="hsl(240 100% 50%)" />
  <rect x="310" y="435" width="30" height="30" fill="hsl(240 100% 95.21959852737594%)" />
  <rect x="380" y="435" width="30" height="30" fill="hsl(240 100% 87.96151881078949%)" />
  <rect x="415" y="435" width="30" height="30" fill="hsl(240 100% 99.77949498478196%)" />
  <rect x="240" y="470" width="30" height="30" fill="hsl(240 100% 50%)" />
  <rect x="310" y="470" width="30" height="30" fill="hsl(240 100% 95.83913926235051%)" />
  <rect x="380" y="470" width="30" height="30" fill="hsl(240 100% 89.21072863958764%)" />
  <rect x="415" y="470" width="30" height="30" fill="hsl(240 100% 99.57211472903168%)" />
</svg>
