<svg xmlns="http://www.w3.org/2000/svg" viewBox="0 0 660 295">
  <rect x="0" y="0" width="660" height="295" rx="5" ry="5" fill="#222" />
  <text x="60" y="100" fill="white" font-family="sans-serif" font-weight="bold" font-size="12" text-anchor="end" dominant-baseline="middle">ba</text>
  <text x="60" y="135" fill="white" font-family="sans-serif" font-weight="bold" font-size="12" text-anchor="end" dominant-baseline="middle">gmm</text>
  <text x="60" y="170" fill="white" font-family="sans-serif" font-weight="bold" font-size="12" text-anchor="end" dominant-baseline="middle">hello</text>
  <text x="60" y="205" fill="white" font-family="sans-serif" font-weight="bold" font-size="12" text-anchor="end" dominant-baseline="middle">ht</text>
  <text x="60" y="240" fill="white" font-family="sans-serif" font-weight="bold" font-size="12" text-anchor="end" dominant-baseline="middle">kmeans</text>
  <text x="60" y="275" fill="white" font-family="sans-serif" font-weight="bold" font-size="12" text-anchor="end" dominant-baseline="middle">lstm</text>
  <text x="80" y="80" fill="white" font-family="sans-serif" font-weight="bold" font-size="12" text-anchor="end" dominant-baseline="middle" transform="rotate(90 80 80)">adept</text>
  <text x="115" y="80" fill="white" font-family="sans-serif" font-weight="bold" font-size="12" text-anchor="end" dominant-baseline="middle" transform="rotate(90 115 80)">adol-c</text>
  <text x="150" y="80" fill="white" font-family="sans-serif" font-weight="bold" font-size="12" text-anchor="end" dominant-baseline="middle" transform="rotate(90 150 80)">codipack</text>
  <text x="185" y="80" fill="white" font-family="sans-serif" font-weight="bold" font-size="12" text-anchor="end" dominant-baseline="middle" transform="rotate(90 185 80)">cppad</text>
  <text x="220" y="80" fill="white" font-family="sans-serif" font-weight="bold" font-size="12" text-anchor="end" dominant-baseline="middle" transform="rotate(90 220 80)">enzyme</text>
  <text x="255" y="80" fill="white" font-family="sans-serif" font-weight="bold" font-size="12" text-anchor="end" dominant-baseline="middle" transform="rotate(90 255 80)">finite</text>
  <text x="290" y="80" fill="white" font-family="sans-serif" font-weight="bold" font-size="12" text-anchor="end" dominant-baseline="middle" transform="rotate(90 290 80)">floretta</text>
  <text x="325" y="80" fill="white" font-family="sans-serif" font-weight="bold" font-size="12" text-anchor="end" dominant-baseline="middle" transform="rotate(90 325 80)">futhark</text>
  <text x="360" y="80" fill="white" font-family="sans-serif" font-weight="bold" font-size="12" text-anchor="end" dominant-baseline="middle" transform="rotate(90 360 80)">haskell</text>
  <text x="395" y="80" fill="white" font-family="sans-serif" font-weight="bold" font-size="12" text-anchor="end" dominant-baseline="middle" transform="rotate(90 395 80)">jax</text>
  <text x="430" y="80" fill="white" font-family="sans-serif" font-weight="bold" font-size="12" text-anchor="end" dominant-baseline="middle" transform="rotate(90 430 80)">manual</text>
  <text x="465" y="80" fill="white" font-family="sans-serif" font-weight="bold" font-size="12" text-anchor="end" dominant-baseline="middle" transform="rotate(90 465 80)">ocaml</text>
  <text x="500" y="80" fill="white" font-family="sans-serif" font-weight="bold" font-size="12" text-anchor="end" dominant-baseline="middle" transform="rotate(90 500 80)">pytorch</text>
  <text x="535" y="80" fill="white" font-family="sans-serif" font-weight="bold" font-size="12" text-anchor="end" dominant-baseline="middle" transform="rotate(90 535 80)">scilean</text>
  <text x="570" y="80" fill="white" font-family="sans-serif" font-weight="bold" font-size="12" text-anchor="end" dominant-baseline="middle" transform="rotate(90 570 80)">tapenade</text>
  <text x="605" y="80" fill="white" font-family="sans-serif" font-weight="bold" font-size="12" text-anchor="end" dominant-baseline="middle" transform="rotate(90 605 80)">tensorflow</text>
  <text x="640" y="80" fill="white" font-family="sans-serif" font-weight="bold" font-size="12" text-anchor="end" dominant-baseline="middle" transform="rotate(90 640 80)">zygote</text>
  <rect x="65" y="85" width="30" height="30" fill="hsl(240 100% 84.36858441341587%)" />
  <rect x="100" y="85" width="30" height="30" fill="hsl(240 100% 98.02407001085109%)" />
  <rect x="135" y="85" width="30" height="30" fill="hsl(240 100% 89.26064473681625%)" />
  <rect x="205" y="85" width="30" height="30" fill="hsl(240 100% 50.185798086031134%)" />
  <rect x="240" y="85" width="30" height="30" fill="hsl(240 100% 91.91591648121094%)" />
  <rect x="310" y="85" width="30" height="30" fill="hsl(240 100% 75.77043052025792%)" />
  <rect x="415" y="85" width="30" height="30" fill="hsl(240 100% 50%)" />
  <rect x="485" y="85" width="30" height="30" fill="hsl(240 100% 99.99206369091475%)" />
  <rect x="555" y="85" width="30" height="30" fill="hsl(240 100% 73.55619101541546%)" />
  <rect x="590" y="85" width="30" height="30" fill="hsl(240 100% 99.98408734983138%)" />
  <rect x="65" y="120" width="30" height="30" fill="hsl(240 100% 96.96738153978569%)" />
  <rect x="100" y="120" width="30" height="30" fill="hsl(240 100% 97.43194526603996%)" />
  <rect x="135" y="120" width="30" height="30" fill="hsl(240 100% 78.21666806479323%)" />
  <rect x="170" y="120" width="30" height="30" fill="hsl(240 100% 98.23946364142365%)" />
  <rect x="205" y="120" width="30" height="30" fill="hsl(240 100% 84.1873082486331%)" />
  <rect x="240" y="120" width="30" height="30" fill="hsl(240 100% 99.99508734427086%)" />
  <rect x="310" y="120" width="30" height="30" fill="hsl(240 100% 82.64700861324683%)" />
  <rect x="380" y="120" width="30" height="30" fill="hsl(240 100% 75.21724550900083%)" />
  <rect x="415" y="120" width="30" height="30" fill="hsl(240 100% 63.98571359641421%)" />
  <rect x="450" y="120" width="30" height="30" fill="hsl(240 100% 99.36873813294677%)" />
  <rect x="485" y="120" width="30" height="30" fill="hsl(240 100% 50%)" />
  <rect x="520" y="120" width="30" height="30" fill="hsl(240 100% 95.8295931683555%)" />
  <rect x="555" y="120" width="30" height="30" fill="hsl(240 100% 67.26129452827101%)" />
  <rect x="590" y="120" width="30" height="30" fill="hsl(240 100% 85.61372771925068%)" />
  <rect x="65" y="155" width="30" height="30" fill="hsl(240 100% 50%)" />
  <rect x="100" y="155" width="30" height="30" fill="hsl(240 100% 50%)" />
  <rect x="135" y="155" width="30" height="30" fill="hsl(240 100% 50%)" />
  <rect x="170" y="155" width="30" height="30" fill="hsl(240 100% 50%)" />
  <rect x="205" y="155" width="30" height="30" fill="hsl(240 100% 50%)" />
  <rect x="240" y="155" width="30" height="30" fill="hsl(240 100% 50%)" />
  <rect x="275" y="155" width="30" height="30" fill="hsl(240 100% 50%)" />
  <rect x="310" y="155" width="30" height="30" fill="hsl(240 100% 50%)" />
  <rect x="345" y="155" width="30" height="30" fill="hsl(240 100% 50%)" />
  <rect x="380" y="155" width="30" height="30" fill="hsl(240 100% 50%)" />
  <rect x="415" y="155" width="30" height="30" fill="hsl(240 100% 50%)" />
  <rect x="450" y="155" width="30" height="30" fill="hsl(240 100% 50%)" />
  <rect x="485" y="155" width="30" height="30" fill="hsl(240 100% 50%)" />
  <rect x="520" y="155" width="30" height="30" fill="hsl(240 100% 50%)" />
  <rect x="555" y="155" width="30" height="30" fill="hsl(240 100% 50%)" />
  <rect x="590" y="155" width="30" height="30" fill="hsl(240 100% 50%)" />
  <rect x="625" y="155" width="30" height="30" fill="hsl(240 100% 50%)" />
  <rect x="65" y="190" width="30" height="30" fill="hsl(240 100% 97.07502395573617%)" />
  <rect x="100" y="190" width="30" height="30" fill="hsl(240 100% 97.93687406881241%)" />
  <rect x="135" y="190" width="30" height="30" fill="hsl(240 100% 93.68308642991899%)" />
  <rect x="205" y="190" width="30" height="30" fill="hsl(240 100% 94.87294789738532%)" />
  <rect x="240" y="190" width="30" height="30" fill="hsl(240 100% 99.18622470217923%)" />
  <rect x="310" y="190" width="30" height="30" fill="hsl(240 100% 94.06478810166885%)" />
  <rect x="415" y="190" width="30" height="30" fill="hsl(240 100% 50%)" />
  <rect x="485" y="190" width="30" height="30" fill="hsl(240 100% 99.96740860244263%)" />
  <rect x="555" y="190" width="30" height="30" fill="hsl(240 100% 99.39874789160409%)" />
  <rect x="590" y="190" width="30" height="30" fill="hsl(240 100% 99.46704453773577%)" />
  <rect x="100" y="225" width="30" height="30" fill="hsl(240 100% 99.8711280496715%)" />
  <rect x="135" y="225" width="30" height="30" fill="hsl(240 100% 99.40078637984533%)" />
  <rect x="205" y="225" width="30" height="30" fill="hsl(240 100% 87.58788247758906%)" />
  <rect x="310" y="225" width="30" height="30" fill="hsl(240 100% 82.69614749540769%)" />
  <rect x="345" y="225" width="30" height="30" fill="hsl(240 100% 99.99181289618811%)" />
  <rect x="380" y="225" width="30" height="30" fill="hsl(240 100% 50%)" />
  <rect x="415" y="225" width="30" height="30" fill="hsl(240 100% 76.52606029395399%)" />
  <rect x="485" y="225" width="30" height="30" fill="hsl(240 100% 85.33715506818888%)" />
  <rect x="520" y="225" width="30" height="30" fill="hsl(240 100% 99.53029480731988%)" />
  <rect x="65" y="260" width="30" height="30" fill="hsl(240 100% 78.45463489250098%)" />
  <rect x="100" y="260" width="30" height="30" fill="hsl(240 100% 86.63242621412982%)" />
  <rect x="135" y="260" width="30" height="30" fill="hsl(240 100% 50%)" />
  <rect x="170" y="260" width="30" height="30" fill="hsl(240 100% 92.18687667639834%)" />
  <rect x="205" y="260" width="30" height="30" fill="hsl(240 100% 65.98916419694207%)" />
  <rect x="240" y="260" width="30" height="30" fill="hsl(240 100% 99.86113887849626%)" />
  <rect x="310" y="260" width="30" height="30" fill="hsl(240 100% 74.46749167865642%)" />
  <rect x="415" y="260" width="30" height="30" fill="hsl(240 100% 85.16804604653956%)" />
  <rect x="485" y="260" width="30" height="30" fill="hsl(240 100% 99.76619004054757%)" />
  <rect x="520" y="260" width="30" height="30" fill="hsl(240 100% 97.27275096836189%)" />
  <rect x="555" y="260" width="30" height="30" fill="hsl(240 100% 71.90541490125592%)" />
  <rect x="590" y="260" width="30" height="30" fill="hsl(240 100% 98.6692081110179%)" />
</svg>
