<svg xmlns="http://www.w3.org/2000/svg" viewBox="0 0 660 470">
  <rect x="0" y="0" width="660" height="470" rx="5" ry="5" fill="#222" />
  <text x="60" y="100" fill="white" font-family="sans-serif" font-weight="bold" font-size="12" text-anchor="end" dominant-baseline="middle">ba</text>
  <text x="60" y="135" fill="white" font-family="sans-serif" font-weight="bold" font-size="12" text-anchor="end" dominant-baseline="middle">det</text>
  <text x="60" y="170" fill="white" font-family="sans-serif" font-weight="bold" font-size="12" text-anchor="end" dominant-baseline="middle">gmm</text>
  <text x="60" y="205" fill="white" font-family="sans-serif" font-weight="bold" font-size="12" text-anchor="end" dominant-baseline="middle">hello</text>
  <text x="60" y="240" fill="white" font-family="sans-serif" font-weight="bold" font-size="12" text-anchor="end" dominant-baseline="middle">ht</text>
  <text x="60" y="275" fill="white" font-family="sans-serif" font-weight="bold" font-size="12" text-anchor="end" dominant-baseline="middle">kmeans</text>
  <text x="60" y="310" fill="white" font-family="sans-serif" font-weight="bold" font-size="12" text-anchor="end" dominant-baseline="middle">llsq</text>
  <text x="60" y="345" fill="white" font-family="sans-serif" font-weight="bold" font-size="12" text-anchor="end" dominant-baseline="middle">lstm</text>
  <text x="60" y="380" fill="white" font-family="sans-serif" font-weight="bold" font-size="12" text-anchor="end" dominant-baseline="middle">ode</text>
  <text x="60" y="415" fill="white" font-family="sans-serif" font-weight="bold" font-size="12" text-anchor="end" dominant-baseline="middle">particle</text>
  <text x="60" y="450" fill="white" font-family="sans-serif" font-weight="bold" font-size="12" text-anchor="end" dominant-baseline="middle">saddle</text>
  <text x="80" y="80" fill="white" font-family="sans-serif" font-weight="bold" font-size="12" text-anchor="end" dominant-baseline="middle" transform="rotate(90 80 80)">adept</text>
  <text x="115" y="80" fill="white" font-family="sans-serif" font-weight="bold" font-size="12" text-anchor="end" dominant-baseline="middle" transform="rotate(90 115 80)">adol-c</text>
  <text x="150" y="80" fill="white" font-family="sans-serif" font-weight="bold" font-size="12" text-anchor="end" dominant-baseline="middle" transform="rotate(90 150 80)">codipack</text>
  <text x="185" y="80" fill="white" font-family="sans-serif" font-weight="bold" font-size="12" text-anchor="end" dominant-baseline="middle" transform="rotate(90 185 80)">cppad</text>
  <text x="220" y="80" fill="white" font-family="sans-serif" font-weight="bold" font-size="12" text-anchor="end" dominant-baseline="middle" transform="rotate(90 220 80)">enzyme</text>
  <text x="255" y="80" fill="white" font-family="sans-serif" font-weight="bold" font-size="12" text-anchor="end" dominant-baseline="middle" transform="rotate(90 255 80)">finite</text>
  <text x="290" y="80" fill="white" font-family="sans-serif" font-weight="bold" font-size="12" text-anchor="end" dominant-baseline="middle" transform="rotate(90 290 80)">floretta</text>
  <text x="325" y="80" fill="white" font-family="sans-serif" font-weight="bold" font-size="12" text-anchor="end" dominant-baseline="middle" transform="rotate(90 325 80)">futhark</text>
  <text x="360" y="80" fill="white" font-family="sans-serif" font-weight="bold" font-size="12" text-anchor="end" dominant-baseline="middle" transform="rotate(90 360 80)">haskell</text>
  <text x="395" y="80" fill="white" font-family="sans-serif" font-weight="bold" font-size="12" text-anchor="end" dominant-baseline="middle" transform="rotate(90 395 80)">jax</text>
  <text x="430" y="80" fill="white" font-family="sans-serif" font-weight="bold" font-size="12" text-anchor="end" dominant-baseline="middle" transform="rotate(90 430 80)">manual</text>
  <text x="465" y="80" fill="white" font-family="sans-serif" font-weight="bold" font-size="12" text-anchor="end" dominant-baseline="middle" transform="rotate(90 465 80)">ocaml</text>
  <text x="500" y="80" fill="white" font-family="sans-serif" font-weight="bold" font-size="12" text-anchor="end" dominant-baseline="middle" transform="rotate(90 500 80)">pytorch</text>
  <text x="535" y="80" fill="white" font-family="sans-serif" font-weight="bold" font-size="12" text-anchor="end" dominant-baseline="middle" transform="rotate(90 535 80)">scilean</text>
  <text x="570" y="80" fill="white" font-family="sans-serif" font-weight="bold" font-size="12" text-anchor="end" dominant-baseline="middle" transform="rotate(90 570 80)">tapenade</text>
  <text x="605" y="80" fill="white" font-family="sans-serif" font-weight="bold" font-size="12" text-anchor="end" dominant-baseline="middle" transform="rotate(90 605 80)">tensorflow</text>
  <text x="640" y="80" fill="white" font-family="sans-serif" font-weight="bold" font-size="12" text-anchor="end" dominant-baseline="middle" transform="rotate(90 640 80)">zygote</text>
  <rect x="65" y="85" width="30" height="30" fill="hsl(240 100% 83.1911591168519%)" />
  <rect x="100" y="85" width="30" height="30" fill="hsl(240 100% 97.79293442562454%)" />
  <rect x="135" y="85" width="30" height="30" fill="hsl(240 100% 88.4365501350903%)" />
  <rect x="205" y="85" width="30" height="30" fill="hsl(240 100% 50%)" />
  <rect x="240" y="85" width="30" height="30" fill="hsl(240 100% 92.51468802225932%)" />
  <rect x="310" y="85" width="30" height="30" fill="hsl(240 100% 67.98080706590366%)" />
  <rect x="415" y="85" width="30" height="30" fill="hsl(240 100% 51.42378780559678%)" />
  <rect x="485" y="85" width="30" height="30" fill="rgb(255 255 255 / 50%)" />
  <rect x="555" y="85" width="30" height="30" fill="hsl(240 100% 72.2676403816332%)" />
  <rect x="590" y="85" width="30" height="30" fill="rgb(255 255 255 / 50%)" />
  <rect x="65" y="120" width="30" height="30" fill="hsl(240 100% 89.64652424607007%)" />
  <rect x="100" y="120" width="30" height="30" fill="hsl(240 100% 90.20057104503208%)" />
  <rect x="135" y="120" width="30" height="30" fill="hsl(240 100% 67.3530719810484%)" />
  <rect x="170" y="120" width="30" height="30" fill="hsl(240 100% 50%)" />
  <rect x="205" y="120" width="30" height="30" fill="hsl(240 100% 94.46205087208052%)" />
  <rect x="240" y="120" width="30" height="30" fill="hsl(240 100% 99.32791262412971%)" />
  <rect x="310" y="120" width="30" height="30" fill="hsl(240 100% 96.52394622872202%)" />
  <rect x="345" y="120" width="30" height="30" fill="hsl(240 100% 98.64515266611829%)" />
  <rect x="415" y="120" width="30" height="30" fill="hsl(240 100% 86.58216652539191%)" />
  <rect x="65" y="155" width="30" height="30" fill="hsl(240 100% 98.34452068305387%)" />
  <rect x="100" y="155" width="30" height="30" fill="hsl(240 100% 98.80660922127042%)" />
  <rect x="135" y="155" width="30" height="30" fill="hsl(240 100% 97.3079287036095%)" />
  <rect x="170" y="155" width="30" height="30" fill="rgb(255 255 255 / 50%)" />
  <rect x="205" y="155" width="30" height="30" fill="hsl(240 100% 87.31143123249304%)" />
  <rect x="240" y="155" width="30" height="30" fill="rgb(255 255 255 / 50%)" />
  <rect x="310" y="155" width="30" height="30" fill="hsl(240 100% 90.28733297955415%)" />
  <rect x="380" y="155" width="30" height="30" fill="hsl(240 100% 70.83701730608522%)" />
  <rect x="415" y="155" width="30" height="30" fill="hsl(240 100% 76.3727439418882%)" />
  <rect x="450" y="155" width="30" height="30" fill="hsl(240 100% 99.38890013206885%)" />
  <rect x="485" y="155" width="30" height="30" fill="hsl(240 100% 50%)" />
  <rect x="520" y="155" width="30" height="30" fill="hsl(240 100% 93.4598979839325%)" />
  <rect x="555" y="155" width="30" height="30" fill="hsl(240 100% 77.23644517873514%)" />
  <rect x="590" y="155" width="30" height="30" fill="hsl(240 100% 89.28005507587596%)" />
  <rect x="65" y="190" width="30" height="30" fill="hsl(240 100% 50%)" />
  <rect x="100" y="190" width="30" height="30" fill="hsl(240 100% 50%)" />
  <rect x="135" y="190" width="30" height="30" fill="hsl(240 100% 50%)" />
  <rect x="170" y="190" width="30" height="30" fill="hsl(240 100% 50%)" />
  <rect x="205" y="190" width="30" height="30" fill="hsl(240 100% 50%)" />
  <rect x="240" y="190" width="30" height="30" fill="hsl(240 100% 50%)" />
  <rect x="275" y="190" width="30" height="30" fill="hsl(240 100% 50%)" />
  <rect x="310" y="190" width="30" height="30" fill="hsl(240 100% 50%)" />
  <rect x="345" y="190" width="30" height="30" fill="hsl(240 100% 50%)" />
  <rect x="380" y="190" width="30" height="30" fill="hsl(240 100% 50%)" />
  <rect x="415" y="190" width="30" height="30" fill="hsl(240 100% 50%)" />
  <rect x="450" y="190" width="30" height="30" fill="hsl(240 100% 50%)" />
  <rect x="485" y="190" width="30" height="30" fill="hsl(240 100% 50%)" />
  <rect x="520" y="190" width="30" height="30" fill="hsl(240 100% 50%)" />
  <rect x="555" y="190" width="30" height="30" fill="hsl(240 100% 50%)" />
  <rect x="590" y="190" width="30" height="30" fill="hsl(240 100% 50%)" />
  <rect x="625" y="190" width="30" height="30" fill="hsl(240 100% 50%)" />
  <rect x="65" y="225" width="30" height="30" fill="hsl(240 100% 95.99812267840662%)" />
  <rect x="100" y="225" width="30" height="30" fill="hsl(240 100% 96.31522466831429%)" />
  <rect x="135" y="225" width="30" height="30" fill="hsl(240 100% 88.08838344220436%)" />
  <rect x="205" y="225" width="30" height="30" fill="hsl(240 100% 90.10472419216802%)" />
  <rect x="240" y="225" width="30" height="30" fill="rgb(255 255 255 / 50%)" />
  <rect x="310" y="225" width="30" height="30" fill="hsl(240 100% 89.49811166175698%)" />
  <rect x="415" y="225" width="30" height="30" fill="hsl(240 100% 50%)" />
  <rect x="485" y="225" width="30" height="30" fill="rgb(255 255 255 / 50%)" />
  <rect x="555" y="225" width="30" height="30" fill="rgb(255 255 255 / 50%)" />
  <rect x="590" y="225" width="30" height="30" fill="rgb(255 255 255 / 50%)" />
  <rect x="100" y="260" width="30" height="30" fill="hsl(240 100% 99.86443266107402%)" />
  <rect x="135" y="260" width="30" height="30" fill="hsl(240 100% 99.37367830524865%)" />
  <rect x="170" y="260" width="30" height="30" fill="rgb(255 255 255 / 50%)" />
  <rect x="205" y="260" width="30" height="30" fill="hsl(240 100% 87.16432044166025%)" />
  <rect x="240" y="260" width="30" height="30" fill="rgb(255 255 255 / 50%)" />
  <rect x="310" y="260" width="30" height="30" fill="hsl(240 100% 81.7594139867474%)" />
  <rect x="345" y="260" width="30" height="30" fill="rgb(255 255 255 / 50%)" />
  <rect x="380" y="260" width="30" height="30" fill="hsl(240 100% 50%)" />
  <rect x="415" y="260" width="30" height="30" fill="hsl(240 100% 74.89891167686876%)" />
  <rect x="485" y="260" width="30" height="30" fill="hsl(240 100% 96.74591955255102%)" />
  <rect x="520" y="260" width="30" height="30" fill="hsl(240 100% 93.81861421026642%)" />
  <rect x="65" y="295" width="30" height="30" fill="hsl(240 100% 66.69010367194993%)" />
  <rect x="100" y="295" width="30" height="30" fill="hsl(240 100% 58.63696446557634%)" />
  <rect x="135" y="295" width="30" height="30" fill="hsl(240 100% 59.49984886520082%)" />
  <rect x="170" y="295" width="30" height="30" fill="hsl(240 100% 56.667765949206036%)" />
  <rect x="205" y="295" width="30" height="30" fill="hsl(240 100% 50%)" />
  <rect x="240" y="295" width="30" height="30" fill="hsl(240 100% 99.42182856828006%)" />
  <rect x="310" y="295" width="30" height="30" fill="hsl(240 100% 50.08424319315976%)" />
  <rect x="345" y="295" width="30" height="30" fill="hsl(240 100% 89.33735253558504%)" />
  <rect x="415" y="295" width="30" height="30" fill="hsl(240 100% 52.99054683006678%)" />
  <rect x="65" y="330" width="30" height="30" fill="hsl(240 100% 68.47063958547321%)" />
  <rect x="100" y="330" width="30" height="30" fill="hsl(240 100% 80.54540287033791%)" />
  <rect x="135" y="330" width="30" height="30" fill="hsl(240 100% 50.21770517045387%)" />
  <rect x="170" y="330" width="30" height="30" fill="hsl(240 100% 89.31962308622963%)" />
  <rect x="205" y="330" width="30" height="30" fill="hsl(240 100% 50%)" />
  <rect x="240" y="330" width="30" height="30" fill="hsl(240 100% 99.85086434717971%)" />
  <rect x="310" y="330" width="30" height="30" fill="hsl(240 100% 63.5595490111448%)" />
  <rect x="415" y="330" width="30" height="30" fill="hsl(240 100% 84.54355276544462%)" />
  <rect x="485" y="330" width="30" height="30" fill="hsl(240 100% 99.58861875237022%)" />
  <rect x="520" y="330" width="30" height="30" fill="hsl(240 100% 89.56989397536202%)" />
  <rect x="555" y="330" width="30" height="30" fill="hsl(240 100% 60.13798830843871%)" />
  <rect x="590" y="330" width="30" height="30" fill="hsl(240 100% 97.984692296805%)" />
  <rect x="65" y="365" width="30" height="30" fill="hsl(240 100% 99.31913222575511%)" />
  <rect x="100" y="365" width="30" height="30" fill="hsl(240 100% 99.62174807941615%)" />
  <rect x="135" y="365" width="30" height="30" fill="hsl(240 100% 94.50919665417132%)" />
  <rect x="170" y="365" width="30" height="30" fill="hsl(240 100% 54.99070956164787%)" />
  <rect x="205" y="365" width="30" height="30" fill="hsl(240 100% 87.12964839268747%)" />
  <rect x="240" y="365" width="30" height="30" fill="rgb(255 255 255 / 50%)" />
  <rect x="310" y="365" width="30" height="30" fill="hsl(240 100% 95.91959666830567%)" />
  <rect x="345" y="365" width="30" height="30" fill="hsl(240 100% 99.97077435379808%)" />
  <rect x="415" y="365" width="30" height="30" fill="hsl(240 100% 50%)" />
  <rect x="205" y="400" width="30" height="30" fill="hsl(240 100% 50%)" />
  <rect x="240" y="400" width="30" height="30" fill="hsl(240 100% 95.21409560620046%)" />
  <rect x="310" y="400" width="30" height="30" fill="hsl(240 100% 87.91646958351973%)" />
  <rect x="345" y="400" width="30" height="30" fill="hsl(240 100% 99.7842258429938%)" />
  <rect x="205" y="435" width="30" height="30" fill="hsl(240 100% 50%)" />
  <rect x="240" y="435" width="30" height="30" fill="hsl(240 100% 95.80340901076411%)" />
  <rect x="310" y="435" width="30" height="30" fill="hsl(240 100% 89.02556626581169%)" />
  <rect x="345" y="435" width="30" height="30" fill="hsl(240 100% 99.59781831115573%)" />
</svg>
