<svg xmlns="http://www.w3.org/2000/svg" viewBox="0 0 870 505">
  <rect x="0" y="0" width="870" height="505" rx="5" ry="5" fill="#222" />
  <text x="60" y="100" fill="white" font-family="sans-serif" font-weight="bold" font-size="12" text-anchor="end" dominant-baseline="middle">ba</text>
  <text x="60" y="135" fill="white" font-family="sans-serif" font-weight="bold" font-size="12" text-anchor="end" dominant-baseline="middle">det</text>
  <text x="60" y="170" fill="white" font-family="sans-serif" font-weight="bold" font-size="12" text-anchor="end" dominant-baseline="middle">gmm</text>
  <text x="60" y="205" fill="white" font-family="sans-serif" font-weight="bold" font-size="12" text-anchor="end" dominant-baseline="middle">hello</text>
  <text x="60" y="240" fill="white" font-family="sans-serif" font-weight="bold" font-size="12" text-anchor="end" dominant-baseline="middle">ht</text>
  <text x="60" y="275" fill="white" font-family="sans-serif" font-weight="bold" font-size="12" text-anchor="end" dominant-baseline="middle">kmeans</text>
  <text x="60" y="310" fill="white" font-family="sans-serif" font-weight="bold" font-size="12" text-anchor="end" dominant-baseline="middle">llsq</text>
  <text x="60" y="345" fill="white" font-family="sans-serif" font-weight="bold" font-size="12" text-anchor="end" dominant-baseline="middle">lse</text>
  <text x="60" y="380" fill="white" font-family="sans-serif" font-weight="bold" font-size="12" text-anchor="end" dominant-baseline="middle">lstm</text>
  <text x="60" y="415" fill="white" font-family="sans-serif" font-weight="bold" font-size="12" text-anchor="end" dominant-baseline="middle">ode</text>
  <text x="60" y="450" fill="white" font-family="sans-serif" font-weight="bold" font-size="12" text-anchor="end" dominant-baseline="middle">particle</text>
  <text x="60" y="485" fill="white" font-family="sans-serif" font-weight="bold" font-size="12" text-anchor="end" dominant-baseline="middle">saddle</text>
  <text x="80" y="80" fill="white" font-family="sans-serif" font-weight="bold" font-size="12" text-anchor="end" dominant-baseline="middle" transform="rotate(90 80 80)">ad-hpp</text>
  <text x="115" y="80" fill="white" font-family="sans-serif" font-weight="bold" font-size="12" text-anchor="end" dominant-baseline="middle" transform="rotate(90 115 80)">adept</text>
  <text x="150" y="80" fill="white" font-family="sans-serif" font-weight="bold" font-size="12" text-anchor="end" dominant-baseline="middle" transform="rotate(90 150 80)">adol-c</text>
  <text x="185" y="80" fill="white" font-family="sans-serif" font-weight="bold" font-size="12" text-anchor="end" dominant-baseline="middle" transform="rotate(90 185 80)">codipack</text>
  <text x="220" y="80" fill="white" font-family="sans-serif" font-weight="bold" font-size="12" text-anchor="end" dominant-baseline="middle" transform="rotate(90 220 80)">cppad</text>
  <text x="255" y="80" fill="white" font-family="sans-serif" font-weight="bold" font-size="12" text-anchor="end" dominant-baseline="middle" transform="rotate(90 255 80)">enzyme</text>
  <text x="290" y="80" fill="white" font-family="sans-serif" font-weight="bold" font-size="12" text-anchor="end" dominant-baseline="middle" transform="rotate(90 290 80)">enzyme-jl</text>
  <text x="325" y="80" fill="white" font-family="sans-serif" font-weight="bold" font-size="12" text-anchor="end" dominant-baseline="middle" transform="rotate(90 325 80)">finite</text>
  <text x="360" y="80" fill="white" font-family="sans-serif" font-weight="bold" font-size="12" text-anchor="end" dominant-baseline="middle" transform="rotate(90 360 80)">floretta</text>
  <text x="395" y="80" fill="white" font-family="sans-serif" font-weight="bold" font-size="12" text-anchor="end" dominant-baseline="middle" transform="rotate(90 395 80)">forwarddiff-jl</text>
  <text x="430" y="80" fill="white" font-family="sans-serif" font-weight="bold" font-size="12" text-anchor="end" dominant-baseline="middle" transform="rotate(90 430 80)">futhark</text>
  <text x="465" y="80" fill="white" font-family="sans-serif" font-weight="bold" font-size="12" text-anchor="end" dominant-baseline="middle" transform="rotate(90 465 80)">haskell</text>
  <text x="500" y="80" fill="white" font-family="sans-serif" font-weight="bold" font-size="12" text-anchor="end" dominant-baseline="middle" transform="rotate(90 500 80)">jax</text>
  <text x="535" y="80" fill="white" font-family="sans-serif" font-weight="bold" font-size="12" text-anchor="end" dominant-baseline="middle" transform="rotate(90 535 80)">manual</text>
  <text x="570" y="80" fill="white" font-family="sans-serif" font-weight="bold" font-size="12" text-anchor="end" dominant-baseline="middle" transform="rotate(90 570 80)">mooncake-jl</text>
  <text x="605" y="80" fill="white" font-family="sans-serif" font-weight="bold" font-size="12" text-anchor="end" dominant-baseline="middle" transform="rotate(90 605 80)">ocaml</text>
  <text x="640" y="80" fill="white" font-family="sans-serif" font-weight="bold" font-size="12" text-anchor="end" dominant-baseline="middle" transform="rotate(90 640 80)">pytorch</text>
  <text x="675" y="80" fill="white" font-family="sans-serif" font-weight="bold" font-size="12" text-anchor="end" dominant-baseline="middle" transform="rotate(90 675 80)">reversediff-jl</text>
  <text x="710" y="80" fill="white" font-family="sans-serif" font-weight="bold" font-size="12" text-anchor="end" dominant-baseline="middle" transform="rotate(90 710 80)">scilean</text>
  <text x="745" y="80" fill="white" font-family="sans-serif" font-weight="bold" font-size="12" text-anchor="end" dominant-baseline="middle" transform="rotate(90 745 80)">tapenade</text>
  <text x="780" y="80" fill="white" font-family="sans-serif" font-weight="bold" font-size="12" text-anchor="end" dominant-baseline="middle" transform="rotate(90 780 80)">tensorflow</text>
  <text x="815" y="80" fill="white" font-family="sans-serif" font-weight="bold" font-size="12" text-anchor="end" dominant-baseline="middle" transform="rotate(90 815 80)">tensorflow-js</text>
  <text x="850" y="80" fill="white" font-family="sans-serif" font-weight="bold" font-size="12" text-anchor="end" dominant-baseline="middle" transform="rotate(90 850 80)">zygote</text>
  <rect x="65" y="85" width="30" height="30" fill="hsl(240 100% 80.83371952174826%)" />
  <rect x="100" y="85" width="30" height="30" fill="hsl(240 100% 82.78320195034208%)" />
  <rect x="135" y="85" width="30" height="30" fill="hsl(240 100% 97.981755765294%)" />
  <rect x="170" y="85" width="30" height="30" fill="hsl(240 100% 82.29968683459529%)" />
  <rect x="205" y="85" width="30" height="30" fill="hsl(240 100% 99.00594865639663%)" />
  <rect x="240" y="85" width="30" height="30" fill="hsl(240 100% 51.663166250952436%)" />
  <rect x="310" y="85" width="30" height="30" fill="hsl(240 100% 93.23424800707724%)" />
  <rect x="415" y="85" width="30" height="30" fill="hsl(240 100% 68.08211248252243%)" />
  <rect x="520" y="85" width="30" height="30" fill="hsl(240 100% 50%)" />
  <rect x="625" y="85" width="30" height="30" fill="rgb(255 255 255 / 50%)" />
  <rect x="730" y="85" width="30" height="30" fill="hsl(240 100% 74.78573808589124%)" />
  <rect x="765" y="85" width="30" height="30" fill="rgb(255 255 255 / 50%)" />
  <rect x="835" y="85" width="30" height="30" fill="hsl(240 100% 99.72743385057078%)" />
  <rect x="65" y="120" width="30" height="30" fill="hsl(240 100% 50%)" />
  <rect x="100" y="120" width="30" height="30" fill="hsl(240 100% 82.50628354065505%)" />
  <rect x="135" y="120" width="30" height="30" fill="hsl(240 100% 85.63407089823362%)" />
  <rect x="170" y="120" width="30" height="30" fill="hsl(240 100% 52.13119566696201%)" />
  <rect x="205" y="120" width="30" height="30" fill="hsl(240 100% 92.55373496903944%)" />
  <rect x="240" y="120" width="30" height="30" fill="hsl(240 100% 91.43168040454299%)" />
  <rect x="275" y="120" width="30" height="30" fill="hsl(240 100% 99.35744044780296%)" />
  <rect x="310" y="120" width="30" height="30" fill="hsl(240 100% 99.00267838697815%)" />
  <rect x="380" y="120" width="30" height="30" fill="hsl(240 100% 93.32636060308641%)" />
  <rect x="415" y="120" width="30" height="30" fill="hsl(240 100% 94.65140814975251%)" />
  <rect x="450" y="120" width="30" height="30" fill="hsl(240 100% 97.94111698995408%)" />
  <rect x="520" y="120" width="30" height="30" fill="hsl(240 100% 80.0896651393463%)" />
  <rect x="555" y="120" width="30" height="30" fill="hsl(240 100% 90.29651217197696%)" />
  <rect x="660" y="120" width="30" height="30" fill="rgb(255 255 255 / 50%)" />
  <rect x="835" y="120" width="30" height="30" fill="rgb(255 255 255 / 50%)" />
  <rect x="65" y="155" width="30" height="30" fill="hsl(240 100% 98.42343706725073%)" />
  <rect x="100" y="155" width="30" height="30" fill="hsl(240 100% 98.80426730867318%)" />
  <rect x="135" y="155" width="30" height="30" fill="hsl(240 100% 99.10513134780375%)" />
  <rect x="170" y="155" width="30" height="30" fill="hsl(240 100% 98.03416614121465%)" />
  <rect x="205" y="155" width="30" height="30" fill="hsl(240 100% 99.84921489341043%)" />
  <rect x="240" y="155" width="30" height="30" fill="hsl(240 100% 91.10069822980435%)" />
  <rect x="275" y="155" width="30" height="30" fill="hsl(240 100% 92.6228839395427%)" />
  <rect x="310" y="155" width="30" height="30" fill="rgb(255 255 255 / 50%)" />
  <rect x="415" y="155" width="30" height="30" fill="hsl(240 100% 92.98187625957414%)" />
  <rect x="485" y="155" width="30" height="30" fill="hsl(240 100% 50%)" />
  <rect x="520" y="155" width="30" height="30" fill="hsl(240 100% 83.20535689623868%)" />
  <rect x="590" y="155" width="30" height="30" fill="hsl(240 100% 99.59269035708604%)" />
  <rect x="625" y="155" width="30" height="30" fill="hsl(240 100% 66.74176042934553%)" />
  <rect x="695" y="155" width="30" height="30" fill="hsl(240 100% 95.41168672388855%)" />
  <rect x="730" y="155" width="30" height="30" fill="hsl(240 100% 83.64236564104377%)" />
  <rect x="765" y="155" width="30" height="30" fill="hsl(240 100% 99.576718675235%)" />
  <rect x="835" y="155" width="30" height="30" fill="hsl(240 100% 96.26971082480908%)" />
  <rect x="65" y="190" width="30" height="30" fill="hsl(240 100% 50%)" />
  <rect x="100" y="190" width="30" height="30" fill="hsl(240 100% 50%)" />
  <rect x="135" y="190" width="30" height="30" fill="hsl(240 100% 50%)" />
  <rect x="170" y="190" width="30" height="30" fill="hsl(240 100% 50%)" />
  <rect x="205" y="190" width="30" height="30" fill="hsl(240 100% 50%)" />
  <rect x="240" y="190" width="30" height="30" fill="hsl(240 100% 50%)" />
  <rect x="275" y="190" width="30" height="30" fill="hsl(240 100% 50%)" />
  <rect x="310" y="190" width="30" height="30" fill="hsl(240 100% 50%)" />
  <rect x="345" y="190" width="30" height="30" fill="hsl(240 100% 50%)" />
  <rect x="380" y="190" width="30" height="30" fill="hsl(240 100% 50%)" />
  <rect x="415" y="190" width="30" height="30" fill="hsl(240 100% 50%)" />
  <rect x="450" y="190" width="30" height="30" fill="hsl(240 100% 50%)" />
  <rect x="485" y="190" width="30" height="30" fill="hsl(240 100% 50%)" />
  <rect x="520" y="190" width="30" height="30" fill="hsl(240 100% 50%)" />
  <rect x="555" y="190" width="30" height="30" fill="hsl(240 100% 50%)" />
  <rect x="590" y="190" width="30" height="30" fill="hsl(240 100% 50%)" />
  <rect x="625" y="190" width="30" height="30" fill="hsl(240 100% 50%)" />
  <rect x="660" y="190" width="30" height="30" fill="hsl(240 100% 50%)" />
  <rect x="695" y="190" width="30" height="30" fill="hsl(240 100% 50%)" />
  <rect x="730" y="190" width="30" height="30" fill="hsl(240 100% 50%)" />
  <rect x="765" y="190" width="30" height="30" fill="hsl(240 100% 50%)" />
  <rect x="800" y="190" width="30" height="30" fill="hsl(240 100% 50%)" />
  <rect x="835" y="190" width="30" height="30" fill="hsl(240 100% 50%)" />
  <rect x="100" y="225" width="30" height="30" fill="hsl(240 100% 96.60118637638458%)" />
  <rect x="135" y="225" width="30" height="30" fill="hsl(240 100% 89.68671066851574%)" />
  <rect x="170" y="225" width="30" height="30" fill="hsl(240 100% 89.00984612649161%)" />
  <rect x="240" y="225" width="30" height="30" fill="hsl(240 100% 91.02875719729921%)" />
  <rect x="310" y="225" width="30" height="30" fill="rgb(255 255 255 / 50%)" />
  <rect x="415" y="225" width="30" height="30" fill="hsl(240 100% 90.31059591582228%)" />
  <rect x="520" y="225" width="30" height="30" fill="hsl(240 100% 50%)" />
  <rect x="625" y="225" width="30" height="30" fill="rgb(255 255 255 / 50%)" />
  <rect x="730" y="225" width="30" height="30" fill="hsl(240 100% 92.91684581417411%)" />
  <rect x="765" y="225" width="30" height="30" fill="rgb(255 255 255 / 50%)" />
  <rect x="835" y="225" width="30" height="30" fill="hsl(240 100% 94.21856422732336%)" />
  <rect x="65" y="260" width="30" height="30" fill="hsl(240 100% 99.83729325979841%)" />
  <rect x="135" y="260" width="30" height="30" fill="hsl(240 100% 99.87168924340287%)" />
  <rect x="170" y="260" width="30" height="30" fill="hsl(240 100% 98.83724154893628%)" />
  <rect x="205" y="260" width="30" height="30" fill="rgb(255 255 255 / 50%)" />
  <rect x="240" y="260" width="30" height="30" fill="hsl(240 100% 87.31684053224814%)" />
  <rect x="310" y="260" width="30" height="30" fill="rgb(255 255 255 / 50%)" />
  <rect x="415" y="260" width="30" height="30" fill="hsl(240 100% 81.13400202011057%)" />
  <rect x="450" y="260" width="30" height="30" fill="rgb(255 255 255 / 50%)" />
  <rect x="485" y="260" width="30" height="30" fill="hsl(240 100% 50%)" />
  <rect x="520" y="260" width="30" height="30" fill="hsl(240 100% 71.62496162588788%)" />
  <rect x="625" y="260" width="30" height="30" fill="hsl(240 100% 96.99049890691735%)" />
  <rect x="695" y="260" width="30" height="30" fill="hsl(240 100% 94.22949973566612%)" />
  <rect x="65" y="295" width="30" height="30" fill="hsl(240 100% 85.7527532700679%)" />
  <rect x="100" y="295" width="30" height="30" fill="hsl(240 100% 97.5911199284926%)" />
  <rect x="135" y="295" width="30" height="30" fill="hsl(240 100% 95.1658863964065%)" />
  <rect x="170" y="295" width="30" height="30" fill="hsl(240 100% 90.64611697322127%)" />
  <rect x="205" y="295" width="30" height="30" fill="hsl(240 100% 99.43602432665381%)" />
  <rect x="240" y="295" width="30" height="30" fill="hsl(240 100% 50.50311024371142%)" />
  <rect x="275" y="295" width="30" height="30" fill="hsl(240 100% 50%)" />
  <rect x="310" y="295" width="30" height="30" fill="hsl(240 100% 99.49839319080306%)" />
  <rect x="345" y="295" width="30" height="30" fill="hsl(240 100% 94.8298086308099%)" />
  <rect x="415" y="295" width="30" height="30" fill="hsl(240 100% 55.134399002697215%)" />
  <rect x="450" y="295" width="30" height="30" fill="hsl(240 100% 99.32974274852292%)" />
  <rect x="485" y="295" width="30" height="30" fill="hsl(240 100% 87.96611935647019%)" />
  <rect x="520" y="295" width="30" height="30" fill="hsl(240 100% 57.779635717381126%)" />
  <rect x="695" y="295" width="30" height="30" fill="hsl(240 100% 97.61019234450804%)" />
  <rect x="800" y="295" width="30" height="30" fill="hsl(240 100% 99.57154547863901%)" />
  <rect x="835" y="295" width="30" height="30" fill="hsl(240 100% 99.95672499124409%)" />
  <rect x="65" y="330" width="30" height="30" fill="hsl(240 100% 88.7914984062925%)" />
  <rect x="100" y="330" width="30" height="30" fill="hsl(240 100% 94.81395311570674%)" />
  <rect x="135" y="330" width="30" height="30" fill="hsl(240 100% 97.25134909638228%)" />
  <rect x="170" y="330" width="30" height="30" fill="hsl(240 100% 88.37390463144033%)" />
  <rect x="205" y="330" width="30" height="30" fill="hsl(240 100% 99.19413025394928%)" />
  <rect x="240" y="330" width="30" height="30" fill="hsl(240 100% 79.56250842439228%)" />
  <rect x="275" y="330" width="30" height="30" fill="hsl(240 100% 88.36534137311082%)" />
  <rect x="310" y="330" width="30" height="30" fill="rgb(255 255 255 / 50%)" />
  <rect x="345" y="330" width="30" height="30" fill="hsl(240 100% 97.21281998238055%)" />
  <rect x="415" y="330" width="30" height="30" fill="hsl(240 100% 85.78712185299996%)" />
  <rect x="450" y="330" width="30" height="30" fill="hsl(240 100% 99.80998398617879%)" />
  <rect x="485" y="330" width="30" height="30" fill="hsl(240 100% 72.2932546443938%)" />
  <rect x="520" y="330" width="30" height="30" fill="hsl(240 100% 76.62009789717848%)" />
  <rect x="590" y="330" width="30" height="30" fill="hsl(240 100% 93.76164267251993%)" />
  <rect x="625" y="330" width="30" height="30" fill="hsl(240 100% 50%)" />
  <rect x="765" y="330" width="30" height="30" fill="hsl(240 100% 94.28549475486935%)" />
  <rect x="800" y="330" width="30" height="30" fill="hsl(240 100% 99.21685238040716%)" />
  <rect x="835" y="330" width="30" height="30" fill="hsl(240 100% 80.6983536473104%)" />
  <rect x="65" y="365" width="30" height="30" fill="hsl(240 100% 56.86306269565542%)" />
  <rect x="100" y="365" width="30" height="30" fill="hsl(240 100% 72.13534400733187%)" />
  <rect x="135" y="365" width="30" height="30" fill="hsl(240 100% 82.22497204563965%)" />
  <rect x="170" y="365" width="30" height="30" fill="hsl(240 100% 50%)" />
  <rect x="205" y="365" width="30" height="30" fill="hsl(240 100% 96.1524201796132%)" />
  <rect x="240" y="365" width="30" height="30" fill="hsl(240 100% 58.2557379175972%)" />
  <rect x="275" y="365" width="30" height="30" fill="hsl(240 100% 92.25722109656725%)" />
  <rect x="310" y="365" width="30" height="30" fill="hsl(240 100% 99.86243994409132%)" />
  <rect x="415" y="365" width="30" height="30" fill="hsl(240 100% 66.65895886330748%)" />
  <rect x="520" y="365" width="30" height="30" fill="hsl(240 100% 85.88704429138525%)" />
  <rect x="625" y="365" width="30" height="30" fill="hsl(240 100% 99.63927243711319%)" />
  <rect x="730" y="365" width="30" height="30" fill="hsl(240 100% 63.28022241316004%)" />
  <rect x="765" y="365" width="30" height="30" fill="hsl(240 100% 98.16970540987438%)" />
  <rect x="835" y="365" width="30" height="30" fill="hsl(240 100% 98.71376522007776%)" />
  <rect x="65" y="400" width="30" height="30" fill="hsl(240 100% 98.07639447370946%)" />
  <rect x="100" y="400" width="30" height="30" fill="hsl(240 100% 99.23650254046073%)" />
  <rect x="135" y="400" width="30" height="30" fill="hsl(240 100% 99.58652209433959%)" />
  <rect x="170" y="400" width="30" height="30" fill="hsl(240 100% 94.17621233353213%)" />
  <rect x="205" y="400" width="30" height="30" fill="hsl(240 100% 99.02954908507617%)" />
  <rect x="240" y="400" width="30" height="30" fill="hsl(240 100% 82.78699166153704%)" />
  <rect x="275" y="400" width="30" height="30" fill="hsl(240 100% 94.06697538744804%)" />
  <rect x="310" y="400" width="30" height="30" fill="rgb(255 255 255 / 50%)" />
  <rect x="380" y="400" width="30" height="30" fill="rgb(255 255 255 / 50%)" />
  <rect x="415" y="400" width="30" height="30" fill="hsl(240 100% 92.37476929517108%)" />
  <rect x="450" y="400" width="30" height="30" fill="hsl(240 100% 99.9625127158125%)" />
  <rect x="485" y="400" width="30" height="30" fill="hsl(240 100% 73.02146255503487%)" />
  <rect x="520" y="400" width="30" height="30" fill="hsl(240 100% 50%)" />
  <rect x="555" y="400" width="30" height="30" fill="hsl(240 100% 98.86573671452858%)" />
  <rect x="660" y="400" width="30" height="30" fill="rgb(255 255 255 / 50%)" />
  <rect x="835" y="400" width="30" height="30" fill="hsl(240 100% 98.98119592992981%)" />
  <rect x="65" y="435" width="30" height="30" fill="hsl(240 100% 92.90903838415699%)" />
  <rect x="240" y="435" width="30" height="30" fill="hsl(240 100% 50%)" />
  <rect x="310" y="435" width="30" height="30" fill="hsl(240 100% 94.33326305864037%)" />
  <rect x="415" y="435" width="30" height="30" fill="hsl(240 100% 87.00799017998753%)" />
  <rect x="450" y="435" width="30" height="30" fill="hsl(240 100% 99.79150123847704%)" />
  <rect x="65" y="470" width="30" height="30" fill="hsl(240 100% 50%)" />
  <rect x="240" y="470" width="30" height="30" fill="hsl(240 100% 50.173539077156484%)" />
  <rect x="310" y="470" width="30" height="30" fill="hsl(240 100% 97.15886783037544%)" />
  <rect x="415" y="470" width="30" height="30" fill="hsl(240 100% 89.08056388485498%)" />
  <rect x="450" y="470" width="30" height="30" fill="hsl(240 100% 99.57340071935653%)" />
</svg>
