<svg xmlns="http://www.w3.org/2000/svg" viewBox="0 0 870 505">
  <rect x="0" y="0" width="870" height="505" rx="5" ry="5" fill="#222" />
  <text x="60" y="100" fill="white" font-family="sans-serif" font-weight="bold" font-size="12" text-anchor="end" dominant-baseline="middle">ba</text>
  <text x="60" y="135" fill="white" font-family="sans-serif" font-weight="bold" font-size="12" text-anchor="end" dominant-baseline="middle">det</text>
  <text x="60" y="170" fill="white" font-family="sans-serif" font-weight="bold" font-size="12" text-anchor="end" dominant-baseline="middle">gmm</text>
  <text x="60" y="205" fill="white" font-family="sans-serif" font-weight="bold" font-size="12" text-anchor="end" dominant-baseline="middle">hello</text>
  <text x="60" y="240" fill="white" font-family="sans-serif" font-weight="bold" font-size="12" text-anchor="end" dominant-baseline="middle">ht</text>
  <text x="60" y="275" fill="white" font-family="sans-serif" font-weight="bold" font-size="12" text-anchor="end" dominant-baseline="middle">kmeans</text>
  <text x="60" y="310" fill="white" font-family="sans-serif" font-weight="bold" font-size="12" text-anchor="end" dominant-baseline="middle">llsq</text>
  <text x="60" y="345" fill="white" font-family="sans-serif" font-weight="bold" font-size="12" text-anchor="end" dominant-baseline="middle">lse</text>
  <text x="60" y="380" fill="white" font-family="sans-serif" font-weight="bold" font-size="12" text-anchor="end" dominant-baseline="middle">lstm</text>
  <text x="60" y="415" fill="white" font-family="sans-serif" font-weight="bold" font-size="12" text-anchor="end" dominant-baseline="middle">ode</text>
  <text x="60" y="450" fill="white" font-family="sans-serif" font-weight="bold" font-size="12" text-anchor="end" dominant-baseline="middle">particle</text>
  <text x="60" y="485" fill="white" font-family="sans-serif" font-weight="bold" font-size="12" text-anchor="end" dominant-baseline="middle">saddle</text>
  <text x="80" y="80" fill="white" font-family="sans-serif" font-weight="bold" font-size="12" text-anchor="end" dominant-baseline="middle" transform="rotate(90 80 80)">ad-hpp</text>
  <text x="115" y="80" fill="white" font-family="sans-serif" font-weight="bold" font-size="12" text-anchor="end" dominant-baseline="middle" transform="rotate(90 115 80)">adept</text>
  <text x="150" y="80" fill="white" font-family="sans-serif" font-weight="bold" font-size="12" text-anchor="end" dominant-baseline="middle" transform="rotate(90 150 80)">adol-c</text>
  <text x="185" y="80" fill="white" font-family="sans-serif" font-weight="bold" font-size="12" text-anchor="end" dominant-baseline="middle" transform="rotate(90 185 80)">codipack</text>
  <text x="220" y="80" fill="white" font-family="sans-serif" font-weight="bold" font-size="12" text-anchor="end" dominant-baseline="middle" transform="rotate(90 220 80)">cppad</text>
  <text x="255" y="80" fill="white" font-family="sans-serif" font-weight="bold" font-size="12" text-anchor="end" dominant-baseline="middle" transform="rotate(90 255 80)">enzyme</text>
  <text x="290" y="80" fill="white" font-family="sans-serif" font-weight="bold" font-size="12" text-anchor="end" dominant-baseline="middle" transform="rotate(90 290 80)">enzyme-jl</text>
  <text x="325" y="80" fill="white" font-family="sans-serif" font-weight="bold" font-size="12" text-anchor="end" dominant-baseline="middle" transform="rotate(90 325 80)">finite</text>
  <text x="360" y="80" fill="white" font-family="sans-serif" font-weight="bold" font-size="12" text-anchor="end" dominant-baseline="middle" transform="rotate(90 360 80)">floretta</text>
  <text x="395" y="80" fill="white" font-family="sans-serif" font-weight="bold" font-size="12" text-anchor="end" dominant-baseline="middle" transform="rotate(90 395 80)">forwarddiff-jl</text>
  <text x="430" y="80" fill="white" font-family="sans-serif" font-weight="bold" font-size="12" text-anchor="end" dominant-baseline="middle" transform="rotate(90 430 80)">futhark</text>
  <text x="465" y="80" fill="white" font-family="sans-serif" font-weight="bold" font-size="12" text-anchor="end" dominant-baseline="middle" transform="rotate(90 465 80)">haskell</text>
  <text x="500" y="80" fill="white" font-family="sans-serif" font-weight="bold" font-size="12" text-anchor="end" dominant-baseline="middle" transform="rotate(90 500 80)">jax</text>
  <text x="535" y="80" fill="white" font-family="sans-serif" font-weight="bold" font-size="12" text-anchor="end" dominant-baseline="middle" transform="rotate(90 535 80)">manual</text>
  <text x="570" y="80" fill="white" font-family="sans-serif" font-weight="bold" font-size="12" text-anchor="end" dominant-baseline="middle" transform="rotate(90 570 80)">mooncake-jl</text>
  <text x="605" y="80" fill="white" font-family="sans-serif" font-weight="bold" font-size="12" text-anchor="end" dominant-baseline="middle" transform="rotate(90 605 80)">ocaml</text>
  <text x="640" y="80" fill="white" font-family="sans-serif" font-weight="bold" font-size="12" text-anchor="end" dominant-baseline="middle" transform="rotate(90 640 80)">pytorch</text>
  <text x="675" y="80" fill="white" font-family="sans-serif" font-weight="bold" font-size="12" text-anchor="end" dominant-baseline="middle" transform="rotate(90 675 80)">reversediff-jl</text>
  <text x="710" y="80" fill="white" font-family="sans-serif" font-weight="bold" font-size="12" text-anchor="end" dominant-baseline="middle" transform="rotate(90 710 80)">scilean</text>
  <text x="745" y="80" fill="white" font-family="sans-serif" font-weight="bold" font-size="12" text-anchor="end" dominant-baseline="middle" transform="rotate(90 745 80)">tapenade</text>
  <text x="780" y="80" fill="white" font-family="sans-serif" font-weight="bold" font-size="12" text-anchor="end" dominant-baseline="middle" transform="rotate(90 780 80)">tensorflow</text>
  <text x="815" y="80" fill="white" font-family="sans-serif" font-weight="bold" font-size="12" text-anchor="end" dominant-baseline="middle" transform="rotate(90 815 80)">tensorflow-js</text>
  <text x="850" y="80" fill="white" font-family="sans-serif" font-weight="bold" font-size="12" text-anchor="end" dominant-baseline="middle" transform="rotate(90 850 80)">zygote</text>
  <rect x="65" y="85" width="30" height="30" fill="hsl(240 100% 80.6234418966145%)" />
  <rect x="100" y="85" width="30" height="30" fill="hsl(240 100% 82.35656582487623%)" />
  <rect x="135" y="85" width="30" height="30" fill="hsl(240 100% 97.84400057184202%)" />
  <rect x="170" y="85" width="30" height="30" fill="hsl(240 100% 81.69958974762267%)" />
  <rect x="205" y="85" width="30" height="30" fill="hsl(240 100% 98.94923703632179%)" />
  <rect x="240" y="85" width="30" height="30" fill="hsl(240 100% 50%)" />
  <rect x="310" y="85" width="30" height="30" fill="hsl(240 100% 92.88798504979863%)" />
  <rect x="415" y="85" width="30" height="30" fill="hsl(240 100% 66.88720784697924%)" />
  <rect x="520" y="85" width="30" height="30" fill="hsl(240 100% 54.227228074115736%)" />
  <rect x="625" y="85" width="30" height="30" fill="rgb(255 255 255 / 50%)" />
  <rect x="730" y="85" width="30" height="30" fill="hsl(240 100% 74.14365366656563%)" />
  <rect x="765" y="85" width="30" height="30" fill="rgb(255 255 255 / 50%)" />
  <rect x="835" y="85" width="30" height="30" fill="hsl(240 100% 99.7243236139362%)" />
  <rect x="65" y="120" width="30" height="30" fill="hsl(240 100% 60.991094056819456%)" />
  <rect x="100" y="120" width="30" height="30" fill="hsl(240 100% 84.13698256878504%)" />
  <rect x="135" y="120" width="30" height="30" fill="hsl(240 100% 85.08896672382974%)" />
  <rect x="170" y="120" width="30" height="30" fill="hsl(240 100% 50%)" />
  <rect x="205" y="120" width="30" height="30" fill="hsl(240 100% 92.2486801532624%)" />
  <rect x="240" y="120" width="30" height="30" fill="hsl(240 100% 91.13388757582698%)" />
  <rect x="275" y="120" width="30" height="30" fill="hsl(240 100% 99.32501473756716%)" />
  <rect x="310" y="120" width="30" height="30" fill="hsl(240 100% 98.98969046392304%)" />
  <rect x="380" y="120" width="30" height="30" fill="hsl(240 100% 93.04330074918656%)" />
  <rect x="415" y="120" width="30" height="30" fill="hsl(240 100% 94.3262234885945%)" />
  <rect x="450" y="120" width="30" height="30" fill="hsl(240 100% 97.8013652125296%)" />
  <rect x="520" y="120" width="30" height="30" fill="hsl(240 100% 78.62704804751014%)" />
  <rect x="555" y="120" width="30" height="30" fill="hsl(240 100% 89.71191608515068%)" />
  <rect x="660" y="120" width="30" height="30" fill="rgb(255 255 255 / 50%)" />
  <rect x="835" y="120" width="30" height="30" fill="rgb(255 255 255 / 50%)" />
  <rect x="65" y="155" width="30" height="30" fill="hsl(240 100% 98.00350174705832%)" />
  <rect x="100" y="155" width="30" height="30" fill="hsl(240 100% 98.83757633184698%)" />
  <rect x="135" y="155" width="30" height="30" fill="hsl(240 100% 99.18867549884206%)" />
  <rect x="170" y="155" width="30" height="30" fill="hsl(240 100% 98.05580194221366%)" />
  <rect x="205" y="155" width="30" height="30" fill="hsl(240 100% 99.84158524455768%)" />
  <rect x="240" y="155" width="30" height="30" fill="hsl(240 100% 90.74606644625871%)" />
  <rect x="275" y="155" width="30" height="30" fill="hsl(240 100% 91.392125860795%)" />
  <rect x="310" y="155" width="30" height="30" fill="rgb(255 255 255 / 50%)" />
  <rect x="415" y="155" width="30" height="30" fill="hsl(240 100% 92.66735078168557%)" />
  <rect x="485" y="155" width="30" height="30" fill="hsl(240 100% 50%)" />
  <rect x="520" y="155" width="30" height="30" fill="hsl(240 100% 85.40306749238367%)" />
  <rect x="590" y="155" width="30" height="30" fill="hsl(240 100% 99.58959681350412%)" />
  <rect x="625" y="155" width="30" height="30" fill="hsl(240 100% 66.39620983289112%)" />
  <rect x="695" y="155" width="30" height="30" fill="hsl(240 100% 95.18607120621142%)" />
  <rect x="730" y="155" width="30" height="30" fill="hsl(240 100% 91.00585383153022%)" />
  <rect x="765" y="155" width="30" height="30" fill="hsl(240 100% 99.55670185185372%)" />
  <rect x="835" y="155" width="30" height="30" fill="hsl(240 100% 96.05952595920542%)" />
  <rect x="65" y="190" width="30" height="30" fill="hsl(240 100% 50%)" />
  <rect x="100" y="190" width="30" height="30" fill="hsl(240 100% 50%)" />
  <rect x="135" y="190" width="30" height="30" fill="hsl(240 100% 50%)" />
  <rect x="170" y="190" width="30" height="30" fill="hsl(240 100% 50%)" />
  <rect x="205" y="190" width="30" height="30" fill="hsl(240 100% 50%)" />
  <rect x="240" y="190" width="30" height="30" fill="hsl(240 100% 50%)" />
  <rect x="275" y="190" width="30" height="30" fill="hsl(240 100% 50%)" />
  <rect x="310" y="190" width="30" height="30" fill="hsl(240 100% 50%)" />
  <rect x="345" y="190" width="30" height="30" fill="hsl(240 100% 50%)" />
  <rect x="380" y="190" width="30" height="30" fill="hsl(240 100% 50%)" />
  <rect x="415" y="190" width="30" height="30" fill="hsl(240 100% 50%)" />
  <rect x="450" y="190" width="30" height="30" fill="hsl(240 100% 50%)" />
  <rect x="485" y="190" width="30" height="30" fill="hsl(240 100% 50%)" />
  <rect x="520" y="190" width="30" height="30" fill="hsl(240 100% 50%)" />
  <rect x="555" y="190" width="30" height="30" fill="hsl(240 100% 50%)" />
  <rect x="590" y="190" width="30" height="30" fill="hsl(240 100% 50%)" />
  <rect x="625" y="190" width="30" height="30" fill="hsl(240 100% 50%)" />
  <rect x="660" y="190" width="30" height="30" fill="hsl(240 100% 50%)" />
  <rect x="695" y="190" width="30" height="30" fill="hsl(240 100% 50%)" />
  <rect x="730" y="190" width="30" height="30" fill="hsl(240 100% 50%)" />
  <rect x="765" y="190" width="30" height="30" fill="hsl(240 100% 50%)" />
  <rect x="800" y="190" width="30" height="30" fill="hsl(240 100% 50%)" />
  <rect x="835" y="190" width="30" height="30" fill="hsl(240 100% 50%)" />
  <rect x="100" y="225" width="30" height="30" fill="hsl(240 100% 97.06604611048492%)" />
  <rect x="135" y="225" width="30" height="30" fill="hsl(240 100% 89.35417061004382%)" />
  <rect x="170" y="225" width="30" height="30" fill="hsl(240 100% 90.72306649370286%)" />
  <rect x="240" y="225" width="30" height="30" fill="hsl(240 100% 92.27691911989952%)" />
  <rect x="310" y="225" width="30" height="30" fill="rgb(255 255 255 / 50%)" />
  <rect x="415" y="225" width="30" height="30" fill="hsl(240 100% 91.69906523619179%)" />
  <rect x="520" y="225" width="30" height="30" fill="hsl(240 100% 50%)" />
  <rect x="625" y="225" width="30" height="30" fill="rgb(255 255 255 / 50%)" />
  <rect x="730" y="225" width="30" height="30" fill="hsl(240 100% 93.98484702407137%)" />
  <rect x="765" y="225" width="30" height="30" fill="rgb(255 255 255 / 50%)" />
  <rect x="835" y="225" width="30" height="30" fill="hsl(240 100% 94.84839835253582%)" />
  <rect x="65" y="260" width="30" height="30" fill="hsl(240 100% 99.86923693755402%)" />
  <rect x="135" y="260" width="30" height="30" fill="hsl(240 100% 99.90463784994735%)" />
  <rect x="170" y="260" width="30" height="30" fill="hsl(240 100% 98.93359846326841%)" />
  <rect x="205" y="260" width="30" height="30" fill="rgb(255 255 255 / 50%)" />
  <rect x="240" y="260" width="30" height="30" fill="hsl(240 100% 86.5251644068636%)" />
  <rect x="310" y="260" width="30" height="30" fill="rgb(255 255 255 / 50%)" />
  <rect x="415" y="260" width="30" height="30" fill="hsl(240 100% 80.0947269683416%)" />
  <rect x="450" y="260" width="30" height="30" fill="rgb(255 255 255 / 50%)" />
  <rect x="485" y="260" width="30" height="30" fill="hsl(240 100% 50%)" />
  <rect x="520" y="260" width="30" height="30" fill="hsl(240 100% 71.13286204235035%)" />
  <rect x="625" y="260" width="30" height="30" fill="hsl(240 100% 96.95590039916097%)" />
  <rect x="695" y="260" width="30" height="30" fill="hsl(240 100% 93.99492117388435%)" />
  <rect x="65" y="295" width="30" height="30" fill="hsl(240 100% 85.94958057350506%)" />
  <rect x="100" y="295" width="30" height="30" fill="hsl(240 100% 97.46992601441163%)" />
  <rect x="135" y="295" width="30" height="30" fill="hsl(240 100% 95.00979366109391%)" />
  <rect x="170" y="295" width="30" height="30" fill="hsl(240 100% 89.12426900454211%)" />
  <rect x="205" y="295" width="30" height="30" fill="hsl(240 100% 99.47973003233217%)" />
  <rect x="240" y="295" width="30" height="30" fill="hsl(240 100% 50%)" />
  <rect x="275" y="295" width="30" height="30" fill="hsl(240 100% 55.42260220681542%)" />
  <rect x="310" y="295" width="30" height="30" fill="hsl(240 100% 99.5004583553977%)" />
  <rect x="345" y="295" width="30" height="30" fill="hsl(240 100% 94.58462093988969%)" />
  <rect x="415" y="295" width="30" height="30" fill="hsl(240 100% 54.258412928749976%)" />
  <rect x="450" y="295" width="30" height="30" fill="hsl(240 100% 99.32057072530446%)" />
  <rect x="485" y="295" width="30" height="30" fill="hsl(240 100% 87.92026848997114%)" />
  <rect x="520" y="295" width="30" height="30" fill="hsl(240 100% 56.955913091739696%)" />
  <rect x="695" y="295" width="30" height="30" fill="hsl(240 100% 97.55786091101442%)" />
  <rect x="800" y="295" width="30" height="30" fill="hsl(240 100% 99.58958550269926%)" />
  <rect x="835" y="295" width="30" height="30" fill="hsl(240 100% 99.95574034352767%)" />
  <rect x="65" y="330" width="30" height="30" fill="hsl(240 100% 90.40754207142328%)" />
  <rect x="100" y="330" width="30" height="30" fill="hsl(240 100% 94.68910030421875%)" />
  <rect x="135" y="330" width="30" height="30" fill="hsl(240 100% 96.94035640663589%)" />
  <rect x="170" y="330" width="30" height="30" fill="hsl(240 100% 87.68288272095737%)" />
  <rect x="205" y="330" width="30" height="30" fill="hsl(240 100% 99.25980618998994%)" />
  <rect x="240" y="330" width="30" height="30" fill="hsl(240 100% 80.82112827533837%)" />
  <rect x="275" y="330" width="30" height="30" fill="hsl(240 100% 88.91587875038057%)" />
  <rect x="310" y="330" width="30" height="30" fill="rgb(255 255 255 / 50%)" />
  <rect x="345" y="330" width="30" height="30" fill="hsl(240 100% 97.31704562127237%)" />
  <rect x="415" y="330" width="30" height="30" fill="hsl(240 100% 86.64954816309165%)" />
  <rect x="450" y="330" width="30" height="30" fill="hsl(240 100% 99.82259708939003%)" />
  <rect x="485" y="330" width="30" height="30" fill="hsl(240 100% 73.06352669774782%)" />
  <rect x="520" y="330" width="30" height="30" fill="hsl(240 100% 72.65434409698938%)" />
  <rect x="590" y="330" width="30" height="30" fill="hsl(240 100% 94.12705033985901%)" />
  <rect x="625" y="330" width="30" height="30" fill="hsl(240 100% 50%)" />
  <rect x="765" y="330" width="30" height="30" fill="hsl(240 100% 94.8566669535315%)" />
  <rect x="800" y="330" width="30" height="30" fill="hsl(240 100% 99.30451257434108%)" />
  <rect x="835" y="330" width="30" height="30" fill="hsl(240 100% 82.53764387709182%)" />
  <rect x="65" y="365" width="30" height="30" fill="hsl(240 100% 57.54009603854387%)" />
  <rect x="100" y="365" width="30" height="30" fill="hsl(240 100% 71.5957993735297%)" />
  <rect x="135" y="365" width="30" height="30" fill="hsl(240 100% 81.71961360962007%)" />
  <rect x="170" y="365" width="30" height="30" fill="hsl(240 100% 50%)" />
  <rect x="205" y="365" width="30" height="30" fill="hsl(240 100% 96.0696382773839%)" />
  <rect x="240" y="365" width="30" height="30" fill="hsl(240 100% 58.68323492856309%)" />
  <rect x="275" y="365" width="30" height="30" fill="hsl(240 100% 90.66655670063975%)" />
  <rect x="310" y="365" width="30" height="30" fill="hsl(240 100% 99.83534085547029%)" />
  <rect x="415" y="365" width="30" height="30" fill="hsl(240 100% 66.52248819603402%)" />
  <rect x="520" y="365" width="30" height="30" fill="hsl(240 100% 86.14708559146814%)" />
  <rect x="625" y="365" width="30" height="30" fill="hsl(240 100% 99.6333193041465%)" />
  <rect x="730" y="365" width="30" height="30" fill="hsl(240 100% 63.42239403623758%)" />
  <rect x="765" y="365" width="30" height="30" fill="hsl(240 100% 98.38571278975601%)" />
  <rect x="835" y="365" width="30" height="30" fill="hsl(240 100% 98.7664982708897%)" />
  <rect x="65" y="400" width="30" height="30" fill="hsl(240 100% 98.104925744593%)" />
  <rect x="100" y="400" width="30" height="30" fill="hsl(240 100% 99.63321596014588%)" />
  <rect x="135" y="400" width="30" height="30" fill="hsl(240 100% 99.66202707559745%)" />
  <rect x="170" y="400" width="30" height="30" fill="hsl(240 100% 94.73900389032757%)" />
  <rect x="205" y="400" width="30" height="30" fill="hsl(240 100% 99.22692946389675%)" />
  <rect x="240" y="400" width="30" height="30" fill="hsl(240 100% 86.0259313961324%)" />
  <rect x="275" y="400" width="30" height="30" fill="hsl(240 100% 95.30804232222638%)" />
  <rect x="310" y="400" width="30" height="30" fill="rgb(255 255 255 / 50%)" />
  <rect x="380" y="400" width="30" height="30" fill="rgb(255 255 255 / 50%)" />
  <rect x="415" y="400" width="30" height="30" fill="hsl(240 100% 93.92693129372793%)" />
  <rect x="450" y="400" width="30" height="30" fill="hsl(240 100% 99.97271572260827%)" />
  <rect x="485" y="400" width="30" height="30" fill="hsl(240 100% 78.69951251399482%)" />
  <rect x="520" y="400" width="30" height="30" fill="hsl(240 100% 50%)" />
  <rect x="555" y="400" width="30" height="30" fill="hsl(240 100% 99.10025309221079%)" />
  <rect x="660" y="400" width="30" height="30" fill="rgb(255 255 255 / 50%)" />
  <rect x="835" y="400" width="30" height="30" fill="hsl(240 100% 99.03765352596562%)" />
  <rect x="65" y="435" width="30" height="30" fill="hsl(240 100% 93.27828691815722%)" />
  <rect x="240" y="435" width="30" height="30" fill="hsl(240 100% 50%)" />
  <rect x="310" y="435" width="30" height="30" fill="hsl(240 100% 91.68263114557361%)" />
  <rect x="415" y="435" width="30" height="30" fill="hsl(240 100% 86.99693352045617%)" />
  <rect x="450" y="435" width="30" height="30" fill="hsl(240 100% 99.78106170908076%)" />
  <rect x="65" y="470" width="30" height="30" fill="hsl(240 100% 50%)" />
  <rect x="240" y="470" width="30" height="30" fill="hsl(240 100% 50.126942679765676%)" />
  <rect x="310" y="470" width="30" height="30" fill="hsl(240 100% 96.36590263947383%)" />
  <rect x="415" y="470" width="30" height="30" fill="hsl(240 100% 89.04802444415746%)" />
  <rect x="450" y="470" width="30" height="30" fill="hsl(240 100% 99.5585655887673%)" />
</svg>
