<svg xmlns="http://www.w3.org/2000/svg" viewBox="0 0 765 505">
  <rect x="0" y="0" width="765" height="505" rx="5" ry="5" fill="#222" />
  <text x="60" y="100" fill="white" font-family="sans-serif" font-weight="bold" font-size="12" text-anchor="end" dominant-baseline="middle">ba</text>
  <text x="60" y="135" fill="white" font-family="sans-serif" font-weight="bold" font-size="12" text-anchor="end" dominant-baseline="middle">det</text>
  <text x="60" y="170" fill="white" font-family="sans-serif" font-weight="bold" font-size="12" text-anchor="end" dominant-baseline="middle">gmm</text>
  <text x="60" y="205" fill="white" font-family="sans-serif" font-weight="bold" font-size="12" text-anchor="end" dominant-baseline="middle">hello</text>
  <text x="60" y="240" fill="white" font-family="sans-serif" font-weight="bold" font-size="12" text-anchor="end" dominant-baseline="middle">ht</text>
  <text x="60" y="275" fill="white" font-family="sans-serif" font-weight="bold" font-size="12" text-anchor="end" dominant-baseline="middle">kmeans</text>
  <text x="60" y="310" fill="white" font-family="sans-serif" font-weight="bold" font-size="12" text-anchor="end" dominant-baseline="middle">llsq</text>
  <text x="60" y="345" fill="white" font-family="sans-serif" font-weight="bold" font-size="12" text-anchor="end" dominant-baseline="middle">lse</text>
  <text x="60" y="380" fill="white" font-family="sans-serif" font-weight="bold" font-size="12" text-anchor="end" dominant-baseline="middle">lstm</text>
  <text x="60" y="415" fill="white" font-family="sans-serif" font-weight="bold" font-size="12" text-anchor="end" dominant-baseline="middle">ode</text>
  <text x="60" y="450" fill="white" font-family="sans-serif" font-weight="bold" font-size="12" text-anchor="end" dominant-baseline="middle">particle</text>
  <text x="60" y="485" fill="white" font-family="sans-serif" font-weight="bold" font-size="12" text-anchor="end" dominant-baseline="middle">saddle</text>
  <text x="80" y="80" fill="white" font-family="sans-serif" font-weight="bold" font-size="12" text-anchor="end" dominant-baseline="middle" transform="rotate(90 80 80)">ad-hpp</text>
  <text x="115" y="80" fill="white" font-family="sans-serif" font-weight="bold" font-size="12" text-anchor="end" dominant-baseline="middle" transform="rotate(90 115 80)">adept</text>
  <text x="150" y="80" fill="white" font-family="sans-serif" font-weight="bold" font-size="12" text-anchor="end" dominant-baseline="middle" transform="rotate(90 150 80)">adol-c</text>
  <text x="185" y="80" fill="white" font-family="sans-serif" font-weight="bold" font-size="12" text-anchor="end" dominant-baseline="middle" transform="rotate(90 185 80)">codipack</text>
  <text x="220" y="80" fill="white" font-family="sans-serif" font-weight="bold" font-size="12" text-anchor="end" dominant-baseline="middle" transform="rotate(90 220 80)">cppad</text>
  <text x="255" y="80" fill="white" font-family="sans-serif" font-weight="bold" font-size="12" text-anchor="end" dominant-baseline="middle" transform="rotate(90 255 80)">enzyme</text>
  <text x="290" y="80" fill="white" font-family="sans-serif" font-weight="bold" font-size="12" text-anchor="end" dominant-baseline="middle" transform="rotate(90 290 80)">enzyme-jl</text>
  <text x="325" y="80" fill="white" font-family="sans-serif" font-weight="bold" font-size="12" text-anchor="end" dominant-baseline="middle" transform="rotate(90 325 80)">finite</text>
  <text x="360" y="80" fill="white" font-family="sans-serif" font-weight="bold" font-size="12" text-anchor="end" dominant-baseline="middle" transform="rotate(90 360 80)">floretta</text>
  <text x="395" y="80" fill="white" font-family="sans-serif" font-weight="bold" font-size="12" text-anchor="end" dominant-baseline="middle" transform="rotate(90 395 80)">futhark</text>
  <text x="430" y="80" fill="white" font-family="sans-serif" font-weight="bold" font-size="12" text-anchor="end" dominant-baseline="middle" transform="rotate(90 430 80)">haskell</text>
  <text x="465" y="80" fill="white" font-family="sans-serif" font-weight="bold" font-size="12" text-anchor="end" dominant-baseline="middle" transform="rotate(90 465 80)">jax</text>
  <text x="500" y="80" fill="white" font-family="sans-serif" font-weight="bold" font-size="12" text-anchor="end" dominant-baseline="middle" transform="rotate(90 500 80)">manual</text>
  <text x="535" y="80" fill="white" font-family="sans-serif" font-weight="bold" font-size="12" text-anchor="end" dominant-baseline="middle" transform="rotate(90 535 80)">ocaml</text>
  <text x="570" y="80" fill="white" font-family="sans-serif" font-weight="bold" font-size="12" text-anchor="end" dominant-baseline="middle" transform="rotate(90 570 80)">pytorch</text>
  <text x="605" y="80" fill="white" font-family="sans-serif" font-weight="bold" font-size="12" text-anchor="end" dominant-baseline="middle" transform="rotate(90 605 80)">scilean</text>
  <text x="640" y="80" fill="white" font-family="sans-serif" font-weight="bold" font-size="12" text-anchor="end" dominant-baseline="middle" transform="rotate(90 640 80)">tapenade</text>
  <text x="675" y="80" fill="white" font-family="sans-serif" font-weight="bold" font-size="12" text-anchor="end" dominant-baseline="middle" transform="rotate(90 675 80)">tensorflow</text>
  <text x="710" y="80" fill="white" font-family="sans-serif" font-weight="bold" font-size="12" text-anchor="end" dominant-baseline="middle" transform="rotate(90 710 80)">tensorflow-js</text>
  <text x="745" y="80" fill="white" font-family="sans-serif" font-weight="bold" font-size="12" text-anchor="end" dominant-baseline="middle" transform="rotate(90 745 80)">zygote</text>
  <rect x="65" y="85" width="30" height="30" fill="hsl(240 100% 80.9569158430132%)" />
  <rect x="100" y="85" width="30" height="30" fill="hsl(240 100% 82.88461471085512%)" />
  <rect x="135" y="85" width="30" height="30" fill="hsl(240 100% 98.00107116683671%)" />
  <rect x="170" y="85" width="30" height="30" fill="hsl(240 100% 82.48206019234848%)" />
  <rect x="205" y="85" width="30" height="30" fill="hsl(240 100% 98.99974895674782%)" />
  <rect x="240" y="85" width="30" height="30" fill="hsl(240 100% 51.960452065239934%)" />
  <rect x="310" y="85" width="30" height="30" fill="hsl(240 100% 93.40693324105662%)" />
  <rect x="380" y="85" width="30" height="30" fill="hsl(240 100% 68.23478383900675%)" />
  <rect x="485" y="85" width="30" height="30" fill="hsl(240 100% 50%)" />
  <rect x="555" y="85" width="30" height="30" fill="rgb(255 255 255 / 50%)" />
  <rect x="625" y="85" width="30" height="30" fill="hsl(240 100% 74.83982143664491%)" />
  <rect x="660" y="85" width="30" height="30" fill="rgb(255 255 255 / 50%)" />
  <rect x="730" y="85" width="30" height="30" fill="hsl(240 100% 99.72056652241552%)" />
  <rect x="65" y="120" width="30" height="30" fill="hsl(240 100% 50%)" />
  <rect x="100" y="120" width="30" height="30" fill="hsl(240 100% 82.45150361387745%)" />
  <rect x="135" y="120" width="30" height="30" fill="hsl(240 100% 85.50857130125799%)" />
  <rect x="170" y="120" width="30" height="30" fill="hsl(240 100% 51.81467291403422%)" />
  <rect x="205" y="120" width="30" height="30" fill="hsl(240 100% 92.15764499490004%)" />
  <rect x="240" y="120" width="30" height="30" fill="hsl(240 100% 91.44635474503593%)" />
  <rect x="275" y="120" width="30" height="30" fill="hsl(240 100% 99.37035118960912%)" />
  <rect x="310" y="120" width="30" height="30" fill="hsl(240 100% 98.99489843022516%)" />
  <rect x="380" y="120" width="30" height="30" fill="hsl(240 100% 94.59551828603873%)" />
  <rect x="415" y="120" width="30" height="30" fill="hsl(240 100% 98.08827676951583%)" />
  <rect x="485" y="120" width="30" height="30" fill="hsl(240 100% 79.56727351194343%)" />
  <rect x="730" y="120" width="30" height="30" fill="rgb(255 255 255 / 50%)" />
  <rect x="65" y="155" width="30" height="30" fill="hsl(240 100% 97.71412173445331%)" />
  <rect x="100" y="155" width="30" height="30" fill="hsl(240 100% 98.22804395656262%)" />
  <rect x="135" y="155" width="30" height="30" fill="hsl(240 100% 98.61533782718159%)" />
  <rect x="170" y="155" width="30" height="30" fill="hsl(240 100% 97.03657273071921%)" />
  <rect x="205" y="155" width="30" height="30" fill="hsl(240 100% 99.75486286634361%)" />
  <rect x="240" y="155" width="30" height="30" fill="hsl(240 100% 86.25976854569156%)" />
  <rect x="275" y="155" width="30" height="30" fill="hsl(240 100% 87.70328780224875%)" />
  <rect x="310" y="155" width="30" height="30" fill="rgb(255 255 255 / 50%)" />
  <rect x="380" y="155" width="30" height="30" fill="hsl(240 100% 88.97270654926494%)" />
  <rect x="450" y="155" width="30" height="30" fill="hsl(240 100% 70.5867973190405%)" />
  <rect x="485" y="155" width="30" height="30" fill="hsl(240 100% 71.1160115743981%)" />
  <rect x="520" y="155" width="30" height="30" fill="hsl(240 100% 99.36151706513989%)" />
  <rect x="555" y="155" width="30" height="30" fill="hsl(240 100% 50%)" />
  <rect x="590" y="155" width="30" height="30" fill="hsl(240 100% 92.35853901846451%)" />
  <rect x="625" y="155" width="30" height="30" fill="hsl(240 100% 74.35922987291264%)" />
  <rect x="660" y="155" width="30" height="30" fill="hsl(240 100% 87.40112148902763%)" />
  <rect x="730" y="155" width="30" height="30" fill="hsl(240 100% 96.23858568406486%)" />
  <rect x="65" y="190" width="30" height="30" fill="hsl(240 100% 50%)" />
  <rect x="100" y="190" width="30" height="30" fill="hsl(240 100% 50%)" />
  <rect x="135" y="190" width="30" height="30" fill="hsl(240 100% 50%)" />
  <rect x="170" y="190" width="30" height="30" fill="hsl(240 100% 50%)" />
  <rect x="205" y="190" width="30" height="30" fill="hsl(240 100% 50%)" />
  <rect x="240" y="190" width="30" height="30" fill="hsl(240 100% 50%)" />
  <rect x="275" y="190" width="30" height="30" fill="hsl(240 100% 50%)" />
  <rect x="310" y="190" width="30" height="30" fill="hsl(240 100% 50%)" />
  <rect x="345" y="190" width="30" height="30" fill="hsl(240 100% 50%)" />
  <rect x="380" y="190" width="30" height="30" fill="hsl(240 100% 50%)" />
  <rect x="415" y="190" width="30" height="30" fill="hsl(240 100% 50%)" />
  <rect x="450" y="190" width="30" height="30" fill="hsl(240 100% 50%)" />
  <rect x="485" y="190" width="30" height="30" fill="hsl(240 100% 50%)" />
  <rect x="520" y="190" width="30" height="30" fill="hsl(240 100% 50%)" />
  <rect x="555" y="190" width="30" height="30" fill="hsl(240 100% 50%)" />
  <rect x="590" y="190" width="30" height="30" fill="hsl(240 100% 50%)" />
  <rect x="625" y="190" width="30" height="30" fill="hsl(240 100% 50%)" />
  <rect x="660" y="190" width="30" height="30" fill="hsl(240 100% 50%)" />
  <rect x="695" y="190" width="30" height="30" fill="hsl(240 100% 50%)" />
  <rect x="730" y="190" width="30" height="30" fill="hsl(240 100% 50%)" />
  <rect x="100" y="225" width="30" height="30" fill="hsl(240 100% 96.67404403698383%)" />
  <rect x="135" y="225" width="30" height="30" fill="hsl(240 100% 89.4202398745778%)" />
  <rect x="170" y="225" width="30" height="30" fill="hsl(240 100% 89.35323272770194%)" />
  <rect x="240" y="225" width="30" height="30" fill="hsl(240 100% 91.36862377387982%)" />
  <rect x="310" y="225" width="30" height="30" fill="rgb(255 255 255 / 50%)" />
  <rect x="380" y="225" width="30" height="30" fill="hsl(240 100% 90.59107577969168%)" />
  <rect x="485" y="225" width="30" height="30" fill="hsl(240 100% 50%)" />
  <rect x="555" y="225" width="30" height="30" fill="rgb(255 255 255 / 50%)" />
  <rect x="625" y="225" width="30" height="30" fill="hsl(240 100% 93.27242123968958%)" />
  <rect x="660" y="225" width="30" height="30" fill="rgb(255 255 255 / 50%)" />
  <rect x="730" y="225" width="30" height="30" fill="hsl(240 100% 95.02922003260082%)" />
  <rect x="65" y="260" width="30" height="30" fill="hsl(240 100% 99.84206073164817%)" />
  <rect x="135" y="260" width="30" height="30" fill="hsl(240 100% 99.84931763949372%)" />
  <rect x="170" y="260" width="30" height="30" fill="hsl(240 100% 98.82805413966926%)" />
  <rect x="205" y="260" width="30" height="30" fill="rgb(255 255 255 / 50%)" />
  <rect x="240" y="260" width="30" height="30" fill="hsl(240 100% 86.77649424676093%)" />
  <rect x="310" y="260" width="30" height="30" fill="rgb(255 255 255 / 50%)" />
  <rect x="380" y="260" width="30" height="30" fill="hsl(240 100% 80.5620078760468%)" />
  <rect x="415" y="260" width="30" height="30" fill="rgb(255 255 255 / 50%)" />
  <rect x="450" y="260" width="30" height="30" fill="hsl(240 100% 50%)" />
  <rect x="485" y="260" width="30" height="30" fill="hsl(240 100% 70.58016440860119%)" />
  <rect x="555" y="260" width="30" height="30" fill="hsl(240 100% 97.07233691896487%)" />
  <rect x="590" y="260" width="30" height="30" fill="hsl(240 100% 93.89045740752742%)" />
  <rect x="65" y="295" width="30" height="30" fill="hsl(240 100% 86.41585594777715%)" />
  <rect x="100" y="295" width="30" height="30" fill="hsl(240 100% 97.56891480373667%)" />
  <rect x="135" y="295" width="30" height="30" fill="hsl(240 100% 95.26497436725235%)" />
  <rect x="170" y="295" width="30" height="30" fill="hsl(240 100% 90.70107666691688%)" />
  <rect x="205" y="295" width="30" height="30" fill="hsl(240 100% 99.47103201085575%)" />
  <rect x="240" y="295" width="30" height="30" fill="hsl(240 100% 50.765302472721366%)" />
  <rect x="275" y="295" width="30" height="30" fill="hsl(240 100% 50%)" />
  <rect x="310" y="295" width="30" height="30" fill="hsl(240 100% 99.50107729143477%)" />
  <rect x="345" y="295" width="30" height="30" fill="hsl(240 100% 94.7319590643707%)" />
  <rect x="380" y="295" width="30" height="30" fill="hsl(240 100% 55.38605080073194%)" />
  <rect x="415" y="295" width="30" height="30" fill="hsl(240 100% 99.32777174055529%)" />
  <rect x="450" y="295" width="30" height="30" fill="hsl(240 100% 88.19221064262479%)" />
  <rect x="485" y="295" width="30" height="30" fill="hsl(240 100% 57.97465801159298%)" />
  <rect x="590" y="295" width="30" height="30" fill="hsl(240 100% 97.61845839340451%)" />
  <rect x="695" y="295" width="30" height="30" fill="hsl(240 100% 99.56852320571421%)" />
  <rect x="730" y="295" width="30" height="30" fill="hsl(240 100% 99.95792800875054%)" />
  <rect x="65" y="330" width="30" height="30" fill="hsl(240 100% 87.3722036581453%)" />
  <rect x="100" y="330" width="30" height="30" fill="hsl(240 100% 94.09392198751046%)" />
  <rect x="135" y="330" width="30" height="30" fill="hsl(240 100% 96.85894631736345%)" />
  <rect x="170" y="330" width="30" height="30" fill="hsl(240 100% 86.88643192928214%)" />
  <rect x="205" y="330" width="30" height="30" fill="hsl(240 100% 99.09302544719672%)" />
  <rect x="240" y="330" width="30" height="30" fill="hsl(240 100% 77.20422773217356%)" />
  <rect x="275" y="330" width="30" height="30" fill="hsl(240 100% 86.80624532868211%)" />
  <rect x="310" y="330" width="30" height="30" fill="rgb(255 255 255 / 50%)" />
  <rect x="345" y="330" width="30" height="30" fill="hsl(240 100% 96.83312439469469%)" />
  <rect x="380" y="330" width="30" height="30" fill="hsl(240 100% 83.91124741796446%)" />
  <rect x="415" y="330" width="30" height="30" fill="hsl(240 100% 99.81443657983061%)" />
  <rect x="450" y="330" width="30" height="30" fill="hsl(240 100% 67.90751771402242%)" />
  <rect x="485" y="330" width="30" height="30" fill="hsl(240 100% 73.55812920133503%)" />
  <rect x="520" y="330" width="30" height="30" fill="hsl(240 100% 92.89034402766342%)" />
  <rect x="555" y="330" width="30" height="30" fill="hsl(240 100% 50%)" />
  <rect x="660" y="330" width="30" height="30" fill="hsl(240 100% 93.29401262888999%)" />
  <rect x="695" y="330" width="30" height="30" fill="hsl(240 100% 99.10090742375654%)" />
  <rect x="730" y="330" width="30" height="30" fill="hsl(240 100% 78.51208644323896%)" />
  <rect x="65" y="365" width="30" height="30" fill="hsl(240 100% 57.073153117858475%)" />
  <rect x="100" y="365" width="30" height="30" fill="hsl(240 100% 72.87536619767046%)" />
  <rect x="135" y="365" width="30" height="30" fill="hsl(240 100% 82.30978841568944%)" />
  <rect x="170" y="365" width="30" height="30" fill="hsl(240 100% 50%)" />
  <rect x="205" y="365" width="30" height="30" fill="hsl(240 100% 96.24780333823264%)" />
  <rect x="240" y="365" width="30" height="30" fill="hsl(240 100% 58.97727228606724%)" />
  <rect x="275" y="365" width="30" height="30" fill="hsl(240 100% 92.2363472563252%)" />
  <rect x="310" y="365" width="30" height="30" fill="hsl(240 100% 99.86269949525328%)" />
  <rect x="380" y="365" width="30" height="30" fill="hsl(240 100% 66.47731654606044%)" />
  <rect x="485" y="365" width="30" height="30" fill="hsl(240 100% 85.83665262736393%)" />
  <rect x="555" y="365" width="30" height="30" fill="hsl(240 100% 99.62895421506589%)" />
  <rect x="625" y="365" width="30" height="30" fill="hsl(240 100% 63.31654460534168%)" />
  <rect x="660" y="365" width="30" height="30" fill="hsl(240 100% 98.13976520293421%)" />
  <rect x="730" y="365" width="30" height="30" fill="hsl(240 100% 98.74232633345255%)" />
  <rect x="65" y="400" width="30" height="30" fill="hsl(240 100% 97.70201835523507%)" />
  <rect x="100" y="400" width="30" height="30" fill="hsl(240 100% 99.26709166709234%)" />
  <rect x="135" y="400" width="30" height="30" fill="hsl(240 100% 99.60335874524141%)" />
  <rect x="170" y="400" width="30" height="30" fill="hsl(240 100% 94.15722746097914%)" />
  <rect x="205" y="400" width="30" height="30" fill="hsl(240 100% 99.0514588449087%)" />
  <rect x="240" y="400" width="30" height="30" fill="hsl(240 100% 86.00684677730516%)" />
  <rect x="275" y="400" width="30" height="30" fill="hsl(240 100% 94.24453232343095%)" />
  <rect x="310" y="400" width="30" height="30" fill="rgb(255 255 255 / 50%)" />
  <rect x="380" y="400" width="30" height="30" fill="hsl(240 100% 92.53960849602255%)" />
  <rect x="415" y="400" width="30" height="30" fill="hsl(240 100% 99.96834283380934%)" />
  <rect x="450" y="400" width="30" height="30" fill="hsl(240 100% 73.84043537066884%)" />
  <rect x="485" y="400" width="30" height="30" fill="hsl(240 100% 50%)" />
  <rect x="730" y="400" width="30" height="30" fill="hsl(240 100% 98.87333075069384%)" />
  <rect x="65" y="435" width="30" height="30" fill="hsl(240 100% 92.91168904133893%)" />
  <rect x="240" y="435" width="30" height="30" fill="hsl(240 100% 50%)" />
  <rect x="310" y="435" width="30" height="30" fill="hsl(240 100% 94.3221291172571%)" />
  <rect x="380" y="435" width="30" height="30" fill="hsl(240 100% 86.994449788659%)" />
  <rect x="415" y="435" width="30" height="30" fill="hsl(240 100% 99.78132893949892%)" />
  <rect x="65" y="470" width="30" height="30" fill="hsl(240 100% 50%)" />
  <rect x="240" y="470" width="30" height="30" fill="hsl(240 100% 50.08307558030268%)" />
  <rect x="310" y="470" width="30" height="30" fill="hsl(240 100% 97.14503875817029%)" />
  <rect x="380" y="470" width="30" height="30" fill="hsl(240 100% 89.42479065155237%)" />
  <rect x="415" y="470" width="30" height="30" fill="hsl(240 100% 99.58315187550333%)" />
</svg>
