<svg xmlns="http://www.w3.org/2000/svg" viewBox="0 0 730 505">
  <rect x="0" y="0" width="730" height="505" rx="5" ry="5" fill="#222" />
  <text x="60" y="100" fill="white" font-family="sans-serif" font-weight="bold" font-size="12" text-anchor="end" dominant-baseline="middle">ba</text>
  <text x="60" y="135" fill="white" font-family="sans-serif" font-weight="bold" font-size="12" text-anchor="end" dominant-baseline="middle">det</text>
  <text x="60" y="170" fill="white" font-family="sans-serif" font-weight="bold" font-size="12" text-anchor="end" dominant-baseline="middle">gmm</text>
  <text x="60" y="205" fill="white" font-family="sans-serif" font-weight="bold" font-size="12" text-anchor="end" dominant-baseline="middle">hello</text>
  <text x="60" y="240" fill="white" font-family="sans-serif" font-weight="bold" font-size="12" text-anchor="end" dominant-baseline="middle">ht</text>
  <text x="60" y="275" fill="white" font-family="sans-serif" font-weight="bold" font-size="12" text-anchor="end" dominant-baseline="middle">kmeans</text>
  <text x="60" y="310" fill="white" font-family="sans-serif" font-weight="bold" font-size="12" text-anchor="end" dominant-baseline="middle">llsq</text>
  <text x="60" y="345" fill="white" font-family="sans-serif" font-weight="bold" font-size="12" text-anchor="end" dominant-baseline="middle">lse</text>
  <text x="60" y="380" fill="white" font-family="sans-serif" font-weight="bold" font-size="12" text-anchor="end" dominant-baseline="middle">lstm</text>
  <text x="60" y="415" fill="white" font-family="sans-serif" font-weight="bold" font-size="12" text-anchor="end" dominant-baseline="middle">ode</text>
  <text x="60" y="450" fill="white" font-family="sans-serif" font-weight="bold" font-size="12" text-anchor="end" dominant-baseline="middle">particle</text>
  <text x="60" y="485" fill="white" font-family="sans-serif" font-weight="bold" font-size="12" text-anchor="end" dominant-baseline="middle">saddle</text>
  <text x="80" y="80" fill="white" font-family="sans-serif" font-weight="bold" font-size="12" text-anchor="end" dominant-baseline="middle" transform="rotate(90 80 80)">ad-hpp</text>
  <text x="115" y="80" fill="white" font-family="sans-serif" font-weight="bold" font-size="12" text-anchor="end" dominant-baseline="middle" transform="rotate(90 115 80)">adept</text>
  <text x="150" y="80" fill="white" font-family="sans-serif" font-weight="bold" font-size="12" text-anchor="end" dominant-baseline="middle" transform="rotate(90 150 80)">adol-c</text>
  <text x="185" y="80" fill="white" font-family="sans-serif" font-weight="bold" font-size="12" text-anchor="end" dominant-baseline="middle" transform="rotate(90 185 80)">codipack</text>
  <text x="220" y="80" fill="white" font-family="sans-serif" font-weight="bold" font-size="12" text-anchor="end" dominant-baseline="middle" transform="rotate(90 220 80)">cppad</text>
  <text x="255" y="80" fill="white" font-family="sans-serif" font-weight="bold" font-size="12" text-anchor="end" dominant-baseline="middle" transform="rotate(90 255 80)">enzyme</text>
  <text x="290" y="80" fill="white" font-family="sans-serif" font-weight="bold" font-size="12" text-anchor="end" dominant-baseline="middle" transform="rotate(90 290 80)">enzyme-jl</text>
  <text x="325" y="80" fill="white" font-family="sans-serif" font-weight="bold" font-size="12" text-anchor="end" dominant-baseline="middle" transform="rotate(90 325 80)">finite</text>
  <text x="360" y="80" fill="white" font-family="sans-serif" font-weight="bold" font-size="12" text-anchor="end" dominant-baseline="middle" transform="rotate(90 360 80)">floretta</text>
  <text x="395" y="80" fill="white" font-family="sans-serif" font-weight="bold" font-size="12" text-anchor="end" dominant-baseline="middle" transform="rotate(90 395 80)">futhark</text>
  <text x="430" y="80" fill="white" font-family="sans-serif" font-weight="bold" font-size="12" text-anchor="end" dominant-baseline="middle" transform="rotate(90 430 80)">haskell</text>
  <text x="465" y="80" fill="white" font-family="sans-serif" font-weight="bold" font-size="12" text-anchor="end" dominant-baseline="middle" transform="rotate(90 465 80)">jax</text>
  <text x="500" y="80" fill="white" font-family="sans-serif" font-weight="bold" font-size="12" text-anchor="end" dominant-baseline="middle" transform="rotate(90 500 80)">manual</text>
  <text x="535" y="80" fill="white" font-family="sans-serif" font-weight="bold" font-size="12" text-anchor="end" dominant-baseline="middle" transform="rotate(90 535 80)">ocaml</text>
  <text x="570" y="80" fill="white" font-family="sans-serif" font-weight="bold" font-size="12" text-anchor="end" dominant-baseline="middle" transform="rotate(90 570 80)">pytorch</text>
  <text x="605" y="80" fill="white" font-family="sans-serif" font-weight="bold" font-size="12" text-anchor="end" dominant-baseline="middle" transform="rotate(90 605 80)">scilean</text>
  <text x="640" y="80" fill="white" font-family="sans-serif" font-weight="bold" font-size="12" text-anchor="end" dominant-baseline="middle" transform="rotate(90 640 80)">tapenade</text>
  <text x="675" y="80" fill="white" font-family="sans-serif" font-weight="bold" font-size="12" text-anchor="end" dominant-baseline="middle" transform="rotate(90 675 80)">tensorflow</text>
  <text x="710" y="80" fill="white" font-family="sans-serif" font-weight="bold" font-size="12" text-anchor="end" dominant-baseline="middle" transform="rotate(90 710 80)">zygote</text>
  <rect x="65" y="85" width="30" height="30" fill="hsl(240 100% 80.34133183180225%)" />
  <rect x="100" y="85" width="30" height="30" fill="hsl(240 100% 82.83265994940624%)" />
  <rect x="135" y="85" width="30" height="30" fill="hsl(240 100% 97.97510395865685%)" />
  <rect x="170" y="85" width="30" height="30" fill="hsl(240 100% 82.3360894841562%)" />
  <rect x="205" y="85" width="30" height="30" fill="hsl(240 100% 99.00124353173784%)" />
  <rect x="240" y="85" width="30" height="30" fill="hsl(240 100% 51.675481788952744%)" />
  <rect x="310" y="85" width="30" height="30" fill="hsl(240 100% 92.87366649826878%)" />
  <rect x="380" y="85" width="30" height="30" fill="hsl(240 100% 68.07392045923467%)" />
  <rect x="485" y="85" width="30" height="30" fill="hsl(240 100% 50%)" />
  <rect x="555" y="85" width="30" height="30" fill="rgb(255 255 255 / 50%)" />
  <rect x="625" y="85" width="30" height="30" fill="hsl(240 100% 74.96538358076775%)" />
  <rect x="660" y="85" width="30" height="30" fill="rgb(255 255 255 / 50%)" />
  <rect x="695" y="85" width="30" height="30" fill="hsl(240 100% 99.72436838801704%)" />
  <rect x="65" y="120" width="30" height="30" fill="hsl(240 100% 50%)" />
  <rect x="100" y="120" width="30" height="30" fill="hsl(240 100% 83.96300637226133%)" />
  <rect x="135" y="120" width="30" height="30" fill="hsl(240 100% 86.04458929270845%)" />
  <rect x="170" y="120" width="30" height="30" fill="hsl(240 100% 51.97058913612121%)" />
  <rect x="205" y="120" width="30" height="30" fill="hsl(240 100% 92.43907902087922%)" />
  <rect x="240" y="120" width="30" height="30" fill="hsl(240 100% 91.80553979927383%)" />
  <rect x="275" y="120" width="30" height="30" fill="hsl(240 100% 99.27305581339441%)" />
  <rect x="310" y="120" width="30" height="30" fill="hsl(240 100% 98.9891499281197%)" />
  <rect x="380" y="120" width="30" height="30" fill="hsl(240 100% 94.58118049803245%)" />
  <rect x="415" y="120" width="30" height="30" fill="hsl(240 100% 98.3724204408951%)" />
  <rect x="485" y="120" width="30" height="30" fill="hsl(240 100% 79.68361479365512%)" />
  <rect x="695" y="120" width="30" height="30" fill="rgb(255 255 255 / 50%)" />
  <rect x="65" y="155" width="30" height="30" fill="hsl(240 100% 97.37390858592822%)" />
  <rect x="100" y="155" width="30" height="30" fill="hsl(240 100% 98.33494833301998%)" />
  <rect x="135" y="155" width="30" height="30" fill="hsl(240 100% 98.94946132917036%)" />
  <rect x="170" y="155" width="30" height="30" fill="hsl(240 100% 97.24376320489674%)" />
  <rect x="205" y="155" width="30" height="30" fill="hsl(240 100% 99.7863250143973%)" />
  <rect x="240" y="155" width="30" height="30" fill="hsl(240 100% 86.9527084574642%)" />
  <rect x="275" y="155" width="30" height="30" fill="hsl(240 100% 99.83140119491003%)" />
  <rect x="310" y="155" width="30" height="30" fill="rgb(255 255 255 / 50%)" />
  <rect x="380" y="155" width="30" height="30" fill="hsl(240 100% 89.65951794375327%)" />
  <rect x="450" y="155" width="30" height="30" fill="hsl(240 100% 79.74549424351194%)" />
  <rect x="485" y="155" width="30" height="30" fill="hsl(240 100% 72.60493093465708%)" />
  <rect x="520" y="155" width="30" height="30" fill="hsl(240 100% 99.37579473088056%)" />
  <rect x="555" y="155" width="30" height="30" fill="hsl(240 100% 50%)" />
  <rect x="590" y="155" width="30" height="30" fill="hsl(240 100% 92.9733524869479%)" />
  <rect x="625" y="155" width="30" height="30" fill="hsl(240 100% 77.10212274353661%)" />
  <rect x="660" y="155" width="30" height="30" fill="hsl(240 100% 89.80466100253548%)" />
  <rect x="695" y="155" width="30" height="30" fill="hsl(240 100% 99.3635936355941%)" />
  <rect x="65" y="190" width="30" height="30" fill="hsl(240 100% 50%)" />
  <rect x="100" y="190" width="30" height="30" fill="hsl(240 100% 50%)" />
  <rect x="135" y="190" width="30" height="30" fill="hsl(240 100% 50%)" />
  <rect x="170" y="190" width="30" height="30" fill="hsl(240 100% 50%)" />
  <rect x="205" y="190" width="30" height="30" fill="hsl(240 100% 50%)" />
  <rect x="240" y="190" width="30" height="30" fill="hsl(240 100% 50%)" />
  <rect x="275" y="190" width="30" height="30" fill="hsl(240 100% 50%)" />
  <rect x="310" y="190" width="30" height="30" fill="hsl(240 100% 50%)" />
  <rect x="345" y="190" width="30" height="30" fill="hsl(240 100% 50%)" />
  <rect x="380" y="190" width="30" height="30" fill="hsl(240 100% 50%)" />
  <rect x="415" y="190" width="30" height="30" fill="hsl(240 100% 50%)" />
  <rect x="450" y="190" width="30" height="30" fill="hsl(240 100% 50%)" />
  <rect x="485" y="190" width="30" height="30" fill="hsl(240 100% 50%)" />
  <rect x="520" y="190" width="30" height="30" fill="hsl(240 100% 50%)" />
  <rect x="555" y="190" width="30" height="30" fill="hsl(240 100% 50%)" />
  <rect x="590" y="190" width="30" height="30" fill="hsl(240 100% 50%)" />
  <rect x="625" y="190" width="30" height="30" fill="hsl(240 100% 50%)" />
  <rect x="660" y="190" width="30" height="30" fill="hsl(240 100% 50%)" />
  <rect x="695" y="190" width="30" height="30" fill="hsl(240 100% 50%)" />
  <rect x="100" y="225" width="30" height="30" fill="hsl(240 100% 96.2994782246599%)" />
  <rect x="135" y="225" width="30" height="30" fill="hsl(240 100% 89.23766389281951%)" />
  <rect x="170" y="225" width="30" height="30" fill="hsl(240 100% 89.14242079742289%)" />
  <rect x="240" y="225" width="30" height="30" fill="hsl(240 100% 91.03679083794462%)" />
  <rect x="310" y="225" width="30" height="30" fill="rgb(255 255 255 / 50%)" />
  <rect x="380" y="225" width="30" height="30" fill="hsl(240 100% 90.56538965965943%)" />
  <rect x="485" y="225" width="30" height="30" fill="hsl(240 100% 50%)" />
  <rect x="555" y="225" width="30" height="30" fill="rgb(255 255 255 / 50%)" />
  <rect x="625" y="225" width="30" height="30" fill="hsl(240 100% 93.22921122378385%)" />
  <rect x="660" y="225" width="30" height="30" fill="rgb(255 255 255 / 50%)" />
  <rect x="695" y="225" width="30" height="30" fill="hsl(240 100% 99.45386415511621%)" />
  <rect x="65" y="260" width="30" height="30" fill="hsl(240 100% 99.87342799902054%)" />
  <rect x="135" y="260" width="30" height="30" fill="hsl(240 100% 99.87342643424365%)" />
  <rect x="170" y="260" width="30" height="30" fill="hsl(240 100% 98.9893474727084%)" />
  <rect x="205" y="260" width="30" height="30" fill="rgb(255 255 255 / 50%)" />
  <rect x="240" y="260" width="30" height="30" fill="hsl(240 100% 87.08823627118485%)" />
  <rect x="310" y="260" width="30" height="30" fill="rgb(255 255 255 / 50%)" />
  <rect x="380" y="260" width="30" height="30" fill="hsl(240 100% 80.86749079010514%)" />
  <rect x="415" y="260" width="30" height="30" fill="rgb(255 255 255 / 50%)" />
  <rect x="450" y="260" width="30" height="30" fill="hsl(240 100% 50%)" />
  <rect x="485" y="260" width="30" height="30" fill="hsl(240 100% 71.27725782236982%)" />
  <rect x="555" y="260" width="30" height="30" fill="hsl(240 100% 97.0782837476414%)" />
  <rect x="590" y="260" width="30" height="30" fill="hsl(240 100% 94.0179901468599%)" />
  <rect x="65" y="295" width="30" height="30" fill="hsl(240 100% 85.64080337801781%)" />
  <rect x="100" y="295" width="30" height="30" fill="hsl(240 100% 97.54351415155641%)" />
  <rect x="135" y="295" width="30" height="30" fill="hsl(240 100% 95.10633345921876%)" />
  <rect x="170" y="295" width="30" height="30" fill="hsl(240 100% 90.55514751628577%)" />
  <rect x="205" y="295" width="30" height="30" fill="hsl(240 100% 99.46720065926772%)" />
  <rect x="240" y="295" width="30" height="30" fill="hsl(240 100% 50%)" />
  <rect x="275" y="295" width="30" height="30" fill="hsl(240 100% 99.85932784948965%)" />
  <rect x="310" y="295" width="30" height="30" fill="hsl(240 100% 99.49301187479092%)" />
  <rect x="345" y="295" width="30" height="30" fill="hsl(240 100% 95.15341565589294%)" />
  <rect x="380" y="295" width="30" height="30" fill="hsl(240 100% 54.66047857902599%)" />
  <rect x="415" y="295" width="30" height="30" fill="hsl(240 100% 99.31189837359483%)" />
  <rect x="450" y="295" width="30" height="30" fill="hsl(240 100% 88.02148881610093%)" />
  <rect x="485" y="295" width="30" height="30" fill="hsl(240 100% 57.31401908167493%)" />
  <rect x="590" y="295" width="30" height="30" fill="hsl(240 100% 97.57738077980751%)" />
  <rect x="695" y="295" width="30" height="30" fill="hsl(240 100% 99.9743935376293%)" />
  <rect x="65" y="330" width="30" height="30" fill="hsl(240 100% 85.15547622432602%)" />
  <rect x="100" y="330" width="30" height="30" fill="hsl(240 100% 93.33721749293585%)" />
  <rect x="135" y="330" width="30" height="30" fill="hsl(240 100% 96.38965694490665%)" />
  <rect x="170" y="330" width="30" height="30" fill="hsl(240 100% 84.7174969063932%)" />
  <rect x="205" y="330" width="30" height="30" fill="hsl(240 100% 99.05196711725155%)" />
  <rect x="240" y="330" width="30" height="30" fill="hsl(240 100% 74.76298912458344%)" />
  <rect x="275" y="330" width="30" height="30" fill="hsl(240 100% 99.79170357028589%)" />
  <rect x="310" y="330" width="30" height="30" fill="rgb(255 255 255 / 50%)" />
  <rect x="345" y="330" width="30" height="30" fill="hsl(240 100% 96.55525829673194%)" />
  <rect x="380" y="330" width="30" height="30" fill="hsl(240 100% 82.49430453927026%)" />
  <rect x="415" y="330" width="30" height="30" fill="hsl(240 100% 99.7486263392116%)" />
  <rect x="450" y="330" width="30" height="30" fill="hsl(240 100% 63.96996224408033%)" />
  <rect x="485" y="330" width="30" height="30" fill="hsl(240 100% 67.13006509786501%)" />
  <rect x="520" y="330" width="30" height="30" fill="hsl(240 100% 92.13154675579628%)" />
  <rect x="555" y="330" width="30" height="30" fill="hsl(240 100% 50%)" />
  <rect x="660" y="330" width="30" height="30" fill="hsl(240 100% 86.82798553607472%)" />
  <rect x="695" y="330" width="30" height="30" fill="hsl(240 100% 94.50509841147246%)" />
  <rect x="65" y="365" width="30" height="30" fill="hsl(240 100% 57.526366146496926%)" />
  <rect x="100" y="365" width="30" height="30" fill="hsl(240 100% 71.71213664009638%)" />
  <rect x="135" y="365" width="30" height="30" fill="hsl(240 100% 83.05579639124674%)" />
  <rect x="170" y="365" width="30" height="30" fill="hsl(240 100% 50%)" />
  <rect x="205" y="365" width="30" height="30" fill="hsl(240 100% 96.19771281398545%)" />
  <rect x="240" y="365" width="30" height="30" fill="hsl(240 100% 59.69094327224244%)" />
  <rect x="275" y="365" width="30" height="30" fill="hsl(240 100% 98.98488397084076%)" />
  <rect x="310" y="365" width="30" height="30" fill="hsl(240 100% 99.86362283783521%)" />
  <rect x="380" y="365" width="30" height="30" fill="hsl(240 100% 67.19031595853937%)" />
  <rect x="485" y="365" width="30" height="30" fill="hsl(240 100% 86.01912179188227%)" />
  <rect x="555" y="365" width="30" height="30" fill="hsl(240 100% 99.64743834968483%)" />
  <rect x="625" y="365" width="30" height="30" fill="hsl(240 100% 63.67337106235958%)" />
  <rect x="660" y="365" width="30" height="30" fill="hsl(240 100% 98.2191575784718%)" />
  <rect x="695" y="365" width="30" height="30" fill="hsl(240 100% 99.16982668533996%)" />
  <rect x="65" y="400" width="30" height="30" fill="hsl(240 100% 98.05704202724752%)" />
  <rect x="100" y="400" width="30" height="30" fill="hsl(240 100% 99.4355917945811%)" />
  <rect x="135" y="400" width="30" height="30" fill="hsl(240 100% 99.66602070914026%)" />
  <rect x="170" y="400" width="30" height="30" fill="hsl(240 100% 95.16021468970325%)" />
  <rect x="205" y="400" width="30" height="30" fill="hsl(240 100% 99.21091576965543%)" />
  <rect x="240" y="400" width="30" height="30" fill="hsl(240 100% 85.36421678823449%)" />
  <rect x="275" y="400" width="30" height="30" fill="hsl(240 100% 99.24560744528812%)" />
  <rect x="310" y="400" width="30" height="30" fill="rgb(255 255 255 / 50%)" />
  <rect x="380" y="400" width="30" height="30" fill="hsl(240 100% 93.80746579022677%)" />
  <rect x="415" y="400" width="30" height="30" fill="hsl(240 100% 99.9694988402739%)" />
  <rect x="450" y="400" width="30" height="30" fill="hsl(240 100% 77.95595559117803%)" />
  <rect x="485" y="400" width="30" height="30" fill="hsl(240 100% 50%)" />
  <rect x="695" y="400" width="30" height="30" fill="hsl(240 100% 99.71046477720814%)" />
  <rect x="65" y="435" width="30" height="30" fill="hsl(240 100% 92.86693436438463%)" />
  <rect x="240" y="435" width="30" height="30" fill="hsl(240 100% 50%)" />
  <rect x="310" y="435" width="30" height="30" fill="hsl(240 100% 93.35079190880455%)" />
  <rect x="380" y="435" width="30" height="30" fill="hsl(240 100% 86.98988812066277%)" />
  <rect x="415" y="435" width="30" height="30" fill="hsl(240 100% 99.79125549676961%)" />
  <rect x="240" y="470" width="30" height="30" fill="hsl(240 100% 50%)" />
  <rect x="310" y="470" width="30" height="30" fill="hsl(240 100% 95.74188074897518%)" />
  <rect x="380" y="470" width="30" height="30" fill="hsl(240 100% 89.06802478324478%)" />
  <rect x="415" y="470" width="30" height="30" fill="hsl(240 100% 99.57396587882951%)" />
</svg>
