<svg xmlns="http://www.w3.org/2000/svg" viewBox="0 0 870 505">
  <rect x="0" y="0" width="870" height="505" rx="5" ry="5" fill="#222" />
  <text x="60" y="100" fill="white" font-family="sans-serif" font-weight="bold" font-size="12" text-anchor="end" dominant-baseline="middle">ba</text>
  <text x="60" y="135" fill="white" font-family="sans-serif" font-weight="bold" font-size="12" text-anchor="end" dominant-baseline="middle">det</text>
  <text x="60" y="170" fill="white" font-family="sans-serif" font-weight="bold" font-size="12" text-anchor="end" dominant-baseline="middle">gmm</text>
  <text x="60" y="205" fill="white" font-family="sans-serif" font-weight="bold" font-size="12" text-anchor="end" dominant-baseline="middle">hello</text>
  <text x="60" y="240" fill="white" font-family="sans-serif" font-weight="bold" font-size="12" text-anchor="end" dominant-baseline="middle">ht</text>
  <text x="60" y="275" fill="white" font-family="sans-serif" font-weight="bold" font-size="12" text-anchor="end" dominant-baseline="middle">kmeans</text>
  <text x="60" y="310" fill="white" font-family="sans-serif" font-weight="bold" font-size="12" text-anchor="end" dominant-baseline="middle">llsq</text>
  <text x="60" y="345" fill="white" font-family="sans-serif" font-weight="bold" font-size="12" text-anchor="end" dominant-baseline="middle">lse</text>
  <text x="60" y="380" fill="white" font-family="sans-serif" font-weight="bold" font-size="12" text-anchor="end" dominant-baseline="middle">lstm</text>
  <text x="60" y="415" fill="white" font-family="sans-serif" font-weight="bold" font-size="12" text-anchor="end" dominant-baseline="middle">ode</text>
  <text x="60" y="450" fill="white" font-family="sans-serif" font-weight="bold" font-size="12" text-anchor="end" dominant-baseline="middle">particle</text>
  <text x="60" y="485" fill="white" font-family="sans-serif" font-weight="bold" font-size="12" text-anchor="end" dominant-baseline="middle">saddle</text>
  <text x="80" y="80" fill="white" font-family="sans-serif" font-weight="bold" font-size="12" text-anchor="end" dominant-baseline="middle" transform="rotate(90 80 80)">ad-hpp</text>
  <text x="115" y="80" fill="white" font-family="sans-serif" font-weight="bold" font-size="12" text-anchor="end" dominant-baseline="middle" transform="rotate(90 115 80)">adept</text>
  <text x="150" y="80" fill="white" font-family="sans-serif" font-weight="bold" font-size="12" text-anchor="end" dominant-baseline="middle" transform="rotate(90 150 80)">adol-c</text>
  <text x="185" y="80" fill="white" font-family="sans-serif" font-weight="bold" font-size="12" text-anchor="end" dominant-baseline="middle" transform="rotate(90 185 80)">codipack</text>
  <text x="220" y="80" fill="white" font-family="sans-serif" font-weight="bold" font-size="12" text-anchor="end" dominant-baseline="middle" transform="rotate(90 220 80)">cppad</text>
  <text x="255" y="80" fill="white" font-family="sans-serif" font-weight="bold" font-size="12" text-anchor="end" dominant-baseline="middle" transform="rotate(90 255 80)">enzyme</text>
  <text x="290" y="80" fill="white" font-family="sans-serif" font-weight="bold" font-size="12" text-anchor="end" dominant-baseline="middle" transform="rotate(90 290 80)">enzyme-jl</text>
  <text x="325" y="80" fill="white" font-family="sans-serif" font-weight="bold" font-size="12" text-anchor="end" dominant-baseline="middle" transform="rotate(90 325 80)">finite</text>
  <text x="360" y="80" fill="white" font-family="sans-serif" font-weight="bold" font-size="12" text-anchor="end" dominant-baseline="middle" transform="rotate(90 360 80)">floretta</text>
  <text x="395" y="80" fill="white" font-family="sans-serif" font-weight="bold" font-size="12" text-anchor="end" dominant-baseline="middle" transform="rotate(90 395 80)">forwarddiff-jl</text>
  <text x="430" y="80" fill="white" font-family="sans-serif" font-weight="bold" font-size="12" text-anchor="end" dominant-baseline="middle" transform="rotate(90 430 80)">futhark</text>
  <text x="465" y="80" fill="white" font-family="sans-serif" font-weight="bold" font-size="12" text-anchor="end" dominant-baseline="middle" transform="rotate(90 465 80)">haskell</text>
  <text x="500" y="80" fill="white" font-family="sans-serif" font-weight="bold" font-size="12" text-anchor="end" dominant-baseline="middle" transform="rotate(90 500 80)">jax</text>
  <text x="535" y="80" fill="white" font-family="sans-serif" font-weight="bold" font-size="12" text-anchor="end" dominant-baseline="middle" transform="rotate(90 535 80)">manual</text>
  <text x="570" y="80" fill="white" font-family="sans-serif" font-weight="bold" font-size="12" text-anchor="end" dominant-baseline="middle" transform="rotate(90 570 80)">mooncake-jl</text>
  <text x="605" y="80" fill="white" font-family="sans-serif" font-weight="bold" font-size="12" text-anchor="end" dominant-baseline="middle" transform="rotate(90 605 80)">ocaml</text>
  <text x="640" y="80" fill="white" font-family="sans-serif" font-weight="bold" font-size="12" text-anchor="end" dominant-baseline="middle" transform="rotate(90 640 80)">pytorch</text>
  <text x="675" y="80" fill="white" font-family="sans-serif" font-weight="bold" font-size="12" text-anchor="end" dominant-baseline="middle" transform="rotate(90 675 80)">reversediff-jl</text>
  <text x="710" y="80" fill="white" font-family="sans-serif" font-weight="bold" font-size="12" text-anchor="end" dominant-baseline="middle" transform="rotate(90 710 80)">scilean</text>
  <text x="745" y="80" fill="white" font-family="sans-serif" font-weight="bold" font-size="12" text-anchor="end" dominant-baseline="middle" transform="rotate(90 745 80)">tapenade</text>
  <text x="780" y="80" fill="white" font-family="sans-serif" font-weight="bold" font-size="12" text-anchor="end" dominant-baseline="middle" transform="rotate(90 780 80)">tensorflow</text>
  <text x="815" y="80" fill="white" font-family="sans-serif" font-weight="bold" font-size="12" text-anchor="end" dominant-baseline="middle" transform="rotate(90 815 80)">tensorflow-js</text>
  <text x="850" y="80" fill="white" font-family="sans-serif" font-weight="bold" font-size="12" text-anchor="end" dominant-baseline="middle" transform="rotate(90 850 80)">zygote</text>
  <rect x="65" y="85" width="30" height="30" fill="hsl(240 100% 80.54616914963188%)" />
  <rect x="100" y="85" width="30" height="30" fill="hsl(240 100% 82.29726940756153%)" />
  <rect x="135" y="85" width="30" height="30" fill="hsl(240 100% 97.90370646096892%)" />
  <rect x="170" y="85" width="30" height="30" fill="hsl(240 100% 81.66683397565654%)" />
  <rect x="205" y="85" width="30" height="30" fill="hsl(240 100% 98.94784279211885%)" />
  <rect x="240" y="85" width="30" height="30" fill="hsl(240 100% 50%)" />
  <rect x="310" y="85" width="30" height="30" fill="hsl(240 100% 92.86166468140514%)" />
  <rect x="415" y="85" width="30" height="30" fill="hsl(240 100% 66.84339024850851%)" />
  <rect x="520" y="85" width="30" height="30" fill="hsl(240 100% 54.14271412422258%)" />
  <rect x="625" y="85" width="30" height="30" fill="rgb(255 255 255 / 50%)" />
  <rect x="730" y="85" width="30" height="30" fill="hsl(240 100% 73.99500375906771%)" />
  <rect x="765" y="85" width="30" height="30" fill="rgb(255 255 255 / 50%)" />
  <rect x="835" y="85" width="30" height="30" fill="hsl(240 100% 99.72573193045062%)" />
  <rect x="65" y="120" width="30" height="30" fill="hsl(240 100% 50%)" />
  <rect x="100" y="120" width="30" height="30" fill="hsl(240 100% 82.84414146891692%)" />
  <rect x="135" y="120" width="30" height="30" fill="hsl(240 100% 85.31202758157916%)" />
  <rect x="170" y="120" width="30" height="30" fill="hsl(240 100% 51.26001251011688%)" />
  <rect x="205" y="120" width="30" height="30" fill="hsl(240 100% 92.46721459258052%)" />
  <rect x="240" y="120" width="30" height="30" fill="hsl(240 100% 91.46344673428554%)" />
  <rect x="275" y="120" width="30" height="30" fill="hsl(240 100% 99.35267647857084%)" />
  <rect x="310" y="120" width="30" height="30" fill="hsl(240 100% 98.97887097191854%)" />
  <rect x="380" y="120" width="30" height="30" fill="hsl(240 100% 93.20170353331827%)" />
  <rect x="415" y="120" width="30" height="30" fill="hsl(240 100% 94.52715106748563%)" />
  <rect x="450" y="120" width="30" height="30" fill="hsl(240 100% 97.8764575119625%)" />
  <rect x="520" y="120" width="30" height="30" fill="hsl(240 100% 79.2653668943928%)" />
  <rect x="555" y="120" width="30" height="30" fill="hsl(240 100% 90.06064526587483%)" />
  <rect x="660" y="120" width="30" height="30" fill="rgb(255 255 255 / 50%)" />
  <rect x="835" y="120" width="30" height="30" fill="rgb(255 255 255 / 50%)" />
  <rect x="65" y="155" width="30" height="30" fill="hsl(240 100% 98.28160621146453%)" />
  <rect x="100" y="155" width="30" height="30" fill="hsl(240 100% 98.81291380819546%)" />
  <rect x="135" y="155" width="30" height="30" fill="hsl(240 100% 99.08038090767903%)" />
  <rect x="170" y="155" width="30" height="30" fill="hsl(240 100% 97.97553157338166%)" />
  <rect x="205" y="155" width="30" height="30" fill="hsl(240 100% 99.84561109235258%)" />
  <rect x="240" y="155" width="30" height="30" fill="hsl(240 100% 91.09034787088372%)" />
  <rect x="275" y="155" width="30" height="30" fill="hsl(240 100% 92.50423873546775%)" />
  <rect x="310" y="155" width="30" height="30" fill="rgb(255 255 255 / 50%)" />
  <rect x="415" y="155" width="30" height="30" fill="hsl(240 100% 92.79663037376446%)" />
  <rect x="485" y="155" width="30" height="30" fill="hsl(240 100% 50%)" />
  <rect x="520" y="155" width="30" height="30" fill="hsl(240 100% 80.94242997675458%)" />
  <rect x="590" y="155" width="30" height="30" fill="hsl(240 100% 99.57425873948051%)" />
  <rect x="625" y="155" width="30" height="30" fill="hsl(240 100% 65.50327186971157%)" />
  <rect x="695" y="155" width="30" height="30" fill="hsl(240 100% 95.06272391095064%)" />
  <rect x="730" y="155" width="30" height="30" fill="hsl(240 100% 83.37747268990859%)" />
  <rect x="765" y="155" width="30" height="30" fill="hsl(240 100% 99.56720228226888%)" />
  <rect x="835" y="155" width="30" height="30" fill="hsl(240 100% 96.6072622757557%)" />
  <rect x="65" y="190" width="30" height="30" fill="hsl(240 100% 50%)" />
  <rect x="100" y="190" width="30" height="30" fill="hsl(240 100% 50%)" />
  <rect x="135" y="190" width="30" height="30" fill="hsl(240 100% 50%)" />
  <rect x="170" y="190" width="30" height="30" fill="hsl(240 100% 50%)" />
  <rect x="205" y="190" width="30" height="30" fill="hsl(240 100% 50%)" />
  <rect x="240" y="190" width="30" height="30" fill="hsl(240 100% 50%)" />
  <rect x="275" y="190" width="30" height="30" fill="hsl(240 100% 50%)" />
  <rect x="310" y="190" width="30" height="30" fill="hsl(240 100% 50%)" />
  <rect x="345" y="190" width="30" height="30" fill="hsl(240 100% 50%)" />
  <rect x="380" y="190" width="30" height="30" fill="hsl(240 100% 50%)" />
  <rect x="415" y="190" width="30" height="30" fill="hsl(240 100% 50%)" />
  <rect x="450" y="190" width="30" height="30" fill="hsl(240 100% 50%)" />
  <rect x="485" y="190" width="30" height="30" fill="hsl(240 100% 50%)" />
  <rect x="520" y="190" width="30" height="30" fill="hsl(240 100% 50%)" />
  <rect x="555" y="190" width="30" height="30" fill="hsl(240 100% 50%)" />
  <rect x="590" y="190" width="30" height="30" fill="hsl(240 100% 50%)" />
  <rect x="625" y="190" width="30" height="30" fill="hsl(240 100% 50%)" />
  <rect x="660" y="190" width="30" height="30" fill="hsl(240 100% 50%)" />
  <rect x="695" y="190" width="30" height="30" fill="hsl(240 100% 50%)" />
  <rect x="730" y="190" width="30" height="30" fill="hsl(240 100% 50%)" />
  <rect x="765" y="190" width="30" height="30" fill="hsl(240 100% 50%)" />
  <rect x="800" y="190" width="30" height="30" fill="hsl(240 100% 50%)" />
  <rect x="835" y="190" width="30" height="30" fill="hsl(240 100% 50%)" />
  <rect x="100" y="225" width="30" height="30" fill="hsl(240 100% 96.24972311724488%)" />
  <rect x="135" y="225" width="30" height="30" fill="hsl(240 100% 88.04799438107784%)" />
  <rect x="170" y="225" width="30" height="30" fill="hsl(240 100% 87.94588274417801%)" />
  <rect x="240" y="225" width="30" height="30" fill="hsl(240 100% 90.21362977874628%)" />
  <rect x="310" y="225" width="30" height="30" fill="rgb(255 255 255 / 50%)" />
  <rect x="415" y="225" width="30" height="30" fill="hsl(240 100% 89.38613392796583%)" />
  <rect x="520" y="225" width="30" height="30" fill="hsl(240 100% 50%)" />
  <rect x="625" y="225" width="30" height="30" fill="rgb(255 255 255 / 50%)" />
  <rect x="730" y="225" width="30" height="30" fill="hsl(240 100% 92.34348886977283%)" />
  <rect x="765" y="225" width="30" height="30" fill="rgb(255 255 255 / 50%)" />
  <rect x="835" y="225" width="30" height="30" fill="hsl(240 100% 94.17224936209844%)" />
  <rect x="65" y="260" width="30" height="30" fill="hsl(240 100% 99.83983282231523%)" />
  <rect x="135" y="260" width="30" height="30" fill="hsl(240 100% 99.85866935933105%)" />
  <rect x="170" y="260" width="30" height="30" fill="hsl(240 100% 98.94382342857264%)" />
  <rect x="205" y="260" width="30" height="30" fill="rgb(255 255 255 / 50%)" />
  <rect x="240" y="260" width="30" height="30" fill="hsl(240 100% 87.09337569903744%)" />
  <rect x="310" y="260" width="30" height="30" fill="rgb(255 255 255 / 50%)" />
  <rect x="415" y="260" width="30" height="30" fill="hsl(240 100% 80.92948682240105%)" />
  <rect x="450" y="260" width="30" height="30" fill="rgb(255 255 255 / 50%)" />
  <rect x="485" y="260" width="30" height="30" fill="hsl(240 100% 50%)" />
  <rect x="520" y="260" width="30" height="30" fill="hsl(240 100% 72.55259374667855%)" />
  <rect x="625" y="260" width="30" height="30" fill="hsl(240 100% 96.95756145064348%)" />
  <rect x="695" y="260" width="30" height="30" fill="hsl(240 100% 94.16682952478295%)" />
  <rect x="65" y="295" width="30" height="30" fill="hsl(240 100% 86.31090646599166%)" />
  <rect x="100" y="295" width="30" height="30" fill="hsl(240 100% 97.47637939016228%)" />
  <rect x="135" y="295" width="30" height="30" fill="hsl(240 100% 94.95610679833983%)" />
  <rect x="170" y="295" width="30" height="30" fill="hsl(240 100% 89.3229883198212%)" />
  <rect x="205" y="295" width="30" height="30" fill="hsl(240 100% 99.4836916948403%)" />
  <rect x="240" y="295" width="30" height="30" fill="hsl(240 100% 50.4347157590532%)" />
  <rect x="275" y="295" width="30" height="30" fill="hsl(240 100% 50%)" />
  <rect x="310" y="295" width="30" height="30" fill="hsl(240 100% 99.49786910453274%)" />
  <rect x="345" y="295" width="30" height="30" fill="hsl(240 100% 94.70063098260114%)" />
  <rect x="415" y="295" width="30" height="30" fill="hsl(240 100% 55.13057748907964%)" />
  <rect x="450" y="295" width="30" height="30" fill="hsl(240 100% 99.326970619405%)" />
  <rect x="485" y="295" width="30" height="30" fill="hsl(240 100% 89.68455684516877%)" />
  <rect x="520" y="295" width="30" height="30" fill="hsl(240 100% 57.73148808170257%)" />
  <rect x="695" y="295" width="30" height="30" fill="hsl(240 100% 97.59818327114192%)" />
  <rect x="800" y="295" width="30" height="30" fill="hsl(240 100% 99.57144385701712%)" />
  <rect x="835" y="295" width="30" height="30" fill="hsl(240 100% 99.95273891058987%)" />
  <rect x="65" y="330" width="30" height="30" fill="hsl(240 100% 87.27971881880411%)" />
  <rect x="100" y="330" width="30" height="30" fill="hsl(240 100% 94.30928922923343%)" />
  <rect x="135" y="330" width="30" height="30" fill="hsl(240 100% 97.02943375043019%)" />
  <rect x="170" y="330" width="30" height="30" fill="hsl(240 100% 86.82265799681446%)" />
  <rect x="205" y="330" width="30" height="30" fill="hsl(240 100% 99.15831856061234%)" />
  <rect x="240" y="330" width="30" height="30" fill="hsl(240 100% 79.42968238803417%)" />
  <rect x="275" y="330" width="30" height="30" fill="hsl(240 100% 87.59213957645736%)" />
  <rect x="310" y="330" width="30" height="30" fill="rgb(255 255 255 / 50%)" />
  <rect x="345" y="330" width="30" height="30" fill="hsl(240 100% 97.20728264718952%)" />
  <rect x="415" y="330" width="30" height="30" fill="hsl(240 100% 85.48324015651892%)" />
  <rect x="450" y="330" width="30" height="30" fill="hsl(240 100% 99.80436781396898%)" />
  <rect x="485" y="330" width="30" height="30" fill="hsl(240 100% 72.86773481673632%)" />
  <rect x="520" y="330" width="30" height="30" fill="hsl(240 100% 70.14570220732452%)" />
  <rect x="590" y="330" width="30" height="30" fill="hsl(240 100% 93.7710177226966%)" />
  <rect x="625" y="330" width="30" height="30" fill="hsl(240 100% 50%)" />
  <rect x="765" y="330" width="30" height="30" fill="hsl(240 100% 94.26108099093412%)" />
  <rect x="800" y="330" width="30" height="30" fill="hsl(240 100% 99.22164790593814%)" />
  <rect x="835" y="330" width="30" height="30" fill="hsl(240 100% 81.17645497589969%)" />
  <rect x="65" y="365" width="30" height="30" fill="hsl(240 100% 58.05553881007647%)" />
  <rect x="100" y="365" width="30" height="30" fill="hsl(240 100% 71.54143335148373%)" />
  <rect x="135" y="365" width="30" height="30" fill="hsl(240 100% 81.71941976710639%)" />
  <rect x="170" y="365" width="30" height="30" fill="hsl(240 100% 50%)" />
  <rect x="205" y="365" width="30" height="30" fill="hsl(240 100% 96.07100085383402%)" />
  <rect x="240" y="365" width="30" height="30" fill="hsl(240 100% 59.55994357301466%)" />
  <rect x="275" y="365" width="30" height="30" fill="hsl(240 100% 92.73687248018855%)" />
  <rect x="310" y="365" width="30" height="30" fill="hsl(240 100% 99.8611590046615%)" />
  <rect x="415" y="365" width="30" height="30" fill="hsl(240 100% 67.61785984403087%)" />
  <rect x="520" y="365" width="30" height="30" fill="hsl(240 100% 86.2509002331329%)" />
  <rect x="625" y="365" width="30" height="30" fill="hsl(240 100% 99.63833423954058%)" />
  <rect x="730" y="365" width="30" height="30" fill="hsl(240 100% 63.64269736404004%)" />
  <rect x="765" y="365" width="30" height="30" fill="hsl(240 100% 98.1972829258763%)" />
  <rect x="835" y="365" width="30" height="30" fill="hsl(240 100% 98.82573380014004%)" />
  <rect x="65" y="400" width="30" height="30" fill="hsl(240 100% 98.17609673779866%)" />
  <rect x="100" y="400" width="30" height="30" fill="hsl(240 100% 99.43028340986912%)" />
  <rect x="135" y="400" width="30" height="30" fill="hsl(240 100% 99.65814485164655%)" />
  <rect x="170" y="400" width="30" height="30" fill="hsl(240 100% 94.12963837174563%)" />
  <rect x="205" y="400" width="30" height="30" fill="hsl(240 100% 99.24831069117691%)" />
  <rect x="240" y="400" width="30" height="30" fill="hsl(240 100% 86.89108299427056%)" />
  <rect x="275" y="400" width="30" height="30" fill="hsl(240 100% 95.34176499520835%)" />
  <rect x="310" y="400" width="30" height="30" fill="rgb(255 255 255 / 50%)" />
  <rect x="380" y="400" width="30" height="30" fill="rgb(255 255 255 / 50%)" />
  <rect x="415" y="400" width="30" height="30" fill="hsl(240 100% 94.09788328034566%)" />
  <rect x="450" y="400" width="30" height="30" fill="hsl(240 100% 99.9713733540105%)" />
  <rect x="485" y="400" width="30" height="30" fill="hsl(240 100% 78.99559040855101%)" />
  <rect x="520" y="400" width="30" height="30" fill="hsl(240 100% 50%)" />
  <rect x="555" y="400" width="30" height="30" fill="hsl(240 100% 99.13302972700656%)" />
  <rect x="660" y="400" width="30" height="30" fill="rgb(255 255 255 / 50%)" />
  <rect x="835" y="400" width="30" height="30" fill="hsl(240 100% 99.19052677102536%)" />
  <rect x="65" y="435" width="30" height="30" fill="hsl(240 100% 93.3085848302907%)" />
  <rect x="240" y="435" width="30" height="30" fill="hsl(240 100% 50%)" />
  <rect x="310" y="435" width="30" height="30" fill="hsl(240 100% 93.84349252903354%)" />
  <rect x="415" y="435" width="30" height="30" fill="hsl(240 100% 87.03131895878599%)" />
  <rect x="450" y="435" width="30" height="30" fill="hsl(240 100% 99.77978755586017%)" />
  <rect x="65" y="470" width="30" height="30" fill="hsl(240 100% 50%)" />
  <rect x="240" y="470" width="30" height="30" fill="hsl(240 100% 50.02469490966628%)" />
  <rect x="310" y="470" width="30" height="30" fill="hsl(240 100% 96.97710046741817%)" />
  <rect x="415" y="470" width="30" height="30" fill="hsl(240 100% 89.10063312742685%)" />
  <rect x="450" y="470" width="30" height="30" fill="hsl(240 100% 99.56990120308022%)" />
</svg>
