<svg xmlns="http://www.w3.org/2000/svg" viewBox="0 0 870 505">
  <rect x="0" y="0" width="870" height="505" rx="5" ry="5" fill="#222" />
  <text x="60" y="100" fill="white" font-family="sans-serif" font-weight="bold" font-size="12" text-anchor="end" dominant-baseline="middle">ba</text>
  <text x="60" y="135" fill="white" font-family="sans-serif" font-weight="bold" font-size="12" text-anchor="end" dominant-baseline="middle">det</text>
  <text x="60" y="170" fill="white" font-family="sans-serif" font-weight="bold" font-size="12" text-anchor="end" dominant-baseline="middle">gmm</text>
  <text x="60" y="205" fill="white" font-family="sans-serif" font-weight="bold" font-size="12" text-anchor="end" dominant-baseline="middle">hello</text>
  <text x="60" y="240" fill="white" font-family="sans-serif" font-weight="bold" font-size="12" text-anchor="end" dominant-baseline="middle">ht</text>
  <text x="60" y="275" fill="white" font-family="sans-serif" font-weight="bold" font-size="12" text-anchor="end" dominant-baseline="middle">kmeans</text>
  <text x="60" y="310" fill="white" font-family="sans-serif" font-weight="bold" font-size="12" text-anchor="end" dominant-baseline="middle">llsq</text>
  <text x="60" y="345" fill="white" font-family="sans-serif" font-weight="bold" font-size="12" text-anchor="end" dominant-baseline="middle">lse</text>
  <text x="60" y="380" fill="white" font-family="sans-serif" font-weight="bold" font-size="12" text-anchor="end" dominant-baseline="middle">lstm</text>
  <text x="60" y="415" fill="white" font-family="sans-serif" font-weight="bold" font-size="12" text-anchor="end" dominant-baseline="middle">ode</text>
  <text x="60" y="450" fill="white" font-family="sans-serif" font-weight="bold" font-size="12" text-anchor="end" dominant-baseline="middle">particle</text>
  <text x="60" y="485" fill="white" font-family="sans-serif" font-weight="bold" font-size="12" text-anchor="end" dominant-baseline="middle">saddle</text>
  <text x="80" y="80" fill="white" font-family="sans-serif" font-weight="bold" font-size="12" text-anchor="end" dominant-baseline="middle" transform="rotate(90 80 80)">ad-hpp</text>
  <text x="115" y="80" fill="white" font-family="sans-serif" font-weight="bold" font-size="12" text-anchor="end" dominant-baseline="middle" transform="rotate(90 115 80)">adept</text>
  <text x="150" y="80" fill="white" font-family="sans-serif" font-weight="bold" font-size="12" text-anchor="end" dominant-baseline="middle" transform="rotate(90 150 80)">adol-c</text>
  <text x="185" y="80" fill="white" font-family="sans-serif" font-weight="bold" font-size="12" text-anchor="end" dominant-baseline="middle" transform="rotate(90 185 80)">codipack</text>
  <text x="220" y="80" fill="white" font-family="sans-serif" font-weight="bold" font-size="12" text-anchor="end" dominant-baseline="middle" transform="rotate(90 220 80)">cppad</text>
  <text x="255" y="80" fill="white" font-family="sans-serif" font-weight="bold" font-size="12" text-anchor="end" dominant-baseline="middle" transform="rotate(90 255 80)">enzyme</text>
  <text x="290" y="80" fill="white" font-family="sans-serif" font-weight="bold" font-size="12" text-anchor="end" dominant-baseline="middle" transform="rotate(90 290 80)">enzyme-jl</text>
  <text x="325" y="80" fill="white" font-family="sans-serif" font-weight="bold" font-size="12" text-anchor="end" dominant-baseline="middle" transform="rotate(90 325 80)">finite</text>
  <text x="360" y="80" fill="white" font-family="sans-serif" font-weight="bold" font-size="12" text-anchor="end" dominant-baseline="middle" transform="rotate(90 360 80)">floretta</text>
  <text x="395" y="80" fill="white" font-family="sans-serif" font-weight="bold" font-size="12" text-anchor="end" dominant-baseline="middle" transform="rotate(90 395 80)">forwarddiff-jl</text>
  <text x="430" y="80" fill="white" font-family="sans-serif" font-weight="bold" font-size="12" text-anchor="end" dominant-baseline="middle" transform="rotate(90 430 80)">futhark</text>
  <text x="465" y="80" fill="white" font-family="sans-serif" font-weight="bold" font-size="12" text-anchor="end" dominant-baseline="middle" transform="rotate(90 465 80)">haskell</text>
  <text x="500" y="80" fill="white" font-family="sans-serif" font-weight="bold" font-size="12" text-anchor="end" dominant-baseline="middle" transform="rotate(90 500 80)">jax</text>
  <text x="535" y="80" fill="white" font-family="sans-serif" font-weight="bold" font-size="12" text-anchor="end" dominant-baseline="middle" transform="rotate(90 535 80)">manual</text>
  <text x="570" y="80" fill="white" font-family="sans-serif" font-weight="bold" font-size="12" text-anchor="end" dominant-baseline="middle" transform="rotate(90 570 80)">mooncake-jl</text>
  <text x="605" y="80" fill="white" font-family="sans-serif" font-weight="bold" font-size="12" text-anchor="end" dominant-baseline="middle" transform="rotate(90 605 80)">ocaml</text>
  <text x="640" y="80" fill="white" font-family="sans-serif" font-weight="bold" font-size="12" text-anchor="end" dominant-baseline="middle" transform="rotate(90 640 80)">pytorch</text>
  <text x="675" y="80" fill="white" font-family="sans-serif" font-weight="bold" font-size="12" text-anchor="end" dominant-baseline="middle" transform="rotate(90 675 80)">reversediff-jl</text>
  <text x="710" y="80" fill="white" font-family="sans-serif" font-weight="bold" font-size="12" text-anchor="end" dominant-baseline="middle" transform="rotate(90 710 80)">scilean</text>
  <text x="745" y="80" fill="white" font-family="sans-serif" font-weight="bold" font-size="12" text-anchor="end" dominant-baseline="middle" transform="rotate(90 745 80)">tapenade</text>
  <text x="780" y="80" fill="white" font-family="sans-serif" font-weight="bold" font-size="12" text-anchor="end" dominant-baseline="middle" transform="rotate(90 780 80)">tensorflow</text>
  <text x="815" y="80" fill="white" font-family="sans-serif" font-weight="bold" font-size="12" text-anchor="end" dominant-baseline="middle" transform="rotate(90 815 80)">tensorflow-js</text>
  <text x="850" y="80" fill="white" font-family="sans-serif" font-weight="bold" font-size="12" text-anchor="end" dominant-baseline="middle" transform="rotate(90 850 80)">zygote</text>
  <rect x="65" y="85" width="30" height="30" fill="hsl(240 100% 80.67694040764661%)" />
  <rect x="100" y="85" width="30" height="30" fill="hsl(240 100% 83.21806134259333%)" />
  <rect x="135" y="85" width="30" height="30" fill="hsl(240 100% 98.00064215938475%)" />
  <rect x="170" y="85" width="30" height="30" fill="hsl(240 100% 82.2996745277443%)" />
  <rect x="205" y="85" width="30" height="30" fill="hsl(240 100% 98.99587956925755%)" />
  <rect x="240" y="85" width="30" height="30" fill="hsl(240 100% 51.7716814622171%)" />
  <rect x="310" y="85" width="30" height="30" fill="hsl(240 100% 93.22951792833184%)" />
  <rect x="415" y="85" width="30" height="30" fill="hsl(240 100% 68.03809142605665%)" />
  <rect x="520" y="85" width="30" height="30" fill="hsl(240 100% 50%)" />
  <rect x="625" y="85" width="30" height="30" fill="rgb(255 255 255 / 50%)" />
  <rect x="730" y="85" width="30" height="30" fill="hsl(240 100% 74.71350282194365%)" />
  <rect x="765" y="85" width="30" height="30" fill="rgb(255 255 255 / 50%)" />
  <rect x="835" y="85" width="30" height="30" fill="hsl(240 100% 99.73292828672602%)" />
  <rect x="65" y="120" width="30" height="30" fill="hsl(240 100% 50%)" />
  <rect x="100" y="120" width="30" height="30" fill="hsl(240 100% 86.54381529197266%)" />
  <rect x="135" y="120" width="30" height="30" fill="hsl(240 100% 85.70992918032285%)" />
  <rect x="170" y="120" width="30" height="30" fill="hsl(240 100% 52.27880840075494%)" />
  <rect x="205" y="120" width="30" height="30" fill="hsl(240 100% 92.66775417015728%)" />
  <rect x="240" y="120" width="30" height="30" fill="hsl(240 100% 91.4145091524307%)" />
  <rect x="275" y="120" width="30" height="30" fill="hsl(240 100% 99.34478655740807%)" />
  <rect x="310" y="120" width="30" height="30" fill="hsl(240 100% 98.98572271222487%)" />
  <rect x="380" y="120" width="30" height="30" fill="hsl(240 100% 93.41210471285211%)" />
  <rect x="415" y="120" width="30" height="30" fill="hsl(240 100% 94.58495731721813%)" />
  <rect x="450" y="120" width="30" height="30" fill="hsl(240 100% 97.86985503976867%)" />
  <rect x="520" y="120" width="30" height="30" fill="hsl(240 100% 79.61001112998949%)" />
  <rect x="555" y="120" width="30" height="30" fill="hsl(240 100% 90.14366226883308%)" />
  <rect x="660" y="120" width="30" height="30" fill="rgb(255 255 255 / 50%)" />
  <rect x="835" y="120" width="30" height="30" fill="rgb(255 255 255 / 50%)" />
  <rect x="65" y="155" width="30" height="30" fill="hsl(240 100% 98.51907677240575%)" />
  <rect x="100" y="155" width="30" height="30" fill="hsl(240 100% 98.79329274738967%)" />
  <rect x="135" y="155" width="30" height="30" fill="hsl(240 100% 99.2122174993681%)" />
  <rect x="170" y="155" width="30" height="30" fill="hsl(240 100% 97.99773517397392%)" />
  <rect x="205" y="155" width="30" height="30" fill="hsl(240 100% 99.84863051865842%)" />
  <rect x="240" y="155" width="30" height="30" fill="hsl(240 100% 91.11083300116526%)" />
  <rect x="275" y="155" width="30" height="30" fill="hsl(240 100% 92.59345520904569%)" />
  <rect x="310" y="155" width="30" height="30" fill="rgb(255 255 255 / 50%)" />
  <rect x="415" y="155" width="30" height="30" fill="hsl(240 100% 92.92065489114155%)" />
  <rect x="485" y="155" width="30" height="30" fill="hsl(240 100% 50%)" />
  <rect x="520" y="155" width="30" height="30" fill="hsl(240 100% 83.2019235139633%)" />
  <rect x="590" y="155" width="30" height="30" fill="hsl(240 100% 99.58936359717637%)" />
  <rect x="625" y="155" width="30" height="30" fill="hsl(240 100% 66.55861671722639%)" />
  <rect x="695" y="155" width="30" height="30" fill="hsl(240 100% 95.38176559405423%)" />
  <rect x="730" y="155" width="30" height="30" fill="hsl(240 100% 83.53782070891043%)" />
  <rect x="765" y="155" width="30" height="30" fill="hsl(240 100% 99.5733032049645%)" />
  <rect x="835" y="155" width="30" height="30" fill="hsl(240 100% 96.13799004698876%)" />
  <rect x="65" y="190" width="30" height="30" fill="hsl(240 100% 50%)" />
  <rect x="100" y="190" width="30" height="30" fill="hsl(240 100% 50%)" />
  <rect x="135" y="190" width="30" height="30" fill="hsl(240 100% 50%)" />
  <rect x="170" y="190" width="30" height="30" fill="hsl(240 100% 50%)" />
  <rect x="205" y="190" width="30" height="30" fill="hsl(240 100% 50%)" />
  <rect x="240" y="190" width="30" height="30" fill="hsl(240 100% 50%)" />
  <rect x="275" y="190" width="30" height="30" fill="hsl(240 100% 50%)" />
  <rect x="310" y="190" width="30" height="30" fill="hsl(240 100% 50%)" />
  <rect x="345" y="190" width="30" height="30" fill="hsl(240 100% 50%)" />
  <rect x="380" y="190" width="30" height="30" fill="hsl(240 100% 50%)" />
  <rect x="415" y="190" width="30" height="30" fill="hsl(240 100% 50%)" />
  <rect x="450" y="190" width="30" height="30" fill="hsl(240 100% 50%)" />
  <rect x="485" y="190" width="30" height="30" fill="hsl(240 100% 50%)" />
  <rect x="520" y="190" width="30" height="30" fill="hsl(240 100% 50%)" />
  <rect x="555" y="190" width="30" height="30" fill="hsl(240 100% 50%)" />
  <rect x="590" y="190" width="30" height="30" fill="hsl(240 100% 50%)" />
  <rect x="625" y="190" width="30" height="30" fill="hsl(240 100% 50%)" />
  <rect x="660" y="190" width="30" height="30" fill="hsl(240 100% 50%)" />
  <rect x="695" y="190" width="30" height="30" fill="hsl(240 100% 50%)" />
  <rect x="730" y="190" width="30" height="30" fill="hsl(240 100% 50%)" />
  <rect x="765" y="190" width="30" height="30" fill="hsl(240 100% 50%)" />
  <rect x="800" y="190" width="30" height="30" fill="hsl(240 100% 50%)" />
  <rect x="835" y="190" width="30" height="30" fill="hsl(240 100% 50%)" />
  <rect x="100" y="225" width="30" height="30" fill="hsl(240 100% 96.67087582064727%)" />
  <rect x="135" y="225" width="30" height="30" fill="hsl(240 100% 89.113194073242%)" />
  <rect x="170" y="225" width="30" height="30" fill="hsl(240 100% 89.15577363290095%)" />
  <rect x="240" y="225" width="30" height="30" fill="hsl(240 100% 91.37118976459999%)" />
  <rect x="310" y="225" width="30" height="30" fill="rgb(255 255 255 / 50%)" />
  <rect x="415" y="225" width="30" height="30" fill="hsl(240 100% 90.51837360301253%)" />
  <rect x="520" y="225" width="30" height="30" fill="hsl(240 100% 50%)" />
  <rect x="625" y="225" width="30" height="30" fill="rgb(255 255 255 / 50%)" />
  <rect x="730" y="225" width="30" height="30" fill="hsl(240 100% 93.2327130290782%)" />
  <rect x="765" y="225" width="30" height="30" fill="rgb(255 255 255 / 50%)" />
  <rect x="835" y="225" width="30" height="30" fill="hsl(240 100% 94.32244049907798%)" />
  <rect x="65" y="260" width="30" height="30" fill="hsl(240 100% 99.86957299951432%)" />
  <rect x="135" y="260" width="30" height="30" fill="hsl(240 100% 99.85542933386645%)" />
  <rect x="170" y="260" width="30" height="30" fill="hsl(240 100% 98.87207783255617%)" />
  <rect x="205" y="260" width="30" height="30" fill="rgb(255 255 255 / 50%)" />
  <rect x="240" y="260" width="30" height="30" fill="hsl(240 100% 87.29872121005818%)" />
  <rect x="310" y="260" width="30" height="30" fill="rgb(255 255 255 / 50%)" />
  <rect x="415" y="260" width="30" height="30" fill="hsl(240 100% 81.19798391416565%)" />
  <rect x="450" y="260" width="30" height="30" fill="rgb(255 255 255 / 50%)" />
  <rect x="485" y="260" width="30" height="30" fill="hsl(240 100% 50%)" />
  <rect x="520" y="260" width="30" height="30" fill="hsl(240 100% 71.65290929062671%)" />
  <rect x="625" y="260" width="30" height="30" fill="hsl(240 100% 97.04892503721257%)" />
  <rect x="695" y="260" width="30" height="30" fill="hsl(240 100% 94.2142234776445%)" />
  <rect x="65" y="295" width="30" height="30" fill="hsl(240 100% 86.06277070024514%)" />
  <rect x="100" y="295" width="30" height="30" fill="hsl(240 100% 97.5150975568129%)" />
  <rect x="135" y="295" width="30" height="30" fill="hsl(240 100% 95.09360527697366%)" />
  <rect x="170" y="295" width="30" height="30" fill="hsl(240 100% 90.65891959406156%)" />
  <rect x="205" y="295" width="30" height="30" fill="hsl(240 100% 99.47298013615922%)" />
  <rect x="240" y="295" width="30" height="30" fill="hsl(240 100% 50.50107972358603%)" />
  <rect x="275" y="295" width="30" height="30" fill="hsl(240 100% 50%)" />
  <rect x="310" y="295" width="30" height="30" fill="hsl(240 100% 99.49807896877489%)" />
  <rect x="345" y="295" width="30" height="30" fill="hsl(240 100% 94.7047589335055%)" />
  <rect x="415" y="295" width="30" height="30" fill="hsl(240 100% 55.11227499117191%)" />
  <rect x="450" y="295" width="30" height="30" fill="hsl(240 100% 99.33077324947479%)" />
  <rect x="485" y="295" width="30" height="30" fill="hsl(240 100% 88.22099590258568%)" />
  <rect x="520" y="295" width="30" height="30" fill="hsl(240 100% 57.74341918304196%)" />
  <rect x="695" y="295" width="30" height="30" fill="hsl(240 100% 97.60168427612302%)" />
  <rect x="800" y="295" width="30" height="30" fill="hsl(240 100% 99.57082868816066%)" />
  <rect x="835" y="295" width="30" height="30" fill="hsl(240 100% 99.95672687582758%)" />
  <rect x="65" y="330" width="30" height="30" fill="hsl(240 100% 89.22676867944614%)" />
  <rect x="100" y="330" width="30" height="30" fill="hsl(240 100% 94.92921755561429%)" />
  <rect x="135" y="330" width="30" height="30" fill="hsl(240 100% 97.27083913790227%)" />
  <rect x="170" y="330" width="30" height="30" fill="hsl(240 100% 88.86522749599428%)" />
  <rect x="205" y="330" width="30" height="30" fill="hsl(240 100% 99.2307702727657%)" />
  <rect x="240" y="330" width="30" height="30" fill="hsl(240 100% 80.71759668489553%)" />
  <rect x="275" y="330" width="30" height="30" fill="hsl(240 100% 88.87187318701787%)" />
  <rect x="310" y="330" width="30" height="30" fill="rgb(255 255 255 / 50%)" />
  <rect x="345" y="330" width="30" height="30" fill="hsl(240 100% 97.32129780607727%)" />
  <rect x="415" y="330" width="30" height="30" fill="hsl(240 100% 86.36884471927713%)" />
  <rect x="450" y="330" width="30" height="30" fill="hsl(240 100% 99.81534345816524%)" />
  <rect x="485" y="330" width="30" height="30" fill="hsl(240 100% 72.69913905882348%)" />
  <rect x="520" y="330" width="30" height="30" fill="hsl(240 100% 77.56566724154251%)" />
  <rect x="590" y="330" width="30" height="30" fill="hsl(240 100% 94.04345599570617%)" />
  <rect x="625" y="330" width="30" height="30" fill="hsl(240 100% 50%)" />
  <rect x="765" y="330" width="30" height="30" fill="hsl(240 100% 94.43617505293989%)" />
  <rect x="800" y="330" width="30" height="30" fill="hsl(240 100% 99.26455436630098%)" />
  <rect x="835" y="330" width="30" height="30" fill="hsl(240 100% 81.11016861559929%)" />
  <rect x="65" y="365" width="30" height="30" fill="hsl(240 100% 56.81990147304629%)" />
  <rect x="100" y="365" width="30" height="30" fill="hsl(240 100% 71.19791341956169%)" />
  <rect x="135" y="365" width="30" height="30" fill="hsl(240 100% 82.51366751902349%)" />
  <rect x="170" y="365" width="30" height="30" fill="hsl(240 100% 50%)" />
  <rect x="205" y="365" width="30" height="30" fill="hsl(240 100% 96.14347465515729%)" />
  <rect x="240" y="365" width="30" height="30" fill="hsl(240 100% 58.98686383477759%)" />
  <rect x="275" y="365" width="30" height="30" fill="hsl(240 100% 92.49783154534597%)" />
  <rect x="310" y="365" width="30" height="30" fill="hsl(240 100% 99.85996391564075%)" />
  <rect x="415" y="365" width="30" height="30" fill="hsl(240 100% 66.20439380256684%)" />
  <rect x="520" y="365" width="30" height="30" fill="hsl(240 100% 85.73875429524587%)" />
  <rect x="625" y="365" width="30" height="30" fill="hsl(240 100% 99.63737462258857%)" />
  <rect x="730" y="365" width="30" height="30" fill="hsl(240 100% 62.79469663015356%)" />
  <rect x="765" y="365" width="30" height="30" fill="hsl(240 100% 98.18917421519883%)" />
  <rect x="835" y="365" width="30" height="30" fill="hsl(240 100% 98.79251411888934%)" />
  <rect x="65" y="400" width="30" height="30" fill="hsl(240 100% 98.06429005287721%)" />
  <rect x="100" y="400" width="30" height="30" fill="hsl(240 100% 99.24470183610565%)" />
  <rect x="135" y="400" width="30" height="30" fill="hsl(240 100% 99.57999546052577%)" />
  <rect x="170" y="400" width="30" height="30" fill="hsl(240 100% 94.19199673985698%)" />
  <rect x="205" y="400" width="30" height="30" fill="hsl(240 100% 99.03258667724528%)" />
  <rect x="240" y="400" width="30" height="30" fill="hsl(240 100% 82.12725621498639%)" />
  <rect x="275" y="400" width="30" height="30" fill="hsl(240 100% 93.93342759187613%)" />
  <rect x="310" y="400" width="30" height="30" fill="rgb(255 255 255 / 50%)" />
  <rect x="380" y="400" width="30" height="30" fill="rgb(255 255 255 / 50%)" />
  <rect x="415" y="400" width="30" height="30" fill="hsl(240 100% 92.40984223294485%)" />
  <rect x="450" y="400" width="30" height="30" fill="hsl(240 100% 99.96589924454292%)" />
  <rect x="485" y="400" width="30" height="30" fill="hsl(240 100% 72.542774552755%)" />
  <rect x="520" y="400" width="30" height="30" fill="hsl(240 100% 50%)" />
  <rect x="555" y="400" width="30" height="30" fill="hsl(240 100% 98.90477007170414%)" />
  <rect x="660" y="400" width="30" height="30" fill="rgb(255 255 255 / 50%)" />
  <rect x="835" y="400" width="30" height="30" fill="hsl(240 100% 98.9313623411551%)" />
  <rect x="65" y="435" width="30" height="30" fill="hsl(240 100% 92.94698685215104%)" />
  <rect x="240" y="435" width="30" height="30" fill="hsl(240 100% 50%)" />
  <rect x="310" y="435" width="30" height="30" fill="hsl(240 100% 94.2924383879277%)" />
  <rect x="415" y="435" width="30" height="30" fill="hsl(240 100% 87.04717208711878%)" />
  <rect x="450" y="435" width="30" height="30" fill="hsl(240 100% 99.79099069555302%)" />
  <rect x="65" y="470" width="30" height="30" fill="hsl(240 100% 50%)" />
  <rect x="240" y="470" width="30" height="30" fill="hsl(240 100% 50.06354851868849%)" />
  <rect x="310" y="470" width="30" height="30" fill="hsl(240 100% 97.1579654601839%)" />
  <rect x="415" y="470" width="30" height="30" fill="hsl(240 100% 89.04936238470943%)" />
  <rect x="450" y="470" width="30" height="30" fill="hsl(240 100% 99.57594804995956%)" />
</svg>
