<svg xmlns="http://www.w3.org/2000/svg" viewBox="0 0 660 470">
  <rect x="0" y="0" width="660" height="470" rx="5" ry="5" fill="#222" />
  <text x="60" y="100" fill="white" font-family="sans-serif" font-weight="bold" font-size="12" text-anchor="end" dominant-baseline="middle">ba</text>
  <text x="60" y="135" fill="white" font-family="sans-serif" font-weight="bold" font-size="12" text-anchor="end" dominant-baseline="middle">det</text>
  <text x="60" y="170" fill="white" font-family="sans-serif" font-weight="bold" font-size="12" text-anchor="end" dominant-baseline="middle">gmm</text>
  <text x="60" y="205" fill="white" font-family="sans-serif" font-weight="bold" font-size="12" text-anchor="end" dominant-baseline="middle">hello</text>
  <text x="60" y="240" fill="white" font-family="sans-serif" font-weight="bold" font-size="12" text-anchor="end" dominant-baseline="middle">ht</text>
  <text x="60" y="275" fill="white" font-family="sans-serif" font-weight="bold" font-size="12" text-anchor="end" dominant-baseline="middle">kmeans</text>
  <text x="60" y="310" fill="white" font-family="sans-serif" font-weight="bold" font-size="12" text-anchor="end" dominant-baseline="middle">llsq</text>
  <text x="60" y="345" fill="white" font-family="sans-serif" font-weight="bold" font-size="12" text-anchor="end" dominant-baseline="middle">lstm</text>
  <text x="60" y="380" fill="white" font-family="sans-serif" font-weight="bold" font-size="12" text-anchor="end" dominant-baseline="middle">ode</text>
  <text x="60" y="415" fill="white" font-family="sans-serif" font-weight="bold" font-size="12" text-anchor="end" dominant-baseline="middle">particle</text>
  <text x="60" y="450" fill="white" font-family="sans-serif" font-weight="bold" font-size="12" text-anchor="end" dominant-baseline="middle">saddle</text>
  <text x="80" y="80" fill="white" font-family="sans-serif" font-weight="bold" font-size="12" text-anchor="end" dominant-baseline="middle" transform="rotate(90 80 80)">adept</text>
  <text x="115" y="80" fill="white" font-family="sans-serif" font-weight="bold" font-size="12" text-anchor="end" dominant-baseline="middle" transform="rotate(90 115 80)">adol-c</text>
  <text x="150" y="80" fill="white" font-family="sans-serif" font-weight="bold" font-size="12" text-anchor="end" dominant-baseline="middle" transform="rotate(90 150 80)">codipack</text>
  <text x="185" y="80" fill="white" font-family="sans-serif" font-weight="bold" font-size="12" text-anchor="end" dominant-baseline="middle" transform="rotate(90 185 80)">cppad</text>
  <text x="220" y="80" fill="white" font-family="sans-serif" font-weight="bold" font-size="12" text-anchor="end" dominant-baseline="middle" transform="rotate(90 220 80)">enzyme</text>
  <text x="255" y="80" fill="white" font-family="sans-serif" font-weight="bold" font-size="12" text-anchor="end" dominant-baseline="middle" transform="rotate(90 255 80)">finite</text>
  <text x="290" y="80" fill="white" font-family="sans-serif" font-weight="bold" font-size="12" text-anchor="end" dominant-baseline="middle" transform="rotate(90 290 80)">floretta</text>
  <text x="325" y="80" fill="white" font-family="sans-serif" font-weight="bold" font-size="12" text-anchor="end" dominant-baseline="middle" transform="rotate(90 325 80)">futhark</text>
  <text x="360" y="80" fill="white" font-family="sans-serif" font-weight="bold" font-size="12" text-anchor="end" dominant-baseline="middle" transform="rotate(90 360 80)">haskell</text>
  <text x="395" y="80" fill="white" font-family="sans-serif" font-weight="bold" font-size="12" text-anchor="end" dominant-baseline="middle" transform="rotate(90 395 80)">jax</text>
  <text x="430" y="80" fill="white" font-family="sans-serif" font-weight="bold" font-size="12" text-anchor="end" dominant-baseline="middle" transform="rotate(90 430 80)">manual</text>
  <text x="465" y="80" fill="white" font-family="sans-serif" font-weight="bold" font-size="12" text-anchor="end" dominant-baseline="middle" transform="rotate(90 465 80)">ocaml</text>
  <text x="500" y="80" fill="white" font-family="sans-serif" font-weight="bold" font-size="12" text-anchor="end" dominant-baseline="middle" transform="rotate(90 500 80)">pytorch</text>
  <text x="535" y="80" fill="white" font-family="sans-serif" font-weight="bold" font-size="12" text-anchor="end" dominant-baseline="middle" transform="rotate(90 535 80)">scilean</text>
  <text x="570" y="80" fill="white" font-family="sans-serif" font-weight="bold" font-size="12" text-anchor="end" dominant-baseline="middle" transform="rotate(90 570 80)">tapenade</text>
  <text x="605" y="80" fill="white" font-family="sans-serif" font-weight="bold" font-size="12" text-anchor="end" dominant-baseline="middle" transform="rotate(90 605 80)">tensorflow</text>
  <text x="640" y="80" fill="white" font-family="sans-serif" font-weight="bold" font-size="12" text-anchor="end" dominant-baseline="middle" transform="rotate(90 640 80)">zygote</text>
  <rect x="65" y="85" width="30" height="30" fill="hsl(240 100% 83.03717224131795%)" />
  <rect x="100" y="85" width="30" height="30" fill="hsl(240 100% 97.76085898087032%)" />
  <rect x="135" y="85" width="30" height="30" fill="hsl(240 100% 88.76139377519581%)" />
  <rect x="205" y="85" width="30" height="30" fill="hsl(240 100% 50%)" />
  <rect x="240" y="85" width="30" height="30" fill="hsl(240 100% 92.44751564328288%)" />
  <rect x="310" y="85" width="30" height="30" fill="hsl(240 100% 67.63647658338911%)" />
  <rect x="415" y="85" width="30" height="30" fill="hsl(240 100% 50.65681560715885%)" />
  <rect x="485" y="85" width="30" height="30" fill="rgb(255 255 255 / 50%)" />
  <rect x="555" y="85" width="30" height="30" fill="hsl(240 100% 71.88713080880967%)" />
  <rect x="590" y="85" width="30" height="30" fill="rgb(255 255 255 / 50%)" />
  <rect x="65" y="120" width="30" height="30" fill="hsl(240 100% 88.95560764489267%)" />
  <rect x="100" y="120" width="30" height="30" fill="hsl(240 100% 90.57094016078557%)" />
  <rect x="135" y="120" width="30" height="30" fill="hsl(240 100% 66.43341162988838%)" />
  <rect x="170" y="120" width="30" height="30" fill="hsl(240 100% 50%)" />
  <rect x="205" y="120" width="30" height="30" fill="hsl(240 100% 94.52046469217595%)" />
  <rect x="240" y="120" width="30" height="30" fill="hsl(240 100% 99.31063110295885%)" />
  <rect x="310" y="120" width="30" height="30" fill="hsl(240 100% 96.43317838508588%)" />
  <rect x="345" y="120" width="30" height="30" fill="hsl(240 100% 98.60786538358943%)" />
  <rect x="415" y="120" width="30" height="30" fill="hsl(240 100% 86.19702534643855%)" />
  <rect x="65" y="155" width="30" height="30" fill="hsl(240 100% 98.32722971296735%)" />
  <rect x="100" y="155" width="30" height="30" fill="hsl(240 100% 98.898962662609%)" />
  <rect x="135" y="155" width="30" height="30" fill="hsl(240 100% 97.2656463246251%)" />
  <rect x="170" y="155" width="30" height="30" fill="rgb(255 255 255 / 50%)" />
  <rect x="205" y="155" width="30" height="30" fill="hsl(240 100% 87.07035771005823%)" />
  <rect x="240" y="155" width="30" height="30" fill="rgb(255 255 255 / 50%)" />
  <rect x="310" y="155" width="30" height="30" fill="hsl(240 100% 90.00414786582756%)" />
  <rect x="380" y="155" width="30" height="30" fill="hsl(240 100% 69.66901923182587%)" />
  <rect x="415" y="155" width="30" height="30" fill="hsl(240 100% 75.43500963155844%)" />
  <rect x="450" y="155" width="30" height="30" fill="hsl(240 100% 99.35038972654777%)" />
  <rect x="485" y="155" width="30" height="30" fill="hsl(240 100% 50%)" />
  <rect x="520" y="155" width="30" height="30" fill="hsl(240 100% 93.23373741395231%)" />
  <rect x="555" y="155" width="30" height="30" fill="hsl(240 100% 75.9791187617775%)" />
  <rect x="590" y="155" width="30" height="30" fill="hsl(240 100% 88.54796799039566%)" />
  <rect x="65" y="190" width="30" height="30" fill="hsl(240 100% 50%)" />
  <rect x="100" y="190" width="30" height="30" fill="hsl(240 100% 50%)" />
  <rect x="135" y="190" width="30" height="30" fill="hsl(240 100% 50%)" />
  <rect x="170" y="190" width="30" height="30" fill="hsl(240 100% 50%)" />
  <rect x="205" y="190" width="30" height="30" fill="hsl(240 100% 50%)" />
  <rect x="240" y="190" width="30" height="30" fill="hsl(240 100% 50%)" />
  <rect x="275" y="190" width="30" height="30" fill="hsl(240 100% 50%)" />
  <rect x="310" y="190" width="30" height="30" fill="hsl(240 100% 50%)" />
  <rect x="345" y="190" width="30" height="30" fill="hsl(240 100% 50%)" />
  <rect x="380" y="190" width="30" height="30" fill="hsl(240 100% 50%)" />
  <rect x="415" y="190" width="30" height="30" fill="hsl(240 100% 50%)" />
  <rect x="450" y="190" width="30" height="30" fill="hsl(240 100% 50%)" />
  <rect x="485" y="190" width="30" height="30" fill="hsl(240 100% 50%)" />
  <rect x="520" y="190" width="30" height="30" fill="hsl(240 100% 50%)" />
  <rect x="555" y="190" width="30" height="30" fill="hsl(240 100% 50%)" />
  <rect x="590" y="190" width="30" height="30" fill="hsl(240 100% 50%)" />
  <rect x="625" y="190" width="30" height="30" fill="hsl(240 100% 50%)" />
  <rect x="65" y="225" width="30" height="30" fill="hsl(240 100% 95.97792987750545%)" />
  <rect x="100" y="225" width="30" height="30" fill="hsl(240 100% 96.25742480161539%)" />
  <rect x="135" y="225" width="30" height="30" fill="hsl(240 100% 88.05054865610774%)" />
  <rect x="205" y="225" width="30" height="30" fill="hsl(240 100% 90.01189107816538%)" />
  <rect x="240" y="225" width="30" height="30" fill="rgb(255 255 255 / 50%)" />
  <rect x="310" y="225" width="30" height="30" fill="hsl(240 100% 89.45690565747834%)" />
  <rect x="415" y="225" width="30" height="30" fill="hsl(240 100% 50%)" />
  <rect x="485" y="225" width="30" height="30" fill="rgb(255 255 255 / 50%)" />
  <rect x="555" y="225" width="30" height="30" fill="rgb(255 255 255 / 50%)" />
  <rect x="590" y="225" width="30" height="30" fill="rgb(255 255 255 / 50%)" />
  <rect x="100" y="260" width="30" height="30" fill="hsl(240 100% 99.87766666898823%)" />
  <rect x="135" y="260" width="30" height="30" fill="hsl(240 100% 99.41871758770978%)" />
  <rect x="170" y="260" width="30" height="30" fill="rgb(255 255 255 / 50%)" />
  <rect x="205" y="260" width="30" height="30" fill="hsl(240 100% 87.43273318025045%)" />
  <rect x="240" y="260" width="30" height="30" fill="rgb(255 255 255 / 50%)" />
  <rect x="310" y="260" width="30" height="30" fill="hsl(240 100% 83.17338753374561%)" />
  <rect x="345" y="260" width="30" height="30" fill="rgb(255 255 255 / 50%)" />
  <rect x="380" y="260" width="30" height="30" fill="hsl(240 100% 50%)" />
  <rect x="415" y="260" width="30" height="30" fill="hsl(240 100% 76.81327909127984%)" />
  <rect x="485" y="260" width="30" height="30" fill="hsl(240 100% 97.01468845236164%)" />
  <rect x="520" y="260" width="30" height="30" fill="hsl(240 100% 94.25491101703689%)" />
  <rect x="65" y="295" width="30" height="30" fill="hsl(240 100% 67.18286020644442%)" />
  <rect x="100" y="295" width="30" height="30" fill="hsl(240 100% 59.27356450195358%)" />
  <rect x="135" y="295" width="30" height="30" fill="hsl(240 100% 59.93400121165001%)" />
  <rect x="170" y="295" width="30" height="30" fill="hsl(240 100% 56.933662214635845%)" />
  <rect x="205" y="295" width="30" height="30" fill="hsl(240 100% 50%)" />
  <rect x="240" y="295" width="30" height="30" fill="hsl(240 100% 99.4280930987779%)" />
  <rect x="310" y="295" width="30" height="30" fill="hsl(240 100% 50.79319545805557%)" />
  <rect x="345" y="295" width="30" height="30" fill="hsl(240 100% 89.27675713869064%)" />
  <rect x="415" y="295" width="30" height="30" fill="hsl(240 100% 53.63496172725308%)" />
  <rect x="65" y="330" width="30" height="30" fill="hsl(240 100% 68.39599806163828%)" />
  <rect x="100" y="330" width="30" height="30" fill="hsl(240 100% 80.47215650298165%)" />
  <rect x="135" y="330" width="30" height="30" fill="hsl(240 100% 52.14184606306554%)" />
  <rect x="170" y="330" width="30" height="30" fill="hsl(240 100% 89.5257797951125%)" />
  <rect x="205" y="330" width="30" height="30" fill="hsl(240 100% 50%)" />
  <rect x="240" y="330" width="30" height="30" fill="hsl(240 100% 99.84939610386799%)" />
  <rect x="310" y="330" width="30" height="30" fill="hsl(240 100% 63.040511684237785%)" />
  <rect x="415" y="330" width="30" height="30" fill="hsl(240 100% 84.48693703562226%)" />
  <rect x="485" y="330" width="30" height="30" fill="hsl(240 100% 99.59466237731438%)" />
  <rect x="520" y="330" width="30" height="30" fill="hsl(240 100% 89.49991868203365%)" />
  <rect x="555" y="330" width="30" height="30" fill="hsl(240 100% 59.452403321049495%)" />
  <rect x="590" y="330" width="30" height="30" fill="hsl(240 100% 97.98569100148147%)" />
  <rect x="65" y="365" width="30" height="30" fill="hsl(240 100% 99.28015673206386%)" />
  <rect x="100" y="365" width="30" height="30" fill="hsl(240 100% 99.58185927423591%)" />
  <rect x="135" y="365" width="30" height="30" fill="hsl(240 100% 94.00412833605608%)" />
  <rect x="170" y="365" width="30" height="30" fill="hsl(240 100% 50%)" />
  <rect x="205" y="365" width="30" height="30" fill="hsl(240 100% 85.68496026257155%)" />
  <rect x="240" y="365" width="30" height="30" fill="rgb(255 255 255 / 50%)" />
  <rect x="310" y="365" width="30" height="30" fill="hsl(240 100% 95.54542827007494%)" />
  <rect x="345" y="365" width="30" height="30" fill="hsl(240 100% 99.96641399492258%)" />
  <rect x="415" y="365" width="30" height="30" fill="hsl(240 100% 52.17514349074256%)" />
  <rect x="205" y="400" width="30" height="30" fill="hsl(240 100% 50%)" />
  <rect x="240" y="400" width="30" height="30" fill="hsl(240 100% 50%)" />
  <rect x="310" y="400" width="30" height="30" fill="hsl(240 100% 50%)" />
  <rect x="345" y="400" width="30" height="30" fill="hsl(240 100% 50%)" />
  <rect x="205" y="435" width="30" height="30" fill="hsl(240 100% 50%)" />
  <rect x="240" y="435" width="30" height="30" fill="hsl(240 100% 50%)" />
  <rect x="310" y="435" width="30" height="30" fill="hsl(240 100% 50%)" />
  <rect x="345" y="435" width="30" height="30" fill="hsl(240 100% 50%)" />
</svg>
