<svg xmlns="http://www.w3.org/2000/svg" viewBox="0 0 625 295">
  <rect x="0" y="0" width="625" height="295" rx="5" ry="5" fill="#222" />
  <text x="60" y="100" fill="white" font-family="sans-serif" font-weight="bold" font-size="12" text-anchor="end" dominant-baseline="middle">ba</text>
  <text x="60" y="135" fill="white" font-family="sans-serif" font-weight="bold" font-size="12" text-anchor="end" dominant-baseline="middle">gmm</text>
  <text x="60" y="170" fill="white" font-family="sans-serif" font-weight="bold" font-size="12" text-anchor="end" dominant-baseline="middle">hello</text>
  <text x="60" y="205" fill="white" font-family="sans-serif" font-weight="bold" font-size="12" text-anchor="end" dominant-baseline="middle">ht</text>
  <text x="60" y="240" fill="white" font-family="sans-serif" font-weight="bold" font-size="12" text-anchor="end" dominant-baseline="middle">kmeans</text>
  <text x="60" y="275" fill="white" font-family="sans-serif" font-weight="bold" font-size="12" text-anchor="end" dominant-baseline="middle">lstm</text>
  <text x="80" y="80" fill="white" font-family="sans-serif" font-weight="bold" font-size="12" text-anchor="end" dominant-baseline="middle" transform="rotate(90 80 80)">adept</text>
  <text x="115" y="80" fill="white" font-family="sans-serif" font-weight="bold" font-size="12" text-anchor="end" dominant-baseline="middle" transform="rotate(90 115 80)">adol-c</text>
  <text x="150" y="80" fill="white" font-family="sans-serif" font-weight="bold" font-size="12" text-anchor="end" dominant-baseline="middle" transform="rotate(90 150 80)">cppad</text>
  <text x="185" y="80" fill="white" font-family="sans-serif" font-weight="bold" font-size="12" text-anchor="end" dominant-baseline="middle" transform="rotate(90 185 80)">enzyme</text>
  <text x="220" y="80" fill="white" font-family="sans-serif" font-weight="bold" font-size="12" text-anchor="end" dominant-baseline="middle" transform="rotate(90 220 80)">finite</text>
  <text x="255" y="80" fill="white" font-family="sans-serif" font-weight="bold" font-size="12" text-anchor="end" dominant-baseline="middle" transform="rotate(90 255 80)">floretta</text>
  <text x="290" y="80" fill="white" font-family="sans-serif" font-weight="bold" font-size="12" text-anchor="end" dominant-baseline="middle" transform="rotate(90 290 80)">futhark</text>
  <text x="325" y="80" fill="white" font-family="sans-serif" font-weight="bold" font-size="12" text-anchor="end" dominant-baseline="middle" transform="rotate(90 325 80)">haskell</text>
  <text x="360" y="80" fill="white" font-family="sans-serif" font-weight="bold" font-size="12" text-anchor="end" dominant-baseline="middle" transform="rotate(90 360 80)">jax</text>
  <text x="395" y="80" fill="white" font-family="sans-serif" font-weight="bold" font-size="12" text-anchor="end" dominant-baseline="middle" transform="rotate(90 395 80)">manual</text>
  <text x="430" y="80" fill="white" font-family="sans-serif" font-weight="bold" font-size="12" text-anchor="end" dominant-baseline="middle" transform="rotate(90 430 80)">ocaml</text>
  <text x="465" y="80" fill="white" font-family="sans-serif" font-weight="bold" font-size="12" text-anchor="end" dominant-baseline="middle" transform="rotate(90 465 80)">pytorch</text>
  <text x="500" y="80" fill="white" font-family="sans-serif" font-weight="bold" font-size="12" text-anchor="end" dominant-baseline="middle" transform="rotate(90 500 80)">scilean</text>
  <text x="535" y="80" fill="white" font-family="sans-serif" font-weight="bold" font-size="12" text-anchor="end" dominant-baseline="middle" transform="rotate(90 535 80)">tapenade</text>
  <text x="570" y="80" fill="white" font-family="sans-serif" font-weight="bold" font-size="12" text-anchor="end" dominant-baseline="middle" transform="rotate(90 570 80)">tensorflow</text>
  <text x="605" y="80" fill="white" font-family="sans-serif" font-weight="bold" font-size="12" text-anchor="end" dominant-baseline="middle" transform="rotate(90 605 80)">zygote</text>
  <rect x="65" y="85" width="30" height="30" fill="hsl(240 100% 84.58667143052551%)" />
  <rect x="100" y="85" width="30" height="30" fill="hsl(240 100% 98.00576316063388%)" />
  <rect x="170" y="85" width="30" height="30" fill="hsl(240 100% 50%)" />
  <rect x="205" y="85" width="30" height="30" fill="hsl(240 100% 91.93815903956471%)" />
  <rect x="275" y="85" width="30" height="30" fill="hsl(240 100% 75.7633497307888%)" />
  <rect x="380" y="85" width="30" height="30" fill="hsl(240 100% 52.44013549172755%)" />
  <rect x="450" y="85" width="30" height="30" fill="hsl(240 100% 99.991901678716%)" />
  <rect x="520" y="85" width="30" height="30" fill="hsl(240 100% 73.88043298182338%)" />
  <rect x="555" y="85" width="30" height="30" fill="hsl(240 100% 99.98445199445736%)" />
  <rect x="65" y="120" width="30" height="30" fill="hsl(240 100% 97.05393680319989%)" />
  <rect x="100" y="120" width="30" height="30" fill="hsl(240 100% 97.53058126930172%)" />
  <rect x="135" y="120" width="30" height="30" fill="hsl(240 100% 98.30855964122121%)" />
  <rect x="170" y="120" width="30" height="30" fill="hsl(240 100% 84.65018023571687%)" />
  <rect x="205" y="120" width="30" height="30" fill="hsl(240 100% 99.9952652594227%)" />
  <rect x="275" y="120" width="30" height="30" fill="hsl(240 100% 83.44099065901752%)" />
  <rect x="345" y="120" width="30" height="30" fill="hsl(240 100% 72.52460476137671%)" />
  <rect x="380" y="120" width="30" height="30" fill="hsl(240 100% 65.33340729379677%)" />
  <rect x="415" y="120" width="30" height="30" fill="hsl(240 100% 99.40902292917845%)" />
  <rect x="450" y="120" width="30" height="30" fill="hsl(240 100% 50%)" />
  <rect x="485" y="120" width="30" height="30" fill="hsl(240 100% 93.68664633380358%)" />
  <rect x="520" y="120" width="30" height="30" fill="hsl(240 100% 68.49259591328716%)" />
  <rect x="555" y="120" width="30" height="30" fill="hsl(240 100% 86.15939626254284%)" />
  <rect x="65" y="155" width="30" height="30" fill="hsl(240 100% 50%)" />
  <rect x="100" y="155" width="30" height="30" fill="hsl(240 100% 50%)" />
  <rect x="135" y="155" width="30" height="30" fill="hsl(240 100% 50%)" />
  <rect x="170" y="155" width="30" height="30" fill="hsl(240 100% 50%)" />
  <rect x="205" y="155" width="30" height="30" fill="hsl(240 100% 50%)" />
  <rect x="240" y="155" width="30" height="30" fill="hsl(240 100% 50%)" />
  <rect x="275" y="155" width="30" height="30" fill="hsl(240 100% 50%)" />
  <rect x="310" y="155" width="30" height="30" fill="hsl(240 100% 50%)" />
  <rect x="345" y="155" width="30" height="30" fill="hsl(240 100% 50%)" />
  <rect x="380" y="155" width="30" height="30" fill="hsl(240 100% 50%)" />
  <rect x="415" y="155" width="30" height="30" fill="hsl(240 100% 50%)" />
  <rect x="450" y="155" width="30" height="30" fill="hsl(240 100% 50%)" />
  <rect x="485" y="155" width="30" height="30" fill="hsl(240 100% 50%)" />
  <rect x="520" y="155" width="30" height="30" fill="hsl(240 100% 50%)" />
  <rect x="555" y="155" width="30" height="30" fill="hsl(240 100% 50%)" />
  <rect x="590" y="155" width="30" height="30" fill="hsl(240 100% 50%)" />
  <rect x="65" y="190" width="30" height="30" fill="hsl(240 100% 97.22812772049043%)" />
  <rect x="100" y="190" width="30" height="30" fill="hsl(240 100% 98.03424762396132%)" />
  <rect x="170" y="190" width="30" height="30" fill="hsl(240 100% 95.1117721429466%)" />
  <rect x="205" y="190" width="30" height="30" fill="hsl(240 100% 99.23326609193248%)" />
  <rect x="275" y="190" width="30" height="30" fill="hsl(240 100% 94.34227853505627%)" />
  <rect x="380" y="190" width="30" height="30" fill="hsl(240 100% 50%)" />
  <rect x="450" y="190" width="30" height="30" fill="hsl(240 100% 99.96852727246858%)" />
  <rect x="520" y="190" width="30" height="30" fill="hsl(240 100% 99.4210030231244%)" />
  <rect x="555" y="190" width="30" height="30" fill="hsl(240 100% 99.49610436280071%)" />
  <rect x="100" y="225" width="30" height="30" fill="hsl(240 100% 99.87426987973535%)" />
  <rect x="170" y="225" width="30" height="30" fill="hsl(240 100% 87.9153855071417%)" />
  <rect x="275" y="225" width="30" height="30" fill="hsl(240 100% 82.85862013971638%)" />
  <rect x="310" y="225" width="30" height="30" fill="hsl(240 100% 99.9915804438751%)" />
  <rect x="345" y="225" width="30" height="30" fill="hsl(240 100% 50%)" />
  <rect x="380" y="225" width="30" height="30" fill="hsl(240 100% 76.50888648471678%)" />
  <rect x="450" y="225" width="30" height="30" fill="hsl(240 100% 85.16480406478077%)" />
  <rect x="65" y="260" width="30" height="30" fill="hsl(240 100% 68.01541650645754%)" />
  <rect x="100" y="260" width="30" height="30" fill="hsl(240 100% 80.78637365155834%)" />
  <rect x="135" y="260" width="30" height="30" fill="hsl(240 100% 88.4895648178281%)" />
  <rect x="170" y="260" width="30" height="30" fill="hsl(240 100% 50%)" />
  <rect x="205" y="260" width="30" height="30" fill="hsl(240 100% 99.79665221061552%)" />
  <rect x="275" y="260" width="30" height="30" fill="hsl(240 100% 62.61781481753113%)" />
  <rect x="380" y="260" width="30" height="30" fill="hsl(240 100% 78.36238813498599%)" />
  <rect x="450" y="260" width="30" height="30" fill="hsl(240 100% 99.65597195486708%)" />
  <rect x="520" y="260" width="30" height="30" fill="hsl(240 100% 59.22719221587685%)" />
  <rect x="555" y="260" width="30" height="30" fill="hsl(240 100% 98.03631178270804%)" />
</svg>
