<svg xmlns="http://www.w3.org/2000/svg" viewBox="0 0 870 505">
  <rect x="0" y="0" width="870" height="505" rx="5" ry="5" fill="#222" />
  <text x="60" y="100" fill="white" font-family="sans-serif" font-weight="bold" font-size="12" text-anchor="end" dominant-baseline="middle">ba</text>
  <text x="60" y="135" fill="white" font-family="sans-serif" font-weight="bold" font-size="12" text-anchor="end" dominant-baseline="middle">det</text>
  <text x="60" y="170" fill="white" font-family="sans-serif" font-weight="bold" font-size="12" text-anchor="end" dominant-baseline="middle">gmm</text>
  <text x="60" y="205" fill="white" font-family="sans-serif" font-weight="bold" font-size="12" text-anchor="end" dominant-baseline="middle">hello</text>
  <text x="60" y="240" fill="white" font-family="sans-serif" font-weight="bold" font-size="12" text-anchor="end" dominant-baseline="middle">ht</text>
  <text x="60" y="275" fill="white" font-family="sans-serif" font-weight="bold" font-size="12" text-anchor="end" dominant-baseline="middle">kmeans</text>
  <text x="60" y="310" fill="white" font-family="sans-serif" font-weight="bold" font-size="12" text-anchor="end" dominant-baseline="middle">llsq</text>
  <text x="60" y="345" fill="white" font-family="sans-serif" font-weight="bold" font-size="12" text-anchor="end" dominant-baseline="middle">lse</text>
  <text x="60" y="380" fill="white" font-family="sans-serif" font-weight="bold" font-size="12" text-anchor="end" dominant-baseline="middle">lstm</text>
  <text x="60" y="415" fill="white" font-family="sans-serif" font-weight="bold" font-size="12" text-anchor="end" dominant-baseline="middle">ode</text>
  <text x="60" y="450" fill="white" font-family="sans-serif" font-weight="bold" font-size="12" text-anchor="end" dominant-baseline="middle">particle</text>
  <text x="60" y="485" fill="white" font-family="sans-serif" font-weight="bold" font-size="12" text-anchor="end" dominant-baseline="middle">saddle</text>
  <text x="80" y="80" fill="white" font-family="sans-serif" font-weight="bold" font-size="12" text-anchor="end" dominant-baseline="middle" transform="rotate(90 80 80)">ad-hpp</text>
  <text x="115" y="80" fill="white" font-family="sans-serif" font-weight="bold" font-size="12" text-anchor="end" dominant-baseline="middle" transform="rotate(90 115 80)">adept</text>
  <text x="150" y="80" fill="white" font-family="sans-serif" font-weight="bold" font-size="12" text-anchor="end" dominant-baseline="middle" transform="rotate(90 150 80)">adol-c</text>
  <text x="185" y="80" fill="white" font-family="sans-serif" font-weight="bold" font-size="12" text-anchor="end" dominant-baseline="middle" transform="rotate(90 185 80)">codipack</text>
  <text x="220" y="80" fill="white" font-family="sans-serif" font-weight="bold" font-size="12" text-anchor="end" dominant-baseline="middle" transform="rotate(90 220 80)">cppad</text>
  <text x="255" y="80" fill="white" font-family="sans-serif" font-weight="bold" font-size="12" text-anchor="end" dominant-baseline="middle" transform="rotate(90 255 80)">enzyme</text>
  <text x="290" y="80" fill="white" font-family="sans-serif" font-weight="bold" font-size="12" text-anchor="end" dominant-baseline="middle" transform="rotate(90 290 80)">enzyme-jl</text>
  <text x="325" y="80" fill="white" font-family="sans-serif" font-weight="bold" font-size="12" text-anchor="end" dominant-baseline="middle" transform="rotate(90 325 80)">finite</text>
  <text x="360" y="80" fill="white" font-family="sans-serif" font-weight="bold" font-size="12" text-anchor="end" dominant-baseline="middle" transform="rotate(90 360 80)">floretta</text>
  <text x="395" y="80" fill="white" font-family="sans-serif" font-weight="bold" font-size="12" text-anchor="end" dominant-baseline="middle" transform="rotate(90 395 80)">forwarddiff-jl</text>
  <text x="430" y="80" fill="white" font-family="sans-serif" font-weight="bold" font-size="12" text-anchor="end" dominant-baseline="middle" transform="rotate(90 430 80)">futhark</text>
  <text x="465" y="80" fill="white" font-family="sans-serif" font-weight="bold" font-size="12" text-anchor="end" dominant-baseline="middle" transform="rotate(90 465 80)">haskell</text>
  <text x="500" y="80" fill="white" font-family="sans-serif" font-weight="bold" font-size="12" text-anchor="end" dominant-baseline="middle" transform="rotate(90 500 80)">jax</text>
  <text x="535" y="80" fill="white" font-family="sans-serif" font-weight="bold" font-size="12" text-anchor="end" dominant-baseline="middle" transform="rotate(90 535 80)">manual</text>
  <text x="570" y="80" fill="white" font-family="sans-serif" font-weight="bold" font-size="12" text-anchor="end" dominant-baseline="middle" transform="rotate(90 570 80)">mooncake-jl</text>
  <text x="605" y="80" fill="white" font-family="sans-serif" font-weight="bold" font-size="12" text-anchor="end" dominant-baseline="middle" transform="rotate(90 605 80)">ocaml</text>
  <text x="640" y="80" fill="white" font-family="sans-serif" font-weight="bold" font-size="12" text-anchor="end" dominant-baseline="middle" transform="rotate(90 640 80)">pytorch</text>
  <text x="675" y="80" fill="white" font-family="sans-serif" font-weight="bold" font-size="12" text-anchor="end" dominant-baseline="middle" transform="rotate(90 675 80)">reversediff-jl</text>
  <text x="710" y="80" fill="white" font-family="sans-serif" font-weight="bold" font-size="12" text-anchor="end" dominant-baseline="middle" transform="rotate(90 710 80)">scilean</text>
  <text x="745" y="80" fill="white" font-family="sans-serif" font-weight="bold" font-size="12" text-anchor="end" dominant-baseline="middle" transform="rotate(90 745 80)">tapenade</text>
  <text x="780" y="80" fill="white" font-family="sans-serif" font-weight="bold" font-size="12" text-anchor="end" dominant-baseline="middle" transform="rotate(90 780 80)">tensorflow</text>
  <text x="815" y="80" fill="white" font-family="sans-serif" font-weight="bold" font-size="12" text-anchor="end" dominant-baseline="middle" transform="rotate(90 815 80)">tensorflow-js</text>
  <text x="850" y="80" fill="white" font-family="sans-serif" font-weight="bold" font-size="12" text-anchor="end" dominant-baseline="middle" transform="rotate(90 850 80)">zygote</text>
  <rect x="65" y="85" width="30" height="30" fill="hsl(240 100% 80.69976228562535%)" />
  <rect x="100" y="85" width="30" height="30" fill="hsl(240 100% 82.45004288533147%)" />
  <rect x="135" y="85" width="30" height="30" fill="hsl(240 100% 97.91821856983496%)" />
  <rect x="170" y="85" width="30" height="30" fill="hsl(240 100% 81.63148833470218%)" />
  <rect x="205" y="85" width="30" height="30" fill="hsl(240 100% 98.95313815109914%)" />
  <rect x="240" y="85" width="30" height="30" fill="hsl(240 100% 50%)" />
  <rect x="310" y="85" width="30" height="30" fill="hsl(240 100% 92.88059335217379%)" />
  <rect x="415" y="85" width="30" height="30" fill="hsl(240 100% 67.2570119158559%)" />
  <rect x="520" y="85" width="30" height="30" fill="hsl(240 100% 54.06178369970334%)" />
  <rect x="625" y="85" width="30" height="30" fill="rgb(255 255 255 / 50%)" />
  <rect x="730" y="85" width="30" height="30" fill="hsl(240 100% 74.02613780466068%)" />
  <rect x="765" y="85" width="30" height="30" fill="rgb(255 255 255 / 50%)" />
  <rect x="835" y="85" width="30" height="30" fill="hsl(240 100% 99.73042328923012%)" />
  <rect x="65" y="120" width="30" height="30" fill="hsl(240 100% 50%)" />
  <rect x="100" y="120" width="30" height="30" fill="hsl(240 100% 84.51317428475556%)" />
  <rect x="135" y="120" width="30" height="30" fill="hsl(240 100% 85.34931049687381%)" />
  <rect x="170" y="120" width="30" height="30" fill="hsl(240 100% 52.290439467404084%)" />
  <rect x="205" y="120" width="30" height="30" fill="hsl(240 100% 92.66405254337997%)" />
  <rect x="240" y="120" width="30" height="30" fill="hsl(240 100% 91.7808659983029%)" />
  <rect x="275" y="120" width="30" height="30" fill="hsl(240 100% 99.37167075697457%)" />
  <rect x="310" y="120" width="30" height="30" fill="hsl(240 100% 98.99129457719052%)" />
  <rect x="380" y="120" width="30" height="30" fill="hsl(240 100% 93.3926612527289%)" />
  <rect x="415" y="120" width="30" height="30" fill="hsl(240 100% 94.58924975923206%)" />
  <rect x="450" y="120" width="30" height="30" fill="hsl(240 100% 97.8747904089504%)" />
  <rect x="520" y="120" width="30" height="30" fill="hsl(240 100% 79.51604372380889%)" />
  <rect x="555" y="120" width="30" height="30" fill="hsl(240 100% 90.30725314127373%)" />
  <rect x="660" y="120" width="30" height="30" fill="rgb(255 255 255 / 50%)" />
  <rect x="835" y="120" width="30" height="30" fill="rgb(255 255 255 / 50%)" />
  <rect x="65" y="155" width="30" height="30" fill="hsl(240 100% 98.40965317700456%)" />
  <rect x="100" y="155" width="30" height="30" fill="hsl(240 100% 98.82234397757429%)" />
  <rect x="135" y="155" width="30" height="30" fill="hsl(240 100% 99.15327068115883%)" />
  <rect x="170" y="155" width="30" height="30" fill="hsl(240 100% 98.0430412379187%)" />
  <rect x="205" y="155" width="30" height="30" fill="hsl(240 100% 99.84743093958168%)" />
  <rect x="240" y="155" width="30" height="30" fill="hsl(240 100% 91.11164295342482%)" />
  <rect x="275" y="155" width="30" height="30" fill="hsl(240 100% 92.85856420254001%)" />
  <rect x="310" y="155" width="30" height="30" fill="rgb(255 255 255 / 50%)" />
  <rect x="415" y="155" width="30" height="30" fill="hsl(240 100% 92.87027062223903%)" />
  <rect x="485" y="155" width="30" height="30" fill="hsl(240 100% 50%)" />
  <rect x="520" y="155" width="30" height="30" fill="hsl(240 100% 81.30769761431347%)" />
  <rect x="590" y="155" width="30" height="30" fill="hsl(240 100% 99.57731610733487%)" />
  <rect x="625" y="155" width="30" height="30" fill="hsl(240 100% 67.85877428235234%)" />
  <rect x="695" y="155" width="30" height="30" fill="hsl(240 100% 95.38542784548358%)" />
  <rect x="730" y="155" width="30" height="30" fill="hsl(240 100% 83.48021414747366%)" />
  <rect x="765" y="155" width="30" height="30" fill="hsl(240 100% 99.58260064054437%)" />
  <rect x="835" y="155" width="30" height="30" fill="hsl(240 100% 96.21389103587386%)" />
  <rect x="65" y="190" width="30" height="30" fill="hsl(240 100% 50%)" />
  <rect x="100" y="190" width="30" height="30" fill="hsl(240 100% 50%)" />
  <rect x="135" y="190" width="30" height="30" fill="hsl(240 100% 50%)" />
  <rect x="170" y="190" width="30" height="30" fill="hsl(240 100% 50%)" />
  <rect x="205" y="190" width="30" height="30" fill="hsl(240 100% 50%)" />
  <rect x="240" y="190" width="30" height="30" fill="hsl(240 100% 50%)" />
  <rect x="275" y="190" width="30" height="30" fill="hsl(240 100% 50%)" />
  <rect x="310" y="190" width="30" height="30" fill="hsl(240 100% 50%)" />
  <rect x="345" y="190" width="30" height="30" fill="hsl(240 100% 50%)" />
  <rect x="380" y="190" width="30" height="30" fill="hsl(240 100% 50%)" />
  <rect x="415" y="190" width="30" height="30" fill="hsl(240 100% 50%)" />
  <rect x="450" y="190" width="30" height="30" fill="hsl(240 100% 50%)" />
  <rect x="485" y="190" width="30" height="30" fill="hsl(240 100% 50%)" />
  <rect x="520" y="190" width="30" height="30" fill="hsl(240 100% 50%)" />
  <rect x="555" y="190" width="30" height="30" fill="hsl(240 100% 50%)" />
  <rect x="590" y="190" width="30" height="30" fill="hsl(240 100% 50%)" />
  <rect x="625" y="190" width="30" height="30" fill="hsl(240 100% 50%)" />
  <rect x="660" y="190" width="30" height="30" fill="hsl(240 100% 50%)" />
  <rect x="695" y="190" width="30" height="30" fill="hsl(240 100% 50%)" />
  <rect x="730" y="190" width="30" height="30" fill="hsl(240 100% 50%)" />
  <rect x="765" y="190" width="30" height="30" fill="hsl(240 100% 50%)" />
  <rect x="800" y="190" width="30" height="30" fill="hsl(240 100% 50%)" />
  <rect x="835" y="190" width="30" height="30" fill="hsl(240 100% 50%)" />
  <rect x="100" y="225" width="30" height="30" fill="hsl(240 100% 96.33245387593993%)" />
  <rect x="135" y="225" width="30" height="30" fill="hsl(240 100% 87.49193828094171%)" />
  <rect x="170" y="225" width="30" height="30" fill="hsl(240 100% 88.06218930285822%)" />
  <rect x="240" y="225" width="30" height="30" fill="hsl(240 100% 90.4123930645884%)" />
  <rect x="310" y="225" width="30" height="30" fill="rgb(255 255 255 / 50%)" />
  <rect x="415" y="225" width="30" height="30" fill="hsl(240 100% 89.56071731379713%)" />
  <rect x="520" y="225" width="30" height="30" fill="hsl(240 100% 50%)" />
  <rect x="625" y="225" width="30" height="30" fill="rgb(255 255 255 / 50%)" />
  <rect x="730" y="225" width="30" height="30" fill="hsl(240 100% 92.50187006659012%)" />
  <rect x="765" y="225" width="30" height="30" fill="rgb(255 255 255 / 50%)" />
  <rect x="835" y="225" width="30" height="30" fill="hsl(240 100% 93.82306357005552%)" />
  <rect x="65" y="260" width="30" height="30" fill="hsl(240 100% 99.79337981284499%)" />
  <rect x="135" y="260" width="30" height="30" fill="hsl(240 100% 99.86094412550902%)" />
  <rect x="170" y="260" width="30" height="30" fill="hsl(240 100% 98.93396087896602%)" />
  <rect x="205" y="260" width="30" height="30" fill="rgb(255 255 255 / 50%)" />
  <rect x="240" y="260" width="30" height="30" fill="hsl(240 100% 87.13129471189687%)" />
  <rect x="310" y="260" width="30" height="30" fill="rgb(255 255 255 / 50%)" />
  <rect x="415" y="260" width="30" height="30" fill="hsl(240 100% 81.14144001126729%)" />
  <rect x="450" y="260" width="30" height="30" fill="rgb(255 255 255 / 50%)" />
  <rect x="485" y="260" width="30" height="30" fill="hsl(240 100% 50%)" />
  <rect x="520" y="260" width="30" height="30" fill="hsl(240 100% 72.53954276996976%)" />
  <rect x="625" y="260" width="30" height="30" fill="hsl(240 100% 97.14046687684807%)" />
  <rect x="695" y="260" width="30" height="30" fill="hsl(240 100% 94.1665450854258%)" />
  <rect x="65" y="295" width="30" height="30" fill="hsl(240 100% 85.99111609253364%)" />
  <rect x="100" y="295" width="30" height="30" fill="hsl(240 100% 97.41932054418339%)" />
  <rect x="135" y="295" width="30" height="30" fill="hsl(240 100% 95.05769473792884%)" />
  <rect x="170" y="295" width="30" height="30" fill="hsl(240 100% 89.21130171946042%)" />
  <rect x="205" y="295" width="30" height="30" fill="hsl(240 100% 99.47904528695447%)" />
  <rect x="240" y="295" width="30" height="30" fill="hsl(240 100% 50%)" />
  <rect x="275" y="295" width="30" height="30" fill="hsl(240 100% 50.26688188629114%)" />
  <rect x="310" y="295" width="30" height="30" fill="hsl(240 100% 99.49329054923443%)" />
  <rect x="345" y="295" width="30" height="30" fill="hsl(240 100% 94.70066244183401%)" />
  <rect x="415" y="295" width="30" height="30" fill="hsl(240 100% 54.69814844330841%)" />
  <rect x="450" y="295" width="30" height="30" fill="hsl(240 100% 99.29903343721473%)" />
  <rect x="485" y="295" width="30" height="30" fill="hsl(240 100% 87.92829523535791%)" />
  <rect x="520" y="295" width="30" height="30" fill="hsl(240 100% 57.336720687258776%)" />
  <rect x="695" y="295" width="30" height="30" fill="hsl(240 100% 97.58048313417986%)" />
  <rect x="800" y="295" width="30" height="30" fill="hsl(240 100% 99.56779274906023%)" />
  <rect x="835" y="295" width="30" height="30" fill="hsl(240 100% 99.95575846795575%)" />
  <rect x="65" y="330" width="30" height="30" fill="hsl(240 100% 86.39048070738751%)" />
  <rect x="100" y="330" width="30" height="30" fill="hsl(240 100% 93.74519957410752%)" />
  <rect x="135" y="330" width="30" height="30" fill="hsl(240 100% 96.8067022938647%)" />
  <rect x="170" y="330" width="30" height="30" fill="hsl(240 100% 86.16090091414603%)" />
  <rect x="205" y="330" width="30" height="30" fill="hsl(240 100% 99.15276555042131%)" />
  <rect x="240" y="330" width="30" height="30" fill="hsl(240 100% 78.49566287079277%)" />
  <rect x="275" y="330" width="30" height="30" fill="hsl(240 100% 88.05143535570907%)" />
  <rect x="310" y="330" width="30" height="30" fill="rgb(255 255 255 / 50%)" />
  <rect x="345" y="330" width="30" height="30" fill="hsl(240 100% 97.04534623728344%)" />
  <rect x="415" y="330" width="30" height="30" fill="hsl(240 100% 84.65928372618247%)" />
  <rect x="450" y="330" width="30" height="30" fill="hsl(240 100% 99.79482461335726%)" />
  <rect x="485" y="330" width="30" height="30" fill="hsl(240 100% 70.51115750873376%)" />
  <rect x="520" y="330" width="30" height="30" fill="hsl(240 100% 68.63752878382057%)" />
  <rect x="590" y="330" width="30" height="30" fill="hsl(240 100% 93.36595481677236%)" />
  <rect x="625" y="330" width="30" height="30" fill="hsl(240 100% 50%)" />
  <rect x="765" y="330" width="30" height="30" fill="hsl(240 100% 93.9945992219474%)" />
  <rect x="800" y="330" width="30" height="30" fill="hsl(240 100% 99.16274426727281%)" />
  <rect x="835" y="330" width="30" height="30" fill="hsl(240 100% 79.16746386865302%)" />
  <rect x="65" y="365" width="30" height="30" fill="hsl(240 100% 57.178822021870886%)" />
  <rect x="100" y="365" width="30" height="30" fill="hsl(240 100% 71.1882984624289%)" />
  <rect x="135" y="365" width="30" height="30" fill="hsl(240 100% 81.86587665009301%)" />
  <rect x="170" y="365" width="30" height="30" fill="hsl(240 100% 50%)" />
  <rect x="205" y="365" width="30" height="30" fill="hsl(240 100% 96.00786610224792%)" />
  <rect x="240" y="365" width="30" height="30" fill="hsl(240 100% 59.48730113201426%)" />
  <rect x="275" y="365" width="30" height="30" fill="hsl(240 100% 92.69146210574107%)" />
  <rect x="310" y="365" width="30" height="30" fill="hsl(240 100% 99.8613049145131%)" />
  <rect x="415" y="365" width="30" height="30" fill="hsl(240 100% 66.41583494254692%)" />
  <rect x="520" y="365" width="30" height="30" fill="hsl(240 100% 86.03221280450266%)" />
  <rect x="625" y="365" width="30" height="30" fill="hsl(240 100% 99.64462355588525%)" />
  <rect x="730" y="365" width="30" height="30" fill="hsl(240 100% 63.57709443636898%)" />
  <rect x="765" y="365" width="30" height="30" fill="hsl(240 100% 98.15321095986334%)" />
  <rect x="835" y="365" width="30" height="30" fill="hsl(240 100% 98.74613762113916%)" />
  <rect x="65" y="400" width="30" height="30" fill="hsl(240 100% 97.68364788092126%)" />
  <rect x="100" y="400" width="30" height="30" fill="hsl(240 100% 99.29847806457177%)" />
  <rect x="135" y="400" width="30" height="30" fill="hsl(240 100% 99.57906803953996%)" />
  <rect x="170" y="400" width="30" height="30" fill="hsl(240 100% 92.65474081054262%)" />
  <rect x="205" y="400" width="30" height="30" fill="hsl(240 100% 99.04993777756476%)" />
  <rect x="240" y="400" width="30" height="30" fill="hsl(240 100% 82.22087815311713%)" />
  <rect x="275" y="400" width="30" height="30" fill="hsl(240 100% 94.23658692972995%)" />
  <rect x="310" y="400" width="30" height="30" fill="rgb(255 255 255 / 50%)" />
  <rect x="380" y="400" width="30" height="30" fill="rgb(255 255 255 / 50%)" />
  <rect x="415" y="400" width="30" height="30" fill="hsl(240 100% 92.58600650419936%)" />
  <rect x="450" y="400" width="30" height="30" fill="hsl(240 100% 99.96268938152669%)" />
  <rect x="485" y="400" width="30" height="30" fill="hsl(240 100% 73.48437408710862%)" />
  <rect x="520" y="400" width="30" height="30" fill="hsl(240 100% 50%)" />
  <rect x="555" y="400" width="30" height="30" fill="hsl(240 100% 98.89147316206684%)" />
  <rect x="660" y="400" width="30" height="30" fill="rgb(255 255 255 / 50%)" />
  <rect x="835" y="400" width="30" height="30" fill="hsl(240 100% 99.02746057248339%)" />
  <rect x="65" y="435" width="30" height="30" fill="hsl(240 100% 93.34679421515374%)" />
  <rect x="240" y="435" width="30" height="30" fill="hsl(240 100% 50%)" />
  <rect x="310" y="435" width="30" height="30" fill="hsl(240 100% 93.8515692140277%)" />
  <rect x="415" y="435" width="30" height="30" fill="hsl(240 100% 86.98550469330526%)" />
  <rect x="450" y="435" width="30" height="30" fill="hsl(240 100% 99.76958836349684%)" />
  <rect x="65" y="470" width="30" height="30" fill="hsl(240 100% 50.12402979761155%)" />
  <rect x="240" y="470" width="30" height="30" fill="hsl(240 100% 50%)" />
  <rect x="310" y="470" width="30" height="30" fill="hsl(240 100% 96.9702807960508%)" />
  <rect x="415" y="470" width="30" height="30" fill="hsl(240 100% 89.0462427584546%)" />
  <rect x="450" y="470" width="30" height="30" fill="hsl(240 100% 99.56621167685306%)" />
</svg>
