<svg xmlns="http://www.w3.org/2000/svg" viewBox="0 0 870 505">
  <rect x="0" y="0" width="870" height="505" rx="5" ry="5" fill="#222" />
  <text x="60" y="100" fill="white" font-family="sans-serif" font-weight="bold" font-size="12" text-anchor="end" dominant-baseline="middle">ba</text>
  <text x="60" y="135" fill="white" font-family="sans-serif" font-weight="bold" font-size="12" text-anchor="end" dominant-baseline="middle">det</text>
  <text x="60" y="170" fill="white" font-family="sans-serif" font-weight="bold" font-size="12" text-anchor="end" dominant-baseline="middle">gmm</text>
  <text x="60" y="205" fill="white" font-family="sans-serif" font-weight="bold" font-size="12" text-anchor="end" dominant-baseline="middle">hello</text>
  <text x="60" y="240" fill="white" font-family="sans-serif" font-weight="bold" font-size="12" text-anchor="end" dominant-baseline="middle">ht</text>
  <text x="60" y="275" fill="white" font-family="sans-serif" font-weight="bold" font-size="12" text-anchor="end" dominant-baseline="middle">kmeans</text>
  <text x="60" y="310" fill="white" font-family="sans-serif" font-weight="bold" font-size="12" text-anchor="end" dominant-baseline="middle">llsq</text>
  <text x="60" y="345" fill="white" font-family="sans-serif" font-weight="bold" font-size="12" text-anchor="end" dominant-baseline="middle">lse</text>
  <text x="60" y="380" fill="white" font-family="sans-serif" font-weight="bold" font-size="12" text-anchor="end" dominant-baseline="middle">lstm</text>
  <text x="60" y="415" fill="white" font-family="sans-serif" font-weight="bold" font-size="12" text-anchor="end" dominant-baseline="middle">ode</text>
  <text x="60" y="450" fill="white" font-family="sans-serif" font-weight="bold" font-size="12" text-anchor="end" dominant-baseline="middle">particle</text>
  <text x="60" y="485" fill="white" font-family="sans-serif" font-weight="bold" font-size="12" text-anchor="end" dominant-baseline="middle">saddle</text>
  <text x="80" y="80" fill="white" font-family="sans-serif" font-weight="bold" font-size="12" text-anchor="end" dominant-baseline="middle" transform="rotate(90 80 80)">ad-hpp</text>
  <text x="115" y="80" fill="white" font-family="sans-serif" font-weight="bold" font-size="12" text-anchor="end" dominant-baseline="middle" transform="rotate(90 115 80)">adept</text>
  <text x="150" y="80" fill="white" font-family="sans-serif" font-weight="bold" font-size="12" text-anchor="end" dominant-baseline="middle" transform="rotate(90 150 80)">adol-c</text>
  <text x="185" y="80" fill="white" font-family="sans-serif" font-weight="bold" font-size="12" text-anchor="end" dominant-baseline="middle" transform="rotate(90 185 80)">codipack</text>
  <text x="220" y="80" fill="white" font-family="sans-serif" font-weight="bold" font-size="12" text-anchor="end" dominant-baseline="middle" transform="rotate(90 220 80)">cppad</text>
  <text x="255" y="80" fill="white" font-family="sans-serif" font-weight="bold" font-size="12" text-anchor="end" dominant-baseline="middle" transform="rotate(90 255 80)">enzyme</text>
  <text x="290" y="80" fill="white" font-family="sans-serif" font-weight="bold" font-size="12" text-anchor="end" dominant-baseline="middle" transform="rotate(90 290 80)">enzyme-jl</text>
  <text x="325" y="80" fill="white" font-family="sans-serif" font-weight="bold" font-size="12" text-anchor="end" dominant-baseline="middle" transform="rotate(90 325 80)">finite</text>
  <text x="360" y="80" fill="white" font-family="sans-serif" font-weight="bold" font-size="12" text-anchor="end" dominant-baseline="middle" transform="rotate(90 360 80)">floretta</text>
  <text x="395" y="80" fill="white" font-family="sans-serif" font-weight="bold" font-size="12" text-anchor="end" dominant-baseline="middle" transform="rotate(90 395 80)">forwarddiff-jl</text>
  <text x="430" y="80" fill="white" font-family="sans-serif" font-weight="bold" font-size="12" text-anchor="end" dominant-baseline="middle" transform="rotate(90 430 80)">futhark</text>
  <text x="465" y="80" fill="white" font-family="sans-serif" font-weight="bold" font-size="12" text-anchor="end" dominant-baseline="middle" transform="rotate(90 465 80)">haskell</text>
  <text x="500" y="80" fill="white" font-family="sans-serif" font-weight="bold" font-size="12" text-anchor="end" dominant-baseline="middle" transform="rotate(90 500 80)">jax</text>
  <text x="535" y="80" fill="white" font-family="sans-serif" font-weight="bold" font-size="12" text-anchor="end" dominant-baseline="middle" transform="rotate(90 535 80)">manual</text>
  <text x="570" y="80" fill="white" font-family="sans-serif" font-weight="bold" font-size="12" text-anchor="end" dominant-baseline="middle" transform="rotate(90 570 80)">mooncake-jl</text>
  <text x="605" y="80" fill="white" font-family="sans-serif" font-weight="bold" font-size="12" text-anchor="end" dominant-baseline="middle" transform="rotate(90 605 80)">ocaml</text>
  <text x="640" y="80" fill="white" font-family="sans-serif" font-weight="bold" font-size="12" text-anchor="end" dominant-baseline="middle" transform="rotate(90 640 80)">pytorch</text>
  <text x="675" y="80" fill="white" font-family="sans-serif" font-weight="bold" font-size="12" text-anchor="end" dominant-baseline="middle" transform="rotate(90 675 80)">reversediff-jl</text>
  <text x="710" y="80" fill="white" font-family="sans-serif" font-weight="bold" font-size="12" text-anchor="end" dominant-baseline="middle" transform="rotate(90 710 80)">scilean</text>
  <text x="745" y="80" fill="white" font-family="sans-serif" font-weight="bold" font-size="12" text-anchor="end" dominant-baseline="middle" transform="rotate(90 745 80)">tapenade</text>
  <text x="780" y="80" fill="white" font-family="sans-serif" font-weight="bold" font-size="12" text-anchor="end" dominant-baseline="middle" transform="rotate(90 780 80)">tensorflow</text>
  <text x="815" y="80" fill="white" font-family="sans-serif" font-weight="bold" font-size="12" text-anchor="end" dominant-baseline="middle" transform="rotate(90 815 80)">tensorflow-js</text>
  <text x="850" y="80" fill="white" font-family="sans-serif" font-weight="bold" font-size="12" text-anchor="end" dominant-baseline="middle" transform="rotate(90 850 80)">zygote</text>
  <rect x="65" y="85" width="30" height="30" fill="hsl(240 100% 80.72214014934741%)" />
  <rect x="100" y="85" width="30" height="30" fill="hsl(240 100% 81.2341769022116%)" />
  <rect x="135" y="85" width="30" height="30" fill="hsl(240 100% 97.90168755646486%)" />
  <rect x="170" y="85" width="30" height="30" fill="hsl(240 100% 81.72423706318256%)" />
  <rect x="205" y="85" width="30" height="30" fill="hsl(240 100% 98.9488929998587%)" />
  <rect x="240" y="85" width="30" height="30" fill="hsl(240 100% 50%)" />
  <rect x="310" y="85" width="30" height="30" fill="hsl(240 100% 92.89266182804361%)" />
  <rect x="415" y="85" width="30" height="30" fill="hsl(240 100% 69.93825436993932%)" />
  <rect x="520" y="85" width="30" height="30" fill="hsl(240 100% 54.06716998103004%)" />
  <rect x="625" y="85" width="30" height="30" fill="rgb(255 255 255 / 50%)" />
  <rect x="730" y="85" width="30" height="30" fill="hsl(240 100% 73.99437103822814%)" />
  <rect x="765" y="85" width="30" height="30" fill="rgb(255 255 255 / 50%)" />
  <rect x="835" y="85" width="30" height="30" fill="hsl(240 100% 99.71823256313326%)" />
  <rect x="65" y="120" width="30" height="30" fill="hsl(240 100% 50%)" />
  <rect x="100" y="120" width="30" height="30" fill="hsl(240 100% 84.75785506901519%)" />
  <rect x="135" y="120" width="30" height="30" fill="hsl(240 100% 85.61904480961319%)" />
  <rect x="170" y="120" width="30" height="30" fill="hsl(240 100% 52.49329635238663%)" />
  <rect x="205" y="120" width="30" height="30" fill="hsl(240 100% 92.86226476454054%)" />
  <rect x="240" y="120" width="30" height="30" fill="hsl(240 100% 91.70227228837824%)" />
  <rect x="275" y="120" width="30" height="30" fill="hsl(240 100% 99.37810113728801%)" />
  <rect x="310" y="120" width="30" height="30" fill="hsl(240 100% 99.00092864027768%)" />
  <rect x="380" y="120" width="30" height="30" fill="hsl(240 100% 93.37742835005817%)" />
  <rect x="415" y="120" width="30" height="30" fill="hsl(240 100% 94.65737022580244%)" />
  <rect x="450" y="120" width="30" height="30" fill="hsl(240 100% 97.8575487118614%)" />
  <rect x="520" y="120" width="30" height="30" fill="hsl(240 100% 79.72412566012491%)" />
  <rect x="555" y="120" width="30" height="30" fill="hsl(240 100% 91.03982919440384%)" />
  <rect x="660" y="120" width="30" height="30" fill="rgb(255 255 255 / 50%)" />
  <rect x="835" y="120" width="30" height="30" fill="rgb(255 255 255 / 50%)" />
  <rect x="65" y="155" width="30" height="30" fill="hsl(240 100% 97.69446767006032%)" />
  <rect x="100" y="155" width="30" height="30" fill="hsl(240 100% 98.68128376429647%)" />
  <rect x="135" y="155" width="30" height="30" fill="hsl(240 100% 99.09803897145385%)" />
  <rect x="170" y="155" width="30" height="30" fill="hsl(240 100% 97.72689081681426%)" />
  <rect x="205" y="155" width="30" height="30" fill="hsl(240 100% 99.77024618152171%)" />
  <rect x="240" y="155" width="30" height="30" fill="hsl(240 100% 89.36840258305111%)" />
  <rect x="275" y="155" width="30" height="30" fill="hsl(240 100% 92.06732921951138%)" />
  <rect x="310" y="155" width="30" height="30" fill="rgb(255 255 255 / 50%)" />
  <rect x="415" y="155" width="30" height="30" fill="hsl(240 100% 91.53888412813532%)" />
  <rect x="485" y="155" width="30" height="30" fill="hsl(240 100% 50%)" />
  <rect x="520" y="155" width="30" height="30" fill="hsl(240 100% 77.4230767594497%)" />
  <rect x="590" y="155" width="30" height="30" fill="hsl(240 100% 99.47903917541502%)" />
  <rect x="625" y="155" width="30" height="30" fill="hsl(240 100% 61.57725222502249%)" />
  <rect x="695" y="155" width="30" height="30" fill="hsl(240 100% 94.53946964220107%)" />
  <rect x="730" y="155" width="30" height="30" fill="hsl(240 100% 80.60588733889433%)" />
  <rect x="765" y="155" width="30" height="30" fill="hsl(240 100% 99.52103128798245%)" />
  <rect x="835" y="155" width="30" height="30" fill="hsl(240 100% 95.8931696639034%)" />
  <rect x="65" y="190" width="30" height="30" fill="hsl(240 100% 50%)" />
  <rect x="100" y="190" width="30" height="30" fill="hsl(240 100% 50%)" />
  <rect x="135" y="190" width="30" height="30" fill="hsl(240 100% 50%)" />
  <rect x="170" y="190" width="30" height="30" fill="hsl(240 100% 50%)" />
  <rect x="205" y="190" width="30" height="30" fill="hsl(240 100% 50%)" />
  <rect x="240" y="190" width="30" height="30" fill="hsl(240 100% 50%)" />
  <rect x="275" y="190" width="30" height="30" fill="hsl(240 100% 50%)" />
  <rect x="310" y="190" width="30" height="30" fill="hsl(240 100% 50%)" />
  <rect x="345" y="190" width="30" height="30" fill="hsl(240 100% 50%)" />
  <rect x="380" y="190" width="30" height="30" fill="hsl(240 100% 50%)" />
  <rect x="415" y="190" width="30" height="30" fill="hsl(240 100% 50%)" />
  <rect x="450" y="190" width="30" height="30" fill="hsl(240 100% 50%)" />
  <rect x="485" y="190" width="30" height="30" fill="hsl(240 100% 50%)" />
  <rect x="520" y="190" width="30" height="30" fill="hsl(240 100% 50%)" />
  <rect x="555" y="190" width="30" height="30" fill="hsl(240 100% 50%)" />
  <rect x="590" y="190" width="30" height="30" fill="hsl(240 100% 50%)" />
  <rect x="625" y="190" width="30" height="30" fill="hsl(240 100% 50%)" />
  <rect x="660" y="190" width="30" height="30" fill="hsl(240 100% 50%)" />
  <rect x="695" y="190" width="30" height="30" fill="hsl(240 100% 50%)" />
  <rect x="730" y="190" width="30" height="30" fill="hsl(240 100% 50%)" />
  <rect x="765" y="190" width="30" height="30" fill="hsl(240 100% 50%)" />
  <rect x="800" y="190" width="30" height="30" fill="hsl(240 100% 50%)" />
  <rect x="835" y="190" width="30" height="30" fill="hsl(240 100% 50%)" />
  <rect x="100" y="225" width="30" height="30" fill="hsl(240 100% 96.27867843841953%)" />
  <rect x="135" y="225" width="30" height="30" fill="hsl(240 100% 90.93386234220056%)" />
  <rect x="170" y="225" width="30" height="30" fill="hsl(240 100% 90.71293088724592%)" />
  <rect x="240" y="225" width="30" height="30" fill="hsl(240 100% 90.83877796154667%)" />
  <rect x="310" y="225" width="30" height="30" fill="rgb(255 255 255 / 50%)" />
  <rect x="415" y="225" width="30" height="30" fill="hsl(240 100% 90.00012839637611%)" />
  <rect x="520" y="225" width="30" height="30" fill="hsl(240 100% 50%)" />
  <rect x="625" y="225" width="30" height="30" fill="rgb(255 255 255 / 50%)" />
  <rect x="730" y="225" width="30" height="30" fill="hsl(240 100% 92.76794814150206%)" />
  <rect x="765" y="225" width="30" height="30" fill="rgb(255 255 255 / 50%)" />
  <rect x="835" y="225" width="30" height="30" fill="hsl(240 100% 94.70087055982535%)" />
  <rect x="65" y="260" width="30" height="30" fill="hsl(240 100% 99.86058435863578%)" />
  <rect x="135" y="260" width="30" height="30" fill="hsl(240 100% 99.90513443791403%)" />
  <rect x="170" y="260" width="30" height="30" fill="hsl(240 100% 98.98095075617293%)" />
  <rect x="205" y="260" width="30" height="30" fill="rgb(255 255 255 / 50%)" />
  <rect x="240" y="260" width="30" height="30" fill="hsl(240 100% 86.65775103207174%)" />
  <rect x="310" y="260" width="30" height="30" fill="rgb(255 255 255 / 50%)" />
  <rect x="415" y="260" width="30" height="30" fill="hsl(240 100% 80.10371153421686%)" />
  <rect x="450" y="260" width="30" height="30" fill="rgb(255 255 255 / 50%)" />
  <rect x="485" y="260" width="30" height="30" fill="hsl(240 100% 50%)" />
  <rect x="520" y="260" width="30" height="30" fill="hsl(240 100% 71.36971738902103%)" />
  <rect x="625" y="260" width="30" height="30" fill="hsl(240 100% 97.0598342267337%)" />
  <rect x="695" y="260" width="30" height="30" fill="hsl(240 100% 93.8684168624763%)" />
  <rect x="65" y="295" width="30" height="30" fill="hsl(240 100% 86.22153666365054%)" />
  <rect x="100" y="295" width="30" height="30" fill="hsl(240 100% 97.5221752994681%)" />
  <rect x="135" y="295" width="30" height="30" fill="hsl(240 100% 95.00350669184489%)" />
  <rect x="170" y="295" width="30" height="30" fill="hsl(240 100% 89.42966539929921%)" />
  <rect x="205" y="295" width="30" height="30" fill="hsl(240 100% 99.48744786476394%)" />
  <rect x="240" y="295" width="30" height="30" fill="hsl(240 100% 50.95945686067117%)" />
  <rect x="275" y="295" width="30" height="30" fill="hsl(240 100% 50%)" />
  <rect x="310" y="295" width="30" height="30" fill="hsl(240 100% 99.50040041587083%)" />
  <rect x="345" y="295" width="30" height="30" fill="hsl(240 100% 94.74686529658238%)" />
  <rect x="415" y="295" width="30" height="30" fill="hsl(240 100% 55.32030657005952%)" />
  <rect x="450" y="295" width="30" height="30" fill="hsl(240 100% 99.31868885672154%)" />
  <rect x="485" y="295" width="30" height="30" fill="hsl(240 100% 88.57017288157678%)" />
  <rect x="520" y="295" width="30" height="30" fill="hsl(240 100% 57.96158835702322%)" />
  <rect x="695" y="295" width="30" height="30" fill="hsl(240 100% 97.62380286520165%)" />
  <rect x="800" y="295" width="30" height="30" fill="hsl(240 100% 99.58646191807522%)" />
  <rect x="835" y="295" width="30" height="30" fill="hsl(240 100% 99.95577033763216%)" />
  <rect x="65" y="330" width="30" height="30" fill="hsl(240 100% 89.05069400556613%)" />
  <rect x="100" y="330" width="30" height="30" fill="hsl(240 100% 93.85207388804206%)" />
  <rect x="135" y="330" width="30" height="30" fill="hsl(240 100% 96.8073262031372%)" />
  <rect x="170" y="330" width="30" height="30" fill="hsl(240 100% 86.12001032742666%)" />
  <rect x="205" y="330" width="30" height="30" fill="hsl(240 100% 98.99427419830138%)" />
  <rect x="240" y="330" width="30" height="30" fill="hsl(240 100% 78.60602384669275%)" />
  <rect x="275" y="330" width="30" height="30" fill="hsl(240 100% 87.47350555698429%)" />
  <rect x="310" y="330" width="30" height="30" fill="rgb(255 255 255 / 50%)" />
  <rect x="345" y="330" width="30" height="30" fill="hsl(240 100% 96.93719960707296%)" />
  <rect x="415" y="330" width="30" height="30" fill="hsl(240 100% 84.71954833593028%)" />
  <rect x="450" y="330" width="30" height="30" fill="hsl(240 100% 99.80183831021586%)" />
  <rect x="485" y="330" width="30" height="30" fill="hsl(240 100% 69.88989346875346%)" />
  <rect x="520" y="330" width="30" height="30" fill="hsl(240 100% 69.2496247830891%)" />
  <rect x="590" y="330" width="30" height="30" fill="hsl(240 100% 93.25197602003956%)" />
  <rect x="625" y="330" width="30" height="30" fill="hsl(240 100% 50%)" />
  <rect x="765" y="330" width="30" height="30" fill="hsl(240 100% 93.8567917489375%)" />
  <rect x="800" y="330" width="30" height="30" fill="hsl(240 100% 99.17916061324294%)" />
  <rect x="835" y="330" width="30" height="30" fill="hsl(240 100% 79.3701260412613%)" />
  <rect x="65" y="365" width="30" height="30" fill="hsl(240 100% 57.74718300021583%)" />
  <rect x="100" y="365" width="30" height="30" fill="hsl(240 100% 71.59790321908253%)" />
  <rect x="135" y="365" width="30" height="30" fill="hsl(240 100% 82.1528041262781%)" />
  <rect x="170" y="365" width="30" height="30" fill="hsl(240 100% 50%)" />
  <rect x="205" y="365" width="30" height="30" fill="hsl(240 100% 96.12627604727952%)" />
  <rect x="240" y="365" width="30" height="30" fill="hsl(240 100% 59.776200571575465%)" />
  <rect x="275" y="365" width="30" height="30" fill="hsl(240 100% 92.5804644029314%)" />
  <rect x="310" y="365" width="30" height="30" fill="hsl(240 100% 99.86350007663154%)" />
  <rect x="415" y="365" width="30" height="30" fill="hsl(240 100% 66.78607547994159%)" />
  <rect x="520" y="365" width="30" height="30" fill="hsl(240 100% 86.29988599579536%)" />
  <rect x="625" y="365" width="30" height="30" fill="hsl(240 100% 99.64870982818383%)" />
  <rect x="730" y="365" width="30" height="30" fill="hsl(240 100% 63.85911618668184%)" />
  <rect x="765" y="365" width="30" height="30" fill="hsl(240 100% 98.2006303210337%)" />
  <rect x="835" y="365" width="30" height="30" fill="hsl(240 100% 98.82521238699842%)" />
  <rect x="65" y="400" width="30" height="30" fill="hsl(240 100% 96.73238022181555%)" />
  <rect x="100" y="400" width="30" height="30" fill="hsl(240 100% 98.90741494479344%)" />
  <rect x="135" y="400" width="30" height="30" fill="hsl(240 100% 99.26582484586716%)" />
  <rect x="170" y="400" width="30" height="30" fill="hsl(240 100% 86.99859015492308%)" />
  <rect x="205" y="400" width="30" height="30" fill="hsl(240 100% 98.34119613544797%)" />
  <rect x="240" y="400" width="30" height="30" fill="hsl(240 100% 88.19190485256009%)" />
  <rect x="275" y="400" width="30" height="30" fill="hsl(240 100% 90.03757531501911%)" />
  <rect x="310" y="400" width="30" height="30" fill="rgb(255 255 255 / 50%)" />
  <rect x="380" y="400" width="30" height="30" fill="rgb(255 255 255 / 50%)" />
  <rect x="415" y="400" width="30" height="30" fill="hsl(240 100% 87.06659395073581%)" />
  <rect x="450" y="400" width="30" height="30" fill="hsl(240 100% 99.93698436687674%)" />
  <rect x="485" y="400" width="30" height="30" fill="hsl(240 100% 53.99476135960867%)" />
  <rect x="520" y="400" width="30" height="30" fill="hsl(240 100% 50%)" />
  <rect x="555" y="400" width="30" height="30" fill="hsl(240 100% 98.07483696105871%)" />
  <rect x="660" y="400" width="30" height="30" fill="rgb(255 255 255 / 50%)" />
  <rect x="835" y="400" width="30" height="30" fill="hsl(240 100% 97.9676829390429%)" />
  <rect x="65" y="435" width="30" height="30" fill="hsl(240 100% 93.32087276195298%)" />
  <rect x="240" y="435" width="30" height="30" fill="hsl(240 100% 50%)" />
  <rect x="310" y="435" width="30" height="30" fill="hsl(240 100% 93.85379201275248%)" />
  <rect x="415" y="435" width="30" height="30" fill="hsl(240 100% 86.99812435544632%)" />
  <rect x="450" y="435" width="30" height="30" fill="hsl(240 100% 99.77667885636212%)" />
  <rect x="65" y="470" width="30" height="30" fill="hsl(240 100% 50%)" />
  <rect x="240" y="470" width="30" height="30" fill="hsl(240 100% 50.17825221643808%)" />
  <rect x="310" y="470" width="30" height="30" fill="hsl(240 100% 96.97937516016428%)" />
  <rect x="415" y="470" width="30" height="30" fill="hsl(240 100% 89.03631145764894%)" />
  <rect x="450" y="470" width="30" height="30" fill="hsl(240 100% 99.56743047982295%)" />
</svg>
