<svg xmlns="http://www.w3.org/2000/svg" viewBox="0 0 870 505">
  <rect x="0" y="0" width="870" height="505" rx="5" ry="5" fill="#222" />
  <text x="60" y="100" fill="white" font-family="sans-serif" font-weight="bold" font-size="12" text-anchor="end" dominant-baseline="middle">ba</text>
  <text x="60" y="135" fill="white" font-family="sans-serif" font-weight="bold" font-size="12" text-anchor="end" dominant-baseline="middle">det</text>
  <text x="60" y="170" fill="white" font-family="sans-serif" font-weight="bold" font-size="12" text-anchor="end" dominant-baseline="middle">gmm</text>
  <text x="60" y="205" fill="white" font-family="sans-serif" font-weight="bold" font-size="12" text-anchor="end" dominant-baseline="middle">hello</text>
  <text x="60" y="240" fill="white" font-family="sans-serif" font-weight="bold" font-size="12" text-anchor="end" dominant-baseline="middle">ht</text>
  <text x="60" y="275" fill="white" font-family="sans-serif" font-weight="bold" font-size="12" text-anchor="end" dominant-baseline="middle">kmeans</text>
  <text x="60" y="310" fill="white" font-family="sans-serif" font-weight="bold" font-size="12" text-anchor="end" dominant-baseline="middle">llsq</text>
  <text x="60" y="345" fill="white" font-family="sans-serif" font-weight="bold" font-size="12" text-anchor="end" dominant-baseline="middle">lse</text>
  <text x="60" y="380" fill="white" font-family="sans-serif" font-weight="bold" font-size="12" text-anchor="end" dominant-baseline="middle">lstm</text>
  <text x="60" y="415" fill="white" font-family="sans-serif" font-weight="bold" font-size="12" text-anchor="end" dominant-baseline="middle">ode</text>
  <text x="60" y="450" fill="white" font-family="sans-serif" font-weight="bold" font-size="12" text-anchor="end" dominant-baseline="middle">particle</text>
  <text x="60" y="485" fill="white" font-family="sans-serif" font-weight="bold" font-size="12" text-anchor="end" dominant-baseline="middle">saddle</text>
  <text x="80" y="80" fill="white" font-family="sans-serif" font-weight="bold" font-size="12" text-anchor="end" dominant-baseline="middle" transform="rotate(90 80 80)">ad-hpp</text>
  <text x="115" y="80" fill="white" font-family="sans-serif" font-weight="bold" font-size="12" text-anchor="end" dominant-baseline="middle" transform="rotate(90 115 80)">adept</text>
  <text x="150" y="80" fill="white" font-family="sans-serif" font-weight="bold" font-size="12" text-anchor="end" dominant-baseline="middle" transform="rotate(90 150 80)">adol-c</text>
  <text x="185" y="80" fill="white" font-family="sans-serif" font-weight="bold" font-size="12" text-anchor="end" dominant-baseline="middle" transform="rotate(90 185 80)">codipack</text>
  <text x="220" y="80" fill="white" font-family="sans-serif" font-weight="bold" font-size="12" text-anchor="end" dominant-baseline="middle" transform="rotate(90 220 80)">cppad</text>
  <text x="255" y="80" fill="white" font-family="sans-serif" font-weight="bold" font-size="12" text-anchor="end" dominant-baseline="middle" transform="rotate(90 255 80)">enzyme</text>
  <text x="290" y="80" fill="white" font-family="sans-serif" font-weight="bold" font-size="12" text-anchor="end" dominant-baseline="middle" transform="rotate(90 290 80)">enzyme-jl</text>
  <text x="325" y="80" fill="white" font-family="sans-serif" font-weight="bold" font-size="12" text-anchor="end" dominant-baseline="middle" transform="rotate(90 325 80)">finite</text>
  <text x="360" y="80" fill="white" font-family="sans-serif" font-weight="bold" font-size="12" text-anchor="end" dominant-baseline="middle" transform="rotate(90 360 80)">floretta</text>
  <text x="395" y="80" fill="white" font-family="sans-serif" font-weight="bold" font-size="12" text-anchor="end" dominant-baseline="middle" transform="rotate(90 395 80)">forwarddiff-jl</text>
  <text x="430" y="80" fill="white" font-family="sans-serif" font-weight="bold" font-size="12" text-anchor="end" dominant-baseline="middle" transform="rotate(90 430 80)">futhark</text>
  <text x="465" y="80" fill="white" font-family="sans-serif" font-weight="bold" font-size="12" text-anchor="end" dominant-baseline="middle" transform="rotate(90 465 80)">haskell</text>
  <text x="500" y="80" fill="white" font-family="sans-serif" font-weight="bold" font-size="12" text-anchor="end" dominant-baseline="middle" transform="rotate(90 500 80)">jax</text>
  <text x="535" y="80" fill="white" font-family="sans-serif" font-weight="bold" font-size="12" text-anchor="end" dominant-baseline="middle" transform="rotate(90 535 80)">manual</text>
  <text x="570" y="80" fill="white" font-family="sans-serif" font-weight="bold" font-size="12" text-anchor="end" dominant-baseline="middle" transform="rotate(90 570 80)">mooncake-jl</text>
  <text x="605" y="80" fill="white" font-family="sans-serif" font-weight="bold" font-size="12" text-anchor="end" dominant-baseline="middle" transform="rotate(90 605 80)">ocaml</text>
  <text x="640" y="80" fill="white" font-family="sans-serif" font-weight="bold" font-size="12" text-anchor="end" dominant-baseline="middle" transform="rotate(90 640 80)">pytorch</text>
  <text x="675" y="80" fill="white" font-family="sans-serif" font-weight="bold" font-size="12" text-anchor="end" dominant-baseline="middle" transform="rotate(90 675 80)">reversediff-jl</text>
  <text x="710" y="80" fill="white" font-family="sans-serif" font-weight="bold" font-size="12" text-anchor="end" dominant-baseline="middle" transform="rotate(90 710 80)">scilean</text>
  <text x="745" y="80" fill="white" font-family="sans-serif" font-weight="bold" font-size="12" text-anchor="end" dominant-baseline="middle" transform="rotate(90 745 80)">tapenade</text>
  <text x="780" y="80" fill="white" font-family="sans-serif" font-weight="bold" font-size="12" text-anchor="end" dominant-baseline="middle" transform="rotate(90 780 80)">tensorflow</text>
  <text x="815" y="80" fill="white" font-family="sans-serif" font-weight="bold" font-size="12" text-anchor="end" dominant-baseline="middle" transform="rotate(90 815 80)">tensorflow-js</text>
  <text x="850" y="80" fill="white" font-family="sans-serif" font-weight="bold" font-size="12" text-anchor="end" dominant-baseline="middle" transform="rotate(90 850 80)">zygote</text>
  <rect x="65" y="85" width="30" height="30" fill="hsl(240 100% 81.11485150749036%)" />
  <rect x="100" y="85" width="30" height="30" fill="hsl(240 100% 83.35459970210745%)" />
  <rect x="135" y="85" width="30" height="30" fill="hsl(240 100% 97.96653538570618%)" />
  <rect x="170" y="85" width="30" height="30" fill="hsl(240 100% 82.35679465729612%)" />
  <rect x="205" y="85" width="30" height="30" fill="hsl(240 100% 99.004052231195%)" />
  <rect x="240" y="85" width="30" height="30" fill="hsl(240 100% 51.28503135964227%)" />
  <rect x="310" y="85" width="30" height="30" fill="hsl(240 100% 93.23091848496978%)" />
  <rect x="415" y="85" width="30" height="30" fill="hsl(240 100% 68.22232724386873%)" />
  <rect x="520" y="85" width="30" height="30" fill="hsl(240 100% 50%)" />
  <rect x="625" y="85" width="30" height="30" fill="rgb(255 255 255 / 50%)" />
  <rect x="730" y="85" width="30" height="30" fill="hsl(240 100% 74.81082305543032%)" />
  <rect x="765" y="85" width="30" height="30" fill="rgb(255 255 255 / 50%)" />
  <rect x="835" y="85" width="30" height="30" fill="hsl(240 100% 99.7345273343339%)" />
  <rect x="65" y="120" width="30" height="30" fill="hsl(240 100% 50%)" />
  <rect x="100" y="120" width="30" height="30" fill="hsl(240 100% 84.14772359945876%)" />
  <rect x="135" y="120" width="30" height="30" fill="hsl(240 100% 85.75047324847738%)" />
  <rect x="170" y="120" width="30" height="30" fill="hsl(240 100% 54.353362383331685%)" />
  <rect x="205" y="120" width="30" height="30" fill="hsl(240 100% 92.52659078704144%)" />
  <rect x="240" y="120" width="30" height="30" fill="hsl(240 100% 91.4649965320388%)" />
  <rect x="275" y="120" width="30" height="30" fill="hsl(240 100% 99.33941624484882%)" />
  <rect x="310" y="120" width="30" height="30" fill="hsl(240 100% 98.9810272286334%)" />
  <rect x="380" y="120" width="30" height="30" fill="hsl(240 100% 94.72889334933501%)" />
  <rect x="415" y="120" width="30" height="30" fill="hsl(240 100% 94.56166203306873%)" />
  <rect x="450" y="120" width="30" height="30" fill="hsl(240 100% 97.8381812880416%)" />
  <rect x="520" y="120" width="30" height="30" fill="hsl(240 100% 79.5160412723066%)" />
  <rect x="555" y="120" width="30" height="30" fill="hsl(240 100% 92.72211340221348%)" />
  <rect x="660" y="120" width="30" height="30" fill="rgb(255 255 255 / 50%)" />
  <rect x="835" y="120" width="30" height="30" fill="rgb(255 255 255 / 50%)" />
  <rect x="65" y="155" width="30" height="30" fill="hsl(240 100% 98.18143309995718%)" />
  <rect x="100" y="155" width="30" height="30" fill="hsl(240 100% 98.68368004372832%)" />
  <rect x="135" y="155" width="30" height="30" fill="hsl(240 100% 99.03853301945206%)" />
  <rect x="170" y="155" width="30" height="30" fill="hsl(240 100% 97.88921700973535%)" />
  <rect x="205" y="155" width="30" height="30" fill="hsl(240 100% 99.8109700970951%)" />
  <rect x="240" y="155" width="30" height="30" fill="hsl(240 100% 90.45054014076189%)" />
  <rect x="275" y="155" width="30" height="30" fill="hsl(240 100% 91.15212467023704%)" />
  <rect x="310" y="155" width="30" height="30" fill="rgb(255 255 255 / 50%)" />
  <rect x="415" y="155" width="30" height="30" fill="hsl(240 100% 92.32689966279719%)" />
  <rect x="485" y="155" width="30" height="30" fill="hsl(240 100% 50%)" />
  <rect x="520" y="155" width="30" height="30" fill="hsl(240 100% 82.3040097193983%)" />
  <rect x="590" y="155" width="30" height="30" fill="hsl(240 100% 99.53861307019127%)" />
  <rect x="625" y="155" width="30" height="30" fill="hsl(240 100% 64.57213263292941%)" />
  <rect x="695" y="155" width="30" height="30" fill="hsl(240 100% 94.6608339191182%)" />
  <rect x="730" y="155" width="30" height="30" fill="hsl(240 100% 82.45135772641214%)" />
  <rect x="765" y="155" width="30" height="30" fill="hsl(240 100% 99.54827654321814%)" />
  <rect x="835" y="155" width="30" height="30" fill="hsl(240 100% 95.97470451978583%)" />
  <rect x="65" y="190" width="30" height="30" fill="hsl(240 100% 50%)" />
  <rect x="100" y="190" width="30" height="30" fill="hsl(240 100% 50%)" />
  <rect x="135" y="190" width="30" height="30" fill="hsl(240 100% 50%)" />
  <rect x="170" y="190" width="30" height="30" fill="hsl(240 100% 50%)" />
  <rect x="205" y="190" width="30" height="30" fill="hsl(240 100% 50%)" />
  <rect x="240" y="190" width="30" height="30" fill="hsl(240 100% 50%)" />
  <rect x="275" y="190" width="30" height="30" fill="hsl(240 100% 50%)" />
  <rect x="310" y="190" width="30" height="30" fill="hsl(240 100% 50%)" />
  <rect x="345" y="190" width="30" height="30" fill="hsl(240 100% 50%)" />
  <rect x="380" y="190" width="30" height="30" fill="hsl(240 100% 50%)" />
  <rect x="415" y="190" width="30" height="30" fill="hsl(240 100% 50%)" />
  <rect x="450" y="190" width="30" height="30" fill="hsl(240 100% 50%)" />
  <rect x="485" y="190" width="30" height="30" fill="hsl(240 100% 50%)" />
  <rect x="520" y="190" width="30" height="30" fill="hsl(240 100% 50%)" />
  <rect x="555" y="190" width="30" height="30" fill="hsl(240 100% 50%)" />
  <rect x="590" y="190" width="30" height="30" fill="hsl(240 100% 50%)" />
  <rect x="625" y="190" width="30" height="30" fill="hsl(240 100% 50%)" />
  <rect x="660" y="190" width="30" height="30" fill="hsl(240 100% 50%)" />
  <rect x="695" y="190" width="30" height="30" fill="hsl(240 100% 50%)" />
  <rect x="730" y="190" width="30" height="30" fill="hsl(240 100% 50%)" />
  <rect x="765" y="190" width="30" height="30" fill="hsl(240 100% 50%)" />
  <rect x="800" y="190" width="30" height="30" fill="hsl(240 100% 50%)" />
  <rect x="835" y="190" width="30" height="30" fill="hsl(240 100% 50%)" />
  <rect x="100" y="225" width="30" height="30" fill="hsl(240 100% 96.68601837884466%)" />
  <rect x="135" y="225" width="30" height="30" fill="hsl(240 100% 89.20657178823163%)" />
  <rect x="170" y="225" width="30" height="30" fill="hsl(240 100% 89.28745105858839%)" />
  <rect x="240" y="225" width="30" height="30" fill="hsl(240 100% 91.40459659244416%)" />
  <rect x="310" y="225" width="30" height="30" fill="rgb(255 255 255 / 50%)" />
  <rect x="415" y="225" width="30" height="30" fill="hsl(240 100% 90.6899243310602%)" />
  <rect x="520" y="225" width="30" height="30" fill="hsl(240 100% 50%)" />
  <rect x="625" y="225" width="30" height="30" fill="rgb(255 255 255 / 50%)" />
  <rect x="730" y="225" width="30" height="30" fill="hsl(240 100% 93.23201315451713%)" />
  <rect x="765" y="225" width="30" height="30" fill="rgb(255 255 255 / 50%)" />
  <rect x="835" y="225" width="30" height="30" fill="hsl(240 100% 94.11098610237454%)" />
  <rect x="65" y="260" width="30" height="30" fill="hsl(240 100% 99.84414287105373%)" />
  <rect x="135" y="260" width="30" height="30" fill="hsl(240 100% 99.8450561751979%)" />
  <rect x="170" y="260" width="30" height="30" fill="hsl(240 100% 98.90190326362496%)" />
  <rect x="205" y="260" width="30" height="30" fill="rgb(255 255 255 / 50%)" />
  <rect x="240" y="260" width="30" height="30" fill="hsl(240 100% 87.22148575205306%)" />
  <rect x="310" y="260" width="30" height="30" fill="rgb(255 255 255 / 50%)" />
  <rect x="415" y="260" width="30" height="30" fill="hsl(240 100% 80.80391493156776%)" />
  <rect x="450" y="260" width="30" height="30" fill="rgb(255 255 255 / 50%)" />
  <rect x="485" y="260" width="30" height="30" fill="hsl(240 100% 50%)" />
  <rect x="520" y="260" width="30" height="30" fill="hsl(240 100% 71.51597507975382%)" />
  <rect x="625" y="260" width="30" height="30" fill="hsl(240 100% 97.10894555684798%)" />
  <rect x="695" y="260" width="30" height="30" fill="hsl(240 100% 94.16370100711907%)" />
  <rect x="65" y="295" width="30" height="30" fill="hsl(240 100% 85.86510384079911%)" />
  <rect x="100" y="295" width="30" height="30" fill="hsl(240 100% 97.5585652549893%)" />
  <rect x="135" y="295" width="30" height="30" fill="hsl(240 100% 95.19106504631344%)" />
  <rect x="170" y="295" width="30" height="30" fill="hsl(240 100% 90.67036589168097%)" />
  <rect x="205" y="295" width="30" height="30" fill="hsl(240 100% 99.42955152308159%)" />
  <rect x="240" y="295" width="30" height="30" fill="hsl(240 100% 50.647901723370474%)" />
  <rect x="275" y="295" width="30" height="30" fill="hsl(240 100% 50%)" />
  <rect x="310" y="295" width="30" height="30" fill="hsl(240 100% 99.49948141238445%)" />
  <rect x="345" y="295" width="30" height="30" fill="hsl(240 100% 94.70290303906945%)" />
  <rect x="415" y="295" width="30" height="30" fill="hsl(240 100% 55.34498755545096%)" />
  <rect x="450" y="295" width="30" height="30" fill="hsl(240 100% 99.33173851172057%)" />
  <rect x="485" y="295" width="30" height="30" fill="hsl(240 100% 88.2692896602768%)" />
  <rect x="520" y="295" width="30" height="30" fill="hsl(240 100% 57.84424951895777%)" />
  <rect x="695" y="295" width="30" height="30" fill="hsl(240 100% 97.6062378405338%)" />
  <rect x="800" y="295" width="30" height="30" fill="hsl(240 100% 99.57089734362673%)" />
  <rect x="835" y="295" width="30" height="30" fill="hsl(240 100% 99.95513473286678%)" />
  <rect x="65" y="330" width="30" height="30" fill="hsl(240 100% 89.56000428267635%)" />
  <rect x="100" y="330" width="30" height="30" fill="hsl(240 100% 95.2511836723663%)" />
  <rect x="135" y="330" width="30" height="30" fill="hsl(240 100% 97.37591536022902%)" />
  <rect x="170" y="330" width="30" height="30" fill="hsl(240 100% 89.37555058104743%)" />
  <rect x="205" y="330" width="30" height="30" fill="hsl(240 100% 99.25415443167262%)" />
  <rect x="240" y="330" width="30" height="30" fill="hsl(240 100% 81.33662501041381%)" />
  <rect x="275" y="330" width="30" height="30" fill="hsl(240 100% 88.7315500220233%)" />
  <rect x="310" y="330" width="30" height="30" fill="rgb(255 255 255 / 50%)" />
  <rect x="345" y="330" width="30" height="30" fill="hsl(240 100% 97.4722547147754%)" />
  <rect x="415" y="330" width="30" height="30" fill="hsl(240 100% 86.83234584416623%)" />
  <rect x="450" y="330" width="30" height="30" fill="hsl(240 100% 99.8343228696252%)" />
  <rect x="485" y="330" width="30" height="30" fill="hsl(240 100% 72.2354141401021%)" />
  <rect x="520" y="330" width="30" height="30" fill="hsl(240 100% 78.51150788373471%)" />
  <rect x="590" y="330" width="30" height="30" fill="hsl(240 100% 94.30115248757771%)" />
  <rect x="625" y="330" width="30" height="30" fill="hsl(240 100% 50%)" />
  <rect x="765" y="330" width="30" height="30" fill="hsl(240 100% 95.01722256874756%)" />
  <rect x="800" y="330" width="30" height="30" fill="hsl(240 100% 99.26841151382123%)" />
  <rect x="835" y="330" width="30" height="30" fill="hsl(240 100% 82.07284023485917%)" />
  <rect x="65" y="365" width="30" height="30" fill="hsl(240 100% 56.498350635174454%)" />
  <rect x="100" y="365" width="30" height="30" fill="hsl(240 100% 71.25692227477413%)" />
  <rect x="135" y="365" width="30" height="30" fill="hsl(240 100% 82.01922317409884%)" />
  <rect x="170" y="365" width="30" height="30" fill="hsl(240 100% 50%)" />
  <rect x="205" y="365" width="30" height="30" fill="hsl(240 100% 96.1805924731495%)" />
  <rect x="240" y="365" width="30" height="30" fill="hsl(240 100% 59.23772182685313%)" />
  <rect x="275" y="365" width="30" height="30" fill="hsl(240 100% 92.38934535282267%)" />
  <rect x="310" y="365" width="30" height="30" fill="hsl(240 100% 99.85851234047726%)" />
  <rect x="415" y="365" width="30" height="30" fill="hsl(240 100% 65.90477913936417%)" />
  <rect x="520" y="365" width="30" height="30" fill="hsl(240 100% 85.68120238109546%)" />
  <rect x="625" y="365" width="30" height="30" fill="hsl(240 100% 99.63856703876569%)" />
  <rect x="730" y="365" width="30" height="30" fill="hsl(240 100% 62.868713382578974%)" />
  <rect x="765" y="365" width="30" height="30" fill="hsl(240 100% 98.14848719698165%)" />
  <rect x="835" y="365" width="30" height="30" fill="hsl(240 100% 98.71320781493017%)" />
  <rect x="65" y="400" width="30" height="30" fill="hsl(240 100% 98.49259259432904%)" />
  <rect x="100" y="400" width="30" height="30" fill="hsl(240 100% 99.40284257753409%)" />
  <rect x="135" y="400" width="30" height="30" fill="hsl(240 100% 99.67260966436068%)" />
  <rect x="170" y="400" width="30" height="30" fill="hsl(240 100% 95.42526662737168%)" />
  <rect x="205" y="400" width="30" height="30" fill="hsl(240 100% 99.23671239591155%)" />
  <rect x="240" y="400" width="30" height="30" fill="hsl(240 100% 87.8100590915312%)" />
  <rect x="275" y="400" width="30" height="30" fill="hsl(240 100% 95.32744444568556%)" />
  <rect x="310" y="400" width="30" height="30" fill="rgb(255 255 255 / 50%)" />
  <rect x="380" y="400" width="30" height="30" fill="rgb(255 255 255 / 50%)" />
  <rect x="415" y="400" width="30" height="30" fill="hsl(240 100% 93.9945399173341%)" />
  <rect x="450" y="400" width="30" height="30" fill="hsl(240 100% 99.97363853611377%)" />
  <rect x="485" y="400" width="30" height="30" fill="hsl(240 100% 78.79260217471062%)" />
  <rect x="520" y="400" width="30" height="30" fill="hsl(240 100% 50%)" />
  <rect x="555" y="400" width="30" height="30" fill="hsl(240 100% 99.1060443357832%)" />
  <rect x="660" y="400" width="30" height="30" fill="rgb(255 255 255 / 50%)" />
  <rect x="835" y="400" width="30" height="30" fill="hsl(240 100% 98.9782933264276%)" />
  <rect x="65" y="435" width="30" height="30" fill="hsl(240 100% 92.93746742124445%)" />
  <rect x="240" y="435" width="30" height="30" fill="hsl(240 100% 50%)" />
  <rect x="310" y="435" width="30" height="30" fill="hsl(240 100% 94.32450736593476%)" />
  <rect x="415" y="435" width="30" height="30" fill="hsl(240 100% 87.09743981618057%)" />
  <rect x="450" y="435" width="30" height="30" fill="hsl(240 100% 99.77761511399692%)" />
  <rect x="65" y="470" width="30" height="30" fill="hsl(240 100% 50%)" />
  <rect x="240" y="470" width="30" height="30" fill="hsl(240 100% 50.167086078599176%)" />
  <rect x="310" y="470" width="30" height="30" fill="hsl(240 100% 97.14594760647718%)" />
  <rect x="415" y="470" width="30" height="30" fill="hsl(240 100% 89.07291379199211%)" />
  <rect x="450" y="470" width="30" height="30" fill="hsl(240 100% 99.57941969808354%)" />
</svg>
