<svg xmlns="http://www.w3.org/2000/svg" viewBox="0 0 870 505">
  <rect x="0" y="0" width="870" height="505" rx="5" ry="5" fill="#222" />
  <text x="60" y="100" fill="white" font-family="sans-serif" font-weight="bold" font-size="12" text-anchor="end" dominant-baseline="middle">ba</text>
  <text x="60" y="135" fill="white" font-family="sans-serif" font-weight="bold" font-size="12" text-anchor="end" dominant-baseline="middle">det</text>
  <text x="60" y="170" fill="white" font-family="sans-serif" font-weight="bold" font-size="12" text-anchor="end" dominant-baseline="middle">gmm</text>
  <text x="60" y="205" fill="white" font-family="sans-serif" font-weight="bold" font-size="12" text-anchor="end" dominant-baseline="middle">hello</text>
  <text x="60" y="240" fill="white" font-family="sans-serif" font-weight="bold" font-size="12" text-anchor="end" dominant-baseline="middle">ht</text>
  <text x="60" y="275" fill="white" font-family="sans-serif" font-weight="bold" font-size="12" text-anchor="end" dominant-baseline="middle">kmeans</text>
  <text x="60" y="310" fill="white" font-family="sans-serif" font-weight="bold" font-size="12" text-anchor="end" dominant-baseline="middle">llsq</text>
  <text x="60" y="345" fill="white" font-family="sans-serif" font-weight="bold" font-size="12" text-anchor="end" dominant-baseline="middle">lse</text>
  <text x="60" y="380" fill="white" font-family="sans-serif" font-weight="bold" font-size="12" text-anchor="end" dominant-baseline="middle">lstm</text>
  <text x="60" y="415" fill="white" font-family="sans-serif" font-weight="bold" font-size="12" text-anchor="end" dominant-baseline="middle">ode</text>
  <text x="60" y="450" fill="white" font-family="sans-serif" font-weight="bold" font-size="12" text-anchor="end" dominant-baseline="middle">particle</text>
  <text x="60" y="485" fill="white" font-family="sans-serif" font-weight="bold" font-size="12" text-anchor="end" dominant-baseline="middle">saddle</text>
  <text x="80" y="80" fill="white" font-family="sans-serif" font-weight="bold" font-size="12" text-anchor="end" dominant-baseline="middle" transform="rotate(90 80 80)">ad-hpp</text>
  <text x="115" y="80" fill="white" font-family="sans-serif" font-weight="bold" font-size="12" text-anchor="end" dominant-baseline="middle" transform="rotate(90 115 80)">adept</text>
  <text x="150" y="80" fill="white" font-family="sans-serif" font-weight="bold" font-size="12" text-anchor="end" dominant-baseline="middle" transform="rotate(90 150 80)">adol-c</text>
  <text x="185" y="80" fill="white" font-family="sans-serif" font-weight="bold" font-size="12" text-anchor="end" dominant-baseline="middle" transform="rotate(90 185 80)">codipack</text>
  <text x="220" y="80" fill="white" font-family="sans-serif" font-weight="bold" font-size="12" text-anchor="end" dominant-baseline="middle" transform="rotate(90 220 80)">cppad</text>
  <text x="255" y="80" fill="white" font-family="sans-serif" font-weight="bold" font-size="12" text-anchor="end" dominant-baseline="middle" transform="rotate(90 255 80)">enzyme</text>
  <text x="290" y="80" fill="white" font-family="sans-serif" font-weight="bold" font-size="12" text-anchor="end" dominant-baseline="middle" transform="rotate(90 290 80)">enzyme-jl</text>
  <text x="325" y="80" fill="white" font-family="sans-serif" font-weight="bold" font-size="12" text-anchor="end" dominant-baseline="middle" transform="rotate(90 325 80)">finite</text>
  <text x="360" y="80" fill="white" font-family="sans-serif" font-weight="bold" font-size="12" text-anchor="end" dominant-baseline="middle" transform="rotate(90 360 80)">floretta</text>
  <text x="395" y="80" fill="white" font-family="sans-serif" font-weight="bold" font-size="12" text-anchor="end" dominant-baseline="middle" transform="rotate(90 395 80)">forwarddiff-jl</text>
  <text x="430" y="80" fill="white" font-family="sans-serif" font-weight="bold" font-size="12" text-anchor="end" dominant-baseline="middle" transform="rotate(90 430 80)">futhark</text>
  <text x="465" y="80" fill="white" font-family="sans-serif" font-weight="bold" font-size="12" text-anchor="end" dominant-baseline="middle" transform="rotate(90 465 80)">haskell</text>
  <text x="500" y="80" fill="white" font-family="sans-serif" font-weight="bold" font-size="12" text-anchor="end" dominant-baseline="middle" transform="rotate(90 500 80)">jax</text>
  <text x="535" y="80" fill="white" font-family="sans-serif" font-weight="bold" font-size="12" text-anchor="end" dominant-baseline="middle" transform="rotate(90 535 80)">manual</text>
  <text x="570" y="80" fill="white" font-family="sans-serif" font-weight="bold" font-size="12" text-anchor="end" dominant-baseline="middle" transform="rotate(90 570 80)">mooncake-jl</text>
  <text x="605" y="80" fill="white" font-family="sans-serif" font-weight="bold" font-size="12" text-anchor="end" dominant-baseline="middle" transform="rotate(90 605 80)">ocaml</text>
  <text x="640" y="80" fill="white" font-family="sans-serif" font-weight="bold" font-size="12" text-anchor="end" dominant-baseline="middle" transform="rotate(90 640 80)">pytorch</text>
  <text x="675" y="80" fill="white" font-family="sans-serif" font-weight="bold" font-size="12" text-anchor="end" dominant-baseline="middle" transform="rotate(90 675 80)">reversediff-jl</text>
  <text x="710" y="80" fill="white" font-family="sans-serif" font-weight="bold" font-size="12" text-anchor="end" dominant-baseline="middle" transform="rotate(90 710 80)">scilean</text>
  <text x="745" y="80" fill="white" font-family="sans-serif" font-weight="bold" font-size="12" text-anchor="end" dominant-baseline="middle" transform="rotate(90 745 80)">tapenade</text>
  <text x="780" y="80" fill="white" font-family="sans-serif" font-weight="bold" font-size="12" text-anchor="end" dominant-baseline="middle" transform="rotate(90 780 80)">tensorflow</text>
  <text x="815" y="80" fill="white" font-family="sans-serif" font-weight="bold" font-size="12" text-anchor="end" dominant-baseline="middle" transform="rotate(90 815 80)">tensorflow-js</text>
  <text x="850" y="80" fill="white" font-family="sans-serif" font-weight="bold" font-size="12" text-anchor="end" dominant-baseline="middle" transform="rotate(90 850 80)">zygote</text>
  <rect x="65" y="85" width="30" height="30" fill="hsl(240 100% 80.88894684173232%)" />
  <rect x="100" y="85" width="30" height="30" fill="hsl(240 100% 82.69816282618116%)" />
  <rect x="135" y="85" width="30" height="30" fill="hsl(240 100% 97.9731497291933%)" />
  <rect x="170" y="85" width="30" height="30" fill="hsl(240 100% 82.21693064941496%)" />
  <rect x="205" y="85" width="30" height="30" fill="hsl(240 100% 98.99677782727777%)" />
  <rect x="240" y="85" width="30" height="30" fill="hsl(240 100% 51.48328874336772%)" />
  <rect x="310" y="85" width="30" height="30" fill="hsl(240 100% 93.2619512959497%)" />
  <rect x="415" y="85" width="30" height="30" fill="hsl(240 100% 68.20363406640391%)" />
  <rect x="520" y="85" width="30" height="30" fill="hsl(240 100% 50%)" />
  <rect x="625" y="85" width="30" height="30" fill="rgb(255 255 255 / 50%)" />
  <rect x="730" y="85" width="30" height="30" fill="hsl(240 100% 74.54318758057812%)" />
  <rect x="765" y="85" width="30" height="30" fill="rgb(255 255 255 / 50%)" />
  <rect x="835" y="85" width="30" height="30" fill="hsl(240 100% 99.7405396062122%)" />
  <rect x="65" y="120" width="30" height="30" fill="hsl(240 100% 50%)" />
  <rect x="100" y="120" width="30" height="30" fill="hsl(240 100% 82.71591864507597%)" />
  <rect x="135" y="120" width="30" height="30" fill="hsl(240 100% 85.85643374123138%)" />
  <rect x="170" y="120" width="30" height="30" fill="hsl(240 100% 53.889911069714174%)" />
  <rect x="205" y="120" width="30" height="30" fill="hsl(240 100% 92.40873846304478%)" />
  <rect x="240" y="120" width="30" height="30" fill="hsl(240 100% 91.93368186543522%)" />
  <rect x="275" y="120" width="30" height="30" fill="hsl(240 100% 99.38186951386372%)" />
  <rect x="310" y="120" width="30" height="30" fill="hsl(240 100% 99.09559731273814%)" />
  <rect x="380" y="120" width="30" height="30" fill="hsl(240 100% 93.3600826567515%)" />
  <rect x="415" y="120" width="30" height="30" fill="hsl(240 100% 94.6002282764887%)" />
  <rect x="450" y="120" width="30" height="30" fill="hsl(240 100% 97.87970062006653%)" />
  <rect x="520" y="120" width="30" height="30" fill="hsl(240 100% 79.70871323441189%)" />
  <rect x="555" y="120" width="30" height="30" fill="hsl(240 100% 91.78081697413539%)" />
  <rect x="660" y="120" width="30" height="30" fill="rgb(255 255 255 / 50%)" />
  <rect x="835" y="120" width="30" height="30" fill="rgb(255 255 255 / 50%)" />
  <rect x="65" y="155" width="30" height="30" fill="hsl(240 100% 98.35707105732897%)" />
  <rect x="100" y="155" width="30" height="30" fill="hsl(240 100% 98.79409075011571%)" />
  <rect x="135" y="155" width="30" height="30" fill="hsl(240 100% 99.10384724066817%)" />
  <rect x="170" y="155" width="30" height="30" fill="hsl(240 100% 98.06173711169578%)" />
  <rect x="205" y="155" width="30" height="30" fill="hsl(240 100% 99.84908022126403%)" />
  <rect x="240" y="155" width="30" height="30" fill="hsl(240 100% 91.20596551690325%)" />
  <rect x="275" y="155" width="30" height="30" fill="hsl(240 100% 91.69146735249208%)" />
  <rect x="310" y="155" width="30" height="30" fill="rgb(255 255 255 / 50%)" />
  <rect x="415" y="155" width="30" height="30" fill="hsl(240 100% 92.93023484979929%)" />
  <rect x="485" y="155" width="30" height="30" fill="hsl(240 100% 50%)" />
  <rect x="520" y="155" width="30" height="30" fill="hsl(240 100% 83.15818617005834%)" />
  <rect x="590" y="155" width="30" height="30" fill="hsl(240 100% 99.57777746854892%)" />
  <rect x="625" y="155" width="30" height="30" fill="hsl(240 100% 65.82646192780442%)" />
  <rect x="695" y="155" width="30" height="30" fill="hsl(240 100% 95.39287096953043%)" />
  <rect x="730" y="155" width="30" height="30" fill="hsl(240 100% 83.55343503677449%)" />
  <rect x="765" y="155" width="30" height="30" fill="hsl(240 100% 99.56514684333267%)" />
  <rect x="835" y="155" width="30" height="30" fill="hsl(240 100% 96.4955304872251%)" />
  <rect x="65" y="190" width="30" height="30" fill="hsl(240 100% 50%)" />
  <rect x="100" y="190" width="30" height="30" fill="hsl(240 100% 50%)" />
  <rect x="135" y="190" width="30" height="30" fill="hsl(240 100% 50%)" />
  <rect x="170" y="190" width="30" height="30" fill="hsl(240 100% 50%)" />
  <rect x="205" y="190" width="30" height="30" fill="hsl(240 100% 50%)" />
  <rect x="240" y="190" width="30" height="30" fill="hsl(240 100% 50%)" />
  <rect x="275" y="190" width="30" height="30" fill="hsl(240 100% 50%)" />
  <rect x="310" y="190" width="30" height="30" fill="hsl(240 100% 50%)" />
  <rect x="345" y="190" width="30" height="30" fill="hsl(240 100% 50%)" />
  <rect x="380" y="190" width="30" height="30" fill="hsl(240 100% 50%)" />
  <rect x="415" y="190" width="30" height="30" fill="hsl(240 100% 50%)" />
  <rect x="450" y="190" width="30" height="30" fill="hsl(240 100% 50%)" />
  <rect x="485" y="190" width="30" height="30" fill="hsl(240 100% 50%)" />
  <rect x="520" y="190" width="30" height="30" fill="hsl(240 100% 50%)" />
  <rect x="555" y="190" width="30" height="30" fill="hsl(240 100% 50%)" />
  <rect x="590" y="190" width="30" height="30" fill="hsl(240 100% 50%)" />
  <rect x="625" y="190" width="30" height="30" fill="hsl(240 100% 50%)" />
  <rect x="660" y="190" width="30" height="30" fill="hsl(240 100% 50%)" />
  <rect x="695" y="190" width="30" height="30" fill="hsl(240 100% 50%)" />
  <rect x="730" y="190" width="30" height="30" fill="hsl(240 100% 50%)" />
  <rect x="765" y="190" width="30" height="30" fill="hsl(240 100% 50%)" />
  <rect x="800" y="190" width="30" height="30" fill="hsl(240 100% 50%)" />
  <rect x="835" y="190" width="30" height="30" fill="hsl(240 100% 50%)" />
  <rect x="100" y="225" width="30" height="30" fill="hsl(240 100% 96.60954263488716%)" />
  <rect x="135" y="225" width="30" height="30" fill="hsl(240 100% 89.12126967226129%)" />
  <rect x="170" y="225" width="30" height="30" fill="hsl(240 100% 88.9629245377636%)" />
  <rect x="240" y="225" width="30" height="30" fill="hsl(240 100% 91.06336656518374%)" />
  <rect x="310" y="225" width="30" height="30" fill="rgb(255 255 255 / 50%)" />
  <rect x="415" y="225" width="30" height="30" fill="hsl(240 100% 90.33280366459773%)" />
  <rect x="520" y="225" width="30" height="30" fill="hsl(240 100% 50%)" />
  <rect x="625" y="225" width="30" height="30" fill="rgb(255 255 255 / 50%)" />
  <rect x="730" y="225" width="30" height="30" fill="hsl(240 100% 93.07693523402472%)" />
  <rect x="765" y="225" width="30" height="30" fill="rgb(255 255 255 / 50%)" />
  <rect x="835" y="225" width="30" height="30" fill="hsl(240 100% 94.1230175319173%)" />
  <rect x="65" y="260" width="30" height="30" fill="hsl(240 100% 99.83575281074204%)" />
  <rect x="135" y="260" width="30" height="30" fill="hsl(240 100% 99.83750530387063%)" />
  <rect x="170" y="260" width="30" height="30" fill="hsl(240 100% 98.70998951778235%)" />
  <rect x="205" y="260" width="30" height="30" fill="rgb(255 255 255 / 50%)" />
  <rect x="240" y="260" width="30" height="30" fill="hsl(240 100% 85.6087677930247%)" />
  <rect x="310" y="260" width="30" height="30" fill="rgb(255 255 255 / 50%)" />
  <rect x="415" y="260" width="30" height="30" fill="hsl(240 100% 78.83616250500023%)" />
  <rect x="450" y="260" width="30" height="30" fill="rgb(255 255 255 / 50%)" />
  <rect x="485" y="260" width="30" height="30" fill="hsl(240 100% 50%)" />
  <rect x="520" y="260" width="30" height="30" fill="hsl(240 100% 67.79671887925387%)" />
  <rect x="625" y="260" width="30" height="30" fill="hsl(240 100% 96.60582775446878%)" />
  <rect x="695" y="260" width="30" height="30" fill="hsl(240 100% 93.40921842620267%)" />
  <rect x="65" y="295" width="30" height="30" fill="hsl(240 100% 85.91635187971747%)" />
  <rect x="100" y="295" width="30" height="30" fill="hsl(240 100% 97.58321399010207%)" />
  <rect x="135" y="295" width="30" height="30" fill="hsl(240 100% 95.1281070040431%)" />
  <rect x="170" y="295" width="30" height="30" fill="hsl(240 100% 90.55333869762204%)" />
  <rect x="205" y="295" width="30" height="30" fill="hsl(240 100% 99.44917992463674%)" />
  <rect x="240" y="295" width="30" height="30" fill="hsl(240 100% 50%)" />
  <rect x="275" y="295" width="30" height="30" fill="hsl(240 100% 50.25306265924671%)" />
  <rect x="310" y="295" width="30" height="30" fill="hsl(240 100% 99.49298579953431%)" />
  <rect x="345" y="295" width="30" height="30" fill="hsl(240 100% 94.66535626635948%)" />
  <rect x="415" y="295" width="30" height="30" fill="hsl(240 100% 54.670585449611444%)" />
  <rect x="450" y="295" width="30" height="30" fill="hsl(240 100% 99.32299442275568%)" />
  <rect x="485" y="295" width="30" height="30" fill="hsl(240 100% 88.4928136927244%)" />
  <rect x="520" y="295" width="30" height="30" fill="hsl(240 100% 57.314424949494345%)" />
  <rect x="695" y="295" width="30" height="30" fill="hsl(240 100% 97.57520185283805%)" />
  <rect x="800" y="295" width="30" height="30" fill="hsl(240 100% 99.56530488302886%)" />
  <rect x="835" y="295" width="30" height="30" fill="hsl(240 100% 99.9546085238633%)" />
  <rect x="65" y="330" width="30" height="30" fill="hsl(240 100% 88.62872195433044%)" />
  <rect x="100" y="330" width="30" height="30" fill="hsl(240 100% 94.76821963161586%)" />
  <rect x="135" y="330" width="30" height="30" fill="hsl(240 100% 97.14877795839756%)" />
  <rect x="170" y="330" width="30" height="30" fill="hsl(240 100% 88.40242265376666%)" />
  <rect x="205" y="330" width="30" height="30" fill="hsl(240 100% 99.19855576982926%)" />
  <rect x="240" y="330" width="30" height="30" fill="hsl(240 100% 79.19247908379818%)" />
  <rect x="275" y="330" width="30" height="30" fill="hsl(240 100% 88.38612572042439%)" />
  <rect x="310" y="330" width="30" height="30" fill="rgb(255 255 255 / 50%)" />
  <rect x="345" y="330" width="30" height="30" fill="hsl(240 100% 97.29632637857175%)" />
  <rect x="415" y="330" width="30" height="30" fill="hsl(240 100% 85.75325701904879%)" />
  <rect x="450" y="330" width="30" height="30" fill="hsl(240 100% 99.815888474391%)" />
  <rect x="485" y="330" width="30" height="30" fill="hsl(240 100% 72.12012295041079%)" />
  <rect x="520" y="330" width="30" height="30" fill="hsl(240 100% 76.70246883069399%)" />
  <rect x="590" y="330" width="30" height="30" fill="hsl(240 100% 93.8481024894987%)" />
  <rect x="625" y="330" width="30" height="30" fill="hsl(240 100% 50%)" />
  <rect x="765" y="330" width="30" height="30" fill="hsl(240 100% 95.23142723096339%)" />
  <rect x="800" y="330" width="30" height="30" fill="hsl(240 100% 99.20357559127889%)" />
  <rect x="835" y="330" width="30" height="30" fill="hsl(240 100% 80.90536152078212%)" />
  <rect x="65" y="365" width="30" height="30" fill="hsl(240 100% 56.980347009693666%)" />
  <rect x="100" y="365" width="30" height="30" fill="hsl(240 100% 72.13347541389815%)" />
  <rect x="135" y="365" width="30" height="30" fill="hsl(240 100% 82.01908044021742%)" />
  <rect x="170" y="365" width="30" height="30" fill="hsl(240 100% 50%)" />
  <rect x="205" y="365" width="30" height="30" fill="hsl(240 100% 96.16996589617037%)" />
  <rect x="240" y="365" width="30" height="30" fill="hsl(240 100% 59.523962884000134%)" />
  <rect x="275" y="365" width="30" height="30" fill="hsl(240 100% 92.51767780277507%)" />
  <rect x="310" y="365" width="30" height="30" fill="hsl(240 100% 99.86131219744156%)" />
  <rect x="415" y="365" width="30" height="30" fill="hsl(240 100% 66.42737326009961%)" />
  <rect x="520" y="365" width="30" height="30" fill="hsl(240 100% 85.89114162497734%)" />
  <rect x="625" y="365" width="30" height="30" fill="hsl(240 100% 99.64472881870512%)" />
  <rect x="730" y="365" width="30" height="30" fill="hsl(240 100% 63.21137917864503%)" />
  <rect x="765" y="365" width="30" height="30" fill="hsl(240 100% 98.10149254616785%)" />
  <rect x="835" y="365" width="30" height="30" fill="hsl(240 100% 98.76844078412823%)" />
  <rect x="65" y="400" width="30" height="30" fill="hsl(240 100% 97.72880588693346%)" />
  <rect x="100" y="400" width="30" height="30" fill="hsl(240 100% 99.27321353135886%)" />
  <rect x="135" y="400" width="30" height="30" fill="hsl(240 100% 99.60189994281465%)" />
  <rect x="170" y="400" width="30" height="30" fill="hsl(240 100% 94.36186688112733%)" />
  <rect x="205" y="400" width="30" height="30" fill="hsl(240 100% 99.06187414623963%)" />
  <rect x="240" y="400" width="30" height="30" fill="hsl(240 100% 85.83685105749035%)" />
  <rect x="275" y="400" width="30" height="30" fill="hsl(240 100% 94.27750841388261%)" />
  <rect x="310" y="400" width="30" height="30" fill="rgb(255 255 255 / 50%)" />
  <rect x="380" y="400" width="30" height="30" fill="rgb(255 255 255 / 50%)" />
  <rect x="415" y="400" width="30" height="30" fill="hsl(240 100% 92.62724300835733%)" />
  <rect x="450" y="400" width="30" height="30" fill="hsl(240 100% 99.96649173143786%)" />
  <rect x="485" y="400" width="30" height="30" fill="hsl(240 100% 73.37723030016943%)" />
  <rect x="520" y="400" width="30" height="30" fill="hsl(240 100% 50%)" />
  <rect x="555" y="400" width="30" height="30" fill="hsl(240 100% 98.90456445573803%)" />
  <rect x="660" y="400" width="30" height="30" fill="rgb(255 255 255 / 50%)" />
  <rect x="835" y="400" width="30" height="30" fill="hsl(240 100% 99.06368072668388%)" />
  <rect x="65" y="435" width="30" height="30" fill="hsl(240 100% 92.88138302522077%)" />
  <rect x="240" y="435" width="30" height="30" fill="hsl(240 100% 50%)" />
  <rect x="310" y="435" width="30" height="30" fill="hsl(240 100% 94.33407027166386%)" />
  <rect x="415" y="435" width="30" height="30" fill="hsl(240 100% 86.98932317551191%)" />
  <rect x="450" y="435" width="30" height="30" fill="hsl(240 100% 99.7856025426387%)" />
  <rect x="65" y="470" width="30" height="30" fill="hsl(240 100% 50%)" />
  <rect x="240" y="470" width="30" height="30" fill="hsl(240 100% 50.18285674480165%)" />
  <rect x="310" y="470" width="30" height="30" fill="hsl(240 100% 97.15482848570537%)" />
  <rect x="415" y="470" width="30" height="30" fill="hsl(240 100% 89.20548594832592%)" />
  <rect x="450" y="470" width="30" height="30" fill="hsl(240 100% 99.56991938907314%)" />
</svg>
