<svg xmlns="http://www.w3.org/2000/svg" viewBox="0 0 590 295">
  <rect x="0" y="0" width="590" height="295" rx="5" ry="5" fill="#222" />
  <text x="60" y="100" fill="white" font-family="sans-serif" font-weight="bold" font-size="12" text-anchor="end" dominant-baseline="middle">ba</text>
  <text x="60" y="135" fill="white" font-family="sans-serif" font-weight="bold" font-size="12" text-anchor="end" dominant-baseline="middle">gmm</text>
  <text x="60" y="170" fill="white" font-family="sans-serif" font-weight="bold" font-size="12" text-anchor="end" dominant-baseline="middle">hello</text>
  <text x="60" y="205" fill="white" font-family="sans-serif" font-weight="bold" font-size="12" text-anchor="end" dominant-baseline="middle">ht</text>
  <text x="60" y="240" fill="white" font-family="sans-serif" font-weight="bold" font-size="12" text-anchor="end" dominant-baseline="middle">kmeans</text>
  <text x="60" y="275" fill="white" font-family="sans-serif" font-weight="bold" font-size="12" text-anchor="end" dominant-baseline="middle">lstm</text>
  <text x="80" y="80" fill="white" font-family="sans-serif" font-weight="bold" font-size="12" text-anchor="end" dominant-baseline="middle" transform="rotate(90 80 80)">adept</text>
  <text x="115" y="80" fill="white" font-family="sans-serif" font-weight="bold" font-size="12" text-anchor="end" dominant-baseline="middle" transform="rotate(90 115 80)">adol-c</text>
  <text x="150" y="80" fill="white" font-family="sans-serif" font-weight="bold" font-size="12" text-anchor="end" dominant-baseline="middle" transform="rotate(90 150 80)">cppad</text>
  <text x="185" y="80" fill="white" font-family="sans-serif" font-weight="bold" font-size="12" text-anchor="end" dominant-baseline="middle" transform="rotate(90 185 80)">enzyme</text>
  <text x="220" y="80" fill="white" font-family="sans-serif" font-weight="bold" font-size="12" text-anchor="end" dominant-baseline="middle" transform="rotate(90 220 80)">finite</text>
  <text x="255" y="80" fill="white" font-family="sans-serif" font-weight="bold" font-size="12" text-anchor="end" dominant-baseline="middle" transform="rotate(90 255 80)">floretta</text>
  <text x="290" y="80" fill="white" font-family="sans-serif" font-weight="bold" font-size="12" text-anchor="end" dominant-baseline="middle" transform="rotate(90 290 80)">futhark</text>
  <text x="325" y="80" fill="white" font-family="sans-serif" font-weight="bold" font-size="12" text-anchor="end" dominant-baseline="middle" transform="rotate(90 325 80)">haskell</text>
  <text x="360" y="80" fill="white" font-family="sans-serif" font-weight="bold" font-size="12" text-anchor="end" dominant-baseline="middle" transform="rotate(90 360 80)">jax</text>
  <text x="395" y="80" fill="white" font-family="sans-serif" font-weight="bold" font-size="12" text-anchor="end" dominant-baseline="middle" transform="rotate(90 395 80)">manual</text>
  <text x="430" y="80" fill="white" font-family="sans-serif" font-weight="bold" font-size="12" text-anchor="end" dominant-baseline="middle" transform="rotate(90 430 80)">pytorch</text>
  <text x="465" y="80" fill="white" font-family="sans-serif" font-weight="bold" font-size="12" text-anchor="end" dominant-baseline="middle" transform="rotate(90 465 80)">scilean</text>
  <text x="500" y="80" fill="white" font-family="sans-serif" font-weight="bold" font-size="12" text-anchor="end" dominant-baseline="middle" transform="rotate(90 500 80)">tapenade</text>
  <text x="535" y="80" fill="white" font-family="sans-serif" font-weight="bold" font-size="12" text-anchor="end" dominant-baseline="middle" transform="rotate(90 535 80)">tensorflow</text>
  <text x="570" y="80" fill="white" font-family="sans-serif" font-weight="bold" font-size="12" text-anchor="end" dominant-baseline="middle" transform="rotate(90 570 80)">zygote</text>
  <rect x="65" y="85" width="30" height="30" fill="hsl(240 100% 84.4256893028694%)" />
  <rect x="100" y="85" width="30" height="30" fill="hsl(240 100% 98.02632535119477%)" />
  <rect x="170" y="85" width="30" height="30" fill="hsl(240 100% 50%)" />
  <rect x="205" y="85" width="30" height="30" fill="hsl(240 100% 91.92213399227212%)" />
  <rect x="275" y="85" width="30" height="30" fill="hsl(240 100% 75.97432113039176%)" />
  <rect x="380" y="85" width="30" height="30" fill="hsl(240 100% 50.39699290619562%)" />
  <rect x="415" y="85" width="30" height="30" fill="hsl(240 100% 99.9919679015614%)" />
  <rect x="485" y="85" width="30" height="30" fill="hsl(240 100% 73.67427925079565%)" />
  <rect x="520" y="85" width="30" height="30" fill="hsl(240 100% 99.9844130036104%)" />
  <rect x="65" y="120" width="30" height="30" fill="hsl(240 100% 96.87040912393856%)" />
  <rect x="100" y="120" width="30" height="30" fill="hsl(240 100% 97.36201908039364%)" />
  <rect x="135" y="120" width="30" height="30" fill="hsl(240 100% 98.24125323600094%)" />
  <rect x="170" y="120" width="30" height="30" fill="hsl(240 100% 83.62072487171493%)" />
  <rect x="205" y="120" width="30" height="30" fill="hsl(240 100% 99.99494424350068%)" />
  <rect x="275" y="120" width="30" height="30" fill="hsl(240 100% 82.22910547504785%)" />
  <rect x="345" y="120" width="30" height="30" fill="hsl(240 100% 71.54962897684183%)" />
  <rect x="380" y="120" width="30" height="30" fill="hsl(240 100% 63.05546137558441%)" />
  <rect x="415" y="120" width="30" height="30" fill="hsl(240 100% 50%)" />
  <rect x="450" y="120" width="30" height="30" fill="hsl(240 100% 93.05580915965037%)" />
  <rect x="485" y="120" width="30" height="30" fill="hsl(240 100% 66.47175389854863%)" />
  <rect x="520" y="120" width="30" height="30" fill="hsl(240 100% 85.29324014447067%)" />
  <rect x="65" y="155" width="30" height="30" fill="hsl(240 100% 50%)" />
  <rect x="100" y="155" width="30" height="30" fill="hsl(240 100% 50%)" />
  <rect x="135" y="155" width="30" height="30" fill="hsl(240 100% 50%)" />
  <rect x="170" y="155" width="30" height="30" fill="hsl(240 100% 50%)" />
  <rect x="205" y="155" width="30" height="30" fill="hsl(240 100% 50%)" />
  <rect x="240" y="155" width="30" height="30" fill="hsl(240 100% 50%)" />
  <rect x="275" y="155" width="30" height="30" fill="hsl(240 100% 50%)" />
  <rect x="310" y="155" width="30" height="30" fill="hsl(240 100% 50%)" />
  <rect x="345" y="155" width="30" height="30" fill="hsl(240 100% 50%)" />
  <rect x="380" y="155" width="30" height="30" fill="hsl(240 100% 50%)" />
  <rect x="415" y="155" width="30" height="30" fill="hsl(240 100% 50%)" />
  <rect x="450" y="155" width="30" height="30" fill="hsl(240 100% 50%)" />
  <rect x="485" y="155" width="30" height="30" fill="hsl(240 100% 50%)" />
  <rect x="520" y="155" width="30" height="30" fill="hsl(240 100% 50%)" />
  <rect x="555" y="155" width="30" height="30" fill="hsl(240 100% 50%)" />
  <rect x="65" y="190" width="30" height="30" fill="hsl(240 100% 97.24905935331527%)" />
  <rect x="100" y="190" width="30" height="30" fill="hsl(240 100% 98.10292364980698%)" />
  <rect x="170" y="190" width="30" height="30" fill="hsl(240 100% 95.26710108427223%)" />
  <rect x="205" y="190" width="30" height="30" fill="hsl(240 100% 99.23275979234668%)" />
  <rect x="275" y="190" width="30" height="30" fill="hsl(240 100% 92.08524090668536%)" />
  <rect x="380" y="190" width="30" height="30" fill="hsl(240 100% 50%)" />
  <rect x="415" y="190" width="30" height="30" fill="hsl(240 100% 99.97069807850629%)" />
  <rect x="485" y="190" width="30" height="30" fill="hsl(240 100% 99.42697134428185%)" />
  <rect x="520" y="190" width="30" height="30" fill="hsl(240 100% 99.5075865043412%)" />
  <rect x="100" y="225" width="30" height="30" fill="hsl(240 100% 99.87475607180177%)" />
  <rect x="170" y="225" width="30" height="30" fill="hsl(240 100% 87.97764374073175%)" />
  <rect x="275" y="225" width="30" height="30" fill="hsl(240 100% 85.23925873145835%)" />
  <rect x="310" y="225" width="30" height="30" fill="hsl(240 100% 99.99234266964558%)" />
  <rect x="345" y="225" width="30" height="30" fill="hsl(240 100% 50%)" />
  <rect x="380" y="225" width="30" height="30" fill="hsl(240 100% 77.15149988330398%)" />
  <rect x="415" y="225" width="30" height="30" fill="hsl(240 100% 85.98492664148549%)" />
  <rect x="65" y="260" width="30" height="30" fill="hsl(240 100% 68.69080620256194%)" />
  <rect x="100" y="260" width="30" height="30" fill="hsl(240 100% 79.80079267484845%)" />
  <rect x="135" y="260" width="30" height="30" fill="hsl(240 100% 88.50731266918812%)" />
  <rect x="170" y="260" width="30" height="30" fill="hsl(240 100% 50%)" />
  <rect x="205" y="260" width="30" height="30" fill="hsl(240 100% 99.79519577391075%)" />
  <rect x="275" y="260" width="30" height="30" fill="hsl(240 100% 62.550508283780225%)" />
  <rect x="380" y="260" width="30" height="30" fill="hsl(240 100% 78.17797827553095%)" />
  <rect x="415" y="260" width="30" height="30" fill="hsl(240 100% 99.65950221397387%)" />
  <rect x="485" y="260" width="30" height="30" fill="hsl(240 100% 59.045754918237506%)" />
  <rect x="520" y="260" width="30" height="30" fill="hsl(240 100% 98.06165150888432%)" />
</svg>
