<svg xmlns="http://www.w3.org/2000/svg" viewBox="0 0 870 505">
  <rect x="0" y="0" width="870" height="505" rx="5" ry="5" fill="#222" />
  <text x="60" y="100" fill="white" font-family="sans-serif" font-weight="bold" font-size="12" text-anchor="end" dominant-baseline="middle">ba</text>
  <text x="60" y="135" fill="white" font-family="sans-serif" font-weight="bold" font-size="12" text-anchor="end" dominant-baseline="middle">det</text>
  <text x="60" y="170" fill="white" font-family="sans-serif" font-weight="bold" font-size="12" text-anchor="end" dominant-baseline="middle">gmm</text>
  <text x="60" y="205" fill="white" font-family="sans-serif" font-weight="bold" font-size="12" text-anchor="end" dominant-baseline="middle">hello</text>
  <text x="60" y="240" fill="white" font-family="sans-serif" font-weight="bold" font-size="12" text-anchor="end" dominant-baseline="middle">ht</text>
  <text x="60" y="275" fill="white" font-family="sans-serif" font-weight="bold" font-size="12" text-anchor="end" dominant-baseline="middle">kmeans</text>
  <text x="60" y="310" fill="white" font-family="sans-serif" font-weight="bold" font-size="12" text-anchor="end" dominant-baseline="middle">llsq</text>
  <text x="60" y="345" fill="white" font-family="sans-serif" font-weight="bold" font-size="12" text-anchor="end" dominant-baseline="middle">lse</text>
  <text x="60" y="380" fill="white" font-family="sans-serif" font-weight="bold" font-size="12" text-anchor="end" dominant-baseline="middle">lstm</text>
  <text x="60" y="415" fill="white" font-family="sans-serif" font-weight="bold" font-size="12" text-anchor="end" dominant-baseline="middle">ode</text>
  <text x="60" y="450" fill="white" font-family="sans-serif" font-weight="bold" font-size="12" text-anchor="end" dominant-baseline="middle">particle</text>
  <text x="60" y="485" fill="white" font-family="sans-serif" font-weight="bold" font-size="12" text-anchor="end" dominant-baseline="middle">saddle</text>
  <text x="80" y="80" fill="white" font-family="sans-serif" font-weight="bold" font-size="12" text-anchor="end" dominant-baseline="middle" transform="rotate(90 80 80)">ad-hpp</text>
  <text x="115" y="80" fill="white" font-family="sans-serif" font-weight="bold" font-size="12" text-anchor="end" dominant-baseline="middle" transform="rotate(90 115 80)">adept</text>
  <text x="150" y="80" fill="white" font-family="sans-serif" font-weight="bold" font-size="12" text-anchor="end" dominant-baseline="middle" transform="rotate(90 150 80)">adol-c</text>
  <text x="185" y="80" fill="white" font-family="sans-serif" font-weight="bold" font-size="12" text-anchor="end" dominant-baseline="middle" transform="rotate(90 185 80)">codipack</text>
  <text x="220" y="80" fill="white" font-family="sans-serif" font-weight="bold" font-size="12" text-anchor="end" dominant-baseline="middle" transform="rotate(90 220 80)">cppad</text>
  <text x="255" y="80" fill="white" font-family="sans-serif" font-weight="bold" font-size="12" text-anchor="end" dominant-baseline="middle" transform="rotate(90 255 80)">enzyme</text>
  <text x="290" y="80" fill="white" font-family="sans-serif" font-weight="bold" font-size="12" text-anchor="end" dominant-baseline="middle" transform="rotate(90 290 80)">enzyme-jl</text>
  <text x="325" y="80" fill="white" font-family="sans-serif" font-weight="bold" font-size="12" text-anchor="end" dominant-baseline="middle" transform="rotate(90 325 80)">finite</text>
  <text x="360" y="80" fill="white" font-family="sans-serif" font-weight="bold" font-size="12" text-anchor="end" dominant-baseline="middle" transform="rotate(90 360 80)">floretta</text>
  <text x="395" y="80" fill="white" font-family="sans-serif" font-weight="bold" font-size="12" text-anchor="end" dominant-baseline="middle" transform="rotate(90 395 80)">forwarddiff-jl</text>
  <text x="430" y="80" fill="white" font-family="sans-serif" font-weight="bold" font-size="12" text-anchor="end" dominant-baseline="middle" transform="rotate(90 430 80)">futhark</text>
  <text x="465" y="80" fill="white" font-family="sans-serif" font-weight="bold" font-size="12" text-anchor="end" dominant-baseline="middle" transform="rotate(90 465 80)">haskell</text>
  <text x="500" y="80" fill="white" font-family="sans-serif" font-weight="bold" font-size="12" text-anchor="end" dominant-baseline="middle" transform="rotate(90 500 80)">jax</text>
  <text x="535" y="80" fill="white" font-family="sans-serif" font-weight="bold" font-size="12" text-anchor="end" dominant-baseline="middle" transform="rotate(90 535 80)">manual</text>
  <text x="570" y="80" fill="white" font-family="sans-serif" font-weight="bold" font-size="12" text-anchor="end" dominant-baseline="middle" transform="rotate(90 570 80)">mooncake-jl</text>
  <text x="605" y="80" fill="white" font-family="sans-serif" font-weight="bold" font-size="12" text-anchor="end" dominant-baseline="middle" transform="rotate(90 605 80)">ocaml</text>
  <text x="640" y="80" fill="white" font-family="sans-serif" font-weight="bold" font-size="12" text-anchor="end" dominant-baseline="middle" transform="rotate(90 640 80)">pytorch</text>
  <text x="675" y="80" fill="white" font-family="sans-serif" font-weight="bold" font-size="12" text-anchor="end" dominant-baseline="middle" transform="rotate(90 675 80)">reversediff-jl</text>
  <text x="710" y="80" fill="white" font-family="sans-serif" font-weight="bold" font-size="12" text-anchor="end" dominant-baseline="middle" transform="rotate(90 710 80)">scilean</text>
  <text x="745" y="80" fill="white" font-family="sans-serif" font-weight="bold" font-size="12" text-anchor="end" dominant-baseline="middle" transform="rotate(90 745 80)">tapenade</text>
  <text x="780" y="80" fill="white" font-family="sans-serif" font-weight="bold" font-size="12" text-anchor="end" dominant-baseline="middle" transform="rotate(90 780 80)">tensorflow</text>
  <text x="815" y="80" fill="white" font-family="sans-serif" font-weight="bold" font-size="12" text-anchor="end" dominant-baseline="middle" transform="rotate(90 815 80)">tensorflow-js</text>
  <text x="850" y="80" fill="white" font-family="sans-serif" font-weight="bold" font-size="12" text-anchor="end" dominant-baseline="middle" transform="rotate(90 850 80)">zygote</text>
  <rect x="65" y="85" width="30" height="30" fill="hsl(240 100% 80.45360410686212%)" />
  <rect x="100" y="85" width="30" height="30" fill="hsl(240 100% 82.05673898248477%)" />
  <rect x="135" y="85" width="30" height="30" fill="hsl(240 100% 97.88506371671956%)" />
  <rect x="170" y="85" width="30" height="30" fill="hsl(240 100% 81.61420147087833%)" />
  <rect x="205" y="85" width="30" height="30" fill="hsl(240 100% 98.93726776050572%)" />
  <rect x="240" y="85" width="30" height="30" fill="hsl(240 100% 50%)" />
  <rect x="310" y="85" width="30" height="30" fill="hsl(240 100% 92.80793674931009%)" />
  <rect x="415" y="85" width="30" height="30" fill="hsl(240 100% 66.58567503959682%)" />
  <rect x="520" y="85" width="30" height="30" fill="hsl(240 100% 53.69307150600747%)" />
  <rect x="625" y="85" width="30" height="30" fill="rgb(255 255 255 / 50%)" />
  <rect x="730" y="85" width="30" height="30" fill="hsl(240 100% 73.85572109850625%)" />
  <rect x="765" y="85" width="30" height="30" fill="rgb(255 255 255 / 50%)" />
  <rect x="835" y="85" width="30" height="30" fill="hsl(240 100% 99.71383255617644%)" />
  <rect x="65" y="120" width="30" height="30" fill="hsl(240 100% 50%)" />
  <rect x="100" y="120" width="30" height="30" fill="hsl(240 100% 84.8038813843643%)" />
  <rect x="135" y="120" width="30" height="30" fill="hsl(240 100% 85.53724100428744%)" />
  <rect x="170" y="120" width="30" height="30" fill="hsl(240 100% 52.87586065542817%)" />
  <rect x="205" y="120" width="30" height="30" fill="hsl(240 100% 92.75319519534246%)" />
  <rect x="240" y="120" width="30" height="30" fill="hsl(240 100% 91.9424032499537%)" />
  <rect x="275" y="120" width="30" height="30" fill="hsl(240 100% 99.36228246012851%)" />
  <rect x="310" y="120" width="30" height="30" fill="hsl(240 100% 99.05370026848162%)" />
  <rect x="380" y="120" width="30" height="30" fill="hsl(240 100% 93.45903415610289%)" />
  <rect x="415" y="120" width="30" height="30" fill="hsl(240 100% 94.65937926045088%)" />
  <rect x="450" y="120" width="30" height="30" fill="hsl(240 100% 97.86594651235215%)" />
  <rect x="520" y="120" width="30" height="30" fill="hsl(240 100% 79.79806213382317%)" />
  <rect x="555" y="120" width="30" height="30" fill="hsl(240 100% 87.72351624196146%)" />
  <rect x="660" y="120" width="30" height="30" fill="rgb(255 255 255 / 50%)" />
  <rect x="835" y="120" width="30" height="30" fill="rgb(255 255 255 / 50%)" />
  <rect x="65" y="155" width="30" height="30" fill="hsl(240 100% 98.89023087688808%)" />
  <rect x="100" y="155" width="30" height="30" fill="hsl(240 100% 98.89196707216675%)" />
  <rect x="135" y="155" width="30" height="30" fill="hsl(240 100% 99.20972402412251%)" />
  <rect x="170" y="155" width="30" height="30" fill="hsl(240 100% 98.57555730419139%)" />
  <rect x="205" y="155" width="30" height="30" fill="hsl(240 100% 99.85122381001415%)" />
  <rect x="240" y="155" width="30" height="30" fill="hsl(240 100% 91.27009607781504%)" />
  <rect x="275" y="155" width="30" height="30" fill="hsl(240 100% 92.17377737872008%)" />
  <rect x="310" y="155" width="30" height="30" fill="rgb(255 255 255 / 50%)" />
  <rect x="415" y="155" width="30" height="30" fill="hsl(240 100% 93.01153900859994%)" />
  <rect x="485" y="155" width="30" height="30" fill="hsl(240 100% 50%)" />
  <rect x="520" y="155" width="30" height="30" fill="hsl(240 100% 81.45964682952406%)" />
  <rect x="590" y="155" width="30" height="30" fill="hsl(240 100% 99.57696563653876%)" />
  <rect x="625" y="155" width="30" height="30" fill="hsl(240 100% 68.48453878572738%)" />
  <rect x="695" y="155" width="30" height="30" fill="hsl(240 100% 95.47521287957582%)" />
  <rect x="730" y="155" width="30" height="30" fill="hsl(240 100% 83.86186933939871%)" />
  <rect x="765" y="155" width="30" height="30" fill="hsl(240 100% 99.58875501009109%)" />
  <rect x="835" y="155" width="30" height="30" fill="hsl(240 100% 96.29451817788046%)" />
  <rect x="65" y="190" width="30" height="30" fill="hsl(240 100% 50%)" />
  <rect x="100" y="190" width="30" height="30" fill="hsl(240 100% 50%)" />
  <rect x="135" y="190" width="30" height="30" fill="hsl(240 100% 50%)" />
  <rect x="170" y="190" width="30" height="30" fill="hsl(240 100% 50%)" />
  <rect x="205" y="190" width="30" height="30" fill="hsl(240 100% 50%)" />
  <rect x="240" y="190" width="30" height="30" fill="hsl(240 100% 50%)" />
  <rect x="275" y="190" width="30" height="30" fill="hsl(240 100% 50%)" />
  <rect x="310" y="190" width="30" height="30" fill="hsl(240 100% 50%)" />
  <rect x="345" y="190" width="30" height="30" fill="hsl(240 100% 50%)" />
  <rect x="380" y="190" width="30" height="30" fill="hsl(240 100% 50%)" />
  <rect x="415" y="190" width="30" height="30" fill="hsl(240 100% 50%)" />
  <rect x="450" y="190" width="30" height="30" fill="hsl(240 100% 50%)" />
  <rect x="485" y="190" width="30" height="30" fill="hsl(240 100% 50%)" />
  <rect x="520" y="190" width="30" height="30" fill="hsl(240 100% 50%)" />
  <rect x="555" y="190" width="30" height="30" fill="hsl(240 100% 50%)" />
  <rect x="590" y="190" width="30" height="30" fill="hsl(240 100% 50%)" />
  <rect x="625" y="190" width="30" height="30" fill="hsl(240 100% 50%)" />
  <rect x="660" y="190" width="30" height="30" fill="hsl(240 100% 50%)" />
  <rect x="695" y="190" width="30" height="30" fill="hsl(240 100% 50%)" />
  <rect x="730" y="190" width="30" height="30" fill="hsl(240 100% 50%)" />
  <rect x="765" y="190" width="30" height="30" fill="hsl(240 100% 50%)" />
  <rect x="800" y="190" width="30" height="30" fill="hsl(240 100% 50%)" />
  <rect x="835" y="190" width="30" height="30" fill="hsl(240 100% 50%)" />
  <rect x="100" y="225" width="30" height="30" fill="hsl(240 100% 96.2787059659685%)" />
  <rect x="135" y="225" width="30" height="30" fill="hsl(240 100% 89.46446455299949%)" />
  <rect x="170" y="225" width="30" height="30" fill="hsl(240 100% 87.8505790350431%)" />
  <rect x="240" y="225" width="30" height="30" fill="hsl(240 100% 90.26845606091615%)" />
  <rect x="310" y="225" width="30" height="30" fill="rgb(255 255 255 / 50%)" />
  <rect x="415" y="225" width="30" height="30" fill="hsl(240 100% 89.3706336843548%)" />
  <rect x="520" y="225" width="30" height="30" fill="hsl(240 100% 50%)" />
  <rect x="625" y="225" width="30" height="30" fill="rgb(255 255 255 / 50%)" />
  <rect x="730" y="225" width="30" height="30" fill="hsl(240 100% 92.34760738318414%)" />
  <rect x="765" y="225" width="30" height="30" fill="rgb(255 255 255 / 50%)" />
  <rect x="835" y="225" width="30" height="30" fill="hsl(240 100% 93.61331666542947%)" />
  <rect x="65" y="260" width="30" height="30" fill="hsl(240 100% 99.87554448342566%)" />
  <rect x="135" y="260" width="30" height="30" fill="hsl(240 100% 99.87232594995035%)" />
  <rect x="170" y="260" width="30" height="30" fill="hsl(240 100% 98.99368193692217%)" />
  <rect x="205" y="260" width="30" height="30" fill="rgb(255 255 255 / 50%)" />
  <rect x="240" y="260" width="30" height="30" fill="hsl(240 100% 87.1958030136267%)" />
  <rect x="310" y="260" width="30" height="30" fill="rgb(255 255 255 / 50%)" />
  <rect x="415" y="260" width="30" height="30" fill="hsl(240 100% 80.93783762071402%)" />
  <rect x="450" y="260" width="30" height="30" fill="rgb(255 255 255 / 50%)" />
  <rect x="485" y="260" width="30" height="30" fill="hsl(240 100% 50%)" />
  <rect x="520" y="260" width="30" height="30" fill="hsl(240 100% 72.66142415698124%)" />
  <rect x="625" y="260" width="30" height="30" fill="hsl(240 100% 96.98753544925779%)" />
  <rect x="695" y="260" width="30" height="30" fill="hsl(240 100% 93.54605172859324%)" />
  <rect x="65" y="295" width="30" height="30" fill="hsl(240 100% 86.51777809487928%)" />
  <rect x="100" y="295" width="30" height="30" fill="hsl(240 100% 97.5056923530541%)" />
  <rect x="135" y="295" width="30" height="30" fill="hsl(240 100% 95.1142510287789%)" />
  <rect x="170" y="295" width="30" height="30" fill="hsl(240 100% 89.44155823743459%)" />
  <rect x="205" y="295" width="30" height="30" fill="hsl(240 100% 99.48470029452733%)" />
  <rect x="240" y="295" width="30" height="30" fill="hsl(240 100% 50.56918478578225%)" />
  <rect x="275" y="295" width="30" height="30" fill="hsl(240 100% 50%)" />
  <rect x="310" y="295" width="30" height="30" fill="hsl(240 100% 99.49903144454149%)" />
  <rect x="345" y="295" width="30" height="30" fill="hsl(240 100% 94.70081208427266%)" />
  <rect x="415" y="295" width="30" height="30" fill="hsl(240 100% 55.218176903331596%)" />
  <rect x="450" y="295" width="30" height="30" fill="hsl(240 100% 99.31940269550861%)" />
  <rect x="485" y="295" width="30" height="30" fill="hsl(240 100% 87.94714998737676%)" />
  <rect x="520" y="295" width="30" height="30" fill="hsl(240 100% 57.83355298602713%)" />
  <rect x="695" y="295" width="30" height="30" fill="hsl(240 100% 97.60536528272256%)" />
  <rect x="800" y="295" width="30" height="30" fill="hsl(240 100% 99.58230916005539%)" />
  <rect x="835" y="295" width="30" height="30" fill="hsl(240 100% 99.95064809243264%)" />
  <rect x="65" y="330" width="30" height="30" fill="hsl(240 100% 89.13447978674508%)" />
  <rect x="100" y="330" width="30" height="30" fill="hsl(240 100% 95.31606322274907%)" />
  <rect x="135" y="330" width="30" height="30" fill="hsl(240 100% 97.5012720228795%)" />
  <rect x="170" y="330" width="30" height="30" fill="hsl(240 100% 89.31498278864181%)" />
  <rect x="205" y="330" width="30" height="30" fill="hsl(240 100% 99.33490214055685%)" />
  <rect x="240" y="330" width="30" height="30" fill="hsl(240 100% 82.51642613806496%)" />
  <rect x="275" y="330" width="30" height="30" fill="hsl(240 100% 89.51452188801917%)" />
  <rect x="310" y="330" width="30" height="30" fill="rgb(255 255 255 / 50%)" />
  <rect x="345" y="330" width="30" height="30" fill="hsl(240 100% 97.5331684993645%)" />
  <rect x="415" y="330" width="30" height="30" fill="hsl(240 100% 87.97885241403606%)" />
  <rect x="450" y="330" width="30" height="30" fill="hsl(240 100% 99.84002563079514%)" />
  <rect x="485" y="330" width="30" height="30" fill="hsl(240 100% 73.71470371300887%)" />
  <rect x="520" y="330" width="30" height="30" fill="hsl(240 100% 75.02852745807047%)" />
  <rect x="590" y="330" width="30" height="30" fill="hsl(240 100% 94.78157931387624%)" />
  <rect x="625" y="330" width="30" height="30" fill="hsl(240 100% 50%)" />
  <rect x="765" y="330" width="30" height="30" fill="hsl(240 100% 96.28560158665782%)" />
  <rect x="800" y="330" width="30" height="30" fill="hsl(240 100% 99.38499455940625%)" />
  <rect x="835" y="330" width="30" height="30" fill="hsl(240 100% 83.98784997672371%)" />
  <rect x="65" y="365" width="30" height="30" fill="hsl(240 100% 57.32456492364643%)" />
  <rect x="100" y="365" width="30" height="30" fill="hsl(240 100% 70.72358043111782%)" />
  <rect x="135" y="365" width="30" height="30" fill="hsl(240 100% 81.770843218573%)" />
  <rect x="170" y="365" width="30" height="30" fill="hsl(240 100% 50%)" />
  <rect x="205" y="365" width="30" height="30" fill="hsl(240 100% 96.03449297250194%)" />
  <rect x="240" y="365" width="30" height="30" fill="hsl(240 100% 58.89155460876359%)" />
  <rect x="275" y="365" width="30" height="30" fill="hsl(240 100% 92.24337423203423%)" />
  <rect x="310" y="365" width="30" height="30" fill="hsl(240 100% 99.85880757826054%)" />
  <rect x="415" y="365" width="30" height="30" fill="hsl(240 100% 66.28517186021253%)" />
  <rect x="520" y="365" width="30" height="30" fill="hsl(240 100% 85.95481615144148%)" />
  <rect x="625" y="365" width="30" height="30" fill="hsl(240 100% 99.62856866429675%)" />
  <rect x="730" y="365" width="30" height="30" fill="hsl(240 100% 63.089078273630385%)" />
  <rect x="765" y="365" width="30" height="30" fill="hsl(240 100% 98.14988824833306%)" />
  <rect x="835" y="365" width="30" height="30" fill="hsl(240 100% 98.89847653734054%)" />
  <rect x="65" y="400" width="30" height="30" fill="hsl(240 100% 97.76179407241467%)" />
  <rect x="100" y="400" width="30" height="30" fill="hsl(240 100% 99.38620348049226%)" />
  <rect x="135" y="400" width="30" height="30" fill="hsl(240 100% 99.58387630803925%)" />
  <rect x="170" y="400" width="30" height="30" fill="hsl(240 100% 92.96119730570811%)" />
  <rect x="205" y="400" width="30" height="30" fill="hsl(240 100% 99.08047726948173%)" />
  <rect x="240" y="400" width="30" height="30" fill="hsl(240 100% 82.98377096005389%)" />
  <rect x="275" y="400" width="30" height="30" fill="hsl(240 100% 94.52746809666657%)" />
  <rect x="310" y="400" width="30" height="30" fill="rgb(255 255 255 / 50%)" />
  <rect x="380" y="400" width="30" height="30" fill="rgb(255 255 255 / 50%)" />
  <rect x="415" y="400" width="30" height="30" fill="hsl(240 100% 92.77381008998644%)" />
  <rect x="450" y="400" width="30" height="30" fill="hsl(240 100% 99.96380725759929%)" />
  <rect x="485" y="400" width="30" height="30" fill="hsl(240 100% 74.95324274634264%)" />
  <rect x="520" y="400" width="30" height="30" fill="hsl(240 100% 50%)" />
  <rect x="555" y="400" width="30" height="30" fill="hsl(240 100% 98.95702486399198%)" />
  <rect x="660" y="400" width="30" height="30" fill="rgb(255 255 255 / 50%)" />
  <rect x="835" y="400" width="30" height="30" fill="hsl(240 100% 98.90145174869724%)" />
  <rect x="65" y="435" width="30" height="30" fill="hsl(240 100% 93.32882243648945%)" />
  <rect x="240" y="435" width="30" height="30" fill="hsl(240 100% 50%)" />
  <rect x="310" y="435" width="30" height="30" fill="hsl(240 100% 93.84788884992503%)" />
  <rect x="415" y="435" width="30" height="30" fill="hsl(240 100% 87.00584072483286%)" />
  <rect x="450" y="435" width="30" height="30" fill="hsl(240 100% 99.78435241366975%)" />
  <rect x="65" y="470" width="30" height="30" fill="hsl(240 100% 50.10710805088109%)" />
  <rect x="240" y="470" width="30" height="30" fill="hsl(240 100% 50%)" />
  <rect x="310" y="470" width="30" height="30" fill="hsl(240 100% 96.9910300523858%)" />
  <rect x="415" y="470" width="30" height="30" fill="hsl(240 100% 89.15407691948846%)" />
  <rect x="450" y="470" width="30" height="30" fill="hsl(240 100% 99.55947445872%)" />
</svg>
