<svg xmlns="http://www.w3.org/2000/svg" viewBox="0 0 870 505">
  <rect x="0" y="0" width="870" height="505" rx="5" ry="5" fill="#222" />
  <text x="60" y="100" fill="white" font-family="sans-serif" font-weight="bold" font-size="12" text-anchor="end" dominant-baseline="middle">ba</text>
  <text x="60" y="135" fill="white" font-family="sans-serif" font-weight="bold" font-size="12" text-anchor="end" dominant-baseline="middle">det</text>
  <text x="60" y="170" fill="white" font-family="sans-serif" font-weight="bold" font-size="12" text-anchor="end" dominant-baseline="middle">gmm</text>
  <text x="60" y="205" fill="white" font-family="sans-serif" font-weight="bold" font-size="12" text-anchor="end" dominant-baseline="middle">hello</text>
  <text x="60" y="240" fill="white" font-family="sans-serif" font-weight="bold" font-size="12" text-anchor="end" dominant-baseline="middle">ht</text>
  <text x="60" y="275" fill="white" font-family="sans-serif" font-weight="bold" font-size="12" text-anchor="end" dominant-baseline="middle">kmeans</text>
  <text x="60" y="310" fill="white" font-family="sans-serif" font-weight="bold" font-size="12" text-anchor="end" dominant-baseline="middle">llsq</text>
  <text x="60" y="345" fill="white" font-family="sans-serif" font-weight="bold" font-size="12" text-anchor="end" dominant-baseline="middle">lse</text>
  <text x="60" y="380" fill="white" font-family="sans-serif" font-weight="bold" font-size="12" text-anchor="end" dominant-baseline="middle">lstm</text>
  <text x="60" y="415" fill="white" font-family="sans-serif" font-weight="bold" font-size="12" text-anchor="end" dominant-baseline="middle">ode</text>
  <text x="60" y="450" fill="white" font-family="sans-serif" font-weight="bold" font-size="12" text-anchor="end" dominant-baseline="middle">particle</text>
  <text x="60" y="485" fill="white" font-family="sans-serif" font-weight="bold" font-size="12" text-anchor="end" dominant-baseline="middle">saddle</text>
  <text x="80" y="80" fill="white" font-family="sans-serif" font-weight="bold" font-size="12" text-anchor="end" dominant-baseline="middle" transform="rotate(90 80 80)">ad-hpp</text>
  <text x="115" y="80" fill="white" font-family="sans-serif" font-weight="bold" font-size="12" text-anchor="end" dominant-baseline="middle" transform="rotate(90 115 80)">adept</text>
  <text x="150" y="80" fill="white" font-family="sans-serif" font-weight="bold" font-size="12" text-anchor="end" dominant-baseline="middle" transform="rotate(90 150 80)">adol-c</text>
  <text x="185" y="80" fill="white" font-family="sans-serif" font-weight="bold" font-size="12" text-anchor="end" dominant-baseline="middle" transform="rotate(90 185 80)">codipack</text>
  <text x="220" y="80" fill="white" font-family="sans-serif" font-weight="bold" font-size="12" text-anchor="end" dominant-baseline="middle" transform="rotate(90 220 80)">cppad</text>
  <text x="255" y="80" fill="white" font-family="sans-serif" font-weight="bold" font-size="12" text-anchor="end" dominant-baseline="middle" transform="rotate(90 255 80)">enzyme</text>
  <text x="290" y="80" fill="white" font-family="sans-serif" font-weight="bold" font-size="12" text-anchor="end" dominant-baseline="middle" transform="rotate(90 290 80)">enzyme-jl</text>
  <text x="325" y="80" fill="white" font-family="sans-serif" font-weight="bold" font-size="12" text-anchor="end" dominant-baseline="middle" transform="rotate(90 325 80)">finite</text>
  <text x="360" y="80" fill="white" font-family="sans-serif" font-weight="bold" font-size="12" text-anchor="end" dominant-baseline="middle" transform="rotate(90 360 80)">floretta</text>
  <text x="395" y="80" fill="white" font-family="sans-serif" font-weight="bold" font-size="12" text-anchor="end" dominant-baseline="middle" transform="rotate(90 395 80)">forwarddiff-jl</text>
  <text x="430" y="80" fill="white" font-family="sans-serif" font-weight="bold" font-size="12" text-anchor="end" dominant-baseline="middle" transform="rotate(90 430 80)">futhark</text>
  <text x="465" y="80" fill="white" font-family="sans-serif" font-weight="bold" font-size="12" text-anchor="end" dominant-baseline="middle" transform="rotate(90 465 80)">haskell</text>
  <text x="500" y="80" fill="white" font-family="sans-serif" font-weight="bold" font-size="12" text-anchor="end" dominant-baseline="middle" transform="rotate(90 500 80)">jax</text>
  <text x="535" y="80" fill="white" font-family="sans-serif" font-weight="bold" font-size="12" text-anchor="end" dominant-baseline="middle" transform="rotate(90 535 80)">manual</text>
  <text x="570" y="80" fill="white" font-family="sans-serif" font-weight="bold" font-size="12" text-anchor="end" dominant-baseline="middle" transform="rotate(90 570 80)">mooncake-jl</text>
  <text x="605" y="80" fill="white" font-family="sans-serif" font-weight="bold" font-size="12" text-anchor="end" dominant-baseline="middle" transform="rotate(90 605 80)">ocaml</text>
  <text x="640" y="80" fill="white" font-family="sans-serif" font-weight="bold" font-size="12" text-anchor="end" dominant-baseline="middle" transform="rotate(90 640 80)">pytorch</text>
  <text x="675" y="80" fill="white" font-family="sans-serif" font-weight="bold" font-size="12" text-anchor="end" dominant-baseline="middle" transform="rotate(90 675 80)">reversediff-jl</text>
  <text x="710" y="80" fill="white" font-family="sans-serif" font-weight="bold" font-size="12" text-anchor="end" dominant-baseline="middle" transform="rotate(90 710 80)">scilean</text>
  <text x="745" y="80" fill="white" font-family="sans-serif" font-weight="bold" font-size="12" text-anchor="end" dominant-baseline="middle" transform="rotate(90 745 80)">tapenade</text>
  <text x="780" y="80" fill="white" font-family="sans-serif" font-weight="bold" font-size="12" text-anchor="end" dominant-baseline="middle" transform="rotate(90 780 80)">tensorflow</text>
  <text x="815" y="80" fill="white" font-family="sans-serif" font-weight="bold" font-size="12" text-anchor="end" dominant-baseline="middle" transform="rotate(90 815 80)">tensorflow-js</text>
  <text x="850" y="80" fill="white" font-family="sans-serif" font-weight="bold" font-size="12" text-anchor="end" dominant-baseline="middle" transform="rotate(90 850 80)">zygote</text>
  <rect x="65" y="85" width="30" height="30" fill="hsl(240 100% 80.65497284368504%)" />
  <rect x="100" y="85" width="30" height="30" fill="hsl(240 100% 82.44667433611535%)" />
  <rect x="135" y="85" width="30" height="30" fill="hsl(240 100% 97.92544257928095%)" />
  <rect x="170" y="85" width="30" height="30" fill="hsl(240 100% 81.6287033120822%)" />
  <rect x="205" y="85" width="30" height="30" fill="hsl(240 100% 98.95066613452596%)" />
  <rect x="240" y="85" width="30" height="30" fill="hsl(240 100% 50%)" />
  <rect x="310" y="85" width="30" height="30" fill="hsl(240 100% 92.86740735141164%)" />
  <rect x="415" y="85" width="30" height="30" fill="hsl(240 100% 67.95013026397419%)" />
  <rect x="520" y="85" width="30" height="30" fill="hsl(240 100% 54.10820977560048%)" />
  <rect x="625" y="85" width="30" height="30" fill="rgb(255 255 255 / 50%)" />
  <rect x="730" y="85" width="30" height="30" fill="hsl(240 100% 73.95942670448864%)" />
  <rect x="765" y="85" width="30" height="30" fill="rgb(255 255 255 / 50%)" />
  <rect x="835" y="85" width="30" height="30" fill="hsl(240 100% 99.69859806625739%)" />
  <rect x="65" y="120" width="30" height="30" fill="hsl(240 100% 51.740313049267066%)" />
  <rect x="100" y="120" width="30" height="30" fill="hsl(240 100% 83.72762805941481%)" />
  <rect x="135" y="120" width="30" height="30" fill="hsl(240 100% 83.68616856551208%)" />
  <rect x="170" y="120" width="30" height="30" fill="hsl(240 100% 50%)" />
  <rect x="205" y="120" width="30" height="30" fill="hsl(240 100% 92.40121427185723%)" />
  <rect x="240" y="120" width="30" height="30" fill="hsl(240 100% 91.51685677302314%)" />
  <rect x="275" y="120" width="30" height="30" fill="hsl(240 100% 99.34493215568902%)" />
  <rect x="310" y="120" width="30" height="30" fill="hsl(240 100% 98.90622810118424%)" />
  <rect x="380" y="120" width="30" height="30" fill="hsl(240 100% 93.22438846820744%)" />
  <rect x="415" y="120" width="30" height="30" fill="hsl(240 100% 94.37060461180808%)" />
  <rect x="450" y="120" width="30" height="30" fill="hsl(240 100% 97.83177529727465%)" />
  <rect x="520" y="120" width="30" height="30" fill="hsl(240 100% 78.75222184375197%)" />
  <rect x="555" y="120" width="30" height="30" fill="hsl(240 100% 89.76047670838959%)" />
  <rect x="660" y="120" width="30" height="30" fill="rgb(255 255 255 / 50%)" />
  <rect x="835" y="120" width="30" height="30" fill="rgb(255 255 255 / 50%)" />
  <rect x="65" y="155" width="30" height="30" fill="hsl(240 100% 98.0203025877275%)" />
  <rect x="100" y="155" width="30" height="30" fill="hsl(240 100% 98.81191169577617%)" />
  <rect x="135" y="155" width="30" height="30" fill="hsl(240 100% 99.26516259988128%)" />
  <rect x="170" y="155" width="30" height="30" fill="hsl(240 100% 98.10496530251757%)" />
  <rect x="205" y="155" width="30" height="30" fill="hsl(240 100% 99.84599892898927%)" />
  <rect x="240" y="155" width="30" height="30" fill="hsl(240 100% 91.09204910962453%)" />
  <rect x="275" y="155" width="30" height="30" fill="hsl(240 100% 92.62200966737728%)" />
  <rect x="310" y="155" width="30" height="30" fill="rgb(255 255 255 / 50%)" />
  <rect x="415" y="155" width="30" height="30" fill="hsl(240 100% 92.78459655551563%)" />
  <rect x="485" y="155" width="30" height="30" fill="hsl(240 100% 50%)" />
  <rect x="520" y="155" width="30" height="30" fill="hsl(240 100% 80.54076154218788%)" />
  <rect x="590" y="155" width="30" height="30" fill="hsl(240 100% 99.56211255889272%)" />
  <rect x="625" y="155" width="30" height="30" fill="hsl(240 100% 66.53042751645853%)" />
  <rect x="695" y="155" width="30" height="30" fill="hsl(240 100% 95.35157625813892%)" />
  <rect x="730" y="155" width="30" height="30" fill="hsl(240 100% 83.34024022338784%)" />
  <rect x="765" y="155" width="30" height="30" fill="hsl(240 100% 99.36922113900911%)" />
  <rect x="835" y="155" width="30" height="30" fill="hsl(240 100% 96.10263450391109%)" />
  <rect x="65" y="190" width="30" height="30" fill="hsl(240 100% 50%)" />
  <rect x="100" y="190" width="30" height="30" fill="hsl(240 100% 50%)" />
  <rect x="135" y="190" width="30" height="30" fill="hsl(240 100% 50%)" />
  <rect x="170" y="190" width="30" height="30" fill="hsl(240 100% 50%)" />
  <rect x="205" y="190" width="30" height="30" fill="hsl(240 100% 50%)" />
  <rect x="240" y="190" width="30" height="30" fill="hsl(240 100% 50%)" />
  <rect x="275" y="190" width="30" height="30" fill="hsl(240 100% 50%)" />
  <rect x="310" y="190" width="30" height="30" fill="hsl(240 100% 50%)" />
  <rect x="345" y="190" width="30" height="30" fill="hsl(240 100% 50%)" />
  <rect x="380" y="190" width="30" height="30" fill="hsl(240 100% 50%)" />
  <rect x="415" y="190" width="30" height="30" fill="hsl(240 100% 50%)" />
  <rect x="450" y="190" width="30" height="30" fill="hsl(240 100% 50%)" />
  <rect x="485" y="190" width="30" height="30" fill="hsl(240 100% 50%)" />
  <rect x="520" y="190" width="30" height="30" fill="hsl(240 100% 50%)" />
  <rect x="555" y="190" width="30" height="30" fill="hsl(240 100% 50%)" />
  <rect x="590" y="190" width="30" height="30" fill="hsl(240 100% 50%)" />
  <rect x="625" y="190" width="30" height="30" fill="hsl(240 100% 50%)" />
  <rect x="660" y="190" width="30" height="30" fill="hsl(240 100% 50%)" />
  <rect x="695" y="190" width="30" height="30" fill="hsl(240 100% 50%)" />
  <rect x="730" y="190" width="30" height="30" fill="hsl(240 100% 50%)" />
  <rect x="765" y="190" width="30" height="30" fill="hsl(240 100% 50%)" />
  <rect x="800" y="190" width="30" height="30" fill="hsl(240 100% 50%)" />
  <rect x="835" y="190" width="30" height="30" fill="hsl(240 100% 50%)" />
  <rect x="100" y="225" width="30" height="30" fill="hsl(240 100% 96.30492925835532%)" />
  <rect x="135" y="225" width="30" height="30" fill="hsl(240 100% 86.58997799002911%)" />
  <rect x="170" y="225" width="30" height="30" fill="hsl(240 100% 88.32739764939805%)" />
  <rect x="240" y="225" width="30" height="30" fill="hsl(240 100% 90.88537141277656%)" />
  <rect x="310" y="225" width="30" height="30" fill="rgb(255 255 255 / 50%)" />
  <rect x="415" y="225" width="30" height="30" fill="hsl(240 100% 89.47207564541465%)" />
  <rect x="520" y="225" width="30" height="30" fill="hsl(240 100% 50%)" />
  <rect x="625" y="225" width="30" height="30" fill="rgb(255 255 255 / 50%)" />
  <rect x="730" y="225" width="30" height="30" fill="hsl(240 100% 92.46197179029028%)" />
  <rect x="765" y="225" width="30" height="30" fill="rgb(255 255 255 / 50%)" />
  <rect x="835" y="225" width="30" height="30" fill="hsl(240 100% 93.72557980575576%)" />
  <rect x="65" y="260" width="30" height="30" fill="hsl(240 100% 99.87482869914547%)" />
  <rect x="135" y="260" width="30" height="30" fill="hsl(240 100% 99.88091245604775%)" />
  <rect x="170" y="260" width="30" height="30" fill="hsl(240 100% 98.99107444293607%)" />
  <rect x="205" y="260" width="30" height="30" fill="rgb(255 255 255 / 50%)" />
  <rect x="240" y="260" width="30" height="30" fill="hsl(240 100% 87.28019508174712%)" />
  <rect x="310" y="260" width="30" height="30" fill="rgb(255 255 255 / 50%)" />
  <rect x="415" y="260" width="30" height="30" fill="hsl(240 100% 80.99546956448425%)" />
  <rect x="450" y="260" width="30" height="30" fill="rgb(255 255 255 / 50%)" />
  <rect x="485" y="260" width="30" height="30" fill="hsl(240 100% 50%)" />
  <rect x="520" y="260" width="30" height="30" fill="hsl(240 100% 72.47633227325889%)" />
  <rect x="625" y="260" width="30" height="30" fill="hsl(240 100% 97.1808748609933%)" />
  <rect x="695" y="260" width="30" height="30" fill="hsl(240 100% 94.14321496395713%)" />
  <rect x="65" y="295" width="30" height="30" fill="hsl(240 100% 86.34895420181489%)" />
  <rect x="100" y="295" width="30" height="30" fill="hsl(240 100% 97.50259188315935%)" />
  <rect x="135" y="295" width="30" height="30" fill="hsl(240 100% 94.29245860620777%)" />
  <rect x="170" y="295" width="30" height="30" fill="hsl(240 100% 89.36670765978099%)" />
  <rect x="205" y="295" width="30" height="30" fill="hsl(240 100% 99.48127867960605%)" />
  <rect x="240" y="295" width="30" height="30" fill="hsl(240 100% 50.79535618892808%)" />
  <rect x="275" y="295" width="30" height="30" fill="hsl(240 100% 50%)" />
  <rect x="310" y="295" width="30" height="30" fill="hsl(240 100% 99.50134084762401%)" />
  <rect x="345" y="295" width="30" height="30" fill="hsl(240 100% 94.70881217932073%)" />
  <rect x="415" y="295" width="30" height="30" fill="hsl(240 100% 55.43282454010273%)" />
  <rect x="450" y="295" width="30" height="30" fill="hsl(240 100% 99.32942841573282%)" />
  <rect x="485" y="295" width="30" height="30" fill="hsl(240 100% 87.99082277911033%)" />
  <rect x="520" y="295" width="30" height="30" fill="hsl(240 100% 58.019495935940704%)" />
  <rect x="695" y="295" width="30" height="30" fill="hsl(240 100% 97.73406263021626%)" />
  <rect x="800" y="295" width="30" height="30" fill="hsl(240 100% 99.60930320981497%)" />
  <rect x="835" y="295" width="30" height="30" fill="hsl(240 100% 99.95668954383935%)" />
  <rect x="65" y="330" width="30" height="30" fill="hsl(240 100% 87.26288534735961%)" />
  <rect x="100" y="330" width="30" height="30" fill="hsl(240 100% 94.87029118006245%)" />
  <rect x="135" y="330" width="30" height="30" fill="hsl(240 100% 96.95953765930363%)" />
  <rect x="170" y="330" width="30" height="30" fill="hsl(240 100% 86.92929492705565%)" />
  <rect x="205" y="330" width="30" height="30" fill="hsl(240 100% 99.19848142525105%)" />
  <rect x="240" y="330" width="30" height="30" fill="hsl(240 100% 79.53205539735815%)" />
  <rect x="275" y="330" width="30" height="30" fill="hsl(240 100% 87.18234016337283%)" />
  <rect x="310" y="330" width="30" height="30" fill="rgb(255 255 255 / 50%)" />
  <rect x="345" y="330" width="30" height="30" fill="hsl(240 100% 97.10041947173427%)" />
  <rect x="415" y="330" width="30" height="30" fill="hsl(240 100% 85.70496983306407%)" />
  <rect x="450" y="330" width="30" height="30" fill="hsl(240 100% 99.80664166770246%)" />
  <rect x="485" y="330" width="30" height="30" fill="hsl(240 100% 70.76046119350724%)" />
  <rect x="520" y="330" width="30" height="30" fill="hsl(240 100% 70.10921423191704%)" />
  <rect x="590" y="330" width="30" height="30" fill="hsl(240 100% 93.74574891936479%)" />
  <rect x="625" y="330" width="30" height="30" fill="hsl(240 100% 50%)" />
  <rect x="765" y="330" width="30" height="30" fill="hsl(240 100% 94.70049720243452%)" />
  <rect x="800" y="330" width="30" height="30" fill="hsl(240 100% 99.21702355009589%)" />
  <rect x="835" y="330" width="30" height="30" fill="hsl(240 100% 81.05745333253759%)" />
  <rect x="65" y="365" width="30" height="30" fill="hsl(240 100% 57.33808164415264%)" />
  <rect x="100" y="365" width="30" height="30" fill="hsl(240 100% 70.18595203816761%)" />
  <rect x="135" y="365" width="30" height="30" fill="hsl(240 100% 79.23565155275436%)" />
  <rect x="170" y="365" width="30" height="30" fill="hsl(240 100% 50%)" />
  <rect x="205" y="365" width="30" height="30" fill="hsl(240 100% 96.03940245314698%)" />
  <rect x="240" y="365" width="30" height="30" fill="hsl(240 100% 59.14498751062758%)" />
  <rect x="275" y="365" width="30" height="30" fill="hsl(240 100% 92.90536923642436%)" />
  <rect x="310" y="365" width="30" height="30" fill="hsl(240 100% 99.86038961881013%)" />
  <rect x="415" y="365" width="30" height="30" fill="hsl(240 100% 65.7441607816869%)" />
  <rect x="520" y="365" width="30" height="30" fill="hsl(240 100% 86.00302015441812%)" />
  <rect x="625" y="365" width="30" height="30" fill="hsl(240 100% 99.66182316541536%)" />
  <rect x="730" y="365" width="30" height="30" fill="hsl(240 100% 57.1224575251636%)" />
  <rect x="765" y="365" width="30" height="30" fill="hsl(240 100% 98.2486771419876%)" />
  <rect x="835" y="365" width="30" height="30" fill="hsl(240 100% 98.71801193021305%)" />
  <rect x="65" y="400" width="30" height="30" fill="hsl(240 100% 97.75718031421326%)" />
  <rect x="100" y="400" width="30" height="30" fill="hsl(240 100% 99.36385113015247%)" />
  <rect x="135" y="400" width="30" height="30" fill="hsl(240 100% 99.59770905228618%)" />
  <rect x="170" y="400" width="30" height="30" fill="hsl(240 100% 93.64475118804589%)" />
  <rect x="205" y="400" width="30" height="30" fill="hsl(240 100% 99.07770866069355%)" />
  <rect x="240" y="400" width="30" height="30" fill="hsl(240 100% 86.5326650395718%)" />
  <rect x="275" y="400" width="30" height="30" fill="hsl(240 100% 94.38815895886579%)" />
  <rect x="310" y="400" width="30" height="30" fill="rgb(255 255 255 / 50%)" />
  <rect x="380" y="400" width="30" height="30" fill="rgb(255 255 255 / 50%)" />
  <rect x="415" y="400" width="30" height="30" fill="hsl(240 100% 92.69504985002537%)" />
  <rect x="450" y="400" width="30" height="30" fill="hsl(240 100% 99.96546358935774%)" />
  <rect x="485" y="400" width="30" height="30" fill="hsl(240 100% 73.9715965342914%)" />
  <rect x="520" y="400" width="30" height="30" fill="hsl(240 100% 50%)" />
  <rect x="555" y="400" width="30" height="30" fill="hsl(240 100% 98.93345039997241%)" />
  <rect x="660" y="400" width="30" height="30" fill="rgb(255 255 255 / 50%)" />
  <rect x="835" y="400" width="30" height="30" fill="hsl(240 100% 99.07736062463583%)" />
  <rect x="65" y="435" width="30" height="30" fill="hsl(240 100% 93.30839479587357%)" />
  <rect x="240" y="435" width="30" height="30" fill="hsl(240 100% 50%)" />
  <rect x="310" y="435" width="30" height="30" fill="hsl(240 100% 93.85729040887875%)" />
  <rect x="415" y="435" width="30" height="30" fill="hsl(240 100% 87.01182917225012%)" />
  <rect x="450" y="435" width="30" height="30" fill="hsl(240 100% 99.79464919469277%)" />
  <rect x="65" y="470" width="30" height="30" fill="hsl(240 100% 50.21920000101673%)" />
  <rect x="240" y="470" width="30" height="30" fill="hsl(240 100% 50%)" />
  <rect x="310" y="470" width="30" height="30" fill="hsl(240 100% 96.97501448124999%)" />
  <rect x="415" y="470" width="30" height="30" fill="hsl(240 100% 89.09540720052873%)" />
  <rect x="450" y="470" width="30" height="30" fill="hsl(240 100% 99.57091743347401%)" />
</svg>
