<svg xmlns="http://www.w3.org/2000/svg" viewBox="0 0 870 505">
  <rect x="0" y="0" width="870" height="505" rx="5" ry="5" fill="#222" />
  <text x="60" y="100" fill="white" font-family="sans-serif" font-weight="bold" font-size="12" text-anchor="end" dominant-baseline="middle">ba</text>
  <text x="60" y="135" fill="white" font-family="sans-serif" font-weight="bold" font-size="12" text-anchor="end" dominant-baseline="middle">det</text>
  <text x="60" y="170" fill="white" font-family="sans-serif" font-weight="bold" font-size="12" text-anchor="end" dominant-baseline="middle">gmm</text>
  <text x="60" y="205" fill="white" font-family="sans-serif" font-weight="bold" font-size="12" text-anchor="end" dominant-baseline="middle">hello</text>
  <text x="60" y="240" fill="white" font-family="sans-serif" font-weight="bold" font-size="12" text-anchor="end" dominant-baseline="middle">ht</text>
  <text x="60" y="275" fill="white" font-family="sans-serif" font-weight="bold" font-size="12" text-anchor="end" dominant-baseline="middle">kmeans</text>
  <text x="60" y="310" fill="white" font-family="sans-serif" font-weight="bold" font-size="12" text-anchor="end" dominant-baseline="middle">llsq</text>
  <text x="60" y="345" fill="white" font-family="sans-serif" font-weight="bold" font-size="12" text-anchor="end" dominant-baseline="middle">lse</text>
  <text x="60" y="380" fill="white" font-family="sans-serif" font-weight="bold" font-size="12" text-anchor="end" dominant-baseline="middle">lstm</text>
  <text x="60" y="415" fill="white" font-family="sans-serif" font-weight="bold" font-size="12" text-anchor="end" dominant-baseline="middle">ode</text>
  <text x="60" y="450" fill="white" font-family="sans-serif" font-weight="bold" font-size="12" text-anchor="end" dominant-baseline="middle">particle</text>
  <text x="60" y="485" fill="white" font-family="sans-serif" font-weight="bold" font-size="12" text-anchor="end" dominant-baseline="middle">saddle</text>
  <text x="80" y="80" fill="white" font-family="sans-serif" font-weight="bold" font-size="12" text-anchor="end" dominant-baseline="middle" transform="rotate(90 80 80)">ad-hpp</text>
  <text x="115" y="80" fill="white" font-family="sans-serif" font-weight="bold" font-size="12" text-anchor="end" dominant-baseline="middle" transform="rotate(90 115 80)">adept</text>
  <text x="150" y="80" fill="white" font-family="sans-serif" font-weight="bold" font-size="12" text-anchor="end" dominant-baseline="middle" transform="rotate(90 150 80)">adol-c</text>
  <text x="185" y="80" fill="white" font-family="sans-serif" font-weight="bold" font-size="12" text-anchor="end" dominant-baseline="middle" transform="rotate(90 185 80)">codipack</text>
  <text x="220" y="80" fill="white" font-family="sans-serif" font-weight="bold" font-size="12" text-anchor="end" dominant-baseline="middle" transform="rotate(90 220 80)">cppad</text>
  <text x="255" y="80" fill="white" font-family="sans-serif" font-weight="bold" font-size="12" text-anchor="end" dominant-baseline="middle" transform="rotate(90 255 80)">enzyme</text>
  <text x="290" y="80" fill="white" font-family="sans-serif" font-weight="bold" font-size="12" text-anchor="end" dominant-baseline="middle" transform="rotate(90 290 80)">enzyme-jl</text>
  <text x="325" y="80" fill="white" font-family="sans-serif" font-weight="bold" font-size="12" text-anchor="end" dominant-baseline="middle" transform="rotate(90 325 80)">finite</text>
  <text x="360" y="80" fill="white" font-family="sans-serif" font-weight="bold" font-size="12" text-anchor="end" dominant-baseline="middle" transform="rotate(90 360 80)">floretta</text>
  <text x="395" y="80" fill="white" font-family="sans-serif" font-weight="bold" font-size="12" text-anchor="end" dominant-baseline="middle" transform="rotate(90 395 80)">forwarddiff-jl</text>
  <text x="430" y="80" fill="white" font-family="sans-serif" font-weight="bold" font-size="12" text-anchor="end" dominant-baseline="middle" transform="rotate(90 430 80)">futhark</text>
  <text x="465" y="80" fill="white" font-family="sans-serif" font-weight="bold" font-size="12" text-anchor="end" dominant-baseline="middle" transform="rotate(90 465 80)">haskell</text>
  <text x="500" y="80" fill="white" font-family="sans-serif" font-weight="bold" font-size="12" text-anchor="end" dominant-baseline="middle" transform="rotate(90 500 80)">jax</text>
  <text x="535" y="80" fill="white" font-family="sans-serif" font-weight="bold" font-size="12" text-anchor="end" dominant-baseline="middle" transform="rotate(90 535 80)">manual</text>
  <text x="570" y="80" fill="white" font-family="sans-serif" font-weight="bold" font-size="12" text-anchor="end" dominant-baseline="middle" transform="rotate(90 570 80)">mooncake-jl</text>
  <text x="605" y="80" fill="white" font-family="sans-serif" font-weight="bold" font-size="12" text-anchor="end" dominant-baseline="middle" transform="rotate(90 605 80)">ocaml</text>
  <text x="640" y="80" fill="white" font-family="sans-serif" font-weight="bold" font-size="12" text-anchor="end" dominant-baseline="middle" transform="rotate(90 640 80)">pytorch</text>
  <text x="675" y="80" fill="white" font-family="sans-serif" font-weight="bold" font-size="12" text-anchor="end" dominant-baseline="middle" transform="rotate(90 675 80)">reversediff-jl</text>
  <text x="710" y="80" fill="white" font-family="sans-serif" font-weight="bold" font-size="12" text-anchor="end" dominant-baseline="middle" transform="rotate(90 710 80)">scilean</text>
  <text x="745" y="80" fill="white" font-family="sans-serif" font-weight="bold" font-size="12" text-anchor="end" dominant-baseline="middle" transform="rotate(90 745 80)">tapenade</text>
  <text x="780" y="80" fill="white" font-family="sans-serif" font-weight="bold" font-size="12" text-anchor="end" dominant-baseline="middle" transform="rotate(90 780 80)">tensorflow</text>
  <text x="815" y="80" fill="white" font-family="sans-serif" font-weight="bold" font-size="12" text-anchor="end" dominant-baseline="middle" transform="rotate(90 815 80)">tensorflow-js</text>
  <text x="850" y="80" fill="white" font-family="sans-serif" font-weight="bold" font-size="12" text-anchor="end" dominant-baseline="middle" transform="rotate(90 850 80)">zygote</text>
  <rect x="65" y="85" width="30" height="30" fill="hsl(240 100% 81.91924731532309%)" />
  <rect x="100" y="85" width="30" height="30" fill="hsl(240 100% 83.77291589229176%)" />
  <rect x="135" y="85" width="30" height="30" fill="hsl(240 100% 98.07927156696272%)" />
  <rect x="170" y="85" width="30" height="30" fill="hsl(240 100% 82.81660626457885%)" />
  <rect x="205" y="85" width="30" height="30" fill="hsl(240 100% 99.01940157662786%)" />
  <rect x="240" y="85" width="30" height="30" fill="hsl(240 100% 50%)" />
  <rect x="310" y="85" width="30" height="30" fill="hsl(240 100% 93.36911369222264%)" />
  <rect x="415" y="85" width="30" height="30" fill="hsl(240 100% 69.44683923025383%)" />
  <rect x="520" y="85" width="30" height="30" fill="hsl(240 100% 57.12437127502836%)" />
  <rect x="625" y="85" width="30" height="30" fill="rgb(255 255 255 / 50%)" />
  <rect x="730" y="85" width="30" height="30" fill="hsl(240 100% 75.82148963776118%)" />
  <rect x="765" y="85" width="30" height="30" fill="rgb(255 255 255 / 50%)" />
  <rect x="835" y="85" width="30" height="30" fill="hsl(240 100% 99.74983362554684%)" />
  <rect x="65" y="120" width="30" height="30" fill="hsl(240 100% 50%)" />
  <rect x="100" y="120" width="30" height="30" fill="hsl(240 100% 84.50679571307046%)" />
  <rect x="135" y="120" width="30" height="30" fill="hsl(240 100% 83.65993873647132%)" />
  <rect x="170" y="120" width="30" height="30" fill="hsl(240 100% 51.26484402387155%)" />
  <rect x="205" y="120" width="30" height="30" fill="hsl(240 100% 92.5639220826264%)" />
  <rect x="240" y="120" width="30" height="30" fill="hsl(240 100% 91.44174826398155%)" />
  <rect x="275" y="120" width="30" height="30" fill="hsl(240 100% 99.37898268542972%)" />
  <rect x="310" y="120" width="30" height="30" fill="hsl(240 100% 98.97741342106464%)" />
  <rect x="380" y="120" width="30" height="30" fill="hsl(240 100% 93.26012846051587%)" />
  <rect x="415" y="120" width="30" height="30" fill="hsl(240 100% 94.53236422978469%)" />
  <rect x="450" y="120" width="30" height="30" fill="hsl(240 100% 97.82139596509072%)" />
  <rect x="520" y="120" width="30" height="30" fill="hsl(240 100% 79.21332192018545%)" />
  <rect x="555" y="120" width="30" height="30" fill="hsl(240 100% 92.54929703141279%)" />
  <rect x="660" y="120" width="30" height="30" fill="rgb(255 255 255 / 50%)" />
  <rect x="835" y="120" width="30" height="30" fill="rgb(255 255 255 / 50%)" />
  <rect x="65" y="155" width="30" height="30" fill="hsl(240 100% 97.9982576933526%)" />
  <rect x="100" y="155" width="30" height="30" fill="hsl(240 100% 99.4683153183556%)" />
  <rect x="135" y="155" width="30" height="30" fill="hsl(240 100% 99.27889511014742%)" />
  <rect x="170" y="155" width="30" height="30" fill="hsl(240 100% 98.53013631388748%)" />
  <rect x="205" y="155" width="30" height="30" fill="hsl(240 100% 99.84239908543312%)" />
  <rect x="240" y="155" width="30" height="30" fill="hsl(240 100% 90.76082024769445%)" />
  <rect x="275" y="155" width="30" height="30" fill="hsl(240 100% 91.89883860274222%)" />
  <rect x="310" y="155" width="30" height="30" fill="rgb(255 255 255 / 50%)" />
  <rect x="415" y="155" width="30" height="30" fill="hsl(240 100% 92.60773775095129%)" />
  <rect x="485" y="155" width="30" height="30" fill="hsl(240 100% 50%)" />
  <rect x="520" y="155" width="30" height="30" fill="hsl(240 100% 80.07168556515445%)" />
  <rect x="590" y="155" width="30" height="30" fill="hsl(240 100% 99.55349075335405%)" />
  <rect x="625" y="155" width="30" height="30" fill="hsl(240 100% 66.26057853961441%)" />
  <rect x="695" y="155" width="30" height="30" fill="hsl(240 100% 95.24643917260003%)" />
  <rect x="730" y="155" width="30" height="30" fill="hsl(240 100% 82.96804073903326%)" />
  <rect x="765" y="155" width="30" height="30" fill="hsl(240 100% 99.44773164017367%)" />
  <rect x="835" y="155" width="30" height="30" fill="hsl(240 100% 96.1044267724612%)" />
  <rect x="65" y="190" width="30" height="30" fill="hsl(240 100% 50%)" />
  <rect x="100" y="190" width="30" height="30" fill="hsl(240 100% 50%)" />
  <rect x="135" y="190" width="30" height="30" fill="hsl(240 100% 50%)" />
  <rect x="170" y="190" width="30" height="30" fill="hsl(240 100% 50%)" />
  <rect x="205" y="190" width="30" height="30" fill="hsl(240 100% 50%)" />
  <rect x="240" y="190" width="30" height="30" fill="hsl(240 100% 50%)" />
  <rect x="275" y="190" width="30" height="30" fill="hsl(240 100% 50%)" />
  <rect x="310" y="190" width="30" height="30" fill="hsl(240 100% 50%)" />
  <rect x="345" y="190" width="30" height="30" fill="hsl(240 100% 50%)" />
  <rect x="380" y="190" width="30" height="30" fill="hsl(240 100% 50%)" />
  <rect x="415" y="190" width="30" height="30" fill="hsl(240 100% 50%)" />
  <rect x="450" y="190" width="30" height="30" fill="hsl(240 100% 50%)" />
  <rect x="485" y="190" width="30" height="30" fill="hsl(240 100% 50%)" />
  <rect x="520" y="190" width="30" height="30" fill="hsl(240 100% 50%)" />
  <rect x="555" y="190" width="30" height="30" fill="hsl(240 100% 50%)" />
  <rect x="590" y="190" width="30" height="30" fill="hsl(240 100% 50%)" />
  <rect x="625" y="190" width="30" height="30" fill="hsl(240 100% 50%)" />
  <rect x="660" y="190" width="30" height="30" fill="hsl(240 100% 50%)" />
  <rect x="695" y="190" width="30" height="30" fill="hsl(240 100% 50%)" />
  <rect x="730" y="190" width="30" height="30" fill="hsl(240 100% 50%)" />
  <rect x="765" y="190" width="30" height="30" fill="hsl(240 100% 50%)" />
  <rect x="800" y="190" width="30" height="30" fill="hsl(240 100% 50%)" />
  <rect x="835" y="190" width="30" height="30" fill="hsl(240 100% 50%)" />
  <rect x="100" y="225" width="30" height="30" fill="hsl(240 100% 96.29664807890886%)" />
  <rect x="135" y="225" width="30" height="30" fill="hsl(240 100% 86.32216500642426%)" />
  <rect x="170" y="225" width="30" height="30" fill="hsl(240 100% 87.97130797739308%)" />
  <rect x="240" y="225" width="30" height="30" fill="hsl(240 100% 90.39184721300869%)" />
  <rect x="310" y="225" width="30" height="30" fill="rgb(255 255 255 / 50%)" />
  <rect x="415" y="225" width="30" height="30" fill="hsl(240 100% 89.42794066147576%)" />
  <rect x="520" y="225" width="30" height="30" fill="hsl(240 100% 50%)" />
  <rect x="625" y="225" width="30" height="30" fill="rgb(255 255 255 / 50%)" />
  <rect x="730" y="225" width="30" height="30" fill="hsl(240 100% 92.43014845970761%)" />
  <rect x="765" y="225" width="30" height="30" fill="rgb(255 255 255 / 50%)" />
  <rect x="835" y="225" width="30" height="30" fill="hsl(240 100% 93.69432717326761%)" />
  <rect x="65" y="260" width="30" height="30" fill="hsl(240 100% 99.85024390251697%)" />
  <rect x="135" y="260" width="30" height="30" fill="hsl(240 100% 99.87904750276718%)" />
  <rect x="170" y="260" width="30" height="30" fill="hsl(240 100% 99.23302202949651%)" />
  <rect x="205" y="260" width="30" height="30" fill="rgb(255 255 255 / 50%)" />
  <rect x="240" y="260" width="30" height="30" fill="hsl(240 100% 86.73058368940535%)" />
  <rect x="310" y="260" width="30" height="30" fill="rgb(255 255 255 / 50%)" />
  <rect x="415" y="260" width="30" height="30" fill="hsl(240 100% 80.23096077360391%)" />
  <rect x="450" y="260" width="30" height="30" fill="rgb(255 255 255 / 50%)" />
  <rect x="485" y="260" width="30" height="30" fill="hsl(240 100% 50%)" />
  <rect x="520" y="260" width="30" height="30" fill="hsl(240 100% 71.58617065738756%)" />
  <rect x="625" y="260" width="30" height="30" fill="hsl(240 100% 97.1328427639106%)" />
  <rect x="695" y="260" width="30" height="30" fill="hsl(240 100% 93.9337928112878%)" />
  <rect x="65" y="295" width="30" height="30" fill="hsl(240 100% 85.99042351874601%)" />
  <rect x="100" y="295" width="30" height="30" fill="hsl(240 100% 97.500171290927%)" />
  <rect x="135" y="295" width="30" height="30" fill="hsl(240 100% 94.78129416763697%)" />
  <rect x="170" y="295" width="30" height="30" fill="hsl(240 100% 89.41682687032198%)" />
  <rect x="205" y="295" width="30" height="30" fill="hsl(240 100% 99.48834473216205%)" />
  <rect x="240" y="295" width="30" height="30" fill="hsl(240 100% 50.7743721650161%)" />
  <rect x="275" y="295" width="30" height="30" fill="hsl(240 100% 50%)" />
  <rect x="310" y="295" width="30" height="30" fill="hsl(240 100% 99.50186556140461%)" />
  <rect x="345" y="295" width="30" height="30" fill="hsl(240 100% 94.7355639435732%)" />
  <rect x="415" y="295" width="30" height="30" fill="hsl(240 100% 55.52429075544866%)" />
  <rect x="450" y="295" width="30" height="30" fill="hsl(240 100% 99.24420883163219%)" />
  <rect x="485" y="295" width="30" height="30" fill="hsl(240 100% 88.17141923396564%)" />
  <rect x="520" y="295" width="30" height="30" fill="hsl(240 100% 58.0165096024904%)" />
  <rect x="695" y="295" width="30" height="30" fill="hsl(240 100% 97.6171325570812%)" />
  <rect x="800" y="295" width="30" height="30" fill="hsl(240 100% 99.60257426132954%)" />
  <rect x="835" y="295" width="30" height="30" fill="hsl(240 100% 99.95657437681342%)" />
  <rect x="65" y="330" width="30" height="30" fill="hsl(240 100% 83.21335658967764%)" />
  <rect x="100" y="330" width="30" height="30" fill="hsl(240 100% 92.38178594257977%)" />
  <rect x="135" y="330" width="30" height="30" fill="hsl(240 100% 96.08969676275036%)" />
  <rect x="170" y="330" width="30" height="30" fill="hsl(240 100% 82.2903548639583%)" />
  <rect x="205" y="330" width="30" height="30" fill="hsl(240 100% 98.76908154956007%)" />
  <rect x="240" y="330" width="30" height="30" fill="hsl(240 100% 72.14387643091277%)" />
  <rect x="275" y="330" width="30" height="30" fill="hsl(240 100% 84.84780575510145%)" />
  <rect x="310" y="330" width="30" height="30" fill="rgb(255 255 255 / 50%)" />
  <rect x="345" y="330" width="30" height="30" fill="hsl(240 100% 96.13277777442313%)" />
  <rect x="415" y="330" width="30" height="30" fill="hsl(240 100% 80.70494501276517%)" />
  <rect x="450" y="330" width="30" height="30" fill="hsl(240 100% 99.74317549161354%)" />
  <rect x="485" y="330" width="30" height="30" fill="hsl(240 100% 60.654274388014365%)" />
  <rect x="520" y="330" width="30" height="30" fill="hsl(240 100% 59.78696825761614%)" />
  <rect x="590" y="330" width="30" height="30" fill="hsl(240 100% 92.58931573089086%)" />
  <rect x="625" y="330" width="30" height="30" fill="hsl(240 100% 50%)" />
  <rect x="765" y="330" width="30" height="30" fill="hsl(240 100% 93.66987956332812%)" />
  <rect x="800" y="330" width="30" height="30" fill="hsl(240 100% 98.94327996486807%)" />
  <rect x="835" y="330" width="30" height="30" fill="hsl(240 100% 73.77788363692835%)" />
  <rect x="65" y="365" width="30" height="30" fill="hsl(240 100% 57.6389104130798%)" />
  <rect x="100" y="365" width="30" height="30" fill="hsl(240 100% 71.5058106774545%)" />
  <rect x="135" y="365" width="30" height="30" fill="hsl(240 100% 80.69188391166135%)" />
  <rect x="170" y="365" width="30" height="30" fill="hsl(240 100% 50%)" />
  <rect x="205" y="365" width="30" height="30" fill="hsl(240 100% 96.07378777871891%)" />
  <rect x="240" y="365" width="30" height="30" fill="hsl(240 100% 59.720662921931456%)" />
  <rect x="275" y="365" width="30" height="30" fill="hsl(240 100% 92.2635708212778%)" />
  <rect x="310" y="365" width="30" height="30" fill="hsl(240 100% 99.859116924341%)" />
  <rect x="415" y="365" width="30" height="30" fill="hsl(240 100% 66.46042572474872%)" />
  <rect x="520" y="365" width="30" height="30" fill="hsl(240 100% 86.1564788456052%)" />
  <rect x="625" y="365" width="30" height="30" fill="hsl(240 100% 99.64286168315238%)" />
  <rect x="730" y="365" width="30" height="30" fill="hsl(240 100% 63.274438031061436%)" />
  <rect x="765" y="365" width="30" height="30" fill="hsl(240 100% 98.21120128695658%)" />
  <rect x="835" y="365" width="30" height="30" fill="hsl(240 100% 98.74351732227892%)" />
  <rect x="65" y="400" width="30" height="30" fill="hsl(240 100% 98.21364322160623%)" />
  <rect x="100" y="400" width="30" height="30" fill="hsl(240 100% 99.4875835366863%)" />
  <rect x="135" y="400" width="30" height="30" fill="hsl(240 100% 99.67198803705675%)" />
  <rect x="170" y="400" width="30" height="30" fill="hsl(240 100% 94.50837905455529%)" />
  <rect x="205" y="400" width="30" height="30" fill="hsl(240 100% 99.24615727804773%)" />
  <rect x="240" y="400" width="30" height="30" fill="hsl(240 100% 86.26642414392708%)" />
  <rect x="275" y="400" width="30" height="30" fill="hsl(240 100% 95.44308215120587%)" />
  <rect x="310" y="400" width="30" height="30" fill="rgb(255 255 255 / 50%)" />
  <rect x="380" y="400" width="30" height="30" fill="rgb(255 255 255 / 50%)" />
  <rect x="415" y="400" width="30" height="30" fill="hsl(240 100% 94.02770490240864%)" />
  <rect x="450" y="400" width="30" height="30" fill="hsl(240 100% 99.9713963361081%)" />
  <rect x="485" y="400" width="30" height="30" fill="hsl(240 100% 78.86749873951561%)" />
  <rect x="520" y="400" width="30" height="30" fill="hsl(240 100% 50%)" />
  <rect x="555" y="400" width="30" height="30" fill="hsl(240 100% 99.13191216989402%)" />
  <rect x="660" y="400" width="30" height="30" fill="rgb(255 255 255 / 50%)" />
  <rect x="835" y="400" width="30" height="30" fill="hsl(240 100% 99.17738014532081%)" />
  <rect x="65" y="435" width="30" height="30" fill="hsl(240 100% 93.29418368905596%)" />
  <rect x="240" y="435" width="30" height="30" fill="hsl(240 100% 50%)" />
  <rect x="310" y="435" width="30" height="30" fill="hsl(240 100% 93.86272532201498%)" />
  <rect x="415" y="435" width="30" height="30" fill="hsl(240 100% 87.00828263224014%)" />
  <rect x="450" y="435" width="30" height="30" fill="hsl(240 100% 99.78089927573353%)" />
  <rect x="65" y="470" width="30" height="30" fill="hsl(240 100% 50%)" />
  <rect x="240" y="470" width="30" height="30" fill="hsl(240 100% 50.01624075214705%)" />
  <rect x="310" y="470" width="30" height="30" fill="hsl(240 100% 97.00087092847612%)" />
  <rect x="415" y="470" width="30" height="30" fill="hsl(240 100% 89.05403923110202%)" />
  <rect x="450" y="470" width="30" height="30" fill="hsl(240 100% 99.47936324718707%)" />
</svg>
