<svg xmlns="http://www.w3.org/2000/svg" viewBox="0 0 660 295">
  <rect x="0" y="0" width="660" height="295" rx="5" ry="5" fill="#222" />
  <text x="60" y="100" fill="white" font-family="sans-serif" font-weight="bold" font-size="12" text-anchor="end" dominant-baseline="middle">ba</text>
  <text x="60" y="135" fill="white" font-family="sans-serif" font-weight="bold" font-size="12" text-anchor="end" dominant-baseline="middle">gmm</text>
  <text x="60" y="170" fill="white" font-family="sans-serif" font-weight="bold" font-size="12" text-anchor="end" dominant-baseline="middle">hello</text>
  <text x="60" y="205" fill="white" font-family="sans-serif" font-weight="bold" font-size="12" text-anchor="end" dominant-baseline="middle">ht</text>
  <text x="60" y="240" fill="white" font-family="sans-serif" font-weight="bold" font-size="12" text-anchor="end" dominant-baseline="middle">kmeans</text>
  <text x="60" y="275" fill="white" font-family="sans-serif" font-weight="bold" font-size="12" text-anchor="end" dominant-baseline="middle">lstm</text>
  <text x="80" y="80" fill="white" font-family="sans-serif" font-weight="bold" font-size="12" text-anchor="end" dominant-baseline="middle" transform="rotate(90 80 80)">adept</text>
  <text x="115" y="80" fill="white" font-family="sans-serif" font-weight="bold" font-size="12" text-anchor="end" dominant-baseline="middle" transform="rotate(90 115 80)">adol-c</text>
  <text x="150" y="80" fill="white" font-family="sans-serif" font-weight="bold" font-size="12" text-anchor="end" dominant-baseline="middle" transform="rotate(90 150 80)">codipack</text>
  <text x="185" y="80" fill="white" font-family="sans-serif" font-weight="bold" font-size="12" text-anchor="end" dominant-baseline="middle" transform="rotate(90 185 80)">cppad</text>
  <text x="220" y="80" fill="white" font-family="sans-serif" font-weight="bold" font-size="12" text-anchor="end" dominant-baseline="middle" transform="rotate(90 220 80)">enzyme</text>
  <text x="255" y="80" fill="white" font-family="sans-serif" font-weight="bold" font-size="12" text-anchor="end" dominant-baseline="middle" transform="rotate(90 255 80)">finite</text>
  <text x="290" y="80" fill="white" font-family="sans-serif" font-weight="bold" font-size="12" text-anchor="end" dominant-baseline="middle" transform="rotate(90 290 80)">floretta</text>
  <text x="325" y="80" fill="white" font-family="sans-serif" font-weight="bold" font-size="12" text-anchor="end" dominant-baseline="middle" transform="rotate(90 325 80)">futhark</text>
  <text x="360" y="80" fill="white" font-family="sans-serif" font-weight="bold" font-size="12" text-anchor="end" dominant-baseline="middle" transform="rotate(90 360 80)">haskell</text>
  <text x="395" y="80" fill="white" font-family="sans-serif" font-weight="bold" font-size="12" text-anchor="end" dominant-baseline="middle" transform="rotate(90 395 80)">jax</text>
  <text x="430" y="80" fill="white" font-family="sans-serif" font-weight="bold" font-size="12" text-anchor="end" dominant-baseline="middle" transform="rotate(90 430 80)">manual</text>
  <text x="465" y="80" fill="white" font-family="sans-serif" font-weight="bold" font-size="12" text-anchor="end" dominant-baseline="middle" transform="rotate(90 465 80)">ocaml</text>
  <text x="500" y="80" fill="white" font-family="sans-serif" font-weight="bold" font-size="12" text-anchor="end" dominant-baseline="middle" transform="rotate(90 500 80)">pytorch</text>
  <text x="535" y="80" fill="white" font-family="sans-serif" font-weight="bold" font-size="12" text-anchor="end" dominant-baseline="middle" transform="rotate(90 535 80)">scilean</text>
  <text x="570" y="80" fill="white" font-family="sans-serif" font-weight="bold" font-size="12" text-anchor="end" dominant-baseline="middle" transform="rotate(90 570 80)">tapenade</text>
  <text x="605" y="80" fill="white" font-family="sans-serif" font-weight="bold" font-size="12" text-anchor="end" dominant-baseline="middle" transform="rotate(90 605 80)">tensorflow</text>
  <text x="640" y="80" fill="white" font-family="sans-serif" font-weight="bold" font-size="12" text-anchor="end" dominant-baseline="middle" transform="rotate(90 640 80)">zygote</text>
  <rect x="65" y="85" width="30" height="30" fill="hsl(240 100% 84.55550322168583%)" />
  <rect x="100" y="85" width="30" height="30" fill="hsl(240 100% 98.01328913386415%)" />
  <rect x="135" y="85" width="30" height="30" fill="hsl(240 100% 89.45041782548059%)" />
  <rect x="205" y="85" width="30" height="30" fill="hsl(240 100% 50.06061495832126%)" />
  <rect x="240" y="85" width="30" height="30" fill="hsl(240 100% 91.92643045192722%)" />
  <rect x="310" y="85" width="30" height="30" fill="hsl(240 100% 75.72833353033995%)" />
  <rect x="415" y="85" width="30" height="30" fill="hsl(240 100% 50%)" />
  <rect x="485" y="85" width="30" height="30" fill="hsl(240 100% 99.99183653886604%)" />
  <rect x="555" y="85" width="30" height="30" fill="hsl(240 100% 73.61343712960885%)" />
  <rect x="590" y="85" width="30" height="30" fill="hsl(240 100% 99.98446827685328%)" />
  <rect x="65" y="120" width="30" height="30" fill="hsl(240 100% 96.95736139664325%)" />
  <rect x="100" y="120" width="30" height="30" fill="hsl(240 100% 97.47426639627214%)" />
  <rect x="135" y="120" width="30" height="30" fill="hsl(240 100% 94.5593248366468%)" />
  <rect x="170" y="120" width="30" height="30" fill="hsl(240 100% 98.2130342100799%)" />
  <rect x="205" y="120" width="30" height="30" fill="hsl(240 100% 83.4848381005524%)" />
  <rect x="240" y="120" width="30" height="30" fill="hsl(240 100% 99.99489860709751%)" />
  <rect x="310" y="120" width="30" height="30" fill="hsl(240 100% 82.11193986238172%)" />
  <rect x="380" y="120" width="30" height="30" fill="hsl(240 100% 70.19677607004772%)" />
  <rect x="415" y="120" width="30" height="30" fill="hsl(240 100% 62.71990060768865%)" />
  <rect x="450" y="120" width="30" height="30" fill="hsl(240 100% 99.35080470205354%)" />
  <rect x="485" y="120" width="30" height="30" fill="hsl(240 100% 50%)" />
  <rect x="520" y="120" width="30" height="30" fill="hsl(240 100% 95.50839737384521%)" />
  <rect x="555" y="120" width="30" height="30" fill="hsl(240 100% 66.10193271261488%)" />
  <rect x="590" y="120" width="30" height="30" fill="hsl(240 100% 85.82998711320651%)" />
  <rect x="65" y="155" width="30" height="30" fill="hsl(240 100% 50%)" />
  <rect x="100" y="155" width="30" height="30" fill="hsl(240 100% 50%)" />
  <rect x="135" y="155" width="30" height="30" fill="hsl(240 100% 50%)" />
  <rect x="170" y="155" width="30" height="30" fill="hsl(240 100% 50%)" />
  <rect x="205" y="155" width="30" height="30" fill="hsl(240 100% 50%)" />
  <rect x="240" y="155" width="30" height="30" fill="hsl(240 100% 50%)" />
  <rect x="275" y="155" width="30" height="30" fill="hsl(240 100% 50%)" />
  <rect x="310" y="155" width="30" height="30" fill="hsl(240 100% 50%)" />
  <rect x="345" y="155" width="30" height="30" fill="hsl(240 100% 50%)" />
  <rect x="380" y="155" width="30" height="30" fill="hsl(240 100% 50%)" />
  <rect x="415" y="155" width="30" height="30" fill="hsl(240 100% 50%)" />
  <rect x="450" y="155" width="30" height="30" fill="hsl(240 100% 50%)" />
  <rect x="485" y="155" width="30" height="30" fill="hsl(240 100% 50%)" />
  <rect x="520" y="155" width="30" height="30" fill="hsl(240 100% 50%)" />
  <rect x="555" y="155" width="30" height="30" fill="hsl(240 100% 50%)" />
  <rect x="590" y="155" width="30" height="30" fill="hsl(240 100% 50%)" />
  <rect x="625" y="155" width="30" height="30" fill="hsl(240 100% 50%)" />
  <rect x="65" y="190" width="30" height="30" fill="hsl(240 100% 97.21305102047872%)" />
  <rect x="100" y="190" width="30" height="30" fill="hsl(240 100% 98.0116943683156%)" />
  <rect x="135" y="190" width="30" height="30" fill="hsl(240 100% 93.92975187747398%)" />
  <rect x="205" y="190" width="30" height="30" fill="hsl(240 100% 95.04709590479142%)" />
  <rect x="240" y="190" width="30" height="30" fill="hsl(240 100% 99.21103906099476%)" />
  <rect x="310" y="190" width="30" height="30" fill="hsl(240 100% 94.24086312887023%)" />
  <rect x="415" y="190" width="30" height="30" fill="hsl(240 100% 50%)" />
  <rect x="485" y="190" width="30" height="30" fill="hsl(240 100% 99.9686686324859%)" />
  <rect x="555" y="190" width="30" height="30" fill="hsl(240 100% 99.41153499712676%)" />
  <rect x="590" y="190" width="30" height="30" fill="hsl(240 100% 99.48673440590042%)" />
  <rect x="100" y="225" width="30" height="30" fill="hsl(240 100% 99.89974430425097%)" />
  <rect x="135" y="225" width="30" height="30" fill="hsl(240 100% 99.41141863967671%)" />
  <rect x="205" y="225" width="30" height="30" fill="hsl(240 100% 87.45445485150353%)" />
  <rect x="310" y="225" width="30" height="30" fill="hsl(240 100% 82.61912723473515%)" />
  <rect x="345" y="225" width="30" height="30" fill="hsl(240 100% 99.9919284424263%)" />
  <rect x="380" y="225" width="30" height="30" fill="hsl(240 100% 50%)" />
  <rect x="415" y="225" width="30" height="30" fill="hsl(240 100% 76.54638794056571%)" />
  <rect x="485" y="225" width="30" height="30" fill="hsl(240 100% 85.1942087410064%)" />
  <rect x="520" y="225" width="30" height="30" fill="hsl(240 100% 99.53833338888897%)" />
  <rect x="65" y="260" width="30" height="30" fill="hsl(240 100% 69.30681823807029%)" />
  <rect x="100" y="260" width="30" height="30" fill="hsl(240 100% 80.59458121203274%)" />
  <rect x="135" y="260" width="30" height="30" fill="hsl(240 100% 50%)" />
  <rect x="170" y="260" width="30" height="30" fill="hsl(240 100% 88.87038460690816%)" />
  <rect x="205" y="260" width="30" height="30" fill="hsl(240 100% 51.701553551971266%)" />
  <rect x="240" y="260" width="30" height="30" fill="hsl(240 100% 99.80410202763184%)" />
  <rect x="310" y="260" width="30" height="30" fill="hsl(240 100% 63.94220257202478%)" />
  <rect x="415" y="260" width="30" height="30" fill="hsl(240 100% 78.95022362411744%)" />
  <rect x="485" y="260" width="30" height="30" fill="hsl(240 100% 99.67019011146056%)" />
  <rect x="520" y="260" width="30" height="30" fill="hsl(240 100% 96.21253036015251%)" />
  <rect x="555" y="260" width="30" height="30" fill="hsl(240 100% 60.5630464882098%)" />
  <rect x="590" y="260" width="30" height="30" fill="hsl(240 100% 98.10833117992266%)" />
</svg>
