<svg xmlns="http://www.w3.org/2000/svg" viewBox="0 0 660 295">
  <rect x="0" y="0" width="660" height="295" rx="5" ry="5" fill="#222" />
  <text x="60" y="100" fill="white" font-family="sans-serif" font-weight="bold" font-size="12" text-anchor="end" dominant-baseline="middle">ba</text>
  <text x="60" y="135" fill="white" font-family="sans-serif" font-weight="bold" font-size="12" text-anchor="end" dominant-baseline="middle">gmm</text>
  <text x="60" y="170" fill="white" font-family="sans-serif" font-weight="bold" font-size="12" text-anchor="end" dominant-baseline="middle">hello</text>
  <text x="60" y="205" fill="white" font-family="sans-serif" font-weight="bold" font-size="12" text-anchor="end" dominant-baseline="middle">ht</text>
  <text x="60" y="240" fill="white" font-family="sans-serif" font-weight="bold" font-size="12" text-anchor="end" dominant-baseline="middle">kmeans</text>
  <text x="60" y="275" fill="white" font-family="sans-serif" font-weight="bold" font-size="12" text-anchor="end" dominant-baseline="middle">lstm</text>
  <text x="80" y="80" fill="white" font-family="sans-serif" font-weight="bold" font-size="12" text-anchor="end" dominant-baseline="middle" transform="rotate(90 80 80)">adept</text>
  <text x="115" y="80" fill="white" font-family="sans-serif" font-weight="bold" font-size="12" text-anchor="end" dominant-baseline="middle" transform="rotate(90 115 80)">adol-c</text>
  <text x="150" y="80" fill="white" font-family="sans-serif" font-weight="bold" font-size="12" text-anchor="end" dominant-baseline="middle" transform="rotate(90 150 80)">codipack</text>
  <text x="185" y="80" fill="white" font-family="sans-serif" font-weight="bold" font-size="12" text-anchor="end" dominant-baseline="middle" transform="rotate(90 185 80)">cppad</text>
  <text x="220" y="80" fill="white" font-family="sans-serif" font-weight="bold" font-size="12" text-anchor="end" dominant-baseline="middle" transform="rotate(90 220 80)">enzyme</text>
  <text x="255" y="80" fill="white" font-family="sans-serif" font-weight="bold" font-size="12" text-anchor="end" dominant-baseline="middle" transform="rotate(90 255 80)">finite</text>
  <text x="290" y="80" fill="white" font-family="sans-serif" font-weight="bold" font-size="12" text-anchor="end" dominant-baseline="middle" transform="rotate(90 290 80)">floretta</text>
  <text x="325" y="80" fill="white" font-family="sans-serif" font-weight="bold" font-size="12" text-anchor="end" dominant-baseline="middle" transform="rotate(90 325 80)">futhark</text>
  <text x="360" y="80" fill="white" font-family="sans-serif" font-weight="bold" font-size="12" text-anchor="end" dominant-baseline="middle" transform="rotate(90 360 80)">haskell</text>
  <text x="395" y="80" fill="white" font-family="sans-serif" font-weight="bold" font-size="12" text-anchor="end" dominant-baseline="middle" transform="rotate(90 395 80)">jax</text>
  <text x="430" y="80" fill="white" font-family="sans-serif" font-weight="bold" font-size="12" text-anchor="end" dominant-baseline="middle" transform="rotate(90 430 80)">manual</text>
  <text x="465" y="80" fill="white" font-family="sans-serif" font-weight="bold" font-size="12" text-anchor="end" dominant-baseline="middle" transform="rotate(90 465 80)">ocaml</text>
  <text x="500" y="80" fill="white" font-family="sans-serif" font-weight="bold" font-size="12" text-anchor="end" dominant-baseline="middle" transform="rotate(90 500 80)">pytorch</text>
  <text x="535" y="80" fill="white" font-family="sans-serif" font-weight="bold" font-size="12" text-anchor="end" dominant-baseline="middle" transform="rotate(90 535 80)">scilean</text>
  <text x="570" y="80" fill="white" font-family="sans-serif" font-weight="bold" font-size="12" text-anchor="end" dominant-baseline="middle" transform="rotate(90 570 80)">tapenade</text>
  <text x="605" y="80" fill="white" font-family="sans-serif" font-weight="bold" font-size="12" text-anchor="end" dominant-baseline="middle" transform="rotate(90 605 80)">tensorflow</text>
  <text x="640" y="80" fill="white" font-family="sans-serif" font-weight="bold" font-size="12" text-anchor="end" dominant-baseline="middle" transform="rotate(90 640 80)">zygote</text>
  <rect x="65" y="85" width="30" height="30" fill="hsl(240 100% 83.38691678297948%)" />
  <rect x="100" y="85" width="30" height="30" fill="hsl(240 100% 97.82146651933341%)" />
  <rect x="135" y="85" width="30" height="30" fill="hsl(240 100% 89.04396990437077%)" />
  <rect x="205" y="85" width="30" height="30" fill="hsl(240 100% 51.10134663547258%)" />
  <rect x="240" y="85" width="30" height="30" fill="hsl(240 100% 92.67137555629742%)" />
  <rect x="310" y="85" width="30" height="30" fill="hsl(240 100% 68.65921769023565%)" />
  <rect x="415" y="85" width="30" height="30" fill="hsl(240 100% 50%)" />
  <rect x="485" y="85" width="30" height="30" fill="rgb(255 255 255 / 50%)" />
  <rect x="555" y="85" width="30" height="30" fill="hsl(240 100% 72.8786928146497%)" />
  <rect x="590" y="85" width="30" height="30" fill="rgb(255 255 255 / 50%)" />
  <rect x="65" y="120" width="30" height="30" fill="hsl(240 100% 98.29083962309646%)" />
  <rect x="100" y="120" width="30" height="30" fill="hsl(240 100% 98.7853059151133%)" />
  <rect x="135" y="120" width="30" height="30" fill="hsl(240 100% 97.18419067698015%)" />
  <rect x="170" y="120" width="30" height="30" fill="rgb(255 255 255 / 50%)" />
  <rect x="205" y="120" width="30" height="30" fill="hsl(240 100% 86.80102724698773%)" />
  <rect x="240" y="120" width="30" height="30" fill="rgb(255 255 255 / 50%)" />
  <rect x="310" y="120" width="30" height="30" fill="hsl(240 100% 89.72602705404013%)" />
  <rect x="380" y="120" width="30" height="30" fill="hsl(240 100% 68.84257725390125%)" />
  <rect x="415" y="120" width="30" height="30" fill="hsl(240 100% 75.02192919128699%)" />
  <rect x="450" y="120" width="30" height="30" fill="hsl(240 100% 99.3344468414736%)" />
  <rect x="485" y="120" width="30" height="30" fill="hsl(240 100% 50%)" />
  <rect x="520" y="120" width="30" height="30" fill="hsl(240 100% 93.08031871372702%)" />
  <rect x="555" y="120" width="30" height="30" fill="hsl(240 100% 75.78934022150116%)" />
  <rect x="590" y="120" width="30" height="30" fill="hsl(240 100% 88.76088574802588%)" />
  <rect x="65" y="155" width="30" height="30" fill="hsl(240 100% 50%)" />
  <rect x="100" y="155" width="30" height="30" fill="hsl(240 100% 50%)" />
  <rect x="135" y="155" width="30" height="30" fill="hsl(240 100% 50%)" />
  <rect x="170" y="155" width="30" height="30" fill="hsl(240 100% 50%)" />
  <rect x="205" y="155" width="30" height="30" fill="hsl(240 100% 50%)" />
  <rect x="240" y="155" width="30" height="30" fill="hsl(240 100% 50%)" />
  <rect x="275" y="155" width="30" height="30" fill="hsl(240 100% 50%)" />
  <rect x="310" y="155" width="30" height="30" fill="hsl(240 100% 50%)" />
  <rect x="345" y="155" width="30" height="30" fill="hsl(240 100% 50%)" />
  <rect x="380" y="155" width="30" height="30" fill="hsl(240 100% 50%)" />
  <rect x="415" y="155" width="30" height="30" fill="hsl(240 100% 50%)" />
  <rect x="450" y="155" width="30" height="30" fill="hsl(240 100% 50%)" />
  <rect x="485" y="155" width="30" height="30" fill="hsl(240 100% 50%)" />
  <rect x="520" y="155" width="30" height="30" fill="hsl(240 100% 50%)" />
  <rect x="555" y="155" width="30" height="30" fill="hsl(240 100% 50%)" />
  <rect x="590" y="155" width="30" height="30" fill="hsl(240 100% 50%)" />
  <rect x="625" y="155" width="30" height="30" fill="hsl(240 100% 50%)" />
  <rect x="65" y="190" width="30" height="30" fill="hsl(240 100% 96.09285398560598%)" />
  <rect x="100" y="190" width="30" height="30" fill="hsl(240 100% 96.37559027932521%)" />
  <rect x="135" y="190" width="30" height="30" fill="hsl(240 100% 88.45399946669353%)" />
  <rect x="205" y="190" width="30" height="30" fill="hsl(240 100% 90.27922696143678%)" />
  <rect x="240" y="190" width="30" height="30" fill="rgb(255 255 255 / 50%)" />
  <rect x="310" y="190" width="30" height="30" fill="hsl(240 100% 89.61381498462049%)" />
  <rect x="415" y="190" width="30" height="30" fill="hsl(240 100% 50%)" />
  <rect x="485" y="190" width="30" height="30" fill="rgb(255 255 255 / 50%)" />
  <rect x="555" y="190" width="30" height="30" fill="rgb(255 255 255 / 50%)" />
  <rect x="590" y="190" width="30" height="30" fill="rgb(255 255 255 / 50%)" />
  <rect x="100" y="225" width="30" height="30" fill="hsl(240 100% 99.86905343729873%)" />
  <rect x="135" y="225" width="30" height="30" fill="hsl(240 100% 99.40563478439648%)" />
  <rect x="170" y="225" width="30" height="30" fill="rgb(255 255 255 / 50%)" />
  <rect x="205" y="225" width="30" height="30" fill="hsl(240 100% 87.56515342733245%)" />
  <rect x="240" y="225" width="30" height="30" fill="rgb(255 255 255 / 50%)" />
  <rect x="310" y="225" width="30" height="30" fill="hsl(240 100% 82.87701753104564%)" />
  <rect x="345" y="225" width="30" height="30" fill="rgb(255 255 255 / 50%)" />
  <rect x="380" y="225" width="30" height="30" fill="hsl(240 100% 50%)" />
  <rect x="415" y="225" width="30" height="30" fill="hsl(240 100% 76.22420117936613%)" />
  <rect x="485" y="225" width="30" height="30" fill="hsl(240 100% 97.2470382501536%)" />
  <rect x="520" y="225" width="30" height="30" fill="hsl(240 100% 94.12109894866268%)" />
  <rect x="65" y="260" width="30" height="30" fill="hsl(240 100% 69.0562213307857%)" />
  <rect x="100" y="260" width="30" height="30" fill="hsl(240 100% 81.02405861583713%)" />
  <rect x="135" y="260" width="30" height="30" fill="hsl(240 100% 50.188736007419706%)" />
  <rect x="170" y="260" width="30" height="30" fill="hsl(240 100% 89.78399148409216%)" />
  <rect x="205" y="260" width="30" height="30" fill="hsl(240 100% 50%)" />
  <rect x="240" y="260" width="30" height="30" fill="hsl(240 100% 99.85157929138548%)" />
  <rect x="310" y="260" width="30" height="30" fill="hsl(240 100% 63.469166784545635%)" />
  <rect x="415" y="260" width="30" height="30" fill="hsl(240 100% 84.7102515578843%)" />
  <rect x="485" y="260" width="30" height="30" fill="hsl(240 100% 99.59825351763045%)" />
  <rect x="520" y="260" width="30" height="30" fill="hsl(240 100% 89.5282154644022%)" />
  <rect x="555" y="260" width="30" height="30" fill="hsl(240 100% 60.28116997732427%)" />
  <rect x="590" y="260" width="30" height="30" fill="hsl(240 100% 97.97625674325243%)" />
</svg>
