<svg xmlns="http://www.w3.org/2000/svg" viewBox="0 0 730 505">
  <rect x="0" y="0" width="730" height="505" rx="5" ry="5" fill="#222" />
  <text x="60" y="100" fill="white" font-family="sans-serif" font-weight="bold" font-size="12" text-anchor="end" dominant-baseline="middle">ba</text>
  <text x="60" y="135" fill="white" font-family="sans-serif" font-weight="bold" font-size="12" text-anchor="end" dominant-baseline="middle">det</text>
  <text x="60" y="170" fill="white" font-family="sans-serif" font-weight="bold" font-size="12" text-anchor="end" dominant-baseline="middle">gmm</text>
  <text x="60" y="205" fill="white" font-family="sans-serif" font-weight="bold" font-size="12" text-anchor="end" dominant-baseline="middle">hello</text>
  <text x="60" y="240" fill="white" font-family="sans-serif" font-weight="bold" font-size="12" text-anchor="end" dominant-baseline="middle">ht</text>
  <text x="60" y="275" fill="white" font-family="sans-serif" font-weight="bold" font-size="12" text-anchor="end" dominant-baseline="middle">kmeans</text>
  <text x="60" y="310" fill="white" font-family="sans-serif" font-weight="bold" font-size="12" text-anchor="end" dominant-baseline="middle">llsq</text>
  <text x="60" y="345" fill="white" font-family="sans-serif" font-weight="bold" font-size="12" text-anchor="end" dominant-baseline="middle">lse</text>
  <text x="60" y="380" fill="white" font-family="sans-serif" font-weight="bold" font-size="12" text-anchor="end" dominant-baseline="middle">lstm</text>
  <text x="60" y="415" fill="white" font-family="sans-serif" font-weight="bold" font-size="12" text-anchor="end" dominant-baseline="middle">ode</text>
  <text x="60" y="450" fill="white" font-family="sans-serif" font-weight="bold" font-size="12" text-anchor="end" dominant-baseline="middle">particle</text>
  <text x="60" y="485" fill="white" font-family="sans-serif" font-weight="bold" font-size="12" text-anchor="end" dominant-baseline="middle">saddle</text>
  <text x="80" y="80" fill="white" font-family="sans-serif" font-weight="bold" font-size="12" text-anchor="end" dominant-baseline="middle" transform="rotate(90 80 80)">ad-hpp</text>
  <text x="115" y="80" fill="white" font-family="sans-serif" font-weight="bold" font-size="12" text-anchor="end" dominant-baseline="middle" transform="rotate(90 115 80)">adept</text>
  <text x="150" y="80" fill="white" font-family="sans-serif" font-weight="bold" font-size="12" text-anchor="end" dominant-baseline="middle" transform="rotate(90 150 80)">adol-c</text>
  <text x="185" y="80" fill="white" font-family="sans-serif" font-weight="bold" font-size="12" text-anchor="end" dominant-baseline="middle" transform="rotate(90 185 80)">codipack</text>
  <text x="220" y="80" fill="white" font-family="sans-serif" font-weight="bold" font-size="12" text-anchor="end" dominant-baseline="middle" transform="rotate(90 220 80)">cppad</text>
  <text x="255" y="80" fill="white" font-family="sans-serif" font-weight="bold" font-size="12" text-anchor="end" dominant-baseline="middle" transform="rotate(90 255 80)">enzyme</text>
  <text x="290" y="80" fill="white" font-family="sans-serif" font-weight="bold" font-size="12" text-anchor="end" dominant-baseline="middle" transform="rotate(90 290 80)">enzyme-jl</text>
  <text x="325" y="80" fill="white" font-family="sans-serif" font-weight="bold" font-size="12" text-anchor="end" dominant-baseline="middle" transform="rotate(90 325 80)">finite</text>
  <text x="360" y="80" fill="white" font-family="sans-serif" font-weight="bold" font-size="12" text-anchor="end" dominant-baseline="middle" transform="rotate(90 360 80)">floretta</text>
  <text x="395" y="80" fill="white" font-family="sans-serif" font-weight="bold" font-size="12" text-anchor="end" dominant-baseline="middle" transform="rotate(90 395 80)">futhark</text>
  <text x="430" y="80" fill="white" font-family="sans-serif" font-weight="bold" font-size="12" text-anchor="end" dominant-baseline="middle" transform="rotate(90 430 80)">haskell</text>
  <text x="465" y="80" fill="white" font-family="sans-serif" font-weight="bold" font-size="12" text-anchor="end" dominant-baseline="middle" transform="rotate(90 465 80)">jax</text>
  <text x="500" y="80" fill="white" font-family="sans-serif" font-weight="bold" font-size="12" text-anchor="end" dominant-baseline="middle" transform="rotate(90 500 80)">manual</text>
  <text x="535" y="80" fill="white" font-family="sans-serif" font-weight="bold" font-size="12" text-anchor="end" dominant-baseline="middle" transform="rotate(90 535 80)">ocaml</text>
  <text x="570" y="80" fill="white" font-family="sans-serif" font-weight="bold" font-size="12" text-anchor="end" dominant-baseline="middle" transform="rotate(90 570 80)">pytorch</text>
  <text x="605" y="80" fill="white" font-family="sans-serif" font-weight="bold" font-size="12" text-anchor="end" dominant-baseline="middle" transform="rotate(90 605 80)">scilean</text>
  <text x="640" y="80" fill="white" font-family="sans-serif" font-weight="bold" font-size="12" text-anchor="end" dominant-baseline="middle" transform="rotate(90 640 80)">tapenade</text>
  <text x="675" y="80" fill="white" font-family="sans-serif" font-weight="bold" font-size="12" text-anchor="end" dominant-baseline="middle" transform="rotate(90 675 80)">tensorflow</text>
  <text x="710" y="80" fill="white" font-family="sans-serif" font-weight="bold" font-size="12" text-anchor="end" dominant-baseline="middle" transform="rotate(90 710 80)">zygote</text>
  <rect x="65" y="85" width="30" height="30" fill="hsl(240 100% 78.24086334201203%)" />
  <rect x="100" y="85" width="30" height="30" fill="hsl(240 100% 82.92428482483288%)" />
  <rect x="135" y="85" width="30" height="30" fill="hsl(240 100% 97.72247616434093%)" />
  <rect x="170" y="85" width="30" height="30" fill="hsl(240 100% 88.89978116329071%)" />
  <rect x="205" y="85" width="30" height="30" fill="hsl(240 100% 98.86883061248493%)" />
  <rect x="240" y="85" width="30" height="30" fill="hsl(240 100% 50%)" />
  <rect x="310" y="85" width="30" height="30" fill="hsl(240 100% 92.50141297571342%)" />
  <rect x="380" y="85" width="30" height="30" fill="hsl(240 100% 67.97969376733207%)" />
  <rect x="485" y="85" width="30" height="30" fill="hsl(240 100% 50.89788758492056%)" />
  <rect x="555" y="85" width="30" height="30" fill="rgb(255 255 255 / 50%)" />
  <rect x="625" y="85" width="30" height="30" fill="hsl(240 100% 72.14802215210797%)" />
  <rect x="660" y="85" width="30" height="30" fill="rgb(255 255 255 / 50%)" />
  <rect x="695" y="85" width="30" height="30" fill="hsl(240 100% 99.69660525087366%)" />
  <rect x="65" y="120" width="30" height="30" fill="hsl(240 100% 50%)" />
  <rect x="100" y="120" width="30" height="30" fill="hsl(240 100% 83.65609455493824%)" />
  <rect x="135" y="120" width="30" height="30" fill="hsl(240 100% 84.92095870664791%)" />
  <rect x="170" y="120" width="30" height="30" fill="hsl(240 100% 50.35892863489481%)" />
  <rect x="205" y="120" width="30" height="30" fill="hsl(240 100% 92.62886168335046%)" />
  <rect x="240" y="120" width="30" height="30" fill="hsl(240 100% 91.73738460305809%)" />
  <rect x="275" y="120" width="30" height="30" fill="hsl(240 100% 99.12739043100167%)" />
  <rect x="310" y="120" width="30" height="30" fill="hsl(240 100% 98.96181367805563%)" />
  <rect x="380" y="120" width="30" height="30" fill="hsl(240 100% 94.68454321080065%)" />
  <rect x="415" y="120" width="30" height="30" fill="hsl(240 100% 98.20742507518061%)" />
  <rect x="485" y="120" width="30" height="30" fill="hsl(240 100% 79.23897721992039%)" />
  <rect x="695" y="120" width="30" height="30" fill="rgb(255 255 255 / 50%)" />
  <rect x="65" y="155" width="30" height="30" fill="hsl(240 100% 97.12718736280326%)" />
  <rect x="100" y="155" width="30" height="30" fill="hsl(240 100% 98.25158402840529%)" />
  <rect x="135" y="155" width="30" height="30" fill="hsl(240 100% 98.75582587838325%)" />
  <rect x="170" y="155" width="30" height="30" fill="hsl(240 100% 97.21935108349787%)" />
  <rect x="205" y="155" width="30" height="30" fill="hsl(240 100% 99.76868849648734%)" />
  <rect x="240" y="155" width="30" height="30" fill="hsl(240 100% 86.79410314759124%)" />
  <rect x="275" y="155" width="30" height="30" fill="hsl(240 100% 99.84001240795672%)" />
  <rect x="310" y="155" width="30" height="30" fill="rgb(255 255 255 / 50%)" />
  <rect x="380" y="155" width="30" height="30" fill="hsl(240 100% 89.84098275153302%)" />
  <rect x="450" y="155" width="30" height="30" fill="hsl(240 100% 70.6522463009903%)" />
  <rect x="485" y="155" width="30" height="30" fill="hsl(240 100% 75.2148569864348%)" />
  <rect x="520" y="155" width="30" height="30" fill="hsl(240 100% 99.35273725682677%)" />
  <rect x="555" y="155" width="30" height="30" fill="hsl(240 100% 50%)" />
  <rect x="590" y="155" width="30" height="30" fill="hsl(240 100% 92.5810421891757%)" />
  <rect x="625" y="155" width="30" height="30" fill="hsl(240 100% 75.7566764510358%)" />
  <rect x="660" y="155" width="30" height="30" fill="hsl(240 100% 89.26511827645984%)" />
  <rect x="695" y="155" width="30" height="30" fill="hsl(240 100% 99.34037684079696%)" />
  <rect x="65" y="190" width="30" height="30" fill="hsl(240 100% 50%)" />
  <rect x="100" y="190" width="30" height="30" fill="hsl(240 100% 50%)" />
  <rect x="135" y="190" width="30" height="30" fill="hsl(240 100% 50%)" />
  <rect x="170" y="190" width="30" height="30" fill="hsl(240 100% 50%)" />
  <rect x="205" y="190" width="30" height="30" fill="hsl(240 100% 50%)" />
  <rect x="240" y="190" width="30" height="30" fill="hsl(240 100% 50%)" />
  <rect x="275" y="190" width="30" height="30" fill="hsl(240 100% 50%)" />
  <rect x="310" y="190" width="30" height="30" fill="hsl(240 100% 50%)" />
  <rect x="345" y="190" width="30" height="30" fill="hsl(240 100% 50%)" />
  <rect x="380" y="190" width="30" height="30" fill="hsl(240 100% 50%)" />
  <rect x="415" y="190" width="30" height="30" fill="hsl(240 100% 50%)" />
  <rect x="450" y="190" width="30" height="30" fill="hsl(240 100% 50%)" />
  <rect x="485" y="190" width="30" height="30" fill="hsl(240 100% 50%)" />
  <rect x="520" y="190" width="30" height="30" fill="hsl(240 100% 50%)" />
  <rect x="555" y="190" width="30" height="30" fill="hsl(240 100% 50%)" />
  <rect x="590" y="190" width="30" height="30" fill="hsl(240 100% 50%)" />
  <rect x="625" y="190" width="30" height="30" fill="hsl(240 100% 50%)" />
  <rect x="660" y="190" width="30" height="30" fill="hsl(240 100% 50%)" />
  <rect x="695" y="190" width="30" height="30" fill="hsl(240 100% 50%)" />
  <rect x="100" y="225" width="30" height="30" fill="hsl(240 100% 96.00416595385924%)" />
  <rect x="135" y="225" width="30" height="30" fill="hsl(240 100% 89.95781947887515%)" />
  <rect x="170" y="225" width="30" height="30" fill="hsl(240 100% 88.09927215137489%)" />
  <rect x="240" y="225" width="30" height="30" fill="hsl(240 100% 90.17805301100017%)" />
  <rect x="310" y="225" width="30" height="30" fill="rgb(255 255 255 / 50%)" />
  <rect x="380" y="225" width="30" height="30" fill="hsl(240 100% 89.53374862326238%)" />
  <rect x="485" y="225" width="30" height="30" fill="hsl(240 100% 50%)" />
  <rect x="555" y="225" width="30" height="30" fill="rgb(255 255 255 / 50%)" />
  <rect x="625" y="225" width="30" height="30" fill="rgb(255 255 255 / 50%)" />
  <rect x="660" y="225" width="30" height="30" fill="rgb(255 255 255 / 50%)" />
  <rect x="695" y="225" width="30" height="30" fill="hsl(240 100% 99.41991053513786%)" />
  <rect x="135" y="260" width="30" height="30" fill="hsl(240 100% 99.91158400057861%)" />
  <rect x="170" y="260" width="30" height="30" fill="hsl(240 100% 99.35980577505745%)" />
  <rect x="205" y="260" width="30" height="30" fill="rgb(255 255 255 / 50%)" />
  <rect x="240" y="260" width="30" height="30" fill="hsl(240 100% 87.57412784185794%)" />
  <rect x="310" y="260" width="30" height="30" fill="rgb(255 255 255 / 50%)" />
  <rect x="380" y="260" width="30" height="30" fill="hsl(240 100% 82.92874737926488%)" />
  <rect x="415" y="260" width="30" height="30" fill="rgb(255 255 255 / 50%)" />
  <rect x="450" y="260" width="30" height="30" fill="hsl(240 100% 50%)" />
  <rect x="485" y="260" width="30" height="30" fill="hsl(240 100% 76.56465799442338%)" />
  <rect x="555" y="260" width="30" height="30" fill="hsl(240 100% 96.97997829650299%)" />
  <rect x="590" y="260" width="30" height="30" fill="hsl(240 100% 94.1273115721507%)" />
  <rect x="65" y="295" width="30" height="30" fill="hsl(240 100% 76.83426371787102%)" />
  <rect x="100" y="295" width="30" height="30" fill="hsl(240 100% 81.35191335085113%)" />
  <rect x="135" y="295" width="30" height="30" fill="hsl(240 100% 77.0840920900081%)" />
  <rect x="170" y="295" width="30" height="30" fill="hsl(240 100% 77.62399317088658%)" />
  <rect x="205" y="295" width="30" height="30" fill="hsl(240 100% 95.3014198785186%)" />
  <rect x="240" y="295" width="30" height="30" fill="hsl(240 100% 71.9077519161071%)" />
  <rect x="275" y="295" width="30" height="30" fill="hsl(240 100% 99.35974832954945%)" />
  <rect x="310" y="295" width="30" height="30" fill="hsl(240 100% 99.67899878149481%)" />
  <rect x="345" y="295" width="30" height="30" fill="hsl(240 100% 50%)" />
  <rect x="380" y="295" width="30" height="30" fill="hsl(240 100% 72.26478536826554%)" />
  <rect x="415" y="295" width="30" height="30" fill="hsl(240 100% 94.24961606476874%)" />
  <rect x="485" y="295" width="30" height="30" fill="hsl(240 100% 73.94940955275607%)" />
  <rect x="590" y="295" width="30" height="30" fill="hsl(240 100% 75.0070439436369%)" />
  <rect x="695" y="295" width="30" height="30" fill="hsl(240 100% 99.84811003106152%)" />
  <rect x="65" y="330" width="30" height="30" fill="hsl(240 100% 87.57955713644839%)" />
  <rect x="100" y="330" width="30" height="30" fill="hsl(240 100% 93.68926242544698%)" />
  <rect x="135" y="330" width="30" height="30" fill="hsl(240 100% 96.72328775765723%)" />
  <rect x="170" y="330" width="30" height="30" fill="hsl(240 100% 87.78825860771535%)" />
  <rect x="205" y="330" width="30" height="30" fill="hsl(240 100% 99.09713266289899%)" />
  <rect x="240" y="330" width="30" height="30" fill="hsl(240 100% 77.55031723196625%)" />
  <rect x="275" y="330" width="30" height="30" fill="hsl(240 100% 99.80816755537025%)" />
  <rect x="310" y="330" width="30" height="30" fill="rgb(255 255 255 / 50%)" />
  <rect x="345" y="330" width="30" height="30" fill="hsl(240 100% 96.8316201338876%)" />
  <rect x="380" y="330" width="30" height="30" fill="hsl(240 100% 83.54347916971915%)" />
  <rect x="415" y="330" width="30" height="30" fill="hsl(240 100% 99.7806623930911%)" />
  <rect x="450" y="330" width="30" height="30" fill="hsl(240 100% 70.44411560660049%)" />
  <rect x="485" y="330" width="30" height="30" fill="hsl(240 100% 75.43016123979407%)" />
  <rect x="520" y="330" width="30" height="30" fill="hsl(240 100% 92.89439375687964%)" />
  <rect x="555" y="330" width="30" height="30" fill="hsl(240 100% 50%)" />
  <rect x="660" y="330" width="30" height="30" fill="hsl(240 100% 86.82687703810498%)" />
  <rect x="695" y="330" width="30" height="30" fill="hsl(240 100% 94.09274224835104%)" />
  <rect x="65" y="365" width="30" height="30" fill="hsl(240 100% 53.296562594281056%)" />
  <rect x="100" y="365" width="30" height="30" fill="hsl(240 100% 69.4576761066238%)" />
  <rect x="135" y="365" width="30" height="30" fill="hsl(240 100% 81.2108395583201%)" />
  <rect x="170" y="365" width="30" height="30" fill="hsl(240 100% 50%)" />
  <rect x="205" y="365" width="30" height="30" fill="hsl(240 100% 95.75031034608455%)" />
  <rect x="240" y="365" width="30" height="30" fill="hsl(240 100% 50.67448489727206%)" />
  <rect x="275" y="365" width="30" height="30" fill="hsl(240 100% 98.88657242854192%)" />
  <rect x="310" y="365" width="30" height="30" fill="hsl(240 100% 99.85125173638953%)" />
  <rect x="380" y="365" width="30" height="30" fill="hsl(240 100% 63.241203883311634%)" />
  <rect x="485" y="365" width="30" height="30" fill="hsl(240 100% 84.60721809463473%)" />
  <rect x="555" y="365" width="30" height="30" fill="hsl(240 100% 99.59085622222942%)" />
  <rect x="625" y="365" width="30" height="30" fill="hsl(240 100% 60.11279386410905%)" />
  <rect x="660" y="365" width="30" height="30" fill="hsl(240 100% 98.04567937756813%)" />
  <rect x="695" y="365" width="30" height="30" fill="hsl(240 100% 99.10043954427717%)" />
  <rect x="65" y="400" width="30" height="30" fill="hsl(240 100% 97.55794492958591%)" />
  <rect x="100" y="400" width="30" height="30" fill="hsl(240 100% 99.25624285267631%)" />
  <rect x="135" y="400" width="30" height="30" fill="hsl(240 100% 99.56554298988753%)" />
  <rect x="170" y="400" width="30" height="30" fill="hsl(240 100% 93.8136274546803%)" />
  <rect x="205" y="400" width="30" height="30" fill="hsl(240 100% 98.98347698099938%)" />
  <rect x="240" y="400" width="30" height="30" fill="hsl(240 100% 85.47696033252356%)" />
  <rect x="275" y="400" width="30" height="30" fill="hsl(240 100% 99.00281153476449%)" />
  <rect x="310" y="400" width="30" height="30" fill="rgb(255 255 255 / 50%)" />
  <rect x="380" y="400" width="30" height="30" fill="hsl(240 100% 95.42052658440073%)" />
  <rect x="415" y="400" width="30" height="30" fill="hsl(240 100% 99.9676932143198%)" />
  <rect x="485" y="400" width="30" height="30" fill="hsl(240 100% 50%)" />
  <rect x="695" y="400" width="30" height="30" fill="hsl(240 100% 99.63647027275157%)" />
  <rect x="240" y="435" width="30" height="30" fill="hsl(240 100% 50%)" />
  <rect x="310" y="435" width="30" height="30" fill="hsl(240 100% 95.19658816717741%)" />
  <rect x="380" y="435" width="30" height="30" fill="hsl(240 100% 87.89443230341503%)" />
  <rect x="415" y="435" width="30" height="30" fill="hsl(240 100% 99.76514547945368%)" />
  <rect x="240" y="470" width="30" height="30" fill="hsl(240 100% 50%)" />
  <rect x="310" y="470" width="30" height="30" fill="hsl(240 100% 95.82579632970324%)" />
  <rect x="380" y="470" width="30" height="30" fill="hsl(240 100% 89.11895832386953%)" />
  <rect x="415" y="470" width="30" height="30" fill="hsl(240 100% 99.56057657837721%)" />
</svg>
