<svg xmlns="http://www.w3.org/2000/svg" viewBox="0 0 870 505">
  <rect x="0" y="0" width="870" height="505" rx="5" ry="5" fill="#222" />
  <text x="60" y="100" fill="white" font-family="sans-serif" font-weight="bold" font-size="12" text-anchor="end" dominant-baseline="middle">ba</text>
  <text x="60" y="135" fill="white" font-family="sans-serif" font-weight="bold" font-size="12" text-anchor="end" dominant-baseline="middle">det</text>
  <text x="60" y="170" fill="white" font-family="sans-serif" font-weight="bold" font-size="12" text-anchor="end" dominant-baseline="middle">gmm</text>
  <text x="60" y="205" fill="white" font-family="sans-serif" font-weight="bold" font-size="12" text-anchor="end" dominant-baseline="middle">hello</text>
  <text x="60" y="240" fill="white" font-family="sans-serif" font-weight="bold" font-size="12" text-anchor="end" dominant-baseline="middle">ht</text>
  <text x="60" y="275" fill="white" font-family="sans-serif" font-weight="bold" font-size="12" text-anchor="end" dominant-baseline="middle">kmeans</text>
  <text x="60" y="310" fill="white" font-family="sans-serif" font-weight="bold" font-size="12" text-anchor="end" dominant-baseline="middle">llsq</text>
  <text x="60" y="345" fill="white" font-family="sans-serif" font-weight="bold" font-size="12" text-anchor="end" dominant-baseline="middle">lse</text>
  <text x="60" y="380" fill="white" font-family="sans-serif" font-weight="bold" font-size="12" text-anchor="end" dominant-baseline="middle">lstm</text>
  <text x="60" y="415" fill="white" font-family="sans-serif" font-weight="bold" font-size="12" text-anchor="end" dominant-baseline="middle">ode</text>
  <text x="60" y="450" fill="white" font-family="sans-serif" font-weight="bold" font-size="12" text-anchor="end" dominant-baseline="middle">particle</text>
  <text x="60" y="485" fill="white" font-family="sans-serif" font-weight="bold" font-size="12" text-anchor="end" dominant-baseline="middle">saddle</text>
  <text x="80" y="80" fill="white" font-family="sans-serif" font-weight="bold" font-size="12" text-anchor="end" dominant-baseline="middle" transform="rotate(90 80 80)">ad-hpp</text>
  <text x="115" y="80" fill="white" font-family="sans-serif" font-weight="bold" font-size="12" text-anchor="end" dominant-baseline="middle" transform="rotate(90 115 80)">adept</text>
  <text x="150" y="80" fill="white" font-family="sans-serif" font-weight="bold" font-size="12" text-anchor="end" dominant-baseline="middle" transform="rotate(90 150 80)">adol-c</text>
  <text x="185" y="80" fill="white" font-family="sans-serif" font-weight="bold" font-size="12" text-anchor="end" dominant-baseline="middle" transform="rotate(90 185 80)">codipack</text>
  <text x="220" y="80" fill="white" font-family="sans-serif" font-weight="bold" font-size="12" text-anchor="end" dominant-baseline="middle" transform="rotate(90 220 80)">cppad</text>
  <text x="255" y="80" fill="white" font-family="sans-serif" font-weight="bold" font-size="12" text-anchor="end" dominant-baseline="middle" transform="rotate(90 255 80)">enzyme</text>
  <text x="290" y="80" fill="white" font-family="sans-serif" font-weight="bold" font-size="12" text-anchor="end" dominant-baseline="middle" transform="rotate(90 290 80)">enzyme-jl</text>
  <text x="325" y="80" fill="white" font-family="sans-serif" font-weight="bold" font-size="12" text-anchor="end" dominant-baseline="middle" transform="rotate(90 325 80)">finite</text>
  <text x="360" y="80" fill="white" font-family="sans-serif" font-weight="bold" font-size="12" text-anchor="end" dominant-baseline="middle" transform="rotate(90 360 80)">floretta</text>
  <text x="395" y="80" fill="white" font-family="sans-serif" font-weight="bold" font-size="12" text-anchor="end" dominant-baseline="middle" transform="rotate(90 395 80)">forwarddiff-jl</text>
  <text x="430" y="80" fill="white" font-family="sans-serif" font-weight="bold" font-size="12" text-anchor="end" dominant-baseline="middle" transform="rotate(90 430 80)">futhark</text>
  <text x="465" y="80" fill="white" font-family="sans-serif" font-weight="bold" font-size="12" text-anchor="end" dominant-baseline="middle" transform="rotate(90 465 80)">haskell</text>
  <text x="500" y="80" fill="white" font-family="sans-serif" font-weight="bold" font-size="12" text-anchor="end" dominant-baseline="middle" transform="rotate(90 500 80)">jax</text>
  <text x="535" y="80" fill="white" font-family="sans-serif" font-weight="bold" font-size="12" text-anchor="end" dominant-baseline="middle" transform="rotate(90 535 80)">manual</text>
  <text x="570" y="80" fill="white" font-family="sans-serif" font-weight="bold" font-size="12" text-anchor="end" dominant-baseline="middle" transform="rotate(90 570 80)">mooncake-jl</text>
  <text x="605" y="80" fill="white" font-family="sans-serif" font-weight="bold" font-size="12" text-anchor="end" dominant-baseline="middle" transform="rotate(90 605 80)">ocaml</text>
  <text x="640" y="80" fill="white" font-family="sans-serif" font-weight="bold" font-size="12" text-anchor="end" dominant-baseline="middle" transform="rotate(90 640 80)">pytorch</text>
  <text x="675" y="80" fill="white" font-family="sans-serif" font-weight="bold" font-size="12" text-anchor="end" dominant-baseline="middle" transform="rotate(90 675 80)">reversediff-jl</text>
  <text x="710" y="80" fill="white" font-family="sans-serif" font-weight="bold" font-size="12" text-anchor="end" dominant-baseline="middle" transform="rotate(90 710 80)">scilean</text>
  <text x="745" y="80" fill="white" font-family="sans-serif" font-weight="bold" font-size="12" text-anchor="end" dominant-baseline="middle" transform="rotate(90 745 80)">tapenade</text>
  <text x="780" y="80" fill="white" font-family="sans-serif" font-weight="bold" font-size="12" text-anchor="end" dominant-baseline="middle" transform="rotate(90 780 80)">tensorflow</text>
  <text x="815" y="80" fill="white" font-family="sans-serif" font-weight="bold" font-size="12" text-anchor="end" dominant-baseline="middle" transform="rotate(90 815 80)">tensorflow-js</text>
  <text x="850" y="80" fill="white" font-family="sans-serif" font-weight="bold" font-size="12" text-anchor="end" dominant-baseline="middle" transform="rotate(90 850 80)">zygote</text>
  <rect x="65" y="85" width="30" height="30" fill="hsl(240 100% 80.31773162022199%)" />
  <rect x="100" y="85" width="30" height="30" fill="hsl(240 100% 82.1956419610015%)" />
  <rect x="135" y="85" width="30" height="30" fill="hsl(240 100% 97.88743045348693%)" />
  <rect x="170" y="85" width="30" height="30" fill="hsl(240 100% 81.24568108747904%)" />
  <rect x="205" y="85" width="30" height="30" fill="hsl(240 100% 98.93301263415643%)" />
  <rect x="240" y="85" width="30" height="30" fill="hsl(240 100% 50%)" />
  <rect x="310" y="85" width="30" height="30" fill="hsl(240 100% 92.7902477666513%)" />
  <rect x="415" y="85" width="30" height="30" fill="hsl(240 100% 66.53845092332637%)" />
  <rect x="520" y="85" width="30" height="30" fill="hsl(240 100% 53.42812856497582%)" />
  <rect x="625" y="85" width="30" height="30" fill="rgb(255 255 255 / 50%)" />
  <rect x="730" y="85" width="30" height="30" fill="hsl(240 100% 73.56477476638923%)" />
  <rect x="765" y="85" width="30" height="30" fill="rgb(255 255 255 / 50%)" />
  <rect x="835" y="85" width="30" height="30" fill="hsl(240 100% 99.72031388702109%)" />
  <rect x="65" y="120" width="30" height="30" fill="hsl(240 100% 50%)" />
  <rect x="100" y="120" width="30" height="30" fill="hsl(240 100% 82.74344165451495%)" />
  <rect x="135" y="120" width="30" height="30" fill="hsl(240 100% 85.36533274753913%)" />
  <rect x="170" y="120" width="30" height="30" fill="hsl(240 100% 51.89029553304541%)" />
  <rect x="205" y="120" width="30" height="30" fill="hsl(240 100% 92.62444006124795%)" />
  <rect x="240" y="120" width="30" height="30" fill="hsl(240 100% 91.56668761249614%)" />
  <rect x="275" y="120" width="30" height="30" fill="hsl(240 100% 99.34013455614006%)" />
  <rect x="310" y="120" width="30" height="30" fill="hsl(240 100% 98.98384232827452%)" />
  <rect x="380" y="120" width="30" height="30" fill="hsl(240 100% 93.3833727397281%)" />
  <rect x="415" y="120" width="30" height="30" fill="hsl(240 100% 94.56116515972397%)" />
  <rect x="450" y="120" width="30" height="30" fill="hsl(240 100% 97.87076895027167%)" />
  <rect x="520" y="120" width="30" height="30" fill="hsl(240 100% 79.35131257053266%)" />
  <rect x="555" y="120" width="30" height="30" fill="hsl(240 100% 91.6102776108816%)" />
  <rect x="660" y="120" width="30" height="30" fill="rgb(255 255 255 / 50%)" />
  <rect x="835" y="120" width="30" height="30" fill="rgb(255 255 255 / 50%)" />
  <rect x="65" y="155" width="30" height="30" fill="hsl(240 100% 98.51174166022614%)" />
  <rect x="100" y="155" width="30" height="30" fill="hsl(240 100% 98.83056684298602%)" />
  <rect x="135" y="155" width="30" height="30" fill="hsl(240 100% 99.08064747159621%)" />
  <rect x="170" y="155" width="30" height="30" fill="hsl(240 100% 97.96795142123673%)" />
  <rect x="205" y="155" width="30" height="30" fill="hsl(240 100% 99.8449384413544%)" />
  <rect x="240" y="155" width="30" height="30" fill="hsl(240 100% 91.0302268575287%)" />
  <rect x="275" y="155" width="30" height="30" fill="hsl(240 100% 92.70806274837287%)" />
  <rect x="310" y="155" width="30" height="30" fill="rgb(255 255 255 / 50%)" />
  <rect x="415" y="155" width="30" height="30" fill="hsl(240 100% 92.77269866385983%)" />
  <rect x="485" y="155" width="30" height="30" fill="hsl(240 100% 50%)" />
  <rect x="520" y="155" width="30" height="30" fill="hsl(240 100% 81.11208530077685%)" />
  <rect x="590" y="155" width="30" height="30" fill="hsl(240 100% 99.59016509055574%)" />
  <rect x="625" y="155" width="30" height="30" fill="hsl(240 100% 65.82560885231504%)" />
  <rect x="695" y="155" width="30" height="30" fill="hsl(240 100% 95.37338618514865%)" />
  <rect x="730" y="155" width="30" height="30" fill="hsl(240 100% 83.3428293950411%)" />
  <rect x="765" y="155" width="30" height="30" fill="hsl(240 100% 99.57387552576628%)" />
  <rect x="835" y="155" width="30" height="30" fill="hsl(240 100% 96.04908247915353%)" />
  <rect x="65" y="190" width="30" height="30" fill="hsl(240 100% 50%)" />
  <rect x="100" y="190" width="30" height="30" fill="hsl(240 100% 50%)" />
  <rect x="135" y="190" width="30" height="30" fill="hsl(240 100% 50%)" />
  <rect x="170" y="190" width="30" height="30" fill="hsl(240 100% 50%)" />
  <rect x="205" y="190" width="30" height="30" fill="hsl(240 100% 50%)" />
  <rect x="240" y="190" width="30" height="30" fill="hsl(240 100% 50%)" />
  <rect x="275" y="190" width="30" height="30" fill="hsl(240 100% 50%)" />
  <rect x="310" y="190" width="30" height="30" fill="hsl(240 100% 50%)" />
  <rect x="345" y="190" width="30" height="30" fill="hsl(240 100% 50%)" />
  <rect x="380" y="190" width="30" height="30" fill="hsl(240 100% 50%)" />
  <rect x="415" y="190" width="30" height="30" fill="hsl(240 100% 50%)" />
  <rect x="450" y="190" width="30" height="30" fill="hsl(240 100% 50%)" />
  <rect x="485" y="190" width="30" height="30" fill="hsl(240 100% 50%)" />
  <rect x="520" y="190" width="30" height="30" fill="hsl(240 100% 50%)" />
  <rect x="555" y="190" width="30" height="30" fill="hsl(240 100% 50%)" />
  <rect x="590" y="190" width="30" height="30" fill="hsl(240 100% 50%)" />
  <rect x="625" y="190" width="30" height="30" fill="hsl(240 100% 50%)" />
  <rect x="660" y="190" width="30" height="30" fill="hsl(240 100% 50%)" />
  <rect x="695" y="190" width="30" height="30" fill="hsl(240 100% 50%)" />
  <rect x="730" y="190" width="30" height="30" fill="hsl(240 100% 50%)" />
  <rect x="765" y="190" width="30" height="30" fill="hsl(240 100% 50%)" />
  <rect x="800" y="190" width="30" height="30" fill="hsl(240 100% 50%)" />
  <rect x="835" y="190" width="30" height="30" fill="hsl(240 100% 50%)" />
  <rect x="100" y="225" width="30" height="30" fill="hsl(240 100% 96.28632562841196%)" />
  <rect x="135" y="225" width="30" height="30" fill="hsl(240 100% 86.2812026810604%)" />
  <rect x="170" y="225" width="30" height="30" fill="hsl(240 100% 87.88866918938443%)" />
  <rect x="240" y="225" width="30" height="30" fill="hsl(240 100% 90.1884296127609%)" />
  <rect x="310" y="225" width="30" height="30" fill="rgb(255 255 255 / 50%)" />
  <rect x="415" y="225" width="30" height="30" fill="hsl(240 100% 89.37333670981715%)" />
  <rect x="520" y="225" width="30" height="30" fill="hsl(240 100% 50%)" />
  <rect x="625" y="225" width="30" height="30" fill="rgb(255 255 255 / 50%)" />
  <rect x="730" y="225" width="30" height="30" fill="hsl(240 100% 92.3348903579207%)" />
  <rect x="765" y="225" width="30" height="30" fill="rgb(255 255 255 / 50%)" />
  <rect x="835" y="225" width="30" height="30" fill="hsl(240 100% 94.0257564452234%)" />
  <rect x="65" y="260" width="30" height="30" fill="hsl(240 100% 99.80815725628305%)" />
  <rect x="135" y="260" width="30" height="30" fill="hsl(240 100% 99.8605762641356%)" />
  <rect x="170" y="260" width="30" height="30" fill="hsl(240 100% 98.92239438017162%)" />
  <rect x="205" y="260" width="30" height="30" fill="rgb(255 255 255 / 50%)" />
  <rect x="240" y="260" width="30" height="30" fill="hsl(240 100% 87.16295319685973%)" />
  <rect x="310" y="260" width="30" height="30" fill="rgb(255 255 255 / 50%)" />
  <rect x="415" y="260" width="30" height="30" fill="hsl(240 100% 81.41740579388423%)" />
  <rect x="450" y="260" width="30" height="30" fill="rgb(255 255 255 / 50%)" />
  <rect x="485" y="260" width="30" height="30" fill="hsl(240 100% 50%)" />
  <rect x="520" y="260" width="30" height="30" fill="hsl(240 100% 72.53483162673237%)" />
  <rect x="625" y="260" width="30" height="30" fill="hsl(240 100% 97.06169053268425%)" />
  <rect x="695" y="260" width="30" height="30" fill="hsl(240 100% 94.17359062961751%)" />
  <rect x="65" y="295" width="30" height="30" fill="hsl(240 100% 86.17462138058438%)" />
  <rect x="100" y="295" width="30" height="30" fill="hsl(240 100% 97.62535374106322%)" />
  <rect x="135" y="295" width="30" height="30" fill="hsl(240 100% 94.94941055919205%)" />
  <rect x="170" y="295" width="30" height="30" fill="hsl(240 100% 89.27290649668251%)" />
  <rect x="205" y="295" width="30" height="30" fill="hsl(240 100% 99.48215620200423%)" />
  <rect x="240" y="295" width="30" height="30" fill="hsl(240 100% 50.337278195771916%)" />
  <rect x="275" y="295" width="30" height="30" fill="hsl(240 100% 50%)" />
  <rect x="310" y="295" width="30" height="30" fill="hsl(240 100% 99.49634134185153%)" />
  <rect x="345" y="295" width="30" height="30" fill="hsl(240 100% 94.67790492479942%)" />
  <rect x="415" y="295" width="30" height="30" fill="hsl(240 100% 55.01479887110604%)" />
  <rect x="450" y="295" width="30" height="30" fill="hsl(240 100% 99.31849841188266%)" />
  <rect x="485" y="295" width="30" height="30" fill="hsl(240 100% 88.24094146932045%)" />
  <rect x="520" y="295" width="30" height="30" fill="hsl(240 100% 57.6117600050628%)" />
  <rect x="695" y="295" width="30" height="30" fill="hsl(240 100% 97.5906030696021%)" />
  <rect x="800" y="295" width="30" height="30" fill="hsl(240 100% 99.58471985802366%)" />
  <rect x="835" y="295" width="30" height="30" fill="hsl(240 100% 99.95738470101608%)" />
  <rect x="65" y="330" width="30" height="30" fill="hsl(240 100% 86.79318431666614%)" />
  <rect x="100" y="330" width="30" height="30" fill="hsl(240 100% 93.98397119285761%)" />
  <rect x="135" y="330" width="30" height="30" fill="hsl(240 100% 96.87110126196227%)" />
  <rect x="170" y="330" width="30" height="30" fill="hsl(240 100% 86.72252990271838%)" />
  <rect x="205" y="330" width="30" height="30" fill="hsl(240 100% 99.18272146994889%)" />
  <rect x="240" y="330" width="30" height="30" fill="hsl(240 100% 79.32745625904141%)" />
  <rect x="275" y="330" width="30" height="30" fill="hsl(240 100% 87.54139122846901%)" />
  <rect x="310" y="330" width="30" height="30" fill="rgb(255 255 255 / 50%)" />
  <rect x="345" y="330" width="30" height="30" fill="hsl(240 100% 97.13950203400613%)" />
  <rect x="415" y="330" width="30" height="30" fill="hsl(240 100% 85.42458270361531%)" />
  <rect x="450" y="330" width="30" height="30" fill="hsl(240 100% 99.80589153390967%)" />
  <rect x="485" y="330" width="30" height="30" fill="hsl(240 100% 70.16748630866434%)" />
  <rect x="520" y="330" width="30" height="30" fill="hsl(240 100% 69.70354619887844%)" />
  <rect x="590" y="330" width="30" height="30" fill="hsl(240 100% 93.63063450703122%)" />
  <rect x="625" y="330" width="30" height="30" fill="hsl(240 100% 50%)" />
  <rect x="765" y="330" width="30" height="30" fill="hsl(240 100% 94.1766868550216%)" />
  <rect x="800" y="330" width="30" height="30" fill="hsl(240 100% 99.1838546434321%)" />
  <rect x="835" y="330" width="30" height="30" fill="hsl(240 100% 79.34197110432717%)" />
  <rect x="65" y="365" width="30" height="30" fill="hsl(240 100% 57.36395940249424%)" />
  <rect x="100" y="365" width="30" height="30" fill="hsl(240 100% 71.8708446257954%)" />
  <rect x="135" y="365" width="30" height="30" fill="hsl(240 100% 81.81283547948945%)" />
  <rect x="170" y="365" width="30" height="30" fill="hsl(240 100% 50%)" />
  <rect x="205" y="365" width="30" height="30" fill="hsl(240 100% 96.06130173973104%)" />
  <rect x="240" y="365" width="30" height="30" fill="hsl(240 100% 59.52556873648956%)" />
  <rect x="275" y="365" width="30" height="30" fill="hsl(240 100% 92.64487184038981%)" />
  <rect x="310" y="365" width="30" height="30" fill="hsl(240 100% 99.86146462343147%)" />
  <rect x="415" y="365" width="30" height="30" fill="hsl(240 100% 66.71957049217427%)" />
  <rect x="520" y="365" width="30" height="30" fill="hsl(240 100% 86.0127578380648%)" />
  <rect x="625" y="365" width="30" height="30" fill="hsl(240 100% 99.63839830090461%)" />
  <rect x="730" y="365" width="30" height="30" fill="hsl(240 100% 63.310550739813614%)" />
  <rect x="765" y="365" width="30" height="30" fill="hsl(240 100% 98.12971912471085%)" />
  <rect x="835" y="365" width="30" height="30" fill="hsl(240 100% 98.71894790509607%)" />
  <rect x="65" y="400" width="30" height="30" fill="hsl(240 100% 98.2133251079752%)" />
  <rect x="100" y="400" width="30" height="30" fill="hsl(240 100% 99.42188135714468%)" />
  <rect x="135" y="400" width="30" height="30" fill="hsl(240 100% 99.66669017198376%)" />
  <rect x="170" y="400" width="30" height="30" fill="hsl(240 100% 94.0421547852221%)" />
  <rect x="205" y="400" width="30" height="30" fill="hsl(240 100% 99.24532068550792%)" />
  <rect x="240" y="400" width="30" height="30" fill="hsl(240 100% 87.95076700357619%)" />
  <rect x="275" y="400" width="30" height="30" fill="hsl(240 100% 95.42674374826798%)" />
  <rect x="310" y="400" width="30" height="30" fill="rgb(255 255 255 / 50%)" />
  <rect x="380" y="400" width="30" height="30" fill="rgb(255 255 255 / 50%)" />
  <rect x="415" y="400" width="30" height="30" fill="hsl(240 100% 94.07572959715975%)" />
  <rect x="450" y="400" width="30" height="30" fill="hsl(240 100% 99.97236314084054%)" />
  <rect x="485" y="400" width="30" height="30" fill="hsl(240 100% 78.95876538002486%)" />
  <rect x="520" y="400" width="30" height="30" fill="hsl(240 100% 50%)" />
  <rect x="555" y="400" width="30" height="30" fill="hsl(240 100% 99.13849331453491%)" />
  <rect x="660" y="400" width="30" height="30" fill="rgb(255 255 255 / 50%)" />
  <rect x="835" y="400" width="30" height="30" fill="hsl(240 100% 99.24976903384231%)" />
  <rect x="65" y="435" width="30" height="30" fill="hsl(240 100% 93.30324469048718%)" />
  <rect x="240" y="435" width="30" height="30" fill="hsl(240 100% 50%)" />
  <rect x="310" y="435" width="30" height="30" fill="hsl(240 100% 93.85776579350916%)" />
  <rect x="415" y="435" width="30" height="30" fill="hsl(240 100% 87.04690144004687%)" />
  <rect x="450" y="435" width="30" height="30" fill="hsl(240 100% 99.79243702107912%)" />
  <rect x="65" y="470" width="30" height="30" fill="hsl(240 100% 50%)" />
  <rect x="240" y="470" width="30" height="30" fill="hsl(240 100% 50.53410549746186%)" />
  <rect x="310" y="470" width="30" height="30" fill="hsl(240 100% 96.99483686446713%)" />
  <rect x="415" y="470" width="30" height="30" fill="hsl(240 100% 89.16338183490578%)" />
  <rect x="450" y="470" width="30" height="30" fill="hsl(240 100% 99.56249674448847%)" />
</svg>
