<svg xmlns="http://www.w3.org/2000/svg" viewBox="0 0 870 505">
  <rect x="0" y="0" width="870" height="505" rx="5" ry="5" fill="#222" />
  <text x="60" y="100" fill="white" font-family="sans-serif" font-weight="bold" font-size="12" text-anchor="end" dominant-baseline="middle">ba</text>
  <text x="60" y="135" fill="white" font-family="sans-serif" font-weight="bold" font-size="12" text-anchor="end" dominant-baseline="middle">det</text>
  <text x="60" y="170" fill="white" font-family="sans-serif" font-weight="bold" font-size="12" text-anchor="end" dominant-baseline="middle">gmm</text>
  <text x="60" y="205" fill="white" font-family="sans-serif" font-weight="bold" font-size="12" text-anchor="end" dominant-baseline="middle">hello</text>
  <text x="60" y="240" fill="white" font-family="sans-serif" font-weight="bold" font-size="12" text-anchor="end" dominant-baseline="middle">ht</text>
  <text x="60" y="275" fill="white" font-family="sans-serif" font-weight="bold" font-size="12" text-anchor="end" dominant-baseline="middle">kmeans</text>
  <text x="60" y="310" fill="white" font-family="sans-serif" font-weight="bold" font-size="12" text-anchor="end" dominant-baseline="middle">llsq</text>
  <text x="60" y="345" fill="white" font-family="sans-serif" font-weight="bold" font-size="12" text-anchor="end" dominant-baseline="middle">lse</text>
  <text x="60" y="380" fill="white" font-family="sans-serif" font-weight="bold" font-size="12" text-anchor="end" dominant-baseline="middle">lstm</text>
  <text x="60" y="415" fill="white" font-family="sans-serif" font-weight="bold" font-size="12" text-anchor="end" dominant-baseline="middle">ode</text>
  <text x="60" y="450" fill="white" font-family="sans-serif" font-weight="bold" font-size="12" text-anchor="end" dominant-baseline="middle">particle</text>
  <text x="60" y="485" fill="white" font-family="sans-serif" font-weight="bold" font-size="12" text-anchor="end" dominant-baseline="middle">saddle</text>
  <text x="80" y="80" fill="white" font-family="sans-serif" font-weight="bold" font-size="12" text-anchor="end" dominant-baseline="middle" transform="rotate(90 80 80)">ad-hpp</text>
  <text x="115" y="80" fill="white" font-family="sans-serif" font-weight="bold" font-size="12" text-anchor="end" dominant-baseline="middle" transform="rotate(90 115 80)">adept</text>
  <text x="150" y="80" fill="white" font-family="sans-serif" font-weight="bold" font-size="12" text-anchor="end" dominant-baseline="middle" transform="rotate(90 150 80)">adol-c</text>
  <text x="185" y="80" fill="white" font-family="sans-serif" font-weight="bold" font-size="12" text-anchor="end" dominant-baseline="middle" transform="rotate(90 185 80)">codipack</text>
  <text x="220" y="80" fill="white" font-family="sans-serif" font-weight="bold" font-size="12" text-anchor="end" dominant-baseline="middle" transform="rotate(90 220 80)">cppad</text>
  <text x="255" y="80" fill="white" font-family="sans-serif" font-weight="bold" font-size="12" text-anchor="end" dominant-baseline="middle" transform="rotate(90 255 80)">enzyme</text>
  <text x="290" y="80" fill="white" font-family="sans-serif" font-weight="bold" font-size="12" text-anchor="end" dominant-baseline="middle" transform="rotate(90 290 80)">enzyme-jl</text>
  <text x="325" y="80" fill="white" font-family="sans-serif" font-weight="bold" font-size="12" text-anchor="end" dominant-baseline="middle" transform="rotate(90 325 80)">finite</text>
  <text x="360" y="80" fill="white" font-family="sans-serif" font-weight="bold" font-size="12" text-anchor="end" dominant-baseline="middle" transform="rotate(90 360 80)">floretta</text>
  <text x="395" y="80" fill="white" font-family="sans-serif" font-weight="bold" font-size="12" text-anchor="end" dominant-baseline="middle" transform="rotate(90 395 80)">forwarddiff-jl</text>
  <text x="430" y="80" fill="white" font-family="sans-serif" font-weight="bold" font-size="12" text-anchor="end" dominant-baseline="middle" transform="rotate(90 430 80)">futhark</text>
  <text x="465" y="80" fill="white" font-family="sans-serif" font-weight="bold" font-size="12" text-anchor="end" dominant-baseline="middle" transform="rotate(90 465 80)">haskell</text>
  <text x="500" y="80" fill="white" font-family="sans-serif" font-weight="bold" font-size="12" text-anchor="end" dominant-baseline="middle" transform="rotate(90 500 80)">jax</text>
  <text x="535" y="80" fill="white" font-family="sans-serif" font-weight="bold" font-size="12" text-anchor="end" dominant-baseline="middle" transform="rotate(90 535 80)">manual</text>
  <text x="570" y="80" fill="white" font-family="sans-serif" font-weight="bold" font-size="12" text-anchor="end" dominant-baseline="middle" transform="rotate(90 570 80)">mooncake-jl</text>
  <text x="605" y="80" fill="white" font-family="sans-serif" font-weight="bold" font-size="12" text-anchor="end" dominant-baseline="middle" transform="rotate(90 605 80)">ocaml</text>
  <text x="640" y="80" fill="white" font-family="sans-serif" font-weight="bold" font-size="12" text-anchor="end" dominant-baseline="middle" transform="rotate(90 640 80)">pytorch</text>
  <text x="675" y="80" fill="white" font-family="sans-serif" font-weight="bold" font-size="12" text-anchor="end" dominant-baseline="middle" transform="rotate(90 675 80)">reversediff-jl</text>
  <text x="710" y="80" fill="white" font-family="sans-serif" font-weight="bold" font-size="12" text-anchor="end" dominant-baseline="middle" transform="rotate(90 710 80)">scilean</text>
  <text x="745" y="80" fill="white" font-family="sans-serif" font-weight="bold" font-size="12" text-anchor="end" dominant-baseline="middle" transform="rotate(90 745 80)">tapenade</text>
  <text x="780" y="80" fill="white" font-family="sans-serif" font-weight="bold" font-size="12" text-anchor="end" dominant-baseline="middle" transform="rotate(90 780 80)">tensorflow</text>
  <text x="815" y="80" fill="white" font-family="sans-serif" font-weight="bold" font-size="12" text-anchor="end" dominant-baseline="middle" transform="rotate(90 815 80)">tensorflow-js</text>
  <text x="850" y="80" fill="white" font-family="sans-serif" font-weight="bold" font-size="12" text-anchor="end" dominant-baseline="middle" transform="rotate(90 850 80)">zygote</text>
  <rect x="65" y="85" width="30" height="30" fill="hsl(240 100% 81.35506656004176%)" />
  <rect x="100" y="85" width="30" height="30" fill="hsl(240 100% 82.79323865537513%)" />
  <rect x="135" y="85" width="30" height="30" fill="hsl(240 100% 98.20789636783765%)" />
  <rect x="170" y="85" width="30" height="30" fill="hsl(240 100% 81.76903019484021%)" />
  <rect x="205" y="85" width="30" height="30" fill="hsl(240 100% 98.86729442727365%)" />
  <rect x="240" y="85" width="30" height="30" fill="hsl(240 100% 56.9242149448829%)" />
  <rect x="310" y="85" width="30" height="30" fill="hsl(240 100% 93.67528727061661%)" />
  <rect x="415" y="85" width="30" height="30" fill="hsl(240 100% 68.411859754455%)" />
  <rect x="520" y="85" width="30" height="30" fill="hsl(240 100% 50%)" />
  <rect x="625" y="85" width="30" height="30" fill="rgb(255 255 255 / 50%)" />
  <rect x="730" y="85" width="30" height="30" fill="hsl(240 100% 74.8091496800358%)" />
  <rect x="765" y="85" width="30" height="30" fill="rgb(255 255 255 / 50%)" />
  <rect x="835" y="85" width="30" height="30" fill="hsl(240 100% 99.75426369424426%)" />
  <rect x="65" y="120" width="30" height="30" fill="hsl(240 100% 50%)" />
  <rect x="100" y="120" width="30" height="30" fill="hsl(240 100% 81.84233902704615%)" />
  <rect x="135" y="120" width="30" height="30" fill="hsl(240 100% 85.36650593520176%)" />
  <rect x="170" y="120" width="30" height="30" fill="hsl(240 100% 55.15805204217729%)" />
  <rect x="205" y="120" width="30" height="30" fill="hsl(240 100% 92.38130392543823%)" />
  <rect x="240" y="120" width="30" height="30" fill="hsl(240 100% 92.37082824333896%)" />
  <rect x="275" y="120" width="30" height="30" fill="hsl(240 100% 99.50349283540523%)" />
  <rect x="310" y="120" width="30" height="30" fill="hsl(240 100% 99.04856419852968%)" />
  <rect x="380" y="120" width="30" height="30" fill="hsl(240 100% 93.62975829696822%)" />
  <rect x="415" y="120" width="30" height="30" fill="hsl(240 100% 94.87630700185065%)" />
  <rect x="450" y="120" width="30" height="30" fill="hsl(240 100% 98.00286740488502%)" />
  <rect x="520" y="120" width="30" height="30" fill="hsl(240 100% 83.1169296693758%)" />
  <rect x="555" y="120" width="30" height="30" fill="hsl(240 100% 96.21083184915359%)" />
  <rect x="660" y="120" width="30" height="30" fill="rgb(255 255 255 / 50%)" />
  <rect x="835" y="120" width="30" height="30" fill="rgb(255 255 255 / 50%)" />
  <rect x="65" y="155" width="30" height="30" fill="hsl(240 100% 98.84896384314519%)" />
  <rect x="100" y="155" width="30" height="30" fill="hsl(240 100% 98.71340512497054%)" />
  <rect x="135" y="155" width="30" height="30" fill="hsl(240 100% 99.09901860763588%)" />
  <rect x="170" y="155" width="30" height="30" fill="hsl(240 100% 98.35985162179608%)" />
  <rect x="205" y="155" width="30" height="30" fill="hsl(240 100% 99.8467778232916%)" />
  <rect x="240" y="155" width="30" height="30" fill="hsl(240 100% 91.45194788157019%)" />
  <rect x="275" y="155" width="30" height="30" fill="hsl(240 100% 90.21949654449419%)" />
  <rect x="310" y="155" width="30" height="30" fill="rgb(255 255 255 / 50%)" />
  <rect x="415" y="155" width="30" height="30" fill="hsl(240 100% 92.76407599886049%)" />
  <rect x="485" y="155" width="30" height="30" fill="hsl(240 100% 50%)" />
  <rect x="520" y="155" width="30" height="30" fill="hsl(240 100% 85.73090404529475%)" />
  <rect x="555" y="155" width="30" height="30" fill="hsl(240 100% 95.91898101159681%)" />
  <rect x="590" y="155" width="30" height="30" fill="hsl(240 100% 99.61754594417967%)" />
  <rect x="625" y="155" width="30" height="30" fill="hsl(240 100% 64.31431967951312%)" />
  <rect x="695" y="155" width="30" height="30" fill="hsl(240 100% 95.202019870261%)" />
  <rect x="730" y="155" width="30" height="30" fill="hsl(240 100% 84.71909882779956%)" />
  <rect x="765" y="155" width="30" height="30" fill="hsl(240 100% 99.57373674666357%)" />
  <rect x="835" y="155" width="30" height="30" fill="hsl(240 100% 96.21594128427991%)" />
  <rect x="65" y="190" width="30" height="30" fill="hsl(240 100% 50%)" />
  <rect x="100" y="190" width="30" height="30" fill="hsl(240 100% 50%)" />
  <rect x="135" y="190" width="30" height="30" fill="hsl(240 100% 50%)" />
  <rect x="170" y="190" width="30" height="30" fill="hsl(240 100% 50%)" />
  <rect x="205" y="190" width="30" height="30" fill="hsl(240 100% 50%)" />
  <rect x="240" y="190" width="30" height="30" fill="hsl(240 100% 50%)" />
  <rect x="275" y="190" width="30" height="30" fill="hsl(240 100% 50%)" />
  <rect x="310" y="190" width="30" height="30" fill="hsl(240 100% 50%)" />
  <rect x="345" y="190" width="30" height="30" fill="hsl(240 100% 50%)" />
  <rect x="380" y="190" width="30" height="30" fill="hsl(240 100% 50%)" />
  <rect x="415" y="190" width="30" height="30" fill="hsl(240 100% 50%)" />
  <rect x="450" y="190" width="30" height="30" fill="hsl(240 100% 50%)" />
  <rect x="485" y="190" width="30" height="30" fill="hsl(240 100% 50%)" />
  <rect x="520" y="190" width="30" height="30" fill="hsl(240 100% 50%)" />
  <rect x="555" y="190" width="30" height="30" fill="hsl(240 100% 50%)" />
  <rect x="590" y="190" width="30" height="30" fill="hsl(240 100% 50%)" />
  <rect x="625" y="190" width="30" height="30" fill="hsl(240 100% 50%)" />
  <rect x="660" y="190" width="30" height="30" fill="hsl(240 100% 50%)" />
  <rect x="695" y="190" width="30" height="30" fill="hsl(240 100% 50%)" />
  <rect x="730" y="190" width="30" height="30" fill="hsl(240 100% 50%)" />
  <rect x="765" y="190" width="30" height="30" fill="hsl(240 100% 50%)" />
  <rect x="800" y="190" width="30" height="30" fill="hsl(240 100% 50%)" />
  <rect x="835" y="190" width="30" height="30" fill="hsl(240 100% 50%)" />
  <rect x="100" y="225" width="30" height="30" fill="hsl(240 100% 96.17107745996466%)" />
  <rect x="135" y="225" width="30" height="30" fill="hsl(240 100% 88.22241579754734%)" />
  <rect x="170" y="225" width="30" height="30" fill="hsl(240 100% 87.84295218789842%)" />
  <rect x="240" y="225" width="30" height="30" fill="hsl(240 100% 90.26300525772146%)" />
  <rect x="310" y="225" width="30" height="30" fill="rgb(255 255 255 / 50%)" />
  <rect x="415" y="225" width="30" height="30" fill="hsl(240 100% 89.60409004017987%)" />
  <rect x="520" y="225" width="30" height="30" fill="hsl(240 100% 50%)" />
  <rect x="625" y="225" width="30" height="30" fill="rgb(255 255 255 / 50%)" />
  <rect x="730" y="225" width="30" height="30" fill="hsl(240 100% 92.46657306776866%)" />
  <rect x="765" y="225" width="30" height="30" fill="rgb(255 255 255 / 50%)" />
  <rect x="835" y="225" width="30" height="30" fill="hsl(240 100% 94.94144474564145%)" />
  <rect x="135" y="260" width="30" height="30" fill="hsl(240 100% 99.86861738686422%)" />
  <rect x="170" y="260" width="30" height="30" fill="hsl(240 100% 98.78139031377877%)" />
  <rect x="205" y="260" width="30" height="30" fill="rgb(255 255 255 / 50%)" />
  <rect x="240" y="260" width="30" height="30" fill="hsl(240 100% 87.09252723400506%)" />
  <rect x="310" y="260" width="30" height="30" fill="rgb(255 255 255 / 50%)" />
  <rect x="380" y="260" width="30" height="30" fill="rgb(255 255 255 / 50%)" />
  <rect x="415" y="260" width="30" height="30" fill="hsl(240 100% 80.85064788619407%)" />
  <rect x="450" y="260" width="30" height="30" fill="rgb(255 255 255 / 50%)" />
  <rect x="485" y="260" width="30" height="30" fill="hsl(240 100% 50%)" />
  <rect x="520" y="260" width="30" height="30" fill="hsl(240 100% 72.75139427396161%)" />
  <rect x="625" y="260" width="30" height="30" fill="hsl(240 100% 96.9192227785014%)" />
  <rect x="660" y="260" width="30" height="30" fill="rgb(255 255 255 / 50%)" />
  <rect x="695" y="260" width="30" height="30" fill="hsl(240 100% 94.17446152153998%)" />
  <rect x="65" y="295" width="30" height="30" fill="hsl(240 100% 84.69231423013503%)" />
  <rect x="100" y="295" width="30" height="30" fill="hsl(240 100% 97.55340233038147%)" />
  <rect x="135" y="295" width="30" height="30" fill="hsl(240 100% 93.44652980509494%)" />
  <rect x="170" y="295" width="30" height="30" fill="hsl(240 100% 88.32125539374813%)" />
  <rect x="205" y="295" width="30" height="30" fill="hsl(240 100% 99.27510201649592%)" />
  <rect x="240" y="295" width="30" height="30" fill="hsl(240 100% 50%)" />
  <rect x="275" y="295" width="30" height="30" fill="hsl(240 100% 51.51141917877235%)" />
  <rect x="310" y="295" width="30" height="30" fill="hsl(240 100% 99.45189379681379%)" />
  <rect x="345" y="295" width="30" height="30" fill="hsl(240 100% 94.19979423632651%)" />
  <rect x="415" y="295" width="30" height="30" fill="hsl(240 100% 50.49690759448481%)" />
  <rect x="450" y="295" width="30" height="30" fill="hsl(240 100% 99.20311625238003%)" />
  <rect x="485" y="295" width="30" height="30" fill="hsl(240 100% 87.36484071810537%)" />
  <rect x="520" y="295" width="30" height="30" fill="hsl(240 100% 56.63897696301118%)" />
  <rect x="555" y="295" width="30" height="30" fill="hsl(240 100% 89.97735502252101%)" />
  <rect x="695" y="295" width="30" height="30" fill="hsl(240 100% 97.41755556993674%)" />
  <rect x="800" y="295" width="30" height="30" fill="hsl(240 100% 99.53646209020974%)" />
  <rect x="835" y="295" width="30" height="30" fill="hsl(240 100% 99.95985319705738%)" />
  <rect x="65" y="330" width="30" height="30" fill="hsl(240 100% 89.65250294466065%)" />
  <rect x="100" y="330" width="30" height="30" fill="hsl(240 100% 94.0272676505196%)" />
  <rect x="135" y="330" width="30" height="30" fill="hsl(240 100% 95.67100063566221%)" />
  <rect x="170" y="330" width="30" height="30" fill="hsl(240 100% 86.7406877965597%)" />
  <rect x="205" y="330" width="30" height="30" fill="hsl(240 100% 99.18887289112358%)" />
  <rect x="240" y="330" width="30" height="30" fill="hsl(240 100% 81.85341255084282%)" />
  <rect x="275" y="330" width="30" height="30" fill="hsl(240 100% 94.94680002829021%)" />
  <rect x="310" y="330" width="30" height="30" fill="rgb(255 255 255 / 50%)" />
  <rect x="345" y="330" width="30" height="30" fill="hsl(240 100% 96.77939755758035%)" />
  <rect x="415" y="330" width="30" height="30" fill="hsl(240 100% 85.46956669538204%)" />
  <rect x="450" y="330" width="30" height="30" fill="hsl(240 100% 99.80657039506042%)" />
  <rect x="485" y="330" width="30" height="30" fill="hsl(240 100% 77.62868784093462%)" />
  <rect x="520" y="330" width="30" height="30" fill="hsl(240 100% 73.70546158395156%)" />
  <rect x="555" y="330" width="30" height="30" fill="hsl(240 100% 91.0000875771739%)" />
  <rect x="590" y="330" width="30" height="30" fill="hsl(240 100% 93.55868811768676%)" />
  <rect x="625" y="330" width="30" height="30" fill="hsl(240 100% 50%)" />
  <rect x="765" y="330" width="30" height="30" fill="hsl(240 100% 94.23301362338508%)" />
  <rect x="800" y="330" width="30" height="30" fill="hsl(240 100% 99.22353511034822%)" />
  <rect x="835" y="330" width="30" height="30" fill="hsl(240 100% 96.62227443895614%)" />
  <rect x="65" y="365" width="30" height="30" fill="hsl(240 100% 57.32292803387678%)" />
  <rect x="100" y="365" width="30" height="30" fill="hsl(240 100% 72.65943945900892%)" />
  <rect x="135" y="365" width="30" height="30" fill="hsl(240 100% 75.18233079934079%)" />
  <rect x="170" y="365" width="30" height="30" fill="hsl(240 100% 50%)" />
  <rect x="205" y="365" width="30" height="30" fill="hsl(240 100% 95.07911837306744%)" />
  <rect x="240" y="365" width="30" height="30" fill="hsl(240 100% 55.66102624214244%)" />
  <rect x="275" y="365" width="30" height="30" fill="hsl(240 100% 92.8358252795267%)" />
  <rect x="310" y="365" width="30" height="30" fill="hsl(240 100% 99.86099430055276%)" />
  <rect x="415" y="365" width="30" height="30" fill="hsl(240 100% 61.14593074475517%)" />
  <rect x="520" y="365" width="30" height="30" fill="hsl(240 100% 86.15600951449962%)" />
  <rect x="555" y="365" width="30" height="30" fill="hsl(240 100% 95.24268703203391%)" />
  <rect x="625" y="365" width="30" height="30" fill="hsl(240 100% 99.63898459905806%)" />
  <rect x="730" y="365" width="30" height="30" fill="hsl(240 100% 57.93762809913248%)" />
  <rect x="765" y="365" width="30" height="30" fill="hsl(240 100% 98.19622427208357%)" />
  <rect x="835" y="365" width="30" height="30" fill="hsl(240 100% 98.77113483639596%)" />
  <rect x="65" y="400" width="30" height="30" fill="hsl(240 100% 97.89800039329151%)" />
  <rect x="100" y="400" width="30" height="30" fill="hsl(240 100% 99.30634896042616%)" />
  <rect x="135" y="400" width="30" height="30" fill="hsl(240 100% 99.66729090381982%)" />
  <rect x="170" y="400" width="30" height="30" fill="hsl(240 100% 94.18757332045436%)" />
  <rect x="205" y="400" width="30" height="30" fill="hsl(240 100% 99.2040102075966%)" />
  <rect x="240" y="400" width="30" height="30" fill="hsl(240 100% 94.41286590342169%)" />
  <rect x="275" y="400" width="30" height="30" fill="hsl(240 100% 95.13316783198074%)" />
  <rect x="310" y="400" width="30" height="30" fill="rgb(255 255 255 / 50%)" />
  <rect x="380" y="400" width="30" height="30" fill="rgb(255 255 255 / 50%)" />
  <rect x="415" y="400" width="30" height="30" fill="hsl(240 100% 95.01212068613754%)" />
  <rect x="450" y="400" width="30" height="30" fill="hsl(240 100% 99.97008258091822%)" />
  <rect x="485" y="400" width="30" height="30" fill="hsl(240 100% 77.5862104078308%)" />
  <rect x="520" y="400" width="30" height="30" fill="hsl(240 100% 50%)" />
  <rect x="555" y="400" width="30" height="30" fill="hsl(240 100% 99.05441500223513%)" />
  <rect x="660" y="400" width="30" height="30" fill="rgb(255 255 255 / 50%)" />
  <rect x="835" y="400" width="30" height="30" fill="hsl(240 100% 99.18139195756966%)" />
  <rect x="65" y="435" width="30" height="30" fill="hsl(240 100% 92.90433185510985%)" />
  <rect x="240" y="435" width="30" height="30" fill="hsl(240 100% 50%)" />
  <rect x="310" y="435" width="30" height="30" fill="hsl(240 100% 93.40173299983698%)" />
  <rect x="415" y="435" width="30" height="30" fill="hsl(240 100% 86.61890048589517%)" />
  <rect x="450" y="435" width="30" height="30" fill="hsl(240 100% 99.77088350784051%)" />
  <rect x="65" y="470" width="30" height="30" fill="hsl(240 100% 50%)" />
  <rect x="240" y="470" width="30" height="30" fill="hsl(240 100% 56.29537941885474%)" />
  <rect x="310" y="470" width="30" height="30" fill="hsl(240 100% 96.95514935465489%)" />
  <rect x="415" y="470" width="30" height="30" fill="hsl(240 100% 88.90424233369228%)" />
  <rect x="450" y="470" width="30" height="30" fill="hsl(240 100% 99.58013294163872%)" />
</svg>
