<svg xmlns="http://www.w3.org/2000/svg" viewBox="0 0 870 505">
  <rect x="0" y="0" width="870" height="505" rx="5" ry="5" fill="#222" />
  <text x="60" y="100" fill="white" font-family="sans-serif" font-weight="bold" font-size="12" text-anchor="end" dominant-baseline="middle">ba</text>
  <text x="60" y="135" fill="white" font-family="sans-serif" font-weight="bold" font-size="12" text-anchor="end" dominant-baseline="middle">det</text>
  <text x="60" y="170" fill="white" font-family="sans-serif" font-weight="bold" font-size="12" text-anchor="end" dominant-baseline="middle">gmm</text>
  <text x="60" y="205" fill="white" font-family="sans-serif" font-weight="bold" font-size="12" text-anchor="end" dominant-baseline="middle">hello</text>
  <text x="60" y="240" fill="white" font-family="sans-serif" font-weight="bold" font-size="12" text-anchor="end" dominant-baseline="middle">ht</text>
  <text x="60" y="275" fill="white" font-family="sans-serif" font-weight="bold" font-size="12" text-anchor="end" dominant-baseline="middle">kmeans</text>
  <text x="60" y="310" fill="white" font-family="sans-serif" font-weight="bold" font-size="12" text-anchor="end" dominant-baseline="middle">llsq</text>
  <text x="60" y="345" fill="white" font-family="sans-serif" font-weight="bold" font-size="12" text-anchor="end" dominant-baseline="middle">lse</text>
  <text x="60" y="380" fill="white" font-family="sans-serif" font-weight="bold" font-size="12" text-anchor="end" dominant-baseline="middle">lstm</text>
  <text x="60" y="415" fill="white" font-family="sans-serif" font-weight="bold" font-size="12" text-anchor="end" dominant-baseline="middle">ode</text>
  <text x="60" y="450" fill="white" font-family="sans-serif" font-weight="bold" font-size="12" text-anchor="end" dominant-baseline="middle">particle</text>
  <text x="60" y="485" fill="white" font-family="sans-serif" font-weight="bold" font-size="12" text-anchor="end" dominant-baseline="middle">saddle</text>
  <text x="80" y="80" fill="white" font-family="sans-serif" font-weight="bold" font-size="12" text-anchor="end" dominant-baseline="middle" transform="rotate(90 80 80)">ad-hpp</text>
  <text x="115" y="80" fill="white" font-family="sans-serif" font-weight="bold" font-size="12" text-anchor="end" dominant-baseline="middle" transform="rotate(90 115 80)">adept</text>
  <text x="150" y="80" fill="white" font-family="sans-serif" font-weight="bold" font-size="12" text-anchor="end" dominant-baseline="middle" transform="rotate(90 150 80)">adol-c</text>
  <text x="185" y="80" fill="white" font-family="sans-serif" font-weight="bold" font-size="12" text-anchor="end" dominant-baseline="middle" transform="rotate(90 185 80)">codipack</text>
  <text x="220" y="80" fill="white" font-family="sans-serif" font-weight="bold" font-size="12" text-anchor="end" dominant-baseline="middle" transform="rotate(90 220 80)">cppad</text>
  <text x="255" y="80" fill="white" font-family="sans-serif" font-weight="bold" font-size="12" text-anchor="end" dominant-baseline="middle" transform="rotate(90 255 80)">enzyme</text>
  <text x="290" y="80" fill="white" font-family="sans-serif" font-weight="bold" font-size="12" text-anchor="end" dominant-baseline="middle" transform="rotate(90 290 80)">enzyme-jl</text>
  <text x="325" y="80" fill="white" font-family="sans-serif" font-weight="bold" font-size="12" text-anchor="end" dominant-baseline="middle" transform="rotate(90 325 80)">finite</text>
  <text x="360" y="80" fill="white" font-family="sans-serif" font-weight="bold" font-size="12" text-anchor="end" dominant-baseline="middle" transform="rotate(90 360 80)">floretta</text>
  <text x="395" y="80" fill="white" font-family="sans-serif" font-weight="bold" font-size="12" text-anchor="end" dominant-baseline="middle" transform="rotate(90 395 80)">forwarddiff-jl</text>
  <text x="430" y="80" fill="white" font-family="sans-serif" font-weight="bold" font-size="12" text-anchor="end" dominant-baseline="middle" transform="rotate(90 430 80)">futhark</text>
  <text x="465" y="80" fill="white" font-family="sans-serif" font-weight="bold" font-size="12" text-anchor="end" dominant-baseline="middle" transform="rotate(90 465 80)">haskell</text>
  <text x="500" y="80" fill="white" font-family="sans-serif" font-weight="bold" font-size="12" text-anchor="end" dominant-baseline="middle" transform="rotate(90 500 80)">jax</text>
  <text x="535" y="80" fill="white" font-family="sans-serif" font-weight="bold" font-size="12" text-anchor="end" dominant-baseline="middle" transform="rotate(90 535 80)">manual</text>
  <text x="570" y="80" fill="white" font-family="sans-serif" font-weight="bold" font-size="12" text-anchor="end" dominant-baseline="middle" transform="rotate(90 570 80)">mooncake-jl</text>
  <text x="605" y="80" fill="white" font-family="sans-serif" font-weight="bold" font-size="12" text-anchor="end" dominant-baseline="middle" transform="rotate(90 605 80)">ocaml</text>
  <text x="640" y="80" fill="white" font-family="sans-serif" font-weight="bold" font-size="12" text-anchor="end" dominant-baseline="middle" transform="rotate(90 640 80)">pytorch</text>
  <text x="675" y="80" fill="white" font-family="sans-serif" font-weight="bold" font-size="12" text-anchor="end" dominant-baseline="middle" transform="rotate(90 675 80)">reversediff-jl</text>
  <text x="710" y="80" fill="white" font-family="sans-serif" font-weight="bold" font-size="12" text-anchor="end" dominant-baseline="middle" transform="rotate(90 710 80)">scilean</text>
  <text x="745" y="80" fill="white" font-family="sans-serif" font-weight="bold" font-size="12" text-anchor="end" dominant-baseline="middle" transform="rotate(90 745 80)">tapenade</text>
  <text x="780" y="80" fill="white" font-family="sans-serif" font-weight="bold" font-size="12" text-anchor="end" dominant-baseline="middle" transform="rotate(90 780 80)">tensorflow</text>
  <text x="815" y="80" fill="white" font-family="sans-serif" font-weight="bold" font-size="12" text-anchor="end" dominant-baseline="middle" transform="rotate(90 815 80)">tensorflow-js</text>
  <text x="850" y="80" fill="white" font-family="sans-serif" font-weight="bold" font-size="12" text-anchor="end" dominant-baseline="middle" transform="rotate(90 850 80)">zygote</text>
  <rect x="65" y="85" width="30" height="30" fill="hsl(240 100% 80.81543570990837%)" />
  <rect x="100" y="85" width="30" height="30" fill="hsl(240 100% 82.73493021937097%)" />
  <rect x="135" y="85" width="30" height="30" fill="hsl(240 100% 97.99609207174454%)" />
  <rect x="170" y="85" width="30" height="30" fill="hsl(240 100% 82.26696839268592%)" />
  <rect x="205" y="85" width="30" height="30" fill="hsl(240 100% 98.99983293864273%)" />
  <rect x="240" y="85" width="30" height="30" fill="hsl(240 100% 51.471582507273965%)" />
  <rect x="310" y="85" width="30" height="30" fill="hsl(240 100% 93.23837456947739%)" />
  <rect x="415" y="85" width="30" height="30" fill="hsl(240 100% 68.06425866068149%)" />
  <rect x="520" y="85" width="30" height="30" fill="hsl(240 100% 50%)" />
  <rect x="625" y="85" width="30" height="30" fill="rgb(255 255 255 / 50%)" />
  <rect x="730" y="85" width="30" height="30" fill="hsl(240 100% 74.78183787464182%)" />
  <rect x="765" y="85" width="30" height="30" fill="rgb(255 255 255 / 50%)" />
  <rect x="835" y="85" width="30" height="30" fill="hsl(240 100% 99.73859679750488%)" />
  <rect x="65" y="120" width="30" height="30" fill="hsl(240 100% 50%)" />
  <rect x="100" y="120" width="30" height="30" fill="hsl(240 100% 82.27659567390853%)" />
  <rect x="135" y="120" width="30" height="30" fill="hsl(240 100% 85.87546011713451%)" />
  <rect x="170" y="120" width="30" height="30" fill="hsl(240 100% 51.79808298463736%)" />
  <rect x="205" y="120" width="30" height="30" fill="hsl(240 100% 92.57755996134256%)" />
  <rect x="240" y="120" width="30" height="30" fill="hsl(240 100% 91.56063715774678%)" />
  <rect x="275" y="120" width="30" height="30" fill="hsl(240 100% 99.3410228215778%)" />
  <rect x="310" y="120" width="30" height="30" fill="hsl(240 100% 98.98328545226613%)" />
  <rect x="380" y="120" width="30" height="30" fill="hsl(240 100% 93.31413155246678%)" />
  <rect x="415" y="120" width="30" height="30" fill="hsl(240 100% 94.58443912919672%)" />
  <rect x="450" y="120" width="30" height="30" fill="hsl(240 100% 97.98084729481529%)" />
  <rect x="520" y="120" width="30" height="30" fill="hsl(240 100% 79.59922441466048%)" />
  <rect x="555" y="120" width="30" height="30" fill="hsl(240 100% 90.39646746854062%)" />
  <rect x="660" y="120" width="30" height="30" fill="rgb(255 255 255 / 50%)" />
  <rect x="835" y="120" width="30" height="30" fill="rgb(255 255 255 / 50%)" />
  <rect x="65" y="155" width="30" height="30" fill="hsl(240 100% 98.26161386183702%)" />
  <rect x="100" y="155" width="30" height="30" fill="hsl(240 100% 98.74130518400973%)" />
  <rect x="135" y="155" width="30" height="30" fill="hsl(240 100% 99.07590714476356%)" />
  <rect x="170" y="155" width="30" height="30" fill="hsl(240 100% 97.92265111780644%)" />
  <rect x="205" y="155" width="30" height="30" fill="hsl(240 100% 99.84273832675319%)" />
  <rect x="240" y="155" width="30" height="30" fill="hsl(240 100% 91.05903077850016%)" />
  <rect x="275" y="155" width="30" height="30" fill="hsl(240 100% 92.15599192677605%)" />
  <rect x="310" y="155" width="30" height="30" fill="rgb(255 255 255 / 50%)" />
  <rect x="415" y="155" width="30" height="30" fill="hsl(240 100% 92.67386927282338%)" />
  <rect x="485" y="155" width="30" height="30" fill="hsl(240 100% 50%)" />
  <rect x="520" y="155" width="30" height="30" fill="hsl(240 100% 82.94919700379626%)" />
  <rect x="590" y="155" width="30" height="30" fill="hsl(240 100% 99.56203306986053%)" />
  <rect x="625" y="155" width="30" height="30" fill="hsl(240 100% 65.10752937700917%)" />
  <rect x="695" y="155" width="30" height="30" fill="hsl(240 100% 95.22718706072936%)" />
  <rect x="730" y="155" width="30" height="30" fill="hsl(240 100% 82.89347626792483%)" />
  <rect x="765" y="155" width="30" height="30" fill="hsl(240 100% 99.54489595136806%)" />
  <rect x="835" y="155" width="30" height="30" fill="hsl(240 100% 96.3408611730915%)" />
  <rect x="65" y="190" width="30" height="30" fill="hsl(240 100% 50%)" />
  <rect x="100" y="190" width="30" height="30" fill="hsl(240 100% 50%)" />
  <rect x="135" y="190" width="30" height="30" fill="hsl(240 100% 50%)" />
  <rect x="170" y="190" width="30" height="30" fill="hsl(240 100% 50%)" />
  <rect x="205" y="190" width="30" height="30" fill="hsl(240 100% 50%)" />
  <rect x="240" y="190" width="30" height="30" fill="hsl(240 100% 50%)" />
  <rect x="275" y="190" width="30" height="30" fill="hsl(240 100% 50%)" />
  <rect x="310" y="190" width="30" height="30" fill="hsl(240 100% 50%)" />
  <rect x="345" y="190" width="30" height="30" fill="hsl(240 100% 50%)" />
  <rect x="380" y="190" width="30" height="30" fill="hsl(240 100% 50%)" />
  <rect x="415" y="190" width="30" height="30" fill="hsl(240 100% 50%)" />
  <rect x="450" y="190" width="30" height="30" fill="hsl(240 100% 50%)" />
  <rect x="485" y="190" width="30" height="30" fill="hsl(240 100% 50%)" />
  <rect x="520" y="190" width="30" height="30" fill="hsl(240 100% 50%)" />
  <rect x="555" y="190" width="30" height="30" fill="hsl(240 100% 50%)" />
  <rect x="590" y="190" width="30" height="30" fill="hsl(240 100% 50%)" />
  <rect x="625" y="190" width="30" height="30" fill="hsl(240 100% 50%)" />
  <rect x="660" y="190" width="30" height="30" fill="hsl(240 100% 50%)" />
  <rect x="695" y="190" width="30" height="30" fill="hsl(240 100% 50%)" />
  <rect x="730" y="190" width="30" height="30" fill="hsl(240 100% 50%)" />
  <rect x="765" y="190" width="30" height="30" fill="hsl(240 100% 50%)" />
  <rect x="800" y="190" width="30" height="30" fill="hsl(240 100% 50%)" />
  <rect x="835" y="190" width="30" height="30" fill="hsl(240 100% 50%)" />
  <rect x="100" y="225" width="30" height="30" fill="hsl(240 100% 96.7791037774663%)" />
  <rect x="135" y="225" width="30" height="30" fill="hsl(240 100% 88.95278832417262%)" />
  <rect x="170" y="225" width="30" height="30" fill="hsl(240 100% 89.52620421225014%)" />
  <rect x="240" y="225" width="30" height="30" fill="hsl(240 100% 91.56059375717035%)" />
  <rect x="310" y="225" width="30" height="30" fill="rgb(255 255 255 / 50%)" />
  <rect x="415" y="225" width="30" height="30" fill="hsl(240 100% 90.86445063191317%)" />
  <rect x="520" y="225" width="30" height="30" fill="hsl(240 100% 50%)" />
  <rect x="625" y="225" width="30" height="30" fill="rgb(255 255 255 / 50%)" />
  <rect x="730" y="225" width="30" height="30" fill="hsl(240 100% 93.44642842939905%)" />
  <rect x="765" y="225" width="30" height="30" fill="rgb(255 255 255 / 50%)" />
  <rect x="835" y="225" width="30" height="30" fill="hsl(240 100% 94.39660378239188%)" />
  <rect x="65" y="260" width="30" height="30" fill="hsl(240 100% 99.93430431092092%)" />
  <rect x="135" y="260" width="30" height="30" fill="hsl(240 100% 99.8514177190367%)" />
  <rect x="170" y="260" width="30" height="30" fill="hsl(240 100% 98.86825377695845%)" />
  <rect x="205" y="260" width="30" height="30" fill="rgb(255 255 255 / 50%)" />
  <rect x="240" y="260" width="30" height="30" fill="hsl(240 100% 87.15324308984282%)" />
  <rect x="310" y="260" width="30" height="30" fill="rgb(255 255 255 / 50%)" />
  <rect x="415" y="260" width="30" height="30" fill="hsl(240 100% 80.87449479447766%)" />
  <rect x="450" y="260" width="30" height="30" fill="rgb(255 255 255 / 50%)" />
  <rect x="485" y="260" width="30" height="30" fill="hsl(240 100% 50%)" />
  <rect x="520" y="260" width="30" height="30" fill="hsl(240 100% 71.68484073436899%)" />
  <rect x="625" y="260" width="30" height="30" fill="hsl(240 100% 97.09523024023511%)" />
  <rect x="695" y="260" width="30" height="30" fill="hsl(240 100% 94.18552893974895%)" />
  <rect x="65" y="295" width="30" height="30" fill="hsl(240 100% 85.82129089330988%)" />
  <rect x="100" y="295" width="30" height="30" fill="hsl(240 100% 97.59106244341575%)" />
  <rect x="135" y="295" width="30" height="30" fill="hsl(240 100% 95.10006270885188%)" />
  <rect x="170" y="295" width="30" height="30" fill="hsl(240 100% 90.66974436777488%)" />
  <rect x="205" y="295" width="30" height="30" fill="hsl(240 100% 99.46517868448785%)" />
  <rect x="240" y="295" width="30" height="30" fill="hsl(240 100% 50.64835651080205%)" />
  <rect x="275" y="295" width="30" height="30" fill="hsl(240 100% 50%)" />
  <rect x="310" y="295" width="30" height="30" fill="hsl(240 100% 99.50000799130275%)" />
  <rect x="345" y="295" width="30" height="30" fill="hsl(240 100% 94.74380652868633%)" />
  <rect x="415" y="295" width="30" height="30" fill="hsl(240 100% 55.29445409281076%)" />
  <rect x="450" y="295" width="30" height="30" fill="hsl(240 100% 99.33626269650715%)" />
  <rect x="485" y="295" width="30" height="30" fill="hsl(240 100% 88.54225449163778%)" />
  <rect x="520" y="295" width="30" height="30" fill="hsl(240 100% 57.895171847676835%)" />
  <rect x="695" y="295" width="30" height="30" fill="hsl(240 100% 97.61099376892393%)" />
  <rect x="800" y="295" width="30" height="30" fill="hsl(240 100% 99.56743478555843%)" />
  <rect x="835" y="295" width="30" height="30" fill="hsl(240 100% 99.9584863883911%)" />
  <rect x="65" y="330" width="30" height="30" fill="hsl(240 100% 88.56577621473764%)" />
  <rect x="100" y="330" width="30" height="30" fill="hsl(240 100% 94.46235252360947%)" />
  <rect x="135" y="330" width="30" height="30" fill="hsl(240 100% 96.98412879409244%)" />
  <rect x="170" y="330" width="30" height="30" fill="hsl(240 100% 87.80383417670245%)" />
  <rect x="205" y="330" width="30" height="30" fill="hsl(240 100% 99.14904550307737%)" />
  <rect x="240" y="330" width="30" height="30" fill="hsl(240 100% 78.54315701802476%)" />
  <rect x="275" y="330" width="30" height="30" fill="hsl(240 100% 86.64564265481837%)" />
  <rect x="310" y="330" width="30" height="30" fill="rgb(255 255 255 / 50%)" />
  <rect x="345" y="330" width="30" height="30" fill="hsl(240 100% 97.06437249520167%)" />
  <rect x="415" y="330" width="30" height="30" fill="hsl(240 100% 84.82944894752426%)" />
  <rect x="450" y="330" width="30" height="30" fill="hsl(240 100% 99.80310754092815%)" />
  <rect x="485" y="330" width="30" height="30" fill="hsl(240 100% 69.59718253851126%)" />
  <rect x="520" y="330" width="30" height="30" fill="hsl(240 100% 75.45641858975651%)" />
  <rect x="590" y="330" width="30" height="30" fill="hsl(240 100% 93.38498941181139%)" />
  <rect x="625" y="330" width="30" height="30" fill="hsl(240 100% 50%)" />
  <rect x="765" y="330" width="30" height="30" fill="hsl(240 100% 94.81007666693607%)" />
  <rect x="800" y="330" width="30" height="30" fill="hsl(240 100% 99.1864220357876%)" />
  <rect x="835" y="330" width="30" height="30" fill="hsl(240 100% 80.53348776340052%)" />
  <rect x="65" y="365" width="30" height="30" fill="hsl(240 100% 56.94105593186705%)" />
  <rect x="100" y="365" width="30" height="30" fill="hsl(240 100% 71.80023813320325%)" />
  <rect x="135" y="365" width="30" height="30" fill="hsl(240 100% 81.8816863557762%)" />
  <rect x="170" y="365" width="30" height="30" fill="hsl(240 100% 50%)" />
  <rect x="205" y="365" width="30" height="30" fill="hsl(240 100% 96.17307377892607%)" />
  <rect x="240" y="365" width="30" height="30" fill="hsl(240 100% 59.44257091600099%)" />
  <rect x="275" y="365" width="30" height="30" fill="hsl(240 100% 92.42816327324851%)" />
  <rect x="310" y="365" width="30" height="30" fill="hsl(240 100% 99.86059321929879%)" />
  <rect x="415" y="365" width="30" height="30" fill="hsl(240 100% 66.72361564344158%)" />
  <rect x="520" y="365" width="30" height="30" fill="hsl(240 100% 85.88725708287897%)" />
  <rect x="625" y="365" width="30" height="30" fill="hsl(240 100% 99.6331290120078%)" />
  <rect x="730" y="365" width="30" height="30" fill="hsl(240 100% 63.40932238912117%)" />
  <rect x="765" y="365" width="30" height="30" fill="hsl(240 100% 98.16724004786563%)" />
  <rect x="835" y="365" width="30" height="30" fill="hsl(240 100% 98.70333026965464%)" />
  <rect x="65" y="400" width="30" height="30" fill="hsl(240 100% 98.52872952837123%)" />
  <rect x="100" y="400" width="30" height="30" fill="hsl(240 100% 99.39879369346251%)" />
  <rect x="135" y="400" width="30" height="30" fill="hsl(240 100% 99.67507319423814%)" />
  <rect x="170" y="400" width="30" height="30" fill="hsl(240 100% 95.48547565321995%)" />
  <rect x="205" y="400" width="30" height="30" fill="hsl(240 100% 99.27733578587602%)" />
  <rect x="240" y="400" width="30" height="30" fill="hsl(240 100% 86.04897742833327%)" />
  <rect x="275" y="400" width="30" height="30" fill="hsl(240 100% 95.34971769637306%)" />
  <rect x="310" y="400" width="30" height="30" fill="rgb(255 255 255 / 50%)" />
  <rect x="380" y="400" width="30" height="30" fill="rgb(255 255 255 / 50%)" />
  <rect x="415" y="400" width="30" height="30" fill="hsl(240 100% 94.04623151801988%)" />
  <rect x="450" y="400" width="30" height="30" fill="hsl(240 100% 99.97181755231253%)" />
  <rect x="485" y="400" width="30" height="30" fill="hsl(240 100% 78.97165405158336%)" />
  <rect x="520" y="400" width="30" height="30" fill="hsl(240 100% 50%)" />
  <rect x="555" y="400" width="30" height="30" fill="hsl(240 100% 99.12211050133708%)" />
  <rect x="660" y="400" width="30" height="30" fill="rgb(255 255 255 / 50%)" />
  <rect x="835" y="400" width="30" height="30" fill="hsl(240 100% 98.95394458153719%)" />
  <rect x="65" y="435" width="30" height="30" fill="hsl(240 100% 92.94510776350162%)" />
  <rect x="240" y="435" width="30" height="30" fill="hsl(240 100% 50%)" />
  <rect x="310" y="435" width="30" height="30" fill="hsl(240 100% 94.29785554121212%)" />
  <rect x="415" y="435" width="30" height="30" fill="hsl(240 100% 86.99323448304658%)" />
  <rect x="450" y="435" width="30" height="30" fill="hsl(240 100% 99.79539408325694%)" />
  <rect x="65" y="470" width="30" height="30" fill="hsl(240 100% 50%)" />
  <rect x="240" y="470" width="30" height="30" fill="hsl(240 100% 50.21176080059573%)" />
  <rect x="310" y="470" width="30" height="30" fill="hsl(240 100% 97.14616180050191%)" />
  <rect x="415" y="470" width="30" height="30" fill="hsl(240 100% 89.10414980138808%)" />
  <rect x="450" y="470" width="30" height="30" fill="hsl(240 100% 99.58771548874543%)" />
</svg>
