<svg xmlns="http://www.w3.org/2000/svg" viewBox="0 0 870 505">
  <rect x="0" y="0" width="870" height="505" rx="5" ry="5" fill="#222" />
  <text x="60" y="100" fill="white" font-family="sans-serif" font-weight="bold" font-size="12" text-anchor="end" dominant-baseline="middle">ba</text>
  <text x="60" y="135" fill="white" font-family="sans-serif" font-weight="bold" font-size="12" text-anchor="end" dominant-baseline="middle">det</text>
  <text x="60" y="170" fill="white" font-family="sans-serif" font-weight="bold" font-size="12" text-anchor="end" dominant-baseline="middle">gmm</text>
  <text x="60" y="205" fill="white" font-family="sans-serif" font-weight="bold" font-size="12" text-anchor="end" dominant-baseline="middle">hello</text>
  <text x="60" y="240" fill="white" font-family="sans-serif" font-weight="bold" font-size="12" text-anchor="end" dominant-baseline="middle">ht</text>
  <text x="60" y="275" fill="white" font-family="sans-serif" font-weight="bold" font-size="12" text-anchor="end" dominant-baseline="middle">kmeans</text>
  <text x="60" y="310" fill="white" font-family="sans-serif" font-weight="bold" font-size="12" text-anchor="end" dominant-baseline="middle">llsq</text>
  <text x="60" y="345" fill="white" font-family="sans-serif" font-weight="bold" font-size="12" text-anchor="end" dominant-baseline="middle">lse</text>
  <text x="60" y="380" fill="white" font-family="sans-serif" font-weight="bold" font-size="12" text-anchor="end" dominant-baseline="middle">lstm</text>
  <text x="60" y="415" fill="white" font-family="sans-serif" font-weight="bold" font-size="12" text-anchor="end" dominant-baseline="middle">ode</text>
  <text x="60" y="450" fill="white" font-family="sans-serif" font-weight="bold" font-size="12" text-anchor="end" dominant-baseline="middle">particle</text>
  <text x="60" y="485" fill="white" font-family="sans-serif" font-weight="bold" font-size="12" text-anchor="end" dominant-baseline="middle">saddle</text>
  <text x="80" y="80" fill="white" font-family="sans-serif" font-weight="bold" font-size="12" text-anchor="end" dominant-baseline="middle" transform="rotate(90 80 80)">ad-hpp</text>
  <text x="115" y="80" fill="white" font-family="sans-serif" font-weight="bold" font-size="12" text-anchor="end" dominant-baseline="middle" transform="rotate(90 115 80)">adept</text>
  <text x="150" y="80" fill="white" font-family="sans-serif" font-weight="bold" font-size="12" text-anchor="end" dominant-baseline="middle" transform="rotate(90 150 80)">adol-c</text>
  <text x="185" y="80" fill="white" font-family="sans-serif" font-weight="bold" font-size="12" text-anchor="end" dominant-baseline="middle" transform="rotate(90 185 80)">codipack</text>
  <text x="220" y="80" fill="white" font-family="sans-serif" font-weight="bold" font-size="12" text-anchor="end" dominant-baseline="middle" transform="rotate(90 220 80)">cppad</text>
  <text x="255" y="80" fill="white" font-family="sans-serif" font-weight="bold" font-size="12" text-anchor="end" dominant-baseline="middle" transform="rotate(90 255 80)">enzyme</text>
  <text x="290" y="80" fill="white" font-family="sans-serif" font-weight="bold" font-size="12" text-anchor="end" dominant-baseline="middle" transform="rotate(90 290 80)">enzyme-jl</text>
  <text x="325" y="80" fill="white" font-family="sans-serif" font-weight="bold" font-size="12" text-anchor="end" dominant-baseline="middle" transform="rotate(90 325 80)">finite</text>
  <text x="360" y="80" fill="white" font-family="sans-serif" font-weight="bold" font-size="12" text-anchor="end" dominant-baseline="middle" transform="rotate(90 360 80)">floretta</text>
  <text x="395" y="80" fill="white" font-family="sans-serif" font-weight="bold" font-size="12" text-anchor="end" dominant-baseline="middle" transform="rotate(90 395 80)">forwarddiff-jl</text>
  <text x="430" y="80" fill="white" font-family="sans-serif" font-weight="bold" font-size="12" text-anchor="end" dominant-baseline="middle" transform="rotate(90 430 80)">futhark</text>
  <text x="465" y="80" fill="white" font-family="sans-serif" font-weight="bold" font-size="12" text-anchor="end" dominant-baseline="middle" transform="rotate(90 465 80)">haskell</text>
  <text x="500" y="80" fill="white" font-family="sans-serif" font-weight="bold" font-size="12" text-anchor="end" dominant-baseline="middle" transform="rotate(90 500 80)">jax</text>
  <text x="535" y="80" fill="white" font-family="sans-serif" font-weight="bold" font-size="12" text-anchor="end" dominant-baseline="middle" transform="rotate(90 535 80)">manual</text>
  <text x="570" y="80" fill="white" font-family="sans-serif" font-weight="bold" font-size="12" text-anchor="end" dominant-baseline="middle" transform="rotate(90 570 80)">mooncake-jl</text>
  <text x="605" y="80" fill="white" font-family="sans-serif" font-weight="bold" font-size="12" text-anchor="end" dominant-baseline="middle" transform="rotate(90 605 80)">ocaml</text>
  <text x="640" y="80" fill="white" font-family="sans-serif" font-weight="bold" font-size="12" text-anchor="end" dominant-baseline="middle" transform="rotate(90 640 80)">pytorch</text>
  <text x="675" y="80" fill="white" font-family="sans-serif" font-weight="bold" font-size="12" text-anchor="end" dominant-baseline="middle" transform="rotate(90 675 80)">reversediff-jl</text>
  <text x="710" y="80" fill="white" font-family="sans-serif" font-weight="bold" font-size="12" text-anchor="end" dominant-baseline="middle" transform="rotate(90 710 80)">scilean</text>
  <text x="745" y="80" fill="white" font-family="sans-serif" font-weight="bold" font-size="12" text-anchor="end" dominant-baseline="middle" transform="rotate(90 745 80)">tapenade</text>
  <text x="780" y="80" fill="white" font-family="sans-serif" font-weight="bold" font-size="12" text-anchor="end" dominant-baseline="middle" transform="rotate(90 780 80)">tensorflow</text>
  <text x="815" y="80" fill="white" font-family="sans-serif" font-weight="bold" font-size="12" text-anchor="end" dominant-baseline="middle" transform="rotate(90 815 80)">tensorflow-js</text>
  <text x="850" y="80" fill="white" font-family="sans-serif" font-weight="bold" font-size="12" text-anchor="end" dominant-baseline="middle" transform="rotate(90 850 80)">zygote</text>
  <rect x="65" y="85" width="30" height="30" fill="hsl(240 100% 80.73062197991976%)" />
  <rect x="100" y="85" width="30" height="30" fill="hsl(240 100% 82.6962131523239%)" />
  <rect x="135" y="85" width="30" height="30" fill="hsl(240 100% 97.9841665701818%)" />
  <rect x="170" y="85" width="30" height="30" fill="hsl(240 100% 82.1798128498234%)" />
  <rect x="205" y="85" width="30" height="30" fill="hsl(240 100% 98.99435107256718%)" />
  <rect x="240" y="85" width="30" height="30" fill="hsl(240 100% 51.306712333881386%)" />
  <rect x="310" y="85" width="30" height="30" fill="hsl(240 100% 93.22800610094093%)" />
  <rect x="415" y="85" width="30" height="30" fill="hsl(240 100% 67.92004340946208%)" />
  <rect x="520" y="85" width="30" height="30" fill="hsl(240 100% 50%)" />
  <rect x="625" y="85" width="30" height="30" fill="rgb(255 255 255 / 50%)" />
  <rect x="730" y="85" width="30" height="30" fill="hsl(240 100% 74.67102933012438%)" />
  <rect x="765" y="85" width="30" height="30" fill="rgb(255 255 255 / 50%)" />
  <rect x="835" y="85" width="30" height="30" fill="hsl(240 100% 99.73852218203402%)" />
  <rect x="65" y="120" width="30" height="30" fill="hsl(240 100% 50%)" />
  <rect x="100" y="120" width="30" height="30" fill="hsl(240 100% 82.31917167633259%)" />
  <rect x="135" y="120" width="30" height="30" fill="hsl(240 100% 85.65620532395542%)" />
  <rect x="170" y="120" width="30" height="30" fill="hsl(240 100% 52.767700914907%)" />
  <rect x="205" y="120" width="30" height="30" fill="hsl(240 100% 92.51731387442686%)" />
  <rect x="240" y="120" width="30" height="30" fill="hsl(240 100% 91.45081080227577%)" />
  <rect x="275" y="120" width="30" height="30" fill="hsl(240 100% 99.36158991791656%)" />
  <rect x="310" y="120" width="30" height="30" fill="hsl(240 100% 98.98767491585873%)" />
  <rect x="380" y="120" width="30" height="30" fill="hsl(240 100% 93.37564461428994%)" />
  <rect x="415" y="120" width="30" height="30" fill="hsl(240 100% 94.56505376047029%)" />
  <rect x="450" y="120" width="30" height="30" fill="hsl(240 100% 97.96525489062036%)" />
  <rect x="520" y="120" width="30" height="30" fill="hsl(240 100% 79.69351835424256%)" />
  <rect x="555" y="120" width="30" height="30" fill="hsl(240 100% 90.12751592224015%)" />
  <rect x="660" y="120" width="30" height="30" fill="rgb(255 255 255 / 50%)" />
  <rect x="835" y="120" width="30" height="30" fill="rgb(255 255 255 / 50%)" />
  <rect x="65" y="155" width="30" height="30" fill="hsl(240 100% 98.45525139806719%)" />
  <rect x="100" y="155" width="30" height="30" fill="hsl(240 100% 98.78268915349851%)" />
  <rect x="135" y="155" width="30" height="30" fill="hsl(240 100% 99.1213512250133%)" />
  <rect x="170" y="155" width="30" height="30" fill="hsl(240 100% 98.0627620496475%)" />
  <rect x="205" y="155" width="30" height="30" fill="hsl(240 100% 99.82308244254135%)" />
  <rect x="240" y="155" width="30" height="30" fill="hsl(240 100% 91.05374816376334%)" />
  <rect x="275" y="155" width="30" height="30" fill="hsl(240 100% 92.71864281433301%)" />
  <rect x="310" y="155" width="30" height="30" fill="rgb(255 255 255 / 50%)" />
  <rect x="415" y="155" width="30" height="30" fill="hsl(240 100% 92.9482031002438%)" />
  <rect x="485" y="155" width="30" height="30" fill="hsl(240 100% 50%)" />
  <rect x="520" y="155" width="30" height="30" fill="hsl(240 100% 83.65662623411828%)" />
  <rect x="590" y="155" width="30" height="30" fill="hsl(240 100% 99.5669566837953%)" />
  <rect x="625" y="155" width="30" height="30" fill="hsl(240 100% 65.09531739813102%)" />
  <rect x="695" y="155" width="30" height="30" fill="hsl(240 100% 95.42944419871287%)" />
  <rect x="730" y="155" width="30" height="30" fill="hsl(240 100% 83.60422982930307%)" />
  <rect x="765" y="155" width="30" height="30" fill="hsl(240 100% 99.56417712133738%)" />
  <rect x="835" y="155" width="30" height="30" fill="hsl(240 100% 96.13962283502775%)" />
  <rect x="65" y="190" width="30" height="30" fill="hsl(240 100% 50%)" />
  <rect x="100" y="190" width="30" height="30" fill="hsl(240 100% 50%)" />
  <rect x="135" y="190" width="30" height="30" fill="hsl(240 100% 50%)" />
  <rect x="170" y="190" width="30" height="30" fill="hsl(240 100% 50%)" />
  <rect x="205" y="190" width="30" height="30" fill="hsl(240 100% 50%)" />
  <rect x="240" y="190" width="30" height="30" fill="hsl(240 100% 50%)" />
  <rect x="275" y="190" width="30" height="30" fill="hsl(240 100% 50%)" />
  <rect x="310" y="190" width="30" height="30" fill="hsl(240 100% 50%)" />
  <rect x="345" y="190" width="30" height="30" fill="hsl(240 100% 50%)" />
  <rect x="380" y="190" width="30" height="30" fill="hsl(240 100% 50%)" />
  <rect x="415" y="190" width="30" height="30" fill="hsl(240 100% 50%)" />
  <rect x="450" y="190" width="30" height="30" fill="hsl(240 100% 50%)" />
  <rect x="485" y="190" width="30" height="30" fill="hsl(240 100% 50%)" />
  <rect x="520" y="190" width="30" height="30" fill="hsl(240 100% 50%)" />
  <rect x="555" y="190" width="30" height="30" fill="hsl(240 100% 50%)" />
  <rect x="590" y="190" width="30" height="30" fill="hsl(240 100% 50%)" />
  <rect x="625" y="190" width="30" height="30" fill="hsl(240 100% 50%)" />
  <rect x="660" y="190" width="30" height="30" fill="hsl(240 100% 50%)" />
  <rect x="695" y="190" width="30" height="30" fill="hsl(240 100% 50%)" />
  <rect x="730" y="190" width="30" height="30" fill="hsl(240 100% 50%)" />
  <rect x="765" y="190" width="30" height="30" fill="hsl(240 100% 50%)" />
  <rect x="800" y="190" width="30" height="30" fill="hsl(240 100% 50%)" />
  <rect x="835" y="190" width="30" height="30" fill="hsl(240 100% 50%)" />
  <rect x="100" y="225" width="30" height="30" fill="hsl(240 100% 96.6917253120254%)" />
  <rect x="135" y="225" width="30" height="30" fill="hsl(240 100% 89.55482090590601%)" />
  <rect x="170" y="225" width="30" height="30" fill="hsl(240 100% 89.6748235945695%)" />
  <rect x="240" y="225" width="30" height="30" fill="hsl(240 100% 91.25042834528904%)" />
  <rect x="310" y="225" width="30" height="30" fill="rgb(255 255 255 / 50%)" />
  <rect x="415" y="225" width="30" height="30" fill="hsl(240 100% 90.586014478241%)" />
  <rect x="520" y="225" width="30" height="30" fill="hsl(240 100% 50%)" />
  <rect x="625" y="225" width="30" height="30" fill="rgb(255 255 255 / 50%)" />
  <rect x="730" y="225" width="30" height="30" fill="hsl(240 100% 93.16395493075176%)" />
  <rect x="765" y="225" width="30" height="30" fill="rgb(255 255 255 / 50%)" />
  <rect x="835" y="225" width="30" height="30" fill="hsl(240 100% 94.25030610133943%)" />
  <rect x="65" y="260" width="30" height="30" fill="hsl(240 100% 99.85596164014976%)" />
  <rect x="135" y="260" width="30" height="30" fill="hsl(240 100% 99.85122736068804%)" />
  <rect x="170" y="260" width="30" height="30" fill="hsl(240 100% 98.87287795168986%)" />
  <rect x="205" y="260" width="30" height="30" fill="rgb(255 255 255 / 50%)" />
  <rect x="240" y="260" width="30" height="30" fill="hsl(240 100% 87.33282492708771%)" />
  <rect x="310" y="260" width="30" height="30" fill="rgb(255 255 255 / 50%)" />
  <rect x="415" y="260" width="30" height="30" fill="hsl(240 100% 81.14913147522165%)" />
  <rect x="450" y="260" width="30" height="30" fill="rgb(255 255 255 / 50%)" />
  <rect x="485" y="260" width="30" height="30" fill="hsl(240 100% 50%)" />
  <rect x="520" y="260" width="30" height="30" fill="hsl(240 100% 71.4868039132656%)" />
  <rect x="625" y="260" width="30" height="30" fill="hsl(240 100% 97.01732318409881%)" />
  <rect x="695" y="260" width="30" height="30" fill="hsl(240 100% 94.17312047601315%)" />
  <rect x="65" y="295" width="30" height="30" fill="hsl(240 100% 85.87955982468605%)" />
  <rect x="100" y="295" width="30" height="30" fill="hsl(240 100% 97.46253063223664%)" />
  <rect x="135" y="295" width="30" height="30" fill="hsl(240 100% 95.10150223002155%)" />
  <rect x="170" y="295" width="30" height="30" fill="hsl(240 100% 90.69238812926302%)" />
  <rect x="205" y="295" width="30" height="30" fill="hsl(240 100% 99.4445910044301%)" />
  <rect x="240" y="295" width="30" height="30" fill="hsl(240 100% 50.719793872498144%)" />
  <rect x="275" y="295" width="30" height="30" fill="hsl(240 100% 50%)" />
  <rect x="310" y="295" width="30" height="30" fill="hsl(240 100% 99.50108525745486%)" />
  <rect x="345" y="295" width="30" height="30" fill="hsl(240 100% 94.71006865325586%)" />
  <rect x="415" y="295" width="30" height="30" fill="hsl(240 100% 55.305082852095225%)" />
  <rect x="450" y="295" width="30" height="30" fill="hsl(240 100% 99.33557712881282%)" />
  <rect x="485" y="295" width="30" height="30" fill="hsl(240 100% 88.18765834462931%)" />
  <rect x="520" y="295" width="30" height="30" fill="hsl(240 100% 57.963108146100645%)" />
  <rect x="695" y="295" width="30" height="30" fill="hsl(240 100% 97.62305683397938%)" />
  <rect x="800" y="295" width="30" height="30" fill="hsl(240 100% 99.5713756116084%)" />
  <rect x="835" y="295" width="30" height="30" fill="hsl(240 100% 99.9574796600615%)" />
  <rect x="65" y="330" width="30" height="30" fill="hsl(240 100% 89.14454803254169%)" />
  <rect x="100" y="330" width="30" height="30" fill="hsl(240 100% 94.92788217832351%)" />
  <rect x="135" y="330" width="30" height="30" fill="hsl(240 100% 97.2331601166895%)" />
  <rect x="170" y="330" width="30" height="30" fill="hsl(240 100% 88.94041932000815%)" />
  <rect x="205" y="330" width="30" height="30" fill="hsl(240 100% 99.23033877926396%)" />
  <rect x="240" y="330" width="30" height="30" fill="hsl(240 100% 80.66597749478646%)" />
  <rect x="275" y="330" width="30" height="30" fill="hsl(240 100% 89.2587380208515%)" />
  <rect x="310" y="330" width="30" height="30" fill="rgb(255 255 255 / 50%)" />
  <rect x="345" y="330" width="30" height="30" fill="hsl(240 100% 97.33576687570628%)" />
  <rect x="415" y="330" width="30" height="30" fill="hsl(240 100% 86.32222252438397%)" />
  <rect x="450" y="330" width="30" height="30" fill="hsl(240 100% 99.81222821977686%)" />
  <rect x="485" y="330" width="30" height="30" fill="hsl(240 100% 72.83980290638654%)" />
  <rect x="520" y="330" width="30" height="30" fill="hsl(240 100% 77.49764044888559%)" />
  <rect x="590" y="330" width="30" height="30" fill="hsl(240 100% 94.00933735760114%)" />
  <rect x="625" y="330" width="30" height="30" fill="hsl(240 100% 50%)" />
  <rect x="765" y="330" width="30" height="30" fill="hsl(240 100% 94.57152031245685%)" />
  <rect x="800" y="330" width="30" height="30" fill="hsl(240 100% 99.24765646711437%)" />
  <rect x="835" y="330" width="30" height="30" fill="hsl(240 100% 82.7100286419432%)" />
  <rect x="65" y="365" width="30" height="30" fill="hsl(240 100% 57.24066522414825%)" />
  <rect x="100" y="365" width="30" height="30" fill="hsl(240 100% 71.96675894990491%)" />
  <rect x="135" y="365" width="30" height="30" fill="hsl(240 100% 82.20533749178439%)" />
  <rect x="170" y="365" width="30" height="30" fill="hsl(240 100% 50%)" />
  <rect x="205" y="365" width="30" height="30" fill="hsl(240 100% 96.25503492404135%)" />
  <rect x="240" y="365" width="30" height="30" fill="hsl(240 100% 59.51520570360928%)" />
  <rect x="275" y="365" width="30" height="30" fill="hsl(240 100% 92.26147772142237%)" />
  <rect x="310" y="365" width="30" height="30" fill="hsl(240 100% 99.86345553882157%)" />
  <rect x="415" y="365" width="30" height="30" fill="hsl(240 100% 66.57260532143955%)" />
  <rect x="520" y="365" width="30" height="30" fill="hsl(240 100% 86.02698720222136%)" />
  <rect x="625" y="365" width="30" height="30" fill="hsl(240 100% 99.63465553452846%)" />
  <rect x="730" y="365" width="30" height="30" fill="hsl(240 100% 63.496842156847485%)" />
  <rect x="765" y="365" width="30" height="30" fill="hsl(240 100% 98.1379370885534%)" />
  <rect x="835" y="365" width="30" height="30" fill="hsl(240 100% 98.81729572008146%)" />
  <rect x="65" y="400" width="30" height="30" fill="hsl(240 100% 98.1348516538253%)" />
  <rect x="100" y="400" width="30" height="30" fill="hsl(240 100% 99.42539018094405%)" />
  <rect x="135" y="400" width="30" height="30" fill="hsl(240 100% 99.67874118944411%)" />
  <rect x="170" y="400" width="30" height="30" fill="hsl(240 100% 95.31442780261284%)" />
  <rect x="205" y="400" width="30" height="30" fill="hsl(240 100% 99.23942773228862%)" />
  <rect x="240" y="400" width="30" height="30" fill="hsl(240 100% 85.98997517165101%)" />
  <rect x="275" y="400" width="30" height="30" fill="hsl(240 100% 95.30265985579875%)" />
  <rect x="310" y="400" width="30" height="30" fill="rgb(255 255 255 / 50%)" />
  <rect x="380" y="400" width="30" height="30" fill="rgb(255 255 255 / 50%)" />
  <rect x="415" y="400" width="30" height="30" fill="hsl(240 100% 94.02987914675396%)" />
  <rect x="450" y="400" width="30" height="30" fill="hsl(240 100% 99.97065255165501%)" />
  <rect x="485" y="400" width="30" height="30" fill="hsl(240 100% 78.85645691883614%)" />
  <rect x="520" y="400" width="30" height="30" fill="hsl(240 100% 50%)" />
  <rect x="555" y="400" width="30" height="30" fill="hsl(240 100% 99.11080711210556%)" />
  <rect x="660" y="400" width="30" height="30" fill="rgb(255 255 255 / 50%)" />
  <rect x="835" y="400" width="30" height="30" fill="hsl(240 100% 99.02242531508234%)" />
  <rect x="65" y="435" width="30" height="30" fill="hsl(240 100% 92.87910340316805%)" />
  <rect x="240" y="435" width="30" height="30" fill="hsl(240 100% 50%)" />
  <rect x="310" y="435" width="30" height="30" fill="hsl(240 100% 94.29921471500998%)" />
  <rect x="415" y="435" width="30" height="30" fill="hsl(240 100% 87.00154928405748%)" />
  <rect x="450" y="435" width="30" height="30" fill="hsl(240 100% 99.7929169804625%)" />
  <rect x="65" y="470" width="30" height="30" fill="hsl(240 100% 50%)" />
  <rect x="240" y="470" width="30" height="30" fill="hsl(240 100% 50.462928674294574%)" />
  <rect x="310" y="470" width="30" height="30" fill="hsl(240 100% 97.15992054668052%)" />
  <rect x="415" y="470" width="30" height="30" fill="hsl(240 100% 89.11452809073946%)" />
  <rect x="450" y="470" width="30" height="30" fill="hsl(240 100% 99.59076868317212%)" />
</svg>
