<svg xmlns="http://www.w3.org/2000/svg" viewBox="0 0 695 505">
  <rect x="0" y="0" width="695" height="505" rx="5" ry="5" fill="#222" />
  <text x="60" y="100" fill="white" font-family="sans-serif" font-weight="bold" font-size="12" text-anchor="end" dominant-baseline="middle">ba</text>
  <text x="60" y="135" fill="white" font-family="sans-serif" font-weight="bold" font-size="12" text-anchor="end" dominant-baseline="middle">det</text>
  <text x="60" y="170" fill="white" font-family="sans-serif" font-weight="bold" font-size="12" text-anchor="end" dominant-baseline="middle">gmm</text>
  <text x="60" y="205" fill="white" font-family="sans-serif" font-weight="bold" font-size="12" text-anchor="end" dominant-baseline="middle">hello</text>
  <text x="60" y="240" fill="white" font-family="sans-serif" font-weight="bold" font-size="12" text-anchor="end" dominant-baseline="middle">ht</text>
  <text x="60" y="275" fill="white" font-family="sans-serif" font-weight="bold" font-size="12" text-anchor="end" dominant-baseline="middle">kmeans</text>
  <text x="60" y="310" fill="white" font-family="sans-serif" font-weight="bold" font-size="12" text-anchor="end" dominant-baseline="middle">llsq</text>
  <text x="60" y="345" fill="white" font-family="sans-serif" font-weight="bold" font-size="12" text-anchor="end" dominant-baseline="middle">lse</text>
  <text x="60" y="380" fill="white" font-family="sans-serif" font-weight="bold" font-size="12" text-anchor="end" dominant-baseline="middle">lstm</text>
  <text x="60" y="415" fill="white" font-family="sans-serif" font-weight="bold" font-size="12" text-anchor="end" dominant-baseline="middle">ode</text>
  <text x="60" y="450" fill="white" font-family="sans-serif" font-weight="bold" font-size="12" text-anchor="end" dominant-baseline="middle">particle</text>
  <text x="60" y="485" fill="white" font-family="sans-serif" font-weight="bold" font-size="12" text-anchor="end" dominant-baseline="middle">saddle</text>
  <text x="80" y="80" fill="white" font-family="sans-serif" font-weight="bold" font-size="12" text-anchor="end" dominant-baseline="middle" transform="rotate(90 80 80)">adept</text>
  <text x="115" y="80" fill="white" font-family="sans-serif" font-weight="bold" font-size="12" text-anchor="end" dominant-baseline="middle" transform="rotate(90 115 80)">adol-c</text>
  <text x="150" y="80" fill="white" font-family="sans-serif" font-weight="bold" font-size="12" text-anchor="end" dominant-baseline="middle" transform="rotate(90 150 80)">codipack</text>
  <text x="185" y="80" fill="white" font-family="sans-serif" font-weight="bold" font-size="12" text-anchor="end" dominant-baseline="middle" transform="rotate(90 185 80)">cppad</text>
  <text x="220" y="80" fill="white" font-family="sans-serif" font-weight="bold" font-size="12" text-anchor="end" dominant-baseline="middle" transform="rotate(90 220 80)">enzyme</text>
  <text x="255" y="80" fill="white" font-family="sans-serif" font-weight="bold" font-size="12" text-anchor="end" dominant-baseline="middle" transform="rotate(90 255 80)">enzyme-jl</text>
  <text x="290" y="80" fill="white" font-family="sans-serif" font-weight="bold" font-size="12" text-anchor="end" dominant-baseline="middle" transform="rotate(90 290 80)">finite</text>
  <text x="325" y="80" fill="white" font-family="sans-serif" font-weight="bold" font-size="12" text-anchor="end" dominant-baseline="middle" transform="rotate(90 325 80)">floretta</text>
  <text x="360" y="80" fill="white" font-family="sans-serif" font-weight="bold" font-size="12" text-anchor="end" dominant-baseline="middle" transform="rotate(90 360 80)">futhark</text>
  <text x="395" y="80" fill="white" font-family="sans-serif" font-weight="bold" font-size="12" text-anchor="end" dominant-baseline="middle" transform="rotate(90 395 80)">haskell</text>
  <text x="430" y="80" fill="white" font-family="sans-serif" font-weight="bold" font-size="12" text-anchor="end" dominant-baseline="middle" transform="rotate(90 430 80)">jax</text>
  <text x="465" y="80" fill="white" font-family="sans-serif" font-weight="bold" font-size="12" text-anchor="end" dominant-baseline="middle" transform="rotate(90 465 80)">manual</text>
  <text x="500" y="80" fill="white" font-family="sans-serif" font-weight="bold" font-size="12" text-anchor="end" dominant-baseline="middle" transform="rotate(90 500 80)">ocaml</text>
  <text x="535" y="80" fill="white" font-family="sans-serif" font-weight="bold" font-size="12" text-anchor="end" dominant-baseline="middle" transform="rotate(90 535 80)">pytorch</text>
  <text x="570" y="80" fill="white" font-family="sans-serif" font-weight="bold" font-size="12" text-anchor="end" dominant-baseline="middle" transform="rotate(90 570 80)">scilean</text>
  <text x="605" y="80" fill="white" font-family="sans-serif" font-weight="bold" font-size="12" text-anchor="end" dominant-baseline="middle" transform="rotate(90 605 80)">tapenade</text>
  <text x="640" y="80" fill="white" font-family="sans-serif" font-weight="bold" font-size="12" text-anchor="end" dominant-baseline="middle" transform="rotate(90 640 80)">tensorflow</text>
  <text x="675" y="80" fill="white" font-family="sans-serif" font-weight="bold" font-size="12" text-anchor="end" dominant-baseline="middle" transform="rotate(90 675 80)">zygote</text>
  <rect x="65" y="85" width="30" height="30" fill="hsl(240 100% 83.69127313653986%)" />
  <rect x="100" y="85" width="30" height="30" fill="hsl(240 100% 97.79298401868854%)" />
  <rect x="135" y="85" width="30" height="30" fill="hsl(240 100% 89.0035301680823%)" />
  <rect x="170" y="85" width="30" height="30" fill="hsl(240 100% 98.88903324663241%)" />
  <rect x="205" y="85" width="30" height="30" fill="hsl(240 100% 50%)" />
  <rect x="275" y="85" width="30" height="30" fill="hsl(240 100% 92.52983203917043%)" />
  <rect x="345" y="85" width="30" height="30" fill="hsl(240 100% 67.93659243483721%)" />
  <rect x="450" y="85" width="30" height="30" fill="hsl(240 100% 51.68445668791204%)" />
  <rect x="520" y="85" width="30" height="30" fill="rgb(255 255 255 / 50%)" />
  <rect x="590" y="85" width="30" height="30" fill="hsl(240 100% 72.20912488396644%)" />
  <rect x="625" y="85" width="30" height="30" fill="rgb(255 255 255 / 50%)" />
  <rect x="65" y="120" width="30" height="30" fill="hsl(240 100% 77.44238653774511%)" />
  <rect x="100" y="120" width="30" height="30" fill="hsl(240 100% 79.74031824845191%)" />
  <rect x="135" y="120" width="30" height="30" fill="hsl(240 100% 50%)" />
  <rect x="170" y="120" width="30" height="30" fill="hsl(240 100% 89.6432526892382%)" />
  <rect x="205" y="120" width="30" height="30" fill="hsl(240 100% 88.0680321534715%)" />
  <rect x="275" y="120" width="30" height="30" fill="hsl(240 100% 98.53749858631916%)" />
  <rect x="345" y="120" width="30" height="30" fill="hsl(240 100% 92.42523592127327%)" />
  <rect x="380" y="120" width="30" height="30" fill="hsl(240 100% 97.0839646113834%)" />
  <rect x="450" y="120" width="30" height="30" fill="hsl(240 100% 72.95467847217273%)" />
  <rect x="65" y="155" width="30" height="30" fill="hsl(240 100% 98.3451347850652%)" />
  <rect x="100" y="155" width="30" height="30" fill="hsl(240 100% 98.87870354077072%)" />
  <rect x="135" y="155" width="30" height="30" fill="hsl(240 100% 97.37846020440655%)" />
  <rect x="170" y="155" width="30" height="30" fill="hsl(240 100% 99.77923302153883%)" />
  <rect x="205" y="155" width="30" height="30" fill="hsl(240 100% 87.44940859834479%)" />
  <rect x="275" y="155" width="30" height="30" fill="rgb(255 255 255 / 50%)" />
  <rect x="345" y="155" width="30" height="30" fill="hsl(240 100% 90.43402672831894%)" />
  <rect x="415" y="155" width="30" height="30" fill="hsl(240 100% 71.31989784448218%)" />
  <rect x="450" y="155" width="30" height="30" fill="hsl(240 100% 76.57124389426%)" />
  <rect x="485" y="155" width="30" height="30" fill="hsl(240 100% 99.38216744188992%)" />
  <rect x="520" y="155" width="30" height="30" fill="hsl(240 100% 50%)" />
  <rect x="555" y="155" width="30" height="30" fill="hsl(240 100% 92.95750794071171%)" />
  <rect x="590" y="155" width="30" height="30" fill="hsl(240 100% 77.13823812866532%)" />
  <rect x="625" y="155" width="30" height="30" fill="hsl(240 100% 89.28138301634021%)" />
  <rect x="65" y="190" width="30" height="30" fill="hsl(240 100% 50%)" />
  <rect x="100" y="190" width="30" height="30" fill="hsl(240 100% 50%)" />
  <rect x="135" y="190" width="30" height="30" fill="hsl(240 100% 50%)" />
  <rect x="170" y="190" width="30" height="30" fill="hsl(240 100% 50%)" />
  <rect x="205" y="190" width="30" height="30" fill="hsl(240 100% 50%)" />
  <rect x="240" y="190" width="30" height="30" fill="hsl(240 100% 50%)" />
  <rect x="275" y="190" width="30" height="30" fill="hsl(240 100% 50%)" />
  <rect x="310" y="190" width="30" height="30" fill="hsl(240 100% 50%)" />
  <rect x="345" y="190" width="30" height="30" fill="hsl(240 100% 50%)" />
  <rect x="380" y="190" width="30" height="30" fill="hsl(240 100% 50%)" />
  <rect x="415" y="190" width="30" height="30" fill="hsl(240 100% 50%)" />
  <rect x="450" y="190" width="30" height="30" fill="hsl(240 100% 50%)" />
  <rect x="485" y="190" width="30" height="30" fill="hsl(240 100% 50%)" />
  <rect x="520" y="190" width="30" height="30" fill="hsl(240 100% 50%)" />
  <rect x="555" y="190" width="30" height="30" fill="hsl(240 100% 50%)" />
  <rect x="590" y="190" width="30" height="30" fill="hsl(240 100% 50%)" />
  <rect x="625" y="190" width="30" height="30" fill="hsl(240 100% 50%)" />
  <rect x="660" y="190" width="30" height="30" fill="hsl(240 100% 50%)" />
  <rect x="65" y="225" width="30" height="30" fill="hsl(240 100% 96.10095744150999%)" />
  <rect x="100" y="225" width="30" height="30" fill="hsl(240 100% 90.32316437910119%)" />
  <rect x="135" y="225" width="30" height="30" fill="hsl(240 100% 88.4148792535895%)" />
  <rect x="205" y="225" width="30" height="30" fill="hsl(240 100% 90.46232984197503%)" />
  <rect x="275" y="225" width="30" height="30" fill="rgb(255 255 255 / 50%)" />
  <rect x="345" y="225" width="30" height="30" fill="hsl(240 100% 89.60136178664112%)" />
  <rect x="450" y="225" width="30" height="30" fill="hsl(240 100% 50%)" />
  <rect x="520" y="225" width="30" height="30" fill="rgb(255 255 255 / 50%)" />
  <rect x="590" y="225" width="30" height="30" fill="rgb(255 255 255 / 50%)" />
  <rect x="625" y="225" width="30" height="30" fill="rgb(255 255 255 / 50%)" />
  <rect x="100" y="260" width="30" height="30" fill="hsl(240 100% 99.88423931024495%)" />
  <rect x="135" y="260" width="30" height="30" fill="hsl(240 100% 99.41670554075885%)" />
  <rect x="170" y="260" width="30" height="30" fill="rgb(255 255 255 / 50%)" />
  <rect x="205" y="260" width="30" height="30" fill="hsl(240 100% 88.0110567527675%)" />
  <rect x="275" y="260" width="30" height="30" fill="rgb(255 255 255 / 50%)" />
  <rect x="345" y="260" width="30" height="30" fill="hsl(240 100% 83.15772607924922%)" />
  <rect x="380" y="260" width="30" height="30" fill="rgb(255 255 255 / 50%)" />
  <rect x="415" y="260" width="30" height="30" fill="hsl(240 100% 50%)" />
  <rect x="450" y="260" width="30" height="30" fill="hsl(240 100% 76.69218253018165%)" />
  <rect x="520" y="260" width="30" height="30" fill="hsl(240 100% 97.00868220682328%)" />
  <rect x="555" y="260" width="30" height="30" fill="hsl(240 100% 94.1646193297128%)" />
  <rect x="65" y="295" width="30" height="30" fill="hsl(240 100% 66.63264842623457%)" />
  <rect x="100" y="295" width="30" height="30" fill="hsl(240 100% 59.08597642159431%)" />
  <rect x="135" y="295" width="30" height="30" fill="hsl(240 100% 67.93961727005313%)" />
  <rect x="170" y="295" width="30" height="30" fill="hsl(240 100% 91.09040509691341%)" />
  <rect x="205" y="295" width="30" height="30" fill="hsl(240 100% 50%)" />
  <rect x="275" y="295" width="30" height="30" fill="hsl(240 100% 99.42883157212266%)" />
  <rect x="345" y="295" width="30" height="30" fill="hsl(240 100% 50.43946147075946%)" />
  <rect x="380" y="295" width="30" height="30" fill="hsl(240 100% 89.73646109111212%)" />
  <rect x="450" y="295" width="30" height="30" fill="hsl(240 100% 53.42128109622621%)" />
  <rect x="555" y="295" width="30" height="30" fill="hsl(240 100% 55.2958154284699%)" />
  <rect x="65" y="330" width="30" height="30" fill="hsl(240 100% 93.00481503238002%)" />
  <rect x="100" y="330" width="30" height="30" fill="hsl(240 100% 96.46206483913635%)" />
  <rect x="135" y="330" width="30" height="30" fill="hsl(240 100% 86.1649768561468%)" />
  <rect x="170" y="330" width="30" height="30" fill="hsl(240 100% 98.98610161593791%)" />
  <rect x="205" y="330" width="30" height="30" fill="hsl(240 100% 76.07104255060183%)" />
  <rect x="240" y="330" width="30" height="30" fill="hsl(240 100% 99.7888909313721%)" />
  <rect x="275" y="330" width="30" height="30" fill="rgb(255 255 255 / 50%)" />
  <rect x="345" y="330" width="30" height="30" fill="hsl(240 100% 81.64873789062207%)" />
  <rect x="380" y="330" width="30" height="30" fill="hsl(240 100% 99.75597403353474%)" />
  <rect x="415" y="330" width="30" height="30" fill="hsl(240 100% 63.80647785822675%)" />
  <rect x="450" y="330" width="30" height="30" fill="hsl(240 100% 73.38514338346957%)" />
  <rect x="485" y="330" width="30" height="30" fill="hsl(240 100% 92.01440478405932%)" />
  <rect x="520" y="330" width="30" height="30" fill="hsl(240 100% 50%)" />
  <rect x="625" y="330" width="30" height="30" fill="hsl(240 100% 84.91122156292182%)" />
  <rect x="660" y="330" width="30" height="30" fill="hsl(240 100% 98.01300009348941%)" />
  <rect x="65" y="365" width="30" height="30" fill="hsl(240 100% 68.8298837999802%)" />
  <rect x="100" y="365" width="30" height="30" fill="hsl(240 100% 80.7300906464655%)" />
  <rect x="135" y="365" width="30" height="30" fill="hsl(240 100% 50%)" />
  <rect x="170" y="365" width="30" height="30" fill="hsl(240 100% 95.80964913683553%)" />
  <rect x="205" y="365" width="30" height="30" fill="hsl(240 100% 50.36546642459311%)" />
  <rect x="275" y="365" width="30" height="30" fill="hsl(240 100% 99.85161145276149%)" />
  <rect x="345" y="365" width="30" height="30" fill="hsl(240 100% 63.1287046694189%)" />
  <rect x="450" y="365" width="30" height="30" fill="hsl(240 100% 84.53961601750208%)" />
  <rect x="520" y="365" width="30" height="30" fill="hsl(240 100% 99.60244101962992%)" />
  <rect x="590" y="365" width="30" height="30" fill="hsl(240 100% 60.121615137609865%)" />
  <rect x="625" y="365" width="30" height="30" fill="hsl(240 100% 97.99192331261987%)" />
  <rect x="65" y="400" width="30" height="30" fill="hsl(240 100% 99.32088783917185%)" />
  <rect x="100" y="400" width="30" height="30" fill="hsl(240 100% 99.62637852951418%)" />
  <rect x="135" y="400" width="30" height="30" fill="hsl(240 100% 94.57966315425365%)" />
  <rect x="170" y="400" width="30" height="30" fill="hsl(240 100% 99.12364549070121%)" />
  <rect x="205" y="400" width="30" height="30" fill="hsl(240 100% 89.0074066192782%)" />
  <rect x="240" y="400" width="30" height="30" fill="hsl(240 100% 99.1661372368633%)" />
  <rect x="275" y="400" width="30" height="30" fill="rgb(255 255 255 / 50%)" />
  <rect x="345" y="400" width="30" height="30" fill="hsl(240 100% 95.99775373604378%)" />
  <rect x="380" y="400" width="30" height="30" fill="hsl(240 100% 99.96997513590381%)" />
  <rect x="450" y="400" width="30" height="30" fill="hsl(240 100% 50%)" />
  <rect x="205" y="435" width="30" height="30" fill="hsl(240 100% 50%)" />
  <rect x="275" y="435" width="30" height="30" fill="hsl(240 100% 95.20400353925932%)" />
  <rect x="345" y="435" width="30" height="30" fill="hsl(240 100% 87.96448558039167%)" />
  <rect x="380" y="435" width="30" height="30" fill="hsl(240 100% 99.7799576225638%)" />
  <rect x="205" y="470" width="30" height="30" fill="hsl(240 100% 50%)" />
  <rect x="275" y="470" width="30" height="30" fill="hsl(240 100% 95.8313738705898%)" />
  <rect x="345" y="470" width="30" height="30" fill="hsl(240 100% 89.11940393048606%)" />
  <rect x="380" y="470" width="30" height="30" fill="hsl(240 100% 99.5687202907025%)" />
</svg>
