<svg xmlns="http://www.w3.org/2000/svg" viewBox="0 0 870 505">
  <rect x="0" y="0" width="870" height="505" rx="5" ry="5" fill="#222" />
  <text x="60" y="100" fill="white" font-family="sans-serif" font-weight="bold" font-size="12" text-anchor="end" dominant-baseline="middle">ba</text>
  <text x="60" y="135" fill="white" font-family="sans-serif" font-weight="bold" font-size="12" text-anchor="end" dominant-baseline="middle">det</text>
  <text x="60" y="170" fill="white" font-family="sans-serif" font-weight="bold" font-size="12" text-anchor="end" dominant-baseline="middle">gmm</text>
  <text x="60" y="205" fill="white" font-family="sans-serif" font-weight="bold" font-size="12" text-anchor="end" dominant-baseline="middle">hello</text>
  <text x="60" y="240" fill="white" font-family="sans-serif" font-weight="bold" font-size="12" text-anchor="end" dominant-baseline="middle">ht</text>
  <text x="60" y="275" fill="white" font-family="sans-serif" font-weight="bold" font-size="12" text-anchor="end" dominant-baseline="middle">kmeans</text>
  <text x="60" y="310" fill="white" font-family="sans-serif" font-weight="bold" font-size="12" text-anchor="end" dominant-baseline="middle">llsq</text>
  <text x="60" y="345" fill="white" font-family="sans-serif" font-weight="bold" font-size="12" text-anchor="end" dominant-baseline="middle">lse</text>
  <text x="60" y="380" fill="white" font-family="sans-serif" font-weight="bold" font-size="12" text-anchor="end" dominant-baseline="middle">lstm</text>
  <text x="60" y="415" fill="white" font-family="sans-serif" font-weight="bold" font-size="12" text-anchor="end" dominant-baseline="middle">ode</text>
  <text x="60" y="450" fill="white" font-family="sans-serif" font-weight="bold" font-size="12" text-anchor="end" dominant-baseline="middle">particle</text>
  <text x="60" y="485" fill="white" font-family="sans-serif" font-weight="bold" font-size="12" text-anchor="end" dominant-baseline="middle">saddle</text>
  <text x="80" y="80" fill="white" font-family="sans-serif" font-weight="bold" font-size="12" text-anchor="end" dominant-baseline="middle" transform="rotate(90 80 80)">ad-hpp</text>
  <text x="115" y="80" fill="white" font-family="sans-serif" font-weight="bold" font-size="12" text-anchor="end" dominant-baseline="middle" transform="rotate(90 115 80)">adept</text>
  <text x="150" y="80" fill="white" font-family="sans-serif" font-weight="bold" font-size="12" text-anchor="end" dominant-baseline="middle" transform="rotate(90 150 80)">adol-c</text>
  <text x="185" y="80" fill="white" font-family="sans-serif" font-weight="bold" font-size="12" text-anchor="end" dominant-baseline="middle" transform="rotate(90 185 80)">codipack</text>
  <text x="220" y="80" fill="white" font-family="sans-serif" font-weight="bold" font-size="12" text-anchor="end" dominant-baseline="middle" transform="rotate(90 220 80)">cppad</text>
  <text x="255" y="80" fill="white" font-family="sans-serif" font-weight="bold" font-size="12" text-anchor="end" dominant-baseline="middle" transform="rotate(90 255 80)">enzyme</text>
  <text x="290" y="80" fill="white" font-family="sans-serif" font-weight="bold" font-size="12" text-anchor="end" dominant-baseline="middle" transform="rotate(90 290 80)">enzyme-jl</text>
  <text x="325" y="80" fill="white" font-family="sans-serif" font-weight="bold" font-size="12" text-anchor="end" dominant-baseline="middle" transform="rotate(90 325 80)">finite</text>
  <text x="360" y="80" fill="white" font-family="sans-serif" font-weight="bold" font-size="12" text-anchor="end" dominant-baseline="middle" transform="rotate(90 360 80)">floretta</text>
  <text x="395" y="80" fill="white" font-family="sans-serif" font-weight="bold" font-size="12" text-anchor="end" dominant-baseline="middle" transform="rotate(90 395 80)">forwarddiff-jl</text>
  <text x="430" y="80" fill="white" font-family="sans-serif" font-weight="bold" font-size="12" text-anchor="end" dominant-baseline="middle" transform="rotate(90 430 80)">futhark</text>
  <text x="465" y="80" fill="white" font-family="sans-serif" font-weight="bold" font-size="12" text-anchor="end" dominant-baseline="middle" transform="rotate(90 465 80)">haskell</text>
  <text x="500" y="80" fill="white" font-family="sans-serif" font-weight="bold" font-size="12" text-anchor="end" dominant-baseline="middle" transform="rotate(90 500 80)">jax</text>
  <text x="535" y="80" fill="white" font-family="sans-serif" font-weight="bold" font-size="12" text-anchor="end" dominant-baseline="middle" transform="rotate(90 535 80)">manual</text>
  <text x="570" y="80" fill="white" font-family="sans-serif" font-weight="bold" font-size="12" text-anchor="end" dominant-baseline="middle" transform="rotate(90 570 80)">mooncake-jl</text>
  <text x="605" y="80" fill="white" font-family="sans-serif" font-weight="bold" font-size="12" text-anchor="end" dominant-baseline="middle" transform="rotate(90 605 80)">ocaml</text>
  <text x="640" y="80" fill="white" font-family="sans-serif" font-weight="bold" font-size="12" text-anchor="end" dominant-baseline="middle" transform="rotate(90 640 80)">pytorch</text>
  <text x="675" y="80" fill="white" font-family="sans-serif" font-weight="bold" font-size="12" text-anchor="end" dominant-baseline="middle" transform="rotate(90 675 80)">reversediff-jl</text>
  <text x="710" y="80" fill="white" font-family="sans-serif" font-weight="bold" font-size="12" text-anchor="end" dominant-baseline="middle" transform="rotate(90 710 80)">scilean</text>
  <text x="745" y="80" fill="white" font-family="sans-serif" font-weight="bold" font-size="12" text-anchor="end" dominant-baseline="middle" transform="rotate(90 745 80)">tapenade</text>
  <text x="780" y="80" fill="white" font-family="sans-serif" font-weight="bold" font-size="12" text-anchor="end" dominant-baseline="middle" transform="rotate(90 780 80)">tensorflow</text>
  <text x="815" y="80" fill="white" font-family="sans-serif" font-weight="bold" font-size="12" text-anchor="end" dominant-baseline="middle" transform="rotate(90 815 80)">tensorflow-js</text>
  <text x="850" y="80" fill="white" font-family="sans-serif" font-weight="bold" font-size="12" text-anchor="end" dominant-baseline="middle" transform="rotate(90 850 80)">zygote</text>
  <rect x="65" y="85" width="30" height="30" fill="hsl(240 100% 80.68303544307352%)" />
  <rect x="100" y="85" width="30" height="30" fill="hsl(240 100% 82.10120794740166%)" />
  <rect x="135" y="85" width="30" height="30" fill="hsl(240 100% 97.9191814249944%)" />
  <rect x="170" y="85" width="30" height="30" fill="hsl(240 100% 81.72342904566577%)" />
  <rect x="205" y="85" width="30" height="30" fill="hsl(240 100% 98.93991881577584%)" />
  <rect x="240" y="85" width="30" height="30" fill="hsl(240 100% 50%)" />
  <rect x="310" y="85" width="30" height="30" fill="hsl(240 100% 92.88495651018233%)" />
  <rect x="415" y="85" width="30" height="30" fill="hsl(240 100% 66.95349875632978%)" />
  <rect x="520" y="85" width="30" height="30" fill="hsl(240 100% 53.9872226103145%)" />
  <rect x="625" y="85" width="30" height="30" fill="rgb(255 255 255 / 50%)" />
  <rect x="730" y="85" width="30" height="30" fill="hsl(240 100% 73.95729541712804%)" />
  <rect x="765" y="85" width="30" height="30" fill="rgb(255 255 255 / 50%)" />
  <rect x="835" y="85" width="30" height="30" fill="hsl(240 100% 99.72132143201304%)" />
  <rect x="65" y="120" width="30" height="30" fill="hsl(240 100% 50%)" />
  <rect x="100" y="120" width="30" height="30" fill="hsl(240 100% 83.03658344515249%)" />
  <rect x="135" y="120" width="30" height="30" fill="hsl(240 100% 85.46908569379106%)" />
  <rect x="170" y="120" width="30" height="30" fill="hsl(240 100% 52.51011518726168%)" />
  <rect x="205" y="120" width="30" height="30" fill="hsl(240 100% 92.68427897225808%)" />
  <rect x="240" y="120" width="30" height="30" fill="hsl(240 100% 92.30384107027814%)" />
  <rect x="275" y="120" width="30" height="30" fill="hsl(240 100% 99.37520084427338%)" />
  <rect x="310" y="120" width="30" height="30" fill="hsl(240 100% 99.03232019181226%)" />
  <rect x="380" y="120" width="30" height="30" fill="hsl(240 100% 93.37357660455167%)" />
  <rect x="415" y="120" width="30" height="30" fill="hsl(240 100% 94.61931582247755%)" />
  <rect x="450" y="120" width="30" height="30" fill="hsl(240 100% 97.85745640364179%)" />
  <rect x="520" y="120" width="30" height="30" fill="hsl(240 100% 79.61981951920602%)" />
  <rect x="555" y="120" width="30" height="30" fill="hsl(240 100% 90.86637213042495%)" />
  <rect x="660" y="120" width="30" height="30" fill="rgb(255 255 255 / 50%)" />
  <rect x="835" y="120" width="30" height="30" fill="rgb(255 255 255 / 50%)" />
  <rect x="65" y="155" width="30" height="30" fill="hsl(240 100% 98.42702762909828%)" />
  <rect x="100" y="155" width="30" height="30" fill="hsl(240 100% 98.80159159516538%)" />
  <rect x="135" y="155" width="30" height="30" fill="hsl(240 100% 99.0947026657666%)" />
  <rect x="170" y="155" width="30" height="30" fill="hsl(240 100% 98.01841151692886%)" />
  <rect x="205" y="155" width="30" height="30" fill="hsl(240 100% 99.84121940456757%)" />
  <rect x="240" y="155" width="30" height="30" fill="hsl(240 100% 90.95522258055848%)" />
  <rect x="275" y="155" width="30" height="30" fill="hsl(240 100% 92.8476713411771%)" />
  <rect x="310" y="155" width="30" height="30" fill="rgb(255 255 255 / 50%)" />
  <rect x="415" y="155" width="30" height="30" fill="hsl(240 100% 92.7721358723329%)" />
  <rect x="485" y="155" width="30" height="30" fill="hsl(240 100% 50%)" />
  <rect x="520" y="155" width="30" height="30" fill="hsl(240 100% 80.78669318286629%)" />
  <rect x="590" y="155" width="30" height="30" fill="hsl(240 100% 99.60369018866551%)" />
  <rect x="625" y="155" width="30" height="30" fill="hsl(240 100% 65.75967678281138%)" />
  <rect x="695" y="155" width="30" height="30" fill="hsl(240 100% 95.35278455071456%)" />
  <rect x="730" y="155" width="30" height="30" fill="hsl(240 100% 83.44241854604138%)" />
  <rect x="765" y="155" width="30" height="30" fill="hsl(240 100% 99.57220650671125%)" />
  <rect x="835" y="155" width="30" height="30" fill="hsl(240 100% 96.06084680373087%)" />
  <rect x="65" y="190" width="30" height="30" fill="hsl(240 100% 50%)" />
  <rect x="100" y="190" width="30" height="30" fill="hsl(240 100% 50%)" />
  <rect x="135" y="190" width="30" height="30" fill="hsl(240 100% 50%)" />
  <rect x="170" y="190" width="30" height="30" fill="hsl(240 100% 50%)" />
  <rect x="205" y="190" width="30" height="30" fill="hsl(240 100% 50%)" />
  <rect x="240" y="190" width="30" height="30" fill="hsl(240 100% 50%)" />
  <rect x="275" y="190" width="30" height="30" fill="hsl(240 100% 50%)" />
  <rect x="310" y="190" width="30" height="30" fill="hsl(240 100% 50%)" />
  <rect x="345" y="190" width="30" height="30" fill="hsl(240 100% 50%)" />
  <rect x="380" y="190" width="30" height="30" fill="hsl(240 100% 50%)" />
  <rect x="415" y="190" width="30" height="30" fill="hsl(240 100% 50%)" />
  <rect x="450" y="190" width="30" height="30" fill="hsl(240 100% 50%)" />
  <rect x="485" y="190" width="30" height="30" fill="hsl(240 100% 50%)" />
  <rect x="520" y="190" width="30" height="30" fill="hsl(240 100% 50%)" />
  <rect x="555" y="190" width="30" height="30" fill="hsl(240 100% 50%)" />
  <rect x="590" y="190" width="30" height="30" fill="hsl(240 100% 50%)" />
  <rect x="625" y="190" width="30" height="30" fill="hsl(240 100% 50%)" />
  <rect x="660" y="190" width="30" height="30" fill="hsl(240 100% 50%)" />
  <rect x="695" y="190" width="30" height="30" fill="hsl(240 100% 50%)" />
  <rect x="730" y="190" width="30" height="30" fill="hsl(240 100% 50%)" />
  <rect x="765" y="190" width="30" height="30" fill="hsl(240 100% 50%)" />
  <rect x="800" y="190" width="30" height="30" fill="hsl(240 100% 50%)" />
  <rect x="835" y="190" width="30" height="30" fill="hsl(240 100% 50%)" />
  <rect x="100" y="225" width="30" height="30" fill="hsl(240 100% 96.20788991555277%)" />
  <rect x="135" y="225" width="30" height="30" fill="hsl(240 100% 85.82509568994632%)" />
  <rect x="170" y="225" width="30" height="30" fill="hsl(240 100% 87.69435439252898%)" />
  <rect x="240" y="225" width="30" height="30" fill="hsl(240 100% 90.05860383847154%)" />
  <rect x="310" y="225" width="30" height="30" fill="rgb(255 255 255 / 50%)" />
  <rect x="415" y="225" width="30" height="30" fill="hsl(240 100% 89.13527040196549%)" />
  <rect x="520" y="225" width="30" height="30" fill="hsl(240 100% 50%)" />
  <rect x="625" y="225" width="30" height="30" fill="rgb(255 255 255 / 50%)" />
  <rect x="730" y="225" width="30" height="30" fill="hsl(240 100% 92.2914546359903%)" />
  <rect x="765" y="225" width="30" height="30" fill="rgb(255 255 255 / 50%)" />
  <rect x="835" y="225" width="30" height="30" fill="hsl(240 100% 93.59652241367354%)" />
  <rect x="65" y="260" width="30" height="30" fill="hsl(240 100% 99.89135222204386%)" />
  <rect x="135" y="260" width="30" height="30" fill="hsl(240 100% 99.85778456178339%)" />
  <rect x="170" y="260" width="30" height="30" fill="hsl(240 100% 98.95555224249007%)" />
  <rect x="205" y="260" width="30" height="30" fill="rgb(255 255 255 / 50%)" />
  <rect x="240" y="260" width="30" height="30" fill="hsl(240 100% 87.29862160959497%)" />
  <rect x="310" y="260" width="30" height="30" fill="rgb(255 255 255 / 50%)" />
  <rect x="415" y="260" width="30" height="30" fill="hsl(240 100% 81.15134824959337%)" />
  <rect x="450" y="260" width="30" height="30" fill="rgb(255 255 255 / 50%)" />
  <rect x="485" y="260" width="30" height="30" fill="hsl(240 100% 50%)" />
  <rect x="520" y="260" width="30" height="30" fill="hsl(240 100% 72.86120525198916%)" />
  <rect x="625" y="260" width="30" height="30" fill="hsl(240 100% 97.03552758251142%)" />
  <rect x="695" y="260" width="30" height="30" fill="hsl(240 100% 94.19352765905013%)" />
  <rect x="65" y="295" width="30" height="30" fill="hsl(240 100% 86.35535491679578%)" />
  <rect x="100" y="295" width="30" height="30" fill="hsl(240 100% 97.56471864898923%)" />
  <rect x="135" y="295" width="30" height="30" fill="hsl(240 100% 95.0830413759872%)" />
  <rect x="170" y="295" width="30" height="30" fill="hsl(240 100% 89.42619890041489%)" />
  <rect x="205" y="295" width="30" height="30" fill="hsl(240 100% 99.48923643898307%)" />
  <rect x="240" y="295" width="30" height="30" fill="hsl(240 100% 50.92838283543191%)" />
  <rect x="275" y="295" width="30" height="30" fill="hsl(240 100% 50%)" />
  <rect x="310" y="295" width="30" height="30" fill="hsl(240 100% 99.505307049599%)" />
  <rect x="345" y="295" width="30" height="30" fill="hsl(240 100% 94.71226899587948%)" />
  <rect x="415" y="295" width="30" height="30" fill="hsl(240 100% 55.28346971951225%)" />
  <rect x="450" y="295" width="30" height="30" fill="hsl(240 100% 99.32327051153486%)" />
  <rect x="485" y="295" width="30" height="30" fill="hsl(240 100% 88.07562699428277%)" />
  <rect x="520" y="295" width="30" height="30" fill="hsl(240 100% 57.941168574099436%)" />
  <rect x="695" y="295" width="30" height="30" fill="hsl(240 100% 97.61166085634773%)" />
  <rect x="800" y="295" width="30" height="30" fill="hsl(240 100% 99.58219646734747%)" />
  <rect x="835" y="295" width="30" height="30" fill="hsl(240 100% 99.95487809419902%)" />
  <rect x="65" y="330" width="30" height="30" fill="hsl(240 100% 87.9722093071241%)" />
  <rect x="100" y="330" width="30" height="30" fill="hsl(240 100% 94.64939645000389%)" />
  <rect x="135" y="330" width="30" height="30" fill="hsl(240 100% 97.17142513460948%)" />
  <rect x="170" y="330" width="30" height="30" fill="hsl(240 100% 87.63280042088624%)" />
  <rect x="205" y="330" width="30" height="30" fill="hsl(240 100% 99.25852966392576%)" />
  <rect x="240" y="330" width="30" height="30" fill="hsl(240 100% 80.80852299206397%)" />
  <rect x="275" y="330" width="30" height="30" fill="hsl(240 100% 88.55916344585464%)" />
  <rect x="310" y="330" width="30" height="30" fill="rgb(255 255 255 / 50%)" />
  <rect x="345" y="330" width="30" height="30" fill="hsl(240 100% 97.38771592220183%)" />
  <rect x="415" y="330" width="30" height="30" fill="hsl(240 100% 86.50788279932607%)" />
  <rect x="450" y="330" width="30" height="30" fill="hsl(240 100% 99.82646781944845%)" />
  <rect x="485" y="330" width="30" height="30" fill="hsl(240 100% 72.94206825725696%)" />
  <rect x="520" y="330" width="30" height="30" fill="hsl(240 100% 72.0414249488451%)" />
  <rect x="590" y="330" width="30" height="30" fill="hsl(240 100% 94.1311454937494%)" />
  <rect x="625" y="330" width="30" height="30" fill="hsl(240 100% 50%)" />
  <rect x="765" y="330" width="30" height="30" fill="hsl(240 100% 95.03799742710615%)" />
  <rect x="800" y="330" width="30" height="30" fill="hsl(240 100% 99.25535434604679%)" />
  <rect x="835" y="330" width="30" height="30" fill="hsl(240 100% 81.71232086000998%)" />
  <rect x="65" y="365" width="30" height="30" fill="hsl(240 100% 57.755730801413456%)" />
  <rect x="100" y="365" width="30" height="30" fill="hsl(240 100% 71.44473444671706%)" />
  <rect x="135" y="365" width="30" height="30" fill="hsl(240 100% 82.01220368543096%)" />
  <rect x="170" y="365" width="30" height="30" fill="hsl(240 100% 50%)" />
  <rect x="205" y="365" width="30" height="30" fill="hsl(240 100% 96.07879193842514%)" />
  <rect x="240" y="365" width="30" height="30" fill="hsl(240 100% 59.2653013583233%)" />
  <rect x="275" y="365" width="30" height="30" fill="hsl(240 100% 92.49454832323852%)" />
  <rect x="310" y="365" width="30" height="30" fill="hsl(240 100% 99.86429366610881%)" />
  <rect x="415" y="365" width="30" height="30" fill="hsl(240 100% 66.13657594704038%)" />
  <rect x="520" y="365" width="30" height="30" fill="hsl(240 100% 86.12329992347605%)" />
  <rect x="625" y="365" width="30" height="30" fill="hsl(240 100% 99.62708963701597%)" />
  <rect x="730" y="365" width="30" height="30" fill="hsl(240 100% 63.69854941270064%)" />
  <rect x="765" y="365" width="30" height="30" fill="hsl(240 100% 98.18302081043942%)" />
  <rect x="835" y="365" width="30" height="30" fill="hsl(240 100% 98.69080855366693%)" />
  <rect x="65" y="400" width="30" height="30" fill="hsl(240 100% 98.1717370463236%)" />
  <rect x="100" y="400" width="30" height="30" fill="hsl(240 100% 99.28589307862877%)" />
  <rect x="135" y="400" width="30" height="30" fill="hsl(240 100% 99.57588870098928%)" />
  <rect x="170" y="400" width="30" height="30" fill="hsl(240 100% 92.51787838557495%)" />
  <rect x="205" y="400" width="30" height="30" fill="hsl(240 100% 99.06434218283708%)" />
  <rect x="240" y="400" width="30" height="30" fill="hsl(240 100% 84.56055397810306%)" />
  <rect x="275" y="400" width="30" height="30" fill="hsl(240 100% 94.3593564378392%)" />
  <rect x="310" y="400" width="30" height="30" fill="rgb(255 255 255 / 50%)" />
  <rect x="380" y="400" width="30" height="30" fill="rgb(255 255 255 / 50%)" />
  <rect x="415" y="400" width="30" height="30" fill="hsl(240 100% 92.61246908996715%)" />
  <rect x="450" y="400" width="30" height="30" fill="hsl(240 100% 99.96765428015446%)" />
  <rect x="485" y="400" width="30" height="30" fill="hsl(240 100% 73.68333992745791%)" />
  <rect x="520" y="400" width="30" height="30" fill="hsl(240 100% 50%)" />
  <rect x="555" y="400" width="30" height="30" fill="hsl(240 100% 98.95821521559552%)" />
  <rect x="660" y="400" width="30" height="30" fill="rgb(255 255 255 / 50%)" />
  <rect x="835" y="400" width="30" height="30" fill="hsl(240 100% 98.9711926466143%)" />
  <rect x="65" y="435" width="30" height="30" fill="hsl(240 100% 93.2809795791358%)" />
  <rect x="240" y="435" width="30" height="30" fill="hsl(240 100% 50%)" />
  <rect x="310" y="435" width="30" height="30" fill="hsl(240 100% 93.86612249322847%)" />
  <rect x="415" y="435" width="30" height="30" fill="hsl(240 100% 87.0552158935852%)" />
  <rect x="450" y="435" width="30" height="30" fill="hsl(240 100% 99.78446270613854%)" />
  <rect x="65" y="470" width="30" height="30" fill="hsl(240 100% 50.050282241659886%)" />
  <rect x="240" y="470" width="30" height="30" fill="hsl(240 100% 50%)" />
  <rect x="310" y="470" width="30" height="30" fill="hsl(240 100% 97.00779378994089%)" />
  <rect x="415" y="470" width="30" height="30" fill="hsl(240 100% 89.0157543055245%)" />
  <rect x="450" y="470" width="30" height="30" fill="hsl(240 100% 99.57662917438456%)" />
</svg>
