<svg xmlns="http://www.w3.org/2000/svg" viewBox="0 0 870 505">
  <rect x="0" y="0" width="870" height="505" rx="5" ry="5" fill="#222" />
  <text x="60" y="100" fill="white" font-family="sans-serif" font-weight="bold" font-size="12" text-anchor="end" dominant-baseline="middle">ba</text>
  <text x="60" y="135" fill="white" font-family="sans-serif" font-weight="bold" font-size="12" text-anchor="end" dominant-baseline="middle">det</text>
  <text x="60" y="170" fill="white" font-family="sans-serif" font-weight="bold" font-size="12" text-anchor="end" dominant-baseline="middle">gmm</text>
  <text x="60" y="205" fill="white" font-family="sans-serif" font-weight="bold" font-size="12" text-anchor="end" dominant-baseline="middle">hello</text>
  <text x="60" y="240" fill="white" font-family="sans-serif" font-weight="bold" font-size="12" text-anchor="end" dominant-baseline="middle">ht</text>
  <text x="60" y="275" fill="white" font-family="sans-serif" font-weight="bold" font-size="12" text-anchor="end" dominant-baseline="middle">kmeans</text>
  <text x="60" y="310" fill="white" font-family="sans-serif" font-weight="bold" font-size="12" text-anchor="end" dominant-baseline="middle">llsq</text>
  <text x="60" y="345" fill="white" font-family="sans-serif" font-weight="bold" font-size="12" text-anchor="end" dominant-baseline="middle">lse</text>
  <text x="60" y="380" fill="white" font-family="sans-serif" font-weight="bold" font-size="12" text-anchor="end" dominant-baseline="middle">lstm</text>
  <text x="60" y="415" fill="white" font-family="sans-serif" font-weight="bold" font-size="12" text-anchor="end" dominant-baseline="middle">ode</text>
  <text x="60" y="450" fill="white" font-family="sans-serif" font-weight="bold" font-size="12" text-anchor="end" dominant-baseline="middle">particle</text>
  <text x="60" y="485" fill="white" font-family="sans-serif" font-weight="bold" font-size="12" text-anchor="end" dominant-baseline="middle">saddle</text>
  <text x="80" y="80" fill="white" font-family="sans-serif" font-weight="bold" font-size="12" text-anchor="end" dominant-baseline="middle" transform="rotate(90 80 80)">ad-hpp</text>
  <text x="115" y="80" fill="white" font-family="sans-serif" font-weight="bold" font-size="12" text-anchor="end" dominant-baseline="middle" transform="rotate(90 115 80)">adept</text>
  <text x="150" y="80" fill="white" font-family="sans-serif" font-weight="bold" font-size="12" text-anchor="end" dominant-baseline="middle" transform="rotate(90 150 80)">adol-c</text>
  <text x="185" y="80" fill="white" font-family="sans-serif" font-weight="bold" font-size="12" text-anchor="end" dominant-baseline="middle" transform="rotate(90 185 80)">codipack</text>
  <text x="220" y="80" fill="white" font-family="sans-serif" font-weight="bold" font-size="12" text-anchor="end" dominant-baseline="middle" transform="rotate(90 220 80)">cppad</text>
  <text x="255" y="80" fill="white" font-family="sans-serif" font-weight="bold" font-size="12" text-anchor="end" dominant-baseline="middle" transform="rotate(90 255 80)">enzyme</text>
  <text x="290" y="80" fill="white" font-family="sans-serif" font-weight="bold" font-size="12" text-anchor="end" dominant-baseline="middle" transform="rotate(90 290 80)">enzyme-jl</text>
  <text x="325" y="80" fill="white" font-family="sans-serif" font-weight="bold" font-size="12" text-anchor="end" dominant-baseline="middle" transform="rotate(90 325 80)">finite</text>
  <text x="360" y="80" fill="white" font-family="sans-serif" font-weight="bold" font-size="12" text-anchor="end" dominant-baseline="middle" transform="rotate(90 360 80)">floretta</text>
  <text x="395" y="80" fill="white" font-family="sans-serif" font-weight="bold" font-size="12" text-anchor="end" dominant-baseline="middle" transform="rotate(90 395 80)">forwarddiff-jl</text>
  <text x="430" y="80" fill="white" font-family="sans-serif" font-weight="bold" font-size="12" text-anchor="end" dominant-baseline="middle" transform="rotate(90 430 80)">futhark</text>
  <text x="465" y="80" fill="white" font-family="sans-serif" font-weight="bold" font-size="12" text-anchor="end" dominant-baseline="middle" transform="rotate(90 465 80)">haskell</text>
  <text x="500" y="80" fill="white" font-family="sans-serif" font-weight="bold" font-size="12" text-anchor="end" dominant-baseline="middle" transform="rotate(90 500 80)">jax</text>
  <text x="535" y="80" fill="white" font-family="sans-serif" font-weight="bold" font-size="12" text-anchor="end" dominant-baseline="middle" transform="rotate(90 535 80)">manual</text>
  <text x="570" y="80" fill="white" font-family="sans-serif" font-weight="bold" font-size="12" text-anchor="end" dominant-baseline="middle" transform="rotate(90 570 80)">mooncake-jl</text>
  <text x="605" y="80" fill="white" font-family="sans-serif" font-weight="bold" font-size="12" text-anchor="end" dominant-baseline="middle" transform="rotate(90 605 80)">ocaml</text>
  <text x="640" y="80" fill="white" font-family="sans-serif" font-weight="bold" font-size="12" text-anchor="end" dominant-baseline="middle" transform="rotate(90 640 80)">pytorch</text>
  <text x="675" y="80" fill="white" font-family="sans-serif" font-weight="bold" font-size="12" text-anchor="end" dominant-baseline="middle" transform="rotate(90 675 80)">reversediff-jl</text>
  <text x="710" y="80" fill="white" font-family="sans-serif" font-weight="bold" font-size="12" text-anchor="end" dominant-baseline="middle" transform="rotate(90 710 80)">scilean</text>
  <text x="745" y="80" fill="white" font-family="sans-serif" font-weight="bold" font-size="12" text-anchor="end" dominant-baseline="middle" transform="rotate(90 745 80)">tapenade</text>
  <text x="780" y="80" fill="white" font-family="sans-serif" font-weight="bold" font-size="12" text-anchor="end" dominant-baseline="middle" transform="rotate(90 780 80)">tensorflow</text>
  <text x="815" y="80" fill="white" font-family="sans-serif" font-weight="bold" font-size="12" text-anchor="end" dominant-baseline="middle" transform="rotate(90 815 80)">tensorflow-js</text>
  <text x="850" y="80" fill="white" font-family="sans-serif" font-weight="bold" font-size="12" text-anchor="end" dominant-baseline="middle" transform="rotate(90 850 80)">zygote</text>
  <rect x="65" y="85" width="30" height="30" fill="hsl(240 100% 78.92765265580937%)" />
  <rect x="100" y="85" width="30" height="30" fill="hsl(240 100% 80.42825378611946%)" />
  <rect x="135" y="85" width="30" height="30" fill="hsl(240 100% 97.73565528684011%)" />
  <rect x="170" y="85" width="30" height="30" fill="hsl(240 100% 79.89965738917114%)" />
  <rect x="205" y="85" width="30" height="30" fill="hsl(240 100% 98.85216705925713%)" />
  <rect x="240" y="85" width="30" height="30" fill="hsl(240 100% 53.94261047264842%)" />
  <rect x="310" y="85" width="30" height="30" fill="hsl(240 100% 92.22176510482215%)" />
  <rect x="415" y="85" width="30" height="30" fill="hsl(240 100% 64.334355820611%)" />
  <rect x="520" y="85" width="30" height="30" fill="hsl(240 100% 50%)" />
  <rect x="625" y="85" width="30" height="30" fill="rgb(255 255 255 / 50%)" />
  <rect x="730" y="85" width="30" height="30" fill="hsl(240 100% 71.56865142053636%)" />
  <rect x="765" y="85" width="30" height="30" fill="rgb(255 255 255 / 50%)" />
  <rect x="835" y="85" width="30" height="30" fill="hsl(240 100% 99.69767379053329%)" />
  <rect x="65" y="120" width="30" height="30" fill="hsl(240 100% 50%)" />
  <rect x="100" y="120" width="30" height="30" fill="hsl(240 100% 84.61101251446587%)" />
  <rect x="135" y="120" width="30" height="30" fill="hsl(240 100% 85.6476619906785%)" />
  <rect x="170" y="120" width="30" height="30" fill="hsl(240 100% 51.956420462901555%)" />
  <rect x="205" y="120" width="30" height="30" fill="hsl(240 100% 92.71308375623325%)" />
  <rect x="240" y="120" width="30" height="30" fill="hsl(240 100% 91.72312871799753%)" />
  <rect x="275" y="120" width="30" height="30" fill="hsl(240 100% 99.33918421433894%)" />
  <rect x="310" y="120" width="30" height="30" fill="hsl(240 100% 98.99330061723653%)" />
  <rect x="380" y="120" width="30" height="30" fill="hsl(240 100% 93.32848709979456%)" />
  <rect x="415" y="120" width="30" height="30" fill="hsl(240 100% 94.62286303684772%)" />
  <rect x="450" y="120" width="30" height="30" fill="hsl(240 100% 97.79186062297109%)" />
  <rect x="520" y="120" width="30" height="30" fill="hsl(240 100% 79.59276704337756%)" />
  <rect x="555" y="120" width="30" height="30" fill="hsl(240 100% 90.40340065324995%)" />
  <rect x="660" y="120" width="30" height="30" fill="rgb(255 255 255 / 50%)" />
  <rect x="835" y="120" width="30" height="30" fill="rgb(255 255 255 / 50%)" />
  <rect x="65" y="155" width="30" height="30" fill="hsl(240 100% 98.14501697202877%)" />
  <rect x="100" y="155" width="30" height="30" fill="hsl(240 100% 98.88268090622256%)" />
  <rect x="135" y="155" width="30" height="30" fill="hsl(240 100% 99.27618333391896%)" />
  <rect x="170" y="155" width="30" height="30" fill="hsl(240 100% 98.08301066716051%)" />
  <rect x="205" y="155" width="30" height="30" fill="hsl(240 100% 99.84801217963724%)" />
  <rect x="240" y="155" width="30" height="30" fill="hsl(240 100% 91.23579475510628%)" />
  <rect x="275" y="155" width="30" height="30" fill="hsl(240 100% 93.2593249580937%)" />
  <rect x="310" y="155" width="30" height="30" fill="rgb(255 255 255 / 50%)" />
  <rect x="415" y="155" width="30" height="30" fill="hsl(240 100% 92.84683520517693%)" />
  <rect x="485" y="155" width="30" height="30" fill="hsl(240 100% 50%)" />
  <rect x="520" y="155" width="30" height="30" fill="hsl(240 100% 80.99947242217446%)" />
  <rect x="590" y="155" width="30" height="30" fill="hsl(240 100% 99.56682465292249%)" />
  <rect x="625" y="155" width="30" height="30" fill="hsl(240 100% 66.45348935752327%)" />
  <rect x="695" y="155" width="30" height="30" fill="hsl(240 100% 95.37851405051448%)" />
  <rect x="730" y="155" width="30" height="30" fill="hsl(240 100% 83.52149906705999%)" />
  <rect x="765" y="155" width="30" height="30" fill="hsl(240 100% 99.59744646297175%)" />
  <rect x="835" y="155" width="30" height="30" fill="hsl(240 100% 96.06101654379168%)" />
  <rect x="65" y="190" width="30" height="30" fill="hsl(240 100% 50%)" />
  <rect x="100" y="190" width="30" height="30" fill="hsl(240 100% 50%)" />
  <rect x="135" y="190" width="30" height="30" fill="hsl(240 100% 50%)" />
  <rect x="170" y="190" width="30" height="30" fill="hsl(240 100% 50%)" />
  <rect x="205" y="190" width="30" height="30" fill="hsl(240 100% 50%)" />
  <rect x="240" y="190" width="30" height="30" fill="hsl(240 100% 50%)" />
  <rect x="275" y="190" width="30" height="30" fill="hsl(240 100% 50%)" />
  <rect x="310" y="190" width="30" height="30" fill="hsl(240 100% 50%)" />
  <rect x="345" y="190" width="30" height="30" fill="hsl(240 100% 50%)" />
  <rect x="380" y="190" width="30" height="30" fill="hsl(240 100% 50%)" />
  <rect x="415" y="190" width="30" height="30" fill="hsl(240 100% 50%)" />
  <rect x="450" y="190" width="30" height="30" fill="hsl(240 100% 50%)" />
  <rect x="485" y="190" width="30" height="30" fill="hsl(240 100% 50%)" />
  <rect x="520" y="190" width="30" height="30" fill="hsl(240 100% 50%)" />
  <rect x="555" y="190" width="30" height="30" fill="hsl(240 100% 50%)" />
  <rect x="590" y="190" width="30" height="30" fill="hsl(240 100% 50%)" />
  <rect x="625" y="190" width="30" height="30" fill="hsl(240 100% 50%)" />
  <rect x="660" y="190" width="30" height="30" fill="hsl(240 100% 50%)" />
  <rect x="695" y="190" width="30" height="30" fill="hsl(240 100% 50%)" />
  <rect x="730" y="190" width="30" height="30" fill="hsl(240 100% 50%)" />
  <rect x="765" y="190" width="30" height="30" fill="hsl(240 100% 50%)" />
  <rect x="800" y="190" width="30" height="30" fill="hsl(240 100% 50%)" />
  <rect x="835" y="190" width="30" height="30" fill="hsl(240 100% 50%)" />
  <rect x="100" y="225" width="30" height="30" fill="hsl(240 100% 96.38290539944013%)" />
  <rect x="135" y="225" width="30" height="30" fill="hsl(240 100% 89.01358010708562%)" />
  <rect x="170" y="225" width="30" height="30" fill="hsl(240 100% 88.29187444602027%)" />
  <rect x="240" y="225" width="30" height="30" fill="hsl(240 100% 90.4676092752259%)" />
  <rect x="310" y="225" width="30" height="30" fill="rgb(255 255 255 / 50%)" />
  <rect x="415" y="225" width="30" height="30" fill="hsl(240 100% 89.71308541084709%)" />
  <rect x="520" y="225" width="30" height="30" fill="hsl(240 100% 50%)" />
  <rect x="625" y="225" width="30" height="30" fill="rgb(255 255 255 / 50%)" />
  <rect x="730" y="225" width="30" height="30" fill="hsl(240 100% 92.6091595110931%)" />
  <rect x="765" y="225" width="30" height="30" fill="rgb(255 255 255 / 50%)" />
  <rect x="835" y="225" width="30" height="30" fill="hsl(240 100% 93.7279685434676%)" />
  <rect x="65" y="260" width="30" height="30" fill="hsl(240 100% 99.83459403371278%)" />
  <rect x="135" y="260" width="30" height="30" fill="hsl(240 100% 99.87515550457368%)" />
  <rect x="170" y="260" width="30" height="30" fill="hsl(240 100% 99.28331160551622%)" />
  <rect x="205" y="260" width="30" height="30" fill="rgb(255 255 255 / 50%)" />
  <rect x="240" y="260" width="30" height="30" fill="hsl(240 100% 86.76590892722673%)" />
  <rect x="310" y="260" width="30" height="30" fill="rgb(255 255 255 / 50%)" />
  <rect x="415" y="260" width="30" height="30" fill="hsl(240 100% 80.27014528573831%)" />
  <rect x="450" y="260" width="30" height="30" fill="rgb(255 255 255 / 50%)" />
  <rect x="485" y="260" width="30" height="30" fill="hsl(240 100% 50%)" />
  <rect x="520" y="260" width="30" height="30" fill="hsl(240 100% 71.8503786522875%)" />
  <rect x="625" y="260" width="30" height="30" fill="hsl(240 100% 96.98321023929465%)" />
  <rect x="695" y="260" width="30" height="30" fill="hsl(240 100% 94.00124051492507%)" />
  <rect x="65" y="295" width="30" height="30" fill="hsl(240 100% 86.2018730623812%)" />
  <rect x="100" y="295" width="30" height="30" fill="hsl(240 100% 97.63457467981252%)" />
  <rect x="135" y="295" width="30" height="30" fill="hsl(240 100% 95.24155012411313%)" />
  <rect x="170" y="295" width="30" height="30" fill="hsl(240 100% 89.2919934710217%)" />
  <rect x="205" y="295" width="30" height="30" fill="hsl(240 100% 99.48411917363721%)" />
  <rect x="240" y="295" width="30" height="30" fill="hsl(240 100% 72.28025237498846%)" />
  <rect x="275" y="295" width="30" height="30" fill="hsl(240 100% 50%)" />
  <rect x="310" y="295" width="30" height="30" fill="hsl(240 100% 99.49919612972366%)" />
  <rect x="345" y="295" width="30" height="30" fill="hsl(240 100% 94.71324965352149%)" />
  <rect x="415" y="295" width="30" height="30" fill="hsl(240 100% 55.219248277824164%)" />
  <rect x="450" y="295" width="30" height="30" fill="hsl(240 100% 99.26073526850566%)" />
  <rect x="485" y="295" width="30" height="30" fill="hsl(240 100% 88.24353936103934%)" />
  <rect x="520" y="295" width="30" height="30" fill="hsl(240 100% 60.012966655074045%)" />
  <rect x="695" y="295" width="30" height="30" fill="hsl(240 100% 97.60839057148462%)" />
  <rect x="800" y="295" width="30" height="30" fill="hsl(240 100% 99.59970585671603%)" />
  <rect x="835" y="295" width="30" height="30" fill="hsl(240 100% 99.95276239355117%)" />
  <rect x="65" y="330" width="30" height="30" fill="hsl(240 100% 87.5798701348312%)" />
  <rect x="100" y="330" width="30" height="30" fill="hsl(240 100% 95.41498553192258%)" />
  <rect x="135" y="330" width="30" height="30" fill="hsl(240 100% 97.04548020561401%)" />
  <rect x="170" y="330" width="30" height="30" fill="hsl(240 100% 87.38257816721855%)" />
  <rect x="205" y="330" width="30" height="30" fill="hsl(240 100% 99.22716495019868%)" />
  <rect x="240" y="330" width="30" height="30" fill="hsl(240 100% 80.17939354476403%)" />
  <rect x="275" y="330" width="30" height="30" fill="hsl(240 100% 88.5672320735619%)" />
  <rect x="310" y="330" width="30" height="30" fill="rgb(255 255 255 / 50%)" />
  <rect x="345" y="330" width="30" height="30" fill="hsl(240 100% 97.20541158374824%)" />
  <rect x="415" y="330" width="30" height="30" fill="hsl(240 100% 85.99811044244174%)" />
  <rect x="450" y="330" width="30" height="30" fill="hsl(240 100% 99.78746777436719%)" />
  <rect x="485" y="330" width="30" height="30" fill="hsl(240 100% 71.52701187252492%)" />
  <rect x="520" y="330" width="30" height="30" fill="hsl(240 100% 71.38711231615207%)" />
  <rect x="590" y="330" width="30" height="30" fill="hsl(240 100% 93.90673420468842%)" />
  <rect x="625" y="330" width="30" height="30" fill="hsl(240 100% 50%)" />
  <rect x="765" y="330" width="30" height="30" fill="hsl(240 100% 94.54839387893534%)" />
  <rect x="800" y="330" width="30" height="30" fill="hsl(240 100% 99.2580370181034%)" />
  <rect x="835" y="330" width="30" height="30" fill="hsl(240 100% 80.94024218887685%)" />
  <rect x="65" y="365" width="30" height="30" fill="hsl(240 100% 56.990809095777266%)" />
  <rect x="100" y="365" width="30" height="30" fill="hsl(240 100% 71.36113655016524%)" />
  <rect x="135" y="365" width="30" height="30" fill="hsl(240 100% 82.22513813783132%)" />
  <rect x="170" y="365" width="30" height="30" fill="hsl(240 100% 50%)" />
  <rect x="205" y="365" width="30" height="30" fill="hsl(240 100% 96.0557061809474%)" />
  <rect x="240" y="365" width="30" height="30" fill="hsl(240 100% 52.76243974982211%)" />
  <rect x="275" y="365" width="30" height="30" fill="hsl(240 100% 92.66270923788805%)" />
  <rect x="310" y="365" width="30" height="30" fill="hsl(240 100% 99.860330806955%)" />
  <rect x="415" y="365" width="30" height="30" fill="hsl(240 100% 66.68046811362382%)" />
  <rect x="520" y="365" width="30" height="30" fill="hsl(240 100% 86.67925335583891%)" />
  <rect x="625" y="365" width="30" height="30" fill="hsl(240 100% 99.63114966786338%)" />
  <rect x="730" y="365" width="30" height="30" fill="hsl(240 100% 62.96096952596488%)" />
  <rect x="765" y="365" width="30" height="30" fill="hsl(240 100% 98.19008464915588%)" />
  <rect x="835" y="365" width="30" height="30" fill="hsl(240 100% 98.77739070270862%)" />
  <rect x="65" y="400" width="30" height="30" fill="hsl(240 100% 97.69222214532753%)" />
  <rect x="100" y="400" width="30" height="30" fill="hsl(240 100% 99.38222771364697%)" />
  <rect x="135" y="400" width="30" height="30" fill="hsl(240 100% 99.60124707156585%)" />
  <rect x="170" y="400" width="30" height="30" fill="hsl(240 100% 92.85644887366686%)" />
  <rect x="205" y="400" width="30" height="30" fill="hsl(240 100% 99.03765429976959%)" />
  <rect x="240" y="400" width="30" height="30" fill="hsl(240 100% 85.32494856934787%)" />
  <rect x="275" y="400" width="30" height="30" fill="hsl(240 100% 94.16574789230528%)" />
  <rect x="310" y="400" width="30" height="30" fill="rgb(255 255 255 / 50%)" />
  <rect x="380" y="400" width="30" height="30" fill="rgb(255 255 255 / 50%)" />
  <rect x="415" y="400" width="30" height="30" fill="hsl(240 100% 92.41688540933305%)" />
  <rect x="450" y="400" width="30" height="30" fill="hsl(240 100% 99.9664125435306%)" />
  <rect x="485" y="400" width="30" height="30" fill="hsl(240 100% 75.26728301052769%)" />
  <rect x="520" y="400" width="30" height="30" fill="hsl(240 100% 50%)" />
  <rect x="555" y="400" width="30" height="30" fill="hsl(240 100% 98.87373431043723%)" />
  <rect x="660" y="400" width="30" height="30" fill="rgb(255 255 255 / 50%)" />
  <rect x="835" y="400" width="30" height="30" fill="hsl(240 100% 99.02936125353436%)" />
  <rect x="65" y="435" width="30" height="30" fill="hsl(240 100% 94.4665938951367%)" />
  <rect x="240" y="435" width="30" height="30" fill="hsl(240 100% 50%)" />
  <rect x="310" y="435" width="30" height="30" fill="hsl(240 100% 94.93879271726188%)" />
  <rect x="415" y="435" width="30" height="30" fill="hsl(240 100% 89.33435623621902%)" />
  <rect x="450" y="435" width="30" height="30" fill="hsl(240 100% 99.83073978272328%)" />
  <rect x="65" y="470" width="30" height="30" fill="hsl(240 100% 59.932771211513774%)" />
  <rect x="240" y="470" width="30" height="30" fill="hsl(240 100% 50%)" />
  <rect x="310" y="470" width="30" height="30" fill="hsl(240 100% 97.57009160990418%)" />
  <rect x="415" y="470" width="30" height="30" fill="hsl(240 100% 91.2200099751289%)" />
  <rect x="450" y="470" width="30" height="30" fill="hsl(240 100% 99.58961581024577%)" />
</svg>
