<svg xmlns="http://www.w3.org/2000/svg" viewBox="0 0 870 505">
  <rect x="0" y="0" width="870" height="505" rx="5" ry="5" fill="#222" />
  <text x="60" y="100" fill="white" font-family="sans-serif" font-weight="bold" font-size="12" text-anchor="end" dominant-baseline="middle">ba</text>
  <text x="60" y="135" fill="white" font-family="sans-serif" font-weight="bold" font-size="12" text-anchor="end" dominant-baseline="middle">det</text>
  <text x="60" y="170" fill="white" font-family="sans-serif" font-weight="bold" font-size="12" text-anchor="end" dominant-baseline="middle">gmm</text>
  <text x="60" y="205" fill="white" font-family="sans-serif" font-weight="bold" font-size="12" text-anchor="end" dominant-baseline="middle">hello</text>
  <text x="60" y="240" fill="white" font-family="sans-serif" font-weight="bold" font-size="12" text-anchor="end" dominant-baseline="middle">ht</text>
  <text x="60" y="275" fill="white" font-family="sans-serif" font-weight="bold" font-size="12" text-anchor="end" dominant-baseline="middle">kmeans</text>
  <text x="60" y="310" fill="white" font-family="sans-serif" font-weight="bold" font-size="12" text-anchor="end" dominant-baseline="middle">llsq</text>
  <text x="60" y="345" fill="white" font-family="sans-serif" font-weight="bold" font-size="12" text-anchor="end" dominant-baseline="middle">lse</text>
  <text x="60" y="380" fill="white" font-family="sans-serif" font-weight="bold" font-size="12" text-anchor="end" dominant-baseline="middle">lstm</text>
  <text x="60" y="415" fill="white" font-family="sans-serif" font-weight="bold" font-size="12" text-anchor="end" dominant-baseline="middle">ode</text>
  <text x="60" y="450" fill="white" font-family="sans-serif" font-weight="bold" font-size="12" text-anchor="end" dominant-baseline="middle">particle</text>
  <text x="60" y="485" fill="white" font-family="sans-serif" font-weight="bold" font-size="12" text-anchor="end" dominant-baseline="middle">saddle</text>
  <text x="80" y="80" fill="white" font-family="sans-serif" font-weight="bold" font-size="12" text-anchor="end" dominant-baseline="middle" transform="rotate(90 80 80)">ad-hpp</text>
  <text x="115" y="80" fill="white" font-family="sans-serif" font-weight="bold" font-size="12" text-anchor="end" dominant-baseline="middle" transform="rotate(90 115 80)">adept</text>
  <text x="150" y="80" fill="white" font-family="sans-serif" font-weight="bold" font-size="12" text-anchor="end" dominant-baseline="middle" transform="rotate(90 150 80)">adol-c</text>
  <text x="185" y="80" fill="white" font-family="sans-serif" font-weight="bold" font-size="12" text-anchor="end" dominant-baseline="middle" transform="rotate(90 185 80)">codipack</text>
  <text x="220" y="80" fill="white" font-family="sans-serif" font-weight="bold" font-size="12" text-anchor="end" dominant-baseline="middle" transform="rotate(90 220 80)">cppad</text>
  <text x="255" y="80" fill="white" font-family="sans-serif" font-weight="bold" font-size="12" text-anchor="end" dominant-baseline="middle" transform="rotate(90 255 80)">enzyme</text>
  <text x="290" y="80" fill="white" font-family="sans-serif" font-weight="bold" font-size="12" text-anchor="end" dominant-baseline="middle" transform="rotate(90 290 80)">enzyme-jl</text>
  <text x="325" y="80" fill="white" font-family="sans-serif" font-weight="bold" font-size="12" text-anchor="end" dominant-baseline="middle" transform="rotate(90 325 80)">finite</text>
  <text x="360" y="80" fill="white" font-family="sans-serif" font-weight="bold" font-size="12" text-anchor="end" dominant-baseline="middle" transform="rotate(90 360 80)">floretta</text>
  <text x="395" y="80" fill="white" font-family="sans-serif" font-weight="bold" font-size="12" text-anchor="end" dominant-baseline="middle" transform="rotate(90 395 80)">forwarddiff-jl</text>
  <text x="430" y="80" fill="white" font-family="sans-serif" font-weight="bold" font-size="12" text-anchor="end" dominant-baseline="middle" transform="rotate(90 430 80)">futhark</text>
  <text x="465" y="80" fill="white" font-family="sans-serif" font-weight="bold" font-size="12" text-anchor="end" dominant-baseline="middle" transform="rotate(90 465 80)">haskell</text>
  <text x="500" y="80" fill="white" font-family="sans-serif" font-weight="bold" font-size="12" text-anchor="end" dominant-baseline="middle" transform="rotate(90 500 80)">jax</text>
  <text x="535" y="80" fill="white" font-family="sans-serif" font-weight="bold" font-size="12" text-anchor="end" dominant-baseline="middle" transform="rotate(90 535 80)">manual</text>
  <text x="570" y="80" fill="white" font-family="sans-serif" font-weight="bold" font-size="12" text-anchor="end" dominant-baseline="middle" transform="rotate(90 570 80)">mooncake-jl</text>
  <text x="605" y="80" fill="white" font-family="sans-serif" font-weight="bold" font-size="12" text-anchor="end" dominant-baseline="middle" transform="rotate(90 605 80)">ocaml</text>
  <text x="640" y="80" fill="white" font-family="sans-serif" font-weight="bold" font-size="12" text-anchor="end" dominant-baseline="middle" transform="rotate(90 640 80)">pytorch</text>
  <text x="675" y="80" fill="white" font-family="sans-serif" font-weight="bold" font-size="12" text-anchor="end" dominant-baseline="middle" transform="rotate(90 675 80)">reversediff-jl</text>
  <text x="710" y="80" fill="white" font-family="sans-serif" font-weight="bold" font-size="12" text-anchor="end" dominant-baseline="middle" transform="rotate(90 710 80)">scilean</text>
  <text x="745" y="80" fill="white" font-family="sans-serif" font-weight="bold" font-size="12" text-anchor="end" dominant-baseline="middle" transform="rotate(90 745 80)">tapenade</text>
  <text x="780" y="80" fill="white" font-family="sans-serif" font-weight="bold" font-size="12" text-anchor="end" dominant-baseline="middle" transform="rotate(90 780 80)">tensorflow</text>
  <text x="815" y="80" fill="white" font-family="sans-serif" font-weight="bold" font-size="12" text-anchor="end" dominant-baseline="middle" transform="rotate(90 815 80)">tensorflow-js</text>
  <text x="850" y="80" fill="white" font-family="sans-serif" font-weight="bold" font-size="12" text-anchor="end" dominant-baseline="middle" transform="rotate(90 850 80)">zygote</text>
  <rect x="65" y="85" width="30" height="30" fill="hsl(240 100% 80.591191656324%)" />
  <rect x="100" y="85" width="30" height="30" fill="hsl(240 100% 82.37428735154637%)" />
  <rect x="135" y="85" width="30" height="30" fill="hsl(240 100% 97.91152785651292%)" />
  <rect x="170" y="85" width="30" height="30" fill="hsl(240 100% 82.12054624127703%)" />
  <rect x="205" y="85" width="30" height="30" fill="hsl(240 100% 98.94603019037089%)" />
  <rect x="240" y="85" width="30" height="30" fill="hsl(240 100% 50%)" />
  <rect x="310" y="85" width="30" height="30" fill="hsl(240 100% 92.85595874643995%)" />
  <rect x="415" y="85" width="30" height="30" fill="hsl(240 100% 70.12224457559653%)" />
  <rect x="520" y="85" width="30" height="30" fill="hsl(240 100% 54.096436327909835%)" />
  <rect x="625" y="85" width="30" height="30" fill="rgb(255 255 255 / 50%)" />
  <rect x="730" y="85" width="30" height="30" fill="hsl(240 100% 73.90079879701776%)" />
  <rect x="765" y="85" width="30" height="30" fill="rgb(255 255 255 / 50%)" />
  <rect x="835" y="85" width="30" height="30" fill="hsl(240 100% 99.72251106219665%)" />
  <rect x="65" y="120" width="30" height="30" fill="hsl(240 100% 50%)" />
  <rect x="100" y="120" width="30" height="30" fill="hsl(240 100% 84.65222460590557%)" />
  <rect x="135" y="120" width="30" height="30" fill="hsl(240 100% 85.5549293644235%)" />
  <rect x="170" y="120" width="30" height="30" fill="hsl(240 100% 52.66170886529671%)" />
  <rect x="205" y="120" width="30" height="30" fill="hsl(240 100% 92.75601894654677%)" />
  <rect x="240" y="120" width="30" height="30" fill="hsl(240 100% 91.73748874233294%)" />
  <rect x="275" y="120" width="30" height="30" fill="hsl(240 100% 99.3690376139512%)" />
  <rect x="310" y="120" width="30" height="30" fill="hsl(240 100% 99.01020894056899%)" />
  <rect x="380" y="120" width="30" height="30" fill="hsl(240 100% 93.40656559221668%)" />
  <rect x="415" y="120" width="30" height="30" fill="hsl(240 100% 95.97406139109842%)" />
  <rect x="450" y="120" width="30" height="30" fill="hsl(240 100% 97.88138105971309%)" />
  <rect x="520" y="120" width="30" height="30" fill="hsl(240 100% 79.81889239022155%)" />
  <rect x="555" y="120" width="30" height="30" fill="hsl(240 100% 91.01815075083482%)" />
  <rect x="660" y="120" width="30" height="30" fill="rgb(255 255 255 / 50%)" />
  <rect x="835" y="120" width="30" height="30" fill="rgb(255 255 255 / 50%)" />
  <rect x="65" y="155" width="30" height="30" fill="hsl(240 100% 98.11740669705087%)" />
  <rect x="100" y="155" width="30" height="30" fill="hsl(240 100% 98.90591642774608%)" />
  <rect x="135" y="155" width="30" height="30" fill="hsl(240 100% 99.26235499938606%)" />
  <rect x="170" y="155" width="30" height="30" fill="hsl(240 100% 98.11445549170877%)" />
  <rect x="205" y="155" width="30" height="30" fill="hsl(240 100% 99.85091740862063%)" />
  <rect x="240" y="155" width="30" height="30" fill="hsl(240 100% 91.28591762135471%)" />
  <rect x="275" y="155" width="30" height="30" fill="hsl(240 100% 92.43649198491457%)" />
  <rect x="310" y="155" width="30" height="30" fill="rgb(255 255 255 / 50%)" />
  <rect x="415" y="155" width="30" height="30" fill="hsl(240 100% 92.99099246330493%)" />
  <rect x="485" y="155" width="30" height="30" fill="hsl(240 100% 50%)" />
  <rect x="520" y="155" width="30" height="30" fill="hsl(240 100% 81.22373240690416%)" />
  <rect x="590" y="155" width="30" height="30" fill="hsl(240 100% 99.57296779286816%)" />
  <rect x="625" y="155" width="30" height="30" fill="hsl(240 100% 67.14311271754471%)" />
  <rect x="695" y="155" width="30" height="30" fill="hsl(240 100% 95.44223498101827%)" />
  <rect x="730" y="155" width="30" height="30" fill="hsl(240 100% 83.83658294908349%)" />
  <rect x="765" y="155" width="30" height="30" fill="hsl(240 100% 99.5786392541141%)" />
  <rect x="835" y="155" width="30" height="30" fill="hsl(240 100% 96.32452596651714%)" />
  <rect x="65" y="190" width="30" height="30" fill="hsl(240 100% 50%)" />
  <rect x="100" y="190" width="30" height="30" fill="hsl(240 100% 50%)" />
  <rect x="135" y="190" width="30" height="30" fill="hsl(240 100% 50%)" />
  <rect x="170" y="190" width="30" height="30" fill="hsl(240 100% 50%)" />
  <rect x="205" y="190" width="30" height="30" fill="hsl(240 100% 50%)" />
  <rect x="240" y="190" width="30" height="30" fill="hsl(240 100% 50%)" />
  <rect x="275" y="190" width="30" height="30" fill="hsl(240 100% 50%)" />
  <rect x="310" y="190" width="30" height="30" fill="hsl(240 100% 50%)" />
  <rect x="345" y="190" width="30" height="30" fill="hsl(240 100% 50%)" />
  <rect x="380" y="190" width="30" height="30" fill="hsl(240 100% 50%)" />
  <rect x="415" y="190" width="30" height="30" fill="hsl(240 100% 50%)" />
  <rect x="450" y="190" width="30" height="30" fill="hsl(240 100% 50%)" />
  <rect x="485" y="190" width="30" height="30" fill="hsl(240 100% 50%)" />
  <rect x="520" y="190" width="30" height="30" fill="hsl(240 100% 50%)" />
  <rect x="555" y="190" width="30" height="30" fill="hsl(240 100% 50%)" />
  <rect x="590" y="190" width="30" height="30" fill="hsl(240 100% 50%)" />
  <rect x="625" y="190" width="30" height="30" fill="hsl(240 100% 50%)" />
  <rect x="660" y="190" width="30" height="30" fill="hsl(240 100% 50%)" />
  <rect x="695" y="190" width="30" height="30" fill="hsl(240 100% 50%)" />
  <rect x="730" y="190" width="30" height="30" fill="hsl(240 100% 50%)" />
  <rect x="765" y="190" width="30" height="30" fill="hsl(240 100% 50%)" />
  <rect x="800" y="190" width="30" height="30" fill="hsl(240 100% 50%)" />
  <rect x="835" y="190" width="30" height="30" fill="hsl(240 100% 50%)" />
  <rect x="100" y="225" width="30" height="30" fill="hsl(240 100% 96.28004952897194%)" />
  <rect x="135" y="225" width="30" height="30" fill="hsl(240 100% 86.40149564214452%)" />
  <rect x="170" y="225" width="30" height="30" fill="hsl(240 100% 88.01474542761702%)" />
  <rect x="240" y="225" width="30" height="30" fill="hsl(240 100% 91.92051065374707%)" />
  <rect x="310" y="225" width="30" height="30" fill="rgb(255 255 255 / 50%)" />
  <rect x="415" y="225" width="30" height="30" fill="hsl(240 100% 89.39872674331794%)" />
  <rect x="520" y="225" width="30" height="30" fill="hsl(240 100% 50%)" />
  <rect x="625" y="225" width="30" height="30" fill="rgb(255 255 255 / 50%)" />
  <rect x="730" y="225" width="30" height="30" fill="hsl(240 100% 92.39816985470256%)" />
  <rect x="765" y="225" width="30" height="30" fill="rgb(255 255 255 / 50%)" />
  <rect x="835" y="225" width="30" height="30" fill="hsl(240 100% 93.64937806862804%)" />
  <rect x="65" y="260" width="30" height="30" fill="hsl(240 100% 99.86979412845899%)" />
  <rect x="135" y="260" width="30" height="30" fill="hsl(240 100% 99.88740617073788%)" />
  <rect x="170" y="260" width="30" height="30" fill="hsl(240 100% 99.25325869115065%)" />
  <rect x="205" y="260" width="30" height="30" fill="rgb(255 255 255 / 50%)" />
  <rect x="240" y="260" width="30" height="30" fill="hsl(240 100% 88.03038746213339%)" />
  <rect x="310" y="260" width="30" height="30" fill="rgb(255 255 255 / 50%)" />
  <rect x="415" y="260" width="30" height="30" fill="hsl(240 100% 80.95207737169491%)" />
  <rect x="450" y="260" width="30" height="30" fill="rgb(255 255 255 / 50%)" />
  <rect x="485" y="260" width="30" height="30" fill="hsl(240 100% 50%)" />
  <rect x="520" y="260" width="30" height="30" fill="hsl(240 100% 72.10298929310528%)" />
  <rect x="625" y="260" width="30" height="30" fill="hsl(240 100% 96.9980384854086%)" />
  <rect x="695" y="260" width="30" height="30" fill="hsl(240 100% 94.07788858070225%)" />
  <rect x="65" y="295" width="30" height="30" fill="hsl(240 100% 88.32693206445963%)" />
  <rect x="100" y="295" width="30" height="30" fill="hsl(240 100% 98.14857184191989%)" />
  <rect x="135" y="295" width="30" height="30" fill="hsl(240 100% 95.1020845187613%)" />
  <rect x="170" y="295" width="30" height="30" fill="hsl(240 100% 89.29375780506629%)" />
  <rect x="205" y="295" width="30" height="30" fill="hsl(240 100% 99.48754381842795%)" />
  <rect x="240" y="295" width="30" height="30" fill="hsl(240 100% 50.46216937102837%)" />
  <rect x="275" y="295" width="30" height="30" fill="hsl(240 100% 50%)" />
  <rect x="310" y="295" width="30" height="30" fill="hsl(240 100% 99.49827807106374%)" />
  <rect x="345" y="295" width="30" height="30" fill="hsl(240 100% 94.70065164208052%)" />
  <rect x="415" y="295" width="30" height="30" fill="hsl(240 100% 54.099350676966935%)" />
  <rect x="450" y="295" width="30" height="30" fill="hsl(240 100% 99.3249863120282%)" />
  <rect x="485" y="295" width="30" height="30" fill="hsl(240 100% 88.07652389019488%)" />
  <rect x="520" y="295" width="30" height="30" fill="hsl(240 100% 57.892568192921864%)" />
  <rect x="695" y="295" width="30" height="30" fill="hsl(240 100% 97.6239828121284%)" />
  <rect x="800" y="295" width="30" height="30" fill="hsl(240 100% 99.59722377979243%)" />
  <rect x="835" y="295" width="30" height="30" fill="hsl(240 100% 99.9571490059606%)" />
  <rect x="65" y="330" width="30" height="30" fill="hsl(240 100% 85.90281417511963%)" />
  <rect x="100" y="330" width="30" height="30" fill="hsl(240 100% 93.77391818213394%)" />
  <rect x="135" y="330" width="30" height="30" fill="hsl(240 100% 96.69419829421096%)" />
  <rect x="170" y="330" width="30" height="30" fill="hsl(240 100% 85.6387183078684%)" />
  <rect x="205" y="330" width="30" height="30" fill="hsl(240 100% 99.1230681962678%)" />
  <rect x="240" y="330" width="30" height="30" fill="hsl(240 100% 77.43392313436092%)" />
  <rect x="275" y="330" width="30" height="30" fill="hsl(240 100% 85.86699699032206%)" />
  <rect x="310" y="330" width="30" height="30" fill="rgb(255 255 255 / 50%)" />
  <rect x="345" y="330" width="30" height="30" fill="hsl(240 100% 96.90756313414519%)" />
  <rect x="415" y="330" width="30" height="30" fill="hsl(240 100% 79.61596917542795%)" />
  <rect x="450" y="330" width="30" height="30" fill="hsl(240 100% 99.8014991463103%)" />
  <rect x="485" y="330" width="30" height="30" fill="hsl(240 100% 68.97797204795464%)" />
  <rect x="520" y="330" width="30" height="30" fill="hsl(240 100% 67.24805251473181%)" />
  <rect x="590" y="330" width="30" height="30" fill="hsl(240 100% 93.00977681435428%)" />
  <rect x="625" y="330" width="30" height="30" fill="hsl(240 100% 50%)" />
  <rect x="765" y="330" width="30" height="30" fill="hsl(240 100% 94.57409697930609%)" />
  <rect x="800" y="330" width="30" height="30" fill="hsl(240 100% 99.16871380526008%)" />
  <rect x="835" y="330" width="30" height="30" fill="hsl(240 100% 79.33495576410093%)" />
  <rect x="65" y="365" width="30" height="30" fill="hsl(240 100% 59.9461521411248%)" />
  <rect x="100" y="365" width="30" height="30" fill="hsl(240 100% 75.59996518642684%)" />
  <rect x="135" y="365" width="30" height="30" fill="hsl(240 100% 81.95126867934505%)" />
  <rect x="170" y="365" width="30" height="30" fill="hsl(240 100% 50%)" />
  <rect x="205" y="365" width="30" height="30" fill="hsl(240 100% 96.04078431020703%)" />
  <rect x="240" y="365" width="30" height="30" fill="hsl(240 100% 59.659863772598506%)" />
  <rect x="275" y="365" width="30" height="30" fill="hsl(240 100% 92.60477895877646%)" />
  <rect x="310" y="365" width="30" height="30" fill="hsl(240 100% 99.8624781287829%)" />
  <rect x="415" y="365" width="30" height="30" fill="hsl(240 100% 61.54229923407523%)" />
  <rect x="520" y="365" width="30" height="30" fill="hsl(240 100% 86.26636959746202%)" />
  <rect x="625" y="365" width="30" height="30" fill="hsl(240 100% 99.63872460828206%)" />
  <rect x="730" y="365" width="30" height="30" fill="hsl(240 100% 63.816039780164125%)" />
  <rect x="765" y="365" width="30" height="30" fill="hsl(240 100% 98.11206140084904%)" />
  <rect x="835" y="365" width="30" height="30" fill="hsl(240 100% 98.73683089532408%)" />
  <rect x="65" y="400" width="30" height="30" fill="hsl(240 100% 98.118512884473%)" />
  <rect x="100" y="400" width="30" height="30" fill="hsl(240 100% 99.50794670312715%)" />
  <rect x="135" y="400" width="30" height="30" fill="hsl(240 100% 99.66839120855741%)" />
  <rect x="170" y="400" width="30" height="30" fill="hsl(240 100% 94.03397263819717%)" />
  <rect x="205" y="400" width="30" height="30" fill="hsl(240 100% 99.24477356419774%)" />
  <rect x="240" y="400" width="30" height="30" fill="hsl(240 100% 88.50555831399583%)" />
  <rect x="275" y="400" width="30" height="30" fill="hsl(240 100% 95.4905532290388%)" />
  <rect x="310" y="400" width="30" height="30" fill="rgb(255 255 255 / 50%)" />
  <rect x="380" y="400" width="30" height="30" fill="rgb(255 255 255 / 50%)" />
  <rect x="415" y="400" width="30" height="30" fill="hsl(240 100% 94.19201364369492%)" />
  <rect x="450" y="400" width="30" height="30" fill="hsl(240 100% 99.97095788059417%)" />
  <rect x="485" y="400" width="30" height="30" fill="hsl(240 100% 79.12417616587555%)" />
  <rect x="520" y="400" width="30" height="30" fill="hsl(240 100% 50%)" />
  <rect x="555" y="400" width="30" height="30" fill="hsl(240 100% 99.13479674260255%)" />
  <rect x="660" y="400" width="30" height="30" fill="rgb(255 255 255 / 50%)" />
  <rect x="835" y="400" width="30" height="30" fill="hsl(240 100% 99.16479676744889%)" />
  <rect x="65" y="435" width="30" height="30" fill="hsl(240 100% 93.31492746124758%)" />
  <rect x="240" y="435" width="30" height="30" fill="hsl(240 100% 50%)" />
  <rect x="310" y="435" width="30" height="30" fill="hsl(240 100% 93.86165086086542%)" />
  <rect x="415" y="435" width="30" height="30" fill="hsl(240 100% 87.3932505466397%)" />
  <rect x="450" y="435" width="30" height="30" fill="hsl(240 100% 99.79028580803343%)" />
  <rect x="65" y="470" width="30" height="30" fill="hsl(240 100% 50.23595684382604%)" />
  <rect x="240" y="470" width="30" height="30" fill="hsl(240 100% 50%)" />
  <rect x="310" y="470" width="30" height="30" fill="hsl(240 100% 97.0231901911905%)" />
  <rect x="415" y="470" width="30" height="30" fill="hsl(240 100% 89.04706186161735%)" />
  <rect x="450" y="470" width="30" height="30" fill="hsl(240 100% 99.57036605314423%)" />
</svg>
