<svg xmlns="http://www.w3.org/2000/svg" viewBox="0 0 870 505">
  <rect x="0" y="0" width="870" height="505" rx="5" ry="5" fill="#222" />
  <text x="60" y="100" fill="white" font-family="sans-serif" font-weight="bold" font-size="12" text-anchor="end" dominant-baseline="middle">ba</text>
  <text x="60" y="135" fill="white" font-family="sans-serif" font-weight="bold" font-size="12" text-anchor="end" dominant-baseline="middle">det</text>
  <text x="60" y="170" fill="white" font-family="sans-serif" font-weight="bold" font-size="12" text-anchor="end" dominant-baseline="middle">gmm</text>
  <text x="60" y="205" fill="white" font-family="sans-serif" font-weight="bold" font-size="12" text-anchor="end" dominant-baseline="middle">hello</text>
  <text x="60" y="240" fill="white" font-family="sans-serif" font-weight="bold" font-size="12" text-anchor="end" dominant-baseline="middle">ht</text>
  <text x="60" y="275" fill="white" font-family="sans-serif" font-weight="bold" font-size="12" text-anchor="end" dominant-baseline="middle">kmeans</text>
  <text x="60" y="310" fill="white" font-family="sans-serif" font-weight="bold" font-size="12" text-anchor="end" dominant-baseline="middle">llsq</text>
  <text x="60" y="345" fill="white" font-family="sans-serif" font-weight="bold" font-size="12" text-anchor="end" dominant-baseline="middle">lse</text>
  <text x="60" y="380" fill="white" font-family="sans-serif" font-weight="bold" font-size="12" text-anchor="end" dominant-baseline="middle">lstm</text>
  <text x="60" y="415" fill="white" font-family="sans-serif" font-weight="bold" font-size="12" text-anchor="end" dominant-baseline="middle">ode</text>
  <text x="60" y="450" fill="white" font-family="sans-serif" font-weight="bold" font-size="12" text-anchor="end" dominant-baseline="middle">particle</text>
  <text x="60" y="485" fill="white" font-family="sans-serif" font-weight="bold" font-size="12" text-anchor="end" dominant-baseline="middle">saddle</text>
  <text x="80" y="80" fill="white" font-family="sans-serif" font-weight="bold" font-size="12" text-anchor="end" dominant-baseline="middle" transform="rotate(90 80 80)">ad-hpp</text>
  <text x="115" y="80" fill="white" font-family="sans-serif" font-weight="bold" font-size="12" text-anchor="end" dominant-baseline="middle" transform="rotate(90 115 80)">adept</text>
  <text x="150" y="80" fill="white" font-family="sans-serif" font-weight="bold" font-size="12" text-anchor="end" dominant-baseline="middle" transform="rotate(90 150 80)">adol-c</text>
  <text x="185" y="80" fill="white" font-family="sans-serif" font-weight="bold" font-size="12" text-anchor="end" dominant-baseline="middle" transform="rotate(90 185 80)">codipack</text>
  <text x="220" y="80" fill="white" font-family="sans-serif" font-weight="bold" font-size="12" text-anchor="end" dominant-baseline="middle" transform="rotate(90 220 80)">cppad</text>
  <text x="255" y="80" fill="white" font-family="sans-serif" font-weight="bold" font-size="12" text-anchor="end" dominant-baseline="middle" transform="rotate(90 255 80)">enzyme</text>
  <text x="290" y="80" fill="white" font-family="sans-serif" font-weight="bold" font-size="12" text-anchor="end" dominant-baseline="middle" transform="rotate(90 290 80)">enzyme-jl</text>
  <text x="325" y="80" fill="white" font-family="sans-serif" font-weight="bold" font-size="12" text-anchor="end" dominant-baseline="middle" transform="rotate(90 325 80)">finite</text>
  <text x="360" y="80" fill="white" font-family="sans-serif" font-weight="bold" font-size="12" text-anchor="end" dominant-baseline="middle" transform="rotate(90 360 80)">floretta</text>
  <text x="395" y="80" fill="white" font-family="sans-serif" font-weight="bold" font-size="12" text-anchor="end" dominant-baseline="middle" transform="rotate(90 395 80)">forwarddiff-jl</text>
  <text x="430" y="80" fill="white" font-family="sans-serif" font-weight="bold" font-size="12" text-anchor="end" dominant-baseline="middle" transform="rotate(90 430 80)">futhark</text>
  <text x="465" y="80" fill="white" font-family="sans-serif" font-weight="bold" font-size="12" text-anchor="end" dominant-baseline="middle" transform="rotate(90 465 80)">haskell</text>
  <text x="500" y="80" fill="white" font-family="sans-serif" font-weight="bold" font-size="12" text-anchor="end" dominant-baseline="middle" transform="rotate(90 500 80)">jax</text>
  <text x="535" y="80" fill="white" font-family="sans-serif" font-weight="bold" font-size="12" text-anchor="end" dominant-baseline="middle" transform="rotate(90 535 80)">manual</text>
  <text x="570" y="80" fill="white" font-family="sans-serif" font-weight="bold" font-size="12" text-anchor="end" dominant-baseline="middle" transform="rotate(90 570 80)">mooncake-jl</text>
  <text x="605" y="80" fill="white" font-family="sans-serif" font-weight="bold" font-size="12" text-anchor="end" dominant-baseline="middle" transform="rotate(90 605 80)">ocaml</text>
  <text x="640" y="80" fill="white" font-family="sans-serif" font-weight="bold" font-size="12" text-anchor="end" dominant-baseline="middle" transform="rotate(90 640 80)">pytorch</text>
  <text x="675" y="80" fill="white" font-family="sans-serif" font-weight="bold" font-size="12" text-anchor="end" dominant-baseline="middle" transform="rotate(90 675 80)">reversediff-jl</text>
  <text x="710" y="80" fill="white" font-family="sans-serif" font-weight="bold" font-size="12" text-anchor="end" dominant-baseline="middle" transform="rotate(90 710 80)">scilean</text>
  <text x="745" y="80" fill="white" font-family="sans-serif" font-weight="bold" font-size="12" text-anchor="end" dominant-baseline="middle" transform="rotate(90 745 80)">tapenade</text>
  <text x="780" y="80" fill="white" font-family="sans-serif" font-weight="bold" font-size="12" text-anchor="end" dominant-baseline="middle" transform="rotate(90 780 80)">tensorflow</text>
  <text x="815" y="80" fill="white" font-family="sans-serif" font-weight="bold" font-size="12" text-anchor="end" dominant-baseline="middle" transform="rotate(90 815 80)">tensorflow-js</text>
  <text x="850" y="80" fill="white" font-family="sans-serif" font-weight="bold" font-size="12" text-anchor="end" dominant-baseline="middle" transform="rotate(90 850 80)">zygote</text>
  <rect x="65" y="85" width="30" height="30" fill="hsl(240 100% 80.82108355229295%)" />
  <rect x="100" y="85" width="30" height="30" fill="hsl(240 100% 83.0733504383831%)" />
  <rect x="135" y="85" width="30" height="30" fill="hsl(240 100% 97.99336067480748%)" />
  <rect x="170" y="85" width="30" height="30" fill="hsl(240 100% 82.33720051492563%)" />
  <rect x="205" y="85" width="30" height="30" fill="hsl(240 100% 98.99956640513712%)" />
  <rect x="240" y="85" width="30" height="30" fill="hsl(240 100% 52.62076986955158%)" />
  <rect x="310" y="85" width="30" height="30" fill="hsl(240 100% 93.90525319982952%)" />
  <rect x="415" y="85" width="30" height="30" fill="hsl(240 100% 68.18124154002943%)" />
  <rect x="520" y="85" width="30" height="30" fill="hsl(240 100% 50%)" />
  <rect x="625" y="85" width="30" height="30" fill="rgb(255 255 255 / 50%)" />
  <rect x="730" y="85" width="30" height="30" fill="hsl(240 100% 74.7566146686668%)" />
  <rect x="765" y="85" width="30" height="30" fill="rgb(255 255 255 / 50%)" />
  <rect x="835" y="85" width="30" height="30" fill="hsl(240 100% 99.72483562812049%)" />
  <rect x="65" y="120" width="30" height="30" fill="hsl(240 100% 50%)" />
  <rect x="100" y="120" width="30" height="30" fill="hsl(240 100% 82.18898487347418%)" />
  <rect x="135" y="120" width="30" height="30" fill="hsl(240 100% 85.49337709604843%)" />
  <rect x="170" y="120" width="30" height="30" fill="hsl(240 100% 51.36690827037733%)" />
  <rect x="205" y="120" width="30" height="30" fill="hsl(240 100% 92.45290661002733%)" />
  <rect x="240" y="120" width="30" height="30" fill="hsl(240 100% 91.25199284706562%)" />
  <rect x="275" y="120" width="30" height="30" fill="hsl(240 100% 99.35474735242053%)" />
  <rect x="310" y="120" width="30" height="30" fill="hsl(240 100% 98.97020296973731%)" />
  <rect x="380" y="120" width="30" height="30" fill="hsl(240 100% 93.4012014111665%)" />
  <rect x="415" y="120" width="30" height="30" fill="hsl(240 100% 94.47736294163715%)" />
  <rect x="450" y="120" width="30" height="30" fill="hsl(240 100% 97.84413814825977%)" />
  <rect x="520" y="120" width="30" height="30" fill="hsl(240 100% 79.3451407771897%)" />
  <rect x="555" y="120" width="30" height="30" fill="hsl(240 100% 93.76076298240679%)" />
  <rect x="660" y="120" width="30" height="30" fill="rgb(255 255 255 / 50%)" />
  <rect x="835" y="120" width="30" height="30" fill="rgb(255 255 255 / 50%)" />
  <rect x="65" y="155" width="30" height="30" fill="hsl(240 100% 98.46541255281288%)" />
  <rect x="100" y="155" width="30" height="30" fill="hsl(240 100% 98.80007314875013%)" />
  <rect x="135" y="155" width="30" height="30" fill="hsl(240 100% 99.13486331417928%)" />
  <rect x="170" y="155" width="30" height="30" fill="hsl(240 100% 98.08730253675748%)" />
  <rect x="205" y="155" width="30" height="30" fill="hsl(240 100% 99.85123466566498%)" />
  <rect x="240" y="155" width="30" height="30" fill="hsl(240 100% 91.40572066257624%)" />
  <rect x="275" y="155" width="30" height="30" fill="hsl(240 100% 92.72724011602892%)" />
  <rect x="310" y="155" width="30" height="30" fill="rgb(255 255 255 / 50%)" />
  <rect x="415" y="155" width="30" height="30" fill="hsl(240 100% 93.07154513792868%)" />
  <rect x="485" y="155" width="30" height="30" fill="hsl(240 100% 50%)" />
  <rect x="520" y="155" width="30" height="30" fill="hsl(240 100% 83.90212611824472%)" />
  <rect x="590" y="155" width="30" height="30" fill="hsl(240 100% 99.60685805540841%)" />
  <rect x="625" y="155" width="30" height="30" fill="hsl(240 100% 65.47491985041546%)" />
  <rect x="695" y="155" width="30" height="30" fill="hsl(240 100% 95.48225371957561%)" />
  <rect x="730" y="155" width="30" height="30" fill="hsl(240 100% 83.9255280410241%)" />
  <rect x="765" y="155" width="30" height="30" fill="hsl(240 100% 99.58697076957992%)" />
  <rect x="835" y="155" width="30" height="30" fill="hsl(240 100% 96.17579867800946%)" />
  <rect x="65" y="190" width="30" height="30" fill="hsl(240 100% 50%)" />
  <rect x="100" y="190" width="30" height="30" fill="hsl(240 100% 50%)" />
  <rect x="135" y="190" width="30" height="30" fill="hsl(240 100% 50%)" />
  <rect x="170" y="190" width="30" height="30" fill="hsl(240 100% 50%)" />
  <rect x="205" y="190" width="30" height="30" fill="hsl(240 100% 50%)" />
  <rect x="240" y="190" width="30" height="30" fill="hsl(240 100% 50%)" />
  <rect x="275" y="190" width="30" height="30" fill="hsl(240 100% 50%)" />
  <rect x="310" y="190" width="30" height="30" fill="hsl(240 100% 50%)" />
  <rect x="345" y="190" width="30" height="30" fill="hsl(240 100% 50%)" />
  <rect x="380" y="190" width="30" height="30" fill="hsl(240 100% 50%)" />
  <rect x="415" y="190" width="30" height="30" fill="hsl(240 100% 50%)" />
  <rect x="450" y="190" width="30" height="30" fill="hsl(240 100% 50%)" />
  <rect x="485" y="190" width="30" height="30" fill="hsl(240 100% 50%)" />
  <rect x="520" y="190" width="30" height="30" fill="hsl(240 100% 50%)" />
  <rect x="555" y="190" width="30" height="30" fill="hsl(240 100% 50%)" />
  <rect x="590" y="190" width="30" height="30" fill="hsl(240 100% 50%)" />
  <rect x="625" y="190" width="30" height="30" fill="hsl(240 100% 50%)" />
  <rect x="660" y="190" width="30" height="30" fill="hsl(240 100% 50%)" />
  <rect x="695" y="190" width="30" height="30" fill="hsl(240 100% 50%)" />
  <rect x="730" y="190" width="30" height="30" fill="hsl(240 100% 50%)" />
  <rect x="765" y="190" width="30" height="30" fill="hsl(240 100% 50%)" />
  <rect x="800" y="190" width="30" height="30" fill="hsl(240 100% 50%)" />
  <rect x="835" y="190" width="30" height="30" fill="hsl(240 100% 50%)" />
  <rect x="100" y="225" width="30" height="30" fill="hsl(240 100% 96.68629473972894%)" />
  <rect x="135" y="225" width="30" height="30" fill="hsl(240 100% 89.24525773007856%)" />
  <rect x="170" y="225" width="30" height="30" fill="hsl(240 100% 89.14810391981527%)" />
  <rect x="240" y="225" width="30" height="30" fill="hsl(240 100% 91.23655839979466%)" />
  <rect x="310" y="225" width="30" height="30" fill="rgb(255 255 255 / 50%)" />
  <rect x="415" y="225" width="30" height="30" fill="hsl(240 100% 90.44991077788939%)" />
  <rect x="520" y="225" width="30" height="30" fill="hsl(240 100% 50%)" />
  <rect x="625" y="225" width="30" height="30" fill="rgb(255 255 255 / 50%)" />
  <rect x="730" y="225" width="30" height="30" fill="hsl(240 100% 93.08323380726664%)" />
  <rect x="765" y="225" width="30" height="30" fill="rgb(255 255 255 / 50%)" />
  <rect x="835" y="225" width="30" height="30" fill="hsl(240 100% 95.00596135555617%)" />
  <rect x="65" y="260" width="30" height="30" fill="hsl(240 100% 99.86209353035233%)" />
  <rect x="135" y="260" width="30" height="30" fill="hsl(240 100% 99.85137299968859%)" />
  <rect x="170" y="260" width="30" height="30" fill="hsl(240 100% 98.89804787113974%)" />
  <rect x="205" y="260" width="30" height="30" fill="rgb(255 255 255 / 50%)" />
  <rect x="240" y="260" width="30" height="30" fill="hsl(240 100% 86.93076736944778%)" />
  <rect x="310" y="260" width="30" height="30" fill="rgb(255 255 255 / 50%)" />
  <rect x="415" y="260" width="30" height="30" fill="hsl(240 100% 80.64974968572496%)" />
  <rect x="450" y="260" width="30" height="30" fill="rgb(255 255 255 / 50%)" />
  <rect x="485" y="260" width="30" height="30" fill="hsl(240 100% 50%)" />
  <rect x="520" y="260" width="30" height="30" fill="hsl(240 100% 70.92916471950426%)" />
  <rect x="625" y="260" width="30" height="30" fill="hsl(240 100% 97.13608738799434%)" />
  <rect x="695" y="260" width="30" height="30" fill="hsl(240 100% 94.20294553647645%)" />
  <rect x="65" y="295" width="30" height="30" fill="hsl(240 100% 86.07495914506433%)" />
  <rect x="100" y="295" width="30" height="30" fill="hsl(240 100% 97.55072625858018%)" />
  <rect x="135" y="295" width="30" height="30" fill="hsl(240 100% 95.24481709308697%)" />
  <rect x="170" y="295" width="30" height="30" fill="hsl(240 100% 90.70078038681372%)" />
  <rect x="205" y="295" width="30" height="30" fill="hsl(240 100% 99.46802489503557%)" />
  <rect x="240" y="295" width="30" height="30" fill="hsl(240 100% 50.79363028273073%)" />
  <rect x="275" y="295" width="30" height="30" fill="hsl(240 100% 50%)" />
  <rect x="310" y="295" width="30" height="30" fill="hsl(240 100% 99.50281212422266%)" />
  <rect x="345" y="295" width="30" height="30" fill="hsl(240 100% 95.09622650286155%)" />
  <rect x="415" y="295" width="30" height="30" fill="hsl(240 100% 55.36214187341444%)" />
  <rect x="450" y="295" width="30" height="30" fill="hsl(240 100% 99.3441270957104%)" />
  <rect x="485" y="295" width="30" height="30" fill="hsl(240 100% 88.35669836828784%)" />
  <rect x="520" y="295" width="30" height="30" fill="hsl(240 100% 58.017763024957326%)" />
  <rect x="695" y="295" width="30" height="30" fill="hsl(240 100% 97.6157663145722%)" />
  <rect x="800" y="295" width="30" height="30" fill="hsl(240 100% 99.5706108606952%)" />
  <rect x="835" y="295" width="30" height="30" fill="hsl(240 100% 99.95809534833771%)" />
  <rect x="65" y="330" width="30" height="30" fill="hsl(240 100% 89.0974730290188%)" />
  <rect x="100" y="330" width="30" height="30" fill="hsl(240 100% 94.92364947203599%)" />
  <rect x="135" y="330" width="30" height="30" fill="hsl(240 100% 97.23274829846939%)" />
  <rect x="170" y="330" width="30" height="30" fill="hsl(240 100% 88.6056044268358%)" />
  <rect x="205" y="330" width="30" height="30" fill="hsl(240 100% 99.20388010733907%)" />
  <rect x="240" y="330" width="30" height="30" fill="hsl(240 100% 80.05712271255706%)" />
  <rect x="275" y="330" width="30" height="30" fill="hsl(240 100% 87.98294268616668%)" />
  <rect x="310" y="330" width="30" height="30" fill="rgb(255 255 255 / 50%)" />
  <rect x="345" y="330" width="30" height="30" fill="hsl(240 100% 97.26161273057937%)" />
  <rect x="415" y="330" width="30" height="30" fill="hsl(240 100% 86.06323615318455%)" />
  <rect x="450" y="330" width="30" height="30" fill="hsl(240 100% 99.81299887278499%)" />
  <rect x="485" y="330" width="30" height="30" fill="hsl(240 100% 73.28189601774568%)" />
  <rect x="520" y="330" width="30" height="30" fill="hsl(240 100% 77.06659785319047%)" />
  <rect x="590" y="330" width="30" height="30" fill="hsl(240 100% 93.92510189220216%)" />
  <rect x="625" y="330" width="30" height="30" fill="hsl(240 100% 50%)" />
  <rect x="765" y="330" width="30" height="30" fill="hsl(240 100% 94.51317449505781%)" />
  <rect x="800" y="330" width="30" height="30" fill="hsl(240 100% 99.21674054223071%)" />
  <rect x="835" y="330" width="30" height="30" fill="hsl(240 100% 80.82444078166118%)" />
  <rect x="65" y="365" width="30" height="30" fill="hsl(240 100% 57.264880089184224%)" />
  <rect x="100" y="365" width="30" height="30" fill="hsl(240 100% 71.71261018936208%)" />
  <rect x="135" y="365" width="30" height="30" fill="hsl(240 100% 82.6207168410412%)" />
  <rect x="170" y="365" width="30" height="30" fill="hsl(240 100% 50%)" />
  <rect x="205" y="365" width="30" height="30" fill="hsl(240 100% 96.19250812109641%)" />
  <rect x="240" y="365" width="30" height="30" fill="hsl(240 100% 59.642459259403594%)" />
  <rect x="275" y="365" width="30" height="30" fill="hsl(240 100% 92.33194962829879%)" />
  <rect x="310" y="365" width="30" height="30" fill="hsl(240 100% 99.86287726021114%)" />
  <rect x="415" y="365" width="30" height="30" fill="hsl(240 100% 66.42990861688426%)" />
  <rect x="520" y="365" width="30" height="30" fill="hsl(240 100% 85.99303407771986%)" />
  <rect x="625" y="365" width="30" height="30" fill="hsl(240 100% 99.63935110556385%)" />
  <rect x="730" y="365" width="30" height="30" fill="hsl(240 100% 63.362333146602786%)" />
  <rect x="765" y="365" width="30" height="30" fill="hsl(240 100% 98.18266028409433%)" />
  <rect x="835" y="365" width="30" height="30" fill="hsl(240 100% 98.7476304613232%)" />
  <rect x="65" y="400" width="30" height="30" fill="hsl(240 100% 98.52584728671282%)" />
  <rect x="100" y="400" width="30" height="30" fill="hsl(240 100% 99.4135273734499%)" />
  <rect x="135" y="400" width="30" height="30" fill="hsl(240 100% 99.67579744508645%)" />
  <rect x="170" y="400" width="30" height="30" fill="hsl(240 100% 95.37426289079586%)" />
  <rect x="205" y="400" width="30" height="30" fill="hsl(240 100% 99.23722396950755%)" />
  <rect x="240" y="400" width="30" height="30" fill="hsl(240 100% 86.15129578433799%)" />
  <rect x="275" y="400" width="30" height="30" fill="hsl(240 100% 95.30295201991532%)" />
  <rect x="310" y="400" width="30" height="30" fill="rgb(255 255 255 / 50%)" />
  <rect x="380" y="400" width="30" height="30" fill="rgb(255 255 255 / 50%)" />
  <rect x="415" y="400" width="30" height="30" fill="hsl(240 100% 94.04809532661004%)" />
  <rect x="450" y="400" width="30" height="30" fill="hsl(240 100% 99.97246444187535%)" />
  <rect x="485" y="400" width="30" height="30" fill="hsl(240 100% 78.63135681007887%)" />
  <rect x="520" y="400" width="30" height="30" fill="hsl(240 100% 50%)" />
  <rect x="555" y="400" width="30" height="30" fill="hsl(240 100% 99.11622504509819%)" />
  <rect x="660" y="400" width="30" height="30" fill="rgb(255 255 255 / 50%)" />
  <rect x="835" y="400" width="30" height="30" fill="hsl(240 100% 99.01928880568754%)" />
  <rect x="65" y="435" width="30" height="30" fill="hsl(240 100% 92.86663175342393%)" />
  <rect x="240" y="435" width="30" height="30" fill="hsl(240 100% 50%)" />
  <rect x="310" y="435" width="30" height="30" fill="hsl(240 100% 94.32907630067143%)" />
  <rect x="415" y="435" width="30" height="30" fill="hsl(240 100% 87.01048035886475%)" />
  <rect x="450" y="435" width="30" height="30" fill="hsl(240 100% 99.78727415283343%)" />
  <rect x="65" y="470" width="30" height="30" fill="hsl(240 100% 50%)" />
  <rect x="240" y="470" width="30" height="30" fill="hsl(240 100% 50.560135811934835%)" />
  <rect x="310" y="470" width="30" height="30" fill="hsl(240 100% 97.17091648631943%)" />
  <rect x="415" y="470" width="30" height="30" fill="hsl(240 100% 89.21359443096321%)" />
  <rect x="450" y="470" width="30" height="30" fill="hsl(240 100% 99.57005330249592%)" />
</svg>
