<svg xmlns="http://www.w3.org/2000/svg" viewBox="0 0 870 505">
  <rect x="0" y="0" width="870" height="505" rx="5" ry="5" fill="#222" />
  <text x="60" y="100" fill="white" font-family="sans-serif" font-weight="bold" font-size="12" text-anchor="end" dominant-baseline="middle">ba</text>
  <text x="60" y="135" fill="white" font-family="sans-serif" font-weight="bold" font-size="12" text-anchor="end" dominant-baseline="middle">det</text>
  <text x="60" y="170" fill="white" font-family="sans-serif" font-weight="bold" font-size="12" text-anchor="end" dominant-baseline="middle">gmm</text>
  <text x="60" y="205" fill="white" font-family="sans-serif" font-weight="bold" font-size="12" text-anchor="end" dominant-baseline="middle">hello</text>
  <text x="60" y="240" fill="white" font-family="sans-serif" font-weight="bold" font-size="12" text-anchor="end" dominant-baseline="middle">ht</text>
  <text x="60" y="275" fill="white" font-family="sans-serif" font-weight="bold" font-size="12" text-anchor="end" dominant-baseline="middle">kmeans</text>
  <text x="60" y="310" fill="white" font-family="sans-serif" font-weight="bold" font-size="12" text-anchor="end" dominant-baseline="middle">llsq</text>
  <text x="60" y="345" fill="white" font-family="sans-serif" font-weight="bold" font-size="12" text-anchor="end" dominant-baseline="middle">lse</text>
  <text x="60" y="380" fill="white" font-family="sans-serif" font-weight="bold" font-size="12" text-anchor="end" dominant-baseline="middle">lstm</text>
  <text x="60" y="415" fill="white" font-family="sans-serif" font-weight="bold" font-size="12" text-anchor="end" dominant-baseline="middle">ode</text>
  <text x="60" y="450" fill="white" font-family="sans-serif" font-weight="bold" font-size="12" text-anchor="end" dominant-baseline="middle">particle</text>
  <text x="60" y="485" fill="white" font-family="sans-serif" font-weight="bold" font-size="12" text-anchor="end" dominant-baseline="middle">saddle</text>
  <text x="80" y="80" fill="white" font-family="sans-serif" font-weight="bold" font-size="12" text-anchor="end" dominant-baseline="middle" transform="rotate(90 80 80)">ad-hpp</text>
  <text x="115" y="80" fill="white" font-family="sans-serif" font-weight="bold" font-size="12" text-anchor="end" dominant-baseline="middle" transform="rotate(90 115 80)">adept</text>
  <text x="150" y="80" fill="white" font-family="sans-serif" font-weight="bold" font-size="12" text-anchor="end" dominant-baseline="middle" transform="rotate(90 150 80)">adol-c</text>
  <text x="185" y="80" fill="white" font-family="sans-serif" font-weight="bold" font-size="12" text-anchor="end" dominant-baseline="middle" transform="rotate(90 185 80)">codipack</text>
  <text x="220" y="80" fill="white" font-family="sans-serif" font-weight="bold" font-size="12" text-anchor="end" dominant-baseline="middle" transform="rotate(90 220 80)">cppad</text>
  <text x="255" y="80" fill="white" font-family="sans-serif" font-weight="bold" font-size="12" text-anchor="end" dominant-baseline="middle" transform="rotate(90 255 80)">enzyme</text>
  <text x="290" y="80" fill="white" font-family="sans-serif" font-weight="bold" font-size="12" text-anchor="end" dominant-baseline="middle" transform="rotate(90 290 80)">enzyme-jl</text>
  <text x="325" y="80" fill="white" font-family="sans-serif" font-weight="bold" font-size="12" text-anchor="end" dominant-baseline="middle" transform="rotate(90 325 80)">finite</text>
  <text x="360" y="80" fill="white" font-family="sans-serif" font-weight="bold" font-size="12" text-anchor="end" dominant-baseline="middle" transform="rotate(90 360 80)">floretta</text>
  <text x="395" y="80" fill="white" font-family="sans-serif" font-weight="bold" font-size="12" text-anchor="end" dominant-baseline="middle" transform="rotate(90 395 80)">forwarddiff-jl</text>
  <text x="430" y="80" fill="white" font-family="sans-serif" font-weight="bold" font-size="12" text-anchor="end" dominant-baseline="middle" transform="rotate(90 430 80)">futhark</text>
  <text x="465" y="80" fill="white" font-family="sans-serif" font-weight="bold" font-size="12" text-anchor="end" dominant-baseline="middle" transform="rotate(90 465 80)">haskell</text>
  <text x="500" y="80" fill="white" font-family="sans-serif" font-weight="bold" font-size="12" text-anchor="end" dominant-baseline="middle" transform="rotate(90 500 80)">jax</text>
  <text x="535" y="80" fill="white" font-family="sans-serif" font-weight="bold" font-size="12" text-anchor="end" dominant-baseline="middle" transform="rotate(90 535 80)">manual</text>
  <text x="570" y="80" fill="white" font-family="sans-serif" font-weight="bold" font-size="12" text-anchor="end" dominant-baseline="middle" transform="rotate(90 570 80)">mooncake-jl</text>
  <text x="605" y="80" fill="white" font-family="sans-serif" font-weight="bold" font-size="12" text-anchor="end" dominant-baseline="middle" transform="rotate(90 605 80)">ocaml</text>
  <text x="640" y="80" fill="white" font-family="sans-serif" font-weight="bold" font-size="12" text-anchor="end" dominant-baseline="middle" transform="rotate(90 640 80)">pytorch</text>
  <text x="675" y="80" fill="white" font-family="sans-serif" font-weight="bold" font-size="12" text-anchor="end" dominant-baseline="middle" transform="rotate(90 675 80)">reversediff-jl</text>
  <text x="710" y="80" fill="white" font-family="sans-serif" font-weight="bold" font-size="12" text-anchor="end" dominant-baseline="middle" transform="rotate(90 710 80)">scilean</text>
  <text x="745" y="80" fill="white" font-family="sans-serif" font-weight="bold" font-size="12" text-anchor="end" dominant-baseline="middle" transform="rotate(90 745 80)">tapenade</text>
  <text x="780" y="80" fill="white" font-family="sans-serif" font-weight="bold" font-size="12" text-anchor="end" dominant-baseline="middle" transform="rotate(90 780 80)">tensorflow</text>
  <text x="815" y="80" fill="white" font-family="sans-serif" font-weight="bold" font-size="12" text-anchor="end" dominant-baseline="middle" transform="rotate(90 815 80)">tensorflow-js</text>
  <text x="850" y="80" fill="white" font-family="sans-serif" font-weight="bold" font-size="12" text-anchor="end" dominant-baseline="middle" transform="rotate(90 850 80)">zygote</text>
  <rect x="65" y="85" width="30" height="30" fill="hsl(240 100% 80.74077904558051%)" />
  <rect x="100" y="85" width="30" height="30" fill="hsl(240 100% 82.33643953061531%)" />
  <rect x="135" y="85" width="30" height="30" fill="hsl(240 100% 97.92891940843413%)" />
  <rect x="170" y="85" width="30" height="30" fill="hsl(240 100% 81.58521694812262%)" />
  <rect x="205" y="85" width="30" height="30" fill="hsl(240 100% 98.95013115145638%)" />
  <rect x="240" y="85" width="30" height="30" fill="hsl(240 100% 50%)" />
  <rect x="310" y="85" width="30" height="30" fill="hsl(240 100% 92.91604291527017%)" />
  <rect x="415" y="85" width="30" height="30" fill="hsl(240 100% 67.03726050053459%)" />
  <rect x="520" y="85" width="30" height="30" fill="hsl(240 100% 54.51899823425282%)" />
  <rect x="625" y="85" width="30" height="30" fill="rgb(255 255 255 / 50%)" />
  <rect x="730" y="85" width="30" height="30" fill="hsl(240 100% 74.0021415899281%)" />
  <rect x="765" y="85" width="30" height="30" fill="rgb(255 255 255 / 50%)" />
  <rect x="835" y="85" width="30" height="30" fill="hsl(240 100% 99.72426215558974%)" />
  <rect x="65" y="120" width="30" height="30" fill="hsl(240 100% 50%)" />
  <rect x="100" y="120" width="30" height="30" fill="hsl(240 100% 83.03342762963142%)" />
  <rect x="135" y="120" width="30" height="30" fill="hsl(240 100% 85.38197585877536%)" />
  <rect x="170" y="120" width="30" height="30" fill="hsl(240 100% 51.840606200245695%)" />
  <rect x="205" y="120" width="30" height="30" fill="hsl(240 100% 92.49341500663049%)" />
  <rect x="240" y="120" width="30" height="30" fill="hsl(240 100% 91.51405194915077%)" />
  <rect x="275" y="120" width="30" height="30" fill="hsl(240 100% 99.34794128791886%)" />
  <rect x="310" y="120" width="30" height="30" fill="hsl(240 100% 98.98361077367932%)" />
  <rect x="380" y="120" width="30" height="30" fill="hsl(240 100% 93.34639106293828%)" />
  <rect x="415" y="120" width="30" height="30" fill="hsl(240 100% 94.55045803344362%)" />
  <rect x="450" y="120" width="30" height="30" fill="hsl(240 100% 97.82607981583348%)" />
  <rect x="520" y="120" width="30" height="30" fill="hsl(240 100% 79.35410584889122%)" />
  <rect x="555" y="120" width="30" height="30" fill="hsl(240 100% 90.7248181066889%)" />
  <rect x="660" y="120" width="30" height="30" fill="rgb(255 255 255 / 50%)" />
  <rect x="835" y="120" width="30" height="30" fill="rgb(255 255 255 / 50%)" />
  <rect x="65" y="155" width="30" height="30" fill="hsl(240 100% 98.55086667891916%)" />
  <rect x="100" y="155" width="30" height="30" fill="hsl(240 100% 98.84752364718587%)" />
  <rect x="135" y="155" width="30" height="30" fill="hsl(240 100% 99.0774573723449%)" />
  <rect x="170" y="155" width="30" height="30" fill="hsl(240 100% 97.95170783111043%)" />
  <rect x="205" y="155" width="30" height="30" fill="hsl(240 100% 99.84640698659577%)" />
  <rect x="240" y="155" width="30" height="30" fill="hsl(240 100% 90.9721960938254%)" />
  <rect x="275" y="155" width="30" height="30" fill="hsl(240 100% 93.14661473725032%)" />
  <rect x="310" y="155" width="30" height="30" fill="rgb(255 255 255 / 50%)" />
  <rect x="415" y="155" width="30" height="30" fill="hsl(240 100% 92.7919647841537%)" />
  <rect x="485" y="155" width="30" height="30" fill="hsl(240 100% 50%)" />
  <rect x="520" y="155" width="30" height="30" fill="hsl(240 100% 81.37306565016615%)" />
  <rect x="590" y="155" width="30" height="30" fill="hsl(240 100% 99.60178468922228%)" />
  <rect x="625" y="155" width="30" height="30" fill="hsl(240 100% 66.77263365711175%)" />
  <rect x="695" y="155" width="30" height="30" fill="hsl(240 100% 95.35920332388511%)" />
  <rect x="730" y="155" width="30" height="30" fill="hsl(240 100% 83.51233606810158%)" />
  <rect x="765" y="155" width="30" height="30" fill="hsl(240 100% 99.57499212891568%)" />
  <rect x="835" y="155" width="30" height="30" fill="hsl(240 100% 96.49894128849995%)" />
  <rect x="65" y="190" width="30" height="30" fill="hsl(240 100% 50%)" />
  <rect x="100" y="190" width="30" height="30" fill="hsl(240 100% 50%)" />
  <rect x="135" y="190" width="30" height="30" fill="hsl(240 100% 50%)" />
  <rect x="170" y="190" width="30" height="30" fill="hsl(240 100% 50%)" />
  <rect x="205" y="190" width="30" height="30" fill="hsl(240 100% 50%)" />
  <rect x="240" y="190" width="30" height="30" fill="hsl(240 100% 50%)" />
  <rect x="275" y="190" width="30" height="30" fill="hsl(240 100% 50%)" />
  <rect x="310" y="190" width="30" height="30" fill="hsl(240 100% 50%)" />
  <rect x="345" y="190" width="30" height="30" fill="hsl(240 100% 50%)" />
  <rect x="380" y="190" width="30" height="30" fill="hsl(240 100% 50%)" />
  <rect x="415" y="190" width="30" height="30" fill="hsl(240 100% 50%)" />
  <rect x="450" y="190" width="30" height="30" fill="hsl(240 100% 50%)" />
  <rect x="485" y="190" width="30" height="30" fill="hsl(240 100% 50%)" />
  <rect x="520" y="190" width="30" height="30" fill="hsl(240 100% 50%)" />
  <rect x="555" y="190" width="30" height="30" fill="hsl(240 100% 50%)" />
  <rect x="590" y="190" width="30" height="30" fill="hsl(240 100% 50%)" />
  <rect x="625" y="190" width="30" height="30" fill="hsl(240 100% 50%)" />
  <rect x="660" y="190" width="30" height="30" fill="hsl(240 100% 50%)" />
  <rect x="695" y="190" width="30" height="30" fill="hsl(240 100% 50%)" />
  <rect x="730" y="190" width="30" height="30" fill="hsl(240 100% 50%)" />
  <rect x="765" y="190" width="30" height="30" fill="hsl(240 100% 50%)" />
  <rect x="800" y="190" width="30" height="30" fill="hsl(240 100% 50%)" />
  <rect x="835" y="190" width="30" height="30" fill="hsl(240 100% 50%)" />
  <rect x="100" y="225" width="30" height="30" fill="hsl(240 100% 96.23802856174497%)" />
  <rect x="135" y="225" width="30" height="30" fill="hsl(240 100% 86.24529284295349%)" />
  <rect x="170" y="225" width="30" height="30" fill="hsl(240 100% 87.83454854461101%)" />
  <rect x="240" y="225" width="30" height="30" fill="hsl(240 100% 90.11390754336348%)" />
  <rect x="310" y="225" width="30" height="30" fill="rgb(255 255 255 / 50%)" />
  <rect x="415" y="225" width="30" height="30" fill="hsl(240 100% 89.25148259254371%)" />
  <rect x="520" y="225" width="30" height="30" fill="hsl(240 100% 50%)" />
  <rect x="625" y="225" width="30" height="30" fill="rgb(255 255 255 / 50%)" />
  <rect x="730" y="225" width="30" height="30" fill="hsl(240 100% 92.1783379275191%)" />
  <rect x="765" y="225" width="30" height="30" fill="rgb(255 255 255 / 50%)" />
  <rect x="835" y="225" width="30" height="30" fill="hsl(240 100% 93.71154255907615%)" />
  <rect x="65" y="260" width="30" height="30" fill="hsl(240 100% 99.87996039668316%)" />
  <rect x="135" y="260" width="30" height="30" fill="hsl(240 100% 99.85748939231337%)" />
  <rect x="170" y="260" width="30" height="30" fill="hsl(240 100% 98.90745253009852%)" />
  <rect x="205" y="260" width="30" height="30" fill="rgb(255 255 255 / 50%)" />
  <rect x="240" y="260" width="30" height="30" fill="hsl(240 100% 86.95556159771053%)" />
  <rect x="310" y="260" width="30" height="30" fill="rgb(255 255 255 / 50%)" />
  <rect x="415" y="260" width="30" height="30" fill="hsl(240 100% 80.9216259813154%)" />
  <rect x="450" y="260" width="30" height="30" fill="rgb(255 255 255 / 50%)" />
  <rect x="485" y="260" width="30" height="30" fill="hsl(240 100% 50%)" />
  <rect x="520" y="260" width="30" height="30" fill="hsl(240 100% 72.27892911458127%)" />
  <rect x="625" y="260" width="30" height="30" fill="hsl(240 100% 96.89863841435842%)" />
  <rect x="695" y="260" width="30" height="30" fill="hsl(240 100% 94.10092261698655%)" />
  <rect x="65" y="295" width="30" height="30" fill="hsl(240 100% 86.16607548966566%)" />
  <rect x="100" y="295" width="30" height="30" fill="hsl(240 100% 97.52220885292931%)" />
  <rect x="135" y="295" width="30" height="30" fill="hsl(240 100% 95.1959071508096%)" />
  <rect x="170" y="295" width="30" height="30" fill="hsl(240 100% 89.41319830564586%)" />
  <rect x="205" y="295" width="30" height="30" fill="hsl(240 100% 99.48781550826777%)" />
  <rect x="240" y="295" width="30" height="30" fill="hsl(240 100% 50.780914238942586%)" />
  <rect x="275" y="295" width="30" height="30" fill="hsl(240 100% 50%)" />
  <rect x="310" y="295" width="30" height="30" fill="hsl(240 100% 99.50111284283233%)" />
  <rect x="345" y="295" width="30" height="30" fill="hsl(240 100% 94.76992616438628%)" />
  <rect x="415" y="295" width="30" height="30" fill="hsl(240 100% 55.41377785718314%)" />
  <rect x="450" y="295" width="30" height="30" fill="hsl(240 100% 99.33665855335194%)" />
  <rect x="485" y="295" width="30" height="30" fill="hsl(240 100% 88.62593564868396%)" />
  <rect x="520" y="295" width="30" height="30" fill="hsl(240 100% 58.00207302880419%)" />
  <rect x="695" y="295" width="30" height="30" fill="hsl(240 100% 97.62089337017534%)" />
  <rect x="800" y="295" width="30" height="30" fill="hsl(240 100% 99.58820562924235%)" />
  <rect x="835" y="295" width="30" height="30" fill="hsl(240 100% 99.95609718862228%)" />
  <rect x="65" y="330" width="30" height="30" fill="hsl(240 100% 87.56461427125528%)" />
  <rect x="100" y="330" width="30" height="30" fill="hsl(240 100% 94.36755871903321%)" />
  <rect x="135" y="330" width="30" height="30" fill="hsl(240 100% 97.0110491250829%)" />
  <rect x="170" y="330" width="30" height="30" fill="hsl(240 100% 86.98436215749108%)" />
  <rect x="205" y="330" width="30" height="30" fill="hsl(240 100% 99.21915010512724%)" />
  <rect x="240" y="330" width="30" height="30" fill="hsl(240 100% 79.3801293425171%)" />
  <rect x="275" y="330" width="30" height="30" fill="hsl(240 100% 87.3392727795554%)" />
  <rect x="310" y="330" width="30" height="30" fill="rgb(255 255 255 / 50%)" />
  <rect x="345" y="330" width="30" height="30" fill="hsl(240 100% 97.27340278811877%)" />
  <rect x="415" y="330" width="30" height="30" fill="hsl(240 100% 85.78361158558162%)" />
  <rect x="450" y="330" width="30" height="30" fill="hsl(240 100% 99.80709955300219%)" />
  <rect x="485" y="330" width="30" height="30" fill="hsl(240 100% 71.47842190165125%)" />
  <rect x="520" y="330" width="30" height="30" fill="hsl(240 100% 70.74228807026054%)" />
  <rect x="590" y="330" width="30" height="30" fill="hsl(240 100% 94.0099679155226%)" />
  <rect x="625" y="330" width="30" height="30" fill="hsl(240 100% 50%)" />
  <rect x="765" y="330" width="30" height="30" fill="hsl(240 100% 94.50036371030885%)" />
  <rect x="800" y="330" width="30" height="30" fill="hsl(240 100% 99.22410835019046%)" />
  <rect x="835" y="330" width="30" height="30" fill="hsl(240 100% 80.32046508275879%)" />
  <rect x="65" y="365" width="30" height="30" fill="hsl(240 100% 57.03776223860016%)" />
  <rect x="100" y="365" width="30" height="30" fill="hsl(240 100% 71.10938887458573%)" />
  <rect x="135" y="365" width="30" height="30" fill="hsl(240 100% 82.1077222444444%)" />
  <rect x="170" y="365" width="30" height="30" fill="hsl(240 100% 50%)" />
  <rect x="205" y="365" width="30" height="30" fill="hsl(240 100% 96.02682369619558%)" />
  <rect x="240" y="365" width="30" height="30" fill="hsl(240 100% 60.35122465976083%)" />
  <rect x="275" y="365" width="30" height="30" fill="hsl(240 100% 92.25268024138214%)" />
  <rect x="310" y="365" width="30" height="30" fill="hsl(240 100% 99.859826084059%)" />
  <rect x="415" y="365" width="30" height="30" fill="hsl(240 100% 66.3694253198504%)" />
  <rect x="520" y="365" width="30" height="30" fill="hsl(240 100% 85.91106894323117%)" />
  <rect x="625" y="365" width="30" height="30" fill="hsl(240 100% 99.62830505689104%)" />
  <rect x="730" y="365" width="30" height="30" fill="hsl(240 100% 62.85890819349705%)" />
  <rect x="765" y="365" width="30" height="30" fill="hsl(240 100% 98.17616968755212%)" />
  <rect x="835" y="365" width="30" height="30" fill="hsl(240 100% 98.7959598728264%)" />
  <rect x="65" y="400" width="30" height="30" fill="hsl(240 100% 98.51342517489007%)" />
  <rect x="100" y="400" width="30" height="30" fill="hsl(240 100% 99.42813337694508%)" />
  <rect x="135" y="400" width="30" height="30" fill="hsl(240 100% 99.64845211884204%)" />
  <rect x="170" y="400" width="30" height="30" fill="hsl(240 100% 94.0755190169101%)" />
  <rect x="205" y="400" width="30" height="30" fill="hsl(240 100% 99.24014676926983%)" />
  <rect x="240" y="400" width="30" height="30" fill="hsl(240 100% 86.30754876304898%)" />
  <rect x="275" y="400" width="30" height="30" fill="hsl(240 100% 95.32756321866304%)" />
  <rect x="310" y="400" width="30" height="30" fill="rgb(255 255 255 / 50%)" />
  <rect x="380" y="400" width="30" height="30" fill="rgb(255 255 255 / 50%)" />
  <rect x="415" y="400" width="30" height="30" fill="hsl(240 100% 94.03197153870542%)" />
  <rect x="450" y="400" width="30" height="30" fill="hsl(240 100% 99.97453461835667%)" />
  <rect x="485" y="400" width="30" height="30" fill="hsl(240 100% 78.49188679708581%)" />
  <rect x="520" y="400" width="30" height="30" fill="hsl(240 100% 50%)" />
  <rect x="555" y="400" width="30" height="30" fill="hsl(240 100% 99.11664455866465%)" />
  <rect x="660" y="400" width="30" height="30" fill="rgb(255 255 255 / 50%)" />
  <rect x="835" y="400" width="30" height="30" fill="hsl(240 100% 99.01684432111891%)" />
  <rect x="65" y="435" width="30" height="30" fill="hsl(240 100% 93.30110836469515%)" />
  <rect x="240" y="435" width="30" height="30" fill="hsl(240 100% 50%)" />
  <rect x="310" y="435" width="30" height="30" fill="hsl(240 100% 93.85673847803204%)" />
  <rect x="415" y="435" width="30" height="30" fill="hsl(240 100% 86.99556601976897%)" />
  <rect x="450" y="435" width="30" height="30" fill="hsl(240 100% 99.77721371554384%)" />
  <rect x="65" y="470" width="30" height="30" fill="hsl(240 100% 50%)" />
  <rect x="240" y="470" width="30" height="30" fill="hsl(240 100% 50.058982973199974%)" />
  <rect x="310" y="470" width="30" height="30" fill="hsl(240 100% 96.99653528945619%)" />
  <rect x="415" y="470" width="30" height="30" fill="hsl(240 100% 89.08123527678599%)" />
  <rect x="450" y="470" width="30" height="30" fill="hsl(240 100% 99.56147490317596%)" />
</svg>
