<svg xmlns="http://www.w3.org/2000/svg" viewBox="0 0 870 505">
  <rect x="0" y="0" width="870" height="505" rx="5" ry="5" fill="#222" />
  <text x="60" y="100" fill="white" font-family="sans-serif" font-weight="bold" font-size="12" text-anchor="end" dominant-baseline="middle">ba</text>
  <text x="60" y="135" fill="white" font-family="sans-serif" font-weight="bold" font-size="12" text-anchor="end" dominant-baseline="middle">det</text>
  <text x="60" y="170" fill="white" font-family="sans-serif" font-weight="bold" font-size="12" text-anchor="end" dominant-baseline="middle">gmm</text>
  <text x="60" y="205" fill="white" font-family="sans-serif" font-weight="bold" font-size="12" text-anchor="end" dominant-baseline="middle">hello</text>
  <text x="60" y="240" fill="white" font-family="sans-serif" font-weight="bold" font-size="12" text-anchor="end" dominant-baseline="middle">ht</text>
  <text x="60" y="275" fill="white" font-family="sans-serif" font-weight="bold" font-size="12" text-anchor="end" dominant-baseline="middle">kmeans</text>
  <text x="60" y="310" fill="white" font-family="sans-serif" font-weight="bold" font-size="12" text-anchor="end" dominant-baseline="middle">llsq</text>
  <text x="60" y="345" fill="white" font-family="sans-serif" font-weight="bold" font-size="12" text-anchor="end" dominant-baseline="middle">lse</text>
  <text x="60" y="380" fill="white" font-family="sans-serif" font-weight="bold" font-size="12" text-anchor="end" dominant-baseline="middle">lstm</text>
  <text x="60" y="415" fill="white" font-family="sans-serif" font-weight="bold" font-size="12" text-anchor="end" dominant-baseline="middle">ode</text>
  <text x="60" y="450" fill="white" font-family="sans-serif" font-weight="bold" font-size="12" text-anchor="end" dominant-baseline="middle">particle</text>
  <text x="60" y="485" fill="white" font-family="sans-serif" font-weight="bold" font-size="12" text-anchor="end" dominant-baseline="middle">saddle</text>
  <text x="80" y="80" fill="white" font-family="sans-serif" font-weight="bold" font-size="12" text-anchor="end" dominant-baseline="middle" transform="rotate(90 80 80)">ad-hpp</text>
  <text x="115" y="80" fill="white" font-family="sans-serif" font-weight="bold" font-size="12" text-anchor="end" dominant-baseline="middle" transform="rotate(90 115 80)">adept</text>
  <text x="150" y="80" fill="white" font-family="sans-serif" font-weight="bold" font-size="12" text-anchor="end" dominant-baseline="middle" transform="rotate(90 150 80)">adol-c</text>
  <text x="185" y="80" fill="white" font-family="sans-serif" font-weight="bold" font-size="12" text-anchor="end" dominant-baseline="middle" transform="rotate(90 185 80)">codipack</text>
  <text x="220" y="80" fill="white" font-family="sans-serif" font-weight="bold" font-size="12" text-anchor="end" dominant-baseline="middle" transform="rotate(90 220 80)">cppad</text>
  <text x="255" y="80" fill="white" font-family="sans-serif" font-weight="bold" font-size="12" text-anchor="end" dominant-baseline="middle" transform="rotate(90 255 80)">enzyme</text>
  <text x="290" y="80" fill="white" font-family="sans-serif" font-weight="bold" font-size="12" text-anchor="end" dominant-baseline="middle" transform="rotate(90 290 80)">enzyme-jl</text>
  <text x="325" y="80" fill="white" font-family="sans-serif" font-weight="bold" font-size="12" text-anchor="end" dominant-baseline="middle" transform="rotate(90 325 80)">finite</text>
  <text x="360" y="80" fill="white" font-family="sans-serif" font-weight="bold" font-size="12" text-anchor="end" dominant-baseline="middle" transform="rotate(90 360 80)">floretta</text>
  <text x="395" y="80" fill="white" font-family="sans-serif" font-weight="bold" font-size="12" text-anchor="end" dominant-baseline="middle" transform="rotate(90 395 80)">forwarddiff-jl</text>
  <text x="430" y="80" fill="white" font-family="sans-serif" font-weight="bold" font-size="12" text-anchor="end" dominant-baseline="middle" transform="rotate(90 430 80)">futhark</text>
  <text x="465" y="80" fill="white" font-family="sans-serif" font-weight="bold" font-size="12" text-anchor="end" dominant-baseline="middle" transform="rotate(90 465 80)">haskell</text>
  <text x="500" y="80" fill="white" font-family="sans-serif" font-weight="bold" font-size="12" text-anchor="end" dominant-baseline="middle" transform="rotate(90 500 80)">jax</text>
  <text x="535" y="80" fill="white" font-family="sans-serif" font-weight="bold" font-size="12" text-anchor="end" dominant-baseline="middle" transform="rotate(90 535 80)">manual</text>
  <text x="570" y="80" fill="white" font-family="sans-serif" font-weight="bold" font-size="12" text-anchor="end" dominant-baseline="middle" transform="rotate(90 570 80)">mooncake-jl</text>
  <text x="605" y="80" fill="white" font-family="sans-serif" font-weight="bold" font-size="12" text-anchor="end" dominant-baseline="middle" transform="rotate(90 605 80)">ocaml</text>
  <text x="640" y="80" fill="white" font-family="sans-serif" font-weight="bold" font-size="12" text-anchor="end" dominant-baseline="middle" transform="rotate(90 640 80)">pytorch</text>
  <text x="675" y="80" fill="white" font-family="sans-serif" font-weight="bold" font-size="12" text-anchor="end" dominant-baseline="middle" transform="rotate(90 675 80)">reversediff-jl</text>
  <text x="710" y="80" fill="white" font-family="sans-serif" font-weight="bold" font-size="12" text-anchor="end" dominant-baseline="middle" transform="rotate(90 710 80)">scilean</text>
  <text x="745" y="80" fill="white" font-family="sans-serif" font-weight="bold" font-size="12" text-anchor="end" dominant-baseline="middle" transform="rotate(90 745 80)">tapenade</text>
  <text x="780" y="80" fill="white" font-family="sans-serif" font-weight="bold" font-size="12" text-anchor="end" dominant-baseline="middle" transform="rotate(90 780 80)">tensorflow</text>
  <text x="815" y="80" fill="white" font-family="sans-serif" font-weight="bold" font-size="12" text-anchor="end" dominant-baseline="middle" transform="rotate(90 815 80)">tensorflow-js</text>
  <text x="850" y="80" fill="white" font-family="sans-serif" font-weight="bold" font-size="12" text-anchor="end" dominant-baseline="middle" transform="rotate(90 850 80)">zygote</text>
  <rect x="65" y="85" width="30" height="30" fill="hsl(240 100% 80.75596033662353%)" />
  <rect x="100" y="85" width="30" height="30" fill="hsl(240 100% 82.71489174852923%)" />
  <rect x="135" y="85" width="30" height="30" fill="hsl(240 100% 97.968169135612%)" />
  <rect x="170" y="85" width="30" height="30" fill="hsl(240 100% 82.21883817861381%)" />
  <rect x="205" y="85" width="30" height="30" fill="hsl(240 100% 98.99102184576734%)" />
  <rect x="240" y="85" width="30" height="30" fill="hsl(240 100% 51.24816702867894%)" />
  <rect x="310" y="85" width="30" height="30" fill="hsl(240 100% 93.22768246666472%)" />
  <rect x="415" y="85" width="30" height="30" fill="hsl(240 100% 67.94932450043744%)" />
  <rect x="520" y="85" width="30" height="30" fill="hsl(240 100% 50%)" />
  <rect x="625" y="85" width="30" height="30" fill="rgb(255 255 255 / 50%)" />
  <rect x="730" y="85" width="30" height="30" fill="hsl(240 100% 74.77974956179312%)" />
  <rect x="765" y="85" width="30" height="30" fill="rgb(255 255 255 / 50%)" />
  <rect x="835" y="85" width="30" height="30" fill="hsl(240 100% 99.73805306849432%)" />
  <rect x="65" y="120" width="30" height="30" fill="hsl(240 100% 50%)" />
  <rect x="100" y="120" width="30" height="30" fill="hsl(240 100% 82.77988669871199%)" />
  <rect x="135" y="120" width="30" height="30" fill="hsl(240 100% 85.58918349587144%)" />
  <rect x="170" y="120" width="30" height="30" fill="hsl(240 100% 51.62259857691278%)" />
  <rect x="205" y="120" width="30" height="30" fill="hsl(240 100% 92.4944584380153%)" />
  <rect x="240" y="120" width="30" height="30" fill="hsl(240 100% 91.50674583851183%)" />
  <rect x="275" y="120" width="30" height="30" fill="hsl(240 100% 99.35438897254075%)" />
  <rect x="310" y="120" width="30" height="30" fill="hsl(240 100% 98.97636753231065%)" />
  <rect x="380" y="120" width="30" height="30" fill="hsl(240 100% 93.31264283944128%)" />
  <rect x="415" y="120" width="30" height="30" fill="hsl(240 100% 94.53247856264602%)" />
  <rect x="450" y="120" width="30" height="30" fill="hsl(240 100% 97.83943103874525%)" />
  <rect x="520" y="120" width="30" height="30" fill="hsl(240 100% 79.53725411766646%)" />
  <rect x="555" y="120" width="30" height="30" fill="hsl(240 100% 93.10793829818992%)" />
  <rect x="660" y="120" width="30" height="30" fill="rgb(255 255 255 / 50%)" />
  <rect x="835" y="120" width="30" height="30" fill="rgb(255 255 255 / 50%)" />
  <rect x="65" y="155" width="30" height="30" fill="hsl(240 100% 98.28888674921679%)" />
  <rect x="100" y="155" width="30" height="30" fill="hsl(240 100% 98.80314720779127%)" />
  <rect x="135" y="155" width="30" height="30" fill="hsl(240 100% 99.09322667329182%)" />
  <rect x="170" y="155" width="30" height="30" fill="hsl(240 100% 98.0704204753325%)" />
  <rect x="205" y="155" width="30" height="30" fill="hsl(240 100% 99.8476208645906%)" />
  <rect x="240" y="155" width="30" height="30" fill="hsl(240 100% 91.27854757295792%)" />
  <rect x="275" y="155" width="30" height="30" fill="hsl(240 100% 91.89532857882702%)" />
  <rect x="310" y="155" width="30" height="30" fill="rgb(255 255 255 / 50%)" />
  <rect x="415" y="155" width="30" height="30" fill="hsl(240 100% 92.92079317201618%)" />
  <rect x="485" y="155" width="30" height="30" fill="hsl(240 100% 50%)" />
  <rect x="520" y="155" width="30" height="30" fill="hsl(240 100% 83.69884702718973%)" />
  <rect x="590" y="155" width="30" height="30" fill="hsl(240 100% 99.57490167669465%)" />
  <rect x="625" y="155" width="30" height="30" fill="hsl(240 100% 65.95846677904149%)" />
  <rect x="695" y="155" width="30" height="30" fill="hsl(240 100% 95.33691264144082%)" />
  <rect x="730" y="155" width="30" height="30" fill="hsl(240 100% 83.71642514007542%)" />
  <rect x="765" y="155" width="30" height="30" fill="hsl(240 100% 99.58210065797455%)" />
  <rect x="835" y="155" width="30" height="30" fill="hsl(240 100% 96.50628486012539%)" />
  <rect x="65" y="190" width="30" height="30" fill="hsl(240 100% 50%)" />
  <rect x="100" y="190" width="30" height="30" fill="hsl(240 100% 50%)" />
  <rect x="135" y="190" width="30" height="30" fill="hsl(240 100% 50%)" />
  <rect x="170" y="190" width="30" height="30" fill="hsl(240 100% 50%)" />
  <rect x="205" y="190" width="30" height="30" fill="hsl(240 100% 50%)" />
  <rect x="240" y="190" width="30" height="30" fill="hsl(240 100% 50%)" />
  <rect x="275" y="190" width="30" height="30" fill="hsl(240 100% 50%)" />
  <rect x="310" y="190" width="30" height="30" fill="hsl(240 100% 50%)" />
  <rect x="345" y="190" width="30" height="30" fill="hsl(240 100% 50%)" />
  <rect x="380" y="190" width="30" height="30" fill="hsl(240 100% 50%)" />
  <rect x="415" y="190" width="30" height="30" fill="hsl(240 100% 50%)" />
  <rect x="450" y="190" width="30" height="30" fill="hsl(240 100% 50%)" />
  <rect x="485" y="190" width="30" height="30" fill="hsl(240 100% 50%)" />
  <rect x="520" y="190" width="30" height="30" fill="hsl(240 100% 50%)" />
  <rect x="555" y="190" width="30" height="30" fill="hsl(240 100% 50%)" />
  <rect x="590" y="190" width="30" height="30" fill="hsl(240 100% 50%)" />
  <rect x="625" y="190" width="30" height="30" fill="hsl(240 100% 50%)" />
  <rect x="660" y="190" width="30" height="30" fill="hsl(240 100% 50%)" />
  <rect x="695" y="190" width="30" height="30" fill="hsl(240 100% 50%)" />
  <rect x="730" y="190" width="30" height="30" fill="hsl(240 100% 50%)" />
  <rect x="765" y="190" width="30" height="30" fill="hsl(240 100% 50%)" />
  <rect x="800" y="190" width="30" height="30" fill="hsl(240 100% 50%)" />
  <rect x="835" y="190" width="30" height="30" fill="hsl(240 100% 50%)" />
  <rect x="100" y="225" width="30" height="30" fill="hsl(240 100% 96.74256859650865%)" />
  <rect x="135" y="225" width="30" height="30" fill="hsl(240 100% 89.67828253984668%)" />
  <rect x="170" y="225" width="30" height="30" fill="hsl(240 100% 89.47799020967291%)" />
  <rect x="240" y="225" width="30" height="30" fill="hsl(240 100% 91.47027277394847%)" />
  <rect x="310" y="225" width="30" height="30" fill="rgb(255 255 255 / 50%)" />
  <rect x="415" y="225" width="30" height="30" fill="hsl(240 100% 90.70250047623318%)" />
  <rect x="520" y="225" width="30" height="30" fill="hsl(240 100% 50%)" />
  <rect x="625" y="225" width="30" height="30" fill="rgb(255 255 255 / 50%)" />
  <rect x="730" y="225" width="30" height="30" fill="hsl(240 100% 93.27113371754585%)" />
  <rect x="765" y="225" width="30" height="30" fill="rgb(255 255 255 / 50%)" />
  <rect x="835" y="225" width="30" height="30" fill="hsl(240 100% 94.60022624232892%)" />
  <rect x="65" y="260" width="30" height="30" fill="hsl(240 100% 99.8436142330533%)" />
  <rect x="135" y="260" width="30" height="30" fill="hsl(240 100% 99.85485591351302%)" />
  <rect x="170" y="260" width="30" height="30" fill="hsl(240 100% 98.8753282870569%)" />
  <rect x="205" y="260" width="30" height="30" fill="rgb(255 255 255 / 50%)" />
  <rect x="240" y="260" width="30" height="30" fill="hsl(240 100% 87.19430626466026%)" />
  <rect x="310" y="260" width="30" height="30" fill="rgb(255 255 255 / 50%)" />
  <rect x="415" y="260" width="30" height="30" fill="hsl(240 100% 81.18582305135601%)" />
  <rect x="450" y="260" width="30" height="30" fill="rgb(255 255 255 / 50%)" />
  <rect x="485" y="260" width="30" height="30" fill="hsl(240 100% 50%)" />
  <rect x="520" y="260" width="30" height="30" fill="hsl(240 100% 71.52495195058894%)" />
  <rect x="625" y="260" width="30" height="30" fill="hsl(240 100% 97.06439725601955%)" />
  <rect x="695" y="260" width="30" height="30" fill="hsl(240 100% 94.15916107367514%)" />
  <rect x="65" y="295" width="30" height="30" fill="hsl(240 100% 85.76890240904314%)" />
  <rect x="100" y="295" width="30" height="30" fill="hsl(240 100% 97.53296023304422%)" />
  <rect x="135" y="295" width="30" height="30" fill="hsl(240 100% 95.10194493958265%)" />
  <rect x="170" y="295" width="30" height="30" fill="hsl(240 100% 90.58730619429934%)" />
  <rect x="205" y="295" width="30" height="30" fill="hsl(240 100% 99.4962844624873%)" />
  <rect x="240" y="295" width="30" height="30" fill="hsl(240 100% 50%)" />
  <rect x="275" y="295" width="30" height="30" fill="hsl(240 100% 50.13887113850426%)" />
  <rect x="310" y="295" width="30" height="30" fill="hsl(240 100% 99.49635886804879%)" />
  <rect x="345" y="295" width="30" height="30" fill="hsl(240 100% 94.65277879991422%)" />
  <rect x="415" y="295" width="30" height="30" fill="hsl(240 100% 54.67123114545257%)" />
  <rect x="450" y="295" width="30" height="30" fill="hsl(240 100% 99.33414939626094%)" />
  <rect x="485" y="295" width="30" height="30" fill="hsl(240 100% 88.40983247691987%)" />
  <rect x="520" y="295" width="30" height="30" fill="hsl(240 100% 57.37917833259943%)" />
  <rect x="695" y="295" width="30" height="30" fill="hsl(240 100% 97.5762829255854%)" />
  <rect x="800" y="295" width="30" height="30" fill="hsl(240 100% 99.56332465810434%)" />
  <rect x="835" y="295" width="30" height="30" fill="hsl(240 100% 99.95360020761154%)" />
  <rect x="65" y="330" width="30" height="30" fill="hsl(240 100% 89.7429001799396%)" />
  <rect x="100" y="330" width="30" height="30" fill="hsl(240 100% 95.46362229074556%)" />
  <rect x="135" y="330" width="30" height="30" fill="hsl(240 100% 97.25640649992715%)" />
  <rect x="170" y="330" width="30" height="30" fill="hsl(240 100% 89.00112341039514%)" />
  <rect x="205" y="330" width="30" height="30" fill="hsl(240 100% 99.24718069777398%)" />
  <rect x="240" y="330" width="30" height="30" fill="hsl(240 100% 80.89697399796884%)" />
  <rect x="275" y="330" width="30" height="30" fill="hsl(240 100% 89.42543697155293%)" />
  <rect x="310" y="330" width="30" height="30" fill="rgb(255 255 255 / 50%)" />
  <rect x="345" y="330" width="30" height="30" fill="hsl(240 100% 97.37435882608341%)" />
  <rect x="415" y="330" width="30" height="30" fill="hsl(240 100% 86.54948168793757%)" />
  <rect x="450" y="330" width="30" height="30" fill="hsl(240 100% 99.82597322310556%)" />
  <rect x="485" y="330" width="30" height="30" fill="hsl(240 100% 71.8413323018188%)" />
  <rect x="520" y="330" width="30" height="30" fill="hsl(240 100% 77.9969482166072%)" />
  <rect x="590" y="330" width="30" height="30" fill="hsl(240 100% 94.09180208779178%)" />
  <rect x="625" y="330" width="30" height="30" fill="hsl(240 100% 50%)" />
  <rect x="765" y="330" width="30" height="30" fill="hsl(240 100% 95.02504713960846%)" />
  <rect x="800" y="330" width="30" height="30" fill="hsl(240 100% 99.26980713788097%)" />
  <rect x="835" y="330" width="30" height="30" fill="hsl(240 100% 81.96804782674087%)" />
  <rect x="65" y="365" width="30" height="30" fill="hsl(240 100% 56.76057741402156%)" />
  <rect x="100" y="365" width="30" height="30" fill="hsl(240 100% 72.14449470437874%)" />
  <rect x="135" y="365" width="30" height="30" fill="hsl(240 100% 82.18798080758081%)" />
  <rect x="170" y="365" width="30" height="30" fill="hsl(240 100% 50%)" />
  <rect x="205" y="365" width="30" height="30" fill="hsl(240 100% 96.28226661711496%)" />
  <rect x="240" y="365" width="30" height="30" fill="hsl(240 100% 59.30687548979769%)" />
  <rect x="275" y="365" width="30" height="30" fill="hsl(240 100% 92.7617332735844%)" />
  <rect x="310" y="365" width="30" height="30" fill="hsl(240 100% 99.86330061477275%)" />
  <rect x="415" y="365" width="30" height="30" fill="hsl(240 100% 66.40829402336405%)" />
  <rect x="520" y="365" width="30" height="30" fill="hsl(240 100% 85.83719857293447%)" />
  <rect x="625" y="365" width="30" height="30" fill="hsl(240 100% 99.64680860610844%)" />
  <rect x="730" y="365" width="30" height="30" fill="hsl(240 100% 63.04752202729152%)" />
  <rect x="765" y="365" width="30" height="30" fill="hsl(240 100% 98.12732832520965%)" />
  <rect x="835" y="365" width="30" height="30" fill="hsl(240 100% 98.8551929991807%)" />
  <rect x="65" y="400" width="30" height="30" fill="hsl(240 100% 98.09081574118439%)" />
  <rect x="100" y="400" width="30" height="30" fill="hsl(240 100% 99.28973855816729%)" />
  <rect x="135" y="400" width="30" height="30" fill="hsl(240 100% 99.58797319698068%)" />
  <rect x="170" y="400" width="30" height="30" fill="hsl(240 100% 94.14418378905614%)" />
  <rect x="205" y="400" width="30" height="30" fill="hsl(240 100% 99.0498037242547%)" />
  <rect x="240" y="400" width="30" height="30" fill="hsl(240 100% 85.42837009463148%)" />
  <rect x="275" y="400" width="30" height="30" fill="hsl(240 100% 94.23436730759161%)" />
  <rect x="310" y="400" width="30" height="30" fill="rgb(255 255 255 / 50%)" />
  <rect x="380" y="400" width="30" height="30" fill="rgb(255 255 255 / 50%)" />
  <rect x="415" y="400" width="30" height="30" fill="hsl(240 100% 92.50678953855969%)" />
  <rect x="450" y="400" width="30" height="30" fill="hsl(240 100% 99.96395306748433%)" />
  <rect x="485" y="400" width="30" height="30" fill="hsl(240 100% 73.43845694378348%)" />
  <rect x="520" y="400" width="30" height="30" fill="hsl(240 100% 50%)" />
  <rect x="555" y="400" width="30" height="30" fill="hsl(240 100% 98.89409860111428%)" />
  <rect x="660" y="400" width="30" height="30" fill="rgb(255 255 255 / 50%)" />
  <rect x="835" y="400" width="30" height="30" fill="hsl(240 100% 98.9588494888377%)" />
  <rect x="65" y="435" width="30" height="30" fill="hsl(240 100% 92.86475403442901%)" />
  <rect x="240" y="435" width="30" height="30" fill="hsl(240 100% 50%)" />
  <rect x="310" y="435" width="30" height="30" fill="hsl(240 100% 94.33408222738619%)" />
  <rect x="415" y="435" width="30" height="30" fill="hsl(240 100% 86.99828574570859%)" />
  <rect x="450" y="435" width="30" height="30" fill="hsl(240 100% 99.78661469794173%)" />
  <rect x="65" y="470" width="30" height="30" fill="hsl(240 100% 50%)" />
  <rect x="240" y="470" width="30" height="30" fill="hsl(240 100% 50.54038833122749%)" />
  <rect x="310" y="470" width="30" height="30" fill="hsl(240 100% 97.1642522163079%)" />
  <rect x="415" y="470" width="30" height="30" fill="hsl(240 100% 89.16726748377793%)" />
  <rect x="450" y="470" width="30" height="30" fill="hsl(240 100% 99.56373030388133%)" />
</svg>
