<svg xmlns="http://www.w3.org/2000/svg" viewBox="0 0 870 505">
  <rect x="0" y="0" width="870" height="505" rx="5" ry="5" fill="#222" />
  <text x="60" y="100" fill="white" font-family="sans-serif" font-weight="bold" font-size="12" text-anchor="end" dominant-baseline="middle">ba</text>
  <text x="60" y="135" fill="white" font-family="sans-serif" font-weight="bold" font-size="12" text-anchor="end" dominant-baseline="middle">det</text>
  <text x="60" y="170" fill="white" font-family="sans-serif" font-weight="bold" font-size="12" text-anchor="end" dominant-baseline="middle">gmm</text>
  <text x="60" y="205" fill="white" font-family="sans-serif" font-weight="bold" font-size="12" text-anchor="end" dominant-baseline="middle">hello</text>
  <text x="60" y="240" fill="white" font-family="sans-serif" font-weight="bold" font-size="12" text-anchor="end" dominant-baseline="middle">ht</text>
  <text x="60" y="275" fill="white" font-family="sans-serif" font-weight="bold" font-size="12" text-anchor="end" dominant-baseline="middle">kmeans</text>
  <text x="60" y="310" fill="white" font-family="sans-serif" font-weight="bold" font-size="12" text-anchor="end" dominant-baseline="middle">llsq</text>
  <text x="60" y="345" fill="white" font-family="sans-serif" font-weight="bold" font-size="12" text-anchor="end" dominant-baseline="middle">lse</text>
  <text x="60" y="380" fill="white" font-family="sans-serif" font-weight="bold" font-size="12" text-anchor="end" dominant-baseline="middle">lstm</text>
  <text x="60" y="415" fill="white" font-family="sans-serif" font-weight="bold" font-size="12" text-anchor="end" dominant-baseline="middle">ode</text>
  <text x="60" y="450" fill="white" font-family="sans-serif" font-weight="bold" font-size="12" text-anchor="end" dominant-baseline="middle">particle</text>
  <text x="60" y="485" fill="white" font-family="sans-serif" font-weight="bold" font-size="12" text-anchor="end" dominant-baseline="middle">saddle</text>
  <text x="80" y="80" fill="white" font-family="sans-serif" font-weight="bold" font-size="12" text-anchor="end" dominant-baseline="middle" transform="rotate(90 80 80)">ad-hpp</text>
  <text x="115" y="80" fill="white" font-family="sans-serif" font-weight="bold" font-size="12" text-anchor="end" dominant-baseline="middle" transform="rotate(90 115 80)">adept</text>
  <text x="150" y="80" fill="white" font-family="sans-serif" font-weight="bold" font-size="12" text-anchor="end" dominant-baseline="middle" transform="rotate(90 150 80)">adol-c</text>
  <text x="185" y="80" fill="white" font-family="sans-serif" font-weight="bold" font-size="12" text-anchor="end" dominant-baseline="middle" transform="rotate(90 185 80)">codipack</text>
  <text x="220" y="80" fill="white" font-family="sans-serif" font-weight="bold" font-size="12" text-anchor="end" dominant-baseline="middle" transform="rotate(90 220 80)">cppad</text>
  <text x="255" y="80" fill="white" font-family="sans-serif" font-weight="bold" font-size="12" text-anchor="end" dominant-baseline="middle" transform="rotate(90 255 80)">enzyme</text>
  <text x="290" y="80" fill="white" font-family="sans-serif" font-weight="bold" font-size="12" text-anchor="end" dominant-baseline="middle" transform="rotate(90 290 80)">enzyme-jl</text>
  <text x="325" y="80" fill="white" font-family="sans-serif" font-weight="bold" font-size="12" text-anchor="end" dominant-baseline="middle" transform="rotate(90 325 80)">finite</text>
  <text x="360" y="80" fill="white" font-family="sans-serif" font-weight="bold" font-size="12" text-anchor="end" dominant-baseline="middle" transform="rotate(90 360 80)">floretta</text>
  <text x="395" y="80" fill="white" font-family="sans-serif" font-weight="bold" font-size="12" text-anchor="end" dominant-baseline="middle" transform="rotate(90 395 80)">forwarddiff-jl</text>
  <text x="430" y="80" fill="white" font-family="sans-serif" font-weight="bold" font-size="12" text-anchor="end" dominant-baseline="middle" transform="rotate(90 430 80)">futhark</text>
  <text x="465" y="80" fill="white" font-family="sans-serif" font-weight="bold" font-size="12" text-anchor="end" dominant-baseline="middle" transform="rotate(90 465 80)">haskell</text>
  <text x="500" y="80" fill="white" font-family="sans-serif" font-weight="bold" font-size="12" text-anchor="end" dominant-baseline="middle" transform="rotate(90 500 80)">jax</text>
  <text x="535" y="80" fill="white" font-family="sans-serif" font-weight="bold" font-size="12" text-anchor="end" dominant-baseline="middle" transform="rotate(90 535 80)">manual</text>
  <text x="570" y="80" fill="white" font-family="sans-serif" font-weight="bold" font-size="12" text-anchor="end" dominant-baseline="middle" transform="rotate(90 570 80)">mooncake-jl</text>
  <text x="605" y="80" fill="white" font-family="sans-serif" font-weight="bold" font-size="12" text-anchor="end" dominant-baseline="middle" transform="rotate(90 605 80)">ocaml</text>
  <text x="640" y="80" fill="white" font-family="sans-serif" font-weight="bold" font-size="12" text-anchor="end" dominant-baseline="middle" transform="rotate(90 640 80)">pytorch</text>
  <text x="675" y="80" fill="white" font-family="sans-serif" font-weight="bold" font-size="12" text-anchor="end" dominant-baseline="middle" transform="rotate(90 675 80)">reversediff-jl</text>
  <text x="710" y="80" fill="white" font-family="sans-serif" font-weight="bold" font-size="12" text-anchor="end" dominant-baseline="middle" transform="rotate(90 710 80)">scilean</text>
  <text x="745" y="80" fill="white" font-family="sans-serif" font-weight="bold" font-size="12" text-anchor="end" dominant-baseline="middle" transform="rotate(90 745 80)">tapenade</text>
  <text x="780" y="80" fill="white" font-family="sans-serif" font-weight="bold" font-size="12" text-anchor="end" dominant-baseline="middle" transform="rotate(90 780 80)">tensorflow</text>
  <text x="815" y="80" fill="white" font-family="sans-serif" font-weight="bold" font-size="12" text-anchor="end" dominant-baseline="middle" transform="rotate(90 815 80)">tensorflow-js</text>
  <text x="850" y="80" fill="white" font-family="sans-serif" font-weight="bold" font-size="12" text-anchor="end" dominant-baseline="middle" transform="rotate(90 850 80)">zygote</text>
  <rect x="65" y="85" width="30" height="30" fill="hsl(240 100% 81.07878501779307%)" />
  <rect x="100" y="85" width="30" height="30" fill="hsl(240 100% 83.02665056166495%)" />
  <rect x="135" y="85" width="30" height="30" fill="hsl(240 100% 97.98744356006198%)" />
  <rect x="170" y="85" width="30" height="30" fill="hsl(240 100% 82.36860874084181%)" />
  <rect x="205" y="85" width="30" height="30" fill="hsl(240 100% 98.99899891634517%)" />
  <rect x="240" y="85" width="30" height="30" fill="hsl(240 100% 51.69231969552827%)" />
  <rect x="310" y="85" width="30" height="30" fill="hsl(240 100% 93.25189745988034%)" />
  <rect x="415" y="85" width="30" height="30" fill="hsl(240 100% 67.96412358603595%)" />
  <rect x="520" y="85" width="30" height="30" fill="hsl(240 100% 50%)" />
  <rect x="625" y="85" width="30" height="30" fill="rgb(255 255 255 / 50%)" />
  <rect x="730" y="85" width="30" height="30" fill="hsl(240 100% 74.75655749142214%)" />
  <rect x="765" y="85" width="30" height="30" fill="rgb(255 255 255 / 50%)" />
  <rect x="835" y="85" width="30" height="30" fill="hsl(240 100% 99.7312703343758%)" />
  <rect x="65" y="120" width="30" height="30" fill="hsl(240 100% 50%)" />
  <rect x="100" y="120" width="30" height="30" fill="hsl(240 100% 82.68185570652176%)" />
  <rect x="135" y="120" width="30" height="30" fill="hsl(240 100% 85.724858738754%)" />
  <rect x="170" y="120" width="30" height="30" fill="hsl(240 100% 52.540661632569574%)" />
  <rect x="205" y="120" width="30" height="30" fill="hsl(240 100% 92.62732556614266%)" />
  <rect x="240" y="120" width="30" height="30" fill="hsl(240 100% 91.42552429272375%)" />
  <rect x="275" y="120" width="30" height="30" fill="hsl(240 100% 99.36889626817707%)" />
  <rect x="310" y="120" width="30" height="30" fill="hsl(240 100% 98.99390351050369%)" />
  <rect x="380" y="120" width="30" height="30" fill="hsl(240 100% 93.34201937567818%)" />
  <rect x="415" y="120" width="30" height="30" fill="hsl(240 100% 94.62925412038685%)" />
  <rect x="450" y="120" width="30" height="30" fill="hsl(240 100% 97.85749215239923%)" />
  <rect x="520" y="120" width="30" height="30" fill="hsl(240 100% 79.83897595774164%)" />
  <rect x="555" y="120" width="30" height="30" fill="hsl(240 100% 90.60890896857802%)" />
  <rect x="660" y="120" width="30" height="30" fill="rgb(255 255 255 / 50%)" />
  <rect x="835" y="120" width="30" height="30" fill="rgb(255 255 255 / 50%)" />
  <rect x="65" y="155" width="30" height="30" fill="hsl(240 100% 98.22276985395486%)" />
  <rect x="100" y="155" width="30" height="30" fill="hsl(240 100% 98.74285610606282%)" />
  <rect x="135" y="155" width="30" height="30" fill="hsl(240 100% 99.05865630082654%)" />
  <rect x="170" y="155" width="30" height="30" fill="hsl(240 100% 97.89175341495788%)" />
  <rect x="205" y="155" width="30" height="30" fill="hsl(240 100% 99.84169429483886%)" />
  <rect x="240" y="155" width="30" height="30" fill="hsl(240 100% 90.5377631857128%)" />
  <rect x="275" y="155" width="30" height="30" fill="hsl(240 100% 92.41326929512533%)" />
  <rect x="310" y="155" width="30" height="30" fill="rgb(255 255 255 / 50%)" />
  <rect x="415" y="155" width="30" height="30" fill="hsl(240 100% 92.55419962900336%)" />
  <rect x="485" y="155" width="30" height="30" fill="hsl(240 100% 50%)" />
  <rect x="520" y="155" width="30" height="30" fill="hsl(240 100% 82.73018643937351%)" />
  <rect x="590" y="155" width="30" height="30" fill="hsl(240 100% 99.55333142719984%)" />
  <rect x="625" y="155" width="30" height="30" fill="hsl(240 100% 64.9301988605484%)" />
  <rect x="695" y="155" width="30" height="30" fill="hsl(240 100% 95.15117128980367%)" />
  <rect x="730" y="155" width="30" height="30" fill="hsl(240 100% 82.7144923497571%)" />
  <rect x="765" y="155" width="30" height="30" fill="hsl(240 100% 99.56270237269155%)" />
  <rect x="835" y="155" width="30" height="30" fill="hsl(240 100% 96.05701265387927%)" />
  <rect x="65" y="190" width="30" height="30" fill="hsl(240 100% 50%)" />
  <rect x="100" y="190" width="30" height="30" fill="hsl(240 100% 50%)" />
  <rect x="135" y="190" width="30" height="30" fill="hsl(240 100% 50%)" />
  <rect x="170" y="190" width="30" height="30" fill="hsl(240 100% 50%)" />
  <rect x="205" y="190" width="30" height="30" fill="hsl(240 100% 50%)" />
  <rect x="240" y="190" width="30" height="30" fill="hsl(240 100% 50%)" />
  <rect x="275" y="190" width="30" height="30" fill="hsl(240 100% 50%)" />
  <rect x="310" y="190" width="30" height="30" fill="hsl(240 100% 50%)" />
  <rect x="345" y="190" width="30" height="30" fill="hsl(240 100% 50%)" />
  <rect x="380" y="190" width="30" height="30" fill="hsl(240 100% 50%)" />
  <rect x="415" y="190" width="30" height="30" fill="hsl(240 100% 50%)" />
  <rect x="450" y="190" width="30" height="30" fill="hsl(240 100% 50%)" />
  <rect x="485" y="190" width="30" height="30" fill="hsl(240 100% 50%)" />
  <rect x="520" y="190" width="30" height="30" fill="hsl(240 100% 50%)" />
  <rect x="555" y="190" width="30" height="30" fill="hsl(240 100% 50%)" />
  <rect x="590" y="190" width="30" height="30" fill="hsl(240 100% 50%)" />
  <rect x="625" y="190" width="30" height="30" fill="hsl(240 100% 50%)" />
  <rect x="660" y="190" width="30" height="30" fill="hsl(240 100% 50%)" />
  <rect x="695" y="190" width="30" height="30" fill="hsl(240 100% 50%)" />
  <rect x="730" y="190" width="30" height="30" fill="hsl(240 100% 50%)" />
  <rect x="765" y="190" width="30" height="30" fill="hsl(240 100% 50%)" />
  <rect x="800" y="190" width="30" height="30" fill="hsl(240 100% 50%)" />
  <rect x="835" y="190" width="30" height="30" fill="hsl(240 100% 50%)" />
  <rect x="100" y="225" width="30" height="30" fill="hsl(240 100% 96.66015093085909%)" />
  <rect x="135" y="225" width="30" height="30" fill="hsl(240 100% 89.47173635412464%)" />
  <rect x="170" y="225" width="30" height="30" fill="hsl(240 100% 89.24785213699633%)" />
  <rect x="240" y="225" width="30" height="30" fill="hsl(240 100% 91.27890875618795%)" />
  <rect x="310" y="225" width="30" height="30" fill="rgb(255 255 255 / 50%)" />
  <rect x="415" y="225" width="30" height="30" fill="hsl(240 100% 90.54340284402896%)" />
  <rect x="520" y="225" width="30" height="30" fill="hsl(240 100% 50%)" />
  <rect x="625" y="225" width="30" height="30" fill="rgb(255 255 255 / 50%)" />
  <rect x="730" y="225" width="30" height="30" fill="hsl(240 100% 93.17147019800028%)" />
  <rect x="765" y="225" width="30" height="30" fill="rgb(255 255 255 / 50%)" />
  <rect x="835" y="225" width="30" height="30" fill="hsl(240 100% 94.47383656018917%)" />
  <rect x="65" y="260" width="30" height="30" fill="hsl(240 100% 99.86744283876358%)" />
  <rect x="135" y="260" width="30" height="30" fill="hsl(240 100% 99.85136340010638%)" />
  <rect x="170" y="260" width="30" height="30" fill="hsl(240 100% 98.8706696225411%)" />
  <rect x="205" y="260" width="30" height="30" fill="rgb(255 255 255 / 50%)" />
  <rect x="240" y="260" width="30" height="30" fill="hsl(240 100% 87.16950288000824%)" />
  <rect x="310" y="260" width="30" height="30" fill="rgb(255 255 255 / 50%)" />
  <rect x="415" y="260" width="30" height="30" fill="hsl(240 100% 81.03077940658699%)" />
  <rect x="450" y="260" width="30" height="30" fill="rgb(255 255 255 / 50%)" />
  <rect x="485" y="260" width="30" height="30" fill="hsl(240 100% 50%)" />
  <rect x="520" y="260" width="30" height="30" fill="hsl(240 100% 71.62623196428014%)" />
  <rect x="625" y="260" width="30" height="30" fill="hsl(240 100% 97.00635376776728%)" />
  <rect x="695" y="260" width="30" height="30" fill="hsl(240 100% 94.21458051146746%)" />
  <rect x="65" y="295" width="30" height="30" fill="hsl(240 100% 86.076802048675%)" />
  <rect x="100" y="295" width="30" height="30" fill="hsl(240 100% 97.515234030127%)" />
  <rect x="135" y="295" width="30" height="30" fill="hsl(240 100% 95.12720201496934%)" />
  <rect x="170" y="295" width="30" height="30" fill="hsl(240 100% 90.68066880065017%)" />
  <rect x="205" y="295" width="30" height="30" fill="hsl(240 100% 99.46385974198787%)" />
  <rect x="240" y="295" width="30" height="30" fill="hsl(240 100% 50.81710092033151%)" />
  <rect x="275" y="295" width="30" height="30" fill="hsl(240 100% 50%)" />
  <rect x="310" y="295" width="30" height="30" fill="hsl(240 100% 99.49967608829766%)" />
  <rect x="345" y="295" width="30" height="30" fill="hsl(240 100% 94.75081600260657%)" />
  <rect x="415" y="295" width="30" height="30" fill="hsl(240 100% 55.24854325148005%)" />
  <rect x="450" y="295" width="30" height="30" fill="hsl(240 100% 99.32662651404816%)" />
  <rect x="485" y="295" width="30" height="30" fill="hsl(240 100% 88.27954618493943%)" />
  <rect x="520" y="295" width="30" height="30" fill="hsl(240 100% 57.87106605208041%)" />
  <rect x="695" y="295" width="30" height="30" fill="hsl(240 100% 97.60582678520126%)" />
  <rect x="800" y="295" width="30" height="30" fill="hsl(240 100% 99.5723056976205%)" />
  <rect x="835" y="295" width="30" height="30" fill="hsl(240 100% 99.95360455498886%)" />
  <rect x="65" y="330" width="30" height="30" fill="hsl(240 100% 86.70939995385922%)" />
  <rect x="100" y="330" width="30" height="30" fill="hsl(240 100% 93.78532561897968%)" />
  <rect x="135" y="330" width="30" height="30" fill="hsl(240 100% 96.66067416225862%)" />
  <rect x="170" y="330" width="30" height="30" fill="hsl(240 100% 86.4499028365123%)" />
  <rect x="205" y="330" width="30" height="30" fill="hsl(240 100% 99.07752382518639%)" />
  <rect x="240" y="330" width="30" height="30" fill="hsl(240 100% 76.25684637851757%)" />
  <rect x="275" y="330" width="30" height="30" fill="hsl(240 100% 85.46798774800753%)" />
  <rect x="310" y="330" width="30" height="30" fill="rgb(255 255 255 / 50%)" />
  <rect x="345" y="330" width="30" height="30" fill="hsl(240 100% 96.73956334928488%)" />
  <rect x="415" y="330" width="30" height="30" fill="hsl(240 100% 83.32395615648393%)" />
  <rect x="450" y="330" width="30" height="30" fill="hsl(240 100% 99.77728492118253%)" />
  <rect x="485" y="330" width="30" height="30" fill="hsl(240 100% 65.80024299218147%)" />
  <rect x="520" y="330" width="30" height="30" fill="hsl(240 100% 72.53037444025165%)" />
  <rect x="590" y="330" width="30" height="30" fill="hsl(240 100% 92.69012622674475%)" />
  <rect x="625" y="330" width="30" height="30" fill="hsl(240 100% 50%)" />
  <rect x="765" y="330" width="30" height="30" fill="hsl(240 100% 92.9002210594362%)" />
  <rect x="800" y="330" width="30" height="30" fill="hsl(240 100% 99.08729365491507%)" />
  <rect x="835" y="330" width="30" height="30" fill="hsl(240 100% 77.11528987104323%)" />
  <rect x="65" y="365" width="30" height="30" fill="hsl(240 100% 57.621994812049856%)" />
  <rect x="100" y="365" width="30" height="30" fill="hsl(240 100% 72.1642741486391%)" />
  <rect x="135" y="365" width="30" height="30" fill="hsl(240 100% 82.1623623612469%)" />
  <rect x="170" y="365" width="30" height="30" fill="hsl(240 100% 50%)" />
  <rect x="205" y="365" width="30" height="30" fill="hsl(240 100% 96.26998021967265%)" />
  <rect x="240" y="365" width="30" height="30" fill="hsl(240 100% 59.545408378862994%)" />
  <rect x="275" y="365" width="30" height="30" fill="hsl(240 100% 92.67930859647852%)" />
  <rect x="310" y="365" width="30" height="30" fill="hsl(240 100% 99.86266467285319%)" />
  <rect x="415" y="365" width="30" height="30" fill="hsl(240 100% 66.71633347440334%)" />
  <rect x="520" y="365" width="30" height="30" fill="hsl(240 100% 85.99975174321554%)" />
  <rect x="625" y="365" width="30" height="30" fill="hsl(240 100% 99.63856758026834%)" />
  <rect x="730" y="365" width="30" height="30" fill="hsl(240 100% 63.56040562788179%)" />
  <rect x="765" y="365" width="30" height="30" fill="hsl(240 100% 98.18918008514845%)" />
  <rect x="835" y="365" width="30" height="30" fill="hsl(240 100% 98.78305055964536%)" />
  <rect x="65" y="400" width="30" height="30" fill="hsl(240 100% 98.1261439671416%)" />
  <rect x="100" y="400" width="30" height="30" fill="hsl(240 100% 99.2737892840723%)" />
  <rect x="135" y="400" width="30" height="30" fill="hsl(240 100% 99.59978340715057%)" />
  <rect x="170" y="400" width="30" height="30" fill="hsl(240 100% 94.38746586996106%)" />
  <rect x="205" y="400" width="30" height="30" fill="hsl(240 100% 99.06054906313241%)" />
  <rect x="240" y="400" width="30" height="30" fill="hsl(240 100% 82.7401596771885%)" />
  <rect x="275" y="400" width="30" height="30" fill="hsl(240 100% 94.20225532623732%)" />
  <rect x="310" y="400" width="30" height="30" fill="rgb(255 255 255 / 50%)" />
  <rect x="380" y="400" width="30" height="30" fill="rgb(255 255 255 / 50%)" />
  <rect x="415" y="400" width="30" height="30" fill="hsl(240 100% 92.72079223125262%)" />
  <rect x="450" y="400" width="30" height="30" fill="hsl(240 100% 99.96777705597654%)" />
  <rect x="485" y="400" width="30" height="30" fill="hsl(240 100% 73.47722305197512%)" />
  <rect x="520" y="400" width="30" height="30" fill="hsl(240 100% 50%)" />
  <rect x="555" y="400" width="30" height="30" fill="hsl(240 100% 98.89859895611434%)" />
  <rect x="660" y="400" width="30" height="30" fill="rgb(255 255 255 / 50%)" />
  <rect x="835" y="400" width="30" height="30" fill="hsl(240 100% 99.04314917006305%)" />
  <rect x="65" y="435" width="30" height="30" fill="hsl(240 100% 92.90412500297408%)" />
  <rect x="240" y="435" width="30" height="30" fill="hsl(240 100% 50%)" />
  <rect x="310" y="435" width="30" height="30" fill="hsl(240 100% 94.31279637385262%)" />
  <rect x="415" y="435" width="30" height="30" fill="hsl(240 100% 86.99419844210435%)" />
  <rect x="450" y="435" width="30" height="30" fill="hsl(240 100% 99.79170660534902%)" />
  <rect x="65" y="470" width="30" height="30" fill="hsl(240 100% 50%)" />
  <rect x="240" y="470" width="30" height="30" fill="hsl(240 100% 50.21541867173858%)" />
  <rect x="310" y="470" width="30" height="30" fill="hsl(240 100% 97.16937338540941%)" />
  <rect x="415" y="470" width="30" height="30" fill="hsl(240 100% 89.10295842103929%)" />
  <rect x="450" y="470" width="30" height="30" fill="hsl(240 100% 99.55367587628152%)" />
</svg>
