<svg xmlns="http://www.w3.org/2000/svg" viewBox="0 0 870 505">
  <rect x="0" y="0" width="870" height="505" rx="5" ry="5" fill="#222" />
  <text x="60" y="100" fill="white" font-family="sans-serif" font-weight="bold" font-size="12" text-anchor="end" dominant-baseline="middle">ba</text>
  <text x="60" y="135" fill="white" font-family="sans-serif" font-weight="bold" font-size="12" text-anchor="end" dominant-baseline="middle">det</text>
  <text x="60" y="170" fill="white" font-family="sans-serif" font-weight="bold" font-size="12" text-anchor="end" dominant-baseline="middle">gmm</text>
  <text x="60" y="205" fill="white" font-family="sans-serif" font-weight="bold" font-size="12" text-anchor="end" dominant-baseline="middle">hello</text>
  <text x="60" y="240" fill="white" font-family="sans-serif" font-weight="bold" font-size="12" text-anchor="end" dominant-baseline="middle">ht</text>
  <text x="60" y="275" fill="white" font-family="sans-serif" font-weight="bold" font-size="12" text-anchor="end" dominant-baseline="middle">kmeans</text>
  <text x="60" y="310" fill="white" font-family="sans-serif" font-weight="bold" font-size="12" text-anchor="end" dominant-baseline="middle">llsq</text>
  <text x="60" y="345" fill="white" font-family="sans-serif" font-weight="bold" font-size="12" text-anchor="end" dominant-baseline="middle">lse</text>
  <text x="60" y="380" fill="white" font-family="sans-serif" font-weight="bold" font-size="12" text-anchor="end" dominant-baseline="middle">lstm</text>
  <text x="60" y="415" fill="white" font-family="sans-serif" font-weight="bold" font-size="12" text-anchor="end" dominant-baseline="middle">ode</text>
  <text x="60" y="450" fill="white" font-family="sans-serif" font-weight="bold" font-size="12" text-anchor="end" dominant-baseline="middle">particle</text>
  <text x="60" y="485" fill="white" font-family="sans-serif" font-weight="bold" font-size="12" text-anchor="end" dominant-baseline="middle">saddle</text>
  <text x="80" y="80" fill="white" font-family="sans-serif" font-weight="bold" font-size="12" text-anchor="end" dominant-baseline="middle" transform="rotate(90 80 80)">ad-hpp</text>
  <text x="115" y="80" fill="white" font-family="sans-serif" font-weight="bold" font-size="12" text-anchor="end" dominant-baseline="middle" transform="rotate(90 115 80)">adept</text>
  <text x="150" y="80" fill="white" font-family="sans-serif" font-weight="bold" font-size="12" text-anchor="end" dominant-baseline="middle" transform="rotate(90 150 80)">adol-c</text>
  <text x="185" y="80" fill="white" font-family="sans-serif" font-weight="bold" font-size="12" text-anchor="end" dominant-baseline="middle" transform="rotate(90 185 80)">codipack</text>
  <text x="220" y="80" fill="white" font-family="sans-serif" font-weight="bold" font-size="12" text-anchor="end" dominant-baseline="middle" transform="rotate(90 220 80)">cppad</text>
  <text x="255" y="80" fill="white" font-family="sans-serif" font-weight="bold" font-size="12" text-anchor="end" dominant-baseline="middle" transform="rotate(90 255 80)">enzyme</text>
  <text x="290" y="80" fill="white" font-family="sans-serif" font-weight="bold" font-size="12" text-anchor="end" dominant-baseline="middle" transform="rotate(90 290 80)">enzyme-jl</text>
  <text x="325" y="80" fill="white" font-family="sans-serif" font-weight="bold" font-size="12" text-anchor="end" dominant-baseline="middle" transform="rotate(90 325 80)">finite</text>
  <text x="360" y="80" fill="white" font-family="sans-serif" font-weight="bold" font-size="12" text-anchor="end" dominant-baseline="middle" transform="rotate(90 360 80)">floretta</text>
  <text x="395" y="80" fill="white" font-family="sans-serif" font-weight="bold" font-size="12" text-anchor="end" dominant-baseline="middle" transform="rotate(90 395 80)">forwarddiff-jl</text>
  <text x="430" y="80" fill="white" font-family="sans-serif" font-weight="bold" font-size="12" text-anchor="end" dominant-baseline="middle" transform="rotate(90 430 80)">futhark</text>
  <text x="465" y="80" fill="white" font-family="sans-serif" font-weight="bold" font-size="12" text-anchor="end" dominant-baseline="middle" transform="rotate(90 465 80)">haskell</text>
  <text x="500" y="80" fill="white" font-family="sans-serif" font-weight="bold" font-size="12" text-anchor="end" dominant-baseline="middle" transform="rotate(90 500 80)">jax</text>
  <text x="535" y="80" fill="white" font-family="sans-serif" font-weight="bold" font-size="12" text-anchor="end" dominant-baseline="middle" transform="rotate(90 535 80)">manual</text>
  <text x="570" y="80" fill="white" font-family="sans-serif" font-weight="bold" font-size="12" text-anchor="end" dominant-baseline="middle" transform="rotate(90 570 80)">mooncake-jl</text>
  <text x="605" y="80" fill="white" font-family="sans-serif" font-weight="bold" font-size="12" text-anchor="end" dominant-baseline="middle" transform="rotate(90 605 80)">ocaml</text>
  <text x="640" y="80" fill="white" font-family="sans-serif" font-weight="bold" font-size="12" text-anchor="end" dominant-baseline="middle" transform="rotate(90 640 80)">pytorch</text>
  <text x="675" y="80" fill="white" font-family="sans-serif" font-weight="bold" font-size="12" text-anchor="end" dominant-baseline="middle" transform="rotate(90 675 80)">reversediff-jl</text>
  <text x="710" y="80" fill="white" font-family="sans-serif" font-weight="bold" font-size="12" text-anchor="end" dominant-baseline="middle" transform="rotate(90 710 80)">scilean</text>
  <text x="745" y="80" fill="white" font-family="sans-serif" font-weight="bold" font-size="12" text-anchor="end" dominant-baseline="middle" transform="rotate(90 745 80)">tapenade</text>
  <text x="780" y="80" fill="white" font-family="sans-serif" font-weight="bold" font-size="12" text-anchor="end" dominant-baseline="middle" transform="rotate(90 780 80)">tensorflow</text>
  <text x="815" y="80" fill="white" font-family="sans-serif" font-weight="bold" font-size="12" text-anchor="end" dominant-baseline="middle" transform="rotate(90 815 80)">tensorflow-js</text>
  <text x="850" y="80" fill="white" font-family="sans-serif" font-weight="bold" font-size="12" text-anchor="end" dominant-baseline="middle" transform="rotate(90 850 80)">zygote</text>
  <rect x="65" y="85" width="30" height="30" fill="hsl(240 100% 80.98417604449519%)" />
  <rect x="100" y="85" width="30" height="30" fill="hsl(240 100% 82.86625044609127%)" />
  <rect x="135" y="85" width="30" height="30" fill="hsl(240 100% 97.98622852406537%)" />
  <rect x="170" y="85" width="30" height="30" fill="hsl(240 100% 82.60870011383972%)" />
  <rect x="205" y="85" width="30" height="30" fill="hsl(240 100% 99.00449514312412%)" />
  <rect x="240" y="85" width="30" height="30" fill="hsl(240 100% 51.756498789645825%)" />
  <rect x="310" y="85" width="30" height="30" fill="hsl(240 100% 93.25975285862144%)" />
  <rect x="415" y="85" width="30" height="30" fill="hsl(240 100% 68.00929612316735%)" />
  <rect x="520" y="85" width="30" height="30" fill="hsl(240 100% 50%)" />
  <rect x="625" y="85" width="30" height="30" fill="rgb(255 255 255 / 50%)" />
  <rect x="730" y="85" width="30" height="30" fill="hsl(240 100% 74.88537023905374%)" />
  <rect x="765" y="85" width="30" height="30" fill="rgb(255 255 255 / 50%)" />
  <rect x="835" y="85" width="30" height="30" fill="hsl(240 100% 99.73589122663088%)" />
  <rect x="65" y="120" width="30" height="30" fill="hsl(240 100% 50%)" />
  <rect x="100" y="120" width="30" height="30" fill="hsl(240 100% 82.16730528830254%)" />
  <rect x="135" y="120" width="30" height="30" fill="hsl(240 100% 85.38665546968444%)" />
  <rect x="170" y="120" width="30" height="30" fill="hsl(240 100% 51.63468955867298%)" />
  <rect x="205" y="120" width="30" height="30" fill="hsl(240 100% 92.30225826355084%)" />
  <rect x="240" y="120" width="30" height="30" fill="hsl(240 100% 91.29753212713788%)" />
  <rect x="275" y="120" width="30" height="30" fill="hsl(240 100% 99.3580714640175%)" />
  <rect x="310" y="120" width="30" height="30" fill="hsl(240 100% 98.97693159066644%)" />
  <rect x="380" y="120" width="30" height="30" fill="hsl(240 100% 93.29804754261664%)" />
  <rect x="415" y="120" width="30" height="30" fill="hsl(240 100% 94.54810168128063%)" />
  <rect x="450" y="120" width="30" height="30" fill="hsl(240 100% 97.82432972464433%)" />
  <rect x="520" y="120" width="30" height="30" fill="hsl(240 100% 79.45538261733248%)" />
  <rect x="555" y="120" width="30" height="30" fill="hsl(240 100% 90.05265483993772%)" />
  <rect x="660" y="120" width="30" height="30" fill="rgb(255 255 255 / 50%)" />
  <rect x="835" y="120" width="30" height="30" fill="rgb(255 255 255 / 50%)" />
  <rect x="65" y="155" width="30" height="30" fill="hsl(240 100% 98.42219831290869%)" />
  <rect x="100" y="155" width="30" height="30" fill="hsl(240 100% 98.78649596878049%)" />
  <rect x="135" y="155" width="30" height="30" fill="hsl(240 100% 99.10993956472879%)" />
  <rect x="170" y="155" width="30" height="30" fill="hsl(240 100% 97.99714765912184%)" />
  <rect x="205" y="155" width="30" height="30" fill="hsl(240 100% 99.84844597667718%)" />
  <rect x="240" y="155" width="30" height="30" fill="hsl(240 100% 91.24756190560946%)" />
  <rect x="275" y="155" width="30" height="30" fill="hsl(240 100% 92.29016969603217%)" />
  <rect x="310" y="155" width="30" height="30" fill="rgb(255 255 255 / 50%)" />
  <rect x="415" y="155" width="30" height="30" fill="hsl(240 100% 92.95668377647661%)" />
  <rect x="485" y="155" width="30" height="30" fill="hsl(240 100% 50%)" />
  <rect x="520" y="155" width="30" height="30" fill="hsl(240 100% 83.34458569524419%)" />
  <rect x="590" y="155" width="30" height="30" fill="hsl(240 100% 99.59513489979577%)" />
  <rect x="625" y="155" width="30" height="30" fill="hsl(240 100% 65.64718510988726%)" />
  <rect x="695" y="155" width="30" height="30" fill="hsl(240 100% 95.38978748637265%)" />
  <rect x="730" y="155" width="30" height="30" fill="hsl(240 100% 83.66555016543745%)" />
  <rect x="765" y="155" width="30" height="30" fill="hsl(240 100% 99.57341306916938%)" />
  <rect x="835" y="155" width="30" height="30" fill="hsl(240 100% 96.31446757436503%)" />
  <rect x="65" y="190" width="30" height="30" fill="hsl(240 100% 50%)" />
  <rect x="100" y="190" width="30" height="30" fill="hsl(240 100% 50%)" />
  <rect x="135" y="190" width="30" height="30" fill="hsl(240 100% 50%)" />
  <rect x="170" y="190" width="30" height="30" fill="hsl(240 100% 50%)" />
  <rect x="205" y="190" width="30" height="30" fill="hsl(240 100% 50%)" />
  <rect x="240" y="190" width="30" height="30" fill="hsl(240 100% 50%)" />
  <rect x="275" y="190" width="30" height="30" fill="hsl(240 100% 50%)" />
  <rect x="310" y="190" width="30" height="30" fill="hsl(240 100% 50%)" />
  <rect x="345" y="190" width="30" height="30" fill="hsl(240 100% 50%)" />
  <rect x="380" y="190" width="30" height="30" fill="hsl(240 100% 50%)" />
  <rect x="415" y="190" width="30" height="30" fill="hsl(240 100% 50%)" />
  <rect x="450" y="190" width="30" height="30" fill="hsl(240 100% 50%)" />
  <rect x="485" y="190" width="30" height="30" fill="hsl(240 100% 50%)" />
  <rect x="520" y="190" width="30" height="30" fill="hsl(240 100% 50%)" />
  <rect x="555" y="190" width="30" height="30" fill="hsl(240 100% 50%)" />
  <rect x="590" y="190" width="30" height="30" fill="hsl(240 100% 50%)" />
  <rect x="625" y="190" width="30" height="30" fill="hsl(240 100% 50%)" />
  <rect x="660" y="190" width="30" height="30" fill="hsl(240 100% 50%)" />
  <rect x="695" y="190" width="30" height="30" fill="hsl(240 100% 50%)" />
  <rect x="730" y="190" width="30" height="30" fill="hsl(240 100% 50%)" />
  <rect x="765" y="190" width="30" height="30" fill="hsl(240 100% 50%)" />
  <rect x="800" y="190" width="30" height="30" fill="hsl(240 100% 50%)" />
  <rect x="835" y="190" width="30" height="30" fill="hsl(240 100% 50%)" />
  <rect x="100" y="225" width="30" height="30" fill="hsl(240 100% 96.64743553065165%)" />
  <rect x="135" y="225" width="30" height="30" fill="hsl(240 100% 89.41028950481605%)" />
  <rect x="170" y="225" width="30" height="30" fill="hsl(240 100% 88.99106569445216%)" />
  <rect x="240" y="225" width="30" height="30" fill="hsl(240 100% 91.15250592616817%)" />
  <rect x="310" y="225" width="30" height="30" fill="rgb(255 255 255 / 50%)" />
  <rect x="415" y="225" width="30" height="30" fill="hsl(240 100% 90.40718184939267%)" />
  <rect x="520" y="225" width="30" height="30" fill="hsl(240 100% 50%)" />
  <rect x="625" y="225" width="30" height="30" fill="rgb(255 255 255 / 50%)" />
  <rect x="730" y="225" width="30" height="30" fill="hsl(240 100% 93.05481881828061%)" />
  <rect x="765" y="225" width="30" height="30" fill="rgb(255 255 255 / 50%)" />
  <rect x="835" y="225" width="30" height="30" fill="hsl(240 100% 94.39407945360128%)" />
  <rect x="65" y="260" width="30" height="30" fill="hsl(240 100% 99.86848685077824%)" />
  <rect x="135" y="260" width="30" height="30" fill="hsl(240 100% 99.84938560500383%)" />
  <rect x="170" y="260" width="30" height="30" fill="hsl(240 100% 98.87122774168398%)" />
  <rect x="205" y="260" width="30" height="30" fill="rgb(255 255 255 / 50%)" />
  <rect x="240" y="260" width="30" height="30" fill="hsl(240 100% 87.28861817196454%)" />
  <rect x="310" y="260" width="30" height="30" fill="rgb(255 255 255 / 50%)" />
  <rect x="415" y="260" width="30" height="30" fill="hsl(240 100% 81.14248567652803%)" />
  <rect x="450" y="260" width="30" height="30" fill="rgb(255 255 255 / 50%)" />
  <rect x="485" y="260" width="30" height="30" fill="hsl(240 100% 50%)" />
  <rect x="520" y="260" width="30" height="30" fill="hsl(240 100% 71.5117294223035%)" />
  <rect x="625" y="260" width="30" height="30" fill="hsl(240 100% 97.19233630226655%)" />
  <rect x="695" y="260" width="30" height="30" fill="hsl(240 100% 94.22942566303642%)" />
  <rect x="65" y="295" width="30" height="30" fill="hsl(240 100% 85.95074285964286%)" />
  <rect x="100" y="295" width="30" height="30" fill="hsl(240 100% 97.57094937339363%)" />
  <rect x="135" y="295" width="30" height="30" fill="hsl(240 100% 95.09697836272616%)" />
  <rect x="170" y="295" width="30" height="30" fill="hsl(240 100% 90.70715205447652%)" />
  <rect x="205" y="295" width="30" height="30" fill="hsl(240 100% 99.44037083003113%)" />
  <rect x="240" y="295" width="30" height="30" fill="hsl(240 100% 50.75216006764423%)" />
  <rect x="275" y="295" width="30" height="30" fill="hsl(240 100% 50%)" />
  <rect x="310" y="295" width="30" height="30" fill="hsl(240 100% 99.50108355622248%)" />
  <rect x="345" y="295" width="30" height="30" fill="hsl(240 100% 94.89061496836226%)" />
  <rect x="415" y="295" width="30" height="30" fill="hsl(240 100% 55.37146390933872%)" />
  <rect x="450" y="295" width="30" height="30" fill="hsl(240 100% 99.34407652372799%)" />
  <rect x="485" y="295" width="30" height="30" fill="hsl(240 100% 88.44765883257656%)" />
  <rect x="520" y="295" width="30" height="30" fill="hsl(240 100% 57.96864913907303%)" />
  <rect x="695" y="295" width="30" height="30" fill="hsl(240 100% 97.61575310720411%)" />
  <rect x="800" y="295" width="30" height="30" fill="hsl(240 100% 99.5724918524234%)" />
  <rect x="835" y="295" width="30" height="30" fill="hsl(240 100% 99.95348929539482%)" />
  <rect x="65" y="330" width="30" height="30" fill="hsl(240 100% 87.90149928850138%)" />
  <rect x="100" y="330" width="30" height="30" fill="hsl(240 100% 94.33292646662503%)" />
  <rect x="135" y="330" width="30" height="30" fill="hsl(240 100% 96.8800302990791%)" />
  <rect x="170" y="330" width="30" height="30" fill="hsl(240 100% 87.48361774124533%)" />
  <rect x="205" y="330" width="30" height="30" fill="hsl(240 100% 99.14708045775016%)" />
  <rect x="240" y="330" width="30" height="30" fill="hsl(240 100% 78.24980718608198%)" />
  <rect x="275" y="330" width="30" height="30" fill="hsl(240 100% 86.58068392496676%)" />
  <rect x="310" y="330" width="30" height="30" fill="rgb(255 255 255 / 50%)" />
  <rect x="345" y="330" width="30" height="30" fill="hsl(240 100% 97.01549113068977%)" />
  <rect x="415" y="330" width="30" height="30" fill="hsl(240 100% 84.8020111233358%)" />
  <rect x="450" y="330" width="30" height="30" fill="hsl(240 100% 99.79297675443138%)" />
  <rect x="485" y="330" width="30" height="30" fill="hsl(240 100% 69.52527264741215%)" />
  <rect x="520" y="330" width="30" height="30" fill="hsl(240 100% 75.00815142815715%)" />
  <rect x="590" y="330" width="30" height="30" fill="hsl(240 100% 93.34242523207325%)" />
  <rect x="625" y="330" width="30" height="30" fill="hsl(240 100% 50%)" />
  <rect x="765" y="330" width="30" height="30" fill="hsl(240 100% 94.87819273996188%)" />
  <rect x="800" y="330" width="30" height="30" fill="hsl(240 100% 99.14374640615485%)" />
  <rect x="835" y="330" width="30" height="30" fill="hsl(240 100% 79.97590485539666%)" />
  <rect x="65" y="365" width="30" height="30" fill="hsl(240 100% 57.00013880343438%)" />
  <rect x="100" y="365" width="30" height="30" fill="hsl(240 100% 71.83911624080764%)" />
  <rect x="135" y="365" width="30" height="30" fill="hsl(240 100% 82.17312876069518%)" />
  <rect x="170" y="365" width="30" height="30" fill="hsl(240 100% 50%)" />
  <rect x="205" y="365" width="30" height="30" fill="hsl(240 100% 96.07622536202207%)" />
  <rect x="240" y="365" width="30" height="30" fill="hsl(240 100% 59.353353144461735%)" />
  <rect x="275" y="365" width="30" height="30" fill="hsl(240 100% 92.13337219580454%)" />
  <rect x="310" y="365" width="30" height="30" fill="hsl(240 100% 99.86043196179752%)" />
  <rect x="415" y="365" width="30" height="30" fill="hsl(240 100% 66.26254331901374%)" />
  <rect x="520" y="365" width="30" height="30" fill="hsl(240 100% 85.89778180544694%)" />
  <rect x="625" y="365" width="30" height="30" fill="hsl(240 100% 99.62712925355851%)" />
  <rect x="730" y="365" width="30" height="30" fill="hsl(240 100% 63.474752795079546%)" />
  <rect x="765" y="365" width="30" height="30" fill="hsl(240 100% 98.2242965342787%)" />
  <rect x="835" y="365" width="30" height="30" fill="hsl(240 100% 98.75556234609417%)" />
  <rect x="65" y="400" width="30" height="30" fill="hsl(240 100% 98.18865312684099%)" />
  <rect x="100" y="400" width="30" height="30" fill="hsl(240 100% 99.41593851322544%)" />
  <rect x="135" y="400" width="30" height="30" fill="hsl(240 100% 99.67722003119708%)" />
  <rect x="170" y="400" width="30" height="30" fill="hsl(240 100% 95.35014756283047%)" />
  <rect x="205" y="400" width="30" height="30" fill="hsl(240 100% 99.23783005462178%)" />
  <rect x="240" y="400" width="30" height="30" fill="hsl(240 100% 87.07549774981901%)" />
  <rect x="275" y="400" width="30" height="30" fill="hsl(240 100% 95.28628604493927%)" />
  <rect x="310" y="400" width="30" height="30" fill="rgb(255 255 255 / 50%)" />
  <rect x="380" y="400" width="30" height="30" fill="rgb(255 255 255 / 50%)" />
  <rect x="415" y="400" width="30" height="30" fill="hsl(240 100% 94.03112970263611%)" />
  <rect x="450" y="400" width="30" height="30" fill="hsl(240 100% 99.9712920029801%)" />
  <rect x="485" y="400" width="30" height="30" fill="hsl(240 100% 78.54379566208414%)" />
  <rect x="520" y="400" width="30" height="30" fill="hsl(240 100% 50%)" />
  <rect x="555" y="400" width="30" height="30" fill="hsl(240 100% 99.12295276206824%)" />
  <rect x="660" y="400" width="30" height="30" fill="rgb(255 255 255 / 50%)" />
  <rect x="835" y="400" width="30" height="30" fill="hsl(240 100% 99.09983215866615%)" />
  <rect x="65" y="435" width="30" height="30" fill="hsl(240 100% 92.8787583962798%)" />
  <rect x="240" y="435" width="30" height="30" fill="hsl(240 100% 50%)" />
  <rect x="310" y="435" width="30" height="30" fill="hsl(240 100% 94.33577916549217%)" />
  <rect x="415" y="435" width="30" height="30" fill="hsl(240 100% 86.98411718827309%)" />
  <rect x="450" y="435" width="30" height="30" fill="hsl(240 100% 99.77593215605366%)" />
  <rect x="65" y="470" width="30" height="30" fill="hsl(240 100% 50%)" />
  <rect x="240" y="470" width="30" height="30" fill="hsl(240 100% 50.09975708275287%)" />
  <rect x="310" y="470" width="30" height="30" fill="hsl(240 100% 97.15534315658806%)" />
  <rect x="415" y="470" width="30" height="30" fill="hsl(240 100% 89.02400887384283%)" />
  <rect x="450" y="470" width="30" height="30" fill="hsl(240 100% 99.55932804899722%)" />
</svg>
