<svg xmlns="http://www.w3.org/2000/svg" viewBox="0 0 905 505">
  <rect x="0" y="0" width="905" height="505" rx="5" ry="5" fill="#222" />
  <text x="60" y="100" fill="white" font-family="sans-serif" font-weight="bold" font-size="12" text-anchor="end" dominant-baseline="middle">ba</text>
  <text x="60" y="135" fill="white" font-family="sans-serif" font-weight="bold" font-size="12" text-anchor="end" dominant-baseline="middle">det</text>
  <text x="60" y="170" fill="white" font-family="sans-serif" font-weight="bold" font-size="12" text-anchor="end" dominant-baseline="middle">gmm</text>
  <text x="60" y="205" fill="white" font-family="sans-serif" font-weight="bold" font-size="12" text-anchor="end" dominant-baseline="middle">hello</text>
  <text x="60" y="240" fill="white" font-family="sans-serif" font-weight="bold" font-size="12" text-anchor="end" dominant-baseline="middle">ht</text>
  <text x="60" y="275" fill="white" font-family="sans-serif" font-weight="bold" font-size="12" text-anchor="end" dominant-baseline="middle">kmeans</text>
  <text x="60" y="310" fill="white" font-family="sans-serif" font-weight="bold" font-size="12" text-anchor="end" dominant-baseline="middle">llsq</text>
  <text x="60" y="345" fill="white" font-family="sans-serif" font-weight="bold" font-size="12" text-anchor="end" dominant-baseline="middle">lse</text>
  <text x="60" y="380" fill="white" font-family="sans-serif" font-weight="bold" font-size="12" text-anchor="end" dominant-baseline="middle">lstm</text>
  <text x="60" y="415" fill="white" font-family="sans-serif" font-weight="bold" font-size="12" text-anchor="end" dominant-baseline="middle">ode</text>
  <text x="60" y="450" fill="white" font-family="sans-serif" font-weight="bold" font-size="12" text-anchor="end" dominant-baseline="middle">particle</text>
  <text x="60" y="485" fill="white" font-family="sans-serif" font-weight="bold" font-size="12" text-anchor="end" dominant-baseline="middle">saddle</text>
  <text x="80" y="80" fill="white" font-family="sans-serif" font-weight="bold" font-size="12" text-anchor="end" dominant-baseline="middle" transform="rotate(90 80 80)">ad-hpp</text>
  <text x="115" y="80" fill="white" font-family="sans-serif" font-weight="bold" font-size="12" text-anchor="end" dominant-baseline="middle" transform="rotate(90 115 80)">adept</text>
  <text x="150" y="80" fill="white" font-family="sans-serif" font-weight="bold" font-size="12" text-anchor="end" dominant-baseline="middle" transform="rotate(90 150 80)">adol-c</text>
  <text x="185" y="80" fill="white" font-family="sans-serif" font-weight="bold" font-size="12" text-anchor="end" dominant-baseline="middle" transform="rotate(90 185 80)">codipack</text>
  <text x="220" y="80" fill="white" font-family="sans-serif" font-weight="bold" font-size="12" text-anchor="end" dominant-baseline="middle" transform="rotate(90 220 80)">cppad</text>
  <text x="255" y="80" fill="white" font-family="sans-serif" font-weight="bold" font-size="12" text-anchor="end" dominant-baseline="middle" transform="rotate(90 255 80)">enzyme</text>
  <text x="290" y="80" fill="white" font-family="sans-serif" font-weight="bold" font-size="12" text-anchor="end" dominant-baseline="middle" transform="rotate(90 290 80)">enzyme-jl</text>
  <text x="325" y="80" fill="white" font-family="sans-serif" font-weight="bold" font-size="12" text-anchor="end" dominant-baseline="middle" transform="rotate(90 325 80)">finite</text>
  <text x="360" y="80" fill="white" font-family="sans-serif" font-weight="bold" font-size="12" text-anchor="end" dominant-baseline="middle" transform="rotate(90 360 80)">floretta</text>
  <text x="395" y="80" fill="white" font-family="sans-serif" font-weight="bold" font-size="12" text-anchor="end" dominant-baseline="middle" transform="rotate(90 395 80)">forwarddiff-jl</text>
  <text x="430" y="80" fill="white" font-family="sans-serif" font-weight="bold" font-size="12" text-anchor="end" dominant-baseline="middle" transform="rotate(90 430 80)">futhark</text>
  <text x="465" y="80" fill="white" font-family="sans-serif" font-weight="bold" font-size="12" text-anchor="end" dominant-baseline="middle" transform="rotate(90 465 80)">haskell-ad</text>
  <text x="500" y="80" fill="white" font-family="sans-serif" font-weight="bold" font-size="12" text-anchor="end" dominant-baseline="middle" transform="rotate(90 500 80)">horde-ad</text>
  <text x="535" y="80" fill="white" font-family="sans-serif" font-weight="bold" font-size="12" text-anchor="end" dominant-baseline="middle" transform="rotate(90 535 80)">jax</text>
  <text x="570" y="80" fill="white" font-family="sans-serif" font-weight="bold" font-size="12" text-anchor="end" dominant-baseline="middle" transform="rotate(90 570 80)">manual</text>
  <text x="605" y="80" fill="white" font-family="sans-serif" font-weight="bold" font-size="12" text-anchor="end" dominant-baseline="middle" transform="rotate(90 605 80)">mooncake-jl</text>
  <text x="640" y="80" fill="white" font-family="sans-serif" font-weight="bold" font-size="12" text-anchor="end" dominant-baseline="middle" transform="rotate(90 640 80)">ocaml</text>
  <text x="675" y="80" fill="white" font-family="sans-serif" font-weight="bold" font-size="12" text-anchor="end" dominant-baseline="middle" transform="rotate(90 675 80)">pytorch</text>
  <text x="710" y="80" fill="white" font-family="sans-serif" font-weight="bold" font-size="12" text-anchor="end" dominant-baseline="middle" transform="rotate(90 710 80)">reversediff-jl</text>
  <text x="745" y="80" fill="white" font-family="sans-serif" font-weight="bold" font-size="12" text-anchor="end" dominant-baseline="middle" transform="rotate(90 745 80)">scilean</text>
  <text x="780" y="80" fill="white" font-family="sans-serif" font-weight="bold" font-size="12" text-anchor="end" dominant-baseline="middle" transform="rotate(90 780 80)">tapenade</text>
  <text x="815" y="80" fill="white" font-family="sans-serif" font-weight="bold" font-size="12" text-anchor="end" dominant-baseline="middle" transform="rotate(90 815 80)">tensorflow</text>
  <text x="850" y="80" fill="white" font-family="sans-serif" font-weight="bold" font-size="12" text-anchor="end" dominant-baseline="middle" transform="rotate(90 850 80)">tensorflow-js</text>
  <text x="885" y="80" fill="white" font-family="sans-serif" font-weight="bold" font-size="12" text-anchor="end" dominant-baseline="middle" transform="rotate(90 885 80)">zygote</text>
  <rect x="65" y="85" width="30" height="30" fill="hsl(240 100% 81.19643566543283%)" />
  <rect x="100" y="85" width="30" height="30" fill="hsl(240 100% 78.94457632337365%)" />
  <rect x="135" y="85" width="30" height="30" fill="hsl(240 100% 97.96092960854234%)" />
  <rect x="170" y="85" width="30" height="30" fill="hsl(240 100% 81.863789413424%)" />
  <rect x="205" y="85" width="30" height="30" fill="hsl(240 100% 98.68044827822679%)" />
  <rect x="240" y="85" width="30" height="30" fill="hsl(240 100% 50%)" />
  <rect x="310" y="85" width="30" height="30" fill="hsl(240 100% 93.04978064580101%)" />
  <rect x="415" y="85" width="30" height="30" fill="hsl(240 100% 67.70823723158571%)" />
  <rect x="555" y="85" width="30" height="30" fill="hsl(240 100% 53.982543933678926%)" />
  <rect x="660" y="85" width="30" height="30" fill="rgb(255 255 255 / 50%)" />
  <rect x="765" y="85" width="30" height="30" fill="hsl(240 100% 74.37543372588695%)" />
  <rect x="800" y="85" width="30" height="30" fill="rgb(255 255 255 / 50%)" />
  <rect x="870" y="85" width="30" height="30" fill="hsl(240 100% 99.74062704073663%)" />
  <rect x="65" y="120" width="30" height="30" fill="hsl(240 100% 50%)" />
  <rect x="100" y="120" width="30" height="30" fill="hsl(240 100% 82.59935194449301%)" />
  <rect x="135" y="120" width="30" height="30" fill="hsl(240 100% 86.77138904883333%)" />
  <rect x="170" y="120" width="30" height="30" fill="hsl(240 100% 53.689987495273535%)" />
  <rect x="205" y="120" width="30" height="30" fill="hsl(240 100% 92.97634238895367%)" />
  <rect x="240" y="120" width="30" height="30" fill="hsl(240 100% 90.72613356846654%)" />
  <rect x="275" y="120" width="30" height="30" fill="hsl(240 100% 99.44736485106138%)" />
  <rect x="310" y="120" width="30" height="30" fill="hsl(240 100% 98.84440323547875%)" />
  <rect x="380" y="120" width="30" height="30" fill="hsl(240 100% 93.58176031462395%)" />
  <rect x="415" y="120" width="30" height="30" fill="hsl(240 100% 94.98377673577633%)" />
  <rect x="450" y="120" width="30" height="30" fill="hsl(240 100% 97.76353235918717%)" />
  <rect x="485" y="120" width="30" height="30" fill="hsl(240 100% 98.11361105391802%)" />
  <rect x="555" y="120" width="30" height="30" fill="hsl(240 100% 81.8173977950826%)" />
  <rect x="590" y="120" width="30" height="30" fill="hsl(240 100% 96.20456556063628%)" />
  <rect x="695" y="120" width="30" height="30" fill="rgb(255 255 255 / 50%)" />
  <rect x="870" y="120" width="30" height="30" fill="rgb(255 255 255 / 50%)" />
  <rect x="65" y="155" width="30" height="30" fill="hsl(240 100% 99.24127879078083%)" />
  <rect x="100" y="155" width="30" height="30" fill="hsl(240 100% 98.5182971312067%)" />
  <rect x="135" y="155" width="30" height="30" fill="hsl(240 100% 98.96094261289228%)" />
  <rect x="170" y="155" width="30" height="30" fill="hsl(240 100% 97.35940576014889%)" />
  <rect x="205" y="155" width="30" height="30" fill="hsl(240 100% 99.74228810403058%)" />
  <rect x="240" y="155" width="30" height="30" fill="hsl(240 100% 90.67889982470686%)" />
  <rect x="275" y="155" width="30" height="30" fill="hsl(240 100% 90.13985727878037%)" />
  <rect x="310" y="155" width="30" height="30" fill="rgb(255 255 255 / 50%)" />
  <rect x="415" y="155" width="30" height="30" fill="hsl(240 100% 92.1574056146737%)" />
  <rect x="485" y="155" width="30" height="30" fill="hsl(240 100% 98.39360002602898%)" />
  <rect x="520" y="155" width="30" height="30" fill="hsl(240 100% 50%)" />
  <rect x="555" y="155" width="30" height="30" fill="hsl(240 100% 79.09509892351458%)" />
  <rect x="590" y="155" width="30" height="30" fill="hsl(240 100% 95.5806831607524%)" />
  <rect x="625" y="155" width="30" height="30" fill="hsl(240 100% 99.52499849045002%)" />
  <rect x="660" y="155" width="30" height="30" fill="hsl(240 100% 61.03211079319665%)" />
  <rect x="730" y="155" width="30" height="30" fill="hsl(240 100% 94.3414859124877%)" />
  <rect x="765" y="155" width="30" height="30" fill="hsl(240 100% 83.40178411097853%)" />
  <rect x="800" y="155" width="30" height="30" fill="hsl(240 100% 99.52130319507788%)" />
  <rect x="870" y="155" width="30" height="30" fill="hsl(240 100% 95.53933774986108%)" />
  <rect x="65" y="190" width="30" height="30" fill="hsl(240 100% 50%)" />
  <rect x="100" y="190" width="30" height="30" fill="hsl(240 100% 50%)" />
  <rect x="135" y="190" width="30" height="30" fill="hsl(240 100% 50%)" />
  <rect x="170" y="190" width="30" height="30" fill="hsl(240 100% 50%)" />
  <rect x="205" y="190" width="30" height="30" fill="hsl(240 100% 50%)" />
  <rect x="240" y="190" width="30" height="30" fill="hsl(240 100% 50%)" />
  <rect x="275" y="190" width="30" height="30" fill="hsl(240 100% 50%)" />
  <rect x="310" y="190" width="30" height="30" fill="hsl(240 100% 50%)" />
  <rect x="345" y="190" width="30" height="30" fill="hsl(240 100% 50%)" />
  <rect x="380" y="190" width="30" height="30" fill="hsl(240 100% 50%)" />
  <rect x="415" y="190" width="30" height="30" fill="hsl(240 100% 50%)" />
  <rect x="450" y="190" width="30" height="30" fill="hsl(240 100% 50%)" />
  <rect x="485" y="190" width="30" height="30" fill="hsl(240 100% 50%)" />
  <rect x="520" y="190" width="30" height="30" fill="hsl(240 100% 50%)" />
  <rect x="555" y="190" width="30" height="30" fill="hsl(240 100% 50%)" />
  <rect x="590" y="190" width="30" height="30" fill="hsl(240 100% 50%)" />
  <rect x="625" y="190" width="30" height="30" fill="hsl(240 100% 50%)" />
  <rect x="660" y="190" width="30" height="30" fill="hsl(240 100% 50%)" />
  <rect x="695" y="190" width="30" height="30" fill="hsl(240 100% 50%)" />
  <rect x="730" y="190" width="30" height="30" fill="hsl(240 100% 50%)" />
  <rect x="765" y="190" width="30" height="30" fill="hsl(240 100% 50%)" />
  <rect x="800" y="190" width="30" height="30" fill="hsl(240 100% 50%)" />
  <rect x="835" y="190" width="30" height="30" fill="hsl(240 100% 50%)" />
  <rect x="870" y="190" width="30" height="30" fill="hsl(240 100% 50%)" />
  <rect x="100" y="225" width="30" height="30" fill="hsl(240 100% 96.00339737197396%)" />
  <rect x="135" y="225" width="30" height="30" fill="hsl(240 100% 86.6278604746597%)" />
  <rect x="170" y="225" width="30" height="30" fill="hsl(240 100% 87.96916706312223%)" />
  <rect x="240" y="225" width="30" height="30" fill="hsl(240 100% 90.32719435491461%)" />
  <rect x="310" y="225" width="30" height="30" fill="rgb(255 255 255 / 50%)" />
  <rect x="415" y="225" width="30" height="30" fill="hsl(240 100% 86.62209123437515%)" />
  <rect x="555" y="225" width="30" height="30" fill="hsl(240 100% 50%)" />
  <rect x="660" y="225" width="30" height="30" fill="rgb(255 255 255 / 50%)" />
  <rect x="765" y="225" width="30" height="30" fill="hsl(240 100% 92.42668323877912%)" />
  <rect x="800" y="225" width="30" height="30" fill="rgb(255 255 255 / 50%)" />
  <rect x="870" y="225" width="30" height="30" fill="hsl(240 100% 94.0531303169113%)" />
  <rect x="135" y="260" width="30" height="30" fill="hsl(240 100% 99.86307665678041%)" />
  <rect x="170" y="260" width="30" height="30" fill="hsl(240 100% 98.8544742110243%)" />
  <rect x="205" y="260" width="30" height="30" fill="rgb(255 255 255 / 50%)" />
  <rect x="240" y="260" width="30" height="30" fill="hsl(240 100% 87.00725883127753%)" />
  <rect x="310" y="260" width="30" height="30" fill="rgb(255 255 255 / 50%)" />
  <rect x="380" y="260" width="30" height="30" fill="rgb(255 255 255 / 50%)" />
  <rect x="415" y="260" width="30" height="30" fill="hsl(240 100% 85.63938018239924%)" />
  <rect x="450" y="260" width="30" height="30" fill="rgb(255 255 255 / 50%)" />
  <rect x="485" y="260" width="30" height="30" fill="hsl(240 100% 99.14992988483606%)" />
  <rect x="520" y="260" width="30" height="30" fill="hsl(240 100% 50%)" />
  <rect x="555" y="260" width="30" height="30" fill="hsl(240 100% 72.7586440310771%)" />
  <rect x="660" y="260" width="30" height="30" fill="hsl(240 100% 97.03025337398782%)" />
  <rect x="695" y="260" width="30" height="30" fill="rgb(255 255 255 / 50%)" />
  <rect x="730" y="260" width="30" height="30" fill="hsl(240 100% 93.67891147159058%)" />
  <rect x="65" y="295" width="30" height="30" fill="hsl(240 100% 86.41610079536852%)" />
  <rect x="100" y="295" width="30" height="30" fill="hsl(240 100% 97.318668777446%)" />
  <rect x="135" y="295" width="30" height="30" fill="hsl(240 100% 94.0017047601162%)" />
  <rect x="170" y="295" width="30" height="30" fill="hsl(240 100% 89.19814402187271%)" />
  <rect x="205" y="295" width="30" height="30" fill="hsl(240 100% 99.47053309592204%)" />
  <rect x="240" y="295" width="30" height="30" fill="hsl(240 100% 50%)" />
  <rect x="275" y="295" width="30" height="30" fill="hsl(240 100% 54.067133442233384%)" />
  <rect x="310" y="295" width="30" height="30" fill="hsl(240 100% 99.49225553800278%)" />
  <rect x="345" y="295" width="30" height="30" fill="hsl(240 100% 94.66092261230901%)" />
  <rect x="415" y="295" width="30" height="30" fill="hsl(240 100% 54.44733310451301%)" />
  <rect x="450" y="295" width="30" height="30" fill="hsl(240 100% 99.26885523023138%)" />
  <rect x="485" y="295" width="30" height="30" fill="hsl(240 100% 95.58644476258922%)" />
  <rect x="520" y="295" width="30" height="30" fill="hsl(240 100% 87.94524041454527%)" />
  <rect x="555" y="295" width="30" height="30" fill="hsl(240 100% 57.24709263431502%)" />
  <rect x="590" y="295" width="30" height="30" fill="hsl(240 100% 86.94601996796975%)" />
  <rect x="730" y="295" width="30" height="30" fill="hsl(240 100% 97.29106257783212%)" />
  <rect x="835" y="295" width="30" height="30" fill="hsl(240 100% 99.5594211350365%)" />
  <rect x="870" y="295" width="30" height="30" fill="hsl(240 100% 99.95966853224866%)" />
  <rect x="65" y="330" width="30" height="30" fill="hsl(240 100% 86.35432580510846%)" />
  <rect x="100" y="330" width="30" height="30" fill="hsl(240 100% 93.51636818045236%)" />
  <rect x="135" y="330" width="30" height="30" fill="hsl(240 100% 95.54150594355329%)" />
  <rect x="170" y="330" width="30" height="30" fill="hsl(240 100% 86.8365453115976%)" />
  <rect x="205" y="330" width="30" height="30" fill="hsl(240 100% 99.04787717677723%)" />
  <rect x="240" y="330" width="30" height="30" fill="hsl(240 100% 78.38563830714676%)" />
  <rect x="275" y="330" width="30" height="30" fill="hsl(240 100% 95.54811727392827%)" />
  <rect x="310" y="330" width="30" height="30" fill="rgb(255 255 255 / 50%)" />
  <rect x="345" y="330" width="30" height="30" fill="hsl(240 100% 96.76303104441124%)" />
  <rect x="415" y="330" width="30" height="30" fill="hsl(240 100% 84.43521247918544%)" />
  <rect x="450" y="330" width="30" height="30" fill="hsl(240 100% 99.78468061419679%)" />
  <rect x="485" y="330" width="30" height="30" fill="hsl(240 100% 88.36830521678635%)" />
  <rect x="520" y="330" width="30" height="30" fill="hsl(240 100% 73.83791698152096%)" />
  <rect x="555" y="330" width="30" height="30" fill="hsl(240 100% 68.30241292675052%)" />
  <rect x="590" y="330" width="30" height="30" fill="hsl(240 100% 90.0959584726414%)" />
  <rect x="625" y="330" width="30" height="30" fill="hsl(240 100% 93.3047680991584%)" />
  <rect x="660" y="330" width="30" height="30" fill="hsl(240 100% 50%)" />
  <rect x="800" y="330" width="30" height="30" fill="hsl(240 100% 94.02417538018881%)" />
  <rect x="835" y="330" width="30" height="30" fill="hsl(240 100% 99.07979591397387%)" />
  <rect x="870" y="330" width="30" height="30" fill="hsl(240 100% 96.61561041898312%)" />
  <rect x="65" y="365" width="30" height="30" fill="hsl(240 100% 55.57669988120363%)" />
  <rect x="100" y="365" width="30" height="30" fill="hsl(240 100% 69.25130293256812%)" />
  <rect x="135" y="365" width="30" height="30" fill="hsl(240 100% 77.30466802807112%)" />
  <rect x="170" y="365" width="30" height="30" fill="hsl(240 100% 50%)" />
  <rect x="205" y="365" width="30" height="30" fill="hsl(240 100% 96.06105822127753%)" />
  <rect x="240" y="365" width="30" height="30" fill="hsl(240 100% 60.149345727063285%)" />
  <rect x="275" y="365" width="30" height="30" fill="hsl(240 100% 92.66947504274927%)" />
  <rect x="310" y="365" width="30" height="30" fill="hsl(240 100% 99.86079293720472%)" />
  <rect x="415" y="365" width="30" height="30" fill="hsl(240 100% 66.88916790852319%)" />
  <rect x="485" y="365" width="30" height="30" fill="hsl(240 100% 99.46117174247878%)" />
  <rect x="555" y="365" width="30" height="30" fill="hsl(240 100% 86.01297086734137%)" />
  <rect x="590" y="365" width="30" height="30" fill="hsl(240 100% 94.49681779852068%)" />
  <rect x="660" y="365" width="30" height="30" fill="hsl(240 100% 99.63778303535916%)" />
  <rect x="765" y="365" width="30" height="30" fill="hsl(240 100% 57.75429759282259%)" />
  <rect x="800" y="365" width="30" height="30" fill="hsl(240 100% 98.1141599908334%)" />
  <rect x="870" y="365" width="30" height="30" fill="hsl(240 100% 98.73168426115737%)" />
  <rect x="65" y="400" width="30" height="30" fill="hsl(240 100% 97.68578710643983%)" />
  <rect x="100" y="400" width="30" height="30" fill="hsl(240 100% 99.1731061540662%)" />
  <rect x="135" y="400" width="30" height="30" fill="hsl(240 100% 99.59868822078768%)" />
  <rect x="170" y="400" width="30" height="30" fill="hsl(240 100% 93.1701702848324%)" />
  <rect x="205" y="400" width="30" height="30" fill="hsl(240 100% 99.0518779223777%)" />
  <rect x="240" y="400" width="30" height="30" fill="hsl(240 100% 82.1767963480058%)" />
  <rect x="275" y="400" width="30" height="30" fill="hsl(240 100% 94.26517427591777%)" />
  <rect x="310" y="400" width="30" height="30" fill="rgb(255 255 255 / 50%)" />
  <rect x="380" y="400" width="30" height="30" fill="rgb(255 255 255 / 50%)" />
  <rect x="415" y="400" width="30" height="30" fill="hsl(240 100% 92.52951560532283%)" />
  <rect x="450" y="400" width="30" height="30" fill="hsl(240 100% 99.96984697908177%)" />
  <rect x="485" y="400" width="30" height="30" fill="hsl(240 100% 99.29812498565079%)" />
  <rect x="520" y="400" width="30" height="30" fill="hsl(240 100% 70.59231099485179%)" />
  <rect x="555" y="400" width="30" height="30" fill="hsl(240 100% 50%)" />
  <rect x="590" y="400" width="30" height="30" fill="hsl(240 100% 99.18877523005226%)" />
  <rect x="695" y="400" width="30" height="30" fill="rgb(255 255 255 / 50%)" />
  <rect x="870" y="400" width="30" height="30" fill="hsl(240 100% 99.07788355200128%)" />
  <rect x="65" y="435" width="30" height="30" fill="hsl(240 100% 93.15805268120286%)" />
  <rect x="240" y="435" width="30" height="30" fill="hsl(240 100% 50%)" />
  <rect x="310" y="435" width="30" height="30" fill="hsl(240 100% 93.85278579121326%)" />
  <rect x="415" y="435" width="30" height="30" fill="hsl(240 100% 87.39277303156709%)" />
  <rect x="450" y="435" width="30" height="30" fill="hsl(240 100% 99.80698392355329%)" />
  <rect x="485" y="435" width="30" height="30" fill="hsl(240 100% 99.9396078823147%)" />
  <rect x="65" y="470" width="30" height="30" fill="hsl(240 100% 60.18911539421861%)" />
  <rect x="240" y="470" width="30" height="30" fill="hsl(240 100% 50%)" />
  <rect x="310" y="470" width="30" height="30" fill="hsl(240 100% 96.9373492414726%)" />
  <rect x="415" y="470" width="30" height="30" fill="hsl(240 100% 89.51055684845585%)" />
  <rect x="450" y="470" width="30" height="30" fill="hsl(240 100% 99.54716006976632%)" />
  <rect x="485" y="470" width="30" height="30" fill="hsl(240 100% 99.94728912173005%)" />
</svg>
