<svg xmlns="http://www.w3.org/2000/svg" viewBox="0 0 730 505">
  <rect x="0" y="0" width="730" height="505" rx="5" ry="5" fill="#222" />
  <text x="60" y="100" fill="white" font-family="sans-serif" font-weight="bold" font-size="12" text-anchor="end" dominant-baseline="middle">ba</text>
  <text x="60" y="135" fill="white" font-family="sans-serif" font-weight="bold" font-size="12" text-anchor="end" dominant-baseline="middle">det</text>
  <text x="60" y="170" fill="white" font-family="sans-serif" font-weight="bold" font-size="12" text-anchor="end" dominant-baseline="middle">gmm</text>
  <text x="60" y="205" fill="white" font-family="sans-serif" font-weight="bold" font-size="12" text-anchor="end" dominant-baseline="middle">hello</text>
  <text x="60" y="240" fill="white" font-family="sans-serif" font-weight="bold" font-size="12" text-anchor="end" dominant-baseline="middle">ht</text>
  <text x="60" y="275" fill="white" font-family="sans-serif" font-weight="bold" font-size="12" text-anchor="end" dominant-baseline="middle">kmeans</text>
  <text x="60" y="310" fill="white" font-family="sans-serif" font-weight="bold" font-size="12" text-anchor="end" dominant-baseline="middle">llsq</text>
  <text x="60" y="345" fill="white" font-family="sans-serif" font-weight="bold" font-size="12" text-anchor="end" dominant-baseline="middle">lse</text>
  <text x="60" y="380" fill="white" font-family="sans-serif" font-weight="bold" font-size="12" text-anchor="end" dominant-baseline="middle">lstm</text>
  <text x="60" y="415" fill="white" font-family="sans-serif" font-weight="bold" font-size="12" text-anchor="end" dominant-baseline="middle">ode</text>
  <text x="60" y="450" fill="white" font-family="sans-serif" font-weight="bold" font-size="12" text-anchor="end" dominant-baseline="middle">particle</text>
  <text x="60" y="485" fill="white" font-family="sans-serif" font-weight="bold" font-size="12" text-anchor="end" dominant-baseline="middle">saddle</text>
  <text x="80" y="80" fill="white" font-family="sans-serif" font-weight="bold" font-size="12" text-anchor="end" dominant-baseline="middle" transform="rotate(90 80 80)">ad-hpp</text>
  <text x="115" y="80" fill="white" font-family="sans-serif" font-weight="bold" font-size="12" text-anchor="end" dominant-baseline="middle" transform="rotate(90 115 80)">adept</text>
  <text x="150" y="80" fill="white" font-family="sans-serif" font-weight="bold" font-size="12" text-anchor="end" dominant-baseline="middle" transform="rotate(90 150 80)">adol-c</text>
  <text x="185" y="80" fill="white" font-family="sans-serif" font-weight="bold" font-size="12" text-anchor="end" dominant-baseline="middle" transform="rotate(90 185 80)">codipack</text>
  <text x="220" y="80" fill="white" font-family="sans-serif" font-weight="bold" font-size="12" text-anchor="end" dominant-baseline="middle" transform="rotate(90 220 80)">cppad</text>
  <text x="255" y="80" fill="white" font-family="sans-serif" font-weight="bold" font-size="12" text-anchor="end" dominant-baseline="middle" transform="rotate(90 255 80)">enzyme</text>
  <text x="290" y="80" fill="white" font-family="sans-serif" font-weight="bold" font-size="12" text-anchor="end" dominant-baseline="middle" transform="rotate(90 290 80)">enzyme-jl</text>
  <text x="325" y="80" fill="white" font-family="sans-serif" font-weight="bold" font-size="12" text-anchor="end" dominant-baseline="middle" transform="rotate(90 325 80)">finite</text>
  <text x="360" y="80" fill="white" font-family="sans-serif" font-weight="bold" font-size="12" text-anchor="end" dominant-baseline="middle" transform="rotate(90 360 80)">floretta</text>
  <text x="395" y="80" fill="white" font-family="sans-serif" font-weight="bold" font-size="12" text-anchor="end" dominant-baseline="middle" transform="rotate(90 395 80)">futhark</text>
  <text x="430" y="80" fill="white" font-family="sans-serif" font-weight="bold" font-size="12" text-anchor="end" dominant-baseline="middle" transform="rotate(90 430 80)">haskell</text>
  <text x="465" y="80" fill="white" font-family="sans-serif" font-weight="bold" font-size="12" text-anchor="end" dominant-baseline="middle" transform="rotate(90 465 80)">jax</text>
  <text x="500" y="80" fill="white" font-family="sans-serif" font-weight="bold" font-size="12" text-anchor="end" dominant-baseline="middle" transform="rotate(90 500 80)">manual</text>
  <text x="535" y="80" fill="white" font-family="sans-serif" font-weight="bold" font-size="12" text-anchor="end" dominant-baseline="middle" transform="rotate(90 535 80)">ocaml</text>
  <text x="570" y="80" fill="white" font-family="sans-serif" font-weight="bold" font-size="12" text-anchor="end" dominant-baseline="middle" transform="rotate(90 570 80)">pytorch</text>
  <text x="605" y="80" fill="white" font-family="sans-serif" font-weight="bold" font-size="12" text-anchor="end" dominant-baseline="middle" transform="rotate(90 605 80)">scilean</text>
  <text x="640" y="80" fill="white" font-family="sans-serif" font-weight="bold" font-size="12" text-anchor="end" dominant-baseline="middle" transform="rotate(90 640 80)">tapenade</text>
  <text x="675" y="80" fill="white" font-family="sans-serif" font-weight="bold" font-size="12" text-anchor="end" dominant-baseline="middle" transform="rotate(90 675 80)">tensorflow</text>
  <text x="710" y="80" fill="white" font-family="sans-serif" font-weight="bold" font-size="12" text-anchor="end" dominant-baseline="middle" transform="rotate(90 710 80)">zygote</text>
  <rect x="65" y="85" width="30" height="30" fill="hsl(240 100% 78.62231630257374%)" />
  <rect x="100" y="85" width="30" height="30" fill="hsl(240 100% 83.48952930037426%)" />
  <rect x="135" y="85" width="30" height="30" fill="hsl(240 100% 97.98907063486784%)" />
  <rect x="170" y="85" width="30" height="30" fill="hsl(240 100% 89.09431463579298%)" />
  <rect x="205" y="85" width="30" height="30" fill="hsl(240 100% 98.91143965510176%)" />
  <rect x="240" y="85" width="30" height="30" fill="hsl(240 100% 51.52775078442522%)" />
  <rect x="310" y="85" width="30" height="30" fill="hsl(240 100% 92.69540497003489%)" />
  <rect x="380" y="85" width="30" height="30" fill="hsl(240 100% 68.72632690624911%)" />
  <rect x="485" y="85" width="30" height="30" fill="hsl(240 100% 50%)" />
  <rect x="555" y="85" width="30" height="30" fill="rgb(255 255 255 / 50%)" />
  <rect x="625" y="85" width="30" height="30" fill="hsl(240 100% 72.87848942312192%)" />
  <rect x="660" y="85" width="30" height="30" fill="rgb(255 255 255 / 50%)" />
  <rect x="695" y="85" width="30" height="30" fill="hsl(240 100% 99.71023661649402%)" />
  <rect x="65" y="120" width="30" height="30" fill="hsl(240 100% 50%)" />
  <rect x="100" y="120" width="30" height="30" fill="hsl(240 100% 84.09945504561152%)" />
  <rect x="135" y="120" width="30" height="30" fill="hsl(240 100% 86.32932675752282%)" />
  <rect x="170" y="120" width="30" height="30" fill="hsl(240 100% 50.85546145658004%)" />
  <rect x="205" y="120" width="30" height="30" fill="hsl(240 100% 92.85308831056406%)" />
  <rect x="240" y="120" width="30" height="30" fill="hsl(240 100% 91.86554802304215%)" />
  <rect x="275" y="120" width="30" height="30" fill="hsl(240 100% 99.2186587580182%)" />
  <rect x="310" y="120" width="30" height="30" fill="hsl(240 100% 99.00040397823973%)" />
  <rect x="380" y="120" width="30" height="30" fill="hsl(240 100% 94.80266834902736%)" />
  <rect x="415" y="120" width="30" height="30" fill="hsl(240 100% 97.98102211593728%)" />
  <rect x="485" y="120" width="30" height="30" fill="hsl(240 100% 79.96155496106533%)" />
  <rect x="695" y="120" width="30" height="30" fill="rgb(255 255 255 / 50%)" />
  <rect x="65" y="155" width="30" height="30" fill="hsl(240 100% 97.05785620592488%)" />
  <rect x="100" y="155" width="30" height="30" fill="hsl(240 100% 98.20914024606304%)" />
  <rect x="135" y="155" width="30" height="30" fill="hsl(240 100% 98.77095122463194%)" />
  <rect x="170" y="155" width="30" height="30" fill="hsl(240 100% 97.05126700347215%)" />
  <rect x="205" y="155" width="30" height="30" fill="hsl(240 100% 99.75404639612437%)" />
  <rect x="240" y="155" width="30" height="30" fill="hsl(240 100% 85.94056967259543%)" />
  <rect x="275" y="155" width="30" height="30" fill="hsl(240 100% 99.81324480721503%)" />
  <rect x="310" y="155" width="30" height="30" fill="rgb(255 255 255 / 50%)" />
  <rect x="380" y="155" width="30" height="30" fill="hsl(240 100% 89.24462283697333%)" />
  <rect x="450" y="155" width="30" height="30" fill="hsl(240 100% 68.3142410534209%)" />
  <rect x="485" y="155" width="30" height="30" fill="hsl(240 100% 73.93563461322756%)" />
  <rect x="520" y="155" width="30" height="30" fill="hsl(240 100% 99.32549919366407%)" />
  <rect x="555" y="155" width="30" height="30" fill="hsl(240 100% 50%)" />
  <rect x="590" y="155" width="30" height="30" fill="hsl(240 100% 92.08919264540494%)" />
  <rect x="625" y="155" width="30" height="30" fill="hsl(240 100% 74.64395835974763%)" />
  <rect x="660" y="155" width="30" height="30" fill="hsl(240 100% 88.03720815585943%)" />
  <rect x="695" y="155" width="30" height="30" fill="hsl(240 100% 99.30688609748516%)" />
  <rect x="65" y="190" width="30" height="30" fill="hsl(240 100% 50%)" />
  <rect x="100" y="190" width="30" height="30" fill="hsl(240 100% 50%)" />
  <rect x="135" y="190" width="30" height="30" fill="hsl(240 100% 50%)" />
  <rect x="170" y="190" width="30" height="30" fill="hsl(240 100% 50%)" />
  <rect x="205" y="190" width="30" height="30" fill="hsl(240 100% 50%)" />
  <rect x="240" y="190" width="30" height="30" fill="hsl(240 100% 50%)" />
  <rect x="275" y="190" width="30" height="30" fill="hsl(240 100% 50%)" />
  <rect x="310" y="190" width="30" height="30" fill="hsl(240 100% 50%)" />
  <rect x="345" y="190" width="30" height="30" fill="hsl(240 100% 50%)" />
  <rect x="380" y="190" width="30" height="30" fill="hsl(240 100% 50%)" />
  <rect x="415" y="190" width="30" height="30" fill="hsl(240 100% 50%)" />
  <rect x="450" y="190" width="30" height="30" fill="hsl(240 100% 50%)" />
  <rect x="485" y="190" width="30" height="30" fill="hsl(240 100% 50%)" />
  <rect x="520" y="190" width="30" height="30" fill="hsl(240 100% 50%)" />
  <rect x="555" y="190" width="30" height="30" fill="hsl(240 100% 50%)" />
  <rect x="590" y="190" width="30" height="30" fill="hsl(240 100% 50%)" />
  <rect x="625" y="190" width="30" height="30" fill="hsl(240 100% 50%)" />
  <rect x="660" y="190" width="30" height="30" fill="hsl(240 100% 50%)" />
  <rect x="695" y="190" width="30" height="30" fill="hsl(240 100% 50%)" />
  <rect x="100" y="225" width="30" height="30" fill="hsl(240 100% 96.01293638972449%)" />
  <rect x="135" y="225" width="30" height="30" fill="hsl(240 100% 90.33185633251462%)" />
  <rect x="170" y="225" width="30" height="30" fill="hsl(240 100% 88.09311351305689%)" />
  <rect x="240" y="225" width="30" height="30" fill="hsl(240 100% 90.3615002428708%)" />
  <rect x="310" y="225" width="30" height="30" fill="rgb(255 255 255 / 50%)" />
  <rect x="380" y="225" width="30" height="30" fill="hsl(240 100% 89.6053972572395%)" />
  <rect x="485" y="225" width="30" height="30" fill="hsl(240 100% 50%)" />
  <rect x="555" y="225" width="30" height="30" fill="rgb(255 255 255 / 50%)" />
  <rect x="625" y="225" width="30" height="30" fill="rgb(255 255 255 / 50%)" />
  <rect x="660" y="225" width="30" height="30" fill="rgb(255 255 255 / 50%)" />
  <rect x="695" y="225" width="30" height="30" fill="hsl(240 100% 99.4361503741625%)" />
  <rect x="135" y="260" width="30" height="30" fill="hsl(240 100% 99.91544973318581%)" />
  <rect x="170" y="260" width="30" height="30" fill="hsl(240 100% 99.3476027895172%)" />
  <rect x="205" y="260" width="30" height="30" fill="rgb(255 255 255 / 50%)" />
  <rect x="240" y="260" width="30" height="30" fill="hsl(240 100% 87.80341409526181%)" />
  <rect x="310" y="260" width="30" height="30" fill="rgb(255 255 255 / 50%)" />
  <rect x="380" y="260" width="30" height="30" fill="hsl(240 100% 82.83229144719849%)" />
  <rect x="415" y="260" width="30" height="30" fill="rgb(255 255 255 / 50%)" />
  <rect x="450" y="260" width="30" height="30" fill="hsl(240 100% 50%)" />
  <rect x="485" y="260" width="30" height="30" fill="hsl(240 100% 76.19701928669998%)" />
  <rect x="555" y="260" width="30" height="30" fill="hsl(240 100% 96.8813708375491%)" />
  <rect x="590" y="260" width="30" height="30" fill="hsl(240 100% 94.0463526353905%)" />
  <rect x="65" y="295" width="30" height="30" fill="hsl(240 100% 58.792474923149435%)" />
  <rect x="100" y="295" width="30" height="30" fill="hsl(240 100% 67.04250976319544%)" />
  <rect x="135" y="295" width="30" height="30" fill="hsl(240 100% 58.899665726296554%)" />
  <rect x="170" y="295" width="30" height="30" fill="hsl(240 100% 59.92866569543923%)" />
  <rect x="205" y="295" width="30" height="30" fill="hsl(240 100% 91.58868630283004%)" />
  <rect x="240" y="295" width="30" height="30" fill="hsl(240 100% 50%)" />
  <rect x="275" y="295" width="30" height="30" fill="hsl(240 100% 98.84236156110748%)" />
  <rect x="310" y="295" width="30" height="30" fill="hsl(240 100% 99.42644444858307%)" />
  <rect x="380" y="295" width="30" height="30" fill="hsl(240 100% 50.723600011781635%)" />
  <rect x="415" y="295" width="30" height="30" fill="hsl(240 100% 89.79285722325967%)" />
  <rect x="485" y="295" width="30" height="30" fill="hsl(240 100% 53.406514925460165%)" />
  <rect x="590" y="295" width="30" height="30" fill="hsl(240 100% 55.234155336422155%)" />
  <rect x="695" y="295" width="30" height="30" fill="hsl(240 100% 99.72314048688447%)" />
  <rect x="65" y="330" width="30" height="30" fill="hsl(240 100% 89.22794813795383%)" />
  <rect x="100" y="330" width="30" height="30" fill="hsl(240 100% 94.55555478090339%)" />
  <rect x="135" y="330" width="30" height="30" fill="hsl(240 100% 97.27387759144665%)" />
  <rect x="170" y="330" width="30" height="30" fill="hsl(240 100% 89.43013721856002%)" />
  <rect x="205" y="330" width="30" height="30" fill="hsl(240 100% 99.19847326891136%)" />
  <rect x="240" y="330" width="30" height="30" fill="hsl(240 100% 81.35103332919005%)" />
  <rect x="275" y="330" width="30" height="30" fill="hsl(240 100% 99.83179495837773%)" />
  <rect x="310" y="330" width="30" height="30" fill="rgb(255 255 255 / 50%)" />
  <rect x="380" y="330" width="30" height="30" fill="hsl(240 100% 85.86412590858674%)" />
  <rect x="415" y="330" width="30" height="30" fill="hsl(240 100% 99.80390359110599%)" />
  <rect x="450" y="330" width="30" height="30" fill="hsl(240 100% 70.32899049893513%)" />
  <rect x="485" y="330" width="30" height="30" fill="hsl(240 100% 78.29164951869062%)" />
  <rect x="520" y="330" width="30" height="30" fill="hsl(240 100% 93.3761588323286%)" />
  <rect x="555" y="330" width="30" height="30" fill="hsl(240 100% 50%)" />
  <rect x="660" y="330" width="30" height="30" fill="hsl(240 100% 88.18335460603947%)" />
  <rect x="695" y="330" width="30" height="30" fill="hsl(240 100% 95.47344896545536%)" />
  <rect x="65" y="365" width="30" height="30" fill="hsl(240 100% 52.86705994189164%)" />
  <rect x="100" y="365" width="30" height="30" fill="hsl(240 100% 68.67077843548826%)" />
  <rect x="135" y="365" width="30" height="30" fill="hsl(240 100% 80.33357825971842%)" />
  <rect x="170" y="365" width="30" height="30" fill="hsl(240 100% 50%)" />
  <rect x="205" y="365" width="30" height="30" fill="hsl(240 100% 95.75460511051526%)" />
  <rect x="240" y="365" width="30" height="30" fill="hsl(240 100% 50.61125119054131%)" />
  <rect x="275" y="365" width="30" height="30" fill="hsl(240 100% 98.90833999279559%)" />
  <rect x="310" y="365" width="30" height="30" fill="hsl(240 100% 99.85165285531072%)" />
  <rect x="380" y="365" width="30" height="30" fill="hsl(240 100% 63.32574215233098%)" />
  <rect x="485" y="365" width="30" height="30" fill="hsl(240 100% 84.54085773883885%)" />
  <rect x="555" y="365" width="30" height="30" fill="hsl(240 100% 99.59064443637264%)" />
  <rect x="625" y="365" width="30" height="30" fill="hsl(240 100% 59.44560811311678%)" />
  <rect x="660" y="365" width="30" height="30" fill="hsl(240 100% 98.0249961351867%)" />
  <rect x="695" y="365" width="30" height="30" fill="hsl(240 100% 99.09755513084139%)" />
  <rect x="65" y="400" width="30" height="30" fill="hsl(240 100% 97.41891002251359%)" />
  <rect x="100" y="400" width="30" height="30" fill="hsl(240 100% 99.2305074784673%)" />
  <rect x="135" y="400" width="30" height="30" fill="hsl(240 100% 99.5618892192518%)" />
  <rect x="170" y="400" width="30" height="30" fill="hsl(240 100% 93.74899205126563%)" />
  <rect x="205" y="400" width="30" height="30" fill="hsl(240 100% 98.97243230126698%)" />
  <rect x="240" y="400" width="30" height="30" fill="hsl(240 100% 85.01453106000226%)" />
  <rect x="275" y="400" width="30" height="30" fill="hsl(240 100% 99.03194450725825%)" />
  <rect x="310" y="400" width="30" height="30" fill="rgb(255 255 255 / 50%)" />
  <rect x="380" y="400" width="30" height="30" fill="hsl(240 100% 95.31248220185512%)" />
  <rect x="415" y="400" width="30" height="30" fill="hsl(240 100% 99.96051877905288%)" />
  <rect x="485" y="400" width="30" height="30" fill="hsl(240 100% 50%)" />
  <rect x="695" y="400" width="30" height="30" fill="hsl(240 100% 99.62621365405487%)" />
  <rect x="240" y="435" width="30" height="30" fill="hsl(240 100% 50%)" />
  <rect x="310" y="435" width="30" height="30" fill="hsl(240 100% 95.18716318537437%)" />
  <rect x="380" y="435" width="30" height="30" fill="hsl(240 100% 87.92493811113914%)" />
  <rect x="415" y="435" width="30" height="30" fill="hsl(240 100% 99.77398685100636%)" />
  <rect x="240" y="470" width="30" height="30" fill="hsl(240 100% 50%)" />
  <rect x="310" y="470" width="30" height="30" fill="hsl(240 100% 95.83206841640163%)" />
  <rect x="380" y="470" width="30" height="30" fill="hsl(240 100% 88.97469696285012%)" />
  <rect x="415" y="470" width="30" height="30" fill="hsl(240 100% 99.56529382933638%)" />
</svg>
