<svg xmlns="http://www.w3.org/2000/svg" viewBox="0 0 870 505">
  <rect x="0" y="0" width="870" height="505" rx="5" ry="5" fill="#222" />
  <text x="60" y="100" fill="white" font-family="sans-serif" font-weight="bold" font-size="12" text-anchor="end" dominant-baseline="middle">ba</text>
  <text x="60" y="135" fill="white" font-family="sans-serif" font-weight="bold" font-size="12" text-anchor="end" dominant-baseline="middle">det</text>
  <text x="60" y="170" fill="white" font-family="sans-serif" font-weight="bold" font-size="12" text-anchor="end" dominant-baseline="middle">gmm</text>
  <text x="60" y="205" fill="white" font-family="sans-serif" font-weight="bold" font-size="12" text-anchor="end" dominant-baseline="middle">hello</text>
  <text x="60" y="240" fill="white" font-family="sans-serif" font-weight="bold" font-size="12" text-anchor="end" dominant-baseline="middle">ht</text>
  <text x="60" y="275" fill="white" font-family="sans-serif" font-weight="bold" font-size="12" text-anchor="end" dominant-baseline="middle">kmeans</text>
  <text x="60" y="310" fill="white" font-family="sans-serif" font-weight="bold" font-size="12" text-anchor="end" dominant-baseline="middle">llsq</text>
  <text x="60" y="345" fill="white" font-family="sans-serif" font-weight="bold" font-size="12" text-anchor="end" dominant-baseline="middle">lse</text>
  <text x="60" y="380" fill="white" font-family="sans-serif" font-weight="bold" font-size="12" text-anchor="end" dominant-baseline="middle">lstm</text>
  <text x="60" y="415" fill="white" font-family="sans-serif" font-weight="bold" font-size="12" text-anchor="end" dominant-baseline="middle">ode</text>
  <text x="60" y="450" fill="white" font-family="sans-serif" font-weight="bold" font-size="12" text-anchor="end" dominant-baseline="middle">particle</text>
  <text x="60" y="485" fill="white" font-family="sans-serif" font-weight="bold" font-size="12" text-anchor="end" dominant-baseline="middle">saddle</text>
  <text x="80" y="80" fill="white" font-family="sans-serif" font-weight="bold" font-size="12" text-anchor="end" dominant-baseline="middle" transform="rotate(90 80 80)">ad-hpp</text>
  <text x="115" y="80" fill="white" font-family="sans-serif" font-weight="bold" font-size="12" text-anchor="end" dominant-baseline="middle" transform="rotate(90 115 80)">adept</text>
  <text x="150" y="80" fill="white" font-family="sans-serif" font-weight="bold" font-size="12" text-anchor="end" dominant-baseline="middle" transform="rotate(90 150 80)">adol-c</text>
  <text x="185" y="80" fill="white" font-family="sans-serif" font-weight="bold" font-size="12" text-anchor="end" dominant-baseline="middle" transform="rotate(90 185 80)">codipack</text>
  <text x="220" y="80" fill="white" font-family="sans-serif" font-weight="bold" font-size="12" text-anchor="end" dominant-baseline="middle" transform="rotate(90 220 80)">cppad</text>
  <text x="255" y="80" fill="white" font-family="sans-serif" font-weight="bold" font-size="12" text-anchor="end" dominant-baseline="middle" transform="rotate(90 255 80)">enzyme</text>
  <text x="290" y="80" fill="white" font-family="sans-serif" font-weight="bold" font-size="12" text-anchor="end" dominant-baseline="middle" transform="rotate(90 290 80)">enzyme-jl</text>
  <text x="325" y="80" fill="white" font-family="sans-serif" font-weight="bold" font-size="12" text-anchor="end" dominant-baseline="middle" transform="rotate(90 325 80)">finite</text>
  <text x="360" y="80" fill="white" font-family="sans-serif" font-weight="bold" font-size="12" text-anchor="end" dominant-baseline="middle" transform="rotate(90 360 80)">floretta</text>
  <text x="395" y="80" fill="white" font-family="sans-serif" font-weight="bold" font-size="12" text-anchor="end" dominant-baseline="middle" transform="rotate(90 395 80)">forwarddiff-jl</text>
  <text x="430" y="80" fill="white" font-family="sans-serif" font-weight="bold" font-size="12" text-anchor="end" dominant-baseline="middle" transform="rotate(90 430 80)">futhark</text>
  <text x="465" y="80" fill="white" font-family="sans-serif" font-weight="bold" font-size="12" text-anchor="end" dominant-baseline="middle" transform="rotate(90 465 80)">haskell</text>
  <text x="500" y="80" fill="white" font-family="sans-serif" font-weight="bold" font-size="12" text-anchor="end" dominant-baseline="middle" transform="rotate(90 500 80)">jax</text>
  <text x="535" y="80" fill="white" font-family="sans-serif" font-weight="bold" font-size="12" text-anchor="end" dominant-baseline="middle" transform="rotate(90 535 80)">manual</text>
  <text x="570" y="80" fill="white" font-family="sans-serif" font-weight="bold" font-size="12" text-anchor="end" dominant-baseline="middle" transform="rotate(90 570 80)">mooncake-jl</text>
  <text x="605" y="80" fill="white" font-family="sans-serif" font-weight="bold" font-size="12" text-anchor="end" dominant-baseline="middle" transform="rotate(90 605 80)">ocaml</text>
  <text x="640" y="80" fill="white" font-family="sans-serif" font-weight="bold" font-size="12" text-anchor="end" dominant-baseline="middle" transform="rotate(90 640 80)">pytorch</text>
  <text x="675" y="80" fill="white" font-family="sans-serif" font-weight="bold" font-size="12" text-anchor="end" dominant-baseline="middle" transform="rotate(90 675 80)">reversediff-jl</text>
  <text x="710" y="80" fill="white" font-family="sans-serif" font-weight="bold" font-size="12" text-anchor="end" dominant-baseline="middle" transform="rotate(90 710 80)">scilean</text>
  <text x="745" y="80" fill="white" font-family="sans-serif" font-weight="bold" font-size="12" text-anchor="end" dominant-baseline="middle" transform="rotate(90 745 80)">tapenade</text>
  <text x="780" y="80" fill="white" font-family="sans-serif" font-weight="bold" font-size="12" text-anchor="end" dominant-baseline="middle" transform="rotate(90 780 80)">tensorflow</text>
  <text x="815" y="80" fill="white" font-family="sans-serif" font-weight="bold" font-size="12" text-anchor="end" dominant-baseline="middle" transform="rotate(90 815 80)">tensorflow-js</text>
  <text x="850" y="80" fill="white" font-family="sans-serif" font-weight="bold" font-size="12" text-anchor="end" dominant-baseline="middle" transform="rotate(90 850 80)">zygote</text>
  <rect x="65" y="85" width="30" height="30" fill="hsl(240 100% 81.20813784212193%)" />
  <rect x="100" y="85" width="30" height="30" fill="hsl(240 100% 81.69567981614958%)" />
  <rect x="135" y="85" width="30" height="30" fill="hsl(240 100% 97.90439567017825%)" />
  <rect x="170" y="85" width="30" height="30" fill="hsl(240 100% 82.09928356142838%)" />
  <rect x="205" y="85" width="30" height="30" fill="hsl(240 100% 98.98595697640773%)" />
  <rect x="240" y="85" width="30" height="30" fill="hsl(240 100% 50.31304266506896%)" />
  <rect x="310" y="85" width="30" height="30" fill="hsl(240 100% 91.97730381938243%)" />
  <rect x="415" y="85" width="30" height="30" fill="hsl(240 100% 68.20884180024407%)" />
  <rect x="520" y="85" width="30" height="30" fill="hsl(240 100% 50%)" />
  <rect x="625" y="85" width="30" height="30" fill="rgb(255 255 255 / 50%)" />
  <rect x="730" y="85" width="30" height="30" fill="hsl(240 100% 74.56055512333194%)" />
  <rect x="765" y="85" width="30" height="30" fill="rgb(255 255 255 / 50%)" />
  <rect x="835" y="85" width="30" height="30" fill="hsl(240 100% 99.76570863675043%)" />
  <rect x="65" y="120" width="30" height="30" fill="hsl(240 100% 58.94818717537265%)" />
  <rect x="100" y="120" width="30" height="30" fill="hsl(240 100% 80.66009804498242%)" />
  <rect x="135" y="120" width="30" height="30" fill="hsl(240 100% 84.8810357249401%)" />
  <rect x="170" y="120" width="30" height="30" fill="hsl(240 100% 50%)" />
  <rect x="205" y="120" width="30" height="30" fill="hsl(240 100% 91.52464002724473%)" />
  <rect x="240" y="120" width="30" height="30" fill="hsl(240 100% 91.76087578646388%)" />
  <rect x="275" y="120" width="30" height="30" fill="hsl(240 100% 99.33096311260098%)" />
  <rect x="310" y="120" width="30" height="30" fill="hsl(240 100% 98.95499720857622%)" />
  <rect x="380" y="120" width="30" height="30" fill="hsl(240 100% 93.04501176352998%)" />
  <rect x="415" y="120" width="30" height="30" fill="hsl(240 100% 94.40154594132704%)" />
  <rect x="450" y="120" width="30" height="30" fill="hsl(240 100% 97.88242773204098%)" />
  <rect x="520" y="120" width="30" height="30" fill="hsl(240 100% 78.77005711871118%)" />
  <rect x="555" y="120" width="30" height="30" fill="hsl(240 100% 96.76016434937917%)" />
  <rect x="660" y="120" width="30" height="30" fill="rgb(255 255 255 / 50%)" />
  <rect x="835" y="120" width="30" height="30" fill="rgb(255 255 255 / 50%)" />
  <rect x="65" y="155" width="30" height="30" fill="hsl(240 100% 98.62506520259349%)" />
  <rect x="100" y="155" width="30" height="30" fill="hsl(240 100% 98.79124195112243%)" />
  <rect x="135" y="155" width="30" height="30" fill="hsl(240 100% 99.14604137161203%)" />
  <rect x="170" y="155" width="30" height="30" fill="hsl(240 100% 98.09491741534617%)" />
  <rect x="205" y="155" width="30" height="30" fill="hsl(240 100% 99.8528145012943%)" />
  <rect x="240" y="155" width="30" height="30" fill="hsl(240 100% 91.84568035712987%)" />
  <rect x="275" y="155" width="30" height="30" fill="hsl(240 100% 91.64459789800111%)" />
  <rect x="310" y="155" width="30" height="30" fill="rgb(255 255 255 / 50%)" />
  <rect x="415" y="155" width="30" height="30" fill="hsl(240 100% 93.22551991073979%)" />
  <rect x="485" y="155" width="30" height="30" fill="hsl(240 100% 50%)" />
  <rect x="520" y="155" width="30" height="30" fill="hsl(240 100% 81.94917944437086%)" />
  <rect x="555" y="155" width="30" height="30" fill="hsl(240 100% 96.09148314073454%)" />
  <rect x="590" y="155" width="30" height="30" fill="hsl(240 100% 99.59817605878166%)" />
  <rect x="625" y="155" width="30" height="30" fill="hsl(240 100% 66.46578267848395%)" />
  <rect x="695" y="155" width="30" height="30" fill="hsl(240 100% 95.6099851835878%)" />
  <rect x="730" y="155" width="30" height="30" fill="hsl(240 100% 91.87207658971568%)" />
  <rect x="765" y="155" width="30" height="30" fill="hsl(240 100% 99.59540850370826%)" />
  <rect x="835" y="155" width="30" height="30" fill="hsl(240 100% 96.15177644471127%)" />
  <rect x="65" y="190" width="30" height="30" fill="hsl(240 100% 50%)" />
  <rect x="100" y="190" width="30" height="30" fill="hsl(240 100% 50%)" />
  <rect x="135" y="190" width="30" height="30" fill="hsl(240 100% 50%)" />
  <rect x="170" y="190" width="30" height="30" fill="hsl(240 100% 50%)" />
  <rect x="205" y="190" width="30" height="30" fill="hsl(240 100% 50%)" />
  <rect x="240" y="190" width="30" height="30" fill="hsl(240 100% 50%)" />
  <rect x="275" y="190" width="30" height="30" fill="hsl(240 100% 50%)" />
  <rect x="310" y="190" width="30" height="30" fill="hsl(240 100% 50%)" />
  <rect x="345" y="190" width="30" height="30" fill="hsl(240 100% 50%)" />
  <rect x="380" y="190" width="30" height="30" fill="hsl(240 100% 50%)" />
  <rect x="415" y="190" width="30" height="30" fill="hsl(240 100% 50%)" />
  <rect x="450" y="190" width="30" height="30" fill="hsl(240 100% 50%)" />
  <rect x="485" y="190" width="30" height="30" fill="hsl(240 100% 50%)" />
  <rect x="520" y="190" width="30" height="30" fill="hsl(240 100% 50%)" />
  <rect x="555" y="190" width="30" height="30" fill="hsl(240 100% 50%)" />
  <rect x="590" y="190" width="30" height="30" fill="hsl(240 100% 50%)" />
  <rect x="625" y="190" width="30" height="30" fill="hsl(240 100% 50%)" />
  <rect x="660" y="190" width="30" height="30" fill="hsl(240 100% 50%)" />
  <rect x="695" y="190" width="30" height="30" fill="hsl(240 100% 50%)" />
  <rect x="730" y="190" width="30" height="30" fill="hsl(240 100% 50%)" />
  <rect x="765" y="190" width="30" height="30" fill="hsl(240 100% 50%)" />
  <rect x="800" y="190" width="30" height="30" fill="hsl(240 100% 50%)" />
  <rect x="835" y="190" width="30" height="30" fill="hsl(240 100% 50%)" />
  <rect x="100" y="225" width="30" height="30" fill="hsl(240 100% 96.13488271041669%)" />
  <rect x="135" y="225" width="30" height="30" fill="hsl(240 100% 86.3727398269775%)" />
  <rect x="170" y="225" width="30" height="30" fill="hsl(240 100% 87.92442585009242%)" />
  <rect x="240" y="225" width="30" height="30" fill="hsl(240 100% 90.31727985880048%)" />
  <rect x="310" y="225" width="30" height="30" fill="rgb(255 255 255 / 50%)" />
  <rect x="415" y="225" width="30" height="30" fill="hsl(240 100% 89.24944297853803%)" />
  <rect x="520" y="225" width="30" height="30" fill="hsl(240 100% 50%)" />
  <rect x="625" y="225" width="30" height="30" fill="rgb(255 255 255 / 50%)" />
  <rect x="730" y="225" width="30" height="30" fill="hsl(240 100% 92.4379474761733%)" />
  <rect x="765" y="225" width="30" height="30" fill="rgb(255 255 255 / 50%)" />
  <rect x="835" y="225" width="30" height="30" fill="hsl(240 100% 93.02437588391568%)" />
  <rect x="135" y="260" width="30" height="30" fill="hsl(240 100% 99.87371917014056%)" />
  <rect x="170" y="260" width="30" height="30" fill="hsl(240 100% 99.35052590264522%)" />
  <rect x="205" y="260" width="30" height="30" fill="rgb(255 255 255 / 50%)" />
  <rect x="240" y="260" width="30" height="30" fill="hsl(240 100% 87.05325759520635%)" />
  <rect x="310" y="260" width="30" height="30" fill="rgb(255 255 255 / 50%)" />
  <rect x="380" y="260" width="30" height="30" fill="rgb(255 255 255 / 50%)" />
  <rect x="415" y="260" width="30" height="30" fill="hsl(240 100% 81.9095757275729%)" />
  <rect x="450" y="260" width="30" height="30" fill="rgb(255 255 255 / 50%)" />
  <rect x="485" y="260" width="30" height="30" fill="hsl(240 100% 50%)" />
  <rect x="520" y="260" width="30" height="30" fill="hsl(240 100% 72.71000137021383%)" />
  <rect x="625" y="260" width="30" height="30" fill="hsl(240 100% 97.04579874871867%)" />
  <rect x="660" y="260" width="30" height="30" fill="rgb(255 255 255 / 50%)" />
  <rect x="695" y="260" width="30" height="30" fill="hsl(240 100% 94.19034101667101%)" />
  <rect x="65" y="295" width="30" height="30" fill="hsl(240 100% 86.09872665722597%)" />
  <rect x="100" y="295" width="30" height="30" fill="hsl(240 100% 97.18358302533753%)" />
  <rect x="135" y="295" width="30" height="30" fill="hsl(240 100% 95.04682819486226%)" />
  <rect x="170" y="295" width="30" height="30" fill="hsl(240 100% 89.2073609825767%)" />
  <rect x="205" y="295" width="30" height="30" fill="hsl(240 100% 99.4756840845243%)" />
  <rect x="240" y="295" width="30" height="30" fill="hsl(240 100% 50%)" />
  <rect x="275" y="295" width="30" height="30" fill="hsl(240 100% 54.466937607011275%)" />
  <rect x="310" y="295" width="30" height="30" fill="hsl(240 100% 99.4932979408789%)" />
  <rect x="345" y="295" width="30" height="30" fill="hsl(240 100% 95.15846175079228%)" />
  <rect x="415" y="295" width="30" height="30" fill="hsl(240 100% 56.249011078167655%)" />
  <rect x="450" y="295" width="30" height="30" fill="hsl(240 100% 99.25493616675553%)" />
  <rect x="485" y="295" width="30" height="30" fill="hsl(240 100% 87.6685033400535%)" />
  <rect x="520" y="295" width="30" height="30" fill="hsl(240 100% 59.725729327150226%)" />
  <rect x="555" y="295" width="30" height="30" fill="hsl(240 100% 90.63462310069026%)" />
  <rect x="695" y="295" width="30" height="30" fill="hsl(240 100% 97.58166924115893%)" />
  <rect x="800" y="295" width="30" height="30" fill="hsl(240 100% 99.58259300039893%)" />
  <rect x="835" y="295" width="30" height="30" fill="hsl(240 100% 99.9592529596543%)" />
  <rect x="65" y="330" width="30" height="30" fill="hsl(240 100% 87.29652467834309%)" />
  <rect x="100" y="330" width="30" height="30" fill="hsl(240 100% 93.98923526449641%)" />
  <rect x="135" y="330" width="30" height="30" fill="hsl(240 100% 96.83665700126426%)" />
  <rect x="170" y="330" width="30" height="30" fill="hsl(240 100% 86.79039799937397%)" />
  <rect x="205" y="330" width="30" height="30" fill="hsl(240 100% 99.20137559560055%)" />
  <rect x="240" y="330" width="30" height="30" fill="hsl(240 100% 79.21467611789507%)" />
  <rect x="275" y="330" width="30" height="30" fill="hsl(240 100% 89.45339964720502%)" />
  <rect x="310" y="330" width="30" height="30" fill="rgb(255 255 255 / 50%)" />
  <rect x="345" y="330" width="30" height="30" fill="hsl(240 100% 97.16956298837373%)" />
  <rect x="415" y="330" width="30" height="30" fill="hsl(240 100% 85.4456708248904%)" />
  <rect x="450" y="330" width="30" height="30" fill="hsl(240 100% 99.80950761485335%)" />
  <rect x="485" y="330" width="30" height="30" fill="hsl(240 100% 75.19156816164534%)" />
  <rect x="520" y="330" width="30" height="30" fill="hsl(240 100% 70.22809445600234%)" />
  <rect x="555" y="330" width="30" height="30" fill="hsl(240 100% 91.15197504153599%)" />
  <rect x="590" y="330" width="30" height="30" fill="hsl(240 100% 93.55295171316877%)" />
  <rect x="625" y="330" width="30" height="30" fill="hsl(240 100% 50%)" />
  <rect x="765" y="330" width="30" height="30" fill="hsl(240 100% 94.32079675245494%)" />
  <rect x="800" y="330" width="30" height="30" fill="hsl(240 100% 99.2140214597648%)" />
  <rect x="835" y="330" width="30" height="30" fill="hsl(240 100% 96.49895224421716%)" />
  <rect x="65" y="365" width="30" height="30" fill="hsl(240 100% 56.77681446709788%)" />
  <rect x="100" y="365" width="30" height="30" fill="hsl(240 100% 68.69608066654365%)" />
  <rect x="135" y="365" width="30" height="30" fill="hsl(240 100% 81.43382539547983%)" />
  <rect x="170" y="365" width="30" height="30" fill="hsl(240 100% 50%)" />
  <rect x="205" y="365" width="30" height="30" fill="hsl(240 100% 95.93023704623552%)" />
  <rect x="240" y="365" width="30" height="30" fill="hsl(240 100% 59.14991173698556%)" />
  <rect x="275" y="365" width="30" height="30" fill="hsl(240 100% 92.46307401314255%)" />
  <rect x="310" y="365" width="30" height="30" fill="hsl(240 100% 99.85873137606734%)" />
  <rect x="415" y="365" width="30" height="30" fill="hsl(240 100% 60.44875899512961%)" />
  <rect x="520" y="365" width="30" height="30" fill="hsl(240 100% 86.525167510761%)" />
  <rect x="555" y="365" width="30" height="30" fill="hsl(240 100% 94.46614930176405%)" />
  <rect x="625" y="365" width="30" height="30" fill="hsl(240 100% 99.63192530311731%)" />
  <rect x="730" y="365" width="30" height="30" fill="hsl(240 100% 62.57013070755161%)" />
  <rect x="765" y="365" width="30" height="30" fill="hsl(240 100% 98.15713660626616%)" />
  <rect x="835" y="365" width="30" height="30" fill="hsl(240 100% 98.77377677290748%)" />
  <rect x="65" y="400" width="30" height="30" fill="hsl(240 100% 99.1354746186145%)" />
  <rect x="100" y="400" width="30" height="30" fill="hsl(240 100% 99.34901528874535%)" />
  <rect x="135" y="400" width="30" height="30" fill="hsl(240 100% 99.65791425783665%)" />
  <rect x="170" y="400" width="30" height="30" fill="hsl(240 100% 94.47761336952182%)" />
  <rect x="205" y="400" width="30" height="30" fill="hsl(240 100% 99.23409059108356%)" />
  <rect x="240" y="400" width="30" height="30" fill="hsl(240 100% 88.03368545761427%)" />
  <rect x="275" y="400" width="30" height="30" fill="hsl(240 100% 95.4033971770562%)" />
  <rect x="310" y="400" width="30" height="30" fill="rgb(255 255 255 / 50%)" />
  <rect x="380" y="400" width="30" height="30" fill="rgb(255 255 255 / 50%)" />
  <rect x="415" y="400" width="30" height="30" fill="hsl(240 100% 93.94128873416582%)" />
  <rect x="450" y="400" width="30" height="30" fill="hsl(240 100% 99.97229155116737%)" />
  <rect x="485" y="400" width="30" height="30" fill="hsl(240 100% 78.47527673766096%)" />
  <rect x="520" y="400" width="30" height="30" fill="hsl(240 100% 50%)" />
  <rect x="555" y="400" width="30" height="30" fill="hsl(240 100% 99.09927242206139%)" />
  <rect x="660" y="400" width="30" height="30" fill="rgb(255 255 255 / 50%)" />
  <rect x="835" y="400" width="30" height="30" fill="hsl(240 100% 99.3514185717979%)" />
  <rect x="65" y="435" width="30" height="30" fill="hsl(240 100% 93.3004162162273%)" />
  <rect x="240" y="435" width="30" height="30" fill="hsl(240 100% 50%)" />
  <rect x="310" y="435" width="30" height="30" fill="hsl(240 100% 93.85431037153965%)" />
  <rect x="415" y="435" width="30" height="30" fill="hsl(240 100% 87.866570767068%)" />
  <rect x="450" y="435" width="30" height="30" fill="hsl(240 100% 99.79298242039188%)" />
  <rect x="65" y="470" width="30" height="30" fill="hsl(240 100% 50%)" />
  <rect x="240" y="470" width="30" height="30" fill="hsl(240 100% 50.40924960823565%)" />
  <rect x="310" y="470" width="30" height="30" fill="hsl(240 100% 96.98865578382768%)" />
  <rect x="415" y="470" width="30" height="30" fill="hsl(240 100% 89.92519458854143%)" />
  <rect x="450" y="470" width="30" height="30" fill="hsl(240 100% 99.58019209483916%)" />
</svg>
