<svg xmlns="http://www.w3.org/2000/svg" viewBox="0 0 905 505">
  <rect x="0" y="0" width="905" height="505" rx="5" ry="5" fill="#222" />
  <text x="60" y="100" fill="white" font-family="sans-serif" font-weight="bold" font-size="12" text-anchor="end" dominant-baseline="middle">ba</text>
  <text x="60" y="135" fill="white" font-family="sans-serif" font-weight="bold" font-size="12" text-anchor="end" dominant-baseline="middle">det</text>
  <text x="60" y="170" fill="white" font-family="sans-serif" font-weight="bold" font-size="12" text-anchor="end" dominant-baseline="middle">gmm</text>
  <text x="60" y="205" fill="white" font-family="sans-serif" font-weight="bold" font-size="12" text-anchor="end" dominant-baseline="middle">hello</text>
  <text x="60" y="240" fill="white" font-family="sans-serif" font-weight="bold" font-size="12" text-anchor="end" dominant-baseline="middle">ht</text>
  <text x="60" y="275" fill="white" font-family="sans-serif" font-weight="bold" font-size="12" text-anchor="end" dominant-baseline="middle">kmeans</text>
  <text x="60" y="310" fill="white" font-family="sans-serif" font-weight="bold" font-size="12" text-anchor="end" dominant-baseline="middle">llsq</text>
  <text x="60" y="345" fill="white" font-family="sans-serif" font-weight="bold" font-size="12" text-anchor="end" dominant-baseline="middle">lse</text>
  <text x="60" y="380" fill="white" font-family="sans-serif" font-weight="bold" font-size="12" text-anchor="end" dominant-baseline="middle">lstm</text>
  <text x="60" y="415" fill="white" font-family="sans-serif" font-weight="bold" font-size="12" text-anchor="end" dominant-baseline="middle">ode</text>
  <text x="60" y="450" fill="white" font-family="sans-serif" font-weight="bold" font-size="12" text-anchor="end" dominant-baseline="middle">particle</text>
  <text x="60" y="485" fill="white" font-family="sans-serif" font-weight="bold" font-size="12" text-anchor="end" dominant-baseline="middle">saddle</text>
  <text x="80" y="80" fill="white" font-family="sans-serif" font-weight="bold" font-size="12" text-anchor="end" dominant-baseline="middle" transform="rotate(90 80 80)">ad-hpp</text>
  <text x="115" y="80" fill="white" font-family="sans-serif" font-weight="bold" font-size="12" text-anchor="end" dominant-baseline="middle" transform="rotate(90 115 80)">adept</text>
  <text x="150" y="80" fill="white" font-family="sans-serif" font-weight="bold" font-size="12" text-anchor="end" dominant-baseline="middle" transform="rotate(90 150 80)">adol-c</text>
  <text x="185" y="80" fill="white" font-family="sans-serif" font-weight="bold" font-size="12" text-anchor="end" dominant-baseline="middle" transform="rotate(90 185 80)">codipack</text>
  <text x="220" y="80" fill="white" font-family="sans-serif" font-weight="bold" font-size="12" text-anchor="end" dominant-baseline="middle" transform="rotate(90 220 80)">cppad</text>
  <text x="255" y="80" fill="white" font-family="sans-serif" font-weight="bold" font-size="12" text-anchor="end" dominant-baseline="middle" transform="rotate(90 255 80)">enzyme</text>
  <text x="290" y="80" fill="white" font-family="sans-serif" font-weight="bold" font-size="12" text-anchor="end" dominant-baseline="middle" transform="rotate(90 290 80)">enzyme-jl</text>
  <text x="325" y="80" fill="white" font-family="sans-serif" font-weight="bold" font-size="12" text-anchor="end" dominant-baseline="middle" transform="rotate(90 325 80)">finite</text>
  <text x="360" y="80" fill="white" font-family="sans-serif" font-weight="bold" font-size="12" text-anchor="end" dominant-baseline="middle" transform="rotate(90 360 80)">floretta</text>
  <text x="395" y="80" fill="white" font-family="sans-serif" font-weight="bold" font-size="12" text-anchor="end" dominant-baseline="middle" transform="rotate(90 395 80)">forwarddiff-jl</text>
  <text x="430" y="80" fill="white" font-family="sans-serif" font-weight="bold" font-size="12" text-anchor="end" dominant-baseline="middle" transform="rotate(90 430 80)">futhark</text>
  <text x="465" y="80" fill="white" font-family="sans-serif" font-weight="bold" font-size="12" text-anchor="end" dominant-baseline="middle" transform="rotate(90 465 80)">haskell-ad</text>
  <text x="500" y="80" fill="white" font-family="sans-serif" font-weight="bold" font-size="12" text-anchor="end" dominant-baseline="middle" transform="rotate(90 500 80)">horde-ad</text>
  <text x="535" y="80" fill="white" font-family="sans-serif" font-weight="bold" font-size="12" text-anchor="end" dominant-baseline="middle" transform="rotate(90 535 80)">jax</text>
  <text x="570" y="80" fill="white" font-family="sans-serif" font-weight="bold" font-size="12" text-anchor="end" dominant-baseline="middle" transform="rotate(90 570 80)">manual</text>
  <text x="605" y="80" fill="white" font-family="sans-serif" font-weight="bold" font-size="12" text-anchor="end" dominant-baseline="middle" transform="rotate(90 605 80)">mooncake-jl</text>
  <text x="640" y="80" fill="white" font-family="sans-serif" font-weight="bold" font-size="12" text-anchor="end" dominant-baseline="middle" transform="rotate(90 640 80)">ocaml</text>
  <text x="675" y="80" fill="white" font-family="sans-serif" font-weight="bold" font-size="12" text-anchor="end" dominant-baseline="middle" transform="rotate(90 675 80)">pytorch</text>
  <text x="710" y="80" fill="white" font-family="sans-serif" font-weight="bold" font-size="12" text-anchor="end" dominant-baseline="middle" transform="rotate(90 710 80)">reversediff-jl</text>
  <text x="745" y="80" fill="white" font-family="sans-serif" font-weight="bold" font-size="12" text-anchor="end" dominant-baseline="middle" transform="rotate(90 745 80)">scilean</text>
  <text x="780" y="80" fill="white" font-family="sans-serif" font-weight="bold" font-size="12" text-anchor="end" dominant-baseline="middle" transform="rotate(90 780 80)">tapenade</text>
  <text x="815" y="80" fill="white" font-family="sans-serif" font-weight="bold" font-size="12" text-anchor="end" dominant-baseline="middle" transform="rotate(90 815 80)">tensorflow</text>
  <text x="850" y="80" fill="white" font-family="sans-serif" font-weight="bold" font-size="12" text-anchor="end" dominant-baseline="middle" transform="rotate(90 850 80)">tensorflow-js</text>
  <text x="885" y="80" fill="white" font-family="sans-serif" font-weight="bold" font-size="12" text-anchor="end" dominant-baseline="middle" transform="rotate(90 885 80)">zygote</text>
  <rect x="65" y="85" width="30" height="30" fill="hsl(240 100% 81.14357550359838%)" />
  <rect x="100" y="85" width="30" height="30" fill="hsl(240 100% 82.46018858626937%)" />
  <rect x="135" y="85" width="30" height="30" fill="hsl(240 100% 97.98579490795208%)" />
  <rect x="170" y="85" width="30" height="30" fill="hsl(240 100% 81.38793857953064%)" />
  <rect x="205" y="85" width="30" height="30" fill="hsl(240 100% 98.97872818685909%)" />
  <rect x="240" y="85" width="30" height="30" fill="hsl(240 100% 50%)" />
  <rect x="310" y="85" width="30" height="30" fill="hsl(240 100% 93.03398558106818%)" />
  <rect x="415" y="85" width="30" height="30" fill="hsl(240 100% 67.42629253367343%)" />
  <rect x="555" y="85" width="30" height="30" fill="hsl(240 100% 53.685638947022014%)" />
  <rect x="660" y="85" width="30" height="30" fill="rgb(255 255 255 / 50%)" />
  <rect x="765" y="85" width="30" height="30" fill="hsl(240 100% 73.95627926634805%)" />
  <rect x="800" y="85" width="30" height="30" fill="rgb(255 255 255 / 50%)" />
  <rect x="870" y="85" width="30" height="30" fill="hsl(240 100% 99.75310369973417%)" />
  <rect x="65" y="120" width="30" height="30" fill="hsl(240 100% 57.16492626810882%)" />
  <rect x="100" y="120" width="30" height="30" fill="hsl(240 100% 84.72898809450781%)" />
  <rect x="135" y="120" width="30" height="30" fill="hsl(240 100% 86.67200951510108%)" />
  <rect x="170" y="120" width="30" height="30" fill="hsl(240 100% 50%)" />
  <rect x="205" y="120" width="30" height="30" fill="hsl(240 100% 93.95840799365462%)" />
  <rect x="240" y="120" width="30" height="30" fill="hsl(240 100% 91.86003716624703%)" />
  <rect x="275" y="120" width="30" height="30" fill="hsl(240 100% 99.46961305267135%)" />
  <rect x="310" y="120" width="30" height="30" fill="hsl(240 100% 99.21041766706227%)" />
  <rect x="380" y="120" width="30" height="30" fill="hsl(240 100% 94.67975279152793%)" />
  <rect x="415" y="120" width="30" height="30" fill="hsl(240 100% 96.08656410804006%)" />
  <rect x="450" y="120" width="30" height="30" fill="hsl(240 100% 98.02404295679628%)" />
  <rect x="485" y="120" width="30" height="30" fill="hsl(240 100% 98.20425663577731%)" />
  <rect x="555" y="120" width="30" height="30" fill="hsl(240 100% 83.34594911142231%)" />
  <rect x="590" y="120" width="30" height="30" fill="hsl(240 100% 97.35995160762924%)" />
  <rect x="695" y="120" width="30" height="30" fill="rgb(255 255 255 / 50%)" />
  <rect x="870" y="120" width="30" height="30" fill="rgb(255 255 255 / 50%)" />
  <rect x="65" y="155" width="30" height="30" fill="hsl(240 100% 99.03066174248495%)" />
  <rect x="100" y="155" width="30" height="30" fill="hsl(240 100% 98.90023040535561%)" />
  <rect x="135" y="155" width="30" height="30" fill="hsl(240 100% 99.21746699669843%)" />
  <rect x="170" y="155" width="30" height="30" fill="hsl(240 100% 98.196335062732%)" />
  <rect x="205" y="155" width="30" height="30" fill="hsl(240 100% 99.83947621529833%)" />
  <rect x="240" y="155" width="30" height="30" fill="hsl(240 100% 92.47998465627015%)" />
  <rect x="275" y="155" width="30" height="30" fill="hsl(240 100% 91.94184462793095%)" />
  <rect x="310" y="155" width="30" height="30" fill="rgb(255 255 255 / 50%)" />
  <rect x="415" y="155" width="30" height="30" fill="hsl(240 100% 95.01629241999976%)" />
  <rect x="485" y="155" width="30" height="30" fill="hsl(240 100% 98.67293021615733%)" />
  <rect x="520" y="155" width="30" height="30" fill="hsl(240 100% 50%)" />
  <rect x="555" y="155" width="30" height="30" fill="hsl(240 100% 84.47520811051785%)" />
  <rect x="590" y="155" width="30" height="30" fill="hsl(240 100% 96.09267691261113%)" />
  <rect x="625" y="155" width="30" height="30" fill="hsl(240 100% 99.64234733066583%)" />
  <rect x="660" y="155" width="30" height="30" fill="hsl(240 100% 73.23227587921642%)" />
  <rect x="730" y="155" width="30" height="30" fill="hsl(240 100% 95.79448853560928%)" />
  <rect x="765" y="155" width="30" height="30" fill="hsl(240 100% 86.0512023684238%)" />
  <rect x="800" y="155" width="30" height="30" fill="hsl(240 100% 99.64405819867245%)" />
  <rect x="870" y="155" width="30" height="30" fill="hsl(240 100% 97.95306660537429%)" />
  <rect x="65" y="190" width="30" height="30" fill="hsl(240 100% 50%)" />
  <rect x="100" y="190" width="30" height="30" fill="hsl(240 100% 50%)" />
  <rect x="135" y="190" width="30" height="30" fill="hsl(240 100% 50%)" />
  <rect x="170" y="190" width="30" height="30" fill="hsl(240 100% 50%)" />
  <rect x="205" y="190" width="30" height="30" fill="hsl(240 100% 50%)" />
  <rect x="240" y="190" width="30" height="30" fill="hsl(240 100% 50%)" />
  <rect x="275" y="190" width="30" height="30" fill="hsl(240 100% 50%)" />
  <rect x="310" y="190" width="30" height="30" fill="hsl(240 100% 50%)" />
  <rect x="345" y="190" width="30" height="30" fill="hsl(240 100% 50%)" />
  <rect x="380" y="190" width="30" height="30" fill="hsl(240 100% 50%)" />
  <rect x="415" y="190" width="30" height="30" fill="hsl(240 100% 50%)" />
  <rect x="450" y="190" width="30" height="30" fill="hsl(240 100% 50%)" />
  <rect x="485" y="190" width="30" height="30" fill="hsl(240 100% 50%)" />
  <rect x="520" y="190" width="30" height="30" fill="hsl(240 100% 50%)" />
  <rect x="555" y="190" width="30" height="30" fill="hsl(240 100% 50%)" />
  <rect x="590" y="190" width="30" height="30" fill="hsl(240 100% 50%)" />
  <rect x="625" y="190" width="30" height="30" fill="hsl(240 100% 50%)" />
  <rect x="660" y="190" width="30" height="30" fill="hsl(240 100% 50%)" />
  <rect x="695" y="190" width="30" height="30" fill="hsl(240 100% 50%)" />
  <rect x="730" y="190" width="30" height="30" fill="hsl(240 100% 50%)" />
  <rect x="765" y="190" width="30" height="30" fill="hsl(240 100% 50%)" />
  <rect x="800" y="190" width="30" height="30" fill="hsl(240 100% 50%)" />
  <rect x="835" y="190" width="30" height="30" fill="hsl(240 100% 50%)" />
  <rect x="870" y="190" width="30" height="30" fill="hsl(240 100% 50%)" />
  <rect x="100" y="225" width="30" height="30" fill="hsl(240 100% 97.59620093115034%)" />
  <rect x="135" y="225" width="30" height="30" fill="hsl(240 100% 92.81003383896177%)" />
  <rect x="170" y="225" width="30" height="30" fill="hsl(240 100% 92.38124396940731%)" />
  <rect x="240" y="225" width="30" height="30" fill="hsl(240 100% 93.97617259413501%)" />
  <rect x="310" y="225" width="30" height="30" fill="rgb(255 255 255 / 50%)" />
  <rect x="415" y="225" width="30" height="30" fill="hsl(240 100% 93.09091142872246%)" />
  <rect x="555" y="225" width="30" height="30" fill="hsl(240 100% 50%)" />
  <rect x="660" y="225" width="30" height="30" fill="rgb(255 255 255 / 50%)" />
  <rect x="765" y="225" width="30" height="30" fill="hsl(240 100% 95.1415018159604%)" />
  <rect x="800" y="225" width="30" height="30" fill="rgb(255 255 255 / 50%)" />
  <rect x="870" y="225" width="30" height="30" fill="hsl(240 100% 96.23006814325643%)" />
  <rect x="135" y="260" width="30" height="30" fill="hsl(240 100% 99.85592747115123%)" />
  <rect x="170" y="260" width="30" height="30" fill="hsl(240 100% 98.72142078607553%)" />
  <rect x="205" y="260" width="30" height="30" fill="rgb(255 255 255 / 50%)" />
  <rect x="240" y="260" width="30" height="30" fill="hsl(240 100% 86.87727977920319%)" />
  <rect x="310" y="260" width="30" height="30" fill="rgb(255 255 255 / 50%)" />
  <rect x="380" y="260" width="30" height="30" fill="rgb(255 255 255 / 50%)" />
  <rect x="415" y="260" width="30" height="30" fill="hsl(240 100% 85.35537331961233%)" />
  <rect x="450" y="260" width="30" height="30" fill="rgb(255 255 255 / 50%)" />
  <rect x="485" y="260" width="30" height="30" fill="hsl(240 100% 99.00011436445575%)" />
  <rect x="520" y="260" width="30" height="30" fill="hsl(240 100% 50%)" />
  <rect x="555" y="260" width="30" height="30" fill="hsl(240 100% 72.25998258383325%)" />
  <rect x="660" y="260" width="30" height="30" fill="hsl(240 100% 96.48415035529271%)" />
  <rect x="695" y="260" width="30" height="30" fill="rgb(255 255 255 / 50%)" />
  <rect x="730" y="260" width="30" height="30" fill="hsl(240 100% 93.5945435510671%)" />
  <rect x="65" y="295" width="30" height="30" fill="hsl(240 100% 82.9720749465807%)" />
  <rect x="100" y="295" width="30" height="30" fill="hsl(240 100% 97.21169921255857%)" />
  <rect x="135" y="295" width="30" height="30" fill="hsl(240 100% 93.82916745427254%)" />
  <rect x="170" y="295" width="30" height="30" fill="hsl(240 100% 89.21025888171759%)" />
  <rect x="205" y="295" width="30" height="30" fill="hsl(240 100% 99.31789791694983%)" />
  <rect x="240" y="295" width="30" height="30" fill="hsl(240 100% 50%)" />
  <rect x="275" y="295" width="30" height="30" fill="hsl(240 100% 61.4413099531731%)" />
  <rect x="310" y="295" width="30" height="30" fill="hsl(240 100% 99.49454088348374%)" />
  <rect x="345" y="295" width="30" height="30" fill="hsl(240 100% 94.69109664188666%)" />
  <rect x="415" y="295" width="30" height="30" fill="hsl(240 100% 56.0017160225329%)" />
  <rect x="450" y="295" width="30" height="30" fill="hsl(240 100% 99.26298905187448%)" />
  <rect x="485" y="295" width="30" height="30" fill="hsl(240 100% 95.71441472631568%)" />
  <rect x="520" y="295" width="30" height="30" fill="hsl(240 100% 88.2894279864434%)" />
  <rect x="555" y="295" width="30" height="30" fill="hsl(240 100% 57.33832736175578%)" />
  <rect x="590" y="295" width="30" height="30" fill="hsl(240 100% 90.72249613492457%)" />
  <rect x="730" y="295" width="30" height="30" fill="hsl(240 100% 97.31058671962509%)" />
  <rect x="835" y="295" width="30" height="30" fill="hsl(240 100% 99.55574325234566%)" />
  <rect x="870" y="295" width="30" height="30" fill="hsl(240 100% 99.96273705789574%)" />
  <rect x="65" y="330" width="30" height="30" fill="hsl(240 100% 87.70067031298015%)" />
  <rect x="100" y="330" width="30" height="30" fill="hsl(240 100% 94.40148128304563%)" />
  <rect x="135" y="330" width="30" height="30" fill="hsl(240 100% 95.64681292588234%)" />
  <rect x="170" y="330" width="30" height="30" fill="hsl(240 100% 87.57262439595692%)" />
  <rect x="205" y="330" width="30" height="30" fill="hsl(240 100% 99.21615766492167%)" />
  <rect x="240" y="330" width="30" height="30" fill="hsl(240 100% 79.93777334499292%)" />
  <rect x="275" y="330" width="30" height="30" fill="hsl(240 100% 95.27077988827811%)" />
  <rect x="310" y="330" width="30" height="30" fill="rgb(255 255 255 / 50%)" />
  <rect x="345" y="330" width="30" height="30" fill="hsl(240 100% 97.11826634292079%)" />
  <rect x="415" y="330" width="30" height="30" fill="hsl(240 100% 86.16467308381866%)" />
  <rect x="450" y="330" width="30" height="30" fill="hsl(240 100% 99.80912906735999%)" />
  <rect x="485" y="330" width="30" height="30" fill="hsl(240 100% 88.98137134973368%)" />
  <rect x="520" y="330" width="30" height="30" fill="hsl(240 100% 72.573696249764%)" />
  <rect x="555" y="330" width="30" height="30" fill="hsl(240 100% 72.03214869126327%)" />
  <rect x="590" y="330" width="30" height="30" fill="hsl(240 100% 98.96761532802616%)" />
  <rect x="625" y="330" width="30" height="30" fill="hsl(240 100% 93.9232525896056%)" />
  <rect x="660" y="330" width="30" height="30" fill="hsl(240 100% 50%)" />
  <rect x="800" y="330" width="30" height="30" fill="hsl(240 100% 95.5626167161362%)" />
  <rect x="835" y="330" width="30" height="30" fill="hsl(240 100% 99.21037313111928%)" />
  <rect x="870" y="330" width="30" height="30" fill="hsl(240 100% 85.61787616574976%)" />
  <rect x="65" y="365" width="30" height="30" fill="hsl(240 100% 50%)" />
  <rect x="100" y="365" width="30" height="30" fill="hsl(240 100% 73.83175937461526%)" />
  <rect x="135" y="365" width="30" height="30" fill="hsl(240 100% 77.74204250212722%)" />
  <rect x="170" y="365" width="30" height="30" fill="hsl(240 100% 55.76106118862053%)" />
  <rect x="205" y="365" width="30" height="30" fill="hsl(240 100% 94.94712610299258%)" />
  <rect x="240" y="365" width="30" height="30" fill="hsl(240 100% 64.08867543431592%)" />
  <rect x="275" y="365" width="30" height="30" fill="hsl(240 100% 93.52485078693431%)" />
  <rect x="310" y="365" width="30" height="30" fill="hsl(240 100% 99.87911816321358%)" />
  <rect x="415" y="365" width="30" height="30" fill="hsl(240 100% 66.09601796420905%)" />
  <rect x="485" y="365" width="30" height="30" fill="hsl(240 100% 99.38301842087863%)" />
  <rect x="555" y="365" width="30" height="30" fill="hsl(240 100% 87.78094535083987%)" />
  <rect x="590" y="365" width="30" height="30" fill="hsl(240 100% 96.08850944797248%)" />
  <rect x="660" y="365" width="30" height="30" fill="hsl(240 100% 99.68047378201396%)" />
  <rect x="765" y="365" width="30" height="30" fill="hsl(240 100% 62.52347313561316%)" />
  <rect x="800" y="365" width="30" height="30" fill="hsl(240 100% 98.54125225349893%)" />
  <rect x="870" y="365" width="30" height="30" fill="hsl(240 100% 98.95625260423043%)" />
  <rect x="65" y="400" width="30" height="30" fill="hsl(240 100% 99.09147618851281%)" />
  <rect x="100" y="400" width="30" height="30" fill="hsl(240 100% 99.32680711838341%)" />
  <rect x="135" y="400" width="30" height="30" fill="hsl(240 100% 99.67345658656937%)" />
  <rect x="170" y="400" width="30" height="30" fill="hsl(240 100% 94.39281260032907%)" />
  <rect x="205" y="400" width="30" height="30" fill="hsl(240 100% 99.21029484388663%)" />
  <rect x="240" y="400" width="30" height="30" fill="hsl(240 100% 86.40754461657245%)" />
  <rect x="275" y="400" width="30" height="30" fill="hsl(240 100% 95.26924498541608%)" />
  <rect x="310" y="400" width="30" height="30" fill="rgb(255 255 255 / 50%)" />
  <rect x="380" y="400" width="30" height="30" fill="rgb(255 255 255 / 50%)" />
  <rect x="415" y="400" width="30" height="30" fill="hsl(240 100% 93.8617763236893%)" />
  <rect x="450" y="400" width="30" height="30" fill="hsl(240 100% 99.973211510661%)" />
  <rect x="485" y="400" width="30" height="30" fill="hsl(240 100% 99.47041400074961%)" />
  <rect x="520" y="400" width="30" height="30" fill="hsl(240 100% 80.1825982749792%)" />
  <rect x="555" y="400" width="30" height="30" fill="hsl(240 100% 50%)" />
  <rect x="590" y="400" width="30" height="30" fill="hsl(240 100% 99.09063443378439%)" />
  <rect x="695" y="400" width="30" height="30" fill="rgb(255 255 255 / 50%)" />
  <rect x="870" y="400" width="30" height="30" fill="hsl(240 100% 99.20007291015233%)" />
  <rect x="65" y="435" width="30" height="30" fill="hsl(240 100% 92.53788126474977%)" />
  <rect x="240" y="435" width="30" height="30" fill="hsl(240 100% 50%)" />
  <rect x="310" y="435" width="30" height="30" fill="hsl(240 100% 93.86407560128843%)" />
  <rect x="415" y="435" width="30" height="30" fill="hsl(240 100% 88.36004964431088%)" />
  <rect x="450" y="435" width="30" height="30" fill="hsl(240 100% 99.78158411940987%)" />
  <rect x="485" y="435" width="30" height="30" fill="hsl(240 100% 99.91023716801266%)" />
  <rect x="65" y="470" width="30" height="30" fill="hsl(240 100% 50%)" />
  <rect x="240" y="470" width="30" height="30" fill="hsl(240 100% 56.67733369044491%)" />
  <rect x="310" y="470" width="30" height="30" fill="hsl(240 100% 97.33844846023258%)" />
  <rect x="415" y="470" width="30" height="30" fill="hsl(240 100% 91.16004488620295%)" />
  <rect x="450" y="470" width="30" height="30" fill="hsl(240 100% 99.6301159640431%)" />
  <rect x="485" y="470" width="30" height="30" fill="hsl(240 100% 99.9223636166101%)" />
</svg>
