<svg xmlns="http://www.w3.org/2000/svg" viewBox="0 0 660 295">
  <rect x="0" y="0" width="660" height="295" rx="5" ry="5" fill="#222" />
  <text x="60" y="100" fill="white" font-family="sans-serif" font-weight="bold" font-size="12" text-anchor="end" dominant-baseline="middle">ba</text>
  <text x="60" y="135" fill="white" font-family="sans-serif" font-weight="bold" font-size="12" text-anchor="end" dominant-baseline="middle">gmm</text>
  <text x="60" y="170" fill="white" font-family="sans-serif" font-weight="bold" font-size="12" text-anchor="end" dominant-baseline="middle">hello</text>
  <text x="60" y="205" fill="white" font-family="sans-serif" font-weight="bold" font-size="12" text-anchor="end" dominant-baseline="middle">ht</text>
  <text x="60" y="240" fill="white" font-family="sans-serif" font-weight="bold" font-size="12" text-anchor="end" dominant-baseline="middle">kmeans</text>
  <text x="60" y="275" fill="white" font-family="sans-serif" font-weight="bold" font-size="12" text-anchor="end" dominant-baseline="middle">lstm</text>
  <text x="80" y="80" fill="white" font-family="sans-serif" font-weight="bold" font-size="12" text-anchor="end" dominant-baseline="middle" transform="rotate(90 80 80)">adept</text>
  <text x="115" y="80" fill="white" font-family="sans-serif" font-weight="bold" font-size="12" text-anchor="end" dominant-baseline="middle" transform="rotate(90 115 80)">adol-c</text>
  <text x="150" y="80" fill="white" font-family="sans-serif" font-weight="bold" font-size="12" text-anchor="end" dominant-baseline="middle" transform="rotate(90 150 80)">codipack</text>
  <text x="185" y="80" fill="white" font-family="sans-serif" font-weight="bold" font-size="12" text-anchor="end" dominant-baseline="middle" transform="rotate(90 185 80)">cppad</text>
  <text x="220" y="80" fill="white" font-family="sans-serif" font-weight="bold" font-size="12" text-anchor="end" dominant-baseline="middle" transform="rotate(90 220 80)">enzyme</text>
  <text x="255" y="80" fill="white" font-family="sans-serif" font-weight="bold" font-size="12" text-anchor="end" dominant-baseline="middle" transform="rotate(90 255 80)">finite</text>
  <text x="290" y="80" fill="white" font-family="sans-serif" font-weight="bold" font-size="12" text-anchor="end" dominant-baseline="middle" transform="rotate(90 290 80)">floretta</text>
  <text x="325" y="80" fill="white" font-family="sans-serif" font-weight="bold" font-size="12" text-anchor="end" dominant-baseline="middle" transform="rotate(90 325 80)">futhark</text>
  <text x="360" y="80" fill="white" font-family="sans-serif" font-weight="bold" font-size="12" text-anchor="end" dominant-baseline="middle" transform="rotate(90 360 80)">haskell</text>
  <text x="395" y="80" fill="white" font-family="sans-serif" font-weight="bold" font-size="12" text-anchor="end" dominant-baseline="middle" transform="rotate(90 395 80)">jax</text>
  <text x="430" y="80" fill="white" font-family="sans-serif" font-weight="bold" font-size="12" text-anchor="end" dominant-baseline="middle" transform="rotate(90 430 80)">manual</text>
  <text x="465" y="80" fill="white" font-family="sans-serif" font-weight="bold" font-size="12" text-anchor="end" dominant-baseline="middle" transform="rotate(90 465 80)">ocaml</text>
  <text x="500" y="80" fill="white" font-family="sans-serif" font-weight="bold" font-size="12" text-anchor="end" dominant-baseline="middle" transform="rotate(90 500 80)">pytorch</text>
  <text x="535" y="80" fill="white" font-family="sans-serif" font-weight="bold" font-size="12" text-anchor="end" dominant-baseline="middle" transform="rotate(90 535 80)">scilean</text>
  <text x="570" y="80" fill="white" font-family="sans-serif" font-weight="bold" font-size="12" text-anchor="end" dominant-baseline="middle" transform="rotate(90 570 80)">tapenade</text>
  <text x="605" y="80" fill="white" font-family="sans-serif" font-weight="bold" font-size="12" text-anchor="end" dominant-baseline="middle" transform="rotate(90 605 80)">tensorflow</text>
  <text x="640" y="80" fill="white" font-family="sans-serif" font-weight="bold" font-size="12" text-anchor="end" dominant-baseline="middle" transform="rotate(90 640 80)">zygote</text>
  <rect x="65" y="85" width="30" height="30" fill="hsl(240 100% 83.18666637990138%)" />
  <rect x="100" y="85" width="30" height="30" fill="hsl(240 100% 97.80774174380133%)" />
  <rect x="135" y="85" width="30" height="30" fill="hsl(240 100% 88.87186754100115%)" />
  <rect x="205" y="85" width="30" height="30" fill="hsl(240 100% 50%)" />
  <rect x="240" y="85" width="30" height="30" fill="hsl(240 100% 92.54607217983575%)" />
  <rect x="310" y="85" width="30" height="30" fill="hsl(240 100% 68.05435196147829%)" />
  <rect x="415" y="85" width="30" height="30" fill="hsl(240 100% 51.61431413779777%)" />
  <rect x="485" y="85" width="30" height="30" fill="rgb(255 255 255 / 50%)" />
  <rect x="555" y="85" width="30" height="30" fill="hsl(240 100% 72.29623797955418%)" />
  <rect x="590" y="85" width="30" height="30" fill="rgb(255 255 255 / 50%)" />
  <rect x="65" y="120" width="30" height="30" fill="hsl(240 100% 98.39626049852276%)" />
  <rect x="100" y="120" width="30" height="30" fill="hsl(240 100% 98.85305666013726%)" />
  <rect x="135" y="120" width="30" height="30" fill="hsl(240 100% 97.33616037895246%)" />
  <rect x="170" y="120" width="30" height="30" fill="rgb(255 255 255 / 50%)" />
  <rect x="205" y="120" width="30" height="30" fill="hsl(240 100% 87.16868957632983%)" />
  <rect x="240" y="120" width="30" height="30" fill="rgb(255 255 255 / 50%)" />
  <rect x="310" y="120" width="30" height="30" fill="hsl(240 100% 90.21827342822557%)" />
  <rect x="380" y="120" width="30" height="30" fill="hsl(240 100% 83.36649420099161%)" />
  <rect x="415" y="120" width="30" height="30" fill="hsl(240 100% 76.06684187139142%)" />
  <rect x="450" y="120" width="30" height="30" fill="hsl(240 100% 99.36731932650075%)" />
  <rect x="485" y="120" width="30" height="30" fill="hsl(240 100% 50%)" />
  <rect x="520" y="120" width="30" height="30" fill="hsl(240 100% 93.4379705872808%)" />
  <rect x="555" y="120" width="30" height="30" fill="hsl(240 100% 76.58241107520166%)" />
  <rect x="590" y="120" width="30" height="30" fill="hsl(240 100% 88.34315903503506%)" />
  <rect x="65" y="155" width="30" height="30" fill="hsl(240 100% 50%)" />
  <rect x="100" y="155" width="30" height="30" fill="hsl(240 100% 50%)" />
  <rect x="135" y="155" width="30" height="30" fill="hsl(240 100% 50%)" />
  <rect x="170" y="155" width="30" height="30" fill="hsl(240 100% 50%)" />
  <rect x="205" y="155" width="30" height="30" fill="hsl(240 100% 50%)" />
  <rect x="240" y="155" width="30" height="30" fill="hsl(240 100% 50%)" />
  <rect x="275" y="155" width="30" height="30" fill="hsl(240 100% 50%)" />
  <rect x="310" y="155" width="30" height="30" fill="hsl(240 100% 50%)" />
  <rect x="345" y="155" width="30" height="30" fill="hsl(240 100% 50%)" />
  <rect x="380" y="155" width="30" height="30" fill="hsl(240 100% 50%)" />
  <rect x="415" y="155" width="30" height="30" fill="hsl(240 100% 50%)" />
  <rect x="450" y="155" width="30" height="30" fill="hsl(240 100% 50%)" />
  <rect x="485" y="155" width="30" height="30" fill="hsl(240 100% 50%)" />
  <rect x="520" y="155" width="30" height="30" fill="hsl(240 100% 50%)" />
  <rect x="555" y="155" width="30" height="30" fill="hsl(240 100% 50%)" />
  <rect x="590" y="155" width="30" height="30" fill="hsl(240 100% 50%)" />
  <rect x="625" y="155" width="30" height="30" fill="hsl(240 100% 50%)" />
  <rect x="65" y="190" width="30" height="30" fill="hsl(240 100% 96.04611810598608%)" />
  <rect x="100" y="190" width="30" height="30" fill="hsl(240 100% 96.33190841857504%)" />
  <rect x="135" y="190" width="30" height="30" fill="hsl(240 100% 88.43007262317883%)" />
  <rect x="205" y="190" width="30" height="30" fill="hsl(240 100% 90.2364605423114%)" />
  <rect x="240" y="190" width="30" height="30" fill="rgb(255 255 255 / 50%)" />
  <rect x="310" y="190" width="30" height="30" fill="hsl(240 100% 89.56872104226215%)" />
  <rect x="415" y="190" width="30" height="30" fill="hsl(240 100% 50%)" />
  <rect x="485" y="190" width="30" height="30" fill="rgb(255 255 255 / 50%)" />
  <rect x="555" y="190" width="30" height="30" fill="rgb(255 255 255 / 50%)" />
  <rect x="590" y="190" width="30" height="30" fill="rgb(255 255 255 / 50%)" />
  <rect x="100" y="225" width="30" height="30" fill="hsl(240 100% 99.89094277423283%)" />
  <rect x="135" y="225" width="30" height="30" fill="hsl(240 100% 99.39832994415934%)" />
  <rect x="170" y="225" width="30" height="30" fill="rgb(255 255 255 / 50%)" />
  <rect x="205" y="225" width="30" height="30" fill="hsl(240 100% 87.69682259816342%)" />
  <rect x="240" y="225" width="30" height="30" fill="rgb(255 255 255 / 50%)" />
  <rect x="310" y="225" width="30" height="30" fill="hsl(240 100% 82.68149352279046%)" />
  <rect x="345" y="225" width="30" height="30" fill="rgb(255 255 255 / 50%)" />
  <rect x="380" y="225" width="30" height="30" fill="hsl(240 100% 50%)" />
  <rect x="415" y="225" width="30" height="30" fill="hsl(240 100% 75.96540306698697%)" />
  <rect x="485" y="225" width="30" height="30" fill="hsl(240 100% 85.46710874403738%)" />
  <rect x="520" y="225" width="30" height="30" fill="hsl(240 100% 94.05439501084054%)" />
  <rect x="65" y="260" width="30" height="30" fill="hsl(240 100% 69.07763577717355%)" />
  <rect x="100" y="260" width="30" height="30" fill="hsl(240 100% 80.70893935192633%)" />
  <rect x="135" y="260" width="30" height="30" fill="hsl(240 100% 50.008233332151406%)" />
  <rect x="170" y="260" width="30" height="30" fill="hsl(240 100% 89.73850895167946%)" />
  <rect x="205" y="260" width="30" height="30" fill="hsl(240 100% 50%)" />
  <rect x="240" y="260" width="30" height="30" fill="hsl(240 100% 99.8529000209319%)" />
  <rect x="310" y="260" width="30" height="30" fill="hsl(240 100% 63.48310526816688%)" />
  <rect x="415" y="260" width="30" height="30" fill="hsl(240 100% 84.85242248920916%)" />
  <rect x="485" y="260" width="30" height="30" fill="hsl(240 100% 99.5910253433247%)" />
  <rect x="520" y="260" width="30" height="30" fill="hsl(240 100% 89.91568993051781%)" />
  <rect x="555" y="260" width="30" height="30" fill="hsl(240 100% 60.364609137223106%)" />
  <rect x="590" y="260" width="30" height="30" fill="hsl(240 100% 97.98722646378108%)" />
</svg>
