<svg xmlns="http://www.w3.org/2000/svg" viewBox="0 0 870 505">
  <rect x="0" y="0" width="870" height="505" rx="5" ry="5" fill="#222" />
  <text x="60" y="100" fill="white" font-family="sans-serif" font-weight="bold" font-size="12" text-anchor="end" dominant-baseline="middle">ba</text>
  <text x="60" y="135" fill="white" font-family="sans-serif" font-weight="bold" font-size="12" text-anchor="end" dominant-baseline="middle">det</text>
  <text x="60" y="170" fill="white" font-family="sans-serif" font-weight="bold" font-size="12" text-anchor="end" dominant-baseline="middle">gmm</text>
  <text x="60" y="205" fill="white" font-family="sans-serif" font-weight="bold" font-size="12" text-anchor="end" dominant-baseline="middle">hello</text>
  <text x="60" y="240" fill="white" font-family="sans-serif" font-weight="bold" font-size="12" text-anchor="end" dominant-baseline="middle">ht</text>
  <text x="60" y="275" fill="white" font-family="sans-serif" font-weight="bold" font-size="12" text-anchor="end" dominant-baseline="middle">kmeans</text>
  <text x="60" y="310" fill="white" font-family="sans-serif" font-weight="bold" font-size="12" text-anchor="end" dominant-baseline="middle">llsq</text>
  <text x="60" y="345" fill="white" font-family="sans-serif" font-weight="bold" font-size="12" text-anchor="end" dominant-baseline="middle">lse</text>
  <text x="60" y="380" fill="white" font-family="sans-serif" font-weight="bold" font-size="12" text-anchor="end" dominant-baseline="middle">lstm</text>
  <text x="60" y="415" fill="white" font-family="sans-serif" font-weight="bold" font-size="12" text-anchor="end" dominant-baseline="middle">ode</text>
  <text x="60" y="450" fill="white" font-family="sans-serif" font-weight="bold" font-size="12" text-anchor="end" dominant-baseline="middle">particle</text>
  <text x="60" y="485" fill="white" font-family="sans-serif" font-weight="bold" font-size="12" text-anchor="end" dominant-baseline="middle">saddle</text>
  <text x="80" y="80" fill="white" font-family="sans-serif" font-weight="bold" font-size="12" text-anchor="end" dominant-baseline="middle" transform="rotate(90 80 80)">ad-hpp</text>
  <text x="115" y="80" fill="white" font-family="sans-serif" font-weight="bold" font-size="12" text-anchor="end" dominant-baseline="middle" transform="rotate(90 115 80)">adept</text>
  <text x="150" y="80" fill="white" font-family="sans-serif" font-weight="bold" font-size="12" text-anchor="end" dominant-baseline="middle" transform="rotate(90 150 80)">adol-c</text>
  <text x="185" y="80" fill="white" font-family="sans-serif" font-weight="bold" font-size="12" text-anchor="end" dominant-baseline="middle" transform="rotate(90 185 80)">codipack</text>
  <text x="220" y="80" fill="white" font-family="sans-serif" font-weight="bold" font-size="12" text-anchor="end" dominant-baseline="middle" transform="rotate(90 220 80)">cppad</text>
  <text x="255" y="80" fill="white" font-family="sans-serif" font-weight="bold" font-size="12" text-anchor="end" dominant-baseline="middle" transform="rotate(90 255 80)">enzyme</text>
  <text x="290" y="80" fill="white" font-family="sans-serif" font-weight="bold" font-size="12" text-anchor="end" dominant-baseline="middle" transform="rotate(90 290 80)">enzyme-jl</text>
  <text x="325" y="80" fill="white" font-family="sans-serif" font-weight="bold" font-size="12" text-anchor="end" dominant-baseline="middle" transform="rotate(90 325 80)">finite</text>
  <text x="360" y="80" fill="white" font-family="sans-serif" font-weight="bold" font-size="12" text-anchor="end" dominant-baseline="middle" transform="rotate(90 360 80)">floretta</text>
  <text x="395" y="80" fill="white" font-family="sans-serif" font-weight="bold" font-size="12" text-anchor="end" dominant-baseline="middle" transform="rotate(90 395 80)">forwarddiff-jl</text>
  <text x="430" y="80" fill="white" font-family="sans-serif" font-weight="bold" font-size="12" text-anchor="end" dominant-baseline="middle" transform="rotate(90 430 80)">futhark</text>
  <text x="465" y="80" fill="white" font-family="sans-serif" font-weight="bold" font-size="12" text-anchor="end" dominant-baseline="middle" transform="rotate(90 465 80)">haskell</text>
  <text x="500" y="80" fill="white" font-family="sans-serif" font-weight="bold" font-size="12" text-anchor="end" dominant-baseline="middle" transform="rotate(90 500 80)">jax</text>
  <text x="535" y="80" fill="white" font-family="sans-serif" font-weight="bold" font-size="12" text-anchor="end" dominant-baseline="middle" transform="rotate(90 535 80)">manual</text>
  <text x="570" y="80" fill="white" font-family="sans-serif" font-weight="bold" font-size="12" text-anchor="end" dominant-baseline="middle" transform="rotate(90 570 80)">mooncake-jl</text>
  <text x="605" y="80" fill="white" font-family="sans-serif" font-weight="bold" font-size="12" text-anchor="end" dominant-baseline="middle" transform="rotate(90 605 80)">ocaml</text>
  <text x="640" y="80" fill="white" font-family="sans-serif" font-weight="bold" font-size="12" text-anchor="end" dominant-baseline="middle" transform="rotate(90 640 80)">pytorch</text>
  <text x="675" y="80" fill="white" font-family="sans-serif" font-weight="bold" font-size="12" text-anchor="end" dominant-baseline="middle" transform="rotate(90 675 80)">reversediff-jl</text>
  <text x="710" y="80" fill="white" font-family="sans-serif" font-weight="bold" font-size="12" text-anchor="end" dominant-baseline="middle" transform="rotate(90 710 80)">scilean</text>
  <text x="745" y="80" fill="white" font-family="sans-serif" font-weight="bold" font-size="12" text-anchor="end" dominant-baseline="middle" transform="rotate(90 745 80)">tapenade</text>
  <text x="780" y="80" fill="white" font-family="sans-serif" font-weight="bold" font-size="12" text-anchor="end" dominant-baseline="middle" transform="rotate(90 780 80)">tensorflow</text>
  <text x="815" y="80" fill="white" font-family="sans-serif" font-weight="bold" font-size="12" text-anchor="end" dominant-baseline="middle" transform="rotate(90 815 80)">tensorflow-js</text>
  <text x="850" y="80" fill="white" font-family="sans-serif" font-weight="bold" font-size="12" text-anchor="end" dominant-baseline="middle" transform="rotate(90 850 80)">zygote</text>
  <rect x="65" y="85" width="30" height="30" fill="hsl(240 100% 80.78386622775976%)" />
  <rect x="100" y="85" width="30" height="30" fill="hsl(240 100% 82.75003553204286%)" />
  <rect x="135" y="85" width="30" height="30" fill="hsl(240 100% 97.9730714206463%)" />
  <rect x="170" y="85" width="30" height="30" fill="hsl(240 100% 82.28941395002771%)" />
  <rect x="205" y="85" width="30" height="30" fill="hsl(240 100% 99.00147417783771%)" />
  <rect x="240" y="85" width="30" height="30" fill="hsl(240 100% 51.88605969775904%)" />
  <rect x="310" y="85" width="30" height="30" fill="hsl(240 100% 93.26617067084634%)" />
  <rect x="415" y="85" width="30" height="30" fill="hsl(240 100% 67.93259980746392%)" />
  <rect x="520" y="85" width="30" height="30" fill="hsl(240 100% 50%)" />
  <rect x="625" y="85" width="30" height="30" fill="rgb(255 255 255 / 50%)" />
  <rect x="730" y="85" width="30" height="30" fill="hsl(240 100% 75.03203831256519%)" />
  <rect x="765" y="85" width="30" height="30" fill="rgb(255 255 255 / 50%)" />
  <rect x="835" y="85" width="30" height="30" fill="hsl(240 100% 99.73124924213872%)" />
  <rect x="65" y="120" width="30" height="30" fill="hsl(240 100% 50%)" />
  <rect x="100" y="120" width="30" height="30" fill="hsl(240 100% 82.68989100364816%)" />
  <rect x="135" y="120" width="30" height="30" fill="hsl(240 100% 85.64340158197835%)" />
  <rect x="170" y="120" width="30" height="30" fill="hsl(240 100% 51.942767429838725%)" />
  <rect x="205" y="120" width="30" height="30" fill="hsl(240 100% 92.55217444804028%)" />
  <rect x="240" y="120" width="30" height="30" fill="hsl(240 100% 91.6564037844071%)" />
  <rect x="275" y="120" width="30" height="30" fill="hsl(240 100% 99.35976707979835%)" />
  <rect x="310" y="120" width="30" height="30" fill="hsl(240 100% 98.98642753866868%)" />
  <rect x="380" y="120" width="30" height="30" fill="hsl(240 100% 94.11105409994153%)" />
  <rect x="415" y="120" width="30" height="30" fill="hsl(240 100% 94.59601725234563%)" />
  <rect x="450" y="120" width="30" height="30" fill="hsl(240 100% 97.85216314163104%)" />
  <rect x="520" y="120" width="30" height="30" fill="hsl(240 100% 79.80598594257742%)" />
  <rect x="555" y="120" width="30" height="30" fill="hsl(240 100% 92.16615186449889%)" />
  <rect x="660" y="120" width="30" height="30" fill="rgb(255 255 255 / 50%)" />
  <rect x="835" y="120" width="30" height="30" fill="rgb(255 255 255 / 50%)" />
  <rect x="65" y="155" width="30" height="30" fill="hsl(240 100% 98.37229109673382%)" />
  <rect x="100" y="155" width="30" height="30" fill="hsl(240 100% 98.70521486697511%)" />
  <rect x="135" y="155" width="30" height="30" fill="hsl(240 100% 99.04160122264976%)" />
  <rect x="170" y="155" width="30" height="30" fill="hsl(240 100% 97.93290227103668%)" />
  <rect x="205" y="155" width="30" height="30" fill="hsl(240 100% 99.8393650653633%)" />
  <rect x="240" y="155" width="30" height="30" fill="hsl(240 100% 91.04149771780243%)" />
  <rect x="275" y="155" width="30" height="30" fill="hsl(240 100% 91.42461117417872%)" />
  <rect x="310" y="155" width="30" height="30" fill="rgb(255 255 255 / 50%)" />
  <rect x="415" y="155" width="30" height="30" fill="hsl(240 100% 92.46782914688856%)" />
  <rect x="485" y="155" width="30" height="30" fill="hsl(240 100% 50%)" />
  <rect x="520" y="155" width="30" height="30" fill="hsl(240 100% 82.3358168146041%)" />
  <rect x="590" y="155" width="30" height="30" fill="hsl(240 100% 99.56211201118008%)" />
  <rect x="625" y="155" width="30" height="30" fill="hsl(240 100% 64.70384635712372%)" />
  <rect x="695" y="155" width="30" height="30" fill="hsl(240 100% 95.18013102884092%)" />
  <rect x="730" y="155" width="30" height="30" fill="hsl(240 100% 82.54984376337698%)" />
  <rect x="765" y="155" width="30" height="30" fill="hsl(240 100% 99.54359961109037%)" />
  <rect x="835" y="155" width="30" height="30" fill="hsl(240 100% 95.78294660423471%)" />
  <rect x="65" y="190" width="30" height="30" fill="hsl(240 100% 50%)" />
  <rect x="100" y="190" width="30" height="30" fill="hsl(240 100% 50%)" />
  <rect x="135" y="190" width="30" height="30" fill="hsl(240 100% 50%)" />
  <rect x="170" y="190" width="30" height="30" fill="hsl(240 100% 50%)" />
  <rect x="205" y="190" width="30" height="30" fill="hsl(240 100% 50%)" />
  <rect x="240" y="190" width="30" height="30" fill="hsl(240 100% 50%)" />
  <rect x="275" y="190" width="30" height="30" fill="hsl(240 100% 50%)" />
  <rect x="310" y="190" width="30" height="30" fill="hsl(240 100% 50%)" />
  <rect x="345" y="190" width="30" height="30" fill="hsl(240 100% 50%)" />
  <rect x="380" y="190" width="30" height="30" fill="hsl(240 100% 50%)" />
  <rect x="415" y="190" width="30" height="30" fill="hsl(240 100% 50%)" />
  <rect x="450" y="190" width="30" height="30" fill="hsl(240 100% 50%)" />
  <rect x="485" y="190" width="30" height="30" fill="hsl(240 100% 50%)" />
  <rect x="520" y="190" width="30" height="30" fill="hsl(240 100% 50%)" />
  <rect x="555" y="190" width="30" height="30" fill="hsl(240 100% 50%)" />
  <rect x="590" y="190" width="30" height="30" fill="hsl(240 100% 50%)" />
  <rect x="625" y="190" width="30" height="30" fill="hsl(240 100% 50%)" />
  <rect x="660" y="190" width="30" height="30" fill="hsl(240 100% 50%)" />
  <rect x="695" y="190" width="30" height="30" fill="hsl(240 100% 50%)" />
  <rect x="730" y="190" width="30" height="30" fill="hsl(240 100% 50%)" />
  <rect x="765" y="190" width="30" height="30" fill="hsl(240 100% 50%)" />
  <rect x="800" y="190" width="30" height="30" fill="hsl(240 100% 50%)" />
  <rect x="835" y="190" width="30" height="30" fill="hsl(240 100% 50%)" />
  <rect x="100" y="225" width="30" height="30" fill="hsl(240 100% 96.73591918271899%)" />
  <rect x="135" y="225" width="30" height="30" fill="hsl(240 100% 89.28260248396822%)" />
  <rect x="170" y="225" width="30" height="30" fill="hsl(240 100% 89.46920985991481%)" />
  <rect x="240" y="225" width="30" height="30" fill="hsl(240 100% 91.27666278784226%)" />
  <rect x="310" y="225" width="30" height="30" fill="rgb(255 255 255 / 50%)" />
  <rect x="415" y="225" width="30" height="30" fill="hsl(240 100% 90.67308543235545%)" />
  <rect x="520" y="225" width="30" height="30" fill="hsl(240 100% 50%)" />
  <rect x="625" y="225" width="30" height="30" fill="rgb(255 255 255 / 50%)" />
  <rect x="730" y="225" width="30" height="30" fill="hsl(240 100% 93.15082801486298%)" />
  <rect x="765" y="225" width="30" height="30" fill="rgb(255 255 255 / 50%)" />
  <rect x="835" y="225" width="30" height="30" fill="hsl(240 100% 94.50344686094228%)" />
  <rect x="65" y="260" width="30" height="30" fill="hsl(240 100% 99.83597574837891%)" />
  <rect x="135" y="260" width="30" height="30" fill="hsl(240 100% 99.84801304960186%)" />
  <rect x="170" y="260" width="30" height="30" fill="hsl(240 100% 98.83957881676015%)" />
  <rect x="205" y="260" width="30" height="30" fill="rgb(255 255 255 / 50%)" />
  <rect x="240" y="260" width="30" height="30" fill="hsl(240 100% 87.13941354262457%)" />
  <rect x="310" y="260" width="30" height="30" fill="rgb(255 255 255 / 50%)" />
  <rect x="415" y="260" width="30" height="30" fill="hsl(240 100% 80.74502328892989%)" />
  <rect x="450" y="260" width="30" height="30" fill="rgb(255 255 255 / 50%)" />
  <rect x="485" y="260" width="30" height="30" fill="hsl(240 100% 50%)" />
  <rect x="520" y="260" width="30" height="30" fill="hsl(240 100% 71.08523281364317%)" />
  <rect x="625" y="260" width="30" height="30" fill="hsl(240 100% 96.89470761121748%)" />
  <rect x="695" y="260" width="30" height="30" fill="hsl(240 100% 94.09540244502752%)" />
  <rect x="65" y="295" width="30" height="30" fill="hsl(240 100% 86.06162668528262%)" />
  <rect x="100" y="295" width="30" height="30" fill="hsl(240 100% 97.54498501770709%)" />
  <rect x="135" y="295" width="30" height="30" fill="hsl(240 100% 95.1002553065396%)" />
  <rect x="170" y="295" width="30" height="30" fill="hsl(240 100% 90.64244165769779%)" />
  <rect x="205" y="295" width="30" height="30" fill="hsl(240 100% 99.46777578886439%)" />
  <rect x="240" y="295" width="30" height="30" fill="hsl(240 100% 50.427735152211284%)" />
  <rect x="275" y="295" width="30" height="30" fill="hsl(240 100% 50%)" />
  <rect x="310" y="295" width="30" height="30" fill="hsl(240 100% 99.49757955475226%)" />
  <rect x="345" y="295" width="30" height="30" fill="hsl(240 100% 94.7224475929574%)" />
  <rect x="415" y="295" width="30" height="30" fill="hsl(240 100% 55.079588703555004%)" />
  <rect x="450" y="295" width="30" height="30" fill="hsl(240 100% 99.34215510831119%)" />
  <rect x="485" y="295" width="30" height="30" fill="hsl(240 100% 88.5372571608775%)" />
  <rect x="520" y="295" width="30" height="30" fill="hsl(240 100% 57.69001318119547%)" />
  <rect x="695" y="295" width="30" height="30" fill="hsl(240 100% 97.59666175425232%)" />
  <rect x="800" y="295" width="30" height="30" fill="hsl(240 100% 99.56474145690397%)" />
  <rect x="835" y="295" width="30" height="30" fill="hsl(240 100% 99.9542283180056%)" />
  <rect x="65" y="330" width="30" height="30" fill="hsl(240 100% 89.2383775339583%)" />
  <rect x="100" y="330" width="30" height="30" fill="hsl(240 100% 94.91495749734956%)" />
  <rect x="135" y="330" width="30" height="30" fill="hsl(240 100% 97.25801967284724%)" />
  <rect x="170" y="330" width="30" height="30" fill="hsl(240 100% 88.89783782231224%)" />
  <rect x="205" y="330" width="30" height="30" fill="hsl(240 100% 99.22591770895156%)" />
  <rect x="240" y="330" width="30" height="30" fill="hsl(240 100% 80.35975971687886%)" />
  <rect x="275" y="330" width="30" height="30" fill="hsl(240 100% 88.37385192386867%)" />
  <rect x="310" y="330" width="30" height="30" fill="rgb(255 255 255 / 50%)" />
  <rect x="345" y="330" width="30" height="30" fill="hsl(240 100% 97.34371041065232%)" />
  <rect x="415" y="330" width="30" height="30" fill="hsl(240 100% 86.37550575302856%)" />
  <rect x="450" y="330" width="30" height="30" fill="hsl(240 100% 99.81557572734287%)" />
  <rect x="485" y="330" width="30" height="30" fill="hsl(240 100% 72.93362249799159%)" />
  <rect x="520" y="330" width="30" height="30" fill="hsl(240 100% 77.57967644013573%)" />
  <rect x="590" y="330" width="30" height="30" fill="hsl(240 100% 93.99358402204655%)" />
  <rect x="625" y="330" width="30" height="30" fill="hsl(240 100% 50%)" />
  <rect x="765" y="330" width="30" height="30" fill="hsl(240 100% 94.62768359830973%)" />
  <rect x="800" y="330" width="30" height="30" fill="hsl(240 100% 99.23183527800774%)" />
  <rect x="835" y="330" width="30" height="30" fill="hsl(240 100% 81.04013359732305%)" />
  <rect x="65" y="365" width="30" height="30" fill="hsl(240 100% 56.926301520261546%)" />
  <rect x="100" y="365" width="30" height="30" fill="hsl(240 100% 71.5048503248803%)" />
  <rect x="135" y="365" width="30" height="30" fill="hsl(240 100% 82.11463917654436%)" />
  <rect x="170" y="365" width="30" height="30" fill="hsl(240 100% 50%)" />
  <rect x="205" y="365" width="30" height="30" fill="hsl(240 100% 96.23376664763339%)" />
  <rect x="240" y="365" width="30" height="30" fill="hsl(240 100% 59.722397549607656%)" />
  <rect x="275" y="365" width="30" height="30" fill="hsl(240 100% 92.76815266683619%)" />
  <rect x="310" y="365" width="30" height="30" fill="hsl(240 100% 99.86112999271035%)" />
  <rect x="415" y="365" width="30" height="30" fill="hsl(240 100% 66.69387052311833%)" />
  <rect x="520" y="365" width="30" height="30" fill="hsl(240 100% 85.938864105268%)" />
  <rect x="625" y="365" width="30" height="30" fill="hsl(240 100% 99.63072724737847%)" />
  <rect x="730" y="365" width="30" height="30" fill="hsl(240 100% 63.732827667454664%)" />
  <rect x="765" y="365" width="30" height="30" fill="hsl(240 100% 98.18607400777401%)" />
  <rect x="835" y="365" width="30" height="30" fill="hsl(240 100% 98.7113304195287%)" />
  <rect x="65" y="400" width="30" height="30" fill="hsl(240 100% 98.03996989996666%)" />
  <rect x="100" y="400" width="30" height="30" fill="hsl(240 100% 99.23079466558153%)" />
  <rect x="135" y="400" width="30" height="30" fill="hsl(240 100% 99.57889761864257%)" />
  <rect x="170" y="400" width="30" height="30" fill="hsl(240 100% 93.87025762058808%)" />
  <rect x="205" y="400" width="30" height="30" fill="hsl(240 100% 99.00650114334903%)" />
  <rect x="240" y="400" width="30" height="30" fill="hsl(240 100% 83.42979184020865%)" />
  <rect x="275" y="400" width="30" height="30" fill="hsl(240 100% 94.10674875386003%)" />
  <rect x="310" y="400" width="30" height="30" fill="rgb(255 255 255 / 50%)" />
  <rect x="380" y="400" width="30" height="30" fill="rgb(255 255 255 / 50%)" />
  <rect x="415" y="400" width="30" height="30" fill="hsl(240 100% 92.18674761263024%)" />
  <rect x="450" y="400" width="30" height="30" fill="hsl(240 100% 99.96553132719606%)" />
  <rect x="485" y="400" width="30" height="30" fill="hsl(240 100% 71.89582230701673%)" />
  <rect x="520" y="400" width="30" height="30" fill="hsl(240 100% 50%)" />
  <rect x="555" y="400" width="30" height="30" fill="hsl(240 100% 98.85273702197694%)" />
  <rect x="660" y="400" width="30" height="30" fill="rgb(255 255 255 / 50%)" />
  <rect x="835" y="400" width="30" height="30" fill="hsl(240 100% 98.89005422923948%)" />
  <rect x="65" y="435" width="30" height="30" fill="hsl(240 100% 92.94453520282454%)" />
  <rect x="240" y="435" width="30" height="30" fill="hsl(240 100% 50%)" />
  <rect x="310" y="435" width="30" height="30" fill="hsl(240 100% 94.25811175782299%)" />
  <rect x="415" y="435" width="30" height="30" fill="hsl(240 100% 87.06650812826592%)" />
  <rect x="450" y="435" width="30" height="30" fill="hsl(240 100% 99.79128864701055%)" />
  <rect x="65" y="470" width="30" height="30" fill="hsl(240 100% 50%)" />
  <rect x="240" y="470" width="30" height="30" fill="hsl(240 100% 50.12842778822483%)" />
  <rect x="310" y="470" width="30" height="30" fill="hsl(240 100% 97.08643648541509%)" />
  <rect x="415" y="470" width="30" height="30" fill="hsl(240 100% 89.12028465781448%)" />
  <rect x="450" y="470" width="30" height="30" fill="hsl(240 100% 99.5650248038252%)" />
</svg>
