<svg xmlns="http://www.w3.org/2000/svg" viewBox="0 0 870 505">
  <rect x="0" y="0" width="870" height="505" rx="5" ry="5" fill="#222" />
  <text x="60" y="100" fill="white" font-family="sans-serif" font-weight="bold" font-size="12" text-anchor="end" dominant-baseline="middle">ba</text>
  <text x="60" y="135" fill="white" font-family="sans-serif" font-weight="bold" font-size="12" text-anchor="end" dominant-baseline="middle">det</text>
  <text x="60" y="170" fill="white" font-family="sans-serif" font-weight="bold" font-size="12" text-anchor="end" dominant-baseline="middle">gmm</text>
  <text x="60" y="205" fill="white" font-family="sans-serif" font-weight="bold" font-size="12" text-anchor="end" dominant-baseline="middle">hello</text>
  <text x="60" y="240" fill="white" font-family="sans-serif" font-weight="bold" font-size="12" text-anchor="end" dominant-baseline="middle">ht</text>
  <text x="60" y="275" fill="white" font-family="sans-serif" font-weight="bold" font-size="12" text-anchor="end" dominant-baseline="middle">kmeans</text>
  <text x="60" y="310" fill="white" font-family="sans-serif" font-weight="bold" font-size="12" text-anchor="end" dominant-baseline="middle">llsq</text>
  <text x="60" y="345" fill="white" font-family="sans-serif" font-weight="bold" font-size="12" text-anchor="end" dominant-baseline="middle">lse</text>
  <text x="60" y="380" fill="white" font-family="sans-serif" font-weight="bold" font-size="12" text-anchor="end" dominant-baseline="middle">lstm</text>
  <text x="60" y="415" fill="white" font-family="sans-serif" font-weight="bold" font-size="12" text-anchor="end" dominant-baseline="middle">ode</text>
  <text x="60" y="450" fill="white" font-family="sans-serif" font-weight="bold" font-size="12" text-anchor="end" dominant-baseline="middle">particle</text>
  <text x="60" y="485" fill="white" font-family="sans-serif" font-weight="bold" font-size="12" text-anchor="end" dominant-baseline="middle">saddle</text>
  <text x="80" y="80" fill="white" font-family="sans-serif" font-weight="bold" font-size="12" text-anchor="end" dominant-baseline="middle" transform="rotate(90 80 80)">ad-hpp</text>
  <text x="115" y="80" fill="white" font-family="sans-serif" font-weight="bold" font-size="12" text-anchor="end" dominant-baseline="middle" transform="rotate(90 115 80)">adept</text>
  <text x="150" y="80" fill="white" font-family="sans-serif" font-weight="bold" font-size="12" text-anchor="end" dominant-baseline="middle" transform="rotate(90 150 80)">adol-c</text>
  <text x="185" y="80" fill="white" font-family="sans-serif" font-weight="bold" font-size="12" text-anchor="end" dominant-baseline="middle" transform="rotate(90 185 80)">codipack</text>
  <text x="220" y="80" fill="white" font-family="sans-serif" font-weight="bold" font-size="12" text-anchor="end" dominant-baseline="middle" transform="rotate(90 220 80)">cppad</text>
  <text x="255" y="80" fill="white" font-family="sans-serif" font-weight="bold" font-size="12" text-anchor="end" dominant-baseline="middle" transform="rotate(90 255 80)">enzyme</text>
  <text x="290" y="80" fill="white" font-family="sans-serif" font-weight="bold" font-size="12" text-anchor="end" dominant-baseline="middle" transform="rotate(90 290 80)">enzyme-jl</text>
  <text x="325" y="80" fill="white" font-family="sans-serif" font-weight="bold" font-size="12" text-anchor="end" dominant-baseline="middle" transform="rotate(90 325 80)">finite</text>
  <text x="360" y="80" fill="white" font-family="sans-serif" font-weight="bold" font-size="12" text-anchor="end" dominant-baseline="middle" transform="rotate(90 360 80)">floretta</text>
  <text x="395" y="80" fill="white" font-family="sans-serif" font-weight="bold" font-size="12" text-anchor="end" dominant-baseline="middle" transform="rotate(90 395 80)">forwarddiff-jl</text>
  <text x="430" y="80" fill="white" font-family="sans-serif" font-weight="bold" font-size="12" text-anchor="end" dominant-baseline="middle" transform="rotate(90 430 80)">futhark</text>
  <text x="465" y="80" fill="white" font-family="sans-serif" font-weight="bold" font-size="12" text-anchor="end" dominant-baseline="middle" transform="rotate(90 465 80)">haskell</text>
  <text x="500" y="80" fill="white" font-family="sans-serif" font-weight="bold" font-size="12" text-anchor="end" dominant-baseline="middle" transform="rotate(90 500 80)">jax</text>
  <text x="535" y="80" fill="white" font-family="sans-serif" font-weight="bold" font-size="12" text-anchor="end" dominant-baseline="middle" transform="rotate(90 535 80)">manual</text>
  <text x="570" y="80" fill="white" font-family="sans-serif" font-weight="bold" font-size="12" text-anchor="end" dominant-baseline="middle" transform="rotate(90 570 80)">mooncake-jl</text>
  <text x="605" y="80" fill="white" font-family="sans-serif" font-weight="bold" font-size="12" text-anchor="end" dominant-baseline="middle" transform="rotate(90 605 80)">ocaml</text>
  <text x="640" y="80" fill="white" font-family="sans-serif" font-weight="bold" font-size="12" text-anchor="end" dominant-baseline="middle" transform="rotate(90 640 80)">pytorch</text>
  <text x="675" y="80" fill="white" font-family="sans-serif" font-weight="bold" font-size="12" text-anchor="end" dominant-baseline="middle" transform="rotate(90 675 80)">reversediff-jl</text>
  <text x="710" y="80" fill="white" font-family="sans-serif" font-weight="bold" font-size="12" text-anchor="end" dominant-baseline="middle" transform="rotate(90 710 80)">scilean</text>
  <text x="745" y="80" fill="white" font-family="sans-serif" font-weight="bold" font-size="12" text-anchor="end" dominant-baseline="middle" transform="rotate(90 745 80)">tapenade</text>
  <text x="780" y="80" fill="white" font-family="sans-serif" font-weight="bold" font-size="12" text-anchor="end" dominant-baseline="middle" transform="rotate(90 780 80)">tensorflow</text>
  <text x="815" y="80" fill="white" font-family="sans-serif" font-weight="bold" font-size="12" text-anchor="end" dominant-baseline="middle" transform="rotate(90 815 80)">tensorflow-js</text>
  <text x="850" y="80" fill="white" font-family="sans-serif" font-weight="bold" font-size="12" text-anchor="end" dominant-baseline="middle" transform="rotate(90 850 80)">zygote</text>
  <rect x="65" y="85" width="30" height="30" fill="hsl(240 100% 80.57936216150051%)" />
  <rect x="100" y="85" width="30" height="30" fill="hsl(240 100% 82.28918343107343%)" />
  <rect x="135" y="85" width="30" height="30" fill="hsl(240 100% 97.97054111564002%)" />
  <rect x="170" y="85" width="30" height="30" fill="hsl(240 100% 81.90758428543623%)" />
  <rect x="205" y="85" width="30" height="30" fill="hsl(240 100% 98.94623391051124%)" />
  <rect x="240" y="85" width="30" height="30" fill="hsl(240 100% 50%)" />
  <rect x="310" y="85" width="30" height="30" fill="hsl(240 100% 92.86751033508408%)" />
  <rect x="415" y="85" width="30" height="30" fill="hsl(240 100% 66.89220516986883%)" />
  <rect x="520" y="85" width="30" height="30" fill="hsl(240 100% 54.092983643271644%)" />
  <rect x="625" y="85" width="30" height="30" fill="rgb(255 255 255 / 50%)" />
  <rect x="730" y="85" width="30" height="30" fill="hsl(240 100% 74.37097986781856%)" />
  <rect x="765" y="85" width="30" height="30" fill="rgb(255 255 255 / 50%)" />
  <rect x="835" y="85" width="30" height="30" fill="hsl(240 100% 99.7234409776845%)" />
  <rect x="65" y="120" width="30" height="30" fill="hsl(240 100% 50%)" />
  <rect x="100" y="120" width="30" height="30" fill="hsl(240 100% 83.19355660227774%)" />
  <rect x="135" y="120" width="30" height="30" fill="hsl(240 100% 85.39329397089824%)" />
  <rect x="170" y="120" width="30" height="30" fill="hsl(240 100% 52.28265480572214%)" />
  <rect x="205" y="120" width="30" height="30" fill="hsl(240 100% 92.70532138785931%)" />
  <rect x="240" y="120" width="30" height="30" fill="hsl(240 100% 91.69081586064718%)" />
  <rect x="275" y="120" width="30" height="30" fill="hsl(240 100% 99.34689056958948%)" />
  <rect x="310" y="120" width="30" height="30" fill="hsl(240 100% 98.99917769784966%)" />
  <rect x="380" y="120" width="30" height="30" fill="hsl(240 100% 93.55762634068424%)" />
  <rect x="415" y="120" width="30" height="30" fill="hsl(240 100% 94.64211791876909%)" />
  <rect x="450" y="120" width="30" height="30" fill="hsl(240 100% 97.88055531484022%)" />
  <rect x="520" y="120" width="30" height="30" fill="hsl(240 100% 79.66132612399502%)" />
  <rect x="555" y="120" width="30" height="30" fill="hsl(240 100% 90.55231437740497%)" />
  <rect x="660" y="120" width="30" height="30" fill="rgb(255 255 255 / 50%)" />
  <rect x="835" y="120" width="30" height="30" fill="rgb(255 255 255 / 50%)" />
  <rect x="65" y="155" width="30" height="30" fill="hsl(240 100% 98.00728838951595%)" />
  <rect x="100" y="155" width="30" height="30" fill="hsl(240 100% 98.76008969988219%)" />
  <rect x="135" y="155" width="30" height="30" fill="hsl(240 100% 99.06587864383972%)" />
  <rect x="170" y="155" width="30" height="30" fill="hsl(240 100% 97.93767560153888%)" />
  <rect x="205" y="155" width="30" height="30" fill="hsl(240 100% 99.84243827397337%)" />
  <rect x="240" y="155" width="30" height="30" fill="hsl(240 100% 90.7649576538019%)" />
  <rect x="275" y="155" width="30" height="30" fill="hsl(240 100% 91.61756922861046%)" />
  <rect x="310" y="155" width="30" height="30" fill="rgb(255 255 255 / 50%)" />
  <rect x="415" y="155" width="30" height="30" fill="hsl(240 100% 92.62499364965163%)" />
  <rect x="485" y="155" width="30" height="30" fill="hsl(240 100% 50%)" />
  <rect x="520" y="155" width="30" height="30" fill="hsl(240 100% 80.41867592979261%)" />
  <rect x="590" y="155" width="30" height="30" fill="hsl(240 100% 99.56170439482214%)" />
  <rect x="625" y="155" width="30" height="30" fill="hsl(240 100% 66.11243475184666%)" />
  <rect x="695" y="155" width="30" height="30" fill="hsl(240 100% 95.18394958219162%)" />
  <rect x="730" y="155" width="30" height="30" fill="hsl(240 100% 82.97924294479732%)" />
  <rect x="765" y="155" width="30" height="30" fill="hsl(240 100% 99.55621225872244%)" />
  <rect x="835" y="155" width="30" height="30" fill="hsl(240 100% 96.41506725060275%)" />
  <rect x="65" y="190" width="30" height="30" fill="hsl(240 100% 50%)" />
  <rect x="100" y="190" width="30" height="30" fill="hsl(240 100% 50%)" />
  <rect x="135" y="190" width="30" height="30" fill="hsl(240 100% 50%)" />
  <rect x="170" y="190" width="30" height="30" fill="hsl(240 100% 50%)" />
  <rect x="205" y="190" width="30" height="30" fill="hsl(240 100% 50%)" />
  <rect x="240" y="190" width="30" height="30" fill="hsl(240 100% 50%)" />
  <rect x="275" y="190" width="30" height="30" fill="hsl(240 100% 50%)" />
  <rect x="310" y="190" width="30" height="30" fill="hsl(240 100% 50%)" />
  <rect x="345" y="190" width="30" height="30" fill="hsl(240 100% 50%)" />
  <rect x="380" y="190" width="30" height="30" fill="hsl(240 100% 50%)" />
  <rect x="415" y="190" width="30" height="30" fill="hsl(240 100% 50%)" />
  <rect x="450" y="190" width="30" height="30" fill="hsl(240 100% 50%)" />
  <rect x="485" y="190" width="30" height="30" fill="hsl(240 100% 50%)" />
  <rect x="520" y="190" width="30" height="30" fill="hsl(240 100% 50%)" />
  <rect x="555" y="190" width="30" height="30" fill="hsl(240 100% 50%)" />
  <rect x="590" y="190" width="30" height="30" fill="hsl(240 100% 50%)" />
  <rect x="625" y="190" width="30" height="30" fill="hsl(240 100% 50%)" />
  <rect x="660" y="190" width="30" height="30" fill="hsl(240 100% 50%)" />
  <rect x="695" y="190" width="30" height="30" fill="hsl(240 100% 50%)" />
  <rect x="730" y="190" width="30" height="30" fill="hsl(240 100% 50%)" />
  <rect x="765" y="190" width="30" height="30" fill="hsl(240 100% 50%)" />
  <rect x="800" y="190" width="30" height="30" fill="hsl(240 100% 50%)" />
  <rect x="835" y="190" width="30" height="30" fill="hsl(240 100% 50%)" />
  <rect x="100" y="225" width="30" height="30" fill="hsl(240 100% 96.1944601674306%)" />
  <rect x="135" y="225" width="30" height="30" fill="hsl(240 100% 86.41045676653104%)" />
  <rect x="170" y="225" width="30" height="30" fill="hsl(240 100% 87.7950037857122%)" />
  <rect x="240" y="225" width="30" height="30" fill="hsl(240 100% 89.98225613987763%)" />
  <rect x="310" y="225" width="30" height="30" fill="rgb(255 255 255 / 50%)" />
  <rect x="415" y="225" width="30" height="30" fill="hsl(240 100% 89.18036366749546%)" />
  <rect x="520" y="225" width="30" height="30" fill="hsl(240 100% 50%)" />
  <rect x="625" y="225" width="30" height="30" fill="rgb(255 255 255 / 50%)" />
  <rect x="730" y="225" width="30" height="30" fill="hsl(240 100% 92.21916129303303%)" />
  <rect x="765" y="225" width="30" height="30" fill="rgb(255 255 255 / 50%)" />
  <rect x="835" y="225" width="30" height="30" fill="hsl(240 100% 93.37565860977958%)" />
  <rect x="65" y="260" width="30" height="30" fill="hsl(240 100% 99.89305610449965%)" />
  <rect x="135" y="260" width="30" height="30" fill="hsl(240 100% 99.85756816035062%)" />
  <rect x="170" y="260" width="30" height="30" fill="hsl(240 100% 98.92970820172987%)" />
  <rect x="205" y="260" width="30" height="30" fill="rgb(255 255 255 / 50%)" />
  <rect x="240" y="260" width="30" height="30" fill="hsl(240 100% 87.04330516166708%)" />
  <rect x="310" y="260" width="30" height="30" fill="rgb(255 255 255 / 50%)" />
  <rect x="415" y="260" width="30" height="30" fill="hsl(240 100% 80.90385378110089%)" />
  <rect x="450" y="260" width="30" height="30" fill="rgb(255 255 255 / 50%)" />
  <rect x="485" y="260" width="30" height="30" fill="hsl(240 100% 50%)" />
  <rect x="520" y="260" width="30" height="30" fill="hsl(240 100% 72.17820032242751%)" />
  <rect x="625" y="260" width="30" height="30" fill="hsl(240 100% 97.02195484013808%)" />
  <rect x="695" y="260" width="30" height="30" fill="hsl(240 100% 94.0813759783648%)" />
  <rect x="65" y="295" width="30" height="30" fill="hsl(240 100% 86.40615515770598%)" />
  <rect x="100" y="295" width="30" height="30" fill="hsl(240 100% 97.52371193146485%)" />
  <rect x="135" y="295" width="30" height="30" fill="hsl(240 100% 95.057174154194%)" />
  <rect x="170" y="295" width="30" height="30" fill="hsl(240 100% 89.37949171944642%)" />
  <rect x="205" y="295" width="30" height="30" fill="hsl(240 100% 99.49153889601949%)" />
  <rect x="240" y="295" width="30" height="30" fill="hsl(240 100% 50.75292194893034%)" />
  <rect x="275" y="295" width="30" height="30" fill="hsl(240 100% 50%)" />
  <rect x="310" y="295" width="30" height="30" fill="hsl(240 100% 99.50077574522975%)" />
  <rect x="345" y="295" width="30" height="30" fill="hsl(240 100% 94.72771037948287%)" />
  <rect x="415" y="295" width="30" height="30" fill="hsl(240 100% 55.317401622862874%)" />
  <rect x="450" y="295" width="30" height="30" fill="hsl(240 100% 99.32735482752035%)" />
  <rect x="485" y="295" width="30" height="30" fill="hsl(240 100% 88.56447782717818%)" />
  <rect x="520" y="295" width="30" height="30" fill="hsl(240 100% 57.97069506439646%)" />
  <rect x="695" y="295" width="30" height="30" fill="hsl(240 100% 97.62759546105968%)" />
  <rect x="800" y="295" width="30" height="30" fill="hsl(240 100% 99.57505284186847%)" />
  <rect x="835" y="295" width="30" height="30" fill="hsl(240 100% 99.95541195841558%)" />
  <rect x="65" y="330" width="30" height="30" fill="hsl(240 100% 87.19516689184985%)" />
  <rect x="100" y="330" width="30" height="30" fill="hsl(240 100% 94.31262809190783%)" />
  <rect x="135" y="330" width="30" height="30" fill="hsl(240 100% 96.99476430310577%)" />
  <rect x="170" y="330" width="30" height="30" fill="hsl(240 100% 86.88536055270109%)" />
  <rect x="205" y="330" width="30" height="30" fill="hsl(240 100% 99.20955992167647%)" />
  <rect x="240" y="330" width="30" height="30" fill="hsl(240 100% 79.73240950441777%)" />
  <rect x="275" y="330" width="30" height="30" fill="hsl(240 100% 89.02080746959341%)" />
  <rect x="310" y="330" width="30" height="30" fill="rgb(255 255 255 / 50%)" />
  <rect x="345" y="330" width="30" height="30" fill="hsl(240 100% 97.26451761089699%)" />
  <rect x="415" y="330" width="30" height="30" fill="hsl(240 100% 85.75145243240357%)" />
  <rect x="450" y="330" width="30" height="30" fill="hsl(240 100% 99.82800884247067%)" />
  <rect x="485" y="330" width="30" height="30" fill="hsl(240 100% 70.44977354724699%)" />
  <rect x="520" y="330" width="30" height="30" fill="hsl(240 100% 71.00412499534623%)" />
  <rect x="590" y="330" width="30" height="30" fill="hsl(240 100% 93.7957574390607%)" />
  <rect x="625" y="330" width="30" height="30" fill="hsl(240 100% 50%)" />
  <rect x="765" y="330" width="30" height="30" fill="hsl(240 100% 94.83385162683433%)" />
  <rect x="800" y="330" width="30" height="30" fill="hsl(240 100% 99.2188690167537%)" />
  <rect x="835" y="330" width="30" height="30" fill="hsl(240 100% 81.55333486684962%)" />
  <rect x="65" y="365" width="30" height="30" fill="hsl(240 100% 57.61655229004348%)" />
  <rect x="100" y="365" width="30" height="30" fill="hsl(240 100% 71.07104576813325%)" />
  <rect x="135" y="365" width="30" height="30" fill="hsl(240 100% 82.00289679770303%)" />
  <rect x="170" y="365" width="30" height="30" fill="hsl(240 100% 50%)" />
  <rect x="205" y="365" width="30" height="30" fill="hsl(240 100% 96.0804395324922%)" />
  <rect x="240" y="365" width="30" height="30" fill="hsl(240 100% 60.91214034863257%)" />
  <rect x="275" y="365" width="30" height="30" fill="hsl(240 100% 92.58432235894705%)" />
  <rect x="310" y="365" width="30" height="30" fill="hsl(240 100% 99.86177589604175%)" />
  <rect x="415" y="365" width="30" height="30" fill="hsl(240 100% 66.24395970855136%)" />
  <rect x="520" y="365" width="30" height="30" fill="hsl(240 100% 86.10635047458918%)" />
  <rect x="625" y="365" width="30" height="30" fill="hsl(240 100% 99.63852394256%)" />
  <rect x="730" y="365" width="30" height="30" fill="hsl(240 100% 63.286736127888275%)" />
  <rect x="765" y="365" width="30" height="30" fill="hsl(240 100% 98.18194490765146%)" />
  <rect x="835" y="365" width="30" height="30" fill="hsl(240 100% 98.72352318384911%)" />
  <rect x="65" y="400" width="30" height="30" fill="hsl(240 100% 98.14634867517772%)" />
  <rect x="100" y="400" width="30" height="30" fill="hsl(240 100% 99.43617689239773%)" />
  <rect x="135" y="400" width="30" height="30" fill="hsl(240 100% 99.66452071518037%)" />
  <rect x="170" y="400" width="30" height="30" fill="hsl(240 100% 94.01576583969103%)" />
  <rect x="205" y="400" width="30" height="30" fill="hsl(240 100% 99.24031460894248%)" />
  <rect x="240" y="400" width="30" height="30" fill="hsl(240 100% 87.74656537753441%)" />
  <rect x="275" y="400" width="30" height="30" fill="hsl(240 100% 95.37179513645069%)" />
  <rect x="310" y="400" width="30" height="30" fill="rgb(255 255 255 / 50%)" />
  <rect x="380" y="400" width="30" height="30" fill="rgb(255 255 255 / 50%)" />
  <rect x="415" y="400" width="30" height="30" fill="hsl(240 100% 94.04603430666404%)" />
  <rect x="450" y="400" width="30" height="30" fill="hsl(240 100% 99.97151241293493%)" />
  <rect x="485" y="400" width="30" height="30" fill="hsl(240 100% 78.66850024715391%)" />
  <rect x="520" y="400" width="30" height="30" fill="hsl(240 100% 50%)" />
  <rect x="555" y="400" width="30" height="30" fill="hsl(240 100% 99.12814574282567%)" />
  <rect x="660" y="400" width="30" height="30" fill="rgb(255 255 255 / 50%)" />
  <rect x="835" y="400" width="30" height="30" fill="hsl(240 100% 99.1662983846109%)" />
  <rect x="65" y="435" width="30" height="30" fill="hsl(240 100% 93.28731527188225%)" />
  <rect x="240" y="435" width="30" height="30" fill="hsl(240 100% 50%)" />
  <rect x="310" y="435" width="30" height="30" fill="hsl(240 100% 93.85729342268922%)" />
  <rect x="415" y="435" width="30" height="30" fill="hsl(240 100% 87.00958440154912%)" />
  <rect x="450" y="435" width="30" height="30" fill="hsl(240 100% 99.78532055949537%)" />
  <rect x="65" y="470" width="30" height="30" fill="hsl(240 100% 50%)" />
  <rect x="240" y="470" width="30" height="30" fill="hsl(240 100% 50.008069117391045%)" />
  <rect x="310" y="470" width="30" height="30" fill="hsl(240 100% 96.98271460353416%)" />
  <rect x="415" y="470" width="30" height="30" fill="hsl(240 100% 89.05426473487103%)" />
  <rect x="450" y="470" width="30" height="30" fill="hsl(240 100% 99.570293314691%)" />
</svg>
