<svg xmlns="http://www.w3.org/2000/svg" viewBox="0 0 660 470">
  <rect x="0" y="0" width="660" height="470" rx="5" ry="5" fill="#222" />
  <text x="60" y="100" fill="white" font-family="sans-serif" font-weight="bold" font-size="12" text-anchor="end" dominant-baseline="middle">ba</text>
  <text x="60" y="135" fill="white" font-family="sans-serif" font-weight="bold" font-size="12" text-anchor="end" dominant-baseline="middle">det</text>
  <text x="60" y="170" fill="white" font-family="sans-serif" font-weight="bold" font-size="12" text-anchor="end" dominant-baseline="middle">gmm</text>
  <text x="60" y="205" fill="white" font-family="sans-serif" font-weight="bold" font-size="12" text-anchor="end" dominant-baseline="middle">hello</text>
  <text x="60" y="240" fill="white" font-family="sans-serif" font-weight="bold" font-size="12" text-anchor="end" dominant-baseline="middle">ht</text>
  <text x="60" y="275" fill="white" font-family="sans-serif" font-weight="bold" font-size="12" text-anchor="end" dominant-baseline="middle">kmeans</text>
  <text x="60" y="310" fill="white" font-family="sans-serif" font-weight="bold" font-size="12" text-anchor="end" dominant-baseline="middle">llsq</text>
  <text x="60" y="345" fill="white" font-family="sans-serif" font-weight="bold" font-size="12" text-anchor="end" dominant-baseline="middle">lstm</text>
  <text x="60" y="380" fill="white" font-family="sans-serif" font-weight="bold" font-size="12" text-anchor="end" dominant-baseline="middle">ode</text>
  <text x="60" y="415" fill="white" font-family="sans-serif" font-weight="bold" font-size="12" text-anchor="end" dominant-baseline="middle">particle</text>
  <text x="60" y="450" fill="white" font-family="sans-serif" font-weight="bold" font-size="12" text-anchor="end" dominant-baseline="middle">saddle</text>
  <text x="80" y="80" fill="white" font-family="sans-serif" font-weight="bold" font-size="12" text-anchor="end" dominant-baseline="middle" transform="rotate(90 80 80)">adept</text>
  <text x="115" y="80" fill="white" font-family="sans-serif" font-weight="bold" font-size="12" text-anchor="end" dominant-baseline="middle" transform="rotate(90 115 80)">adol-c</text>
  <text x="150" y="80" fill="white" font-family="sans-serif" font-weight="bold" font-size="12" text-anchor="end" dominant-baseline="middle" transform="rotate(90 150 80)">codipack</text>
  <text x="185" y="80" fill="white" font-family="sans-serif" font-weight="bold" font-size="12" text-anchor="end" dominant-baseline="middle" transform="rotate(90 185 80)">cppad</text>
  <text x="220" y="80" fill="white" font-family="sans-serif" font-weight="bold" font-size="12" text-anchor="end" dominant-baseline="middle" transform="rotate(90 220 80)">enzyme</text>
  <text x="255" y="80" fill="white" font-family="sans-serif" font-weight="bold" font-size="12" text-anchor="end" dominant-baseline="middle" transform="rotate(90 255 80)">finite</text>
  <text x="290" y="80" fill="white" font-family="sans-serif" font-weight="bold" font-size="12" text-anchor="end" dominant-baseline="middle" transform="rotate(90 290 80)">floretta</text>
  <text x="325" y="80" fill="white" font-family="sans-serif" font-weight="bold" font-size="12" text-anchor="end" dominant-baseline="middle" transform="rotate(90 325 80)">futhark</text>
  <text x="360" y="80" fill="white" font-family="sans-serif" font-weight="bold" font-size="12" text-anchor="end" dominant-baseline="middle" transform="rotate(90 360 80)">haskell</text>
  <text x="395" y="80" fill="white" font-family="sans-serif" font-weight="bold" font-size="12" text-anchor="end" dominant-baseline="middle" transform="rotate(90 395 80)">jax</text>
  <text x="430" y="80" fill="white" font-family="sans-serif" font-weight="bold" font-size="12" text-anchor="end" dominant-baseline="middle" transform="rotate(90 430 80)">manual</text>
  <text x="465" y="80" fill="white" font-family="sans-serif" font-weight="bold" font-size="12" text-anchor="end" dominant-baseline="middle" transform="rotate(90 465 80)">ocaml</text>
  <text x="500" y="80" fill="white" font-family="sans-serif" font-weight="bold" font-size="12" text-anchor="end" dominant-baseline="middle" transform="rotate(90 500 80)">pytorch</text>
  <text x="535" y="80" fill="white" font-family="sans-serif" font-weight="bold" font-size="12" text-anchor="end" dominant-baseline="middle" transform="rotate(90 535 80)">scilean</text>
  <text x="570" y="80" fill="white" font-family="sans-serif" font-weight="bold" font-size="12" text-anchor="end" dominant-baseline="middle" transform="rotate(90 570 80)">tapenade</text>
  <text x="605" y="80" fill="white" font-family="sans-serif" font-weight="bold" font-size="12" text-anchor="end" dominant-baseline="middle" transform="rotate(90 605 80)">tensorflow</text>
  <text x="640" y="80" fill="white" font-family="sans-serif" font-weight="bold" font-size="12" text-anchor="end" dominant-baseline="middle" transform="rotate(90 640 80)">zygote</text>
  <rect x="65" y="85" width="30" height="30" fill="hsl(240 100% 83.97080972152331%)" />
  <rect x="100" y="85" width="30" height="30" fill="hsl(240 100% 97.8379918454381%)" />
  <rect x="135" y="85" width="30" height="30" fill="hsl(240 100% 89.86556844895144%)" />
  <rect x="205" y="85" width="30" height="30" fill="hsl(240 100% 51.25573990506098%)" />
  <rect x="240" y="85" width="30" height="30" fill="hsl(240 100% 92.66950079884433%)" />
  <rect x="310" y="85" width="30" height="30" fill="hsl(240 100% 66.20672736121685%)" />
  <rect x="415" y="85" width="30" height="30" fill="hsl(240 100% 50%)" />
  <rect x="485" y="85" width="30" height="30" fill="rgb(255 255 255 / 50%)" />
  <rect x="555" y="85" width="30" height="30" fill="hsl(240 100% 72.65013549851943%)" />
  <rect x="590" y="85" width="30" height="30" fill="rgb(255 255 255 / 50%)" />
  <rect x="65" y="120" width="30" height="30" fill="hsl(240 100% 89.73563095391086%)" />
  <rect x="100" y="120" width="30" height="30" fill="hsl(240 100% 90.56552703506918%)" />
  <rect x="135" y="120" width="30" height="30" fill="hsl(240 100% 67.03570987538345%)" />
  <rect x="170" y="120" width="30" height="30" fill="hsl(240 100% 50%)" />
  <rect x="205" y="120" width="30" height="30" fill="hsl(240 100% 94.54332595226751%)" />
  <rect x="240" y="120" width="30" height="30" fill="hsl(240 100% 99.3321410122853%)" />
  <rect x="310" y="120" width="30" height="30" fill="hsl(240 100% 96.53159619227455%)" />
  <rect x="345" y="120" width="30" height="30" fill="hsl(240 100% 98.63054354695522%)" />
  <rect x="415" y="120" width="30" height="30" fill="hsl(240 100% 86.59931786835563%)" />
  <rect x="65" y="155" width="30" height="30" fill="hsl(240 100% 98.24218403865254%)" />
  <rect x="100" y="155" width="30" height="30" fill="hsl(240 100% 98.73474375612619%)" />
  <rect x="135" y="155" width="30" height="30" fill="hsl(240 100% 97.27847218562549%)" />
  <rect x="170" y="155" width="30" height="30" fill="rgb(255 255 255 / 50%)" />
  <rect x="205" y="155" width="30" height="30" fill="hsl(240 100% 86.86534113749593%)" />
  <rect x="240" y="155" width="30" height="30" fill="rgb(255 255 255 / 50%)" />
  <rect x="310" y="155" width="30" height="30" fill="hsl(240 100% 90.07967741746408%)" />
  <rect x="380" y="155" width="30" height="30" fill="hsl(240 100% 69.74977091862185%)" />
  <rect x="415" y="155" width="30" height="30" fill="hsl(240 100% 75.82991777211272%)" />
  <rect x="450" y="155" width="30" height="30" fill="hsl(240 100% 99.35723921566952%)" />
  <rect x="485" y="155" width="30" height="30" fill="hsl(240 100% 50%)" />
  <rect x="520" y="155" width="30" height="30" fill="hsl(240 100% 93.25134401541267%)" />
  <rect x="555" y="155" width="30" height="30" fill="hsl(240 100% 76.01243270241062%)" />
  <rect x="590" y="155" width="30" height="30" fill="hsl(240 100% 89.38614352960182%)" />
  <rect x="65" y="190" width="30" height="30" fill="hsl(240 100% 50%)" />
  <rect x="100" y="190" width="30" height="30" fill="hsl(240 100% 50%)" />
  <rect x="135" y="190" width="30" height="30" fill="hsl(240 100% 50%)" />
  <rect x="170" y="190" width="30" height="30" fill="hsl(240 100% 50%)" />
  <rect x="205" y="190" width="30" height="30" fill="hsl(240 100% 50%)" />
  <rect x="240" y="190" width="30" height="30" fill="hsl(240 100% 50%)" />
  <rect x="275" y="190" width="30" height="30" fill="hsl(240 100% 50%)" />
  <rect x="310" y="190" width="30" height="30" fill="hsl(240 100% 50%)" />
  <rect x="345" y="190" width="30" height="30" fill="hsl(240 100% 50%)" />
  <rect x="380" y="190" width="30" height="30" fill="hsl(240 100% 50%)" />
  <rect x="415" y="190" width="30" height="30" fill="hsl(240 100% 50%)" />
  <rect x="450" y="190" width="30" height="30" fill="hsl(240 100% 50%)" />
  <rect x="485" y="190" width="30" height="30" fill="hsl(240 100% 50%)" />
  <rect x="520" y="190" width="30" height="30" fill="hsl(240 100% 50%)" />
  <rect x="555" y="190" width="30" height="30" fill="hsl(240 100% 50%)" />
  <rect x="590" y="190" width="30" height="30" fill="hsl(240 100% 50%)" />
  <rect x="625" y="190" width="30" height="30" fill="hsl(240 100% 50%)" />
  <rect x="65" y="225" width="30" height="30" fill="hsl(240 100% 96.06377698705303%)" />
  <rect x="100" y="225" width="30" height="30" fill="hsl(240 100% 96.32812252260486%)" />
  <rect x="135" y="225" width="30" height="30" fill="hsl(240 100% 88.38767569865152%)" />
  <rect x="205" y="225" width="30" height="30" fill="hsl(240 100% 90.51967064663265%)" />
  <rect x="240" y="225" width="30" height="30" fill="rgb(255 255 255 / 50%)" />
  <rect x="310" y="225" width="30" height="30" fill="hsl(240 100% 89.62398584942375%)" />
  <rect x="415" y="225" width="30" height="30" fill="hsl(240 100% 50%)" />
  <rect x="485" y="225" width="30" height="30" fill="rgb(255 255 255 / 50%)" />
  <rect x="555" y="225" width="30" height="30" fill="rgb(255 255 255 / 50%)" />
  <rect x="590" y="225" width="30" height="30" fill="rgb(255 255 255 / 50%)" />
  <rect x="100" y="260" width="30" height="30" fill="hsl(240 100% 99.90623586302004%)" />
  <rect x="135" y="260" width="30" height="30" fill="hsl(240 100% 99.41437907409224%)" />
  <rect x="170" y="260" width="30" height="30" fill="rgb(255 255 255 / 50%)" />
  <rect x="205" y="260" width="30" height="30" fill="hsl(240 100% 88.06805672434395%)" />
  <rect x="240" y="260" width="30" height="30" fill="rgb(255 255 255 / 50%)" />
  <rect x="310" y="260" width="30" height="30" fill="hsl(240 100% 83.17950147437608%)" />
  <rect x="345" y="260" width="30" height="30" fill="rgb(255 255 255 / 50%)" />
  <rect x="380" y="260" width="30" height="30" fill="hsl(240 100% 50%)" />
  <rect x="415" y="260" width="30" height="30" fill="hsl(240 100% 76.78779893305342%)" />
  <rect x="485" y="260" width="30" height="30" fill="hsl(240 100% 96.95891037432088%)" />
  <rect x="520" y="260" width="30" height="30" fill="hsl(240 100% 94.24523798111899%)" />
  <rect x="65" y="295" width="30" height="30" fill="hsl(240 100% 66.84020718530982%)" />
  <rect x="100" y="295" width="30" height="30" fill="hsl(240 100% 61.288848167140905%)" />
  <rect x="135" y="295" width="30" height="30" fill="hsl(240 100% 59.97471967338513%)" />
  <rect x="170" y="295" width="30" height="30" fill="hsl(240 100% 57.19024038990427%)" />
  <rect x="205" y="295" width="30" height="30" fill="hsl(240 100% 50%)" />
  <rect x="240" y="295" width="30" height="30" fill="hsl(240 100% 99.42745183361538%)" />
  <rect x="310" y="295" width="30" height="30" fill="hsl(240 100% 50.60937203943249%)" />
  <rect x="345" y="295" width="30" height="30" fill="hsl(240 100% 89.52104121152342%)" />
  <rect x="415" y="295" width="30" height="30" fill="hsl(240 100% 53.52310481957227%)" />
  <rect x="65" y="330" width="30" height="30" fill="hsl(240 100% 68.6692330934637%)" />
  <rect x="100" y="330" width="30" height="30" fill="hsl(240 100% 80.8479000677378%)" />
  <rect x="135" y="330" width="30" height="30" fill="hsl(240 100% 50%)" />
  <rect x="170" y="330" width="30" height="30" fill="hsl(240 100% 89.28991939294278%)" />
  <rect x="205" y="330" width="30" height="30" fill="hsl(240 100% 50.11525135908444%)" />
  <rect x="240" y="330" width="30" height="30" fill="hsl(240 100% 99.85031531530109%)" />
  <rect x="310" y="330" width="30" height="30" fill="hsl(240 100% 63.33579141924592%)" />
  <rect x="415" y="330" width="30" height="30" fill="hsl(240 100% 84.36751385072631%)" />
  <rect x="485" y="330" width="30" height="30" fill="hsl(240 100% 99.5789834464967%)" />
  <rect x="520" y="330" width="30" height="30" fill="hsl(240 100% 89.48869107713331%)" />
  <rect x="555" y="330" width="30" height="30" fill="hsl(240 100% 59.27147355397091%)" />
  <rect x="590" y="330" width="30" height="30" fill="hsl(240 100% 97.95989756173896%)" />
  <rect x="65" y="365" width="30" height="30" fill="hsl(240 100% 99.24955897921899%)" />
  <rect x="100" y="365" width="30" height="30" fill="hsl(240 100% 99.57412967122241%)" />
  <rect x="135" y="365" width="30" height="30" fill="hsl(240 100% 93.75139797064135%)" />
  <rect x="170" y="365" width="30" height="30" fill="hsl(240 100% 50%)" />
  <rect x="205" y="365" width="30" height="30" fill="hsl(240 100% 85.93842406321873%)" />
  <rect x="240" y="365" width="30" height="30" fill="rgb(255 255 255 / 50%)" />
  <rect x="310" y="365" width="30" height="30" fill="hsl(240 100% 95.46098214681338%)" />
  <rect x="345" y="365" width="30" height="30" fill="hsl(240 100% 99.96573494313762%)" />
  <rect x="415" y="365" width="30" height="30" fill="hsl(240 100% 50.016063870941785%)" />
  <rect x="205" y="400" width="30" height="30" fill="hsl(240 100% 50%)" />
  <rect x="240" y="400" width="30" height="30" fill="hsl(240 100% 95.20664101092424%)" />
  <rect x="310" y="400" width="30" height="30" fill="hsl(240 100% 87.95997563949139%)" />
  <rect x="345" y="400" width="30" height="30" fill="hsl(240 100% 99.78439342412044%)" />
  <rect x="205" y="435" width="30" height="30" fill="hsl(240 100% 50%)" />
  <rect x="240" y="435" width="30" height="30" fill="hsl(240 100% 95.81658549375943%)" />
  <rect x="310" y="435" width="30" height="30" fill="hsl(240 100% 89.0526481978858%)" />
  <rect x="345" y="435" width="30" height="30" fill="hsl(240 100% 99.60734687096884%)" />
</svg>
