<svg xmlns="http://www.w3.org/2000/svg" viewBox="0 0 870 505">
  <rect x="0" y="0" width="870" height="505" rx="5" ry="5" fill="#222" />
  <text x="60" y="100" fill="white" font-family="sans-serif" font-weight="bold" font-size="12" text-anchor="end" dominant-baseline="middle">ba</text>
  <text x="60" y="135" fill="white" font-family="sans-serif" font-weight="bold" font-size="12" text-anchor="end" dominant-baseline="middle">det</text>
  <text x="60" y="170" fill="white" font-family="sans-serif" font-weight="bold" font-size="12" text-anchor="end" dominant-baseline="middle">gmm</text>
  <text x="60" y="205" fill="white" font-family="sans-serif" font-weight="bold" font-size="12" text-anchor="end" dominant-baseline="middle">hello</text>
  <text x="60" y="240" fill="white" font-family="sans-serif" font-weight="bold" font-size="12" text-anchor="end" dominant-baseline="middle">ht</text>
  <text x="60" y="275" fill="white" font-family="sans-serif" font-weight="bold" font-size="12" text-anchor="end" dominant-baseline="middle">kmeans</text>
  <text x="60" y="310" fill="white" font-family="sans-serif" font-weight="bold" font-size="12" text-anchor="end" dominant-baseline="middle">llsq</text>
  <text x="60" y="345" fill="white" font-family="sans-serif" font-weight="bold" font-size="12" text-anchor="end" dominant-baseline="middle">lse</text>
  <text x="60" y="380" fill="white" font-family="sans-serif" font-weight="bold" font-size="12" text-anchor="end" dominant-baseline="middle">lstm</text>
  <text x="60" y="415" fill="white" font-family="sans-serif" font-weight="bold" font-size="12" text-anchor="end" dominant-baseline="middle">ode</text>
  <text x="60" y="450" fill="white" font-family="sans-serif" font-weight="bold" font-size="12" text-anchor="end" dominant-baseline="middle">particle</text>
  <text x="60" y="485" fill="white" font-family="sans-serif" font-weight="bold" font-size="12" text-anchor="end" dominant-baseline="middle">saddle</text>
  <text x="80" y="80" fill="white" font-family="sans-serif" font-weight="bold" font-size="12" text-anchor="end" dominant-baseline="middle" transform="rotate(90 80 80)">ad-hpp</text>
  <text x="115" y="80" fill="white" font-family="sans-serif" font-weight="bold" font-size="12" text-anchor="end" dominant-baseline="middle" transform="rotate(90 115 80)">adept</text>
  <text x="150" y="80" fill="white" font-family="sans-serif" font-weight="bold" font-size="12" text-anchor="end" dominant-baseline="middle" transform="rotate(90 150 80)">adol-c</text>
  <text x="185" y="80" fill="white" font-family="sans-serif" font-weight="bold" font-size="12" text-anchor="end" dominant-baseline="middle" transform="rotate(90 185 80)">codipack</text>
  <text x="220" y="80" fill="white" font-family="sans-serif" font-weight="bold" font-size="12" text-anchor="end" dominant-baseline="middle" transform="rotate(90 220 80)">cppad</text>
  <text x="255" y="80" fill="white" font-family="sans-serif" font-weight="bold" font-size="12" text-anchor="end" dominant-baseline="middle" transform="rotate(90 255 80)">enzyme</text>
  <text x="290" y="80" fill="white" font-family="sans-serif" font-weight="bold" font-size="12" text-anchor="end" dominant-baseline="middle" transform="rotate(90 290 80)">enzyme-jl</text>
  <text x="325" y="80" fill="white" font-family="sans-serif" font-weight="bold" font-size="12" text-anchor="end" dominant-baseline="middle" transform="rotate(90 325 80)">finite</text>
  <text x="360" y="80" fill="white" font-family="sans-serif" font-weight="bold" font-size="12" text-anchor="end" dominant-baseline="middle" transform="rotate(90 360 80)">floretta</text>
  <text x="395" y="80" fill="white" font-family="sans-serif" font-weight="bold" font-size="12" text-anchor="end" dominant-baseline="middle" transform="rotate(90 395 80)">forwarddiff-jl</text>
  <text x="430" y="80" fill="white" font-family="sans-serif" font-weight="bold" font-size="12" text-anchor="end" dominant-baseline="middle" transform="rotate(90 430 80)">futhark</text>
  <text x="465" y="80" fill="white" font-family="sans-serif" font-weight="bold" font-size="12" text-anchor="end" dominant-baseline="middle" transform="rotate(90 465 80)">haskell</text>
  <text x="500" y="80" fill="white" font-family="sans-serif" font-weight="bold" font-size="12" text-anchor="end" dominant-baseline="middle" transform="rotate(90 500 80)">jax</text>
  <text x="535" y="80" fill="white" font-family="sans-serif" font-weight="bold" font-size="12" text-anchor="end" dominant-baseline="middle" transform="rotate(90 535 80)">manual</text>
  <text x="570" y="80" fill="white" font-family="sans-serif" font-weight="bold" font-size="12" text-anchor="end" dominant-baseline="middle" transform="rotate(90 570 80)">mooncake-jl</text>
  <text x="605" y="80" fill="white" font-family="sans-serif" font-weight="bold" font-size="12" text-anchor="end" dominant-baseline="middle" transform="rotate(90 605 80)">ocaml</text>
  <text x="640" y="80" fill="white" font-family="sans-serif" font-weight="bold" font-size="12" text-anchor="end" dominant-baseline="middle" transform="rotate(90 640 80)">pytorch</text>
  <text x="675" y="80" fill="white" font-family="sans-serif" font-weight="bold" font-size="12" text-anchor="end" dominant-baseline="middle" transform="rotate(90 675 80)">reversediff-jl</text>
  <text x="710" y="80" fill="white" font-family="sans-serif" font-weight="bold" font-size="12" text-anchor="end" dominant-baseline="middle" transform="rotate(90 710 80)">scilean</text>
  <text x="745" y="80" fill="white" font-family="sans-serif" font-weight="bold" font-size="12" text-anchor="end" dominant-baseline="middle" transform="rotate(90 745 80)">tapenade</text>
  <text x="780" y="80" fill="white" font-family="sans-serif" font-weight="bold" font-size="12" text-anchor="end" dominant-baseline="middle" transform="rotate(90 780 80)">tensorflow</text>
  <text x="815" y="80" fill="white" font-family="sans-serif" font-weight="bold" font-size="12" text-anchor="end" dominant-baseline="middle" transform="rotate(90 815 80)">tensorflow-js</text>
  <text x="850" y="80" fill="white" font-family="sans-serif" font-weight="bold" font-size="12" text-anchor="end" dominant-baseline="middle" transform="rotate(90 850 80)">zygote</text>
  <rect x="65" y="85" width="30" height="30" fill="hsl(240 100% 80.91753794339351%)" />
  <rect x="100" y="85" width="30" height="30" fill="hsl(240 100% 82.85221814691695%)" />
  <rect x="135" y="85" width="30" height="30" fill="hsl(240 100% 98.00508456833735%)" />
  <rect x="170" y="85" width="30" height="30" fill="hsl(240 100% 83.20505565620174%)" />
  <rect x="205" y="85" width="30" height="30" fill="hsl(240 100% 99.00026042438668%)" />
  <rect x="240" y="85" width="30" height="30" fill="hsl(240 100% 51.92492704233472%)" />
  <rect x="310" y="85" width="30" height="30" fill="hsl(240 100% 93.27619910137399%)" />
  <rect x="415" y="85" width="30" height="30" fill="hsl(240 100% 68.22375490845761%)" />
  <rect x="520" y="85" width="30" height="30" fill="hsl(240 100% 50%)" />
  <rect x="625" y="85" width="30" height="30" fill="rgb(255 255 255 / 50%)" />
  <rect x="730" y="85" width="30" height="30" fill="hsl(240 100% 74.90466743629999%)" />
  <rect x="765" y="85" width="30" height="30" fill="rgb(255 255 255 / 50%)" />
  <rect x="835" y="85" width="30" height="30" fill="hsl(240 100% 99.72652038662176%)" />
  <rect x="65" y="120" width="30" height="30" fill="hsl(240 100% 50%)" />
  <rect x="100" y="120" width="30" height="30" fill="hsl(240 100% 82.65792992196987%)" />
  <rect x="135" y="120" width="30" height="30" fill="hsl(240 100% 85.79134604145506%)" />
  <rect x="170" y="120" width="30" height="30" fill="hsl(240 100% 52.13764631056217%)" />
  <rect x="205" y="120" width="30" height="30" fill="hsl(240 100% 92.57192996638426%)" />
  <rect x="240" y="120" width="30" height="30" fill="hsl(240 100% 91.58035365822595%)" />
  <rect x="275" y="120" width="30" height="30" fill="hsl(240 100% 99.34767996927845%)" />
  <rect x="310" y="120" width="30" height="30" fill="hsl(240 100% 98.99069737654462%)" />
  <rect x="380" y="120" width="30" height="30" fill="hsl(240 100% 93.48831721244355%)" />
  <rect x="415" y="120" width="30" height="30" fill="hsl(240 100% 94.61833393895468%)" />
  <rect x="450" y="120" width="30" height="30" fill="hsl(240 100% 97.9959612068981%)" />
  <rect x="520" y="120" width="30" height="30" fill="hsl(240 100% 79.74302546749803%)" />
  <rect x="555" y="120" width="30" height="30" fill="hsl(240 100% 90.62438721365463%)" />
  <rect x="660" y="120" width="30" height="30" fill="rgb(255 255 255 / 50%)" />
  <rect x="835" y="120" width="30" height="30" fill="rgb(255 255 255 / 50%)" />
  <rect x="65" y="155" width="30" height="30" fill="hsl(240 100% 98.49019518289266%)" />
  <rect x="100" y="155" width="30" height="30" fill="hsl(240 100% 98.78065206112699%)" />
  <rect x="135" y="155" width="30" height="30" fill="hsl(240 100% 99.0971243047564%)" />
  <rect x="170" y="155" width="30" height="30" fill="hsl(240 100% 98.03983600267549%)" />
  <rect x="205" y="155" width="30" height="30" fill="hsl(240 100% 99.8477581249447%)" />
  <rect x="240" y="155" width="30" height="30" fill="hsl(240 100% 91.4192739074624%)" />
  <rect x="275" y="155" width="30" height="30" fill="hsl(240 100% 92.81637662980916%)" />
  <rect x="310" y="155" width="30" height="30" fill="rgb(255 255 255 / 50%)" />
  <rect x="415" y="155" width="30" height="30" fill="hsl(240 100% 92.9115735920688%)" />
  <rect x="485" y="155" width="30" height="30" fill="hsl(240 100% 50%)" />
  <rect x="520" y="155" width="30" height="30" fill="hsl(240 100% 83.46856193002846%)" />
  <rect x="590" y="155" width="30" height="30" fill="hsl(240 100% 99.5670806915797%)" />
  <rect x="625" y="155" width="30" height="30" fill="hsl(240 100% 66.32122045025633%)" />
  <rect x="695" y="155" width="30" height="30" fill="hsl(240 100% 95.37692434005791%)" />
  <rect x="730" y="155" width="30" height="30" fill="hsl(240 100% 83.53955504292671%)" />
  <rect x="765" y="155" width="30" height="30" fill="hsl(240 100% 99.58698688280116%)" />
  <rect x="835" y="155" width="30" height="30" fill="hsl(240 100% 96.00775256509304%)" />
  <rect x="65" y="190" width="30" height="30" fill="hsl(240 100% 50%)" />
  <rect x="100" y="190" width="30" height="30" fill="hsl(240 100% 50%)" />
  <rect x="135" y="190" width="30" height="30" fill="hsl(240 100% 50%)" />
  <rect x="170" y="190" width="30" height="30" fill="hsl(240 100% 50%)" />
  <rect x="205" y="190" width="30" height="30" fill="hsl(240 100% 50%)" />
  <rect x="240" y="190" width="30" height="30" fill="hsl(240 100% 50%)" />
  <rect x="275" y="190" width="30" height="30" fill="hsl(240 100% 50%)" />
  <rect x="310" y="190" width="30" height="30" fill="hsl(240 100% 50%)" />
  <rect x="345" y="190" width="30" height="30" fill="hsl(240 100% 50%)" />
  <rect x="380" y="190" width="30" height="30" fill="hsl(240 100% 50%)" />
  <rect x="415" y="190" width="30" height="30" fill="hsl(240 100% 50%)" />
  <rect x="450" y="190" width="30" height="30" fill="hsl(240 100% 50%)" />
  <rect x="485" y="190" width="30" height="30" fill="hsl(240 100% 50%)" />
  <rect x="520" y="190" width="30" height="30" fill="hsl(240 100% 50%)" />
  <rect x="555" y="190" width="30" height="30" fill="hsl(240 100% 50%)" />
  <rect x="590" y="190" width="30" height="30" fill="hsl(240 100% 50%)" />
  <rect x="625" y="190" width="30" height="30" fill="hsl(240 100% 50%)" />
  <rect x="660" y="190" width="30" height="30" fill="hsl(240 100% 50%)" />
  <rect x="695" y="190" width="30" height="30" fill="hsl(240 100% 50%)" />
  <rect x="730" y="190" width="30" height="30" fill="hsl(240 100% 50%)" />
  <rect x="765" y="190" width="30" height="30" fill="hsl(240 100% 50%)" />
  <rect x="800" y="190" width="30" height="30" fill="hsl(240 100% 50%)" />
  <rect x="835" y="190" width="30" height="30" fill="hsl(240 100% 50%)" />
  <rect x="100" y="225" width="30" height="30" fill="hsl(240 100% 96.57274806733675%)" />
  <rect x="135" y="225" width="30" height="30" fill="hsl(240 100% 89.5645433986868%)" />
  <rect x="170" y="225" width="30" height="30" fill="hsl(240 100% 88.93376317071576%)" />
  <rect x="240" y="225" width="30" height="30" fill="hsl(240 100% 91.08085641828706%)" />
  <rect x="310" y="225" width="30" height="30" fill="rgb(255 255 255 / 50%)" />
  <rect x="415" y="225" width="30" height="30" fill="hsl(240 100% 90.25239352999822%)" />
  <rect x="520" y="225" width="30" height="30" fill="hsl(240 100% 50%)" />
  <rect x="625" y="225" width="30" height="30" fill="rgb(255 255 255 / 50%)" />
  <rect x="730" y="225" width="30" height="30" fill="hsl(240 100% 92.90986526719553%)" />
  <rect x="765" y="225" width="30" height="30" fill="rgb(255 255 255 / 50%)" />
  <rect x="835" y="225" width="30" height="30" fill="hsl(240 100% 94.39444390083901%)" />
  <rect x="65" y="260" width="30" height="30" fill="hsl(240 100% 99.88638595448788%)" />
  <rect x="135" y="260" width="30" height="30" fill="hsl(240 100% 99.8556169448606%)" />
  <rect x="170" y="260" width="30" height="30" fill="hsl(240 100% 98.86783195396694%)" />
  <rect x="205" y="260" width="30" height="30" fill="rgb(255 255 255 / 50%)" />
  <rect x="240" y="260" width="30" height="30" fill="hsl(240 100% 87.1288869786259%)" />
  <rect x="310" y="260" width="30" height="30" fill="rgb(255 255 255 / 50%)" />
  <rect x="415" y="260" width="30" height="30" fill="hsl(240 100% 80.94007687051818%)" />
  <rect x="450" y="260" width="30" height="30" fill="rgb(255 255 255 / 50%)" />
  <rect x="485" y="260" width="30" height="30" fill="hsl(240 100% 50%)" />
  <rect x="520" y="260" width="30" height="30" fill="hsl(240 100% 71.58006453444422%)" />
  <rect x="625" y="260" width="30" height="30" fill="hsl(240 100% 97.00930567332931%)" />
  <rect x="695" y="260" width="30" height="30" fill="hsl(240 100% 94.1672678274181%)" />
  <rect x="65" y="295" width="30" height="30" fill="hsl(240 100% 86.16279033436797%)" />
  <rect x="100" y="295" width="30" height="30" fill="hsl(240 100% 97.58932301738875%)" />
  <rect x="135" y="295" width="30" height="30" fill="hsl(240 100% 95.16467172281305%)" />
  <rect x="170" y="295" width="30" height="30" fill="hsl(240 100% 90.71631277167104%)" />
  <rect x="205" y="295" width="30" height="30" fill="hsl(240 100% 99.46335424919333%)" />
  <rect x="240" y="295" width="30" height="30" fill="hsl(240 100% 50.652996655367346%)" />
  <rect x="275" y="295" width="30" height="30" fill="hsl(240 100% 50%)" />
  <rect x="310" y="295" width="30" height="30" fill="hsl(240 100% 99.49971907651644%)" />
  <rect x="345" y="295" width="30" height="30" fill="hsl(240 100% 94.74485136432389%)" />
  <rect x="415" y="295" width="30" height="30" fill="hsl(240 100% 55.25780606353745%)" />
  <rect x="450" y="295" width="30" height="30" fill="hsl(240 100% 99.33340283948304%)" />
  <rect x="485" y="295" width="30" height="30" fill="hsl(240 100% 88.27677145307868%)" />
  <rect x="520" y="295" width="30" height="30" fill="hsl(240 100% 57.87266707948504%)" />
  <rect x="695" y="295" width="30" height="30" fill="hsl(240 100% 97.60931755060814%)" />
  <rect x="800" y="295" width="30" height="30" fill="hsl(240 100% 99.57538846506701%)" />
  <rect x="835" y="295" width="30" height="30" fill="hsl(240 100% 99.95253406204813%)" />
  <rect x="65" y="330" width="30" height="30" fill="hsl(240 100% 86.96624207807693%)" />
  <rect x="100" y="330" width="30" height="30" fill="hsl(240 100% 93.99950857264993%)" />
  <rect x="135" y="330" width="30" height="30" fill="hsl(240 100% 96.68679062182406%)" />
  <rect x="170" y="330" width="30" height="30" fill="hsl(240 100% 86.30052096064934%)" />
  <rect x="205" y="330" width="30" height="30" fill="hsl(240 100% 99.06827434920315%)" />
  <rect x="240" y="330" width="30" height="30" fill="hsl(240 100% 76.53642322004222%)" />
  <rect x="275" y="330" width="30" height="30" fill="hsl(240 100% 85.38371871136246%)" />
  <rect x="310" y="330" width="30" height="30" fill="rgb(255 255 255 / 50%)" />
  <rect x="345" y="330" width="30" height="30" fill="hsl(240 100% 96.7379287837557%)" />
  <rect x="415" y="330" width="30" height="30" fill="hsl(240 100% 83.37878406740151%)" />
  <rect x="450" y="330" width="30" height="30" fill="hsl(240 100% 99.78000331460521%)" />
  <rect x="485" y="330" width="30" height="30" fill="hsl(240 100% 65.92994583645155%)" />
  <rect x="520" y="330" width="30" height="30" fill="hsl(240 100% 72.63225955069846%)" />
  <rect x="590" y="330" width="30" height="30" fill="hsl(240 100% 92.83811606267966%)" />
  <rect x="625" y="330" width="30" height="30" fill="hsl(240 100% 50%)" />
  <rect x="765" y="330" width="30" height="30" fill="hsl(240 100% 92.94713502709764%)" />
  <rect x="800" y="330" width="30" height="30" fill="hsl(240 100% 99.081763095518%)" />
  <rect x="835" y="330" width="30" height="30" fill="hsl(240 100% 77.97379776506745%)" />
  <rect x="65" y="365" width="30" height="30" fill="hsl(240 100% 56.98366828038404%)" />
  <rect x="100" y="365" width="30" height="30" fill="hsl(240 100% 71.89052298423924%)" />
  <rect x="135" y="365" width="30" height="30" fill="hsl(240 100% 81.86685106189233%)" />
  <rect x="170" y="365" width="30" height="30" fill="hsl(240 100% 50%)" />
  <rect x="205" y="365" width="30" height="30" fill="hsl(240 100% 96.25850657959462%)" />
  <rect x="240" y="365" width="30" height="30" fill="hsl(240 100% 59.66029957634613%)" />
  <rect x="275" y="365" width="30" height="30" fill="hsl(240 100% 92.44671820828293%)" />
  <rect x="310" y="365" width="30" height="30" fill="hsl(240 100% 99.86074993050097%)" />
  <rect x="415" y="365" width="30" height="30" fill="hsl(240 100% 66.56015256552107%)" />
  <rect x="520" y="365" width="30" height="30" fill="hsl(240 100% 85.90161357701967%)" />
  <rect x="625" y="365" width="30" height="30" fill="hsl(240 100% 99.62592939982034%)" />
  <rect x="730" y="365" width="30" height="30" fill="hsl(240 100% 63.05885932895463%)" />
  <rect x="765" y="365" width="30" height="30" fill="hsl(240 100% 98.18753808228445%)" />
  <rect x="835" y="365" width="30" height="30" fill="hsl(240 100% 98.71381852094257%)" />
  <rect x="65" y="400" width="30" height="30" fill="hsl(240 100% 98.14145508274679%)" />
  <rect x="100" y="400" width="30" height="30" fill="hsl(240 100% 99.27165604680364%)" />
  <rect x="135" y="400" width="30" height="30" fill="hsl(240 100% 99.6001986910072%)" />
  <rect x="170" y="400" width="30" height="30" fill="hsl(240 100% 94.44100673258139%)" />
  <rect x="205" y="400" width="30" height="30" fill="hsl(240 100% 99.07154815646552%)" />
  <rect x="240" y="400" width="30" height="30" fill="hsl(240 100% 86.11918844452856%)" />
  <rect x="275" y="400" width="30" height="30" fill="hsl(240 100% 94.27515983613822%)" />
  <rect x="310" y="400" width="30" height="30" fill="rgb(255 255 255 / 50%)" />
  <rect x="380" y="400" width="30" height="30" fill="rgb(255 255 255 / 50%)" />
  <rect x="415" y="400" width="30" height="30" fill="hsl(240 100% 92.66877314551144%)" />
  <rect x="450" y="400" width="30" height="30" fill="hsl(240 100% 99.96524700411223%)" />
  <rect x="485" y="400" width="30" height="30" fill="hsl(240 100% 74.14704586232045%)" />
  <rect x="520" y="400" width="30" height="30" fill="hsl(240 100% 50%)" />
  <rect x="555" y="400" width="30" height="30" fill="hsl(240 100% 98.93318101893149%)" />
  <rect x="660" y="400" width="30" height="30" fill="rgb(255 255 255 / 50%)" />
  <rect x="835" y="400" width="30" height="30" fill="hsl(240 100% 98.94239499463553%)" />
  <rect x="65" y="435" width="30" height="30" fill="hsl(240 100% 92.99094993262477%)" />
  <rect x="240" y="435" width="30" height="30" fill="hsl(240 100% 50%)" />
  <rect x="310" y="435" width="30" height="30" fill="hsl(240 100% 94.32855046078706%)" />
  <rect x="415" y="435" width="30" height="30" fill="hsl(240 100% 87.00326495138962%)" />
  <rect x="450" y="435" width="30" height="30" fill="hsl(240 100% 99.79710659677741%)" />
  <rect x="65" y="470" width="30" height="30" fill="hsl(240 100% 50%)" />
  <rect x="240" y="470" width="30" height="30" fill="hsl(240 100% 50.183532895256086%)" />
  <rect x="310" y="470" width="30" height="30" fill="hsl(240 100% 97.16237425303765%)" />
  <rect x="415" y="470" width="30" height="30" fill="hsl(240 100% 89.01805781655551%)" />
  <rect x="450" y="470" width="30" height="30" fill="hsl(240 100% 99.5834026402101%)" />
</svg>
