<svg xmlns="http://www.w3.org/2000/svg" viewBox="0 0 870 505">
  <rect x="0" y="0" width="870" height="505" rx="5" ry="5" fill="#222" />
  <text x="60" y="100" fill="white" font-family="sans-serif" font-weight="bold" font-size="12" text-anchor="end" dominant-baseline="middle">ba</text>
  <text x="60" y="135" fill="white" font-family="sans-serif" font-weight="bold" font-size="12" text-anchor="end" dominant-baseline="middle">det</text>
  <text x="60" y="170" fill="white" font-family="sans-serif" font-weight="bold" font-size="12" text-anchor="end" dominant-baseline="middle">gmm</text>
  <text x="60" y="205" fill="white" font-family="sans-serif" font-weight="bold" font-size="12" text-anchor="end" dominant-baseline="middle">hello</text>
  <text x="60" y="240" fill="white" font-family="sans-serif" font-weight="bold" font-size="12" text-anchor="end" dominant-baseline="middle">ht</text>
  <text x="60" y="275" fill="white" font-family="sans-serif" font-weight="bold" font-size="12" text-anchor="end" dominant-baseline="middle">kmeans</text>
  <text x="60" y="310" fill="white" font-family="sans-serif" font-weight="bold" font-size="12" text-anchor="end" dominant-baseline="middle">llsq</text>
  <text x="60" y="345" fill="white" font-family="sans-serif" font-weight="bold" font-size="12" text-anchor="end" dominant-baseline="middle">lse</text>
  <text x="60" y="380" fill="white" font-family="sans-serif" font-weight="bold" font-size="12" text-anchor="end" dominant-baseline="middle">lstm</text>
  <text x="60" y="415" fill="white" font-family="sans-serif" font-weight="bold" font-size="12" text-anchor="end" dominant-baseline="middle">ode</text>
  <text x="60" y="450" fill="white" font-family="sans-serif" font-weight="bold" font-size="12" text-anchor="end" dominant-baseline="middle">particle</text>
  <text x="60" y="485" fill="white" font-family="sans-serif" font-weight="bold" font-size="12" text-anchor="end" dominant-baseline="middle">saddle</text>
  <text x="80" y="80" fill="white" font-family="sans-serif" font-weight="bold" font-size="12" text-anchor="end" dominant-baseline="middle" transform="rotate(90 80 80)">ad-hpp</text>
  <text x="115" y="80" fill="white" font-family="sans-serif" font-weight="bold" font-size="12" text-anchor="end" dominant-baseline="middle" transform="rotate(90 115 80)">adept</text>
  <text x="150" y="80" fill="white" font-family="sans-serif" font-weight="bold" font-size="12" text-anchor="end" dominant-baseline="middle" transform="rotate(90 150 80)">adol-c</text>
  <text x="185" y="80" fill="white" font-family="sans-serif" font-weight="bold" font-size="12" text-anchor="end" dominant-baseline="middle" transform="rotate(90 185 80)">codipack</text>
  <text x="220" y="80" fill="white" font-family="sans-serif" font-weight="bold" font-size="12" text-anchor="end" dominant-baseline="middle" transform="rotate(90 220 80)">cppad</text>
  <text x="255" y="80" fill="white" font-family="sans-serif" font-weight="bold" font-size="12" text-anchor="end" dominant-baseline="middle" transform="rotate(90 255 80)">enzyme</text>
  <text x="290" y="80" fill="white" font-family="sans-serif" font-weight="bold" font-size="12" text-anchor="end" dominant-baseline="middle" transform="rotate(90 290 80)">enzyme-jl</text>
  <text x="325" y="80" fill="white" font-family="sans-serif" font-weight="bold" font-size="12" text-anchor="end" dominant-baseline="middle" transform="rotate(90 325 80)">finite</text>
  <text x="360" y="80" fill="white" font-family="sans-serif" font-weight="bold" font-size="12" text-anchor="end" dominant-baseline="middle" transform="rotate(90 360 80)">floretta</text>
  <text x="395" y="80" fill="white" font-family="sans-serif" font-weight="bold" font-size="12" text-anchor="end" dominant-baseline="middle" transform="rotate(90 395 80)">forwarddiff-jl</text>
  <text x="430" y="80" fill="white" font-family="sans-serif" font-weight="bold" font-size="12" text-anchor="end" dominant-baseline="middle" transform="rotate(90 430 80)">futhark</text>
  <text x="465" y="80" fill="white" font-family="sans-serif" font-weight="bold" font-size="12" text-anchor="end" dominant-baseline="middle" transform="rotate(90 465 80)">haskell</text>
  <text x="500" y="80" fill="white" font-family="sans-serif" font-weight="bold" font-size="12" text-anchor="end" dominant-baseline="middle" transform="rotate(90 500 80)">jax</text>
  <text x="535" y="80" fill="white" font-family="sans-serif" font-weight="bold" font-size="12" text-anchor="end" dominant-baseline="middle" transform="rotate(90 535 80)">manual</text>
  <text x="570" y="80" fill="white" font-family="sans-serif" font-weight="bold" font-size="12" text-anchor="end" dominant-baseline="middle" transform="rotate(90 570 80)">mooncake-jl</text>
  <text x="605" y="80" fill="white" font-family="sans-serif" font-weight="bold" font-size="12" text-anchor="end" dominant-baseline="middle" transform="rotate(90 605 80)">ocaml</text>
  <text x="640" y="80" fill="white" font-family="sans-serif" font-weight="bold" font-size="12" text-anchor="end" dominant-baseline="middle" transform="rotate(90 640 80)">pytorch</text>
  <text x="675" y="80" fill="white" font-family="sans-serif" font-weight="bold" font-size="12" text-anchor="end" dominant-baseline="middle" transform="rotate(90 675 80)">reversediff-jl</text>
  <text x="710" y="80" fill="white" font-family="sans-serif" font-weight="bold" font-size="12" text-anchor="end" dominant-baseline="middle" transform="rotate(90 710 80)">scilean</text>
  <text x="745" y="80" fill="white" font-family="sans-serif" font-weight="bold" font-size="12" text-anchor="end" dominant-baseline="middle" transform="rotate(90 745 80)">tapenade</text>
  <text x="780" y="80" fill="white" font-family="sans-serif" font-weight="bold" font-size="12" text-anchor="end" dominant-baseline="middle" transform="rotate(90 780 80)">tensorflow</text>
  <text x="815" y="80" fill="white" font-family="sans-serif" font-weight="bold" font-size="12" text-anchor="end" dominant-baseline="middle" transform="rotate(90 815 80)">tensorflow-js</text>
  <text x="850" y="80" fill="white" font-family="sans-serif" font-weight="bold" font-size="12" text-anchor="end" dominant-baseline="middle" transform="rotate(90 850 80)">zygote</text>
  <rect x="65" y="85" width="30" height="30" fill="hsl(240 100% 81.01506435387553%)" />
  <rect x="100" y="85" width="30" height="30" fill="hsl(240 100% 82.6175636026545%)" />
  <rect x="135" y="85" width="30" height="30" fill="hsl(240 100% 97.98305383829619%)" />
  <rect x="170" y="85" width="30" height="30" fill="hsl(240 100% 82.29930373477558%)" />
  <rect x="205" y="85" width="30" height="30" fill="hsl(240 100% 98.99867148232943%)" />
  <rect x="240" y="85" width="30" height="30" fill="hsl(240 100% 51.47420135958362%)" />
  <rect x="310" y="85" width="30" height="30" fill="hsl(240 100% 93.27278147182817%)" />
  <rect x="415" y="85" width="30" height="30" fill="hsl(240 100% 68.08709546892307%)" />
  <rect x="520" y="85" width="30" height="30" fill="hsl(240 100% 50%)" />
  <rect x="625" y="85" width="30" height="30" fill="rgb(255 255 255 / 50%)" />
  <rect x="730" y="85" width="30" height="30" fill="hsl(240 100% 74.87888438946794%)" />
  <rect x="765" y="85" width="30" height="30" fill="rgb(255 255 255 / 50%)" />
  <rect x="835" y="85" width="30" height="30" fill="hsl(240 100% 99.73525600907196%)" />
  <rect x="65" y="120" width="30" height="30" fill="hsl(240 100% 50%)" />
  <rect x="100" y="120" width="30" height="30" fill="hsl(240 100% 83.07247274670041%)" />
  <rect x="135" y="120" width="30" height="30" fill="hsl(240 100% 85.83017182841715%)" />
  <rect x="170" y="120" width="30" height="30" fill="hsl(240 100% 52.005713661344835%)" />
  <rect x="205" y="120" width="30" height="30" fill="hsl(240 100% 92.56350110573835%)" />
  <rect x="240" y="120" width="30" height="30" fill="hsl(240 100% 91.4214104176315%)" />
  <rect x="275" y="120" width="30" height="30" fill="hsl(240 100% 99.34952109668667%)" />
  <rect x="310" y="120" width="30" height="30" fill="hsl(240 100% 98.99597788634735%)" />
  <rect x="380" y="120" width="30" height="30" fill="hsl(240 100% 93.32735382010854%)" />
  <rect x="415" y="120" width="30" height="30" fill="hsl(240 100% 94.5814983363496%)" />
  <rect x="450" y="120" width="30" height="30" fill="hsl(240 100% 97.85770849794532%)" />
  <rect x="520" y="120" width="30" height="30" fill="hsl(240 100% 79.65665024257976%)" />
  <rect x="555" y="120" width="30" height="30" fill="hsl(240 100% 90.37366343464498%)" />
  <rect x="660" y="120" width="30" height="30" fill="rgb(255 255 255 / 50%)" />
  <rect x="835" y="120" width="30" height="30" fill="rgb(255 255 255 / 50%)" />
  <rect x="65" y="155" width="30" height="30" fill="hsl(240 100% 98.4672793175741%)" />
  <rect x="100" y="155" width="30" height="30" fill="hsl(240 100% 98.77682242738547%)" />
  <rect x="135" y="155" width="30" height="30" fill="hsl(240 100% 99.10065903076266%)" />
  <rect x="170" y="155" width="30" height="30" fill="hsl(240 100% 98.01409650603541%)" />
  <rect x="205" y="155" width="30" height="30" fill="hsl(240 100% 99.84784808297556%)" />
  <rect x="240" y="155" width="30" height="30" fill="hsl(240 100% 91.0121257597984%)" />
  <rect x="275" y="155" width="30" height="30" fill="hsl(240 100% 92.8383197157355%)" />
  <rect x="310" y="155" width="30" height="30" fill="rgb(255 255 255 / 50%)" />
  <rect x="415" y="155" width="30" height="30" fill="hsl(240 100% 92.86183579457831%)" />
  <rect x="485" y="155" width="30" height="30" fill="hsl(240 100% 50%)" />
  <rect x="520" y="155" width="30" height="30" fill="hsl(240 100% 83.41312085269355%)" />
  <rect x="590" y="155" width="30" height="30" fill="hsl(240 100% 99.59861402070149%)" />
  <rect x="625" y="155" width="30" height="30" fill="hsl(240 100% 72.11794906670745%)" />
  <rect x="695" y="155" width="30" height="30" fill="hsl(240 100% 95.36414005829155%)" />
  <rect x="730" y="155" width="30" height="30" fill="hsl(240 100% 83.48497607492536%)" />
  <rect x="765" y="155" width="30" height="30" fill="hsl(240 100% 99.57459190176903%)" />
  <rect x="835" y="155" width="30" height="30" fill="hsl(240 100% 96.5024390534216%)" />
  <rect x="65" y="190" width="30" height="30" fill="hsl(240 100% 50%)" />
  <rect x="100" y="190" width="30" height="30" fill="hsl(240 100% 50%)" />
  <rect x="135" y="190" width="30" height="30" fill="hsl(240 100% 50%)" />
  <rect x="170" y="190" width="30" height="30" fill="hsl(240 100% 50%)" />
  <rect x="205" y="190" width="30" height="30" fill="hsl(240 100% 50%)" />
  <rect x="240" y="190" width="30" height="30" fill="hsl(240 100% 50%)" />
  <rect x="275" y="190" width="30" height="30" fill="hsl(240 100% 50%)" />
  <rect x="310" y="190" width="30" height="30" fill="hsl(240 100% 50%)" />
  <rect x="345" y="190" width="30" height="30" fill="hsl(240 100% 50%)" />
  <rect x="380" y="190" width="30" height="30" fill="hsl(240 100% 50%)" />
  <rect x="415" y="190" width="30" height="30" fill="hsl(240 100% 50%)" />
  <rect x="450" y="190" width="30" height="30" fill="hsl(240 100% 50%)" />
  <rect x="485" y="190" width="30" height="30" fill="hsl(240 100% 50%)" />
  <rect x="520" y="190" width="30" height="30" fill="hsl(240 100% 50%)" />
  <rect x="555" y="190" width="30" height="30" fill="hsl(240 100% 50%)" />
  <rect x="590" y="190" width="30" height="30" fill="hsl(240 100% 50%)" />
  <rect x="625" y="190" width="30" height="30" fill="hsl(240 100% 50%)" />
  <rect x="660" y="190" width="30" height="30" fill="hsl(240 100% 50%)" />
  <rect x="695" y="190" width="30" height="30" fill="hsl(240 100% 50%)" />
  <rect x="730" y="190" width="30" height="30" fill="hsl(240 100% 50%)" />
  <rect x="765" y="190" width="30" height="30" fill="hsl(240 100% 50%)" />
  <rect x="800" y="190" width="30" height="30" fill="hsl(240 100% 50%)" />
  <rect x="835" y="190" width="30" height="30" fill="hsl(240 100% 50%)" />
  <rect x="100" y="225" width="30" height="30" fill="hsl(240 100% 96.78322633965267%)" />
  <rect x="135" y="225" width="30" height="30" fill="hsl(240 100% 89.46158477573637%)" />
  <rect x="170" y="225" width="30" height="30" fill="hsl(240 100% 89.68717738987984%)" />
  <rect x="240" y="225" width="30" height="30" fill="hsl(240 100% 91.51428460545728%)" />
  <rect x="310" y="225" width="30" height="30" fill="rgb(255 255 255 / 50%)" />
  <rect x="415" y="225" width="30" height="30" fill="hsl(240 100% 90.75972003481833%)" />
  <rect x="520" y="225" width="30" height="30" fill="hsl(240 100% 50%)" />
  <rect x="625" y="225" width="30" height="30" fill="rgb(255 255 255 / 50%)" />
  <rect x="730" y="225" width="30" height="30" fill="hsl(240 100% 93.3397792306865%)" />
  <rect x="765" y="225" width="30" height="30" fill="rgb(255 255 255 / 50%)" />
  <rect x="835" y="225" width="30" height="30" fill="hsl(240 100% 94.40178637765612%)" />
  <rect x="65" y="260" width="30" height="30" fill="hsl(240 100% 99.88261107150086%)" />
  <rect x="135" y="260" width="30" height="30" fill="hsl(240 100% 99.85337591238887%)" />
  <rect x="170" y="260" width="30" height="30" fill="hsl(240 100% 98.84301889347321%)" />
  <rect x="205" y="260" width="30" height="30" fill="rgb(255 255 255 / 50%)" />
  <rect x="240" y="260" width="30" height="30" fill="hsl(240 100% 87.0239241121793%)" />
  <rect x="310" y="260" width="30" height="30" fill="rgb(255 255 255 / 50%)" />
  <rect x="415" y="260" width="30" height="30" fill="hsl(240 100% 80.69862631591133%)" />
  <rect x="450" y="260" width="30" height="30" fill="rgb(255 255 255 / 50%)" />
  <rect x="485" y="260" width="30" height="30" fill="hsl(240 100% 50%)" />
  <rect x="520" y="260" width="30" height="30" fill="hsl(240 100% 71.06105624863494%)" />
  <rect x="625" y="260" width="30" height="30" fill="hsl(240 100% 96.93743768991925%)" />
  <rect x="695" y="260" width="30" height="30" fill="hsl(240 100% 94.07195561468748%)" />
  <rect x="65" y="295" width="30" height="30" fill="hsl(240 100% 85.81355766399147%)" />
  <rect x="100" y="295" width="30" height="30" fill="hsl(240 100% 97.5284936912064%)" />
  <rect x="135" y="295" width="30" height="30" fill="hsl(240 100% 95.13720100772933%)" />
  <rect x="170" y="295" width="30" height="30" fill="hsl(240 100% 90.61498881086204%)" />
  <rect x="205" y="295" width="30" height="30" fill="hsl(240 100% 99.47022156611457%)" />
  <rect x="240" y="295" width="30" height="30" fill="hsl(240 100% 50.34034207547266%)" />
  <rect x="275" y="295" width="30" height="30" fill="hsl(240 100% 50%)" />
  <rect x="310" y="295" width="30" height="30" fill="hsl(240 100% 99.49711319410092%)" />
  <rect x="345" y="295" width="30" height="30" fill="hsl(240 100% 94.69470269324682%)" />
  <rect x="415" y="295" width="30" height="30" fill="hsl(240 100% 55.00761139008461%)" />
  <rect x="450" y="295" width="30" height="30" fill="hsl(240 100% 99.33786679793752%)" />
  <rect x="485" y="295" width="30" height="30" fill="hsl(240 100% 88.47962501073154%)" />
  <rect x="520" y="295" width="30" height="30" fill="hsl(240 100% 57.64233779147773%)" />
  <rect x="695" y="295" width="30" height="30" fill="hsl(240 100% 97.59846693941536%)" />
  <rect x="800" y="295" width="30" height="30" fill="hsl(240 100% 99.56402134583979%)" />
  <rect x="835" y="295" width="30" height="30" fill="hsl(240 100% 99.9549254790909%)" />
  <rect x="65" y="330" width="30" height="30" fill="hsl(240 100% 88.99731004908575%)" />
  <rect x="100" y="330" width="30" height="30" fill="hsl(240 100% 94.77987374369185%)" />
  <rect x="135" y="330" width="30" height="30" fill="hsl(240 100% 97.17890510156046%)" />
  <rect x="170" y="330" width="30" height="30" fill="hsl(240 100% 88.59095446369572%)" />
  <rect x="205" y="330" width="30" height="30" fill="hsl(240 100% 99.21647758191506%)" />
  <rect x="240" y="330" width="30" height="30" fill="hsl(240 100% 80.33643552026656%)" />
  <rect x="275" y="330" width="30" height="30" fill="hsl(240 100% 89.32284746451779%)" />
  <rect x="310" y="330" width="30" height="30" fill="rgb(255 255 255 / 50%)" />
  <rect x="345" y="330" width="30" height="30" fill="hsl(240 100% 97.26981583276932%)" />
  <rect x="415" y="330" width="30" height="30" fill="hsl(240 100% 86.13161290244366%)" />
  <rect x="450" y="330" width="30" height="30" fill="hsl(240 100% 99.81554050780207%)" />
  <rect x="485" y="330" width="30" height="30" fill="hsl(240 100% 70.67713364884997%)" />
  <rect x="520" y="330" width="30" height="30" fill="hsl(240 100% 77.34188484052325%)" />
  <rect x="590" y="330" width="30" height="30" fill="hsl(240 100% 93.9322033472452%)" />
  <rect x="625" y="330" width="30" height="30" fill="hsl(240 100% 50%)" />
  <rect x="765" y="330" width="30" height="30" fill="hsl(240 100% 94.5096393690605%)" />
  <rect x="800" y="330" width="30" height="30" fill="hsl(240 100% 99.23749767405697%)" />
  <rect x="835" y="330" width="30" height="30" fill="hsl(240 100% 81.40786371239479%)" />
  <rect x="65" y="365" width="30" height="30" fill="hsl(240 100% 57.1353849592866%)" />
  <rect x="100" y="365" width="30" height="30" fill="hsl(240 100% 71.72430043815429%)" />
  <rect x="135" y="365" width="30" height="30" fill="hsl(240 100% 82.2691080646258%)" />
  <rect x="170" y="365" width="30" height="30" fill="hsl(240 100% 50%)" />
  <rect x="205" y="365" width="30" height="30" fill="hsl(240 100% 96.19754341934339%)" />
  <rect x="240" y="365" width="30" height="30" fill="hsl(240 100% 59.16350108744809%)" />
  <rect x="275" y="365" width="30" height="30" fill="hsl(240 100% 92.66287361799351%)" />
  <rect x="310" y="365" width="30" height="30" fill="hsl(240 100% 99.86244241161933%)" />
  <rect x="415" y="365" width="30" height="30" fill="hsl(240 100% 66.64619865463355%)" />
  <rect x="520" y="365" width="30" height="30" fill="hsl(240 100% 85.89413291211275%)" />
  <rect x="625" y="365" width="30" height="30" fill="hsl(240 100% 99.63143499045741%)" />
  <rect x="730" y="365" width="30" height="30" fill="hsl(240 100% 63.25095810153548%)" />
  <rect x="765" y="365" width="30" height="30" fill="hsl(240 100% 98.13849695095082%)" />
  <rect x="835" y="365" width="30" height="30" fill="hsl(240 100% 98.70825707466116%)" />
  <rect x="65" y="400" width="30" height="30" fill="hsl(240 100% 98.19625899526064%)" />
  <rect x="100" y="400" width="30" height="30" fill="hsl(240 100% 99.40332385401157%)" />
  <rect x="135" y="400" width="30" height="30" fill="hsl(240 100% 99.6715467624182%)" />
  <rect x="170" y="400" width="30" height="30" fill="hsl(240 100% 95.40021477718336%)" />
  <rect x="205" y="400" width="30" height="30" fill="hsl(240 100% 99.23630171953245%)" />
  <rect x="240" y="400" width="30" height="30" fill="hsl(240 100% 86.11998417379715%)" />
  <rect x="275" y="400" width="30" height="30" fill="hsl(240 100% 95.35001790414707%)" />
  <rect x="310" y="400" width="30" height="30" fill="rgb(255 255 255 / 50%)" />
  <rect x="380" y="400" width="30" height="30" fill="rgb(255 255 255 / 50%)" />
  <rect x="415" y="400" width="30" height="30" fill="hsl(240 100% 94.0205361756926%)" />
  <rect x="450" y="400" width="30" height="30" fill="hsl(240 100% 99.9711276936329%)" />
  <rect x="485" y="400" width="30" height="30" fill="hsl(240 100% 78.76618298731864%)" />
  <rect x="520" y="400" width="30" height="30" fill="hsl(240 100% 50%)" />
  <rect x="555" y="400" width="30" height="30" fill="hsl(240 100% 99.11581431922157%)" />
  <rect x="660" y="400" width="30" height="30" fill="rgb(255 255 255 / 50%)" />
  <rect x="835" y="400" width="30" height="30" fill="hsl(240 100% 99.10156515390304%)" />
  <rect x="65" y="435" width="30" height="30" fill="hsl(240 100% 92.86268019475926%)" />
  <rect x="240" y="435" width="30" height="30" fill="hsl(240 100% 50%)" />
  <rect x="310" y="435" width="30" height="30" fill="hsl(240 100% 94.27689195942608%)" />
  <rect x="415" y="435" width="30" height="30" fill="hsl(240 100% 86.97746637573853%)" />
  <rect x="450" y="435" width="30" height="30" fill="hsl(240 100% 99.7845892965371%)" />
  <rect x="65" y="470" width="30" height="30" fill="hsl(240 100% 50%)" />
  <rect x="240" y="470" width="30" height="30" fill="hsl(240 100% 50.412693629190485%)" />
  <rect x="310" y="470" width="30" height="30" fill="hsl(240 100% 97.15625307935944%)" />
  <rect x="415" y="470" width="30" height="30" fill="hsl(240 100% 90.94928129921965%)" />
  <rect x="450" y="470" width="30" height="30" fill="hsl(240 100% 99.56246729916049%)" />
</svg>
