<svg xmlns="http://www.w3.org/2000/svg" viewBox="0 0 870 505">
  <rect x="0" y="0" width="870" height="505" rx="5" ry="5" fill="#222" />
  <text x="60" y="100" fill="white" font-family="sans-serif" font-weight="bold" font-size="12" text-anchor="end" dominant-baseline="middle">ba</text>
  <text x="60" y="135" fill="white" font-family="sans-serif" font-weight="bold" font-size="12" text-anchor="end" dominant-baseline="middle">det</text>
  <text x="60" y="170" fill="white" font-family="sans-serif" font-weight="bold" font-size="12" text-anchor="end" dominant-baseline="middle">gmm</text>
  <text x="60" y="205" fill="white" font-family="sans-serif" font-weight="bold" font-size="12" text-anchor="end" dominant-baseline="middle">hello</text>
  <text x="60" y="240" fill="white" font-family="sans-serif" font-weight="bold" font-size="12" text-anchor="end" dominant-baseline="middle">ht</text>
  <text x="60" y="275" fill="white" font-family="sans-serif" font-weight="bold" font-size="12" text-anchor="end" dominant-baseline="middle">kmeans</text>
  <text x="60" y="310" fill="white" font-family="sans-serif" font-weight="bold" font-size="12" text-anchor="end" dominant-baseline="middle">llsq</text>
  <text x="60" y="345" fill="white" font-family="sans-serif" font-weight="bold" font-size="12" text-anchor="end" dominant-baseline="middle">lse</text>
  <text x="60" y="380" fill="white" font-family="sans-serif" font-weight="bold" font-size="12" text-anchor="end" dominant-baseline="middle">lstm</text>
  <text x="60" y="415" fill="white" font-family="sans-serif" font-weight="bold" font-size="12" text-anchor="end" dominant-baseline="middle">ode</text>
  <text x="60" y="450" fill="white" font-family="sans-serif" font-weight="bold" font-size="12" text-anchor="end" dominant-baseline="middle">particle</text>
  <text x="60" y="485" fill="white" font-family="sans-serif" font-weight="bold" font-size="12" text-anchor="end" dominant-baseline="middle">saddle</text>
  <text x="80" y="80" fill="white" font-family="sans-serif" font-weight="bold" font-size="12" text-anchor="end" dominant-baseline="middle" transform="rotate(90 80 80)">ad-hpp</text>
  <text x="115" y="80" fill="white" font-family="sans-serif" font-weight="bold" font-size="12" text-anchor="end" dominant-baseline="middle" transform="rotate(90 115 80)">adept</text>
  <text x="150" y="80" fill="white" font-family="sans-serif" font-weight="bold" font-size="12" text-anchor="end" dominant-baseline="middle" transform="rotate(90 150 80)">adol-c</text>
  <text x="185" y="80" fill="white" font-family="sans-serif" font-weight="bold" font-size="12" text-anchor="end" dominant-baseline="middle" transform="rotate(90 185 80)">codipack</text>
  <text x="220" y="80" fill="white" font-family="sans-serif" font-weight="bold" font-size="12" text-anchor="end" dominant-baseline="middle" transform="rotate(90 220 80)">cppad</text>
  <text x="255" y="80" fill="white" font-family="sans-serif" font-weight="bold" font-size="12" text-anchor="end" dominant-baseline="middle" transform="rotate(90 255 80)">enzyme</text>
  <text x="290" y="80" fill="white" font-family="sans-serif" font-weight="bold" font-size="12" text-anchor="end" dominant-baseline="middle" transform="rotate(90 290 80)">enzyme-jl</text>
  <text x="325" y="80" fill="white" font-family="sans-serif" font-weight="bold" font-size="12" text-anchor="end" dominant-baseline="middle" transform="rotate(90 325 80)">finite</text>
  <text x="360" y="80" fill="white" font-family="sans-serif" font-weight="bold" font-size="12" text-anchor="end" dominant-baseline="middle" transform="rotate(90 360 80)">floretta</text>
  <text x="395" y="80" fill="white" font-family="sans-serif" font-weight="bold" font-size="12" text-anchor="end" dominant-baseline="middle" transform="rotate(90 395 80)">forwarddiff-jl</text>
  <text x="430" y="80" fill="white" font-family="sans-serif" font-weight="bold" font-size="12" text-anchor="end" dominant-baseline="middle" transform="rotate(90 430 80)">futhark</text>
  <text x="465" y="80" fill="white" font-family="sans-serif" font-weight="bold" font-size="12" text-anchor="end" dominant-baseline="middle" transform="rotate(90 465 80)">haskell</text>
  <text x="500" y="80" fill="white" font-family="sans-serif" font-weight="bold" font-size="12" text-anchor="end" dominant-baseline="middle" transform="rotate(90 500 80)">jax</text>
  <text x="535" y="80" fill="white" font-family="sans-serif" font-weight="bold" font-size="12" text-anchor="end" dominant-baseline="middle" transform="rotate(90 535 80)">manual</text>
  <text x="570" y="80" fill="white" font-family="sans-serif" font-weight="bold" font-size="12" text-anchor="end" dominant-baseline="middle" transform="rotate(90 570 80)">mooncake-jl</text>
  <text x="605" y="80" fill="white" font-family="sans-serif" font-weight="bold" font-size="12" text-anchor="end" dominant-baseline="middle" transform="rotate(90 605 80)">ocaml</text>
  <text x="640" y="80" fill="white" font-family="sans-serif" font-weight="bold" font-size="12" text-anchor="end" dominant-baseline="middle" transform="rotate(90 640 80)">pytorch</text>
  <text x="675" y="80" fill="white" font-family="sans-serif" font-weight="bold" font-size="12" text-anchor="end" dominant-baseline="middle" transform="rotate(90 675 80)">reversediff-jl</text>
  <text x="710" y="80" fill="white" font-family="sans-serif" font-weight="bold" font-size="12" text-anchor="end" dominant-baseline="middle" transform="rotate(90 710 80)">scilean</text>
  <text x="745" y="80" fill="white" font-family="sans-serif" font-weight="bold" font-size="12" text-anchor="end" dominant-baseline="middle" transform="rotate(90 745 80)">tapenade</text>
  <text x="780" y="80" fill="white" font-family="sans-serif" font-weight="bold" font-size="12" text-anchor="end" dominant-baseline="middle" transform="rotate(90 780 80)">tensorflow</text>
  <text x="815" y="80" fill="white" font-family="sans-serif" font-weight="bold" font-size="12" text-anchor="end" dominant-baseline="middle" transform="rotate(90 815 80)">tensorflow-js</text>
  <text x="850" y="80" fill="white" font-family="sans-serif" font-weight="bold" font-size="12" text-anchor="end" dominant-baseline="middle" transform="rotate(90 850 80)">zygote</text>
  <rect x="65" y="85" width="30" height="30" fill="hsl(240 100% 80.66988827130376%)" />
  <rect x="100" y="85" width="30" height="30" fill="hsl(240 100% 82.36406580242034%)" />
  <rect x="135" y="85" width="30" height="30" fill="hsl(240 100% 97.91421596652147%)" />
  <rect x="170" y="85" width="30" height="30" fill="hsl(240 100% 81.5702592926085%)" />
  <rect x="205" y="85" width="30" height="30" fill="hsl(240 100% 98.93998587166811%)" />
  <rect x="240" y="85" width="30" height="30" fill="hsl(240 100% 50%)" />
  <rect x="310" y="85" width="30" height="30" fill="hsl(240 100% 92.85514749214994%)" />
  <rect x="415" y="85" width="30" height="30" fill="hsl(240 100% 66.78591501813199%)" />
  <rect x="520" y="85" width="30" height="30" fill="hsl(240 100% 54.09106492715423%)" />
  <rect x="625" y="85" width="30" height="30" fill="rgb(255 255 255 / 50%)" />
  <rect x="730" y="85" width="30" height="30" fill="hsl(240 100% 73.86565608598602%)" />
  <rect x="765" y="85" width="30" height="30" fill="rgb(255 255 255 / 50%)" />
  <rect x="835" y="85" width="30" height="30" fill="hsl(240 100% 99.72110975141979%)" />
  <rect x="65" y="120" width="30" height="30" fill="hsl(240 100% 50%)" />
  <rect x="100" y="120" width="30" height="30" fill="hsl(240 100% 83.50001216163538%)" />
  <rect x="135" y="120" width="30" height="30" fill="hsl(240 100% 85.92848979269235%)" />
  <rect x="170" y="120" width="30" height="30" fill="hsl(240 100% 53.171666725366954%)" />
  <rect x="205" y="120" width="30" height="30" fill="hsl(240 100% 92.82573246000801%)" />
  <rect x="240" y="120" width="30" height="30" fill="hsl(240 100% 91.68009391632053%)" />
  <rect x="275" y="120" width="30" height="30" fill="hsl(240 100% 99.37685904005735%)" />
  <rect x="310" y="120" width="30" height="30" fill="hsl(240 100% 99.0064498640758%)" />
  <rect x="380" y="120" width="30" height="30" fill="hsl(240 100% 93.42753851282876%)" />
  <rect x="415" y="120" width="30" height="30" fill="hsl(240 100% 94.67344897032673%)" />
  <rect x="450" y="120" width="30" height="30" fill="hsl(240 100% 97.90693905505792%)" />
  <rect x="520" y="120" width="30" height="30" fill="hsl(240 100% 79.86867032824767%)" />
  <rect x="555" y="120" width="30" height="30" fill="hsl(240 100% 90.49300629230177%)" />
  <rect x="660" y="120" width="30" height="30" fill="rgb(255 255 255 / 50%)" />
  <rect x="835" y="120" width="30" height="30" fill="rgb(255 255 255 / 50%)" />
  <rect x="65" y="155" width="30" height="30" fill="hsl(240 100% 98.13278569137452%)" />
  <rect x="100" y="155" width="30" height="30" fill="hsl(240 100% 98.81456039539945%)" />
  <rect x="135" y="155" width="30" height="30" fill="hsl(240 100% 99.12864958925235%)" />
  <rect x="170" y="155" width="30" height="30" fill="hsl(240 100% 98.00506538021186%)" />
  <rect x="205" y="155" width="30" height="30" fill="hsl(240 100% 99.84888842437229%)" />
  <rect x="240" y="155" width="30" height="30" fill="hsl(240 100% 91.16014843032583%)" />
  <rect x="275" y="155" width="30" height="30" fill="hsl(240 100% 92.74335497519337%)" />
  <rect x="310" y="155" width="30" height="30" fill="rgb(255 255 255 / 50%)" />
  <rect x="415" y="155" width="30" height="30" fill="hsl(240 100% 92.96827320406805%)" />
  <rect x="485" y="155" width="30" height="30" fill="hsl(240 100% 50%)" />
  <rect x="520" y="155" width="30" height="30" fill="hsl(240 100% 81.46408901902578%)" />
  <rect x="590" y="155" width="30" height="30" fill="hsl(240 100% 99.5778977709938%)" />
  <rect x="625" y="155" width="30" height="30" fill="hsl(240 100% 67.70869223703198%)" />
  <rect x="695" y="155" width="30" height="30" fill="hsl(240 100% 95.46309704325317%)" />
  <rect x="730" y="155" width="30" height="30" fill="hsl(240 100% 83.78239892380316%)" />
  <rect x="765" y="155" width="30" height="30" fill="hsl(240 100% 99.57775862121454%)" />
  <rect x="835" y="155" width="30" height="30" fill="hsl(240 100% 96.33507726349791%)" />
  <rect x="65" y="190" width="30" height="30" fill="hsl(240 100% 50%)" />
  <rect x="100" y="190" width="30" height="30" fill="hsl(240 100% 50%)" />
  <rect x="135" y="190" width="30" height="30" fill="hsl(240 100% 50%)" />
  <rect x="170" y="190" width="30" height="30" fill="hsl(240 100% 50%)" />
  <rect x="205" y="190" width="30" height="30" fill="hsl(240 100% 50%)" />
  <rect x="240" y="190" width="30" height="30" fill="hsl(240 100% 50%)" />
  <rect x="275" y="190" width="30" height="30" fill="hsl(240 100% 50%)" />
  <rect x="310" y="190" width="30" height="30" fill="hsl(240 100% 50%)" />
  <rect x="345" y="190" width="30" height="30" fill="hsl(240 100% 50%)" />
  <rect x="380" y="190" width="30" height="30" fill="hsl(240 100% 50%)" />
  <rect x="415" y="190" width="30" height="30" fill="hsl(240 100% 50%)" />
  <rect x="450" y="190" width="30" height="30" fill="hsl(240 100% 50%)" />
  <rect x="485" y="190" width="30" height="30" fill="hsl(240 100% 50%)" />
  <rect x="520" y="190" width="30" height="30" fill="hsl(240 100% 50%)" />
  <rect x="555" y="190" width="30" height="30" fill="hsl(240 100% 50%)" />
  <rect x="590" y="190" width="30" height="30" fill="hsl(240 100% 50%)" />
  <rect x="625" y="190" width="30" height="30" fill="hsl(240 100% 50%)" />
  <rect x="660" y="190" width="30" height="30" fill="hsl(240 100% 50%)" />
  <rect x="695" y="190" width="30" height="30" fill="hsl(240 100% 50%)" />
  <rect x="730" y="190" width="30" height="30" fill="hsl(240 100% 50%)" />
  <rect x="765" y="190" width="30" height="30" fill="hsl(240 100% 50%)" />
  <rect x="800" y="190" width="30" height="30" fill="hsl(240 100% 50%)" />
  <rect x="835" y="190" width="30" height="30" fill="hsl(240 100% 50%)" />
  <rect x="100" y="225" width="30" height="30" fill="hsl(240 100% 96.37037349624514%)" />
  <rect x="135" y="225" width="30" height="30" fill="hsl(240 100% 86.88231605355007%)" />
  <rect x="170" y="225" width="30" height="30" fill="hsl(240 100% 88.16443199154004%)" />
  <rect x="240" y="225" width="30" height="30" fill="hsl(240 100% 90.43661399761338%)" />
  <rect x="310" y="225" width="30" height="30" fill="rgb(255 255 255 / 50%)" />
  <rect x="415" y="225" width="30" height="30" fill="hsl(240 100% 89.67023600464344%)" />
  <rect x="520" y="225" width="30" height="30" fill="hsl(240 100% 50%)" />
  <rect x="625" y="225" width="30" height="30" fill="rgb(255 255 255 / 50%)" />
  <rect x="730" y="225" width="30" height="30" fill="hsl(240 100% 92.60454012147952%)" />
  <rect x="765" y="225" width="30" height="30" fill="rgb(255 255 255 / 50%)" />
  <rect x="835" y="225" width="30" height="30" fill="hsl(240 100% 93.86010906277328%)" />
  <rect x="65" y="260" width="30" height="30" fill="hsl(240 100% 99.88247981261584%)" />
  <rect x="135" y="260" width="30" height="30" fill="hsl(240 100% 99.85673341759198%)" />
  <rect x="170" y="260" width="30" height="30" fill="hsl(240 100% 98.93082514244175%)" />
  <rect x="205" y="260" width="30" height="30" fill="rgb(255 255 255 / 50%)" />
  <rect x="240" y="260" width="30" height="30" fill="hsl(240 100% 87.14817378782071%)" />
  <rect x="310" y="260" width="30" height="30" fill="rgb(255 255 255 / 50%)" />
  <rect x="415" y="260" width="30" height="30" fill="hsl(240 100% 80.75669046444273%)" />
  <rect x="450" y="260" width="30" height="30" fill="rgb(255 255 255 / 50%)" />
  <rect x="485" y="260" width="30" height="30" fill="hsl(240 100% 50%)" />
  <rect x="520" y="260" width="30" height="30" fill="hsl(240 100% 72.52462257680598%)" />
  <rect x="625" y="260" width="30" height="30" fill="hsl(240 100% 97.06944184956585%)" />
  <rect x="695" y="260" width="30" height="30" fill="hsl(240 100% 94.14762875309329%)" />
  <rect x="65" y="295" width="30" height="30" fill="hsl(240 100% 85.9646861837237%)" />
  <rect x="100" y="295" width="30" height="30" fill="hsl(240 100% 97.48930695784632%)" />
  <rect x="135" y="295" width="30" height="30" fill="hsl(240 100% 95.00257568451217%)" />
  <rect x="170" y="295" width="30" height="30" fill="hsl(240 100% 89.35963034387295%)" />
  <rect x="205" y="295" width="30" height="30" fill="hsl(240 100% 99.48373116007922%)" />
  <rect x="240" y="295" width="30" height="30" fill="hsl(240 100% 50.554549752114134%)" />
  <rect x="275" y="295" width="30" height="30" fill="hsl(240 100% 50%)" />
  <rect x="310" y="295" width="30" height="30" fill="hsl(240 100% 99.49925179922752%)" />
  <rect x="345" y="295" width="30" height="30" fill="hsl(240 100% 94.75974880510469%)" />
  <rect x="415" y="295" width="30" height="30" fill="hsl(240 100% 55.21811770650961%)" />
  <rect x="450" y="295" width="30" height="30" fill="hsl(240 100% 99.3281946740697%)" />
  <rect x="485" y="295" width="30" height="30" fill="hsl(240 100% 88.09571824633247%)" />
  <rect x="520" y="295" width="30" height="30" fill="hsl(240 100% 57.857889178273865%)" />
  <rect x="695" y="295" width="30" height="30" fill="hsl(240 100% 97.610452447199%)" />
  <rect x="800" y="295" width="30" height="30" fill="hsl(240 100% 99.57828553648974%)" />
  <rect x="835" y="295" width="30" height="30" fill="hsl(240 100% 99.95488737322408%)" />
  <rect x="65" y="330" width="30" height="30" fill="hsl(240 100% 88.00941501281267%)" />
  <rect x="100" y="330" width="30" height="30" fill="hsl(240 100% 94.61338500440333%)" />
  <rect x="135" y="330" width="30" height="30" fill="hsl(240 100% 97.12859394581821%)" />
  <rect x="170" y="330" width="30" height="30" fill="hsl(240 100% 87.77181506858336%)" />
  <rect x="205" y="330" width="30" height="30" fill="hsl(240 100% 99.24445217355903%)" />
  <rect x="240" y="330" width="30" height="30" fill="hsl(240 100% 80.63170672729328%)" />
  <rect x="275" y="330" width="30" height="30" fill="hsl(240 100% 88.69855402963506%)" />
  <rect x="310" y="330" width="30" height="30" fill="rgb(255 255 255 / 50%)" />
  <rect x="345" y="330" width="30" height="30" fill="hsl(240 100% 97.38800099793178%)" />
  <rect x="415" y="330" width="30" height="30" fill="hsl(240 100% 86.62231405462538%)" />
  <rect x="450" y="330" width="30" height="30" fill="hsl(240 100% 99.81639937341711%)" />
  <rect x="485" y="330" width="30" height="30" fill="hsl(240 100% 71.87748901628717%)" />
  <rect x="520" y="330" width="30" height="30" fill="hsl(240 100% 72.1232531650862%)" />
  <rect x="590" y="330" width="30" height="30" fill="hsl(240 100% 94.09524058954635%)" />
  <rect x="625" y="330" width="30" height="30" fill="hsl(240 100% 50%)" />
  <rect x="765" y="330" width="30" height="30" fill="hsl(240 100% 94.45210481831839%)" />
  <rect x="800" y="330" width="30" height="30" fill="hsl(240 100% 99.24703333725652%)" />
  <rect x="835" y="330" width="30" height="30" fill="hsl(240 100% 82.07202982324709%)" />
  <rect x="65" y="365" width="30" height="30" fill="hsl(240 100% 57.83773774099549%)" />
  <rect x="100" y="365" width="30" height="30" fill="hsl(240 100% 71.20729339300192%)" />
  <rect x="135" y="365" width="30" height="30" fill="hsl(240 100% 82.14126540933714%)" />
  <rect x="170" y="365" width="30" height="30" fill="hsl(240 100% 50%)" />
  <rect x="205" y="365" width="30" height="30" fill="hsl(240 100% 96.12750207821891%)" />
  <rect x="240" y="365" width="30" height="30" fill="hsl(240 100% 59.7655831294894%)" />
  <rect x="275" y="365" width="30" height="30" fill="hsl(240 100% 92.68370976352229%)" />
  <rect x="310" y="365" width="30" height="30" fill="hsl(240 100% 99.8614423116621%)" />
  <rect x="415" y="365" width="30" height="30" fill="hsl(240 100% 66.66116956410127%)" />
  <rect x="520" y="365" width="30" height="30" fill="hsl(240 100% 86.17126886179811%)" />
  <rect x="625" y="365" width="30" height="30" fill="hsl(240 100% 99.63159872873935%)" />
  <rect x="730" y="365" width="30" height="30" fill="hsl(240 100% 63.61669059526383%)" />
  <rect x="765" y="365" width="30" height="30" fill="hsl(240 100% 98.20469532858857%)" />
  <rect x="835" y="365" width="30" height="30" fill="hsl(240 100% 98.77000856392239%)" />
  <rect x="65" y="400" width="30" height="30" fill="hsl(240 100% 97.70667562241859%)" />
  <rect x="100" y="400" width="30" height="30" fill="hsl(240 100% 99.2717397463378%)" />
  <rect x="135" y="400" width="30" height="30" fill="hsl(240 100% 99.57479090412258%)" />
  <rect x="170" y="400" width="30" height="30" fill="hsl(240 100% 92.4131302786707%)" />
  <rect x="205" y="400" width="30" height="30" fill="hsl(240 100% 99.04262597773331%)" />
  <rect x="240" y="400" width="30" height="30" fill="hsl(240 100% 82.6579137914315%)" />
  <rect x="275" y="400" width="30" height="30" fill="hsl(240 100% 94.21497610141216%)" />
  <rect x="310" y="400" width="30" height="30" fill="rgb(255 255 255 / 50%)" />
  <rect x="380" y="400" width="30" height="30" fill="rgb(255 255 255 / 50%)" />
  <rect x="415" y="400" width="30" height="30" fill="hsl(240 100% 92.47121982633124%)" />
  <rect x="450" y="400" width="30" height="30" fill="hsl(240 100% 99.96441877689143%)" />
  <rect x="485" y="400" width="30" height="30" fill="hsl(240 100% 73.15396508126821%)" />
  <rect x="520" y="400" width="30" height="30" fill="hsl(240 100% 50%)" />
  <rect x="555" y="400" width="30" height="30" fill="hsl(240 100% 98.8832291492117%)" />
  <rect x="660" y="400" width="30" height="30" fill="rgb(255 255 255 / 50%)" />
  <rect x="835" y="400" width="30" height="30" fill="hsl(240 100% 99.01117755296474%)" />
  <rect x="65" y="435" width="30" height="30" fill="hsl(240 100% 93.29904476457773%)" />
  <rect x="240" y="435" width="30" height="30" fill="hsl(240 100% 50%)" />
  <rect x="310" y="435" width="30" height="30" fill="hsl(240 100% 93.85407709454465%)" />
  <rect x="415" y="435" width="30" height="30" fill="hsl(240 100% 87.06470433481354%)" />
  <rect x="450" y="435" width="30" height="30" fill="hsl(240 100% 99.79870036900219%)" />
  <rect x="65" y="470" width="30" height="30" fill="hsl(240 100% 50%)" />
  <rect x="240" y="470" width="30" height="30" fill="hsl(240 100% 50.09586402524927%)" />
  <rect x="310" y="470" width="30" height="30" fill="hsl(240 100% 96.988122387296%)" />
  <rect x="415" y="470" width="30" height="30" fill="hsl(240 100% 88.98122396251485%)" />
  <rect x="450" y="470" width="30" height="30" fill="hsl(240 100% 99.56734748275257%)" />
</svg>
