<svg xmlns="http://www.w3.org/2000/svg" viewBox="0 0 870 505">
  <rect x="0" y="0" width="870" height="505" rx="5" ry="5" fill="#222" />
  <text x="60" y="100" fill="white" font-family="sans-serif" font-weight="bold" font-size="12" text-anchor="end" dominant-baseline="middle">ba</text>
  <text x="60" y="135" fill="white" font-family="sans-serif" font-weight="bold" font-size="12" text-anchor="end" dominant-baseline="middle">det</text>
  <text x="60" y="170" fill="white" font-family="sans-serif" font-weight="bold" font-size="12" text-anchor="end" dominant-baseline="middle">gmm</text>
  <text x="60" y="205" fill="white" font-family="sans-serif" font-weight="bold" font-size="12" text-anchor="end" dominant-baseline="middle">hello</text>
  <text x="60" y="240" fill="white" font-family="sans-serif" font-weight="bold" font-size="12" text-anchor="end" dominant-baseline="middle">ht</text>
  <text x="60" y="275" fill="white" font-family="sans-serif" font-weight="bold" font-size="12" text-anchor="end" dominant-baseline="middle">kmeans</text>
  <text x="60" y="310" fill="white" font-family="sans-serif" font-weight="bold" font-size="12" text-anchor="end" dominant-baseline="middle">llsq</text>
  <text x="60" y="345" fill="white" font-family="sans-serif" font-weight="bold" font-size="12" text-anchor="end" dominant-baseline="middle">lse</text>
  <text x="60" y="380" fill="white" font-family="sans-serif" font-weight="bold" font-size="12" text-anchor="end" dominant-baseline="middle">lstm</text>
  <text x="60" y="415" fill="white" font-family="sans-serif" font-weight="bold" font-size="12" text-anchor="end" dominant-baseline="middle">ode</text>
  <text x="60" y="450" fill="white" font-family="sans-serif" font-weight="bold" font-size="12" text-anchor="end" dominant-baseline="middle">particle</text>
  <text x="60" y="485" fill="white" font-family="sans-serif" font-weight="bold" font-size="12" text-anchor="end" dominant-baseline="middle">saddle</text>
  <text x="80" y="80" fill="white" font-family="sans-serif" font-weight="bold" font-size="12" text-anchor="end" dominant-baseline="middle" transform="rotate(90 80 80)">ad-hpp</text>
  <text x="115" y="80" fill="white" font-family="sans-serif" font-weight="bold" font-size="12" text-anchor="end" dominant-baseline="middle" transform="rotate(90 115 80)">adept</text>
  <text x="150" y="80" fill="white" font-family="sans-serif" font-weight="bold" font-size="12" text-anchor="end" dominant-baseline="middle" transform="rotate(90 150 80)">adol-c</text>
  <text x="185" y="80" fill="white" font-family="sans-serif" font-weight="bold" font-size="12" text-anchor="end" dominant-baseline="middle" transform="rotate(90 185 80)">codipack</text>
  <text x="220" y="80" fill="white" font-family="sans-serif" font-weight="bold" font-size="12" text-anchor="end" dominant-baseline="middle" transform="rotate(90 220 80)">cppad</text>
  <text x="255" y="80" fill="white" font-family="sans-serif" font-weight="bold" font-size="12" text-anchor="end" dominant-baseline="middle" transform="rotate(90 255 80)">enzyme</text>
  <text x="290" y="80" fill="white" font-family="sans-serif" font-weight="bold" font-size="12" text-anchor="end" dominant-baseline="middle" transform="rotate(90 290 80)">enzyme-jl</text>
  <text x="325" y="80" fill="white" font-family="sans-serif" font-weight="bold" font-size="12" text-anchor="end" dominant-baseline="middle" transform="rotate(90 325 80)">finite</text>
  <text x="360" y="80" fill="white" font-family="sans-serif" font-weight="bold" font-size="12" text-anchor="end" dominant-baseline="middle" transform="rotate(90 360 80)">floretta</text>
  <text x="395" y="80" fill="white" font-family="sans-serif" font-weight="bold" font-size="12" text-anchor="end" dominant-baseline="middle" transform="rotate(90 395 80)">forwarddiff-jl</text>
  <text x="430" y="80" fill="white" font-family="sans-serif" font-weight="bold" font-size="12" text-anchor="end" dominant-baseline="middle" transform="rotate(90 430 80)">futhark</text>
  <text x="465" y="80" fill="white" font-family="sans-serif" font-weight="bold" font-size="12" text-anchor="end" dominant-baseline="middle" transform="rotate(90 465 80)">haskell</text>
  <text x="500" y="80" fill="white" font-family="sans-serif" font-weight="bold" font-size="12" text-anchor="end" dominant-baseline="middle" transform="rotate(90 500 80)">jax</text>
  <text x="535" y="80" fill="white" font-family="sans-serif" font-weight="bold" font-size="12" text-anchor="end" dominant-baseline="middle" transform="rotate(90 535 80)">manual</text>
  <text x="570" y="80" fill="white" font-family="sans-serif" font-weight="bold" font-size="12" text-anchor="end" dominant-baseline="middle" transform="rotate(90 570 80)">mooncake-jl</text>
  <text x="605" y="80" fill="white" font-family="sans-serif" font-weight="bold" font-size="12" text-anchor="end" dominant-baseline="middle" transform="rotate(90 605 80)">ocaml</text>
  <text x="640" y="80" fill="white" font-family="sans-serif" font-weight="bold" font-size="12" text-anchor="end" dominant-baseline="middle" transform="rotate(90 640 80)">pytorch</text>
  <text x="675" y="80" fill="white" font-family="sans-serif" font-weight="bold" font-size="12" text-anchor="end" dominant-baseline="middle" transform="rotate(90 675 80)">reversediff-jl</text>
  <text x="710" y="80" fill="white" font-family="sans-serif" font-weight="bold" font-size="12" text-anchor="end" dominant-baseline="middle" transform="rotate(90 710 80)">scilean</text>
  <text x="745" y="80" fill="white" font-family="sans-serif" font-weight="bold" font-size="12" text-anchor="end" dominant-baseline="middle" transform="rotate(90 745 80)">tapenade</text>
  <text x="780" y="80" fill="white" font-family="sans-serif" font-weight="bold" font-size="12" text-anchor="end" dominant-baseline="middle" transform="rotate(90 780 80)">tensorflow</text>
  <text x="815" y="80" fill="white" font-family="sans-serif" font-weight="bold" font-size="12" text-anchor="end" dominant-baseline="middle" transform="rotate(90 815 80)">tensorflow-js</text>
  <text x="850" y="80" fill="white" font-family="sans-serif" font-weight="bold" font-size="12" text-anchor="end" dominant-baseline="middle" transform="rotate(90 850 80)">zygote</text>
  <rect x="65" y="85" width="30" height="30" fill="hsl(240 100% 81.09302882241929%)" />
  <rect x="100" y="85" width="30" height="30" fill="hsl(240 100% 82.92519415694562%)" />
  <rect x="135" y="85" width="30" height="30" fill="hsl(240 100% 97.96941434475463%)" />
  <rect x="170" y="85" width="30" height="30" fill="hsl(240 100% 82.53089600784358%)" />
  <rect x="205" y="85" width="30" height="30" fill="hsl(240 100% 98.99513965924785%)" />
  <rect x="240" y="85" width="30" height="30" fill="hsl(240 100% 51.70845573592736%)" />
  <rect x="310" y="85" width="30" height="30" fill="hsl(240 100% 93.22834496752773%)" />
  <rect x="415" y="85" width="30" height="30" fill="hsl(240 100% 67.9394533763818%)" />
  <rect x="520" y="85" width="30" height="30" fill="hsl(240 100% 50%)" />
  <rect x="625" y="85" width="30" height="30" fill="rgb(255 255 255 / 50%)" />
  <rect x="730" y="85" width="30" height="30" fill="hsl(240 100% 74.839864419325%)" />
  <rect x="765" y="85" width="30" height="30" fill="rgb(255 255 255 / 50%)" />
  <rect x="835" y="85" width="30" height="30" fill="hsl(240 100% 99.73080466079992%)" />
  <rect x="65" y="120" width="30" height="30" fill="hsl(240 100% 50%)" />
  <rect x="100" y="120" width="30" height="30" fill="hsl(240 100% 82.26253498991892%)" />
  <rect x="135" y="120" width="30" height="30" fill="hsl(240 100% 85.54417229678165%)" />
  <rect x="170" y="120" width="30" height="30" fill="hsl(240 100% 52.76471550927541%)" />
  <rect x="205" y="120" width="30" height="30" fill="hsl(240 100% 92.53508683510248%)" />
  <rect x="240" y="120" width="30" height="30" fill="hsl(240 100% 91.3564164183557%)" />
  <rect x="275" y="120" width="30" height="30" fill="hsl(240 100% 99.36815986632234%)" />
  <rect x="310" y="120" width="30" height="30" fill="hsl(240 100% 98.98221104607352%)" />
  <rect x="380" y="120" width="30" height="30" fill="hsl(240 100% 93.31385894248612%)" />
  <rect x="415" y="120" width="30" height="30" fill="hsl(240 100% 94.5924651365964%)" />
  <rect x="450" y="120" width="30" height="30" fill="hsl(240 100% 97.85030601423136%)" />
  <rect x="520" y="120" width="30" height="30" fill="hsl(240 100% 79.68944793468604%)" />
  <rect x="555" y="120" width="30" height="30" fill="hsl(240 100% 90.16078750935552%)" />
  <rect x="660" y="120" width="30" height="30" fill="rgb(255 255 255 / 50%)" />
  <rect x="835" y="120" width="30" height="30" fill="rgb(255 255 255 / 50%)" />
  <rect x="65" y="155" width="30" height="30" fill="hsl(240 100% 98.43460067405685%)" />
  <rect x="100" y="155" width="30" height="30" fill="hsl(240 100% 98.7821417135676%)" />
  <rect x="135" y="155" width="30" height="30" fill="hsl(240 100% 99.07700059896665%)" />
  <rect x="170" y="155" width="30" height="30" fill="hsl(240 100% 98.06311224048935%)" />
  <rect x="205" y="155" width="30" height="30" fill="hsl(240 100% 99.8488285944302%)" />
  <rect x="240" y="155" width="30" height="30" fill="hsl(240 100% 91.04629688701361%)" />
  <rect x="275" y="155" width="30" height="30" fill="hsl(240 100% 92.0613764465993%)" />
  <rect x="310" y="155" width="30" height="30" fill="rgb(255 255 255 / 50%)" />
  <rect x="415" y="155" width="30" height="30" fill="hsl(240 100% 92.91229491828264%)" />
  <rect x="485" y="155" width="30" height="30" fill="hsl(240 100% 50%)" />
  <rect x="520" y="155" width="30" height="30" fill="hsl(240 100% 83.15916110039082%)" />
  <rect x="590" y="155" width="30" height="30" fill="hsl(240 100% 99.58737152019268%)" />
  <rect x="625" y="155" width="30" height="30" fill="hsl(240 100% 66.33036542824013%)" />
  <rect x="695" y="155" width="30" height="30" fill="hsl(240 100% 95.39889767420884%)" />
  <rect x="730" y="155" width="30" height="30" fill="hsl(240 100% 83.60560352829245%)" />
  <rect x="765" y="155" width="30" height="30" fill="hsl(240 100% 99.57426093664009%)" />
  <rect x="835" y="155" width="30" height="30" fill="hsl(240 100% 96.04352675450706%)" />
  <rect x="65" y="190" width="30" height="30" fill="hsl(240 100% 50%)" />
  <rect x="100" y="190" width="30" height="30" fill="hsl(240 100% 50%)" />
  <rect x="135" y="190" width="30" height="30" fill="hsl(240 100% 50%)" />
  <rect x="170" y="190" width="30" height="30" fill="hsl(240 100% 50%)" />
  <rect x="205" y="190" width="30" height="30" fill="hsl(240 100% 50%)" />
  <rect x="240" y="190" width="30" height="30" fill="hsl(240 100% 50%)" />
  <rect x="275" y="190" width="30" height="30" fill="hsl(240 100% 50%)" />
  <rect x="310" y="190" width="30" height="30" fill="hsl(240 100% 50%)" />
  <rect x="345" y="190" width="30" height="30" fill="hsl(240 100% 50%)" />
  <rect x="380" y="190" width="30" height="30" fill="hsl(240 100% 50%)" />
  <rect x="415" y="190" width="30" height="30" fill="hsl(240 100% 50%)" />
  <rect x="450" y="190" width="30" height="30" fill="hsl(240 100% 50%)" />
  <rect x="485" y="190" width="30" height="30" fill="hsl(240 100% 50%)" />
  <rect x="520" y="190" width="30" height="30" fill="hsl(240 100% 50%)" />
  <rect x="555" y="190" width="30" height="30" fill="hsl(240 100% 50%)" />
  <rect x="590" y="190" width="30" height="30" fill="hsl(240 100% 50%)" />
  <rect x="625" y="190" width="30" height="30" fill="hsl(240 100% 50%)" />
  <rect x="660" y="190" width="30" height="30" fill="hsl(240 100% 50%)" />
  <rect x="695" y="190" width="30" height="30" fill="hsl(240 100% 50%)" />
  <rect x="730" y="190" width="30" height="30" fill="hsl(240 100% 50%)" />
  <rect x="765" y="190" width="30" height="30" fill="hsl(240 100% 50%)" />
  <rect x="800" y="190" width="30" height="30" fill="hsl(240 100% 50%)" />
  <rect x="835" y="190" width="30" height="30" fill="hsl(240 100% 50%)" />
  <rect x="100" y="225" width="30" height="30" fill="hsl(240 100% 96.73414393119457%)" />
  <rect x="135" y="225" width="30" height="30" fill="hsl(240 100% 89.42713185633735%)" />
  <rect x="170" y="225" width="30" height="30" fill="hsl(240 100% 89.39256944672583%)" />
  <rect x="240" y="225" width="30" height="30" fill="hsl(240 100% 91.45293686644175%)" />
  <rect x="310" y="225" width="30" height="30" fill="rgb(255 255 255 / 50%)" />
  <rect x="415" y="225" width="30" height="30" fill="hsl(240 100% 90.70098277506457%)" />
  <rect x="520" y="225" width="30" height="30" fill="hsl(240 100% 50%)" />
  <rect x="625" y="225" width="30" height="30" fill="rgb(255 255 255 / 50%)" />
  <rect x="730" y="225" width="30" height="30" fill="hsl(240 100% 93.27110884465309%)" />
  <rect x="765" y="225" width="30" height="30" fill="rgb(255 255 255 / 50%)" />
  <rect x="835" y="225" width="30" height="30" fill="hsl(240 100% 94.48460204930163%)" />
  <rect x="65" y="260" width="30" height="30" fill="hsl(240 100% 99.9020429360811%)" />
  <rect x="135" y="260" width="30" height="30" fill="hsl(240 100% 99.85347354516742%)" />
  <rect x="170" y="260" width="30" height="30" fill="hsl(240 100% 98.87520709387552%)" />
  <rect x="205" y="260" width="30" height="30" fill="rgb(255 255 255 / 50%)" />
  <rect x="240" y="260" width="30" height="30" fill="hsl(240 100% 87.40855711500316%)" />
  <rect x="310" y="260" width="30" height="30" fill="rgb(255 255 255 / 50%)" />
  <rect x="415" y="260" width="30" height="30" fill="hsl(240 100% 81.0122672678366%)" />
  <rect x="450" y="260" width="30" height="30" fill="rgb(255 255 255 / 50%)" />
  <rect x="485" y="260" width="30" height="30" fill="hsl(240 100% 50%)" />
  <rect x="520" y="260" width="30" height="30" fill="hsl(240 100% 71.7011632908753%)" />
  <rect x="625" y="260" width="30" height="30" fill="hsl(240 100% 96.9735310895228%)" />
  <rect x="695" y="260" width="30" height="30" fill="hsl(240 100% 94.18578823868206%)" />
  <rect x="65" y="295" width="30" height="30" fill="hsl(240 100% 85.93495210653447%)" />
  <rect x="100" y="295" width="30" height="30" fill="hsl(240 100% 97.50974770691799%)" />
  <rect x="135" y="295" width="30" height="30" fill="hsl(240 100% 95.09471467855063%)" />
  <rect x="170" y="295" width="30" height="30" fill="hsl(240 100% 90.6632695910727%)" />
  <rect x="205" y="295" width="30" height="30" fill="hsl(240 100% 99.43749758338352%)" />
  <rect x="240" y="295" width="30" height="30" fill="hsl(240 100% 50.61761717464997%)" />
  <rect x="275" y="295" width="30" height="30" fill="hsl(240 100% 50%)" />
  <rect x="310" y="295" width="30" height="30" fill="hsl(240 100% 99.49909004531052%)" />
  <rect x="345" y="295" width="30" height="30" fill="hsl(240 100% 94.68860743871186%)" />
  <rect x="415" y="295" width="30" height="30" fill="hsl(240 100% 55.21320874453306%)" />
  <rect x="450" y="295" width="30" height="30" fill="hsl(240 100% 99.3418843066921%)" />
  <rect x="485" y="295" width="30" height="30" fill="hsl(240 100% 88.09148663753452%)" />
  <rect x="520" y="295" width="30" height="30" fill="hsl(240 100% 57.825550513922444%)" />
  <rect x="695" y="295" width="30" height="30" fill="hsl(240 100% 97.60788429728268%)" />
  <rect x="800" y="295" width="30" height="30" fill="hsl(240 100% 99.5762351009006%)" />
  <rect x="835" y="295" width="30" height="30" fill="hsl(240 100% 99.95545322006339%)" />
  <rect x="65" y="330" width="30" height="30" fill="hsl(240 100% 87.8281835898793%)" />
  <rect x="100" y="330" width="30" height="30" fill="hsl(240 100% 94.43395589111573%)" />
  <rect x="135" y="330" width="30" height="30" fill="hsl(240 100% 96.91790292691904%)" />
  <rect x="170" y="330" width="30" height="30" fill="hsl(240 100% 87.49532738366719%)" />
  <rect x="205" y="330" width="30" height="30" fill="hsl(240 100% 99.14356850912442%)" />
  <rect x="240" y="330" width="30" height="30" fill="hsl(240 100% 78.33582261386339%)" />
  <rect x="275" y="330" width="30" height="30" fill="hsl(240 100% 86.58830034821207%)" />
  <rect x="310" y="330" width="30" height="30" fill="rgb(255 255 255 / 50%)" />
  <rect x="345" y="330" width="30" height="30" fill="hsl(240 100% 97.01006612937658%)" />
  <rect x="415" y="330" width="30" height="30" fill="hsl(240 100% 84.61605752822751%)" />
  <rect x="450" y="330" width="30" height="30" fill="hsl(240 100% 99.81575147491915%)" />
  <rect x="485" y="330" width="30" height="30" fill="hsl(240 100% 69.57476270389456%)" />
  <rect x="520" y="330" width="30" height="30" fill="hsl(240 100% 75.12018463268001%)" />
  <rect x="590" y="330" width="30" height="30" fill="hsl(240 100% 93.50534376660428%)" />
  <rect x="625" y="330" width="30" height="30" fill="hsl(240 100% 50%)" />
  <rect x="765" y="330" width="30" height="30" fill="hsl(240 100% 94.64057135871404%)" />
  <rect x="800" y="330" width="30" height="30" fill="hsl(240 100% 99.14062753351551%)" />
  <rect x="835" y="330" width="30" height="30" fill="hsl(240 100% 79.62562155489395%)" />
  <rect x="65" y="365" width="30" height="30" fill="hsl(240 100% 57.28805898794904%)" />
  <rect x="100" y="365" width="30" height="30" fill="hsl(240 100% 71.74914084916142%)" />
  <rect x="135" y="365" width="30" height="30" fill="hsl(240 100% 82.31994979454839%)" />
  <rect x="170" y="365" width="30" height="30" fill="hsl(240 100% 50%)" />
  <rect x="205" y="365" width="30" height="30" fill="hsl(240 100% 96.18851745682693%)" />
  <rect x="240" y="365" width="30" height="30" fill="hsl(240 100% 60.37441586167987%)" />
  <rect x="275" y="365" width="30" height="30" fill="hsl(240 100% 92.286545560541%)" />
  <rect x="310" y="365" width="30" height="30" fill="hsl(240 100% 99.86109531340968%)" />
  <rect x="415" y="365" width="30" height="30" fill="hsl(240 100% 66.51420810971851%)" />
  <rect x="520" y="365" width="30" height="30" fill="hsl(240 100% 86.02580297122982%)" />
  <rect x="625" y="365" width="30" height="30" fill="hsl(240 100% 99.63328238287588%)" />
  <rect x="730" y="365" width="30" height="30" fill="hsl(240 100% 63.18143190901466%)" />
  <rect x="765" y="365" width="30" height="30" fill="hsl(240 100% 98.16729275549741%)" />
  <rect x="835" y="365" width="30" height="30" fill="hsl(240 100% 98.8027679938824%)" />
  <rect x="65" y="400" width="30" height="30" fill="hsl(240 100% 98.09633645196304%)" />
  <rect x="100" y="400" width="30" height="30" fill="hsl(240 100% 99.27101609922325%)" />
  <rect x="135" y="400" width="30" height="30" fill="hsl(240 100% 99.59386387089208%)" />
  <rect x="170" y="400" width="30" height="30" fill="hsl(240 100% 94.17765806648812%)" />
  <rect x="205" y="400" width="30" height="30" fill="hsl(240 100% 99.04958918653203%)" />
  <rect x="240" y="400" width="30" height="30" fill="hsl(240 100% 84.53956090120606%)" />
  <rect x="275" y="400" width="30" height="30" fill="hsl(240 100% 94.23410994520465%)" />
  <rect x="310" y="400" width="30" height="30" fill="rgb(255 255 255 / 50%)" />
  <rect x="380" y="400" width="30" height="30" fill="rgb(255 255 255 / 50%)" />
  <rect x="415" y="400" width="30" height="30" fill="hsl(240 100% 92.69561879252663%)" />
  <rect x="450" y="400" width="30" height="30" fill="hsl(240 100% 99.96740742222993%)" />
  <rect x="485" y="400" width="30" height="30" fill="hsl(240 100% 73.7698553988445%)" />
  <rect x="520" y="400" width="30" height="30" fill="hsl(240 100% 50%)" />
  <rect x="555" y="400" width="30" height="30" fill="hsl(240 100% 98.89836451749841%)" />
  <rect x="660" y="400" width="30" height="30" fill="rgb(255 255 255 / 50%)" />
  <rect x="835" y="400" width="30" height="30" fill="hsl(240 100% 99.03399149240362%)" />
  <rect x="65" y="435" width="30" height="30" fill="hsl(240 100% 92.85804237176102%)" />
  <rect x="240" y="435" width="30" height="30" fill="hsl(240 100% 50%)" />
  <rect x="310" y="435" width="30" height="30" fill="hsl(240 100% 94.29482678924677%)" />
  <rect x="415" y="435" width="30" height="30" fill="hsl(240 100% 87.0145514322066%)" />
  <rect x="450" y="435" width="30" height="30" fill="hsl(240 100% 99.78814567941484%)" />
  <rect x="65" y="470" width="30" height="30" fill="hsl(240 100% 50%)" />
  <rect x="240" y="470" width="30" height="30" fill="hsl(240 100% 50.214736818047925%)" />
  <rect x="310" y="470" width="30" height="30" fill="hsl(240 100% 97.15385547560615%)" />
  <rect x="415" y="470" width="30" height="30" fill="hsl(240 100% 89.35444490659393%)" />
  <rect x="450" y="470" width="30" height="30" fill="hsl(240 100% 99.57276159917504%)" />
</svg>
