<svg xmlns="http://www.w3.org/2000/svg" viewBox="0 0 730 505">
  <rect x="0" y="0" width="730" height="505" rx="5" ry="5" fill="#222" />
  <text x="60" y="100" fill="white" font-family="sans-serif" font-weight="bold" font-size="12" text-anchor="end" dominant-baseline="middle">ba</text>
  <text x="60" y="135" fill="white" font-family="sans-serif" font-weight="bold" font-size="12" text-anchor="end" dominant-baseline="middle">det</text>
  <text x="60" y="170" fill="white" font-family="sans-serif" font-weight="bold" font-size="12" text-anchor="end" dominant-baseline="middle">gmm</text>
  <text x="60" y="205" fill="white" font-family="sans-serif" font-weight="bold" font-size="12" text-anchor="end" dominant-baseline="middle">hello</text>
  <text x="60" y="240" fill="white" font-family="sans-serif" font-weight="bold" font-size="12" text-anchor="end" dominant-baseline="middle">ht</text>
  <text x="60" y="275" fill="white" font-family="sans-serif" font-weight="bold" font-size="12" text-anchor="end" dominant-baseline="middle">kmeans</text>
  <text x="60" y="310" fill="white" font-family="sans-serif" font-weight="bold" font-size="12" text-anchor="end" dominant-baseline="middle">llsq</text>
  <text x="60" y="345" fill="white" font-family="sans-serif" font-weight="bold" font-size="12" text-anchor="end" dominant-baseline="middle">lse</text>
  <text x="60" y="380" fill="white" font-family="sans-serif" font-weight="bold" font-size="12" text-anchor="end" dominant-baseline="middle">lstm</text>
  <text x="60" y="415" fill="white" font-family="sans-serif" font-weight="bold" font-size="12" text-anchor="end" dominant-baseline="middle">ode</text>
  <text x="60" y="450" fill="white" font-family="sans-serif" font-weight="bold" font-size="12" text-anchor="end" dominant-baseline="middle">particle</text>
  <text x="60" y="485" fill="white" font-family="sans-serif" font-weight="bold" font-size="12" text-anchor="end" dominant-baseline="middle">saddle</text>
  <text x="80" y="80" fill="white" font-family="sans-serif" font-weight="bold" font-size="12" text-anchor="end" dominant-baseline="middle" transform="rotate(90 80 80)">ad-hpp</text>
  <text x="115" y="80" fill="white" font-family="sans-serif" font-weight="bold" font-size="12" text-anchor="end" dominant-baseline="middle" transform="rotate(90 115 80)">adept</text>
  <text x="150" y="80" fill="white" font-family="sans-serif" font-weight="bold" font-size="12" text-anchor="end" dominant-baseline="middle" transform="rotate(90 150 80)">adol-c</text>
  <text x="185" y="80" fill="white" font-family="sans-serif" font-weight="bold" font-size="12" text-anchor="end" dominant-baseline="middle" transform="rotate(90 185 80)">codipack</text>
  <text x="220" y="80" fill="white" font-family="sans-serif" font-weight="bold" font-size="12" text-anchor="end" dominant-baseline="middle" transform="rotate(90 220 80)">cppad</text>
  <text x="255" y="80" fill="white" font-family="sans-serif" font-weight="bold" font-size="12" text-anchor="end" dominant-baseline="middle" transform="rotate(90 255 80)">enzyme</text>
  <text x="290" y="80" fill="white" font-family="sans-serif" font-weight="bold" font-size="12" text-anchor="end" dominant-baseline="middle" transform="rotate(90 290 80)">enzyme-jl</text>
  <text x="325" y="80" fill="white" font-family="sans-serif" font-weight="bold" font-size="12" text-anchor="end" dominant-baseline="middle" transform="rotate(90 325 80)">finite</text>
  <text x="360" y="80" fill="white" font-family="sans-serif" font-weight="bold" font-size="12" text-anchor="end" dominant-baseline="middle" transform="rotate(90 360 80)">floretta</text>
  <text x="395" y="80" fill="white" font-family="sans-serif" font-weight="bold" font-size="12" text-anchor="end" dominant-baseline="middle" transform="rotate(90 395 80)">futhark</text>
  <text x="430" y="80" fill="white" font-family="sans-serif" font-weight="bold" font-size="12" text-anchor="end" dominant-baseline="middle" transform="rotate(90 430 80)">haskell</text>
  <text x="465" y="80" fill="white" font-family="sans-serif" font-weight="bold" font-size="12" text-anchor="end" dominant-baseline="middle" transform="rotate(90 465 80)">jax</text>
  <text x="500" y="80" fill="white" font-family="sans-serif" font-weight="bold" font-size="12" text-anchor="end" dominant-baseline="middle" transform="rotate(90 500 80)">manual</text>
  <text x="535" y="80" fill="white" font-family="sans-serif" font-weight="bold" font-size="12" text-anchor="end" dominant-baseline="middle" transform="rotate(90 535 80)">ocaml</text>
  <text x="570" y="80" fill="white" font-family="sans-serif" font-weight="bold" font-size="12" text-anchor="end" dominant-baseline="middle" transform="rotate(90 570 80)">pytorch</text>
  <text x="605" y="80" fill="white" font-family="sans-serif" font-weight="bold" font-size="12" text-anchor="end" dominant-baseline="middle" transform="rotate(90 605 80)">scilean</text>
  <text x="640" y="80" fill="white" font-family="sans-serif" font-weight="bold" font-size="12" text-anchor="end" dominant-baseline="middle" transform="rotate(90 640 80)">tapenade</text>
  <text x="675" y="80" fill="white" font-family="sans-serif" font-weight="bold" font-size="12" text-anchor="end" dominant-baseline="middle" transform="rotate(90 675 80)">tensorflow</text>
  <text x="710" y="80" fill="white" font-family="sans-serif" font-weight="bold" font-size="12" text-anchor="end" dominant-baseline="middle" transform="rotate(90 710 80)">zygote</text>
  <rect x="65" y="85" width="30" height="30" fill="hsl(240 100% 80.82699383723767%)" />
  <rect x="100" y="85" width="30" height="30" fill="hsl(240 100% 82.61322119818774%)" />
  <rect x="135" y="85" width="30" height="30" fill="hsl(240 100% 97.97853615772335%)" />
  <rect x="170" y="85" width="30" height="30" fill="hsl(240 100% 82.2853484303165%)" />
  <rect x="205" y="85" width="30" height="30" fill="hsl(240 100% 99.00074337917854%)" />
  <rect x="240" y="85" width="30" height="30" fill="hsl(240 100% 51.3738584891046%)" />
  <rect x="310" y="85" width="30" height="30" fill="hsl(240 100% 93.24054054238088%)" />
  <rect x="380" y="85" width="30" height="30" fill="hsl(240 100% 68.1484886178524%)" />
  <rect x="485" y="85" width="30" height="30" fill="hsl(240 100% 50%)" />
  <rect x="555" y="85" width="30" height="30" fill="rgb(255 255 255 / 50%)" />
  <rect x="625" y="85" width="30" height="30" fill="hsl(240 100% 74.70722383342957%)" />
  <rect x="660" y="85" width="30" height="30" fill="rgb(255 255 255 / 50%)" />
  <rect x="695" y="85" width="30" height="30" fill="hsl(240 100% 99.71797703059417%)" />
  <rect x="65" y="120" width="30" height="30" fill="hsl(240 100% 50%)" />
  <rect x="100" y="120" width="30" height="30" fill="hsl(240 100% 83.55238348504733%)" />
  <rect x="135" y="120" width="30" height="30" fill="hsl(240 100% 85.43433484815874%)" />
  <rect x="170" y="120" width="30" height="30" fill="hsl(240 100% 50.77362131888923%)" />
  <rect x="205" y="120" width="30" height="30" fill="hsl(240 100% 92.39461771896354%)" />
  <rect x="240" y="120" width="30" height="30" fill="hsl(240 100% 91.63649790170204%)" />
  <rect x="275" y="120" width="30" height="30" fill="hsl(240 100% 99.35316451389215%)" />
  <rect x="310" y="120" width="30" height="30" fill="hsl(240 100% 98.97270102093562%)" />
  <rect x="380" y="120" width="30" height="30" fill="hsl(240 100% 94.46153474201887%)" />
  <rect x="415" y="120" width="30" height="30" fill="hsl(240 100% 98.02653714143557%)" />
  <rect x="485" y="120" width="30" height="30" fill="hsl(240 100% 79.1560346004516%)" />
  <rect x="695" y="120" width="30" height="30" fill="rgb(255 255 255 / 50%)" />
  <rect x="65" y="155" width="30" height="30" fill="hsl(240 100% 97.09117759939686%)" />
  <rect x="100" y="155" width="30" height="30" fill="hsl(240 100% 98.2018408710111%)" />
  <rect x="135" y="155" width="30" height="30" fill="hsl(240 100% 98.86436997754066%)" />
  <rect x="170" y="155" width="30" height="30" fill="hsl(240 100% 97.15551489010734%)" />
  <rect x="205" y="155" width="30" height="30" fill="hsl(240 100% 99.75722227348494%)" />
  <rect x="240" y="155" width="30" height="30" fill="hsl(240 100% 85.95753507460545%)" />
  <rect x="275" y="155" width="30" height="30" fill="hsl(240 100% 90.35178223184084%)" />
  <rect x="310" y="155" width="30" height="30" fill="rgb(255 255 255 / 50%)" />
  <rect x="380" y="155" width="30" height="30" fill="hsl(240 100% 88.9405627390766%)" />
  <rect x="450" y="155" width="30" height="30" fill="hsl(240 100% 72.14847680929961%)" />
  <rect x="485" y="155" width="30" height="30" fill="hsl(240 100% 70.63652219271094%)" />
  <rect x="520" y="155" width="30" height="30" fill="hsl(240 100% 99.34095030321141%)" />
  <rect x="555" y="155" width="30" height="30" fill="hsl(240 100% 50%)" />
  <rect x="590" y="155" width="30" height="30" fill="hsl(240 100% 92.37827726214843%)" />
  <rect x="625" y="155" width="30" height="30" fill="hsl(240 100% 74.59957117490845%)" />
  <rect x="660" y="155" width="30" height="30" fill="hsl(240 100% 88.930597333519%)" />
  <rect x="695" y="155" width="30" height="30" fill="hsl(240 100% 96.61390935250795%)" />
  <rect x="65" y="190" width="30" height="30" fill="hsl(240 100% 50%)" />
  <rect x="100" y="190" width="30" height="30" fill="hsl(240 100% 50%)" />
  <rect x="135" y="190" width="30" height="30" fill="hsl(240 100% 50%)" />
  <rect x="170" y="190" width="30" height="30" fill="hsl(240 100% 50%)" />
  <rect x="205" y="190" width="30" height="30" fill="hsl(240 100% 50%)" />
  <rect x="240" y="190" width="30" height="30" fill="hsl(240 100% 50%)" />
  <rect x="275" y="190" width="30" height="30" fill="hsl(240 100% 50%)" />
  <rect x="310" y="190" width="30" height="30" fill="hsl(240 100% 50%)" />
  <rect x="345" y="190" width="30" height="30" fill="hsl(240 100% 50%)" />
  <rect x="380" y="190" width="30" height="30" fill="hsl(240 100% 50%)" />
  <rect x="415" y="190" width="30" height="30" fill="hsl(240 100% 50%)" />
  <rect x="450" y="190" width="30" height="30" fill="hsl(240 100% 50%)" />
  <rect x="485" y="190" width="30" height="30" fill="hsl(240 100% 50%)" />
  <rect x="520" y="190" width="30" height="30" fill="hsl(240 100% 50%)" />
  <rect x="555" y="190" width="30" height="30" fill="hsl(240 100% 50%)" />
  <rect x="590" y="190" width="30" height="30" fill="hsl(240 100% 50%)" />
  <rect x="625" y="190" width="30" height="30" fill="hsl(240 100% 50%)" />
  <rect x="660" y="190" width="30" height="30" fill="hsl(240 100% 50%)" />
  <rect x="695" y="190" width="30" height="30" fill="hsl(240 100% 50%)" />
  <rect x="100" y="225" width="30" height="30" fill="hsl(240 100% 96.73932450548429%)" />
  <rect x="135" y="225" width="30" height="30" fill="hsl(240 100% 89.43879843305525%)" />
  <rect x="170" y="225" width="30" height="30" fill="hsl(240 100% 89.17099373826608%)" />
  <rect x="240" y="225" width="30" height="30" fill="hsl(240 100% 91.24374582420941%)" />
  <rect x="310" y="225" width="30" height="30" fill="rgb(255 255 255 / 50%)" />
  <rect x="380" y="225" width="30" height="30" fill="hsl(240 100% 90.59477116772763%)" />
  <rect x="485" y="225" width="30" height="30" fill="hsl(240 100% 50%)" />
  <rect x="555" y="225" width="30" height="30" fill="rgb(255 255 255 / 50%)" />
  <rect x="625" y="225" width="30" height="30" fill="hsl(240 100% 93.17114247968803%)" />
  <rect x="660" y="225" width="30" height="30" fill="rgb(255 255 255 / 50%)" />
  <rect x="695" y="225" width="30" height="30" fill="hsl(240 100% 94.6868431192075%)" />
  <rect x="65" y="260" width="30" height="30" fill="hsl(240 100% 99.94402884196951%)" />
  <rect x="135" y="260" width="30" height="30" fill="hsl(240 100% 99.87181762188133%)" />
  <rect x="170" y="260" width="30" height="30" fill="hsl(240 100% 98.98957284522363%)" />
  <rect x="205" y="260" width="30" height="30" fill="rgb(255 255 255 / 50%)" />
  <rect x="240" y="260" width="30" height="30" fill="hsl(240 100% 87.08820280520372%)" />
  <rect x="310" y="260" width="30" height="30" fill="rgb(255 255 255 / 50%)" />
  <rect x="380" y="260" width="30" height="30" fill="hsl(240 100% 80.78931076838951%)" />
  <rect x="415" y="260" width="30" height="30" fill="rgb(255 255 255 / 50%)" />
  <rect x="450" y="260" width="30" height="30" fill="hsl(240 100% 50%)" />
  <rect x="485" y="260" width="30" height="30" fill="hsl(240 100% 71.1913390213373%)" />
  <rect x="555" y="260" width="30" height="30" fill="hsl(240 100% 97.08018526267841%)" />
  <rect x="590" y="260" width="30" height="30" fill="hsl(240 100% 94.20587733162911%)" />
  <rect x="65" y="295" width="30" height="30" fill="hsl(240 100% 85.76290165054797%)" />
  <rect x="100" y="295" width="30" height="30" fill="hsl(240 100% 97.73278029018708%)" />
  <rect x="135" y="295" width="30" height="30" fill="hsl(240 100% 95.13113499367775%)" />
  <rect x="170" y="295" width="30" height="30" fill="hsl(240 100% 90.55552544343249%)" />
  <rect x="205" y="295" width="30" height="30" fill="hsl(240 100% 99.449323127392%)" />
  <rect x="240" y="295" width="30" height="30" fill="hsl(240 100% 50%)" />
  <rect x="275" y="295" width="30" height="30" fill="hsl(240 100% 50.043300880259046%)" />
  <rect x="310" y="295" width="30" height="30" fill="hsl(240 100% 99.49311481242715%)" />
  <rect x="345" y="295" width="30" height="30" fill="hsl(240 100% 94.78685964980359%)" />
  <rect x="380" y="295" width="30" height="30" fill="hsl(240 100% 54.67240924942971%)" />
  <rect x="415" y="295" width="30" height="30" fill="hsl(240 100% 99.33883007603505%)" />
  <rect x="450" y="295" width="30" height="30" fill="hsl(240 100% 88.39951159586774%)" />
  <rect x="485" y="295" width="30" height="30" fill="hsl(240 100% 57.31409255954228%)" />
  <rect x="590" y="295" width="30" height="30" fill="hsl(240 100% 97.5836655658968%)" />
  <rect x="695" y="295" width="30" height="30" fill="hsl(240 100% 99.95194808061375%)" />
  <rect x="65" y="330" width="30" height="30" fill="hsl(240 100% 88.24711706591104%)" />
  <rect x="100" y="330" width="30" height="30" fill="hsl(240 100% 94.94974127976926%)" />
  <rect x="135" y="330" width="30" height="30" fill="hsl(240 100% 97.26417976681809%)" />
  <rect x="170" y="330" width="30" height="30" fill="hsl(240 100% 88.16190587783505%)" />
  <rect x="205" y="330" width="30" height="30" fill="hsl(240 100% 99.25189991510672%)" />
  <rect x="240" y="330" width="30" height="30" fill="hsl(240 100% 79.52356654715285%)" />
  <rect x="275" y="330" width="30" height="30" fill="hsl(240 100% 88.56254673545942%)" />
  <rect x="310" y="330" width="30" height="30" fill="rgb(255 255 255 / 50%)" />
  <rect x="345" y="330" width="30" height="30" fill="hsl(240 100% 97.34361738761504%)" />
  <rect x="380" y="330" width="30" height="30" fill="hsl(240 100% 86.69746521527452%)" />
  <rect x="415" y="330" width="30" height="30" fill="hsl(240 100% 99.82147713001311%)" />
  <rect x="450" y="330" width="30" height="30" fill="hsl(240 100% 72.51843822927695%)" />
  <rect x="485" y="330" width="30" height="30" fill="hsl(240 100% 74.65109395604853%)" />
  <rect x="520" y="330" width="30" height="30" fill="hsl(240 100% 94.24491942944002%)" />
  <rect x="555" y="330" width="30" height="30" fill="hsl(240 100% 50%)" />
  <rect x="660" y="330" width="30" height="30" fill="hsl(240 100% 95.42299155338345%)" />
  <rect x="695" y="330" width="30" height="30" fill="hsl(240 100% 80.26458427667887%)" />
  <rect x="65" y="365" width="30" height="30" fill="hsl(240 100% 57.13868147888228%)" />
  <rect x="100" y="365" width="30" height="30" fill="hsl(240 100% 72.86004759897358%)" />
  <rect x="135" y="365" width="30" height="30" fill="hsl(240 100% 82.48246473127699%)" />
  <rect x="170" y="365" width="30" height="30" fill="hsl(240 100% 50%)" />
  <rect x="205" y="365" width="30" height="30" fill="hsl(240 100% 96.20672229104385%)" />
  <rect x="240" y="365" width="30" height="30" fill="hsl(240 100% 59.40814392216756%)" />
  <rect x="275" y="365" width="30" height="30" fill="hsl(240 100% 92.37007325202916%)" />
  <rect x="310" y="365" width="30" height="30" fill="hsl(240 100% 99.86210660001571%)" />
  <rect x="380" y="365" width="30" height="30" fill="hsl(240 100% 66.77309416985887%)" />
  <rect x="485" y="365" width="30" height="30" fill="hsl(240 100% 85.91325339375014%)" />
  <rect x="555" y="365" width="30" height="30" fill="hsl(240 100% 99.63822177792154%)" />
  <rect x="625" y="365" width="30" height="30" fill="hsl(240 100% 63.51894379619429%)" />
  <rect x="660" y="365" width="30" height="30" fill="hsl(240 100% 98.24547640027806%)" />
  <rect x="695" y="365" width="30" height="30" fill="hsl(240 100% 98.74466738673736%)" />
  <rect x="65" y="400" width="30" height="30" fill="hsl(240 100% 97.71852400188205%)" />
  <rect x="100" y="400" width="30" height="30" fill="hsl(240 100% 99.31402856641553%)" />
  <rect x="135" y="400" width="30" height="30" fill="hsl(240 100% 99.60202002050808%)" />
  <rect x="170" y="400" width="30" height="30" fill="hsl(240 100% 94.35716769913583%)" />
  <rect x="205" y="400" width="30" height="30" fill="hsl(240 100% 99.05749128238537%)" />
  <rect x="240" y="400" width="30" height="30" fill="hsl(240 100% 83.70400814333384%)" />
  <rect x="275" y="400" width="30" height="30" fill="hsl(240 100% 94.23203578086316%)" />
  <rect x="310" y="400" width="30" height="30" fill="rgb(255 255 255 / 50%)" />
  <rect x="380" y="400" width="30" height="30" fill="hsl(240 100% 92.63097030147334%)" />
  <rect x="415" y="400" width="30" height="30" fill="hsl(240 100% 99.96839935361682%)" />
  <rect x="450" y="400" width="30" height="30" fill="hsl(240 100% 73.95039439419817%)" />
  <rect x="485" y="400" width="30" height="30" fill="hsl(240 100% 50%)" />
  <rect x="695" y="400" width="30" height="30" fill="hsl(240 100% 98.81794044207565%)" />
  <rect x="65" y="435" width="30" height="30" fill="hsl(240 100% 92.82200191618472%)" />
  <rect x="240" y="435" width="30" height="30" fill="hsl(240 100% 50%)" />
  <rect x="310" y="435" width="30" height="30" fill="hsl(240 100% 94.31689152126631%)" />
  <rect x="380" y="435" width="30" height="30" fill="hsl(240 100% 86.99978021067922%)" />
  <rect x="415" y="435" width="30" height="30" fill="hsl(240 100% 99.8230849672889%)" />
  <rect x="65" y="470" width="30" height="30" fill="hsl(240 100% 50%)" />
  <rect x="240" y="470" width="30" height="30" fill="hsl(240 100% 50.42570507996266%)" />
  <rect x="310" y="470" width="30" height="30" fill="hsl(240 100% 97.15111081253812%)" />
  <rect x="380" y="470" width="30" height="30" fill="hsl(240 100% 89.20133585789904%)" />
  <rect x="415" y="470" width="30" height="30" fill="hsl(240 100% 99.57304807690618%)" />
</svg>
