<svg xmlns="http://www.w3.org/2000/svg" viewBox="0 0 765 505">
  <rect x="0" y="0" width="765" height="505" rx="5" ry="5" fill="#222" />
  <text x="60" y="100" fill="white" font-family="sans-serif" font-weight="bold" font-size="12" text-anchor="end" dominant-baseline="middle">ba</text>
  <text x="60" y="135" fill="white" font-family="sans-serif" font-weight="bold" font-size="12" text-anchor="end" dominant-baseline="middle">det</text>
  <text x="60" y="170" fill="white" font-family="sans-serif" font-weight="bold" font-size="12" text-anchor="end" dominant-baseline="middle">gmm</text>
  <text x="60" y="205" fill="white" font-family="sans-serif" font-weight="bold" font-size="12" text-anchor="end" dominant-baseline="middle">hello</text>
  <text x="60" y="240" fill="white" font-family="sans-serif" font-weight="bold" font-size="12" text-anchor="end" dominant-baseline="middle">ht</text>
  <text x="60" y="275" fill="white" font-family="sans-serif" font-weight="bold" font-size="12" text-anchor="end" dominant-baseline="middle">kmeans</text>
  <text x="60" y="310" fill="white" font-family="sans-serif" font-weight="bold" font-size="12" text-anchor="end" dominant-baseline="middle">llsq</text>
  <text x="60" y="345" fill="white" font-family="sans-serif" font-weight="bold" font-size="12" text-anchor="end" dominant-baseline="middle">lse</text>
  <text x="60" y="380" fill="white" font-family="sans-serif" font-weight="bold" font-size="12" text-anchor="end" dominant-baseline="middle">lstm</text>
  <text x="60" y="415" fill="white" font-family="sans-serif" font-weight="bold" font-size="12" text-anchor="end" dominant-baseline="middle">ode</text>
  <text x="60" y="450" fill="white" font-family="sans-serif" font-weight="bold" font-size="12" text-anchor="end" dominant-baseline="middle">particle</text>
  <text x="60" y="485" fill="white" font-family="sans-serif" font-weight="bold" font-size="12" text-anchor="end" dominant-baseline="middle">saddle</text>
  <text x="80" y="80" fill="white" font-family="sans-serif" font-weight="bold" font-size="12" text-anchor="end" dominant-baseline="middle" transform="rotate(90 80 80)">ad-hpp</text>
  <text x="115" y="80" fill="white" font-family="sans-serif" font-weight="bold" font-size="12" text-anchor="end" dominant-baseline="middle" transform="rotate(90 115 80)">adept</text>
  <text x="150" y="80" fill="white" font-family="sans-serif" font-weight="bold" font-size="12" text-anchor="end" dominant-baseline="middle" transform="rotate(90 150 80)">adol-c</text>
  <text x="185" y="80" fill="white" font-family="sans-serif" font-weight="bold" font-size="12" text-anchor="end" dominant-baseline="middle" transform="rotate(90 185 80)">codipack</text>
  <text x="220" y="80" fill="white" font-family="sans-serif" font-weight="bold" font-size="12" text-anchor="end" dominant-baseline="middle" transform="rotate(90 220 80)">cppad</text>
  <text x="255" y="80" fill="white" font-family="sans-serif" font-weight="bold" font-size="12" text-anchor="end" dominant-baseline="middle" transform="rotate(90 255 80)">enzyme</text>
  <text x="290" y="80" fill="white" font-family="sans-serif" font-weight="bold" font-size="12" text-anchor="end" dominant-baseline="middle" transform="rotate(90 290 80)">enzyme-jl</text>
  <text x="325" y="80" fill="white" font-family="sans-serif" font-weight="bold" font-size="12" text-anchor="end" dominant-baseline="middle" transform="rotate(90 325 80)">finite</text>
  <text x="360" y="80" fill="white" font-family="sans-serif" font-weight="bold" font-size="12" text-anchor="end" dominant-baseline="middle" transform="rotate(90 360 80)">floretta</text>
  <text x="395" y="80" fill="white" font-family="sans-serif" font-weight="bold" font-size="12" text-anchor="end" dominant-baseline="middle" transform="rotate(90 395 80)">futhark</text>
  <text x="430" y="80" fill="white" font-family="sans-serif" font-weight="bold" font-size="12" text-anchor="end" dominant-baseline="middle" transform="rotate(90 430 80)">haskell</text>
  <text x="465" y="80" fill="white" font-family="sans-serif" font-weight="bold" font-size="12" text-anchor="end" dominant-baseline="middle" transform="rotate(90 465 80)">jax</text>
  <text x="500" y="80" fill="white" font-family="sans-serif" font-weight="bold" font-size="12" text-anchor="end" dominant-baseline="middle" transform="rotate(90 500 80)">manual</text>
  <text x="535" y="80" fill="white" font-family="sans-serif" font-weight="bold" font-size="12" text-anchor="end" dominant-baseline="middle" transform="rotate(90 535 80)">ocaml</text>
  <text x="570" y="80" fill="white" font-family="sans-serif" font-weight="bold" font-size="12" text-anchor="end" dominant-baseline="middle" transform="rotate(90 570 80)">pytorch</text>
  <text x="605" y="80" fill="white" font-family="sans-serif" font-weight="bold" font-size="12" text-anchor="end" dominant-baseline="middle" transform="rotate(90 605 80)">scilean</text>
  <text x="640" y="80" fill="white" font-family="sans-serif" font-weight="bold" font-size="12" text-anchor="end" dominant-baseline="middle" transform="rotate(90 640 80)">tapenade</text>
  <text x="675" y="80" fill="white" font-family="sans-serif" font-weight="bold" font-size="12" text-anchor="end" dominant-baseline="middle" transform="rotate(90 675 80)">tensorflow</text>
  <text x="710" y="80" fill="white" font-family="sans-serif" font-weight="bold" font-size="12" text-anchor="end" dominant-baseline="middle" transform="rotate(90 710 80)">tensorflow-js</text>
  <text x="745" y="80" fill="white" font-family="sans-serif" font-weight="bold" font-size="12" text-anchor="end" dominant-baseline="middle" transform="rotate(90 745 80)">zygote</text>
  <rect x="65" y="85" width="30" height="30" fill="hsl(240 100% 80.93830466101679%)" />
  <rect x="100" y="85" width="30" height="30" fill="hsl(240 100% 82.7961565914676%)" />
  <rect x="135" y="85" width="30" height="30" fill="hsl(240 100% 97.98238581146795%)" />
  <rect x="170" y="85" width="30" height="30" fill="hsl(240 100% 82.30726674818246%)" />
  <rect x="205" y="85" width="30" height="30" fill="hsl(240 100% 98.99508339436089%)" />
  <rect x="240" y="85" width="30" height="30" fill="hsl(240 100% 51.31832891318042%)" />
  <rect x="310" y="85" width="30" height="30" fill="hsl(240 100% 93.22804828173338%)" />
  <rect x="380" y="85" width="30" height="30" fill="hsl(240 100% 68.29214163690656%)" />
  <rect x="485" y="85" width="30" height="30" fill="hsl(240 100% 50%)" />
  <rect x="555" y="85" width="30" height="30" fill="rgb(255 255 255 / 50%)" />
  <rect x="625" y="85" width="30" height="30" fill="hsl(240 100% 74.73196126076745%)" />
  <rect x="660" y="85" width="30" height="30" fill="rgb(255 255 255 / 50%)" />
  <rect x="730" y="85" width="30" height="30" fill="hsl(240 100% 99.71712853325387%)" />
  <rect x="65" y="120" width="30" height="30" fill="hsl(240 100% 50%)" />
  <rect x="100" y="120" width="30" height="30" fill="hsl(240 100% 82.70342781104566%)" />
  <rect x="135" y="120" width="30" height="30" fill="hsl(240 100% 85.80497834556633%)" />
  <rect x="170" y="120" width="30" height="30" fill="hsl(240 100% 53.36869062998012%)" />
  <rect x="205" y="120" width="30" height="30" fill="hsl(240 100% 92.59905775431358%)" />
  <rect x="240" y="120" width="30" height="30" fill="hsl(240 100% 91.59089248405265%)" />
  <rect x="275" y="120" width="30" height="30" fill="hsl(240 100% 99.34755793197625%)" />
  <rect x="310" y="120" width="30" height="30" fill="hsl(240 100% 98.99289675025801%)" />
  <rect x="380" y="120" width="30" height="30" fill="hsl(240 100% 94.60525265037928%)" />
  <rect x="415" y="120" width="30" height="30" fill="hsl(240 100% 97.94077371368901%)" />
  <rect x="485" y="120" width="30" height="30" fill="hsl(240 100% 79.65956382632505%)" />
  <rect x="730" y="120" width="30" height="30" fill="rgb(255 255 255 / 50%)" />
  <rect x="65" y="155" width="30" height="30" fill="hsl(240 100% 97.45975452620904%)" />
  <rect x="100" y="155" width="30" height="30" fill="hsl(240 100% 98.24901572856761%)" />
  <rect x="135" y="155" width="30" height="30" fill="hsl(240 100% 98.6998405901854%)" />
  <rect x="170" y="155" width="30" height="30" fill="hsl(240 100% 97.10608393807564%)" />
  <rect x="205" y="155" width="30" height="30" fill="hsl(240 100% 99.76518521117171%)" />
  <rect x="240" y="155" width="30" height="30" fill="hsl(240 100% 86.90712428755388%)" />
  <rect x="275" y="155" width="30" height="30" fill="hsl(240 100% 88.11525528150463%)" />
  <rect x="310" y="155" width="30" height="30" fill="rgb(255 255 255 / 50%)" />
  <rect x="380" y="155" width="30" height="30" fill="hsl(240 100% 89.47308682608276%)" />
  <rect x="450" y="155" width="30" height="30" fill="hsl(240 100% 70.56795792130778%)" />
  <rect x="485" y="155" width="30" height="30" fill="hsl(240 100% 71.83182652806273%)" />
  <rect x="520" y="155" width="30" height="30" fill="hsl(240 100% 99.40088145816826%)" />
  <rect x="555" y="155" width="30" height="30" fill="hsl(240 100% 50%)" />
  <rect x="590" y="155" width="30" height="30" fill="hsl(240 100% 92.6805081536539%)" />
  <rect x="625" y="155" width="30" height="30" fill="hsl(240 100% 75.17394386076316%)" />
  <rect x="660" y="155" width="30" height="30" fill="hsl(240 100% 88.50799195440388%)" />
  <rect x="730" y="155" width="30" height="30" fill="hsl(240 100% 96.63170624434613%)" />
  <rect x="65" y="190" width="30" height="30" fill="hsl(240 100% 50%)" />
  <rect x="100" y="190" width="30" height="30" fill="hsl(240 100% 50%)" />
  <rect x="135" y="190" width="30" height="30" fill="hsl(240 100% 50%)" />
  <rect x="170" y="190" width="30" height="30" fill="hsl(240 100% 50%)" />
  <rect x="205" y="190" width="30" height="30" fill="hsl(240 100% 50%)" />
  <rect x="240" y="190" width="30" height="30" fill="hsl(240 100% 50%)" />
  <rect x="275" y="190" width="30" height="30" fill="hsl(240 100% 50%)" />
  <rect x="310" y="190" width="30" height="30" fill="hsl(240 100% 50%)" />
  <rect x="345" y="190" width="30" height="30" fill="hsl(240 100% 50%)" />
  <rect x="380" y="190" width="30" height="30" fill="hsl(240 100% 50%)" />
  <rect x="415" y="190" width="30" height="30" fill="hsl(240 100% 50%)" />
  <rect x="450" y="190" width="30" height="30" fill="hsl(240 100% 50%)" />
  <rect x="485" y="190" width="30" height="30" fill="hsl(240 100% 50%)" />
  <rect x="520" y="190" width="30" height="30" fill="hsl(240 100% 50%)" />
  <rect x="555" y="190" width="30" height="30" fill="hsl(240 100% 50%)" />
  <rect x="590" y="190" width="30" height="30" fill="hsl(240 100% 50%)" />
  <rect x="625" y="190" width="30" height="30" fill="hsl(240 100% 50%)" />
  <rect x="660" y="190" width="30" height="30" fill="hsl(240 100% 50%)" />
  <rect x="695" y="190" width="30" height="30" fill="hsl(240 100% 50%)" />
  <rect x="730" y="190" width="30" height="30" fill="hsl(240 100% 50%)" />
  <rect x="100" y="225" width="30" height="30" fill="hsl(240 100% 96.69091739484126%)" />
  <rect x="135" y="225" width="30" height="30" fill="hsl(240 100% 89.22737897541874%)" />
  <rect x="170" y="225" width="30" height="30" fill="hsl(240 100% 89.25577054635887%)" />
  <rect x="240" y="225" width="30" height="30" fill="hsl(240 100% 91.25721088729189%)" />
  <rect x="310" y="225" width="30" height="30" fill="rgb(255 255 255 / 50%)" />
  <rect x="380" y="225" width="30" height="30" fill="hsl(240 100% 90.53105715356557%)" />
  <rect x="485" y="225" width="30" height="30" fill="hsl(240 100% 50%)" />
  <rect x="555" y="225" width="30" height="30" fill="rgb(255 255 255 / 50%)" />
  <rect x="625" y="225" width="30" height="30" fill="hsl(240 100% 93.18174831210828%)" />
  <rect x="660" y="225" width="30" height="30" fill="rgb(255 255 255 / 50%)" />
  <rect x="730" y="225" width="30" height="30" fill="hsl(240 100% 95.08589854792677%)" />
  <rect x="65" y="260" width="30" height="30" fill="hsl(240 100% 99.8108823756457%)" />
  <rect x="135" y="260" width="30" height="30" fill="hsl(240 100% 99.85074577104211%)" />
  <rect x="170" y="260" width="30" height="30" fill="hsl(240 100% 98.85271082112477%)" />
  <rect x="205" y="260" width="30" height="30" fill="rgb(255 255 255 / 50%)" />
  <rect x="240" y="260" width="30" height="30" fill="hsl(240 100% 87.01529961209198%)" />
  <rect x="310" y="260" width="30" height="30" fill="rgb(255 255 255 / 50%)" />
  <rect x="380" y="260" width="30" height="30" fill="hsl(240 100% 80.81522932887314%)" />
  <rect x="415" y="260" width="30" height="30" fill="rgb(255 255 255 / 50%)" />
  <rect x="450" y="260" width="30" height="30" fill="hsl(240 100% 50%)" />
  <rect x="485" y="260" width="30" height="30" fill="hsl(240 100% 71.16532317408895%)" />
  <rect x="555" y="260" width="30" height="30" fill="hsl(240 100% 96.95626791682643%)" />
  <rect x="590" y="260" width="30" height="30" fill="hsl(240 100% 94.02197767103733%)" />
  <rect x="65" y="295" width="30" height="30" fill="hsl(240 100% 86.00516246927435%)" />
  <rect x="100" y="295" width="30" height="30" fill="hsl(240 100% 97.52486473583508%)" />
  <rect x="135" y="295" width="30" height="30" fill="hsl(240 100% 95.14114909053193%)" />
  <rect x="170" y="295" width="30" height="30" fill="hsl(240 100% 90.6758630258036%)" />
  <rect x="205" y="295" width="30" height="30" fill="hsl(240 100% 99.46455074137263%)" />
  <rect x="240" y="295" width="30" height="30" fill="hsl(240 100% 50.60091546740922%)" />
  <rect x="275" y="295" width="30" height="30" fill="hsl(240 100% 50%)" />
  <rect x="310" y="295" width="30" height="30" fill="hsl(240 100% 99.49945250669208%)" />
  <rect x="345" y="295" width="30" height="30" fill="hsl(240 100% 94.73004550738224%)" />
  <rect x="380" y="295" width="30" height="30" fill="hsl(240 100% 55.228647094455354%)" />
  <rect x="415" y="295" width="30" height="30" fill="hsl(240 100% 99.32529297794767%)" />
  <rect x="450" y="295" width="30" height="30" fill="hsl(240 100% 87.9433680330151%)" />
  <rect x="485" y="295" width="30" height="30" fill="hsl(240 100% 57.863148425454%)" />
  <rect x="590" y="295" width="30" height="30" fill="hsl(240 100% 97.60723664866705%)" />
  <rect x="695" y="295" width="30" height="30" fill="hsl(240 100% 99.57011322555476%)" />
  <rect x="730" y="295" width="30" height="30" fill="hsl(240 100% 99.95538261069285%)" />
  <rect x="65" y="330" width="30" height="30" fill="hsl(240 100% 88.26548829595366%)" />
  <rect x="100" y="330" width="30" height="30" fill="hsl(240 100% 94.57088932526781%)" />
  <rect x="135" y="330" width="30" height="30" fill="hsl(240 100% 97.0193964890396%)" />
  <rect x="170" y="330" width="30" height="30" fill="hsl(240 100% 88.05454695247697%)" />
  <rect x="205" y="330" width="30" height="30" fill="hsl(240 100% 99.17509478006023%)" />
  <rect x="240" y="330" width="30" height="30" fill="hsl(240 100% 78.84713452460667%)" />
  <rect x="275" y="330" width="30" height="30" fill="hsl(240 100% 88.31315024129401%)" />
  <rect x="310" y="330" width="30" height="30" fill="rgb(255 255 255 / 50%)" />
  <rect x="345" y="330" width="30" height="30" fill="hsl(240 100% 97.1389283162544%)" />
  <rect x="380" y="330" width="30" height="30" fill="hsl(240 100% 85.27960390397678%)" />
  <rect x="415" y="330" width="30" height="30" fill="hsl(240 100% 99.81106060011278%)" />
  <rect x="450" y="330" width="30" height="30" fill="hsl(240 100% 71.30007759909088%)" />
  <rect x="485" y="330" width="30" height="30" fill="hsl(240 100% 75.66649630408331%)" />
  <rect x="520" y="330" width="30" height="30" fill="hsl(240 100% 93.54579858981423%)" />
  <rect x="555" y="330" width="30" height="30" fill="hsl(240 100% 50%)" />
  <rect x="660" y="330" width="30" height="30" fill="hsl(240 100% 96.12237728914887%)" />
  <rect x="695" y="330" width="30" height="30" fill="hsl(240 100% 99.19049218525912%)" />
  <rect x="730" y="330" width="30" height="30" fill="hsl(240 100% 79.17127450277658%)" />
  <rect x="65" y="365" width="30" height="30" fill="hsl(240 100% 56.77597912204554%)" />
  <rect x="100" y="365" width="30" height="30" fill="hsl(240 100% 71.9505615376902%)" />
  <rect x="135" y="365" width="30" height="30" fill="hsl(240 100% 82.18892823924676%)" />
  <rect x="170" y="365" width="30" height="30" fill="hsl(240 100% 50%)" />
  <rect x="205" y="365" width="30" height="30" fill="hsl(240 100% 96.2056684701954%)" />
  <rect x="240" y="365" width="30" height="30" fill="hsl(240 100% 59.230258987069746%)" />
  <rect x="275" y="365" width="30" height="30" fill="hsl(240 100% 92.83381824723511%)" />
  <rect x="310" y="365" width="30" height="30" fill="hsl(240 100% 99.86382585882001%)" />
  <rect x="380" y="365" width="30" height="30" fill="hsl(240 100% 66.53560233812607%)" />
  <rect x="485" y="365" width="30" height="30" fill="hsl(240 100% 86.00187395690726%)" />
  <rect x="555" y="365" width="30" height="30" fill="hsl(240 100% 99.63786196262356%)" />
  <rect x="625" y="365" width="30" height="30" fill="hsl(240 100% 63.85492810134265%)" />
  <rect x="660" y="365" width="30" height="30" fill="hsl(240 100% 98.2669676884499%)" />
  <rect x="730" y="365" width="30" height="30" fill="hsl(240 100% 98.72356301626851%)" />
  <rect x="65" y="400" width="30" height="30" fill="hsl(240 100% 98.51349395823502%)" />
  <rect x="100" y="400" width="30" height="30" fill="hsl(240 100% 99.41172432240016%)" />
  <rect x="135" y="400" width="30" height="30" fill="hsl(240 100% 99.67009366311179%)" />
  <rect x="170" y="400" width="30" height="30" fill="hsl(240 100% 95.32275823909319%)" />
  <rect x="205" y="400" width="30" height="30" fill="hsl(240 100% 99.2381407561378%)" />
  <rect x="240" y="400" width="30" height="30" fill="hsl(240 100% 88.68314046754043%)" />
  <rect x="275" y="400" width="30" height="30" fill="hsl(240 100% 95.41032423088235%)" />
  <rect x="310" y="400" width="30" height="30" fill="rgb(255 255 255 / 50%)" />
  <rect x="380" y="400" width="30" height="30" fill="hsl(240 100% 94.02229670259649%)" />
  <rect x="415" y="400" width="30" height="30" fill="hsl(240 100% 99.9748742383505%)" />
  <rect x="450" y="400" width="30" height="30" fill="hsl(240 100% 78.82728670747862%)" />
  <rect x="485" y="400" width="30" height="30" fill="hsl(240 100% 50%)" />
  <rect x="730" y="400" width="30" height="30" fill="hsl(240 100% 99.00792823727545%)" />
  <rect x="65" y="435" width="30" height="30" fill="hsl(240 100% 92.9798997673067%)" />
  <rect x="240" y="435" width="30" height="30" fill="hsl(240 100% 50%)" />
  <rect x="310" y="435" width="30" height="30" fill="hsl(240 100% 94.34319047863092%)" />
  <rect x="380" y="435" width="30" height="30" fill="hsl(240 100% 87.04366221776604%)" />
  <rect x="415" y="435" width="30" height="30" fill="hsl(240 100% 99.79150534147601%)" />
  <rect x="65" y="470" width="30" height="30" fill="hsl(240 100% 50%)" />
  <rect x="240" y="470" width="30" height="30" fill="hsl(240 100% 50.47157144779732%)" />
  <rect x="310" y="470" width="30" height="30" fill="hsl(240 100% 97.13799829728643%)" />
  <rect x="380" y="470" width="30" height="30" fill="hsl(240 100% 89.05317841581946%)" />
  <rect x="415" y="470" width="30" height="30" fill="hsl(240 100% 99.57918880907212%)" />
</svg>
