<svg xmlns="http://www.w3.org/2000/svg" viewBox="0 0 870 505">
  <rect x="0" y="0" width="870" height="505" rx="5" ry="5" fill="#222" />
  <text x="60" y="100" fill="white" font-family="sans-serif" font-weight="bold" font-size="12" text-anchor="end" dominant-baseline="middle">ba</text>
  <text x="60" y="135" fill="white" font-family="sans-serif" font-weight="bold" font-size="12" text-anchor="end" dominant-baseline="middle">det</text>
  <text x="60" y="170" fill="white" font-family="sans-serif" font-weight="bold" font-size="12" text-anchor="end" dominant-baseline="middle">gmm</text>
  <text x="60" y="205" fill="white" font-family="sans-serif" font-weight="bold" font-size="12" text-anchor="end" dominant-baseline="middle">hello</text>
  <text x="60" y="240" fill="white" font-family="sans-serif" font-weight="bold" font-size="12" text-anchor="end" dominant-baseline="middle">ht</text>
  <text x="60" y="275" fill="white" font-family="sans-serif" font-weight="bold" font-size="12" text-anchor="end" dominant-baseline="middle">kmeans</text>
  <text x="60" y="310" fill="white" font-family="sans-serif" font-weight="bold" font-size="12" text-anchor="end" dominant-baseline="middle">llsq</text>
  <text x="60" y="345" fill="white" font-family="sans-serif" font-weight="bold" font-size="12" text-anchor="end" dominant-baseline="middle">lse</text>
  <text x="60" y="380" fill="white" font-family="sans-serif" font-weight="bold" font-size="12" text-anchor="end" dominant-baseline="middle">lstm</text>
  <text x="60" y="415" fill="white" font-family="sans-serif" font-weight="bold" font-size="12" text-anchor="end" dominant-baseline="middle">ode</text>
  <text x="60" y="450" fill="white" font-family="sans-serif" font-weight="bold" font-size="12" text-anchor="end" dominant-baseline="middle">particle</text>
  <text x="60" y="485" fill="white" font-family="sans-serif" font-weight="bold" font-size="12" text-anchor="end" dominant-baseline="middle">saddle</text>
  <text x="80" y="80" fill="white" font-family="sans-serif" font-weight="bold" font-size="12" text-anchor="end" dominant-baseline="middle" transform="rotate(90 80 80)">ad-hpp</text>
  <text x="115" y="80" fill="white" font-family="sans-serif" font-weight="bold" font-size="12" text-anchor="end" dominant-baseline="middle" transform="rotate(90 115 80)">adept</text>
  <text x="150" y="80" fill="white" font-family="sans-serif" font-weight="bold" font-size="12" text-anchor="end" dominant-baseline="middle" transform="rotate(90 150 80)">adol-c</text>
  <text x="185" y="80" fill="white" font-family="sans-serif" font-weight="bold" font-size="12" text-anchor="end" dominant-baseline="middle" transform="rotate(90 185 80)">codipack</text>
  <text x="220" y="80" fill="white" font-family="sans-serif" font-weight="bold" font-size="12" text-anchor="end" dominant-baseline="middle" transform="rotate(90 220 80)">cppad</text>
  <text x="255" y="80" fill="white" font-family="sans-serif" font-weight="bold" font-size="12" text-anchor="end" dominant-baseline="middle" transform="rotate(90 255 80)">enzyme</text>
  <text x="290" y="80" fill="white" font-family="sans-serif" font-weight="bold" font-size="12" text-anchor="end" dominant-baseline="middle" transform="rotate(90 290 80)">enzyme-jl</text>
  <text x="325" y="80" fill="white" font-family="sans-serif" font-weight="bold" font-size="12" text-anchor="end" dominant-baseline="middle" transform="rotate(90 325 80)">finite</text>
  <text x="360" y="80" fill="white" font-family="sans-serif" font-weight="bold" font-size="12" text-anchor="end" dominant-baseline="middle" transform="rotate(90 360 80)">floretta</text>
  <text x="395" y="80" fill="white" font-family="sans-serif" font-weight="bold" font-size="12" text-anchor="end" dominant-baseline="middle" transform="rotate(90 395 80)">forwarddiff-jl</text>
  <text x="430" y="80" fill="white" font-family="sans-serif" font-weight="bold" font-size="12" text-anchor="end" dominant-baseline="middle" transform="rotate(90 430 80)">futhark</text>
  <text x="465" y="80" fill="white" font-family="sans-serif" font-weight="bold" font-size="12" text-anchor="end" dominant-baseline="middle" transform="rotate(90 465 80)">haskell</text>
  <text x="500" y="80" fill="white" font-family="sans-serif" font-weight="bold" font-size="12" text-anchor="end" dominant-baseline="middle" transform="rotate(90 500 80)">jax</text>
  <text x="535" y="80" fill="white" font-family="sans-serif" font-weight="bold" font-size="12" text-anchor="end" dominant-baseline="middle" transform="rotate(90 535 80)">manual</text>
  <text x="570" y="80" fill="white" font-family="sans-serif" font-weight="bold" font-size="12" text-anchor="end" dominant-baseline="middle" transform="rotate(90 570 80)">mooncake-jl</text>
  <text x="605" y="80" fill="white" font-family="sans-serif" font-weight="bold" font-size="12" text-anchor="end" dominant-baseline="middle" transform="rotate(90 605 80)">ocaml</text>
  <text x="640" y="80" fill="white" font-family="sans-serif" font-weight="bold" font-size="12" text-anchor="end" dominant-baseline="middle" transform="rotate(90 640 80)">pytorch</text>
  <text x="675" y="80" fill="white" font-family="sans-serif" font-weight="bold" font-size="12" text-anchor="end" dominant-baseline="middle" transform="rotate(90 675 80)">reversediff-jl</text>
  <text x="710" y="80" fill="white" font-family="sans-serif" font-weight="bold" font-size="12" text-anchor="end" dominant-baseline="middle" transform="rotate(90 710 80)">scilean</text>
  <text x="745" y="80" fill="white" font-family="sans-serif" font-weight="bold" font-size="12" text-anchor="end" dominant-baseline="middle" transform="rotate(90 745 80)">tapenade</text>
  <text x="780" y="80" fill="white" font-family="sans-serif" font-weight="bold" font-size="12" text-anchor="end" dominant-baseline="middle" transform="rotate(90 780 80)">tensorflow</text>
  <text x="815" y="80" fill="white" font-family="sans-serif" font-weight="bold" font-size="12" text-anchor="end" dominant-baseline="middle" transform="rotate(90 815 80)">tensorflow-js</text>
  <text x="850" y="80" fill="white" font-family="sans-serif" font-weight="bold" font-size="12" text-anchor="end" dominant-baseline="middle" transform="rotate(90 850 80)">zygote</text>
  <rect x="65" y="85" width="30" height="30" fill="hsl(240 100% 80.99366494808166%)" />
  <rect x="100" y="85" width="30" height="30" fill="hsl(240 100% 82.6089595578203%)" />
  <rect x="135" y="85" width="30" height="30" fill="hsl(240 100% 97.98512864860476%)" />
  <rect x="170" y="85" width="30" height="30" fill="hsl(240 100% 82.23567461935691%)" />
  <rect x="205" y="85" width="30" height="30" fill="hsl(240 100% 98.993998028473%)" />
  <rect x="240" y="85" width="30" height="30" fill="hsl(240 100% 52.27485798799133%)" />
  <rect x="310" y="85" width="30" height="30" fill="hsl(240 100% 93.2533011598345%)" />
  <rect x="415" y="85" width="30" height="30" fill="hsl(240 100% 67.83916186162776%)" />
  <rect x="520" y="85" width="30" height="30" fill="hsl(240 100% 50%)" />
  <rect x="625" y="85" width="30" height="30" fill="rgb(255 255 255 / 50%)" />
  <rect x="730" y="85" width="30" height="30" fill="hsl(240 100% 74.72269272464108%)" />
  <rect x="765" y="85" width="30" height="30" fill="rgb(255 255 255 / 50%)" />
  <rect x="835" y="85" width="30" height="30" fill="hsl(240 100% 99.73139023363326%)" />
  <rect x="65" y="120" width="30" height="30" fill="hsl(240 100% 50%)" />
  <rect x="100" y="120" width="30" height="30" fill="hsl(240 100% 85.62059318048333%)" />
  <rect x="135" y="120" width="30" height="30" fill="hsl(240 100% 86.1789335160405%)" />
  <rect x="170" y="120" width="30" height="30" fill="hsl(240 100% 51.90808827789809%)" />
  <rect x="205" y="120" width="30" height="30" fill="hsl(240 100% 92.47360778647786%)" />
  <rect x="240" y="120" width="30" height="30" fill="hsl(240 100% 91.3052340935425%)" />
  <rect x="275" y="120" width="30" height="30" fill="hsl(240 100% 99.34655873523536%)" />
  <rect x="310" y="120" width="30" height="30" fill="hsl(240 100% 98.97612885244831%)" />
  <rect x="380" y="120" width="30" height="30" fill="hsl(240 100% 93.30998287158751%)" />
  <rect x="415" y="120" width="30" height="30" fill="hsl(240 100% 94.54075573798248%)" />
  <rect x="450" y="120" width="30" height="30" fill="hsl(240 100% 97.8074124373713%)" />
  <rect x="520" y="120" width="30" height="30" fill="hsl(240 100% 79.88382696728993%)" />
  <rect x="555" y="120" width="30" height="30" fill="hsl(240 100% 90.5474948515937%)" />
  <rect x="660" y="120" width="30" height="30" fill="rgb(255 255 255 / 50%)" />
  <rect x="835" y="120" width="30" height="30" fill="rgb(255 255 255 / 50%)" />
  <rect x="65" y="155" width="30" height="30" fill="hsl(240 100% 98.28363675910664%)" />
  <rect x="100" y="155" width="30" height="30" fill="hsl(240 100% 98.80655414822222%)" />
  <rect x="135" y="155" width="30" height="30" fill="hsl(240 100% 99.10918281648986%)" />
  <rect x="170" y="155" width="30" height="30" fill="hsl(240 100% 98.08356039068497%)" />
  <rect x="205" y="155" width="30" height="30" fill="hsl(240 100% 99.84901911708563%)" />
  <rect x="240" y="155" width="30" height="30" fill="hsl(240 100% 91.37068537578257%)" />
  <rect x="275" y="155" width="30" height="30" fill="hsl(240 100% 92.5633421270371%)" />
  <rect x="310" y="155" width="30" height="30" fill="rgb(255 255 255 / 50%)" />
  <rect x="415" y="155" width="30" height="30" fill="hsl(240 100% 92.91519113084915%)" />
  <rect x="485" y="155" width="30" height="30" fill="hsl(240 100% 50%)" />
  <rect x="520" y="155" width="30" height="30" fill="hsl(240 100% 83.27156653666196%)" />
  <rect x="590" y="155" width="30" height="30" fill="hsl(240 100% 99.6053922062084%)" />
  <rect x="625" y="155" width="30" height="30" fill="hsl(240 100% 67.71060000417596%)" />
  <rect x="695" y="155" width="30" height="30" fill="hsl(240 100% 95.40149421883754%)" />
  <rect x="730" y="155" width="30" height="30" fill="hsl(240 100% 83.64349815226288%)" />
  <rect x="765" y="155" width="30" height="30" fill="hsl(240 100% 99.59845972109954%)" />
  <rect x="835" y="155" width="30" height="30" fill="hsl(240 100% 96.30371592668396%)" />
  <rect x="65" y="190" width="30" height="30" fill="hsl(240 100% 50%)" />
  <rect x="100" y="190" width="30" height="30" fill="hsl(240 100% 50%)" />
  <rect x="135" y="190" width="30" height="30" fill="hsl(240 100% 50%)" />
  <rect x="170" y="190" width="30" height="30" fill="hsl(240 100% 50%)" />
  <rect x="205" y="190" width="30" height="30" fill="hsl(240 100% 50%)" />
  <rect x="240" y="190" width="30" height="30" fill="hsl(240 100% 50%)" />
  <rect x="275" y="190" width="30" height="30" fill="hsl(240 100% 50%)" />
  <rect x="310" y="190" width="30" height="30" fill="hsl(240 100% 50%)" />
  <rect x="345" y="190" width="30" height="30" fill="hsl(240 100% 50%)" />
  <rect x="380" y="190" width="30" height="30" fill="hsl(240 100% 50%)" />
  <rect x="415" y="190" width="30" height="30" fill="hsl(240 100% 50%)" />
  <rect x="450" y="190" width="30" height="30" fill="hsl(240 100% 50%)" />
  <rect x="485" y="190" width="30" height="30" fill="hsl(240 100% 50%)" />
  <rect x="520" y="190" width="30" height="30" fill="hsl(240 100% 50%)" />
  <rect x="555" y="190" width="30" height="30" fill="hsl(240 100% 50%)" />
  <rect x="590" y="190" width="30" height="30" fill="hsl(240 100% 50%)" />
  <rect x="625" y="190" width="30" height="30" fill="hsl(240 100% 50%)" />
  <rect x="660" y="190" width="30" height="30" fill="hsl(240 100% 50%)" />
  <rect x="695" y="190" width="30" height="30" fill="hsl(240 100% 50%)" />
  <rect x="730" y="190" width="30" height="30" fill="hsl(240 100% 50%)" />
  <rect x="765" y="190" width="30" height="30" fill="hsl(240 100% 50%)" />
  <rect x="800" y="190" width="30" height="30" fill="hsl(240 100% 50%)" />
  <rect x="835" y="190" width="30" height="30" fill="hsl(240 100% 50%)" />
  <rect x="100" y="225" width="30" height="30" fill="hsl(240 100% 96.66890522816294%)" />
  <rect x="135" y="225" width="30" height="30" fill="hsl(240 100% 89.72855650231503%)" />
  <rect x="170" y="225" width="30" height="30" fill="hsl(240 100% 89.32466966791219%)" />
  <rect x="240" y="225" width="30" height="30" fill="hsl(240 100% 91.23610528426877%)" />
  <rect x="310" y="225" width="30" height="30" fill="rgb(255 255 255 / 50%)" />
  <rect x="415" y="225" width="30" height="30" fill="hsl(240 100% 90.49514294178529%)" />
  <rect x="520" y="225" width="30" height="30" fill="hsl(240 100% 50%)" />
  <rect x="625" y="225" width="30" height="30" fill="rgb(255 255 255 / 50%)" />
  <rect x="730" y="225" width="30" height="30" fill="hsl(240 100% 93.1799721834326%)" />
  <rect x="765" y="225" width="30" height="30" fill="rgb(255 255 255 / 50%)" />
  <rect x="835" y="225" width="30" height="30" fill="hsl(240 100% 93.90002543805359%)" />
  <rect x="65" y="260" width="30" height="30" fill="hsl(240 100% 99.89600232800609%)" />
  <rect x="135" y="260" width="30" height="30" fill="hsl(240 100% 99.85445017055275%)" />
  <rect x="170" y="260" width="30" height="30" fill="hsl(240 100% 98.85117899668086%)" />
  <rect x="205" y="260" width="30" height="30" fill="rgb(255 255 255 / 50%)" />
  <rect x="240" y="260" width="30" height="30" fill="hsl(240 100% 87.24424942637037%)" />
  <rect x="310" y="260" width="30" height="30" fill="rgb(255 255 255 / 50%)" />
  <rect x="415" y="260" width="30" height="30" fill="hsl(240 100% 81.06769510736255%)" />
  <rect x="450" y="260" width="30" height="30" fill="rgb(255 255 255 / 50%)" />
  <rect x="485" y="260" width="30" height="30" fill="hsl(240 100% 50%)" />
  <rect x="520" y="260" width="30" height="30" fill="hsl(240 100% 71.6018401339221%)" />
  <rect x="625" y="260" width="30" height="30" fill="hsl(240 100% 97.03929919527836%)" />
  <rect x="695" y="260" width="30" height="30" fill="hsl(240 100% 94.17685324628653%)" />
  <rect x="65" y="295" width="30" height="30" fill="hsl(240 100% 85.92338414261818%)" />
  <rect x="100" y="295" width="30" height="30" fill="hsl(240 100% 97.48396797755578%)" />
  <rect x="135" y="295" width="30" height="30" fill="hsl(240 100% 95.02459036908968%)" />
  <rect x="170" y="295" width="30" height="30" fill="hsl(240 100% 90.55935693965783%)" />
  <rect x="205" y="295" width="30" height="30" fill="hsl(240 100% 99.46910966744747%)" />
  <rect x="240" y="295" width="30" height="30" fill="hsl(240 100% 50.105105897589006%)" />
  <rect x="275" y="295" width="30" height="30" fill="hsl(240 100% 50%)" />
  <rect x="310" y="295" width="30" height="30" fill="hsl(240 100% 99.49327879345147%)" />
  <rect x="345" y="295" width="30" height="30" fill="hsl(240 100% 94.63769064088771%)" />
  <rect x="415" y="295" width="30" height="30" fill="hsl(240 100% 54.69779138565843%)" />
  <rect x="450" y="295" width="30" height="30" fill="hsl(240 100% 99.31993569813686%)" />
  <rect x="485" y="295" width="30" height="30" fill="hsl(240 100% 88.48983692522351%)" />
  <rect x="520" y="295" width="30" height="30" fill="hsl(240 100% 57.33321634564943%)" />
  <rect x="695" y="295" width="30" height="30" fill="hsl(240 100% 97.58458615483896%)" />
  <rect x="800" y="295" width="30" height="30" fill="hsl(240 100% 99.56186889535448%)" />
  <rect x="835" y="295" width="30" height="30" fill="hsl(240 100% 99.95352344292024%)" />
  <rect x="65" y="330" width="30" height="30" fill="hsl(240 100% 89.41225462299293%)" />
  <rect x="100" y="330" width="30" height="30" fill="hsl(240 100% 94.98948243511975%)" />
  <rect x="135" y="330" width="30" height="30" fill="hsl(240 100% 97.2977204845248%)" />
  <rect x="170" y="330" width="30" height="30" fill="hsl(240 100% 89.1163785738475%)" />
  <rect x="205" y="330" width="30" height="30" fill="hsl(240 100% 99.25222411465575%)" />
  <rect x="240" y="330" width="30" height="30" fill="hsl(240 100% 80.71371682463236%)" />
  <rect x="275" y="330" width="30" height="30" fill="hsl(240 100% 89.07049494647659%)" />
  <rect x="310" y="330" width="30" height="30" fill="rgb(255 255 255 / 50%)" />
  <rect x="345" y="330" width="30" height="30" fill="hsl(240 100% 97.37666545799709%)" />
  <rect x="415" y="330" width="30" height="30" fill="hsl(240 100% 86.76731971642715%)" />
  <rect x="450" y="330" width="30" height="30" fill="hsl(240 100% 99.82047050357666%)" />
  <rect x="485" y="330" width="30" height="30" fill="hsl(240 100% 72.12488156608052%)" />
  <rect x="520" y="330" width="30" height="30" fill="hsl(240 100% 77.93918595486517%)" />
  <rect x="590" y="330" width="30" height="30" fill="hsl(240 100% 94.21855870800402%)" />
  <rect x="625" y="330" width="30" height="30" fill="hsl(240 100% 50%)" />
  <rect x="765" y="330" width="30" height="30" fill="hsl(240 100% 94.58262085896844%)" />
  <rect x="800" y="330" width="30" height="30" fill="hsl(240 100% 99.27027248029403%)" />
  <rect x="835" y="330" width="30" height="30" fill="hsl(240 100% 82.05979703919952%)" />
  <rect x="65" y="365" width="30" height="30" fill="hsl(240 100% 57.63115751667794%)" />
  <rect x="100" y="365" width="30" height="30" fill="hsl(240 100% 72.14333521524598%)" />
  <rect x="135" y="365" width="30" height="30" fill="hsl(240 100% 81.97702731722705%)" />
  <rect x="170" y="365" width="30" height="30" fill="hsl(240 100% 50%)" />
  <rect x="205" y="365" width="30" height="30" fill="hsl(240 100% 96.17043949347293%)" />
  <rect x="240" y="365" width="30" height="30" fill="hsl(240 100% 60.38354529495079%)" />
  <rect x="275" y="365" width="30" height="30" fill="hsl(240 100% 92.55207807695045%)" />
  <rect x="310" y="365" width="30" height="30" fill="hsl(240 100% 99.86105989199373%)" />
  <rect x="415" y="365" width="30" height="30" fill="hsl(240 100% 66.36156936350463%)" />
  <rect x="520" y="365" width="30" height="30" fill="hsl(240 100% 86.01518799431082%)" />
  <rect x="625" y="365" width="30" height="30" fill="hsl(240 100% 99.62850338884944%)" />
  <rect x="730" y="365" width="30" height="30" fill="hsl(240 100% 63.103294562972934%)" />
  <rect x="765" y="365" width="30" height="30" fill="hsl(240 100% 98.19432934002523%)" />
  <rect x="835" y="365" width="30" height="30" fill="hsl(240 100% 98.77819707060215%)" />
  <rect x="65" y="400" width="30" height="30" fill="hsl(240 100% 98.1511851616437%)" />
  <rect x="100" y="400" width="30" height="30" fill="hsl(240 100% 99.28388745647416%)" />
  <rect x="135" y="400" width="30" height="30" fill="hsl(240 100% 99.58377595771938%)" />
  <rect x="170" y="400" width="30" height="30" fill="hsl(240 100% 94.1594088520191%)" />
  <rect x="205" y="400" width="30" height="30" fill="hsl(240 100% 99.04821113024312%)" />
  <rect x="240" y="400" width="30" height="30" fill="hsl(240 100% 84.67191581289873%)" />
  <rect x="275" y="400" width="30" height="30" fill="hsl(240 100% 93.73478731289906%)" />
  <rect x="310" y="400" width="30" height="30" fill="rgb(255 255 255 / 50%)" />
  <rect x="380" y="400" width="30" height="30" fill="rgb(255 255 255 / 50%)" />
  <rect x="415" y="400" width="30" height="30" fill="hsl(240 100% 92.62118027434339%)" />
  <rect x="450" y="400" width="30" height="30" fill="hsl(240 100% 99.96716457756612%)" />
  <rect x="485" y="400" width="30" height="30" fill="hsl(240 100% 72.91720814016983%)" />
  <rect x="520" y="400" width="30" height="30" fill="hsl(240 100% 50%)" />
  <rect x="555" y="400" width="30" height="30" fill="hsl(240 100% 98.88854149109956%)" />
  <rect x="660" y="400" width="30" height="30" fill="rgb(255 255 255 / 50%)" />
  <rect x="835" y="400" width="30" height="30" fill="hsl(240 100% 98.78479481007089%)" />
  <rect x="65" y="435" width="30" height="30" fill="hsl(240 100% 92.87098608455518%)" />
  <rect x="240" y="435" width="30" height="30" fill="hsl(240 100% 50%)" />
  <rect x="310" y="435" width="30" height="30" fill="hsl(240 100% 94.2805694976304%)" />
  <rect x="415" y="435" width="30" height="30" fill="hsl(240 100% 86.97352711924114%)" />
  <rect x="450" y="435" width="30" height="30" fill="hsl(240 100% 99.77718318740494%)" />
  <rect x="65" y="470" width="30" height="30" fill="hsl(240 100% 50%)" />
  <rect x="240" y="470" width="30" height="30" fill="hsl(240 100% 50.39252192089801%)" />
  <rect x="310" y="470" width="30" height="30" fill="hsl(240 100% 97.16430010345448%)" />
  <rect x="415" y="470" width="30" height="30" fill="hsl(240 100% 89.05036248069455%)" />
  <rect x="450" y="470" width="30" height="30" fill="hsl(240 100% 99.57234662898503%)" />
</svg>
