<svg xmlns="http://www.w3.org/2000/svg" viewBox="0 0 870 505">
  <rect x="0" y="0" width="870" height="505" rx="5" ry="5" fill="#222" />
  <text x="60" y="100" fill="white" font-family="sans-serif" font-weight="bold" font-size="12" text-anchor="end" dominant-baseline="middle">ba</text>
  <text x="60" y="135" fill="white" font-family="sans-serif" font-weight="bold" font-size="12" text-anchor="end" dominant-baseline="middle">det</text>
  <text x="60" y="170" fill="white" font-family="sans-serif" font-weight="bold" font-size="12" text-anchor="end" dominant-baseline="middle">gmm</text>
  <text x="60" y="205" fill="white" font-family="sans-serif" font-weight="bold" font-size="12" text-anchor="end" dominant-baseline="middle">hello</text>
  <text x="60" y="240" fill="white" font-family="sans-serif" font-weight="bold" font-size="12" text-anchor="end" dominant-baseline="middle">ht</text>
  <text x="60" y="275" fill="white" font-family="sans-serif" font-weight="bold" font-size="12" text-anchor="end" dominant-baseline="middle">kmeans</text>
  <text x="60" y="310" fill="white" font-family="sans-serif" font-weight="bold" font-size="12" text-anchor="end" dominant-baseline="middle">llsq</text>
  <text x="60" y="345" fill="white" font-family="sans-serif" font-weight="bold" font-size="12" text-anchor="end" dominant-baseline="middle">lse</text>
  <text x="60" y="380" fill="white" font-family="sans-serif" font-weight="bold" font-size="12" text-anchor="end" dominant-baseline="middle">lstm</text>
  <text x="60" y="415" fill="white" font-family="sans-serif" font-weight="bold" font-size="12" text-anchor="end" dominant-baseline="middle">ode</text>
  <text x="60" y="450" fill="white" font-family="sans-serif" font-weight="bold" font-size="12" text-anchor="end" dominant-baseline="middle">particle</text>
  <text x="60" y="485" fill="white" font-family="sans-serif" font-weight="bold" font-size="12" text-anchor="end" dominant-baseline="middle">saddle</text>
  <text x="80" y="80" fill="white" font-family="sans-serif" font-weight="bold" font-size="12" text-anchor="end" dominant-baseline="middle" transform="rotate(90 80 80)">ad-hpp</text>
  <text x="115" y="80" fill="white" font-family="sans-serif" font-weight="bold" font-size="12" text-anchor="end" dominant-baseline="middle" transform="rotate(90 115 80)">adept</text>
  <text x="150" y="80" fill="white" font-family="sans-serif" font-weight="bold" font-size="12" text-anchor="end" dominant-baseline="middle" transform="rotate(90 150 80)">adol-c</text>
  <text x="185" y="80" fill="white" font-family="sans-serif" font-weight="bold" font-size="12" text-anchor="end" dominant-baseline="middle" transform="rotate(90 185 80)">codipack</text>
  <text x="220" y="80" fill="white" font-family="sans-serif" font-weight="bold" font-size="12" text-anchor="end" dominant-baseline="middle" transform="rotate(90 220 80)">cppad</text>
  <text x="255" y="80" fill="white" font-family="sans-serif" font-weight="bold" font-size="12" text-anchor="end" dominant-baseline="middle" transform="rotate(90 255 80)">enzyme</text>
  <text x="290" y="80" fill="white" font-family="sans-serif" font-weight="bold" font-size="12" text-anchor="end" dominant-baseline="middle" transform="rotate(90 290 80)">enzyme-jl</text>
  <text x="325" y="80" fill="white" font-family="sans-serif" font-weight="bold" font-size="12" text-anchor="end" dominant-baseline="middle" transform="rotate(90 325 80)">finite</text>
  <text x="360" y="80" fill="white" font-family="sans-serif" font-weight="bold" font-size="12" text-anchor="end" dominant-baseline="middle" transform="rotate(90 360 80)">floretta</text>
  <text x="395" y="80" fill="white" font-family="sans-serif" font-weight="bold" font-size="12" text-anchor="end" dominant-baseline="middle" transform="rotate(90 395 80)">forwarddiff-jl</text>
  <text x="430" y="80" fill="white" font-family="sans-serif" font-weight="bold" font-size="12" text-anchor="end" dominant-baseline="middle" transform="rotate(90 430 80)">futhark</text>
  <text x="465" y="80" fill="white" font-family="sans-serif" font-weight="bold" font-size="12" text-anchor="end" dominant-baseline="middle" transform="rotate(90 465 80)">haskell</text>
  <text x="500" y="80" fill="white" font-family="sans-serif" font-weight="bold" font-size="12" text-anchor="end" dominant-baseline="middle" transform="rotate(90 500 80)">jax</text>
  <text x="535" y="80" fill="white" font-family="sans-serif" font-weight="bold" font-size="12" text-anchor="end" dominant-baseline="middle" transform="rotate(90 535 80)">manual</text>
  <text x="570" y="80" fill="white" font-family="sans-serif" font-weight="bold" font-size="12" text-anchor="end" dominant-baseline="middle" transform="rotate(90 570 80)">mooncake-jl</text>
  <text x="605" y="80" fill="white" font-family="sans-serif" font-weight="bold" font-size="12" text-anchor="end" dominant-baseline="middle" transform="rotate(90 605 80)">ocaml</text>
  <text x="640" y="80" fill="white" font-family="sans-serif" font-weight="bold" font-size="12" text-anchor="end" dominant-baseline="middle" transform="rotate(90 640 80)">pytorch</text>
  <text x="675" y="80" fill="white" font-family="sans-serif" font-weight="bold" font-size="12" text-anchor="end" dominant-baseline="middle" transform="rotate(90 675 80)">reversediff-jl</text>
  <text x="710" y="80" fill="white" font-family="sans-serif" font-weight="bold" font-size="12" text-anchor="end" dominant-baseline="middle" transform="rotate(90 710 80)">scilean</text>
  <text x="745" y="80" fill="white" font-family="sans-serif" font-weight="bold" font-size="12" text-anchor="end" dominant-baseline="middle" transform="rotate(90 745 80)">tapenade</text>
  <text x="780" y="80" fill="white" font-family="sans-serif" font-weight="bold" font-size="12" text-anchor="end" dominant-baseline="middle" transform="rotate(90 780 80)">tensorflow</text>
  <text x="815" y="80" fill="white" font-family="sans-serif" font-weight="bold" font-size="12" text-anchor="end" dominant-baseline="middle" transform="rotate(90 815 80)">tensorflow-js</text>
  <text x="850" y="80" fill="white" font-family="sans-serif" font-weight="bold" font-size="12" text-anchor="end" dominant-baseline="middle" transform="rotate(90 850 80)">zygote</text>
  <rect x="65" y="85" width="30" height="30" fill="hsl(240 100% 78.90382824761221%)" />
  <rect x="100" y="85" width="30" height="30" fill="hsl(240 100% 80.58388545785047%)" />
  <rect x="135" y="85" width="30" height="30" fill="hsl(240 100% 97.6328469136724%)" />
  <rect x="170" y="85" width="30" height="30" fill="hsl(240 100% 78.54801862074072%)" />
  <rect x="205" y="85" width="30" height="30" fill="hsl(240 100% 98.85287797515267%)" />
  <rect x="240" y="85" width="30" height="30" fill="hsl(240 100% 53.23673219341615%)" />
  <rect x="310" y="85" width="30" height="30" fill="hsl(240 100% 92.25493767758431%)" />
  <rect x="415" y="85" width="30" height="30" fill="hsl(240 100% 63.96740268615094%)" />
  <rect x="520" y="85" width="30" height="30" fill="hsl(240 100% 50%)" />
  <rect x="625" y="85" width="30" height="30" fill="rgb(255 255 255 / 50%)" />
  <rect x="730" y="85" width="30" height="30" fill="hsl(240 100% 71.61477558879417%)" />
  <rect x="765" y="85" width="30" height="30" fill="rgb(255 255 255 / 50%)" />
  <rect x="835" y="85" width="30" height="30" fill="hsl(240 100% 99.70099520225034%)" />
  <rect x="65" y="120" width="30" height="30" fill="hsl(240 100% 50%)" />
  <rect x="100" y="120" width="30" height="30" fill="hsl(240 100% 83.73008502348412%)" />
  <rect x="135" y="120" width="30" height="30" fill="hsl(240 100% 85.8321116041572%)" />
  <rect x="170" y="120" width="30" height="30" fill="hsl(240 100% 52.72750689869379%)" />
  <rect x="205" y="120" width="30" height="30" fill="hsl(240 100% 92.78315824886612%)" />
  <rect x="240" y="120" width="30" height="30" fill="hsl(240 100% 91.64925487762018%)" />
  <rect x="275" y="120" width="30" height="30" fill="hsl(240 100% 99.37935381749634%)" />
  <rect x="310" y="120" width="30" height="30" fill="hsl(240 100% 99.006244179242%)" />
  <rect x="380" y="120" width="30" height="30" fill="hsl(240 100% 93.43120094091233%)" />
  <rect x="415" y="120" width="30" height="30" fill="hsl(240 100% 94.67229016644382%)" />
  <rect x="450" y="120" width="30" height="30" fill="hsl(240 100% 97.78063843297565%)" />
  <rect x="520" y="120" width="30" height="30" fill="hsl(240 100% 79.84506874545123%)" />
  <rect x="555" y="120" width="30" height="30" fill="hsl(240 100% 90.57491602878683%)" />
  <rect x="660" y="120" width="30" height="30" fill="rgb(255 255 255 / 50%)" />
  <rect x="835" y="120" width="30" height="30" fill="rgb(255 255 255 / 50%)" />
  <rect x="65" y="155" width="30" height="30" fill="hsl(240 100% 99.0242441674834%)" />
  <rect x="100" y="155" width="30" height="30" fill="hsl(240 100% 99.276178101321%)" />
  <rect x="135" y="155" width="30" height="30" fill="hsl(240 100% 99.11681325965611%)" />
  <rect x="170" y="155" width="30" height="30" fill="hsl(240 100% 98.06043932284284%)" />
  <rect x="205" y="155" width="30" height="30" fill="hsl(240 100% 99.84853081043822%)" />
  <rect x="240" y="155" width="30" height="30" fill="hsl(240 100% 91.21606364135435%)" />
  <rect x="275" y="155" width="30" height="30" fill="hsl(240 100% 92.6209952655046%)" />
  <rect x="310" y="155" width="30" height="30" fill="rgb(255 255 255 / 50%)" />
  <rect x="415" y="155" width="30" height="30" fill="hsl(240 100% 93.01840342074003%)" />
  <rect x="485" y="155" width="30" height="30" fill="hsl(240 100% 50%)" />
  <rect x="520" y="155" width="30" height="30" fill="hsl(240 100% 81.1919338163614%)" />
  <rect x="590" y="155" width="30" height="30" fill="hsl(240 100% 99.5984322931126%)" />
  <rect x="625" y="155" width="30" height="30" fill="hsl(240 100% 68.14011291881512%)" />
  <rect x="695" y="155" width="30" height="30" fill="hsl(240 100% 95.4455813686985%)" />
  <rect x="730" y="155" width="30" height="30" fill="hsl(240 100% 83.63032222077878%)" />
  <rect x="765" y="155" width="30" height="30" fill="hsl(240 100% 99.5727302730342%)" />
  <rect x="835" y="155" width="30" height="30" fill="hsl(240 100% 96.48636804373957%)" />
  <rect x="65" y="190" width="30" height="30" fill="hsl(240 100% 50%)" />
  <rect x="100" y="190" width="30" height="30" fill="hsl(240 100% 50%)" />
  <rect x="135" y="190" width="30" height="30" fill="hsl(240 100% 50%)" />
  <rect x="170" y="190" width="30" height="30" fill="hsl(240 100% 50%)" />
  <rect x="205" y="190" width="30" height="30" fill="hsl(240 100% 50%)" />
  <rect x="240" y="190" width="30" height="30" fill="hsl(240 100% 50%)" />
  <rect x="275" y="190" width="30" height="30" fill="hsl(240 100% 50%)" />
  <rect x="310" y="190" width="30" height="30" fill="hsl(240 100% 50%)" />
  <rect x="345" y="190" width="30" height="30" fill="hsl(240 100% 50%)" />
  <rect x="380" y="190" width="30" height="30" fill="hsl(240 100% 50%)" />
  <rect x="415" y="190" width="30" height="30" fill="hsl(240 100% 50%)" />
  <rect x="450" y="190" width="30" height="30" fill="hsl(240 100% 50%)" />
  <rect x="485" y="190" width="30" height="30" fill="hsl(240 100% 50%)" />
  <rect x="520" y="190" width="30" height="30" fill="hsl(240 100% 50%)" />
  <rect x="555" y="190" width="30" height="30" fill="hsl(240 100% 50%)" />
  <rect x="590" y="190" width="30" height="30" fill="hsl(240 100% 50%)" />
  <rect x="625" y="190" width="30" height="30" fill="hsl(240 100% 50%)" />
  <rect x="660" y="190" width="30" height="30" fill="hsl(240 100% 50%)" />
  <rect x="695" y="190" width="30" height="30" fill="hsl(240 100% 50%)" />
  <rect x="730" y="190" width="30" height="30" fill="hsl(240 100% 50%)" />
  <rect x="765" y="190" width="30" height="30" fill="hsl(240 100% 50%)" />
  <rect x="800" y="190" width="30" height="30" fill="hsl(240 100% 50%)" />
  <rect x="835" y="190" width="30" height="30" fill="hsl(240 100% 50%)" />
  <rect x="100" y="225" width="30" height="30" fill="hsl(240 100% 96.31333500784564%)" />
  <rect x="135" y="225" width="30" height="30" fill="hsl(240 100% 86.74636086263618%)" />
  <rect x="170" y="225" width="30" height="30" fill="hsl(240 100% 88.26954234006756%)" />
  <rect x="240" y="225" width="30" height="30" fill="hsl(240 100% 90.42713589808339%)" />
  <rect x="310" y="225" width="30" height="30" fill="rgb(255 255 255 / 50%)" />
  <rect x="415" y="225" width="30" height="30" fill="hsl(240 100% 89.5841058968137%)" />
  <rect x="520" y="225" width="30" height="30" fill="hsl(240 100% 50%)" />
  <rect x="625" y="225" width="30" height="30" fill="rgb(255 255 255 / 50%)" />
  <rect x="730" y="225" width="30" height="30" fill="hsl(240 100% 92.49950562318833%)" />
  <rect x="765" y="225" width="30" height="30" fill="rgb(255 255 255 / 50%)" />
  <rect x="835" y="225" width="30" height="30" fill="hsl(240 100% 93.69454048316443%)" />
  <rect x="65" y="260" width="30" height="30" fill="hsl(240 100% 99.85314786910207%)" />
  <rect x="135" y="260" width="30" height="30" fill="hsl(240 100% 99.85398640832635%)" />
  <rect x="170" y="260" width="30" height="30" fill="hsl(240 100% 98.91514318372737%)" />
  <rect x="205" y="260" width="30" height="30" fill="rgb(255 255 255 / 50%)" />
  <rect x="240" y="260" width="30" height="30" fill="hsl(240 100% 87.09241020120739%)" />
  <rect x="310" y="260" width="30" height="30" fill="rgb(255 255 255 / 50%)" />
  <rect x="415" y="260" width="30" height="30" fill="hsl(240 100% 81.6405589922697%)" />
  <rect x="450" y="260" width="30" height="30" fill="rgb(255 255 255 / 50%)" />
  <rect x="485" y="260" width="30" height="30" fill="hsl(240 100% 50%)" />
  <rect x="520" y="260" width="30" height="30" fill="hsl(240 100% 72.25977897881474%)" />
  <rect x="625" y="260" width="30" height="30" fill="hsl(240 100% 96.9791196317804%)" />
  <rect x="695" y="260" width="30" height="30" fill="hsl(240 100% 94.09425027019897%)" />
  <rect x="65" y="295" width="30" height="30" fill="hsl(240 100% 85.91895022480242%)" />
  <rect x="100" y="295" width="30" height="30" fill="hsl(240 100% 97.55670632780532%)" />
  <rect x="135" y="295" width="30" height="30" fill="hsl(240 100% 95.140365956024%)" />
  <rect x="170" y="295" width="30" height="30" fill="hsl(240 100% 89.3923704016337%)" />
  <rect x="205" y="295" width="30" height="30" fill="hsl(240 100% 99.34060915031797%)" />
  <rect x="240" y="295" width="30" height="30" fill="hsl(240 100% 50.61355830964671%)" />
  <rect x="275" y="295" width="30" height="30" fill="hsl(240 100% 50%)" />
  <rect x="310" y="295" width="30" height="30" fill="hsl(240 100% 99.49932742608799%)" />
  <rect x="345" y="295" width="30" height="30" fill="hsl(240 100% 94.7358231766233%)" />
  <rect x="415" y="295" width="30" height="30" fill="hsl(240 100% 55.26119603753109%)" />
  <rect x="450" y="295" width="30" height="30" fill="hsl(240 100% 99.32915620947556%)" />
  <rect x="485" y="295" width="30" height="30" fill="hsl(240 100% 88.570201816781%)" />
  <rect x="520" y="295" width="30" height="30" fill="hsl(240 100% 57.86467780477811%)" />
  <rect x="695" y="295" width="30" height="30" fill="hsl(240 100% 97.62046349299138%)" />
  <rect x="800" y="295" width="30" height="30" fill="hsl(240 100% 99.57939562902217%)" />
  <rect x="835" y="295" width="30" height="30" fill="hsl(240 100% 99.95527193000389%)" />
  <rect x="65" y="330" width="30" height="30" fill="hsl(240 100% 87.60556724498585%)" />
  <rect x="100" y="330" width="30" height="30" fill="hsl(240 100% 94.371814001449%)" />
  <rect x="135" y="330" width="30" height="30" fill="hsl(240 100% 97.01637089398952%)" />
  <rect x="170" y="330" width="30" height="30" fill="hsl(240 100% 87.1656451017755%)" />
  <rect x="205" y="330" width="30" height="30" fill="hsl(240 100% 99.23090667823931%)" />
  <rect x="240" y="330" width="30" height="30" fill="hsl(240 100% 79.75126230788743%)" />
  <rect x="275" y="330" width="30" height="30" fill="hsl(240 100% 88.76661588032172%)" />
  <rect x="310" y="330" width="30" height="30" fill="rgb(255 255 255 / 50%)" />
  <rect x="345" y="330" width="30" height="30" fill="hsl(240 100% 97.22541979927159%)" />
  <rect x="415" y="330" width="30" height="30" fill="hsl(240 100% 86.22803121377271%)" />
  <rect x="450" y="330" width="30" height="30" fill="hsl(240 100% 99.79345387328809%)" />
  <rect x="485" y="330" width="30" height="30" fill="hsl(240 100% 72.4223358861469%)" />
  <rect x="520" y="330" width="30" height="30" fill="hsl(240 100% 70.91979293652767%)" />
  <rect x="590" y="330" width="30" height="30" fill="hsl(240 100% 94.56918412747058%)" />
  <rect x="625" y="330" width="30" height="30" fill="hsl(240 100% 50%)" />
  <rect x="765" y="330" width="30" height="30" fill="hsl(240 100% 95.25507456072455%)" />
  <rect x="800" y="330" width="30" height="30" fill="hsl(240 100% 99.24228688311975%)" />
  <rect x="835" y="330" width="30" height="30" fill="hsl(240 100% 80.23245109363056%)" />
  <rect x="65" y="365" width="30" height="30" fill="hsl(240 100% 56.25278962856092%)" />
  <rect x="100" y="365" width="30" height="30" fill="hsl(240 100% 71.2655438466508%)" />
  <rect x="135" y="365" width="30" height="30" fill="hsl(240 100% 81.34351404802925%)" />
  <rect x="170" y="365" width="30" height="30" fill="hsl(240 100% 50%)" />
  <rect x="205" y="365" width="30" height="30" fill="hsl(240 100% 95.03625891751426%)" />
  <rect x="240" y="365" width="30" height="30" fill="hsl(240 100% 58.96307033315906%)" />
  <rect x="275" y="365" width="30" height="30" fill="hsl(240 100% 92.52579347073991%)" />
  <rect x="310" y="365" width="30" height="30" fill="hsl(240 100% 99.85933222022327%)" />
  <rect x="415" y="365" width="30" height="30" fill="hsl(240 100% 65.63995372073776%)" />
  <rect x="520" y="365" width="30" height="30" fill="hsl(240 100% 85.85467967668203%)" />
  <rect x="625" y="365" width="30" height="30" fill="hsl(240 100% 99.6531136984455%)" />
  <rect x="730" y="365" width="30" height="30" fill="hsl(240 100% 62.25797894463149%)" />
  <rect x="765" y="365" width="30" height="30" fill="hsl(240 100% 98.16338947475492%)" />
  <rect x="835" y="365" width="30" height="30" fill="hsl(240 100% 98.67345181696922%)" />
  <rect x="65" y="400" width="30" height="30" fill="hsl(240 100% 98.21483249685967%)" />
  <rect x="100" y="400" width="30" height="30" fill="hsl(240 100% 99.61797466167687%)" />
  <rect x="135" y="400" width="30" height="30" fill="hsl(240 100% 99.66178403179481%)" />
  <rect x="170" y="400" width="30" height="30" fill="hsl(240 100% 94.06427265261786%)" />
  <rect x="205" y="400" width="30" height="30" fill="hsl(240 100% 99.24509733062966%)" />
  <rect x="240" y="400" width="30" height="30" fill="hsl(240 100% 88.55938888155917%)" />
  <rect x="275" y="400" width="30" height="30" fill="hsl(240 100% 95.3790549126808%)" />
  <rect x="310" y="400" width="30" height="30" fill="rgb(255 255 255 / 50%)" />
  <rect x="380" y="400" width="30" height="30" fill="rgb(255 255 255 / 50%)" />
  <rect x="415" y="400" width="30" height="30" fill="hsl(240 100% 94.13236991335587%)" />
  <rect x="450" y="400" width="30" height="30" fill="hsl(240 100% 99.97459909885343%)" />
  <rect x="485" y="400" width="30" height="30" fill="hsl(240 100% 79.13934790101824%)" />
  <rect x="520" y="400" width="30" height="30" fill="hsl(240 100% 50%)" />
  <rect x="555" y="400" width="30" height="30" fill="hsl(240 100% 99.14597214066211%)" />
  <rect x="660" y="400" width="30" height="30" fill="rgb(255 255 255 / 50%)" />
  <rect x="835" y="400" width="30" height="30" fill="hsl(240 100% 99.27361661757686%)" />
  <rect x="65" y="435" width="30" height="30" fill="hsl(240 100% 93.26966905609315%)" />
  <rect x="240" y="435" width="30" height="30" fill="hsl(240 100% 50%)" />
  <rect x="310" y="435" width="30" height="30" fill="hsl(240 100% 93.8459689852523%)" />
  <rect x="415" y="435" width="30" height="30" fill="hsl(240 100% 87.0065110749311%)" />
  <rect x="450" y="435" width="30" height="30" fill="hsl(240 100% 99.7745659173779%)" />
  <rect x="65" y="470" width="30" height="30" fill="hsl(240 100% 50.32894548621818%)" />
  <rect x="240" y="470" width="30" height="30" fill="hsl(240 100% 50%)" />
  <rect x="310" y="470" width="30" height="30" fill="hsl(240 100% 96.99317636612382%)" />
  <rect x="415" y="470" width="30" height="30" fill="hsl(240 100% 89.68921627045007%)" />
  <rect x="450" y="470" width="30" height="30" fill="hsl(240 100% 99.57894307113784%)" />
</svg>
