<svg xmlns="http://www.w3.org/2000/svg" viewBox="0 0 730 505">
  <rect x="0" y="0" width="730" height="505" rx="5" ry="5" fill="#222" />
  <text x="60" y="100" fill="white" font-family="sans-serif" font-weight="bold" font-size="12" text-anchor="end" dominant-baseline="middle">ba</text>
  <text x="60" y="135" fill="white" font-family="sans-serif" font-weight="bold" font-size="12" text-anchor="end" dominant-baseline="middle">det</text>
  <text x="60" y="170" fill="white" font-family="sans-serif" font-weight="bold" font-size="12" text-anchor="end" dominant-baseline="middle">gmm</text>
  <text x="60" y="205" fill="white" font-family="sans-serif" font-weight="bold" font-size="12" text-anchor="end" dominant-baseline="middle">hello</text>
  <text x="60" y="240" fill="white" font-family="sans-serif" font-weight="bold" font-size="12" text-anchor="end" dominant-baseline="middle">ht</text>
  <text x="60" y="275" fill="white" font-family="sans-serif" font-weight="bold" font-size="12" text-anchor="end" dominant-baseline="middle">kmeans</text>
  <text x="60" y="310" fill="white" font-family="sans-serif" font-weight="bold" font-size="12" text-anchor="end" dominant-baseline="middle">llsq</text>
  <text x="60" y="345" fill="white" font-family="sans-serif" font-weight="bold" font-size="12" text-anchor="end" dominant-baseline="middle">lse</text>
  <text x="60" y="380" fill="white" font-family="sans-serif" font-weight="bold" font-size="12" text-anchor="end" dominant-baseline="middle">lstm</text>
  <text x="60" y="415" fill="white" font-family="sans-serif" font-weight="bold" font-size="12" text-anchor="end" dominant-baseline="middle">ode</text>
  <text x="60" y="450" fill="white" font-family="sans-serif" font-weight="bold" font-size="12" text-anchor="end" dominant-baseline="middle">particle</text>
  <text x="60" y="485" fill="white" font-family="sans-serif" font-weight="bold" font-size="12" text-anchor="end" dominant-baseline="middle">saddle</text>
  <text x="80" y="80" fill="white" font-family="sans-serif" font-weight="bold" font-size="12" text-anchor="end" dominant-baseline="middle" transform="rotate(90 80 80)">ad-hpp</text>
  <text x="115" y="80" fill="white" font-family="sans-serif" font-weight="bold" font-size="12" text-anchor="end" dominant-baseline="middle" transform="rotate(90 115 80)">adept</text>
  <text x="150" y="80" fill="white" font-family="sans-serif" font-weight="bold" font-size="12" text-anchor="end" dominant-baseline="middle" transform="rotate(90 150 80)">adol-c</text>
  <text x="185" y="80" fill="white" font-family="sans-serif" font-weight="bold" font-size="12" text-anchor="end" dominant-baseline="middle" transform="rotate(90 185 80)">codipack</text>
  <text x="220" y="80" fill="white" font-family="sans-serif" font-weight="bold" font-size="12" text-anchor="end" dominant-baseline="middle" transform="rotate(90 220 80)">cppad</text>
  <text x="255" y="80" fill="white" font-family="sans-serif" font-weight="bold" font-size="12" text-anchor="end" dominant-baseline="middle" transform="rotate(90 255 80)">enzyme</text>
  <text x="290" y="80" fill="white" font-family="sans-serif" font-weight="bold" font-size="12" text-anchor="end" dominant-baseline="middle" transform="rotate(90 290 80)">enzyme-jl</text>
  <text x="325" y="80" fill="white" font-family="sans-serif" font-weight="bold" font-size="12" text-anchor="end" dominant-baseline="middle" transform="rotate(90 325 80)">finite</text>
  <text x="360" y="80" fill="white" font-family="sans-serif" font-weight="bold" font-size="12" text-anchor="end" dominant-baseline="middle" transform="rotate(90 360 80)">floretta</text>
  <text x="395" y="80" fill="white" font-family="sans-serif" font-weight="bold" font-size="12" text-anchor="end" dominant-baseline="middle" transform="rotate(90 395 80)">futhark</text>
  <text x="430" y="80" fill="white" font-family="sans-serif" font-weight="bold" font-size="12" text-anchor="end" dominant-baseline="middle" transform="rotate(90 430 80)">haskell</text>
  <text x="465" y="80" fill="white" font-family="sans-serif" font-weight="bold" font-size="12" text-anchor="end" dominant-baseline="middle" transform="rotate(90 465 80)">jax</text>
  <text x="500" y="80" fill="white" font-family="sans-serif" font-weight="bold" font-size="12" text-anchor="end" dominant-baseline="middle" transform="rotate(90 500 80)">manual</text>
  <text x="535" y="80" fill="white" font-family="sans-serif" font-weight="bold" font-size="12" text-anchor="end" dominant-baseline="middle" transform="rotate(90 535 80)">ocaml</text>
  <text x="570" y="80" fill="white" font-family="sans-serif" font-weight="bold" font-size="12" text-anchor="end" dominant-baseline="middle" transform="rotate(90 570 80)">pytorch</text>
  <text x="605" y="80" fill="white" font-family="sans-serif" font-weight="bold" font-size="12" text-anchor="end" dominant-baseline="middle" transform="rotate(90 605 80)">scilean</text>
  <text x="640" y="80" fill="white" font-family="sans-serif" font-weight="bold" font-size="12" text-anchor="end" dominant-baseline="middle" transform="rotate(90 640 80)">tapenade</text>
  <text x="675" y="80" fill="white" font-family="sans-serif" font-weight="bold" font-size="12" text-anchor="end" dominant-baseline="middle" transform="rotate(90 675 80)">tensorflow</text>
  <text x="710" y="80" fill="white" font-family="sans-serif" font-weight="bold" font-size="12" text-anchor="end" dominant-baseline="middle" transform="rotate(90 710 80)">zygote</text>
  <rect x="65" y="85" width="30" height="30" fill="hsl(240 100% 78.56170207338667%)" />
  <rect x="100" y="85" width="30" height="30" fill="hsl(240 100% 83.34484591454188%)" />
  <rect x="135" y="85" width="30" height="30" fill="hsl(240 100% 97.82652817734669%)" />
  <rect x="170" y="85" width="30" height="30" fill="hsl(240 100% 89.18482958517083%)" />
  <rect x="205" y="85" width="30" height="30" fill="hsl(240 100% 98.92100561671944%)" />
  <rect x="240" y="85" width="30" height="30" fill="hsl(240 100% 51.06079509561851%)" />
  <rect x="310" y="85" width="30" height="30" fill="hsl(240 100% 92.67279256414042%)" />
  <rect x="380" y="85" width="30" height="30" fill="hsl(240 100% 68.68494472445282%)" />
  <rect x="485" y="85" width="30" height="30" fill="hsl(240 100% 50%)" />
  <rect x="555" y="85" width="30" height="30" fill="rgb(255 255 255 / 50%)" />
  <rect x="625" y="85" width="30" height="30" fill="hsl(240 100% 72.81264775957126%)" />
  <rect x="660" y="85" width="30" height="30" fill="rgb(255 255 255 / 50%)" />
  <rect x="695" y="85" width="30" height="30" fill="hsl(240 100% 99.70669792828731%)" />
  <rect x="65" y="120" width="30" height="30" fill="hsl(240 100% 50%)" />
  <rect x="100" y="120" width="30" height="30" fill="hsl(240 100% 84.1219237239549%)" />
  <rect x="135" y="120" width="30" height="30" fill="hsl(240 100% 85.16715005921351%)" />
  <rect x="170" y="120" width="30" height="30" fill="hsl(240 100% 50.09693501933043%)" />
  <rect x="205" y="120" width="30" height="30" fill="hsl(240 100% 92.69230573213434%)" />
  <rect x="240" y="120" width="30" height="30" fill="hsl(240 100% 91.77337473394014%)" />
  <rect x="275" y="120" width="30" height="30" fill="hsl(240 100% 99.16100140356014%)" />
  <rect x="310" y="120" width="30" height="30" fill="hsl(240 100% 98.96913670154967%)" />
  <rect x="380" y="120" width="30" height="30" fill="hsl(240 100% 94.67839659560865%)" />
  <rect x="415" y="120" width="30" height="30" fill="hsl(240 100% 97.91998782632075%)" />
  <rect x="485" y="120" width="30" height="30" fill="hsl(240 100% 79.48425023461874%)" />
  <rect x="695" y="120" width="30" height="30" fill="rgb(255 255 255 / 50%)" />
  <rect x="65" y="155" width="30" height="30" fill="hsl(240 100% 97.54101251833868%)" />
  <rect x="100" y="155" width="30" height="30" fill="hsl(240 100% 98.30063996227504%)" />
  <rect x="135" y="155" width="30" height="30" fill="hsl(240 100% 98.94688469167498%)" />
  <rect x="170" y="155" width="30" height="30" fill="hsl(240 100% 97.2255046418648%)" />
  <rect x="205" y="155" width="30" height="30" fill="hsl(240 100% 99.77362725129062%)" />
  <rect x="240" y="155" width="30" height="30" fill="hsl(240 100% 86.98451609114309%)" />
  <rect x="275" y="155" width="30" height="30" fill="hsl(240 100% 99.83377450652944%)" />
  <rect x="310" y="155" width="30" height="30" fill="rgb(255 255 255 / 50%)" />
  <rect x="380" y="155" width="30" height="30" fill="hsl(240 100% 90.02094544595104%)" />
  <rect x="450" y="155" width="30" height="30" fill="hsl(240 100% 71.43082839354656%)" />
  <rect x="485" y="155" width="30" height="30" fill="hsl(240 100% 75.79776041098948%)" />
  <rect x="520" y="155" width="30" height="30" fill="hsl(240 100% 99.36623860434617%)" />
  <rect x="555" y="155" width="30" height="30" fill="hsl(240 100% 50%)" />
  <rect x="590" y="155" width="30" height="30" fill="hsl(240 100% 92.7657246666489%)" />
  <rect x="625" y="155" width="30" height="30" fill="hsl(240 100% 76.1329540417389%)" />
  <rect x="660" y="155" width="30" height="30" fill="hsl(240 100% 89.22523555772209%)" />
  <rect x="695" y="155" width="30" height="30" fill="hsl(240 100% 99.37149098315373%)" />
  <rect x="65" y="190" width="30" height="30" fill="hsl(240 100% 50%)" />
  <rect x="100" y="190" width="30" height="30" fill="hsl(240 100% 50%)" />
  <rect x="135" y="190" width="30" height="30" fill="hsl(240 100% 50%)" />
  <rect x="170" y="190" width="30" height="30" fill="hsl(240 100% 50%)" />
  <rect x="205" y="190" width="30" height="30" fill="hsl(240 100% 50%)" />
  <rect x="240" y="190" width="30" height="30" fill="hsl(240 100% 50%)" />
  <rect x="275" y="190" width="30" height="30" fill="hsl(240 100% 50%)" />
  <rect x="310" y="190" width="30" height="30" fill="hsl(240 100% 50%)" />
  <rect x="345" y="190" width="30" height="30" fill="hsl(240 100% 50%)" />
  <rect x="380" y="190" width="30" height="30" fill="hsl(240 100% 50%)" />
  <rect x="415" y="190" width="30" height="30" fill="hsl(240 100% 50%)" />
  <rect x="450" y="190" width="30" height="30" fill="hsl(240 100% 50%)" />
  <rect x="485" y="190" width="30" height="30" fill="hsl(240 100% 50%)" />
  <rect x="520" y="190" width="30" height="30" fill="hsl(240 100% 50%)" />
  <rect x="555" y="190" width="30" height="30" fill="hsl(240 100% 50%)" />
  <rect x="590" y="190" width="30" height="30" fill="hsl(240 100% 50%)" />
  <rect x="625" y="190" width="30" height="30" fill="hsl(240 100% 50%)" />
  <rect x="660" y="190" width="30" height="30" fill="hsl(240 100% 50%)" />
  <rect x="695" y="190" width="30" height="30" fill="hsl(240 100% 50%)" />
  <rect x="100" y="225" width="30" height="30" fill="hsl(240 100% 96.10228501056497%)" />
  <rect x="135" y="225" width="30" height="30" fill="hsl(240 100% 90.12322108653792%)" />
  <rect x="170" y="225" width="30" height="30" fill="hsl(240 100% 88.48243452131761%)" />
  <rect x="240" y="225" width="30" height="30" fill="hsl(240 100% 90.28737127451387%)" />
  <rect x="310" y="225" width="30" height="30" fill="rgb(255 255 255 / 50%)" />
  <rect x="380" y="225" width="30" height="30" fill="hsl(240 100% 90.78602398753684%)" />
  <rect x="485" y="225" width="30" height="30" fill="hsl(240 100% 50%)" />
  <rect x="555" y="225" width="30" height="30" fill="rgb(255 255 255 / 50%)" />
  <rect x="625" y="225" width="30" height="30" fill="rgb(255 255 255 / 50%)" />
  <rect x="660" y="225" width="30" height="30" fill="rgb(255 255 255 / 50%)" />
  <rect x="695" y="225" width="30" height="30" fill="hsl(240 100% 99.43164125052635%)" />
  <rect x="135" y="260" width="30" height="30" fill="hsl(240 100% 99.89833663359279%)" />
  <rect x="170" y="260" width="30" height="30" fill="hsl(240 100% 99.3412944531804%)" />
  <rect x="205" y="260" width="30" height="30" fill="rgb(255 255 255 / 50%)" />
  <rect x="240" y="260" width="30" height="30" fill="hsl(240 100% 87.52057096653374%)" />
  <rect x="310" y="260" width="30" height="30" fill="rgb(255 255 255 / 50%)" />
  <rect x="380" y="260" width="30" height="30" fill="hsl(240 100% 82.50141693927173%)" />
  <rect x="415" y="260" width="30" height="30" fill="rgb(255 255 255 / 50%)" />
  <rect x="450" y="260" width="30" height="30" fill="hsl(240 100% 50%)" />
  <rect x="485" y="260" width="30" height="30" fill="hsl(240 100% 76.00626547120115%)" />
  <rect x="555" y="260" width="30" height="30" fill="hsl(240 100% 96.94296773588448%)" />
  <rect x="590" y="260" width="30" height="30" fill="hsl(240 100% 93.99073945455618%)" />
  <rect x="65" y="295" width="30" height="30" fill="hsl(240 100% 88.02512762577602%)" />
  <rect x="100" y="295" width="30" height="30" fill="hsl(240 100% 97.59160445033692%)" />
  <rect x="135" y="295" width="30" height="30" fill="hsl(240 100% 95.45221433943546%)" />
  <rect x="170" y="295" width="30" height="30" fill="hsl(240 100% 91.68601740930985%)" />
  <rect x="205" y="295" width="30" height="30" fill="hsl(240 100% 99.5139065085343%)" />
  <rect x="240" y="295" width="30" height="30" fill="hsl(240 100% 50%)" />
  <rect x="275" y="295" width="30" height="30" fill="hsl(240 100% 99.94231075785815%)" />
  <rect x="310" y="295" width="30" height="30" fill="hsl(240 100% 99.52955074879736%)" />
  <rect x="345" y="295" width="30" height="30" fill="hsl(240 100% 95.54270528209443%)" />
  <rect x="380" y="295" width="30" height="30" fill="hsl(240 100% 62.425870345771756%)" />
  <rect x="415" y="295" width="30" height="30" fill="hsl(240 100% 99.49687698107734%)" />
  <rect x="485" y="295" width="30" height="30" fill="hsl(240 100% 96.7032313816108%)" />
  <rect x="590" y="295" width="30" height="30" fill="hsl(240 100% 97.77018704743061%)" />
  <rect x="695" y="295" width="30" height="30" fill="hsl(240 100% 99.98624150880413%)" />
  <rect x="65" y="330" width="30" height="30" fill="hsl(240 100% 88.83662609964405%)" />
  <rect x="100" y="330" width="30" height="30" fill="hsl(240 100% 94.50296730421512%)" />
  <rect x="135" y="330" width="30" height="30" fill="hsl(240 100% 97.13824640300629%)" />
  <rect x="170" y="330" width="30" height="30" fill="hsl(240 100% 88.88299176279186%)" />
  <rect x="205" y="330" width="30" height="30" fill="hsl(240 100% 99.18471465906262%)" />
  <rect x="240" y="330" width="30" height="30" fill="hsl(240 100% 79.98937065320936%)" />
  <rect x="275" y="330" width="30" height="30" fill="hsl(240 100% 99.8163178060801%)" />
  <rect x="310" y="330" width="30" height="30" fill="rgb(255 255 255 / 50%)" />
  <rect x="345" y="330" width="30" height="30" fill="hsl(240 100% 97.23565056707004%)" />
  <rect x="380" y="330" width="30" height="30" fill="hsl(240 100% 85.23578083981084%)" />
  <rect x="415" y="330" width="30" height="30" fill="hsl(240 100% 99.80446919954827%)" />
  <rect x="450" y="330" width="30" height="30" fill="hsl(240 100% 69.802331464721%)" />
  <rect x="485" y="330" width="30" height="30" fill="hsl(240 100% 77.84985625806397%)" />
  <rect x="520" y="330" width="30" height="30" fill="hsl(240 100% 93.51519978295023%)" />
  <rect x="555" y="330" width="30" height="30" fill="hsl(240 100% 50%)" />
  <rect x="660" y="330" width="30" height="30" fill="hsl(240 100% 88.03305581601363%)" />
  <rect x="695" y="330" width="30" height="30" fill="hsl(240 100% 94.97922128947492%)" />
  <rect x="65" y="365" width="30" height="30" fill="hsl(240 100% 53.03824809929483%)" />
  <rect x="100" y="365" width="30" height="30" fill="hsl(240 100% 69.16994789573823%)" />
  <rect x="135" y="365" width="30" height="30" fill="hsl(240 100% 80.43293636762695%)" />
  <rect x="170" y="365" width="30" height="30" fill="hsl(240 100% 50%)" />
  <rect x="205" y="365" width="30" height="30" fill="hsl(240 100% 95.83838554859784%)" />
  <rect x="240" y="365" width="30" height="30" fill="hsl(240 100% 50.526739837013444%)" />
  <rect x="275" y="365" width="30" height="30" fill="hsl(240 100% 98.87484707246352%)" />
  <rect x="310" y="365" width="30" height="30" fill="hsl(240 100% 99.85228585174038%)" />
  <rect x="380" y="365" width="30" height="30" fill="hsl(240 100% 63.41009096135758%)" />
  <rect x="485" y="365" width="30" height="30" fill="hsl(240 100% 84.61402578703552%)" />
  <rect x="555" y="365" width="30" height="30" fill="hsl(240 100% 99.59958578143801%)" />
  <rect x="625" y="365" width="30" height="30" fill="hsl(240 100% 60.228343424639874%)" />
  <rect x="660" y="365" width="30" height="30" fill="hsl(240 100% 98.00051729176876%)" />
  <rect x="695" y="365" width="30" height="30" fill="hsl(240 100% 99.08247022339305%)" />
  <rect x="65" y="400" width="30" height="30" fill="hsl(240 100% 97.83482401150498%)" />
  <rect x="100" y="400" width="30" height="30" fill="hsl(240 100% 99.334321704613%)" />
  <rect x="135" y="400" width="30" height="30" fill="hsl(240 100% 99.6203439081548%)" />
  <rect x="170" y="400" width="30" height="30" fill="hsl(240 100% 94.63948665166181%)" />
  <rect x="205" y="400" width="30" height="30" fill="hsl(240 100% 99.123867316824%)" />
  <rect x="240" y="400" width="30" height="30" fill="hsl(240 100% 88.77131950582097%)" />
  <rect x="275" y="400" width="30" height="30" fill="hsl(240 100% 99.12088182936733%)" />
  <rect x="310" y="400" width="30" height="30" fill="rgb(255 255 255 / 50%)" />
  <rect x="380" y="400" width="30" height="30" fill="hsl(240 100% 96.04537214987072%)" />
  <rect x="415" y="400" width="30" height="30" fill="hsl(240 100% 99.96734736209703%)" />
  <rect x="485" y="400" width="30" height="30" fill="hsl(240 100% 50%)" />
  <rect x="695" y="400" width="30" height="30" fill="hsl(240 100% 99.69196111997331%)" />
  <rect x="240" y="435" width="30" height="30" fill="hsl(240 100% 50%)" />
  <rect x="310" y="435" width="30" height="30" fill="hsl(240 100% 95.21696165900183%)" />
  <rect x="380" y="435" width="30" height="30" fill="hsl(240 100% 87.8199229482189%)" />
  <rect x="415" y="435" width="30" height="30" fill="hsl(240 100% 99.7781814266672%)" />
  <rect x="240" y="470" width="30" height="30" fill="hsl(240 100% 50%)" />
  <rect x="310" y="470" width="30" height="30" fill="hsl(240 100% 95.82184954188956%)" />
  <rect x="380" y="470" width="30" height="30" fill="hsl(240 100% 89.12830329505005%)" />
  <rect x="415" y="470" width="30" height="30" fill="hsl(240 100% 99.56647905018785%)" />
</svg>
