<svg xmlns="http://www.w3.org/2000/svg" viewBox="0 0 765 505">
  <rect x="0" y="0" width="765" height="505" rx="5" ry="5" fill="#222" />
  <text x="60" y="100" fill="white" font-family="sans-serif" font-weight="bold" font-size="12" text-anchor="end" dominant-baseline="middle">ba</text>
  <text x="60" y="135" fill="white" font-family="sans-serif" font-weight="bold" font-size="12" text-anchor="end" dominant-baseline="middle">det</text>
  <text x="60" y="170" fill="white" font-family="sans-serif" font-weight="bold" font-size="12" text-anchor="end" dominant-baseline="middle">gmm</text>
  <text x="60" y="205" fill="white" font-family="sans-serif" font-weight="bold" font-size="12" text-anchor="end" dominant-baseline="middle">hello</text>
  <text x="60" y="240" fill="white" font-family="sans-serif" font-weight="bold" font-size="12" text-anchor="end" dominant-baseline="middle">ht</text>
  <text x="60" y="275" fill="white" font-family="sans-serif" font-weight="bold" font-size="12" text-anchor="end" dominant-baseline="middle">kmeans</text>
  <text x="60" y="310" fill="white" font-family="sans-serif" font-weight="bold" font-size="12" text-anchor="end" dominant-baseline="middle">llsq</text>
  <text x="60" y="345" fill="white" font-family="sans-serif" font-weight="bold" font-size="12" text-anchor="end" dominant-baseline="middle">lse</text>
  <text x="60" y="380" fill="white" font-family="sans-serif" font-weight="bold" font-size="12" text-anchor="end" dominant-baseline="middle">lstm</text>
  <text x="60" y="415" fill="white" font-family="sans-serif" font-weight="bold" font-size="12" text-anchor="end" dominant-baseline="middle">ode</text>
  <text x="60" y="450" fill="white" font-family="sans-serif" font-weight="bold" font-size="12" text-anchor="end" dominant-baseline="middle">particle</text>
  <text x="60" y="485" fill="white" font-family="sans-serif" font-weight="bold" font-size="12" text-anchor="end" dominant-baseline="middle">saddle</text>
  <text x="80" y="80" fill="white" font-family="sans-serif" font-weight="bold" font-size="12" text-anchor="end" dominant-baseline="middle" transform="rotate(90 80 80)">ad-hpp</text>
  <text x="115" y="80" fill="white" font-family="sans-serif" font-weight="bold" font-size="12" text-anchor="end" dominant-baseline="middle" transform="rotate(90 115 80)">adept</text>
  <text x="150" y="80" fill="white" font-family="sans-serif" font-weight="bold" font-size="12" text-anchor="end" dominant-baseline="middle" transform="rotate(90 150 80)">adol-c</text>
  <text x="185" y="80" fill="white" font-family="sans-serif" font-weight="bold" font-size="12" text-anchor="end" dominant-baseline="middle" transform="rotate(90 185 80)">codipack</text>
  <text x="220" y="80" fill="white" font-family="sans-serif" font-weight="bold" font-size="12" text-anchor="end" dominant-baseline="middle" transform="rotate(90 220 80)">cppad</text>
  <text x="255" y="80" fill="white" font-family="sans-serif" font-weight="bold" font-size="12" text-anchor="end" dominant-baseline="middle" transform="rotate(90 255 80)">enzyme</text>
  <text x="290" y="80" fill="white" font-family="sans-serif" font-weight="bold" font-size="12" text-anchor="end" dominant-baseline="middle" transform="rotate(90 290 80)">enzyme-jl</text>
  <text x="325" y="80" fill="white" font-family="sans-serif" font-weight="bold" font-size="12" text-anchor="end" dominant-baseline="middle" transform="rotate(90 325 80)">finite</text>
  <text x="360" y="80" fill="white" font-family="sans-serif" font-weight="bold" font-size="12" text-anchor="end" dominant-baseline="middle" transform="rotate(90 360 80)">floretta</text>
  <text x="395" y="80" fill="white" font-family="sans-serif" font-weight="bold" font-size="12" text-anchor="end" dominant-baseline="middle" transform="rotate(90 395 80)">futhark</text>
  <text x="430" y="80" fill="white" font-family="sans-serif" font-weight="bold" font-size="12" text-anchor="end" dominant-baseline="middle" transform="rotate(90 430 80)">haskell</text>
  <text x="465" y="80" fill="white" font-family="sans-serif" font-weight="bold" font-size="12" text-anchor="end" dominant-baseline="middle" transform="rotate(90 465 80)">jax</text>
  <text x="500" y="80" fill="white" font-family="sans-serif" font-weight="bold" font-size="12" text-anchor="end" dominant-baseline="middle" transform="rotate(90 500 80)">manual</text>
  <text x="535" y="80" fill="white" font-family="sans-serif" font-weight="bold" font-size="12" text-anchor="end" dominant-baseline="middle" transform="rotate(90 535 80)">ocaml</text>
  <text x="570" y="80" fill="white" font-family="sans-serif" font-weight="bold" font-size="12" text-anchor="end" dominant-baseline="middle" transform="rotate(90 570 80)">pytorch</text>
  <text x="605" y="80" fill="white" font-family="sans-serif" font-weight="bold" font-size="12" text-anchor="end" dominant-baseline="middle" transform="rotate(90 605 80)">scilean</text>
  <text x="640" y="80" fill="white" font-family="sans-serif" font-weight="bold" font-size="12" text-anchor="end" dominant-baseline="middle" transform="rotate(90 640 80)">tapenade</text>
  <text x="675" y="80" fill="white" font-family="sans-serif" font-weight="bold" font-size="12" text-anchor="end" dominant-baseline="middle" transform="rotate(90 675 80)">tensorflow</text>
  <text x="710" y="80" fill="white" font-family="sans-serif" font-weight="bold" font-size="12" text-anchor="end" dominant-baseline="middle" transform="rotate(90 710 80)">tensorflow-js</text>
  <text x="745" y="80" fill="white" font-family="sans-serif" font-weight="bold" font-size="12" text-anchor="end" dominant-baseline="middle" transform="rotate(90 745 80)">zygote</text>
  <rect x="65" y="85" width="30" height="30" fill="hsl(240 100% 80.83687553118729%)" />
  <rect x="100" y="85" width="30" height="30" fill="hsl(240 100% 82.87553886639772%)" />
  <rect x="135" y="85" width="30" height="30" fill="hsl(240 100% 97.98109720116413%)" />
  <rect x="170" y="85" width="30" height="30" fill="hsl(240 100% 82.33353519879392%)" />
  <rect x="205" y="85" width="30" height="30" fill="hsl(240 100% 98.99396146078357%)" />
  <rect x="240" y="85" width="30" height="30" fill="hsl(240 100% 51.93800908851546%)" />
  <rect x="310" y="85" width="30" height="30" fill="hsl(240 100% 93.2653358008548%)" />
  <rect x="380" y="85" width="30" height="30" fill="hsl(240 100% 67.85998357288749%)" />
  <rect x="485" y="85" width="30" height="30" fill="hsl(240 100% 50%)" />
  <rect x="555" y="85" width="30" height="30" fill="rgb(255 255 255 / 50%)" />
  <rect x="625" y="85" width="30" height="30" fill="hsl(240 100% 74.83918980185113%)" />
  <rect x="660" y="85" width="30" height="30" fill="rgb(255 255 255 / 50%)" />
  <rect x="730" y="85" width="30" height="30" fill="hsl(240 100% 99.720113800006%)" />
  <rect x="65" y="120" width="30" height="30" fill="hsl(240 100% 50%)" />
  <rect x="100" y="120" width="30" height="30" fill="hsl(240 100% 82.35067663795601%)" />
  <rect x="135" y="120" width="30" height="30" fill="hsl(240 100% 85.79178016307732%)" />
  <rect x="170" y="120" width="30" height="30" fill="hsl(240 100% 51.44473160687194%)" />
  <rect x="205" y="120" width="30" height="30" fill="hsl(240 100% 92.48526980527906%)" />
  <rect x="240" y="120" width="30" height="30" fill="hsl(240 100% 91.28937159883385%)" />
  <rect x="275" y="120" width="30" height="30" fill="hsl(240 100% 99.36193704941833%)" />
  <rect x="310" y="120" width="30" height="30" fill="hsl(240 100% 98.9727631225456%)" />
  <rect x="380" y="120" width="30" height="30" fill="hsl(240 100% 94.51106894639727%)" />
  <rect x="415" y="120" width="30" height="30" fill="hsl(240 100% 97.94489345285328%)" />
  <rect x="485" y="120" width="30" height="30" fill="hsl(240 100% 79.32187193867709%)" />
  <rect x="730" y="120" width="30" height="30" fill="rgb(255 255 255 / 50%)" />
  <rect x="65" y="155" width="30" height="30" fill="hsl(240 100% 97.34234921755856%)" />
  <rect x="100" y="155" width="30" height="30" fill="hsl(240 100% 98.1380740610909%)" />
  <rect x="135" y="155" width="30" height="30" fill="hsl(240 100% 98.59335796442403%)" />
  <rect x="170" y="155" width="30" height="30" fill="hsl(240 100% 96.93951071434931%)" />
  <rect x="205" y="155" width="30" height="30" fill="hsl(240 100% 99.75476798697193%)" />
  <rect x="240" y="155" width="30" height="30" fill="hsl(240 100% 85.98627883031548%)" />
  <rect x="275" y="155" width="30" height="30" fill="hsl(240 100% 88.52611028869778%)" />
  <rect x="310" y="155" width="30" height="30" fill="rgb(255 255 255 / 50%)" />
  <rect x="380" y="155" width="30" height="30" fill="hsl(240 100% 88.73441313789709%)" />
  <rect x="450" y="155" width="30" height="30" fill="hsl(240 100% 68.67394804244151%)" />
  <rect x="485" y="155" width="30" height="30" fill="hsl(240 100% 70.42531177557592%)" />
  <rect x="520" y="155" width="30" height="30" fill="hsl(240 100% 99.3536127005841%)" />
  <rect x="555" y="155" width="30" height="30" fill="hsl(240 100% 50%)" />
  <rect x="590" y="155" width="30" height="30" fill="hsl(240 100% 92.30129581445829%)" />
  <rect x="625" y="155" width="30" height="30" fill="hsl(240 100% 73.91420040095251%)" />
  <rect x="660" y="155" width="30" height="30" fill="hsl(240 100% 87.34434321888915%)" />
  <rect x="730" y="155" width="30" height="30" fill="hsl(240 100% 96.59950764436083%)" />
  <rect x="65" y="190" width="30" height="30" fill="hsl(240 100% 50%)" />
  <rect x="100" y="190" width="30" height="30" fill="hsl(240 100% 50%)" />
  <rect x="135" y="190" width="30" height="30" fill="hsl(240 100% 50%)" />
  <rect x="170" y="190" width="30" height="30" fill="hsl(240 100% 50%)" />
  <rect x="205" y="190" width="30" height="30" fill="hsl(240 100% 50%)" />
  <rect x="240" y="190" width="30" height="30" fill="hsl(240 100% 50%)" />
  <rect x="275" y="190" width="30" height="30" fill="hsl(240 100% 50%)" />
  <rect x="310" y="190" width="30" height="30" fill="hsl(240 100% 50%)" />
  <rect x="345" y="190" width="30" height="30" fill="hsl(240 100% 50%)" />
  <rect x="380" y="190" width="30" height="30" fill="hsl(240 100% 50%)" />
  <rect x="415" y="190" width="30" height="30" fill="hsl(240 100% 50%)" />
  <rect x="450" y="190" width="30" height="30" fill="hsl(240 100% 50%)" />
  <rect x="485" y="190" width="30" height="30" fill="hsl(240 100% 50%)" />
  <rect x="520" y="190" width="30" height="30" fill="hsl(240 100% 50%)" />
  <rect x="555" y="190" width="30" height="30" fill="hsl(240 100% 50%)" />
  <rect x="590" y="190" width="30" height="30" fill="hsl(240 100% 50%)" />
  <rect x="625" y="190" width="30" height="30" fill="hsl(240 100% 50%)" />
  <rect x="660" y="190" width="30" height="30" fill="hsl(240 100% 50%)" />
  <rect x="695" y="190" width="30" height="30" fill="hsl(240 100% 50%)" />
  <rect x="730" y="190" width="30" height="30" fill="hsl(240 100% 50%)" />
  <rect x="100" y="225" width="30" height="30" fill="hsl(240 100% 96.73940489805088%)" />
  <rect x="135" y="225" width="30" height="30" fill="hsl(240 100% 89.83838612502605%)" />
  <rect x="170" y="225" width="30" height="30" fill="hsl(240 100% 89.49681434180246%)" />
  <rect x="240" y="225" width="30" height="30" fill="hsl(240 100% 91.45135863270579%)" />
  <rect x="310" y="225" width="30" height="30" fill="rgb(255 255 255 / 50%)" />
  <rect x="380" y="225" width="30" height="30" fill="hsl(240 100% 90.68445416938303%)" />
  <rect x="485" y="225" width="30" height="30" fill="hsl(240 100% 50%)" />
  <rect x="555" y="225" width="30" height="30" fill="rgb(255 255 255 / 50%)" />
  <rect x="625" y="225" width="30" height="30" fill="hsl(240 100% 93.27884418733689%)" />
  <rect x="660" y="225" width="30" height="30" fill="rgb(255 255 255 / 50%)" />
  <rect x="730" y="225" width="30" height="30" fill="hsl(240 100% 94.6121802054669%)" />
  <rect x="65" y="260" width="30" height="30" fill="hsl(240 100% 99.86864884459949%)" />
  <rect x="135" y="260" width="30" height="30" fill="hsl(240 100% 99.85840750788401%)" />
  <rect x="170" y="260" width="30" height="30" fill="hsl(240 100% 98.89934425386438%)" />
  <rect x="205" y="260" width="30" height="30" fill="rgb(255 255 255 / 50%)" />
  <rect x="240" y="260" width="30" height="30" fill="hsl(240 100% 87.26866477600518%)" />
  <rect x="310" y="260" width="30" height="30" fill="rgb(255 255 255 / 50%)" />
  <rect x="380" y="260" width="30" height="30" fill="hsl(240 100% 80.84441816168541%)" />
  <rect x="415" y="260" width="30" height="30" fill="rgb(255 255 255 / 50%)" />
  <rect x="450" y="260" width="30" height="30" fill="hsl(240 100% 50%)" />
  <rect x="485" y="260" width="30" height="30" fill="hsl(240 100% 71.65987828773841%)" />
  <rect x="555" y="260" width="30" height="30" fill="hsl(240 100% 97.1646581424562%)" />
  <rect x="590" y="260" width="30" height="30" fill="hsl(240 100% 94.1649971739411%)" />
  <rect x="65" y="295" width="30" height="30" fill="hsl(240 100% 85.76440784919197%)" />
  <rect x="100" y="295" width="30" height="30" fill="hsl(240 100% 97.59662543114942%)" />
  <rect x="135" y="295" width="30" height="30" fill="hsl(240 100% 95.1198875336343%)" />
  <rect x="170" y="295" width="30" height="30" fill="hsl(240 100% 90.56514770279425%)" />
  <rect x="205" y="295" width="30" height="30" fill="hsl(240 100% 99.44293591807082%)" />
  <rect x="240" y="295" width="30" height="30" fill="hsl(240 100% 50%)" />
  <rect x="275" y="295" width="30" height="30" fill="hsl(240 100% 50.68327824027221%)" />
  <rect x="310" y="295" width="30" height="30" fill="hsl(240 100% 99.49360987542497%)" />
  <rect x="345" y="295" width="30" height="30" fill="hsl(240 100% 94.7078440179343%)" />
  <rect x="380" y="295" width="30" height="30" fill="hsl(240 100% 54.71049857372078%)" />
  <rect x="415" y="295" width="30" height="30" fill="hsl(240 100% 99.33738350014134%)" />
  <rect x="450" y="295" width="30" height="30" fill="hsl(240 100% 88.21708899872797%)" />
  <rect x="485" y="295" width="30" height="30" fill="hsl(240 100% 57.32560230776715%)" />
  <rect x="590" y="295" width="30" height="30" fill="hsl(240 100% 97.5785158996913%)" />
  <rect x="695" y="295" width="30" height="30" fill="hsl(240 100% 99.56055380945388%)" />
  <rect x="730" y="295" width="30" height="30" fill="hsl(240 100% 99.95484876098232%)" />
  <rect x="65" y="330" width="30" height="30" fill="hsl(240 100% 88.86752596098027%)" />
  <rect x="100" y="330" width="30" height="30" fill="hsl(240 100% 94.6448584561209%)" />
  <rect x="135" y="330" width="30" height="30" fill="hsl(240 100% 97.07935367546983%)" />
  <rect x="170" y="330" width="30" height="30" fill="hsl(240 100% 88.11138796305454%)" />
  <rect x="205" y="330" width="30" height="30" fill="hsl(240 100% 99.18631230573747%)" />
  <rect x="240" y="330" width="30" height="30" fill="hsl(240 100% 79.47490733460454%)" />
  <rect x="275" y="330" width="30" height="30" fill="hsl(240 100% 86.51735896429642%)" />
  <rect x="310" y="330" width="30" height="30" fill="rgb(255 255 255 / 50%)" />
  <rect x="345" y="330" width="30" height="30" fill="hsl(240 100% 97.15177926308932%)" />
  <rect x="380" y="330" width="30" height="30" fill="hsl(240 100% 85.44561794937682%)" />
  <rect x="415" y="330" width="30" height="30" fill="hsl(240 100% 99.80537759047006%)" />
  <rect x="450" y="330" width="30" height="30" fill="hsl(240 100% 72.03603757449147%)" />
  <rect x="485" y="330" width="30" height="30" fill="hsl(240 100% 75.98300126949061%)" />
  <rect x="520" y="330" width="30" height="30" fill="hsl(240 100% 93.60097151669423%)" />
  <rect x="555" y="330" width="30" height="30" fill="hsl(240 100% 50%)" />
  <rect x="660" y="330" width="30" height="30" fill="hsl(240 100% 95.16087026551925%)" />
  <rect x="695" y="330" width="30" height="30" fill="hsl(240 100% 99.19555992993946%)" />
  <rect x="730" y="330" width="30" height="30" fill="hsl(240 100% 78.47364863314166%)" />
  <rect x="65" y="365" width="30" height="30" fill="hsl(240 100% 57.18105590002473%)" />
  <rect x="100" y="365" width="30" height="30" fill="hsl(240 100% 72.0706412150586%)" />
  <rect x="135" y="365" width="30" height="30" fill="hsl(240 100% 82.0787750128477%)" />
  <rect x="170" y="365" width="30" height="30" fill="hsl(240 100% 50%)" />
  <rect x="205" y="365" width="30" height="30" fill="hsl(240 100% 96.2163110935629%)" />
  <rect x="240" y="365" width="30" height="30" fill="hsl(240 100% 59.03211360940277%)" />
  <rect x="275" y="365" width="30" height="30" fill="hsl(240 100% 91.95875989798911%)" />
  <rect x="310" y="365" width="30" height="30" fill="hsl(240 100% 99.86136453565882%)" />
  <rect x="380" y="365" width="30" height="30" fill="hsl(240 100% 67.13479663936329%)" />
  <rect x="485" y="365" width="30" height="30" fill="hsl(240 100% 85.81020692772697%)" />
  <rect x="555" y="365" width="30" height="30" fill="hsl(240 100% 99.63748400557135%)" />
  <rect x="625" y="365" width="30" height="30" fill="hsl(240 100% 63.3258839104107%)" />
  <rect x="660" y="365" width="30" height="30" fill="hsl(240 100% 98.14814046291538%)" />
  <rect x="730" y="365" width="30" height="30" fill="hsl(240 100% 98.71657754619534%)" />
  <rect x="65" y="400" width="30" height="30" fill="hsl(240 100% 98.26391804274675%)" />
  <rect x="100" y="400" width="30" height="30" fill="hsl(240 100% 99.26233510548563%)" />
  <rect x="135" y="400" width="30" height="30" fill="hsl(240 100% 99.5827860270806%)" />
  <rect x="170" y="400" width="30" height="30" fill="hsl(240 100% 94.07334678106928%)" />
  <rect x="205" y="400" width="30" height="30" fill="hsl(240 100% 99.02640818061985%)" />
  <rect x="240" y="400" width="30" height="30" fill="hsl(240 100% 83.25781480940374%)" />
  <rect x="275" y="400" width="30" height="30" fill="hsl(240 100% 94.10855392638527%)" />
  <rect x="310" y="400" width="30" height="30" fill="rgb(255 255 255 / 50%)" />
  <rect x="380" y="400" width="30" height="30" fill="hsl(240 100% 92.35196010162018%)" />
  <rect x="415" y="400" width="30" height="30" fill="hsl(240 100% 99.96398359706929%)" />
  <rect x="450" y="400" width="30" height="30" fill="hsl(240 100% 72.63464357655508%)" />
  <rect x="485" y="400" width="30" height="30" fill="hsl(240 100% 50%)" />
  <rect x="730" y="400" width="30" height="30" fill="hsl(240 100% 98.73864588708159%)" />
  <rect x="65" y="435" width="30" height="30" fill="hsl(240 100% 93.10957951987358%)" />
  <rect x="240" y="435" width="30" height="30" fill="hsl(240 100% 50%)" />
  <rect x="310" y="435" width="30" height="30" fill="hsl(240 100% 94.31227909389389%)" />
  <rect x="380" y="435" width="30" height="30" fill="hsl(240 100% 86.99550168354466%)" />
  <rect x="415" y="435" width="30" height="30" fill="hsl(240 100% 99.79136945610084%)" />
  <rect x="65" y="470" width="30" height="30" fill="hsl(240 100% 50.020369865838965%)" />
  <rect x="240" y="470" width="30" height="30" fill="hsl(240 100% 50%)" />
  <rect x="310" y="470" width="30" height="30" fill="hsl(240 100% 97.13591443951391%)" />
  <rect x="380" y="470" width="30" height="30" fill="hsl(240 100% 89.06078890655539%)" />
  <rect x="415" y="470" width="30" height="30" fill="hsl(240 100% 99.58027448193043%)" />
</svg>
