<svg xmlns="http://www.w3.org/2000/svg" viewBox="0 0 870 505">
  <rect x="0" y="0" width="870" height="505" rx="5" ry="5" fill="#222" />
  <text x="60" y="100" fill="white" font-family="sans-serif" font-weight="bold" font-size="12" text-anchor="end" dominant-baseline="middle">ba</text>
  <text x="60" y="135" fill="white" font-family="sans-serif" font-weight="bold" font-size="12" text-anchor="end" dominant-baseline="middle">det</text>
  <text x="60" y="170" fill="white" font-family="sans-serif" font-weight="bold" font-size="12" text-anchor="end" dominant-baseline="middle">gmm</text>
  <text x="60" y="205" fill="white" font-family="sans-serif" font-weight="bold" font-size="12" text-anchor="end" dominant-baseline="middle">hello</text>
  <text x="60" y="240" fill="white" font-family="sans-serif" font-weight="bold" font-size="12" text-anchor="end" dominant-baseline="middle">ht</text>
  <text x="60" y="275" fill="white" font-family="sans-serif" font-weight="bold" font-size="12" text-anchor="end" dominant-baseline="middle">kmeans</text>
  <text x="60" y="310" fill="white" font-family="sans-serif" font-weight="bold" font-size="12" text-anchor="end" dominant-baseline="middle">llsq</text>
  <text x="60" y="345" fill="white" font-family="sans-serif" font-weight="bold" font-size="12" text-anchor="end" dominant-baseline="middle">lse</text>
  <text x="60" y="380" fill="white" font-family="sans-serif" font-weight="bold" font-size="12" text-anchor="end" dominant-baseline="middle">lstm</text>
  <text x="60" y="415" fill="white" font-family="sans-serif" font-weight="bold" font-size="12" text-anchor="end" dominant-baseline="middle">ode</text>
  <text x="60" y="450" fill="white" font-family="sans-serif" font-weight="bold" font-size="12" text-anchor="end" dominant-baseline="middle">particle</text>
  <text x="60" y="485" fill="white" font-family="sans-serif" font-weight="bold" font-size="12" text-anchor="end" dominant-baseline="middle">saddle</text>
  <text x="80" y="80" fill="white" font-family="sans-serif" font-weight="bold" font-size="12" text-anchor="end" dominant-baseline="middle" transform="rotate(90 80 80)">ad-hpp</text>
  <text x="115" y="80" fill="white" font-family="sans-serif" font-weight="bold" font-size="12" text-anchor="end" dominant-baseline="middle" transform="rotate(90 115 80)">adept</text>
  <text x="150" y="80" fill="white" font-family="sans-serif" font-weight="bold" font-size="12" text-anchor="end" dominant-baseline="middle" transform="rotate(90 150 80)">adol-c</text>
  <text x="185" y="80" fill="white" font-family="sans-serif" font-weight="bold" font-size="12" text-anchor="end" dominant-baseline="middle" transform="rotate(90 185 80)">codipack</text>
  <text x="220" y="80" fill="white" font-family="sans-serif" font-weight="bold" font-size="12" text-anchor="end" dominant-baseline="middle" transform="rotate(90 220 80)">cppad</text>
  <text x="255" y="80" fill="white" font-family="sans-serif" font-weight="bold" font-size="12" text-anchor="end" dominant-baseline="middle" transform="rotate(90 255 80)">enzyme</text>
  <text x="290" y="80" fill="white" font-family="sans-serif" font-weight="bold" font-size="12" text-anchor="end" dominant-baseline="middle" transform="rotate(90 290 80)">enzyme-jl</text>
  <text x="325" y="80" fill="white" font-family="sans-serif" font-weight="bold" font-size="12" text-anchor="end" dominant-baseline="middle" transform="rotate(90 325 80)">finite</text>
  <text x="360" y="80" fill="white" font-family="sans-serif" font-weight="bold" font-size="12" text-anchor="end" dominant-baseline="middle" transform="rotate(90 360 80)">floretta</text>
  <text x="395" y="80" fill="white" font-family="sans-serif" font-weight="bold" font-size="12" text-anchor="end" dominant-baseline="middle" transform="rotate(90 395 80)">forwarddiff-jl</text>
  <text x="430" y="80" fill="white" font-family="sans-serif" font-weight="bold" font-size="12" text-anchor="end" dominant-baseline="middle" transform="rotate(90 430 80)">futhark</text>
  <text x="465" y="80" fill="white" font-family="sans-serif" font-weight="bold" font-size="12" text-anchor="end" dominant-baseline="middle" transform="rotate(90 465 80)">haskell</text>
  <text x="500" y="80" fill="white" font-family="sans-serif" font-weight="bold" font-size="12" text-anchor="end" dominant-baseline="middle" transform="rotate(90 500 80)">jax</text>
  <text x="535" y="80" fill="white" font-family="sans-serif" font-weight="bold" font-size="12" text-anchor="end" dominant-baseline="middle" transform="rotate(90 535 80)">manual</text>
  <text x="570" y="80" fill="white" font-family="sans-serif" font-weight="bold" font-size="12" text-anchor="end" dominant-baseline="middle" transform="rotate(90 570 80)">mooncake-jl</text>
  <text x="605" y="80" fill="white" font-family="sans-serif" font-weight="bold" font-size="12" text-anchor="end" dominant-baseline="middle" transform="rotate(90 605 80)">ocaml</text>
  <text x="640" y="80" fill="white" font-family="sans-serif" font-weight="bold" font-size="12" text-anchor="end" dominant-baseline="middle" transform="rotate(90 640 80)">pytorch</text>
  <text x="675" y="80" fill="white" font-family="sans-serif" font-weight="bold" font-size="12" text-anchor="end" dominant-baseline="middle" transform="rotate(90 675 80)">reversediff-jl</text>
  <text x="710" y="80" fill="white" font-family="sans-serif" font-weight="bold" font-size="12" text-anchor="end" dominant-baseline="middle" transform="rotate(90 710 80)">scilean</text>
  <text x="745" y="80" fill="white" font-family="sans-serif" font-weight="bold" font-size="12" text-anchor="end" dominant-baseline="middle" transform="rotate(90 745 80)">tapenade</text>
  <text x="780" y="80" fill="white" font-family="sans-serif" font-weight="bold" font-size="12" text-anchor="end" dominant-baseline="middle" transform="rotate(90 780 80)">tensorflow</text>
  <text x="815" y="80" fill="white" font-family="sans-serif" font-weight="bold" font-size="12" text-anchor="end" dominant-baseline="middle" transform="rotate(90 815 80)">tensorflow-js</text>
  <text x="850" y="80" fill="white" font-family="sans-serif" font-weight="bold" font-size="12" text-anchor="end" dominant-baseline="middle" transform="rotate(90 850 80)">zygote</text>
  <rect x="65" y="85" width="30" height="30" fill="hsl(240 100% 81.00110524086725%)" />
  <rect x="100" y="85" width="30" height="30" fill="hsl(240 100% 82.20280842238421%)" />
  <rect x="135" y="85" width="30" height="30" fill="hsl(240 100% 97.95942700396216%)" />
  <rect x="170" y="85" width="30" height="30" fill="hsl(240 100% 80.2141447701138%)" />
  <rect x="205" y="85" width="30" height="30" fill="hsl(240 100% 98.97634987813412%)" />
  <rect x="240" y="85" width="30" height="30" fill="hsl(240 100% 50%)" />
  <rect x="310" y="85" width="30" height="30" fill="hsl(240 100% 93.06100699327966%)" />
  <rect x="415" y="85" width="30" height="30" fill="hsl(240 100% 67.88242940574636%)" />
  <rect x="520" y="85" width="30" height="30" fill="hsl(240 100% 54.303721922619715%)" />
  <rect x="625" y="85" width="30" height="30" fill="rgb(255 255 255 / 50%)" />
  <rect x="730" y="85" width="30" height="30" fill="hsl(240 100% 74.2911870773064%)" />
  <rect x="765" y="85" width="30" height="30" fill="rgb(255 255 255 / 50%)" />
  <rect x="835" y="85" width="30" height="30" fill="hsl(240 100% 99.75217772467519%)" />
  <rect x="65" y="120" width="30" height="30" fill="hsl(240 100% 50%)" />
  <rect x="100" y="120" width="30" height="30" fill="hsl(240 100% 82.6229009831778%)" />
  <rect x="135" y="120" width="30" height="30" fill="hsl(240 100% 86.45218136364625%)" />
  <rect x="170" y="120" width="30" height="30" fill="hsl(240 100% 58.836633140312365%)" />
  <rect x="205" y="120" width="30" height="30" fill="hsl(240 100% 93.0921736131782%)" />
  <rect x="240" y="120" width="30" height="30" fill="hsl(240 100% 93.63032026331516%)" />
  <rect x="275" y="120" width="30" height="30" fill="hsl(240 100% 99.43782605562225%)" />
  <rect x="310" y="120" width="30" height="30" fill="hsl(240 100% 99.04027131048942%)" />
  <rect x="380" y="120" width="30" height="30" fill="hsl(240 100% 93.83165841931742%)" />
  <rect x="415" y="120" width="30" height="30" fill="hsl(240 100% 94.9816710920299%)" />
  <rect x="450" y="120" width="30" height="30" fill="hsl(240 100% 98.01259662885904%)" />
  <rect x="520" y="120" width="30" height="30" fill="hsl(240 100% 81.00481053153248%)" />
  <rect x="555" y="120" width="30" height="30" fill="hsl(240 100% 97.16561612269123%)" />
  <rect x="660" y="120" width="30" height="30" fill="rgb(255 255 255 / 50%)" />
  <rect x="835" y="120" width="30" height="30" fill="rgb(255 255 255 / 50%)" />
  <rect x="65" y="155" width="30" height="30" fill="hsl(240 100% 98.53556551787248%)" />
  <rect x="100" y="155" width="30" height="30" fill="hsl(240 100% 98.68369001215383%)" />
  <rect x="135" y="155" width="30" height="30" fill="hsl(240 100% 99.10194499440324%)" />
  <rect x="170" y="155" width="30" height="30" fill="hsl(240 100% 97.90178906877664%)" />
  <rect x="205" y="155" width="30" height="30" fill="hsl(240 100% 99.84284662943722%)" />
  <rect x="240" y="155" width="30" height="30" fill="hsl(240 100% 91.3346035604855%)" />
  <rect x="275" y="155" width="30" height="30" fill="hsl(240 100% 91.70797142178624%)" />
  <rect x="310" y="155" width="30" height="30" fill="rgb(255 255 255 / 50%)" />
  <rect x="415" y="155" width="30" height="30" fill="hsl(240 100% 92.77385283665821%)" />
  <rect x="485" y="155" width="30" height="30" fill="hsl(240 100% 50%)" />
  <rect x="520" y="155" width="30" height="30" fill="hsl(240 100% 80.50806202020864%)" />
  <rect x="590" y="155" width="30" height="30" fill="hsl(240 100% 99.5577887764516%)" />
  <rect x="625" y="155" width="30" height="30" fill="hsl(240 100% 66.42494558372555%)" />
  <rect x="695" y="155" width="30" height="30" fill="hsl(240 100% 95.18365189732641%)" />
  <rect x="730" y="155" width="30" height="30" fill="hsl(240 100% 83.34156981636917%)" />
  <rect x="765" y="155" width="30" height="30" fill="hsl(240 100% 99.58401972878902%)" />
  <rect x="835" y="155" width="30" height="30" fill="hsl(240 100% 95.7695893201946%)" />
  <rect x="65" y="190" width="30" height="30" fill="hsl(240 100% 50%)" />
  <rect x="100" y="190" width="30" height="30" fill="hsl(240 100% 50%)" />
  <rect x="135" y="190" width="30" height="30" fill="hsl(240 100% 50%)" />
  <rect x="170" y="190" width="30" height="30" fill="hsl(240 100% 50%)" />
  <rect x="205" y="190" width="30" height="30" fill="hsl(240 100% 50%)" />
  <rect x="240" y="190" width="30" height="30" fill="hsl(240 100% 50%)" />
  <rect x="275" y="190" width="30" height="30" fill="hsl(240 100% 50%)" />
  <rect x="310" y="190" width="30" height="30" fill="hsl(240 100% 50%)" />
  <rect x="345" y="190" width="30" height="30" fill="hsl(240 100% 50%)" />
  <rect x="380" y="190" width="30" height="30" fill="hsl(240 100% 50%)" />
  <rect x="415" y="190" width="30" height="30" fill="hsl(240 100% 50%)" />
  <rect x="450" y="190" width="30" height="30" fill="hsl(240 100% 50%)" />
  <rect x="485" y="190" width="30" height="30" fill="hsl(240 100% 50%)" />
  <rect x="520" y="190" width="30" height="30" fill="hsl(240 100% 50%)" />
  <rect x="555" y="190" width="30" height="30" fill="hsl(240 100% 50%)" />
  <rect x="590" y="190" width="30" height="30" fill="hsl(240 100% 50%)" />
  <rect x="625" y="190" width="30" height="30" fill="hsl(240 100% 50%)" />
  <rect x="660" y="190" width="30" height="30" fill="hsl(240 100% 50%)" />
  <rect x="695" y="190" width="30" height="30" fill="hsl(240 100% 50%)" />
  <rect x="730" y="190" width="30" height="30" fill="hsl(240 100% 50%)" />
  <rect x="765" y="190" width="30" height="30" fill="hsl(240 100% 50%)" />
  <rect x="800" y="190" width="30" height="30" fill="hsl(240 100% 50%)" />
  <rect x="835" y="190" width="30" height="30" fill="hsl(240 100% 50%)" />
  <rect x="100" y="225" width="30" height="30" fill="hsl(240 100% 96.18219309748028%)" />
  <rect x="135" y="225" width="30" height="30" fill="hsl(240 100% 86.55644583049248%)" />
  <rect x="170" y="225" width="30" height="30" fill="hsl(240 100% 88.16462997900615%)" />
  <rect x="240" y="225" width="30" height="30" fill="hsl(240 100% 90.4412386483215%)" />
  <rect x="310" y="225" width="30" height="30" fill="rgb(255 255 255 / 50%)" />
  <rect x="415" y="225" width="30" height="30" fill="hsl(240 100% 89.69813301389273%)" />
  <rect x="520" y="225" width="30" height="30" fill="hsl(240 100% 50%)" />
  <rect x="625" y="225" width="30" height="30" fill="rgb(255 255 255 / 50%)" />
  <rect x="730" y="225" width="30" height="30" fill="hsl(240 100% 92.40031887452885%)" />
  <rect x="765" y="225" width="30" height="30" fill="rgb(255 255 255 / 50%)" />
  <rect x="835" y="225" width="30" height="30" fill="hsl(240 100% 93.98155223043274%)" />
  <rect x="65" y="260" width="30" height="30" fill="hsl(240 100% 99.80437762823951%)" />
  <rect x="135" y="260" width="30" height="30" fill="hsl(240 100% 99.86987022172246%)" />
  <rect x="170" y="260" width="30" height="30" fill="hsl(240 100% 98.9143207674727%)" />
  <rect x="205" y="260" width="30" height="30" fill="rgb(255 255 255 / 50%)" />
  <rect x="240" y="260" width="30" height="30" fill="hsl(240 100% 87.99218016450955%)" />
  <rect x="310" y="260" width="30" height="30" fill="rgb(255 255 255 / 50%)" />
  <rect x="415" y="260" width="30" height="30" fill="hsl(240 100% 80.36444556759565%)" />
  <rect x="450" y="260" width="30" height="30" fill="rgb(255 255 255 / 50%)" />
  <rect x="485" y="260" width="30" height="30" fill="hsl(240 100% 50%)" />
  <rect x="520" y="260" width="30" height="30" fill="hsl(240 100% 71.81758668387006%)" />
  <rect x="625" y="260" width="30" height="30" fill="hsl(240 100% 97.28252015491357%)" />
  <rect x="695" y="260" width="30" height="30" fill="hsl(240 100% 93.99495042136864%)" />
  <rect x="65" y="295" width="30" height="30" fill="hsl(240 100% 86.37872734273182%)" />
  <rect x="100" y="295" width="30" height="30" fill="hsl(240 100% 97.94496607708875%)" />
  <rect x="135" y="295" width="30" height="30" fill="hsl(240 100% 95.13198808357508%)" />
  <rect x="170" y="295" width="30" height="30" fill="hsl(240 100% 89.25070851105606%)" />
  <rect x="205" y="295" width="30" height="30" fill="hsl(240 100% 99.44214434086985%)" />
  <rect x="240" y="295" width="30" height="30" fill="hsl(240 100% 50%)" />
  <rect x="275" y="295" width="30" height="30" fill="hsl(240 100% 50.004754311002294%)" />
  <rect x="310" y="295" width="30" height="30" fill="hsl(240 100% 99.49324144293833%)" />
  <rect x="345" y="295" width="30" height="30" fill="hsl(240 100% 94.64249936162778%)" />
  <rect x="415" y="295" width="30" height="30" fill="hsl(240 100% 54.6855169061908%)" />
  <rect x="450" y="295" width="30" height="30" fill="hsl(240 100% 99.26857556968758%)" />
  <rect x="485" y="295" width="30" height="30" fill="hsl(240 100% 88.10007011161899%)" />
  <rect x="520" y="295" width="30" height="30" fill="hsl(240 100% 59.65745335273815%)" />
  <rect x="695" y="295" width="30" height="30" fill="hsl(240 100% 97.58056453248668%)" />
  <rect x="800" y="295" width="30" height="30" fill="hsl(240 100% 99.58907168554792%)" />
  <rect x="835" y="295" width="30" height="30" fill="hsl(240 100% 99.9595179767826%)" />
  <rect x="65" y="330" width="30" height="30" fill="hsl(240 100% 88.46686956209017%)" />
  <rect x="100" y="330" width="30" height="30" fill="hsl(240 100% 94.34182348794006%)" />
  <rect x="135" y="330" width="30" height="30" fill="hsl(240 100% 97.2379647070663%)" />
  <rect x="170" y="330" width="30" height="30" fill="hsl(240 100% 87.83444878950665%)" />
  <rect x="205" y="330" width="30" height="30" fill="hsl(240 100% 99.25513843334198%)" />
  <rect x="240" y="330" width="30" height="30" fill="hsl(240 100% 81.12453181317875%)" />
  <rect x="275" y="330" width="30" height="30" fill="hsl(240 100% 88.47951816303468%)" />
  <rect x="310" y="330" width="30" height="30" fill="rgb(255 255 255 / 50%)" />
  <rect x="345" y="330" width="30" height="30" fill="hsl(240 100% 97.33500558990897%)" />
  <rect x="415" y="330" width="30" height="30" fill="hsl(240 100% 86.72820138257345%)" />
  <rect x="450" y="330" width="30" height="30" fill="hsl(240 100% 99.81968922591861%)" />
  <rect x="485" y="330" width="30" height="30" fill="hsl(240 100% 73.76970094573392%)" />
  <rect x="520" y="330" width="30" height="30" fill="hsl(240 100% 72.62335874508847%)" />
  <rect x="590" y="330" width="30" height="30" fill="hsl(240 100% 94.2178764834878%)" />
  <rect x="625" y="330" width="30" height="30" fill="hsl(240 100% 50%)" />
  <rect x="765" y="330" width="30" height="30" fill="hsl(240 100% 94.76706828340224%)" />
  <rect x="800" y="330" width="30" height="30" fill="hsl(240 100% 99.31107798884729%)" />
  <rect x="835" y="330" width="30" height="30" fill="hsl(240 100% 82.36562832085258%)" />
  <rect x="65" y="365" width="30" height="30" fill="hsl(240 100% 54.7474553685169%)" />
  <rect x="100" y="365" width="30" height="30" fill="hsl(240 100% 74.07981950300017%)" />
  <rect x="135" y="365" width="30" height="30" fill="hsl(240 100% 81.82092284899949%)" />
  <rect x="170" y="365" width="30" height="30" fill="hsl(240 100% 50%)" />
  <rect x="205" y="365" width="30" height="30" fill="hsl(240 100% 96.01174443264543%)" />
  <rect x="240" y="365" width="30" height="30" fill="hsl(240 100% 59.64308066890837%)" />
  <rect x="275" y="365" width="30" height="30" fill="hsl(240 100% 92.6071461705985%)" />
  <rect x="310" y="365" width="30" height="30" fill="hsl(240 100% 99.85899836332335%)" />
  <rect x="415" y="365" width="30" height="30" fill="hsl(240 100% 65.8102462850637%)" />
  <rect x="520" y="365" width="30" height="30" fill="hsl(240 100% 86.57714484825263%)" />
  <rect x="625" y="365" width="30" height="30" fill="hsl(240 100% 99.6272679104968%)" />
  <rect x="730" y="365" width="30" height="30" fill="hsl(240 100% 63.24037756856757%)" />
  <rect x="765" y="365" width="30" height="30" fill="hsl(240 100% 98.38812339149949%)" />
  <rect x="835" y="365" width="30" height="30" fill="hsl(240 100% 98.77739818779861%)" />
  <rect x="65" y="400" width="30" height="30" fill="hsl(240 100% 97.73896490551131%)" />
  <rect x="100" y="400" width="30" height="30" fill="hsl(240 100% 99.18739342763071%)" />
  <rect x="135" y="400" width="30" height="30" fill="hsl(240 100% 99.56479108556128%)" />
  <rect x="170" y="400" width="30" height="30" fill="hsl(240 100% 92.98546699214185%)" />
  <rect x="205" y="400" width="30" height="30" fill="hsl(240 100% 99.03095388175633%)" />
  <rect x="240" y="400" width="30" height="30" fill="hsl(240 100% 84.16326490812038%)" />
  <rect x="275" y="400" width="30" height="30" fill="hsl(240 100% 93.71338450607723%)" />
  <rect x="310" y="400" width="30" height="30" fill="rgb(255 255 255 / 50%)" />
  <rect x="380" y="400" width="30" height="30" fill="rgb(255 255 255 / 50%)" />
  <rect x="415" y="400" width="30" height="30" fill="hsl(240 100% 92.3572943860519%)" />
  <rect x="450" y="400" width="30" height="30" fill="hsl(240 100% 99.96364853903414%)" />
  <rect x="485" y="400" width="30" height="30" fill="hsl(240 100% 75.26000990144625%)" />
  <rect x="520" y="400" width="30" height="30" fill="hsl(240 100% 50%)" />
  <rect x="555" y="400" width="30" height="30" fill="hsl(240 100% 98.83893255471773%)" />
  <rect x="660" y="400" width="30" height="30" fill="rgb(255 255 255 / 50%)" />
  <rect x="835" y="400" width="30" height="30" fill="hsl(240 100% 98.96493246457808%)" />
  <rect x="65" y="435" width="30" height="30" fill="hsl(240 100% 93.12998670562608%)" />
  <rect x="240" y="435" width="30" height="30" fill="hsl(240 100% 50%)" />
  <rect x="310" y="435" width="30" height="30" fill="hsl(240 100% 93.85688142549469%)" />
  <rect x="415" y="435" width="30" height="30" fill="hsl(240 100% 87.01220605570605%)" />
  <rect x="450" y="435" width="30" height="30" fill="hsl(240 100% 99.80130381167076%)" />
  <rect x="65" y="470" width="30" height="30" fill="hsl(240 100% 60.17647174105418%)" />
  <rect x="240" y="470" width="30" height="30" fill="hsl(240 100% 50%)" />
  <rect x="310" y="470" width="30" height="30" fill="hsl(240 100% 96.96544767794185%)" />
  <rect x="415" y="470" width="30" height="30" fill="hsl(240 100% 88.98277539898794%)" />
  <rect x="450" y="470" width="30" height="30" fill="hsl(240 100% 99.57728762878645%)" />
</svg>
