<svg xmlns="http://www.w3.org/2000/svg" viewBox="0 0 660 295">
  <rect x="0" y="0" width="660" height="295" rx="5" ry="5" fill="#222" />
  <text x="60" y="100" fill="white" font-family="sans-serif" font-weight="bold" font-size="12" text-anchor="end" dominant-baseline="middle">ba</text>
  <text x="60" y="135" fill="white" font-family="sans-serif" font-weight="bold" font-size="12" text-anchor="end" dominant-baseline="middle">gmm</text>
  <text x="60" y="170" fill="white" font-family="sans-serif" font-weight="bold" font-size="12" text-anchor="end" dominant-baseline="middle">hello</text>
  <text x="60" y="205" fill="white" font-family="sans-serif" font-weight="bold" font-size="12" text-anchor="end" dominant-baseline="middle">ht</text>
  <text x="60" y="240" fill="white" font-family="sans-serif" font-weight="bold" font-size="12" text-anchor="end" dominant-baseline="middle">kmeans</text>
  <text x="60" y="275" fill="white" font-family="sans-serif" font-weight="bold" font-size="12" text-anchor="end" dominant-baseline="middle">lstm</text>
  <text x="80" y="80" fill="white" font-family="sans-serif" font-weight="bold" font-size="12" text-anchor="end" dominant-baseline="middle" transform="rotate(90 80 80)">adept</text>
  <text x="115" y="80" fill="white" font-family="sans-serif" font-weight="bold" font-size="12" text-anchor="end" dominant-baseline="middle" transform="rotate(90 115 80)">adol-c</text>
  <text x="150" y="80" fill="white" font-family="sans-serif" font-weight="bold" font-size="12" text-anchor="end" dominant-baseline="middle" transform="rotate(90 150 80)">codipack</text>
  <text x="185" y="80" fill="white" font-family="sans-serif" font-weight="bold" font-size="12" text-anchor="end" dominant-baseline="middle" transform="rotate(90 185 80)">cppad</text>
  <text x="220" y="80" fill="white" font-family="sans-serif" font-weight="bold" font-size="12" text-anchor="end" dominant-baseline="middle" transform="rotate(90 220 80)">enzyme</text>
  <text x="255" y="80" fill="white" font-family="sans-serif" font-weight="bold" font-size="12" text-anchor="end" dominant-baseline="middle" transform="rotate(90 255 80)">finite</text>
  <text x="290" y="80" fill="white" font-family="sans-serif" font-weight="bold" font-size="12" text-anchor="end" dominant-baseline="middle" transform="rotate(90 290 80)">floretta</text>
  <text x="325" y="80" fill="white" font-family="sans-serif" font-weight="bold" font-size="12" text-anchor="end" dominant-baseline="middle" transform="rotate(90 325 80)">futhark</text>
  <text x="360" y="80" fill="white" font-family="sans-serif" font-weight="bold" font-size="12" text-anchor="end" dominant-baseline="middle" transform="rotate(90 360 80)">haskell</text>
  <text x="395" y="80" fill="white" font-family="sans-serif" font-weight="bold" font-size="12" text-anchor="end" dominant-baseline="middle" transform="rotate(90 395 80)">jax</text>
  <text x="430" y="80" fill="white" font-family="sans-serif" font-weight="bold" font-size="12" text-anchor="end" dominant-baseline="middle" transform="rotate(90 430 80)">manual</text>
  <text x="465" y="80" fill="white" font-family="sans-serif" font-weight="bold" font-size="12" text-anchor="end" dominant-baseline="middle" transform="rotate(90 465 80)">ocaml</text>
  <text x="500" y="80" fill="white" font-family="sans-serif" font-weight="bold" font-size="12" text-anchor="end" dominant-baseline="middle" transform="rotate(90 500 80)">pytorch</text>
  <text x="535" y="80" fill="white" font-family="sans-serif" font-weight="bold" font-size="12" text-anchor="end" dominant-baseline="middle" transform="rotate(90 535 80)">scilean</text>
  <text x="570" y="80" fill="white" font-family="sans-serif" font-weight="bold" font-size="12" text-anchor="end" dominant-baseline="middle" transform="rotate(90 570 80)">tapenade</text>
  <text x="605" y="80" fill="white" font-family="sans-serif" font-weight="bold" font-size="12" text-anchor="end" dominant-baseline="middle" transform="rotate(90 605 80)">tensorflow</text>
  <text x="640" y="80" fill="white" font-family="sans-serif" font-weight="bold" font-size="12" text-anchor="end" dominant-baseline="middle" transform="rotate(90 640 80)">zygote</text>
  <rect x="65" y="85" width="30" height="30" fill="hsl(240 100% 84.48371535027302%)" />
  <rect x="100" y="85" width="30" height="30" fill="hsl(240 100% 98.01143252399402%)" />
  <rect x="135" y="85" width="30" height="30" fill="hsl(240 100% 89.645639831929%)" />
  <rect x="205" y="85" width="30" height="30" fill="hsl(240 100% 50.09207045044894%)" />
  <rect x="240" y="85" width="30" height="30" fill="hsl(240 100% 91.9139329986177%)" />
  <rect x="310" y="85" width="30" height="30" fill="hsl(240 100% 76.01030497527293%)" />
  <rect x="415" y="85" width="30" height="30" fill="hsl(240 100% 50%)" />
  <rect x="485" y="85" width="30" height="30" fill="hsl(240 100% 99.99177619835027%)" />
  <rect x="555" y="85" width="30" height="30" fill="hsl(240 100% 73.74380685955481%)" />
  <rect x="590" y="85" width="30" height="30" fill="hsl(240 100% 99.98440803078442%)" />
  <rect x="65" y="120" width="30" height="30" fill="hsl(240 100% 96.83060899319686%)" />
  <rect x="100" y="120" width="30" height="30" fill="hsl(240 100% 97.47738093565877%)" />
  <rect x="135" y="120" width="30" height="30" fill="hsl(240 100% 94.43070204832145%)" />
  <rect x="170" y="120" width="30" height="30" fill="hsl(240 100% 98.15613582988476%)" />
  <rect x="205" y="120" width="30" height="30" fill="hsl(240 100% 83.3655066935647%)" />
  <rect x="240" y="120" width="30" height="30" fill="hsl(240 100% 99.99480726123193%)" />
  <rect x="310" y="120" width="30" height="30" fill="hsl(240 100% 81.94536694096033%)" />
  <rect x="380" y="120" width="30" height="30" fill="hsl(240 100% 68.71931309594109%)" />
  <rect x="415" y="120" width="30" height="30" fill="hsl(240 100% 62.25675853952879%)" />
  <rect x="450" y="120" width="30" height="30" fill="hsl(240 100% 99.34384330483381%)" />
  <rect x="485" y="120" width="30" height="30" fill="hsl(240 100% 50%)" />
  <rect x="520" y="120" width="30" height="30" fill="hsl(240 100% 95.47861811668982%)" />
  <rect x="555" y="120" width="30" height="30" fill="hsl(240 100% 65.77556657038477%)" />
  <rect x="590" y="120" width="30" height="30" fill="hsl(240 100% 85.17354324850106%)" />
  <rect x="65" y="155" width="30" height="30" fill="hsl(240 100% 50%)" />
  <rect x="100" y="155" width="30" height="30" fill="hsl(240 100% 50%)" />
  <rect x="135" y="155" width="30" height="30" fill="hsl(240 100% 50%)" />
  <rect x="170" y="155" width="30" height="30" fill="hsl(240 100% 50%)" />
  <rect x="205" y="155" width="30" height="30" fill="hsl(240 100% 50%)" />
  <rect x="240" y="155" width="30" height="30" fill="hsl(240 100% 50%)" />
  <rect x="275" y="155" width="30" height="30" fill="hsl(240 100% 50%)" />
  <rect x="310" y="155" width="30" height="30" fill="hsl(240 100% 50%)" />
  <rect x="345" y="155" width="30" height="30" fill="hsl(240 100% 50%)" />
  <rect x="380" y="155" width="30" height="30" fill="hsl(240 100% 50%)" />
  <rect x="415" y="155" width="30" height="30" fill="hsl(240 100% 50%)" />
  <rect x="450" y="155" width="30" height="30" fill="hsl(240 100% 50%)" />
  <rect x="485" y="155" width="30" height="30" fill="hsl(240 100% 50%)" />
  <rect x="520" y="155" width="30" height="30" fill="hsl(240 100% 50%)" />
  <rect x="555" y="155" width="30" height="30" fill="hsl(240 100% 50%)" />
  <rect x="590" y="155" width="30" height="30" fill="hsl(240 100% 50%)" />
  <rect x="625" y="155" width="30" height="30" fill="hsl(240 100% 50%)" />
  <rect x="65" y="190" width="30" height="30" fill="hsl(240 100% 97.01973633303993%)" />
  <rect x="100" y="190" width="30" height="30" fill="hsl(240 100% 97.8930553649725%)" />
  <rect x="135" y="190" width="30" height="30" fill="hsl(240 100% 93.72601022486833%)" />
  <rect x="205" y="190" width="30" height="30" fill="hsl(240 100% 94.73963218111523%)" />
  <rect x="240" y="190" width="30" height="30" fill="hsl(240 100% 99.1463729197671%)" />
  <rect x="310" y="190" width="30" height="30" fill="hsl(240 100% 93.93285295652481%)" />
  <rect x="415" y="190" width="30" height="30" fill="hsl(240 100% 50%)" />
  <rect x="485" y="190" width="30" height="30" fill="hsl(240 100% 99.96608884145803%)" />
  <rect x="555" y="190" width="30" height="30" fill="hsl(240 100% 99.37666542065156%)" />
  <rect x="590" y="190" width="30" height="30" fill="hsl(240 100% 99.45883727765727%)" />
  <rect x="100" y="225" width="30" height="30" fill="hsl(240 100% 99.87932551632721%)" />
  <rect x="135" y="225" width="30" height="30" fill="hsl(240 100% 99.40729171701352%)" />
  <rect x="205" y="225" width="30" height="30" fill="hsl(240 100% 87.87200893283888%)" />
  <rect x="310" y="225" width="30" height="30" fill="hsl(240 100% 83.05077576874321%)" />
  <rect x="345" y="225" width="30" height="30" fill="hsl(240 100% 99.9916236476296%)" />
  <rect x="380" y="225" width="30" height="30" fill="hsl(240 100% 50%)" />
  <rect x="415" y="225" width="30" height="30" fill="hsl(240 100% 76.76792300349581%)" />
  <rect x="485" y="225" width="30" height="30" fill="hsl(240 100% 84.81888698528951%)" />
  <rect x="520" y="225" width="30" height="30" fill="hsl(240 100% 99.53508363468579%)" />
  <rect x="65" y="260" width="30" height="30" fill="hsl(240 100% 69.57490300224649%)" />
  <rect x="100" y="260" width="30" height="30" fill="hsl(240 100% 80.46656907323903%)" />
  <rect x="135" y="260" width="30" height="30" fill="hsl(240 100% 50%)" />
  <rect x="170" y="260" width="30" height="30" fill="hsl(240 100% 88.81478867388455%)" />
  <rect x="205" y="260" width="30" height="30" fill="hsl(240 100% 52.175970232561355%)" />
  <rect x="240" y="260" width="30" height="30" fill="hsl(240 100% 99.80380961794363%)" />
  <rect x="310" y="260" width="30" height="30" fill="hsl(240 100% 64.10896596556026%)" />
  <rect x="415" y="260" width="30" height="30" fill="hsl(240 100% 79.0750369028394%)" />
  <rect x="485" y="260" width="30" height="30" fill="hsl(240 100% 99.66254845172071%)" />
  <rect x="520" y="260" width="30" height="30" fill="hsl(240 100% 96.24496358726302%)" />
  <rect x="555" y="260" width="30" height="30" fill="hsl(240 100% 60.672164314570885%)" />
  <rect x="590" y="260" width="30" height="30" fill="hsl(240 100% 98.09679240661029%)" />
</svg>
