<svg xmlns="http://www.w3.org/2000/svg" viewBox="0 0 730 505">
  <rect x="0" y="0" width="730" height="505" rx="5" ry="5" fill="#222" />
  <text x="60" y="100" fill="white" font-family="sans-serif" font-weight="bold" font-size="12" text-anchor="end" dominant-baseline="middle">ba</text>
  <text x="60" y="135" fill="white" font-family="sans-serif" font-weight="bold" font-size="12" text-anchor="end" dominant-baseline="middle">det</text>
  <text x="60" y="170" fill="white" font-family="sans-serif" font-weight="bold" font-size="12" text-anchor="end" dominant-baseline="middle">gmm</text>
  <text x="60" y="205" fill="white" font-family="sans-serif" font-weight="bold" font-size="12" text-anchor="end" dominant-baseline="middle">hello</text>
  <text x="60" y="240" fill="white" font-family="sans-serif" font-weight="bold" font-size="12" text-anchor="end" dominant-baseline="middle">ht</text>
  <text x="60" y="275" fill="white" font-family="sans-serif" font-weight="bold" font-size="12" text-anchor="end" dominant-baseline="middle">kmeans</text>
  <text x="60" y="310" fill="white" font-family="sans-serif" font-weight="bold" font-size="12" text-anchor="end" dominant-baseline="middle">llsq</text>
  <text x="60" y="345" fill="white" font-family="sans-serif" font-weight="bold" font-size="12" text-anchor="end" dominant-baseline="middle">lse</text>
  <text x="60" y="380" fill="white" font-family="sans-serif" font-weight="bold" font-size="12" text-anchor="end" dominant-baseline="middle">lstm</text>
  <text x="60" y="415" fill="white" font-family="sans-serif" font-weight="bold" font-size="12" text-anchor="end" dominant-baseline="middle">ode</text>
  <text x="60" y="450" fill="white" font-family="sans-serif" font-weight="bold" font-size="12" text-anchor="end" dominant-baseline="middle">particle</text>
  <text x="60" y="485" fill="white" font-family="sans-serif" font-weight="bold" font-size="12" text-anchor="end" dominant-baseline="middle">saddle</text>
  <text x="80" y="80" fill="white" font-family="sans-serif" font-weight="bold" font-size="12" text-anchor="end" dominant-baseline="middle" transform="rotate(90 80 80)">ad-hpp</text>
  <text x="115" y="80" fill="white" font-family="sans-serif" font-weight="bold" font-size="12" text-anchor="end" dominant-baseline="middle" transform="rotate(90 115 80)">adept</text>
  <text x="150" y="80" fill="white" font-family="sans-serif" font-weight="bold" font-size="12" text-anchor="end" dominant-baseline="middle" transform="rotate(90 150 80)">adol-c</text>
  <text x="185" y="80" fill="white" font-family="sans-serif" font-weight="bold" font-size="12" text-anchor="end" dominant-baseline="middle" transform="rotate(90 185 80)">codipack</text>
  <text x="220" y="80" fill="white" font-family="sans-serif" font-weight="bold" font-size="12" text-anchor="end" dominant-baseline="middle" transform="rotate(90 220 80)">cppad</text>
  <text x="255" y="80" fill="white" font-family="sans-serif" font-weight="bold" font-size="12" text-anchor="end" dominant-baseline="middle" transform="rotate(90 255 80)">enzyme</text>
  <text x="290" y="80" fill="white" font-family="sans-serif" font-weight="bold" font-size="12" text-anchor="end" dominant-baseline="middle" transform="rotate(90 290 80)">enzyme-jl</text>
  <text x="325" y="80" fill="white" font-family="sans-serif" font-weight="bold" font-size="12" text-anchor="end" dominant-baseline="middle" transform="rotate(90 325 80)">finite</text>
  <text x="360" y="80" fill="white" font-family="sans-serif" font-weight="bold" font-size="12" text-anchor="end" dominant-baseline="middle" transform="rotate(90 360 80)">floretta</text>
  <text x="395" y="80" fill="white" font-family="sans-serif" font-weight="bold" font-size="12" text-anchor="end" dominant-baseline="middle" transform="rotate(90 395 80)">futhark</text>
  <text x="430" y="80" fill="white" font-family="sans-serif" font-weight="bold" font-size="12" text-anchor="end" dominant-baseline="middle" transform="rotate(90 430 80)">haskell</text>
  <text x="465" y="80" fill="white" font-family="sans-serif" font-weight="bold" font-size="12" text-anchor="end" dominant-baseline="middle" transform="rotate(90 465 80)">jax</text>
  <text x="500" y="80" fill="white" font-family="sans-serif" font-weight="bold" font-size="12" text-anchor="end" dominant-baseline="middle" transform="rotate(90 500 80)">manual</text>
  <text x="535" y="80" fill="white" font-family="sans-serif" font-weight="bold" font-size="12" text-anchor="end" dominant-baseline="middle" transform="rotate(90 535 80)">ocaml</text>
  <text x="570" y="80" fill="white" font-family="sans-serif" font-weight="bold" font-size="12" text-anchor="end" dominant-baseline="middle" transform="rotate(90 570 80)">pytorch</text>
  <text x="605" y="80" fill="white" font-family="sans-serif" font-weight="bold" font-size="12" text-anchor="end" dominant-baseline="middle" transform="rotate(90 605 80)">scilean</text>
  <text x="640" y="80" fill="white" font-family="sans-serif" font-weight="bold" font-size="12" text-anchor="end" dominant-baseline="middle" transform="rotate(90 640 80)">tapenade</text>
  <text x="675" y="80" fill="white" font-family="sans-serif" font-weight="bold" font-size="12" text-anchor="end" dominant-baseline="middle" transform="rotate(90 675 80)">tensorflow</text>
  <text x="710" y="80" fill="white" font-family="sans-serif" font-weight="bold" font-size="12" text-anchor="end" dominant-baseline="middle" transform="rotate(90 710 80)">zygote</text>
  <rect x="65" y="85" width="30" height="30" fill="hsl(240 100% 78.4981153051497%)" />
  <rect x="100" y="85" width="30" height="30" fill="hsl(240 100% 83.47613897667512%)" />
  <rect x="135" y="85" width="30" height="30" fill="hsl(240 100% 97.84932002980365%)" />
  <rect x="170" y="85" width="30" height="30" fill="hsl(240 100% 89.0989425241349%)" />
  <rect x="205" y="85" width="30" height="30" fill="hsl(240 100% 98.90490284643225%)" />
  <rect x="240" y="85" width="30" height="30" fill="hsl(240 100% 51.11495257164728%)" />
  <rect x="310" y="85" width="30" height="30" fill="hsl(240 100% 92.67450604451433%)" />
  <rect x="380" y="85" width="30" height="30" fill="hsl(240 100% 68.61809062331041%)" />
  <rect x="485" y="85" width="30" height="30" fill="hsl(240 100% 50%)" />
  <rect x="555" y="85" width="30" height="30" fill="rgb(255 255 255 / 50%)" />
  <rect x="625" y="85" width="30" height="30" fill="hsl(240 100% 72.8302171499993%)" />
  <rect x="660" y="85" width="30" height="30" fill="rgb(255 255 255 / 50%)" />
  <rect x="695" y="85" width="30" height="30" fill="hsl(240 100% 99.7031002384664%)" />
  <rect x="65" y="120" width="30" height="30" fill="hsl(240 100% 50%)" />
  <rect x="100" y="120" width="30" height="30" fill="hsl(240 100% 84.61758042795458%)" />
  <rect x="135" y="120" width="30" height="30" fill="hsl(240 100% 86.11200704057961%)" />
  <rect x="170" y="120" width="30" height="30" fill="hsl(240 100% 51.72667931252653%)" />
  <rect x="205" y="120" width="30" height="30" fill="hsl(240 100% 92.95181594275019%)" />
  <rect x="240" y="120" width="30" height="30" fill="hsl(240 100% 91.97448280424094%)" />
  <rect x="275" y="120" width="30" height="30" fill="hsl(240 100% 99.18529390225552%)" />
  <rect x="310" y="120" width="30" height="30" fill="hsl(240 100% 99.03759162313247%)" />
  <rect x="380" y="120" width="30" height="30" fill="hsl(240 100% 94.87720390346266%)" />
  <rect x="415" y="120" width="30" height="30" fill="hsl(240 100% 98.01884775288299%)" />
  <rect x="485" y="120" width="30" height="30" fill="hsl(240 100% 80.20816784856262%)" />
  <rect x="695" y="120" width="30" height="30" fill="rgb(255 255 255 / 50%)" />
  <rect x="65" y="155" width="30" height="30" fill="hsl(240 100% 96.96442122722453%)" />
  <rect x="100" y="155" width="30" height="30" fill="hsl(240 100% 98.16718735129027%)" />
  <rect x="135" y="155" width="30" height="30" fill="hsl(240 100% 98.81684252361799%)" />
  <rect x="170" y="155" width="30" height="30" fill="hsl(240 100% 97.05512316716484%)" />
  <rect x="205" y="155" width="30" height="30" fill="hsl(240 100% 99.7493272908839%)" />
  <rect x="240" y="155" width="30" height="30" fill="hsl(240 100% 86.1318151779765%)" />
  <rect x="275" y="155" width="30" height="30" fill="hsl(240 100% 99.81228390440235%)" />
  <rect x="310" y="155" width="30" height="30" fill="rgb(255 255 255 / 50%)" />
  <rect x="380" y="155" width="30" height="30" fill="hsl(240 100% 89.30364632410807%)" />
  <rect x="450" y="155" width="30" height="30" fill="hsl(240 100% 68.01685652024224%)" />
  <rect x="485" y="155" width="30" height="30" fill="hsl(240 100% 73.80206439103553%)" />
  <rect x="520" y="155" width="30" height="30" fill="hsl(240 100% 99.31143982807303%)" />
  <rect x="555" y="155" width="30" height="30" fill="hsl(240 100% 50%)" />
  <rect x="590" y="155" width="30" height="30" fill="hsl(240 100% 92.21740156681216%)" />
  <rect x="625" y="155" width="30" height="30" fill="hsl(240 100% 74.7072496533919%)" />
  <rect x="660" y="155" width="30" height="30" fill="hsl(240 100% 88.01602347942617%)" />
  <rect x="695" y="155" width="30" height="30" fill="hsl(240 100% 99.30347371013698%)" />
  <rect x="65" y="190" width="30" height="30" fill="hsl(240 100% 50%)" />
  <rect x="100" y="190" width="30" height="30" fill="hsl(240 100% 50%)" />
  <rect x="135" y="190" width="30" height="30" fill="hsl(240 100% 50%)" />
  <rect x="170" y="190" width="30" height="30" fill="hsl(240 100% 50%)" />
  <rect x="205" y="190" width="30" height="30" fill="hsl(240 100% 50%)" />
  <rect x="240" y="190" width="30" height="30" fill="hsl(240 100% 50%)" />
  <rect x="275" y="190" width="30" height="30" fill="hsl(240 100% 50%)" />
  <rect x="310" y="190" width="30" height="30" fill="hsl(240 100% 50%)" />
  <rect x="345" y="190" width="30" height="30" fill="hsl(240 100% 50%)" />
  <rect x="380" y="190" width="30" height="30" fill="hsl(240 100% 50%)" />
  <rect x="415" y="190" width="30" height="30" fill="hsl(240 100% 50%)" />
  <rect x="450" y="190" width="30" height="30" fill="hsl(240 100% 50%)" />
  <rect x="485" y="190" width="30" height="30" fill="hsl(240 100% 50%)" />
  <rect x="520" y="190" width="30" height="30" fill="hsl(240 100% 50%)" />
  <rect x="555" y="190" width="30" height="30" fill="hsl(240 100% 50%)" />
  <rect x="590" y="190" width="30" height="30" fill="hsl(240 100% 50%)" />
  <rect x="625" y="190" width="30" height="30" fill="hsl(240 100% 50%)" />
  <rect x="660" y="190" width="30" height="30" fill="hsl(240 100% 50%)" />
  <rect x="695" y="190" width="30" height="30" fill="hsl(240 100% 50%)" />
  <rect x="100" y="225" width="30" height="30" fill="hsl(240 100% 96.11185099533913%)" />
  <rect x="135" y="225" width="30" height="30" fill="hsl(240 100% 90.20616418967637%)" />
  <rect x="170" y="225" width="30" height="30" fill="hsl(240 100% 88.53394686088073%)" />
  <rect x="240" y="225" width="30" height="30" fill="hsl(240 100% 90.40968390015539%)" />
  <rect x="310" y="225" width="30" height="30" fill="rgb(255 255 255 / 50%)" />
  <rect x="380" y="225" width="30" height="30" fill="hsl(240 100% 89.84566154453074%)" />
  <rect x="485" y="225" width="30" height="30" fill="hsl(240 100% 50%)" />
  <rect x="555" y="225" width="30" height="30" fill="rgb(255 255 255 / 50%)" />
  <rect x="625" y="225" width="30" height="30" fill="rgb(255 255 255 / 50%)" />
  <rect x="660" y="225" width="30" height="30" fill="rgb(255 255 255 / 50%)" />
  <rect x="695" y="225" width="30" height="30" fill="hsl(240 100% 99.43467602058593%)" />
  <rect x="135" y="260" width="30" height="30" fill="hsl(240 100% 99.91602182396205%)" />
  <rect x="170" y="260" width="30" height="30" fill="hsl(240 100% 99.35142093286167%)" />
  <rect x="205" y="260" width="30" height="30" fill="rgb(255 255 255 / 50%)" />
  <rect x="240" y="260" width="30" height="30" fill="hsl(240 100% 87.85029800602699%)" />
  <rect x="310" y="260" width="30" height="30" fill="rgb(255 255 255 / 50%)" />
  <rect x="380" y="260" width="30" height="30" fill="hsl(240 100% 82.73303874639714%)" />
  <rect x="415" y="260" width="30" height="30" fill="rgb(255 255 255 / 50%)" />
  <rect x="450" y="260" width="30" height="30" fill="hsl(240 100% 50%)" />
  <rect x="485" y="260" width="30" height="30" fill="hsl(240 100% 76.44161514540968%)" />
  <rect x="555" y="260" width="30" height="30" fill="hsl(240 100% 96.89709292795138%)" />
  <rect x="590" y="260" width="30" height="30" fill="hsl(240 100% 94.09604355234482%)" />
  <rect x="65" y="295" width="30" height="30" fill="hsl(240 100% 58.873631500997725%)" />
  <rect x="100" y="295" width="30" height="30" fill="hsl(240 100% 66.35180778003244%)" />
  <rect x="135" y="295" width="30" height="30" fill="hsl(240 100% 58.64403419146982%)" />
  <rect x="170" y="295" width="30" height="30" fill="hsl(240 100% 60.073814507879305%)" />
  <rect x="205" y="295" width="30" height="30" fill="hsl(240 100% 90.72294381602225%)" />
  <rect x="240" y="295" width="30" height="30" fill="hsl(240 100% 50%)" />
  <rect x="275" y="295" width="30" height="30" fill="hsl(240 100% 98.84503193822765%)" />
  <rect x="310" y="295" width="30" height="30" fill="hsl(240 100% 99.42584999791245%)" />
  <rect x="380" y="295" width="30" height="30" fill="hsl(240 100% 50.475341883408134%)" />
  <rect x="415" y="295" width="30" height="30" fill="hsl(240 100% 89.73093663080759%)" />
  <rect x="485" y="295" width="30" height="30" fill="hsl(240 100% 53.401386827536314%)" />
  <rect x="590" y="295" width="30" height="30" fill="hsl(240 100% 55.248135586994046%)" />
  <rect x="695" y="295" width="30" height="30" fill="hsl(240 100% 99.7318190876002%)" />
  <rect x="65" y="330" width="30" height="30" fill="hsl(240 100% 89.27784260712738%)" />
  <rect x="100" y="330" width="30" height="30" fill="hsl(240 100% 94.64879808175878%)" />
  <rect x="135" y="330" width="30" height="30" fill="hsl(240 100% 97.27953998468575%)" />
  <rect x="170" y="330" width="30" height="30" fill="hsl(240 100% 89.31876835500435%)" />
  <rect x="205" y="330" width="30" height="30" fill="hsl(240 100% 99.2092344341141%)" />
  <rect x="240" y="330" width="30" height="30" fill="hsl(240 100% 81.7148723056396%)" />
  <rect x="275" y="330" width="30" height="30" fill="hsl(240 100% 99.82721044037197%)" />
  <rect x="310" y="330" width="30" height="30" fill="rgb(255 255 255 / 50%)" />
  <rect x="380" y="330" width="30" height="30" fill="hsl(240 100% 85.71096761981997%)" />
  <rect x="415" y="330" width="30" height="30" fill="hsl(240 100% 99.81077937099445%)" />
  <rect x="450" y="330" width="30" height="30" fill="hsl(240 100% 70.86292867966694%)" />
  <rect x="485" y="330" width="30" height="30" fill="hsl(240 100% 78.76565352732462%)" />
  <rect x="520" y="330" width="30" height="30" fill="hsl(240 100% 93.7975796372493%)" />
  <rect x="555" y="330" width="30" height="30" fill="hsl(240 100% 50%)" />
  <rect x="660" y="330" width="30" height="30" fill="hsl(240 100% 88.85877592187511%)" />
  <rect x="695" y="330" width="30" height="30" fill="hsl(240 100% 95.49540244771211%)" />
  <rect x="65" y="365" width="30" height="30" fill="hsl(240 100% 53.22732782980496%)" />
  <rect x="100" y="365" width="30" height="30" fill="hsl(240 100% 68.90212565766551%)" />
  <rect x="135" y="365" width="30" height="30" fill="hsl(240 100% 80.23313571035071%)" />
  <rect x="170" y="365" width="30" height="30" fill="hsl(240 100% 50%)" />
  <rect x="205" y="365" width="30" height="30" fill="hsl(240 100% 95.80237870151309%)" />
  <rect x="240" y="365" width="30" height="30" fill="hsl(240 100% 50.289077085051154%)" />
  <rect x="275" y="365" width="30" height="30" fill="hsl(240 100% 98.87309478692923%)" />
  <rect x="310" y="365" width="30" height="30" fill="hsl(240 100% 99.85123295214457%)" />
  <rect x="380" y="365" width="30" height="30" fill="hsl(240 100% 63.901534760183445%)" />
  <rect x="485" y="365" width="30" height="30" fill="hsl(240 100% 84.49067268922778%)" />
  <rect x="555" y="365" width="30" height="30" fill="hsl(240 100% 99.5933130818059%)" />
  <rect x="625" y="365" width="30" height="30" fill="hsl(240 100% 59.93850140695101%)" />
  <rect x="660" y="365" width="30" height="30" fill="hsl(240 100% 97.93968618528004%)" />
  <rect x="695" y="365" width="30" height="30" fill="hsl(240 100% 99.08159164442237%)" />
  <rect x="65" y="400" width="30" height="30" fill="hsl(240 100% 97.84982117128087%)" />
  <rect x="100" y="400" width="30" height="30" fill="hsl(240 100% 99.33577122667278%)" />
  <rect x="135" y="400" width="30" height="30" fill="hsl(240 100% 99.63180264791062%)" />
  <rect x="170" y="400" width="30" height="30" fill="hsl(240 100% 94.58371061818207%)" />
  <rect x="205" y="400" width="30" height="30" fill="hsl(240 100% 99.10674818376154%)" />
  <rect x="240" y="400" width="30" height="30" fill="hsl(240 100% 87.88247415607478%)" />
  <rect x="275" y="400" width="30" height="30" fill="hsl(240 100% 99.17064360755712%)" />
  <rect x="310" y="400" width="30" height="30" fill="rgb(255 255 255 / 50%)" />
  <rect x="380" y="400" width="30" height="30" fill="hsl(240 100% 95.94968646763336%)" />
  <rect x="415" y="400" width="30" height="30" fill="hsl(240 100% 99.96619803651647%)" />
  <rect x="485" y="400" width="30" height="30" fill="hsl(240 100% 50%)" />
  <rect x="695" y="400" width="30" height="30" fill="hsl(240 100% 99.68172641274677%)" />
  <rect x="240" y="435" width="30" height="30" fill="hsl(240 100% 50%)" />
  <rect x="310" y="435" width="30" height="30" fill="hsl(240 100% 95.26515404936094%)" />
  <rect x="380" y="435" width="30" height="30" fill="hsl(240 100% 88.05653836668641%)" />
  <rect x="415" y="435" width="30" height="30" fill="hsl(240 100% 99.78083432095782%)" />
  <rect x="240" y="470" width="30" height="30" fill="hsl(240 100% 50%)" />
  <rect x="310" y="470" width="30" height="30" fill="hsl(240 100% 95.83568899146593%)" />
  <rect x="380" y="470" width="30" height="30" fill="hsl(240 100% 89.2733941393312%)" />
  <rect x="415" y="470" width="30" height="30" fill="hsl(240 100% 99.57298238402343%)" />
</svg>
