<svg xmlns="http://www.w3.org/2000/svg" viewBox="0 0 730 505">
  <rect x="0" y="0" width="730" height="505" rx="5" ry="5" fill="#222" />
  <text x="60" y="100" fill="white" font-family="sans-serif" font-weight="bold" font-size="12" text-anchor="end" dominant-baseline="middle">ba</text>
  <text x="60" y="135" fill="white" font-family="sans-serif" font-weight="bold" font-size="12" text-anchor="end" dominant-baseline="middle">det</text>
  <text x="60" y="170" fill="white" font-family="sans-serif" font-weight="bold" font-size="12" text-anchor="end" dominant-baseline="middle">gmm</text>
  <text x="60" y="205" fill="white" font-family="sans-serif" font-weight="bold" font-size="12" text-anchor="end" dominant-baseline="middle">hello</text>
  <text x="60" y="240" fill="white" font-family="sans-serif" font-weight="bold" font-size="12" text-anchor="end" dominant-baseline="middle">ht</text>
  <text x="60" y="275" fill="white" font-family="sans-serif" font-weight="bold" font-size="12" text-anchor="end" dominant-baseline="middle">kmeans</text>
  <text x="60" y="310" fill="white" font-family="sans-serif" font-weight="bold" font-size="12" text-anchor="end" dominant-baseline="middle">llsq</text>
  <text x="60" y="345" fill="white" font-family="sans-serif" font-weight="bold" font-size="12" text-anchor="end" dominant-baseline="middle">lse</text>
  <text x="60" y="380" fill="white" font-family="sans-serif" font-weight="bold" font-size="12" text-anchor="end" dominant-baseline="middle">lstm</text>
  <text x="60" y="415" fill="white" font-family="sans-serif" font-weight="bold" font-size="12" text-anchor="end" dominant-baseline="middle">ode</text>
  <text x="60" y="450" fill="white" font-family="sans-serif" font-weight="bold" font-size="12" text-anchor="end" dominant-baseline="middle">particle</text>
  <text x="60" y="485" fill="white" font-family="sans-serif" font-weight="bold" font-size="12" text-anchor="end" dominant-baseline="middle">saddle</text>
  <text x="80" y="80" fill="white" font-family="sans-serif" font-weight="bold" font-size="12" text-anchor="end" dominant-baseline="middle" transform="rotate(90 80 80)">ad-hpp</text>
  <text x="115" y="80" fill="white" font-family="sans-serif" font-weight="bold" font-size="12" text-anchor="end" dominant-baseline="middle" transform="rotate(90 115 80)">adept</text>
  <text x="150" y="80" fill="white" font-family="sans-serif" font-weight="bold" font-size="12" text-anchor="end" dominant-baseline="middle" transform="rotate(90 150 80)">adol-c</text>
  <text x="185" y="80" fill="white" font-family="sans-serif" font-weight="bold" font-size="12" text-anchor="end" dominant-baseline="middle" transform="rotate(90 185 80)">codipack</text>
  <text x="220" y="80" fill="white" font-family="sans-serif" font-weight="bold" font-size="12" text-anchor="end" dominant-baseline="middle" transform="rotate(90 220 80)">cppad</text>
  <text x="255" y="80" fill="white" font-family="sans-serif" font-weight="bold" font-size="12" text-anchor="end" dominant-baseline="middle" transform="rotate(90 255 80)">enzyme</text>
  <text x="290" y="80" fill="white" font-family="sans-serif" font-weight="bold" font-size="12" text-anchor="end" dominant-baseline="middle" transform="rotate(90 290 80)">enzyme-jl</text>
  <text x="325" y="80" fill="white" font-family="sans-serif" font-weight="bold" font-size="12" text-anchor="end" dominant-baseline="middle" transform="rotate(90 325 80)">finite</text>
  <text x="360" y="80" fill="white" font-family="sans-serif" font-weight="bold" font-size="12" text-anchor="end" dominant-baseline="middle" transform="rotate(90 360 80)">floretta</text>
  <text x="395" y="80" fill="white" font-family="sans-serif" font-weight="bold" font-size="12" text-anchor="end" dominant-baseline="middle" transform="rotate(90 395 80)">futhark</text>
  <text x="430" y="80" fill="white" font-family="sans-serif" font-weight="bold" font-size="12" text-anchor="end" dominant-baseline="middle" transform="rotate(90 430 80)">haskell</text>
  <text x="465" y="80" fill="white" font-family="sans-serif" font-weight="bold" font-size="12" text-anchor="end" dominant-baseline="middle" transform="rotate(90 465 80)">jax</text>
  <text x="500" y="80" fill="white" font-family="sans-serif" font-weight="bold" font-size="12" text-anchor="end" dominant-baseline="middle" transform="rotate(90 500 80)">manual</text>
  <text x="535" y="80" fill="white" font-family="sans-serif" font-weight="bold" font-size="12" text-anchor="end" dominant-baseline="middle" transform="rotate(90 535 80)">ocaml</text>
  <text x="570" y="80" fill="white" font-family="sans-serif" font-weight="bold" font-size="12" text-anchor="end" dominant-baseline="middle" transform="rotate(90 570 80)">pytorch</text>
  <text x="605" y="80" fill="white" font-family="sans-serif" font-weight="bold" font-size="12" text-anchor="end" dominant-baseline="middle" transform="rotate(90 605 80)">scilean</text>
  <text x="640" y="80" fill="white" font-family="sans-serif" font-weight="bold" font-size="12" text-anchor="end" dominant-baseline="middle" transform="rotate(90 640 80)">tapenade</text>
  <text x="675" y="80" fill="white" font-family="sans-serif" font-weight="bold" font-size="12" text-anchor="end" dominant-baseline="middle" transform="rotate(90 675 80)">tensorflow</text>
  <text x="710" y="80" fill="white" font-family="sans-serif" font-weight="bold" font-size="12" text-anchor="end" dominant-baseline="middle" transform="rotate(90 710 80)">zygote</text>
  <rect x="65" y="85" width="30" height="30" fill="hsl(240 100% 78.01001094879472%)" />
  <rect x="100" y="85" width="30" height="30" fill="hsl(240 100% 82.8126297563187%)" />
  <rect x="135" y="85" width="30" height="30" fill="hsl(240 100% 97.77912337420196%)" />
  <rect x="170" y="85" width="30" height="30" fill="hsl(240 100% 88.98953098338573%)" />
  <rect x="205" y="85" width="30" height="30" fill="hsl(240 100% 98.87578543641176%)" />
  <rect x="240" y="85" width="30" height="30" fill="hsl(240 100% 50%)" />
  <rect x="310" y="85" width="30" height="30" fill="hsl(240 100% 92.50286486018234%)" />
  <rect x="380" y="85" width="30" height="30" fill="hsl(240 100% 68.02554408405524%)" />
  <rect x="485" y="85" width="30" height="30" fill="hsl(240 100% 58.215055874611785%)" />
  <rect x="555" y="85" width="30" height="30" fill="rgb(255 255 255 / 50%)" />
  <rect x="625" y="85" width="30" height="30" fill="hsl(240 100% 73.06564603786792%)" />
  <rect x="660" y="85" width="30" height="30" fill="rgb(255 255 255 / 50%)" />
  <rect x="695" y="85" width="30" height="30" fill="hsl(240 100% 99.69140405893961%)" />
  <rect x="65" y="120" width="30" height="30" fill="hsl(240 100% 50%)" />
  <rect x="100" y="120" width="30" height="30" fill="hsl(240 100% 84.3095830165002%)" />
  <rect x="135" y="120" width="30" height="30" fill="hsl(240 100% 85.83232224832426%)" />
  <rect x="170" y="120" width="30" height="30" fill="hsl(240 100% 52.077491663471484%)" />
  <rect x="205" y="120" width="30" height="30" fill="hsl(240 100% 92.95201821355987%)" />
  <rect x="240" y="120" width="30" height="30" fill="hsl(240 100% 92.14998868828866%)" />
  <rect x="275" y="120" width="30" height="30" fill="hsl(240 100% 99.25438633637825%)" />
  <rect x="310" y="120" width="30" height="30" fill="hsl(240 100% 99.01101027347799%)" />
  <rect x="380" y="120" width="30" height="30" fill="hsl(240 100% 94.93170770459538%)" />
  <rect x="415" y="120" width="30" height="30" fill="hsl(240 100% 98.0178621100377%)" />
  <rect x="485" y="120" width="30" height="30" fill="hsl(240 100% 80.24954637644409%)" />
  <rect x="695" y="120" width="30" height="30" fill="rgb(255 255 255 / 50%)" />
  <rect x="65" y="155" width="30" height="30" fill="hsl(240 100% 97.2529493207446%)" />
  <rect x="100" y="155" width="30" height="30" fill="hsl(240 100% 98.3405190445008%)" />
  <rect x="135" y="155" width="30" height="30" fill="hsl(240 100% 98.81148114121012%)" />
  <rect x="170" y="155" width="30" height="30" fill="hsl(240 100% 97.35277772232779%)" />
  <rect x="205" y="155" width="30" height="30" fill="hsl(240 100% 99.7772731807708%)" />
  <rect x="240" y="155" width="30" height="30" fill="hsl(240 100% 87.36631346365178%)" />
  <rect x="275" y="155" width="30" height="30" fill="hsl(240 100% 99.83311503715667%)" />
  <rect x="310" y="155" width="30" height="30" fill="rgb(255 255 255 / 50%)" />
  <rect x="380" y="155" width="30" height="30" fill="hsl(240 100% 90.303381887681%)" />
  <rect x="450" y="155" width="30" height="30" fill="hsl(240 100% 71.117389381595%)" />
  <rect x="485" y="155" width="30" height="30" fill="hsl(240 100% 76.31788492447228%)" />
  <rect x="520" y="155" width="30" height="30" fill="hsl(240 100% 99.38999786329045%)" />
  <rect x="555" y="155" width="30" height="30" fill="hsl(240 100% 50%)" />
  <rect x="590" y="155" width="30" height="30" fill="hsl(240 100% 92.848733649135%)" />
  <rect x="625" y="155" width="30" height="30" fill="hsl(240 100% 76.84135896316413%)" />
  <rect x="660" y="155" width="30" height="30" fill="hsl(240 100% 89.06055199270935%)" />
  <rect x="695" y="155" width="30" height="30" fill="hsl(240 100% 99.37438477477085%)" />
  <rect x="65" y="190" width="30" height="30" fill="hsl(240 100% 50%)" />
  <rect x="100" y="190" width="30" height="30" fill="hsl(240 100% 50%)" />
  <rect x="135" y="190" width="30" height="30" fill="hsl(240 100% 50%)" />
  <rect x="170" y="190" width="30" height="30" fill="hsl(240 100% 50%)" />
  <rect x="205" y="190" width="30" height="30" fill="hsl(240 100% 50%)" />
  <rect x="240" y="190" width="30" height="30" fill="hsl(240 100% 50%)" />
  <rect x="275" y="190" width="30" height="30" fill="hsl(240 100% 50%)" />
  <rect x="310" y="190" width="30" height="30" fill="hsl(240 100% 50%)" />
  <rect x="345" y="190" width="30" height="30" fill="hsl(240 100% 50%)" />
  <rect x="380" y="190" width="30" height="30" fill="hsl(240 100% 50%)" />
  <rect x="415" y="190" width="30" height="30" fill="hsl(240 100% 50%)" />
  <rect x="450" y="190" width="30" height="30" fill="hsl(240 100% 50%)" />
  <rect x="485" y="190" width="30" height="30" fill="hsl(240 100% 50%)" />
  <rect x="520" y="190" width="30" height="30" fill="hsl(240 100% 50%)" />
  <rect x="555" y="190" width="30" height="30" fill="hsl(240 100% 50%)" />
  <rect x="590" y="190" width="30" height="30" fill="hsl(240 100% 50%)" />
  <rect x="625" y="190" width="30" height="30" fill="hsl(240 100% 50%)" />
  <rect x="660" y="190" width="30" height="30" fill="hsl(240 100% 50%)" />
  <rect x="695" y="190" width="30" height="30" fill="hsl(240 100% 50%)" />
  <rect x="100" y="225" width="30" height="30" fill="hsl(240 100% 96.08968332562102%)" />
  <rect x="135" y="225" width="30" height="30" fill="hsl(240 100% 90.21759033846848%)" />
  <rect x="170" y="225" width="30" height="30" fill="hsl(240 100% 88.55505473959307%)" />
  <rect x="240" y="225" width="30" height="30" fill="hsl(240 100% 90.35164121678987%)" />
  <rect x="310" y="225" width="30" height="30" fill="rgb(255 255 255 / 50%)" />
  <rect x="380" y="225" width="30" height="30" fill="hsl(240 100% 89.74565578872183%)" />
  <rect x="485" y="225" width="30" height="30" fill="hsl(240 100% 50%)" />
  <rect x="555" y="225" width="30" height="30" fill="rgb(255 255 255 / 50%)" />
  <rect x="625" y="225" width="30" height="30" fill="rgb(255 255 255 / 50%)" />
  <rect x="660" y="225" width="30" height="30" fill="rgb(255 255 255 / 50%)" />
  <rect x="695" y="225" width="30" height="30" fill="hsl(240 100% 99.46166521490709%)" />
  <rect x="135" y="260" width="30" height="30" fill="hsl(240 100% 99.91325521397378%)" />
  <rect x="170" y="260" width="30" height="30" fill="hsl(240 100% 99.35431760076555%)" />
  <rect x="205" y="260" width="30" height="30" fill="rgb(255 255 255 / 50%)" />
  <rect x="240" y="260" width="30" height="30" fill="hsl(240 100% 88.21340427385067%)" />
  <rect x="310" y="260" width="30" height="30" fill="rgb(255 255 255 / 50%)" />
  <rect x="380" y="260" width="30" height="30" fill="hsl(240 100% 83.04136331806671%)" />
  <rect x="415" y="260" width="30" height="30" fill="rgb(255 255 255 / 50%)" />
  <rect x="450" y="260" width="30" height="30" fill="hsl(240 100% 50%)" />
  <rect x="485" y="260" width="30" height="30" fill="hsl(240 100% 76.6280000452886%)" />
  <rect x="555" y="260" width="30" height="30" fill="hsl(240 100% 96.98453380286226%)" />
  <rect x="590" y="260" width="30" height="30" fill="hsl(240 100% 94.1917018056%)" />
  <rect x="65" y="295" width="30" height="30" fill="hsl(240 100% 59.78738534221395%)" />
  <rect x="100" y="295" width="30" height="30" fill="hsl(240 100% 67.38669887840095%)" />
  <rect x="135" y="295" width="30" height="30" fill="hsl(240 100% 60.0045088449882%)" />
  <rect x="170" y="295" width="30" height="30" fill="hsl(240 100% 61.0155551190971%)" />
  <rect x="205" y="295" width="30" height="30" fill="hsl(240 100% 91.6182147239952%)" />
  <rect x="240" y="295" width="30" height="30" fill="hsl(240 100% 50%)" />
  <rect x="275" y="295" width="30" height="30" fill="hsl(240 100% 98.87163362228813%)" />
  <rect x="310" y="295" width="30" height="30" fill="hsl(240 100% 99.44373123455335%)" />
  <rect x="380" y="295" width="30" height="30" fill="hsl(240 100% 51.95554066225522%)" />
  <rect x="415" y="295" width="30" height="30" fill="hsl(240 100% 90.27533762119532%)" />
  <rect x="485" y="295" width="30" height="30" fill="hsl(240 100% 54.78931399012914%)" />
  <rect x="590" y="295" width="30" height="30" fill="hsl(240 100% 56.53673982661497%)" />
  <rect x="695" y="295" width="30" height="30" fill="hsl(240 100% 99.73417153352268%)" />
  <rect x="65" y="330" width="30" height="30" fill="hsl(240 100% 88.79097158708007%)" />
  <rect x="100" y="330" width="30" height="30" fill="hsl(240 100% 94.29864269731104%)" />
  <rect x="135" y="330" width="30" height="30" fill="hsl(240 100% 97.09479744534492%)" />
  <rect x="170" y="330" width="30" height="30" fill="hsl(240 100% 89.00451120694943%)" />
  <rect x="205" y="330" width="30" height="30" fill="hsl(240 100% 99.16583929109872%)" />
  <rect x="240" y="330" width="30" height="30" fill="hsl(240 100% 79.51150282069672%)" />
  <rect x="275" y="330" width="30" height="30" fill="hsl(240 100% 99.81359475452501%)" />
  <rect x="310" y="330" width="30" height="30" fill="rgb(255 255 255 / 50%)" />
  <rect x="380" y="330" width="30" height="30" fill="hsl(240 100% 85.19115213488215%)" />
  <rect x="415" y="330" width="30" height="30" fill="hsl(240 100% 99.8002185949325%)" />
  <rect x="450" y="330" width="30" height="30" fill="hsl(240 100% 70.05491047669113%)" />
  <rect x="485" y="330" width="30" height="30" fill="hsl(240 100% 77.41385218081717%)" />
  <rect x="520" y="330" width="30" height="30" fill="hsl(240 100% 93.47631884091469%)" />
  <rect x="555" y="330" width="30" height="30" fill="hsl(240 100% 50%)" />
  <rect x="660" y="330" width="30" height="30" fill="hsl(240 100% 88.80800718980277%)" />
  <rect x="695" y="330" width="30" height="30" fill="hsl(240 100% 94.90164511087823%)" />
  <rect x="65" y="365" width="30" height="30" fill="hsl(240 100% 53.73290182877161%)" />
  <rect x="100" y="365" width="30" height="30" fill="hsl(240 100% 69.18687655353509%)" />
  <rect x="135" y="365" width="30" height="30" fill="hsl(240 100% 81.82985836314268%)" />
  <rect x="170" y="365" width="30" height="30" fill="hsl(240 100% 50%)" />
  <rect x="205" y="365" width="30" height="30" fill="hsl(240 100% 95.80164960644142%)" />
  <rect x="240" y="365" width="30" height="30" fill="hsl(240 100% 51.03876767700915%)" />
  <rect x="275" y="365" width="30" height="30" fill="hsl(240 100% 98.90986562654356%)" />
  <rect x="310" y="365" width="30" height="30" fill="hsl(240 100% 99.85142546317914%)" />
  <rect x="380" y="365" width="30" height="30" fill="hsl(240 100% 63.635406147912796%)" />
  <rect x="485" y="365" width="30" height="30" fill="hsl(240 100% 84.77603831338317%)" />
  <rect x="555" y="365" width="30" height="30" fill="hsl(240 100% 99.59889301166953%)" />
  <rect x="625" y="365" width="30" height="30" fill="hsl(240 100% 60.24123815976912%)" />
  <rect x="660" y="365" width="30" height="30" fill="hsl(240 100% 98.01701947985653%)" />
  <rect x="695" y="365" width="30" height="30" fill="hsl(240 100% 99.11728401759753%)" />
  <rect x="65" y="400" width="30" height="30" fill="hsl(240 100% 97.83554446787019%)" />
  <rect x="100" y="400" width="30" height="30" fill="hsl(240 100% 99.30811446117772%)" />
  <rect x="135" y="400" width="30" height="30" fill="hsl(240 100% 99.62471655035881%)" />
  <rect x="170" y="400" width="30" height="30" fill="hsl(240 100% 94.575946946392%)" />
  <rect x="205" y="400" width="30" height="30" fill="hsl(240 100% 99.11779250836308%)" />
  <rect x="240" y="400" width="30" height="30" fill="hsl(240 100% 88.38790553151608%)" />
  <rect x="275" y="400" width="30" height="30" fill="hsl(240 100% 99.13071578112532%)" />
  <rect x="310" y="400" width="30" height="30" fill="rgb(255 255 255 / 50%)" />
  <rect x="380" y="400" width="30" height="30" fill="hsl(240 100% 95.99336558463212%)" />
  <rect x="415" y="400" width="30" height="30" fill="hsl(240 100% 99.96856615846377%)" />
  <rect x="485" y="400" width="30" height="30" fill="hsl(240 100% 50%)" />
  <rect x="695" y="400" width="30" height="30" fill="hsl(240 100% 99.68052283875883%)" />
  <rect x="240" y="435" width="30" height="30" fill="hsl(240 100% 50%)" />
  <rect x="310" y="435" width="30" height="30" fill="hsl(240 100% 95.2096079736033%)" />
  <rect x="380" y="435" width="30" height="30" fill="hsl(240 100% 87.91048284047326%)" />
  <rect x="415" y="435" width="30" height="30" fill="hsl(240 100% 99.77315762614262%)" />
  <rect x="240" y="470" width="30" height="30" fill="hsl(240 100% 50%)" />
  <rect x="310" y="470" width="30" height="30" fill="hsl(240 100% 95.73191378549413%)" />
  <rect x="380" y="470" width="30" height="30" fill="hsl(240 100% 88.97146269770026%)" />
  <rect x="415" y="470" width="30" height="30" fill="hsl(240 100% 99.55341287956148%)" />
</svg>
