<svg xmlns="http://www.w3.org/2000/svg" viewBox="0 0 695 470">
  <rect x="0" y="0" width="695" height="470" rx="5" ry="5" fill="#222" />
  <text x="60" y="100" fill="white" font-family="sans-serif" font-weight="bold" font-size="12" text-anchor="end" dominant-baseline="middle">ba</text>
  <text x="60" y="135" fill="white" font-family="sans-serif" font-weight="bold" font-size="12" text-anchor="end" dominant-baseline="middle">det</text>
  <text x="60" y="170" fill="white" font-family="sans-serif" font-weight="bold" font-size="12" text-anchor="end" dominant-baseline="middle">gmm</text>
  <text x="60" y="205" fill="white" font-family="sans-serif" font-weight="bold" font-size="12" text-anchor="end" dominant-baseline="middle">hello</text>
  <text x="60" y="240" fill="white" font-family="sans-serif" font-weight="bold" font-size="12" text-anchor="end" dominant-baseline="middle">ht</text>
  <text x="60" y="275" fill="white" font-family="sans-serif" font-weight="bold" font-size="12" text-anchor="end" dominant-baseline="middle">kmeans</text>
  <text x="60" y="310" fill="white" font-family="sans-serif" font-weight="bold" font-size="12" text-anchor="end" dominant-baseline="middle">llsq</text>
  <text x="60" y="345" fill="white" font-family="sans-serif" font-weight="bold" font-size="12" text-anchor="end" dominant-baseline="middle">lstm</text>
  <text x="60" y="380" fill="white" font-family="sans-serif" font-weight="bold" font-size="12" text-anchor="end" dominant-baseline="middle">ode</text>
  <text x="60" y="415" fill="white" font-family="sans-serif" font-weight="bold" font-size="12" text-anchor="end" dominant-baseline="middle">particle</text>
  <text x="60" y="450" fill="white" font-family="sans-serif" font-weight="bold" font-size="12" text-anchor="end" dominant-baseline="middle">saddle</text>
  <text x="80" y="80" fill="white" font-family="sans-serif" font-weight="bold" font-size="12" text-anchor="end" dominant-baseline="middle" transform="rotate(90 80 80)">adept</text>
  <text x="115" y="80" fill="white" font-family="sans-serif" font-weight="bold" font-size="12" text-anchor="end" dominant-baseline="middle" transform="rotate(90 115 80)">adol-c</text>
  <text x="150" y="80" fill="white" font-family="sans-serif" font-weight="bold" font-size="12" text-anchor="end" dominant-baseline="middle" transform="rotate(90 150 80)">codipack</text>
  <text x="185" y="80" fill="white" font-family="sans-serif" font-weight="bold" font-size="12" text-anchor="end" dominant-baseline="middle" transform="rotate(90 185 80)">cppad</text>
  <text x="220" y="80" fill="white" font-family="sans-serif" font-weight="bold" font-size="12" text-anchor="end" dominant-baseline="middle" transform="rotate(90 220 80)">enzyme</text>
  <text x="255" y="80" fill="white" font-family="sans-serif" font-weight="bold" font-size="12" text-anchor="end" dominant-baseline="middle" transform="rotate(90 255 80)">enzyme-jl</text>
  <text x="290" y="80" fill="white" font-family="sans-serif" font-weight="bold" font-size="12" text-anchor="end" dominant-baseline="middle" transform="rotate(90 290 80)">finite</text>
  <text x="325" y="80" fill="white" font-family="sans-serif" font-weight="bold" font-size="12" text-anchor="end" dominant-baseline="middle" transform="rotate(90 325 80)">floretta</text>
  <text x="360" y="80" fill="white" font-family="sans-serif" font-weight="bold" font-size="12" text-anchor="end" dominant-baseline="middle" transform="rotate(90 360 80)">futhark</text>
  <text x="395" y="80" fill="white" font-family="sans-serif" font-weight="bold" font-size="12" text-anchor="end" dominant-baseline="middle" transform="rotate(90 395 80)">haskell</text>
  <text x="430" y="80" fill="white" font-family="sans-serif" font-weight="bold" font-size="12" text-anchor="end" dominant-baseline="middle" transform="rotate(90 430 80)">jax</text>
  <text x="465" y="80" fill="white" font-family="sans-serif" font-weight="bold" font-size="12" text-anchor="end" dominant-baseline="middle" transform="rotate(90 465 80)">manual</text>
  <text x="500" y="80" fill="white" font-family="sans-serif" font-weight="bold" font-size="12" text-anchor="end" dominant-baseline="middle" transform="rotate(90 500 80)">ocaml</text>
  <text x="535" y="80" fill="white" font-family="sans-serif" font-weight="bold" font-size="12" text-anchor="end" dominant-baseline="middle" transform="rotate(90 535 80)">pytorch</text>
  <text x="570" y="80" fill="white" font-family="sans-serif" font-weight="bold" font-size="12" text-anchor="end" dominant-baseline="middle" transform="rotate(90 570 80)">scilean</text>
  <text x="605" y="80" fill="white" font-family="sans-serif" font-weight="bold" font-size="12" text-anchor="end" dominant-baseline="middle" transform="rotate(90 605 80)">tapenade</text>
  <text x="640" y="80" fill="white" font-family="sans-serif" font-weight="bold" font-size="12" text-anchor="end" dominant-baseline="middle" transform="rotate(90 640 80)">tensorflow</text>
  <text x="675" y="80" fill="white" font-family="sans-serif" font-weight="bold" font-size="12" text-anchor="end" dominant-baseline="middle" transform="rotate(90 675 80)">zygote</text>
  <rect x="65" y="85" width="30" height="30" fill="hsl(240 100% 83.49249780735192%)" />
  <rect x="100" y="85" width="30" height="30" fill="hsl(240 100% 97.76147518354422%)" />
  <rect x="135" y="85" width="30" height="30" fill="hsl(240 100% 89.03386608760627%)" />
  <rect x="205" y="85" width="30" height="30" fill="hsl(240 100% 50%)" />
  <rect x="275" y="85" width="30" height="30" fill="hsl(240 100% 92.45292168857888%)" />
  <rect x="345" y="85" width="30" height="30" fill="hsl(240 100% 67.7489269779906%)" />
  <rect x="450" y="85" width="30" height="30" fill="hsl(240 100% 50.76560216520532%)" />
  <rect x="520" y="85" width="30" height="30" fill="rgb(255 255 255 / 50%)" />
  <rect x="590" y="85" width="30" height="30" fill="hsl(240 100% 71.95838290385011%)" />
  <rect x="625" y="85" width="30" height="30" fill="rgb(255 255 255 / 50%)" />
  <rect x="65" y="120" width="30" height="30" fill="hsl(240 100% 83.813212055462%)" />
  <rect x="100" y="120" width="30" height="30" fill="hsl(240 100% 85.70492412422468%)" />
  <rect x="135" y="120" width="30" height="30" fill="hsl(240 100% 50%)" />
  <rect x="170" y="120" width="30" height="30" fill="hsl(240 100% 92.68547491269511%)" />
  <rect x="205" y="120" width="30" height="30" fill="hsl(240 100% 91.82430789630064%)" />
  <rect x="275" y="120" width="30" height="30" fill="hsl(240 100% 99.03400468612028%)" />
  <rect x="345" y="120" width="30" height="30" fill="hsl(240 100% 94.68323018330122%)" />
  <rect x="380" y="120" width="30" height="30" fill="hsl(240 100% 97.8461460907496%)" />
  <rect x="450" y="120" width="30" height="30" fill="hsl(240 100% 79.44326994067977%)" />
  <rect x="65" y="155" width="30" height="30" fill="hsl(240 100% 98.28724883210452%)" />
  <rect x="100" y="155" width="30" height="30" fill="hsl(240 100% 98.8313017008739%)" />
  <rect x="135" y="155" width="30" height="30" fill="hsl(240 100% 97.24794906738754%)" />
  <rect x="170" y="155" width="30" height="30" fill="hsl(240 100% 99.7744382977971%)" />
  <rect x="205" y="155" width="30" height="30" fill="hsl(240 100% 87.06652738982116%)" />
  <rect x="275" y="155" width="30" height="30" fill="rgb(255 255 255 / 50%)" />
  <rect x="345" y="155" width="30" height="30" fill="hsl(240 100% 90.13556350112269%)" />
  <rect x="415" y="155" width="30" height="30" fill="hsl(240 100% 75.79160382241525%)" />
  <rect x="450" y="155" width="30" height="30" fill="hsl(240 100% 76.02281334334607%)" />
  <rect x="485" y="155" width="30" height="30" fill="hsl(240 100% 99.36578612807968%)" />
  <rect x="520" y="155" width="30" height="30" fill="hsl(240 100% 50%)" />
  <rect x="555" y="155" width="30" height="30" fill="hsl(240 100% 92.72058220618342%)" />
  <rect x="590" y="155" width="30" height="30" fill="hsl(240 100% 76.49464794254934%)" />
  <rect x="625" y="155" width="30" height="30" fill="hsl(240 100% 88.82029213634002%)" />
  <rect x="65" y="190" width="30" height="30" fill="hsl(240 100% 50%)" />
  <rect x="100" y="190" width="30" height="30" fill="hsl(240 100% 50%)" />
  <rect x="135" y="190" width="30" height="30" fill="hsl(240 100% 50%)" />
  <rect x="170" y="190" width="30" height="30" fill="hsl(240 100% 50%)" />
  <rect x="205" y="190" width="30" height="30" fill="hsl(240 100% 50%)" />
  <rect x="240" y="190" width="30" height="30" fill="hsl(240 100% 50%)" />
  <rect x="275" y="190" width="30" height="30" fill="hsl(240 100% 50%)" />
  <rect x="310" y="190" width="30" height="30" fill="hsl(240 100% 50%)" />
  <rect x="345" y="190" width="30" height="30" fill="hsl(240 100% 50%)" />
  <rect x="380" y="190" width="30" height="30" fill="hsl(240 100% 50%)" />
  <rect x="415" y="190" width="30" height="30" fill="hsl(240 100% 50%)" />
  <rect x="450" y="190" width="30" height="30" fill="hsl(240 100% 50%)" />
  <rect x="485" y="190" width="30" height="30" fill="hsl(240 100% 50%)" />
  <rect x="520" y="190" width="30" height="30" fill="hsl(240 100% 50%)" />
  <rect x="555" y="190" width="30" height="30" fill="hsl(240 100% 50%)" />
  <rect x="590" y="190" width="30" height="30" fill="hsl(240 100% 50%)" />
  <rect x="625" y="190" width="30" height="30" fill="hsl(240 100% 50%)" />
  <rect x="660" y="190" width="30" height="30" fill="hsl(240 100% 50%)" />
  <rect x="65" y="225" width="30" height="30" fill="hsl(240 100% 96.08589607120211%)" />
  <rect x="100" y="225" width="30" height="30" fill="hsl(240 100% 90.11286675238229%)" />
  <rect x="135" y="225" width="30" height="30" fill="hsl(240 100% 88.55056660377919%)" />
  <rect x="205" y="225" width="30" height="30" fill="hsl(240 100% 90.30599664538498%)" />
  <rect x="275" y="225" width="30" height="30" fill="rgb(255 255 255 / 50%)" />
  <rect x="345" y="225" width="30" height="30" fill="hsl(240 100% 89.78069099081806%)" />
  <rect x="450" y="225" width="30" height="30" fill="hsl(240 100% 50%)" />
  <rect x="520" y="225" width="30" height="30" fill="rgb(255 255 255 / 50%)" />
  <rect x="590" y="225" width="30" height="30" fill="rgb(255 255 255 / 50%)" />
  <rect x="625" y="225" width="30" height="30" fill="rgb(255 255 255 / 50%)" />
  <rect x="100" y="260" width="30" height="30" fill="hsl(240 100% 99.87659761623485%)" />
  <rect x="135" y="260" width="30" height="30" fill="hsl(240 100% 99.41506744364597%)" />
  <rect x="170" y="260" width="30" height="30" fill="rgb(255 255 255 / 50%)" />
  <rect x="205" y="260" width="30" height="30" fill="hsl(240 100% 88.09730154953051%)" />
  <rect x="275" y="260" width="30" height="30" fill="rgb(255 255 255 / 50%)" />
  <rect x="345" y="260" width="30" height="30" fill="hsl(240 100% 83.07120337771227%)" />
  <rect x="380" y="260" width="30" height="30" fill="rgb(255 255 255 / 50%)" />
  <rect x="415" y="260" width="30" height="30" fill="hsl(240 100% 50%)" />
  <rect x="450" y="260" width="30" height="30" fill="hsl(240 100% 76.65396032318735%)" />
  <rect x="520" y="260" width="30" height="30" fill="hsl(240 100% 96.99183162486953%)" />
  <rect x="555" y="260" width="30" height="30" fill="hsl(240 100% 94.16159474024458%)" />
  <rect x="65" y="295" width="30" height="30" fill="hsl(240 100% 66.96760902650473%)" />
  <rect x="100" y="295" width="30" height="30" fill="hsl(240 100% 59.0530206881683%)" />
  <rect x="135" y="295" width="30" height="30" fill="hsl(240 100% 59.966227824284594%)" />
  <rect x="170" y="295" width="30" height="30" fill="hsl(240 100% 91.74068430207048%)" />
  <rect x="205" y="295" width="30" height="30" fill="hsl(240 100% 50%)" />
  <rect x="275" y="295" width="30" height="30" fill="hsl(240 100% 99.4275775329904%)" />
  <rect x="345" y="295" width="30" height="30" fill="hsl(240 100% 50.55093955811687%)" />
  <rect x="380" y="295" width="30" height="30" fill="hsl(240 100% 89.28728508152527%)" />
  <rect x="450" y="295" width="30" height="30" fill="hsl(240 100% 54.4379532957315%)" />
  <rect x="555" y="295" width="30" height="30" fill="hsl(240 100% 55.27746888963428%)" />
  <rect x="65" y="330" width="30" height="30" fill="hsl(240 100% 68.80740827040701%)" />
  <rect x="100" y="330" width="30" height="30" fill="hsl(240 100% 80.73846086802642%)" />
  <rect x="135" y="330" width="30" height="30" fill="hsl(240 100% 50%)" />
  <rect x="170" y="330" width="30" height="30" fill="hsl(240 100% 95.80562743512358%)" />
  <rect x="205" y="330" width="30" height="30" fill="hsl(240 100% 50.42512673329012%)" />
  <rect x="275" y="330" width="30" height="30" fill="hsl(240 100% 99.8523161254589%)" />
  <rect x="345" y="330" width="30" height="30" fill="hsl(240 100% 63.0897529726913%)" />
  <rect x="450" y="330" width="30" height="30" fill="hsl(240 100% 84.6835532834856%)" />
  <rect x="520" y="330" width="30" height="30" fill="hsl(240 100% 99.60234647747005%)" />
  <rect x="590" y="330" width="30" height="30" fill="hsl(240 100% 59.87644168711544%)" />
  <rect x="625" y="330" width="30" height="30" fill="hsl(240 100% 97.96431647786828%)" />
  <rect x="65" y="365" width="30" height="30" fill="hsl(240 100% 99.31947308132678%)" />
  <rect x="100" y="365" width="30" height="30" fill="hsl(240 100% 99.62860697149715%)" />
  <rect x="135" y="365" width="30" height="30" fill="hsl(240 100% 94.71492853598566%)" />
  <rect x="170" y="365" width="30" height="30" fill="hsl(240 100% 99.13103159593317%)" />
  <rect x="205" y="365" width="30" height="30" fill="hsl(240 100% 88.1566012526347%)" />
  <rect x="240" y="365" width="30" height="30" fill="hsl(240 100% 99.1630920434598%)" />
  <rect x="275" y="365" width="30" height="30" fill="rgb(255 255 255 / 50%)" />
  <rect x="345" y="365" width="30" height="30" fill="hsl(240 100% 96.04474283252361%)" />
  <rect x="380" y="365" width="30" height="30" fill="hsl(240 100% 99.9668708607229%)" />
  <rect x="450" y="365" width="30" height="30" fill="hsl(240 100% 50%)" />
  <rect x="205" y="400" width="30" height="30" fill="hsl(240 100% 50%)" />
  <rect x="275" y="400" width="30" height="30" fill="hsl(240 100% 95.201324847615%)" />
  <rect x="345" y="400" width="30" height="30" fill="hsl(240 100% 87.9019677573912%)" />
  <rect x="380" y="400" width="30" height="30" fill="hsl(240 100% 99.75455348935712%)" />
  <rect x="205" y="435" width="30" height="30" fill="hsl(240 100% 50%)" />
  <rect x="275" y="435" width="30" height="30" fill="hsl(240 100% 95.83777871204491%)" />
  <rect x="345" y="435" width="30" height="30" fill="hsl(240 100% 89.06611609787856%)" />
  <rect x="380" y="435" width="30" height="30" fill="hsl(240 100% 99.56909469180471%)" />
</svg>
