<svg xmlns="http://www.w3.org/2000/svg" viewBox="0 0 870 505">
  <rect x="0" y="0" width="870" height="505" rx="5" ry="5" fill="#222" />
  <text x="60" y="100" fill="white" font-family="sans-serif" font-weight="bold" font-size="12" text-anchor="end" dominant-baseline="middle">ba</text>
  <text x="60" y="135" fill="white" font-family="sans-serif" font-weight="bold" font-size="12" text-anchor="end" dominant-baseline="middle">det</text>
  <text x="60" y="170" fill="white" font-family="sans-serif" font-weight="bold" font-size="12" text-anchor="end" dominant-baseline="middle">gmm</text>
  <text x="60" y="205" fill="white" font-family="sans-serif" font-weight="bold" font-size="12" text-anchor="end" dominant-baseline="middle">hello</text>
  <text x="60" y="240" fill="white" font-family="sans-serif" font-weight="bold" font-size="12" text-anchor="end" dominant-baseline="middle">ht</text>
  <text x="60" y="275" fill="white" font-family="sans-serif" font-weight="bold" font-size="12" text-anchor="end" dominant-baseline="middle">kmeans</text>
  <text x="60" y="310" fill="white" font-family="sans-serif" font-weight="bold" font-size="12" text-anchor="end" dominant-baseline="middle">llsq</text>
  <text x="60" y="345" fill="white" font-family="sans-serif" font-weight="bold" font-size="12" text-anchor="end" dominant-baseline="middle">lse</text>
  <text x="60" y="380" fill="white" font-family="sans-serif" font-weight="bold" font-size="12" text-anchor="end" dominant-baseline="middle">lstm</text>
  <text x="60" y="415" fill="white" font-family="sans-serif" font-weight="bold" font-size="12" text-anchor="end" dominant-baseline="middle">ode</text>
  <text x="60" y="450" fill="white" font-family="sans-serif" font-weight="bold" font-size="12" text-anchor="end" dominant-baseline="middle">particle</text>
  <text x="60" y="485" fill="white" font-family="sans-serif" font-weight="bold" font-size="12" text-anchor="end" dominant-baseline="middle">saddle</text>
  <text x="80" y="80" fill="white" font-family="sans-serif" font-weight="bold" font-size="12" text-anchor="end" dominant-baseline="middle" transform="rotate(90 80 80)">ad-hpp</text>
  <text x="115" y="80" fill="white" font-family="sans-serif" font-weight="bold" font-size="12" text-anchor="end" dominant-baseline="middle" transform="rotate(90 115 80)">adept</text>
  <text x="150" y="80" fill="white" font-family="sans-serif" font-weight="bold" font-size="12" text-anchor="end" dominant-baseline="middle" transform="rotate(90 150 80)">adol-c</text>
  <text x="185" y="80" fill="white" font-family="sans-serif" font-weight="bold" font-size="12" text-anchor="end" dominant-baseline="middle" transform="rotate(90 185 80)">codipack</text>
  <text x="220" y="80" fill="white" font-family="sans-serif" font-weight="bold" font-size="12" text-anchor="end" dominant-baseline="middle" transform="rotate(90 220 80)">cppad</text>
  <text x="255" y="80" fill="white" font-family="sans-serif" font-weight="bold" font-size="12" text-anchor="end" dominant-baseline="middle" transform="rotate(90 255 80)">enzyme</text>
  <text x="290" y="80" fill="white" font-family="sans-serif" font-weight="bold" font-size="12" text-anchor="end" dominant-baseline="middle" transform="rotate(90 290 80)">enzyme-jl</text>
  <text x="325" y="80" fill="white" font-family="sans-serif" font-weight="bold" font-size="12" text-anchor="end" dominant-baseline="middle" transform="rotate(90 325 80)">finite</text>
  <text x="360" y="80" fill="white" font-family="sans-serif" font-weight="bold" font-size="12" text-anchor="end" dominant-baseline="middle" transform="rotate(90 360 80)">floretta</text>
  <text x="395" y="80" fill="white" font-family="sans-serif" font-weight="bold" font-size="12" text-anchor="end" dominant-baseline="middle" transform="rotate(90 395 80)">forwarddiff-jl</text>
  <text x="430" y="80" fill="white" font-family="sans-serif" font-weight="bold" font-size="12" text-anchor="end" dominant-baseline="middle" transform="rotate(90 430 80)">futhark</text>
  <text x="465" y="80" fill="white" font-family="sans-serif" font-weight="bold" font-size="12" text-anchor="end" dominant-baseline="middle" transform="rotate(90 465 80)">haskell</text>
  <text x="500" y="80" fill="white" font-family="sans-serif" font-weight="bold" font-size="12" text-anchor="end" dominant-baseline="middle" transform="rotate(90 500 80)">jax</text>
  <text x="535" y="80" fill="white" font-family="sans-serif" font-weight="bold" font-size="12" text-anchor="end" dominant-baseline="middle" transform="rotate(90 535 80)">manual</text>
  <text x="570" y="80" fill="white" font-family="sans-serif" font-weight="bold" font-size="12" text-anchor="end" dominant-baseline="middle" transform="rotate(90 570 80)">mooncake-jl</text>
  <text x="605" y="80" fill="white" font-family="sans-serif" font-weight="bold" font-size="12" text-anchor="end" dominant-baseline="middle" transform="rotate(90 605 80)">ocaml</text>
  <text x="640" y="80" fill="white" font-family="sans-serif" font-weight="bold" font-size="12" text-anchor="end" dominant-baseline="middle" transform="rotate(90 640 80)">pytorch</text>
  <text x="675" y="80" fill="white" font-family="sans-serif" font-weight="bold" font-size="12" text-anchor="end" dominant-baseline="middle" transform="rotate(90 675 80)">reversediff-jl</text>
  <text x="710" y="80" fill="white" font-family="sans-serif" font-weight="bold" font-size="12" text-anchor="end" dominant-baseline="middle" transform="rotate(90 710 80)">scilean</text>
  <text x="745" y="80" fill="white" font-family="sans-serif" font-weight="bold" font-size="12" text-anchor="end" dominant-baseline="middle" transform="rotate(90 745 80)">tapenade</text>
  <text x="780" y="80" fill="white" font-family="sans-serif" font-weight="bold" font-size="12" text-anchor="end" dominant-baseline="middle" transform="rotate(90 780 80)">tensorflow</text>
  <text x="815" y="80" fill="white" font-family="sans-serif" font-weight="bold" font-size="12" text-anchor="end" dominant-baseline="middle" transform="rotate(90 815 80)">tensorflow-js</text>
  <text x="850" y="80" fill="white" font-family="sans-serif" font-weight="bold" font-size="12" text-anchor="end" dominant-baseline="middle" transform="rotate(90 850 80)">zygote</text>
  <rect x="65" y="85" width="30" height="30" fill="hsl(240 100% 81.03103188502436%)" />
  <rect x="100" y="85" width="30" height="30" fill="hsl(240 100% 82.8571003687857%)" />
  <rect x="135" y="85" width="30" height="30" fill="hsl(240 100% 97.85721123200622%)" />
  <rect x="170" y="85" width="30" height="30" fill="hsl(240 100% 82.24055048414007%)" />
  <rect x="205" y="85" width="30" height="30" fill="hsl(240 100% 99.0047944340874%)" />
  <rect x="240" y="85" width="30" height="30" fill="hsl(240 100% 51.90643158047477%)" />
  <rect x="310" y="85" width="30" height="30" fill="hsl(240 100% 93.2886362878984%)" />
  <rect x="415" y="85" width="30" height="30" fill="hsl(240 100% 68.24388960201216%)" />
  <rect x="520" y="85" width="30" height="30" fill="hsl(240 100% 50%)" />
  <rect x="625" y="85" width="30" height="30" fill="rgb(255 255 255 / 50%)" />
  <rect x="730" y="85" width="30" height="30" fill="hsl(240 100% 74.91722784586096%)" />
  <rect x="765" y="85" width="30" height="30" fill="rgb(255 255 255 / 50%)" />
  <rect x="835" y="85" width="30" height="30" fill="hsl(240 100% 99.73033852731214%)" />
  <rect x="65" y="120" width="30" height="30" fill="hsl(240 100% 50%)" />
  <rect x="100" y="120" width="30" height="30" fill="hsl(240 100% 82.36088279224428%)" />
  <rect x="135" y="120" width="30" height="30" fill="hsl(240 100% 85.56920339727213%)" />
  <rect x="170" y="120" width="30" height="30" fill="hsl(240 100% 51.26475014325651%)" />
  <rect x="205" y="120" width="30" height="30" fill="hsl(240 100% 92.45403362995032%)" />
  <rect x="240" y="120" width="30" height="30" fill="hsl(240 100% 91.43193631907296%)" />
  <rect x="275" y="120" width="30" height="30" fill="hsl(240 100% 99.36966660387809%)" />
  <rect x="310" y="120" width="30" height="30" fill="hsl(240 100% 98.99183872100097%)" />
  <rect x="380" y="120" width="30" height="30" fill="hsl(240 100% 93.16161738415143%)" />
  <rect x="415" y="120" width="30" height="30" fill="hsl(240 100% 94.52425903830009%)" />
  <rect x="450" y="120" width="30" height="30" fill="hsl(240 100% 97.92195571738185%)" />
  <rect x="520" y="120" width="30" height="30" fill="hsl(240 100% 79.39503497377547%)" />
  <rect x="555" y="120" width="30" height="30" fill="hsl(240 100% 90.33268275392226%)" />
  <rect x="660" y="120" width="30" height="30" fill="rgb(255 255 255 / 50%)" />
  <rect x="835" y="120" width="30" height="30" fill="rgb(255 255 255 / 50%)" />
  <rect x="65" y="155" width="30" height="30" fill="hsl(240 100% 98.55937497649249%)" />
  <rect x="100" y="155" width="30" height="30" fill="hsl(240 100% 98.79439171883158%)" />
  <rect x="135" y="155" width="30" height="30" fill="hsl(240 100% 99.13045259978587%)" />
  <rect x="170" y="155" width="30" height="30" fill="hsl(240 100% 98.09137426955094%)" />
  <rect x="205" y="155" width="30" height="30" fill="hsl(240 100% 99.8510719606033%)" />
  <rect x="240" y="155" width="30" height="30" fill="hsl(240 100% 91.22201974577257%)" />
  <rect x="275" y="155" width="30" height="30" fill="hsl(240 100% 93.38560613688882%)" />
  <rect x="310" y="155" width="30" height="30" fill="rgb(255 255 255 / 50%)" />
  <rect x="415" y="155" width="30" height="30" fill="hsl(240 100% 93.10100784950744%)" />
  <rect x="485" y="155" width="30" height="30" fill="hsl(240 100% 50%)" />
  <rect x="520" y="155" width="30" height="30" fill="hsl(240 100% 83.78045185054991%)" />
  <rect x="590" y="155" width="30" height="30" fill="hsl(240 100% 99.5882830129155%)" />
  <rect x="625" y="155" width="30" height="30" fill="hsl(240 100% 67.09288275011517%)" />
  <rect x="695" y="155" width="30" height="30" fill="hsl(240 100% 95.46446055002042%)" />
  <rect x="730" y="155" width="30" height="30" fill="hsl(240 100% 83.83794105759821%)" />
  <rect x="765" y="155" width="30" height="30" fill="hsl(240 100% 99.58268007959423%)" />
  <rect x="835" y="155" width="30" height="30" fill="hsl(240 100% 96.62168035621171%)" />
  <rect x="65" y="190" width="30" height="30" fill="hsl(240 100% 50%)" />
  <rect x="100" y="190" width="30" height="30" fill="hsl(240 100% 50%)" />
  <rect x="135" y="190" width="30" height="30" fill="hsl(240 100% 50%)" />
  <rect x="170" y="190" width="30" height="30" fill="hsl(240 100% 50%)" />
  <rect x="205" y="190" width="30" height="30" fill="hsl(240 100% 50%)" />
  <rect x="240" y="190" width="30" height="30" fill="hsl(240 100% 50%)" />
  <rect x="275" y="190" width="30" height="30" fill="hsl(240 100% 50%)" />
  <rect x="310" y="190" width="30" height="30" fill="hsl(240 100% 50%)" />
  <rect x="345" y="190" width="30" height="30" fill="hsl(240 100% 50%)" />
  <rect x="380" y="190" width="30" height="30" fill="hsl(240 100% 50%)" />
  <rect x="415" y="190" width="30" height="30" fill="hsl(240 100% 50%)" />
  <rect x="450" y="190" width="30" height="30" fill="hsl(240 100% 50%)" />
  <rect x="485" y="190" width="30" height="30" fill="hsl(240 100% 50%)" />
  <rect x="520" y="190" width="30" height="30" fill="hsl(240 100% 50%)" />
  <rect x="555" y="190" width="30" height="30" fill="hsl(240 100% 50%)" />
  <rect x="590" y="190" width="30" height="30" fill="hsl(240 100% 50%)" />
  <rect x="625" y="190" width="30" height="30" fill="hsl(240 100% 50%)" />
  <rect x="660" y="190" width="30" height="30" fill="hsl(240 100% 50%)" />
  <rect x="695" y="190" width="30" height="30" fill="hsl(240 100% 50%)" />
  <rect x="730" y="190" width="30" height="30" fill="hsl(240 100% 50%)" />
  <rect x="765" y="190" width="30" height="30" fill="hsl(240 100% 50%)" />
  <rect x="800" y="190" width="30" height="30" fill="hsl(240 100% 50%)" />
  <rect x="835" y="190" width="30" height="30" fill="hsl(240 100% 50%)" />
  <rect x="100" y="225" width="30" height="30" fill="hsl(240 100% 96.61615684373103%)" />
  <rect x="135" y="225" width="30" height="30" fill="hsl(240 100% 89.06254788600876%)" />
  <rect x="170" y="225" width="30" height="30" fill="hsl(240 100% 89.18694912458513%)" />
  <rect x="240" y="225" width="30" height="30" fill="hsl(240 100% 91.19700305145359%)" />
  <rect x="310" y="225" width="30" height="30" fill="rgb(255 255 255 / 50%)" />
  <rect x="415" y="225" width="30" height="30" fill="hsl(240 100% 90.4467443453453%)" />
  <rect x="520" y="225" width="30" height="30" fill="hsl(240 100% 50%)" />
  <rect x="625" y="225" width="30" height="30" fill="rgb(255 255 255 / 50%)" />
  <rect x="730" y="225" width="30" height="30" fill="hsl(240 100% 93.00508090197377%)" />
  <rect x="765" y="225" width="30" height="30" fill="rgb(255 255 255 / 50%)" />
  <rect x="835" y="225" width="30" height="30" fill="hsl(240 100% 94.2344198881806%)" />
  <rect x="65" y="260" width="30" height="30" fill="hsl(240 100% 99.85686601062646%)" />
  <rect x="135" y="260" width="30" height="30" fill="hsl(240 100% 99.84891451597949%)" />
  <rect x="170" y="260" width="30" height="30" fill="hsl(240 100% 98.82708186607961%)" />
  <rect x="205" y="260" width="30" height="30" fill="rgb(255 255 255 / 50%)" />
  <rect x="240" y="260" width="30" height="30" fill="hsl(240 100% 86.77087783826828%)" />
  <rect x="310" y="260" width="30" height="30" fill="rgb(255 255 255 / 50%)" />
  <rect x="415" y="260" width="30" height="30" fill="hsl(240 100% 80.23277264235368%)" />
  <rect x="450" y="260" width="30" height="30" fill="rgb(255 255 255 / 50%)" />
  <rect x="485" y="260" width="30" height="30" fill="hsl(240 100% 50%)" />
  <rect x="520" y="260" width="30" height="30" fill="hsl(240 100% 70.58802427593788%)" />
  <rect x="625" y="260" width="30" height="30" fill="hsl(240 100% 96.92734327773806%)" />
  <rect x="695" y="260" width="30" height="30" fill="hsl(240 100% 93.9847619110266%)" />
  <rect x="65" y="295" width="30" height="30" fill="hsl(240 100% 85.88704888357532%)" />
  <rect x="100" y="295" width="30" height="30" fill="hsl(240 100% 97.55318517157993%)" />
  <rect x="135" y="295" width="30" height="30" fill="hsl(240 100% 95.00829771631109%)" />
  <rect x="170" y="295" width="30" height="30" fill="hsl(240 100% 90.68945336130389%)" />
  <rect x="205" y="295" width="30" height="30" fill="hsl(240 100% 99.44693686740733%)" />
  <rect x="240" y="295" width="30" height="30" fill="hsl(240 100% 50.620334733701746%)" />
  <rect x="275" y="295" width="30" height="30" fill="hsl(240 100% 50%)" />
  <rect x="310" y="295" width="30" height="30" fill="hsl(240 100% 99.49781205904075%)" />
  <rect x="345" y="295" width="30" height="30" fill="hsl(240 100% 94.7245788101287%)" />
  <rect x="415" y="295" width="30" height="30" fill="hsl(240 100% 55.06197647448271%)" />
  <rect x="450" y="295" width="30" height="30" fill="hsl(240 100% 99.32719609566531%)" />
  <rect x="485" y="295" width="30" height="30" fill="hsl(240 100% 88.23593778764175%)" />
  <rect x="520" y="295" width="30" height="30" fill="hsl(240 100% 57.75289684145788%)" />
  <rect x="695" y="295" width="30" height="30" fill="hsl(240 100% 97.59824284100904%)" />
  <rect x="800" y="295" width="30" height="30" fill="hsl(240 100% 99.56447953091843%)" />
  <rect x="835" y="295" width="30" height="30" fill="hsl(240 100% 99.95324212286569%)" />
  <rect x="65" y="330" width="30" height="30" fill="hsl(240 100% 89.53361683725278%)" />
  <rect x="100" y="330" width="30" height="30" fill="hsl(240 100% 95.02164276993494%)" />
  <rect x="135" y="330" width="30" height="30" fill="hsl(240 100% 97.32622288168297%)" />
  <rect x="170" y="330" width="30" height="30" fill="hsl(240 100% 89.01137342538904%)" />
  <rect x="205" y="330" width="30" height="30" fill="hsl(240 100% 99.24910112501492%)" />
  <rect x="240" y="330" width="30" height="30" fill="hsl(240 100% 80.8748615066316%)" />
  <rect x="275" y="330" width="30" height="30" fill="hsl(240 100% 88.47150966808556%)" />
  <rect x="310" y="330" width="30" height="30" fill="rgb(255 255 255 / 50%)" />
  <rect x="345" y="330" width="30" height="30" fill="hsl(240 100% 97.40075298464976%)" />
  <rect x="415" y="330" width="30" height="30" fill="hsl(240 100% 86.64456474409474%)" />
  <rect x="450" y="330" width="30" height="30" fill="hsl(240 100% 99.8209941892155%)" />
  <rect x="485" y="330" width="30" height="30" fill="hsl(240 100% 72.14488659235606%)" />
  <rect x="520" y="330" width="30" height="30" fill="hsl(240 100% 78.21774420707462%)" />
  <rect x="590" y="330" width="30" height="30" fill="hsl(240 100% 94.15844031362306%)" />
  <rect x="625" y="330" width="30" height="30" fill="hsl(240 100% 50%)" />
  <rect x="765" y="330" width="30" height="30" fill="hsl(240 100% 94.82808364158984%)" />
  <rect x="800" y="330" width="30" height="30" fill="hsl(240 100% 99.25394388528746%)" />
  <rect x="835" y="330" width="30" height="30" fill="hsl(240 100% 81.2945098411979%)" />
  <rect x="65" y="365" width="30" height="30" fill="hsl(240 100% 56.4272089419568%)" />
  <rect x="100" y="365" width="30" height="30" fill="hsl(240 100% 71.57179016446683%)" />
  <rect x="135" y="365" width="30" height="30" fill="hsl(240 100% 81.67283748294297%)" />
  <rect x="170" y="365" width="30" height="30" fill="hsl(240 100% 50%)" />
  <rect x="205" y="365" width="30" height="30" fill="hsl(240 100% 96.17054929054983%)" />
  <rect x="240" y="365" width="30" height="30" fill="hsl(240 100% 59.051081765167204%)" />
  <rect x="275" y="365" width="30" height="30" fill="hsl(240 100% 92.43466858382888%)" />
  <rect x="310" y="365" width="30" height="30" fill="hsl(240 100% 99.8593362219181%)" />
  <rect x="415" y="365" width="30" height="30" fill="hsl(240 100% 66.28962082020726%)" />
  <rect x="520" y="365" width="30" height="30" fill="hsl(240 100% 85.83121055971041%)" />
  <rect x="625" y="365" width="30" height="30" fill="hsl(240 100% 99.63044048427759%)" />
  <rect x="730" y="365" width="30" height="30" fill="hsl(240 100% 63.08716550585176%)" />
  <rect x="765" y="365" width="30" height="30" fill="hsl(240 100% 98.15439749216708%)" />
  <rect x="835" y="365" width="30" height="30" fill="hsl(240 100% 98.79290051958549%)" />
  <rect x="65" y="400" width="30" height="30" fill="hsl(240 100% 98.17038597047836%)" />
  <rect x="100" y="400" width="30" height="30" fill="hsl(240 100% 99.41029668449279%)" />
  <rect x="135" y="400" width="30" height="30" fill="hsl(240 100% 99.67363702754176%)" />
  <rect x="170" y="400" width="30" height="30" fill="hsl(240 100% 95.47644668588464%)" />
  <rect x="205" y="400" width="30" height="30" fill="hsl(240 100% 99.24018773237053%)" />
  <rect x="240" y="400" width="30" height="30" fill="hsl(240 100% 89.10004452049499%)" />
  <rect x="275" y="400" width="30" height="30" fill="hsl(240 100% 95.25116180715028%)" />
  <rect x="310" y="400" width="30" height="30" fill="rgb(255 255 255 / 50%)" />
  <rect x="380" y="400" width="30" height="30" fill="rgb(255 255 255 / 50%)" />
  <rect x="415" y="400" width="30" height="30" fill="hsl(240 100% 94.03264087033041%)" />
  <rect x="450" y="400" width="30" height="30" fill="hsl(240 100% 99.97135943143358%)" />
  <rect x="485" y="400" width="30" height="30" fill="hsl(240 100% 78.20536498504167%)" />
  <rect x="520" y="400" width="30" height="30" fill="hsl(240 100% 50%)" />
  <rect x="555" y="400" width="30" height="30" fill="hsl(240 100% 99.11514755734412%)" />
  <rect x="660" y="400" width="30" height="30" fill="rgb(255 255 255 / 50%)" />
  <rect x="835" y="400" width="30" height="30" fill="hsl(240 100% 99.0526763860474%)" />
  <rect x="65" y="435" width="30" height="30" fill="hsl(240 100% 92.89628905572116%)" />
  <rect x="240" y="435" width="30" height="30" fill="hsl(240 100% 50%)" />
  <rect x="310" y="435" width="30" height="30" fill="hsl(240 100% 94.29639666562234%)" />
  <rect x="415" y="435" width="30" height="30" fill="hsl(240 100% 86.98173011669837%)" />
  <rect x="450" y="435" width="30" height="30" fill="hsl(240 100% 99.8030875453279%)" />
  <rect x="65" y="470" width="30" height="30" fill="hsl(240 100% 50%)" />
  <rect x="240" y="470" width="30" height="30" fill="hsl(240 100% 50.441347498062214%)" />
  <rect x="310" y="470" width="30" height="30" fill="hsl(240 100% 97.1582230865332%)" />
  <rect x="415" y="470" width="30" height="30" fill="hsl(240 100% 89.03894652275665%)" />
  <rect x="450" y="470" width="30" height="30" fill="hsl(240 100% 99.588896425255%)" />
</svg>
