<svg xmlns="http://www.w3.org/2000/svg" viewBox="0 0 730 505">
  <rect x="0" y="0" width="730" height="505" rx="5" ry="5" fill="#222" />
  <text x="60" y="100" fill="white" font-family="sans-serif" font-weight="bold" font-size="12" text-anchor="end" dominant-baseline="middle">ba</text>
  <text x="60" y="135" fill="white" font-family="sans-serif" font-weight="bold" font-size="12" text-anchor="end" dominant-baseline="middle">det</text>
  <text x="60" y="170" fill="white" font-family="sans-serif" font-weight="bold" font-size="12" text-anchor="end" dominant-baseline="middle">gmm</text>
  <text x="60" y="205" fill="white" font-family="sans-serif" font-weight="bold" font-size="12" text-anchor="end" dominant-baseline="middle">hello</text>
  <text x="60" y="240" fill="white" font-family="sans-serif" font-weight="bold" font-size="12" text-anchor="end" dominant-baseline="middle">ht</text>
  <text x="60" y="275" fill="white" font-family="sans-serif" font-weight="bold" font-size="12" text-anchor="end" dominant-baseline="middle">kmeans</text>
  <text x="60" y="310" fill="white" font-family="sans-serif" font-weight="bold" font-size="12" text-anchor="end" dominant-baseline="middle">llsq</text>
  <text x="60" y="345" fill="white" font-family="sans-serif" font-weight="bold" font-size="12" text-anchor="end" dominant-baseline="middle">lse</text>
  <text x="60" y="380" fill="white" font-family="sans-serif" font-weight="bold" font-size="12" text-anchor="end" dominant-baseline="middle">lstm</text>
  <text x="60" y="415" fill="white" font-family="sans-serif" font-weight="bold" font-size="12" text-anchor="end" dominant-baseline="middle">ode</text>
  <text x="60" y="450" fill="white" font-family="sans-serif" font-weight="bold" font-size="12" text-anchor="end" dominant-baseline="middle">particle</text>
  <text x="60" y="485" fill="white" font-family="sans-serif" font-weight="bold" font-size="12" text-anchor="end" dominant-baseline="middle">saddle</text>
  <text x="80" y="80" fill="white" font-family="sans-serif" font-weight="bold" font-size="12" text-anchor="end" dominant-baseline="middle" transform="rotate(90 80 80)">ad-hpp</text>
  <text x="115" y="80" fill="white" font-family="sans-serif" font-weight="bold" font-size="12" text-anchor="end" dominant-baseline="middle" transform="rotate(90 115 80)">adept</text>
  <text x="150" y="80" fill="white" font-family="sans-serif" font-weight="bold" font-size="12" text-anchor="end" dominant-baseline="middle" transform="rotate(90 150 80)">adol-c</text>
  <text x="185" y="80" fill="white" font-family="sans-serif" font-weight="bold" font-size="12" text-anchor="end" dominant-baseline="middle" transform="rotate(90 185 80)">codipack</text>
  <text x="220" y="80" fill="white" font-family="sans-serif" font-weight="bold" font-size="12" text-anchor="end" dominant-baseline="middle" transform="rotate(90 220 80)">cppad</text>
  <text x="255" y="80" fill="white" font-family="sans-serif" font-weight="bold" font-size="12" text-anchor="end" dominant-baseline="middle" transform="rotate(90 255 80)">enzyme</text>
  <text x="290" y="80" fill="white" font-family="sans-serif" font-weight="bold" font-size="12" text-anchor="end" dominant-baseline="middle" transform="rotate(90 290 80)">enzyme-jl</text>
  <text x="325" y="80" fill="white" font-family="sans-serif" font-weight="bold" font-size="12" text-anchor="end" dominant-baseline="middle" transform="rotate(90 325 80)">finite</text>
  <text x="360" y="80" fill="white" font-family="sans-serif" font-weight="bold" font-size="12" text-anchor="end" dominant-baseline="middle" transform="rotate(90 360 80)">floretta</text>
  <text x="395" y="80" fill="white" font-family="sans-serif" font-weight="bold" font-size="12" text-anchor="end" dominant-baseline="middle" transform="rotate(90 395 80)">futhark</text>
  <text x="430" y="80" fill="white" font-family="sans-serif" font-weight="bold" font-size="12" text-anchor="end" dominant-baseline="middle" transform="rotate(90 430 80)">haskell</text>
  <text x="465" y="80" fill="white" font-family="sans-serif" font-weight="bold" font-size="12" text-anchor="end" dominant-baseline="middle" transform="rotate(90 465 80)">jax</text>
  <text x="500" y="80" fill="white" font-family="sans-serif" font-weight="bold" font-size="12" text-anchor="end" dominant-baseline="middle" transform="rotate(90 500 80)">manual</text>
  <text x="535" y="80" fill="white" font-family="sans-serif" font-weight="bold" font-size="12" text-anchor="end" dominant-baseline="middle" transform="rotate(90 535 80)">ocaml</text>
  <text x="570" y="80" fill="white" font-family="sans-serif" font-weight="bold" font-size="12" text-anchor="end" dominant-baseline="middle" transform="rotate(90 570 80)">pytorch</text>
  <text x="605" y="80" fill="white" font-family="sans-serif" font-weight="bold" font-size="12" text-anchor="end" dominant-baseline="middle" transform="rotate(90 605 80)">scilean</text>
  <text x="640" y="80" fill="white" font-family="sans-serif" font-weight="bold" font-size="12" text-anchor="end" dominant-baseline="middle" transform="rotate(90 640 80)">tapenade</text>
  <text x="675" y="80" fill="white" font-family="sans-serif" font-weight="bold" font-size="12" text-anchor="end" dominant-baseline="middle" transform="rotate(90 675 80)">tensorflow</text>
  <text x="710" y="80" fill="white" font-family="sans-serif" font-weight="bold" font-size="12" text-anchor="end" dominant-baseline="middle" transform="rotate(90 710 80)">zygote</text>
  <rect x="65" y="85" width="30" height="30" fill="hsl(240 100% 80.82456630921976%)" />
  <rect x="100" y="85" width="30" height="30" fill="hsl(240 100% 82.69125551223637%)" />
  <rect x="135" y="85" width="30" height="30" fill="hsl(240 100% 97.99199294965175%)" />
  <rect x="170" y="85" width="30" height="30" fill="hsl(240 100% 82.23069869820665%)" />
  <rect x="205" y="85" width="30" height="30" fill="hsl(240 100% 98.99727876700162%)" />
  <rect x="240" y="85" width="30" height="30" fill="hsl(240 100% 51.52658506870589%)" />
  <rect x="310" y="85" width="30" height="30" fill="hsl(240 100% 93.33464798049415%)" />
  <rect x="380" y="85" width="30" height="30" fill="hsl(240 100% 67.99783926936189%)" />
  <rect x="485" y="85" width="30" height="30" fill="hsl(240 100% 50%)" />
  <rect x="555" y="85" width="30" height="30" fill="rgb(255 255 255 / 50%)" />
  <rect x="625" y="85" width="30" height="30" fill="hsl(240 100% 74.7407607073072%)" />
  <rect x="660" y="85" width="30" height="30" fill="rgb(255 255 255 / 50%)" />
  <rect x="695" y="85" width="30" height="30" fill="hsl(240 100% 99.74069008090781%)" />
  <rect x="65" y="120" width="30" height="30" fill="hsl(240 100% 50%)" />
  <rect x="100" y="120" width="30" height="30" fill="hsl(240 100% 83.92746336349587%)" />
  <rect x="135" y="120" width="30" height="30" fill="hsl(240 100% 85.72069059657275%)" />
  <rect x="170" y="120" width="30" height="30" fill="hsl(240 100% 52.758270011399254%)" />
  <rect x="205" y="120" width="30" height="30" fill="hsl(240 100% 92.54329277172799%)" />
  <rect x="240" y="120" width="30" height="30" fill="hsl(240 100% 91.75653174171953%)" />
  <rect x="275" y="120" width="30" height="30" fill="hsl(240 100% 99.29680695649664%)" />
  <rect x="310" y="120" width="30" height="30" fill="hsl(240 100% 99.00211109616454%)" />
  <rect x="380" y="120" width="30" height="30" fill="hsl(240 100% 94.61728160882927%)" />
  <rect x="415" y="120" width="30" height="30" fill="hsl(240 100% 97.92604980999813%)" />
  <rect x="485" y="120" width="30" height="30" fill="hsl(240 100% 79.80217085310395%)" />
  <rect x="695" y="120" width="30" height="30" fill="rgb(255 255 255 / 50%)" />
  <rect x="65" y="155" width="30" height="30" fill="hsl(240 100% 97.05005246694421%)" />
  <rect x="100" y="155" width="30" height="30" fill="hsl(240 100% 98.30559742899264%)" />
  <rect x="135" y="155" width="30" height="30" fill="hsl(240 100% 98.83971926965553%)" />
  <rect x="170" y="155" width="30" height="30" fill="hsl(240 100% 97.30451347536962%)" />
  <rect x="205" y="155" width="30" height="30" fill="hsl(240 100% 99.76765145338709%)" />
  <rect x="240" y="155" width="30" height="30" fill="hsl(240 100% 86.54245523160834%)" />
  <rect x="275" y="155" width="30" height="30" fill="hsl(240 100% 99.82874936063453%)" />
  <rect x="310" y="155" width="30" height="30" fill="rgb(255 255 255 / 50%)" />
  <rect x="380" y="155" width="30" height="30" fill="hsl(240 100% 89.42156965054039%)" />
  <rect x="450" y="155" width="30" height="30" fill="hsl(240 100% 70.57218635738622%)" />
  <rect x="485" y="155" width="30" height="30" fill="hsl(240 100% 72.46764607172%)" />
  <rect x="520" y="155" width="30" height="30" fill="hsl(240 100% 99.36931846243095%)" />
  <rect x="555" y="155" width="30" height="30" fill="hsl(240 100% 50%)" />
  <rect x="590" y="155" width="30" height="30" fill="hsl(240 100% 92.66333629281613%)" />
  <rect x="625" y="155" width="30" height="30" fill="hsl(240 100% 75.09636548746452%)" />
  <rect x="660" y="155" width="30" height="30" fill="hsl(240 100% 88.56116288343341%)" />
  <rect x="695" y="155" width="30" height="30" fill="hsl(240 100% 99.31980781473108%)" />
  <rect x="65" y="190" width="30" height="30" fill="hsl(240 100% 50%)" />
  <rect x="100" y="190" width="30" height="30" fill="hsl(240 100% 50%)" />
  <rect x="135" y="190" width="30" height="30" fill="hsl(240 100% 50%)" />
  <rect x="170" y="190" width="30" height="30" fill="hsl(240 100% 50%)" />
  <rect x="205" y="190" width="30" height="30" fill="hsl(240 100% 50%)" />
  <rect x="240" y="190" width="30" height="30" fill="hsl(240 100% 50%)" />
  <rect x="275" y="190" width="30" height="30" fill="hsl(240 100% 50%)" />
  <rect x="310" y="190" width="30" height="30" fill="hsl(240 100% 50%)" />
  <rect x="345" y="190" width="30" height="30" fill="hsl(240 100% 50%)" />
  <rect x="380" y="190" width="30" height="30" fill="hsl(240 100% 50%)" />
  <rect x="415" y="190" width="30" height="30" fill="hsl(240 100% 50%)" />
  <rect x="450" y="190" width="30" height="30" fill="hsl(240 100% 50%)" />
  <rect x="485" y="190" width="30" height="30" fill="hsl(240 100% 50%)" />
  <rect x="520" y="190" width="30" height="30" fill="hsl(240 100% 50%)" />
  <rect x="555" y="190" width="30" height="30" fill="hsl(240 100% 50%)" />
  <rect x="590" y="190" width="30" height="30" fill="hsl(240 100% 50%)" />
  <rect x="625" y="190" width="30" height="30" fill="hsl(240 100% 50%)" />
  <rect x="660" y="190" width="30" height="30" fill="hsl(240 100% 50%)" />
  <rect x="695" y="190" width="30" height="30" fill="hsl(240 100% 50%)" />
  <rect x="100" y="225" width="30" height="30" fill="hsl(240 100% 96.6302506493517%)" />
  <rect x="135" y="225" width="30" height="30" fill="hsl(240 100% 89.01702271860968%)" />
  <rect x="170" y="225" width="30" height="30" fill="hsl(240 100% 89.05047717482324%)" />
  <rect x="240" y="225" width="30" height="30" fill="hsl(240 100% 91.16781494590359%)" />
  <rect x="310" y="225" width="30" height="30" fill="rgb(255 255 255 / 50%)" />
  <rect x="380" y="225" width="30" height="30" fill="hsl(240 100% 90.38988589773541%)" />
  <rect x="485" y="225" width="30" height="30" fill="hsl(240 100% 50%)" />
  <rect x="555" y="225" width="30" height="30" fill="rgb(255 255 255 / 50%)" />
  <rect x="625" y="225" width="30" height="30" fill="hsl(240 100% 93.07661609287717%)" />
  <rect x="660" y="225" width="30" height="30" fill="rgb(255 255 255 / 50%)" />
  <rect x="695" y="225" width="30" height="30" fill="hsl(240 100% 99.46204344095307%)" />
  <rect x="65" y="260" width="30" height="30" fill="hsl(240 100% 99.87824441751849%)" />
  <rect x="135" y="260" width="30" height="30" fill="hsl(240 100% 99.89100916687934%)" />
  <rect x="170" y="260" width="30" height="30" fill="hsl(240 100% 98.99951454731941%)" />
  <rect x="205" y="260" width="30" height="30" fill="rgb(255 255 255 / 50%)" />
  <rect x="240" y="260" width="30" height="30" fill="hsl(240 100% 87.59392872847484%)" />
  <rect x="310" y="260" width="30" height="30" fill="rgb(255 255 255 / 50%)" />
  <rect x="380" y="260" width="30" height="30" fill="hsl(240 100% 81.65100424102931%)" />
  <rect x="415" y="260" width="30" height="30" fill="rgb(255 255 255 / 50%)" />
  <rect x="450" y="260" width="30" height="30" fill="hsl(240 100% 50%)" />
  <rect x="485" y="260" width="30" height="30" fill="hsl(240 100% 72.69742026618584%)" />
  <rect x="555" y="260" width="30" height="30" fill="hsl(240 100% 97.20517843914674%)" />
  <rect x="590" y="260" width="30" height="30" fill="hsl(240 100% 94.32985332266739%)" />
  <rect x="65" y="295" width="30" height="30" fill="hsl(240 100% 85.88873194045311%)" />
  <rect x="100" y="295" width="30" height="30" fill="hsl(240 100% 97.49588821437588%)" />
  <rect x="135" y="295" width="30" height="30" fill="hsl(240 100% 95.10372102314375%)" />
  <rect x="170" y="295" width="30" height="30" fill="hsl(240 100% 90.54369128238434%)" />
  <rect x="205" y="295" width="30" height="30" fill="hsl(240 100% 99.45703215092938%)" />
  <rect x="240" y="295" width="30" height="30" fill="hsl(240 100% 50%)" />
  <rect x="275" y="295" width="30" height="30" fill="hsl(240 100% 99.85997373005983%)" />
  <rect x="310" y="295" width="30" height="30" fill="hsl(240 100% 99.49271577398962%)" />
  <rect x="345" y="295" width="30" height="30" fill="hsl(240 100% 94.63146138216467%)" />
  <rect x="380" y="295" width="30" height="30" fill="hsl(240 100% 54.662905750678284%)" />
  <rect x="415" y="295" width="30" height="30" fill="hsl(240 100% 99.32639160313566%)" />
  <rect x="450" y="295" width="30" height="30" fill="hsl(240 100% 88.26983191842001%)" />
  <rect x="485" y="295" width="30" height="30" fill="hsl(240 100% 57.277915291239765%)" />
  <rect x="590" y="295" width="30" height="30" fill="hsl(240 100% 97.59250498855228%)" />
  <rect x="695" y="295" width="30" height="30" fill="hsl(240 100% 99.97444444872275%)" />
  <rect x="65" y="330" width="30" height="30" fill="hsl(240 100% 86.27861752596122%)" />
  <rect x="100" y="330" width="30" height="30" fill="hsl(240 100% 93.92440039755573%)" />
  <rect x="135" y="330" width="30" height="30" fill="hsl(240 100% 96.6934868243946%)" />
  <rect x="170" y="330" width="30" height="30" fill="hsl(240 100% 85.74250877954442%)" />
  <rect x="205" y="330" width="30" height="30" fill="hsl(240 100% 99.1183388771667%)" />
  <rect x="240" y="330" width="30" height="30" fill="hsl(240 100% 75.48043901461168%)" />
  <rect x="275" y="330" width="30" height="30" fill="hsl(240 100% 99.8133561465679%)" />
  <rect x="310" y="330" width="30" height="30" fill="rgb(255 255 255 / 50%)" />
  <rect x="345" y="330" width="30" height="30" fill="hsl(240 100% 96.83398577039073%)" />
  <rect x="380" y="330" width="30" height="30" fill="hsl(240 100% 83.79530690170944%)" />
  <rect x="415" y="330" width="30" height="30" fill="hsl(240 100% 99.77775010961219%)" />
  <rect x="450" y="330" width="30" height="30" fill="hsl(240 100% 67.06502009430339%)" />
  <rect x="485" y="330" width="30" height="30" fill="hsl(240 100% 69.69951427306152%)" />
  <rect x="520" y="330" width="30" height="30" fill="hsl(240 100% 92.8695573207918%)" />
  <rect x="555" y="330" width="30" height="30" fill="hsl(240 100% 50%)" />
  <rect x="660" y="330" width="30" height="30" fill="hsl(240 100% 93.22883880474636%)" />
  <rect x="695" y="330" width="30" height="30" fill="hsl(240 100% 94.20777118251108%)" />
  <rect x="65" y="365" width="30" height="30" fill="hsl(240 100% 56.93654401981527%)" />
  <rect x="100" y="365" width="30" height="30" fill="hsl(240 100% 71.714500623158%)" />
  <rect x="135" y="365" width="30" height="30" fill="hsl(240 100% 82.35425097602568%)" />
  <rect x="170" y="365" width="30" height="30" fill="hsl(240 100% 50%)" />
  <rect x="205" y="365" width="30" height="30" fill="hsl(240 100% 96.23369702459077%)" />
  <rect x="240" y="365" width="30" height="30" fill="hsl(240 100% 58.84698686103126%)" />
  <rect x="275" y="365" width="30" height="30" fill="hsl(240 100% 98.97578128233158%)" />
  <rect x="310" y="365" width="30" height="30" fill="hsl(240 100% 99.86243079116637%)" />
  <rect x="380" y="365" width="30" height="30" fill="hsl(240 100% 66.64834624392304%)" />
  <rect x="485" y="365" width="30" height="30" fill="hsl(240 100% 85.94438033715448%)" />
  <rect x="555" y="365" width="30" height="30" fill="hsl(240 100% 99.64731159465366%)" />
  <rect x="625" y="365" width="30" height="30" fill="hsl(240 100% 63.7140433497103%)" />
  <rect x="660" y="365" width="30" height="30" fill="hsl(240 100% 98.17207436271272%)" />
  <rect x="695" y="365" width="30" height="30" fill="hsl(240 100% 99.16168403276004%)" />
  <rect x="65" y="400" width="30" height="30" fill="hsl(240 100% 98.5123546853089%)" />
  <rect x="100" y="400" width="30" height="30" fill="hsl(240 100% 99.40933501831846%)" />
  <rect x="135" y="400" width="30" height="30" fill="hsl(240 100% 99.68023705221941%)" />
  <rect x="170" y="400" width="30" height="30" fill="hsl(240 100% 95.44849355828023%)" />
  <rect x="205" y="400" width="30" height="30" fill="hsl(240 100% 99.24551630961761%)" />
  <rect x="240" y="400" width="30" height="30" fill="hsl(240 100% 87.6216169360952%)" />
  <rect x="275" y="400" width="30" height="30" fill="hsl(240 100% 99.25773146990643%)" />
  <rect x="310" y="400" width="30" height="30" fill="rgb(255 255 255 / 50%)" />
  <rect x="380" y="400" width="30" height="30" fill="hsl(240 100% 94.07433793134219%)" />
  <rect x="415" y="400" width="30" height="30" fill="hsl(240 100% 99.97162761160037%)" />
  <rect x="450" y="400" width="30" height="30" fill="hsl(240 100% 78.68427860738066%)" />
  <rect x="485" y="400" width="30" height="30" fill="hsl(240 100% 50%)" />
  <rect x="695" y="400" width="30" height="30" fill="hsl(240 100% 99.72123824718061%)" />
  <rect x="65" y="435" width="30" height="30" fill="hsl(240 100% 92.88784083455664%)" />
  <rect x="240" y="435" width="30" height="30" fill="hsl(240 100% 50%)" />
  <rect x="310" y="435" width="30" height="30" fill="hsl(240 100% 94.25832895982924%)" />
  <rect x="380" y="435" width="30" height="30" fill="hsl(240 100% 87.00189458603985%)" />
  <rect x="415" y="435" width="30" height="30" fill="hsl(240 100% 99.78964543272126%)" />
  <rect x="65" y="470" width="30" height="30" fill="hsl(240 100% 50%)" />
  <rect x="240" y="470" width="30" height="30" fill="hsl(240 100% 50.19303055103529%)" />
  <rect x="310" y="470" width="30" height="30" fill="hsl(240 100% 97.1575990049479%)" />
  <rect x="380" y="470" width="30" height="30" fill="hsl(240 100% 89.11368516210239%)" />
  <rect x="415" y="470" width="30" height="30" fill="hsl(240 100% 99.58402917480038%)" />
</svg>
