<svg xmlns="http://www.w3.org/2000/svg" viewBox="0 0 730 505">
  <rect x="0" y="0" width="730" height="505" rx="5" ry="5" fill="#222" />
  <text x="60" y="100" fill="white" font-family="sans-serif" font-weight="bold" font-size="12" text-anchor="end" dominant-baseline="middle">ba</text>
  <text x="60" y="135" fill="white" font-family="sans-serif" font-weight="bold" font-size="12" text-anchor="end" dominant-baseline="middle">det</text>
  <text x="60" y="170" fill="white" font-family="sans-serif" font-weight="bold" font-size="12" text-anchor="end" dominant-baseline="middle">gmm</text>
  <text x="60" y="205" fill="white" font-family="sans-serif" font-weight="bold" font-size="12" text-anchor="end" dominant-baseline="middle">hello</text>
  <text x="60" y="240" fill="white" font-family="sans-serif" font-weight="bold" font-size="12" text-anchor="end" dominant-baseline="middle">ht</text>
  <text x="60" y="275" fill="white" font-family="sans-serif" font-weight="bold" font-size="12" text-anchor="end" dominant-baseline="middle">kmeans</text>
  <text x="60" y="310" fill="white" font-family="sans-serif" font-weight="bold" font-size="12" text-anchor="end" dominant-baseline="middle">llsq</text>
  <text x="60" y="345" fill="white" font-family="sans-serif" font-weight="bold" font-size="12" text-anchor="end" dominant-baseline="middle">lse</text>
  <text x="60" y="380" fill="white" font-family="sans-serif" font-weight="bold" font-size="12" text-anchor="end" dominant-baseline="middle">lstm</text>
  <text x="60" y="415" fill="white" font-family="sans-serif" font-weight="bold" font-size="12" text-anchor="end" dominant-baseline="middle">ode</text>
  <text x="60" y="450" fill="white" font-family="sans-serif" font-weight="bold" font-size="12" text-anchor="end" dominant-baseline="middle">particle</text>
  <text x="60" y="485" fill="white" font-family="sans-serif" font-weight="bold" font-size="12" text-anchor="end" dominant-baseline="middle">saddle</text>
  <text x="80" y="80" fill="white" font-family="sans-serif" font-weight="bold" font-size="12" text-anchor="end" dominant-baseline="middle" transform="rotate(90 80 80)">ad-hpp</text>
  <text x="115" y="80" fill="white" font-family="sans-serif" font-weight="bold" font-size="12" text-anchor="end" dominant-baseline="middle" transform="rotate(90 115 80)">adept</text>
  <text x="150" y="80" fill="white" font-family="sans-serif" font-weight="bold" font-size="12" text-anchor="end" dominant-baseline="middle" transform="rotate(90 150 80)">adol-c</text>
  <text x="185" y="80" fill="white" font-family="sans-serif" font-weight="bold" font-size="12" text-anchor="end" dominant-baseline="middle" transform="rotate(90 185 80)">codipack</text>
  <text x="220" y="80" fill="white" font-family="sans-serif" font-weight="bold" font-size="12" text-anchor="end" dominant-baseline="middle" transform="rotate(90 220 80)">cppad</text>
  <text x="255" y="80" fill="white" font-family="sans-serif" font-weight="bold" font-size="12" text-anchor="end" dominant-baseline="middle" transform="rotate(90 255 80)">enzyme</text>
  <text x="290" y="80" fill="white" font-family="sans-serif" font-weight="bold" font-size="12" text-anchor="end" dominant-baseline="middle" transform="rotate(90 290 80)">enzyme-jl</text>
  <text x="325" y="80" fill="white" font-family="sans-serif" font-weight="bold" font-size="12" text-anchor="end" dominant-baseline="middle" transform="rotate(90 325 80)">finite</text>
  <text x="360" y="80" fill="white" font-family="sans-serif" font-weight="bold" font-size="12" text-anchor="end" dominant-baseline="middle" transform="rotate(90 360 80)">floretta</text>
  <text x="395" y="80" fill="white" font-family="sans-serif" font-weight="bold" font-size="12" text-anchor="end" dominant-baseline="middle" transform="rotate(90 395 80)">futhark</text>
  <text x="430" y="80" fill="white" font-family="sans-serif" font-weight="bold" font-size="12" text-anchor="end" dominant-baseline="middle" transform="rotate(90 430 80)">haskell</text>
  <text x="465" y="80" fill="white" font-family="sans-serif" font-weight="bold" font-size="12" text-anchor="end" dominant-baseline="middle" transform="rotate(90 465 80)">jax</text>
  <text x="500" y="80" fill="white" font-family="sans-serif" font-weight="bold" font-size="12" text-anchor="end" dominant-baseline="middle" transform="rotate(90 500 80)">manual</text>
  <text x="535" y="80" fill="white" font-family="sans-serif" font-weight="bold" font-size="12" text-anchor="end" dominant-baseline="middle" transform="rotate(90 535 80)">ocaml</text>
  <text x="570" y="80" fill="white" font-family="sans-serif" font-weight="bold" font-size="12" text-anchor="end" dominant-baseline="middle" transform="rotate(90 570 80)">pytorch</text>
  <text x="605" y="80" fill="white" font-family="sans-serif" font-weight="bold" font-size="12" text-anchor="end" dominant-baseline="middle" transform="rotate(90 605 80)">scilean</text>
  <text x="640" y="80" fill="white" font-family="sans-serif" font-weight="bold" font-size="12" text-anchor="end" dominant-baseline="middle" transform="rotate(90 640 80)">tapenade</text>
  <text x="675" y="80" fill="white" font-family="sans-serif" font-weight="bold" font-size="12" text-anchor="end" dominant-baseline="middle" transform="rotate(90 675 80)">tensorflow</text>
  <text x="710" y="80" fill="white" font-family="sans-serif" font-weight="bold" font-size="12" text-anchor="end" dominant-baseline="middle" transform="rotate(90 710 80)">zygote</text>
  <rect x="65" y="85" width="30" height="30" fill="hsl(240 100% 78.78102635952077%)" />
  <rect x="100" y="85" width="30" height="30" fill="hsl(240 100% 83.44172619191664%)" />
  <rect x="135" y="85" width="30" height="30" fill="hsl(240 100% 97.83668695320912%)" />
  <rect x="170" y="85" width="30" height="30" fill="hsl(240 100% 89.07643992900952%)" />
  <rect x="205" y="85" width="30" height="30" fill="hsl(240 100% 98.90598415675586%)" />
  <rect x="240" y="85" width="30" height="30" fill="hsl(240 100% 51.176409710705016%)" />
  <rect x="310" y="85" width="30" height="30" fill="hsl(240 100% 92.63547932545791%)" />
  <rect x="380" y="85" width="30" height="30" fill="hsl(240 100% 68.8294410926846%)" />
  <rect x="485" y="85" width="30" height="30" fill="hsl(240 100% 50%)" />
  <rect x="555" y="85" width="30" height="30" fill="rgb(255 255 255 / 50%)" />
  <rect x="625" y="85" width="30" height="30" fill="hsl(240 100% 72.75496093527872%)" />
  <rect x="660" y="85" width="30" height="30" fill="rgb(255 255 255 / 50%)" />
  <rect x="695" y="85" width="30" height="30" fill="hsl(240 100% 99.70486750104924%)" />
  <rect x="65" y="120" width="30" height="30" fill="hsl(240 100% 50%)" />
  <rect x="100" y="120" width="30" height="30" fill="hsl(240 100% 83.96055095343472%)" />
  <rect x="135" y="120" width="30" height="30" fill="hsl(240 100% 85.81433783155687%)" />
  <rect x="170" y="120" width="30" height="30" fill="hsl(240 100% 53.65748571706766%)" />
  <rect x="205" y="120" width="30" height="30" fill="hsl(240 100% 92.81129080465166%)" />
  <rect x="240" y="120" width="30" height="30" fill="hsl(240 100% 91.89989187102265%)" />
  <rect x="275" y="120" width="30" height="30" fill="hsl(240 100% 99.2505315087866%)" />
  <rect x="310" y="120" width="30" height="30" fill="hsl(240 100% 98.9839208329028%)" />
  <rect x="380" y="120" width="30" height="30" fill="hsl(240 100% 94.72839969683722%)" />
  <rect x="415" y="120" width="30" height="30" fill="hsl(240 100% 97.96606941719956%)" />
  <rect x="485" y="120" width="30" height="30" fill="hsl(240 100% 79.92015733997059%)" />
  <rect x="695" y="120" width="30" height="30" fill="rgb(255 255 255 / 50%)" />
  <rect x="65" y="155" width="30" height="30" fill="hsl(240 100% 97.29850630855948%)" />
  <rect x="100" y="155" width="30" height="30" fill="hsl(240 100% 98.33447753401309%)" />
  <rect x="135" y="155" width="30" height="30" fill="hsl(240 100% 98.99161166560765%)" />
  <rect x="170" y="155" width="30" height="30" fill="hsl(240 100% 97.20982260900101%)" />
  <rect x="205" y="155" width="30" height="30" fill="hsl(240 100% 99.7727688352815%)" />
  <rect x="240" y="155" width="30" height="30" fill="hsl(240 100% 87.00124060661602%)" />
  <rect x="275" y="155" width="30" height="30" fill="hsl(240 100% 99.82360490166792%)" />
  <rect x="310" y="155" width="30" height="30" fill="rgb(255 255 255 / 50%)" />
  <rect x="380" y="155" width="30" height="30" fill="hsl(240 100% 90.03974972956921%)" />
  <rect x="450" y="155" width="30" height="30" fill="hsl(240 100% 72.73106916366389%)" />
  <rect x="485" y="155" width="30" height="30" fill="hsl(240 100% 75.61796888720932%)" />
  <rect x="520" y="155" width="30" height="30" fill="hsl(240 100% 99.36202299859711%)" />
  <rect x="555" y="155" width="30" height="30" fill="hsl(240 100% 50%)" />
  <rect x="590" y="155" width="30" height="30" fill="hsl(240 100% 92.78039677568792%)" />
  <rect x="625" y="155" width="30" height="30" fill="hsl(240 100% 78.46849202227223%)" />
  <rect x="660" y="155" width="30" height="30" fill="hsl(240 100% 89.03462952499329%)" />
  <rect x="695" y="155" width="30" height="30" fill="hsl(240 100% 99.37402470978715%)" />
  <rect x="65" y="190" width="30" height="30" fill="hsl(240 100% 50%)" />
  <rect x="100" y="190" width="30" height="30" fill="hsl(240 100% 50%)" />
  <rect x="135" y="190" width="30" height="30" fill="hsl(240 100% 50%)" />
  <rect x="170" y="190" width="30" height="30" fill="hsl(240 100% 50%)" />
  <rect x="205" y="190" width="30" height="30" fill="hsl(240 100% 50%)" />
  <rect x="240" y="190" width="30" height="30" fill="hsl(240 100% 50%)" />
  <rect x="275" y="190" width="30" height="30" fill="hsl(240 100% 50%)" />
  <rect x="310" y="190" width="30" height="30" fill="hsl(240 100% 50%)" />
  <rect x="345" y="190" width="30" height="30" fill="hsl(240 100% 50%)" />
  <rect x="380" y="190" width="30" height="30" fill="hsl(240 100% 50%)" />
  <rect x="415" y="190" width="30" height="30" fill="hsl(240 100% 50%)" />
  <rect x="450" y="190" width="30" height="30" fill="hsl(240 100% 50%)" />
  <rect x="485" y="190" width="30" height="30" fill="hsl(240 100% 50%)" />
  <rect x="520" y="190" width="30" height="30" fill="hsl(240 100% 50%)" />
  <rect x="555" y="190" width="30" height="30" fill="hsl(240 100% 50%)" />
  <rect x="590" y="190" width="30" height="30" fill="hsl(240 100% 50%)" />
  <rect x="625" y="190" width="30" height="30" fill="hsl(240 100% 50%)" />
  <rect x="660" y="190" width="30" height="30" fill="hsl(240 100% 50%)" />
  <rect x="695" y="190" width="30" height="30" fill="hsl(240 100% 50%)" />
  <rect x="100" y="225" width="30" height="30" fill="hsl(240 100% 95.83689998895221%)" />
  <rect x="135" y="225" width="30" height="30" fill="hsl(240 100% 89.46139767482745%)" />
  <rect x="170" y="225" width="30" height="30" fill="hsl(240 100% 87.6210868501121%)" />
  <rect x="240" y="225" width="30" height="30" fill="hsl(240 100% 89.73636506844721%)" />
  <rect x="310" y="225" width="30" height="30" fill="rgb(255 255 255 / 50%)" />
  <rect x="380" y="225" width="30" height="30" fill="hsl(240 100% 89.13313921820193%)" />
  <rect x="485" y="225" width="30" height="30" fill="hsl(240 100% 50%)" />
  <rect x="555" y="225" width="30" height="30" fill="rgb(255 255 255 / 50%)" />
  <rect x="625" y="225" width="30" height="30" fill="rgb(255 255 255 / 50%)" />
  <rect x="660" y="225" width="30" height="30" fill="rgb(255 255 255 / 50%)" />
  <rect x="695" y="225" width="30" height="30" fill="hsl(240 100% 99.40460750085502%)" />
  <rect x="135" y="260" width="30" height="30" fill="hsl(240 100% 99.9109497839218%)" />
  <rect x="170" y="260" width="30" height="30" fill="hsl(240 100% 99.39836722413355%)" />
  <rect x="205" y="260" width="30" height="30" fill="rgb(255 255 255 / 50%)" />
  <rect x="240" y="260" width="30" height="30" fill="hsl(240 100% 88.06671217358235%)" />
  <rect x="310" y="260" width="30" height="30" fill="rgb(255 255 255 / 50%)" />
  <rect x="380" y="260" width="30" height="30" fill="hsl(240 100% 83.04284333078924%)" />
  <rect x="415" y="260" width="30" height="30" fill="rgb(255 255 255 / 50%)" />
  <rect x="450" y="260" width="30" height="30" fill="hsl(240 100% 50%)" />
  <rect x="485" y="260" width="30" height="30" fill="hsl(240 100% 76.70699433158872%)" />
  <rect x="555" y="260" width="30" height="30" fill="hsl(240 100% 97.17115725980693%)" />
  <rect x="590" y="260" width="30" height="30" fill="hsl(240 100% 94.16324744811209%)" />
  <rect x="65" y="295" width="30" height="30" fill="hsl(240 100% 58.740766649906405%)" />
  <rect x="100" y="295" width="30" height="30" fill="hsl(240 100% 67.13468888026269%)" />
  <rect x="135" y="295" width="30" height="30" fill="hsl(240 100% 59.05159512444641%)" />
  <rect x="170" y="295" width="30" height="30" fill="hsl(240 100% 60.0442642584459%)" />
  <rect x="205" y="295" width="30" height="30" fill="hsl(240 100% 91.62259392008187%)" />
  <rect x="240" y="295" width="30" height="30" fill="hsl(240 100% 50%)" />
  <rect x="275" y="295" width="30" height="30" fill="hsl(240 100% 98.93272799192182%)" />
  <rect x="310" y="295" width="30" height="30" fill="hsl(240 100% 99.42912516541632%)" />
  <rect x="380" y="295" width="30" height="30" fill="hsl(240 100% 50.61544317737616%)" />
  <rect x="415" y="295" width="30" height="30" fill="hsl(240 100% 89.72563741309769%)" />
  <rect x="485" y="295" width="30" height="30" fill="hsl(240 100% 53.58115660728418%)" />
  <rect x="590" y="295" width="30" height="30" fill="hsl(240 100% 55.371355790535034%)" />
  <rect x="695" y="295" width="30" height="30" fill="hsl(240 100% 99.72785983090633%)" />
  <rect x="65" y="330" width="30" height="30" fill="hsl(240 100% 89.13207694136463%)" />
  <rect x="100" y="330" width="30" height="30" fill="hsl(240 100% 94.79753487157029%)" />
  <rect x="135" y="330" width="30" height="30" fill="hsl(240 100% 97.20822927616004%)" />
  <rect x="170" y="330" width="30" height="30" fill="hsl(240 100% 89.50603569352604%)" />
  <rect x="205" y="330" width="30" height="30" fill="hsl(240 100% 99.21332921738761%)" />
  <rect x="240" y="330" width="30" height="30" fill="hsl(240 100% 80.4930525542959%)" />
  <rect x="275" y="330" width="30" height="30" fill="hsl(240 100% 99.82723849177111%)" />
  <rect x="310" y="330" width="30" height="30" fill="rgb(255 255 255 / 50%)" />
  <rect x="380" y="330" width="30" height="30" fill="hsl(240 100% 85.73337628560827%)" />
  <rect x="415" y="330" width="30" height="30" fill="hsl(240 100% 99.81335467347138%)" />
  <rect x="450" y="330" width="30" height="30" fill="hsl(240 100% 72.4236863620299%)" />
  <rect x="485" y="330" width="30" height="30" fill="hsl(240 100% 78.62035444047103%)" />
  <rect x="520" y="330" width="30" height="30" fill="hsl(240 100% 93.86771391454012%)" />
  <rect x="555" y="330" width="30" height="30" fill="hsl(240 100% 50%)" />
  <rect x="660" y="330" width="30" height="30" fill="hsl(240 100% 88.78161193991%)" />
  <rect x="695" y="330" width="30" height="30" fill="hsl(240 100% 95.43897619527927%)" />
  <rect x="65" y="365" width="30" height="30" fill="hsl(240 100% 54.205776380922394%)" />
  <rect x="100" y="365" width="30" height="30" fill="hsl(240 100% 69.70460842303181%)" />
  <rect x="135" y="365" width="30" height="30" fill="hsl(240 100% 80.70532658186761%)" />
  <rect x="170" y="365" width="30" height="30" fill="hsl(240 100% 50%)" />
  <rect x="205" y="365" width="30" height="30" fill="hsl(240 100% 95.25850390609243%)" />
  <rect x="240" y="365" width="30" height="30" fill="hsl(240 100% 50.80019100906065%)" />
  <rect x="275" y="365" width="30" height="30" fill="hsl(240 100% 98.8902131511874%)" />
  <rect x="310" y="365" width="30" height="30" fill="hsl(240 100% 99.8511298277382%)" />
  <rect x="380" y="365" width="30" height="30" fill="hsl(240 100% 63.42221386084408%)" />
  <rect x="485" y="365" width="30" height="30" fill="hsl(240 100% 84.70994567956642%)" />
  <rect x="555" y="365" width="30" height="30" fill="hsl(240 100% 99.60168168842652%)" />
  <rect x="625" y="365" width="30" height="30" fill="hsl(240 100% 60.374285289594106%)" />
  <rect x="660" y="365" width="30" height="30" fill="hsl(240 100% 97.9417309151779%)" />
  <rect x="695" y="365" width="30" height="30" fill="hsl(240 100% 99.11356588165637%)" />
  <rect x="65" y="400" width="30" height="30" fill="hsl(240 100% 97.97526253823689%)" />
  <rect x="100" y="400" width="30" height="30" fill="hsl(240 100% 99.20181466122108%)" />
  <rect x="135" y="400" width="30" height="30" fill="hsl(240 100% 99.56509992222605%)" />
  <rect x="170" y="400" width="30" height="30" fill="hsl(240 100% 93.7845080675664%)" />
  <rect x="205" y="400" width="30" height="30" fill="hsl(240 100% 98.97998180079246%)" />
  <rect x="240" y="400" width="30" height="30" fill="hsl(240 100% 85.95383632735415%)" />
  <rect x="275" y="400" width="30" height="30" fill="hsl(240 100% 99.0644145436063%)" />
  <rect x="310" y="400" width="30" height="30" fill="rgb(255 255 255 / 50%)" />
  <rect x="380" y="400" width="30" height="30" fill="hsl(240 100% 95.36709895652153%)" />
  <rect x="415" y="400" width="30" height="30" fill="hsl(240 100% 99.96592263911951%)" />
  <rect x="485" y="400" width="30" height="30" fill="hsl(240 100% 50%)" />
  <rect x="695" y="400" width="30" height="30" fill="hsl(240 100% 99.6210589338715%)" />
  <rect x="240" y="435" width="30" height="30" fill="hsl(240 100% 50%)" />
  <rect x="310" y="435" width="30" height="30" fill="hsl(240 100% 95.2094485697671%)" />
  <rect x="380" y="435" width="30" height="30" fill="hsl(240 100% 87.87744280461874%)" />
  <rect x="415" y="435" width="30" height="30" fill="hsl(240 100% 99.78579491350773%)" />
  <rect x="240" y="470" width="30" height="30" fill="hsl(240 100% 50%)" />
  <rect x="310" y="470" width="30" height="30" fill="hsl(240 100% 95.82742143404606%)" />
  <rect x="380" y="470" width="30" height="30" fill="hsl(240 100% 89.73639846858653%)" />
  <rect x="415" y="470" width="30" height="30" fill="hsl(240 100% 99.56853551582995%)" />
</svg>
