<svg xmlns="http://www.w3.org/2000/svg" viewBox="0 0 870 505">
  <rect x="0" y="0" width="870" height="505" rx="5" ry="5" fill="#222" />
  <text x="60" y="100" fill="white" font-family="sans-serif" font-weight="bold" font-size="12" text-anchor="end" dominant-baseline="middle">ba</text>
  <text x="60" y="135" fill="white" font-family="sans-serif" font-weight="bold" font-size="12" text-anchor="end" dominant-baseline="middle">det</text>
  <text x="60" y="170" fill="white" font-family="sans-serif" font-weight="bold" font-size="12" text-anchor="end" dominant-baseline="middle">gmm</text>
  <text x="60" y="205" fill="white" font-family="sans-serif" font-weight="bold" font-size="12" text-anchor="end" dominant-baseline="middle">hello</text>
  <text x="60" y="240" fill="white" font-family="sans-serif" font-weight="bold" font-size="12" text-anchor="end" dominant-baseline="middle">ht</text>
  <text x="60" y="275" fill="white" font-family="sans-serif" font-weight="bold" font-size="12" text-anchor="end" dominant-baseline="middle">kmeans</text>
  <text x="60" y="310" fill="white" font-family="sans-serif" font-weight="bold" font-size="12" text-anchor="end" dominant-baseline="middle">llsq</text>
  <text x="60" y="345" fill="white" font-family="sans-serif" font-weight="bold" font-size="12" text-anchor="end" dominant-baseline="middle">lse</text>
  <text x="60" y="380" fill="white" font-family="sans-serif" font-weight="bold" font-size="12" text-anchor="end" dominant-baseline="middle">lstm</text>
  <text x="60" y="415" fill="white" font-family="sans-serif" font-weight="bold" font-size="12" text-anchor="end" dominant-baseline="middle">ode</text>
  <text x="60" y="450" fill="white" font-family="sans-serif" font-weight="bold" font-size="12" text-anchor="end" dominant-baseline="middle">particle</text>
  <text x="60" y="485" fill="white" font-family="sans-serif" font-weight="bold" font-size="12" text-anchor="end" dominant-baseline="middle">saddle</text>
  <text x="80" y="80" fill="white" font-family="sans-serif" font-weight="bold" font-size="12" text-anchor="end" dominant-baseline="middle" transform="rotate(90 80 80)">ad-hpp</text>
  <text x="115" y="80" fill="white" font-family="sans-serif" font-weight="bold" font-size="12" text-anchor="end" dominant-baseline="middle" transform="rotate(90 115 80)">adept</text>
  <text x="150" y="80" fill="white" font-family="sans-serif" font-weight="bold" font-size="12" text-anchor="end" dominant-baseline="middle" transform="rotate(90 150 80)">adol-c</text>
  <text x="185" y="80" fill="white" font-family="sans-serif" font-weight="bold" font-size="12" text-anchor="end" dominant-baseline="middle" transform="rotate(90 185 80)">codipack</text>
  <text x="220" y="80" fill="white" font-family="sans-serif" font-weight="bold" font-size="12" text-anchor="end" dominant-baseline="middle" transform="rotate(90 220 80)">cppad</text>
  <text x="255" y="80" fill="white" font-family="sans-serif" font-weight="bold" font-size="12" text-anchor="end" dominant-baseline="middle" transform="rotate(90 255 80)">enzyme</text>
  <text x="290" y="80" fill="white" font-family="sans-serif" font-weight="bold" font-size="12" text-anchor="end" dominant-baseline="middle" transform="rotate(90 290 80)">enzyme-jl</text>
  <text x="325" y="80" fill="white" font-family="sans-serif" font-weight="bold" font-size="12" text-anchor="end" dominant-baseline="middle" transform="rotate(90 325 80)">finite</text>
  <text x="360" y="80" fill="white" font-family="sans-serif" font-weight="bold" font-size="12" text-anchor="end" dominant-baseline="middle" transform="rotate(90 360 80)">floretta</text>
  <text x="395" y="80" fill="white" font-family="sans-serif" font-weight="bold" font-size="12" text-anchor="end" dominant-baseline="middle" transform="rotate(90 395 80)">forwarddiff-jl</text>
  <text x="430" y="80" fill="white" font-family="sans-serif" font-weight="bold" font-size="12" text-anchor="end" dominant-baseline="middle" transform="rotate(90 430 80)">futhark</text>
  <text x="465" y="80" fill="white" font-family="sans-serif" font-weight="bold" font-size="12" text-anchor="end" dominant-baseline="middle" transform="rotate(90 465 80)">haskell</text>
  <text x="500" y="80" fill="white" font-family="sans-serif" font-weight="bold" font-size="12" text-anchor="end" dominant-baseline="middle" transform="rotate(90 500 80)">jax</text>
  <text x="535" y="80" fill="white" font-family="sans-serif" font-weight="bold" font-size="12" text-anchor="end" dominant-baseline="middle" transform="rotate(90 535 80)">manual</text>
  <text x="570" y="80" fill="white" font-family="sans-serif" font-weight="bold" font-size="12" text-anchor="end" dominant-baseline="middle" transform="rotate(90 570 80)">mooncake-jl</text>
  <text x="605" y="80" fill="white" font-family="sans-serif" font-weight="bold" font-size="12" text-anchor="end" dominant-baseline="middle" transform="rotate(90 605 80)">ocaml</text>
  <text x="640" y="80" fill="white" font-family="sans-serif" font-weight="bold" font-size="12" text-anchor="end" dominant-baseline="middle" transform="rotate(90 640 80)">pytorch</text>
  <text x="675" y="80" fill="white" font-family="sans-serif" font-weight="bold" font-size="12" text-anchor="end" dominant-baseline="middle" transform="rotate(90 675 80)">reversediff-jl</text>
  <text x="710" y="80" fill="white" font-family="sans-serif" font-weight="bold" font-size="12" text-anchor="end" dominant-baseline="middle" transform="rotate(90 710 80)">scilean</text>
  <text x="745" y="80" fill="white" font-family="sans-serif" font-weight="bold" font-size="12" text-anchor="end" dominant-baseline="middle" transform="rotate(90 745 80)">tapenade</text>
  <text x="780" y="80" fill="white" font-family="sans-serif" font-weight="bold" font-size="12" text-anchor="end" dominant-baseline="middle" transform="rotate(90 780 80)">tensorflow</text>
  <text x="815" y="80" fill="white" font-family="sans-serif" font-weight="bold" font-size="12" text-anchor="end" dominant-baseline="middle" transform="rotate(90 815 80)">tensorflow-js</text>
  <text x="850" y="80" fill="white" font-family="sans-serif" font-weight="bold" font-size="12" text-anchor="end" dominant-baseline="middle" transform="rotate(90 850 80)">zygote</text>
  <rect x="65" y="85" width="30" height="30" fill="hsl(240 100% 80.72868228656569%)" />
  <rect x="100" y="85" width="30" height="30" fill="hsl(240 100% 82.32538714030505%)" />
  <rect x="135" y="85" width="30" height="30" fill="hsl(240 100% 97.9164743892224%)" />
  <rect x="170" y="85" width="30" height="30" fill="hsl(240 100% 82.12615299900351%)" />
  <rect x="205" y="85" width="30" height="30" fill="hsl(240 100% 98.94709397566882%)" />
  <rect x="240" y="85" width="30" height="30" fill="hsl(240 100% 50%)" />
  <rect x="310" y="85" width="30" height="30" fill="hsl(240 100% 92.88432299927258%)" />
  <rect x="415" y="85" width="30" height="30" fill="hsl(240 100% 67.01660638564125%)" />
  <rect x="520" y="85" width="30" height="30" fill="hsl(240 100% 53.991684047169116%)" />
  <rect x="625" y="85" width="30" height="30" fill="rgb(255 255 255 / 50%)" />
  <rect x="730" y="85" width="30" height="30" fill="hsl(240 100% 73.87551038743823%)" />
  <rect x="765" y="85" width="30" height="30" fill="rgb(255 255 255 / 50%)" />
  <rect x="835" y="85" width="30" height="30" fill="hsl(240 100% 99.72758442659129%)" />
  <rect x="65" y="120" width="30" height="30" fill="hsl(240 100% 50%)" />
  <rect x="100" y="120" width="30" height="30" fill="hsl(240 100% 82.96622588089089%)" />
  <rect x="135" y="120" width="30" height="30" fill="hsl(240 100% 85.58827384195807%)" />
  <rect x="170" y="120" width="30" height="30" fill="hsl(240 100% 52.85871115533677%)" />
  <rect x="205" y="120" width="30" height="30" fill="hsl(240 100% 92.7666005219716%)" />
  <rect x="240" y="120" width="30" height="30" fill="hsl(240 100% 91.55273372644325%)" />
  <rect x="275" y="120" width="30" height="30" fill="hsl(240 100% 99.3590813386619%)" />
  <rect x="310" y="120" width="30" height="30" fill="hsl(240 100% 99.0237944889973%)" />
  <rect x="380" y="120" width="30" height="30" fill="hsl(240 100% 93.40622038598583%)" />
  <rect x="415" y="120" width="30" height="30" fill="hsl(240 100% 94.6543698845566%)" />
  <rect x="450" y="120" width="30" height="30" fill="hsl(240 100% 97.89039430913581%)" />
  <rect x="520" y="120" width="30" height="30" fill="hsl(240 100% 79.8301572532793%)" />
  <rect x="555" y="120" width="30" height="30" fill="hsl(240 100% 93.10199861594621%)" />
  <rect x="660" y="120" width="30" height="30" fill="rgb(255 255 255 / 50%)" />
  <rect x="835" y="120" width="30" height="30" fill="rgb(255 255 255 / 50%)" />
  <rect x="65" y="155" width="30" height="30" fill="hsl(240 100% 98.27966724466953%)" />
  <rect x="100" y="155" width="30" height="30" fill="hsl(240 100% 98.82733344651338%)" />
  <rect x="135" y="155" width="30" height="30" fill="hsl(240 100% 99.10968300311838%)" />
  <rect x="170" y="155" width="30" height="30" fill="hsl(240 100% 98.0016763419146%)" />
  <rect x="205" y="155" width="30" height="30" fill="hsl(240 100% 99.84851321364098%)" />
  <rect x="240" y="155" width="30" height="30" fill="hsl(240 100% 91.14590456615176%)" />
  <rect x="275" y="155" width="30" height="30" fill="hsl(240 100% 92.35898500334551%)" />
  <rect x="310" y="155" width="30" height="30" fill="rgb(255 255 255 / 50%)" />
  <rect x="415" y="155" width="30" height="30" fill="hsl(240 100% 92.92492482218475%)" />
  <rect x="485" y="155" width="30" height="30" fill="hsl(240 100% 50%)" />
  <rect x="520" y="155" width="30" height="30" fill="hsl(240 100% 80.8254881550729%)" />
  <rect x="590" y="155" width="30" height="30" fill="hsl(240 100% 99.57890284061504%)" />
  <rect x="625" y="155" width="30" height="30" fill="hsl(240 100% 66.8751398803731%)" />
  <rect x="695" y="155" width="30" height="30" fill="hsl(240 100% 95.08846437436759%)" />
  <rect x="730" y="155" width="30" height="30" fill="hsl(240 100% 83.74095185390124%)" />
  <rect x="765" y="155" width="30" height="30" fill="hsl(240 100% 99.57541313289441%)" />
  <rect x="835" y="155" width="30" height="30" fill="hsl(240 100% 96.26931203683024%)" />
  <rect x="65" y="190" width="30" height="30" fill="hsl(240 100% 50%)" />
  <rect x="100" y="190" width="30" height="30" fill="hsl(240 100% 50%)" />
  <rect x="135" y="190" width="30" height="30" fill="hsl(240 100% 50%)" />
  <rect x="170" y="190" width="30" height="30" fill="hsl(240 100% 50%)" />
  <rect x="205" y="190" width="30" height="30" fill="hsl(240 100% 50%)" />
  <rect x="240" y="190" width="30" height="30" fill="hsl(240 100% 50%)" />
  <rect x="275" y="190" width="30" height="30" fill="hsl(240 100% 50%)" />
  <rect x="310" y="190" width="30" height="30" fill="hsl(240 100% 50%)" />
  <rect x="345" y="190" width="30" height="30" fill="hsl(240 100% 50%)" />
  <rect x="380" y="190" width="30" height="30" fill="hsl(240 100% 50%)" />
  <rect x="415" y="190" width="30" height="30" fill="hsl(240 100% 50%)" />
  <rect x="450" y="190" width="30" height="30" fill="hsl(240 100% 50%)" />
  <rect x="485" y="190" width="30" height="30" fill="hsl(240 100% 50%)" />
  <rect x="520" y="190" width="30" height="30" fill="hsl(240 100% 50%)" />
  <rect x="555" y="190" width="30" height="30" fill="hsl(240 100% 50%)" />
  <rect x="590" y="190" width="30" height="30" fill="hsl(240 100% 50%)" />
  <rect x="625" y="190" width="30" height="30" fill="hsl(240 100% 50%)" />
  <rect x="660" y="190" width="30" height="30" fill="hsl(240 100% 50%)" />
  <rect x="695" y="190" width="30" height="30" fill="hsl(240 100% 50%)" />
  <rect x="730" y="190" width="30" height="30" fill="hsl(240 100% 50%)" />
  <rect x="765" y="190" width="30" height="30" fill="hsl(240 100% 50%)" />
  <rect x="800" y="190" width="30" height="30" fill="hsl(240 100% 50%)" />
  <rect x="835" y="190" width="30" height="30" fill="hsl(240 100% 50%)" />
  <rect x="100" y="225" width="30" height="30" fill="hsl(240 100% 96.26590670288725%)" />
  <rect x="135" y="225" width="30" height="30" fill="hsl(240 100% 86.3874672816065%)" />
  <rect x="170" y="225" width="30" height="30" fill="hsl(240 100% 87.94671754228476%)" />
  <rect x="240" y="225" width="30" height="30" fill="hsl(240 100% 90.20726087518513%)" />
  <rect x="310" y="225" width="30" height="30" fill="rgb(255 255 255 / 50%)" />
  <rect x="415" y="225" width="30" height="30" fill="hsl(240 100% 89.42374785492336%)" />
  <rect x="520" y="225" width="30" height="30" fill="hsl(240 100% 50%)" />
  <rect x="625" y="225" width="30" height="30" fill="rgb(255 255 255 / 50%)" />
  <rect x="730" y="225" width="30" height="30" fill="hsl(240 100% 92.35017953115518%)" />
  <rect x="765" y="225" width="30" height="30" fill="rgb(255 255 255 / 50%)" />
  <rect x="835" y="225" width="30" height="30" fill="hsl(240 100% 93.55510437633706%)" />
  <rect x="65" y="260" width="30" height="30" fill="hsl(240 100% 99.84351352661638%)" />
  <rect x="135" y="260" width="30" height="30" fill="hsl(240 100% 99.85735141646265%)" />
  <rect x="170" y="260" width="30" height="30" fill="hsl(240 100% 98.91024151368497%)" />
  <rect x="205" y="260" width="30" height="30" fill="rgb(255 255 255 / 50%)" />
  <rect x="240" y="260" width="30" height="30" fill="hsl(240 100% 87.17660321844579%)" />
  <rect x="310" y="260" width="30" height="30" fill="rgb(255 255 255 / 50%)" />
  <rect x="415" y="260" width="30" height="30" fill="hsl(240 100% 80.98156399961532%)" />
  <rect x="450" y="260" width="30" height="30" fill="rgb(255 255 255 / 50%)" />
  <rect x="485" y="260" width="30" height="30" fill="hsl(240 100% 50%)" />
  <rect x="520" y="260" width="30" height="30" fill="hsl(240 100% 72.78116776858184%)" />
  <rect x="625" y="260" width="30" height="30" fill="hsl(240 100% 97.01919268869209%)" />
  <rect x="695" y="260" width="30" height="30" fill="hsl(240 100% 94.18499180477293%)" />
  <rect x="65" y="295" width="30" height="30" fill="hsl(240 100% 85.8174469028601%)" />
  <rect x="100" y="295" width="30" height="30" fill="hsl(240 100% 97.47229893384704%)" />
  <rect x="135" y="295" width="30" height="30" fill="hsl(240 100% 94.98650409292519%)" />
  <rect x="170" y="295" width="30" height="30" fill="hsl(240 100% 89.26148386647468%)" />
  <rect x="205" y="295" width="30" height="30" fill="hsl(240 100% 99.47772328510202%)" />
  <rect x="240" y="295" width="30" height="30" fill="hsl(240 100% 50%)" />
  <rect x="275" y="295" width="30" height="30" fill="hsl(240 100% 50.137649755331395%)" />
  <rect x="310" y="295" width="30" height="30" fill="hsl(240 100% 99.4931589636413%)" />
  <rect x="345" y="295" width="30" height="30" fill="hsl(240 100% 94.6431475366048%)" />
  <rect x="415" y="295" width="30" height="30" fill="hsl(240 100% 54.64375111826803%)" />
  <rect x="450" y="295" width="30" height="30" fill="hsl(240 100% 99.30950083744068%)" />
  <rect x="485" y="295" width="30" height="30" fill="hsl(240 100% 88.48269491301835%)" />
  <rect x="520" y="295" width="30" height="30" fill="hsl(240 100% 57.33415014033663%)" />
  <rect x="695" y="295" width="30" height="30" fill="hsl(240 100% 97.57824355281433%)" />
  <rect x="800" y="295" width="30" height="30" fill="hsl(240 100% 99.56624303317669%)" />
  <rect x="835" y="295" width="30" height="30" fill="hsl(240 100% 99.9525278522385%)" />
  <rect x="65" y="330" width="30" height="30" fill="hsl(240 100% 88.33990270834272%)" />
  <rect x="100" y="330" width="30" height="30" fill="hsl(240 100% 94.73548665203846%)" />
  <rect x="135" y="330" width="30" height="30" fill="hsl(240 100% 97.23965310032982%)" />
  <rect x="170" y="330" width="30" height="30" fill="hsl(240 100% 87.92397677409677%)" />
  <rect x="205" y="330" width="30" height="30" fill="hsl(240 100% 99.26509818497806%)" />
  <rect x="240" y="330" width="30" height="30" fill="hsl(240 100% 81.28560794560036%)" />
  <rect x="275" y="330" width="30" height="30" fill="hsl(240 100% 88.83826922981582%)" />
  <rect x="310" y="330" width="30" height="30" fill="rgb(255 255 255 / 50%)" />
  <rect x="345" y="330" width="30" height="30" fill="hsl(240 100% 97.46071028564882%)" />
  <rect x="415" y="330" width="30" height="30" fill="hsl(240 100% 86.95032568348759%)" />
  <rect x="450" y="330" width="30" height="30" fill="hsl(240 100% 99.83268231483797%)" />
  <rect x="485" y="330" width="30" height="30" fill="hsl(240 100% 73.89896676917843%)" />
  <rect x="520" y="330" width="30" height="30" fill="hsl(240 100% 73.2429932327184%)" />
  <rect x="590" y="330" width="30" height="30" fill="hsl(240 100% 94.24499566991696%)" />
  <rect x="625" y="330" width="30" height="30" fill="hsl(240 100% 50%)" />
  <rect x="765" y="330" width="30" height="30" fill="hsl(240 100% 94.86742750637539%)" />
  <rect x="800" y="330" width="30" height="30" fill="hsl(240 100% 99.26711343166227%)" />
  <rect x="835" y="330" width="30" height="30" fill="hsl(240 100% 83.34239941797694%)" />
  <rect x="65" y="365" width="30" height="30" fill="hsl(240 100% 57.03382316303164%)" />
  <rect x="100" y="365" width="30" height="30" fill="hsl(240 100% 70.97516271722597%)" />
  <rect x="135" y="365" width="30" height="30" fill="hsl(240 100% 81.55034627876744%)" />
  <rect x="170" y="365" width="30" height="30" fill="hsl(240 100% 50%)" />
  <rect x="205" y="365" width="30" height="30" fill="hsl(240 100% 96.06898785919262%)" />
  <rect x="240" y="365" width="30" height="30" fill="hsl(240 100% 59.827018161572724%)" />
  <rect x="275" y="365" width="30" height="30" fill="hsl(240 100% 92.41097305305108%)" />
  <rect x="310" y="365" width="30" height="30" fill="hsl(240 100% 99.86158920820931%)" />
  <rect x="415" y="365" width="30" height="30" fill="hsl(240 100% 66.66160472762573%)" />
  <rect x="520" y="365" width="30" height="30" fill="hsl(240 100% 86.05570489207601%)" />
  <rect x="625" y="365" width="30" height="30" fill="hsl(240 100% 99.64157131365607%)" />
  <rect x="730" y="365" width="30" height="30" fill="hsl(240 100% 63.11188414563702%)" />
  <rect x="765" y="365" width="30" height="30" fill="hsl(240 100% 98.21757332006663%)" />
  <rect x="835" y="365" width="30" height="30" fill="hsl(240 100% 98.73091603666231%)" />
  <rect x="65" y="400" width="30" height="30" fill="hsl(240 100% 98.14451455879797%)" />
  <rect x="100" y="400" width="30" height="30" fill="hsl(240 100% 99.42038958739023%)" />
  <rect x="135" y="400" width="30" height="30" fill="hsl(240 100% 99.66425730888102%)" />
  <rect x="170" y="400" width="30" height="30" fill="hsl(240 100% 93.9995831548181%)" />
  <rect x="205" y="400" width="30" height="30" fill="hsl(240 100% 99.24415228194545%)" />
  <rect x="240" y="400" width="30" height="30" fill="hsl(240 100% 86.87720699217509%)" />
  <rect x="275" y="400" width="30" height="30" fill="hsl(240 100% 95.56686988055739%)" />
  <rect x="310" y="400" width="30" height="30" fill="rgb(255 255 255 / 50%)" />
  <rect x="380" y="400" width="30" height="30" fill="rgb(255 255 255 / 50%)" />
  <rect x="415" y="400" width="30" height="30" fill="hsl(240 100% 94.04197377998732%)" />
  <rect x="450" y="400" width="30" height="30" fill="hsl(240 100% 99.97085519722827%)" />
  <rect x="485" y="400" width="30" height="30" fill="hsl(240 100% 79.0829604447919%)" />
  <rect x="520" y="400" width="30" height="30" fill="hsl(240 100% 50%)" />
  <rect x="555" y="400" width="30" height="30" fill="hsl(240 100% 99.11963294019566%)" />
  <rect x="660" y="400" width="30" height="30" fill="rgb(255 255 255 / 50%)" />
  <rect x="835" y="400" width="30" height="30" fill="hsl(240 100% 99.19378057474772%)" />
  <rect x="65" y="435" width="30" height="30" fill="hsl(240 100% 93.30461271491725%)" />
  <rect x="240" y="435" width="30" height="30" fill="hsl(240 100% 50%)" />
  <rect x="310" y="435" width="30" height="30" fill="hsl(240 100% 93.8513047798078%)" />
  <rect x="415" y="435" width="30" height="30" fill="hsl(240 100% 86.98867724074343%)" />
  <rect x="450" y="435" width="30" height="30" fill="hsl(240 100% 99.77852079443464%)" />
  <rect x="65" y="470" width="30" height="30" fill="hsl(240 100% 50.14621456536383%)" />
  <rect x="240" y="470" width="30" height="30" fill="hsl(240 100% 50%)" />
  <rect x="310" y="470" width="30" height="30" fill="hsl(240 100% 96.97224893312229%)" />
  <rect x="415" y="470" width="30" height="30" fill="hsl(240 100% 89.08669558755498%)" />
  <rect x="450" y="470" width="30" height="30" fill="hsl(240 100% 99.5799245217047%)" />
</svg>
