<svg xmlns="http://www.w3.org/2000/svg" viewBox="0 0 870 505">
  <rect x="0" y="0" width="870" height="505" rx="5" ry="5" fill="#222" />
  <text x="60" y="100" fill="white" font-family="sans-serif" font-weight="bold" font-size="12" text-anchor="end" dominant-baseline="middle">ba</text>
  <text x="60" y="135" fill="white" font-family="sans-serif" font-weight="bold" font-size="12" text-anchor="end" dominant-baseline="middle">det</text>
  <text x="60" y="170" fill="white" font-family="sans-serif" font-weight="bold" font-size="12" text-anchor="end" dominant-baseline="middle">gmm</text>
  <text x="60" y="205" fill="white" font-family="sans-serif" font-weight="bold" font-size="12" text-anchor="end" dominant-baseline="middle">hello</text>
  <text x="60" y="240" fill="white" font-family="sans-serif" font-weight="bold" font-size="12" text-anchor="end" dominant-baseline="middle">ht</text>
  <text x="60" y="275" fill="white" font-family="sans-serif" font-weight="bold" font-size="12" text-anchor="end" dominant-baseline="middle">kmeans</text>
  <text x="60" y="310" fill="white" font-family="sans-serif" font-weight="bold" font-size="12" text-anchor="end" dominant-baseline="middle">llsq</text>
  <text x="60" y="345" fill="white" font-family="sans-serif" font-weight="bold" font-size="12" text-anchor="end" dominant-baseline="middle">lse</text>
  <text x="60" y="380" fill="white" font-family="sans-serif" font-weight="bold" font-size="12" text-anchor="end" dominant-baseline="middle">lstm</text>
  <text x="60" y="415" fill="white" font-family="sans-serif" font-weight="bold" font-size="12" text-anchor="end" dominant-baseline="middle">ode</text>
  <text x="60" y="450" fill="white" font-family="sans-serif" font-weight="bold" font-size="12" text-anchor="end" dominant-baseline="middle">particle</text>
  <text x="60" y="485" fill="white" font-family="sans-serif" font-weight="bold" font-size="12" text-anchor="end" dominant-baseline="middle">saddle</text>
  <text x="80" y="80" fill="white" font-family="sans-serif" font-weight="bold" font-size="12" text-anchor="end" dominant-baseline="middle" transform="rotate(90 80 80)">ad-hpp</text>
  <text x="115" y="80" fill="white" font-family="sans-serif" font-weight="bold" font-size="12" text-anchor="end" dominant-baseline="middle" transform="rotate(90 115 80)">adept</text>
  <text x="150" y="80" fill="white" font-family="sans-serif" font-weight="bold" font-size="12" text-anchor="end" dominant-baseline="middle" transform="rotate(90 150 80)">adol-c</text>
  <text x="185" y="80" fill="white" font-family="sans-serif" font-weight="bold" font-size="12" text-anchor="end" dominant-baseline="middle" transform="rotate(90 185 80)">codipack</text>
  <text x="220" y="80" fill="white" font-family="sans-serif" font-weight="bold" font-size="12" text-anchor="end" dominant-baseline="middle" transform="rotate(90 220 80)">cppad</text>
  <text x="255" y="80" fill="white" font-family="sans-serif" font-weight="bold" font-size="12" text-anchor="end" dominant-baseline="middle" transform="rotate(90 255 80)">enzyme</text>
  <text x="290" y="80" fill="white" font-family="sans-serif" font-weight="bold" font-size="12" text-anchor="end" dominant-baseline="middle" transform="rotate(90 290 80)">enzyme-jl</text>
  <text x="325" y="80" fill="white" font-family="sans-serif" font-weight="bold" font-size="12" text-anchor="end" dominant-baseline="middle" transform="rotate(90 325 80)">finite</text>
  <text x="360" y="80" fill="white" font-family="sans-serif" font-weight="bold" font-size="12" text-anchor="end" dominant-baseline="middle" transform="rotate(90 360 80)">floretta</text>
  <text x="395" y="80" fill="white" font-family="sans-serif" font-weight="bold" font-size="12" text-anchor="end" dominant-baseline="middle" transform="rotate(90 395 80)">forwarddiff-jl</text>
  <text x="430" y="80" fill="white" font-family="sans-serif" font-weight="bold" font-size="12" text-anchor="end" dominant-baseline="middle" transform="rotate(90 430 80)">futhark</text>
  <text x="465" y="80" fill="white" font-family="sans-serif" font-weight="bold" font-size="12" text-anchor="end" dominant-baseline="middle" transform="rotate(90 465 80)">haskell</text>
  <text x="500" y="80" fill="white" font-family="sans-serif" font-weight="bold" font-size="12" text-anchor="end" dominant-baseline="middle" transform="rotate(90 500 80)">jax</text>
  <text x="535" y="80" fill="white" font-family="sans-serif" font-weight="bold" font-size="12" text-anchor="end" dominant-baseline="middle" transform="rotate(90 535 80)">manual</text>
  <text x="570" y="80" fill="white" font-family="sans-serif" font-weight="bold" font-size="12" text-anchor="end" dominant-baseline="middle" transform="rotate(90 570 80)">mooncake-jl</text>
  <text x="605" y="80" fill="white" font-family="sans-serif" font-weight="bold" font-size="12" text-anchor="end" dominant-baseline="middle" transform="rotate(90 605 80)">ocaml</text>
  <text x="640" y="80" fill="white" font-family="sans-serif" font-weight="bold" font-size="12" text-anchor="end" dominant-baseline="middle" transform="rotate(90 640 80)">pytorch</text>
  <text x="675" y="80" fill="white" font-family="sans-serif" font-weight="bold" font-size="12" text-anchor="end" dominant-baseline="middle" transform="rotate(90 675 80)">reversediff-jl</text>
  <text x="710" y="80" fill="white" font-family="sans-serif" font-weight="bold" font-size="12" text-anchor="end" dominant-baseline="middle" transform="rotate(90 710 80)">scilean</text>
  <text x="745" y="80" fill="white" font-family="sans-serif" font-weight="bold" font-size="12" text-anchor="end" dominant-baseline="middle" transform="rotate(90 745 80)">tapenade</text>
  <text x="780" y="80" fill="white" font-family="sans-serif" font-weight="bold" font-size="12" text-anchor="end" dominant-baseline="middle" transform="rotate(90 780 80)">tensorflow</text>
  <text x="815" y="80" fill="white" font-family="sans-serif" font-weight="bold" font-size="12" text-anchor="end" dominant-baseline="middle" transform="rotate(90 815 80)">tensorflow-js</text>
  <text x="850" y="80" fill="white" font-family="sans-serif" font-weight="bold" font-size="12" text-anchor="end" dominant-baseline="middle" transform="rotate(90 850 80)">zygote</text>
  <rect x="65" y="85" width="30" height="30" fill="hsl(240 100% 79.19109466318294%)" />
  <rect x="100" y="85" width="30" height="30" fill="hsl(240 100% 82.44628673336732%)" />
  <rect x="135" y="85" width="30" height="30" fill="hsl(240 100% 97.87378166550752%)" />
  <rect x="170" y="85" width="30" height="30" fill="hsl(240 100% 81.09483510902835%)" />
  <rect x="205" y="85" width="30" height="30" fill="hsl(240 100% 98.93150291205603%)" />
  <rect x="240" y="85" width="30" height="30" fill="hsl(240 100% 50%)" />
  <rect x="310" y="85" width="30" height="30" fill="hsl(240 100% 92.77187743206251%)" />
  <rect x="415" y="85" width="30" height="30" fill="hsl(240 100% 66.18285281104318%)" />
  <rect x="520" y="85" width="30" height="30" fill="hsl(240 100% 53.04097168378869%)" />
  <rect x="625" y="85" width="30" height="30" fill="rgb(255 255 255 / 50%)" />
  <rect x="730" y="85" width="30" height="30" fill="hsl(240 100% 70.66406353570368%)" />
  <rect x="765" y="85" width="30" height="30" fill="rgb(255 255 255 / 50%)" />
  <rect x="835" y="85" width="30" height="30" fill="hsl(240 100% 99.7151017070429%)" />
  <rect x="65" y="120" width="30" height="30" fill="hsl(240 100% 50%)" />
  <rect x="100" y="120" width="30" height="30" fill="hsl(240 100% 84.28645496605277%)" />
  <rect x="135" y="120" width="30" height="30" fill="hsl(240 100% 85.44914239909161%)" />
  <rect x="170" y="120" width="30" height="30" fill="hsl(240 100% 56.630162627189655%)" />
  <rect x="205" y="120" width="30" height="30" fill="hsl(240 100% 92.62096623484472%)" />
  <rect x="240" y="120" width="30" height="30" fill="hsl(240 100% 91.68146646045379%)" />
  <rect x="275" y="120" width="30" height="30" fill="hsl(240 100% 99.36457342303261%)" />
  <rect x="310" y="120" width="30" height="30" fill="hsl(240 100% 98.98906769663934%)" />
  <rect x="380" y="120" width="30" height="30" fill="hsl(240 100% 93.35545421364331%)" />
  <rect x="415" y="120" width="30" height="30" fill="hsl(240 100% 94.6509957008909%)" />
  <rect x="450" y="120" width="30" height="30" fill="hsl(240 100% 97.83934381913011%)" />
  <rect x="520" y="120" width="30" height="30" fill="hsl(240 100% 79.42734791193354%)" />
  <rect x="555" y="120" width="30" height="30" fill="hsl(240 100% 89.98193679363953%)" />
  <rect x="660" y="120" width="30" height="30" fill="rgb(255 255 255 / 50%)" />
  <rect x="835" y="120" width="30" height="30" fill="rgb(255 255 255 / 50%)" />
  <rect x="65" y="155" width="30" height="30" fill="hsl(240 100% 97.69964032903167%)" />
  <rect x="100" y="155" width="30" height="30" fill="hsl(240 100% 98.71342950004023%)" />
  <rect x="135" y="155" width="30" height="30" fill="hsl(240 100% 99.22835228028187%)" />
  <rect x="170" y="155" width="30" height="30" fill="hsl(240 100% 97.77624199476244%)" />
  <rect x="205" y="155" width="30" height="30" fill="hsl(240 100% 99.81708966856154%)" />
  <rect x="240" y="155" width="30" height="30" fill="hsl(240 100% 89.19266108726444%)" />
  <rect x="275" y="155" width="30" height="30" fill="hsl(240 100% 91.53266915858455%)" />
  <rect x="310" y="155" width="30" height="30" fill="rgb(255 255 255 / 50%)" />
  <rect x="415" y="155" width="30" height="30" fill="hsl(240 100% 92.89203964550646%)" />
  <rect x="485" y="155" width="30" height="30" fill="hsl(240 100% 50%)" />
  <rect x="520" y="155" width="30" height="30" fill="hsl(240 100% 77.33902270928245%)" />
  <rect x="590" y="155" width="30" height="30" fill="hsl(240 100% 99.49705806232575%)" />
  <rect x="625" y="155" width="30" height="30" fill="hsl(240 100% 62.798019275552996%)" />
  <rect x="695" y="155" width="30" height="30" fill="hsl(240 100% 94.46547334119956%)" />
  <rect x="730" y="155" width="30" height="30" fill="hsl(240 100% 81.70192264671502%)" />
  <rect x="765" y="155" width="30" height="30" fill="hsl(240 100% 99.49565575708945%)" />
  <rect x="835" y="155" width="30" height="30" fill="hsl(240 100% 95.69203582372657%)" />
  <rect x="65" y="190" width="30" height="30" fill="hsl(240 100% 50%)" />
  <rect x="100" y="190" width="30" height="30" fill="hsl(240 100% 50%)" />
  <rect x="135" y="190" width="30" height="30" fill="hsl(240 100% 50%)" />
  <rect x="170" y="190" width="30" height="30" fill="hsl(240 100% 50%)" />
  <rect x="205" y="190" width="30" height="30" fill="hsl(240 100% 50%)" />
  <rect x="240" y="190" width="30" height="30" fill="hsl(240 100% 50%)" />
  <rect x="275" y="190" width="30" height="30" fill="hsl(240 100% 50%)" />
  <rect x="310" y="190" width="30" height="30" fill="hsl(240 100% 50%)" />
  <rect x="345" y="190" width="30" height="30" fill="hsl(240 100% 50%)" />
  <rect x="380" y="190" width="30" height="30" fill="hsl(240 100% 50%)" />
  <rect x="415" y="190" width="30" height="30" fill="hsl(240 100% 50%)" />
  <rect x="450" y="190" width="30" height="30" fill="hsl(240 100% 50%)" />
  <rect x="485" y="190" width="30" height="30" fill="hsl(240 100% 50%)" />
  <rect x="520" y="190" width="30" height="30" fill="hsl(240 100% 50%)" />
  <rect x="555" y="190" width="30" height="30" fill="hsl(240 100% 50%)" />
  <rect x="590" y="190" width="30" height="30" fill="hsl(240 100% 50%)" />
  <rect x="625" y="190" width="30" height="30" fill="hsl(240 100% 50%)" />
  <rect x="660" y="190" width="30" height="30" fill="hsl(240 100% 50%)" />
  <rect x="695" y="190" width="30" height="30" fill="hsl(240 100% 50%)" />
  <rect x="730" y="190" width="30" height="30" fill="hsl(240 100% 50%)" />
  <rect x="765" y="190" width="30" height="30" fill="hsl(240 100% 50%)" />
  <rect x="800" y="190" width="30" height="30" fill="hsl(240 100% 50%)" />
  <rect x="835" y="190" width="30" height="30" fill="hsl(240 100% 50%)" />
  <rect x="100" y="225" width="30" height="30" fill="hsl(240 100% 96.30099177600366%)" />
  <rect x="135" y="225" width="30" height="30" fill="hsl(240 100% 86.85020225757665%)" />
  <rect x="170" y="225" width="30" height="30" fill="hsl(240 100% 88.01018797085194%)" />
  <rect x="240" y="225" width="30" height="30" fill="hsl(240 100% 90.24637672277326%)" />
  <rect x="310" y="225" width="30" height="30" fill="rgb(255 255 255 / 50%)" />
  <rect x="415" y="225" width="30" height="30" fill="hsl(240 100% 89.47329851338212%)" />
  <rect x="520" y="225" width="30" height="30" fill="hsl(240 100% 50%)" />
  <rect x="625" y="225" width="30" height="30" fill="rgb(255 255 255 / 50%)" />
  <rect x="730" y="225" width="30" height="30" fill="hsl(240 100% 92.33507419330428%)" />
  <rect x="765" y="225" width="30" height="30" fill="rgb(255 255 255 / 50%)" />
  <rect x="835" y="225" width="30" height="30" fill="hsl(240 100% 93.80315241556254%)" />
  <rect x="65" y="260" width="30" height="30" fill="hsl(240 100% 99.883947296357%)" />
  <rect x="135" y="260" width="30" height="30" fill="hsl(240 100% 99.87647500065582%)" />
  <rect x="170" y="260" width="30" height="30" fill="hsl(240 100% 98.98642511177134%)" />
  <rect x="205" y="260" width="30" height="30" fill="rgb(255 255 255 / 50%)" />
  <rect x="240" y="260" width="30" height="30" fill="hsl(240 100% 86.63416259279023%)" />
  <rect x="310" y="260" width="30" height="30" fill="rgb(255 255 255 / 50%)" />
  <rect x="415" y="260" width="30" height="30" fill="hsl(240 100% 79.99066243003575%)" />
  <rect x="450" y="260" width="30" height="30" fill="rgb(255 255 255 / 50%)" />
  <rect x="485" y="260" width="30" height="30" fill="hsl(240 100% 50%)" />
  <rect x="520" y="260" width="30" height="30" fill="hsl(240 100% 71.47745378895861%)" />
  <rect x="625" y="260" width="30" height="30" fill="hsl(240 100% 97.02141431961111%)" />
  <rect x="695" y="260" width="30" height="30" fill="hsl(240 100% 93.26927808329356%)" />
  <rect x="65" y="295" width="30" height="30" fill="hsl(240 100% 86.02862615136948%)" />
  <rect x="100" y="295" width="30" height="30" fill="hsl(240 100% 97.48841662031187%)" />
  <rect x="135" y="295" width="30" height="30" fill="hsl(240 100% 94.99459325896443%)" />
  <rect x="170" y="295" width="30" height="30" fill="hsl(240 100% 89.41017694884086%)" />
  <rect x="205" y="295" width="30" height="30" fill="hsl(240 100% 99.48237792919238%)" />
  <rect x="240" y="295" width="30" height="30" fill="hsl(240 100% 50.651480090667455%)" />
  <rect x="275" y="295" width="30" height="30" fill="hsl(240 100% 50%)" />
  <rect x="310" y="295" width="30" height="30" fill="hsl(240 100% 99.4996855854857%)" />
  <rect x="345" y="295" width="30" height="30" fill="hsl(240 100% 94.72091094421404%)" />
  <rect x="415" y="295" width="30" height="30" fill="hsl(240 100% 55.25042464898113%)" />
  <rect x="450" y="295" width="30" height="30" fill="hsl(240 100% 99.34170418470931%)" />
  <rect x="485" y="295" width="30" height="30" fill="hsl(240 100% 88.441138648657%)" />
  <rect x="520" y="295" width="30" height="30" fill="hsl(240 100% 59.77661439311979%)" />
  <rect x="695" y="295" width="30" height="30" fill="hsl(240 100% 97.6060120375797%)" />
  <rect x="800" y="295" width="30" height="30" fill="hsl(240 100% 99.59609558796664%)" />
  <rect x="835" y="295" width="30" height="30" fill="hsl(240 100% 99.95438509062299%)" />
  <rect x="65" y="330" width="30" height="30" fill="hsl(240 100% 84.86693100784149%)" />
  <rect x="100" y="330" width="30" height="30" fill="hsl(240 100% 93.25684959982546%)" />
  <rect x="135" y="330" width="30" height="30" fill="hsl(240 100% 96.37829117991511%)" />
  <rect x="170" y="330" width="30" height="30" fill="hsl(240 100% 84.25357440078281%)" />
  <rect x="205" y="330" width="30" height="30" fill="hsl(240 100% 99.03714063519568%)" />
  <rect x="240" y="330" width="30" height="30" fill="hsl(240 100% 74.89197073552648%)" />
  <rect x="275" y="330" width="30" height="30" fill="hsl(240 100% 84.29625614687315%)" />
  <rect x="310" y="330" width="30" height="30" fill="rgb(255 255 255 / 50%)" />
  <rect x="345" y="330" width="30" height="30" fill="hsl(240 100% 96.54487847508669%)" />
  <rect x="415" y="330" width="30" height="30" fill="hsl(240 100% 82.89984422488781%)" />
  <rect x="450" y="330" width="30" height="30" fill="hsl(240 100% 99.76775435331668%)" />
  <rect x="485" y="330" width="30" height="30" fill="hsl(240 100% 65.46129409742996%)" />
  <rect x="520" y="330" width="30" height="30" fill="hsl(240 100% 63.942171553619204%)" />
  <rect x="590" y="330" width="30" height="30" fill="hsl(240 100% 92.43172188621833%)" />
  <rect x="625" y="330" width="30" height="30" fill="hsl(240 100% 50%)" />
  <rect x="765" y="330" width="30" height="30" fill="hsl(240 100% 93.76340387244227%)" />
  <rect x="800" y="330" width="30" height="30" fill="hsl(240 100% 99.05944405023155%)" />
  <rect x="835" y="330" width="30" height="30" fill="hsl(240 100% 77.13506967854629%)" />
  <rect x="65" y="365" width="30" height="30" fill="hsl(240 100% 57.77417257398978%)" />
  <rect x="100" y="365" width="30" height="30" fill="hsl(240 100% 71.06676379131505%)" />
  <rect x="135" y="365" width="30" height="30" fill="hsl(240 100% 82.2448562288262%)" />
  <rect x="170" y="365" width="30" height="30" fill="hsl(240 100% 50%)" />
  <rect x="205" y="365" width="30" height="30" fill="hsl(240 100% 96.05163875413764%)" />
  <rect x="240" y="365" width="30" height="30" fill="hsl(240 100% 60.221497577641856%)" />
  <rect x="275" y="365" width="30" height="30" fill="hsl(240 100% 92.62385596831025%)" />
  <rect x="310" y="365" width="30" height="30" fill="hsl(240 100% 99.86169017117194%)" />
  <rect x="415" y="365" width="30" height="30" fill="hsl(240 100% 66.88110211913579%)" />
  <rect x="520" y="365" width="30" height="30" fill="hsl(240 100% 86.73531715741112%)" />
  <rect x="625" y="365" width="30" height="30" fill="hsl(240 100% 99.63040407398306%)" />
  <rect x="730" y="365" width="30" height="30" fill="hsl(240 100% 57.79088531153802%)" />
  <rect x="765" y="365" width="30" height="30" fill="hsl(240 100% 98.19367121337433%)" />
  <rect x="835" y="365" width="30" height="30" fill="hsl(240 100% 98.71732090241527%)" />
  <rect x="65" y="400" width="30" height="30" fill="hsl(240 100% 97.70795188401368%)" />
  <rect x="100" y="400" width="30" height="30" fill="hsl(240 100% 99.54369584981931%)" />
  <rect x="135" y="400" width="30" height="30" fill="hsl(240 100% 99.56219041246644%)" />
  <rect x="170" y="400" width="30" height="30" fill="hsl(240 100% 92.50963642519326%)" />
  <rect x="205" y="400" width="30" height="30" fill="hsl(240 100% 99.05093616724227%)" />
  <rect x="240" y="400" width="30" height="30" fill="hsl(240 100% 82.72240105424669%)" />
  <rect x="275" y="400" width="30" height="30" fill="hsl(240 100% 94.18227994677301%)" />
  <rect x="310" y="400" width="30" height="30" fill="rgb(255 255 255 / 50%)" />
  <rect x="380" y="400" width="30" height="30" fill="rgb(255 255 255 / 50%)" />
  <rect x="415" y="400" width="30" height="30" fill="hsl(240 100% 92.52832186087132%)" />
  <rect x="450" y="400" width="30" height="30" fill="hsl(240 100% 99.96807872526075%)" />
  <rect x="485" y="400" width="30" height="30" fill="hsl(240 100% 73.42067663177941%)" />
  <rect x="520" y="400" width="30" height="30" fill="hsl(240 100% 50%)" />
  <rect x="555" y="400" width="30" height="30" fill="hsl(240 100% 98.90125025055762%)" />
  <rect x="660" y="400" width="30" height="30" fill="rgb(255 255 255 / 50%)" />
  <rect x="835" y="400" width="30" height="30" fill="hsl(240 100% 99.01360859566537%)" />
  <rect x="65" y="435" width="30" height="30" fill="hsl(240 100% 93.30819512380673%)" />
  <rect x="240" y="435" width="30" height="30" fill="hsl(240 100% 50%)" />
  <rect x="310" y="435" width="30" height="30" fill="hsl(240 100% 93.85406407941433%)" />
  <rect x="415" y="435" width="30" height="30" fill="hsl(240 100% 87.36310770824011%)" />
  <rect x="450" y="435" width="30" height="30" fill="hsl(240 100% 99.77996935602947%)" />
  <rect x="65" y="470" width="30" height="30" fill="hsl(240 100% 50%)" />
  <rect x="240" y="470" width="30" height="30" fill="hsl(240 100% 50.11948246046961%)" />
  <rect x="310" y="470" width="30" height="30" fill="hsl(240 100% 96.97393079523093%)" />
  <rect x="415" y="470" width="30" height="30" fill="hsl(240 100% 89.02503671894857%)" />
  <rect x="450" y="470" width="30" height="30" fill="hsl(240 100% 99.56341505953712%)" />
</svg>
