<svg xmlns="http://www.w3.org/2000/svg" viewBox="0 0 660 365">
  <rect x="0" y="0" width="660" height="365" rx="5" ry="5" fill="#222" />
  <text x="60" y="100" fill="white" font-family="sans-serif" font-weight="bold" font-size="12" text-anchor="end" dominant-baseline="middle">ba</text>
  <text x="60" y="135" fill="white" font-family="sans-serif" font-weight="bold" font-size="12" text-anchor="end" dominant-baseline="middle">gmm</text>
  <text x="60" y="170" fill="white" font-family="sans-serif" font-weight="bold" font-size="12" text-anchor="end" dominant-baseline="middle">hello</text>
  <text x="60" y="205" fill="white" font-family="sans-serif" font-weight="bold" font-size="12" text-anchor="end" dominant-baseline="middle">ht</text>
  <text x="60" y="240" fill="white" font-family="sans-serif" font-weight="bold" font-size="12" text-anchor="end" dominant-baseline="middle">kmeans</text>
  <text x="60" y="275" fill="white" font-family="sans-serif" font-weight="bold" font-size="12" text-anchor="end" dominant-baseline="middle">lstm</text>
  <text x="60" y="310" fill="white" font-family="sans-serif" font-weight="bold" font-size="12" text-anchor="end" dominant-baseline="middle">particle</text>
  <text x="60" y="345" fill="white" font-family="sans-serif" font-weight="bold" font-size="12" text-anchor="end" dominant-baseline="middle">saddle</text>
  <text x="80" y="80" fill="white" font-family="sans-serif" font-weight="bold" font-size="12" text-anchor="end" dominant-baseline="middle" transform="rotate(90 80 80)">adept</text>
  <text x="115" y="80" fill="white" font-family="sans-serif" font-weight="bold" font-size="12" text-anchor="end" dominant-baseline="middle" transform="rotate(90 115 80)">adol-c</text>
  <text x="150" y="80" fill="white" font-family="sans-serif" font-weight="bold" font-size="12" text-anchor="end" dominant-baseline="middle" transform="rotate(90 150 80)">codipack</text>
  <text x="185" y="80" fill="white" font-family="sans-serif" font-weight="bold" font-size="12" text-anchor="end" dominant-baseline="middle" transform="rotate(90 185 80)">cppad</text>
  <text x="220" y="80" fill="white" font-family="sans-serif" font-weight="bold" font-size="12" text-anchor="end" dominant-baseline="middle" transform="rotate(90 220 80)">enzyme</text>
  <text x="255" y="80" fill="white" font-family="sans-serif" font-weight="bold" font-size="12" text-anchor="end" dominant-baseline="middle" transform="rotate(90 255 80)">finite</text>
  <text x="290" y="80" fill="white" font-family="sans-serif" font-weight="bold" font-size="12" text-anchor="end" dominant-baseline="middle" transform="rotate(90 290 80)">floretta</text>
  <text x="325" y="80" fill="white" font-family="sans-serif" font-weight="bold" font-size="12" text-anchor="end" dominant-baseline="middle" transform="rotate(90 325 80)">futhark</text>
  <text x="360" y="80" fill="white" font-family="sans-serif" font-weight="bold" font-size="12" text-anchor="end" dominant-baseline="middle" transform="rotate(90 360 80)">haskell</text>
  <text x="395" y="80" fill="white" font-family="sans-serif" font-weight="bold" font-size="12" text-anchor="end" dominant-baseline="middle" transform="rotate(90 395 80)">jax</text>
  <text x="430" y="80" fill="white" font-family="sans-serif" font-weight="bold" font-size="12" text-anchor="end" dominant-baseline="middle" transform="rotate(90 430 80)">manual</text>
  <text x="465" y="80" fill="white" font-family="sans-serif" font-weight="bold" font-size="12" text-anchor="end" dominant-baseline="middle" transform="rotate(90 465 80)">ocaml</text>
  <text x="500" y="80" fill="white" font-family="sans-serif" font-weight="bold" font-size="12" text-anchor="end" dominant-baseline="middle" transform="rotate(90 500 80)">pytorch</text>
  <text x="535" y="80" fill="white" font-family="sans-serif" font-weight="bold" font-size="12" text-anchor="end" dominant-baseline="middle" transform="rotate(90 535 80)">scilean</text>
  <text x="570" y="80" fill="white" font-family="sans-serif" font-weight="bold" font-size="12" text-anchor="end" dominant-baseline="middle" transform="rotate(90 570 80)">tapenade</text>
  <text x="605" y="80" fill="white" font-family="sans-serif" font-weight="bold" font-size="12" text-anchor="end" dominant-baseline="middle" transform="rotate(90 605 80)">tensorflow</text>
  <text x="640" y="80" fill="white" font-family="sans-serif" font-weight="bold" font-size="12" text-anchor="end" dominant-baseline="middle" transform="rotate(90 640 80)">zygote</text>
  <rect x="65" y="85" width="30" height="30" fill="hsl(240 100% 83.50925509585355%)" />
  <rect x="100" y="85" width="30" height="30" fill="hsl(240 100% 97.81793432723269%)" />
  <rect x="135" y="85" width="30" height="30" fill="hsl(240 100% 89.17592461239018%)" />
  <rect x="205" y="85" width="30" height="30" fill="hsl(240 100% 50.70679889568942%)" />
  <rect x="240" y="85" width="30" height="30" fill="hsl(240 100% 92.62691307657789%)" />
  <rect x="310" y="85" width="30" height="30" fill="hsl(240 100% 68.5756888082469%)" />
  <rect x="415" y="85" width="30" height="30" fill="hsl(240 100% 50%)" />
  <rect x="485" y="85" width="30" height="30" fill="rgb(255 255 255 / 50%)" />
  <rect x="555" y="85" width="30" height="30" fill="hsl(240 100% 72.60403113629292%)" />
  <rect x="590" y="85" width="30" height="30" fill="rgb(255 255 255 / 50%)" />
  <rect x="65" y="120" width="30" height="30" fill="hsl(240 100% 98.32475582872694%)" />
  <rect x="100" y="120" width="30" height="30" fill="hsl(240 100% 98.76175787674457%)" />
  <rect x="135" y="120" width="30" height="30" fill="hsl(240 100% 97.34653644945504%)" />
  <rect x="170" y="120" width="30" height="30" fill="rgb(255 255 255 / 50%)" />
  <rect x="205" y="120" width="30" height="30" fill="hsl(240 100% 87.38254616547376%)" />
  <rect x="240" y="120" width="30" height="30" fill="rgb(255 255 255 / 50%)" />
  <rect x="310" y="120" width="30" height="30" fill="hsl(240 100% 90.34240657586184%)" />
  <rect x="380" y="120" width="30" height="30" fill="hsl(240 100% 70.41091356336786%)" />
  <rect x="415" y="120" width="30" height="30" fill="hsl(240 100% 76.23218311184166%)" />
  <rect x="450" y="120" width="30" height="30" fill="hsl(240 100% 99.38921567779558%)" />
  <rect x="485" y="120" width="30" height="30" fill="hsl(240 100% 50%)" />
  <rect x="520" y="120" width="30" height="30" fill="hsl(240 100% 93.4510322661893%)" />
  <rect x="555" y="120" width="30" height="30" fill="hsl(240 100% 76.97218076815886%)" />
  <rect x="590" y="120" width="30" height="30" fill="hsl(240 100% 88.44044655869557%)" />
  <rect x="65" y="155" width="30" height="30" fill="hsl(240 100% 50%)" />
  <rect x="100" y="155" width="30" height="30" fill="hsl(240 100% 50%)" />
  <rect x="135" y="155" width="30" height="30" fill="hsl(240 100% 50%)" />
  <rect x="170" y="155" width="30" height="30" fill="hsl(240 100% 50%)" />
  <rect x="205" y="155" width="30" height="30" fill="hsl(240 100% 50%)" />
  <rect x="240" y="155" width="30" height="30" fill="hsl(240 100% 50%)" />
  <rect x="275" y="155" width="30" height="30" fill="hsl(240 100% 50%)" />
  <rect x="310" y="155" width="30" height="30" fill="hsl(240 100% 50%)" />
  <rect x="345" y="155" width="30" height="30" fill="hsl(240 100% 50%)" />
  <rect x="380" y="155" width="30" height="30" fill="hsl(240 100% 50%)" />
  <rect x="415" y="155" width="30" height="30" fill="hsl(240 100% 50%)" />
  <rect x="450" y="155" width="30" height="30" fill="hsl(240 100% 50%)" />
  <rect x="485" y="155" width="30" height="30" fill="hsl(240 100% 50%)" />
  <rect x="520" y="155" width="30" height="30" fill="hsl(240 100% 50%)" />
  <rect x="555" y="155" width="30" height="30" fill="hsl(240 100% 50%)" />
  <rect x="590" y="155" width="30" height="30" fill="hsl(240 100% 50%)" />
  <rect x="625" y="155" width="30" height="30" fill="hsl(240 100% 50%)" />
  <rect x="65" y="190" width="30" height="30" fill="hsl(240 100% 96.145064828808%)" />
  <rect x="100" y="190" width="30" height="30" fill="hsl(240 100% 96.38463635892175%)" />
  <rect x="135" y="190" width="30" height="30" fill="hsl(240 100% 88.5856309823998%)" />
  <rect x="205" y="190" width="30" height="30" fill="hsl(240 100% 89.58106383081356%)" />
  <rect x="240" y="190" width="30" height="30" fill="rgb(255 255 255 / 50%)" />
  <rect x="310" y="190" width="30" height="30" fill="hsl(240 100% 89.83308057310619%)" />
  <rect x="415" y="190" width="30" height="30" fill="hsl(240 100% 50%)" />
  <rect x="485" y="190" width="30" height="30" fill="rgb(255 255 255 / 50%)" />
  <rect x="555" y="190" width="30" height="30" fill="rgb(255 255 255 / 50%)" />
  <rect x="590" y="190" width="30" height="30" fill="rgb(255 255 255 / 50%)" />
  <rect x="100" y="225" width="30" height="30" fill="hsl(240 100% 99.8974134175022%)" />
  <rect x="135" y="225" width="30" height="30" fill="hsl(240 100% 99.40371537962766%)" />
  <rect x="170" y="225" width="30" height="30" fill="rgb(255 255 255 / 50%)" />
  <rect x="205" y="225" width="30" height="30" fill="hsl(240 100% 87.82162529602923%)" />
  <rect x="240" y="225" width="30" height="30" fill="rgb(255 255 255 / 50%)" />
  <rect x="310" y="225" width="30" height="30" fill="hsl(240 100% 82.93611417408971%)" />
  <rect x="345" y="225" width="30" height="30" fill="rgb(255 255 255 / 50%)" />
  <rect x="380" y="225" width="30" height="30" fill="hsl(240 100% 50%)" />
  <rect x="415" y="225" width="30" height="30" fill="hsl(240 100% 76.41831097392414%)" />
  <rect x="485" y="225" width="30" height="30" fill="hsl(240 100% 96.90347335746746%)" />
  <rect x="520" y="225" width="30" height="30" fill="hsl(240 100% 94.1929589796023%)" />
  <rect x="65" y="260" width="30" height="30" fill="hsl(240 100% 69.47140867709295%)" />
  <rect x="100" y="260" width="30" height="30" fill="hsl(240 100% 81.00340021859988%)" />
  <rect x="135" y="260" width="30" height="30" fill="hsl(240 100% 50%)" />
  <rect x="170" y="260" width="30" height="30" fill="hsl(240 100% 89.7541651195334%)" />
  <rect x="205" y="260" width="30" height="30" fill="hsl(240 100% 50.95742685173155%)" />
  <rect x="240" y="260" width="30" height="30" fill="hsl(240 100% 99.8508603953938%)" />
  <rect x="310" y="260" width="30" height="30" fill="hsl(240 100% 63.30330420758467%)" />
  <rect x="415" y="260" width="30" height="30" fill="hsl(240 100% 84.65007055697787%)" />
  <rect x="485" y="260" width="30" height="30" fill="hsl(240 100% 99.60276961117454%)" />
  <rect x="520" y="260" width="30" height="30" fill="hsl(240 100% 89.885727987141%)" />
  <rect x="555" y="260" width="30" height="30" fill="hsl(240 100% 60.17283778689573%)" />
  <rect x="590" y="260" width="30" height="30" fill="hsl(240 100% 98.06657626755798%)" />
  <rect x="205" y="295" width="30" height="30" fill="hsl(240 100% 50%)" />
  <rect x="240" y="295" width="30" height="30" fill="hsl(240 100% 50%)" />
  <rect x="310" y="295" width="30" height="30" fill="hsl(240 100% 50%)" />
  <rect x="345" y="295" width="30" height="30" fill="hsl(240 100% 50%)" />
  <rect x="205" y="330" width="30" height="30" fill="hsl(240 100% 50%)" />
  <rect x="240" y="330" width="30" height="30" fill="hsl(240 100% 50%)" />
  <rect x="310" y="330" width="30" height="30" fill="hsl(240 100% 50%)" />
  <rect x="345" y="330" width="30" height="30" fill="hsl(240 100% 50%)" />
</svg>
