<svg xmlns="http://www.w3.org/2000/svg" viewBox="0 0 870 505">
  <rect x="0" y="0" width="870" height="505" rx="5" ry="5" fill="#222" />
  <text x="60" y="100" fill="white" font-family="sans-serif" font-weight="bold" font-size="12" text-anchor="end" dominant-baseline="middle">ba</text>
  <text x="60" y="135" fill="white" font-family="sans-serif" font-weight="bold" font-size="12" text-anchor="end" dominant-baseline="middle">det</text>
  <text x="60" y="170" fill="white" font-family="sans-serif" font-weight="bold" font-size="12" text-anchor="end" dominant-baseline="middle">gmm</text>
  <text x="60" y="205" fill="white" font-family="sans-serif" font-weight="bold" font-size="12" text-anchor="end" dominant-baseline="middle">hello</text>
  <text x="60" y="240" fill="white" font-family="sans-serif" font-weight="bold" font-size="12" text-anchor="end" dominant-baseline="middle">ht</text>
  <text x="60" y="275" fill="white" font-family="sans-serif" font-weight="bold" font-size="12" text-anchor="end" dominant-baseline="middle">kmeans</text>
  <text x="60" y="310" fill="white" font-family="sans-serif" font-weight="bold" font-size="12" text-anchor="end" dominant-baseline="middle">llsq</text>
  <text x="60" y="345" fill="white" font-family="sans-serif" font-weight="bold" font-size="12" text-anchor="end" dominant-baseline="middle">lse</text>
  <text x="60" y="380" fill="white" font-family="sans-serif" font-weight="bold" font-size="12" text-anchor="end" dominant-baseline="middle">lstm</text>
  <text x="60" y="415" fill="white" font-family="sans-serif" font-weight="bold" font-size="12" text-anchor="end" dominant-baseline="middle">ode</text>
  <text x="60" y="450" fill="white" font-family="sans-serif" font-weight="bold" font-size="12" text-anchor="end" dominant-baseline="middle">particle</text>
  <text x="60" y="485" fill="white" font-family="sans-serif" font-weight="bold" font-size="12" text-anchor="end" dominant-baseline="middle">saddle</text>
  <text x="80" y="80" fill="white" font-family="sans-serif" font-weight="bold" font-size="12" text-anchor="end" dominant-baseline="middle" transform="rotate(90 80 80)">ad-hpp</text>
  <text x="115" y="80" fill="white" font-family="sans-serif" font-weight="bold" font-size="12" text-anchor="end" dominant-baseline="middle" transform="rotate(90 115 80)">adept</text>
  <text x="150" y="80" fill="white" font-family="sans-serif" font-weight="bold" font-size="12" text-anchor="end" dominant-baseline="middle" transform="rotate(90 150 80)">adol-c</text>
  <text x="185" y="80" fill="white" font-family="sans-serif" font-weight="bold" font-size="12" text-anchor="end" dominant-baseline="middle" transform="rotate(90 185 80)">codipack</text>
  <text x="220" y="80" fill="white" font-family="sans-serif" font-weight="bold" font-size="12" text-anchor="end" dominant-baseline="middle" transform="rotate(90 220 80)">cppad</text>
  <text x="255" y="80" fill="white" font-family="sans-serif" font-weight="bold" font-size="12" text-anchor="end" dominant-baseline="middle" transform="rotate(90 255 80)">enzyme</text>
  <text x="290" y="80" fill="white" font-family="sans-serif" font-weight="bold" font-size="12" text-anchor="end" dominant-baseline="middle" transform="rotate(90 290 80)">enzyme-jl</text>
  <text x="325" y="80" fill="white" font-family="sans-serif" font-weight="bold" font-size="12" text-anchor="end" dominant-baseline="middle" transform="rotate(90 325 80)">finite</text>
  <text x="360" y="80" fill="white" font-family="sans-serif" font-weight="bold" font-size="12" text-anchor="end" dominant-baseline="middle" transform="rotate(90 360 80)">floretta</text>
  <text x="395" y="80" fill="white" font-family="sans-serif" font-weight="bold" font-size="12" text-anchor="end" dominant-baseline="middle" transform="rotate(90 395 80)">forwarddiff-jl</text>
  <text x="430" y="80" fill="white" font-family="sans-serif" font-weight="bold" font-size="12" text-anchor="end" dominant-baseline="middle" transform="rotate(90 430 80)">futhark</text>
  <text x="465" y="80" fill="white" font-family="sans-serif" font-weight="bold" font-size="12" text-anchor="end" dominant-baseline="middle" transform="rotate(90 465 80)">haskell</text>
  <text x="500" y="80" fill="white" font-family="sans-serif" font-weight="bold" font-size="12" text-anchor="end" dominant-baseline="middle" transform="rotate(90 500 80)">jax</text>
  <text x="535" y="80" fill="white" font-family="sans-serif" font-weight="bold" font-size="12" text-anchor="end" dominant-baseline="middle" transform="rotate(90 535 80)">manual</text>
  <text x="570" y="80" fill="white" font-family="sans-serif" font-weight="bold" font-size="12" text-anchor="end" dominant-baseline="middle" transform="rotate(90 570 80)">mooncake-jl</text>
  <text x="605" y="80" fill="white" font-family="sans-serif" font-weight="bold" font-size="12" text-anchor="end" dominant-baseline="middle" transform="rotate(90 605 80)">ocaml</text>
  <text x="640" y="80" fill="white" font-family="sans-serif" font-weight="bold" font-size="12" text-anchor="end" dominant-baseline="middle" transform="rotate(90 640 80)">pytorch</text>
  <text x="675" y="80" fill="white" font-family="sans-serif" font-weight="bold" font-size="12" text-anchor="end" dominant-baseline="middle" transform="rotate(90 675 80)">reversediff-jl</text>
  <text x="710" y="80" fill="white" font-family="sans-serif" font-weight="bold" font-size="12" text-anchor="end" dominant-baseline="middle" transform="rotate(90 710 80)">scilean</text>
  <text x="745" y="80" fill="white" font-family="sans-serif" font-weight="bold" font-size="12" text-anchor="end" dominant-baseline="middle" transform="rotate(90 745 80)">tapenade</text>
  <text x="780" y="80" fill="white" font-family="sans-serif" font-weight="bold" font-size="12" text-anchor="end" dominant-baseline="middle" transform="rotate(90 780 80)">tensorflow</text>
  <text x="815" y="80" fill="white" font-family="sans-serif" font-weight="bold" font-size="12" text-anchor="end" dominant-baseline="middle" transform="rotate(90 815 80)">tensorflow-js</text>
  <text x="850" y="80" fill="white" font-family="sans-serif" font-weight="bold" font-size="12" text-anchor="end" dominant-baseline="middle" transform="rotate(90 850 80)">zygote</text>
  <rect x="65" y="85" width="30" height="30" fill="hsl(240 100% 80.76070072828266%)" />
  <rect x="100" y="85" width="30" height="30" fill="hsl(240 100% 82.30851225455928%)" />
  <rect x="135" y="85" width="30" height="30" fill="hsl(240 100% 97.92194668785636%)" />
  <rect x="170" y="85" width="30" height="30" fill="hsl(240 100% 81.61003986112189%)" />
  <rect x="205" y="85" width="30" height="30" fill="hsl(240 100% 98.95334101618172%)" />
  <rect x="240" y="85" width="30" height="30" fill="hsl(240 100% 50%)" />
  <rect x="310" y="85" width="30" height="30" fill="hsl(240 100% 92.96193014969029%)" />
  <rect x="415" y="85" width="30" height="30" fill="hsl(240 100% 67.19230131328649%)" />
  <rect x="520" y="85" width="30" height="30" fill="hsl(240 100% 54.35867532219592%)" />
  <rect x="625" y="85" width="30" height="30" fill="rgb(255 255 255 / 50%)" />
  <rect x="730" y="85" width="30" height="30" fill="hsl(240 100% 74.15918225075728%)" />
  <rect x="765" y="85" width="30" height="30" fill="rgb(255 255 255 / 50%)" />
  <rect x="835" y="85" width="30" height="30" fill="hsl(240 100% 99.73899413541517%)" />
  <rect x="65" y="120" width="30" height="30" fill="hsl(240 100% 61.53837268558966%)" />
  <rect x="100" y="120" width="30" height="30" fill="hsl(240 100% 83.47067530746125%)" />
  <rect x="135" y="120" width="30" height="30" fill="hsl(240 100% 85.14739649465051%)" />
  <rect x="170" y="120" width="30" height="30" fill="hsl(240 100% 50%)" />
  <rect x="205" y="120" width="30" height="30" fill="hsl(240 100% 91.65502968244178%)" />
  <rect x="240" y="120" width="30" height="30" fill="hsl(240 100% 91.44846689832069%)" />
  <rect x="275" y="120" width="30" height="30" fill="hsl(240 100% 99.32905876300195%)" />
  <rect x="310" y="120" width="30" height="30" fill="hsl(240 100% 98.95375795059601%)" />
  <rect x="380" y="120" width="30" height="30" fill="hsl(240 100% 93.2631872039865%)" />
  <rect x="415" y="120" width="30" height="30" fill="hsl(240 100% 94.81176700208309%)" />
  <rect x="450" y="120" width="30" height="30" fill="hsl(240 100% 97.75919393861808%)" />
  <rect x="520" y="120" width="30" height="30" fill="hsl(240 100% 78.84258408138146%)" />
  <rect x="555" y="120" width="30" height="30" fill="hsl(240 100% 90.03233415740476%)" />
  <rect x="660" y="120" width="30" height="30" fill="rgb(255 255 255 / 50%)" />
  <rect x="835" y="120" width="30" height="30" fill="rgb(255 255 255 / 50%)" />
  <rect x="65" y="155" width="30" height="30" fill="hsl(240 100% 98.93042322664803%)" />
  <rect x="100" y="155" width="30" height="30" fill="hsl(240 100% 98.88147279466305%)" />
  <rect x="135" y="155" width="30" height="30" fill="hsl(240 100% 99.2147597126444%)" />
  <rect x="170" y="155" width="30" height="30" fill="hsl(240 100% 98.08139521435004%)" />
  <rect x="205" y="155" width="30" height="30" fill="hsl(240 100% 99.8499795350164%)" />
  <rect x="240" y="155" width="30" height="30" fill="hsl(240 100% 91.1126783466617%)" />
  <rect x="275" y="155" width="30" height="30" fill="hsl(240 100% 93.04657121386896%)" />
  <rect x="310" y="155" width="30" height="30" fill="rgb(255 255 255 / 50%)" />
  <rect x="415" y="155" width="30" height="30" fill="hsl(240 100% 92.9647948409606%)" />
  <rect x="485" y="155" width="30" height="30" fill="hsl(240 100% 50%)" />
  <rect x="520" y="155" width="30" height="30" fill="hsl(240 100% 80.89773717997552%)" />
  <rect x="590" y="155" width="30" height="30" fill="hsl(240 100% 99.5736591951244%)" />
  <rect x="625" y="155" width="30" height="30" fill="hsl(240 100% 67.05846306249421%)" />
  <rect x="695" y="155" width="30" height="30" fill="hsl(240 100% 95.46725359821531%)" />
  <rect x="730" y="155" width="30" height="30" fill="hsl(240 100% 91.42487181548272%)" />
  <rect x="765" y="155" width="30" height="30" fill="hsl(240 100% 99.46258983515447%)" />
  <rect x="835" y="155" width="30" height="30" fill="hsl(240 100% 96.36304591347545%)" />
  <rect x="65" y="190" width="30" height="30" fill="hsl(240 100% 50%)" />
  <rect x="100" y="190" width="30" height="30" fill="hsl(240 100% 50%)" />
  <rect x="135" y="190" width="30" height="30" fill="hsl(240 100% 50%)" />
  <rect x="170" y="190" width="30" height="30" fill="hsl(240 100% 50%)" />
  <rect x="205" y="190" width="30" height="30" fill="hsl(240 100% 50%)" />
  <rect x="240" y="190" width="30" height="30" fill="hsl(240 100% 50%)" />
  <rect x="275" y="190" width="30" height="30" fill="hsl(240 100% 50%)" />
  <rect x="310" y="190" width="30" height="30" fill="hsl(240 100% 50%)" />
  <rect x="345" y="190" width="30" height="30" fill="hsl(240 100% 50%)" />
  <rect x="380" y="190" width="30" height="30" fill="hsl(240 100% 50%)" />
  <rect x="415" y="190" width="30" height="30" fill="hsl(240 100% 50%)" />
  <rect x="450" y="190" width="30" height="30" fill="hsl(240 100% 50%)" />
  <rect x="485" y="190" width="30" height="30" fill="hsl(240 100% 50%)" />
  <rect x="520" y="190" width="30" height="30" fill="hsl(240 100% 50%)" />
  <rect x="555" y="190" width="30" height="30" fill="hsl(240 100% 50%)" />
  <rect x="590" y="190" width="30" height="30" fill="hsl(240 100% 50%)" />
  <rect x="625" y="190" width="30" height="30" fill="hsl(240 100% 50%)" />
  <rect x="660" y="190" width="30" height="30" fill="hsl(240 100% 50%)" />
  <rect x="695" y="190" width="30" height="30" fill="hsl(240 100% 50%)" />
  <rect x="730" y="190" width="30" height="30" fill="hsl(240 100% 50%)" />
  <rect x="765" y="190" width="30" height="30" fill="hsl(240 100% 50%)" />
  <rect x="800" y="190" width="30" height="30" fill="hsl(240 100% 50%)" />
  <rect x="835" y="190" width="30" height="30" fill="hsl(240 100% 50%)" />
  <rect x="100" y="225" width="30" height="30" fill="hsl(240 100% 97.07070186848986%)" />
  <rect x="135" y="225" width="30" height="30" fill="hsl(240 100% 89.78220028113529%)" />
  <rect x="170" y="225" width="30" height="30" fill="hsl(240 100% 90.57774068844158%)" />
  <rect x="240" y="225" width="30" height="30" fill="hsl(240 100% 92.28017368622376%)" />
  <rect x="310" y="225" width="30" height="30" fill="rgb(255 255 255 / 50%)" />
  <rect x="415" y="225" width="30" height="30" fill="hsl(240 100% 92.21859138245034%)" />
  <rect x="520" y="225" width="30" height="30" fill="hsl(240 100% 50%)" />
  <rect x="625" y="225" width="30" height="30" fill="rgb(255 255 255 / 50%)" />
  <rect x="730" y="225" width="30" height="30" fill="hsl(240 100% 93.99834249995601%)" />
  <rect x="765" y="225" width="30" height="30" fill="rgb(255 255 255 / 50%)" />
  <rect x="835" y="225" width="30" height="30" fill="hsl(240 100% 94.96226339357749%)" />
  <rect x="65" y="260" width="30" height="30" fill="hsl(240 100% 99.83884960545865%)" />
  <rect x="135" y="260" width="30" height="30" fill="hsl(240 100% 99.8848644995265%)" />
  <rect x="170" y="260" width="30" height="30" fill="hsl(240 100% 99.0092263193876%)" />
  <rect x="205" y="260" width="30" height="30" fill="rgb(255 255 255 / 50%)" />
  <rect x="240" y="260" width="30" height="30" fill="hsl(240 100% 87.1978790251508%)" />
  <rect x="310" y="260" width="30" height="30" fill="rgb(255 255 255 / 50%)" />
  <rect x="415" y="260" width="30" height="30" fill="hsl(240 100% 80.84624881487842%)" />
  <rect x="450" y="260" width="30" height="30" fill="rgb(255 255 255 / 50%)" />
  <rect x="485" y="260" width="30" height="30" fill="hsl(240 100% 50%)" />
  <rect x="520" y="260" width="30" height="30" fill="hsl(240 100% 72.78473144601062%)" />
  <rect x="625" y="260" width="30" height="30" fill="hsl(240 100% 97.01290665005241%)" />
  <rect x="695" y="260" width="30" height="30" fill="hsl(240 100% 94.19386102197414%)" />
  <rect x="65" y="295" width="30" height="30" fill="hsl(240 100% 85.980904036505%)" />
  <rect x="100" y="295" width="30" height="30" fill="hsl(240 100% 97.51674940396357%)" />
  <rect x="135" y="295" width="30" height="30" fill="hsl(240 100% 95.08262039243122%)" />
  <rect x="170" y="295" width="30" height="30" fill="hsl(240 100% 89.2778758785219%)" />
  <rect x="205" y="295" width="30" height="30" fill="hsl(240 100% 99.48550201316903%)" />
  <rect x="240" y="295" width="30" height="30" fill="hsl(240 100% 50.54299267978797%)" />
  <rect x="275" y="295" width="30" height="30" fill="hsl(240 100% 50%)" />
  <rect x="310" y="295" width="30" height="30" fill="hsl(240 100% 99.51048245792667%)" />
  <rect x="345" y="295" width="30" height="30" fill="hsl(240 100% 94.7051837437733%)" />
  <rect x="415" y="295" width="30" height="30" fill="hsl(240 100% 55.26344136113169%)" />
  <rect x="450" y="295" width="30" height="30" fill="hsl(240 100% 99.33904178666359%)" />
  <rect x="485" y="295" width="30" height="30" fill="hsl(240 100% 88.54056816668114%)" />
  <rect x="520" y="295" width="30" height="30" fill="hsl(240 100% 57.80886429297299%)" />
  <rect x="695" y="295" width="30" height="30" fill="hsl(240 100% 97.60754465713055%)" />
  <rect x="800" y="295" width="30" height="30" fill="hsl(240 100% 99.61837445949699%)" />
  <rect x="835" y="295" width="30" height="30" fill="hsl(240 100% 99.95189943114%)" />
  <rect x="65" y="330" width="30" height="30" fill="hsl(240 100% 86.94474504944493%)" />
  <rect x="100" y="330" width="30" height="30" fill="hsl(240 100% 94.1813526071179%)" />
  <rect x="135" y="330" width="30" height="30" fill="hsl(240 100% 96.89531162727161%)" />
  <rect x="170" y="330" width="30" height="30" fill="hsl(240 100% 86.72275632416022%)" />
  <rect x="205" y="330" width="30" height="30" fill="hsl(240 100% 99.17467057694952%)" />
  <rect x="240" y="330" width="30" height="30" fill="hsl(240 100% 83.05454684560061%)" />
  <rect x="275" y="330" width="30" height="30" fill="hsl(240 100% 87.84001094871253%)" />
  <rect x="310" y="330" width="30" height="30" fill="rgb(255 255 255 / 50%)" />
  <rect x="345" y="330" width="30" height="30" fill="hsl(240 100% 97.03363763130592%)" />
  <rect x="415" y="330" width="30" height="30" fill="hsl(240 100% 85.07587102559478%)" />
  <rect x="450" y="330" width="30" height="30" fill="hsl(240 100% 99.80529874037093%)" />
  <rect x="485" y="330" width="30" height="30" fill="hsl(240 100% 70.82224610203397%)" />
  <rect x="520" y="330" width="30" height="30" fill="hsl(240 100% 69.18835941824834%)" />
  <rect x="590" y="330" width="30" height="30" fill="hsl(240 100% 93.53053675498084%)" />
  <rect x="625" y="330" width="30" height="30" fill="hsl(240 100% 50%)" />
  <rect x="765" y="330" width="30" height="30" fill="hsl(240 100% 94.43262816851636%)" />
  <rect x="800" y="330" width="30" height="30" fill="hsl(240 100% 99.19172667228185%)" />
  <rect x="835" y="330" width="30" height="30" fill="hsl(240 100% 78.57593200183966%)" />
  <rect x="65" y="365" width="30" height="30" fill="hsl(240 100% 56.95908819363038%)" />
  <rect x="100" y="365" width="30" height="30" fill="hsl(240 100% 71.46644819432169%)" />
  <rect x="135" y="365" width="30" height="30" fill="hsl(240 100% 81.84848785455574%)" />
  <rect x="170" y="365" width="30" height="30" fill="hsl(240 100% 50%)" />
  <rect x="205" y="365" width="30" height="30" fill="hsl(240 100% 96.03181632034395%)" />
  <rect x="240" y="365" width="30" height="30" fill="hsl(240 100% 59.145130055631526%)" />
  <rect x="275" y="365" width="30" height="30" fill="hsl(240 100% 92.8877462390366%)" />
  <rect x="310" y="365" width="30" height="30" fill="hsl(240 100% 99.83856954432136%)" />
  <rect x="415" y="365" width="30" height="30" fill="hsl(240 100% 66.6386242608705%)" />
  <rect x="520" y="365" width="30" height="30" fill="hsl(240 100% 86.22239478560311%)" />
  <rect x="625" y="365" width="30" height="30" fill="hsl(240 100% 99.64276318695167%)" />
  <rect x="730" y="365" width="30" height="30" fill="hsl(240 100% 63.24538179572245%)" />
  <rect x="765" y="365" width="30" height="30" fill="hsl(240 100% 98.1974432108295%)" />
  <rect x="835" y="365" width="30" height="30" fill="hsl(240 100% 98.87787484053256%)" />
  <rect x="65" y="400" width="30" height="30" fill="hsl(240 100% 97.88520419079401%)" />
  <rect x="100" y="400" width="30" height="30" fill="hsl(240 100% 99.39085124143423%)" />
  <rect x="135" y="400" width="30" height="30" fill="hsl(240 100% 99.62146234081678%)" />
  <rect x="170" y="400" width="30" height="30" fill="hsl(240 100% 93.38075837051716%)" />
  <rect x="205" y="400" width="30" height="30" fill="hsl(240 100% 99.11434649728386%)" />
  <rect x="240" y="400" width="30" height="30" fill="hsl(240 100% 86.12964786370439%)" />
  <rect x="275" y="400" width="30" height="30" fill="hsl(240 100% 94.69664306742992%)" />
  <rect x="310" y="400" width="30" height="30" fill="rgb(255 255 255 / 50%)" />
  <rect x="380" y="400" width="30" height="30" fill="rgb(255 255 255 / 50%)" />
  <rect x="415" y="400" width="30" height="30" fill="hsl(240 100% 93.20243077952301%)" />
  <rect x="450" y="400" width="30" height="30" fill="hsl(240 100% 99.96647213864303%)" />
  <rect x="485" y="400" width="30" height="30" fill="hsl(240 100% 75.7449837796238%)" />
  <rect x="520" y="400" width="30" height="30" fill="hsl(240 100% 50%)" />
  <rect x="555" y="400" width="30" height="30" fill="hsl(240 100% 99.01087830221819%)" />
  <rect x="660" y="400" width="30" height="30" fill="rgb(255 255 255 / 50%)" />
  <rect x="835" y="400" width="30" height="30" fill="hsl(240 100% 99.03482827987713%)" />
  <rect x="65" y="435" width="30" height="30" fill="hsl(240 100% 93.3603024237029%)" />
  <rect x="240" y="435" width="30" height="30" fill="hsl(240 100% 50%)" />
  <rect x="310" y="435" width="30" height="30" fill="hsl(240 100% 91.6739764812884%)" />
  <rect x="415" y="435" width="30" height="30" fill="hsl(240 100% 87.01311698837281%)" />
  <rect x="450" y="435" width="30" height="30" fill="hsl(240 100% 99.79510679721407%)" />
  <rect x="65" y="470" width="30" height="30" fill="hsl(240 100% 50.06602276449654%)" />
  <rect x="240" y="470" width="30" height="30" fill="hsl(240 100% 50%)" />
  <rect x="310" y="470" width="30" height="30" fill="hsl(240 100% 96.37265193455683%)" />
  <rect x="415" y="470" width="30" height="30" fill="hsl(240 100% 89.09944930353093%)" />
  <rect x="450" y="470" width="30" height="30" fill="hsl(240 100% 99.56377405355835%)" />
</svg>
