<svg xmlns="http://www.w3.org/2000/svg" viewBox="0 0 730 505">
  <rect x="0" y="0" width="730" height="505" rx="5" ry="5" fill="#222" />
  <text x="60" y="100" fill="white" font-family="sans-serif" font-weight="bold" font-size="12" text-anchor="end" dominant-baseline="middle">ba</text>
  <text x="60" y="135" fill="white" font-family="sans-serif" font-weight="bold" font-size="12" text-anchor="end" dominant-baseline="middle">det</text>
  <text x="60" y="170" fill="white" font-family="sans-serif" font-weight="bold" font-size="12" text-anchor="end" dominant-baseline="middle">gmm</text>
  <text x="60" y="205" fill="white" font-family="sans-serif" font-weight="bold" font-size="12" text-anchor="end" dominant-baseline="middle">hello</text>
  <text x="60" y="240" fill="white" font-family="sans-serif" font-weight="bold" font-size="12" text-anchor="end" dominant-baseline="middle">ht</text>
  <text x="60" y="275" fill="white" font-family="sans-serif" font-weight="bold" font-size="12" text-anchor="end" dominant-baseline="middle">kmeans</text>
  <text x="60" y="310" fill="white" font-family="sans-serif" font-weight="bold" font-size="12" text-anchor="end" dominant-baseline="middle">llsq</text>
  <text x="60" y="345" fill="white" font-family="sans-serif" font-weight="bold" font-size="12" text-anchor="end" dominant-baseline="middle">lse</text>
  <text x="60" y="380" fill="white" font-family="sans-serif" font-weight="bold" font-size="12" text-anchor="end" dominant-baseline="middle">lstm</text>
  <text x="60" y="415" fill="white" font-family="sans-serif" font-weight="bold" font-size="12" text-anchor="end" dominant-baseline="middle">ode</text>
  <text x="60" y="450" fill="white" font-family="sans-serif" font-weight="bold" font-size="12" text-anchor="end" dominant-baseline="middle">particle</text>
  <text x="60" y="485" fill="white" font-family="sans-serif" font-weight="bold" font-size="12" text-anchor="end" dominant-baseline="middle">saddle</text>
  <text x="80" y="80" fill="white" font-family="sans-serif" font-weight="bold" font-size="12" text-anchor="end" dominant-baseline="middle" transform="rotate(90 80 80)">ad-hpp</text>
  <text x="115" y="80" fill="white" font-family="sans-serif" font-weight="bold" font-size="12" text-anchor="end" dominant-baseline="middle" transform="rotate(90 115 80)">adept</text>
  <text x="150" y="80" fill="white" font-family="sans-serif" font-weight="bold" font-size="12" text-anchor="end" dominant-baseline="middle" transform="rotate(90 150 80)">adol-c</text>
  <text x="185" y="80" fill="white" font-family="sans-serif" font-weight="bold" font-size="12" text-anchor="end" dominant-baseline="middle" transform="rotate(90 185 80)">codipack</text>
  <text x="220" y="80" fill="white" font-family="sans-serif" font-weight="bold" font-size="12" text-anchor="end" dominant-baseline="middle" transform="rotate(90 220 80)">cppad</text>
  <text x="255" y="80" fill="white" font-family="sans-serif" font-weight="bold" font-size="12" text-anchor="end" dominant-baseline="middle" transform="rotate(90 255 80)">enzyme</text>
  <text x="290" y="80" fill="white" font-family="sans-serif" font-weight="bold" font-size="12" text-anchor="end" dominant-baseline="middle" transform="rotate(90 290 80)">enzyme-jl</text>
  <text x="325" y="80" fill="white" font-family="sans-serif" font-weight="bold" font-size="12" text-anchor="end" dominant-baseline="middle" transform="rotate(90 325 80)">finite</text>
  <text x="360" y="80" fill="white" font-family="sans-serif" font-weight="bold" font-size="12" text-anchor="end" dominant-baseline="middle" transform="rotate(90 360 80)">floretta</text>
  <text x="395" y="80" fill="white" font-family="sans-serif" font-weight="bold" font-size="12" text-anchor="end" dominant-baseline="middle" transform="rotate(90 395 80)">futhark</text>
  <text x="430" y="80" fill="white" font-family="sans-serif" font-weight="bold" font-size="12" text-anchor="end" dominant-baseline="middle" transform="rotate(90 430 80)">haskell</text>
  <text x="465" y="80" fill="white" font-family="sans-serif" font-weight="bold" font-size="12" text-anchor="end" dominant-baseline="middle" transform="rotate(90 465 80)">jax</text>
  <text x="500" y="80" fill="white" font-family="sans-serif" font-weight="bold" font-size="12" text-anchor="end" dominant-baseline="middle" transform="rotate(90 500 80)">manual</text>
  <text x="535" y="80" fill="white" font-family="sans-serif" font-weight="bold" font-size="12" text-anchor="end" dominant-baseline="middle" transform="rotate(90 535 80)">ocaml</text>
  <text x="570" y="80" fill="white" font-family="sans-serif" font-weight="bold" font-size="12" text-anchor="end" dominant-baseline="middle" transform="rotate(90 570 80)">pytorch</text>
  <text x="605" y="80" fill="white" font-family="sans-serif" font-weight="bold" font-size="12" text-anchor="end" dominant-baseline="middle" transform="rotate(90 605 80)">scilean</text>
  <text x="640" y="80" fill="white" font-family="sans-serif" font-weight="bold" font-size="12" text-anchor="end" dominant-baseline="middle" transform="rotate(90 640 80)">tapenade</text>
  <text x="675" y="80" fill="white" font-family="sans-serif" font-weight="bold" font-size="12" text-anchor="end" dominant-baseline="middle" transform="rotate(90 675 80)">tensorflow</text>
  <text x="710" y="80" fill="white" font-family="sans-serif" font-weight="bold" font-size="12" text-anchor="end" dominant-baseline="middle" transform="rotate(90 710 80)">zygote</text>
  <rect x="65" y="85" width="30" height="30" fill="hsl(240 100% 78.05255432326672%)" />
  <rect x="100" y="85" width="30" height="30" fill="hsl(240 100% 82.89454019760304%)" />
  <rect x="135" y="85" width="30" height="30" fill="hsl(240 100% 97.79970283339642%)" />
  <rect x="170" y="85" width="30" height="30" fill="hsl(240 100% 88.85663098412661%)" />
  <rect x="205" y="85" width="30" height="30" fill="hsl(240 100% 98.8815747602574%)" />
  <rect x="240" y="85" width="30" height="30" fill="hsl(240 100% 50%)" />
  <rect x="310" y="85" width="30" height="30" fill="hsl(240 100% 92.50696855814087%)" />
  <rect x="380" y="85" width="30" height="30" fill="hsl(240 100% 67.96446399033515%)" />
  <rect x="485" y="85" width="30" height="30" fill="hsl(240 100% 51.35134845061299%)" />
  <rect x="555" y="85" width="30" height="30" fill="rgb(255 255 255 / 50%)" />
  <rect x="625" y="85" width="30" height="30" fill="hsl(240 100% 72.19017481352316%)" />
  <rect x="660" y="85" width="30" height="30" fill="rgb(255 255 255 / 50%)" />
  <rect x="695" y="85" width="30" height="30" fill="hsl(240 100% 99.6959319580543%)" />
  <rect x="65" y="120" width="30" height="30" fill="hsl(240 100% 50%)" />
  <rect x="100" y="120" width="30" height="30" fill="hsl(240 100% 83.7126927730928%)" />
  <rect x="135" y="120" width="30" height="30" fill="hsl(240 100% 86.11099103877451%)" />
  <rect x="170" y="120" width="30" height="30" fill="hsl(240 100% 50.53319779055992%)" />
  <rect x="205" y="120" width="30" height="30" fill="hsl(240 100% 93.00931491910552%)" />
  <rect x="240" y="120" width="30" height="30" fill="hsl(240 100% 91.98747862795992%)" />
  <rect x="275" y="120" width="30" height="30" fill="hsl(240 100% 99.18670437525434%)" />
  <rect x="310" y="120" width="30" height="30" fill="hsl(240 100% 98.99407735367261%)" />
  <rect x="380" y="120" width="30" height="30" fill="hsl(240 100% 94.78898190035461%)" />
  <rect x="415" y="120" width="30" height="30" fill="hsl(240 100% 97.95862973529%)" />
  <rect x="485" y="120" width="30" height="30" fill="hsl(240 100% 79.87829753884662%)" />
  <rect x="695" y="120" width="30" height="30" fill="rgb(255 255 255 / 50%)" />
  <rect x="65" y="155" width="30" height="30" fill="hsl(240 100% 97.45342344536041%)" />
  <rect x="100" y="155" width="30" height="30" fill="hsl(240 100% 98.25370470339179%)" />
  <rect x="135" y="155" width="30" height="30" fill="hsl(240 100% 98.84500262612339%)" />
  <rect x="170" y="155" width="30" height="30" fill="hsl(240 100% 97.202234608517%)" />
  <rect x="205" y="155" width="30" height="30" fill="hsl(240 100% 99.76760237230766%)" />
  <rect x="240" y="155" width="30" height="30" fill="hsl(240 100% 86.61154001690281%)" />
  <rect x="275" y="155" width="30" height="30" fill="hsl(240 100% 99.82467716084324%)" />
  <rect x="310" y="155" width="30" height="30" fill="rgb(255 255 255 / 50%)" />
  <rect x="380" y="155" width="30" height="30" fill="hsl(240 100% 89.86281721408108%)" />
  <rect x="450" y="155" width="30" height="30" fill="hsl(240 100% 69.05199367124243%)" />
  <rect x="485" y="155" width="30" height="30" fill="hsl(240 100% 75.15384491439059%)" />
  <rect x="520" y="155" width="30" height="30" fill="hsl(240 100% 99.34133890484146%)" />
  <rect x="555" y="155" width="30" height="30" fill="hsl(240 100% 50%)" />
  <rect x="590" y="155" width="30" height="30" fill="hsl(240 100% 92.65195522565742%)" />
  <rect x="625" y="155" width="30" height="30" fill="hsl(240 100% 75.90787772256705%)" />
  <rect x="660" y="155" width="30" height="30" fill="hsl(240 100% 88.84081299442917%)" />
  <rect x="695" y="155" width="30" height="30" fill="hsl(240 100% 99.32171099432755%)" />
  <rect x="65" y="190" width="30" height="30" fill="hsl(240 100% 50%)" />
  <rect x="100" y="190" width="30" height="30" fill="hsl(240 100% 50%)" />
  <rect x="135" y="190" width="30" height="30" fill="hsl(240 100% 50%)" />
  <rect x="170" y="190" width="30" height="30" fill="hsl(240 100% 50%)" />
  <rect x="205" y="190" width="30" height="30" fill="hsl(240 100% 50%)" />
  <rect x="240" y="190" width="30" height="30" fill="hsl(240 100% 50%)" />
  <rect x="275" y="190" width="30" height="30" fill="hsl(240 100% 50%)" />
  <rect x="310" y="190" width="30" height="30" fill="hsl(240 100% 50%)" />
  <rect x="345" y="190" width="30" height="30" fill="hsl(240 100% 50%)" />
  <rect x="380" y="190" width="30" height="30" fill="hsl(240 100% 50%)" />
  <rect x="415" y="190" width="30" height="30" fill="hsl(240 100% 50%)" />
  <rect x="450" y="190" width="30" height="30" fill="hsl(240 100% 50%)" />
  <rect x="485" y="190" width="30" height="30" fill="hsl(240 100% 50%)" />
  <rect x="520" y="190" width="30" height="30" fill="hsl(240 100% 50%)" />
  <rect x="555" y="190" width="30" height="30" fill="hsl(240 100% 50%)" />
  <rect x="590" y="190" width="30" height="30" fill="hsl(240 100% 50%)" />
  <rect x="625" y="190" width="30" height="30" fill="hsl(240 100% 50%)" />
  <rect x="660" y="190" width="30" height="30" fill="hsl(240 100% 50%)" />
  <rect x="695" y="190" width="30" height="30" fill="hsl(240 100% 50%)" />
  <rect x="100" y="225" width="30" height="30" fill="hsl(240 100% 96.0929445123808%)" />
  <rect x="135" y="225" width="30" height="30" fill="hsl(240 100% 89.69525850923722%)" />
  <rect x="170" y="225" width="30" height="30" fill="hsl(240 100% 88.55820064812369%)" />
  <rect x="240" y="225" width="30" height="30" fill="hsl(240 100% 90.4226625299871%)" />
  <rect x="310" y="225" width="30" height="30" fill="rgb(255 255 255 / 50%)" />
  <rect x="380" y="225" width="30" height="30" fill="hsl(240 100% 89.70662246396617%)" />
  <rect x="485" y="225" width="30" height="30" fill="hsl(240 100% 50%)" />
  <rect x="555" y="225" width="30" height="30" fill="rgb(255 255 255 / 50%)" />
  <rect x="625" y="225" width="30" height="30" fill="rgb(255 255 255 / 50%)" />
  <rect x="660" y="225" width="30" height="30" fill="rgb(255 255 255 / 50%)" />
  <rect x="695" y="225" width="30" height="30" fill="hsl(240 100% 99.44379541496015%)" />
  <rect x="135" y="260" width="30" height="30" fill="hsl(240 100% 99.89117004596956%)" />
  <rect x="170" y="260" width="30" height="30" fill="hsl(240 100% 99.35282277171824%)" />
  <rect x="205" y="260" width="30" height="30" fill="rgb(255 255 255 / 50%)" />
  <rect x="240" y="260" width="30" height="30" fill="hsl(240 100% 87.94927787361866%)" />
  <rect x="310" y="260" width="30" height="30" fill="rgb(255 255 255 / 50%)" />
  <rect x="380" y="260" width="30" height="30" fill="hsl(240 100% 83.09543555866168%)" />
  <rect x="415" y="260" width="30" height="30" fill="rgb(255 255 255 / 50%)" />
  <rect x="450" y="260" width="30" height="30" fill="hsl(240 100% 50%)" />
  <rect x="485" y="260" width="30" height="30" fill="hsl(240 100% 76.56376101844386%)" />
  <rect x="555" y="260" width="30" height="30" fill="hsl(240 100% 96.96325542169724%)" />
  <rect x="590" y="260" width="30" height="30" fill="hsl(240 100% 94.13722842425646%)" />
  <rect x="65" y="295" width="30" height="30" fill="hsl(240 100% 58.769566666327414%)" />
  <rect x="100" y="295" width="30" height="30" fill="hsl(240 100% 65.98364692345186%)" />
  <rect x="135" y="295" width="30" height="30" fill="hsl(240 100% 59.48034454554716%)" />
  <rect x="170" y="295" width="30" height="30" fill="hsl(240 100% 60.0369591726377%)" />
  <rect x="205" y="295" width="30" height="30" fill="hsl(240 100% 91.564099843061%)" />
  <rect x="240" y="295" width="30" height="30" fill="hsl(240 100% 50%)" />
  <rect x="275" y="295" width="30" height="30" fill="hsl(240 100% 98.87156353449575%)" />
  <rect x="310" y="295" width="30" height="30" fill="hsl(240 100% 99.42722559230305%)" />
  <rect x="380" y="295" width="30" height="30" fill="hsl(240 100% 50.66276633694628%)" />
  <rect x="415" y="295" width="30" height="30" fill="hsl(240 100% 89.53213225469929%)" />
  <rect x="485" y="295" width="30" height="30" fill="hsl(240 100% 53.54236784606459%)" />
  <rect x="590" y="295" width="30" height="30" fill="hsl(240 100% 55.39872787794624%)" />
  <rect x="695" y="295" width="30" height="30" fill="hsl(240 100% 99.73105147025662%)" />
  <rect x="65" y="330" width="30" height="30" fill="hsl(240 100% 89.16480661776883%)" />
  <rect x="100" y="330" width="30" height="30" fill="hsl(240 100% 94.7977125471137%)" />
  <rect x="135" y="330" width="30" height="30" fill="hsl(240 100% 97.25675899974296%)" />
  <rect x="170" y="330" width="30" height="30" fill="hsl(240 100% 89.47777310432109%)" />
  <rect x="205" y="330" width="30" height="30" fill="hsl(240 100% 99.21835740257539%)" />
  <rect x="240" y="330" width="30" height="30" fill="hsl(240 100% 81.60936303284235%)" />
  <rect x="275" y="330" width="30" height="30" fill="hsl(240 100% 99.83030567550067%)" />
  <rect x="310" y="330" width="30" height="30" fill="rgb(255 255 255 / 50%)" />
  <rect x="380" y="330" width="30" height="30" fill="hsl(240 100% 85.95758961152889%)" />
  <rect x="415" y="330" width="30" height="30" fill="hsl(240 100% 99.80039442980083%)" />
  <rect x="450" y="330" width="30" height="30" fill="hsl(240 100% 71.85136634617005%)" />
  <rect x="485" y="330" width="30" height="30" fill="hsl(240 100% 79.09445773162307%)" />
  <rect x="520" y="330" width="30" height="30" fill="hsl(240 100% 94.12817457405083%)" />
  <rect x="555" y="330" width="30" height="30" fill="hsl(240 100% 50%)" />
  <rect x="660" y="330" width="30" height="30" fill="hsl(240 100% 89.10843199332946%)" />
  <rect x="695" y="330" width="30" height="30" fill="hsl(240 100% 95.05062153292621%)" />
  <rect x="65" y="365" width="30" height="30" fill="hsl(240 100% 53.57533888316837%)" />
  <rect x="100" y="365" width="30" height="30" fill="hsl(240 100% 69.04259266228594%)" />
  <rect x="135" y="365" width="30" height="30" fill="hsl(240 100% 80.86948114829124%)" />
  <rect x="170" y="365" width="30" height="30" fill="hsl(240 100% 50%)" />
  <rect x="205" y="365" width="30" height="30" fill="hsl(240 100% 95.84521663784024%)" />
  <rect x="240" y="365" width="30" height="30" fill="hsl(240 100% 51.02916031658081%)" />
  <rect x="310" y="365" width="30" height="30" fill="hsl(240 100% 99.85113028907983%)" />
  <rect x="380" y="365" width="30" height="30" fill="hsl(240 100% 63.01252232643705%)" />
  <rect x="485" y="365" width="30" height="30" fill="hsl(240 100% 84.68338747805376%)" />
  <rect x="555" y="365" width="30" height="30" fill="hsl(240 100% 99.60026081029366%)" />
  <rect x="625" y="365" width="30" height="30" fill="hsl(240 100% 59.8621279893022%)" />
  <rect x="660" y="365" width="30" height="30" fill="hsl(240 100% 97.94829734452186%)" />
  <rect x="695" y="365" width="30" height="30" fill="hsl(240 100% 99.09178318781109%)" />
  <rect x="65" y="400" width="30" height="30" fill="hsl(240 100% 97.50618521375932%)" />
  <rect x="100" y="400" width="30" height="30" fill="hsl(240 100% 99.19086264560978%)" />
  <rect x="135" y="400" width="30" height="30" fill="hsl(240 100% 99.56380855564632%)" />
  <rect x="170" y="400" width="30" height="30" fill="hsl(240 100% 93.72993591105973%)" />
  <rect x="205" y="400" width="30" height="30" fill="hsl(240 100% 98.97174706340303%)" />
  <rect x="240" y="400" width="30" height="30" fill="hsl(240 100% 85.95758293305367%)" />
  <rect x="275" y="400" width="30" height="30" fill="hsl(240 100% 98.9862168994341%)" />
  <rect x="310" y="400" width="30" height="30" fill="rgb(255 255 255 / 50%)" />
  <rect x="380" y="400" width="30" height="30" fill="hsl(240 100% 95.38886769278679%)" />
  <rect x="415" y="400" width="30" height="30" fill="hsl(240 100% 99.96575997173281%)" />
  <rect x="485" y="400" width="30" height="30" fill="hsl(240 100% 50%)" />
  <rect x="240" y="435" width="30" height="30" fill="hsl(240 100% 50%)" />
  <rect x="310" y="435" width="30" height="30" fill="hsl(240 100% 95.20127592487968%)" />
  <rect x="380" y="435" width="30" height="30" fill="hsl(240 100% 87.92099290997213%)" />
  <rect x="415" y="435" width="30" height="30" fill="hsl(240 100% 99.77036561186216%)" />
  <rect x="240" y="470" width="30" height="30" fill="hsl(240 100% 50%)" />
  <rect x="310" y="470" width="30" height="30" fill="hsl(240 100% 95.8274597798597%)" />
  <rect x="380" y="470" width="30" height="30" fill="hsl(240 100% 89.05897964025421%)" />
  <rect x="415" y="470" width="30" height="30" fill="hsl(240 100% 99.56680994034318%)" />
</svg>
