<svg xmlns="http://www.w3.org/2000/svg" viewBox="0 0 730 505">
  <rect x="0" y="0" width="730" height="505" rx="5" ry="5" fill="#222" />
  <text x="60" y="100" fill="white" font-family="sans-serif" font-weight="bold" font-size="12" text-anchor="end" dominant-baseline="middle">ba</text>
  <text x="60" y="135" fill="white" font-family="sans-serif" font-weight="bold" font-size="12" text-anchor="end" dominant-baseline="middle">det</text>
  <text x="60" y="170" fill="white" font-family="sans-serif" font-weight="bold" font-size="12" text-anchor="end" dominant-baseline="middle">gmm</text>
  <text x="60" y="205" fill="white" font-family="sans-serif" font-weight="bold" font-size="12" text-anchor="end" dominant-baseline="middle">hello</text>
  <text x="60" y="240" fill="white" font-family="sans-serif" font-weight="bold" font-size="12" text-anchor="end" dominant-baseline="middle">ht</text>
  <text x="60" y="275" fill="white" font-family="sans-serif" font-weight="bold" font-size="12" text-anchor="end" dominant-baseline="middle">kmeans</text>
  <text x="60" y="310" fill="white" font-family="sans-serif" font-weight="bold" font-size="12" text-anchor="end" dominant-baseline="middle">llsq</text>
  <text x="60" y="345" fill="white" font-family="sans-serif" font-weight="bold" font-size="12" text-anchor="end" dominant-baseline="middle">lse</text>
  <text x="60" y="380" fill="white" font-family="sans-serif" font-weight="bold" font-size="12" text-anchor="end" dominant-baseline="middle">lstm</text>
  <text x="60" y="415" fill="white" font-family="sans-serif" font-weight="bold" font-size="12" text-anchor="end" dominant-baseline="middle">ode</text>
  <text x="60" y="450" fill="white" font-family="sans-serif" font-weight="bold" font-size="12" text-anchor="end" dominant-baseline="middle">particle</text>
  <text x="60" y="485" fill="white" font-family="sans-serif" font-weight="bold" font-size="12" text-anchor="end" dominant-baseline="middle">saddle</text>
  <text x="80" y="80" fill="white" font-family="sans-serif" font-weight="bold" font-size="12" text-anchor="end" dominant-baseline="middle" transform="rotate(90 80 80)">ad-hpp</text>
  <text x="115" y="80" fill="white" font-family="sans-serif" font-weight="bold" font-size="12" text-anchor="end" dominant-baseline="middle" transform="rotate(90 115 80)">adept</text>
  <text x="150" y="80" fill="white" font-family="sans-serif" font-weight="bold" font-size="12" text-anchor="end" dominant-baseline="middle" transform="rotate(90 150 80)">adol-c</text>
  <text x="185" y="80" fill="white" font-family="sans-serif" font-weight="bold" font-size="12" text-anchor="end" dominant-baseline="middle" transform="rotate(90 185 80)">codipack</text>
  <text x="220" y="80" fill="white" font-family="sans-serif" font-weight="bold" font-size="12" text-anchor="end" dominant-baseline="middle" transform="rotate(90 220 80)">cppad</text>
  <text x="255" y="80" fill="white" font-family="sans-serif" font-weight="bold" font-size="12" text-anchor="end" dominant-baseline="middle" transform="rotate(90 255 80)">enzyme</text>
  <text x="290" y="80" fill="white" font-family="sans-serif" font-weight="bold" font-size="12" text-anchor="end" dominant-baseline="middle" transform="rotate(90 290 80)">enzyme-jl</text>
  <text x="325" y="80" fill="white" font-family="sans-serif" font-weight="bold" font-size="12" text-anchor="end" dominant-baseline="middle" transform="rotate(90 325 80)">finite</text>
  <text x="360" y="80" fill="white" font-family="sans-serif" font-weight="bold" font-size="12" text-anchor="end" dominant-baseline="middle" transform="rotate(90 360 80)">floretta</text>
  <text x="395" y="80" fill="white" font-family="sans-serif" font-weight="bold" font-size="12" text-anchor="end" dominant-baseline="middle" transform="rotate(90 395 80)">futhark</text>
  <text x="430" y="80" fill="white" font-family="sans-serif" font-weight="bold" font-size="12" text-anchor="end" dominant-baseline="middle" transform="rotate(90 430 80)">haskell</text>
  <text x="465" y="80" fill="white" font-family="sans-serif" font-weight="bold" font-size="12" text-anchor="end" dominant-baseline="middle" transform="rotate(90 465 80)">jax</text>
  <text x="500" y="80" fill="white" font-family="sans-serif" font-weight="bold" font-size="12" text-anchor="end" dominant-baseline="middle" transform="rotate(90 500 80)">manual</text>
  <text x="535" y="80" fill="white" font-family="sans-serif" font-weight="bold" font-size="12" text-anchor="end" dominant-baseline="middle" transform="rotate(90 535 80)">ocaml</text>
  <text x="570" y="80" fill="white" font-family="sans-serif" font-weight="bold" font-size="12" text-anchor="end" dominant-baseline="middle" transform="rotate(90 570 80)">pytorch</text>
  <text x="605" y="80" fill="white" font-family="sans-serif" font-weight="bold" font-size="12" text-anchor="end" dominant-baseline="middle" transform="rotate(90 605 80)">scilean</text>
  <text x="640" y="80" fill="white" font-family="sans-serif" font-weight="bold" font-size="12" text-anchor="end" dominant-baseline="middle" transform="rotate(90 640 80)">tapenade</text>
  <text x="675" y="80" fill="white" font-family="sans-serif" font-weight="bold" font-size="12" text-anchor="end" dominant-baseline="middle" transform="rotate(90 675 80)">tensorflow</text>
  <text x="710" y="80" fill="white" font-family="sans-serif" font-weight="bold" font-size="12" text-anchor="end" dominant-baseline="middle" transform="rotate(90 710 80)">zygote</text>
  <rect x="65" y="85" width="30" height="30" fill="hsl(240 100% 80.89127402058585%)" />
  <rect x="100" y="85" width="30" height="30" fill="hsl(240 100% 82.66316707180529%)" />
  <rect x="135" y="85" width="30" height="30" fill="hsl(240 100% 97.98522590890138%)" />
  <rect x="170" y="85" width="30" height="30" fill="hsl(240 100% 82.35138633547905%)" />
  <rect x="205" y="85" width="30" height="30" fill="hsl(240 100% 99.00064029925468%)" />
  <rect x="240" y="85" width="30" height="30" fill="hsl(240 100% 51.45469733984524%)" />
  <rect x="310" y="85" width="30" height="30" fill="hsl(240 100% 93.32024896366723%)" />
  <rect x="380" y="85" width="30" height="30" fill="hsl(240 100% 68.01743413085234%)" />
  <rect x="485" y="85" width="30" height="30" fill="hsl(240 100% 50%)" />
  <rect x="555" y="85" width="30" height="30" fill="rgb(255 255 255 / 50%)" />
  <rect x="625" y="85" width="30" height="30" fill="hsl(240 100% 74.84058830850446%)" />
  <rect x="660" y="85" width="30" height="30" fill="rgb(255 255 255 / 50%)" />
  <rect x="695" y="85" width="30" height="30" fill="hsl(240 100% 99.72893082603099%)" />
  <rect x="65" y="120" width="30" height="30" fill="hsl(240 100% 50%)" />
  <rect x="100" y="120" width="30" height="30" fill="hsl(240 100% 83.98675369393536%)" />
  <rect x="135" y="120" width="30" height="30" fill="hsl(240 100% 85.4282313395571%)" />
  <rect x="170" y="120" width="30" height="30" fill="hsl(240 100% 51.37304181111092%)" />
  <rect x="205" y="120" width="30" height="30" fill="hsl(240 100% 92.45433904435659%)" />
  <rect x="240" y="120" width="30" height="30" fill="hsl(240 100% 91.71659869675517%)" />
  <rect x="275" y="120" width="30" height="30" fill="hsl(240 100% 99.20323281068184%)" />
  <rect x="310" y="120" width="30" height="30" fill="hsl(240 100% 98.97327680594623%)" />
  <rect x="380" y="120" width="30" height="30" fill="hsl(240 100% 94.54051462396235%)" />
  <rect x="415" y="120" width="30" height="30" fill="hsl(240 100% 97.91197739177491%)" />
  <rect x="485" y="120" width="30" height="30" fill="hsl(240 100% 79.43192558484694%)" />
  <rect x="695" y="120" width="30" height="30" fill="rgb(255 255 255 / 50%)" />
  <rect x="65" y="155" width="30" height="30" fill="hsl(240 100% 97.14435646402534%)" />
  <rect x="100" y="155" width="30" height="30" fill="hsl(240 100% 98.23886810552791%)" />
  <rect x="135" y="155" width="30" height="30" fill="hsl(240 100% 98.88963465468507%)" />
  <rect x="170" y="155" width="30" height="30" fill="hsl(240 100% 97.32400468716091%)" />
  <rect x="205" y="155" width="30" height="30" fill="hsl(240 100% 99.7683200209964%)" />
  <rect x="240" y="155" width="30" height="30" fill="hsl(240 100% 86.63156747934165%)" />
  <rect x="275" y="155" width="30" height="30" fill="hsl(240 100% 99.83675798162301%)" />
  <rect x="310" y="155" width="30" height="30" fill="rgb(255 255 255 / 50%)" />
  <rect x="380" y="155" width="30" height="30" fill="hsl(240 100% 89.42874008930234%)" />
  <rect x="450" y="155" width="30" height="30" fill="hsl(240 100% 70.64388995280815%)" />
  <rect x="485" y="155" width="30" height="30" fill="hsl(240 100% 72.25406762681216%)" />
  <rect x="520" y="155" width="30" height="30" fill="hsl(240 100% 99.40837282074907%)" />
  <rect x="555" y="155" width="30" height="30" fill="hsl(240 100% 50%)" />
  <rect x="590" y="155" width="30" height="30" fill="hsl(240 100% 92.72827642934001%)" />
  <rect x="625" y="155" width="30" height="30" fill="hsl(240 100% 75.56660594736047%)" />
  <rect x="660" y="155" width="30" height="30" fill="hsl(240 100% 88.9264527218625%)" />
  <rect x="695" y="155" width="30" height="30" fill="hsl(240 100% 99.32333714396589%)" />
  <rect x="65" y="190" width="30" height="30" fill="hsl(240 100% 50%)" />
  <rect x="100" y="190" width="30" height="30" fill="hsl(240 100% 50%)" />
  <rect x="135" y="190" width="30" height="30" fill="hsl(240 100% 50%)" />
  <rect x="170" y="190" width="30" height="30" fill="hsl(240 100% 50%)" />
  <rect x="205" y="190" width="30" height="30" fill="hsl(240 100% 50%)" />
  <rect x="240" y="190" width="30" height="30" fill="hsl(240 100% 50%)" />
  <rect x="275" y="190" width="30" height="30" fill="hsl(240 100% 50%)" />
  <rect x="310" y="190" width="30" height="30" fill="hsl(240 100% 50%)" />
  <rect x="345" y="190" width="30" height="30" fill="hsl(240 100% 50%)" />
  <rect x="380" y="190" width="30" height="30" fill="hsl(240 100% 50%)" />
  <rect x="415" y="190" width="30" height="30" fill="hsl(240 100% 50%)" />
  <rect x="450" y="190" width="30" height="30" fill="hsl(240 100% 50%)" />
  <rect x="485" y="190" width="30" height="30" fill="hsl(240 100% 50%)" />
  <rect x="520" y="190" width="30" height="30" fill="hsl(240 100% 50%)" />
  <rect x="555" y="190" width="30" height="30" fill="hsl(240 100% 50%)" />
  <rect x="590" y="190" width="30" height="30" fill="hsl(240 100% 50%)" />
  <rect x="625" y="190" width="30" height="30" fill="hsl(240 100% 50%)" />
  <rect x="660" y="190" width="30" height="30" fill="hsl(240 100% 50%)" />
  <rect x="695" y="190" width="30" height="30" fill="hsl(240 100% 50%)" />
  <rect x="100" y="225" width="30" height="30" fill="hsl(240 100% 96.6096845760179%)" />
  <rect x="135" y="225" width="30" height="30" fill="hsl(240 100% 89.00670083852818%)" />
  <rect x="170" y="225" width="30" height="30" fill="hsl(240 100% 89.04251380488162%)" />
  <rect x="240" y="225" width="30" height="30" fill="hsl(240 100% 91.1082886747568%)" />
  <rect x="310" y="225" width="30" height="30" fill="rgb(255 255 255 / 50%)" />
  <rect x="380" y="225" width="30" height="30" fill="hsl(240 100% 90.42297870053457%)" />
  <rect x="485" y="225" width="30" height="30" fill="hsl(240 100% 50%)" />
  <rect x="555" y="225" width="30" height="30" fill="rgb(255 255 255 / 50%)" />
  <rect x="625" y="225" width="30" height="30" fill="hsl(240 100% 93.04777175580796%)" />
  <rect x="660" y="225" width="30" height="30" fill="rgb(255 255 255 / 50%)" />
  <rect x="695" y="225" width="30" height="30" fill="hsl(240 100% 99.47966476767532%)" />
  <rect x="65" y="260" width="30" height="30" fill="hsl(240 100% 99.94831128626606%)" />
  <rect x="135" y="260" width="30" height="30" fill="hsl(240 100% 99.91247046591059%)" />
  <rect x="170" y="260" width="30" height="30" fill="hsl(240 100% 98.98664066054991%)" />
  <rect x="205" y="260" width="30" height="30" fill="rgb(255 255 255 / 50%)" />
  <rect x="240" y="260" width="30" height="30" fill="hsl(240 100% 87.32977172130634%)" />
  <rect x="310" y="260" width="30" height="30" fill="rgb(255 255 255 / 50%)" />
  <rect x="380" y="260" width="30" height="30" fill="hsl(240 100% 81.16745630391122%)" />
  <rect x="415" y="260" width="30" height="30" fill="rgb(255 255 255 / 50%)" />
  <rect x="450" y="260" width="30" height="30" fill="hsl(240 100% 50%)" />
  <rect x="485" y="260" width="30" height="30" fill="hsl(240 100% 71.49690987570264%)" />
  <rect x="555" y="260" width="30" height="30" fill="hsl(240 100% 97.1302458068706%)" />
  <rect x="590" y="260" width="30" height="30" fill="hsl(240 100% 94.15678930729614%)" />
  <rect x="65" y="295" width="30" height="30" fill="hsl(240 100% 85.9958420865214%)" />
  <rect x="100" y="295" width="30" height="30" fill="hsl(240 100% 97.48747622425074%)" />
  <rect x="135" y="295" width="30" height="30" fill="hsl(240 100% 95.24173364676656%)" />
  <rect x="170" y="295" width="30" height="30" fill="hsl(240 100% 90.56654883213103%)" />
  <rect x="205" y="295" width="30" height="30" fill="hsl(240 100% 99.46979399518398%)" />
  <rect x="240" y="295" width="30" height="30" fill="hsl(240 100% 50%)" />
  <rect x="275" y="295" width="30" height="30" fill="hsl(240 100% 99.86048353034057%)" />
  <rect x="310" y="295" width="30" height="30" fill="hsl(240 100% 99.49346398013098%)" />
  <rect x="345" y="295" width="30" height="30" fill="hsl(240 100% 94.70149354173721%)" />
  <rect x="380" y="295" width="30" height="30" fill="hsl(240 100% 54.704410327968276%)" />
  <rect x="415" y="295" width="30" height="30" fill="hsl(240 100% 99.33352021596389%)" />
  <rect x="450" y="295" width="30" height="30" fill="hsl(240 100% 88.86910353531442%)" />
  <rect x="485" y="295" width="30" height="30" fill="hsl(240 100% 57.34924065783446%)" />
  <rect x="590" y="295" width="30" height="30" fill="hsl(240 100% 97.57873546799969%)" />
  <rect x="695" y="295" width="30" height="30" fill="hsl(240 100% 99.97457765439844%)" />
  <rect x="65" y="330" width="30" height="30" fill="hsl(240 100% 89.81397210642018%)" />
  <rect x="100" y="330" width="30" height="30" fill="hsl(240 100% 94.887991903896%)" />
  <rect x="135" y="330" width="30" height="30" fill="hsl(240 100% 97.22996502557224%)" />
  <rect x="170" y="330" width="30" height="30" fill="hsl(240 100% 87.94069621713443%)" />
  <rect x="205" y="330" width="30" height="30" fill="hsl(240 100% 99.25196817606712%)" />
  <rect x="240" y="330" width="30" height="30" fill="hsl(240 100% 79.4365402047446%)" />
  <rect x="275" y="330" width="30" height="30" fill="hsl(240 100% 99.82845033077344%)" />
  <rect x="310" y="330" width="30" height="30" fill="rgb(255 255 255 / 50%)" />
  <rect x="345" y="330" width="30" height="30" fill="hsl(240 100% 97.3061211479805%)" />
  <rect x="380" y="330" width="30" height="30" fill="hsl(240 100% 86.38447523034404%)" />
  <rect x="415" y="330" width="30" height="30" fill="hsl(240 100% 99.81491487250294%)" />
  <rect x="450" y="330" width="30" height="30" fill="hsl(240 100% 72.20607182420153%)" />
  <rect x="485" y="330" width="30" height="30" fill="hsl(240 100% 74.31584439143043%)" />
  <rect x="520" y="330" width="30" height="30" fill="hsl(240 100% 93.93053657643179%)" />
  <rect x="555" y="330" width="30" height="30" fill="hsl(240 100% 50%)" />
  <rect x="660" y="330" width="30" height="30" fill="hsl(240 100% 94.3434318798168%)" />
  <rect x="695" y="330" width="30" height="30" fill="hsl(240 100% 95.24766778176358%)" />
  <rect x="65" y="365" width="30" height="30" fill="hsl(240 100% 57.36774813859371%)" />
  <rect x="100" y="365" width="30" height="30" fill="hsl(240 100% 71.88846220232539%)" />
  <rect x="135" y="365" width="30" height="30" fill="hsl(240 100% 82.63301973593158%)" />
  <rect x="170" y="365" width="30" height="30" fill="hsl(240 100% 50%)" />
  <rect x="205" y="365" width="30" height="30" fill="hsl(240 100% 96.23044794886059%)" />
  <rect x="240" y="365" width="30" height="30" fill="hsl(240 100% 60.47680342134542%)" />
  <rect x="275" y="365" width="30" height="30" fill="hsl(240 100% 98.97465587241216%)" />
  <rect x="310" y="365" width="30" height="30" fill="hsl(240 100% 99.86272181700458%)" />
  <rect x="380" y="365" width="30" height="30" fill="hsl(240 100% 66.76952492004489%)" />
  <rect x="485" y="365" width="30" height="30" fill="hsl(240 100% 86.0008755147634%)" />
  <rect x="555" y="365" width="30" height="30" fill="hsl(240 100% 99.63941909210484%)" />
  <rect x="625" y="365" width="30" height="30" fill="hsl(240 100% 63.52130591144096%)" />
  <rect x="660" y="365" width="30" height="30" fill="hsl(240 100% 98.16173422377862%)" />
  <rect x="695" y="365" width="30" height="30" fill="hsl(240 100% 99.17197682655517%)" />
  <rect x="65" y="400" width="30" height="30" fill="hsl(240 100% 98.11219650987874%)" />
  <rect x="100" y="400" width="30" height="30" fill="hsl(240 100% 99.3057047163482%)" />
  <rect x="135" y="400" width="30" height="30" fill="hsl(240 100% 99.59867400938195%)" />
  <rect x="170" y="400" width="30" height="30" fill="hsl(240 100% 94.32578400846398%)" />
  <rect x="205" y="400" width="30" height="30" fill="hsl(240 100% 99.04613756894109%)" />
  <rect x="240" y="400" width="30" height="30" fill="hsl(240 100% 83.64153058876407%)" />
  <rect x="275" y="400" width="30" height="30" fill="hsl(240 100% 99.09576662873695%)" />
  <rect x="310" y="400" width="30" height="30" fill="rgb(255 255 255 / 50%)" />
  <rect x="380" y="400" width="30" height="30" fill="hsl(240 100% 92.50138570816455%)" />
  <rect x="415" y="400" width="30" height="30" fill="hsl(240 100% 99.96336864366997%)" />
  <rect x="450" y="400" width="30" height="30" fill="hsl(240 100% 73.84559938584961%)" />
  <rect x="485" y="400" width="30" height="30" fill="hsl(240 100% 50%)" />
  <rect x="695" y="400" width="30" height="30" fill="hsl(240 100% 99.65204296447703%)" />
  <rect x="65" y="435" width="30" height="30" fill="hsl(240 100% 92.93014148112643%)" />
  <rect x="240" y="435" width="30" height="30" fill="hsl(240 100% 50%)" />
  <rect x="310" y="435" width="30" height="30" fill="hsl(240 100% 94.24507486450614%)" />
  <rect x="380" y="435" width="30" height="30" fill="hsl(240 100% 86.99313919326568%)" />
  <rect x="415" y="435" width="30" height="30" fill="hsl(240 100% 99.79241796282724%)" />
  <rect x="65" y="470" width="30" height="30" fill="hsl(240 100% 50%)" />
  <rect x="240" y="470" width="30" height="30" fill="hsl(240 100% 50.3157691492022%)" />
  <rect x="310" y="470" width="30" height="30" fill="hsl(240 100% 97.18383734099936%)" />
  <rect x="380" y="470" width="30" height="30" fill="hsl(240 100% 89.05806868787363%)" />
  <rect x="415" y="470" width="30" height="30" fill="hsl(240 100% 99.58766762968855%)" />
</svg>
