<svg xmlns="http://www.w3.org/2000/svg" viewBox="0 0 660 295">
  <rect x="0" y="0" width="660" height="295" rx="5" ry="5" fill="#222" />
  <text x="60" y="100" fill="white" font-family="sans-serif" font-weight="bold" font-size="12" text-anchor="end" dominant-baseline="middle">ba</text>
  <text x="60" y="135" fill="white" font-family="sans-serif" font-weight="bold" font-size="12" text-anchor="end" dominant-baseline="middle">gmm</text>
  <text x="60" y="170" fill="white" font-family="sans-serif" font-weight="bold" font-size="12" text-anchor="end" dominant-baseline="middle">hello</text>
  <text x="60" y="205" fill="white" font-family="sans-serif" font-weight="bold" font-size="12" text-anchor="end" dominant-baseline="middle">ht</text>
  <text x="60" y="240" fill="white" font-family="sans-serif" font-weight="bold" font-size="12" text-anchor="end" dominant-baseline="middle">kmeans</text>
  <text x="60" y="275" fill="white" font-family="sans-serif" font-weight="bold" font-size="12" text-anchor="end" dominant-baseline="middle">lstm</text>
  <text x="80" y="80" fill="white" font-family="sans-serif" font-weight="bold" font-size="12" text-anchor="end" dominant-baseline="middle" transform="rotate(90 80 80)">adept</text>
  <text x="115" y="80" fill="white" font-family="sans-serif" font-weight="bold" font-size="12" text-anchor="end" dominant-baseline="middle" transform="rotate(90 115 80)">adol-c</text>
  <text x="150" y="80" fill="white" font-family="sans-serif" font-weight="bold" font-size="12" text-anchor="end" dominant-baseline="middle" transform="rotate(90 150 80)">codipack</text>
  <text x="185" y="80" fill="white" font-family="sans-serif" font-weight="bold" font-size="12" text-anchor="end" dominant-baseline="middle" transform="rotate(90 185 80)">cppad</text>
  <text x="220" y="80" fill="white" font-family="sans-serif" font-weight="bold" font-size="12" text-anchor="end" dominant-baseline="middle" transform="rotate(90 220 80)">enzyme</text>
  <text x="255" y="80" fill="white" font-family="sans-serif" font-weight="bold" font-size="12" text-anchor="end" dominant-baseline="middle" transform="rotate(90 255 80)">finite</text>
  <text x="290" y="80" fill="white" font-family="sans-serif" font-weight="bold" font-size="12" text-anchor="end" dominant-baseline="middle" transform="rotate(90 290 80)">floretta</text>
  <text x="325" y="80" fill="white" font-family="sans-serif" font-weight="bold" font-size="12" text-anchor="end" dominant-baseline="middle" transform="rotate(90 325 80)">futhark</text>
  <text x="360" y="80" fill="white" font-family="sans-serif" font-weight="bold" font-size="12" text-anchor="end" dominant-baseline="middle" transform="rotate(90 360 80)">haskell</text>
  <text x="395" y="80" fill="white" font-family="sans-serif" font-weight="bold" font-size="12" text-anchor="end" dominant-baseline="middle" transform="rotate(90 395 80)">jax</text>
  <text x="430" y="80" fill="white" font-family="sans-serif" font-weight="bold" font-size="12" text-anchor="end" dominant-baseline="middle" transform="rotate(90 430 80)">manual</text>
  <text x="465" y="80" fill="white" font-family="sans-serif" font-weight="bold" font-size="12" text-anchor="end" dominant-baseline="middle" transform="rotate(90 465 80)">ocaml</text>
  <text x="500" y="80" fill="white" font-family="sans-serif" font-weight="bold" font-size="12" text-anchor="end" dominant-baseline="middle" transform="rotate(90 500 80)">pytorch</text>
  <text x="535" y="80" fill="white" font-family="sans-serif" font-weight="bold" font-size="12" text-anchor="end" dominant-baseline="middle" transform="rotate(90 535 80)">scilean</text>
  <text x="570" y="80" fill="white" font-family="sans-serif" font-weight="bold" font-size="12" text-anchor="end" dominant-baseline="middle" transform="rotate(90 570 80)">tapenade</text>
  <text x="605" y="80" fill="white" font-family="sans-serif" font-weight="bold" font-size="12" text-anchor="end" dominant-baseline="middle" transform="rotate(90 605 80)">tensorflow</text>
  <text x="640" y="80" fill="white" font-family="sans-serif" font-weight="bold" font-size="12" text-anchor="end" dominant-baseline="middle" transform="rotate(90 640 80)">zygote</text>
  <rect x="65" y="85" width="30" height="30" fill="hsl(240 100% 84.26389121926755%)" />
  <rect x="100" y="85" width="30" height="30" fill="hsl(240 100% 98.00957340618739%)" />
  <rect x="135" y="85" width="30" height="30" fill="hsl(240 100% 89.56693950105154%)" />
  <rect x="205" y="85" width="30" height="30" fill="hsl(240 100% 50.091016383502634%)" />
  <rect x="240" y="85" width="30" height="30" fill="hsl(240 100% 91.92328823160942%)" />
  <rect x="310" y="85" width="30" height="30" fill="hsl(240 100% 75.5592292925496%)" />
  <rect x="415" y="85" width="30" height="30" fill="hsl(240 100% 50%)" />
  <rect x="485" y="85" width="30" height="30" fill="hsl(240 100% 99.99167664706029%)" />
  <rect x="555" y="85" width="30" height="30" fill="hsl(240 100% 73.55804334192962%)" />
  <rect x="590" y="85" width="30" height="30" fill="hsl(240 100% 99.98433349642615%)" />
  <rect x="65" y="120" width="30" height="30" fill="hsl(240 100% 96.80482817348066%)" />
  <rect x="100" y="120" width="30" height="30" fill="hsl(240 100% 97.3724900652689%)" />
  <rect x="135" y="120" width="30" height="30" fill="hsl(240 100% 94.46546444893696%)" />
  <rect x="170" y="120" width="30" height="30" fill="hsl(240 100% 98.19184859814662%)" />
  <rect x="205" y="120" width="30" height="30" fill="hsl(240 100% 83.58058832906693%)" />
  <rect x="240" y="120" width="30" height="30" fill="rgb(255 255 255 / 50%)" />
  <rect x="310" y="120" width="30" height="30" fill="hsl(240 100% 82.1982880270571%)" />
  <rect x="380" y="120" width="30" height="30" fill="hsl(240 100% 71.48412135149192%)" />
  <rect x="415" y="120" width="30" height="30" fill="hsl(240 100% 62.97562913623764%)" />
  <rect x="450" y="120" width="30" height="30" fill="hsl(240 100% 99.35146099878312%)" />
  <rect x="485" y="120" width="30" height="30" fill="hsl(240 100% 50%)" />
  <rect x="520" y="120" width="30" height="30" fill="hsl(240 100% 95.47710234973832%)" />
  <rect x="555" y="120" width="30" height="30" fill="hsl(240 100% 66.38850723374358%)" />
  <rect x="590" y="120" width="30" height="30" fill="hsl(240 100% 85.68350159133246%)" />
  <rect x="65" y="155" width="30" height="30" fill="hsl(240 100% 50%)" />
  <rect x="100" y="155" width="30" height="30" fill="hsl(240 100% 50%)" />
  <rect x="135" y="155" width="30" height="30" fill="hsl(240 100% 50%)" />
  <rect x="170" y="155" width="30" height="30" fill="hsl(240 100% 50%)" />
  <rect x="205" y="155" width="30" height="30" fill="hsl(240 100% 50%)" />
  <rect x="240" y="155" width="30" height="30" fill="hsl(240 100% 50%)" />
  <rect x="275" y="155" width="30" height="30" fill="hsl(240 100% 50%)" />
  <rect x="310" y="155" width="30" height="30" fill="hsl(240 100% 50%)" />
  <rect x="345" y="155" width="30" height="30" fill="hsl(240 100% 50%)" />
  <rect x="380" y="155" width="30" height="30" fill="hsl(240 100% 50%)" />
  <rect x="415" y="155" width="30" height="30" fill="hsl(240 100% 50%)" />
  <rect x="450" y="155" width="30" height="30" fill="hsl(240 100% 50%)" />
  <rect x="485" y="155" width="30" height="30" fill="hsl(240 100% 50%)" />
  <rect x="520" y="155" width="30" height="30" fill="hsl(240 100% 50%)" />
  <rect x="555" y="155" width="30" height="30" fill="hsl(240 100% 50%)" />
  <rect x="590" y="155" width="30" height="30" fill="hsl(240 100% 50%)" />
  <rect x="625" y="155" width="30" height="30" fill="hsl(240 100% 50%)" />
  <rect x="65" y="190" width="30" height="30" fill="hsl(240 100% 97.27301831053389%)" />
  <rect x="100" y="190" width="30" height="30" fill="hsl(240 100% 98.05968071660908%)" />
  <rect x="135" y="190" width="30" height="30" fill="hsl(240 100% 94.17044678372312%)" />
  <rect x="205" y="190" width="30" height="30" fill="hsl(240 100% 95.19416109341624%)" />
  <rect x="240" y="190" width="30" height="30" fill="hsl(240 100% 99.2083881779485%)" />
  <rect x="310" y="190" width="30" height="30" fill="hsl(240 100% 94.42831933630592%)" />
  <rect x="415" y="190" width="30" height="30" fill="hsl(240 100% 50%)" />
  <rect x="485" y="190" width="30" height="30" fill="hsl(240 100% 99.96967958259037%)" />
  <rect x="555" y="190" width="30" height="30" fill="hsl(240 100% 99.43881611232948%)" />
  <rect x="590" y="190" width="30" height="30" fill="hsl(240 100% 99.48531342673341%)" />
  <rect x="100" y="225" width="30" height="30" fill="hsl(240 100% 99.87865342208164%)" />
  <rect x="135" y="225" width="30" height="30" fill="hsl(240 100% 99.39832189406451%)" />
  <rect x="205" y="225" width="30" height="30" fill="hsl(240 100% 87.49585347138805%)" />
  <rect x="310" y="225" width="30" height="30" fill="hsl(240 100% 82.4416143276256%)" />
  <rect x="345" y="225" width="30" height="30" fill="hsl(240 100% 99.99159429894172%)" />
  <rect x="380" y="225" width="30" height="30" fill="hsl(240 100% 50%)" />
  <rect x="415" y="225" width="30" height="30" fill="hsl(240 100% 76.24371619890617%)" />
  <rect x="485" y="225" width="30" height="30" fill="hsl(240 100% 85.25054090788088%)" />
  <rect x="520" y="225" width="30" height="30" fill="hsl(240 100% 99.5313739328427%)" />
  <rect x="65" y="260" width="30" height="30" fill="hsl(240 100% 69.7005836452971%)" />
  <rect x="100" y="260" width="30" height="30" fill="hsl(240 100% 81.62513979604591%)" />
  <rect x="135" y="260" width="30" height="30" fill="hsl(240 100% 50%)" />
  <rect x="170" y="260" width="30" height="30" fill="hsl(240 100% 88.81719743964621%)" />
  <rect x="205" y="260" width="30" height="30" fill="hsl(240 100% 51.93680967279515%)" />
  <rect x="240" y="260" width="30" height="30" fill="hsl(240 100% 99.80463084606261%)" />
  <rect x="310" y="260" width="30" height="30" fill="hsl(240 100% 64.21314676351057%)" />
  <rect x="415" y="260" width="30" height="30" fill="hsl(240 100% 79.78127861069808%)" />
  <rect x="485" y="260" width="30" height="30" fill="hsl(240 100% 99.66689833906628%)" />
  <rect x="520" y="260" width="30" height="30" fill="hsl(240 100% 96.13974524299203%)" />
  <rect x="555" y="260" width="30" height="30" fill="hsl(240 100% 60.81950388668323%)" />
  <rect x="590" y="260" width="30" height="30" fill="hsl(240 100% 98.13093586483518%)" />
</svg>
