<svg xmlns="http://www.w3.org/2000/svg" viewBox="0 0 870 505">
  <rect x="0" y="0" width="870" height="505" rx="5" ry="5" fill="#222" />
  <text x="60" y="100" fill="white" font-family="sans-serif" font-weight="bold" font-size="12" text-anchor="end" dominant-baseline="middle">ba</text>
  <text x="60" y="135" fill="white" font-family="sans-serif" font-weight="bold" font-size="12" text-anchor="end" dominant-baseline="middle">det</text>
  <text x="60" y="170" fill="white" font-family="sans-serif" font-weight="bold" font-size="12" text-anchor="end" dominant-baseline="middle">gmm</text>
  <text x="60" y="205" fill="white" font-family="sans-serif" font-weight="bold" font-size="12" text-anchor="end" dominant-baseline="middle">hello</text>
  <text x="60" y="240" fill="white" font-family="sans-serif" font-weight="bold" font-size="12" text-anchor="end" dominant-baseline="middle">ht</text>
  <text x="60" y="275" fill="white" font-family="sans-serif" font-weight="bold" font-size="12" text-anchor="end" dominant-baseline="middle">kmeans</text>
  <text x="60" y="310" fill="white" font-family="sans-serif" font-weight="bold" font-size="12" text-anchor="end" dominant-baseline="middle">llsq</text>
  <text x="60" y="345" fill="white" font-family="sans-serif" font-weight="bold" font-size="12" text-anchor="end" dominant-baseline="middle">lse</text>
  <text x="60" y="380" fill="white" font-family="sans-serif" font-weight="bold" font-size="12" text-anchor="end" dominant-baseline="middle">lstm</text>
  <text x="60" y="415" fill="white" font-family="sans-serif" font-weight="bold" font-size="12" text-anchor="end" dominant-baseline="middle">ode</text>
  <text x="60" y="450" fill="white" font-family="sans-serif" font-weight="bold" font-size="12" text-anchor="end" dominant-baseline="middle">particle</text>
  <text x="60" y="485" fill="white" font-family="sans-serif" font-weight="bold" font-size="12" text-anchor="end" dominant-baseline="middle">saddle</text>
  <text x="80" y="80" fill="white" font-family="sans-serif" font-weight="bold" font-size="12" text-anchor="end" dominant-baseline="middle" transform="rotate(90 80 80)">ad-hpp</text>
  <text x="115" y="80" fill="white" font-family="sans-serif" font-weight="bold" font-size="12" text-anchor="end" dominant-baseline="middle" transform="rotate(90 115 80)">adept</text>
  <text x="150" y="80" fill="white" font-family="sans-serif" font-weight="bold" font-size="12" text-anchor="end" dominant-baseline="middle" transform="rotate(90 150 80)">adol-c</text>
  <text x="185" y="80" fill="white" font-family="sans-serif" font-weight="bold" font-size="12" text-anchor="end" dominant-baseline="middle" transform="rotate(90 185 80)">codipack</text>
  <text x="220" y="80" fill="white" font-family="sans-serif" font-weight="bold" font-size="12" text-anchor="end" dominant-baseline="middle" transform="rotate(90 220 80)">cppad</text>
  <text x="255" y="80" fill="white" font-family="sans-serif" font-weight="bold" font-size="12" text-anchor="end" dominant-baseline="middle" transform="rotate(90 255 80)">enzyme</text>
  <text x="290" y="80" fill="white" font-family="sans-serif" font-weight="bold" font-size="12" text-anchor="end" dominant-baseline="middle" transform="rotate(90 290 80)">enzyme-jl</text>
  <text x="325" y="80" fill="white" font-family="sans-serif" font-weight="bold" font-size="12" text-anchor="end" dominant-baseline="middle" transform="rotate(90 325 80)">finite</text>
  <text x="360" y="80" fill="white" font-family="sans-serif" font-weight="bold" font-size="12" text-anchor="end" dominant-baseline="middle" transform="rotate(90 360 80)">floretta</text>
  <text x="395" y="80" fill="white" font-family="sans-serif" font-weight="bold" font-size="12" text-anchor="end" dominant-baseline="middle" transform="rotate(90 395 80)">forwarddiff-jl</text>
  <text x="430" y="80" fill="white" font-family="sans-serif" font-weight="bold" font-size="12" text-anchor="end" dominant-baseline="middle" transform="rotate(90 430 80)">futhark</text>
  <text x="465" y="80" fill="white" font-family="sans-serif" font-weight="bold" font-size="12" text-anchor="end" dominant-baseline="middle" transform="rotate(90 465 80)">haskell</text>
  <text x="500" y="80" fill="white" font-family="sans-serif" font-weight="bold" font-size="12" text-anchor="end" dominant-baseline="middle" transform="rotate(90 500 80)">jax</text>
  <text x="535" y="80" fill="white" font-family="sans-serif" font-weight="bold" font-size="12" text-anchor="end" dominant-baseline="middle" transform="rotate(90 535 80)">manual</text>
  <text x="570" y="80" fill="white" font-family="sans-serif" font-weight="bold" font-size="12" text-anchor="end" dominant-baseline="middle" transform="rotate(90 570 80)">mooncake-jl</text>
  <text x="605" y="80" fill="white" font-family="sans-serif" font-weight="bold" font-size="12" text-anchor="end" dominant-baseline="middle" transform="rotate(90 605 80)">ocaml</text>
  <text x="640" y="80" fill="white" font-family="sans-serif" font-weight="bold" font-size="12" text-anchor="end" dominant-baseline="middle" transform="rotate(90 640 80)">pytorch</text>
  <text x="675" y="80" fill="white" font-family="sans-serif" font-weight="bold" font-size="12" text-anchor="end" dominant-baseline="middle" transform="rotate(90 675 80)">reversediff-jl</text>
  <text x="710" y="80" fill="white" font-family="sans-serif" font-weight="bold" font-size="12" text-anchor="end" dominant-baseline="middle" transform="rotate(90 710 80)">scilean</text>
  <text x="745" y="80" fill="white" font-family="sans-serif" font-weight="bold" font-size="12" text-anchor="end" dominant-baseline="middle" transform="rotate(90 745 80)">tapenade</text>
  <text x="780" y="80" fill="white" font-family="sans-serif" font-weight="bold" font-size="12" text-anchor="end" dominant-baseline="middle" transform="rotate(90 780 80)">tensorflow</text>
  <text x="815" y="80" fill="white" font-family="sans-serif" font-weight="bold" font-size="12" text-anchor="end" dominant-baseline="middle" transform="rotate(90 815 80)">tensorflow-js</text>
  <text x="850" y="80" fill="white" font-family="sans-serif" font-weight="bold" font-size="12" text-anchor="end" dominant-baseline="middle" transform="rotate(90 850 80)">zygote</text>
  <rect x="65" y="85" width="30" height="30" fill="hsl(240 100% 80.80443141906403%)" />
  <rect x="100" y="85" width="30" height="30" fill="hsl(240 100% 82.400306987665%)" />
  <rect x="135" y="85" width="30" height="30" fill="hsl(240 100% 97.92803341347708%)" />
  <rect x="170" y="85" width="30" height="30" fill="hsl(240 100% 82.18842868668126%)" />
  <rect x="205" y="85" width="30" height="30" fill="hsl(240 100% 98.93991152027102%)" />
  <rect x="240" y="85" width="30" height="30" fill="hsl(240 100% 50%)" />
  <rect x="310" y="85" width="30" height="30" fill="hsl(240 100% 92.92183664803517%)" />
  <rect x="415" y="85" width="30" height="30" fill="hsl(240 100% 67.06826400258676%)" />
  <rect x="520" y="85" width="30" height="30" fill="hsl(240 100% 54.80239274587775%)" />
  <rect x="625" y="85" width="30" height="30" fill="rgb(255 255 255 / 50%)" />
  <rect x="730" y="85" width="30" height="30" fill="hsl(240 100% 74.04894208336049%)" />
  <rect x="765" y="85" width="30" height="30" fill="rgb(255 255 255 / 50%)" />
  <rect x="835" y="85" width="30" height="30" fill="hsl(240 100% 99.72527528254112%)" />
  <rect x="65" y="120" width="30" height="30" fill="hsl(240 100% 50%)" />
  <rect x="100" y="120" width="30" height="30" fill="hsl(240 100% 83.27954742607244%)" />
  <rect x="135" y="120" width="30" height="30" fill="hsl(240 100% 85.64675579337953%)" />
  <rect x="170" y="120" width="30" height="30" fill="hsl(240 100% 52.547253820937925%)" />
  <rect x="205" y="120" width="30" height="30" fill="hsl(240 100% 92.68500289901962%)" />
  <rect x="240" y="120" width="30" height="30" fill="hsl(240 100% 91.55581550860738%)" />
  <rect x="275" y="120" width="30" height="30" fill="hsl(240 100% 99.3705944903342%)" />
  <rect x="310" y="120" width="30" height="30" fill="hsl(240 100% 99.14961573641777%)" />
  <rect x="380" y="120" width="30" height="30" fill="hsl(240 100% 93.40356602764986%)" />
  <rect x="415" y="120" width="30" height="30" fill="hsl(240 100% 94.7148648540195%)" />
  <rect x="450" y="120" width="30" height="30" fill="hsl(240 100% 97.91150832038778%)" />
  <rect x="520" y="120" width="30" height="30" fill="hsl(240 100% 79.85997182587546%)" />
  <rect x="555" y="120" width="30" height="30" fill="hsl(240 100% 91.46084994197884%)" />
  <rect x="660" y="120" width="30" height="30" fill="rgb(255 255 255 / 50%)" />
  <rect x="835" y="120" width="30" height="30" fill="rgb(255 255 255 / 50%)" />
  <rect x="65" y="155" width="30" height="30" fill="hsl(240 100% 98.61304648938325%)" />
  <rect x="100" y="155" width="30" height="30" fill="hsl(240 100% 98.81657036332413%)" />
  <rect x="135" y="155" width="30" height="30" fill="hsl(240 100% 99.12502716871977%)" />
  <rect x="170" y="155" width="30" height="30" fill="hsl(240 100% 98.02188033773655%)" />
  <rect x="205" y="155" width="30" height="30" fill="hsl(240 100% 99.85143464154345%)" />
  <rect x="240" y="155" width="30" height="30" fill="hsl(240 100% 91.26353365947091%)" />
  <rect x="275" y="155" width="30" height="30" fill="hsl(240 100% 92.69744101747432%)" />
  <rect x="310" y="155" width="30" height="30" fill="rgb(255 255 255 / 50%)" />
  <rect x="415" y="155" width="30" height="30" fill="hsl(240 100% 93.0365615955829%)" />
  <rect x="485" y="155" width="30" height="30" fill="hsl(240 100% 50%)" />
  <rect x="520" y="155" width="30" height="30" fill="hsl(240 100% 81.02857090868669%)" />
  <rect x="590" y="155" width="30" height="30" fill="hsl(240 100% 99.60922408800732%)" />
  <rect x="625" y="155" width="30" height="30" fill="hsl(240 100% 67.869868529547%)" />
  <rect x="695" y="155" width="30" height="30" fill="hsl(240 100% 95.49087469065805%)" />
  <rect x="730" y="155" width="30" height="30" fill="hsl(240 100% 83.90492351137789%)" />
  <rect x="765" y="155" width="30" height="30" fill="hsl(240 100% 99.58155857080273%)" />
  <rect x="835" y="155" width="30" height="30" fill="hsl(240 100% 96.09016409095413%)" />
  <rect x="65" y="190" width="30" height="30" fill="hsl(240 100% 50%)" />
  <rect x="100" y="190" width="30" height="30" fill="hsl(240 100% 50%)" />
  <rect x="135" y="190" width="30" height="30" fill="hsl(240 100% 50%)" />
  <rect x="170" y="190" width="30" height="30" fill="hsl(240 100% 50%)" />
  <rect x="205" y="190" width="30" height="30" fill="hsl(240 100% 50%)" />
  <rect x="240" y="190" width="30" height="30" fill="hsl(240 100% 50%)" />
  <rect x="275" y="190" width="30" height="30" fill="hsl(240 100% 50%)" />
  <rect x="310" y="190" width="30" height="30" fill="hsl(240 100% 50%)" />
  <rect x="345" y="190" width="30" height="30" fill="hsl(240 100% 50%)" />
  <rect x="380" y="190" width="30" height="30" fill="hsl(240 100% 50%)" />
  <rect x="415" y="190" width="30" height="30" fill="hsl(240 100% 50%)" />
  <rect x="450" y="190" width="30" height="30" fill="hsl(240 100% 50%)" />
  <rect x="485" y="190" width="30" height="30" fill="hsl(240 100% 50%)" />
  <rect x="520" y="190" width="30" height="30" fill="hsl(240 100% 50%)" />
  <rect x="555" y="190" width="30" height="30" fill="hsl(240 100% 50%)" />
  <rect x="590" y="190" width="30" height="30" fill="hsl(240 100% 50%)" />
  <rect x="625" y="190" width="30" height="30" fill="hsl(240 100% 50%)" />
  <rect x="660" y="190" width="30" height="30" fill="hsl(240 100% 50%)" />
  <rect x="695" y="190" width="30" height="30" fill="hsl(240 100% 50%)" />
  <rect x="730" y="190" width="30" height="30" fill="hsl(240 100% 50%)" />
  <rect x="765" y="190" width="30" height="30" fill="hsl(240 100% 50%)" />
  <rect x="800" y="190" width="30" height="30" fill="hsl(240 100% 50%)" />
  <rect x="835" y="190" width="30" height="30" fill="hsl(240 100% 50%)" />
  <rect x="100" y="225" width="30" height="30" fill="hsl(240 100% 96.38157444734816%)" />
  <rect x="135" y="225" width="30" height="30" fill="hsl(240 100% 86.78107314645831%)" />
  <rect x="170" y="225" width="30" height="30" fill="hsl(240 100% 88.2123966292344%)" />
  <rect x="240" y="225" width="30" height="30" fill="hsl(240 100% 90.6165189486567%)" />
  <rect x="310" y="225" width="30" height="30" fill="rgb(255 255 255 / 50%)" />
  <rect x="415" y="225" width="30" height="30" fill="hsl(240 100% 89.71106468830826%)" />
  <rect x="520" y="225" width="30" height="30" fill="hsl(240 100% 50%)" />
  <rect x="625" y="225" width="30" height="30" fill="rgb(255 255 255 / 50%)" />
  <rect x="730" y="225" width="30" height="30" fill="hsl(240 100% 92.54342487898444%)" />
  <rect x="765" y="225" width="30" height="30" fill="rgb(255 255 255 / 50%)" />
  <rect x="835" y="225" width="30" height="30" fill="hsl(240 100% 94.17690845951567%)" />
  <rect x="65" y="260" width="30" height="30" fill="hsl(240 100% 99.83077162049656%)" />
  <rect x="135" y="260" width="30" height="30" fill="hsl(240 100% 99.8559636159374%)" />
  <rect x="170" y="260" width="30" height="30" fill="hsl(240 100% 98.92248597780777%)" />
  <rect x="205" y="260" width="30" height="30" fill="rgb(255 255 255 / 50%)" />
  <rect x="240" y="260" width="30" height="30" fill="hsl(240 100% 86.9121252637428%)" />
  <rect x="310" y="260" width="30" height="30" fill="rgb(255 255 255 / 50%)" />
  <rect x="415" y="260" width="30" height="30" fill="hsl(240 100% 80.686118002843%)" />
  <rect x="450" y="260" width="30" height="30" fill="rgb(255 255 255 / 50%)" />
  <rect x="485" y="260" width="30" height="30" fill="hsl(240 100% 50%)" />
  <rect x="520" y="260" width="30" height="30" fill="hsl(240 100% 72.09562711444244%)" />
  <rect x="625" y="260" width="30" height="30" fill="hsl(240 100% 97.04997000277808%)" />
  <rect x="695" y="260" width="30" height="30" fill="hsl(240 100% 94.06243899843139%)" />
  <rect x="65" y="295" width="30" height="30" fill="hsl(240 100% 85.99546017503769%)" />
  <rect x="100" y="295" width="30" height="30" fill="hsl(240 100% 97.49887903629512%)" />
  <rect x="135" y="295" width="30" height="30" fill="hsl(240 100% 95.1355031553564%)" />
  <rect x="170" y="295" width="30" height="30" fill="hsl(240 100% 89.30315348737132%)" />
  <rect x="205" y="295" width="30" height="30" fill="hsl(240 100% 99.48572471229433%)" />
  <rect x="240" y="295" width="30" height="30" fill="hsl(240 100% 50.62076128168366%)" />
  <rect x="275" y="295" width="30" height="30" fill="hsl(240 100% 50%)" />
  <rect x="310" y="295" width="30" height="30" fill="hsl(240 100% 99.49985784412637%)" />
  <rect x="345" y="295" width="30" height="30" fill="hsl(240 100% 94.76973536216754%)" />
  <rect x="415" y="295" width="30" height="30" fill="hsl(240 100% 55.381176121072784%)" />
  <rect x="450" y="295" width="30" height="30" fill="hsl(240 100% 99.32204978669067%)" />
  <rect x="485" y="295" width="30" height="30" fill="hsl(240 100% 88.63448233200944%)" />
  <rect x="520" y="295" width="30" height="30" fill="hsl(240 100% 57.892396457871996%)" />
  <rect x="695" y="295" width="30" height="30" fill="hsl(240 100% 97.6095832985693%)" />
  <rect x="800" y="295" width="30" height="30" fill="hsl(240 100% 99.57347903749185%)" />
  <rect x="835" y="295" width="30" height="30" fill="hsl(240 100% 99.95317755388729%)" />
  <rect x="65" y="330" width="30" height="30" fill="hsl(240 100% 87.87143712130059%)" />
  <rect x="100" y="330" width="30" height="30" fill="hsl(240 100% 94.47280621792743%)" />
  <rect x="135" y="330" width="30" height="30" fill="hsl(240 100% 97.0871810100896%)" />
  <rect x="170" y="330" width="30" height="30" fill="hsl(240 100% 87.37935521286461%)" />
  <rect x="205" y="330" width="30" height="30" fill="hsl(240 100% 99.23224242313557%)" />
  <rect x="240" y="330" width="30" height="30" fill="hsl(240 100% 79.98258940486946%)" />
  <rect x="275" y="330" width="30" height="30" fill="hsl(240 100% 88.11464303520823%)" />
  <rect x="310" y="330" width="30" height="30" fill="rgb(255 255 255 / 50%)" />
  <rect x="345" y="330" width="30" height="30" fill="hsl(240 100% 97.31025913533101%)" />
  <rect x="415" y="330" width="30" height="30" fill="hsl(240 100% 86.39787809600145%)" />
  <rect x="450" y="330" width="30" height="30" fill="hsl(240 100% 99.81656159528731%)" />
  <rect x="485" y="330" width="30" height="30" fill="hsl(240 100% 72.41042828809556%)" />
  <rect x="520" y="330" width="30" height="30" fill="hsl(240 100% 71.73044121377343%)" />
  <rect x="590" y="330" width="30" height="30" fill="hsl(240 100% 94.05893105862084%)" />
  <rect x="625" y="330" width="30" height="30" fill="hsl(240 100% 50%)" />
  <rect x="765" y="330" width="30" height="30" fill="hsl(240 100% 95.38144640499533%)" />
  <rect x="800" y="330" width="30" height="30" fill="hsl(240 100% 99.27558367272849%)" />
  <rect x="835" y="330" width="30" height="30" fill="hsl(240 100% 81.37812563484518%)" />
  <rect x="65" y="365" width="30" height="30" fill="hsl(240 100% 57.15595012106088%)" />
  <rect x="100" y="365" width="30" height="30" fill="hsl(240 100% 71.08860421344417%)" />
  <rect x="135" y="365" width="30" height="30" fill="hsl(240 100% 81.6274776939553%)" />
  <rect x="170" y="365" width="30" height="30" fill="hsl(240 100% 50%)" />
  <rect x="205" y="365" width="30" height="30" fill="hsl(240 100% 96.04196640034834%)" />
  <rect x="240" y="365" width="30" height="30" fill="hsl(240 100% 58.35846901162663%)" />
  <rect x="275" y="365" width="30" height="30" fill="hsl(240 100% 92.17258489968911%)" />
  <rect x="310" y="365" width="30" height="30" fill="hsl(240 100% 99.86090320623661%)" />
  <rect x="415" y="365" width="30" height="30" fill="hsl(240 100% 66.33934438592861%)" />
  <rect x="520" y="365" width="30" height="30" fill="hsl(240 100% 86.02464798335862%)" />
  <rect x="625" y="365" width="30" height="30" fill="hsl(240 100% 99.63496020337124%)" />
  <rect x="730" y="365" width="30" height="30" fill="hsl(240 100% 63.85528757170288%)" />
  <rect x="765" y="365" width="30" height="30" fill="hsl(240 100% 98.11786225017255%)" />
  <rect x="835" y="365" width="30" height="30" fill="hsl(240 100% 98.74573251674175%)" />
  <rect x="65" y="400" width="30" height="30" fill="hsl(240 100% 98.12612716669551%)" />
  <rect x="100" y="400" width="30" height="30" fill="hsl(240 100% 99.43060237204749%)" />
  <rect x="135" y="400" width="30" height="30" fill="hsl(240 100% 99.66615263188383%)" />
  <rect x="170" y="400" width="30" height="30" fill="hsl(240 100% 94.04685172279801%)" />
  <rect x="205" y="400" width="30" height="30" fill="hsl(240 100% 99.24670569043909%)" />
  <rect x="240" y="400" width="30" height="30" fill="hsl(240 100% 87.68086816775013%)" />
  <rect x="275" y="400" width="30" height="30" fill="hsl(240 100% 95.36102876875435%)" />
  <rect x="310" y="400" width="30" height="30" fill="rgb(255 255 255 / 50%)" />
  <rect x="380" y="400" width="30" height="30" fill="rgb(255 255 255 / 50%)" />
  <rect x="415" y="400" width="30" height="30" fill="hsl(240 100% 94.03758052137479%)" />
  <rect x="450" y="400" width="30" height="30" fill="hsl(240 100% 99.97488117843821%)" />
  <rect x="485" y="400" width="30" height="30" fill="hsl(240 100% 78.98992325921338%)" />
  <rect x="520" y="400" width="30" height="30" fill="hsl(240 100% 50%)" />
  <rect x="555" y="400" width="30" height="30" fill="hsl(240 100% 99.13506623517075%)" />
  <rect x="660" y="400" width="30" height="30" fill="rgb(255 255 255 / 50%)" />
  <rect x="835" y="400" width="30" height="30" fill="hsl(240 100% 99.2570392129319%)" />
  <rect x="65" y="435" width="30" height="30" fill="hsl(240 100% 93.29533469027102%)" />
  <rect x="240" y="435" width="30" height="30" fill="hsl(240 100% 50%)" />
  <rect x="310" y="435" width="30" height="30" fill="hsl(240 100% 93.85910082328016%)" />
  <rect x="415" y="435" width="30" height="30" fill="hsl(240 100% 87.02168122743059%)" />
  <rect x="450" y="435" width="30" height="30" fill="hsl(240 100% 99.78047936241845%)" />
  <rect x="65" y="470" width="30" height="30" fill="hsl(240 100% 50%)" />
  <rect x="240" y="470" width="30" height="30" fill="hsl(240 100% 50.223348588467324%)" />
  <rect x="310" y="470" width="30" height="30" fill="hsl(240 100% 96.96813011586296%)" />
  <rect x="415" y="470" width="30" height="30" fill="hsl(240 100% 89.11045358879252%)" />
  <rect x="450" y="470" width="30" height="30" fill="hsl(240 100% 99.56672762644452%)" />
</svg>
