<svg xmlns="http://www.w3.org/2000/svg" viewBox="0 0 730 505">
  <rect x="0" y="0" width="730" height="505" rx="5" ry="5" fill="#222" />
  <text x="60" y="100" fill="white" font-family="sans-serif" font-weight="bold" font-size="12" text-anchor="end" dominant-baseline="middle">ba</text>
  <text x="60" y="135" fill="white" font-family="sans-serif" font-weight="bold" font-size="12" text-anchor="end" dominant-baseline="middle">det</text>
  <text x="60" y="170" fill="white" font-family="sans-serif" font-weight="bold" font-size="12" text-anchor="end" dominant-baseline="middle">gmm</text>
  <text x="60" y="205" fill="white" font-family="sans-serif" font-weight="bold" font-size="12" text-anchor="end" dominant-baseline="middle">hello</text>
  <text x="60" y="240" fill="white" font-family="sans-serif" font-weight="bold" font-size="12" text-anchor="end" dominant-baseline="middle">ht</text>
  <text x="60" y="275" fill="white" font-family="sans-serif" font-weight="bold" font-size="12" text-anchor="end" dominant-baseline="middle">kmeans</text>
  <text x="60" y="310" fill="white" font-family="sans-serif" font-weight="bold" font-size="12" text-anchor="end" dominant-baseline="middle">llsq</text>
  <text x="60" y="345" fill="white" font-family="sans-serif" font-weight="bold" font-size="12" text-anchor="end" dominant-baseline="middle">lse</text>
  <text x="60" y="380" fill="white" font-family="sans-serif" font-weight="bold" font-size="12" text-anchor="end" dominant-baseline="middle">lstm</text>
  <text x="60" y="415" fill="white" font-family="sans-serif" font-weight="bold" font-size="12" text-anchor="end" dominant-baseline="middle">ode</text>
  <text x="60" y="450" fill="white" font-family="sans-serif" font-weight="bold" font-size="12" text-anchor="end" dominant-baseline="middle">particle</text>
  <text x="60" y="485" fill="white" font-family="sans-serif" font-weight="bold" font-size="12" text-anchor="end" dominant-baseline="middle">saddle</text>
  <text x="80" y="80" fill="white" font-family="sans-serif" font-weight="bold" font-size="12" text-anchor="end" dominant-baseline="middle" transform="rotate(90 80 80)">ad-hpp</text>
  <text x="115" y="80" fill="white" font-family="sans-serif" font-weight="bold" font-size="12" text-anchor="end" dominant-baseline="middle" transform="rotate(90 115 80)">adept</text>
  <text x="150" y="80" fill="white" font-family="sans-serif" font-weight="bold" font-size="12" text-anchor="end" dominant-baseline="middle" transform="rotate(90 150 80)">adol-c</text>
  <text x="185" y="80" fill="white" font-family="sans-serif" font-weight="bold" font-size="12" text-anchor="end" dominant-baseline="middle" transform="rotate(90 185 80)">codipack</text>
  <text x="220" y="80" fill="white" font-family="sans-serif" font-weight="bold" font-size="12" text-anchor="end" dominant-baseline="middle" transform="rotate(90 220 80)">cppad</text>
  <text x="255" y="80" fill="white" font-family="sans-serif" font-weight="bold" font-size="12" text-anchor="end" dominant-baseline="middle" transform="rotate(90 255 80)">enzyme</text>
  <text x="290" y="80" fill="white" font-family="sans-serif" font-weight="bold" font-size="12" text-anchor="end" dominant-baseline="middle" transform="rotate(90 290 80)">enzyme-jl</text>
  <text x="325" y="80" fill="white" font-family="sans-serif" font-weight="bold" font-size="12" text-anchor="end" dominant-baseline="middle" transform="rotate(90 325 80)">finite</text>
  <text x="360" y="80" fill="white" font-family="sans-serif" font-weight="bold" font-size="12" text-anchor="end" dominant-baseline="middle" transform="rotate(90 360 80)">floretta</text>
  <text x="395" y="80" fill="white" font-family="sans-serif" font-weight="bold" font-size="12" text-anchor="end" dominant-baseline="middle" transform="rotate(90 395 80)">futhark</text>
  <text x="430" y="80" fill="white" font-family="sans-serif" font-weight="bold" font-size="12" text-anchor="end" dominant-baseline="middle" transform="rotate(90 430 80)">haskell</text>
  <text x="465" y="80" fill="white" font-family="sans-serif" font-weight="bold" font-size="12" text-anchor="end" dominant-baseline="middle" transform="rotate(90 465 80)">jax</text>
  <text x="500" y="80" fill="white" font-family="sans-serif" font-weight="bold" font-size="12" text-anchor="end" dominant-baseline="middle" transform="rotate(90 500 80)">manual</text>
  <text x="535" y="80" fill="white" font-family="sans-serif" font-weight="bold" font-size="12" text-anchor="end" dominant-baseline="middle" transform="rotate(90 535 80)">ocaml</text>
  <text x="570" y="80" fill="white" font-family="sans-serif" font-weight="bold" font-size="12" text-anchor="end" dominant-baseline="middle" transform="rotate(90 570 80)">pytorch</text>
  <text x="605" y="80" fill="white" font-family="sans-serif" font-weight="bold" font-size="12" text-anchor="end" dominant-baseline="middle" transform="rotate(90 605 80)">scilean</text>
  <text x="640" y="80" fill="white" font-family="sans-serif" font-weight="bold" font-size="12" text-anchor="end" dominant-baseline="middle" transform="rotate(90 640 80)">tapenade</text>
  <text x="675" y="80" fill="white" font-family="sans-serif" font-weight="bold" font-size="12" text-anchor="end" dominant-baseline="middle" transform="rotate(90 675 80)">tensorflow</text>
  <text x="710" y="80" fill="white" font-family="sans-serif" font-weight="bold" font-size="12" text-anchor="end" dominant-baseline="middle" transform="rotate(90 710 80)">zygote</text>
  <rect x="65" y="85" width="30" height="30" fill="hsl(240 100% 80.3939248127408%)" />
  <rect x="100" y="85" width="30" height="30" fill="hsl(240 100% 82.90567527111024%)" />
  <rect x="135" y="85" width="30" height="30" fill="hsl(240 100% 98.00133749051577%)" />
  <rect x="170" y="85" width="30" height="30" fill="hsl(240 100% 82.42765757355053%)" />
  <rect x="205" y="85" width="30" height="30" fill="hsl(240 100% 99.01106077521436%)" />
  <rect x="240" y="85" width="30" height="30" fill="hsl(240 100% 51.795101634437174%)" />
  <rect x="310" y="85" width="30" height="30" fill="hsl(240 100% 92.92336020634716%)" />
  <rect x="380" y="85" width="30" height="30" fill="hsl(240 100% 68.31687422784164%)" />
  <rect x="485" y="85" width="30" height="30" fill="hsl(240 100% 50%)" />
  <rect x="555" y="85" width="30" height="30" fill="rgb(255 255 255 / 50%)" />
  <rect x="625" y="85" width="30" height="30" fill="hsl(240 100% 75.28860507172259%)" />
  <rect x="660" y="85" width="30" height="30" fill="rgb(255 255 255 / 50%)" />
  <rect x="695" y="85" width="30" height="30" fill="hsl(240 100% 99.73088404731098%)" />
  <rect x="65" y="120" width="30" height="30" fill="hsl(240 100% 50%)" />
  <rect x="100" y="120" width="30" height="30" fill="hsl(240 100% 84.35638113352131%)" />
  <rect x="135" y="120" width="30" height="30" fill="hsl(240 100% 85.82711590706532%)" />
  <rect x="170" y="120" width="30" height="30" fill="hsl(240 100% 52.02760527718106%)" />
  <rect x="205" y="120" width="30" height="30" fill="hsl(240 100% 92.52445844651523%)" />
  <rect x="240" y="120" width="30" height="30" fill="hsl(240 100% 91.70933857077195%)" />
  <rect x="275" y="120" width="30" height="30" fill="hsl(240 100% 99.26150946995655%)" />
  <rect x="310" y="120" width="30" height="30" fill="hsl(240 100% 98.9793543361163%)" />
  <rect x="380" y="120" width="30" height="30" fill="hsl(240 100% 94.57981904912464%)" />
  <rect x="415" y="120" width="30" height="30" fill="hsl(240 100% 98.01743744299061%)" />
  <rect x="485" y="120" width="30" height="30" fill="hsl(240 100% 79.57491167958342%)" />
  <rect x="695" y="120" width="30" height="30" fill="rgb(255 255 255 / 50%)" />
  <rect x="65" y="155" width="30" height="30" fill="hsl(240 100% 97.14538967835624%)" />
  <rect x="100" y="155" width="30" height="30" fill="hsl(240 100% 98.24949024232987%)" />
  <rect x="135" y="155" width="30" height="30" fill="hsl(240 100% 98.93445353380348%)" />
  <rect x="170" y="155" width="30" height="30" fill="hsl(240 100% 97.25061505313326%)" />
  <rect x="205" y="155" width="30" height="30" fill="hsl(240 100% 99.78136445117255%)" />
  <rect x="240" y="155" width="30" height="30" fill="hsl(240 100% 86.54302678244652%)" />
  <rect x="275" y="155" width="30" height="30" fill="hsl(240 100% 99.82842819161193%)" />
  <rect x="310" y="155" width="30" height="30" fill="rgb(255 255 255 / 50%)" />
  <rect x="380" y="155" width="30" height="30" fill="hsl(240 100% 89.13350557388257%)" />
  <rect x="450" y="155" width="30" height="30" fill="hsl(240 100% 70.61144058706154%)" />
  <rect x="485" y="155" width="30" height="30" fill="hsl(240 100% 71.95615834430146%)" />
  <rect x="520" y="155" width="30" height="30" fill="hsl(240 100% 99.35349996631548%)" />
  <rect x="555" y="155" width="30" height="30" fill="hsl(240 100% 50%)" />
  <rect x="590" y="155" width="30" height="30" fill="hsl(240 100% 92.50372295607124%)" />
  <rect x="625" y="155" width="30" height="30" fill="hsl(240 100% 75.70289992787798%)" />
  <rect x="660" y="155" width="30" height="30" fill="hsl(240 100% 88.82240065062541%)" />
  <rect x="695" y="155" width="30" height="30" fill="hsl(240 100% 99.33203029468447%)" />
  <rect x="65" y="190" width="30" height="30" fill="hsl(240 100% 50%)" />
  <rect x="100" y="190" width="30" height="30" fill="hsl(240 100% 50%)" />
  <rect x="135" y="190" width="30" height="30" fill="hsl(240 100% 50%)" />
  <rect x="170" y="190" width="30" height="30" fill="hsl(240 100% 50%)" />
  <rect x="205" y="190" width="30" height="30" fill="hsl(240 100% 50%)" />
  <rect x="240" y="190" width="30" height="30" fill="hsl(240 100% 50%)" />
  <rect x="275" y="190" width="30" height="30" fill="hsl(240 100% 50%)" />
  <rect x="310" y="190" width="30" height="30" fill="hsl(240 100% 50%)" />
  <rect x="345" y="190" width="30" height="30" fill="hsl(240 100% 50%)" />
  <rect x="380" y="190" width="30" height="30" fill="hsl(240 100% 50%)" />
  <rect x="415" y="190" width="30" height="30" fill="hsl(240 100% 50%)" />
  <rect x="450" y="190" width="30" height="30" fill="hsl(240 100% 50%)" />
  <rect x="485" y="190" width="30" height="30" fill="hsl(240 100% 50%)" />
  <rect x="520" y="190" width="30" height="30" fill="hsl(240 100% 50%)" />
  <rect x="555" y="190" width="30" height="30" fill="hsl(240 100% 50%)" />
  <rect x="590" y="190" width="30" height="30" fill="hsl(240 100% 50%)" />
  <rect x="625" y="190" width="30" height="30" fill="hsl(240 100% 50%)" />
  <rect x="660" y="190" width="30" height="30" fill="hsl(240 100% 50%)" />
  <rect x="695" y="190" width="30" height="30" fill="hsl(240 100% 50%)" />
  <rect x="100" y="225" width="30" height="30" fill="hsl(240 100% 96.32132283534938%)" />
  <rect x="135" y="225" width="30" height="30" fill="hsl(240 100% 90.58800805315396%)" />
  <rect x="170" y="225" width="30" height="30" fill="hsl(240 100% 89.32154528510098%)" />
  <rect x="240" y="225" width="30" height="30" fill="hsl(240 100% 91.10989248650863%)" />
  <rect x="310" y="225" width="30" height="30" fill="rgb(255 255 255 / 50%)" />
  <rect x="380" y="225" width="30" height="30" fill="hsl(240 100% 90.61884167744378%)" />
  <rect x="485" y="225" width="30" height="30" fill="hsl(240 100% 50%)" />
  <rect x="555" y="225" width="30" height="30" fill="rgb(255 255 255 / 50%)" />
  <rect x="625" y="225" width="30" height="30" fill="hsl(240 100% 93.22644382649912%)" />
  <rect x="660" y="225" width="30" height="30" fill="rgb(255 255 255 / 50%)" />
  <rect x="695" y="225" width="30" height="30" fill="hsl(240 100% 99.46448621949779%)" />
  <rect x="65" y="260" width="30" height="30" fill="hsl(240 100% 99.88258110173557%)" />
  <rect x="135" y="260" width="30" height="30" fill="hsl(240 100% 99.91149054551173%)" />
  <rect x="170" y="260" width="30" height="30" fill="hsl(240 100% 98.9672469658896%)" />
  <rect x="205" y="260" width="30" height="30" fill="rgb(255 255 255 / 50%)" />
  <rect x="240" y="260" width="30" height="30" fill="hsl(240 100% 86.93589158034304%)" />
  <rect x="310" y="260" width="30" height="30" fill="rgb(255 255 255 / 50%)" />
  <rect x="380" y="260" width="30" height="30" fill="hsl(240 100% 80.76255251374828%)" />
  <rect x="415" y="260" width="30" height="30" fill="rgb(255 255 255 / 50%)" />
  <rect x="450" y="260" width="30" height="30" fill="hsl(240 100% 50%)" />
  <rect x="485" y="260" width="30" height="30" fill="hsl(240 100% 71.05878101562952%)" />
  <rect x="555" y="260" width="30" height="30" fill="hsl(240 100% 97.05155957089936%)" />
  <rect x="590" y="260" width="30" height="30" fill="hsl(240 100% 93.97941362754177%)" />
  <rect x="65" y="295" width="30" height="30" fill="hsl(240 100% 86.9400466479203%)" />
  <rect x="100" y="295" width="30" height="30" fill="hsl(240 100% 97.49161579305506%)" />
  <rect x="135" y="295" width="30" height="30" fill="hsl(240 100% 95.17062431247805%)" />
  <rect x="170" y="295" width="30" height="30" fill="hsl(240 100% 90.54980203051059%)" />
  <rect x="205" y="295" width="30" height="30" fill="hsl(240 100% 99.49076970689535%)" />
  <rect x="240" y="295" width="30" height="30" fill="hsl(240 100% 50%)" />
  <rect x="275" y="295" width="30" height="30" fill="hsl(240 100% 99.86119126484591%)" />
  <rect x="310" y="295" width="30" height="30" fill="hsl(240 100% 99.4929834351291%)" />
  <rect x="345" y="295" width="30" height="30" fill="hsl(240 100% 95.16405780948551%)" />
  <rect x="380" y="295" width="30" height="30" fill="hsl(240 100% 54.74481719192429%)" />
  <rect x="415" y="295" width="30" height="30" fill="hsl(240 100% 99.31598207590442%)" />
  <rect x="485" y="295" width="30" height="30" fill="hsl(240 100% 96.41215341217803%)" />
  <rect x="590" y="295" width="30" height="30" fill="hsl(240 100% 97.58922583509367%)" />
  <rect x="695" y="295" width="30" height="30" fill="hsl(240 100% 99.97485727043754%)" />
  <rect x="65" y="330" width="30" height="30" fill="hsl(240 100% 88.95575519567252%)" />
  <rect x="100" y="330" width="30" height="30" fill="hsl(240 100% 94.9144923681384%)" />
  <rect x="135" y="330" width="30" height="30" fill="hsl(240 100% 97.28559210782743%)" />
  <rect x="170" y="330" width="30" height="30" fill="hsl(240 100% 88.33582001986743%)" />
  <rect x="205" y="330" width="30" height="30" fill="hsl(240 100% 99.27371761929538%)" />
  <rect x="240" y="330" width="30" height="30" fill="hsl(240 100% 80.81089726637822%)" />
  <rect x="275" y="330" width="30" height="30" fill="hsl(240 100% 99.85146766976935%)" />
  <rect x="310" y="330" width="30" height="30" fill="rgb(255 255 255 / 50%)" />
  <rect x="345" y="330" width="30" height="30" fill="hsl(240 100% 97.35567111194113%)" />
  <rect x="380" y="330" width="30" height="30" fill="hsl(240 100% 86.55675844881837%)" />
  <rect x="415" y="330" width="30" height="30" fill="hsl(240 100% 99.82079200568937%)" />
  <rect x="450" y="330" width="30" height="30" fill="hsl(240 100% 72.21180964571101%)" />
  <rect x="485" y="330" width="30" height="30" fill="hsl(240 100% 75.04051329363742%)" />
  <rect x="520" y="330" width="30" height="30" fill="hsl(240 100% 94.02071882023316%)" />
  <rect x="555" y="330" width="30" height="30" fill="hsl(240 100% 50%)" />
  <rect x="660" y="330" width="30" height="30" fill="hsl(240 100% 89.55789831427839%)" />
  <rect x="695" y="330" width="30" height="30" fill="hsl(240 100% 95.67833238004675%)" />
  <rect x="65" y="365" width="30" height="30" fill="hsl(240 100% 57.69185984974498%)" />
  <rect x="100" y="365" width="30" height="30" fill="hsl(240 100% 72.17948282311472%)" />
  <rect x="135" y="365" width="30" height="30" fill="hsl(240 100% 82.27797737629702%)" />
  <rect x="170" y="365" width="30" height="30" fill="hsl(240 100% 50%)" />
  <rect x="205" y="365" width="30" height="30" fill="hsl(240 100% 96.25420864464134%)" />
  <rect x="240" y="365" width="30" height="30" fill="hsl(240 100% 59.568419844732325%)" />
  <rect x="275" y="365" width="30" height="30" fill="hsl(240 100% 98.98775952061335%)" />
  <rect x="310" y="365" width="30" height="30" fill="hsl(240 100% 99.8657543673872%)" />
  <rect x="380" y="365" width="30" height="30" fill="hsl(240 100% 66.87501341585148%)" />
  <rect x="485" y="365" width="30" height="30" fill="hsl(240 100% 86.03292854732089%)" />
  <rect x="555" y="365" width="30" height="30" fill="hsl(240 100% 99.63150802268285%)" />
  <rect x="625" y="365" width="30" height="30" fill="hsl(240 100% 63.91300695461118%)" />
  <rect x="660" y="365" width="30" height="30" fill="hsl(240 100% 98.19382949289047%)" />
  <rect x="695" y="365" width="30" height="30" fill="hsl(240 100% 99.1799835416263%)" />
  <rect x="65" y="400" width="30" height="30" fill="hsl(240 100% 98.12732992458739%)" />
  <rect x="100" y="400" width="30" height="30" fill="hsl(240 100% 99.27748322362329%)" />
  <rect x="135" y="400" width="30" height="30" fill="hsl(240 100% 99.58485121555373%)" />
  <rect x="170" y="400" width="30" height="30" fill="hsl(240 100% 94.10735670474595%)" />
  <rect x="205" y="400" width="30" height="30" fill="hsl(240 100% 99.01011006421818%)" />
  <rect x="240" y="400" width="30" height="30" fill="hsl(240 100% 84.0147774517677%)" />
  <rect x="275" y="400" width="30" height="30" fill="hsl(240 100% 99.05605604299507%)" />
  <rect x="310" y="400" width="30" height="30" fill="rgb(255 255 255 / 50%)" />
  <rect x="380" y="400" width="30" height="30" fill="hsl(240 100% 95.56266667232339%)" />
  <rect x="415" y="400" width="30" height="30" fill="hsl(240 100% 99.96779973047693%)" />
  <rect x="485" y="400" width="30" height="30" fill="hsl(240 100% 50%)" />
  <rect x="695" y="400" width="30" height="30" fill="hsl(240 100% 99.6611666559637%)" />
  <rect x="65" y="435" width="30" height="30" fill="hsl(240 100% 92.84972200732359%)" />
  <rect x="240" y="435" width="30" height="30" fill="hsl(240 100% 50%)" />
  <rect x="310" y="435" width="30" height="30" fill="hsl(240 100% 93.42311347034125%)" />
  <rect x="380" y="435" width="30" height="30" fill="hsl(240 100% 87.02103499553618%)" />
  <rect x="415" y="435" width="30" height="30" fill="hsl(240 100% 99.79792729651294%)" />
  <rect x="240" y="470" width="30" height="30" fill="hsl(240 100% 50%)" />
  <rect x="310" y="470" width="30" height="30" fill="hsl(240 100% 95.7406496619999%)" />
  <rect x="380" y="470" width="30" height="30" fill="hsl(240 100% 89.10856416905328%)" />
  <rect x="415" y="470" width="30" height="30" fill="hsl(240 100% 99.57639546101868%)" />
</svg>
