<svg xmlns="http://www.w3.org/2000/svg" viewBox="0 0 730 505">
  <rect x="0" y="0" width="730" height="505" rx="5" ry="5" fill="#222" />
  <text x="60" y="100" fill="white" font-family="sans-serif" font-weight="bold" font-size="12" text-anchor="end" dominant-baseline="middle">ba</text>
  <text x="60" y="135" fill="white" font-family="sans-serif" font-weight="bold" font-size="12" text-anchor="end" dominant-baseline="middle">det</text>
  <text x="60" y="170" fill="white" font-family="sans-serif" font-weight="bold" font-size="12" text-anchor="end" dominant-baseline="middle">gmm</text>
  <text x="60" y="205" fill="white" font-family="sans-serif" font-weight="bold" font-size="12" text-anchor="end" dominant-baseline="middle">hello</text>
  <text x="60" y="240" fill="white" font-family="sans-serif" font-weight="bold" font-size="12" text-anchor="end" dominant-baseline="middle">ht</text>
  <text x="60" y="275" fill="white" font-family="sans-serif" font-weight="bold" font-size="12" text-anchor="end" dominant-baseline="middle">kmeans</text>
  <text x="60" y="310" fill="white" font-family="sans-serif" font-weight="bold" font-size="12" text-anchor="end" dominant-baseline="middle">llsq</text>
  <text x="60" y="345" fill="white" font-family="sans-serif" font-weight="bold" font-size="12" text-anchor="end" dominant-baseline="middle">lse</text>
  <text x="60" y="380" fill="white" font-family="sans-serif" font-weight="bold" font-size="12" text-anchor="end" dominant-baseline="middle">lstm</text>
  <text x="60" y="415" fill="white" font-family="sans-serif" font-weight="bold" font-size="12" text-anchor="end" dominant-baseline="middle">ode</text>
  <text x="60" y="450" fill="white" font-family="sans-serif" font-weight="bold" font-size="12" text-anchor="end" dominant-baseline="middle">particle</text>
  <text x="60" y="485" fill="white" font-family="sans-serif" font-weight="bold" font-size="12" text-anchor="end" dominant-baseline="middle">saddle</text>
  <text x="80" y="80" fill="white" font-family="sans-serif" font-weight="bold" font-size="12" text-anchor="end" dominant-baseline="middle" transform="rotate(90 80 80)">ad-hpp</text>
  <text x="115" y="80" fill="white" font-family="sans-serif" font-weight="bold" font-size="12" text-anchor="end" dominant-baseline="middle" transform="rotate(90 115 80)">adept</text>
  <text x="150" y="80" fill="white" font-family="sans-serif" font-weight="bold" font-size="12" text-anchor="end" dominant-baseline="middle" transform="rotate(90 150 80)">adol-c</text>
  <text x="185" y="80" fill="white" font-family="sans-serif" font-weight="bold" font-size="12" text-anchor="end" dominant-baseline="middle" transform="rotate(90 185 80)">codipack</text>
  <text x="220" y="80" fill="white" font-family="sans-serif" font-weight="bold" font-size="12" text-anchor="end" dominant-baseline="middle" transform="rotate(90 220 80)">cppad</text>
  <text x="255" y="80" fill="white" font-family="sans-serif" font-weight="bold" font-size="12" text-anchor="end" dominant-baseline="middle" transform="rotate(90 255 80)">enzyme</text>
  <text x="290" y="80" fill="white" font-family="sans-serif" font-weight="bold" font-size="12" text-anchor="end" dominant-baseline="middle" transform="rotate(90 290 80)">enzyme-jl</text>
  <text x="325" y="80" fill="white" font-family="sans-serif" font-weight="bold" font-size="12" text-anchor="end" dominant-baseline="middle" transform="rotate(90 325 80)">finite</text>
  <text x="360" y="80" fill="white" font-family="sans-serif" font-weight="bold" font-size="12" text-anchor="end" dominant-baseline="middle" transform="rotate(90 360 80)">floretta</text>
  <text x="395" y="80" fill="white" font-family="sans-serif" font-weight="bold" font-size="12" text-anchor="end" dominant-baseline="middle" transform="rotate(90 395 80)">futhark</text>
  <text x="430" y="80" fill="white" font-family="sans-serif" font-weight="bold" font-size="12" text-anchor="end" dominant-baseline="middle" transform="rotate(90 430 80)">haskell</text>
  <text x="465" y="80" fill="white" font-family="sans-serif" font-weight="bold" font-size="12" text-anchor="end" dominant-baseline="middle" transform="rotate(90 465 80)">jax</text>
  <text x="500" y="80" fill="white" font-family="sans-serif" font-weight="bold" font-size="12" text-anchor="end" dominant-baseline="middle" transform="rotate(90 500 80)">manual</text>
  <text x="535" y="80" fill="white" font-family="sans-serif" font-weight="bold" font-size="12" text-anchor="end" dominant-baseline="middle" transform="rotate(90 535 80)">ocaml</text>
  <text x="570" y="80" fill="white" font-family="sans-serif" font-weight="bold" font-size="12" text-anchor="end" dominant-baseline="middle" transform="rotate(90 570 80)">pytorch</text>
  <text x="605" y="80" fill="white" font-family="sans-serif" font-weight="bold" font-size="12" text-anchor="end" dominant-baseline="middle" transform="rotate(90 605 80)">scilean</text>
  <text x="640" y="80" fill="white" font-family="sans-serif" font-weight="bold" font-size="12" text-anchor="end" dominant-baseline="middle" transform="rotate(90 640 80)">tapenade</text>
  <text x="675" y="80" fill="white" font-family="sans-serif" font-weight="bold" font-size="12" text-anchor="end" dominant-baseline="middle" transform="rotate(90 675 80)">tensorflow</text>
  <text x="710" y="80" fill="white" font-family="sans-serif" font-weight="bold" font-size="12" text-anchor="end" dominant-baseline="middle" transform="rotate(90 710 80)">zygote</text>
  <rect x="65" y="85" width="30" height="30" fill="hsl(240 100% 80.2893032039672%)" />
  <rect x="100" y="85" width="30" height="30" fill="hsl(240 100% 82.61823750292459%)" />
  <rect x="135" y="85" width="30" height="30" fill="hsl(240 100% 97.99401581200918%)" />
  <rect x="170" y="85" width="30" height="30" fill="hsl(240 100% 82.3763779460236%)" />
  <rect x="205" y="85" width="30" height="30" fill="hsl(240 100% 98.99276929193046%)" />
  <rect x="240" y="85" width="30" height="30" fill="hsl(240 100% 51.75030193507622%)" />
  <rect x="310" y="85" width="30" height="30" fill="hsl(240 100% 92.85863967108045%)" />
  <rect x="380" y="85" width="30" height="30" fill="hsl(240 100% 68.09533564960162%)" />
  <rect x="485" y="85" width="30" height="30" fill="hsl(240 100% 50%)" />
  <rect x="555" y="85" width="30" height="30" fill="rgb(255 255 255 / 50%)" />
  <rect x="625" y="85" width="30" height="30" fill="hsl(240 100% 74.77329803450715%)" />
  <rect x="660" y="85" width="30" height="30" fill="rgb(255 255 255 / 50%)" />
  <rect x="695" y="85" width="30" height="30" fill="hsl(240 100% 99.72758415505446%)" />
  <rect x="65" y="120" width="30" height="30" fill="hsl(240 100% 50%)" />
  <rect x="100" y="120" width="30" height="30" fill="hsl(240 100% 84.19819573700849%)" />
  <rect x="135" y="120" width="30" height="30" fill="hsl(240 100% 85.6882779805403%)" />
  <rect x="170" y="120" width="30" height="30" fill="hsl(240 100% 50.1691941226204%)" />
  <rect x="205" y="120" width="30" height="30" fill="hsl(240 100% 92.52850476881265%)" />
  <rect x="240" y="120" width="30" height="30" fill="hsl(240 100% 91.7418924403375%)" />
  <rect x="275" y="120" width="30" height="30" fill="hsl(240 100% 99.31810655653842%)" />
  <rect x="310" y="120" width="30" height="30" fill="hsl(240 100% 98.97660988409991%)" />
  <rect x="380" y="120" width="30" height="30" fill="hsl(240 100% 94.55836285163159%)" />
  <rect x="415" y="120" width="30" height="30" fill="hsl(240 100% 98.02060128098591%)" />
  <rect x="485" y="120" width="30" height="30" fill="hsl(240 100% 79.53564867088932%)" />
  <rect x="695" y="120" width="30" height="30" fill="rgb(255 255 255 / 50%)" />
  <rect x="65" y="155" width="30" height="30" fill="hsl(240 100% 97.19786234473825%)" />
  <rect x="100" y="155" width="30" height="30" fill="hsl(240 100% 98.29047379740345%)" />
  <rect x="135" y="155" width="30" height="30" fill="hsl(240 100% 98.94001656114725%)" />
  <rect x="170" y="155" width="30" height="30" fill="hsl(240 100% 97.21019496771392%)" />
  <rect x="205" y="155" width="30" height="30" fill="hsl(240 100% 99.7769553420615%)" />
  <rect x="240" y="155" width="30" height="30" fill="hsl(240 100% 86.33504311445506%)" />
  <rect x="275" y="155" width="30" height="30" fill="hsl(240 100% 99.82512757191284%)" />
  <rect x="310" y="155" width="30" height="30" fill="rgb(255 255 255 / 50%)" />
  <rect x="380" y="155" width="30" height="30" fill="hsl(240 100% 89.27972627000868%)" />
  <rect x="450" y="155" width="30" height="30" fill="hsl(240 100% 70.21390401548351%)" />
  <rect x="485" y="155" width="30" height="30" fill="hsl(240 100% 71.58410302260046%)" />
  <rect x="520" y="155" width="30" height="30" fill="hsl(240 100% 99.35757345978676%)" />
  <rect x="555" y="155" width="30" height="30" fill="hsl(240 100% 50%)" />
  <rect x="590" y="155" width="30" height="30" fill="hsl(240 100% 92.61255877034883%)" />
  <rect x="625" y="155" width="30" height="30" fill="hsl(240 100% 76.03520020074882%)" />
  <rect x="660" y="155" width="30" height="30" fill="hsl(240 100% 88.96377191302605%)" />
  <rect x="695" y="155" width="30" height="30" fill="hsl(240 100% 99.3455674702108%)" />
  <rect x="65" y="190" width="30" height="30" fill="hsl(240 100% 50%)" />
  <rect x="100" y="190" width="30" height="30" fill="hsl(240 100% 50%)" />
  <rect x="135" y="190" width="30" height="30" fill="hsl(240 100% 50%)" />
  <rect x="170" y="190" width="30" height="30" fill="hsl(240 100% 50%)" />
  <rect x="205" y="190" width="30" height="30" fill="hsl(240 100% 50%)" />
  <rect x="240" y="190" width="30" height="30" fill="hsl(240 100% 50%)" />
  <rect x="275" y="190" width="30" height="30" fill="hsl(240 100% 50%)" />
  <rect x="310" y="190" width="30" height="30" fill="hsl(240 100% 50%)" />
  <rect x="345" y="190" width="30" height="30" fill="hsl(240 100% 50%)" />
  <rect x="380" y="190" width="30" height="30" fill="hsl(240 100% 50%)" />
  <rect x="415" y="190" width="30" height="30" fill="hsl(240 100% 50%)" />
  <rect x="450" y="190" width="30" height="30" fill="hsl(240 100% 50%)" />
  <rect x="485" y="190" width="30" height="30" fill="hsl(240 100% 50%)" />
  <rect x="520" y="190" width="30" height="30" fill="hsl(240 100% 50%)" />
  <rect x="555" y="190" width="30" height="30" fill="hsl(240 100% 50%)" />
  <rect x="590" y="190" width="30" height="30" fill="hsl(240 100% 50%)" />
  <rect x="625" y="190" width="30" height="30" fill="hsl(240 100% 50%)" />
  <rect x="660" y="190" width="30" height="30" fill="hsl(240 100% 50%)" />
  <rect x="695" y="190" width="30" height="30" fill="hsl(240 100% 50%)" />
  <rect x="100" y="225" width="30" height="30" fill="hsl(240 100% 96.23858436747008%)" />
  <rect x="135" y="225" width="30" height="30" fill="hsl(240 100% 91.17744334533458%)" />
  <rect x="170" y="225" width="30" height="30" fill="hsl(240 100% 89.1307777480353%)" />
  <rect x="240" y="225" width="30" height="30" fill="hsl(240 100% 90.89672943671457%)" />
  <rect x="310" y="225" width="30" height="30" fill="rgb(255 255 255 / 50%)" />
  <rect x="380" y="225" width="30" height="30" fill="hsl(240 100% 90.33289066252382%)" />
  <rect x="485" y="225" width="30" height="30" fill="hsl(240 100% 50%)" />
  <rect x="555" y="225" width="30" height="30" fill="rgb(255 255 255 / 50%)" />
  <rect x="625" y="225" width="30" height="30" fill="hsl(240 100% 92.95823063646971%)" />
  <rect x="660" y="225" width="30" height="30" fill="rgb(255 255 255 / 50%)" />
  <rect x="695" y="225" width="30" height="30" fill="hsl(240 100% 99.4504360194718%)" />
  <rect x="65" y="260" width="30" height="30" fill="hsl(240 100% 99.9013419634704%)" />
  <rect x="135" y="260" width="30" height="30" fill="hsl(240 100% 99.87753342033982%)" />
  <rect x="170" y="260" width="30" height="30" fill="hsl(240 100% 98.99690327265597%)" />
  <rect x="205" y="260" width="30" height="30" fill="rgb(255 255 255 / 50%)" />
  <rect x="240" y="260" width="30" height="30" fill="hsl(240 100% 87.12670716313164%)" />
  <rect x="310" y="260" width="30" height="30" fill="rgb(255 255 255 / 50%)" />
  <rect x="380" y="260" width="30" height="30" fill="hsl(240 100% 80.99876747556027%)" />
  <rect x="415" y="260" width="30" height="30" fill="rgb(255 255 255 / 50%)" />
  <rect x="450" y="260" width="30" height="30" fill="hsl(240 100% 50%)" />
  <rect x="485" y="260" width="30" height="30" fill="hsl(240 100% 71.23939096326079%)" />
  <rect x="555" y="260" width="30" height="30" fill="hsl(240 100% 97.15958677045367%)" />
  <rect x="590" y="260" width="30" height="30" fill="hsl(240 100% 94.11913253194797%)" />
  <rect x="65" y="295" width="30" height="30" fill="hsl(240 100% 85.88466044904666%)" />
  <rect x="100" y="295" width="30" height="30" fill="hsl(240 100% 97.5095779803469%)" />
  <rect x="135" y="295" width="30" height="30" fill="hsl(240 100% 95.02549537894508%)" />
  <rect x="170" y="295" width="30" height="30" fill="hsl(240 100% 90.59193499756269%)" />
  <rect x="205" y="295" width="30" height="30" fill="hsl(240 100% 99.44091416919298%)" />
  <rect x="240" y="295" width="30" height="30" fill="hsl(240 100% 50%)" />
  <rect x="275" y="295" width="30" height="30" fill="hsl(240 100% 99.8676908943763%)" />
  <rect x="310" y="295" width="30" height="30" fill="hsl(240 100% 99.49300935117584%)" />
  <rect x="345" y="295" width="30" height="30" fill="hsl(240 100% 95.15530195838792%)" />
  <rect x="380" y="295" width="30" height="30" fill="hsl(240 100% 54.677683779670375%)" />
  <rect x="415" y="295" width="30" height="30" fill="hsl(240 100% 99.31066909170922%)" />
  <rect x="450" y="295" width="30" height="30" fill="hsl(240 100% 88.41485430947593%)" />
  <rect x="485" y="295" width="30" height="30" fill="hsl(240 100% 57.33109701876627%)" />
  <rect x="590" y="295" width="30" height="30" fill="hsl(240 100% 97.57699993381814%)" />
  <rect x="695" y="295" width="30" height="30" fill="hsl(240 100% 99.97373163049971%)" />
  <rect x="65" y="330" width="30" height="30" fill="hsl(240 100% 85.97533260778864%)" />
  <rect x="100" y="330" width="30" height="30" fill="hsl(240 100% 93.53669942537428%)" />
  <rect x="135" y="330" width="30" height="30" fill="hsl(240 100% 96.72927535798284%)" />
  <rect x="170" y="330" width="30" height="30" fill="hsl(240 100% 85.07841504381256%)" />
  <rect x="205" y="330" width="30" height="30" fill="hsl(240 100% 99.06631101538811%)" />
  <rect x="240" y="330" width="30" height="30" fill="hsl(240 100% 75.46751562036786%)" />
  <rect x="275" y="330" width="30" height="30" fill="hsl(240 100% 99.78837510753219%)" />
  <rect x="310" y="330" width="30" height="30" fill="rgb(255 255 255 / 50%)" />
  <rect x="345" y="330" width="30" height="30" fill="hsl(240 100% 96.61630828791671%)" />
  <rect x="380" y="330" width="30" height="30" fill="hsl(240 100% 82.71477940246179%)" />
  <rect x="415" y="330" width="30" height="30" fill="hsl(240 100% 99.76861825636054%)" />
  <rect x="450" y="330" width="30" height="30" fill="hsl(240 100% 62.45457397645017%)" />
  <rect x="485" y="330" width="30" height="30" fill="hsl(240 100% 67.65197731028925%)" />
  <rect x="520" y="330" width="30" height="30" fill="hsl(240 100% 92.41637170965228%)" />
  <rect x="555" y="330" width="30" height="30" fill="hsl(240 100% 50%)" />
  <rect x="660" y="330" width="30" height="30" fill="hsl(240 100% 86.16937311541514%)" />
  <rect x="695" y="330" width="30" height="30" fill="hsl(240 100% 94.11784981622954%)" />
  <rect x="65" y="365" width="30" height="30" fill="hsl(240 100% 57.957239926113246%)" />
  <rect x="100" y="365" width="30" height="30" fill="hsl(240 100% 71.92557931274033%)" />
  <rect x="135" y="365" width="30" height="30" fill="hsl(240 100% 82.1730839332811%)" />
  <rect x="170" y="365" width="30" height="30" fill="hsl(240 100% 50%)" />
  <rect x="205" y="365" width="30" height="30" fill="hsl(240 100% 96.07327400678903%)" />
  <rect x="240" y="365" width="30" height="30" fill="hsl(240 100% 59.00514832180059%)" />
  <rect x="275" y="365" width="30" height="30" fill="hsl(240 100% 98.99642350527816%)" />
  <rect x="310" y="365" width="30" height="30" fill="hsl(240 100% 99.8632127016525%)" />
  <rect x="380" y="365" width="30" height="30" fill="hsl(240 100% 66.49294010041422%)" />
  <rect x="485" y="365" width="30" height="30" fill="hsl(240 100% 85.93496960998475%)" />
  <rect x="555" y="365" width="30" height="30" fill="hsl(240 100% 99.64108206321295%)" />
  <rect x="625" y="365" width="30" height="30" fill="hsl(240 100% 63.95975024063812%)" />
  <rect x="660" y="365" width="30" height="30" fill="hsl(240 100% 98.12796018386052%)" />
  <rect x="695" y="365" width="30" height="30" fill="hsl(240 100% 99.171187567421%)" />
  <rect x="65" y="400" width="30" height="30" fill="hsl(240 100% 98.07843900985534%)" />
  <rect x="100" y="400" width="30" height="30" fill="hsl(240 100% 99.2616310327432%)" />
  <rect x="135" y="400" width="30" height="30" fill="hsl(240 100% 99.57990661580189%)" />
  <rect x="170" y="400" width="30" height="30" fill="hsl(240 100% 94.06746421305421%)" />
  <rect x="205" y="400" width="30" height="30" fill="hsl(240 100% 99.01797305073214%)" />
  <rect x="240" y="400" width="30" height="30" fill="hsl(240 100% 83.43169114700308%)" />
  <rect x="275" y="400" width="30" height="30" fill="hsl(240 100% 99.04988473925043%)" />
  <rect x="310" y="400" width="30" height="30" fill="rgb(255 255 255 / 50%)" />
  <rect x="380" y="400" width="30" height="30" fill="hsl(240 100% 92.28235299693883%)" />
  <rect x="415" y="400" width="30" height="30" fill="hsl(240 100% 99.96497771936056%)" />
  <rect x="450" y="400" width="30" height="30" fill="hsl(240 100% 71.83232286091153%)" />
  <rect x="485" y="400" width="30" height="30" fill="hsl(240 100% 50%)" />
  <rect x="695" y="400" width="30" height="30" fill="hsl(240 100% 99.6369059136113%)" />
  <rect x="65" y="435" width="30" height="30" fill="hsl(240 100% 92.85633548260469%)" />
  <rect x="240" y="435" width="30" height="30" fill="hsl(240 100% 50%)" />
  <rect x="310" y="435" width="30" height="30" fill="hsl(240 100% 93.3507097602053%)" />
  <rect x="380" y="435" width="30" height="30" fill="hsl(240 100% 87.03238609673414%)" />
  <rect x="415" y="435" width="30" height="30" fill="hsl(240 100% 99.80149866481132%)" />
  <rect x="240" y="470" width="30" height="30" fill="hsl(240 100% 50%)" />
  <rect x="310" y="470" width="30" height="30" fill="hsl(240 100% 96.0222905777487%)" />
  <rect x="380" y="470" width="30" height="30" fill="hsl(240 100% 89.82504931915508%)" />
  <rect x="415" y="470" width="30" height="30" fill="hsl(240 100% 99.60300735428513%)" />
</svg>
