<svg xmlns="http://www.w3.org/2000/svg" viewBox="0 0 870 505">
  <rect x="0" y="0" width="870" height="505" rx="5" ry="5" fill="#222" />
  <text x="60" y="100" fill="white" font-family="sans-serif" font-weight="bold" font-size="12" text-anchor="end" dominant-baseline="middle">ba</text>
  <text x="60" y="135" fill="white" font-family="sans-serif" font-weight="bold" font-size="12" text-anchor="end" dominant-baseline="middle">det</text>
  <text x="60" y="170" fill="white" font-family="sans-serif" font-weight="bold" font-size="12" text-anchor="end" dominant-baseline="middle">gmm</text>
  <text x="60" y="205" fill="white" font-family="sans-serif" font-weight="bold" font-size="12" text-anchor="end" dominant-baseline="middle">hello</text>
  <text x="60" y="240" fill="white" font-family="sans-serif" font-weight="bold" font-size="12" text-anchor="end" dominant-baseline="middle">ht</text>
  <text x="60" y="275" fill="white" font-family="sans-serif" font-weight="bold" font-size="12" text-anchor="end" dominant-baseline="middle">kmeans</text>
  <text x="60" y="310" fill="white" font-family="sans-serif" font-weight="bold" font-size="12" text-anchor="end" dominant-baseline="middle">llsq</text>
  <text x="60" y="345" fill="white" font-family="sans-serif" font-weight="bold" font-size="12" text-anchor="end" dominant-baseline="middle">lse</text>
  <text x="60" y="380" fill="white" font-family="sans-serif" font-weight="bold" font-size="12" text-anchor="end" dominant-baseline="middle">lstm</text>
  <text x="60" y="415" fill="white" font-family="sans-serif" font-weight="bold" font-size="12" text-anchor="end" dominant-baseline="middle">ode</text>
  <text x="60" y="450" fill="white" font-family="sans-serif" font-weight="bold" font-size="12" text-anchor="end" dominant-baseline="middle">particle</text>
  <text x="60" y="485" fill="white" font-family="sans-serif" font-weight="bold" font-size="12" text-anchor="end" dominant-baseline="middle">saddle</text>
  <text x="80" y="80" fill="white" font-family="sans-serif" font-weight="bold" font-size="12" text-anchor="end" dominant-baseline="middle" transform="rotate(90 80 80)">ad-hpp</text>
  <text x="115" y="80" fill="white" font-family="sans-serif" font-weight="bold" font-size="12" text-anchor="end" dominant-baseline="middle" transform="rotate(90 115 80)">adept</text>
  <text x="150" y="80" fill="white" font-family="sans-serif" font-weight="bold" font-size="12" text-anchor="end" dominant-baseline="middle" transform="rotate(90 150 80)">adol-c</text>
  <text x="185" y="80" fill="white" font-family="sans-serif" font-weight="bold" font-size="12" text-anchor="end" dominant-baseline="middle" transform="rotate(90 185 80)">codipack</text>
  <text x="220" y="80" fill="white" font-family="sans-serif" font-weight="bold" font-size="12" text-anchor="end" dominant-baseline="middle" transform="rotate(90 220 80)">cppad</text>
  <text x="255" y="80" fill="white" font-family="sans-serif" font-weight="bold" font-size="12" text-anchor="end" dominant-baseline="middle" transform="rotate(90 255 80)">enzyme</text>
  <text x="290" y="80" fill="white" font-family="sans-serif" font-weight="bold" font-size="12" text-anchor="end" dominant-baseline="middle" transform="rotate(90 290 80)">enzyme-jl</text>
  <text x="325" y="80" fill="white" font-family="sans-serif" font-weight="bold" font-size="12" text-anchor="end" dominant-baseline="middle" transform="rotate(90 325 80)">finite</text>
  <text x="360" y="80" fill="white" font-family="sans-serif" font-weight="bold" font-size="12" text-anchor="end" dominant-baseline="middle" transform="rotate(90 360 80)">floretta</text>
  <text x="395" y="80" fill="white" font-family="sans-serif" font-weight="bold" font-size="12" text-anchor="end" dominant-baseline="middle" transform="rotate(90 395 80)">forwarddiff-jl</text>
  <text x="430" y="80" fill="white" font-family="sans-serif" font-weight="bold" font-size="12" text-anchor="end" dominant-baseline="middle" transform="rotate(90 430 80)">futhark</text>
  <text x="465" y="80" fill="white" font-family="sans-serif" font-weight="bold" font-size="12" text-anchor="end" dominant-baseline="middle" transform="rotate(90 465 80)">haskell</text>
  <text x="500" y="80" fill="white" font-family="sans-serif" font-weight="bold" font-size="12" text-anchor="end" dominant-baseline="middle" transform="rotate(90 500 80)">jax</text>
  <text x="535" y="80" fill="white" font-family="sans-serif" font-weight="bold" font-size="12" text-anchor="end" dominant-baseline="middle" transform="rotate(90 535 80)">manual</text>
  <text x="570" y="80" fill="white" font-family="sans-serif" font-weight="bold" font-size="12" text-anchor="end" dominant-baseline="middle" transform="rotate(90 570 80)">mooncake-jl</text>
  <text x="605" y="80" fill="white" font-family="sans-serif" font-weight="bold" font-size="12" text-anchor="end" dominant-baseline="middle" transform="rotate(90 605 80)">ocaml</text>
  <text x="640" y="80" fill="white" font-family="sans-serif" font-weight="bold" font-size="12" text-anchor="end" dominant-baseline="middle" transform="rotate(90 640 80)">pytorch</text>
  <text x="675" y="80" fill="white" font-family="sans-serif" font-weight="bold" font-size="12" text-anchor="end" dominant-baseline="middle" transform="rotate(90 675 80)">reversediff-jl</text>
  <text x="710" y="80" fill="white" font-family="sans-serif" font-weight="bold" font-size="12" text-anchor="end" dominant-baseline="middle" transform="rotate(90 710 80)">scilean</text>
  <text x="745" y="80" fill="white" font-family="sans-serif" font-weight="bold" font-size="12" text-anchor="end" dominant-baseline="middle" transform="rotate(90 745 80)">tapenade</text>
  <text x="780" y="80" fill="white" font-family="sans-serif" font-weight="bold" font-size="12" text-anchor="end" dominant-baseline="middle" transform="rotate(90 780 80)">tensorflow</text>
  <text x="815" y="80" fill="white" font-family="sans-serif" font-weight="bold" font-size="12" text-anchor="end" dominant-baseline="middle" transform="rotate(90 815 80)">tensorflow-js</text>
  <text x="850" y="80" fill="white" font-family="sans-serif" font-weight="bold" font-size="12" text-anchor="end" dominant-baseline="middle" transform="rotate(90 850 80)">zygote</text>
  <rect x="65" y="85" width="30" height="30" fill="hsl(240 100% 80.850398860535%)" />
  <rect x="100" y="85" width="30" height="30" fill="hsl(240 100% 82.37356936352427%)" />
  <rect x="135" y="85" width="30" height="30" fill="hsl(240 100% 97.90767668505828%)" />
  <rect x="170" y="85" width="30" height="30" fill="hsl(240 100% 81.54227866394426%)" />
  <rect x="205" y="85" width="30" height="30" fill="hsl(240 100% 98.94906225121466%)" />
  <rect x="240" y="85" width="30" height="30" fill="hsl(240 100% 50%)" />
  <rect x="310" y="85" width="30" height="30" fill="hsl(240 100% 92.90043984065538%)" />
  <rect x="415" y="85" width="30" height="30" fill="hsl(240 100% 67.11969140601119%)" />
  <rect x="520" y="85" width="30" height="30" fill="hsl(240 100% 54.124270677360855%)" />
  <rect x="625" y="85" width="30" height="30" fill="rgb(255 255 255 / 50%)" />
  <rect x="730" y="85" width="30" height="30" fill="hsl(240 100% 74.1078612914909%)" />
  <rect x="765" y="85" width="30" height="30" fill="rgb(255 255 255 / 50%)" />
  <rect x="835" y="85" width="30" height="30" fill="hsl(240 100% 99.72658652870433%)" />
  <rect x="65" y="120" width="30" height="30" fill="hsl(240 100% 50%)" />
  <rect x="100" y="120" width="30" height="30" fill="hsl(240 100% 83.22720199944928%)" />
  <rect x="135" y="120" width="30" height="30" fill="hsl(240 100% 85.77527223300636%)" />
  <rect x="170" y="120" width="30" height="30" fill="hsl(240 100% 52.529357367820886%)" />
  <rect x="205" y="120" width="30" height="30" fill="hsl(240 100% 92.69081609848206%)" />
  <rect x="240" y="120" width="30" height="30" fill="hsl(240 100% 91.6032721445879%)" />
  <rect x="275" y="120" width="30" height="30" fill="hsl(240 100% 99.37381157561788%)" />
  <rect x="310" y="120" width="30" height="30" fill="hsl(240 100% 98.99844323112485%)" />
  <rect x="380" y="120" width="30" height="30" fill="hsl(240 100% 94.22899431983197%)" />
  <rect x="415" y="120" width="30" height="30" fill="hsl(240 100% 94.61448966313137%)" />
  <rect x="450" y="120" width="30" height="30" fill="hsl(240 100% 97.87238610401806%)" />
  <rect x="520" y="120" width="30" height="30" fill="hsl(240 100% 79.60837377567043%)" />
  <rect x="555" y="120" width="30" height="30" fill="hsl(240 100% 90.59067892642199%)" />
  <rect x="660" y="120" width="30" height="30" fill="rgb(255 255 255 / 50%)" />
  <rect x="835" y="120" width="30" height="30" fill="rgb(255 255 255 / 50%)" />
  <rect x="65" y="155" width="30" height="30" fill="hsl(240 100% 98.45022074685531%)" />
  <rect x="100" y="155" width="30" height="30" fill="hsl(240 100% 98.83719962818928%)" />
  <rect x="135" y="155" width="30" height="30" fill="hsl(240 100% 99.08969415239002%)" />
  <rect x="170" y="155" width="30" height="30" fill="hsl(240 100% 98.02402890591513%)" />
  <rect x="205" y="155" width="30" height="30" fill="hsl(240 100% 99.82632097375195%)" />
  <rect x="240" y="155" width="30" height="30" fill="hsl(240 100% 91.12874083676334%)" />
  <rect x="275" y="155" width="30" height="30" fill="hsl(240 100% 93.10407706399336%)" />
  <rect x="310" y="155" width="30" height="30" fill="rgb(255 255 255 / 50%)" />
  <rect x="415" y="155" width="30" height="30" fill="hsl(240 100% 92.86691616210913%)" />
  <rect x="485" y="155" width="30" height="30" fill="hsl(240 100% 50%)" />
  <rect x="520" y="155" width="30" height="30" fill="hsl(240 100% 80.98615062679502%)" />
  <rect x="590" y="155" width="30" height="30" fill="hsl(240 100% 99.58498965817117%)" />
  <rect x="625" y="155" width="30" height="30" fill="hsl(240 100% 65.09839301721598%)" />
  <rect x="695" y="155" width="30" height="30" fill="hsl(240 100% 95.36655757716797%)" />
  <rect x="730" y="155" width="30" height="30" fill="hsl(240 100% 83.44658144984405%)" />
  <rect x="765" y="155" width="30" height="30" fill="hsl(240 100% 99.57043425449102%)" />
  <rect x="835" y="155" width="30" height="30" fill="hsl(240 100% 96.24972273627425%)" />
  <rect x="65" y="190" width="30" height="30" fill="hsl(240 100% 50%)" />
  <rect x="100" y="190" width="30" height="30" fill="hsl(240 100% 50%)" />
  <rect x="135" y="190" width="30" height="30" fill="hsl(240 100% 50%)" />
  <rect x="170" y="190" width="30" height="30" fill="hsl(240 100% 50%)" />
  <rect x="205" y="190" width="30" height="30" fill="hsl(240 100% 50%)" />
  <rect x="240" y="190" width="30" height="30" fill="hsl(240 100% 50%)" />
  <rect x="275" y="190" width="30" height="30" fill="hsl(240 100% 50%)" />
  <rect x="310" y="190" width="30" height="30" fill="hsl(240 100% 50%)" />
  <rect x="345" y="190" width="30" height="30" fill="hsl(240 100% 50%)" />
  <rect x="380" y="190" width="30" height="30" fill="hsl(240 100% 50%)" />
  <rect x="415" y="190" width="30" height="30" fill="hsl(240 100% 50%)" />
  <rect x="450" y="190" width="30" height="30" fill="hsl(240 100% 50%)" />
  <rect x="485" y="190" width="30" height="30" fill="hsl(240 100% 50%)" />
  <rect x="520" y="190" width="30" height="30" fill="hsl(240 100% 50%)" />
  <rect x="555" y="190" width="30" height="30" fill="hsl(240 100% 50%)" />
  <rect x="590" y="190" width="30" height="30" fill="hsl(240 100% 50%)" />
  <rect x="625" y="190" width="30" height="30" fill="hsl(240 100% 50%)" />
  <rect x="660" y="190" width="30" height="30" fill="hsl(240 100% 50%)" />
  <rect x="695" y="190" width="30" height="30" fill="hsl(240 100% 50%)" />
  <rect x="730" y="190" width="30" height="30" fill="hsl(240 100% 50%)" />
  <rect x="765" y="190" width="30" height="30" fill="hsl(240 100% 50%)" />
  <rect x="800" y="190" width="30" height="30" fill="hsl(240 100% 50%)" />
  <rect x="835" y="190" width="30" height="30" fill="hsl(240 100% 50%)" />
  <rect x="100" y="225" width="30" height="30" fill="hsl(240 100% 96.26734364259825%)" />
  <rect x="135" y="225" width="30" height="30" fill="hsl(240 100% 86.63196126822751%)" />
  <rect x="170" y="225" width="30" height="30" fill="hsl(240 100% 88.12087850377202%)" />
  <rect x="240" y="225" width="30" height="30" fill="hsl(240 100% 90.11477590954453%)" />
  <rect x="310" y="225" width="30" height="30" fill="rgb(255 255 255 / 50%)" />
  <rect x="415" y="225" width="30" height="30" fill="hsl(240 100% 89.32317587951404%)" />
  <rect x="520" y="225" width="30" height="30" fill="hsl(240 100% 50%)" />
  <rect x="625" y="225" width="30" height="30" fill="rgb(255 255 255 / 50%)" />
  <rect x="730" y="225" width="30" height="30" fill="hsl(240 100% 92.42278686679782%)" />
  <rect x="765" y="225" width="30" height="30" fill="rgb(255 255 255 / 50%)" />
  <rect x="835" y="225" width="30" height="30" fill="hsl(240 100% 93.72124615278597%)" />
  <rect x="65" y="260" width="30" height="30" fill="hsl(240 100% 99.8819737588871%)" />
  <rect x="135" y="260" width="30" height="30" fill="hsl(240 100% 99.86093380291817%)" />
  <rect x="170" y="260" width="30" height="30" fill="hsl(240 100% 98.91301256048827%)" />
  <rect x="205" y="260" width="30" height="30" fill="rgb(255 255 255 / 50%)" />
  <rect x="240" y="260" width="30" height="30" fill="hsl(240 100% 87.0255153668738%)" />
  <rect x="310" y="260" width="30" height="30" fill="rgb(255 255 255 / 50%)" />
  <rect x="415" y="260" width="30" height="30" fill="hsl(240 100% 81.15691745675917%)" />
  <rect x="450" y="260" width="30" height="30" fill="rgb(255 255 255 / 50%)" />
  <rect x="485" y="260" width="30" height="30" fill="hsl(240 100% 50%)" />
  <rect x="520" y="260" width="30" height="30" fill="hsl(240 100% 72.28554307088064%)" />
  <rect x="625" y="260" width="30" height="30" fill="hsl(240 100% 96.97995299601276%)" />
  <rect x="695" y="260" width="30" height="30" fill="hsl(240 100% 94.09337355324433%)" />
  <rect x="65" y="295" width="30" height="30" fill="hsl(240 100% 86.19947241178366%)" />
  <rect x="100" y="295" width="30" height="30" fill="hsl(240 100% 97.5258941474927%)" />
  <rect x="135" y="295" width="30" height="30" fill="hsl(240 100% 95.12703363334008%)" />
  <rect x="170" y="295" width="30" height="30" fill="hsl(240 100% 89.37886265733987%)" />
  <rect x="205" y="295" width="30" height="30" fill="hsl(240 100% 99.48365098672349%)" />
  <rect x="240" y="295" width="30" height="30" fill="hsl(240 100% 50.457775945101815%)" />
  <rect x="275" y="295" width="30" height="30" fill="hsl(240 100% 50%)" />
  <rect x="310" y="295" width="30" height="30" fill="hsl(240 100% 99.49802161622831%)" />
  <rect x="345" y="295" width="30" height="30" fill="hsl(240 100% 94.69257138131125%)" />
  <rect x="415" y="295" width="30" height="30" fill="hsl(240 100% 55.11911511802101%)" />
  <rect x="450" y="295" width="30" height="30" fill="hsl(240 100% 99.32697936552239%)" />
  <rect x="485" y="295" width="30" height="30" fill="hsl(240 100% 88.45752140525471%)" />
  <rect x="520" y="295" width="30" height="30" fill="hsl(240 100% 57.74699589073028%)" />
  <rect x="695" y="295" width="30" height="30" fill="hsl(240 100% 97.60336900137706%)" />
  <rect x="800" y="295" width="30" height="30" fill="hsl(240 100% 99.57122895985565%)" />
  <rect x="835" y="295" width="30" height="30" fill="hsl(240 100% 99.95889476319901%)" />
  <rect x="65" y="330" width="30" height="30" fill="hsl(240 100% 86.93974234849202%)" />
  <rect x="100" y="330" width="30" height="30" fill="hsl(240 100% 94.22932334918333%)" />
  <rect x="135" y="330" width="30" height="30" fill="hsl(240 100% 96.97759489271924%)" />
  <rect x="170" y="330" width="30" height="30" fill="hsl(240 100% 86.66727968305051%)" />
  <rect x="205" y="330" width="30" height="30" fill="hsl(240 100% 99.20050779169584%)" />
  <rect x="240" y="330" width="30" height="30" fill="hsl(240 100% 79.49183580963165%)" />
  <rect x="275" y="330" width="30" height="30" fill="hsl(240 100% 88.17333898899899%)" />
  <rect x="310" y="330" width="30" height="30" fill="rgb(255 255 255 / 50%)" />
  <rect x="345" y="330" width="30" height="30" fill="hsl(240 100% 97.16911460952286%)" />
  <rect x="415" y="330" width="30" height="30" fill="hsl(240 100% 85.5084935227578%)" />
  <rect x="450" y="330" width="30" height="30" fill="hsl(240 100% 99.7986280974199%)" />
  <rect x="485" y="330" width="30" height="30" fill="hsl(240 100% 71.37736653225025%)" />
  <rect x="520" y="330" width="30" height="30" fill="hsl(240 100% 70.1598445042112%)" />
  <rect x="590" y="330" width="30" height="30" fill="hsl(240 100% 93.68686175597749%)" />
  <rect x="625" y="330" width="30" height="30" fill="hsl(240 100% 50%)" />
  <rect x="765" y="330" width="30" height="30" fill="hsl(240 100% 94.22389390723676%)" />
  <rect x="800" y="330" width="30" height="30" fill="hsl(240 100% 99.21030581879216%)" />
  <rect x="835" y="330" width="30" height="30" fill="hsl(240 100% 80.23328107388076%)" />
  <rect x="65" y="365" width="30" height="30" fill="hsl(240 100% 57.106413565749946%)" />
  <rect x="100" y="365" width="30" height="30" fill="hsl(240 100% 71.45908330929126%)" />
  <rect x="135" y="365" width="30" height="30" fill="hsl(240 100% 81.82981491982954%)" />
  <rect x="170" y="365" width="30" height="30" fill="hsl(240 100% 50%)" />
  <rect x="205" y="365" width="30" height="30" fill="hsl(240 100% 96.07072523233114%)" />
  <rect x="240" y="365" width="30" height="30" fill="hsl(240 100% 59.56280454252929%)" />
  <rect x="275" y="365" width="30" height="30" fill="hsl(240 100% 92.55867829614374%)" />
  <rect x="310" y="365" width="30" height="30" fill="hsl(240 100% 99.85963629394729%)" />
  <rect x="415" y="365" width="30" height="30" fill="hsl(240 100% 66.76118346614838%)" />
  <rect x="520" y="365" width="30" height="30" fill="hsl(240 100% 86.0829246453391%)" />
  <rect x="625" y="365" width="30" height="30" fill="hsl(240 100% 99.63624753890755%)" />
  <rect x="730" y="365" width="30" height="30" fill="hsl(240 100% 63.70453645589451%)" />
  <rect x="765" y="365" width="30" height="30" fill="hsl(240 100% 98.16765770936199%)" />
  <rect x="835" y="365" width="30" height="30" fill="hsl(240 100% 98.70603678034485%)" />
  <rect x="65" y="400" width="30" height="30" fill="hsl(240 100% 97.72034403924854%)" />
  <rect x="100" y="400" width="30" height="30" fill="hsl(240 100% 99.28814878772123%)" />
  <rect x="135" y="400" width="30" height="30" fill="hsl(240 100% 99.56240265123192%)" />
  <rect x="170" y="400" width="30" height="30" fill="hsl(240 100% 92.72359382683453%)" />
  <rect x="205" y="400" width="30" height="30" fill="hsl(240 100% 99.05071554019342%)" />
  <rect x="240" y="400" width="30" height="30" fill="hsl(240 100% 82.59415312613234%)" />
  <rect x="275" y="400" width="30" height="30" fill="hsl(240 100% 94.23507637427913%)" />
  <rect x="310" y="400" width="30" height="30" fill="rgb(255 255 255 / 50%)" />
  <rect x="380" y="400" width="30" height="30" fill="rgb(255 255 255 / 50%)" />
  <rect x="415" y="400" width="30" height="30" fill="hsl(240 100% 92.53485979282041%)" />
  <rect x="450" y="400" width="30" height="30" fill="hsl(240 100% 99.96752565797776%)" />
  <rect x="485" y="400" width="30" height="30" fill="hsl(240 100% 73.52454638410246%)" />
  <rect x="520" y="400" width="30" height="30" fill="hsl(240 100% 50%)" />
  <rect x="555" y="400" width="30" height="30" fill="hsl(240 100% 98.89605692849359%)" />
  <rect x="660" y="400" width="30" height="30" fill="rgb(255 255 255 / 50%)" />
  <rect x="835" y="400" width="30" height="30" fill="hsl(240 100% 98.88956226646879%)" />
  <rect x="65" y="435" width="30" height="30" fill="hsl(240 100% 93.27782128431292%)" />
  <rect x="240" y="435" width="30" height="30" fill="hsl(240 100% 50%)" />
  <rect x="310" y="435" width="30" height="30" fill="hsl(240 100% 93.85299517303321%)" />
  <rect x="415" y="435" width="30" height="30" fill="hsl(240 100% 86.98729688283738%)" />
  <rect x="450" y="435" width="30" height="30" fill="hsl(240 100% 99.7874722683802%)" />
  <rect x="65" y="470" width="30" height="30" fill="hsl(240 100% 50.21099297198128%)" />
  <rect x="240" y="470" width="30" height="30" fill="hsl(240 100% 50%)" />
  <rect x="310" y="470" width="30" height="30" fill="hsl(240 100% 96.98523927504638%)" />
  <rect x="415" y="470" width="30" height="30" fill="hsl(240 100% 89.1431095651018%)" />
  <rect x="450" y="470" width="30" height="30" fill="hsl(240 100% 99.56773157497368%)" />
</svg>
