<svg xmlns="http://www.w3.org/2000/svg" viewBox="0 0 695 470">
  <rect x="0" y="0" width="695" height="470" rx="5" ry="5" fill="#222" />
  <text x="60" y="100" fill="white" font-family="sans-serif" font-weight="bold" font-size="12" text-anchor="end" dominant-baseline="middle">ba</text>
  <text x="60" y="135" fill="white" font-family="sans-serif" font-weight="bold" font-size="12" text-anchor="end" dominant-baseline="middle">det</text>
  <text x="60" y="170" fill="white" font-family="sans-serif" font-weight="bold" font-size="12" text-anchor="end" dominant-baseline="middle">gmm</text>
  <text x="60" y="205" fill="white" font-family="sans-serif" font-weight="bold" font-size="12" text-anchor="end" dominant-baseline="middle">hello</text>
  <text x="60" y="240" fill="white" font-family="sans-serif" font-weight="bold" font-size="12" text-anchor="end" dominant-baseline="middle">ht</text>
  <text x="60" y="275" fill="white" font-family="sans-serif" font-weight="bold" font-size="12" text-anchor="end" dominant-baseline="middle">kmeans</text>
  <text x="60" y="310" fill="white" font-family="sans-serif" font-weight="bold" font-size="12" text-anchor="end" dominant-baseline="middle">llsq</text>
  <text x="60" y="345" fill="white" font-family="sans-serif" font-weight="bold" font-size="12" text-anchor="end" dominant-baseline="middle">lstm</text>
  <text x="60" y="380" fill="white" font-family="sans-serif" font-weight="bold" font-size="12" text-anchor="end" dominant-baseline="middle">ode</text>
  <text x="60" y="415" fill="white" font-family="sans-serif" font-weight="bold" font-size="12" text-anchor="end" dominant-baseline="middle">particle</text>
  <text x="60" y="450" fill="white" font-family="sans-serif" font-weight="bold" font-size="12" text-anchor="end" dominant-baseline="middle">saddle</text>
  <text x="80" y="80" fill="white" font-family="sans-serif" font-weight="bold" font-size="12" text-anchor="end" dominant-baseline="middle" transform="rotate(90 80 80)">adept</text>
  <text x="115" y="80" fill="white" font-family="sans-serif" font-weight="bold" font-size="12" text-anchor="end" dominant-baseline="middle" transform="rotate(90 115 80)">adol-c</text>
  <text x="150" y="80" fill="white" font-family="sans-serif" font-weight="bold" font-size="12" text-anchor="end" dominant-baseline="middle" transform="rotate(90 150 80)">codipack</text>
  <text x="185" y="80" fill="white" font-family="sans-serif" font-weight="bold" font-size="12" text-anchor="end" dominant-baseline="middle" transform="rotate(90 185 80)">cppad</text>
  <text x="220" y="80" fill="white" font-family="sans-serif" font-weight="bold" font-size="12" text-anchor="end" dominant-baseline="middle" transform="rotate(90 220 80)">enzyme</text>
  <text x="255" y="80" fill="white" font-family="sans-serif" font-weight="bold" font-size="12" text-anchor="end" dominant-baseline="middle" transform="rotate(90 255 80)">enzyme-jl</text>
  <text x="290" y="80" fill="white" font-family="sans-serif" font-weight="bold" font-size="12" text-anchor="end" dominant-baseline="middle" transform="rotate(90 290 80)">finite</text>
  <text x="325" y="80" fill="white" font-family="sans-serif" font-weight="bold" font-size="12" text-anchor="end" dominant-baseline="middle" transform="rotate(90 325 80)">floretta</text>
  <text x="360" y="80" fill="white" font-family="sans-serif" font-weight="bold" font-size="12" text-anchor="end" dominant-baseline="middle" transform="rotate(90 360 80)">futhark</text>
  <text x="395" y="80" fill="white" font-family="sans-serif" font-weight="bold" font-size="12" text-anchor="end" dominant-baseline="middle" transform="rotate(90 395 80)">haskell</text>
  <text x="430" y="80" fill="white" font-family="sans-serif" font-weight="bold" font-size="12" text-anchor="end" dominant-baseline="middle" transform="rotate(90 430 80)">jax</text>
  <text x="465" y="80" fill="white" font-family="sans-serif" font-weight="bold" font-size="12" text-anchor="end" dominant-baseline="middle" transform="rotate(90 465 80)">manual</text>
  <text x="500" y="80" fill="white" font-family="sans-serif" font-weight="bold" font-size="12" text-anchor="end" dominant-baseline="middle" transform="rotate(90 500 80)">ocaml</text>
  <text x="535" y="80" fill="white" font-family="sans-serif" font-weight="bold" font-size="12" text-anchor="end" dominant-baseline="middle" transform="rotate(90 535 80)">pytorch</text>
  <text x="570" y="80" fill="white" font-family="sans-serif" font-weight="bold" font-size="12" text-anchor="end" dominant-baseline="middle" transform="rotate(90 570 80)">scilean</text>
  <text x="605" y="80" fill="white" font-family="sans-serif" font-weight="bold" font-size="12" text-anchor="end" dominant-baseline="middle" transform="rotate(90 605 80)">tapenade</text>
  <text x="640" y="80" fill="white" font-family="sans-serif" font-weight="bold" font-size="12" text-anchor="end" dominant-baseline="middle" transform="rotate(90 640 80)">tensorflow</text>
  <text x="675" y="80" fill="white" font-family="sans-serif" font-weight="bold" font-size="12" text-anchor="end" dominant-baseline="middle" transform="rotate(90 675 80)">zygote</text>
  <rect x="65" y="85" width="30" height="30" fill="hsl(240 100% 83.32641287866308%)" />
  <rect x="100" y="85" width="30" height="30" fill="hsl(240 100% 97.77576509211255%)" />
  <rect x="135" y="85" width="30" height="30" fill="hsl(240 100% 88.72577812192344%)" />
  <rect x="205" y="85" width="30" height="30" fill="hsl(240 100% 50%)" />
  <rect x="275" y="85" width="30" height="30" fill="hsl(240 100% 92.50634932267417%)" />
  <rect x="345" y="85" width="30" height="30" fill="hsl(240 100% 68.12251915151325%)" />
  <rect x="450" y="85" width="30" height="30" fill="hsl(240 100% 52.13582942853519%)" />
  <rect x="520" y="85" width="30" height="30" fill="rgb(255 255 255 / 50%)" />
  <rect x="590" y="85" width="30" height="30" fill="hsl(240 100% 72.15373229001646%)" />
  <rect x="625" y="85" width="30" height="30" fill="rgb(255 255 255 / 50%)" />
  <rect x="65" y="120" width="30" height="30" fill="hsl(240 100% 84.03604028199413%)" />
  <rect x="100" y="120" width="30" height="30" fill="hsl(240 100% 85.25445279334139%)" />
  <rect x="135" y="120" width="30" height="30" fill="hsl(240 100% 50%)" />
  <rect x="170" y="120" width="30" height="30" fill="hsl(240 100% 92.68156852420087%)" />
  <rect x="205" y="120" width="30" height="30" fill="hsl(240 100% 91.59214518029202%)" />
  <rect x="275" y="120" width="30" height="30" fill="hsl(240 100% 98.97268605663318%)" />
  <rect x="345" y="120" width="30" height="30" fill="hsl(240 100% 94.69285764563395%)" />
  <rect x="380" y="120" width="30" height="30" fill="hsl(240 100% 97.9130584405246%)" />
  <rect x="450" y="120" width="30" height="30" fill="hsl(240 100% 79.4762769514115%)" />
  <rect x="65" y="155" width="30" height="30" fill="hsl(240 100% 98.3537650008594%)" />
  <rect x="100" y="155" width="30" height="30" fill="hsl(240 100% 98.8766833505857%)" />
  <rect x="135" y="155" width="30" height="30" fill="hsl(240 100% 97.31952643388567%)" />
  <rect x="170" y="155" width="30" height="30" fill="hsl(240 100% 99.78318535334785%)" />
  <rect x="205" y="155" width="30" height="30" fill="hsl(240 100% 87.7006221752737%)" />
  <rect x="275" y="155" width="30" height="30" fill="rgb(255 255 255 / 50%)" />
  <rect x="345" y="155" width="30" height="30" fill="hsl(240 100% 90.43295798556893%)" />
  <rect x="415" y="155" width="30" height="30" fill="hsl(240 100% 74.1104919707695%)" />
  <rect x="450" y="155" width="30" height="30" fill="hsl(240 100% 76.79086361290682%)" />
  <rect x="485" y="155" width="30" height="30" fill="hsl(240 100% 99.41315049815651%)" />
  <rect x="520" y="155" width="30" height="30" fill="hsl(240 100% 50%)" />
  <rect x="555" y="155" width="30" height="30" fill="hsl(240 100% 93.0004739364516%)" />
  <rect x="590" y="155" width="30" height="30" fill="hsl(240 100% 77.5954353550827%)" />
  <rect x="625" y="155" width="30" height="30" fill="hsl(240 100% 89.31393716366969%)" />
  <rect x="65" y="190" width="30" height="30" fill="hsl(240 100% 50%)" />
  <rect x="100" y="190" width="30" height="30" fill="hsl(240 100% 50%)" />
  <rect x="135" y="190" width="30" height="30" fill="hsl(240 100% 50%)" />
  <rect x="170" y="190" width="30" height="30" fill="hsl(240 100% 50%)" />
  <rect x="205" y="190" width="30" height="30" fill="hsl(240 100% 50%)" />
  <rect x="240" y="190" width="30" height="30" fill="hsl(240 100% 50%)" />
  <rect x="275" y="190" width="30" height="30" fill="hsl(240 100% 50%)" />
  <rect x="310" y="190" width="30" height="30" fill="hsl(240 100% 50%)" />
  <rect x="345" y="190" width="30" height="30" fill="hsl(240 100% 50%)" />
  <rect x="380" y="190" width="30" height="30" fill="hsl(240 100% 50%)" />
  <rect x="415" y="190" width="30" height="30" fill="hsl(240 100% 50%)" />
  <rect x="450" y="190" width="30" height="30" fill="hsl(240 100% 50%)" />
  <rect x="485" y="190" width="30" height="30" fill="hsl(240 100% 50%)" />
  <rect x="520" y="190" width="30" height="30" fill="hsl(240 100% 50%)" />
  <rect x="555" y="190" width="30" height="30" fill="hsl(240 100% 50%)" />
  <rect x="590" y="190" width="30" height="30" fill="hsl(240 100% 50%)" />
  <rect x="625" y="190" width="30" height="30" fill="hsl(240 100% 50%)" />
  <rect x="660" y="190" width="30" height="30" fill="hsl(240 100% 50%)" />
  <rect x="65" y="225" width="30" height="30" fill="hsl(240 100% 95.6056855228659%)" />
  <rect x="100" y="225" width="30" height="30" fill="hsl(240 100% 90.87521496870671%)" />
  <rect x="135" y="225" width="30" height="30" fill="hsl(240 100% 86.98766203068566%)" />
  <rect x="205" y="225" width="30" height="30" fill="hsl(240 100% 89.01682775364017%)" />
  <rect x="275" y="225" width="30" height="30" fill="rgb(255 255 255 / 50%)" />
  <rect x="345" y="225" width="30" height="30" fill="hsl(240 100% 88.47441838098356%)" />
  <rect x="450" y="225" width="30" height="30" fill="hsl(240 100% 50%)" />
  <rect x="520" y="225" width="30" height="30" fill="rgb(255 255 255 / 50%)" />
  <rect x="590" y="225" width="30" height="30" fill="rgb(255 255 255 / 50%)" />
  <rect x="625" y="225" width="30" height="30" fill="rgb(255 255 255 / 50%)" />
  <rect x="100" y="260" width="30" height="30" fill="hsl(240 100% 99.88715855026369%)" />
  <rect x="135" y="260" width="30" height="30" fill="hsl(240 100% 99.39829803749286%)" />
  <rect x="170" y="260" width="30" height="30" fill="rgb(255 255 255 / 50%)" />
  <rect x="205" y="260" width="30" height="30" fill="hsl(240 100% 87.12012018807062%)" />
  <rect x="275" y="260" width="30" height="30" fill="rgb(255 255 255 / 50%)" />
  <rect x="345" y="260" width="30" height="30" fill="hsl(240 100% 82.43051745800636%)" />
  <rect x="380" y="260" width="30" height="30" fill="rgb(255 255 255 / 50%)" />
  <rect x="415" y="260" width="30" height="30" fill="hsl(240 100% 50%)" />
  <rect x="450" y="260" width="30" height="30" fill="hsl(240 100% 76.07654010029962%)" />
  <rect x="520" y="260" width="30" height="30" fill="hsl(240 100% 96.93469151631581%)" />
  <rect x="555" y="260" width="30" height="30" fill="hsl(240 100% 93.96804536184274%)" />
  <rect x="65" y="295" width="30" height="30" fill="hsl(240 100% 67.0399721788124%)" />
  <rect x="100" y="295" width="30" height="30" fill="hsl(240 100% 59.232539188531646%)" />
  <rect x="135" y="295" width="30" height="30" fill="hsl(240 100% 60.07980905030874%)" />
  <rect x="170" y="295" width="30" height="30" fill="hsl(240 100% 91.37992024286251%)" />
  <rect x="205" y="295" width="30" height="30" fill="hsl(240 100% 50%)" />
  <rect x="275" y="295" width="30" height="30" fill="hsl(240 100% 99.4265750360722%)" />
  <rect x="345" y="295" width="30" height="30" fill="hsl(240 100% 50.42929631350948%)" />
  <rect x="380" y="295" width="30" height="30" fill="hsl(240 100% 89.7843868234921%)" />
  <rect x="450" y="295" width="30" height="30" fill="hsl(240 100% 53.40299630928192%)" />
  <rect x="555" y="295" width="30" height="30" fill="hsl(240 100% 55.36498887048536%)" />
  <rect x="65" y="330" width="30" height="30" fill="hsl(240 100% 68.77432947134008%)" />
  <rect x="100" y="330" width="30" height="30" fill="hsl(240 100% 81.0474772991595%)" />
  <rect x="135" y="330" width="30" height="30" fill="hsl(240 100% 50%)" />
  <rect x="170" y="330" width="30" height="30" fill="hsl(240 100% 95.80651861109234%)" />
  <rect x="205" y="330" width="30" height="30" fill="hsl(240 100% 50.6926710904393%)" />
  <rect x="275" y="330" width="30" height="30" fill="hsl(240 100% 99.85272631939154%)" />
  <rect x="345" y="330" width="30" height="30" fill="hsl(240 100% 63.221254866625074%)" />
  <rect x="450" y="330" width="30" height="30" fill="hsl(240 100% 84.65591009658793%)" />
  <rect x="520" y="330" width="30" height="30" fill="hsl(240 100% 99.60014800155517%)" />
  <rect x="590" y="330" width="30" height="30" fill="hsl(240 100% 60.205357704497835%)" />
  <rect x="625" y="330" width="30" height="30" fill="hsl(240 100% 97.98500256001775%)" />
  <rect x="65" y="365" width="30" height="30" fill="hsl(240 100% 99.22947775707274%)" />
  <rect x="100" y="365" width="30" height="30" fill="hsl(240 100% 99.56317383536758%)" />
  <rect x="135" y="365" width="30" height="30" fill="hsl(240 100% 93.6587968724721%)" />
  <rect x="170" y="365" width="30" height="30" fill="hsl(240 100% 98.97555773239668%)" />
  <rect x="205" y="365" width="30" height="30" fill="hsl(240 100% 86.82924897914009%)" />
  <rect x="240" y="365" width="30" height="30" fill="hsl(240 100% 99.05770597686671%)" />
  <rect x="275" y="365" width="30" height="30" fill="rgb(255 255 255 / 50%)" />
  <rect x="345" y="365" width="30" height="30" fill="hsl(240 100% 95.29916911162131%)" />
  <rect x="380" y="365" width="30" height="30" fill="hsl(240 100% 99.96476683601433%)" />
  <rect x="450" y="365" width="30" height="30" fill="hsl(240 100% 50%)" />
  <rect x="205" y="400" width="30" height="30" fill="hsl(240 100% 50%)" />
  <rect x="275" y="400" width="30" height="30" fill="hsl(240 100% 95.20872111494461%)" />
  <rect x="345" y="400" width="30" height="30" fill="hsl(240 100% 87.93044161879018%)" />
  <rect x="380" y="400" width="30" height="30" fill="hsl(240 100% 99.76732593227973%)" />
  <rect x="205" y="435" width="30" height="30" fill="hsl(240 100% 50%)" />
  <rect x="275" y="435" width="30" height="30" fill="hsl(240 100% 95.82227382403923%)" />
  <rect x="345" y="435" width="30" height="30" fill="hsl(240 100% 89.15625456763118%)" />
  <rect x="380" y="435" width="30" height="30" fill="hsl(240 100% 99.55640760590445%)" />
</svg>
