<svg xmlns="http://www.w3.org/2000/svg" viewBox="0 0 870 505">
  <rect x="0" y="0" width="870" height="505" rx="5" ry="5" fill="#222" />
  <text x="60" y="100" fill="white" font-family="sans-serif" font-weight="bold" font-size="12" text-anchor="end" dominant-baseline="middle">ba</text>
  <text x="60" y="135" fill="white" font-family="sans-serif" font-weight="bold" font-size="12" text-anchor="end" dominant-baseline="middle">det</text>
  <text x="60" y="170" fill="white" font-family="sans-serif" font-weight="bold" font-size="12" text-anchor="end" dominant-baseline="middle">gmm</text>
  <text x="60" y="205" fill="white" font-family="sans-serif" font-weight="bold" font-size="12" text-anchor="end" dominant-baseline="middle">hello</text>
  <text x="60" y="240" fill="white" font-family="sans-serif" font-weight="bold" font-size="12" text-anchor="end" dominant-baseline="middle">ht</text>
  <text x="60" y="275" fill="white" font-family="sans-serif" font-weight="bold" font-size="12" text-anchor="end" dominant-baseline="middle">kmeans</text>
  <text x="60" y="310" fill="white" font-family="sans-serif" font-weight="bold" font-size="12" text-anchor="end" dominant-baseline="middle">llsq</text>
  <text x="60" y="345" fill="white" font-family="sans-serif" font-weight="bold" font-size="12" text-anchor="end" dominant-baseline="middle">lse</text>
  <text x="60" y="380" fill="white" font-family="sans-serif" font-weight="bold" font-size="12" text-anchor="end" dominant-baseline="middle">lstm</text>
  <text x="60" y="415" fill="white" font-family="sans-serif" font-weight="bold" font-size="12" text-anchor="end" dominant-baseline="middle">ode</text>
  <text x="60" y="450" fill="white" font-family="sans-serif" font-weight="bold" font-size="12" text-anchor="end" dominant-baseline="middle">particle</text>
  <text x="60" y="485" fill="white" font-family="sans-serif" font-weight="bold" font-size="12" text-anchor="end" dominant-baseline="middle">saddle</text>
  <text x="80" y="80" fill="white" font-family="sans-serif" font-weight="bold" font-size="12" text-anchor="end" dominant-baseline="middle" transform="rotate(90 80 80)">ad-hpp</text>
  <text x="115" y="80" fill="white" font-family="sans-serif" font-weight="bold" font-size="12" text-anchor="end" dominant-baseline="middle" transform="rotate(90 115 80)">adept</text>
  <text x="150" y="80" fill="white" font-family="sans-serif" font-weight="bold" font-size="12" text-anchor="end" dominant-baseline="middle" transform="rotate(90 150 80)">adol-c</text>
  <text x="185" y="80" fill="white" font-family="sans-serif" font-weight="bold" font-size="12" text-anchor="end" dominant-baseline="middle" transform="rotate(90 185 80)">codipack</text>
  <text x="220" y="80" fill="white" font-family="sans-serif" font-weight="bold" font-size="12" text-anchor="end" dominant-baseline="middle" transform="rotate(90 220 80)">cppad</text>
  <text x="255" y="80" fill="white" font-family="sans-serif" font-weight="bold" font-size="12" text-anchor="end" dominant-baseline="middle" transform="rotate(90 255 80)">enzyme</text>
  <text x="290" y="80" fill="white" font-family="sans-serif" font-weight="bold" font-size="12" text-anchor="end" dominant-baseline="middle" transform="rotate(90 290 80)">enzyme-jl</text>
  <text x="325" y="80" fill="white" font-family="sans-serif" font-weight="bold" font-size="12" text-anchor="end" dominant-baseline="middle" transform="rotate(90 325 80)">finite</text>
  <text x="360" y="80" fill="white" font-family="sans-serif" font-weight="bold" font-size="12" text-anchor="end" dominant-baseline="middle" transform="rotate(90 360 80)">floretta</text>
  <text x="395" y="80" fill="white" font-family="sans-serif" font-weight="bold" font-size="12" text-anchor="end" dominant-baseline="middle" transform="rotate(90 395 80)">forwarddiff-jl</text>
  <text x="430" y="80" fill="white" font-family="sans-serif" font-weight="bold" font-size="12" text-anchor="end" dominant-baseline="middle" transform="rotate(90 430 80)">futhark</text>
  <text x="465" y="80" fill="white" font-family="sans-serif" font-weight="bold" font-size="12" text-anchor="end" dominant-baseline="middle" transform="rotate(90 465 80)">haskell</text>
  <text x="500" y="80" fill="white" font-family="sans-serif" font-weight="bold" font-size="12" text-anchor="end" dominant-baseline="middle" transform="rotate(90 500 80)">jax</text>
  <text x="535" y="80" fill="white" font-family="sans-serif" font-weight="bold" font-size="12" text-anchor="end" dominant-baseline="middle" transform="rotate(90 535 80)">manual</text>
  <text x="570" y="80" fill="white" font-family="sans-serif" font-weight="bold" font-size="12" text-anchor="end" dominant-baseline="middle" transform="rotate(90 570 80)">mooncake-jl</text>
  <text x="605" y="80" fill="white" font-family="sans-serif" font-weight="bold" font-size="12" text-anchor="end" dominant-baseline="middle" transform="rotate(90 605 80)">ocaml</text>
  <text x="640" y="80" fill="white" font-family="sans-serif" font-weight="bold" font-size="12" text-anchor="end" dominant-baseline="middle" transform="rotate(90 640 80)">pytorch</text>
  <text x="675" y="80" fill="white" font-family="sans-serif" font-weight="bold" font-size="12" text-anchor="end" dominant-baseline="middle" transform="rotate(90 675 80)">reversediff-jl</text>
  <text x="710" y="80" fill="white" font-family="sans-serif" font-weight="bold" font-size="12" text-anchor="end" dominant-baseline="middle" transform="rotate(90 710 80)">scilean</text>
  <text x="745" y="80" fill="white" font-family="sans-serif" font-weight="bold" font-size="12" text-anchor="end" dominant-baseline="middle" transform="rotate(90 745 80)">tapenade</text>
  <text x="780" y="80" fill="white" font-family="sans-serif" font-weight="bold" font-size="12" text-anchor="end" dominant-baseline="middle" transform="rotate(90 780 80)">tensorflow</text>
  <text x="815" y="80" fill="white" font-family="sans-serif" font-weight="bold" font-size="12" text-anchor="end" dominant-baseline="middle" transform="rotate(90 815 80)">tensorflow-js</text>
  <text x="850" y="80" fill="white" font-family="sans-serif" font-weight="bold" font-size="12" text-anchor="end" dominant-baseline="middle" transform="rotate(90 850 80)">zygote</text>
  <rect x="65" y="85" width="30" height="30" fill="hsl(240 100% 81.61554435139699%)" />
  <rect x="100" y="85" width="30" height="30" fill="hsl(240 100% 83.63990361968392%)" />
  <rect x="135" y="85" width="30" height="30" fill="hsl(240 100% 98.04866256754148%)" />
  <rect x="170" y="85" width="30" height="30" fill="hsl(240 100% 83.47924767955932%)" />
  <rect x="205" y="85" width="30" height="30" fill="hsl(240 100% 99.03165622952365%)" />
  <rect x="240" y="85" width="30" height="30" fill="hsl(240 100% 53.28777624626577%)" />
  <rect x="310" y="85" width="30" height="30" fill="hsl(240 100% 93.68418788163109%)" />
  <rect x="415" y="85" width="30" height="30" fill="hsl(240 100% 69.28232834002856%)" />
  <rect x="520" y="85" width="30" height="30" fill="hsl(240 100% 50%)" />
  <rect x="625" y="85" width="30" height="30" fill="rgb(255 255 255 / 50%)" />
  <rect x="730" y="85" width="30" height="30" fill="hsl(240 100% 75.68057825284566%)" />
  <rect x="765" y="85" width="30" height="30" fill="rgb(255 255 255 / 50%)" />
  <rect x="835" y="85" width="30" height="30" fill="hsl(240 100% 99.75072253172507%)" />
  <rect x="65" y="120" width="30" height="30" fill="hsl(240 100% 50%)" />
  <rect x="100" y="120" width="30" height="30" fill="hsl(240 100% 82.30114007870488%)" />
  <rect x="135" y="120" width="30" height="30" fill="hsl(240 100% 85.60307267535516%)" />
  <rect x="170" y="120" width="30" height="30" fill="hsl(240 100% 51.770051956527844%)" />
  <rect x="205" y="120" width="30" height="30" fill="hsl(240 100% 92.5287665505572%)" />
  <rect x="240" y="120" width="30" height="30" fill="hsl(240 100% 91.51634806868152%)" />
  <rect x="275" y="120" width="30" height="30" fill="hsl(240 100% 99.35420938795968%)" />
  <rect x="310" y="120" width="30" height="30" fill="hsl(240 100% 98.98009601849031%)" />
  <rect x="380" y="120" width="30" height="30" fill="hsl(240 100% 93.32288601839078%)" />
  <rect x="415" y="120" width="30" height="30" fill="hsl(240 100% 94.57504951675463%)" />
  <rect x="450" y="120" width="30" height="30" fill="hsl(240 100% 97.8672416436161%)" />
  <rect x="520" y="120" width="30" height="30" fill="hsl(240 100% 90.82629645781768%)" />
  <rect x="555" y="120" width="30" height="30" fill="hsl(240 100% 90.11271904028233%)" />
  <rect x="660" y="120" width="30" height="30" fill="rgb(255 255 255 / 50%)" />
  <rect x="835" y="120" width="30" height="30" fill="rgb(255 255 255 / 50%)" />
  <rect x="65" y="155" width="30" height="30" fill="hsl(240 100% 98.39269238197195%)" />
  <rect x="100" y="155" width="30" height="30" fill="hsl(240 100% 98.77382404100231%)" />
  <rect x="135" y="155" width="30" height="30" fill="hsl(240 100% 99.08976157639515%)" />
  <rect x="170" y="155" width="30" height="30" fill="hsl(240 100% 98.00006019692835%)" />
  <rect x="205" y="155" width="30" height="30" fill="hsl(240 100% 99.84565539730535%)" />
  <rect x="240" y="155" width="30" height="30" fill="hsl(240 100% 90.81606595569943%)" />
  <rect x="275" y="155" width="30" height="30" fill="hsl(240 100% 92.72137129850678%)" />
  <rect x="310" y="155" width="30" height="30" fill="rgb(255 255 255 / 50%)" />
  <rect x="415" y="155" width="30" height="30" fill="hsl(240 100% 92.75744988833118%)" />
  <rect x="485" y="155" width="30" height="30" fill="hsl(240 100% 50%)" />
  <rect x="520" y="155" width="30" height="30" fill="hsl(240 100% 83.14516608556083%)" />
  <rect x="590" y="155" width="30" height="30" fill="hsl(240 100% 99.56442565186805%)" />
  <rect x="625" y="155" width="30" height="30" fill="hsl(240 100% 67.85913997801316%)" />
  <rect x="695" y="155" width="30" height="30" fill="hsl(240 100% 95.27899459045034%)" />
  <rect x="730" y="155" width="30" height="30" fill="hsl(240 100% 82.69839750178859%)" />
  <rect x="765" y="155" width="30" height="30" fill="hsl(240 100% 99.57010455317288%)" />
  <rect x="835" y="155" width="30" height="30" fill="hsl(240 100% 95.92096618360591%)" />
  <rect x="65" y="190" width="30" height="30" fill="hsl(240 100% 50%)" />
  <rect x="100" y="190" width="30" height="30" fill="hsl(240 100% 50%)" />
  <rect x="135" y="190" width="30" height="30" fill="hsl(240 100% 50%)" />
  <rect x="170" y="190" width="30" height="30" fill="hsl(240 100% 50%)" />
  <rect x="205" y="190" width="30" height="30" fill="hsl(240 100% 50%)" />
  <rect x="240" y="190" width="30" height="30" fill="hsl(240 100% 50%)" />
  <rect x="275" y="190" width="30" height="30" fill="hsl(240 100% 50%)" />
  <rect x="310" y="190" width="30" height="30" fill="hsl(240 100% 50%)" />
  <rect x="345" y="190" width="30" height="30" fill="hsl(240 100% 50%)" />
  <rect x="380" y="190" width="30" height="30" fill="hsl(240 100% 50%)" />
  <rect x="415" y="190" width="30" height="30" fill="hsl(240 100% 50%)" />
  <rect x="450" y="190" width="30" height="30" fill="hsl(240 100% 50%)" />
  <rect x="485" y="190" width="30" height="30" fill="hsl(240 100% 50%)" />
  <rect x="520" y="190" width="30" height="30" fill="hsl(240 100% 50%)" />
  <rect x="555" y="190" width="30" height="30" fill="hsl(240 100% 50%)" />
  <rect x="590" y="190" width="30" height="30" fill="hsl(240 100% 50%)" />
  <rect x="625" y="190" width="30" height="30" fill="hsl(240 100% 50%)" />
  <rect x="660" y="190" width="30" height="30" fill="hsl(240 100% 50%)" />
  <rect x="695" y="190" width="30" height="30" fill="hsl(240 100% 50%)" />
  <rect x="730" y="190" width="30" height="30" fill="hsl(240 100% 50%)" />
  <rect x="765" y="190" width="30" height="30" fill="hsl(240 100% 50%)" />
  <rect x="800" y="190" width="30" height="30" fill="hsl(240 100% 50%)" />
  <rect x="835" y="190" width="30" height="30" fill="hsl(240 100% 50%)" />
  <rect x="100" y="225" width="30" height="30" fill="hsl(240 100% 96.6977678156451%)" />
  <rect x="135" y="225" width="30" height="30" fill="hsl(240 100% 89.15601712807229%)" />
  <rect x="170" y="225" width="30" height="30" fill="hsl(240 100% 89.22530525228785%)" />
  <rect x="240" y="225" width="30" height="30" fill="hsl(240 100% 91.25888657775285%)" />
  <rect x="310" y="225" width="30" height="30" fill="rgb(255 255 255 / 50%)" />
  <rect x="415" y="225" width="30" height="30" fill="hsl(240 100% 90.50524862668622%)" />
  <rect x="520" y="225" width="30" height="30" fill="hsl(240 100% 50%)" />
  <rect x="625" y="225" width="30" height="30" fill="rgb(255 255 255 / 50%)" />
  <rect x="730" y="225" width="30" height="30" fill="hsl(240 100% 93.16372363250073%)" />
  <rect x="765" y="225" width="30" height="30" fill="rgb(255 255 255 / 50%)" />
  <rect x="835" y="225" width="30" height="30" fill="hsl(240 100% 94.1543666980385%)" />
  <rect x="65" y="260" width="30" height="30" fill="hsl(240 100% 99.85622383957542%)" />
  <rect x="135" y="260" width="30" height="30" fill="hsl(240 100% 99.85650673857876%)" />
  <rect x="170" y="260" width="30" height="30" fill="hsl(240 100% 98.97412984018455%)" />
  <rect x="205" y="260" width="30" height="30" fill="rgb(255 255 255 / 50%)" />
  <rect x="240" y="260" width="30" height="30" fill="hsl(240 100% 87.02211746420727%)" />
  <rect x="310" y="260" width="30" height="30" fill="rgb(255 255 255 / 50%)" />
  <rect x="415" y="260" width="30" height="30" fill="hsl(240 100% 80.62026159647344%)" />
  <rect x="450" y="260" width="30" height="30" fill="rgb(255 255 255 / 50%)" />
  <rect x="485" y="260" width="30" height="30" fill="hsl(240 100% 50%)" />
  <rect x="520" y="260" width="30" height="30" fill="hsl(240 100% 71.07895247029043%)" />
  <rect x="625" y="260" width="30" height="30" fill="hsl(240 100% 96.95743560366883%)" />
  <rect x="695" y="260" width="30" height="30" fill="hsl(240 100% 94.10680989347614%)" />
  <rect x="65" y="295" width="30" height="30" fill="hsl(240 100% 85.80530400491286%)" />
  <rect x="100" y="295" width="30" height="30" fill="hsl(240 100% 97.5083323605605%)" />
  <rect x="135" y="295" width="30" height="30" fill="hsl(240 100% 95.01204573612188%)" />
  <rect x="170" y="295" width="30" height="30" fill="hsl(240 100% 90.5738666692663%)" />
  <rect x="205" y="295" width="30" height="30" fill="hsl(240 100% 99.45052750109272%)" />
  <rect x="240" y="295" width="30" height="30" fill="hsl(240 100% 50%)" />
  <rect x="275" y="295" width="30" height="30" fill="hsl(240 100% 50.19660177068395%)" />
  <rect x="310" y="295" width="30" height="30" fill="hsl(240 100% 99.4933789832557%)" />
  <rect x="345" y="295" width="30" height="30" fill="hsl(240 100% 94.62341820727072%)" />
  <rect x="415" y="295" width="30" height="30" fill="hsl(240 100% 54.68662829705499%)" />
  <rect x="450" y="295" width="30" height="30" fill="hsl(240 100% 99.32566042120638%)" />
  <rect x="485" y="295" width="30" height="30" fill="hsl(240 100% 88.30028370673745%)" />
  <rect x="520" y="295" width="30" height="30" fill="hsl(240 100% 57.34493408333127%)" />
  <rect x="695" y="295" width="30" height="30" fill="hsl(240 100% 97.57701655207708%)" />
  <rect x="800" y="295" width="30" height="30" fill="hsl(240 100% 99.57440413916714%)" />
  <rect x="835" y="295" width="30" height="30" fill="hsl(240 100% 99.95267174523038%)" />
  <rect x="65" y="330" width="30" height="30" fill="hsl(240 100% 87.89381629960832%)" />
  <rect x="100" y="330" width="30" height="30" fill="hsl(240 100% 94.38484880716858%)" />
  <rect x="135" y="330" width="30" height="30" fill="hsl(240 100% 96.91367367861777%)" />
  <rect x="170" y="330" width="30" height="30" fill="hsl(240 100% 87.50830350105551%)" />
  <rect x="205" y="330" width="30" height="30" fill="hsl(240 100% 99.16880860916496%)" />
  <rect x="240" y="330" width="30" height="30" fill="hsl(240 100% 77.55660113596203%)" />
  <rect x="275" y="330" width="30" height="30" fill="hsl(240 100% 86.86929877908082%)" />
  <rect x="310" y="330" width="30" height="30" fill="rgb(255 255 255 / 50%)" />
  <rect x="345" y="330" width="30" height="30" fill="hsl(240 100% 96.9755230551313%)" />
  <rect x="415" y="330" width="30" height="30" fill="hsl(240 100% 84.54794727449095%)" />
  <rect x="450" y="330" width="30" height="30" fill="hsl(240 100% 99.79610449684216%)" />
  <rect x="485" y="330" width="30" height="30" fill="hsl(240 100% 67.6174735683522%)" />
  <rect x="520" y="330" width="30" height="30" fill="hsl(240 100% 74.6809421144217%)" />
  <rect x="590" y="330" width="30" height="30" fill="hsl(240 100% 93.24102082814291%)" />
  <rect x="625" y="330" width="30" height="30" fill="hsl(240 100% 50%)" />
  <rect x="765" y="330" width="30" height="30" fill="hsl(240 100% 94.64506926130512%)" />
  <rect x="800" y="330" width="30" height="30" fill="hsl(240 100% 99.14902693759534%)" />
  <rect x="835" y="330" width="30" height="30" fill="hsl(240 100% 79.37573397129228%)" />
  <rect x="65" y="365" width="30" height="30" fill="hsl(240 100% 57.711293679515755%)" />
  <rect x="100" y="365" width="30" height="30" fill="hsl(240 100% 72.04824429777058%)" />
  <rect x="135" y="365" width="30" height="30" fill="hsl(240 100% 82.23928539727797%)" />
  <rect x="170" y="365" width="30" height="30" fill="hsl(240 100% 50%)" />
  <rect x="205" y="365" width="30" height="30" fill="hsl(240 100% 96.27722295813949%)" />
  <rect x="240" y="365" width="30" height="30" fill="hsl(240 100% 59.74692424694067%)" />
  <rect x="275" y="365" width="30" height="30" fill="hsl(240 100% 92.75765334204898%)" />
  <rect x="310" y="365" width="30" height="30" fill="hsl(240 100% 99.8632084764656%)" />
  <rect x="415" y="365" width="30" height="30" fill="hsl(240 100% 67.07451177002311%)" />
  <rect x="520" y="365" width="30" height="30" fill="hsl(240 100% 86.09292993544788%)" />
  <rect x="625" y="365" width="30" height="30" fill="hsl(240 100% 99.64606158065543%)" />
  <rect x="730" y="365" width="30" height="30" fill="hsl(240 100% 63.87376700810486%)" />
  <rect x="765" y="365" width="30" height="30" fill="hsl(240 100% 98.20368765235249%)" />
  <rect x="835" y="365" width="30" height="30" fill="hsl(240 100% 98.79107964719061%)" />
  <rect x="65" y="400" width="30" height="30" fill="hsl(240 100% 98.20188471706005%)" />
  <rect x="100" y="400" width="30" height="30" fill="hsl(240 100% 99.41031622016581%)" />
  <rect x="135" y="400" width="30" height="30" fill="hsl(240 100% 99.67317451310501%)" />
  <rect x="170" y="400" width="30" height="30" fill="hsl(240 100% 95.41139265352493%)" />
  <rect x="205" y="400" width="30" height="30" fill="hsl(240 100% 99.23983119940799%)" />
  <rect x="240" y="400" width="30" height="30" fill="hsl(240 100% 86.00856259501728%)" />
  <rect x="275" y="400" width="30" height="30" fill="hsl(240 100% 95.35078611495783%)" />
  <rect x="310" y="400" width="30" height="30" fill="rgb(255 255 255 / 50%)" />
  <rect x="380" y="400" width="30" height="30" fill="rgb(255 255 255 / 50%)" />
  <rect x="415" y="400" width="30" height="30" fill="hsl(240 100% 94.03630778024144%)" />
  <rect x="450" y="400" width="30" height="30" fill="hsl(240 100% 99.97098120897317%)" />
  <rect x="485" y="400" width="30" height="30" fill="hsl(240 100% 79.10990156880811%)" />
  <rect x="520" y="400" width="30" height="30" fill="hsl(240 100% 50%)" />
  <rect x="555" y="400" width="30" height="30" fill="hsl(240 100% 99.12866146832815%)" />
  <rect x="660" y="400" width="30" height="30" fill="rgb(255 255 255 / 50%)" />
  <rect x="835" y="400" width="30" height="30" fill="hsl(240 100% 99.10515778307725%)" />
  <rect x="65" y="435" width="30" height="30" fill="hsl(240 100% 92.92792827325802%)" />
  <rect x="240" y="435" width="30" height="30" fill="hsl(240 100% 50%)" />
  <rect x="310" y="435" width="30" height="30" fill="hsl(240 100% 94.3048069881281%)" />
  <rect x="415" y="435" width="30" height="30" fill="hsl(240 100% 87.02194354038308%)" />
  <rect x="450" y="435" width="30" height="30" fill="hsl(240 100% 99.78276209972142%)" />
  <rect x="65" y="470" width="30" height="30" fill="hsl(240 100% 50%)" />
  <rect x="240" y="470" width="30" height="30" fill="hsl(240 100% 50.22100912837645%)" />
  <rect x="310" y="470" width="30" height="30" fill="hsl(240 100% 97.14635770231007%)" />
  <rect x="415" y="470" width="30" height="30" fill="hsl(240 100% 89.01290997886991%)" />
  <rect x="450" y="470" width="30" height="30" fill="hsl(240 100% 99.5755587312526%)" />
</svg>
