<svg xmlns="http://www.w3.org/2000/svg" viewBox="0 0 870 505">
  <rect x="0" y="0" width="870" height="505" rx="5" ry="5" fill="#222" />
  <text x="60" y="100" fill="white" font-family="sans-serif" font-weight="bold" font-size="12" text-anchor="end" dominant-baseline="middle">ba</text>
  <text x="60" y="135" fill="white" font-family="sans-serif" font-weight="bold" font-size="12" text-anchor="end" dominant-baseline="middle">det</text>
  <text x="60" y="170" fill="white" font-family="sans-serif" font-weight="bold" font-size="12" text-anchor="end" dominant-baseline="middle">gmm</text>
  <text x="60" y="205" fill="white" font-family="sans-serif" font-weight="bold" font-size="12" text-anchor="end" dominant-baseline="middle">hello</text>
  <text x="60" y="240" fill="white" font-family="sans-serif" font-weight="bold" font-size="12" text-anchor="end" dominant-baseline="middle">ht</text>
  <text x="60" y="275" fill="white" font-family="sans-serif" font-weight="bold" font-size="12" text-anchor="end" dominant-baseline="middle">kmeans</text>
  <text x="60" y="310" fill="white" font-family="sans-serif" font-weight="bold" font-size="12" text-anchor="end" dominant-baseline="middle">llsq</text>
  <text x="60" y="345" fill="white" font-family="sans-serif" font-weight="bold" font-size="12" text-anchor="end" dominant-baseline="middle">lse</text>
  <text x="60" y="380" fill="white" font-family="sans-serif" font-weight="bold" font-size="12" text-anchor="end" dominant-baseline="middle">lstm</text>
  <text x="60" y="415" fill="white" font-family="sans-serif" font-weight="bold" font-size="12" text-anchor="end" dominant-baseline="middle">ode</text>
  <text x="60" y="450" fill="white" font-family="sans-serif" font-weight="bold" font-size="12" text-anchor="end" dominant-baseline="middle">particle</text>
  <text x="60" y="485" fill="white" font-family="sans-serif" font-weight="bold" font-size="12" text-anchor="end" dominant-baseline="middle">saddle</text>
  <text x="80" y="80" fill="white" font-family="sans-serif" font-weight="bold" font-size="12" text-anchor="end" dominant-baseline="middle" transform="rotate(90 80 80)">ad-hpp</text>
  <text x="115" y="80" fill="white" font-family="sans-serif" font-weight="bold" font-size="12" text-anchor="end" dominant-baseline="middle" transform="rotate(90 115 80)">adept</text>
  <text x="150" y="80" fill="white" font-family="sans-serif" font-weight="bold" font-size="12" text-anchor="end" dominant-baseline="middle" transform="rotate(90 150 80)">adol-c</text>
  <text x="185" y="80" fill="white" font-family="sans-serif" font-weight="bold" font-size="12" text-anchor="end" dominant-baseline="middle" transform="rotate(90 185 80)">codipack</text>
  <text x="220" y="80" fill="white" font-family="sans-serif" font-weight="bold" font-size="12" text-anchor="end" dominant-baseline="middle" transform="rotate(90 220 80)">cppad</text>
  <text x="255" y="80" fill="white" font-family="sans-serif" font-weight="bold" font-size="12" text-anchor="end" dominant-baseline="middle" transform="rotate(90 255 80)">enzyme</text>
  <text x="290" y="80" fill="white" font-family="sans-serif" font-weight="bold" font-size="12" text-anchor="end" dominant-baseline="middle" transform="rotate(90 290 80)">enzyme-jl</text>
  <text x="325" y="80" fill="white" font-family="sans-serif" font-weight="bold" font-size="12" text-anchor="end" dominant-baseline="middle" transform="rotate(90 325 80)">finite</text>
  <text x="360" y="80" fill="white" font-family="sans-serif" font-weight="bold" font-size="12" text-anchor="end" dominant-baseline="middle" transform="rotate(90 360 80)">floretta</text>
  <text x="395" y="80" fill="white" font-family="sans-serif" font-weight="bold" font-size="12" text-anchor="end" dominant-baseline="middle" transform="rotate(90 395 80)">forwarddiff-jl</text>
  <text x="430" y="80" fill="white" font-family="sans-serif" font-weight="bold" font-size="12" text-anchor="end" dominant-baseline="middle" transform="rotate(90 430 80)">futhark</text>
  <text x="465" y="80" fill="white" font-family="sans-serif" font-weight="bold" font-size="12" text-anchor="end" dominant-baseline="middle" transform="rotate(90 465 80)">haskell</text>
  <text x="500" y="80" fill="white" font-family="sans-serif" font-weight="bold" font-size="12" text-anchor="end" dominant-baseline="middle" transform="rotate(90 500 80)">jax</text>
  <text x="535" y="80" fill="white" font-family="sans-serif" font-weight="bold" font-size="12" text-anchor="end" dominant-baseline="middle" transform="rotate(90 535 80)">manual</text>
  <text x="570" y="80" fill="white" font-family="sans-serif" font-weight="bold" font-size="12" text-anchor="end" dominant-baseline="middle" transform="rotate(90 570 80)">mooncake-jl</text>
  <text x="605" y="80" fill="white" font-family="sans-serif" font-weight="bold" font-size="12" text-anchor="end" dominant-baseline="middle" transform="rotate(90 605 80)">ocaml</text>
  <text x="640" y="80" fill="white" font-family="sans-serif" font-weight="bold" font-size="12" text-anchor="end" dominant-baseline="middle" transform="rotate(90 640 80)">pytorch</text>
  <text x="675" y="80" fill="white" font-family="sans-serif" font-weight="bold" font-size="12" text-anchor="end" dominant-baseline="middle" transform="rotate(90 675 80)">reversediff-jl</text>
  <text x="710" y="80" fill="white" font-family="sans-serif" font-weight="bold" font-size="12" text-anchor="end" dominant-baseline="middle" transform="rotate(90 710 80)">scilean</text>
  <text x="745" y="80" fill="white" font-family="sans-serif" font-weight="bold" font-size="12" text-anchor="end" dominant-baseline="middle" transform="rotate(90 745 80)">tapenade</text>
  <text x="780" y="80" fill="white" font-family="sans-serif" font-weight="bold" font-size="12" text-anchor="end" dominant-baseline="middle" transform="rotate(90 780 80)">tensorflow</text>
  <text x="815" y="80" fill="white" font-family="sans-serif" font-weight="bold" font-size="12" text-anchor="end" dominant-baseline="middle" transform="rotate(90 815 80)">tensorflow-js</text>
  <text x="850" y="80" fill="white" font-family="sans-serif" font-weight="bold" font-size="12" text-anchor="end" dominant-baseline="middle" transform="rotate(90 850 80)">zygote</text>
  <rect x="65" y="85" width="30" height="30" fill="hsl(240 100% 80.79083679296096%)" />
  <rect x="100" y="85" width="30" height="30" fill="hsl(240 100% 82.36171806765634%)" />
  <rect x="135" y="85" width="30" height="30" fill="hsl(240 100% 97.92791258476046%)" />
  <rect x="170" y="85" width="30" height="30" fill="hsl(240 100% 81.73012392174029%)" />
  <rect x="205" y="85" width="30" height="30" fill="hsl(240 100% 98.95495088040035%)" />
  <rect x="240" y="85" width="30" height="30" fill="hsl(240 100% 50%)" />
  <rect x="310" y="85" width="30" height="30" fill="hsl(240 100% 92.91897333635195%)" />
  <rect x="415" y="85" width="30" height="30" fill="hsl(240 100% 67.25581539825136%)" />
  <rect x="520" y="85" width="30" height="30" fill="hsl(240 100% 54.76076985456389%)" />
  <rect x="625" y="85" width="30" height="30" fill="rgb(255 255 255 / 50%)" />
  <rect x="730" y="85" width="30" height="30" fill="hsl(240 100% 74.13424237367363%)" />
  <rect x="765" y="85" width="30" height="30" fill="rgb(255 255 255 / 50%)" />
  <rect x="835" y="85" width="30" height="30" fill="hsl(240 100% 99.72797723912552%)" />
  <rect x="65" y="120" width="30" height="30" fill="hsl(240 100% 50%)" />
  <rect x="100" y="120" width="30" height="30" fill="hsl(240 100% 82.85177399949009%)" />
  <rect x="135" y="120" width="30" height="30" fill="hsl(240 100% 85.0694912185499%)" />
  <rect x="170" y="120" width="30" height="30" fill="hsl(240 100% 50.93115304006843%)" />
  <rect x="205" y="120" width="30" height="30" fill="hsl(240 100% 92.4357451204328%)" />
  <rect x="240" y="120" width="30" height="30" fill="hsl(240 100% 91.27193171945918%)" />
  <rect x="275" y="120" width="30" height="30" fill="hsl(240 100% 99.3372269495087%)" />
  <rect x="310" y="120" width="30" height="30" fill="hsl(240 100% 98.96932207118505%)" />
  <rect x="380" y="120" width="30" height="30" fill="hsl(240 100% 93.1293548434967%)" />
  <rect x="415" y="120" width="30" height="30" fill="hsl(240 100% 95.83133186784946%)" />
  <rect x="450" y="120" width="30" height="30" fill="hsl(240 100% 97.70738084954321%)" />
  <rect x="520" y="120" width="30" height="30" fill="hsl(240 100% 79.25252103791175%)" />
  <rect x="555" y="120" width="30" height="30" fill="hsl(240 100% 87.64683478705102%)" />
  <rect x="660" y="120" width="30" height="30" fill="rgb(255 255 255 / 50%)" />
  <rect x="835" y="120" width="30" height="30" fill="rgb(255 255 255 / 50%)" />
  <rect x="65" y="155" width="30" height="30" fill="hsl(240 100% 98.09084294421706%)" />
  <rect x="100" y="155" width="30" height="30" fill="hsl(240 100% 98.82913367371536%)" />
  <rect x="135" y="155" width="30" height="30" fill="hsl(240 100% 99.1258758244422%)" />
  <rect x="170" y="155" width="30" height="30" fill="hsl(240 100% 98.1547031367461%)" />
  <rect x="205" y="155" width="30" height="30" fill="hsl(240 100% 99.85023618290569%)" />
  <rect x="240" y="155" width="30" height="30" fill="hsl(240 100% 91.3131847116876%)" />
  <rect x="275" y="155" width="30" height="30" fill="hsl(240 100% 93.89931681714394%)" />
  <rect x="310" y="155" width="30" height="30" fill="rgb(255 255 255 / 50%)" />
  <rect x="415" y="155" width="30" height="30" fill="hsl(240 100% 93.05829019134735%)" />
  <rect x="485" y="155" width="30" height="30" fill="hsl(240 100% 50%)" />
  <rect x="520" y="155" width="30" height="30" fill="hsl(240 100% 81.543001693456%)" />
  <rect x="590" y="155" width="30" height="30" fill="hsl(240 100% 99.58873140741534%)" />
  <rect x="625" y="155" width="30" height="30" fill="hsl(240 100% 68.39116620173492%)" />
  <rect x="695" y="155" width="30" height="30" fill="hsl(240 100% 95.5064806344736%)" />
  <rect x="730" y="155" width="30" height="30" fill="hsl(240 100% 83.91628424734756%)" />
  <rect x="765" y="155" width="30" height="30" fill="hsl(240 100% 99.58068738003713%)" />
  <rect x="835" y="155" width="30" height="30" fill="hsl(240 100% 96.32962778014364%)" />
  <rect x="65" y="190" width="30" height="30" fill="hsl(240 100% 50%)" />
  <rect x="100" y="190" width="30" height="30" fill="hsl(240 100% 50%)" />
  <rect x="135" y="190" width="30" height="30" fill="hsl(240 100% 50%)" />
  <rect x="170" y="190" width="30" height="30" fill="hsl(240 100% 50%)" />
  <rect x="205" y="190" width="30" height="30" fill="hsl(240 100% 50%)" />
  <rect x="240" y="190" width="30" height="30" fill="hsl(240 100% 50%)" />
  <rect x="275" y="190" width="30" height="30" fill="hsl(240 100% 50%)" />
  <rect x="310" y="190" width="30" height="30" fill="hsl(240 100% 50%)" />
  <rect x="345" y="190" width="30" height="30" fill="hsl(240 100% 50%)" />
  <rect x="380" y="190" width="30" height="30" fill="hsl(240 100% 50%)" />
  <rect x="415" y="190" width="30" height="30" fill="hsl(240 100% 50%)" />
  <rect x="450" y="190" width="30" height="30" fill="hsl(240 100% 50%)" />
  <rect x="485" y="190" width="30" height="30" fill="hsl(240 100% 50%)" />
  <rect x="520" y="190" width="30" height="30" fill="hsl(240 100% 50%)" />
  <rect x="555" y="190" width="30" height="30" fill="hsl(240 100% 50%)" />
  <rect x="590" y="190" width="30" height="30" fill="hsl(240 100% 50%)" />
  <rect x="625" y="190" width="30" height="30" fill="hsl(240 100% 50%)" />
  <rect x="660" y="190" width="30" height="30" fill="hsl(240 100% 50%)" />
  <rect x="695" y="190" width="30" height="30" fill="hsl(240 100% 50%)" />
  <rect x="730" y="190" width="30" height="30" fill="hsl(240 100% 50%)" />
  <rect x="765" y="190" width="30" height="30" fill="hsl(240 100% 50%)" />
  <rect x="800" y="190" width="30" height="30" fill="hsl(240 100% 50%)" />
  <rect x="835" y="190" width="30" height="30" fill="hsl(240 100% 50%)" />
  <rect x="100" y="225" width="30" height="30" fill="hsl(240 100% 96.22636466063204%)" />
  <rect x="135" y="225" width="30" height="30" fill="hsl(240 100% 86.84562561128658%)" />
  <rect x="170" y="225" width="30" height="30" fill="hsl(240 100% 87.78840039214353%)" />
  <rect x="240" y="225" width="30" height="30" fill="hsl(240 100% 91.62568707671623%)" />
  <rect x="310" y="225" width="30" height="30" fill="rgb(255 255 255 / 50%)" />
  <rect x="415" y="225" width="30" height="30" fill="hsl(240 100% 89.29574868214016%)" />
  <rect x="520" y="225" width="30" height="30" fill="hsl(240 100% 50%)" />
  <rect x="625" y="225" width="30" height="30" fill="rgb(255 255 255 / 50%)" />
  <rect x="730" y="225" width="30" height="30" fill="hsl(240 100% 92.29105366581173%)" />
  <rect x="765" y="225" width="30" height="30" fill="rgb(255 255 255 / 50%)" />
  <rect x="835" y="225" width="30" height="30" fill="hsl(240 100% 93.36585684071683%)" />
  <rect x="65" y="260" width="30" height="30" fill="hsl(240 100% 99.85703933456409%)" />
  <rect x="135" y="260" width="30" height="30" fill="hsl(240 100% 99.85902129707328%)" />
  <rect x="170" y="260" width="30" height="30" fill="hsl(240 100% 98.92523233732705%)" />
  <rect x="205" y="260" width="30" height="30" fill="rgb(255 255 255 / 50%)" />
  <rect x="240" y="260" width="30" height="30" fill="hsl(240 100% 87.05676316111014%)" />
  <rect x="310" y="260" width="30" height="30" fill="rgb(255 255 255 / 50%)" />
  <rect x="415" y="260" width="30" height="30" fill="hsl(240 100% 80.87685896907772%)" />
  <rect x="450" y="260" width="30" height="30" fill="rgb(255 255 255 / 50%)" />
  <rect x="485" y="260" width="30" height="30" fill="hsl(240 100% 50%)" />
  <rect x="520" y="260" width="30" height="30" fill="hsl(240 100% 72.56049951030263%)" />
  <rect x="625" y="260" width="30" height="30" fill="hsl(240 100% 97.10971126968532%)" />
  <rect x="695" y="260" width="30" height="30" fill="hsl(240 100% 94.15372253637157%)" />
  <rect x="65" y="295" width="30" height="30" fill="hsl(240 100% 86.10115053573395%)" />
  <rect x="100" y="295" width="30" height="30" fill="hsl(240 100% 97.60354334001434%)" />
  <rect x="135" y="295" width="30" height="30" fill="hsl(240 100% 95.13592276020984%)" />
  <rect x="170" y="295" width="30" height="30" fill="hsl(240 100% 89.42235052770373%)" />
  <rect x="205" y="295" width="30" height="30" fill="hsl(240 100% 99.48685127737514%)" />
  <rect x="240" y="295" width="30" height="30" fill="hsl(240 100% 50.59858533502183%)" />
  <rect x="275" y="295" width="30" height="30" fill="hsl(240 100% 50%)" />
  <rect x="310" y="295" width="30" height="30" fill="hsl(240 100% 99.49936478795391%)" />
  <rect x="345" y="295" width="30" height="30" fill="hsl(240 100% 94.69950057891592%)" />
  <rect x="415" y="295" width="30" height="30" fill="hsl(240 100% 55.210866813771574%)" />
  <rect x="450" y="295" width="30" height="30" fill="hsl(240 100% 99.3389820492174%)" />
  <rect x="485" y="295" width="30" height="30" fill="hsl(240 100% 88.64509475528934%)" />
  <rect x="520" y="295" width="30" height="30" fill="hsl(240 100% 57.860917738881184%)" />
  <rect x="695" y="295" width="30" height="30" fill="hsl(240 100% 97.62859797013657%)" />
  <rect x="800" y="295" width="30" height="30" fill="hsl(240 100% 99.58045201642484%)" />
  <rect x="835" y="295" width="30" height="30" fill="hsl(240 100% 99.95792056380938%)" />
  <rect x="65" y="330" width="30" height="30" fill="hsl(240 100% 87.79849545071012%)" />
  <rect x="100" y="330" width="30" height="30" fill="hsl(240 100% 94.44767581185593%)" />
  <rect x="135" y="330" width="30" height="30" fill="hsl(240 100% 97.12862848127251%)" />
  <rect x="170" y="330" width="30" height="30" fill="hsl(240 100% 87.58335051925688%)" />
  <rect x="205" y="330" width="30" height="30" fill="hsl(240 100% 99.24027728638549%)" />
  <rect x="240" y="330" width="30" height="30" fill="hsl(240 100% 80.4125097289058%)" />
  <rect x="275" y="330" width="30" height="30" fill="hsl(240 100% 88.17299004305778%)" />
  <rect x="310" y="330" width="30" height="30" fill="rgb(255 255 255 / 50%)" />
  <rect x="345" y="330" width="30" height="30" fill="hsl(240 100% 97.4036250346195%)" />
  <rect x="415" y="330" width="30" height="30" fill="hsl(240 100% 86.31733097038043%)" />
  <rect x="450" y="330" width="30" height="30" fill="hsl(240 100% 99.80907520160937%)" />
  <rect x="485" y="330" width="30" height="30" fill="hsl(240 100% 70.9875384933343%)" />
  <rect x="520" y="330" width="30" height="30" fill="hsl(240 100% 71.3826337346352%)" />
  <rect x="590" y="330" width="30" height="30" fill="hsl(240 100% 94.05632894325403%)" />
  <rect x="625" y="330" width="30" height="30" fill="hsl(240 100% 50%)" />
  <rect x="765" y="330" width="30" height="30" fill="hsl(240 100% 94.29251161650723%)" />
  <rect x="800" y="330" width="30" height="30" fill="hsl(240 100% 99.23403887360773%)" />
  <rect x="835" y="330" width="30" height="30" fill="hsl(240 100% 82.09791994996048%)" />
  <rect x="65" y="365" width="30" height="30" fill="hsl(240 100% 57.06542820566892%)" />
  <rect x="100" y="365" width="30" height="30" fill="hsl(240 100% 71.32932780374401%)" />
  <rect x="135" y="365" width="30" height="30" fill="hsl(240 100% 81.81895169943942%)" />
  <rect x="170" y="365" width="30" height="30" fill="hsl(240 100% 50%)" />
  <rect x="205" y="365" width="30" height="30" fill="hsl(240 100% 96.05941839815408%)" />
  <rect x="240" y="365" width="30" height="30" fill="hsl(240 100% 59.704217574487714%)" />
  <rect x="275" y="365" width="30" height="30" fill="hsl(240 100% 92.62267862854%)" />
  <rect x="310" y="365" width="30" height="30" fill="hsl(240 100% 99.8616319312702%)" />
  <rect x="415" y="365" width="30" height="30" fill="hsl(240 100% 66.4655607064881%)" />
  <rect x="520" y="365" width="30" height="30" fill="hsl(240 100% 86.1838037077007%)" />
  <rect x="625" y="365" width="30" height="30" fill="hsl(240 100% 99.63853077246536%)" />
  <rect x="730" y="365" width="30" height="30" fill="hsl(240 100% 63.20735515208371%)" />
  <rect x="765" y="365" width="30" height="30" fill="hsl(240 100% 98.14674456180356%)" />
  <rect x="835" y="365" width="30" height="30" fill="hsl(240 100% 98.76830215179629%)" />
  <rect x="65" y="400" width="30" height="30" fill="hsl(240 100% 97.66598104626854%)" />
  <rect x="100" y="400" width="30" height="30" fill="hsl(240 100% 99.28268636968733%)" />
  <rect x="135" y="400" width="30" height="30" fill="hsl(240 100% 99.57945680568918%)" />
  <rect x="170" y="400" width="30" height="30" fill="hsl(240 100% 92.46813179949832%)" />
  <rect x="205" y="400" width="30" height="30" fill="hsl(240 100% 99.04692073793194%)" />
  <rect x="240" y="400" width="30" height="30" fill="hsl(240 100% 82.44390302904208%)" />
  <rect x="275" y="400" width="30" height="30" fill="hsl(240 100% 94.30363401106966%)" />
  <rect x="310" y="400" width="30" height="30" fill="rgb(255 255 255 / 50%)" />
  <rect x="380" y="400" width="30" height="30" fill="rgb(255 255 255 / 50%)" />
  <rect x="415" y="400" width="30" height="30" fill="hsl(240 100% 92.56464962305743%)" />
  <rect x="450" y="400" width="30" height="30" fill="hsl(240 100% 99.96411439615565%)" />
  <rect x="485" y="400" width="30" height="30" fill="hsl(240 100% 74.14834463895991%)" />
  <rect x="520" y="400" width="30" height="30" fill="hsl(240 100% 50%)" />
  <rect x="555" y="400" width="30" height="30" fill="hsl(240 100% 98.89572411655298%)" />
  <rect x="660" y="400" width="30" height="30" fill="rgb(255 255 255 / 50%)" />
  <rect x="835" y="400" width="30" height="30" fill="hsl(240 100% 99.00332389932986%)" />
  <rect x="65" y="435" width="30" height="30" fill="hsl(240 100% 93.33211537766738%)" />
  <rect x="240" y="435" width="30" height="30" fill="hsl(240 100% 50%)" />
  <rect x="310" y="435" width="30" height="30" fill="hsl(240 100% 93.86482388131%)" />
  <rect x="415" y="435" width="30" height="30" fill="hsl(240 100% 87.02496585580165%)" />
  <rect x="450" y="435" width="30" height="30" fill="hsl(240 100% 99.79369919776465%)" />
  <rect x="65" y="470" width="30" height="30" fill="hsl(240 100% 50.03308040540498%)" />
  <rect x="240" y="470" width="30" height="30" fill="hsl(240 100% 50%)" />
  <rect x="310" y="470" width="30" height="30" fill="hsl(240 100% 96.97350601796497%)" />
  <rect x="415" y="470" width="30" height="30" fill="hsl(240 100% 89.0317454781353%)" />
  <rect x="450" y="470" width="30" height="30" fill="hsl(240 100% 99.56494985675505%)" />
</svg>
