<svg xmlns="http://www.w3.org/2000/svg" viewBox="0 0 870 505">
  <rect x="0" y="0" width="870" height="505" rx="5" ry="5" fill="#222" />
  <text x="60" y="100" fill="white" font-family="sans-serif" font-weight="bold" font-size="12" text-anchor="end" dominant-baseline="middle">ba</text>
  <text x="60" y="135" fill="white" font-family="sans-serif" font-weight="bold" font-size="12" text-anchor="end" dominant-baseline="middle">det</text>
  <text x="60" y="170" fill="white" font-family="sans-serif" font-weight="bold" font-size="12" text-anchor="end" dominant-baseline="middle">gmm</text>
  <text x="60" y="205" fill="white" font-family="sans-serif" font-weight="bold" font-size="12" text-anchor="end" dominant-baseline="middle">hello</text>
  <text x="60" y="240" fill="white" font-family="sans-serif" font-weight="bold" font-size="12" text-anchor="end" dominant-baseline="middle">ht</text>
  <text x="60" y="275" fill="white" font-family="sans-serif" font-weight="bold" font-size="12" text-anchor="end" dominant-baseline="middle">kmeans</text>
  <text x="60" y="310" fill="white" font-family="sans-serif" font-weight="bold" font-size="12" text-anchor="end" dominant-baseline="middle">llsq</text>
  <text x="60" y="345" fill="white" font-family="sans-serif" font-weight="bold" font-size="12" text-anchor="end" dominant-baseline="middle">lse</text>
  <text x="60" y="380" fill="white" font-family="sans-serif" font-weight="bold" font-size="12" text-anchor="end" dominant-baseline="middle">lstm</text>
  <text x="60" y="415" fill="white" font-family="sans-serif" font-weight="bold" font-size="12" text-anchor="end" dominant-baseline="middle">ode</text>
  <text x="60" y="450" fill="white" font-family="sans-serif" font-weight="bold" font-size="12" text-anchor="end" dominant-baseline="middle">particle</text>
  <text x="60" y="485" fill="white" font-family="sans-serif" font-weight="bold" font-size="12" text-anchor="end" dominant-baseline="middle">saddle</text>
  <text x="80" y="80" fill="white" font-family="sans-serif" font-weight="bold" font-size="12" text-anchor="end" dominant-baseline="middle" transform="rotate(90 80 80)">ad-hpp</text>
  <text x="115" y="80" fill="white" font-family="sans-serif" font-weight="bold" font-size="12" text-anchor="end" dominant-baseline="middle" transform="rotate(90 115 80)">adept</text>
  <text x="150" y="80" fill="white" font-family="sans-serif" font-weight="bold" font-size="12" text-anchor="end" dominant-baseline="middle" transform="rotate(90 150 80)">adol-c</text>
  <text x="185" y="80" fill="white" font-family="sans-serif" font-weight="bold" font-size="12" text-anchor="end" dominant-baseline="middle" transform="rotate(90 185 80)">codipack</text>
  <text x="220" y="80" fill="white" font-family="sans-serif" font-weight="bold" font-size="12" text-anchor="end" dominant-baseline="middle" transform="rotate(90 220 80)">cppad</text>
  <text x="255" y="80" fill="white" font-family="sans-serif" font-weight="bold" font-size="12" text-anchor="end" dominant-baseline="middle" transform="rotate(90 255 80)">enzyme</text>
  <text x="290" y="80" fill="white" font-family="sans-serif" font-weight="bold" font-size="12" text-anchor="end" dominant-baseline="middle" transform="rotate(90 290 80)">enzyme-jl</text>
  <text x="325" y="80" fill="white" font-family="sans-serif" font-weight="bold" font-size="12" text-anchor="end" dominant-baseline="middle" transform="rotate(90 325 80)">finite</text>
  <text x="360" y="80" fill="white" font-family="sans-serif" font-weight="bold" font-size="12" text-anchor="end" dominant-baseline="middle" transform="rotate(90 360 80)">floretta</text>
  <text x="395" y="80" fill="white" font-family="sans-serif" font-weight="bold" font-size="12" text-anchor="end" dominant-baseline="middle" transform="rotate(90 395 80)">forwarddiff-jl</text>
  <text x="430" y="80" fill="white" font-family="sans-serif" font-weight="bold" font-size="12" text-anchor="end" dominant-baseline="middle" transform="rotate(90 430 80)">futhark</text>
  <text x="465" y="80" fill="white" font-family="sans-serif" font-weight="bold" font-size="12" text-anchor="end" dominant-baseline="middle" transform="rotate(90 465 80)">haskell</text>
  <text x="500" y="80" fill="white" font-family="sans-serif" font-weight="bold" font-size="12" text-anchor="end" dominant-baseline="middle" transform="rotate(90 500 80)">jax</text>
  <text x="535" y="80" fill="white" font-family="sans-serif" font-weight="bold" font-size="12" text-anchor="end" dominant-baseline="middle" transform="rotate(90 535 80)">manual</text>
  <text x="570" y="80" fill="white" font-family="sans-serif" font-weight="bold" font-size="12" text-anchor="end" dominant-baseline="middle" transform="rotate(90 570 80)">mooncake-jl</text>
  <text x="605" y="80" fill="white" font-family="sans-serif" font-weight="bold" font-size="12" text-anchor="end" dominant-baseline="middle" transform="rotate(90 605 80)">ocaml</text>
  <text x="640" y="80" fill="white" font-family="sans-serif" font-weight="bold" font-size="12" text-anchor="end" dominant-baseline="middle" transform="rotate(90 640 80)">pytorch</text>
  <text x="675" y="80" fill="white" font-family="sans-serif" font-weight="bold" font-size="12" text-anchor="end" dominant-baseline="middle" transform="rotate(90 675 80)">reversediff-jl</text>
  <text x="710" y="80" fill="white" font-family="sans-serif" font-weight="bold" font-size="12" text-anchor="end" dominant-baseline="middle" transform="rotate(90 710 80)">scilean</text>
  <text x="745" y="80" fill="white" font-family="sans-serif" font-weight="bold" font-size="12" text-anchor="end" dominant-baseline="middle" transform="rotate(90 745 80)">tapenade</text>
  <text x="780" y="80" fill="white" font-family="sans-serif" font-weight="bold" font-size="12" text-anchor="end" dominant-baseline="middle" transform="rotate(90 780 80)">tensorflow</text>
  <text x="815" y="80" fill="white" font-family="sans-serif" font-weight="bold" font-size="12" text-anchor="end" dominant-baseline="middle" transform="rotate(90 815 80)">tensorflow-js</text>
  <text x="850" y="80" fill="white" font-family="sans-serif" font-weight="bold" font-size="12" text-anchor="end" dominant-baseline="middle" transform="rotate(90 850 80)">zygote</text>
  <rect x="65" y="85" width="30" height="30" fill="hsl(240 100% 80.78141036314418%)" />
  <rect x="100" y="85" width="30" height="30" fill="hsl(240 100% 82.68253631990963%)" />
  <rect x="135" y="85" width="30" height="30" fill="hsl(240 100% 97.92493706191716%)" />
  <rect x="170" y="85" width="30" height="30" fill="hsl(240 100% 81.7301671144306%)" />
  <rect x="205" y="85" width="30" height="30" fill="hsl(240 100% 98.94995713514169%)" />
  <rect x="240" y="85" width="30" height="30" fill="hsl(240 100% 50%)" />
  <rect x="310" y="85" width="30" height="30" fill="hsl(240 100% 92.87194582450918%)" />
  <rect x="415" y="85" width="30" height="30" fill="hsl(240 100% 67.00234854041452%)" />
  <rect x="520" y="85" width="30" height="30" fill="hsl(240 100% 54.151371318066964%)" />
  <rect x="625" y="85" width="30" height="30" fill="rgb(255 255 255 / 50%)" />
  <rect x="730" y="85" width="30" height="30" fill="hsl(240 100% 74.02438071931873%)" />
  <rect x="765" y="85" width="30" height="30" fill="rgb(255 255 255 / 50%)" />
  <rect x="835" y="85" width="30" height="30" fill="hsl(240 100% 99.73063313874573%)" />
  <rect x="65" y="120" width="30" height="30" fill="hsl(240 100% 50%)" />
  <rect x="100" y="120" width="30" height="30" fill="hsl(240 100% 83.22977806827281%)" />
  <rect x="135" y="120" width="30" height="30" fill="hsl(240 100% 85.684661100506%)" />
  <rect x="170" y="120" width="30" height="30" fill="hsl(240 100% 53.26027882901575%)" />
  <rect x="205" y="120" width="30" height="30" fill="hsl(240 100% 92.63771183084789%)" />
  <rect x="240" y="120" width="30" height="30" fill="hsl(240 100% 91.6870620775056%)" />
  <rect x="275" y="120" width="30" height="30" fill="hsl(240 100% 99.37303775189649%)" />
  <rect x="310" y="120" width="30" height="30" fill="hsl(240 100% 99.01994260146398%)" />
  <rect x="380" y="120" width="30" height="30" fill="hsl(240 100% 93.4010677887415%)" />
  <rect x="415" y="120" width="30" height="30" fill="hsl(240 100% 94.62845758049355%)" />
  <rect x="450" y="120" width="30" height="30" fill="hsl(240 100% 97.88132518560607%)" />
  <rect x="520" y="120" width="30" height="30" fill="hsl(240 100% 79.68088885898815%)" />
  <rect x="555" y="120" width="30" height="30" fill="hsl(240 100% 90.34039067702965%)" />
  <rect x="660" y="120" width="30" height="30" fill="rgb(255 255 255 / 50%)" />
  <rect x="835" y="120" width="30" height="30" fill="rgb(255 255 255 / 50%)" />
  <rect x="65" y="155" width="30" height="30" fill="hsl(240 100% 98.33662790089673%)" />
  <rect x="100" y="155" width="30" height="30" fill="hsl(240 100% 98.81774158902203%)" />
  <rect x="135" y="155" width="30" height="30" fill="hsl(240 100% 99.11380847844178%)" />
  <rect x="170" y="155" width="30" height="30" fill="hsl(240 100% 97.98505172231961%)" />
  <rect x="205" y="155" width="30" height="30" fill="hsl(240 100% 99.84774621245379%)" />
  <rect x="240" y="155" width="30" height="30" fill="hsl(240 100% 91.19305059119978%)" />
  <rect x="275" y="155" width="30" height="30" fill="hsl(240 100% 91.85087748575668%)" />
  <rect x="310" y="155" width="30" height="30" fill="rgb(255 255 255 / 50%)" />
  <rect x="415" y="155" width="30" height="30" fill="hsl(240 100% 92.8875800593894%)" />
  <rect x="485" y="155" width="30" height="30" fill="hsl(240 100% 50%)" />
  <rect x="520" y="155" width="30" height="30" fill="hsl(240 100% 81.19386021378139%)" />
  <rect x="590" y="155" width="30" height="30" fill="hsl(240 100% 99.5878481067783%)" />
  <rect x="625" y="155" width="30" height="30" fill="hsl(240 100% 68.01624273002571%)" />
  <rect x="695" y="155" width="30" height="30" fill="hsl(240 100% 95.46890290817277%)" />
  <rect x="730" y="155" width="30" height="30" fill="hsl(240 100% 83.88732710220299%)" />
  <rect x="765" y="155" width="30" height="30" fill="hsl(240 100% 99.58502790646395%)" />
  <rect x="835" y="155" width="30" height="30" fill="hsl(240 100% 96.2015521121111%)" />
  <rect x="65" y="190" width="30" height="30" fill="hsl(240 100% 50%)" />
  <rect x="100" y="190" width="30" height="30" fill="hsl(240 100% 50%)" />
  <rect x="135" y="190" width="30" height="30" fill="hsl(240 100% 50%)" />
  <rect x="170" y="190" width="30" height="30" fill="hsl(240 100% 50%)" />
  <rect x="205" y="190" width="30" height="30" fill="hsl(240 100% 50%)" />
  <rect x="240" y="190" width="30" height="30" fill="hsl(240 100% 50%)" />
  <rect x="275" y="190" width="30" height="30" fill="hsl(240 100% 50%)" />
  <rect x="310" y="190" width="30" height="30" fill="hsl(240 100% 50%)" />
  <rect x="345" y="190" width="30" height="30" fill="hsl(240 100% 50%)" />
  <rect x="380" y="190" width="30" height="30" fill="hsl(240 100% 50%)" />
  <rect x="415" y="190" width="30" height="30" fill="hsl(240 100% 50%)" />
  <rect x="450" y="190" width="30" height="30" fill="hsl(240 100% 50%)" />
  <rect x="485" y="190" width="30" height="30" fill="hsl(240 100% 50%)" />
  <rect x="520" y="190" width="30" height="30" fill="hsl(240 100% 50%)" />
  <rect x="555" y="190" width="30" height="30" fill="hsl(240 100% 50%)" />
  <rect x="590" y="190" width="30" height="30" fill="hsl(240 100% 50%)" />
  <rect x="625" y="190" width="30" height="30" fill="hsl(240 100% 50%)" />
  <rect x="660" y="190" width="30" height="30" fill="hsl(240 100% 50%)" />
  <rect x="695" y="190" width="30" height="30" fill="hsl(240 100% 50%)" />
  <rect x="730" y="190" width="30" height="30" fill="hsl(240 100% 50%)" />
  <rect x="765" y="190" width="30" height="30" fill="hsl(240 100% 50%)" />
  <rect x="800" y="190" width="30" height="30" fill="hsl(240 100% 50%)" />
  <rect x="835" y="190" width="30" height="30" fill="hsl(240 100% 50%)" />
  <rect x="100" y="225" width="30" height="30" fill="hsl(240 100% 96.2579487284468%)" />
  <rect x="135" y="225" width="30" height="30" fill="hsl(240 100% 87.79679856533393%)" />
  <rect x="170" y="225" width="30" height="30" fill="hsl(240 100% 87.7817669758541%)" />
  <rect x="240" y="225" width="30" height="30" fill="hsl(240 100% 90.09177552994831%)" />
  <rect x="310" y="225" width="30" height="30" fill="rgb(255 255 255 / 50%)" />
  <rect x="415" y="225" width="30" height="30" fill="hsl(240 100% 89.34032889445527%)" />
  <rect x="520" y="225" width="30" height="30" fill="hsl(240 100% 50%)" />
  <rect x="625" y="225" width="30" height="30" fill="rgb(255 255 255 / 50%)" />
  <rect x="730" y="225" width="30" height="30" fill="hsl(240 100% 92.44226232586354%)" />
  <rect x="765" y="225" width="30" height="30" fill="rgb(255 255 255 / 50%)" />
  <rect x="835" y="225" width="30" height="30" fill="hsl(240 100% 93.5500997580524%)" />
  <rect x="65" y="260" width="30" height="30" fill="hsl(240 100% 99.79722084993529%)" />
  <rect x="135" y="260" width="30" height="30" fill="hsl(240 100% 99.85481114063613%)" />
  <rect x="170" y="260" width="30" height="30" fill="hsl(240 100% 98.91903745492193%)" />
  <rect x="205" y="260" width="30" height="30" fill="rgb(255 255 255 / 50%)" />
  <rect x="240" y="260" width="30" height="30" fill="hsl(240 100% 86.87074709833976%)" />
  <rect x="310" y="260" width="30" height="30" fill="rgb(255 255 255 / 50%)" />
  <rect x="415" y="260" width="30" height="30" fill="hsl(240 100% 80.35154081264292%)" />
  <rect x="450" y="260" width="30" height="30" fill="rgb(255 255 255 / 50%)" />
  <rect x="485" y="260" width="30" height="30" fill="hsl(240 100% 50%)" />
  <rect x="520" y="260" width="30" height="30" fill="hsl(240 100% 71.97137784113767%)" />
  <rect x="625" y="260" width="30" height="30" fill="hsl(240 100% 96.92425401918698%)" />
  <rect x="695" y="260" width="30" height="30" fill="hsl(240 100% 93.99940554150447%)" />
  <rect x="65" y="295" width="30" height="30" fill="hsl(240 100% 85.65515457634156%)" />
  <rect x="100" y="295" width="30" height="30" fill="hsl(240 100% 97.54033684638466%)" />
  <rect x="135" y="295" width="30" height="30" fill="hsl(240 100% 95.20505733512586%)" />
  <rect x="170" y="295" width="30" height="30" fill="hsl(240 100% 89.33002969208562%)" />
  <rect x="205" y="295" width="30" height="30" fill="hsl(240 100% 99.4775475744232%)" />
  <rect x="240" y="295" width="30" height="30" fill="hsl(240 100% 50%)" />
  <rect x="275" y="295" width="30" height="30" fill="hsl(240 100% 50.03745225010498%)" />
  <rect x="310" y="295" width="30" height="30" fill="hsl(240 100% 99.4926834542388%)" />
  <rect x="345" y="295" width="30" height="30" fill="hsl(240 100% 94.61103842002275%)" />
  <rect x="415" y="295" width="30" height="30" fill="hsl(240 100% 54.65728396836448%)" />
  <rect x="450" y="295" width="30" height="30" fill="hsl(240 100% 99.30633162239815%)" />
  <rect x="485" y="295" width="30" height="30" fill="hsl(240 100% 88.09328689772789%)" />
  <rect x="520" y="295" width="30" height="30" fill="hsl(240 100% 57.312074240712526%)" />
  <rect x="695" y="295" width="30" height="30" fill="hsl(240 100% 97.57555435497353%)" />
  <rect x="800" y="295" width="30" height="30" fill="hsl(240 100% 99.61065615096919%)" />
  <rect x="835" y="295" width="30" height="30" fill="hsl(240 100% 99.95486117819169%)" />
  <rect x="65" y="330" width="30" height="30" fill="hsl(240 100% 88.1617473342512%)" />
  <rect x="100" y="330" width="30" height="30" fill="hsl(240 100% 94.64021714645327%)" />
  <rect x="135" y="330" width="30" height="30" fill="hsl(240 100% 97.2099448546577%)" />
  <rect x="170" y="330" width="30" height="30" fill="hsl(240 100% 87.78560885541273%)" />
  <rect x="205" y="330" width="30" height="30" fill="hsl(240 100% 99.25087964346515%)" />
  <rect x="240" y="330" width="30" height="30" fill="hsl(240 100% 80.92737080328718%)" />
  <rect x="275" y="330" width="30" height="30" fill="hsl(240 100% 88.99780588023573%)" />
  <rect x="310" y="330" width="30" height="30" fill="rgb(255 255 255 / 50%)" />
  <rect x="345" y="330" width="30" height="30" fill="hsl(240 100% 97.39650947869498%)" />
  <rect x="415" y="330" width="30" height="30" fill="hsl(240 100% 86.51759696412418%)" />
  <rect x="450" y="330" width="30" height="30" fill="hsl(240 100% 99.8206152805653%)" />
  <rect x="485" y="330" width="30" height="30" fill="hsl(240 100% 72.67996179871173%)" />
  <rect x="520" y="330" width="30" height="30" fill="hsl(240 100% 71.67309919626753%)" />
  <rect x="590" y="330" width="30" height="30" fill="hsl(240 100% 94.12893049742733%)" />
  <rect x="625" y="330" width="30" height="30" fill="hsl(240 100% 50%)" />
  <rect x="765" y="330" width="30" height="30" fill="hsl(240 100% 95.3172051515978%)" />
  <rect x="800" y="330" width="30" height="30" fill="hsl(240 100% 99.25912611264161%)" />
  <rect x="835" y="330" width="30" height="30" fill="hsl(240 100% 80.58302579103638%)" />
  <rect x="65" y="365" width="30" height="30" fill="hsl(240 100% 56.53044387223156%)" />
  <rect x="100" y="365" width="30" height="30" fill="hsl(240 100% 71.46829016232851%)" />
  <rect x="135" y="365" width="30" height="30" fill="hsl(240 100% 82.35643980574986%)" />
  <rect x="170" y="365" width="30" height="30" fill="hsl(240 100% 50%)" />
  <rect x="205" y="365" width="30" height="30" fill="hsl(240 100% 96.02988530425895%)" />
  <rect x="240" y="365" width="30" height="30" fill="hsl(240 100% 59.41534383051607%)" />
  <rect x="275" y="365" width="30" height="30" fill="hsl(240 100% 92.72538725138021%)" />
  <rect x="310" y="365" width="30" height="30" fill="hsl(240 100% 99.8605391613899%)" />
  <rect x="415" y="365" width="30" height="30" fill="hsl(240 100% 66.51707834333523%)" />
  <rect x="520" y="365" width="30" height="30" fill="hsl(240 100% 86.16724196987751%)" />
  <rect x="625" y="365" width="30" height="30" fill="hsl(240 100% 99.6424876380692%)" />
  <rect x="730" y="365" width="30" height="30" fill="hsl(240 100% 62.90322744878034%)" />
  <rect x="765" y="365" width="30" height="30" fill="hsl(240 100% 98.17067527203837%)" />
  <rect x="835" y="365" width="30" height="30" fill="hsl(240 100% 98.79151380410718%)" />
  <rect x="65" y="400" width="30" height="30" fill="hsl(240 100% 98.20218559333357%)" />
  <rect x="100" y="400" width="30" height="30" fill="hsl(240 100% 99.42158104251443%)" />
  <rect x="135" y="400" width="30" height="30" fill="hsl(240 100% 99.66061789306777%)" />
  <rect x="170" y="400" width="30" height="30" fill="hsl(240 100% 94.12645783662279%)" />
  <rect x="205" y="400" width="30" height="30" fill="hsl(240 100% 99.24266593967155%)" />
  <rect x="240" y="400" width="30" height="30" fill="hsl(240 100% 87.87087890651388%)" />
  <rect x="275" y="400" width="30" height="30" fill="hsl(240 100% 95.42493968183871%)" />
  <rect x="310" y="400" width="30" height="30" fill="rgb(255 255 255 / 50%)" />
  <rect x="380" y="400" width="30" height="30" fill="rgb(255 255 255 / 50%)" />
  <rect x="415" y="400" width="30" height="30" fill="hsl(240 100% 94.05983890036062%)" />
  <rect x="450" y="400" width="30" height="30" fill="hsl(240 100% 99.97555686088184%)" />
  <rect x="485" y="400" width="30" height="30" fill="hsl(240 100% 78.97181490130299%)" />
  <rect x="520" y="400" width="30" height="30" fill="hsl(240 100% 50%)" />
  <rect x="555" y="400" width="30" height="30" fill="hsl(240 100% 99.12507180792667%)" />
  <rect x="660" y="400" width="30" height="30" fill="rgb(255 255 255 / 50%)" />
  <rect x="835" y="400" width="30" height="30" fill="hsl(240 100% 99.2291359283928%)" />
  <rect x="65" y="435" width="30" height="30" fill="hsl(240 100% 93.2607508477909%)" />
  <rect x="240" y="435" width="30" height="30" fill="hsl(240 100% 50%)" />
  <rect x="310" y="435" width="30" height="30" fill="hsl(240 100% 93.85040508822982%)" />
  <rect x="415" y="435" width="30" height="30" fill="hsl(240 100% 86.99351657635263%)" />
  <rect x="450" y="435" width="30" height="30" fill="hsl(240 100% 99.77696129579206%)" />
  <rect x="65" y="470" width="30" height="30" fill="hsl(240 100% 50.05823628873762%)" />
  <rect x="240" y="470" width="30" height="30" fill="hsl(240 100% 50%)" />
  <rect x="310" y="470" width="30" height="30" fill="hsl(240 100% 96.97497392142586%)" />
  <rect x="415" y="470" width="30" height="30" fill="hsl(240 100% 89.16283177421256%)" />
  <rect x="450" y="470" width="30" height="30" fill="hsl(240 100% 99.57354297662047%)" />
</svg>
