<svg xmlns="http://www.w3.org/2000/svg" viewBox="0 0 730 505">
  <rect x="0" y="0" width="730" height="505" rx="5" ry="5" fill="#222" />
  <text x="60" y="100" fill="white" font-family="sans-serif" font-weight="bold" font-size="12" text-anchor="end" dominant-baseline="middle">ba</text>
  <text x="60" y="135" fill="white" font-family="sans-serif" font-weight="bold" font-size="12" text-anchor="end" dominant-baseline="middle">det</text>
  <text x="60" y="170" fill="white" font-family="sans-serif" font-weight="bold" font-size="12" text-anchor="end" dominant-baseline="middle">gmm</text>
  <text x="60" y="205" fill="white" font-family="sans-serif" font-weight="bold" font-size="12" text-anchor="end" dominant-baseline="middle">hello</text>
  <text x="60" y="240" fill="white" font-family="sans-serif" font-weight="bold" font-size="12" text-anchor="end" dominant-baseline="middle">ht</text>
  <text x="60" y="275" fill="white" font-family="sans-serif" font-weight="bold" font-size="12" text-anchor="end" dominant-baseline="middle">kmeans</text>
  <text x="60" y="310" fill="white" font-family="sans-serif" font-weight="bold" font-size="12" text-anchor="end" dominant-baseline="middle">llsq</text>
  <text x="60" y="345" fill="white" font-family="sans-serif" font-weight="bold" font-size="12" text-anchor="end" dominant-baseline="middle">lse</text>
  <text x="60" y="380" fill="white" font-family="sans-serif" font-weight="bold" font-size="12" text-anchor="end" dominant-baseline="middle">lstm</text>
  <text x="60" y="415" fill="white" font-family="sans-serif" font-weight="bold" font-size="12" text-anchor="end" dominant-baseline="middle">ode</text>
  <text x="60" y="450" fill="white" font-family="sans-serif" font-weight="bold" font-size="12" text-anchor="end" dominant-baseline="middle">particle</text>
  <text x="60" y="485" fill="white" font-family="sans-serif" font-weight="bold" font-size="12" text-anchor="end" dominant-baseline="middle">saddle</text>
  <text x="80" y="80" fill="white" font-family="sans-serif" font-weight="bold" font-size="12" text-anchor="end" dominant-baseline="middle" transform="rotate(90 80 80)">ad-hpp</text>
  <text x="115" y="80" fill="white" font-family="sans-serif" font-weight="bold" font-size="12" text-anchor="end" dominant-baseline="middle" transform="rotate(90 115 80)">adept</text>
  <text x="150" y="80" fill="white" font-family="sans-serif" font-weight="bold" font-size="12" text-anchor="end" dominant-baseline="middle" transform="rotate(90 150 80)">adol-c</text>
  <text x="185" y="80" fill="white" font-family="sans-serif" font-weight="bold" font-size="12" text-anchor="end" dominant-baseline="middle" transform="rotate(90 185 80)">codipack</text>
  <text x="220" y="80" fill="white" font-family="sans-serif" font-weight="bold" font-size="12" text-anchor="end" dominant-baseline="middle" transform="rotate(90 220 80)">cppad</text>
  <text x="255" y="80" fill="white" font-family="sans-serif" font-weight="bold" font-size="12" text-anchor="end" dominant-baseline="middle" transform="rotate(90 255 80)">enzyme</text>
  <text x="290" y="80" fill="white" font-family="sans-serif" font-weight="bold" font-size="12" text-anchor="end" dominant-baseline="middle" transform="rotate(90 290 80)">enzyme-jl</text>
  <text x="325" y="80" fill="white" font-family="sans-serif" font-weight="bold" font-size="12" text-anchor="end" dominant-baseline="middle" transform="rotate(90 325 80)">finite</text>
  <text x="360" y="80" fill="white" font-family="sans-serif" font-weight="bold" font-size="12" text-anchor="end" dominant-baseline="middle" transform="rotate(90 360 80)">floretta</text>
  <text x="395" y="80" fill="white" font-family="sans-serif" font-weight="bold" font-size="12" text-anchor="end" dominant-baseline="middle" transform="rotate(90 395 80)">futhark</text>
  <text x="430" y="80" fill="white" font-family="sans-serif" font-weight="bold" font-size="12" text-anchor="end" dominant-baseline="middle" transform="rotate(90 430 80)">haskell</text>
  <text x="465" y="80" fill="white" font-family="sans-serif" font-weight="bold" font-size="12" text-anchor="end" dominant-baseline="middle" transform="rotate(90 465 80)">jax</text>
  <text x="500" y="80" fill="white" font-family="sans-serif" font-weight="bold" font-size="12" text-anchor="end" dominant-baseline="middle" transform="rotate(90 500 80)">manual</text>
  <text x="535" y="80" fill="white" font-family="sans-serif" font-weight="bold" font-size="12" text-anchor="end" dominant-baseline="middle" transform="rotate(90 535 80)">ocaml</text>
  <text x="570" y="80" fill="white" font-family="sans-serif" font-weight="bold" font-size="12" text-anchor="end" dominant-baseline="middle" transform="rotate(90 570 80)">pytorch</text>
  <text x="605" y="80" fill="white" font-family="sans-serif" font-weight="bold" font-size="12" text-anchor="end" dominant-baseline="middle" transform="rotate(90 605 80)">scilean</text>
  <text x="640" y="80" fill="white" font-family="sans-serif" font-weight="bold" font-size="12" text-anchor="end" dominant-baseline="middle" transform="rotate(90 640 80)">tapenade</text>
  <text x="675" y="80" fill="white" font-family="sans-serif" font-weight="bold" font-size="12" text-anchor="end" dominant-baseline="middle" transform="rotate(90 675 80)">tensorflow</text>
  <text x="710" y="80" fill="white" font-family="sans-serif" font-weight="bold" font-size="12" text-anchor="end" dominant-baseline="middle" transform="rotate(90 710 80)">zygote</text>
  <rect x="65" y="85" width="30" height="30" fill="hsl(240 100% 80.4959084186277%)" />
  <rect x="100" y="85" width="30" height="30" fill="hsl(240 100% 82.84997746198967%)" />
  <rect x="135" y="85" width="30" height="30" fill="hsl(240 100% 97.98500330714594%)" />
  <rect x="170" y="85" width="30" height="30" fill="hsl(240 100% 82.22105618072368%)" />
  <rect x="205" y="85" width="30" height="30" fill="hsl(240 100% 98.98767238010363%)" />
  <rect x="240" y="85" width="30" height="30" fill="hsl(240 100% 51.24613570583268%)" />
  <rect x="310" y="85" width="30" height="30" fill="hsl(240 100% 92.82585008272152%)" />
  <rect x="380" y="85" width="30" height="30" fill="hsl(240 100% 67.93416641597642%)" />
  <rect x="485" y="85" width="30" height="30" fill="hsl(240 100% 50%)" />
  <rect x="555" y="85" width="30" height="30" fill="rgb(255 255 255 / 50%)" />
  <rect x="625" y="85" width="30" height="30" fill="hsl(240 100% 74.78355845216771%)" />
  <rect x="660" y="85" width="30" height="30" fill="rgb(255 255 255 / 50%)" />
  <rect x="695" y="85" width="30" height="30" fill="hsl(240 100% 99.72685708836428%)" />
  <rect x="65" y="120" width="30" height="30" fill="hsl(240 100% 50%)" />
  <rect x="100" y="120" width="30" height="30" fill="hsl(240 100% 83.38578495046009%)" />
  <rect x="135" y="120" width="30" height="30" fill="hsl(240 100% 85.94952757496011%)" />
  <rect x="170" y="120" width="30" height="30" fill="hsl(240 100% 52.603784995791024%)" />
  <rect x="205" y="120" width="30" height="30" fill="hsl(240 100% 92.62961305339554%)" />
  <rect x="240" y="120" width="30" height="30" fill="hsl(240 100% 91.87806059660562%)" />
  <rect x="275" y="120" width="30" height="30" fill="hsl(240 100% 99.20673549787398%)" />
  <rect x="310" y="120" width="30" height="30" fill="hsl(240 100% 98.99832390521581%)" />
  <rect x="380" y="120" width="30" height="30" fill="hsl(240 100% 94.63334473151592%)" />
  <rect x="415" y="120" width="30" height="30" fill="hsl(240 100% 97.9722333449051%)" />
  <rect x="485" y="120" width="30" height="30" fill="hsl(240 100% 79.84632244979454%)" />
  <rect x="695" y="120" width="30" height="30" fill="rgb(255 255 255 / 50%)" />
  <rect x="65" y="155" width="30" height="30" fill="hsl(240 100% 97.19793350136177%)" />
  <rect x="100" y="155" width="30" height="30" fill="hsl(240 100% 98.29605548293996%)" />
  <rect x="135" y="155" width="30" height="30" fill="hsl(240 100% 98.89162268311459%)" />
  <rect x="170" y="155" width="30" height="30" fill="hsl(240 100% 97.2294342114983%)" />
  <rect x="205" y="155" width="30" height="30" fill="hsl(240 100% 99.78170460390018%)" />
  <rect x="240" y="155" width="30" height="30" fill="hsl(240 100% 86.95730223064878%)" />
  <rect x="275" y="155" width="30" height="30" fill="hsl(240 100% 99.8266450859544%)" />
  <rect x="310" y="155" width="30" height="30" fill="rgb(255 255 255 / 50%)" />
  <rect x="380" y="155" width="30" height="30" fill="hsl(240 100% 89.3232777893616%)" />
  <rect x="450" y="155" width="30" height="30" fill="hsl(240 100% 70.76842116216885%)" />
  <rect x="485" y="155" width="30" height="30" fill="hsl(240 100% 72.94816297485382%)" />
  <rect x="520" y="155" width="30" height="30" fill="hsl(240 100% 99.36456309348496%)" />
  <rect x="555" y="155" width="30" height="30" fill="hsl(240 100% 50%)" />
  <rect x="590" y="155" width="30" height="30" fill="hsl(240 100% 92.8777528867994%)" />
  <rect x="625" y="155" width="30" height="30" fill="hsl(240 100% 76.545621812294%)" />
  <rect x="660" y="155" width="30" height="30" fill="hsl(240 100% 89.22902929569018%)" />
  <rect x="695" y="155" width="30" height="30" fill="hsl(240 100% 99.37035010485377%)" />
  <rect x="65" y="190" width="30" height="30" fill="hsl(240 100% 50%)" />
  <rect x="100" y="190" width="30" height="30" fill="hsl(240 100% 50%)" />
  <rect x="135" y="190" width="30" height="30" fill="hsl(240 100% 50%)" />
  <rect x="170" y="190" width="30" height="30" fill="hsl(240 100% 50%)" />
  <rect x="205" y="190" width="30" height="30" fill="hsl(240 100% 50%)" />
  <rect x="240" y="190" width="30" height="30" fill="hsl(240 100% 50%)" />
  <rect x="275" y="190" width="30" height="30" fill="hsl(240 100% 50%)" />
  <rect x="310" y="190" width="30" height="30" fill="hsl(240 100% 50%)" />
  <rect x="345" y="190" width="30" height="30" fill="hsl(240 100% 50%)" />
  <rect x="380" y="190" width="30" height="30" fill="hsl(240 100% 50%)" />
  <rect x="415" y="190" width="30" height="30" fill="hsl(240 100% 50%)" />
  <rect x="450" y="190" width="30" height="30" fill="hsl(240 100% 50%)" />
  <rect x="485" y="190" width="30" height="30" fill="hsl(240 100% 50%)" />
  <rect x="520" y="190" width="30" height="30" fill="hsl(240 100% 50%)" />
  <rect x="555" y="190" width="30" height="30" fill="hsl(240 100% 50%)" />
  <rect x="590" y="190" width="30" height="30" fill="hsl(240 100% 50%)" />
  <rect x="625" y="190" width="30" height="30" fill="hsl(240 100% 50%)" />
  <rect x="660" y="190" width="30" height="30" fill="hsl(240 100% 50%)" />
  <rect x="695" y="190" width="30" height="30" fill="hsl(240 100% 50%)" />
  <rect x="100" y="225" width="30" height="30" fill="hsl(240 100% 96.34098512278318%)" />
  <rect x="135" y="225" width="30" height="30" fill="hsl(240 100% 90.74073450873678%)" />
  <rect x="170" y="225" width="30" height="30" fill="hsl(240 100% 89.50456872432575%)" />
  <rect x="240" y="225" width="30" height="30" fill="hsl(240 100% 91.03874457339943%)" />
  <rect x="310" y="225" width="30" height="30" fill="rgb(255 255 255 / 50%)" />
  <rect x="380" y="225" width="30" height="30" fill="hsl(240 100% 90.52059756301234%)" />
  <rect x="485" y="225" width="30" height="30" fill="hsl(240 100% 50%)" />
  <rect x="555" y="225" width="30" height="30" fill="rgb(255 255 255 / 50%)" />
  <rect x="625" y="225" width="30" height="30" fill="hsl(240 100% 93.18744768287849%)" />
  <rect x="660" y="225" width="30" height="30" fill="rgb(255 255 255 / 50%)" />
  <rect x="695" y="225" width="30" height="30" fill="hsl(240 100% 99.46285916162373%)" />
  <rect x="65" y="260" width="30" height="30" fill="hsl(240 100% 99.86868330585843%)" />
  <rect x="135" y="260" width="30" height="30" fill="hsl(240 100% 99.870545863957%)" />
  <rect x="170" y="260" width="30" height="30" fill="hsl(240 100% 99.00205165223377%)" />
  <rect x="205" y="260" width="30" height="30" fill="rgb(255 255 255 / 50%)" />
  <rect x="240" y="260" width="30" height="30" fill="hsl(240 100% 86.99432237356301%)" />
  <rect x="310" y="260" width="30" height="30" fill="rgb(255 255 255 / 50%)" />
  <rect x="380" y="260" width="30" height="30" fill="hsl(240 100% 80.67097545653291%)" />
  <rect x="415" y="260" width="30" height="30" fill="rgb(255 255 255 / 50%)" />
  <rect x="450" y="260" width="30" height="30" fill="hsl(240 100% 50%)" />
  <rect x="485" y="260" width="30" height="30" fill="hsl(240 100% 71.05371591310268%)" />
  <rect x="555" y="260" width="30" height="30" fill="hsl(240 100% 97.05955371979393%)" />
  <rect x="590" y="260" width="30" height="30" fill="hsl(240 100% 94.01408747835566%)" />
  <rect x="65" y="295" width="30" height="30" fill="hsl(240 100% 85.71312567020018%)" />
  <rect x="100" y="295" width="30" height="30" fill="hsl(240 100% 97.4949638596118%)" />
  <rect x="135" y="295" width="30" height="30" fill="hsl(240 100% 94.79737767146423%)" />
  <rect x="170" y="295" width="30" height="30" fill="hsl(240 100% 90.5502602605483%)" />
  <rect x="205" y="295" width="30" height="30" fill="hsl(240 100% 99.47293809113317%)" />
  <rect x="240" y="295" width="30" height="30" fill="hsl(240 100% 50%)" />
  <rect x="275" y="295" width="30" height="30" fill="hsl(240 100% 99.86402285007547%)" />
  <rect x="310" y="295" width="30" height="30" fill="hsl(240 100% 99.4930628805971%)" />
  <rect x="345" y="295" width="30" height="30" fill="hsl(240 100% 95.21018815915572%)" />
  <rect x="380" y="295" width="30" height="30" fill="hsl(240 100% 54.65708573352961%)" />
  <rect x="415" y="295" width="30" height="30" fill="hsl(240 100% 99.31699621974336%)" />
  <rect x="450" y="295" width="30" height="30" fill="hsl(240 100% 88.44666398548159%)" />
  <rect x="485" y="295" width="30" height="30" fill="hsl(240 100% 57.328360325394286%)" />
  <rect x="590" y="295" width="30" height="30" fill="hsl(240 100% 97.59254205137401%)" />
  <rect x="695" y="295" width="30" height="30" fill="hsl(240 100% 99.97403586167722%)" />
  <rect x="65" y="330" width="30" height="30" fill="hsl(240 100% 85.8455764068417%)" />
  <rect x="100" y="330" width="30" height="30" fill="hsl(240 100% 93.64502419402372%)" />
  <rect x="135" y="330" width="30" height="30" fill="hsl(240 100% 96.59685106362299%)" />
  <rect x="170" y="330" width="30" height="30" fill="hsl(240 100% 85.152972496145%)" />
  <rect x="205" y="330" width="30" height="30" fill="hsl(240 100% 99.10955244412249%)" />
  <rect x="240" y="330" width="30" height="30" fill="hsl(240 100% 74.88217691121679%)" />
  <rect x="275" y="330" width="30" height="30" fill="hsl(240 100% 99.7990725302271%)" />
  <rect x="310" y="330" width="30" height="30" fill="rgb(255 255 255 / 50%)" />
  <rect x="345" y="330" width="30" height="30" fill="hsl(240 100% 96.61828166969124%)" />
  <rect x="380" y="330" width="30" height="30" fill="hsl(240 100% 82.89683912135155%)" />
  <rect x="415" y="330" width="30" height="30" fill="hsl(240 100% 99.77759340544888%)" />
  <rect x="450" y="330" width="30" height="30" fill="hsl(240 100% 66.75264978956174%)" />
  <rect x="485" y="330" width="30" height="30" fill="hsl(240 100% 67.5636425382298%)" />
  <rect x="520" y="330" width="30" height="30" fill="hsl(240 100% 92.43925842828017%)" />
  <rect x="555" y="330" width="30" height="30" fill="hsl(240 100% 50%)" />
  <rect x="660" y="330" width="30" height="30" fill="hsl(240 100% 87.09165335651866%)" />
  <rect x="695" y="330" width="30" height="30" fill="hsl(240 100% 94.25591786310102%)" />
  <rect x="65" y="365" width="30" height="30" fill="hsl(240 100% 57.042338488407076%)" />
  <rect x="100" y="365" width="30" height="30" fill="hsl(240 100% 71.99932597793119%)" />
  <rect x="135" y="365" width="30" height="30" fill="hsl(240 100% 81.83365775813797%)" />
  <rect x="170" y="365" width="30" height="30" fill="hsl(240 100% 50%)" />
  <rect x="205" y="365" width="30" height="30" fill="hsl(240 100% 96.211805862489%)" />
  <rect x="240" y="365" width="30" height="30" fill="hsl(240 100% 59.033189763588666%)" />
  <rect x="275" y="365" width="30" height="30" fill="hsl(240 100% 98.9673322274717%)" />
  <rect x="310" y="365" width="30" height="30" fill="hsl(240 100% 99.86106576947284%)" />
  <rect x="380" y="365" width="30" height="30" fill="hsl(240 100% 66.8515722222343%)" />
  <rect x="485" y="365" width="30" height="30" fill="hsl(240 100% 85.87486945826903%)" />
  <rect x="555" y="365" width="30" height="30" fill="hsl(240 100% 99.63119219196791%)" />
  <rect x="625" y="365" width="30" height="30" fill="hsl(240 100% 63.44500277067507%)" />
  <rect x="660" y="365" width="30" height="30" fill="hsl(240 100% 98.17865759350536%)" />
  <rect x="695" y="365" width="30" height="30" fill="hsl(240 100% 99.18339642315975%)" />
  <rect x="65" y="400" width="30" height="30" fill="hsl(240 100% 98.44316025344352%)" />
  <rect x="100" y="400" width="30" height="30" fill="hsl(240 100% 99.40265940982471%)" />
  <rect x="135" y="400" width="30" height="30" fill="hsl(240 100% 99.65750157014159%)" />
  <rect x="170" y="400" width="30" height="30" fill="hsl(240 100% 95.13199980851768%)" />
  <rect x="205" y="400" width="30" height="30" fill="hsl(240 100% 99.18867518819872%)" />
  <rect x="240" y="400" width="30" height="30" fill="hsl(240 100% 87.7145592734641%)" />
  <rect x="275" y="400" width="30" height="30" fill="hsl(240 100% 99.26631452409323%)" />
  <rect x="310" y="400" width="30" height="30" fill="rgb(255 255 255 / 50%)" />
  <rect x="380" y="400" width="30" height="30" fill="hsl(240 100% 93.6105275482464%)" />
  <rect x="415" y="400" width="30" height="30" fill="hsl(240 100% 99.9727506206931%)" />
  <rect x="450" y="400" width="30" height="30" fill="hsl(240 100% 77.53675323931473%)" />
  <rect x="485" y="400" width="30" height="30" fill="hsl(240 100% 50%)" />
  <rect x="695" y="400" width="30" height="30" fill="hsl(240 100% 99.71395929427528%)" />
  <rect x="65" y="435" width="30" height="30" fill="hsl(240 100% 92.97133673496525%)" />
  <rect x="240" y="435" width="30" height="30" fill="hsl(240 100% 50%)" />
  <rect x="310" y="435" width="30" height="30" fill="hsl(240 100% 93.3489344412038%)" />
  <rect x="380" y="435" width="30" height="30" fill="hsl(240 100% 87.07028794631229%)" />
  <rect x="415" y="435" width="30" height="30" fill="hsl(240 100% 99.78900015110364%)" />
  <rect x="240" y="470" width="30" height="30" fill="hsl(240 100% 50%)" />
  <rect x="310" y="470" width="30" height="30" fill="hsl(240 100% 95.76701290106028%)" />
  <rect x="380" y="470" width="30" height="30" fill="hsl(240 100% 89.25098650834224%)" />
  <rect x="415" y="470" width="30" height="30" fill="hsl(240 100% 99.57636851989527%)" />
</svg>
