<svg xmlns="http://www.w3.org/2000/svg" viewBox="0 0 870 505">
  <rect x="0" y="0" width="870" height="505" rx="5" ry="5" fill="#222" />
  <text x="60" y="100" fill="white" font-family="sans-serif" font-weight="bold" font-size="12" text-anchor="end" dominant-baseline="middle">ba</text>
  <text x="60" y="135" fill="white" font-family="sans-serif" font-weight="bold" font-size="12" text-anchor="end" dominant-baseline="middle">det</text>
  <text x="60" y="170" fill="white" font-family="sans-serif" font-weight="bold" font-size="12" text-anchor="end" dominant-baseline="middle">gmm</text>
  <text x="60" y="205" fill="white" font-family="sans-serif" font-weight="bold" font-size="12" text-anchor="end" dominant-baseline="middle">hello</text>
  <text x="60" y="240" fill="white" font-family="sans-serif" font-weight="bold" font-size="12" text-anchor="end" dominant-baseline="middle">ht</text>
  <text x="60" y="275" fill="white" font-family="sans-serif" font-weight="bold" font-size="12" text-anchor="end" dominant-baseline="middle">kmeans</text>
  <text x="60" y="310" fill="white" font-family="sans-serif" font-weight="bold" font-size="12" text-anchor="end" dominant-baseline="middle">llsq</text>
  <text x="60" y="345" fill="white" font-family="sans-serif" font-weight="bold" font-size="12" text-anchor="end" dominant-baseline="middle">lse</text>
  <text x="60" y="380" fill="white" font-family="sans-serif" font-weight="bold" font-size="12" text-anchor="end" dominant-baseline="middle">lstm</text>
  <text x="60" y="415" fill="white" font-family="sans-serif" font-weight="bold" font-size="12" text-anchor="end" dominant-baseline="middle">ode</text>
  <text x="60" y="450" fill="white" font-family="sans-serif" font-weight="bold" font-size="12" text-anchor="end" dominant-baseline="middle">particle</text>
  <text x="60" y="485" fill="white" font-family="sans-serif" font-weight="bold" font-size="12" text-anchor="end" dominant-baseline="middle">saddle</text>
  <text x="80" y="80" fill="white" font-family="sans-serif" font-weight="bold" font-size="12" text-anchor="end" dominant-baseline="middle" transform="rotate(90 80 80)">ad-hpp</text>
  <text x="115" y="80" fill="white" font-family="sans-serif" font-weight="bold" font-size="12" text-anchor="end" dominant-baseline="middle" transform="rotate(90 115 80)">adept</text>
  <text x="150" y="80" fill="white" font-family="sans-serif" font-weight="bold" font-size="12" text-anchor="end" dominant-baseline="middle" transform="rotate(90 150 80)">adol-c</text>
  <text x="185" y="80" fill="white" font-family="sans-serif" font-weight="bold" font-size="12" text-anchor="end" dominant-baseline="middle" transform="rotate(90 185 80)">codipack</text>
  <text x="220" y="80" fill="white" font-family="sans-serif" font-weight="bold" font-size="12" text-anchor="end" dominant-baseline="middle" transform="rotate(90 220 80)">cppad</text>
  <text x="255" y="80" fill="white" font-family="sans-serif" font-weight="bold" font-size="12" text-anchor="end" dominant-baseline="middle" transform="rotate(90 255 80)">enzyme</text>
  <text x="290" y="80" fill="white" font-family="sans-serif" font-weight="bold" font-size="12" text-anchor="end" dominant-baseline="middle" transform="rotate(90 290 80)">enzyme-jl</text>
  <text x="325" y="80" fill="white" font-family="sans-serif" font-weight="bold" font-size="12" text-anchor="end" dominant-baseline="middle" transform="rotate(90 325 80)">finite</text>
  <text x="360" y="80" fill="white" font-family="sans-serif" font-weight="bold" font-size="12" text-anchor="end" dominant-baseline="middle" transform="rotate(90 360 80)">floretta</text>
  <text x="395" y="80" fill="white" font-family="sans-serif" font-weight="bold" font-size="12" text-anchor="end" dominant-baseline="middle" transform="rotate(90 395 80)">forwarddiff-jl</text>
  <text x="430" y="80" fill="white" font-family="sans-serif" font-weight="bold" font-size="12" text-anchor="end" dominant-baseline="middle" transform="rotate(90 430 80)">futhark</text>
  <text x="465" y="80" fill="white" font-family="sans-serif" font-weight="bold" font-size="12" text-anchor="end" dominant-baseline="middle" transform="rotate(90 465 80)">haskell</text>
  <text x="500" y="80" fill="white" font-family="sans-serif" font-weight="bold" font-size="12" text-anchor="end" dominant-baseline="middle" transform="rotate(90 500 80)">jax</text>
  <text x="535" y="80" fill="white" font-family="sans-serif" font-weight="bold" font-size="12" text-anchor="end" dominant-baseline="middle" transform="rotate(90 535 80)">manual</text>
  <text x="570" y="80" fill="white" font-family="sans-serif" font-weight="bold" font-size="12" text-anchor="end" dominant-baseline="middle" transform="rotate(90 570 80)">mooncake-jl</text>
  <text x="605" y="80" fill="white" font-family="sans-serif" font-weight="bold" font-size="12" text-anchor="end" dominant-baseline="middle" transform="rotate(90 605 80)">ocaml</text>
  <text x="640" y="80" fill="white" font-family="sans-serif" font-weight="bold" font-size="12" text-anchor="end" dominant-baseline="middle" transform="rotate(90 640 80)">pytorch</text>
  <text x="675" y="80" fill="white" font-family="sans-serif" font-weight="bold" font-size="12" text-anchor="end" dominant-baseline="middle" transform="rotate(90 675 80)">reversediff-jl</text>
  <text x="710" y="80" fill="white" font-family="sans-serif" font-weight="bold" font-size="12" text-anchor="end" dominant-baseline="middle" transform="rotate(90 710 80)">scilean</text>
  <text x="745" y="80" fill="white" font-family="sans-serif" font-weight="bold" font-size="12" text-anchor="end" dominant-baseline="middle" transform="rotate(90 745 80)">tapenade</text>
  <text x="780" y="80" fill="white" font-family="sans-serif" font-weight="bold" font-size="12" text-anchor="end" dominant-baseline="middle" transform="rotate(90 780 80)">tensorflow</text>
  <text x="815" y="80" fill="white" font-family="sans-serif" font-weight="bold" font-size="12" text-anchor="end" dominant-baseline="middle" transform="rotate(90 815 80)">tensorflow-js</text>
  <text x="850" y="80" fill="white" font-family="sans-serif" font-weight="bold" font-size="12" text-anchor="end" dominant-baseline="middle" transform="rotate(90 850 80)">zygote</text>
  <rect x="65" y="85" width="30" height="30" fill="hsl(240 100% 80.76201050990905%)" />
  <rect x="100" y="85" width="30" height="30" fill="hsl(240 100% 81.30650917190854%)" />
  <rect x="135" y="85" width="30" height="30" fill="hsl(240 100% 97.89165493858656%)" />
  <rect x="170" y="85" width="30" height="30" fill="hsl(240 100% 81.81881876174495%)" />
  <rect x="205" y="85" width="30" height="30" fill="hsl(240 100% 98.94570100862174%)" />
  <rect x="240" y="85" width="30" height="30" fill="hsl(240 100% 50%)" />
  <rect x="310" y="85" width="30" height="30" fill="hsl(240 100% 92.81811321008905%)" />
  <rect x="415" y="85" width="30" height="30" fill="hsl(240 100% 67.00656349309284%)" />
  <rect x="520" y="85" width="30" height="30" fill="hsl(240 100% 53.692438374553596%)" />
  <rect x="625" y="85" width="30" height="30" fill="rgb(255 255 255 / 50%)" />
  <rect x="730" y="85" width="30" height="30" fill="hsl(240 100% 73.90972544531785%)" />
  <rect x="765" y="85" width="30" height="30" fill="rgb(255 255 255 / 50%)" />
  <rect x="835" y="85" width="30" height="30" fill="hsl(240 100% 99.72479435104063%)" />
  <rect x="65" y="120" width="30" height="30" fill="hsl(240 100% 50%)" />
  <rect x="100" y="120" width="30" height="30" fill="hsl(240 100% 84.2795844116356%)" />
  <rect x="135" y="120" width="30" height="30" fill="hsl(240 100% 83.92637935669268%)" />
  <rect x="170" y="120" width="30" height="30" fill="hsl(240 100% 52.08168943983652%)" />
  <rect x="205" y="120" width="30" height="30" fill="hsl(240 100% 92.50115670837087%)" />
  <rect x="240" y="120" width="30" height="30" fill="hsl(240 100% 91.4878619941446%)" />
  <rect x="275" y="120" width="30" height="30" fill="hsl(240 100% 99.34522912581919%)" />
  <rect x="310" y="120" width="30" height="30" fill="hsl(240 100% 98.98911007976963%)" />
  <rect x="380" y="120" width="30" height="30" fill="hsl(240 100% 93.29309190801506%)" />
  <rect x="415" y="120" width="30" height="30" fill="hsl(240 100% 94.5649978661074%)" />
  <rect x="450" y="120" width="30" height="30" fill="hsl(240 100% 97.8447000124208%)" />
  <rect x="520" y="120" width="30" height="30" fill="hsl(240 100% 79.38802602643725%)" />
  <rect x="555" y="120" width="30" height="30" fill="hsl(240 100% 90.38616778408841%)" />
  <rect x="660" y="120" width="30" height="30" fill="rgb(255 255 255 / 50%)" />
  <rect x="835" y="120" width="30" height="30" fill="rgb(255 255 255 / 50%)" />
  <rect x="65" y="155" width="30" height="30" fill="hsl(240 100% 98.20998929511678%)" />
  <rect x="100" y="155" width="30" height="30" fill="hsl(240 100% 98.78317384449724%)" />
  <rect x="135" y="155" width="30" height="30" fill="hsl(240 100% 99.23392029813958%)" />
  <rect x="170" y="155" width="30" height="30" fill="hsl(240 100% 97.93465750910678%)" />
  <rect x="205" y="155" width="30" height="30" fill="hsl(240 100% 99.8423754951771%)" />
  <rect x="240" y="155" width="30" height="30" fill="hsl(240 100% 90.85915275014985%)" />
  <rect x="275" y="155" width="30" height="30" fill="hsl(240 100% 92.58873404935714%)" />
  <rect x="310" y="155" width="30" height="30" fill="rgb(255 255 255 / 50%)" />
  <rect x="415" y="155" width="30" height="30" fill="hsl(240 100% 92.70694177109372%)" />
  <rect x="485" y="155" width="30" height="30" fill="hsl(240 100% 50%)" />
  <rect x="520" y="155" width="30" height="30" fill="hsl(240 100% 80.45494143549182%)" />
  <rect x="590" y="155" width="30" height="30" fill="hsl(240 100% 99.59793680328363%)" />
  <rect x="625" y="155" width="30" height="30" fill="hsl(240 100% 66.04713481684269%)" />
  <rect x="695" y="155" width="30" height="30" fill="hsl(240 100% 95.249891321401%)" />
  <rect x="730" y="155" width="30" height="30" fill="hsl(240 100% 82.9597927999105%)" />
  <rect x="765" y="155" width="30" height="30" fill="hsl(240 100% 99.56986046790405%)" />
  <rect x="835" y="155" width="30" height="30" fill="hsl(240 100% 95.93594084939471%)" />
  <rect x="65" y="190" width="30" height="30" fill="hsl(240 100% 50%)" />
  <rect x="100" y="190" width="30" height="30" fill="hsl(240 100% 50%)" />
  <rect x="135" y="190" width="30" height="30" fill="hsl(240 100% 50%)" />
  <rect x="170" y="190" width="30" height="30" fill="hsl(240 100% 50%)" />
  <rect x="205" y="190" width="30" height="30" fill="hsl(240 100% 50%)" />
  <rect x="240" y="190" width="30" height="30" fill="hsl(240 100% 50%)" />
  <rect x="275" y="190" width="30" height="30" fill="hsl(240 100% 50%)" />
  <rect x="310" y="190" width="30" height="30" fill="hsl(240 100% 50%)" />
  <rect x="345" y="190" width="30" height="30" fill="hsl(240 100% 50%)" />
  <rect x="380" y="190" width="30" height="30" fill="hsl(240 100% 50%)" />
  <rect x="415" y="190" width="30" height="30" fill="hsl(240 100% 50%)" />
  <rect x="450" y="190" width="30" height="30" fill="hsl(240 100% 50%)" />
  <rect x="485" y="190" width="30" height="30" fill="hsl(240 100% 50%)" />
  <rect x="520" y="190" width="30" height="30" fill="hsl(240 100% 50%)" />
  <rect x="555" y="190" width="30" height="30" fill="hsl(240 100% 50%)" />
  <rect x="590" y="190" width="30" height="30" fill="hsl(240 100% 50%)" />
  <rect x="625" y="190" width="30" height="30" fill="hsl(240 100% 50%)" />
  <rect x="660" y="190" width="30" height="30" fill="hsl(240 100% 50%)" />
  <rect x="695" y="190" width="30" height="30" fill="hsl(240 100% 50%)" />
  <rect x="730" y="190" width="30" height="30" fill="hsl(240 100% 50%)" />
  <rect x="765" y="190" width="30" height="30" fill="hsl(240 100% 50%)" />
  <rect x="800" y="190" width="30" height="30" fill="hsl(240 100% 50%)" />
  <rect x="835" y="190" width="30" height="30" fill="hsl(240 100% 50%)" />
  <rect x="100" y="225" width="30" height="30" fill="hsl(240 100% 96.33182411235381%)" />
  <rect x="135" y="225" width="30" height="30" fill="hsl(240 100% 86.7987168459182%)" />
  <rect x="170" y="225" width="30" height="30" fill="hsl(240 100% 88.21678910691197%)" />
  <rect x="240" y="225" width="30" height="30" fill="hsl(240 100% 90.39553939985144%)" />
  <rect x="310" y="225" width="30" height="30" fill="rgb(255 255 255 / 50%)" />
  <rect x="415" y="225" width="30" height="30" fill="hsl(240 100% 89.56311081558461%)" />
  <rect x="520" y="225" width="30" height="30" fill="hsl(240 100% 50%)" />
  <rect x="625" y="225" width="30" height="30" fill="rgb(255 255 255 / 50%)" />
  <rect x="730" y="225" width="30" height="30" fill="hsl(240 100% 92.55663786277756%)" />
  <rect x="765" y="225" width="30" height="30" fill="rgb(255 255 255 / 50%)" />
  <rect x="835" y="225" width="30" height="30" fill="hsl(240 100% 93.77826652760464%)" />
  <rect x="65" y="260" width="30" height="30" fill="hsl(240 100% 99.84182086675818%)" />
  <rect x="135" y="260" width="30" height="30" fill="hsl(240 100% 99.85295522091218%)" />
  <rect x="170" y="260" width="30" height="30" fill="hsl(240 100% 98.89798248479114%)" />
  <rect x="205" y="260" width="30" height="30" fill="rgb(255 255 255 / 50%)" />
  <rect x="240" y="260" width="30" height="30" fill="hsl(240 100% 86.65987482830351%)" />
  <rect x="310" y="260" width="30" height="30" fill="rgb(255 255 255 / 50%)" />
  <rect x="415" y="260" width="30" height="30" fill="hsl(240 100% 80.06988133512209%)" />
  <rect x="450" y="260" width="30" height="30" fill="rgb(255 255 255 / 50%)" />
  <rect x="485" y="260" width="30" height="30" fill="hsl(240 100% 50%)" />
  <rect x="520" y="260" width="30" height="30" fill="hsl(240 100% 71.52196538124707%)" />
  <rect x="625" y="260" width="30" height="30" fill="hsl(240 100% 96.89215388698837%)" />
  <rect x="695" y="260" width="30" height="30" fill="hsl(240 100% 93.92536680353894%)" />
  <rect x="65" y="295" width="30" height="30" fill="hsl(240 100% 86.03863863821124%)" />
  <rect x="100" y="295" width="30" height="30" fill="hsl(240 100% 97.50529380926275%)" />
  <rect x="135" y="295" width="30" height="30" fill="hsl(240 100% 95.26576334877987%)" />
  <rect x="170" y="295" width="30" height="30" fill="hsl(240 100% 87.55471785240209%)" />
  <rect x="205" y="295" width="30" height="30" fill="hsl(240 100% 99.48485724879347%)" />
  <rect x="240" y="295" width="30" height="30" fill="hsl(240 100% 50.42022606744608%)" />
  <rect x="275" y="295" width="30" height="30" fill="hsl(240 100% 50%)" />
  <rect x="310" y="295" width="30" height="30" fill="hsl(240 100% 99.49646034060511%)" />
  <rect x="345" y="295" width="30" height="30" fill="hsl(240 100% 94.68037988015772%)" />
  <rect x="415" y="295" width="30" height="30" fill="hsl(240 100% 54.955347502646475%)" />
  <rect x="450" y="295" width="30" height="30" fill="hsl(240 100% 99.34584532454976%)" />
  <rect x="485" y="295" width="30" height="30" fill="hsl(240 100% 89.10778915854121%)" />
  <rect x="520" y="295" width="30" height="30" fill="hsl(240 100% 57.62128441145252%)" />
  <rect x="695" y="295" width="30" height="30" fill="hsl(240 100% 97.59528551819949%)" />
  <rect x="800" y="295" width="30" height="30" fill="hsl(240 100% 99.56544723106168%)" />
  <rect x="835" y="295" width="30" height="30" fill="hsl(240 100% 99.95530249090336%)" />
  <rect x="65" y="330" width="30" height="30" fill="hsl(240 100% 85.60517711018358%)" />
  <rect x="100" y="330" width="30" height="30" fill="hsl(240 100% 93.72541881778434%)" />
  <rect x="135" y="330" width="30" height="30" fill="hsl(240 100% 96.58654387350136%)" />
  <rect x="170" y="330" width="30" height="30" fill="hsl(240 100% 85.27794932124571%)" />
  <rect x="205" y="330" width="30" height="30" fill="hsl(240 100% 99.11346062911264%)" />
  <rect x="240" y="330" width="30" height="30" fill="hsl(240 100% 77.21131039577686%)" />
  <rect x="275" y="330" width="30" height="30" fill="hsl(240 100% 91.1935087880622%)" />
  <rect x="310" y="330" width="30" height="30" fill="rgb(255 255 255 / 50%)" />
  <rect x="345" y="330" width="30" height="30" fill="hsl(240 100% 96.87582704630425%)" />
  <rect x="415" y="330" width="30" height="30" fill="hsl(240 100% 84.04991993389825%)" />
  <rect x="450" y="330" width="30" height="30" fill="hsl(240 100% 99.79361301983607%)" />
  <rect x="485" y="330" width="30" height="30" fill="hsl(240 100% 66.59467642898431%)" />
  <rect x="520" y="330" width="30" height="30" fill="hsl(240 100% 66.65162630134206%)" />
  <rect x="590" y="330" width="30" height="30" fill="hsl(240 100% 92.99414015629213%)" />
  <rect x="625" y="330" width="30" height="30" fill="hsl(240 100% 50%)" />
  <rect x="765" y="330" width="30" height="30" fill="hsl(240 100% 94.14749422109307%)" />
  <rect x="800" y="330" width="30" height="30" fill="hsl(240 100% 99.10218504203186%)" />
  <rect x="835" y="330" width="30" height="30" fill="hsl(240 100% 77.26910833695175%)" />
  <rect x="65" y="365" width="30" height="30" fill="hsl(240 100% 58.864345607092865%)" />
  <rect x="100" y="365" width="30" height="30" fill="hsl(240 100% 72.15049577887251%)" />
  <rect x="135" y="365" width="30" height="30" fill="hsl(240 100% 82.45508104291787%)" />
  <rect x="170" y="365" width="30" height="30" fill="hsl(240 100% 50%)" />
  <rect x="205" y="365" width="30" height="30" fill="hsl(240 100% 96.07633195765412%)" />
  <rect x="240" y="365" width="30" height="30" fill="hsl(240 100% 60.52864151239945%)" />
  <rect x="275" y="365" width="30" height="30" fill="hsl(240 100% 92.8605071603945%)" />
  <rect x="310" y="365" width="30" height="30" fill="hsl(240 100% 99.86516084569985%)" />
  <rect x="415" y="365" width="30" height="30" fill="hsl(240 100% 67.3836862853451%)" />
  <rect x="520" y="365" width="30" height="30" fill="hsl(240 100% 86.49878876604775%)" />
  <rect x="625" y="365" width="30" height="30" fill="hsl(240 100% 99.64290103033609%)" />
  <rect x="730" y="365" width="30" height="30" fill="hsl(240 100% 59.543025033709156%)" />
  <rect x="765" y="365" width="30" height="30" fill="hsl(240 100% 98.22384437484943%)" />
  <rect x="835" y="365" width="30" height="30" fill="hsl(240 100% 98.7696799115533%)" />
  <rect x="65" y="400" width="30" height="30" fill="hsl(240 100% 98.04725078469988%)" />
  <rect x="100" y="400" width="30" height="30" fill="hsl(240 100% 99.40235738136693%)" />
  <rect x="135" y="400" width="30" height="30" fill="hsl(240 100% 99.64514488418158%)" />
  <rect x="170" y="400" width="30" height="30" fill="hsl(240 100% 93.68782506947825%)" />
  <rect x="205" y="400" width="30" height="30" fill="hsl(240 100% 99.201069673705%)" />
  <rect x="240" y="400" width="30" height="30" fill="hsl(240 100% 85.32438449384853%)" />
  <rect x="275" y="400" width="30" height="30" fill="hsl(240 100% 95.06412482942606%)" />
  <rect x="310" y="400" width="30" height="30" fill="rgb(255 255 255 / 50%)" />
  <rect x="380" y="400" width="30" height="30" fill="rgb(255 255 255 / 50%)" />
  <rect x="415" y="400" width="30" height="30" fill="hsl(240 100% 93.70291659426327%)" />
  <rect x="450" y="400" width="30" height="30" fill="hsl(240 100% 99.96883517685092%)" />
  <rect x="485" y="400" width="30" height="30" fill="hsl(240 100% 77.4965019321835%)" />
  <rect x="520" y="400" width="30" height="30" fill="hsl(240 100% 50%)" />
  <rect x="555" y="400" width="30" height="30" fill="hsl(240 100% 99.08324538151862%)" />
  <rect x="660" y="400" width="30" height="30" fill="rgb(255 255 255 / 50%)" />
  <rect x="835" y="400" width="30" height="30" fill="hsl(240 100% 99.15973453445605%)" />
  <rect x="65" y="435" width="30" height="30" fill="hsl(240 100% 93.3101290507529%)" />
  <rect x="240" y="435" width="30" height="30" fill="hsl(240 100% 50%)" />
  <rect x="310" y="435" width="30" height="30" fill="hsl(240 100% 93.8537603244596%)" />
  <rect x="415" y="435" width="30" height="30" fill="hsl(240 100% 86.98961463028292%)" />
  <rect x="450" y="435" width="30" height="30" fill="hsl(240 100% 99.78093562663082%)" />
  <rect x="65" y="470" width="30" height="30" fill="hsl(240 100% 50%)" />
  <rect x="240" y="470" width="30" height="30" fill="hsl(240 100% 50.14444925238009%)" />
  <rect x="310" y="470" width="30" height="30" fill="hsl(240 100% 96.96930162582335%)" />
  <rect x="415" y="470" width="30" height="30" fill="hsl(240 100% 89.14686595686521%)" />
  <rect x="450" y="470" width="30" height="30" fill="hsl(240 100% 99.56933020535999%)" />
</svg>
