<svg xmlns="http://www.w3.org/2000/svg" viewBox="0 0 870 505">
  <rect x="0" y="0" width="870" height="505" rx="5" ry="5" fill="#222" />
  <text x="60" y="100" fill="white" font-family="sans-serif" font-weight="bold" font-size="12" text-anchor="end" dominant-baseline="middle">ba</text>
  <text x="60" y="135" fill="white" font-family="sans-serif" font-weight="bold" font-size="12" text-anchor="end" dominant-baseline="middle">det</text>
  <text x="60" y="170" fill="white" font-family="sans-serif" font-weight="bold" font-size="12" text-anchor="end" dominant-baseline="middle">gmm</text>
  <text x="60" y="205" fill="white" font-family="sans-serif" font-weight="bold" font-size="12" text-anchor="end" dominant-baseline="middle">hello</text>
  <text x="60" y="240" fill="white" font-family="sans-serif" font-weight="bold" font-size="12" text-anchor="end" dominant-baseline="middle">ht</text>
  <text x="60" y="275" fill="white" font-family="sans-serif" font-weight="bold" font-size="12" text-anchor="end" dominant-baseline="middle">kmeans</text>
  <text x="60" y="310" fill="white" font-family="sans-serif" font-weight="bold" font-size="12" text-anchor="end" dominant-baseline="middle">llsq</text>
  <text x="60" y="345" fill="white" font-family="sans-serif" font-weight="bold" font-size="12" text-anchor="end" dominant-baseline="middle">lse</text>
  <text x="60" y="380" fill="white" font-family="sans-serif" font-weight="bold" font-size="12" text-anchor="end" dominant-baseline="middle">lstm</text>
  <text x="60" y="415" fill="white" font-family="sans-serif" font-weight="bold" font-size="12" text-anchor="end" dominant-baseline="middle">ode</text>
  <text x="60" y="450" fill="white" font-family="sans-serif" font-weight="bold" font-size="12" text-anchor="end" dominant-baseline="middle">particle</text>
  <text x="60" y="485" fill="white" font-family="sans-serif" font-weight="bold" font-size="12" text-anchor="end" dominant-baseline="middle">saddle</text>
  <text x="80" y="80" fill="white" font-family="sans-serif" font-weight="bold" font-size="12" text-anchor="end" dominant-baseline="middle" transform="rotate(90 80 80)">ad-hpp</text>
  <text x="115" y="80" fill="white" font-family="sans-serif" font-weight="bold" font-size="12" text-anchor="end" dominant-baseline="middle" transform="rotate(90 115 80)">adept</text>
  <text x="150" y="80" fill="white" font-family="sans-serif" font-weight="bold" font-size="12" text-anchor="end" dominant-baseline="middle" transform="rotate(90 150 80)">adol-c</text>
  <text x="185" y="80" fill="white" font-family="sans-serif" font-weight="bold" font-size="12" text-anchor="end" dominant-baseline="middle" transform="rotate(90 185 80)">codipack</text>
  <text x="220" y="80" fill="white" font-family="sans-serif" font-weight="bold" font-size="12" text-anchor="end" dominant-baseline="middle" transform="rotate(90 220 80)">cppad</text>
  <text x="255" y="80" fill="white" font-family="sans-serif" font-weight="bold" font-size="12" text-anchor="end" dominant-baseline="middle" transform="rotate(90 255 80)">enzyme</text>
  <text x="290" y="80" fill="white" font-family="sans-serif" font-weight="bold" font-size="12" text-anchor="end" dominant-baseline="middle" transform="rotate(90 290 80)">enzyme-jl</text>
  <text x="325" y="80" fill="white" font-family="sans-serif" font-weight="bold" font-size="12" text-anchor="end" dominant-baseline="middle" transform="rotate(90 325 80)">finite</text>
  <text x="360" y="80" fill="white" font-family="sans-serif" font-weight="bold" font-size="12" text-anchor="end" dominant-baseline="middle" transform="rotate(90 360 80)">floretta</text>
  <text x="395" y="80" fill="white" font-family="sans-serif" font-weight="bold" font-size="12" text-anchor="end" dominant-baseline="middle" transform="rotate(90 395 80)">forwarddiff-jl</text>
  <text x="430" y="80" fill="white" font-family="sans-serif" font-weight="bold" font-size="12" text-anchor="end" dominant-baseline="middle" transform="rotate(90 430 80)">futhark</text>
  <text x="465" y="80" fill="white" font-family="sans-serif" font-weight="bold" font-size="12" text-anchor="end" dominant-baseline="middle" transform="rotate(90 465 80)">haskell</text>
  <text x="500" y="80" fill="white" font-family="sans-serif" font-weight="bold" font-size="12" text-anchor="end" dominant-baseline="middle" transform="rotate(90 500 80)">jax</text>
  <text x="535" y="80" fill="white" font-family="sans-serif" font-weight="bold" font-size="12" text-anchor="end" dominant-baseline="middle" transform="rotate(90 535 80)">manual</text>
  <text x="570" y="80" fill="white" font-family="sans-serif" font-weight="bold" font-size="12" text-anchor="end" dominant-baseline="middle" transform="rotate(90 570 80)">mooncake-jl</text>
  <text x="605" y="80" fill="white" font-family="sans-serif" font-weight="bold" font-size="12" text-anchor="end" dominant-baseline="middle" transform="rotate(90 605 80)">ocaml</text>
  <text x="640" y="80" fill="white" font-family="sans-serif" font-weight="bold" font-size="12" text-anchor="end" dominant-baseline="middle" transform="rotate(90 640 80)">pytorch</text>
  <text x="675" y="80" fill="white" font-family="sans-serif" font-weight="bold" font-size="12" text-anchor="end" dominant-baseline="middle" transform="rotate(90 675 80)">reversediff-jl</text>
  <text x="710" y="80" fill="white" font-family="sans-serif" font-weight="bold" font-size="12" text-anchor="end" dominant-baseline="middle" transform="rotate(90 710 80)">scilean</text>
  <text x="745" y="80" fill="white" font-family="sans-serif" font-weight="bold" font-size="12" text-anchor="end" dominant-baseline="middle" transform="rotate(90 745 80)">tapenade</text>
  <text x="780" y="80" fill="white" font-family="sans-serif" font-weight="bold" font-size="12" text-anchor="end" dominant-baseline="middle" transform="rotate(90 780 80)">tensorflow</text>
  <text x="815" y="80" fill="white" font-family="sans-serif" font-weight="bold" font-size="12" text-anchor="end" dominant-baseline="middle" transform="rotate(90 815 80)">tensorflow-js</text>
  <text x="850" y="80" fill="white" font-family="sans-serif" font-weight="bold" font-size="12" text-anchor="end" dominant-baseline="middle" transform="rotate(90 850 80)">zygote</text>
  <rect x="65" y="85" width="30" height="30" fill="hsl(240 100% 81.1708842040444%)" />
  <rect x="100" y="85" width="30" height="30" fill="hsl(240 100% 83.2643332805747%)" />
  <rect x="135" y="85" width="30" height="30" fill="hsl(240 100% 97.9936680477174%)" />
  <rect x="170" y="85" width="30" height="30" fill="hsl(240 100% 82.32097223039439%)" />
  <rect x="205" y="85" width="30" height="30" fill="hsl(240 100% 99.00061361117359%)" />
  <rect x="240" y="85" width="30" height="30" fill="hsl(240 100% 51.69744692451269%)" />
  <rect x="310" y="85" width="30" height="30" fill="hsl(240 100% 93.27801573347223%)" />
  <rect x="415" y="85" width="30" height="30" fill="hsl(240 100% 68.31153474261669%)" />
  <rect x="520" y="85" width="30" height="30" fill="hsl(240 100% 50%)" />
  <rect x="625" y="85" width="30" height="30" fill="rgb(255 255 255 / 50%)" />
  <rect x="730" y="85" width="30" height="30" fill="hsl(240 100% 74.87440936615548%)" />
  <rect x="765" y="85" width="30" height="30" fill="rgb(255 255 255 / 50%)" />
  <rect x="835" y="85" width="30" height="30" fill="hsl(240 100% 99.76092374698102%)" />
  <rect x="65" y="120" width="30" height="30" fill="hsl(240 100% 50%)" />
  <rect x="100" y="120" width="30" height="30" fill="hsl(240 100% 82.04407262452915%)" />
  <rect x="135" y="120" width="30" height="30" fill="hsl(240 100% 85.24603545815549%)" />
  <rect x="170" y="120" width="30" height="30" fill="hsl(240 100% 50.98801166907824%)" />
  <rect x="205" y="120" width="30" height="30" fill="hsl(240 100% 92.28540182732458%)" />
  <rect x="240" y="120" width="30" height="30" fill="hsl(240 100% 91.33977940775665%)" />
  <rect x="275" y="120" width="30" height="30" fill="hsl(240 100% 99.31305030379856%)" />
  <rect x="310" y="120" width="30" height="30" fill="hsl(240 100% 98.94968517857404%)" />
  <rect x="380" y="120" width="30" height="30" fill="hsl(240 100% 93.06237094558911%)" />
  <rect x="415" y="120" width="30" height="30" fill="hsl(240 100% 94.40121623183252%)" />
  <rect x="450" y="120" width="30" height="30" fill="hsl(240 100% 97.8055323777034%)" />
  <rect x="520" y="120" width="30" height="30" fill="hsl(240 100% 78.98967980670935%)" />
  <rect x="555" y="120" width="30" height="30" fill="hsl(240 100% 89.98762956123502%)" />
  <rect x="660" y="120" width="30" height="30" fill="rgb(255 255 255 / 50%)" />
  <rect x="835" y="120" width="30" height="30" fill="rgb(255 255 255 / 50%)" />
  <rect x="65" y="155" width="30" height="30" fill="hsl(240 100% 98.57080512352772%)" />
  <rect x="100" y="155" width="30" height="30" fill="hsl(240 100% 98.76313861053987%)" />
  <rect x="135" y="155" width="30" height="30" fill="hsl(240 100% 99.07637479567475%)" />
  <rect x="170" y="155" width="30" height="30" fill="hsl(240 100% 97.9942927440048%)" />
  <rect x="205" y="155" width="30" height="30" fill="hsl(240 100% 99.84372054780657%)" />
  <rect x="240" y="155" width="30" height="30" fill="hsl(240 100% 91.05798479151763%)" />
  <rect x="275" y="155" width="30" height="30" fill="hsl(240 100% 92.38082675194967%)" />
  <rect x="310" y="155" width="30" height="30" fill="rgb(255 255 255 / 50%)" />
  <rect x="415" y="155" width="30" height="30" fill="hsl(240 100% 92.87915737808113%)" />
  <rect x="485" y="155" width="30" height="30" fill="hsl(240 100% 50%)" />
  <rect x="520" y="155" width="30" height="30" fill="hsl(240 100% 82.96670308169179%)" />
  <rect x="590" y="155" width="30" height="30" fill="hsl(240 100% 99.55371345240142%)" />
  <rect x="625" y="155" width="30" height="30" fill="hsl(240 100% 68.39812427908076%)" />
  <rect x="695" y="155" width="30" height="30" fill="hsl(240 100% 95.25344364748811%)" />
  <rect x="730" y="155" width="30" height="30" fill="hsl(240 100% 82.98469528098471%)" />
  <rect x="765" y="155" width="30" height="30" fill="hsl(240 100% 99.57302072287244%)" />
  <rect x="835" y="155" width="30" height="30" fill="hsl(240 100% 96.08609085633559%)" />
  <rect x="65" y="190" width="30" height="30" fill="hsl(240 100% 50%)" />
  <rect x="100" y="190" width="30" height="30" fill="hsl(240 100% 50%)" />
  <rect x="135" y="190" width="30" height="30" fill="hsl(240 100% 50%)" />
  <rect x="170" y="190" width="30" height="30" fill="hsl(240 100% 50%)" />
  <rect x="205" y="190" width="30" height="30" fill="hsl(240 100% 50%)" />
  <rect x="240" y="190" width="30" height="30" fill="hsl(240 100% 50%)" />
  <rect x="275" y="190" width="30" height="30" fill="hsl(240 100% 50%)" />
  <rect x="310" y="190" width="30" height="30" fill="hsl(240 100% 50%)" />
  <rect x="345" y="190" width="30" height="30" fill="hsl(240 100% 50%)" />
  <rect x="380" y="190" width="30" height="30" fill="hsl(240 100% 50%)" />
  <rect x="415" y="190" width="30" height="30" fill="hsl(240 100% 50%)" />
  <rect x="450" y="190" width="30" height="30" fill="hsl(240 100% 50%)" />
  <rect x="485" y="190" width="30" height="30" fill="hsl(240 100% 50%)" />
  <rect x="520" y="190" width="30" height="30" fill="hsl(240 100% 50%)" />
  <rect x="555" y="190" width="30" height="30" fill="hsl(240 100% 50%)" />
  <rect x="590" y="190" width="30" height="30" fill="hsl(240 100% 50%)" />
  <rect x="625" y="190" width="30" height="30" fill="hsl(240 100% 50%)" />
  <rect x="660" y="190" width="30" height="30" fill="hsl(240 100% 50%)" />
  <rect x="695" y="190" width="30" height="30" fill="hsl(240 100% 50%)" />
  <rect x="730" y="190" width="30" height="30" fill="hsl(240 100% 50%)" />
  <rect x="765" y="190" width="30" height="30" fill="hsl(240 100% 50%)" />
  <rect x="800" y="190" width="30" height="30" fill="hsl(240 100% 50%)" />
  <rect x="835" y="190" width="30" height="30" fill="hsl(240 100% 50%)" />
  <rect x="100" y="225" width="30" height="30" fill="hsl(240 100% 96.68861128495708%)" />
  <rect x="135" y="225" width="30" height="30" fill="hsl(240 100% 89.19201901517498%)" />
  <rect x="170" y="225" width="30" height="30" fill="hsl(240 100% 89.19808659947833%)" />
  <rect x="240" y="225" width="30" height="30" fill="hsl(240 100% 91.29116734362486%)" />
  <rect x="310" y="225" width="30" height="30" fill="rgb(255 255 255 / 50%)" />
  <rect x="415" y="225" width="30" height="30" fill="hsl(240 100% 90.51401360479412%)" />
  <rect x="520" y="225" width="30" height="30" fill="hsl(240 100% 50%)" />
  <rect x="625" y="225" width="30" height="30" fill="rgb(255 255 255 / 50%)" />
  <rect x="730" y="225" width="30" height="30" fill="hsl(240 100% 93.27066410483809%)" />
  <rect x="765" y="225" width="30" height="30" fill="rgb(255 255 255 / 50%)" />
  <rect x="835" y="225" width="30" height="30" fill="hsl(240 100% 94.14350553584609%)" />
  <rect x="65" y="260" width="30" height="30" fill="hsl(240 100% 99.84599996352979%)" />
  <rect x="135" y="260" width="30" height="30" fill="hsl(240 100% 99.8575444939194%)" />
  <rect x="170" y="260" width="30" height="30" fill="hsl(240 100% 98.93597585281526%)" />
  <rect x="205" y="260" width="30" height="30" fill="rgb(255 255 255 / 50%)" />
  <rect x="240" y="260" width="30" height="30" fill="hsl(240 100% 87.04550082490746%)" />
  <rect x="310" y="260" width="30" height="30" fill="rgb(255 255 255 / 50%)" />
  <rect x="415" y="260" width="30" height="30" fill="hsl(240 100% 80.87890411206664%)" />
  <rect x="450" y="260" width="30" height="30" fill="rgb(255 255 255 / 50%)" />
  <rect x="485" y="260" width="30" height="30" fill="hsl(240 100% 50%)" />
  <rect x="520" y="260" width="30" height="30" fill="hsl(240 100% 71.17343439202102%)" />
  <rect x="625" y="260" width="30" height="30" fill="hsl(240 100% 96.95692670210799%)" />
  <rect x="695" y="260" width="30" height="30" fill="hsl(240 100% 94.13003535981244%)" />
  <rect x="65" y="295" width="30" height="30" fill="hsl(240 100% 85.84943562508491%)" />
  <rect x="100" y="295" width="30" height="30" fill="hsl(240 100% 97.55445841999646%)" />
  <rect x="135" y="295" width="30" height="30" fill="hsl(240 100% 95.14970691631714%)" />
  <rect x="170" y="295" width="30" height="30" fill="hsl(240 100% 90.69882022774338%)" />
  <rect x="205" y="295" width="30" height="30" fill="hsl(240 100% 99.46084272845468%)" />
  <rect x="240" y="295" width="30" height="30" fill="hsl(240 100% 50.872192741603186%)" />
  <rect x="275" y="295" width="30" height="30" fill="hsl(240 100% 50%)" />
  <rect x="310" y="295" width="30" height="30" fill="hsl(240 100% 99.50034228897036%)" />
  <rect x="345" y="295" width="30" height="30" fill="hsl(240 100% 94.81628914358977%)" />
  <rect x="415" y="295" width="30" height="30" fill="hsl(240 100% 55.290083730325684%)" />
  <rect x="450" y="295" width="30" height="30" fill="hsl(240 100% 99.34028441808111%)" />
  <rect x="485" y="295" width="30" height="30" fill="hsl(240 100% 88.38186120294095%)" />
  <rect x="520" y="295" width="30" height="30" fill="hsl(240 100% 57.99456828161948%)" />
  <rect x="695" y="295" width="30" height="30" fill="hsl(240 100% 97.61155498435328%)" />
  <rect x="800" y="295" width="30" height="30" fill="hsl(240 100% 99.56769569557633%)" />
  <rect x="835" y="295" width="30" height="30" fill="hsl(240 100% 99.95518322595771%)" />
  <rect x="65" y="330" width="30" height="30" fill="hsl(240 100% 89.33892845280968%)" />
  <rect x="100" y="330" width="30" height="30" fill="hsl(240 100% 95.0427429882367%)" />
  <rect x="135" y="330" width="30" height="30" fill="hsl(240 100% 97.28592627163947%)" />
  <rect x="170" y="330" width="30" height="30" fill="hsl(240 100% 89.01272317015922%)" />
  <rect x="205" y="330" width="30" height="30" fill="hsl(240 100% 99.2567584486475%)" />
  <rect x="240" y="330" width="30" height="30" fill="hsl(240 100% 80.75808191977313%)" />
  <rect x="275" y="330" width="30" height="30" fill="hsl(240 100% 87.70267811227748%)" />
  <rect x="310" y="330" width="30" height="30" fill="rgb(255 255 255 / 50%)" />
  <rect x="345" y="330" width="30" height="30" fill="hsl(240 100% 97.40007576691625%)" />
  <rect x="415" y="330" width="30" height="30" fill="hsl(240 100% 86.46416320671733%)" />
  <rect x="450" y="330" width="30" height="30" fill="hsl(240 100% 99.82165032133777%)" />
  <rect x="485" y="330" width="30" height="30" fill="hsl(240 100% 72.6190046941549%)" />
  <rect x="520" y="330" width="30" height="30" fill="hsl(240 100% 77.88131821452245%)" />
  <rect x="590" y="330" width="30" height="30" fill="hsl(240 100% 94.1831820544508%)" />
  <rect x="625" y="330" width="30" height="30" fill="hsl(240 100% 50%)" />
  <rect x="765" y="330" width="30" height="30" fill="hsl(240 100% 94.99173416001477%)" />
  <rect x="800" y="330" width="30" height="30" fill="hsl(240 100% 99.2501490281423%)" />
  <rect x="835" y="330" width="30" height="30" fill="hsl(240 100% 81.62913367994793%)" />
  <rect x="65" y="365" width="30" height="30" fill="hsl(240 100% 57.55682882278217%)" />
  <rect x="100" y="365" width="30" height="30" fill="hsl(240 100% 71.93489730713048%)" />
  <rect x="135" y="365" width="30" height="30" fill="hsl(240 100% 81.66094428243687%)" />
  <rect x="170" y="365" width="30" height="30" fill="hsl(240 100% 50%)" />
  <rect x="205" y="365" width="30" height="30" fill="hsl(240 100% 96.24208080988855%)" />
  <rect x="240" y="365" width="30" height="30" fill="hsl(240 100% 59.669054100146354%)" />
  <rect x="275" y="365" width="30" height="30" fill="hsl(240 100% 92.77104910470769%)" />
  <rect x="310" y="365" width="30" height="30" fill="hsl(240 100% 99.86208836110865%)" />
  <rect x="415" y="365" width="30" height="30" fill="hsl(240 100% 66.4059693996315%)" />
  <rect x="520" y="365" width="30" height="30" fill="hsl(240 100% 85.91640210780695%)" />
  <rect x="625" y="365" width="30" height="30" fill="hsl(240 100% 99.62778708835867%)" />
  <rect x="730" y="365" width="30" height="30" fill="hsl(240 100% 63.92008071686976%)" />
  <rect x="765" y="365" width="30" height="30" fill="hsl(240 100% 98.15459984280783%)" />
  <rect x="835" y="365" width="30" height="30" fill="hsl(240 100% 98.74592637266859%)" />
  <rect x="65" y="400" width="30" height="30" fill="hsl(240 100% 98.0448771177101%)" />
  <rect x="100" y="400" width="30" height="30" fill="hsl(240 100% 99.24328654352877%)" />
  <rect x="135" y="400" width="30" height="30" fill="hsl(240 100% 99.57401174733435%)" />
  <rect x="170" y="400" width="30" height="30" fill="hsl(240 100% 93.91729056620848%)" />
  <rect x="205" y="400" width="30" height="30" fill="hsl(240 100% 99.00341881647755%)" />
  <rect x="240" y="400" width="30" height="30" fill="hsl(240 100% 81.59404992188585%)" />
  <rect x="275" y="400" width="30" height="30" fill="hsl(240 100% 93.98257874161013%)" />
  <rect x="310" y="400" width="30" height="30" fill="rgb(255 255 255 / 50%)" />
  <rect x="380" y="400" width="30" height="30" fill="rgb(255 255 255 / 50%)" />
  <rect x="415" y="400" width="30" height="30" fill="hsl(240 100% 92.21337257098585%)" />
  <rect x="450" y="400" width="30" height="30" fill="hsl(240 100% 99.9656204618249%)" />
  <rect x="485" y="400" width="30" height="30" fill="hsl(240 100% 71.96274238556376%)" />
  <rect x="520" y="400" width="30" height="30" fill="hsl(240 100% 50%)" />
  <rect x="555" y="400" width="30" height="30" fill="hsl(240 100% 98.83526422499516%)" />
  <rect x="660" y="400" width="30" height="30" fill="rgb(255 255 255 / 50%)" />
  <rect x="835" y="400" width="30" height="30" fill="hsl(240 100% 98.99858956735139%)" />
  <rect x="65" y="435" width="30" height="30" fill="hsl(240 100% 92.86953991802537%)" />
  <rect x="240" y="435" width="30" height="30" fill="hsl(240 100% 50%)" />
  <rect x="310" y="435" width="30" height="30" fill="hsl(240 100% 94.31139913236649%)" />
  <rect x="415" y="435" width="30" height="30" fill="hsl(240 100% 87.0156598435105%)" />
  <rect x="450" y="435" width="30" height="30" fill="hsl(240 100% 99.78357074052782%)" />
  <rect x="65" y="470" width="30" height="30" fill="hsl(240 100% 50%)" />
  <rect x="240" y="470" width="30" height="30" fill="hsl(240 100% 50.389903173306486%)" />
  <rect x="310" y="470" width="30" height="30" fill="hsl(240 100% 97.16406183113962%)" />
  <rect x="415" y="470" width="30" height="30" fill="hsl(240 100% 89.06567839724823%)" />
  <rect x="450" y="470" width="30" height="30" fill="hsl(240 100% 99.56492363637797%)" />
</svg>
