<svg xmlns="http://www.w3.org/2000/svg" viewBox="0 0 730 505">
  <rect x="0" y="0" width="730" height="505" rx="5" ry="5" fill="#222" />
  <text x="60" y="100" fill="white" font-family="sans-serif" font-weight="bold" font-size="12" text-anchor="end" dominant-baseline="middle">ba</text>
  <text x="60" y="135" fill="white" font-family="sans-serif" font-weight="bold" font-size="12" text-anchor="end" dominant-baseline="middle">det</text>
  <text x="60" y="170" fill="white" font-family="sans-serif" font-weight="bold" font-size="12" text-anchor="end" dominant-baseline="middle">gmm</text>
  <text x="60" y="205" fill="white" font-family="sans-serif" font-weight="bold" font-size="12" text-anchor="end" dominant-baseline="middle">hello</text>
  <text x="60" y="240" fill="white" font-family="sans-serif" font-weight="bold" font-size="12" text-anchor="end" dominant-baseline="middle">ht</text>
  <text x="60" y="275" fill="white" font-family="sans-serif" font-weight="bold" font-size="12" text-anchor="end" dominant-baseline="middle">kmeans</text>
  <text x="60" y="310" fill="white" font-family="sans-serif" font-weight="bold" font-size="12" text-anchor="end" dominant-baseline="middle">llsq</text>
  <text x="60" y="345" fill="white" font-family="sans-serif" font-weight="bold" font-size="12" text-anchor="end" dominant-baseline="middle">lse</text>
  <text x="60" y="380" fill="white" font-family="sans-serif" font-weight="bold" font-size="12" text-anchor="end" dominant-baseline="middle">lstm</text>
  <text x="60" y="415" fill="white" font-family="sans-serif" font-weight="bold" font-size="12" text-anchor="end" dominant-baseline="middle">ode</text>
  <text x="60" y="450" fill="white" font-family="sans-serif" font-weight="bold" font-size="12" text-anchor="end" dominant-baseline="middle">particle</text>
  <text x="60" y="485" fill="white" font-family="sans-serif" font-weight="bold" font-size="12" text-anchor="end" dominant-baseline="middle">saddle</text>
  <text x="80" y="80" fill="white" font-family="sans-serif" font-weight="bold" font-size="12" text-anchor="end" dominant-baseline="middle" transform="rotate(90 80 80)">ad-hpp</text>
  <text x="115" y="80" fill="white" font-family="sans-serif" font-weight="bold" font-size="12" text-anchor="end" dominant-baseline="middle" transform="rotate(90 115 80)">adept</text>
  <text x="150" y="80" fill="white" font-family="sans-serif" font-weight="bold" font-size="12" text-anchor="end" dominant-baseline="middle" transform="rotate(90 150 80)">adol-c</text>
  <text x="185" y="80" fill="white" font-family="sans-serif" font-weight="bold" font-size="12" text-anchor="end" dominant-baseline="middle" transform="rotate(90 185 80)">codipack</text>
  <text x="220" y="80" fill="white" font-family="sans-serif" font-weight="bold" font-size="12" text-anchor="end" dominant-baseline="middle" transform="rotate(90 220 80)">cppad</text>
  <text x="255" y="80" fill="white" font-family="sans-serif" font-weight="bold" font-size="12" text-anchor="end" dominant-baseline="middle" transform="rotate(90 255 80)">enzyme</text>
  <text x="290" y="80" fill="white" font-family="sans-serif" font-weight="bold" font-size="12" text-anchor="end" dominant-baseline="middle" transform="rotate(90 290 80)">enzyme-jl</text>
  <text x="325" y="80" fill="white" font-family="sans-serif" font-weight="bold" font-size="12" text-anchor="end" dominant-baseline="middle" transform="rotate(90 325 80)">finite</text>
  <text x="360" y="80" fill="white" font-family="sans-serif" font-weight="bold" font-size="12" text-anchor="end" dominant-baseline="middle" transform="rotate(90 360 80)">floretta</text>
  <text x="395" y="80" fill="white" font-family="sans-serif" font-weight="bold" font-size="12" text-anchor="end" dominant-baseline="middle" transform="rotate(90 395 80)">futhark</text>
  <text x="430" y="80" fill="white" font-family="sans-serif" font-weight="bold" font-size="12" text-anchor="end" dominant-baseline="middle" transform="rotate(90 430 80)">haskell</text>
  <text x="465" y="80" fill="white" font-family="sans-serif" font-weight="bold" font-size="12" text-anchor="end" dominant-baseline="middle" transform="rotate(90 465 80)">jax</text>
  <text x="500" y="80" fill="white" font-family="sans-serif" font-weight="bold" font-size="12" text-anchor="end" dominant-baseline="middle" transform="rotate(90 500 80)">manual</text>
  <text x="535" y="80" fill="white" font-family="sans-serif" font-weight="bold" font-size="12" text-anchor="end" dominant-baseline="middle" transform="rotate(90 535 80)">ocaml</text>
  <text x="570" y="80" fill="white" font-family="sans-serif" font-weight="bold" font-size="12" text-anchor="end" dominant-baseline="middle" transform="rotate(90 570 80)">pytorch</text>
  <text x="605" y="80" fill="white" font-family="sans-serif" font-weight="bold" font-size="12" text-anchor="end" dominant-baseline="middle" transform="rotate(90 605 80)">scilean</text>
  <text x="640" y="80" fill="white" font-family="sans-serif" font-weight="bold" font-size="12" text-anchor="end" dominant-baseline="middle" transform="rotate(90 640 80)">tapenade</text>
  <text x="675" y="80" fill="white" font-family="sans-serif" font-weight="bold" font-size="12" text-anchor="end" dominant-baseline="middle" transform="rotate(90 675 80)">tensorflow</text>
  <text x="710" y="80" fill="white" font-family="sans-serif" font-weight="bold" font-size="12" text-anchor="end" dominant-baseline="middle" transform="rotate(90 710 80)">zygote</text>
  <rect x="65" y="85" width="30" height="30" fill="hsl(240 100% 80.71326278938307%)" />
  <rect x="100" y="85" width="30" height="30" fill="hsl(240 100% 82.9616641136091%)" />
  <rect x="135" y="85" width="30" height="30" fill="hsl(240 100% 97.98346752666694%)" />
  <rect x="170" y="85" width="30" height="30" fill="hsl(240 100% 82.16220902685268%)" />
  <rect x="205" y="85" width="30" height="30" fill="hsl(240 100% 98.99484530602524%)" />
  <rect x="240" y="85" width="30" height="30" fill="hsl(240 100% 51.04466699085054%)" />
  <rect x="310" y="85" width="30" height="30" fill="hsl(240 100% 93.21165699165316%)" />
  <rect x="380" y="85" width="30" height="30" fill="hsl(240 100% 67.9439184065362%)" />
  <rect x="485" y="85" width="30" height="30" fill="hsl(240 100% 50%)" />
  <rect x="555" y="85" width="30" height="30" fill="rgb(255 255 255 / 50%)" />
  <rect x="625" y="85" width="30" height="30" fill="hsl(240 100% 74.81194212057581%)" />
  <rect x="660" y="85" width="30" height="30" fill="rgb(255 255 255 / 50%)" />
  <rect x="695" y="85" width="30" height="30" fill="hsl(240 100% 99.72107006867004%)" />
  <rect x="65" y="120" width="30" height="30" fill="hsl(240 100% 50%)" />
  <rect x="100" y="120" width="30" height="30" fill="hsl(240 100% 83.83944457593869%)" />
  <rect x="135" y="120" width="30" height="30" fill="hsl(240 100% 85.87394069572545%)" />
  <rect x="170" y="120" width="30" height="30" fill="hsl(240 100% 51.99893900848803%)" />
  <rect x="205" y="120" width="30" height="30" fill="hsl(240 100% 92.57229955510746%)" />
  <rect x="240" y="120" width="30" height="30" fill="hsl(240 100% 91.65100514036239%)" />
  <rect x="275" y="120" width="30" height="30" fill="hsl(240 100% 99.25740198744931%)" />
  <rect x="310" y="120" width="30" height="30" fill="hsl(240 100% 98.99082927827415%)" />
  <rect x="380" y="120" width="30" height="30" fill="hsl(240 100% 94.59442317486491%)" />
  <rect x="415" y="120" width="30" height="30" fill="hsl(240 100% 97.94014809816872%)" />
  <rect x="485" y="120" width="30" height="30" fill="hsl(240 100% 79.66608519888666%)" />
  <rect x="695" y="120" width="30" height="30" fill="rgb(255 255 255 / 50%)" />
  <rect x="65" y="155" width="30" height="30" fill="hsl(240 100% 97.0876260792876%)" />
  <rect x="100" y="155" width="30" height="30" fill="hsl(240 100% 98.25485833083913%)" />
  <rect x="135" y="155" width="30" height="30" fill="hsl(240 100% 98.86995020044839%)" />
  <rect x="170" y="155" width="30" height="30" fill="hsl(240 100% 97.18786258428607%)" />
  <rect x="205" y="155" width="30" height="30" fill="hsl(240 100% 99.76166471256856%)" />
  <rect x="240" y="155" width="30" height="30" fill="hsl(240 100% 86.30412562713792%)" />
  <rect x="275" y="155" width="30" height="30" fill="hsl(240 100% 99.83179292430093%)" />
  <rect x="310" y="155" width="30" height="30" fill="rgb(255 255 255 / 50%)" />
  <rect x="380" y="155" width="30" height="30" fill="hsl(240 100% 88.9765146629124%)" />
  <rect x="450" y="155" width="30" height="30" fill="hsl(240 100% 70.39385304635533%)" />
  <rect x="485" y="155" width="30" height="30" fill="hsl(240 100% 71.5088916547837%)" />
  <rect x="520" y="155" width="30" height="30" fill="hsl(240 100% 99.38283219054512%)" />
  <rect x="555" y="155" width="30" height="30" fill="hsl(240 100% 50%)" />
  <rect x="590" y="155" width="30" height="30" fill="hsl(240 100% 92.48039600576787%)" />
  <rect x="625" y="155" width="30" height="30" fill="hsl(240 100% 74.50845464643598%)" />
  <rect x="660" y="155" width="30" height="30" fill="hsl(240 100% 88.33183714005878%)" />
  <rect x="695" y="155" width="30" height="30" fill="hsl(240 100% 99.33829842821265%)" />
  <rect x="65" y="190" width="30" height="30" fill="hsl(240 100% 50%)" />
  <rect x="100" y="190" width="30" height="30" fill="hsl(240 100% 50%)" />
  <rect x="135" y="190" width="30" height="30" fill="hsl(240 100% 50%)" />
  <rect x="170" y="190" width="30" height="30" fill="hsl(240 100% 50%)" />
  <rect x="205" y="190" width="30" height="30" fill="hsl(240 100% 50%)" />
  <rect x="240" y="190" width="30" height="30" fill="hsl(240 100% 50%)" />
  <rect x="275" y="190" width="30" height="30" fill="hsl(240 100% 50%)" />
  <rect x="310" y="190" width="30" height="30" fill="hsl(240 100% 50%)" />
  <rect x="345" y="190" width="30" height="30" fill="hsl(240 100% 50%)" />
  <rect x="380" y="190" width="30" height="30" fill="hsl(240 100% 50%)" />
  <rect x="415" y="190" width="30" height="30" fill="hsl(240 100% 50%)" />
  <rect x="450" y="190" width="30" height="30" fill="hsl(240 100% 50%)" />
  <rect x="485" y="190" width="30" height="30" fill="hsl(240 100% 50%)" />
  <rect x="520" y="190" width="30" height="30" fill="hsl(240 100% 50%)" />
  <rect x="555" y="190" width="30" height="30" fill="hsl(240 100% 50%)" />
  <rect x="590" y="190" width="30" height="30" fill="hsl(240 100% 50%)" />
  <rect x="625" y="190" width="30" height="30" fill="hsl(240 100% 50%)" />
  <rect x="660" y="190" width="30" height="30" fill="hsl(240 100% 50%)" />
  <rect x="695" y="190" width="30" height="30" fill="hsl(240 100% 50%)" />
  <rect x="100" y="225" width="30" height="30" fill="hsl(240 100% 96.6289444986459%)" />
  <rect x="135" y="225" width="30" height="30" fill="hsl(240 100% 88.96268424690399%)" />
  <rect x="170" y="225" width="30" height="30" fill="hsl(240 100% 89.09918917637627%)" />
  <rect x="240" y="225" width="30" height="30" fill="hsl(240 100% 91.14211335171932%)" />
  <rect x="310" y="225" width="30" height="30" fill="rgb(255 255 255 / 50%)" />
  <rect x="380" y="225" width="30" height="30" fill="hsl(240 100% 90.42190089111199%)" />
  <rect x="485" y="225" width="30" height="30" fill="hsl(240 100% 50%)" />
  <rect x="555" y="225" width="30" height="30" fill="rgb(255 255 255 / 50%)" />
  <rect x="625" y="225" width="30" height="30" fill="hsl(240 100% 93.02706005351396%)" />
  <rect x="660" y="225" width="30" height="30" fill="rgb(255 255 255 / 50%)" />
  <rect x="695" y="225" width="30" height="30" fill="hsl(240 100% 99.45334772371962%)" />
  <rect x="65" y="260" width="30" height="30" fill="hsl(240 100% 99.88056993335337%)" />
  <rect x="135" y="260" width="30" height="30" fill="hsl(240 100% 99.87488318415568%)" />
  <rect x="170" y="260" width="30" height="30" fill="hsl(240 100% 98.98811908189168%)" />
  <rect x="205" y="260" width="30" height="30" fill="rgb(255 255 255 / 50%)" />
  <rect x="240" y="260" width="30" height="30" fill="hsl(240 100% 87.44191846990077%)" />
  <rect x="310" y="260" width="30" height="30" fill="rgb(255 255 255 / 50%)" />
  <rect x="380" y="260" width="30" height="30" fill="hsl(240 100% 80.52803716191397%)" />
  <rect x="415" y="260" width="30" height="30" fill="rgb(255 255 255 / 50%)" />
  <rect x="450" y="260" width="30" height="30" fill="hsl(240 100% 50%)" />
  <rect x="485" y="260" width="30" height="30" fill="hsl(240 100% 71.22247913723112%)" />
  <rect x="555" y="260" width="30" height="30" fill="hsl(240 100% 97.05493258927493%)" />
  <rect x="590" y="260" width="30" height="30" fill="hsl(240 100% 94.05845681603006%)" />
  <rect x="65" y="295" width="30" height="30" fill="hsl(240 100% 85.8410955559355%)" />
  <rect x="100" y="295" width="30" height="30" fill="hsl(240 100% 97.51177919036108%)" />
  <rect x="135" y="295" width="30" height="30" fill="hsl(240 100% 95.10971747058409%)" />
  <rect x="170" y="295" width="30" height="30" fill="hsl(240 100% 90.57183568623728%)" />
  <rect x="205" y="295" width="30" height="30" fill="hsl(240 100% 99.46368709854323%)" />
  <rect x="240" y="295" width="30" height="30" fill="hsl(240 100% 50%)" />
  <rect x="275" y="295" width="30" height="30" fill="hsl(240 100% 99.86022189509752%)" />
  <rect x="310" y="295" width="30" height="30" fill="hsl(240 100% 99.49327796945134%)" />
  <rect x="345" y="295" width="30" height="30" fill="hsl(240 100% 95.15021234293219%)" />
  <rect x="380" y="295" width="30" height="30" fill="hsl(240 100% 54.67831158596232%)" />
  <rect x="415" y="295" width="30" height="30" fill="hsl(240 100% 99.31022280358626%)" />
  <rect x="450" y="295" width="30" height="30" fill="hsl(240 100% 87.91494257406828%)" />
  <rect x="485" y="295" width="30" height="30" fill="hsl(240 100% 57.33714180372165%)" />
  <rect x="590" y="295" width="30" height="30" fill="hsl(240 100% 97.57704855813257%)" />
  <rect x="695" y="295" width="30" height="30" fill="hsl(240 100% 99.97395304792498%)" />
  <rect x="65" y="330" width="30" height="30" fill="hsl(240 100% 86.83487765819096%)" />
  <rect x="100" y="330" width="30" height="30" fill="hsl(240 100% 94.12811379825641%)" />
  <rect x="135" y="330" width="30" height="30" fill="hsl(240 100% 96.8304318829403%)" />
  <rect x="170" y="330" width="30" height="30" fill="hsl(240 100% 86.39417317783455%)" />
  <rect x="205" y="330" width="30" height="30" fill="hsl(240 100% 99.15118483272295%)" />
  <rect x="240" y="330" width="30" height="30" fill="hsl(240 100% 76.7644718262083%)" />
  <rect x="275" y="330" width="30" height="30" fill="hsl(240 100% 99.80622754753394%)" />
  <rect x="310" y="330" width="30" height="30" fill="rgb(255 255 255 / 50%)" />
  <rect x="345" y="330" width="30" height="30" fill="hsl(240 100% 96.96519417283132%)" />
  <rect x="380" y="330" width="30" height="30" fill="hsl(240 100% 84.44222925859016%)" />
  <rect x="415" y="330" width="30" height="30" fill="hsl(240 100% 99.7874395009929%)" />
  <rect x="450" y="330" width="30" height="30" fill="hsl(240 100% 69.18396205040912%)" />
  <rect x="485" y="330" width="30" height="30" fill="hsl(240 100% 70.81997507269861%)" />
  <rect x="520" y="330" width="30" height="30" fill="hsl(240 100% 93.24340031839577%)" />
  <rect x="555" y="330" width="30" height="30" fill="hsl(240 100% 50%)" />
  <rect x="660" y="330" width="30" height="30" fill="hsl(240 100% 94.45668298929826%)" />
  <rect x="695" y="330" width="30" height="30" fill="hsl(240 100% 94.73008233899142%)" />
  <rect x="65" y="365" width="30" height="30" fill="hsl(240 100% 57.092801880545714%)" />
  <rect x="100" y="365" width="30" height="30" fill="hsl(240 100% 71.58481027327088%)" />
  <rect x="135" y="365" width="30" height="30" fill="hsl(240 100% 82.43029067379163%)" />
  <rect x="170" y="365" width="30" height="30" fill="hsl(240 100% 50%)" />
  <rect x="205" y="365" width="30" height="30" fill="hsl(240 100% 96.1886563697668%)" />
  <rect x="240" y="365" width="30" height="30" fill="hsl(240 100% 59.31865624610698%)" />
  <rect x="275" y="365" width="30" height="30" fill="hsl(240 100% 98.96026524285377%)" />
  <rect x="310" y="365" width="30" height="30" fill="hsl(240 100% 99.861984220558%)" />
  <rect x="380" y="365" width="30" height="30" fill="hsl(240 100% 66.06194040921315%)" />
  <rect x="485" y="365" width="30" height="30" fill="hsl(240 100% 85.83294615479174%)" />
  <rect x="555" y="365" width="30" height="30" fill="hsl(240 100% 99.62429902563933%)" />
  <rect x="625" y="365" width="30" height="30" fill="hsl(240 100% 63.36571142349026%)" />
  <rect x="660" y="365" width="30" height="30" fill="hsl(240 100% 98.1310913586886%)" />
  <rect x="695" y="365" width="30" height="30" fill="hsl(240 100% 99.14975089480416%)" />
  <rect x="65" y="400" width="30" height="30" fill="hsl(240 100% 98.50836468344194%)" />
  <rect x="100" y="400" width="30" height="30" fill="hsl(240 100% 99.40857489592854%)" />
  <rect x="135" y="400" width="30" height="30" fill="hsl(240 100% 99.68138795837382%)" />
  <rect x="170" y="400" width="30" height="30" fill="hsl(240 100% 95.32568728283125%)" />
  <rect x="205" y="400" width="30" height="30" fill="hsl(240 100% 99.23760772737137%)" />
  <rect x="240" y="400" width="30" height="30" fill="hsl(240 100% 85.83598803835226%)" />
  <rect x="275" y="400" width="30" height="30" fill="hsl(240 100% 99.25474511462073%)" />
  <rect x="310" y="400" width="30" height="30" fill="rgb(255 255 255 / 50%)" />
  <rect x="380" y="400" width="30" height="30" fill="hsl(240 100% 94.08164928625611%)" />
  <rect x="415" y="400" width="30" height="30" fill="hsl(240 100% 99.97272430413402%)" />
  <rect x="450" y="400" width="30" height="30" fill="hsl(240 100% 79.23715180274054%)" />
  <rect x="485" y="400" width="30" height="30" fill="hsl(240 100% 50%)" />
  <rect x="695" y="400" width="30" height="30" fill="hsl(240 100% 99.72829667858372%)" />
  <rect x="65" y="435" width="30" height="30" fill="hsl(240 100% 92.90076732308457%)" />
  <rect x="240" y="435" width="30" height="30" fill="hsl(240 100% 50%)" />
  <rect x="310" y="435" width="30" height="30" fill="hsl(240 100% 94.31364991958907%)" />
  <rect x="380" y="435" width="30" height="30" fill="hsl(240 100% 87.08715198126416%)" />
  <rect x="415" y="435" width="30" height="30" fill="hsl(240 100% 99.79599859432359%)" />
  <rect x="65" y="470" width="30" height="30" fill="hsl(240 100% 50%)" />
  <rect x="240" y="470" width="30" height="30" fill="hsl(240 100% 50.20228177645535%)" />
  <rect x="310" y="470" width="30" height="30" fill="hsl(240 100% 97.16698713343527%)" />
  <rect x="380" y="470" width="30" height="30" fill="hsl(240 100% 89.14365898969784%)" />
  <rect x="415" y="470" width="30" height="30" fill="hsl(240 100% 99.57989504580308%)" />
</svg>
