<svg xmlns="http://www.w3.org/2000/svg" viewBox="0 0 870 505">
  <rect x="0" y="0" width="870" height="505" rx="5" ry="5" fill="#222" />
  <text x="60" y="100" fill="white" font-family="sans-serif" font-weight="bold" font-size="12" text-anchor="end" dominant-baseline="middle">ba</text>
  <text x="60" y="135" fill="white" font-family="sans-serif" font-weight="bold" font-size="12" text-anchor="end" dominant-baseline="middle">det</text>
  <text x="60" y="170" fill="white" font-family="sans-serif" font-weight="bold" font-size="12" text-anchor="end" dominant-baseline="middle">gmm</text>
  <text x="60" y="205" fill="white" font-family="sans-serif" font-weight="bold" font-size="12" text-anchor="end" dominant-baseline="middle">hello</text>
  <text x="60" y="240" fill="white" font-family="sans-serif" font-weight="bold" font-size="12" text-anchor="end" dominant-baseline="middle">ht</text>
  <text x="60" y="275" fill="white" font-family="sans-serif" font-weight="bold" font-size="12" text-anchor="end" dominant-baseline="middle">kmeans</text>
  <text x="60" y="310" fill="white" font-family="sans-serif" font-weight="bold" font-size="12" text-anchor="end" dominant-baseline="middle">llsq</text>
  <text x="60" y="345" fill="white" font-family="sans-serif" font-weight="bold" font-size="12" text-anchor="end" dominant-baseline="middle">lse</text>
  <text x="60" y="380" fill="white" font-family="sans-serif" font-weight="bold" font-size="12" text-anchor="end" dominant-baseline="middle">lstm</text>
  <text x="60" y="415" fill="white" font-family="sans-serif" font-weight="bold" font-size="12" text-anchor="end" dominant-baseline="middle">ode</text>
  <text x="60" y="450" fill="white" font-family="sans-serif" font-weight="bold" font-size="12" text-anchor="end" dominant-baseline="middle">particle</text>
  <text x="60" y="485" fill="white" font-family="sans-serif" font-weight="bold" font-size="12" text-anchor="end" dominant-baseline="middle">saddle</text>
  <text x="80" y="80" fill="white" font-family="sans-serif" font-weight="bold" font-size="12" text-anchor="end" dominant-baseline="middle" transform="rotate(90 80 80)">ad-hpp</text>
  <text x="115" y="80" fill="white" font-family="sans-serif" font-weight="bold" font-size="12" text-anchor="end" dominant-baseline="middle" transform="rotate(90 115 80)">adept</text>
  <text x="150" y="80" fill="white" font-family="sans-serif" font-weight="bold" font-size="12" text-anchor="end" dominant-baseline="middle" transform="rotate(90 150 80)">adol-c</text>
  <text x="185" y="80" fill="white" font-family="sans-serif" font-weight="bold" font-size="12" text-anchor="end" dominant-baseline="middle" transform="rotate(90 185 80)">codipack</text>
  <text x="220" y="80" fill="white" font-family="sans-serif" font-weight="bold" font-size="12" text-anchor="end" dominant-baseline="middle" transform="rotate(90 220 80)">cppad</text>
  <text x="255" y="80" fill="white" font-family="sans-serif" font-weight="bold" font-size="12" text-anchor="end" dominant-baseline="middle" transform="rotate(90 255 80)">enzyme</text>
  <text x="290" y="80" fill="white" font-family="sans-serif" font-weight="bold" font-size="12" text-anchor="end" dominant-baseline="middle" transform="rotate(90 290 80)">enzyme-jl</text>
  <text x="325" y="80" fill="white" font-family="sans-serif" font-weight="bold" font-size="12" text-anchor="end" dominant-baseline="middle" transform="rotate(90 325 80)">finite</text>
  <text x="360" y="80" fill="white" font-family="sans-serif" font-weight="bold" font-size="12" text-anchor="end" dominant-baseline="middle" transform="rotate(90 360 80)">floretta</text>
  <text x="395" y="80" fill="white" font-family="sans-serif" font-weight="bold" font-size="12" text-anchor="end" dominant-baseline="middle" transform="rotate(90 395 80)">forwarddiff-jl</text>
  <text x="430" y="80" fill="white" font-family="sans-serif" font-weight="bold" font-size="12" text-anchor="end" dominant-baseline="middle" transform="rotate(90 430 80)">futhark</text>
  <text x="465" y="80" fill="white" font-family="sans-serif" font-weight="bold" font-size="12" text-anchor="end" dominant-baseline="middle" transform="rotate(90 465 80)">haskell</text>
  <text x="500" y="80" fill="white" font-family="sans-serif" font-weight="bold" font-size="12" text-anchor="end" dominant-baseline="middle" transform="rotate(90 500 80)">jax</text>
  <text x="535" y="80" fill="white" font-family="sans-serif" font-weight="bold" font-size="12" text-anchor="end" dominant-baseline="middle" transform="rotate(90 535 80)">manual</text>
  <text x="570" y="80" fill="white" font-family="sans-serif" font-weight="bold" font-size="12" text-anchor="end" dominant-baseline="middle" transform="rotate(90 570 80)">mooncake-jl</text>
  <text x="605" y="80" fill="white" font-family="sans-serif" font-weight="bold" font-size="12" text-anchor="end" dominant-baseline="middle" transform="rotate(90 605 80)">ocaml</text>
  <text x="640" y="80" fill="white" font-family="sans-serif" font-weight="bold" font-size="12" text-anchor="end" dominant-baseline="middle" transform="rotate(90 640 80)">pytorch</text>
  <text x="675" y="80" fill="white" font-family="sans-serif" font-weight="bold" font-size="12" text-anchor="end" dominant-baseline="middle" transform="rotate(90 675 80)">reversediff-jl</text>
  <text x="710" y="80" fill="white" font-family="sans-serif" font-weight="bold" font-size="12" text-anchor="end" dominant-baseline="middle" transform="rotate(90 710 80)">scilean</text>
  <text x="745" y="80" fill="white" font-family="sans-serif" font-weight="bold" font-size="12" text-anchor="end" dominant-baseline="middle" transform="rotate(90 745 80)">tapenade</text>
  <text x="780" y="80" fill="white" font-family="sans-serif" font-weight="bold" font-size="12" text-anchor="end" dominant-baseline="middle" transform="rotate(90 780 80)">tensorflow</text>
  <text x="815" y="80" fill="white" font-family="sans-serif" font-weight="bold" font-size="12" text-anchor="end" dominant-baseline="middle" transform="rotate(90 815 80)">tensorflow-js</text>
  <text x="850" y="80" fill="white" font-family="sans-serif" font-weight="bold" font-size="12" text-anchor="end" dominant-baseline="middle" transform="rotate(90 850 80)">zygote</text>
  <rect x="65" y="85" width="30" height="30" fill="hsl(240 100% 80.8867526341254%)" />
  <rect x="100" y="85" width="30" height="30" fill="hsl(240 100% 82.92121692877346%)" />
  <rect x="135" y="85" width="30" height="30" fill="hsl(240 100% 97.9972905658704%)" />
  <rect x="170" y="85" width="30" height="30" fill="hsl(240 100% 82.29962948628707%)" />
  <rect x="205" y="85" width="30" height="30" fill="hsl(240 100% 98.99879035371718%)" />
  <rect x="240" y="85" width="30" height="30" fill="hsl(240 100% 51.402989882366064%)" />
  <rect x="310" y="85" width="30" height="30" fill="hsl(240 100% 93.27140629569477%)" />
  <rect x="415" y="85" width="30" height="30" fill="hsl(240 100% 68.875284271358%)" />
  <rect x="520" y="85" width="30" height="30" fill="hsl(240 100% 50%)" />
  <rect x="625" y="85" width="30" height="30" fill="rgb(255 255 255 / 50%)" />
  <rect x="730" y="85" width="30" height="30" fill="hsl(240 100% 74.95591293052051%)" />
  <rect x="765" y="85" width="30" height="30" fill="rgb(255 255 255 / 50%)" />
  <rect x="835" y="85" width="30" height="30" fill="hsl(240 100% 99.73596673279312%)" />
  <rect x="65" y="120" width="30" height="30" fill="hsl(240 100% 50%)" />
  <rect x="100" y="120" width="30" height="30" fill="hsl(240 100% 82.43842049244537%)" />
  <rect x="135" y="120" width="30" height="30" fill="hsl(240 100% 85.5162085136457%)" />
  <rect x="170" y="120" width="30" height="30" fill="hsl(240 100% 51.7539337701711%)" />
  <rect x="205" y="120" width="30" height="30" fill="hsl(240 100% 92.53423503109383%)" />
  <rect x="240" y="120" width="30" height="30" fill="hsl(240 100% 91.47012005941066%)" />
  <rect x="275" y="120" width="30" height="30" fill="hsl(240 100% 99.50888935435977%)" />
  <rect x="310" y="120" width="30" height="30" fill="hsl(240 100% 98.98004588463523%)" />
  <rect x="380" y="120" width="30" height="30" fill="hsl(240 100% 93.28962579251667%)" />
  <rect x="415" y="120" width="30" height="30" fill="hsl(240 100% 94.55678530415676%)" />
  <rect x="450" y="120" width="30" height="30" fill="hsl(240 100% 97.83584562648355%)" />
  <rect x="520" y="120" width="30" height="30" fill="hsl(240 100% 79.48671875561146%)" />
  <rect x="555" y="120" width="30" height="30" fill="hsl(240 100% 90.36956919243394%)" />
  <rect x="660" y="120" width="30" height="30" fill="rgb(255 255 255 / 50%)" />
  <rect x="835" y="120" width="30" height="30" fill="rgb(255 255 255 / 50%)" />
  <rect x="65" y="155" width="30" height="30" fill="hsl(240 100% 98.48144862557494%)" />
  <rect x="100" y="155" width="30" height="30" fill="hsl(240 100% 98.80605417605358%)" />
  <rect x="135" y="155" width="30" height="30" fill="hsl(240 100% 99.09536154913192%)" />
  <rect x="170" y="155" width="30" height="30" fill="hsl(240 100% 98.00089162113073%)" />
  <rect x="205" y="155" width="30" height="30" fill="hsl(240 100% 99.84705050333214%)" />
  <rect x="240" y="155" width="30" height="30" fill="hsl(240 100% 90.92187815274237%)" />
  <rect x="275" y="155" width="30" height="30" fill="hsl(240 100% 92.25264320088418%)" />
  <rect x="310" y="155" width="30" height="30" fill="rgb(255 255 255 / 50%)" />
  <rect x="415" y="155" width="30" height="30" fill="hsl(240 100% 92.79325443630407%)" />
  <rect x="485" y="155" width="30" height="30" fill="hsl(240 100% 50%)" />
  <rect x="520" y="155" width="30" height="30" fill="hsl(240 100% 83.33932466433241%)" />
  <rect x="590" y="155" width="30" height="30" fill="hsl(240 100% 99.56876212438117%)" />
  <rect x="625" y="155" width="30" height="30" fill="hsl(240 100% 67.56777068389773%)" />
  <rect x="695" y="155" width="30" height="30" fill="hsl(240 100% 95.3299961653918%)" />
  <rect x="730" y="155" width="30" height="30" fill="hsl(240 100% 83.40190370281084%)" />
  <rect x="765" y="155" width="30" height="30" fill="hsl(240 100% 99.57262984916456%)" />
  <rect x="835" y="155" width="30" height="30" fill="hsl(240 100% 96.36572979708276%)" />
  <rect x="65" y="190" width="30" height="30" fill="hsl(240 100% 50%)" />
  <rect x="100" y="190" width="30" height="30" fill="hsl(240 100% 50%)" />
  <rect x="135" y="190" width="30" height="30" fill="hsl(240 100% 50%)" />
  <rect x="170" y="190" width="30" height="30" fill="hsl(240 100% 50%)" />
  <rect x="205" y="190" width="30" height="30" fill="hsl(240 100% 50%)" />
  <rect x="240" y="190" width="30" height="30" fill="hsl(240 100% 50%)" />
  <rect x="275" y="190" width="30" height="30" fill="hsl(240 100% 50%)" />
  <rect x="310" y="190" width="30" height="30" fill="hsl(240 100% 50%)" />
  <rect x="345" y="190" width="30" height="30" fill="hsl(240 100% 50%)" />
  <rect x="380" y="190" width="30" height="30" fill="hsl(240 100% 50%)" />
  <rect x="415" y="190" width="30" height="30" fill="hsl(240 100% 50%)" />
  <rect x="450" y="190" width="30" height="30" fill="hsl(240 100% 50%)" />
  <rect x="485" y="190" width="30" height="30" fill="hsl(240 100% 50%)" />
  <rect x="520" y="190" width="30" height="30" fill="hsl(240 100% 50%)" />
  <rect x="555" y="190" width="30" height="30" fill="hsl(240 100% 50%)" />
  <rect x="590" y="190" width="30" height="30" fill="hsl(240 100% 50%)" />
  <rect x="625" y="190" width="30" height="30" fill="hsl(240 100% 50%)" />
  <rect x="660" y="190" width="30" height="30" fill="hsl(240 100% 50%)" />
  <rect x="695" y="190" width="30" height="30" fill="hsl(240 100% 50%)" />
  <rect x="730" y="190" width="30" height="30" fill="hsl(240 100% 50%)" />
  <rect x="765" y="190" width="30" height="30" fill="hsl(240 100% 50%)" />
  <rect x="800" y="190" width="30" height="30" fill="hsl(240 100% 50%)" />
  <rect x="835" y="190" width="30" height="30" fill="hsl(240 100% 50%)" />
  <rect x="100" y="225" width="30" height="30" fill="hsl(240 100% 96.73292660303815%)" />
  <rect x="135" y="225" width="30" height="30" fill="hsl(240 100% 89.42596154737859%)" />
  <rect x="170" y="225" width="30" height="30" fill="hsl(240 100% 89.26448892987796%)" />
  <rect x="240" y="225" width="30" height="30" fill="hsl(240 100% 91.35457442712948%)" />
  <rect x="310" y="225" width="30" height="30" fill="rgb(255 255 255 / 50%)" />
  <rect x="415" y="225" width="30" height="30" fill="hsl(240 100% 90.72937600259385%)" />
  <rect x="520" y="225" width="30" height="30" fill="hsl(240 100% 50%)" />
  <rect x="625" y="225" width="30" height="30" fill="rgb(255 255 255 / 50%)" />
  <rect x="730" y="225" width="30" height="30" fill="hsl(240 100% 93.28317924404864%)" />
  <rect x="765" y="225" width="30" height="30" fill="rgb(255 255 255 / 50%)" />
  <rect x="835" y="225" width="30" height="30" fill="hsl(240 100% 94.2099400376462%)" />
  <rect x="65" y="260" width="30" height="30" fill="hsl(240 100% 99.84366154126349%)" />
  <rect x="135" y="260" width="30" height="30" fill="hsl(240 100% 99.85263134202965%)" />
  <rect x="170" y="260" width="30" height="30" fill="hsl(240 100% 98.84939823498874%)" />
  <rect x="205" y="260" width="30" height="30" fill="rgb(255 255 255 / 50%)" />
  <rect x="240" y="260" width="30" height="30" fill="hsl(240 100% 86.79692765386004%)" />
  <rect x="310" y="260" width="30" height="30" fill="rgb(255 255 255 / 50%)" />
  <rect x="415" y="260" width="30" height="30" fill="hsl(240 100% 80.24923426899402%)" />
  <rect x="450" y="260" width="30" height="30" fill="rgb(255 255 255 / 50%)" />
  <rect x="485" y="260" width="30" height="30" fill="hsl(240 100% 50%)" />
  <rect x="520" y="260" width="30" height="30" fill="hsl(240 100% 70.71380188487856%)" />
  <rect x="625" y="260" width="30" height="30" fill="hsl(240 100% 96.94652906884367%)" />
  <rect x="695" y="260" width="30" height="30" fill="hsl(240 100% 93.98648972870372%)" />
  <rect x="65" y="295" width="30" height="30" fill="hsl(240 100% 85.81794027528761%)" />
  <rect x="100" y="295" width="30" height="30" fill="hsl(240 100% 97.51291859343416%)" />
  <rect x="135" y="295" width="30" height="30" fill="hsl(240 100% 95.12689276531574%)" />
  <rect x="170" y="295" width="30" height="30" fill="hsl(240 100% 90.56944724249517%)" />
  <rect x="205" y="295" width="30" height="30" fill="hsl(240 100% 99.4588152620032%)" />
  <rect x="240" y="295" width="30" height="30" fill="hsl(240 100% 50%)" />
  <rect x="275" y="295" width="30" height="30" fill="hsl(240 100% 50.25436646136486%)" />
  <rect x="310" y="295" width="30" height="30" fill="hsl(240 100% 99.49421890395263%)" />
  <rect x="345" y="295" width="30" height="30" fill="hsl(240 100% 94.66745074005205%)" />
  <rect x="415" y="295" width="30" height="30" fill="hsl(240 100% 54.72364772257824%)" />
  <rect x="450" y="295" width="30" height="30" fill="hsl(240 100% 99.34723581575969%)" />
  <rect x="485" y="295" width="30" height="30" fill="hsl(240 100% 88.33364254755787%)" />
  <rect x="520" y="295" width="30" height="30" fill="hsl(240 100% 57.36255357152178%)" />
  <rect x="695" y="295" width="30" height="30" fill="hsl(240 100% 97.58124432956627%)" />
  <rect x="800" y="295" width="30" height="30" fill="hsl(240 100% 99.57088319079291%)" />
  <rect x="835" y="295" width="30" height="30" fill="hsl(240 100% 99.95371838575389%)" />
  <rect x="65" y="330" width="30" height="30" fill="hsl(240 100% 89.22103398730468%)" />
  <rect x="100" y="330" width="30" height="30" fill="hsl(240 100% 94.88106145317788%)" />
  <rect x="135" y="330" width="30" height="30" fill="hsl(240 100% 97.24323331823835%)" />
  <rect x="170" y="330" width="30" height="30" fill="hsl(240 100% 88.79709489658406%)" />
  <rect x="205" y="330" width="30" height="30" fill="hsl(240 100% 99.23060535318167%)" />
  <rect x="240" y="330" width="30" height="30" fill="hsl(240 100% 80.47867225504532%)" />
  <rect x="275" y="330" width="30" height="30" fill="hsl(240 100% 88.02984086106113%)" />
  <rect x="310" y="330" width="30" height="30" fill="rgb(255 255 255 / 50%)" />
  <rect x="345" y="330" width="30" height="30" fill="hsl(240 100% 97.3283185293128%)" />
  <rect x="415" y="330" width="30" height="30" fill="hsl(240 100% 86.16416410198275%)" />
  <rect x="450" y="330" width="30" height="30" fill="hsl(240 100% 99.82079962601581%)" />
  <rect x="485" y="330" width="30" height="30" fill="hsl(240 100% 72.99912143531773%)" />
  <rect x="520" y="330" width="30" height="30" fill="hsl(240 100% 77.44468044663911%)" />
  <rect x="590" y="330" width="30" height="30" fill="hsl(240 100% 93.91786080668692%)" />
  <rect x="625" y="330" width="30" height="30" fill="hsl(240 100% 50%)" />
  <rect x="765" y="330" width="30" height="30" fill="hsl(240 100% 95.9096962718286%)" />
  <rect x="800" y="330" width="30" height="30" fill="hsl(240 100% 99.23298342114327%)" />
  <rect x="835" y="330" width="30" height="30" fill="hsl(240 100% 81.15805238270642%)" />
  <rect x="65" y="365" width="30" height="30" fill="hsl(240 100% 56.61699460662237%)" />
  <rect x="100" y="365" width="30" height="30" fill="hsl(240 100% 71.68048652686615%)" />
  <rect x="135" y="365" width="30" height="30" fill="hsl(240 100% 81.83981017982245%)" />
  <rect x="170" y="365" width="30" height="30" fill="hsl(240 100% 50%)" />
  <rect x="205" y="365" width="30" height="30" fill="hsl(240 100% 96.20031110333466%)" />
  <rect x="240" y="365" width="30" height="30" fill="hsl(240 100% 59.508515673576454%)" />
  <rect x="275" y="365" width="30" height="30" fill="hsl(240 100% 92.6241992287612%)" />
  <rect x="310" y="365" width="30" height="30" fill="hsl(240 100% 99.86268266902401%)" />
  <rect x="415" y="365" width="30" height="30" fill="hsl(240 100% 66.71993261101474%)" />
  <rect x="520" y="365" width="30" height="30" fill="hsl(240 100% 85.74706135015533%)" />
  <rect x="625" y="365" width="30" height="30" fill="hsl(240 100% 99.63100819398403%)" />
  <rect x="730" y="365" width="30" height="30" fill="hsl(240 100% 63.40082483289693%)" />
  <rect x="765" y="365" width="30" height="30" fill="hsl(240 100% 98.16827248319615%)" />
  <rect x="835" y="365" width="30" height="30" fill="hsl(240 100% 98.78321932974707%)" />
  <rect x="65" y="400" width="30" height="30" fill="hsl(240 100% 98.45695864160957%)" />
  <rect x="100" y="400" width="30" height="30" fill="hsl(240 100% 99.38498473552932%)" />
  <rect x="135" y="400" width="30" height="30" fill="hsl(240 100% 99.64852919726559%)" />
  <rect x="170" y="400" width="30" height="30" fill="hsl(240 100% 95.18905434849034%)" />
  <rect x="205" y="400" width="30" height="30" fill="hsl(240 100% 99.21369371332162%)" />
  <rect x="240" y="400" width="30" height="30" fill="hsl(240 100% 87.44236034534815%)" />
  <rect x="275" y="400" width="30" height="30" fill="hsl(240 100% 95.20580661586597%)" />
  <rect x="310" y="400" width="30" height="30" fill="rgb(255 255 255 / 50%)" />
  <rect x="380" y="400" width="30" height="30" fill="rgb(255 255 255 / 50%)" />
  <rect x="415" y="400" width="30" height="30" fill="hsl(240 100% 93.88843992629708%)" />
  <rect x="450" y="400" width="30" height="30" fill="hsl(240 100% 99.97381564795799%)" />
  <rect x="485" y="400" width="30" height="30" fill="hsl(240 100% 78.54446145455594%)" />
  <rect x="520" y="400" width="30" height="30" fill="hsl(240 100% 50%)" />
  <rect x="555" y="400" width="30" height="30" fill="hsl(240 100% 99.12635329324164%)" />
  <rect x="660" y="400" width="30" height="30" fill="rgb(255 255 255 / 50%)" />
  <rect x="835" y="400" width="30" height="30" fill="hsl(240 100% 99.20123779422734%)" />
  <rect x="65" y="435" width="30" height="30" fill="hsl(240 100% 92.99130432789539%)" />
  <rect x="240" y="435" width="30" height="30" fill="hsl(240 100% 50%)" />
  <rect x="310" y="435" width="30" height="30" fill="hsl(240 100% 94.34786566677596%)" />
  <rect x="415" y="435" width="30" height="30" fill="hsl(240 100% 86.99695824867413%)" />
  <rect x="450" y="435" width="30" height="30" fill="hsl(240 100% 99.7829345115404%)" />
  <rect x="65" y="470" width="30" height="30" fill="hsl(240 100% 50%)" />
  <rect x="240" y="470" width="30" height="30" fill="hsl(240 100% 50.66143361362443%)" />
  <rect x="310" y="470" width="30" height="30" fill="hsl(240 100% 97.14091323206767%)" />
  <rect x="415" y="470" width="30" height="30" fill="hsl(240 100% 89.13851206950721%)" />
  <rect x="450" y="470" width="30" height="30" fill="hsl(240 100% 99.56401262399285%)" />
</svg>
