<svg xmlns="http://www.w3.org/2000/svg" viewBox="0 0 870 505">
  <rect x="0" y="0" width="870" height="505" rx="5" ry="5" fill="#222" />
  <text x="60" y="100" fill="white" font-family="sans-serif" font-weight="bold" font-size="12" text-anchor="end" dominant-baseline="middle">ba</text>
  <text x="60" y="135" fill="white" font-family="sans-serif" font-weight="bold" font-size="12" text-anchor="end" dominant-baseline="middle">det</text>
  <text x="60" y="170" fill="white" font-family="sans-serif" font-weight="bold" font-size="12" text-anchor="end" dominant-baseline="middle">gmm</text>
  <text x="60" y="205" fill="white" font-family="sans-serif" font-weight="bold" font-size="12" text-anchor="end" dominant-baseline="middle">hello</text>
  <text x="60" y="240" fill="white" font-family="sans-serif" font-weight="bold" font-size="12" text-anchor="end" dominant-baseline="middle">ht</text>
  <text x="60" y="275" fill="white" font-family="sans-serif" font-weight="bold" font-size="12" text-anchor="end" dominant-baseline="middle">kmeans</text>
  <text x="60" y="310" fill="white" font-family="sans-serif" font-weight="bold" font-size="12" text-anchor="end" dominant-baseline="middle">llsq</text>
  <text x="60" y="345" fill="white" font-family="sans-serif" font-weight="bold" font-size="12" text-anchor="end" dominant-baseline="middle">lse</text>
  <text x="60" y="380" fill="white" font-family="sans-serif" font-weight="bold" font-size="12" text-anchor="end" dominant-baseline="middle">lstm</text>
  <text x="60" y="415" fill="white" font-family="sans-serif" font-weight="bold" font-size="12" text-anchor="end" dominant-baseline="middle">ode</text>
  <text x="60" y="450" fill="white" font-family="sans-serif" font-weight="bold" font-size="12" text-anchor="end" dominant-baseline="middle">particle</text>
  <text x="60" y="485" fill="white" font-family="sans-serif" font-weight="bold" font-size="12" text-anchor="end" dominant-baseline="middle">saddle</text>
  <text x="80" y="80" fill="white" font-family="sans-serif" font-weight="bold" font-size="12" text-anchor="end" dominant-baseline="middle" transform="rotate(90 80 80)">ad-hpp</text>
  <text x="115" y="80" fill="white" font-family="sans-serif" font-weight="bold" font-size="12" text-anchor="end" dominant-baseline="middle" transform="rotate(90 115 80)">adept</text>
  <text x="150" y="80" fill="white" font-family="sans-serif" font-weight="bold" font-size="12" text-anchor="end" dominant-baseline="middle" transform="rotate(90 150 80)">adol-c</text>
  <text x="185" y="80" fill="white" font-family="sans-serif" font-weight="bold" font-size="12" text-anchor="end" dominant-baseline="middle" transform="rotate(90 185 80)">codipack</text>
  <text x="220" y="80" fill="white" font-family="sans-serif" font-weight="bold" font-size="12" text-anchor="end" dominant-baseline="middle" transform="rotate(90 220 80)">cppad</text>
  <text x="255" y="80" fill="white" font-family="sans-serif" font-weight="bold" font-size="12" text-anchor="end" dominant-baseline="middle" transform="rotate(90 255 80)">enzyme</text>
  <text x="290" y="80" fill="white" font-family="sans-serif" font-weight="bold" font-size="12" text-anchor="end" dominant-baseline="middle" transform="rotate(90 290 80)">enzyme-jl</text>
  <text x="325" y="80" fill="white" font-family="sans-serif" font-weight="bold" font-size="12" text-anchor="end" dominant-baseline="middle" transform="rotate(90 325 80)">finite</text>
  <text x="360" y="80" fill="white" font-family="sans-serif" font-weight="bold" font-size="12" text-anchor="end" dominant-baseline="middle" transform="rotate(90 360 80)">floretta</text>
  <text x="395" y="80" fill="white" font-family="sans-serif" font-weight="bold" font-size="12" text-anchor="end" dominant-baseline="middle" transform="rotate(90 395 80)">forwarddiff-jl</text>
  <text x="430" y="80" fill="white" font-family="sans-serif" font-weight="bold" font-size="12" text-anchor="end" dominant-baseline="middle" transform="rotate(90 430 80)">futhark</text>
  <text x="465" y="80" fill="white" font-family="sans-serif" font-weight="bold" font-size="12" text-anchor="end" dominant-baseline="middle" transform="rotate(90 465 80)">haskell</text>
  <text x="500" y="80" fill="white" font-family="sans-serif" font-weight="bold" font-size="12" text-anchor="end" dominant-baseline="middle" transform="rotate(90 500 80)">jax</text>
  <text x="535" y="80" fill="white" font-family="sans-serif" font-weight="bold" font-size="12" text-anchor="end" dominant-baseline="middle" transform="rotate(90 535 80)">manual</text>
  <text x="570" y="80" fill="white" font-family="sans-serif" font-weight="bold" font-size="12" text-anchor="end" dominant-baseline="middle" transform="rotate(90 570 80)">mooncake-jl</text>
  <text x="605" y="80" fill="white" font-family="sans-serif" font-weight="bold" font-size="12" text-anchor="end" dominant-baseline="middle" transform="rotate(90 605 80)">ocaml</text>
  <text x="640" y="80" fill="white" font-family="sans-serif" font-weight="bold" font-size="12" text-anchor="end" dominant-baseline="middle" transform="rotate(90 640 80)">pytorch</text>
  <text x="675" y="80" fill="white" font-family="sans-serif" font-weight="bold" font-size="12" text-anchor="end" dominant-baseline="middle" transform="rotate(90 675 80)">reversediff-jl</text>
  <text x="710" y="80" fill="white" font-family="sans-serif" font-weight="bold" font-size="12" text-anchor="end" dominant-baseline="middle" transform="rotate(90 710 80)">scilean</text>
  <text x="745" y="80" fill="white" font-family="sans-serif" font-weight="bold" font-size="12" text-anchor="end" dominant-baseline="middle" transform="rotate(90 745 80)">tapenade</text>
  <text x="780" y="80" fill="white" font-family="sans-serif" font-weight="bold" font-size="12" text-anchor="end" dominant-baseline="middle" transform="rotate(90 780 80)">tensorflow</text>
  <text x="815" y="80" fill="white" font-family="sans-serif" font-weight="bold" font-size="12" text-anchor="end" dominant-baseline="middle" transform="rotate(90 815 80)">tensorflow-js</text>
  <text x="850" y="80" fill="white" font-family="sans-serif" font-weight="bold" font-size="12" text-anchor="end" dominant-baseline="middle" transform="rotate(90 850 80)">zygote</text>
  <rect x="65" y="85" width="30" height="30" fill="hsl(240 100% 80.83017213618146%)" />
  <rect x="100" y="85" width="30" height="30" fill="hsl(240 100% 82.84076789062317%)" />
  <rect x="135" y="85" width="30" height="30" fill="hsl(240 100% 98.00425931019232%)" />
  <rect x="170" y="85" width="30" height="30" fill="hsl(240 100% 82.31272580893852%)" />
  <rect x="205" y="85" width="30" height="30" fill="hsl(240 100% 98.99752831384842%)" />
  <rect x="240" y="85" width="30" height="30" fill="hsl(240 100% 53.82549524621016%)" />
  <rect x="310" y="85" width="30" height="30" fill="hsl(240 100% 93.25359445398415%)" />
  <rect x="415" y="85" width="30" height="30" fill="hsl(240 100% 68.21094538067427%)" />
  <rect x="520" y="85" width="30" height="30" fill="hsl(240 100% 50%)" />
  <rect x="625" y="85" width="30" height="30" fill="rgb(255 255 255 / 50%)" />
  <rect x="730" y="85" width="30" height="30" fill="hsl(240 100% 74.90000193430642%)" />
  <rect x="765" y="85" width="30" height="30" fill="rgb(255 255 255 / 50%)" />
  <rect x="835" y="85" width="30" height="30" fill="hsl(240 100% 99.73541151496185%)" />
  <rect x="65" y="120" width="30" height="30" fill="hsl(240 100% 50%)" />
  <rect x="100" y="120" width="30" height="30" fill="hsl(240 100% 82.76758803600858%)" />
  <rect x="135" y="120" width="30" height="30" fill="hsl(240 100% 85.7235740516863%)" />
  <rect x="170" y="120" width="30" height="30" fill="hsl(240 100% 52.82289982747231%)" />
  <rect x="205" y="120" width="30" height="30" fill="hsl(240 100% 92.70952567309791%)" />
  <rect x="240" y="120" width="30" height="30" fill="hsl(240 100% 91.67129966092473%)" />
  <rect x="275" y="120" width="30" height="30" fill="hsl(240 100% 99.37182904524713%)" />
  <rect x="310" y="120" width="30" height="30" fill="hsl(240 100% 98.99485044110203%)" />
  <rect x="380" y="120" width="30" height="30" fill="hsl(240 100% 93.38845627574615%)" />
  <rect x="415" y="120" width="30" height="30" fill="hsl(240 100% 94.63666953298073%)" />
  <rect x="450" y="120" width="30" height="30" fill="hsl(240 100% 97.88309166258038%)" />
  <rect x="520" y="120" width="30" height="30" fill="hsl(240 100% 79.93878579410438%)" />
  <rect x="555" y="120" width="30" height="30" fill="hsl(240 100% 91.23687704219441%)" />
  <rect x="660" y="120" width="30" height="30" fill="rgb(255 255 255 / 50%)" />
  <rect x="835" y="120" width="30" height="30" fill="rgb(255 255 255 / 50%)" />
  <rect x="65" y="155" width="30" height="30" fill="hsl(240 100% 98.38288975863176%)" />
  <rect x="100" y="155" width="30" height="30" fill="hsl(240 100% 98.8313492094141%)" />
  <rect x="135" y="155" width="30" height="30" fill="hsl(240 100% 99.09588007449743%)" />
  <rect x="170" y="155" width="30" height="30" fill="hsl(240 100% 98.02456743140006%)" />
  <rect x="205" y="155" width="30" height="30" fill="hsl(240 100% 99.84635385219826%)" />
  <rect x="240" y="155" width="30" height="30" fill="hsl(240 100% 91.15832412797508%)" />
  <rect x="275" y="155" width="30" height="30" fill="hsl(240 100% 91.78835696621363%)" />
  <rect x="310" y="155" width="30" height="30" fill="rgb(255 255 255 / 50%)" />
  <rect x="415" y="155" width="30" height="30" fill="hsl(240 100% 92.74442862327128%)" />
  <rect x="485" y="155" width="30" height="30" fill="hsl(240 100% 50%)" />
  <rect x="520" y="155" width="30" height="30" fill="hsl(240 100% 83.35823180428055%)" />
  <rect x="590" y="155" width="30" height="30" fill="hsl(240 100% 99.59321606373838%)" />
  <rect x="625" y="155" width="30" height="30" fill="hsl(240 100% 66.64700550609764%)" />
  <rect x="695" y="155" width="30" height="30" fill="hsl(240 100% 95.39443631826778%)" />
  <rect x="730" y="155" width="30" height="30" fill="hsl(240 100% 83.36853328634417%)" />
  <rect x="765" y="155" width="30" height="30" fill="hsl(240 100% 99.57418703923926%)" />
  <rect x="835" y="155" width="30" height="30" fill="hsl(240 100% 96.43188958016235%)" />
  <rect x="65" y="190" width="30" height="30" fill="hsl(240 100% 50%)" />
  <rect x="100" y="190" width="30" height="30" fill="hsl(240 100% 50%)" />
  <rect x="135" y="190" width="30" height="30" fill="hsl(240 100% 50%)" />
  <rect x="170" y="190" width="30" height="30" fill="hsl(240 100% 50%)" />
  <rect x="205" y="190" width="30" height="30" fill="hsl(240 100% 50%)" />
  <rect x="240" y="190" width="30" height="30" fill="hsl(240 100% 50%)" />
  <rect x="275" y="190" width="30" height="30" fill="hsl(240 100% 50%)" />
  <rect x="310" y="190" width="30" height="30" fill="hsl(240 100% 50%)" />
  <rect x="345" y="190" width="30" height="30" fill="hsl(240 100% 50%)" />
  <rect x="380" y="190" width="30" height="30" fill="hsl(240 100% 50%)" />
  <rect x="415" y="190" width="30" height="30" fill="hsl(240 100% 50%)" />
  <rect x="450" y="190" width="30" height="30" fill="hsl(240 100% 50%)" />
  <rect x="485" y="190" width="30" height="30" fill="hsl(240 100% 50%)" />
  <rect x="520" y="190" width="30" height="30" fill="hsl(240 100% 50%)" />
  <rect x="555" y="190" width="30" height="30" fill="hsl(240 100% 50%)" />
  <rect x="590" y="190" width="30" height="30" fill="hsl(240 100% 50%)" />
  <rect x="625" y="190" width="30" height="30" fill="hsl(240 100% 50%)" />
  <rect x="660" y="190" width="30" height="30" fill="hsl(240 100% 50%)" />
  <rect x="695" y="190" width="30" height="30" fill="hsl(240 100% 50%)" />
  <rect x="730" y="190" width="30" height="30" fill="hsl(240 100% 50%)" />
  <rect x="765" y="190" width="30" height="30" fill="hsl(240 100% 50%)" />
  <rect x="800" y="190" width="30" height="30" fill="hsl(240 100% 50%)" />
  <rect x="835" y="190" width="30" height="30" fill="hsl(240 100% 50%)" />
  <rect x="100" y="225" width="30" height="30" fill="hsl(240 100% 96.64431828447177%)" />
  <rect x="135" y="225" width="30" height="30" fill="hsl(240 100% 89.50039582925208%)" />
  <rect x="170" y="225" width="30" height="30" fill="hsl(240 100% 89.23444359979533%)" />
  <rect x="240" y="225" width="30" height="30" fill="hsl(240 100% 91.3826960981317%)" />
  <rect x="310" y="225" width="30" height="30" fill="rgb(255 255 255 / 50%)" />
  <rect x="415" y="225" width="30" height="30" fill="hsl(240 100% 90.4211087011492%)" />
  <rect x="520" y="225" width="30" height="30" fill="hsl(240 100% 50%)" />
  <rect x="625" y="225" width="30" height="30" fill="rgb(255 255 255 / 50%)" />
  <rect x="730" y="225" width="30" height="30" fill="hsl(240 100% 93.10654387481148%)" />
  <rect x="765" y="225" width="30" height="30" fill="rgb(255 255 255 / 50%)" />
  <rect x="835" y="225" width="30" height="30" fill="hsl(240 100% 94.5413129494195%)" />
  <rect x="65" y="260" width="30" height="30" fill="hsl(240 100% 99.87936145168442%)" />
  <rect x="135" y="260" width="30" height="30" fill="hsl(240 100% 99.85728655040143%)" />
  <rect x="170" y="260" width="30" height="30" fill="hsl(240 100% 98.94844739367653%)" />
  <rect x="205" y="260" width="30" height="30" fill="rgb(255 255 255 / 50%)" />
  <rect x="240" y="260" width="30" height="30" fill="hsl(240 100% 87.11657101176094%)" />
  <rect x="310" y="260" width="30" height="30" fill="rgb(255 255 255 / 50%)" />
  <rect x="415" y="260" width="30" height="30" fill="hsl(240 100% 80.7930272491977%)" />
  <rect x="450" y="260" width="30" height="30" fill="rgb(255 255 255 / 50%)" />
  <rect x="485" y="260" width="30" height="30" fill="hsl(240 100% 50%)" />
  <rect x="520" y="260" width="30" height="30" fill="hsl(240 100% 71.21996606685997%)" />
  <rect x="625" y="260" width="30" height="30" fill="hsl(240 100% 96.94921783710346%)" />
  <rect x="695" y="260" width="30" height="30" fill="hsl(240 100% 94.13281575771146%)" />
  <rect x="65" y="295" width="30" height="30" fill="hsl(240 100% 85.84251857140521%)" />
  <rect x="100" y="295" width="30" height="30" fill="hsl(240 100% 97.62524768122006%)" />
  <rect x="135" y="295" width="30" height="30" fill="hsl(240 100% 95.1134290519983%)" />
  <rect x="170" y="295" width="30" height="30" fill="hsl(240 100% 90.6191761444131%)" />
  <rect x="205" y="295" width="30" height="30" fill="hsl(240 100% 99.47241077478073%)" />
  <rect x="240" y="295" width="30" height="30" fill="hsl(240 100% 51.05387530298805%)" />
  <rect x="275" y="295" width="30" height="30" fill="hsl(240 100% 50%)" />
  <rect x="310" y="295" width="30" height="30" fill="hsl(240 100% 99.49694531556098%)" />
  <rect x="345" y="295" width="30" height="30" fill="hsl(240 100% 94.69357558757316%)" />
  <rect x="415" y="295" width="30" height="30" fill="hsl(240 100% 55.04319807825384%)" />
  <rect x="450" y="295" width="30" height="30" fill="hsl(240 100% 99.34551294327346%)" />
  <rect x="485" y="295" width="30" height="30" fill="hsl(240 100% 88.17987873697447%)" />
  <rect x="520" y="295" width="30" height="30" fill="hsl(240 100% 57.653381454986736%)" />
  <rect x="695" y="295" width="30" height="30" fill="hsl(240 100% 97.5894876594893%)" />
  <rect x="800" y="295" width="30" height="30" fill="hsl(240 100% 99.56782337553894%)" />
  <rect x="835" y="295" width="30" height="30" fill="hsl(240 100% 99.95550986926159%)" />
  <rect x="65" y="330" width="30" height="30" fill="hsl(240 100% 88.90423688038085%)" />
  <rect x="100" y="330" width="30" height="30" fill="hsl(240 100% 94.9287556022831%)" />
  <rect x="135" y="330" width="30" height="30" fill="hsl(240 100% 97.28779690684917%)" />
  <rect x="170" y="330" width="30" height="30" fill="hsl(240 100% 88.93551834210969%)" />
  <rect x="205" y="330" width="30" height="30" fill="hsl(240 100% 99.22724407153994%)" />
  <rect x="240" y="330" width="30" height="30" fill="hsl(240 100% 80.51588483232518%)" />
  <rect x="275" y="330" width="30" height="30" fill="hsl(240 100% 88.44168877951661%)" />
  <rect x="310" y="330" width="30" height="30" fill="rgb(255 255 255 / 50%)" />
  <rect x="345" y="330" width="30" height="30" fill="hsl(240 100% 97.31548312585979%)" />
  <rect x="415" y="330" width="30" height="30" fill="hsl(240 100% 86.20615168102542%)" />
  <rect x="450" y="330" width="30" height="30" fill="hsl(240 100% 99.8218717745641%)" />
  <rect x="485" y="330" width="30" height="30" fill="hsl(240 100% 73.66227500484418%)" />
  <rect x="520" y="330" width="30" height="30" fill="hsl(240 100% 77.49477613941237%)" />
  <rect x="590" y="330" width="30" height="30" fill="hsl(240 100% 94.09334924664375%)" />
  <rect x="625" y="330" width="30" height="30" fill="hsl(240 100% 50%)" />
  <rect x="765" y="330" width="30" height="30" fill="hsl(240 100% 94.60428276155199%)" />
  <rect x="800" y="330" width="30" height="30" fill="hsl(240 100% 99.2289792191205%)" />
  <rect x="835" y="330" width="30" height="30" fill="hsl(240 100% 81.80458685561985%)" />
  <rect x="65" y="365" width="30" height="30" fill="hsl(240 100% 56.56490577773179%)" />
  <rect x="100" y="365" width="30" height="30" fill="hsl(240 100% 72.40991348642495%)" />
  <rect x="135" y="365" width="30" height="30" fill="hsl(240 100% 81.95580885109571%)" />
  <rect x="170" y="365" width="30" height="30" fill="hsl(240 100% 50%)" />
  <rect x="205" y="365" width="30" height="30" fill="hsl(240 100% 96.09717005702834%)" />
  <rect x="240" y="365" width="30" height="30" fill="hsl(240 100% 60.2360690595996%)" />
  <rect x="275" y="365" width="30" height="30" fill="hsl(240 100% 92.46690516243328%)" />
  <rect x="310" y="365" width="30" height="30" fill="hsl(240 100% 99.85986820734918%)" />
  <rect x="415" y="365" width="30" height="30" fill="hsl(240 100% 66.61726591655285%)" />
  <rect x="520" y="365" width="30" height="30" fill="hsl(240 100% 85.74980409747207%)" />
  <rect x="625" y="365" width="30" height="30" fill="hsl(240 100% 99.62923531632848%)" />
  <rect x="730" y="365" width="30" height="30" fill="hsl(240 100% 62.464284749954494%)" />
  <rect x="765" y="365" width="30" height="30" fill="hsl(240 100% 98.19762343048053%)" />
  <rect x="835" y="365" width="30" height="30" fill="hsl(240 100% 98.74982717581194%)" />
  <rect x="65" y="400" width="30" height="30" fill="hsl(240 100% 98.52054761415022%)" />
  <rect x="100" y="400" width="30" height="30" fill="hsl(240 100% 99.4430195839718%)" />
  <rect x="135" y="400" width="30" height="30" fill="hsl(240 100% 99.67567771506576%)" />
  <rect x="170" y="400" width="30" height="30" fill="hsl(240 100% 95.34826505097797%)" />
  <rect x="205" y="400" width="30" height="30" fill="hsl(240 100% 99.23749491465361%)" />
  <rect x="240" y="400" width="30" height="30" fill="hsl(240 100% 88.10400510486247%)" />
  <rect x="275" y="400" width="30" height="30" fill="hsl(240 100% 95.27116594449122%)" />
  <rect x="310" y="400" width="30" height="30" fill="rgb(255 255 255 / 50%)" />
  <rect x="380" y="400" width="30" height="30" fill="rgb(255 255 255 / 50%)" />
  <rect x="415" y="400" width="30" height="30" fill="hsl(240 100% 94.08705548290358%)" />
  <rect x="450" y="400" width="30" height="30" fill="hsl(240 100% 99.97117623304486%)" />
  <rect x="485" y="400" width="30" height="30" fill="hsl(240 100% 78.55408489090794%)" />
  <rect x="520" y="400" width="30" height="30" fill="hsl(240 100% 50%)" />
  <rect x="555" y="400" width="30" height="30" fill="hsl(240 100% 99.12341052123922%)" />
  <rect x="660" y="400" width="30" height="30" fill="rgb(255 255 255 / 50%)" />
  <rect x="835" y="400" width="30" height="30" fill="hsl(240 100% 99.1957833969802%)" />
  <rect x="65" y="435" width="30" height="30" fill="hsl(240 100% 92.8247610945281%)" />
  <rect x="240" y="435" width="30" height="30" fill="hsl(240 100% 50%)" />
  <rect x="310" y="435" width="30" height="30" fill="hsl(240 100% 94.29026026255147%)" />
  <rect x="415" y="435" width="30" height="30" fill="hsl(240 100% 87.02348649056596%)" />
  <rect x="450" y="435" width="30" height="30" fill="hsl(240 100% 99.79574716618612%)" />
  <rect x="65" y="470" width="30" height="30" fill="hsl(240 100% 50%)" />
  <rect x="240" y="470" width="30" height="30" fill="hsl(240 100% 50.25306216337809%)" />
  <rect x="310" y="470" width="30" height="30" fill="hsl(240 100% 97.14291558629078%)" />
  <rect x="415" y="470" width="30" height="30" fill="hsl(240 100% 89.05228694191281%)" />
  <rect x="450" y="470" width="30" height="30" fill="hsl(240 100% 99.56507235446111%)" />
</svg>
