<svg xmlns="http://www.w3.org/2000/svg" viewBox="0 0 870 505">
  <rect x="0" y="0" width="870" height="505" rx="5" ry="5" fill="#222" />
  <text x="60" y="100" fill="white" font-family="sans-serif" font-weight="bold" font-size="12" text-anchor="end" dominant-baseline="middle">ba</text>
  <text x="60" y="135" fill="white" font-family="sans-serif" font-weight="bold" font-size="12" text-anchor="end" dominant-baseline="middle">det</text>
  <text x="60" y="170" fill="white" font-family="sans-serif" font-weight="bold" font-size="12" text-anchor="end" dominant-baseline="middle">gmm</text>
  <text x="60" y="205" fill="white" font-family="sans-serif" font-weight="bold" font-size="12" text-anchor="end" dominant-baseline="middle">hello</text>
  <text x="60" y="240" fill="white" font-family="sans-serif" font-weight="bold" font-size="12" text-anchor="end" dominant-baseline="middle">ht</text>
  <text x="60" y="275" fill="white" font-family="sans-serif" font-weight="bold" font-size="12" text-anchor="end" dominant-baseline="middle">kmeans</text>
  <text x="60" y="310" fill="white" font-family="sans-serif" font-weight="bold" font-size="12" text-anchor="end" dominant-baseline="middle">llsq</text>
  <text x="60" y="345" fill="white" font-family="sans-serif" font-weight="bold" font-size="12" text-anchor="end" dominant-baseline="middle">lse</text>
  <text x="60" y="380" fill="white" font-family="sans-serif" font-weight="bold" font-size="12" text-anchor="end" dominant-baseline="middle">lstm</text>
  <text x="60" y="415" fill="white" font-family="sans-serif" font-weight="bold" font-size="12" text-anchor="end" dominant-baseline="middle">ode</text>
  <text x="60" y="450" fill="white" font-family="sans-serif" font-weight="bold" font-size="12" text-anchor="end" dominant-baseline="middle">particle</text>
  <text x="60" y="485" fill="white" font-family="sans-serif" font-weight="bold" font-size="12" text-anchor="end" dominant-baseline="middle">saddle</text>
  <text x="80" y="80" fill="white" font-family="sans-serif" font-weight="bold" font-size="12" text-anchor="end" dominant-baseline="middle" transform="rotate(90 80 80)">ad-hpp</text>
  <text x="115" y="80" fill="white" font-family="sans-serif" font-weight="bold" font-size="12" text-anchor="end" dominant-baseline="middle" transform="rotate(90 115 80)">adept</text>
  <text x="150" y="80" fill="white" font-family="sans-serif" font-weight="bold" font-size="12" text-anchor="end" dominant-baseline="middle" transform="rotate(90 150 80)">adol-c</text>
  <text x="185" y="80" fill="white" font-family="sans-serif" font-weight="bold" font-size="12" text-anchor="end" dominant-baseline="middle" transform="rotate(90 185 80)">codipack</text>
  <text x="220" y="80" fill="white" font-family="sans-serif" font-weight="bold" font-size="12" text-anchor="end" dominant-baseline="middle" transform="rotate(90 220 80)">cppad</text>
  <text x="255" y="80" fill="white" font-family="sans-serif" font-weight="bold" font-size="12" text-anchor="end" dominant-baseline="middle" transform="rotate(90 255 80)">enzyme</text>
  <text x="290" y="80" fill="white" font-family="sans-serif" font-weight="bold" font-size="12" text-anchor="end" dominant-baseline="middle" transform="rotate(90 290 80)">enzyme-jl</text>
  <text x="325" y="80" fill="white" font-family="sans-serif" font-weight="bold" font-size="12" text-anchor="end" dominant-baseline="middle" transform="rotate(90 325 80)">finite</text>
  <text x="360" y="80" fill="white" font-family="sans-serif" font-weight="bold" font-size="12" text-anchor="end" dominant-baseline="middle" transform="rotate(90 360 80)">floretta</text>
  <text x="395" y="80" fill="white" font-family="sans-serif" font-weight="bold" font-size="12" text-anchor="end" dominant-baseline="middle" transform="rotate(90 395 80)">forwarddiff-jl</text>
  <text x="430" y="80" fill="white" font-family="sans-serif" font-weight="bold" font-size="12" text-anchor="end" dominant-baseline="middle" transform="rotate(90 430 80)">futhark</text>
  <text x="465" y="80" fill="white" font-family="sans-serif" font-weight="bold" font-size="12" text-anchor="end" dominant-baseline="middle" transform="rotate(90 465 80)">haskell</text>
  <text x="500" y="80" fill="white" font-family="sans-serif" font-weight="bold" font-size="12" text-anchor="end" dominant-baseline="middle" transform="rotate(90 500 80)">jax</text>
  <text x="535" y="80" fill="white" font-family="sans-serif" font-weight="bold" font-size="12" text-anchor="end" dominant-baseline="middle" transform="rotate(90 535 80)">manual</text>
  <text x="570" y="80" fill="white" font-family="sans-serif" font-weight="bold" font-size="12" text-anchor="end" dominant-baseline="middle" transform="rotate(90 570 80)">mooncake-jl</text>
  <text x="605" y="80" fill="white" font-family="sans-serif" font-weight="bold" font-size="12" text-anchor="end" dominant-baseline="middle" transform="rotate(90 605 80)">ocaml</text>
  <text x="640" y="80" fill="white" font-family="sans-serif" font-weight="bold" font-size="12" text-anchor="end" dominant-baseline="middle" transform="rotate(90 640 80)">pytorch</text>
  <text x="675" y="80" fill="white" font-family="sans-serif" font-weight="bold" font-size="12" text-anchor="end" dominant-baseline="middle" transform="rotate(90 675 80)">reversediff-jl</text>
  <text x="710" y="80" fill="white" font-family="sans-serif" font-weight="bold" font-size="12" text-anchor="end" dominant-baseline="middle" transform="rotate(90 710 80)">scilean</text>
  <text x="745" y="80" fill="white" font-family="sans-serif" font-weight="bold" font-size="12" text-anchor="end" dominant-baseline="middle" transform="rotate(90 745 80)">tapenade</text>
  <text x="780" y="80" fill="white" font-family="sans-serif" font-weight="bold" font-size="12" text-anchor="end" dominant-baseline="middle" transform="rotate(90 780 80)">tensorflow</text>
  <text x="815" y="80" fill="white" font-family="sans-serif" font-weight="bold" font-size="12" text-anchor="end" dominant-baseline="middle" transform="rotate(90 815 80)">tensorflow-js</text>
  <text x="850" y="80" fill="white" font-family="sans-serif" font-weight="bold" font-size="12" text-anchor="end" dominant-baseline="middle" transform="rotate(90 850 80)">zygote</text>
  <rect x="65" y="85" width="30" height="30" fill="hsl(240 100% 80.74998452760943%)" />
  <rect x="100" y="85" width="30" height="30" fill="hsl(240 100% 82.20216517719797%)" />
  <rect x="135" y="85" width="30" height="30" fill="hsl(240 100% 97.93132438613017%)" />
  <rect x="170" y="85" width="30" height="30" fill="hsl(240 100% 81.64331815076525%)" />
  <rect x="205" y="85" width="30" height="30" fill="hsl(240 100% 98.95477743264667%)" />
  <rect x="240" y="85" width="30" height="30" fill="hsl(240 100% 50%)" />
  <rect x="310" y="85" width="30" height="30" fill="hsl(240 100% 92.89975614948673%)" />
  <rect x="415" y="85" width="30" height="30" fill="hsl(240 100% 68.0581733425357%)" />
  <rect x="520" y="85" width="30" height="30" fill="hsl(240 100% 54.567303717527686%)" />
  <rect x="625" y="85" width="30" height="30" fill="rgb(255 255 255 / 50%)" />
  <rect x="730" y="85" width="30" height="30" fill="hsl(240 100% 74.12512381019056%)" />
  <rect x="765" y="85" width="30" height="30" fill="rgb(255 255 255 / 50%)" />
  <rect x="835" y="85" width="30" height="30" fill="hsl(240 100% 99.71971054372011%)" />
  <rect x="65" y="120" width="30" height="30" fill="hsl(240 100% 50%)" />
  <rect x="100" y="120" width="30" height="30" fill="hsl(240 100% 83.23976762953907%)" />
  <rect x="135" y="120" width="30" height="30" fill="hsl(240 100% 85.37908757268023%)" />
  <rect x="170" y="120" width="30" height="30" fill="hsl(240 100% 52.597241297881006%)" />
  <rect x="205" y="120" width="30" height="30" fill="hsl(240 100% 92.51340107978918%)" />
  <rect x="240" y="120" width="30" height="30" fill="hsl(240 100% 91.4601099459157%)" />
  <rect x="275" y="120" width="30" height="30" fill="hsl(240 100% 99.39683998427746%)" />
  <rect x="310" y="120" width="30" height="30" fill="hsl(240 100% 98.98049586635638%)" />
  <rect x="380" y="120" width="30" height="30" fill="hsl(240 100% 93.2673083902957%)" />
  <rect x="415" y="120" width="30" height="30" fill="hsl(240 100% 94.58296533079407%)" />
  <rect x="450" y="120" width="30" height="30" fill="hsl(240 100% 97.83106884452157%)" />
  <rect x="520" y="120" width="30" height="30" fill="hsl(240 100% 79.29691207695247%)" />
  <rect x="555" y="120" width="30" height="30" fill="hsl(240 100% 91.51594355779685%)" />
  <rect x="660" y="120" width="30" height="30" fill="rgb(255 255 255 / 50%)" />
  <rect x="835" y="120" width="30" height="30" fill="rgb(255 255 255 / 50%)" />
  <rect x="65" y="155" width="30" height="30" fill="hsl(240 100% 98.32750684410207%)" />
  <rect x="100" y="155" width="30" height="30" fill="hsl(240 100% 98.87271700751077%)" />
  <rect x="135" y="155" width="30" height="30" fill="hsl(240 100% 99.09830861557916%)" />
  <rect x="170" y="155" width="30" height="30" fill="hsl(240 100% 97.97534244103593%)" />
  <rect x="205" y="155" width="30" height="30" fill="hsl(240 100% 99.84682197028636%)" />
  <rect x="240" y="155" width="30" height="30" fill="hsl(240 100% 91.0154761869422%)" />
  <rect x="275" y="155" width="30" height="30" fill="hsl(240 100% 92.1118025622121%)" />
  <rect x="310" y="155" width="30" height="30" fill="rgb(255 255 255 / 50%)" />
  <rect x="415" y="155" width="30" height="30" fill="hsl(240 100% 92.92199601612666%)" />
  <rect x="485" y="155" width="30" height="30" fill="hsl(240 100% 50%)" />
  <rect x="520" y="155" width="30" height="30" fill="hsl(240 100% 80.77359056239358%)" />
  <rect x="590" y="155" width="30" height="30" fill="hsl(240 100% 99.57663106519067%)" />
  <rect x="625" y="155" width="30" height="30" fill="hsl(240 100% 65.43693418080798%)" />
  <rect x="695" y="155" width="30" height="30" fill="hsl(240 100% 95.39880649714976%)" />
  <rect x="730" y="155" width="30" height="30" fill="hsl(240 100% 83.51487466526186%)" />
  <rect x="765" y="155" width="30" height="30" fill="hsl(240 100% 99.577805864888%)" />
  <rect x="835" y="155" width="30" height="30" fill="hsl(240 100% 96.37365019080784%)" />
  <rect x="65" y="190" width="30" height="30" fill="hsl(240 100% 50%)" />
  <rect x="100" y="190" width="30" height="30" fill="hsl(240 100% 50%)" />
  <rect x="135" y="190" width="30" height="30" fill="hsl(240 100% 50%)" />
  <rect x="170" y="190" width="30" height="30" fill="hsl(240 100% 50%)" />
  <rect x="205" y="190" width="30" height="30" fill="hsl(240 100% 50%)" />
  <rect x="240" y="190" width="30" height="30" fill="hsl(240 100% 50%)" />
  <rect x="275" y="190" width="30" height="30" fill="hsl(240 100% 50%)" />
  <rect x="310" y="190" width="30" height="30" fill="hsl(240 100% 50%)" />
  <rect x="345" y="190" width="30" height="30" fill="hsl(240 100% 50%)" />
  <rect x="380" y="190" width="30" height="30" fill="hsl(240 100% 50%)" />
  <rect x="415" y="190" width="30" height="30" fill="hsl(240 100% 50%)" />
  <rect x="450" y="190" width="30" height="30" fill="hsl(240 100% 50%)" />
  <rect x="485" y="190" width="30" height="30" fill="hsl(240 100% 50%)" />
  <rect x="520" y="190" width="30" height="30" fill="hsl(240 100% 50%)" />
  <rect x="555" y="190" width="30" height="30" fill="hsl(240 100% 50%)" />
  <rect x="590" y="190" width="30" height="30" fill="hsl(240 100% 50%)" />
  <rect x="625" y="190" width="30" height="30" fill="hsl(240 100% 50%)" />
  <rect x="660" y="190" width="30" height="30" fill="hsl(240 100% 50%)" />
  <rect x="695" y="190" width="30" height="30" fill="hsl(240 100% 50%)" />
  <rect x="730" y="190" width="30" height="30" fill="hsl(240 100% 50%)" />
  <rect x="765" y="190" width="30" height="30" fill="hsl(240 100% 50%)" />
  <rect x="800" y="190" width="30" height="30" fill="hsl(240 100% 50%)" />
  <rect x="835" y="190" width="30" height="30" fill="hsl(240 100% 50%)" />
  <rect x="100" y="225" width="30" height="30" fill="hsl(240 100% 96.32673082699833%)" />
  <rect x="135" y="225" width="30" height="30" fill="hsl(240 100% 88.44876997563712%)" />
  <rect x="170" y="225" width="30" height="30" fill="hsl(240 100% 88.27327594715318%)" />
  <rect x="240" y="225" width="30" height="30" fill="hsl(240 100% 90.3757440538595%)" />
  <rect x="310" y="225" width="30" height="30" fill="rgb(255 255 255 / 50%)" />
  <rect x="415" y="225" width="30" height="30" fill="hsl(240 100% 89.49842745738428%)" />
  <rect x="520" y="225" width="30" height="30" fill="hsl(240 100% 50%)" />
  <rect x="625" y="225" width="30" height="30" fill="rgb(255 255 255 / 50%)" />
  <rect x="730" y="225" width="30" height="30" fill="hsl(240 100% 92.43968183242319%)" />
  <rect x="765" y="225" width="30" height="30" fill="rgb(255 255 255 / 50%)" />
  <rect x="835" y="225" width="30" height="30" fill="hsl(240 100% 94.0232875154849%)" />
  <rect x="65" y="260" width="30" height="30" fill="hsl(240 100% 99.85491558208456%)" />
  <rect x="135" y="260" width="30" height="30" fill="hsl(240 100% 99.85908007748979%)" />
  <rect x="170" y="260" width="30" height="30" fill="hsl(240 100% 98.93414602496595%)" />
  <rect x="205" y="260" width="30" height="30" fill="rgb(255 255 255 / 50%)" />
  <rect x="240" y="260" width="30" height="30" fill="hsl(240 100% 87.20919269262447%)" />
  <rect x="310" y="260" width="30" height="30" fill="rgb(255 255 255 / 50%)" />
  <rect x="415" y="260" width="30" height="30" fill="hsl(240 100% 80.91905543964354%)" />
  <rect x="450" y="260" width="30" height="30" fill="rgb(255 255 255 / 50%)" />
  <rect x="485" y="260" width="30" height="30" fill="hsl(240 100% 50%)" />
  <rect x="520" y="260" width="30" height="30" fill="hsl(240 100% 72.85541051606532%)" />
  <rect x="625" y="260" width="30" height="30" fill="hsl(240 100% 97.09737165338774%)" />
  <rect x="695" y="260" width="30" height="30" fill="hsl(240 100% 94.17358425228709%)" />
  <rect x="65" y="295" width="30" height="30" fill="hsl(240 100% 86.20215152668732%)" />
  <rect x="100" y="295" width="30" height="30" fill="hsl(240 100% 97.51243802636388%)" />
  <rect x="135" y="295" width="30" height="30" fill="hsl(240 100% 95.03418321289664%)" />
  <rect x="170" y="295" width="30" height="30" fill="hsl(240 100% 89.43006264579995%)" />
  <rect x="205" y="295" width="30" height="30" fill="hsl(240 100% 99.48324056230828%)" />
  <rect x="240" y="295" width="30" height="30" fill="hsl(240 100% 50.75341844888437%)" />
  <rect x="275" y="295" width="30" height="30" fill="hsl(240 100% 50%)" />
  <rect x="310" y="295" width="30" height="30" fill="hsl(240 100% 99.5002977596513%)" />
  <rect x="345" y="295" width="30" height="30" fill="hsl(240 100% 94.73837340125237%)" />
  <rect x="415" y="295" width="30" height="30" fill="hsl(240 100% 55.291702636242285%)" />
  <rect x="450" y="295" width="30" height="30" fill="hsl(240 100% 99.32020346552945%)" />
  <rect x="485" y="295" width="30" height="30" fill="hsl(240 100% 88.50449826610807%)" />
  <rect x="520" y="295" width="30" height="30" fill="hsl(240 100% 56.9686738125498%)" />
  <rect x="695" y="295" width="30" height="30" fill="hsl(240 100% 97.6142174454624%)" />
  <rect x="800" y="295" width="30" height="30" fill="hsl(240 100% 99.5821904778124%)" />
  <rect x="835" y="295" width="30" height="30" fill="hsl(240 100% 99.95606186934644%)" />
  <rect x="65" y="330" width="30" height="30" fill="hsl(240 100% 86.58522556475226%)" />
  <rect x="100" y="330" width="30" height="30" fill="hsl(240 100% 93.60280852399077%)" />
  <rect x="135" y="330" width="30" height="30" fill="hsl(240 100% 96.75661082283906%)" />
  <rect x="170" y="330" width="30" height="30" fill="hsl(240 100% 85.39548366740327%)" />
  <rect x="205" y="330" width="30" height="30" fill="hsl(240 100% 99.12919338129971%)" />
  <rect x="240" y="330" width="30" height="30" fill="hsl(240 100% 77.37957387706098%)" />
  <rect x="275" y="330" width="30" height="30" fill="hsl(240 100% 86.66863325914144%)" />
  <rect x="310" y="330" width="30" height="30" fill="rgb(255 255 255 / 50%)" />
  <rect x="345" y="330" width="30" height="30" fill="hsl(240 100% 96.95389270610387%)" />
  <rect x="415" y="330" width="30" height="30" fill="hsl(240 100% 84.2567499923291%)" />
  <rect x="450" y="330" width="30" height="30" fill="hsl(240 100% 99.78291454648839%)" />
  <rect x="485" y="330" width="30" height="30" fill="hsl(240 100% 68.41551025624575%)" />
  <rect x="520" y="330" width="30" height="30" fill="hsl(240 100% 67.03099637014279%)" />
  <rect x="590" y="330" width="30" height="30" fill="hsl(240 100% 93.17318764791901%)" />
  <rect x="625" y="330" width="30" height="30" fill="hsl(240 100% 50%)" />
  <rect x="765" y="330" width="30" height="30" fill="hsl(240 100% 94.29902202362908%)" />
  <rect x="800" y="330" width="30" height="30" fill="hsl(240 100% 99.12489480036%)" />
  <rect x="835" y="330" width="30" height="30" fill="hsl(240 100% 79.09124281827752%)" />
  <rect x="65" y="365" width="30" height="30" fill="hsl(240 100% 57.110802962337274%)" />
  <rect x="100" y="365" width="30" height="30" fill="hsl(240 100% 70.96433657238909%)" />
  <rect x="135" y="365" width="30" height="30" fill="hsl(240 100% 81.83759732995863%)" />
  <rect x="170" y="365" width="30" height="30" fill="hsl(240 100% 50%)" />
  <rect x="205" y="365" width="30" height="30" fill="hsl(240 100% 96.04037566697338%)" />
  <rect x="240" y="365" width="30" height="30" fill="hsl(240 100% 58.95159669731278%)" />
  <rect x="275" y="365" width="30" height="30" fill="hsl(240 100% 92.70722948716147%)" />
  <rect x="310" y="365" width="30" height="30" fill="hsl(240 100% 99.86064113837209%)" />
  <rect x="415" y="365" width="30" height="30" fill="hsl(240 100% 66.27471513698202%)" />
  <rect x="520" y="365" width="30" height="30" fill="hsl(240 100% 85.71439443747072%)" />
  <rect x="625" y="365" width="30" height="30" fill="hsl(240 100% 99.63028755650016%)" />
  <rect x="730" y="365" width="30" height="30" fill="hsl(240 100% 63.51504348358733%)" />
  <rect x="765" y="365" width="30" height="30" fill="hsl(240 100% 98.18816601095867%)" />
  <rect x="835" y="365" width="30" height="30" fill="hsl(240 100% 98.73789605715349%)" />
  <rect x="65" y="400" width="30" height="30" fill="hsl(240 100% 97.59645520700238%)" />
  <rect x="100" y="400" width="30" height="30" fill="hsl(240 100% 99.24853085833759%)" />
  <rect x="135" y="400" width="30" height="30" fill="hsl(240 100% 99.5607054243632%)" />
  <rect x="170" y="400" width="30" height="30" fill="hsl(240 100% 92.22579130014587%)" />
  <rect x="205" y="400" width="30" height="30" fill="hsl(240 100% 99.00798580780302%)" />
  <rect x="240" y="400" width="30" height="30" fill="hsl(240 100% 85.16871014615032%)" />
  <rect x="275" y="400" width="30" height="30" fill="hsl(240 100% 93.98051285118208%)" />
  <rect x="310" y="400" width="30" height="30" fill="rgb(255 255 255 / 50%)" />
  <rect x="380" y="400" width="30" height="30" fill="rgb(255 255 255 / 50%)" />
  <rect x="415" y="400" width="30" height="30" fill="hsl(240 100% 92.35331678930697%)" />
  <rect x="450" y="400" width="30" height="30" fill="hsl(240 100% 99.9662936707151%)" />
  <rect x="485" y="400" width="30" height="30" fill="hsl(240 100% 71.8282705210105%)" />
  <rect x="520" y="400" width="30" height="30" fill="hsl(240 100% 50%)" />
  <rect x="555" y="400" width="30" height="30" fill="hsl(240 100% 98.84835648316646%)" />
  <rect x="660" y="400" width="30" height="30" fill="rgb(255 255 255 / 50%)" />
  <rect x="835" y="400" width="30" height="30" fill="hsl(240 100% 98.94860330980366%)" />
  <rect x="65" y="435" width="30" height="30" fill="hsl(240 100% 93.28045024009288%)" />
  <rect x="240" y="435" width="30" height="30" fill="hsl(240 100% 50%)" />
  <rect x="310" y="435" width="30" height="30" fill="hsl(240 100% 93.85511618748133%)" />
  <rect x="415" y="435" width="30" height="30" fill="hsl(240 100% 87.00752881760154%)" />
  <rect x="450" y="435" width="30" height="30" fill="hsl(240 100% 99.78362648130731%)" />
  <rect x="65" y="470" width="30" height="30" fill="hsl(240 100% 50%)" />
  <rect x="240" y="470" width="30" height="30" fill="hsl(240 100% 50.101263720521004%)" />
  <rect x="310" y="470" width="30" height="30" fill="hsl(240 100% 96.97149428267879%)" />
  <rect x="415" y="470" width="30" height="30" fill="hsl(240 100% 89.11115267053825%)" />
  <rect x="450" y="470" width="30" height="30" fill="hsl(240 100% 99.561858501699%)" />
</svg>
