<svg xmlns="http://www.w3.org/2000/svg" viewBox="0 0 870 505">
  <rect x="0" y="0" width="870" height="505" rx="5" ry="5" fill="#222" />
  <text x="60" y="100" fill="white" font-family="sans-serif" font-weight="bold" font-size="12" text-anchor="end" dominant-baseline="middle">ba</text>
  <text x="60" y="135" fill="white" font-family="sans-serif" font-weight="bold" font-size="12" text-anchor="end" dominant-baseline="middle">det</text>
  <text x="60" y="170" fill="white" font-family="sans-serif" font-weight="bold" font-size="12" text-anchor="end" dominant-baseline="middle">gmm</text>
  <text x="60" y="205" fill="white" font-family="sans-serif" font-weight="bold" font-size="12" text-anchor="end" dominant-baseline="middle">hello</text>
  <text x="60" y="240" fill="white" font-family="sans-serif" font-weight="bold" font-size="12" text-anchor="end" dominant-baseline="middle">ht</text>
  <text x="60" y="275" fill="white" font-family="sans-serif" font-weight="bold" font-size="12" text-anchor="end" dominant-baseline="middle">kmeans</text>
  <text x="60" y="310" fill="white" font-family="sans-serif" font-weight="bold" font-size="12" text-anchor="end" dominant-baseline="middle">llsq</text>
  <text x="60" y="345" fill="white" font-family="sans-serif" font-weight="bold" font-size="12" text-anchor="end" dominant-baseline="middle">lse</text>
  <text x="60" y="380" fill="white" font-family="sans-serif" font-weight="bold" font-size="12" text-anchor="end" dominant-baseline="middle">lstm</text>
  <text x="60" y="415" fill="white" font-family="sans-serif" font-weight="bold" font-size="12" text-anchor="end" dominant-baseline="middle">ode</text>
  <text x="60" y="450" fill="white" font-family="sans-serif" font-weight="bold" font-size="12" text-anchor="end" dominant-baseline="middle">particle</text>
  <text x="60" y="485" fill="white" font-family="sans-serif" font-weight="bold" font-size="12" text-anchor="end" dominant-baseline="middle">saddle</text>
  <text x="80" y="80" fill="white" font-family="sans-serif" font-weight="bold" font-size="12" text-anchor="end" dominant-baseline="middle" transform="rotate(90 80 80)">ad-hpp</text>
  <text x="115" y="80" fill="white" font-family="sans-serif" font-weight="bold" font-size="12" text-anchor="end" dominant-baseline="middle" transform="rotate(90 115 80)">adept</text>
  <text x="150" y="80" fill="white" font-family="sans-serif" font-weight="bold" font-size="12" text-anchor="end" dominant-baseline="middle" transform="rotate(90 150 80)">adol-c</text>
  <text x="185" y="80" fill="white" font-family="sans-serif" font-weight="bold" font-size="12" text-anchor="end" dominant-baseline="middle" transform="rotate(90 185 80)">codipack</text>
  <text x="220" y="80" fill="white" font-family="sans-serif" font-weight="bold" font-size="12" text-anchor="end" dominant-baseline="middle" transform="rotate(90 220 80)">cppad</text>
  <text x="255" y="80" fill="white" font-family="sans-serif" font-weight="bold" font-size="12" text-anchor="end" dominant-baseline="middle" transform="rotate(90 255 80)">enzyme</text>
  <text x="290" y="80" fill="white" font-family="sans-serif" font-weight="bold" font-size="12" text-anchor="end" dominant-baseline="middle" transform="rotate(90 290 80)">enzyme-jl</text>
  <text x="325" y="80" fill="white" font-family="sans-serif" font-weight="bold" font-size="12" text-anchor="end" dominant-baseline="middle" transform="rotate(90 325 80)">finite</text>
  <text x="360" y="80" fill="white" font-family="sans-serif" font-weight="bold" font-size="12" text-anchor="end" dominant-baseline="middle" transform="rotate(90 360 80)">floretta</text>
  <text x="395" y="80" fill="white" font-family="sans-serif" font-weight="bold" font-size="12" text-anchor="end" dominant-baseline="middle" transform="rotate(90 395 80)">forwarddiff-jl</text>
  <text x="430" y="80" fill="white" font-family="sans-serif" font-weight="bold" font-size="12" text-anchor="end" dominant-baseline="middle" transform="rotate(90 430 80)">futhark</text>
  <text x="465" y="80" fill="white" font-family="sans-serif" font-weight="bold" font-size="12" text-anchor="end" dominant-baseline="middle" transform="rotate(90 465 80)">haskell</text>
  <text x="500" y="80" fill="white" font-family="sans-serif" font-weight="bold" font-size="12" text-anchor="end" dominant-baseline="middle" transform="rotate(90 500 80)">jax</text>
  <text x="535" y="80" fill="white" font-family="sans-serif" font-weight="bold" font-size="12" text-anchor="end" dominant-baseline="middle" transform="rotate(90 535 80)">manual</text>
  <text x="570" y="80" fill="white" font-family="sans-serif" font-weight="bold" font-size="12" text-anchor="end" dominant-baseline="middle" transform="rotate(90 570 80)">mooncake-jl</text>
  <text x="605" y="80" fill="white" font-family="sans-serif" font-weight="bold" font-size="12" text-anchor="end" dominant-baseline="middle" transform="rotate(90 605 80)">ocaml</text>
  <text x="640" y="80" fill="white" font-family="sans-serif" font-weight="bold" font-size="12" text-anchor="end" dominant-baseline="middle" transform="rotate(90 640 80)">pytorch</text>
  <text x="675" y="80" fill="white" font-family="sans-serif" font-weight="bold" font-size="12" text-anchor="end" dominant-baseline="middle" transform="rotate(90 675 80)">reversediff-jl</text>
  <text x="710" y="80" fill="white" font-family="sans-serif" font-weight="bold" font-size="12" text-anchor="end" dominant-baseline="middle" transform="rotate(90 710 80)">scilean</text>
  <text x="745" y="80" fill="white" font-family="sans-serif" font-weight="bold" font-size="12" text-anchor="end" dominant-baseline="middle" transform="rotate(90 745 80)">tapenade</text>
  <text x="780" y="80" fill="white" font-family="sans-serif" font-weight="bold" font-size="12" text-anchor="end" dominant-baseline="middle" transform="rotate(90 780 80)">tensorflow</text>
  <text x="815" y="80" fill="white" font-family="sans-serif" font-weight="bold" font-size="12" text-anchor="end" dominant-baseline="middle" transform="rotate(90 815 80)">tensorflow-js</text>
  <text x="850" y="80" fill="white" font-family="sans-serif" font-weight="bold" font-size="12" text-anchor="end" dominant-baseline="middle" transform="rotate(90 850 80)">zygote</text>
  <rect x="65" y="85" width="30" height="30" fill="hsl(240 100% 80.90670815274478%)" />
  <rect x="100" y="85" width="30" height="30" fill="hsl(240 100% 82.79120985443413%)" />
  <rect x="135" y="85" width="30" height="30" fill="hsl(240 100% 97.97131543014622%)" />
  <rect x="170" y="85" width="30" height="30" fill="hsl(240 100% 82.21419017350914%)" />
  <rect x="205" y="85" width="30" height="30" fill="hsl(240 100% 99.00395076264358%)" />
  <rect x="240" y="85" width="30" height="30" fill="hsl(240 100% 51.5554045147373%)" />
  <rect x="310" y="85" width="30" height="30" fill="hsl(240 100% 93.25986664310497%)" />
  <rect x="415" y="85" width="30" height="30" fill="hsl(240 100% 68.07258179294658%)" />
  <rect x="520" y="85" width="30" height="30" fill="hsl(240 100% 50%)" />
  <rect x="625" y="85" width="30" height="30" fill="rgb(255 255 255 / 50%)" />
  <rect x="730" y="85" width="30" height="30" fill="hsl(240 100% 74.9486647697534%)" />
  <rect x="765" y="85" width="30" height="30" fill="rgb(255 255 255 / 50%)" />
  <rect x="835" y="85" width="30" height="30" fill="hsl(240 100% 99.7341948163581%)" />
  <rect x="65" y="120" width="30" height="30" fill="hsl(240 100% 50%)" />
  <rect x="100" y="120" width="30" height="30" fill="hsl(240 100% 82.52089761483904%)" />
  <rect x="135" y="120" width="30" height="30" fill="hsl(240 100% 85.91333593392939%)" />
  <rect x="170" y="120" width="30" height="30" fill="hsl(240 100% 52.10925693076944%)" />
  <rect x="205" y="120" width="30" height="30" fill="hsl(240 100% 92.79030390524203%)" />
  <rect x="240" y="120" width="30" height="30" fill="hsl(240 100% 91.45414550089163%)" />
  <rect x="275" y="120" width="30" height="30" fill="hsl(240 100% 99.35261158826661%)" />
  <rect x="310" y="120" width="30" height="30" fill="hsl(240 100% 98.98337862697507%)" />
  <rect x="380" y="120" width="30" height="30" fill="hsl(240 100% 93.32862375970183%)" />
  <rect x="415" y="120" width="30" height="30" fill="hsl(240 100% 94.58367409682776%)" />
  <rect x="450" y="120" width="30" height="30" fill="hsl(240 100% 97.83545373956935%)" />
  <rect x="520" y="120" width="30" height="30" fill="hsl(240 100% 79.61197665555162%)" />
  <rect x="555" y="120" width="30" height="30" fill="hsl(240 100% 90.01136217577097%)" />
  <rect x="660" y="120" width="30" height="30" fill="rgb(255 255 255 / 50%)" />
  <rect x="835" y="120" width="30" height="30" fill="rgb(255 255 255 / 50%)" />
  <rect x="65" y="155" width="30" height="30" fill="hsl(240 100% 98.450519174239%)" />
  <rect x="100" y="155" width="30" height="30" fill="hsl(240 100% 98.76448033596486%)" />
  <rect x="135" y="155" width="30" height="30" fill="hsl(240 100% 99.11951209152346%)" />
  <rect x="170" y="155" width="30" height="30" fill="hsl(240 100% 98.04674295223164%)" />
  <rect x="205" y="155" width="30" height="30" fill="hsl(240 100% 99.84941790209703%)" />
  <rect x="240" y="155" width="30" height="30" fill="hsl(240 100% 91.13229433503753%)" />
  <rect x="275" y="155" width="30" height="30" fill="hsl(240 100% 92.16231288388838%)" />
  <rect x="310" y="155" width="30" height="30" fill="rgb(255 255 255 / 50%)" />
  <rect x="415" y="155" width="30" height="30" fill="hsl(240 100% 92.98631859160541%)" />
  <rect x="485" y="155" width="30" height="30" fill="hsl(240 100% 50%)" />
  <rect x="520" y="155" width="30" height="30" fill="hsl(240 100% 83.62874606800335%)" />
  <rect x="590" y="155" width="30" height="30" fill="hsl(240 100% 99.59641446062582%)" />
  <rect x="625" y="155" width="30" height="30" fill="hsl(240 100% 66.18627942470114%)" />
  <rect x="695" y="155" width="30" height="30" fill="hsl(240 100% 95.37267659447335%)" />
  <rect x="730" y="155" width="30" height="30" fill="hsl(240 100% 83.63560050864365%)" />
  <rect x="765" y="155" width="30" height="30" fill="hsl(240 100% 99.57493294304211%)" />
  <rect x="835" y="155" width="30" height="30" fill="hsl(240 100% 96.14165911304028%)" />
  <rect x="65" y="190" width="30" height="30" fill="hsl(240 100% 50%)" />
  <rect x="100" y="190" width="30" height="30" fill="hsl(240 100% 50%)" />
  <rect x="135" y="190" width="30" height="30" fill="hsl(240 100% 50%)" />
  <rect x="170" y="190" width="30" height="30" fill="hsl(240 100% 50%)" />
  <rect x="205" y="190" width="30" height="30" fill="hsl(240 100% 50%)" />
  <rect x="240" y="190" width="30" height="30" fill="hsl(240 100% 50%)" />
  <rect x="275" y="190" width="30" height="30" fill="hsl(240 100% 50%)" />
  <rect x="310" y="190" width="30" height="30" fill="hsl(240 100% 50%)" />
  <rect x="345" y="190" width="30" height="30" fill="hsl(240 100% 50%)" />
  <rect x="380" y="190" width="30" height="30" fill="hsl(240 100% 50%)" />
  <rect x="415" y="190" width="30" height="30" fill="hsl(240 100% 50%)" />
  <rect x="450" y="190" width="30" height="30" fill="hsl(240 100% 50%)" />
  <rect x="485" y="190" width="30" height="30" fill="hsl(240 100% 50%)" />
  <rect x="520" y="190" width="30" height="30" fill="hsl(240 100% 50%)" />
  <rect x="555" y="190" width="30" height="30" fill="hsl(240 100% 50%)" />
  <rect x="590" y="190" width="30" height="30" fill="hsl(240 100% 50%)" />
  <rect x="625" y="190" width="30" height="30" fill="hsl(240 100% 50%)" />
  <rect x="660" y="190" width="30" height="30" fill="hsl(240 100% 50%)" />
  <rect x="695" y="190" width="30" height="30" fill="hsl(240 100% 50%)" />
  <rect x="730" y="190" width="30" height="30" fill="hsl(240 100% 50%)" />
  <rect x="765" y="190" width="30" height="30" fill="hsl(240 100% 50%)" />
  <rect x="800" y="190" width="30" height="30" fill="hsl(240 100% 50%)" />
  <rect x="835" y="190" width="30" height="30" fill="hsl(240 100% 50%)" />
  <rect x="100" y="225" width="30" height="30" fill="hsl(240 100% 96.69168705923043%)" />
  <rect x="135" y="225" width="30" height="30" fill="hsl(240 100% 89.26206047825112%)" />
  <rect x="170" y="225" width="30" height="30" fill="hsl(240 100% 89.26329954199211%)" />
  <rect x="240" y="225" width="30" height="30" fill="hsl(240 100% 91.3354720631485%)" />
  <rect x="310" y="225" width="30" height="30" fill="rgb(255 255 255 / 50%)" />
  <rect x="415" y="225" width="30" height="30" fill="hsl(240 100% 90.60957401682295%)" />
  <rect x="520" y="225" width="30" height="30" fill="hsl(240 100% 50%)" />
  <rect x="625" y="225" width="30" height="30" fill="rgb(255 255 255 / 50%)" />
  <rect x="730" y="225" width="30" height="30" fill="hsl(240 100% 93.21148579589088%)" />
  <rect x="765" y="225" width="30" height="30" fill="rgb(255 255 255 / 50%)" />
  <rect x="835" y="225" width="30" height="30" fill="hsl(240 100% 94.03743631489874%)" />
  <rect x="65" y="260" width="30" height="30" fill="hsl(240 100% 99.87644961047252%)" />
  <rect x="135" y="260" width="30" height="30" fill="hsl(240 100% 99.84922590743739%)" />
  <rect x="170" y="260" width="30" height="30" fill="hsl(240 100% 98.84731277431128%)" />
  <rect x="205" y="260" width="30" height="30" fill="rgb(255 255 255 / 50%)" />
  <rect x="240" y="260" width="30" height="30" fill="hsl(240 100% 87.09996043216267%)" />
  <rect x="310" y="260" width="30" height="30" fill="rgb(255 255 255 / 50%)" />
  <rect x="415" y="260" width="30" height="30" fill="hsl(240 100% 81.13490486088429%)" />
  <rect x="450" y="260" width="30" height="30" fill="rgb(255 255 255 / 50%)" />
  <rect x="485" y="260" width="30" height="30" fill="hsl(240 100% 50%)" />
  <rect x="520" y="260" width="30" height="30" fill="hsl(240 100% 71.43180595379062%)" />
  <rect x="625" y="260" width="30" height="30" fill="hsl(240 100% 97.00573893078585%)" />
  <rect x="695" y="260" width="30" height="30" fill="hsl(240 100% 94.16612389054976%)" />
  <rect x="65" y="295" width="30" height="30" fill="hsl(240 100% 86.0563668933626%)" />
  <rect x="100" y="295" width="30" height="30" fill="hsl(240 100% 97.45454289855566%)" />
  <rect x="135" y="295" width="30" height="30" fill="hsl(240 100% 95.20485488341522%)" />
  <rect x="170" y="295" width="30" height="30" fill="hsl(240 100% 90.70374369631129%)" />
  <rect x="205" y="295" width="30" height="30" fill="hsl(240 100% 99.40370628440422%)" />
  <rect x="240" y="295" width="30" height="30" fill="hsl(240 100% 50.783690229597866%)" />
  <rect x="275" y="295" width="30" height="30" fill="hsl(240 100% 50%)" />
  <rect x="310" y="295" width="30" height="30" fill="hsl(240 100% 99.5011900869071%)" />
  <rect x="345" y="295" width="30" height="30" fill="hsl(240 100% 94.73970713923292%)" />
  <rect x="415" y="295" width="30" height="30" fill="hsl(240 100% 55.41159531928294%)" />
  <rect x="450" y="295" width="30" height="30" fill="hsl(240 100% 99.33973848241074%)" />
  <rect x="485" y="295" width="30" height="30" fill="hsl(240 100% 88.41899840234653%)" />
  <rect x="520" y="295" width="30" height="30" fill="hsl(240 100% 58.01029227522969%)" />
  <rect x="695" y="295" width="30" height="30" fill="hsl(240 100% 97.61868397983922%)" />
  <rect x="800" y="295" width="30" height="30" fill="hsl(240 100% 99.57298551018211%)" />
  <rect x="835" y="295" width="30" height="30" fill="hsl(240 100% 99.95478767308583%)" />
  <rect x="65" y="330" width="30" height="30" fill="hsl(240 100% 89.19190112688132%)" />
  <rect x="100" y="330" width="30" height="30" fill="hsl(240 100% 94.83030714741543%)" />
  <rect x="135" y="330" width="30" height="30" fill="hsl(240 100% 97.32222578358106%)" />
  <rect x="170" y="330" width="30" height="30" fill="hsl(240 100% 89.06929951767266%)" />
  <rect x="205" y="330" width="30" height="30" fill="hsl(240 100% 99.24188582116736%)" />
  <rect x="240" y="330" width="30" height="30" fill="hsl(240 100% 80.71928199582722%)" />
  <rect x="275" y="330" width="30" height="30" fill="hsl(240 100% 88.7496009242532%)" />
  <rect x="310" y="330" width="30" height="30" fill="rgb(255 255 255 / 50%)" />
  <rect x="345" y="330" width="30" height="30" fill="hsl(240 100% 97.38362659524746%)" />
  <rect x="415" y="330" width="30" height="30" fill="hsl(240 100% 86.59948837584489%)" />
  <rect x="450" y="330" width="30" height="30" fill="hsl(240 100% 99.82062426963739%)" />
  <rect x="485" y="330" width="30" height="30" fill="hsl(240 100% 73.73459269165377%)" />
  <rect x="520" y="330" width="30" height="30" fill="hsl(240 100% 78.04003231802122%)" />
  <rect x="590" y="330" width="30" height="30" fill="hsl(240 100% 94.13911339193025%)" />
  <rect x="625" y="330" width="30" height="30" fill="hsl(240 100% 50%)" />
  <rect x="765" y="330" width="30" height="30" fill="hsl(240 100% 94.21644159680986%)" />
  <rect x="800" y="330" width="30" height="30" fill="hsl(240 100% 99.25483260286825%)" />
  <rect x="835" y="330" width="30" height="30" fill="hsl(240 100% 81.93656169334466%)" />
  <rect x="65" y="365" width="30" height="30" fill="hsl(240 100% 57.16824974845752%)" />
  <rect x="100" y="365" width="30" height="30" fill="hsl(240 100% 71.73722033155391%)" />
  <rect x="135" y="365" width="30" height="30" fill="hsl(240 100% 82.65727021312158%)" />
  <rect x="170" y="365" width="30" height="30" fill="hsl(240 100% 50%)" />
  <rect x="205" y="365" width="30" height="30" fill="hsl(240 100% 96.01040326264547%)" />
  <rect x="240" y="365" width="30" height="30" fill="hsl(240 100% 59.76335855980094%)" />
  <rect x="275" y="365" width="30" height="30" fill="hsl(240 100% 92.47173146579847%)" />
  <rect x="310" y="365" width="30" height="30" fill="hsl(240 100% 99.86158445369618%)" />
  <rect x="415" y="365" width="30" height="30" fill="hsl(240 100% 66.34661555139105%)" />
  <rect x="520" y="365" width="30" height="30" fill="hsl(240 100% 85.84767225027913%)" />
  <rect x="625" y="365" width="30" height="30" fill="hsl(240 100% 99.62720266541046%)" />
  <rect x="730" y="365" width="30" height="30" fill="hsl(240 100% 62.950393504683625%)" />
  <rect x="765" y="365" width="30" height="30" fill="hsl(240 100% 98.21702662154237%)" />
  <rect x="835" y="365" width="30" height="30" fill="hsl(240 100% 98.72846986836008%)" />
  <rect x="65" y="400" width="30" height="30" fill="hsl(240 100% 98.18495343721688%)" />
  <rect x="100" y="400" width="30" height="30" fill="hsl(240 100% 99.40799040965146%)" />
  <rect x="135" y="400" width="30" height="30" fill="hsl(240 100% 99.6785757430906%)" />
  <rect x="170" y="400" width="30" height="30" fill="hsl(240 100% 95.45387857210699%)" />
  <rect x="205" y="400" width="30" height="30" fill="hsl(240 100% 99.24273472026364%)" />
  <rect x="240" y="400" width="30" height="30" fill="hsl(240 100% 85.95358336194843%)" />
  <rect x="275" y="400" width="30" height="30" fill="hsl(240 100% 95.33655589433955%)" />
  <rect x="310" y="400" width="30" height="30" fill="rgb(255 255 255 / 50%)" />
  <rect x="380" y="400" width="30" height="30" fill="rgb(255 255 255 / 50%)" />
  <rect x="415" y="400" width="30" height="30" fill="hsl(240 100% 94.01087197999455%)" />
  <rect x="450" y="400" width="30" height="30" fill="hsl(240 100% 99.9744373612294%)" />
  <rect x="485" y="400" width="30" height="30" fill="hsl(240 100% 79.03693578676193%)" />
  <rect x="520" y="400" width="30" height="30" fill="hsl(240 100% 50%)" />
  <rect x="555" y="400" width="30" height="30" fill="hsl(240 100% 99.13172409951831%)" />
  <rect x="660" y="400" width="30" height="30" fill="rgb(255 255 255 / 50%)" />
  <rect x="835" y="400" width="30" height="30" fill="hsl(240 100% 99.25539680718278%)" />
  <rect x="65" y="435" width="30" height="30" fill="hsl(240 100% 92.87082002940201%)" />
  <rect x="240" y="435" width="30" height="30" fill="hsl(240 100% 50%)" />
  <rect x="310" y="435" width="30" height="30" fill="hsl(240 100% 94.19784381579265%)" />
  <rect x="415" y="435" width="30" height="30" fill="hsl(240 100% 87.01189259751791%)" />
  <rect x="450" y="435" width="30" height="30" fill="hsl(240 100% 99.78034553242831%)" />
  <rect x="65" y="470" width="30" height="30" fill="hsl(240 100% 50%)" />
  <rect x="240" y="470" width="30" height="30" fill="hsl(240 100% 50.03046582047904%)" />
  <rect x="310" y="470" width="30" height="30" fill="hsl(240 100% 97.16340153030403%)" />
  <rect x="415" y="470" width="30" height="30" fill="hsl(240 100% 89.60892389322939%)" />
  <rect x="450" y="470" width="30" height="30" fill="hsl(240 100% 99.58249218610527%)" />
</svg>
