<svg xmlns="http://www.w3.org/2000/svg" viewBox="0 0 730 505">
  <rect x="0" y="0" width="730" height="505" rx="5" ry="5" fill="#222" />
  <text x="60" y="100" fill="white" font-family="sans-serif" font-weight="bold" font-size="12" text-anchor="end" dominant-baseline="middle">ba</text>
  <text x="60" y="135" fill="white" font-family="sans-serif" font-weight="bold" font-size="12" text-anchor="end" dominant-baseline="middle">det</text>
  <text x="60" y="170" fill="white" font-family="sans-serif" font-weight="bold" font-size="12" text-anchor="end" dominant-baseline="middle">gmm</text>
  <text x="60" y="205" fill="white" font-family="sans-serif" font-weight="bold" font-size="12" text-anchor="end" dominant-baseline="middle">hello</text>
  <text x="60" y="240" fill="white" font-family="sans-serif" font-weight="bold" font-size="12" text-anchor="end" dominant-baseline="middle">ht</text>
  <text x="60" y="275" fill="white" font-family="sans-serif" font-weight="bold" font-size="12" text-anchor="end" dominant-baseline="middle">kmeans</text>
  <text x="60" y="310" fill="white" font-family="sans-serif" font-weight="bold" font-size="12" text-anchor="end" dominant-baseline="middle">llsq</text>
  <text x="60" y="345" fill="white" font-family="sans-serif" font-weight="bold" font-size="12" text-anchor="end" dominant-baseline="middle">lse</text>
  <text x="60" y="380" fill="white" font-family="sans-serif" font-weight="bold" font-size="12" text-anchor="end" dominant-baseline="middle">lstm</text>
  <text x="60" y="415" fill="white" font-family="sans-serif" font-weight="bold" font-size="12" text-anchor="end" dominant-baseline="middle">ode</text>
  <text x="60" y="450" fill="white" font-family="sans-serif" font-weight="bold" font-size="12" text-anchor="end" dominant-baseline="middle">particle</text>
  <text x="60" y="485" fill="white" font-family="sans-serif" font-weight="bold" font-size="12" text-anchor="end" dominant-baseline="middle">saddle</text>
  <text x="80" y="80" fill="white" font-family="sans-serif" font-weight="bold" font-size="12" text-anchor="end" dominant-baseline="middle" transform="rotate(90 80 80)">ad-hpp</text>
  <text x="115" y="80" fill="white" font-family="sans-serif" font-weight="bold" font-size="12" text-anchor="end" dominant-baseline="middle" transform="rotate(90 115 80)">adept</text>
  <text x="150" y="80" fill="white" font-family="sans-serif" font-weight="bold" font-size="12" text-anchor="end" dominant-baseline="middle" transform="rotate(90 150 80)">adol-c</text>
  <text x="185" y="80" fill="white" font-family="sans-serif" font-weight="bold" font-size="12" text-anchor="end" dominant-baseline="middle" transform="rotate(90 185 80)">codipack</text>
  <text x="220" y="80" fill="white" font-family="sans-serif" font-weight="bold" font-size="12" text-anchor="end" dominant-baseline="middle" transform="rotate(90 220 80)">cppad</text>
  <text x="255" y="80" fill="white" font-family="sans-serif" font-weight="bold" font-size="12" text-anchor="end" dominant-baseline="middle" transform="rotate(90 255 80)">enzyme</text>
  <text x="290" y="80" fill="white" font-family="sans-serif" font-weight="bold" font-size="12" text-anchor="end" dominant-baseline="middle" transform="rotate(90 290 80)">enzyme-jl</text>
  <text x="325" y="80" fill="white" font-family="sans-serif" font-weight="bold" font-size="12" text-anchor="end" dominant-baseline="middle" transform="rotate(90 325 80)">finite</text>
  <text x="360" y="80" fill="white" font-family="sans-serif" font-weight="bold" font-size="12" text-anchor="end" dominant-baseline="middle" transform="rotate(90 360 80)">floretta</text>
  <text x="395" y="80" fill="white" font-family="sans-serif" font-weight="bold" font-size="12" text-anchor="end" dominant-baseline="middle" transform="rotate(90 395 80)">futhark</text>
  <text x="430" y="80" fill="white" font-family="sans-serif" font-weight="bold" font-size="12" text-anchor="end" dominant-baseline="middle" transform="rotate(90 430 80)">haskell</text>
  <text x="465" y="80" fill="white" font-family="sans-serif" font-weight="bold" font-size="12" text-anchor="end" dominant-baseline="middle" transform="rotate(90 465 80)">jax</text>
  <text x="500" y="80" fill="white" font-family="sans-serif" font-weight="bold" font-size="12" text-anchor="end" dominant-baseline="middle" transform="rotate(90 500 80)">manual</text>
  <text x="535" y="80" fill="white" font-family="sans-serif" font-weight="bold" font-size="12" text-anchor="end" dominant-baseline="middle" transform="rotate(90 535 80)">ocaml</text>
  <text x="570" y="80" fill="white" font-family="sans-serif" font-weight="bold" font-size="12" text-anchor="end" dominant-baseline="middle" transform="rotate(90 570 80)">pytorch</text>
  <text x="605" y="80" fill="white" font-family="sans-serif" font-weight="bold" font-size="12" text-anchor="end" dominant-baseline="middle" transform="rotate(90 605 80)">scilean</text>
  <text x="640" y="80" fill="white" font-family="sans-serif" font-weight="bold" font-size="12" text-anchor="end" dominant-baseline="middle" transform="rotate(90 640 80)">tapenade</text>
  <text x="675" y="80" fill="white" font-family="sans-serif" font-weight="bold" font-size="12" text-anchor="end" dominant-baseline="middle" transform="rotate(90 675 80)">tensorflow</text>
  <text x="710" y="80" fill="white" font-family="sans-serif" font-weight="bold" font-size="12" text-anchor="end" dominant-baseline="middle" transform="rotate(90 710 80)">zygote</text>
  <rect x="65" y="85" width="30" height="30" fill="hsl(240 100% 78.50895253045606%)" />
  <rect x="100" y="85" width="30" height="30" fill="hsl(240 100% 83.25204687338899%)" />
  <rect x="135" y="85" width="30" height="30" fill="hsl(240 100% 97.82708315534624%)" />
  <rect x="170" y="85" width="30" height="30" fill="hsl(240 100% 89.1045619550345%)" />
  <rect x="205" y="85" width="30" height="30" fill="hsl(240 100% 98.90381489947511%)" />
  <rect x="240" y="85" width="30" height="30" fill="hsl(240 100% 51.15547013500464%)" />
  <rect x="310" y="85" width="30" height="30" fill="hsl(240 100% 92.65625300640907%)" />
  <rect x="380" y="85" width="30" height="30" fill="hsl(240 100% 68.66392806414181%)" />
  <rect x="485" y="85" width="30" height="30" fill="hsl(240 100% 50%)" />
  <rect x="555" y="85" width="30" height="30" fill="rgb(255 255 255 / 50%)" />
  <rect x="625" y="85" width="30" height="30" fill="hsl(240 100% 72.66635770456159%)" />
  <rect x="660" y="85" width="30" height="30" fill="rgb(255 255 255 / 50%)" />
  <rect x="695" y="85" width="30" height="30" fill="hsl(240 100% 99.69623448659341%)" />
  <rect x="65" y="120" width="30" height="30" fill="hsl(240 100% 50%)" />
  <rect x="100" y="120" width="30" height="30" fill="hsl(240 100% 83.92068829090408%)" />
  <rect x="135" y="120" width="30" height="30" fill="hsl(240 100% 85.23077036308136%)" />
  <rect x="170" y="120" width="30" height="30" fill="hsl(240 100% 51.55469765779107%)" />
  <rect x="205" y="120" width="30" height="30" fill="hsl(240 100% 92.75756318823699%)" />
  <rect x="240" y="120" width="30" height="30" fill="hsl(240 100% 91.73610990360129%)" />
  <rect x="275" y="120" width="30" height="30" fill="hsl(240 100% 99.14623089039138%)" />
  <rect x="310" y="120" width="30" height="30" fill="hsl(240 100% 98.98381713765426%)" />
  <rect x="380" y="120" width="30" height="30" fill="hsl(240 100% 94.75384128811193%)" />
  <rect x="415" y="120" width="30" height="30" fill="hsl(240 100% 97.95550747072342%)" />
  <rect x="485" y="120" width="30" height="30" fill="hsl(240 100% 79.71481859200867%)" />
  <rect x="695" y="120" width="30" height="30" fill="rgb(255 255 255 / 50%)" />
  <rect x="65" y="155" width="30" height="30" fill="hsl(240 100% 97.34172605100633%)" />
  <rect x="100" y="155" width="30" height="30" fill="hsl(240 100% 98.25918776893037%)" />
  <rect x="135" y="155" width="30" height="30" fill="hsl(240 100% 98.78319360643691%)" />
  <rect x="170" y="155" width="30" height="30" fill="hsl(240 100% 97.20159502641354%)" />
  <rect x="205" y="155" width="30" height="30" fill="hsl(240 100% 99.76714741438111%)" />
  <rect x="240" y="155" width="30" height="30" fill="hsl(240 100% 86.63433942863101%)" />
  <rect x="275" y="155" width="30" height="30" fill="hsl(240 100% 99.82170674071739%)" />
  <rect x="310" y="155" width="30" height="30" fill="rgb(255 255 255 / 50%)" />
  <rect x="380" y="155" width="30" height="30" fill="hsl(240 100% 89.87565050570726%)" />
  <rect x="450" y="155" width="30" height="30" fill="hsl(240 100% 69.78103169175436%)" />
  <rect x="485" y="155" width="30" height="30" fill="hsl(240 100% 75.20227618977734%)" />
  <rect x="520" y="155" width="30" height="30" fill="hsl(240 100% 99.34802134945888%)" />
  <rect x="555" y="155" width="30" height="30" fill="hsl(240 100% 50%)" />
  <rect x="590" y="155" width="30" height="30" fill="hsl(240 100% 92.60978300296746%)" />
  <rect x="625" y="155" width="30" height="30" fill="hsl(240 100% 76.23051926739954%)" />
  <rect x="660" y="155" width="30" height="30" fill="hsl(240 100% 89.18367988946162%)" />
  <rect x="695" y="155" width="30" height="30" fill="hsl(240 100% 99.34319350157041%)" />
  <rect x="65" y="190" width="30" height="30" fill="hsl(240 100% 50%)" />
  <rect x="100" y="190" width="30" height="30" fill="hsl(240 100% 50%)" />
  <rect x="135" y="190" width="30" height="30" fill="hsl(240 100% 50%)" />
  <rect x="170" y="190" width="30" height="30" fill="hsl(240 100% 50%)" />
  <rect x="205" y="190" width="30" height="30" fill="hsl(240 100% 50%)" />
  <rect x="240" y="190" width="30" height="30" fill="hsl(240 100% 50%)" />
  <rect x="275" y="190" width="30" height="30" fill="hsl(240 100% 50%)" />
  <rect x="310" y="190" width="30" height="30" fill="hsl(240 100% 50%)" />
  <rect x="345" y="190" width="30" height="30" fill="hsl(240 100% 50%)" />
  <rect x="380" y="190" width="30" height="30" fill="hsl(240 100% 50%)" />
  <rect x="415" y="190" width="30" height="30" fill="hsl(240 100% 50%)" />
  <rect x="450" y="190" width="30" height="30" fill="hsl(240 100% 50%)" />
  <rect x="485" y="190" width="30" height="30" fill="hsl(240 100% 50%)" />
  <rect x="520" y="190" width="30" height="30" fill="hsl(240 100% 50%)" />
  <rect x="555" y="190" width="30" height="30" fill="hsl(240 100% 50%)" />
  <rect x="590" y="190" width="30" height="30" fill="hsl(240 100% 50%)" />
  <rect x="625" y="190" width="30" height="30" fill="hsl(240 100% 50%)" />
  <rect x="660" y="190" width="30" height="30" fill="hsl(240 100% 50%)" />
  <rect x="695" y="190" width="30" height="30" fill="hsl(240 100% 50%)" />
  <rect x="100" y="225" width="30" height="30" fill="hsl(240 100% 96.0721458858786%)" />
  <rect x="135" y="225" width="30" height="30" fill="hsl(240 100% 90.16740872084405%)" />
  <rect x="170" y="225" width="30" height="30" fill="hsl(240 100% 88.52224302333538%)" />
  <rect x="240" y="225" width="30" height="30" fill="hsl(240 100% 90.33294716514196%)" />
  <rect x="310" y="225" width="30" height="30" fill="rgb(255 255 255 / 50%)" />
  <rect x="380" y="225" width="30" height="30" fill="hsl(240 100% 89.7352263110097%)" />
  <rect x="485" y="225" width="30" height="30" fill="hsl(240 100% 50%)" />
  <rect x="555" y="225" width="30" height="30" fill="rgb(255 255 255 / 50%)" />
  <rect x="625" y="225" width="30" height="30" fill="rgb(255 255 255 / 50%)" />
  <rect x="660" y="225" width="30" height="30" fill="rgb(255 255 255 / 50%)" />
  <rect x="695" y="225" width="30" height="30" fill="hsl(240 100% 99.43691119436627%)" />
  <rect x="135" y="260" width="30" height="30" fill="hsl(240 100% 99.9062997502692%)" />
  <rect x="170" y="260" width="30" height="30" fill="hsl(240 100% 99.33586855501757%)" />
  <rect x="205" y="260" width="30" height="30" fill="rgb(255 255 255 / 50%)" />
  <rect x="240" y="260" width="30" height="30" fill="hsl(240 100% 87.85177512534995%)" />
  <rect x="310" y="260" width="30" height="30" fill="rgb(255 255 255 / 50%)" />
  <rect x="380" y="260" width="30" height="30" fill="hsl(240 100% 82.7070700819289%)" />
  <rect x="415" y="260" width="30" height="30" fill="rgb(255 255 255 / 50%)" />
  <rect x="450" y="260" width="30" height="30" fill="hsl(240 100% 50%)" />
  <rect x="485" y="260" width="30" height="30" fill="hsl(240 100% 76.18293240877864%)" />
  <rect x="555" y="260" width="30" height="30" fill="hsl(240 100% 96.89186014583241%)" />
  <rect x="590" y="260" width="30" height="30" fill="hsl(240 100% 94.05108879063319%)" />
  <rect x="65" y="295" width="30" height="30" fill="hsl(240 100% 58.68670290637751%)" />
  <rect x="100" y="295" width="30" height="30" fill="hsl(240 100% 66.96776070903545%)" />
  <rect x="135" y="295" width="30" height="30" fill="hsl(240 100% 59.32615376608321%)" />
  <rect x="170" y="295" width="30" height="30" fill="hsl(240 100% 57.074111908536416%)" />
  <rect x="205" y="295" width="30" height="30" fill="hsl(240 100% 91.36981634708111%)" />
  <rect x="240" y="295" width="30" height="30" fill="hsl(240 100% 50%)" />
  <rect x="275" y="295" width="30" height="30" fill="hsl(240 100% 98.85222326328983%)" />
  <rect x="310" y="295" width="30" height="30" fill="hsl(240 100% 99.42740955442197%)" />
  <rect x="380" y="295" width="30" height="30" fill="hsl(240 100% 50.56507210519102%)" />
  <rect x="415" y="295" width="30" height="30" fill="hsl(240 100% 89.89253281215211%)" />
  <rect x="485" y="295" width="30" height="30" fill="hsl(240 100% 53.532838532653074%)" />
  <rect x="590" y="295" width="30" height="30" fill="hsl(240 100% 55.363254222755266%)" />
  <rect x="695" y="295" width="30" height="30" fill="hsl(240 100% 99.72727652612583%)" />
  <rect x="65" y="330" width="30" height="30" fill="hsl(240 100% 89.76853677311362%)" />
  <rect x="100" y="330" width="30" height="30" fill="hsl(240 100% 94.96587158804118%)" />
  <rect x="135" y="330" width="30" height="30" fill="hsl(240 100% 97.36896125696843%)" />
  <rect x="170" y="330" width="30" height="30" fill="hsl(240 100% 89.90316012692135%)" />
  <rect x="205" y="330" width="30" height="30" fill="hsl(240 100% 99.251898381253%)" />
  <rect x="240" y="330" width="30" height="30" fill="hsl(240 100% 82.44759642090865%)" />
  <rect x="275" y="330" width="30" height="30" fill="hsl(240 100% 99.83538184290967%)" />
  <rect x="310" y="330" width="30" height="30" fill="rgb(255 255 255 / 50%)" />
  <rect x="380" y="330" width="30" height="30" fill="hsl(240 100% 86.69714679418811%)" />
  <rect x="415" y="330" width="30" height="30" fill="hsl(240 100% 99.82639754212587%)" />
  <rect x="450" y="330" width="30" height="30" fill="hsl(240 100% 72.21024864992299%)" />
  <rect x="485" y="330" width="30" height="30" fill="hsl(240 100% 80.04276458248833%)" />
  <rect x="520" y="330" width="30" height="30" fill="hsl(240 100% 94.20075464364028%)" />
  <rect x="555" y="330" width="30" height="30" fill="hsl(240 100% 50%)" />
  <rect x="660" y="330" width="30" height="30" fill="hsl(240 100% 89.49301108158832%)" />
  <rect x="695" y="330" width="30" height="30" fill="hsl(240 100% 95.51938356277842%)" />
  <rect x="65" y="365" width="30" height="30" fill="hsl(240 100% 53.03730267530532%)" />
  <rect x="100" y="365" width="30" height="30" fill="hsl(240 100% 69.02154972987807%)" />
  <rect x="135" y="365" width="30" height="30" fill="hsl(240 100% 81.21271068976871%)" />
  <rect x="170" y="365" width="30" height="30" fill="hsl(240 100% 50%)" />
  <rect x="205" y="365" width="30" height="30" fill="hsl(240 100% 95.8568655621208%)" />
  <rect x="240" y="365" width="30" height="30" fill="hsl(240 100% 50.61398251383793%)" />
  <rect x="275" y="365" width="30" height="30" fill="hsl(240 100% 98.87565533731355%)" />
  <rect x="310" y="365" width="30" height="30" fill="hsl(240 100% 99.85149287955036%)" />
  <rect x="380" y="365" width="30" height="30" fill="hsl(240 100% 63.285822941461234%)" />
  <rect x="485" y="365" width="30" height="30" fill="hsl(240 100% 84.5407582439875%)" />
  <rect x="555" y="365" width="30" height="30" fill="hsl(240 100% 99.60143768113048%)" />
  <rect x="625" y="365" width="30" height="30" fill="hsl(240 100% 60.14039383866744%)" />
  <rect x="660" y="365" width="30" height="30" fill="hsl(240 100% 97.87290477868754%)" />
  <rect x="695" y="365" width="30" height="30" fill="hsl(240 100% 99.08827837459485%)" />
  <rect x="65" y="400" width="30" height="30" fill="hsl(240 100% 97.7962373385075%)" />
  <rect x="100" y="400" width="30" height="30" fill="hsl(240 100% 99.33033501584333%)" />
  <rect x="135" y="400" width="30" height="30" fill="hsl(240 100% 99.6274112060772%)" />
  <rect x="170" y="400" width="30" height="30" fill="hsl(240 100% 94.50643849233181%)" />
  <rect x="205" y="400" width="30" height="30" fill="hsl(240 100% 99.1217522478932%)" />
  <rect x="240" y="400" width="30" height="30" fill="hsl(240 100% 88.01315810252119%)" />
  <rect x="275" y="400" width="30" height="30" fill="hsl(240 100% 99.16708655895714%)" />
  <rect x="310" y="400" width="30" height="30" fill="rgb(255 255 255 / 50%)" />
  <rect x="380" y="400" width="30" height="30" fill="hsl(240 100% 95.96444633471683%)" />
  <rect x="415" y="400" width="30" height="30" fill="hsl(240 100% 99.96724388208807%)" />
  <rect x="485" y="400" width="30" height="30" fill="hsl(240 100% 50%)" />
  <rect x="695" y="400" width="30" height="30" fill="hsl(240 100% 99.68832577105889%)" />
  <rect x="240" y="435" width="30" height="30" fill="hsl(240 100% 50%)" />
  <rect x="310" y="435" width="30" height="30" fill="hsl(240 100% 95.33912939175619%)" />
  <rect x="380" y="435" width="30" height="30" fill="hsl(240 100% 88.26643760561447%)" />
  <rect x="415" y="435" width="30" height="30" fill="hsl(240 100% 99.78781877074594%)" />
  <rect x="240" y="470" width="30" height="30" fill="hsl(240 100% 50%)" />
  <rect x="310" y="470" width="30" height="30" fill="hsl(240 100% 95.8181389645984%)" />
  <rect x="380" y="470" width="30" height="30" fill="hsl(240 100% 89.13927842994819%)" />
  <rect x="415" y="470" width="30" height="30" fill="hsl(240 100% 99.56709993360529%)" />
</svg>
