<svg xmlns="http://www.w3.org/2000/svg" viewBox="0 0 695 470">
  <rect x="0" y="0" width="695" height="470" rx="5" ry="5" fill="#222" />
  <text x="60" y="100" fill="white" font-family="sans-serif" font-weight="bold" font-size="12" text-anchor="end" dominant-baseline="middle">ba</text>
  <text x="60" y="135" fill="white" font-family="sans-serif" font-weight="bold" font-size="12" text-anchor="end" dominant-baseline="middle">det</text>
  <text x="60" y="170" fill="white" font-family="sans-serif" font-weight="bold" font-size="12" text-anchor="end" dominant-baseline="middle">gmm</text>
  <text x="60" y="205" fill="white" font-family="sans-serif" font-weight="bold" font-size="12" text-anchor="end" dominant-baseline="middle">hello</text>
  <text x="60" y="240" fill="white" font-family="sans-serif" font-weight="bold" font-size="12" text-anchor="end" dominant-baseline="middle">ht</text>
  <text x="60" y="275" fill="white" font-family="sans-serif" font-weight="bold" font-size="12" text-anchor="end" dominant-baseline="middle">kmeans</text>
  <text x="60" y="310" fill="white" font-family="sans-serif" font-weight="bold" font-size="12" text-anchor="end" dominant-baseline="middle">llsq</text>
  <text x="60" y="345" fill="white" font-family="sans-serif" font-weight="bold" font-size="12" text-anchor="end" dominant-baseline="middle">lstm</text>
  <text x="60" y="380" fill="white" font-family="sans-serif" font-weight="bold" font-size="12" text-anchor="end" dominant-baseline="middle">ode</text>
  <text x="60" y="415" fill="white" font-family="sans-serif" font-weight="bold" font-size="12" text-anchor="end" dominant-baseline="middle">particle</text>
  <text x="60" y="450" fill="white" font-family="sans-serif" font-weight="bold" font-size="12" text-anchor="end" dominant-baseline="middle">saddle</text>
  <text x="80" y="80" fill="white" font-family="sans-serif" font-weight="bold" font-size="12" text-anchor="end" dominant-baseline="middle" transform="rotate(90 80 80)">adept</text>
  <text x="115" y="80" fill="white" font-family="sans-serif" font-weight="bold" font-size="12" text-anchor="end" dominant-baseline="middle" transform="rotate(90 115 80)">adol-c</text>
  <text x="150" y="80" fill="white" font-family="sans-serif" font-weight="bold" font-size="12" text-anchor="end" dominant-baseline="middle" transform="rotate(90 150 80)">codipack</text>
  <text x="185" y="80" fill="white" font-family="sans-serif" font-weight="bold" font-size="12" text-anchor="end" dominant-baseline="middle" transform="rotate(90 185 80)">cppad</text>
  <text x="220" y="80" fill="white" font-family="sans-serif" font-weight="bold" font-size="12" text-anchor="end" dominant-baseline="middle" transform="rotate(90 220 80)">enzyme</text>
  <text x="255" y="80" fill="white" font-family="sans-serif" font-weight="bold" font-size="12" text-anchor="end" dominant-baseline="middle" transform="rotate(90 255 80)">enzyme-jl</text>
  <text x="290" y="80" fill="white" font-family="sans-serif" font-weight="bold" font-size="12" text-anchor="end" dominant-baseline="middle" transform="rotate(90 290 80)">finite</text>
  <text x="325" y="80" fill="white" font-family="sans-serif" font-weight="bold" font-size="12" text-anchor="end" dominant-baseline="middle" transform="rotate(90 325 80)">floretta</text>
  <text x="360" y="80" fill="white" font-family="sans-serif" font-weight="bold" font-size="12" text-anchor="end" dominant-baseline="middle" transform="rotate(90 360 80)">futhark</text>
  <text x="395" y="80" fill="white" font-family="sans-serif" font-weight="bold" font-size="12" text-anchor="end" dominant-baseline="middle" transform="rotate(90 395 80)">haskell</text>
  <text x="430" y="80" fill="white" font-family="sans-serif" font-weight="bold" font-size="12" text-anchor="end" dominant-baseline="middle" transform="rotate(90 430 80)">jax</text>
  <text x="465" y="80" fill="white" font-family="sans-serif" font-weight="bold" font-size="12" text-anchor="end" dominant-baseline="middle" transform="rotate(90 465 80)">manual</text>
  <text x="500" y="80" fill="white" font-family="sans-serif" font-weight="bold" font-size="12" text-anchor="end" dominant-baseline="middle" transform="rotate(90 500 80)">ocaml</text>
  <text x="535" y="80" fill="white" font-family="sans-serif" font-weight="bold" font-size="12" text-anchor="end" dominant-baseline="middle" transform="rotate(90 535 80)">pytorch</text>
  <text x="570" y="80" fill="white" font-family="sans-serif" font-weight="bold" font-size="12" text-anchor="end" dominant-baseline="middle" transform="rotate(90 570 80)">scilean</text>
  <text x="605" y="80" fill="white" font-family="sans-serif" font-weight="bold" font-size="12" text-anchor="end" dominant-baseline="middle" transform="rotate(90 605 80)">tapenade</text>
  <text x="640" y="80" fill="white" font-family="sans-serif" font-weight="bold" font-size="12" text-anchor="end" dominant-baseline="middle" transform="rotate(90 640 80)">tensorflow</text>
  <text x="675" y="80" fill="white" font-family="sans-serif" font-weight="bold" font-size="12" text-anchor="end" dominant-baseline="middle" transform="rotate(90 675 80)">zygote</text>
  <rect x="65" y="85" width="30" height="30" fill="hsl(240 100% 83.71198980894268%)" />
  <rect x="100" y="85" width="30" height="30" fill="hsl(240 100% 97.82119938315074%)" />
  <rect x="135" y="85" width="30" height="30" fill="hsl(240 100% 89.10141128884435%)" />
  <rect x="205" y="85" width="30" height="30" fill="hsl(240 100% 51.65140593783849%)" />
  <rect x="275" y="85" width="30" height="30" fill="hsl(240 100% 92.68441985177232%)" />
  <rect x="345" y="85" width="30" height="30" fill="hsl(240 100% 68.65480483107541%)" />
  <rect x="450" y="85" width="30" height="30" fill="hsl(240 100% 50%)" />
  <rect x="520" y="85" width="30" height="30" fill="rgb(255 255 255 / 50%)" />
  <rect x="590" y="85" width="30" height="30" fill="hsl(240 100% 72.84709861621998%)" />
  <rect x="625" y="85" width="30" height="30" fill="rgb(255 255 255 / 50%)" />
  <rect x="65" y="120" width="30" height="30" fill="hsl(240 100% 83.53313992783272%)" />
  <rect x="100" y="120" width="30" height="30" fill="hsl(240 100% 85.18321291218177%)" />
  <rect x="135" y="120" width="30" height="30" fill="hsl(240 100% 50%)" />
  <rect x="170" y="120" width="30" height="30" fill="hsl(240 100% 92.72648706240352%)" />
  <rect x="205" y="120" width="30" height="30" fill="hsl(240 100% 91.81443850598306%)" />
  <rect x="275" y="120" width="30" height="30" fill="hsl(240 100% 98.99775863522517%)" />
  <rect x="345" y="120" width="30" height="30" fill="hsl(240 100% 94.70907979736072%)" />
  <rect x="380" y="120" width="30" height="30" fill="hsl(240 100% 97.85544515171874%)" />
  <rect x="450" y="120" width="30" height="30" fill="hsl(240 100% 79.42056469403545%)" />
  <rect x="65" y="155" width="30" height="30" fill="hsl(240 100% 98.40295714370492%)" />
  <rect x="100" y="155" width="30" height="30" fill="hsl(240 100% 98.93949117695881%)" />
  <rect x="135" y="155" width="30" height="30" fill="hsl(240 100% 97.39453381786399%)" />
  <rect x="170" y="155" width="30" height="30" fill="hsl(240 100% 99.78656416758253%)" />
  <rect x="205" y="155" width="30" height="30" fill="hsl(240 100% 87.71087611945575%)" />
  <rect x="275" y="155" width="30" height="30" fill="rgb(255 255 255 / 50%)" />
  <rect x="345" y="155" width="30" height="30" fill="hsl(240 100% 90.00338734539889%)" />
  <rect x="415" y="155" width="30" height="30" fill="hsl(240 100% 72.69362062040383%)" />
  <rect x="450" y="155" width="30" height="30" fill="hsl(240 100% 77.22724522564405%)" />
  <rect x="485" y="155" width="30" height="30" fill="hsl(240 100% 99.41373281714158%)" />
  <rect x="520" y="155" width="30" height="30" fill="hsl(240 100% 50%)" />
  <rect x="555" y="155" width="30" height="30" fill="hsl(240 100% 93.18092280551258%)" />
  <rect x="590" y="155" width="30" height="30" fill="hsl(240 100% 77.81787695823184%)" />
  <rect x="625" y="155" width="30" height="30" fill="hsl(240 100% 89.51809033474451%)" />
  <rect x="65" y="190" width="30" height="30" fill="hsl(240 100% 50%)" />
  <rect x="100" y="190" width="30" height="30" fill="hsl(240 100% 50%)" />
  <rect x="135" y="190" width="30" height="30" fill="hsl(240 100% 50%)" />
  <rect x="170" y="190" width="30" height="30" fill="hsl(240 100% 50%)" />
  <rect x="205" y="190" width="30" height="30" fill="hsl(240 100% 50%)" />
  <rect x="240" y="190" width="30" height="30" fill="hsl(240 100% 50%)" />
  <rect x="275" y="190" width="30" height="30" fill="hsl(240 100% 50%)" />
  <rect x="310" y="190" width="30" height="30" fill="hsl(240 100% 50%)" />
  <rect x="345" y="190" width="30" height="30" fill="hsl(240 100% 50%)" />
  <rect x="380" y="190" width="30" height="30" fill="hsl(240 100% 50%)" />
  <rect x="415" y="190" width="30" height="30" fill="hsl(240 100% 50%)" />
  <rect x="450" y="190" width="30" height="30" fill="hsl(240 100% 50%)" />
  <rect x="485" y="190" width="30" height="30" fill="hsl(240 100% 50%)" />
  <rect x="520" y="190" width="30" height="30" fill="hsl(240 100% 50%)" />
  <rect x="555" y="190" width="30" height="30" fill="hsl(240 100% 50%)" />
  <rect x="590" y="190" width="30" height="30" fill="hsl(240 100% 50%)" />
  <rect x="625" y="190" width="30" height="30" fill="hsl(240 100% 50%)" />
  <rect x="660" y="190" width="30" height="30" fill="hsl(240 100% 50%)" />
  <rect x="65" y="225" width="30" height="30" fill="hsl(240 100% 96.06887529820361%)" />
  <rect x="100" y="225" width="30" height="30" fill="hsl(240 100% 90.07154046925568%)" />
  <rect x="135" y="225" width="30" height="30" fill="hsl(240 100% 88.33577155137047%)" />
  <rect x="205" y="225" width="30" height="30" fill="hsl(240 100% 90.23118911675206%)" />
  <rect x="275" y="225" width="30" height="30" fill="rgb(255 255 255 / 50%)" />
  <rect x="345" y="225" width="30" height="30" fill="hsl(240 100% 89.6493296056756%)" />
  <rect x="450" y="225" width="30" height="30" fill="hsl(240 100% 50%)" />
  <rect x="520" y="225" width="30" height="30" fill="rgb(255 255 255 / 50%)" />
  <rect x="590" y="225" width="30" height="30" fill="rgb(255 255 255 / 50%)" />
  <rect x="625" y="225" width="30" height="30" fill="rgb(255 255 255 / 50%)" />
  <rect x="100" y="260" width="30" height="30" fill="hsl(240 100% 99.89142140241358%)" />
  <rect x="135" y="260" width="30" height="30" fill="hsl(240 100% 99.40457418067346%)" />
  <rect x="170" y="260" width="30" height="30" fill="rgb(255 255 255 / 50%)" />
  <rect x="205" y="260" width="30" height="30" fill="hsl(240 100% 88.01764507883479%)" />
  <rect x="275" y="260" width="30" height="30" fill="rgb(255 255 255 / 50%)" />
  <rect x="345" y="260" width="30" height="30" fill="hsl(240 100% 82.96020378573871%)" />
  <rect x="380" y="260" width="30" height="30" fill="rgb(255 255 255 / 50%)" />
  <rect x="415" y="260" width="30" height="30" fill="hsl(240 100% 50%)" />
  <rect x="450" y="260" width="30" height="30" fill="hsl(240 100% 76.36614976994785%)" />
  <rect x="520" y="260" width="30" height="30" fill="hsl(240 100% 97.06889025988846%)" />
  <rect x="555" y="260" width="30" height="30" fill="hsl(240 100% 94.07370874962488%)" />
  <rect x="65" y="295" width="30" height="30" fill="hsl(240 100% 67.00952392880725%)" />
  <rect x="100" y="295" width="30" height="30" fill="hsl(240 100% 59.018744679790586%)" />
  <rect x="135" y="295" width="30" height="30" fill="hsl(240 100% 60.00129811401187%)" />
  <rect x="170" y="295" width="30" height="30" fill="hsl(240 100% 91.57913684604458%)" />
  <rect x="205" y="295" width="30" height="30" fill="hsl(240 100% 50%)" />
  <rect x="275" y="295" width="30" height="30" fill="hsl(240 100% 99.428935447713%)" />
  <rect x="345" y="295" width="30" height="30" fill="hsl(240 100% 50.53157186992112%)" />
  <rect x="380" y="295" width="30" height="30" fill="hsl(240 100% 89.33223858572322%)" />
  <rect x="450" y="295" width="30" height="30" fill="hsl(240 100% 53.604805633269265%)" />
  <rect x="555" y="295" width="30" height="30" fill="hsl(240 100% 55.30108910998513%)" />
  <rect x="65" y="330" width="30" height="30" fill="hsl(240 100% 68.96440514577273%)" />
  <rect x="100" y="330" width="30" height="30" fill="hsl(240 100% 81.06888647860207%)" />
  <rect x="135" y="330" width="30" height="30" fill="hsl(240 100% 50.08634266588287%)" />
  <rect x="170" y="330" width="30" height="30" fill="hsl(240 100% 95.83303706594421%)" />
  <rect x="205" y="330" width="30" height="30" fill="hsl(240 100% 50%)" />
  <rect x="275" y="330" width="30" height="30" fill="hsl(240 100% 99.85193761249192%)" />
  <rect x="345" y="330" width="30" height="30" fill="hsl(240 100% 63.9499349692606%)" />
  <rect x="450" y="330" width="30" height="30" fill="hsl(240 100% 84.73476598017135%)" />
  <rect x="520" y="330" width="30" height="30" fill="hsl(240 100% 99.60938429734847%)" />
  <rect x="590" y="330" width="30" height="30" fill="hsl(240 100% 60.480673047363375%)" />
  <rect x="625" y="330" width="30" height="30" fill="hsl(240 100% 98.01004085818285%)" />
  <rect x="65" y="365" width="30" height="30" fill="hsl(240 100% 99.32394352638222%)" />
  <rect x="100" y="365" width="30" height="30" fill="hsl(240 100% 99.62298962705356%)" />
  <rect x="135" y="365" width="30" height="30" fill="hsl(240 100% 94.44213519072407%)" />
  <rect x="170" y="365" width="30" height="30" fill="hsl(240 100% 99.11197809897774%)" />
  <rect x="205" y="365" width="30" height="30" fill="hsl(240 100% 86.98782947767019%)" />
  <rect x="240" y="365" width="30" height="30" fill="hsl(240 100% 99.14504125610883%)" />
  <rect x="275" y="365" width="30" height="30" fill="rgb(255 255 255 / 50%)" />
  <rect x="345" y="365" width="30" height="30" fill="hsl(240 100% 95.93729242124449%)" />
  <rect x="380" y="365" width="30" height="30" fill="hsl(240 100% 99.96765643042353%)" />
  <rect x="450" y="365" width="30" height="30" fill="hsl(240 100% 50%)" />
  <rect x="205" y="400" width="30" height="30" fill="hsl(240 100% 50%)" />
  <rect x="275" y="400" width="30" height="30" fill="hsl(240 100% 95.22006138332489%)" />
  <rect x="345" y="400" width="30" height="30" fill="hsl(240 100% 87.88832788497766%)" />
  <rect x="380" y="400" width="30" height="30" fill="hsl(240 100% 99.76569643510312%)" />
  <rect x="205" y="435" width="30" height="30" fill="hsl(240 100% 50%)" />
  <rect x="275" y="435" width="30" height="30" fill="hsl(240 100% 95.83309156326301%)" />
  <rect x="345" y="435" width="30" height="30" fill="hsl(240 100% 89.14802257276213%)" />
  <rect x="380" y="435" width="30" height="30" fill="hsl(240 100% 99.54799424747857%)" />
</svg>
