<svg xmlns="http://www.w3.org/2000/svg" viewBox="0 0 870 505">
  <rect x="0" y="0" width="870" height="505" rx="5" ry="5" fill="#222" />
  <text x="60" y="100" fill="white" font-family="sans-serif" font-weight="bold" font-size="12" text-anchor="end" dominant-baseline="middle">ba</text>
  <text x="60" y="135" fill="white" font-family="sans-serif" font-weight="bold" font-size="12" text-anchor="end" dominant-baseline="middle">det</text>
  <text x="60" y="170" fill="white" font-family="sans-serif" font-weight="bold" font-size="12" text-anchor="end" dominant-baseline="middle">gmm</text>
  <text x="60" y="205" fill="white" font-family="sans-serif" font-weight="bold" font-size="12" text-anchor="end" dominant-baseline="middle">hello</text>
  <text x="60" y="240" fill="white" font-family="sans-serif" font-weight="bold" font-size="12" text-anchor="end" dominant-baseline="middle">ht</text>
  <text x="60" y="275" fill="white" font-family="sans-serif" font-weight="bold" font-size="12" text-anchor="end" dominant-baseline="middle">kmeans</text>
  <text x="60" y="310" fill="white" font-family="sans-serif" font-weight="bold" font-size="12" text-anchor="end" dominant-baseline="middle">llsq</text>
  <text x="60" y="345" fill="white" font-family="sans-serif" font-weight="bold" font-size="12" text-anchor="end" dominant-baseline="middle">lse</text>
  <text x="60" y="380" fill="white" font-family="sans-serif" font-weight="bold" font-size="12" text-anchor="end" dominant-baseline="middle">lstm</text>
  <text x="60" y="415" fill="white" font-family="sans-serif" font-weight="bold" font-size="12" text-anchor="end" dominant-baseline="middle">ode</text>
  <text x="60" y="450" fill="white" font-family="sans-serif" font-weight="bold" font-size="12" text-anchor="end" dominant-baseline="middle">particle</text>
  <text x="60" y="485" fill="white" font-family="sans-serif" font-weight="bold" font-size="12" text-anchor="end" dominant-baseline="middle">saddle</text>
  <text x="80" y="80" fill="white" font-family="sans-serif" font-weight="bold" font-size="12" text-anchor="end" dominant-baseline="middle" transform="rotate(90 80 80)">ad-hpp</text>
  <text x="115" y="80" fill="white" font-family="sans-serif" font-weight="bold" font-size="12" text-anchor="end" dominant-baseline="middle" transform="rotate(90 115 80)">adept</text>
  <text x="150" y="80" fill="white" font-family="sans-serif" font-weight="bold" font-size="12" text-anchor="end" dominant-baseline="middle" transform="rotate(90 150 80)">adol-c</text>
  <text x="185" y="80" fill="white" font-family="sans-serif" font-weight="bold" font-size="12" text-anchor="end" dominant-baseline="middle" transform="rotate(90 185 80)">codipack</text>
  <text x="220" y="80" fill="white" font-family="sans-serif" font-weight="bold" font-size="12" text-anchor="end" dominant-baseline="middle" transform="rotate(90 220 80)">cppad</text>
  <text x="255" y="80" fill="white" font-family="sans-serif" font-weight="bold" font-size="12" text-anchor="end" dominant-baseline="middle" transform="rotate(90 255 80)">enzyme</text>
  <text x="290" y="80" fill="white" font-family="sans-serif" font-weight="bold" font-size="12" text-anchor="end" dominant-baseline="middle" transform="rotate(90 290 80)">enzyme-jl</text>
  <text x="325" y="80" fill="white" font-family="sans-serif" font-weight="bold" font-size="12" text-anchor="end" dominant-baseline="middle" transform="rotate(90 325 80)">finite</text>
  <text x="360" y="80" fill="white" font-family="sans-serif" font-weight="bold" font-size="12" text-anchor="end" dominant-baseline="middle" transform="rotate(90 360 80)">floretta</text>
  <text x="395" y="80" fill="white" font-family="sans-serif" font-weight="bold" font-size="12" text-anchor="end" dominant-baseline="middle" transform="rotate(90 395 80)">forwarddiff-jl</text>
  <text x="430" y="80" fill="white" font-family="sans-serif" font-weight="bold" font-size="12" text-anchor="end" dominant-baseline="middle" transform="rotate(90 430 80)">futhark</text>
  <text x="465" y="80" fill="white" font-family="sans-serif" font-weight="bold" font-size="12" text-anchor="end" dominant-baseline="middle" transform="rotate(90 465 80)">haskell</text>
  <text x="500" y="80" fill="white" font-family="sans-serif" font-weight="bold" font-size="12" text-anchor="end" dominant-baseline="middle" transform="rotate(90 500 80)">jax</text>
  <text x="535" y="80" fill="white" font-family="sans-serif" font-weight="bold" font-size="12" text-anchor="end" dominant-baseline="middle" transform="rotate(90 535 80)">manual</text>
  <text x="570" y="80" fill="white" font-family="sans-serif" font-weight="bold" font-size="12" text-anchor="end" dominant-baseline="middle" transform="rotate(90 570 80)">mooncake-jl</text>
  <text x="605" y="80" fill="white" font-family="sans-serif" font-weight="bold" font-size="12" text-anchor="end" dominant-baseline="middle" transform="rotate(90 605 80)">ocaml</text>
  <text x="640" y="80" fill="white" font-family="sans-serif" font-weight="bold" font-size="12" text-anchor="end" dominant-baseline="middle" transform="rotate(90 640 80)">pytorch</text>
  <text x="675" y="80" fill="white" font-family="sans-serif" font-weight="bold" font-size="12" text-anchor="end" dominant-baseline="middle" transform="rotate(90 675 80)">reversediff-jl</text>
  <text x="710" y="80" fill="white" font-family="sans-serif" font-weight="bold" font-size="12" text-anchor="end" dominant-baseline="middle" transform="rotate(90 710 80)">scilean</text>
  <text x="745" y="80" fill="white" font-family="sans-serif" font-weight="bold" font-size="12" text-anchor="end" dominant-baseline="middle" transform="rotate(90 745 80)">tapenade</text>
  <text x="780" y="80" fill="white" font-family="sans-serif" font-weight="bold" font-size="12" text-anchor="end" dominant-baseline="middle" transform="rotate(90 780 80)">tensorflow</text>
  <text x="815" y="80" fill="white" font-family="sans-serif" font-weight="bold" font-size="12" text-anchor="end" dominant-baseline="middle" transform="rotate(90 815 80)">tensorflow-js</text>
  <text x="850" y="80" fill="white" font-family="sans-serif" font-weight="bold" font-size="12" text-anchor="end" dominant-baseline="middle" transform="rotate(90 850 80)">zygote</text>
  <rect x="65" y="85" width="30" height="30" fill="hsl(240 100% 80.94766922541686%)" />
  <rect x="100" y="85" width="30" height="30" fill="hsl(240 100% 82.60830076214641%)" />
  <rect x="135" y="85" width="30" height="30" fill="hsl(240 100% 97.98366413981367%)" />
  <rect x="170" y="85" width="30" height="30" fill="hsl(240 100% 82.24126189861651%)" />
  <rect x="205" y="85" width="30" height="30" fill="hsl(240 100% 98.9942689720376%)" />
  <rect x="240" y="85" width="30" height="30" fill="hsl(240 100% 51.47224622556219%)" />
  <rect x="310" y="85" width="30" height="30" fill="hsl(240 100% 93.24132996876449%)" />
  <rect x="415" y="85" width="30" height="30" fill="hsl(240 100% 68.05416914140744%)" />
  <rect x="520" y="85" width="30" height="30" fill="hsl(240 100% 50%)" />
  <rect x="625" y="85" width="30" height="30" fill="rgb(255 255 255 / 50%)" />
  <rect x="730" y="85" width="30" height="30" fill="hsl(240 100% 74.71114595357459%)" />
  <rect x="765" y="85" width="30" height="30" fill="rgb(255 255 255 / 50%)" />
  <rect x="835" y="85" width="30" height="30" fill="hsl(240 100% 99.73397995223732%)" />
  <rect x="65" y="120" width="30" height="30" fill="hsl(240 100% 50%)" />
  <rect x="100" y="120" width="30" height="30" fill="hsl(240 100% 82.78809089682973%)" />
  <rect x="135" y="120" width="30" height="30" fill="hsl(240 100% 85.74962420839539%)" />
  <rect x="170" y="120" width="30" height="30" fill="hsl(240 100% 52.316479673106976%)" />
  <rect x="205" y="120" width="30" height="30" fill="hsl(240 100% 92.38497828085526%)" />
  <rect x="240" y="120" width="30" height="30" fill="hsl(240 100% 91.3535465065832%)" />
  <rect x="275" y="120" width="30" height="30" fill="hsl(240 100% 99.37897721025823%)" />
  <rect x="310" y="120" width="30" height="30" fill="hsl(240 100% 98.9811514837937%)" />
  <rect x="380" y="120" width="30" height="30" fill="hsl(240 100% 93.38572323185522%)" />
  <rect x="415" y="120" width="30" height="30" fill="hsl(240 100% 94.56649700255268%)" />
  <rect x="450" y="120" width="30" height="30" fill="hsl(240 100% 97.84804961099734%)" />
  <rect x="520" y="120" width="30" height="30" fill="hsl(240 100% 79.6577959317399%)" />
  <rect x="555" y="120" width="30" height="30" fill="hsl(240 100% 90.88897409985856%)" />
  <rect x="660" y="120" width="30" height="30" fill="rgb(255 255 255 / 50%)" />
  <rect x="835" y="120" width="30" height="30" fill="rgb(255 255 255 / 50%)" />
  <rect x="65" y="155" width="30" height="30" fill="hsl(240 100% 98.38373314482126%)" />
  <rect x="100" y="155" width="30" height="30" fill="hsl(240 100% 98.77950061240463%)" />
  <rect x="135" y="155" width="30" height="30" fill="hsl(240 100% 99.11700895888498%)" />
  <rect x="170" y="155" width="30" height="30" fill="hsl(240 100% 98.0506036693546%)" />
  <rect x="205" y="155" width="30" height="30" fill="hsl(240 100% 99.84815027358599%)" />
  <rect x="240" y="155" width="30" height="30" fill="hsl(240 100% 91.1970433559827%)" />
  <rect x="275" y="155" width="30" height="30" fill="hsl(240 100% 92.16244995510627%)" />
  <rect x="310" y="155" width="30" height="30" fill="rgb(255 255 255 / 50%)" />
  <rect x="415" y="155" width="30" height="30" fill="hsl(240 100% 92.91875275093629%)" />
  <rect x="485" y="155" width="30" height="30" fill="hsl(240 100% 50%)" />
  <rect x="520" y="155" width="30" height="30" fill="hsl(240 100% 83.42673264473244%)" />
  <rect x="590" y="155" width="30" height="30" fill="hsl(240 100% 99.5760023260931%)" />
  <rect x="625" y="155" width="30" height="30" fill="hsl(240 100% 69.31359263557867%)" />
  <rect x="695" y="155" width="30" height="30" fill="hsl(240 100% 95.4022952928194%)" />
  <rect x="730" y="155" width="30" height="30" fill="hsl(240 100% 83.5927575305848%)" />
  <rect x="765" y="155" width="30" height="30" fill="hsl(240 100% 99.57489561532137%)" />
  <rect x="835" y="155" width="30" height="30" fill="hsl(240 100% 96.1829863789971%)" />
  <rect x="65" y="190" width="30" height="30" fill="hsl(240 100% 50%)" />
  <rect x="100" y="190" width="30" height="30" fill="hsl(240 100% 50%)" />
  <rect x="135" y="190" width="30" height="30" fill="hsl(240 100% 50%)" />
  <rect x="170" y="190" width="30" height="30" fill="hsl(240 100% 50%)" />
  <rect x="205" y="190" width="30" height="30" fill="hsl(240 100% 50%)" />
  <rect x="240" y="190" width="30" height="30" fill="hsl(240 100% 50%)" />
  <rect x="275" y="190" width="30" height="30" fill="hsl(240 100% 50%)" />
  <rect x="310" y="190" width="30" height="30" fill="hsl(240 100% 50%)" />
  <rect x="345" y="190" width="30" height="30" fill="hsl(240 100% 50%)" />
  <rect x="380" y="190" width="30" height="30" fill="hsl(240 100% 50%)" />
  <rect x="415" y="190" width="30" height="30" fill="hsl(240 100% 50%)" />
  <rect x="450" y="190" width="30" height="30" fill="hsl(240 100% 50%)" />
  <rect x="485" y="190" width="30" height="30" fill="hsl(240 100% 50%)" />
  <rect x="520" y="190" width="30" height="30" fill="hsl(240 100% 50%)" />
  <rect x="555" y="190" width="30" height="30" fill="hsl(240 100% 50%)" />
  <rect x="590" y="190" width="30" height="30" fill="hsl(240 100% 50%)" />
  <rect x="625" y="190" width="30" height="30" fill="hsl(240 100% 50%)" />
  <rect x="660" y="190" width="30" height="30" fill="hsl(240 100% 50%)" />
  <rect x="695" y="190" width="30" height="30" fill="hsl(240 100% 50%)" />
  <rect x="730" y="190" width="30" height="30" fill="hsl(240 100% 50%)" />
  <rect x="765" y="190" width="30" height="30" fill="hsl(240 100% 50%)" />
  <rect x="800" y="190" width="30" height="30" fill="hsl(240 100% 50%)" />
  <rect x="835" y="190" width="30" height="30" fill="hsl(240 100% 50%)" />
  <rect x="100" y="225" width="30" height="30" fill="hsl(240 100% 96.65687749841896%)" />
  <rect x="135" y="225" width="30" height="30" fill="hsl(240 100% 89.23365286355681%)" />
  <rect x="170" y="225" width="30" height="30" fill="hsl(240 100% 89.2266087426362%)" />
  <rect x="240" y="225" width="30" height="30" fill="hsl(240 100% 91.15049424329743%)" />
  <rect x="310" y="225" width="30" height="30" fill="rgb(255 255 255 / 50%)" />
  <rect x="415" y="225" width="30" height="30" fill="hsl(240 100% 90.5241329868193%)" />
  <rect x="520" y="225" width="30" height="30" fill="hsl(240 100% 50%)" />
  <rect x="625" y="225" width="30" height="30" fill="rgb(255 255 255 / 50%)" />
  <rect x="730" y="225" width="30" height="30" fill="hsl(240 100% 93.09178652756422%)" />
  <rect x="765" y="225" width="30" height="30" fill="rgb(255 255 255 / 50%)" />
  <rect x="835" y="225" width="30" height="30" fill="hsl(240 100% 94.29338860048367%)" />
  <rect x="65" y="260" width="30" height="30" fill="hsl(240 100% 99.87896360785622%)" />
  <rect x="135" y="260" width="30" height="30" fill="hsl(240 100% 99.85172696342764%)" />
  <rect x="170" y="260" width="30" height="30" fill="hsl(240 100% 98.8769823280792%)" />
  <rect x="205" y="260" width="30" height="30" fill="rgb(255 255 255 / 50%)" />
  <rect x="240" y="260" width="30" height="30" fill="hsl(240 100% 87.26364015543768%)" />
  <rect x="310" y="260" width="30" height="30" fill="rgb(255 255 255 / 50%)" />
  <rect x="415" y="260" width="30" height="30" fill="hsl(240 100% 81.20053153334288%)" />
  <rect x="450" y="260" width="30" height="30" fill="rgb(255 255 255 / 50%)" />
  <rect x="485" y="260" width="30" height="30" fill="hsl(240 100% 50%)" />
  <rect x="520" y="260" width="30" height="30" fill="hsl(240 100% 71.52396316293559%)" />
  <rect x="625" y="260" width="30" height="30" fill="hsl(240 100% 96.96768172091042%)" />
  <rect x="695" y="260" width="30" height="30" fill="hsl(240 100% 94.1864361823086%)" />
  <rect x="65" y="295" width="30" height="30" fill="hsl(240 100% 86.02923982957704%)" />
  <rect x="100" y="295" width="30" height="30" fill="hsl(240 100% 97.557758211819%)" />
  <rect x="135" y="295" width="30" height="30" fill="hsl(240 100% 95.16571323450957%)" />
  <rect x="170" y="295" width="30" height="30" fill="hsl(240 100% 90.7092958942831%)" />
  <rect x="205" y="295" width="30" height="30" fill="hsl(240 100% 99.45640352370825%)" />
  <rect x="240" y="295" width="30" height="30" fill="hsl(240 100% 50.772776838693176%)" />
  <rect x="275" y="295" width="30" height="30" fill="hsl(240 100% 50%)" />
  <rect x="310" y="295" width="30" height="30" fill="hsl(240 100% 99.50088440621836%)" />
  <rect x="345" y="295" width="30" height="30" fill="hsl(240 100% 94.73741248770372%)" />
  <rect x="415" y="295" width="30" height="30" fill="hsl(240 100% 55.33951782970229%)" />
  <rect x="450" y="295" width="30" height="30" fill="hsl(240 100% 99.34706957493945%)" />
  <rect x="485" y="295" width="30" height="30" fill="hsl(240 100% 88.31774967231549%)" />
  <rect x="520" y="295" width="30" height="30" fill="hsl(240 100% 57.95941220392539%)" />
  <rect x="695" y="295" width="30" height="30" fill="hsl(240 100% 97.61278323748137%)" />
  <rect x="800" y="295" width="30" height="30" fill="hsl(240 100% 99.56884229732869%)" />
  <rect x="835" y="295" width="30" height="30" fill="hsl(240 100% 99.95406972455386%)" />
  <rect x="65" y="330" width="30" height="30" fill="hsl(240 100% 87.92648210610554%)" />
  <rect x="100" y="330" width="30" height="30" fill="hsl(240 100% 94.41362312081006%)" />
  <rect x="135" y="330" width="30" height="30" fill="hsl(240 100% 97.05490946989173%)" />
  <rect x="170" y="330" width="30" height="30" fill="hsl(240 100% 87.73559583388467%)" />
  <rect x="205" y="330" width="30" height="30" fill="hsl(240 100% 99.15223045847434%)" />
  <rect x="240" y="330" width="30" height="30" fill="hsl(240 100% 78.70054854590433%)" />
  <rect x="275" y="330" width="30" height="30" fill="hsl(240 100% 87.98561406555567%)" />
  <rect x="310" y="330" width="30" height="30" fill="rgb(255 255 255 / 50%)" />
  <rect x="345" y="330" width="30" height="30" fill="hsl(240 100% 97.068524234142%)" />
  <rect x="415" y="330" width="30" height="30" fill="hsl(240 100% 84.81722293653274%)" />
  <rect x="450" y="330" width="30" height="30" fill="hsl(240 100% 99.80167670437666%)" />
  <rect x="485" y="330" width="30" height="30" fill="hsl(240 100% 69.02964074919845%)" />
  <rect x="520" y="330" width="30" height="30" fill="hsl(240 100% 75.2481061930269%)" />
  <rect x="590" y="330" width="30" height="30" fill="hsl(240 100% 93.47717813955262%)" />
  <rect x="625" y="330" width="30" height="30" fill="hsl(240 100% 50%)" />
  <rect x="765" y="330" width="30" height="30" fill="hsl(240 100% 95.45617856538954%)" />
  <rect x="800" y="330" width="30" height="30" fill="hsl(240 100% 99.16606871402709%)" />
  <rect x="835" y="330" width="30" height="30" fill="hsl(240 100% 79.21969609724145%)" />
  <rect x="65" y="365" width="30" height="30" fill="hsl(240 100% 56.90993226615013%)" />
  <rect x="100" y="365" width="30" height="30" fill="hsl(240 100% 71.41220635002574%)" />
  <rect x="135" y="365" width="30" height="30" fill="hsl(240 100% 82.65551330378185%)" />
  <rect x="170" y="365" width="30" height="30" fill="hsl(240 100% 50%)" />
  <rect x="205" y="365" width="30" height="30" fill="hsl(240 100% 96.22192188630933%)" />
  <rect x="240" y="365" width="30" height="30" fill="hsl(240 100% 63.24420205612275%)" />
  <rect x="275" y="365" width="30" height="30" fill="hsl(240 100% 92.04896387068393%)" />
  <rect x="310" y="365" width="30" height="30" fill="hsl(240 100% 99.86076416698673%)" />
  <rect x="415" y="365" width="30" height="30" fill="hsl(240 100% 66.39657839775899%)" />
  <rect x="520" y="365" width="30" height="30" fill="hsl(240 100% 85.84870599654427%)" />
  <rect x="625" y="365" width="30" height="30" fill="hsl(240 100% 99.63568099966385%)" />
  <rect x="730" y="365" width="30" height="30" fill="hsl(240 100% 63.26665795299754%)" />
  <rect x="765" y="365" width="30" height="30" fill="hsl(240 100% 98.19344962934824%)" />
  <rect x="835" y="365" width="30" height="30" fill="hsl(240 100% 98.71872589797243%)" />
  <rect x="65" y="400" width="30" height="30" fill="hsl(240 100% 98.02919873615856%)" />
  <rect x="100" y="400" width="30" height="30" fill="hsl(240 100% 99.59693257854208%)" />
  <rect x="135" y="400" width="30" height="30" fill="hsl(240 100% 99.67476232110316%)" />
  <rect x="170" y="400" width="30" height="30" fill="hsl(240 100% 95.35002139217445%)" />
  <rect x="205" y="400" width="30" height="30" fill="hsl(240 100% 99.25133678220925%)" />
  <rect x="240" y="400" width="30" height="30" fill="hsl(240 100% 88.47340723894123%)" />
  <rect x="275" y="400" width="30" height="30" fill="hsl(240 100% 95.322889912326%)" />
  <rect x="310" y="400" width="30" height="30" fill="rgb(255 255 255 / 50%)" />
  <rect x="380" y="400" width="30" height="30" fill="rgb(255 255 255 / 50%)" />
  <rect x="415" y="400" width="30" height="30" fill="hsl(240 100% 94.02179623098135%)" />
  <rect x="450" y="400" width="30" height="30" fill="hsl(240 100% 99.97100160499379%)" />
  <rect x="485" y="400" width="30" height="30" fill="hsl(240 100% 79.0513778781673%)" />
  <rect x="520" y="400" width="30" height="30" fill="hsl(240 100% 50%)" />
  <rect x="555" y="400" width="30" height="30" fill="hsl(240 100% 99.1286618766516%)" />
  <rect x="660" y="400" width="30" height="30" fill="rgb(255 255 255 / 50%)" />
  <rect x="835" y="400" width="30" height="30" fill="hsl(240 100% 99.17371347394482%)" />
  <rect x="65" y="435" width="30" height="30" fill="hsl(240 100% 92.84544678594848%)" />
  <rect x="240" y="435" width="30" height="30" fill="hsl(240 100% 50%)" />
  <rect x="310" y="435" width="30" height="30" fill="hsl(240 100% 94.32925164072678%)" />
  <rect x="415" y="435" width="30" height="30" fill="hsl(240 100% 87.00101303925867%)" />
  <rect x="450" y="435" width="30" height="30" fill="hsl(240 100% 99.80853697121663%)" />
  <rect x="65" y="470" width="30" height="30" fill="hsl(240 100% 50%)" />
  <rect x="240" y="470" width="30" height="30" fill="hsl(240 100% 50.491585636183025%)" />
  <rect x="310" y="470" width="30" height="30" fill="hsl(240 100% 97.16703971267683%)" />
  <rect x="415" y="470" width="30" height="30" fill="hsl(240 100% 89.04570278655%)" />
  <rect x="450" y="470" width="30" height="30" fill="hsl(240 100% 99.57481077681739%)" />
</svg>
