<svg xmlns="http://www.w3.org/2000/svg" viewBox="0 0 590 295">
  <rect x="0" y="0" width="590" height="295" rx="5" ry="5" fill="#222" />
  <text x="60" y="100" fill="white" font-family="sans-serif" font-weight="bold" font-size="12" text-anchor="end" dominant-baseline="middle">ba</text>
  <text x="60" y="135" fill="white" font-family="sans-serif" font-weight="bold" font-size="12" text-anchor="end" dominant-baseline="middle">gmm</text>
  <text x="60" y="170" fill="white" font-family="sans-serif" font-weight="bold" font-size="12" text-anchor="end" dominant-baseline="middle">hello</text>
  <text x="60" y="205" fill="white" font-family="sans-serif" font-weight="bold" font-size="12" text-anchor="end" dominant-baseline="middle">ht</text>
  <text x="60" y="240" fill="white" font-family="sans-serif" font-weight="bold" font-size="12" text-anchor="end" dominant-baseline="middle">kmeans</text>
  <text x="60" y="275" fill="white" font-family="sans-serif" font-weight="bold" font-size="12" text-anchor="end" dominant-baseline="middle">lstm</text>
  <text x="80" y="80" fill="white" font-family="sans-serif" font-weight="bold" font-size="12" text-anchor="end" dominant-baseline="middle" transform="rotate(90 80 80)">adept</text>
  <text x="115" y="80" fill="white" font-family="sans-serif" font-weight="bold" font-size="12" text-anchor="end" dominant-baseline="middle" transform="rotate(90 115 80)">adol-c</text>
  <text x="150" y="80" fill="white" font-family="sans-serif" font-weight="bold" font-size="12" text-anchor="end" dominant-baseline="middle" transform="rotate(90 150 80)">cppad</text>
  <text x="185" y="80" fill="white" font-family="sans-serif" font-weight="bold" font-size="12" text-anchor="end" dominant-baseline="middle" transform="rotate(90 185 80)">enzyme</text>
  <text x="220" y="80" fill="white" font-family="sans-serif" font-weight="bold" font-size="12" text-anchor="end" dominant-baseline="middle" transform="rotate(90 220 80)">finite</text>
  <text x="255" y="80" fill="white" font-family="sans-serif" font-weight="bold" font-size="12" text-anchor="end" dominant-baseline="middle" transform="rotate(90 255 80)">floretta</text>
  <text x="290" y="80" fill="white" font-family="sans-serif" font-weight="bold" font-size="12" text-anchor="end" dominant-baseline="middle" transform="rotate(90 290 80)">futhark</text>
  <text x="325" y="80" fill="white" font-family="sans-serif" font-weight="bold" font-size="12" text-anchor="end" dominant-baseline="middle" transform="rotate(90 325 80)">haskell</text>
  <text x="360" y="80" fill="white" font-family="sans-serif" font-weight="bold" font-size="12" text-anchor="end" dominant-baseline="middle" transform="rotate(90 360 80)">jax</text>
  <text x="395" y="80" fill="white" font-family="sans-serif" font-weight="bold" font-size="12" text-anchor="end" dominant-baseline="middle" transform="rotate(90 395 80)">manual</text>
  <text x="430" y="80" fill="white" font-family="sans-serif" font-weight="bold" font-size="12" text-anchor="end" dominant-baseline="middle" transform="rotate(90 430 80)">pytorch</text>
  <text x="465" y="80" fill="white" font-family="sans-serif" font-weight="bold" font-size="12" text-anchor="end" dominant-baseline="middle" transform="rotate(90 465 80)">scilean</text>
  <text x="500" y="80" fill="white" font-family="sans-serif" font-weight="bold" font-size="12" text-anchor="end" dominant-baseline="middle" transform="rotate(90 500 80)">tapenade</text>
  <text x="535" y="80" fill="white" font-family="sans-serif" font-weight="bold" font-size="12" text-anchor="end" dominant-baseline="middle" transform="rotate(90 535 80)">tensorflow</text>
  <text x="570" y="80" fill="white" font-family="sans-serif" font-weight="bold" font-size="12" text-anchor="end" dominant-baseline="middle" transform="rotate(90 570 80)">zygote</text>
  <rect x="65" y="85" width="30" height="30" fill="hsl(240 100% 84.64690809449935%)" />
  <rect x="100" y="85" width="30" height="30" fill="hsl(240 100% 98.01431532681228%)" />
  <rect x="170" y="85" width="30" height="30" fill="hsl(240 100% 50%)" />
  <rect x="205" y="85" width="30" height="30" fill="hsl(240 100% 91.93207582985136%)" />
  <rect x="275" y="85" width="30" height="30" fill="hsl(240 100% 73.81312914524564%)" />
  <rect x="380" y="85" width="30" height="30" fill="hsl(240 100% 52.989300746364634%)" />
  <rect x="415" y="85" width="30" height="30" fill="hsl(240 100% 99.9919478395561%)" />
  <rect x="485" y="85" width="30" height="30" fill="hsl(240 100% 73.81467181222501%)" />
  <rect x="520" y="85" width="30" height="30" fill="hsl(240 100% 99.98440379872127%)" />
  <rect x="65" y="120" width="30" height="30" fill="hsl(240 100% 96.98792913647473%)" />
  <rect x="100" y="120" width="30" height="30" fill="hsl(240 100% 97.31380464534514%)" />
  <rect x="135" y="120" width="30" height="30" fill="hsl(240 100% 98.17236099775718%)" />
  <rect x="170" y="120" width="30" height="30" fill="hsl(240 100% 83.56822518775574%)" />
  <rect x="205" y="120" width="30" height="30" fill="hsl(240 100% 99.99488523075486%)" />
  <rect x="275" y="120" width="30" height="30" fill="hsl(240 100% 82.01049781599194%)" />
  <rect x="345" y="120" width="30" height="30" fill="hsl(240 100% 72.61617744098777%)" />
  <rect x="380" y="120" width="30" height="30" fill="hsl(240 100% 62.62794361704446%)" />
  <rect x="415" y="120" width="30" height="30" fill="hsl(240 100% 50%)" />
  <rect x="450" y="120" width="30" height="30" fill="hsl(240 100% 93.12129015929817%)" />
  <rect x="485" y="120" width="30" height="30" fill="hsl(240 100% 66.43603319268011%)" />
  <rect x="520" y="120" width="30" height="30" fill="hsl(240 100% 85.16045403871445%)" />
  <rect x="65" y="155" width="30" height="30" fill="hsl(240 100% 50%)" />
  <rect x="100" y="155" width="30" height="30" fill="hsl(240 100% 50%)" />
  <rect x="135" y="155" width="30" height="30" fill="hsl(240 100% 50%)" />
  <rect x="170" y="155" width="30" height="30" fill="hsl(240 100% 50%)" />
  <rect x="205" y="155" width="30" height="30" fill="hsl(240 100% 50%)" />
  <rect x="240" y="155" width="30" height="30" fill="hsl(240 100% 50%)" />
  <rect x="275" y="155" width="30" height="30" fill="hsl(240 100% 50%)" />
  <rect x="310" y="155" width="30" height="30" fill="hsl(240 100% 50%)" />
  <rect x="345" y="155" width="30" height="30" fill="hsl(240 100% 50%)" />
  <rect x="380" y="155" width="30" height="30" fill="hsl(240 100% 50%)" />
  <rect x="415" y="155" width="30" height="30" fill="hsl(240 100% 50%)" />
  <rect x="450" y="155" width="30" height="30" fill="hsl(240 100% 50%)" />
  <rect x="485" y="155" width="30" height="30" fill="hsl(240 100% 50%)" />
  <rect x="520" y="155" width="30" height="30" fill="hsl(240 100% 50%)" />
  <rect x="555" y="155" width="30" height="30" fill="hsl(240 100% 50%)" />
  <rect x="65" y="190" width="30" height="30" fill="hsl(240 100% 97.14401323098983%)" />
  <rect x="100" y="190" width="30" height="30" fill="hsl(240 100% 97.99743451240164%)" />
  <rect x="170" y="190" width="30" height="30" fill="hsl(240 100% 95.00334608791631%)" />
  <rect x="205" y="190" width="30" height="30" fill="hsl(240 100% 99.18318446161379%)" />
  <rect x="275" y="190" width="30" height="30" fill="hsl(240 100% 91.70988790227295%)" />
  <rect x="380" y="190" width="30" height="30" fill="hsl(240 100% 50%)" />
  <rect x="415" y="190" width="30" height="30" fill="hsl(240 100% 99.96834588227682%)" />
  <rect x="485" y="190" width="30" height="30" fill="hsl(240 100% 99.40869409901028%)" />
  <rect x="520" y="190" width="30" height="30" fill="hsl(240 100% 99.48346891690156%)" />
  <rect x="100" y="225" width="30" height="30" fill="hsl(240 100% 99.89635807597236%)" />
  <rect x="170" y="225" width="30" height="30" fill="hsl(240 100% 88.0798455644025%)" />
  <rect x="275" y="225" width="30" height="30" fill="hsl(240 100% 84.77411939415973%)" />
  <rect x="310" y="225" width="30" height="30" fill="hsl(240 100% 99.99162847241007%)" />
  <rect x="345" y="225" width="30" height="30" fill="hsl(240 100% 50%)" />
  <rect x="380" y="225" width="30" height="30" fill="hsl(240 100% 76.76214790064483%)" />
  <rect x="415" y="225" width="30" height="30" fill="hsl(240 100% 85.38173225982437%)" />
  <rect x="65" y="260" width="30" height="30" fill="hsl(240 100% 67.81338123809627%)" />
  <rect x="100" y="260" width="30" height="30" fill="hsl(240 100% 81.27334277087193%)" />
  <rect x="135" y="260" width="30" height="30" fill="hsl(240 100% 86.18122158083185%)" />
  <rect x="170" y="260" width="30" height="30" fill="hsl(240 100% 50%)" />
  <rect x="205" y="260" width="30" height="30" fill="hsl(240 100% 99.79635023881828%)" />
  <rect x="275" y="260" width="30" height="30" fill="hsl(240 100% 62.6654191046644%)" />
  <rect x="380" y="260" width="30" height="30" fill="hsl(240 100% 78.24238941518884%)" />
  <rect x="415" y="260" width="30" height="30" fill="hsl(240 100% 99.65365374002666%)" />
  <rect x="485" y="260" width="30" height="30" fill="hsl(240 100% 59.06780223392405%)" />
  <rect x="520" y="260" width="30" height="30" fill="hsl(240 100% 98.09751687008512%)" />
</svg>
