<svg xmlns="http://www.w3.org/2000/svg" viewBox="0 0 870 505">
  <rect x="0" y="0" width="870" height="505" rx="5" ry="5" fill="#222" />
  <text x="60" y="100" fill="white" font-family="sans-serif" font-weight="bold" font-size="12" text-anchor="end" dominant-baseline="middle">ba</text>
  <text x="60" y="135" fill="white" font-family="sans-serif" font-weight="bold" font-size="12" text-anchor="end" dominant-baseline="middle">det</text>
  <text x="60" y="170" fill="white" font-family="sans-serif" font-weight="bold" font-size="12" text-anchor="end" dominant-baseline="middle">gmm</text>
  <text x="60" y="205" fill="white" font-family="sans-serif" font-weight="bold" font-size="12" text-anchor="end" dominant-baseline="middle">hello</text>
  <text x="60" y="240" fill="white" font-family="sans-serif" font-weight="bold" font-size="12" text-anchor="end" dominant-baseline="middle">ht</text>
  <text x="60" y="275" fill="white" font-family="sans-serif" font-weight="bold" font-size="12" text-anchor="end" dominant-baseline="middle">kmeans</text>
  <text x="60" y="310" fill="white" font-family="sans-serif" font-weight="bold" font-size="12" text-anchor="end" dominant-baseline="middle">llsq</text>
  <text x="60" y="345" fill="white" font-family="sans-serif" font-weight="bold" font-size="12" text-anchor="end" dominant-baseline="middle">lse</text>
  <text x="60" y="380" fill="white" font-family="sans-serif" font-weight="bold" font-size="12" text-anchor="end" dominant-baseline="middle">lstm</text>
  <text x="60" y="415" fill="white" font-family="sans-serif" font-weight="bold" font-size="12" text-anchor="end" dominant-baseline="middle">ode</text>
  <text x="60" y="450" fill="white" font-family="sans-serif" font-weight="bold" font-size="12" text-anchor="end" dominant-baseline="middle">particle</text>
  <text x="60" y="485" fill="white" font-family="sans-serif" font-weight="bold" font-size="12" text-anchor="end" dominant-baseline="middle">saddle</text>
  <text x="80" y="80" fill="white" font-family="sans-serif" font-weight="bold" font-size="12" text-anchor="end" dominant-baseline="middle" transform="rotate(90 80 80)">ad-hpp</text>
  <text x="115" y="80" fill="white" font-family="sans-serif" font-weight="bold" font-size="12" text-anchor="end" dominant-baseline="middle" transform="rotate(90 115 80)">adept</text>
  <text x="150" y="80" fill="white" font-family="sans-serif" font-weight="bold" font-size="12" text-anchor="end" dominant-baseline="middle" transform="rotate(90 150 80)">adol-c</text>
  <text x="185" y="80" fill="white" font-family="sans-serif" font-weight="bold" font-size="12" text-anchor="end" dominant-baseline="middle" transform="rotate(90 185 80)">codipack</text>
  <text x="220" y="80" fill="white" font-family="sans-serif" font-weight="bold" font-size="12" text-anchor="end" dominant-baseline="middle" transform="rotate(90 220 80)">cppad</text>
  <text x="255" y="80" fill="white" font-family="sans-serif" font-weight="bold" font-size="12" text-anchor="end" dominant-baseline="middle" transform="rotate(90 255 80)">enzyme</text>
  <text x="290" y="80" fill="white" font-family="sans-serif" font-weight="bold" font-size="12" text-anchor="end" dominant-baseline="middle" transform="rotate(90 290 80)">enzyme-jl</text>
  <text x="325" y="80" fill="white" font-family="sans-serif" font-weight="bold" font-size="12" text-anchor="end" dominant-baseline="middle" transform="rotate(90 325 80)">finite</text>
  <text x="360" y="80" fill="white" font-family="sans-serif" font-weight="bold" font-size="12" text-anchor="end" dominant-baseline="middle" transform="rotate(90 360 80)">floretta</text>
  <text x="395" y="80" fill="white" font-family="sans-serif" font-weight="bold" font-size="12" text-anchor="end" dominant-baseline="middle" transform="rotate(90 395 80)">forwarddiff-jl</text>
  <text x="430" y="80" fill="white" font-family="sans-serif" font-weight="bold" font-size="12" text-anchor="end" dominant-baseline="middle" transform="rotate(90 430 80)">futhark</text>
  <text x="465" y="80" fill="white" font-family="sans-serif" font-weight="bold" font-size="12" text-anchor="end" dominant-baseline="middle" transform="rotate(90 465 80)">haskell</text>
  <text x="500" y="80" fill="white" font-family="sans-serif" font-weight="bold" font-size="12" text-anchor="end" dominant-baseline="middle" transform="rotate(90 500 80)">jax</text>
  <text x="535" y="80" fill="white" font-family="sans-serif" font-weight="bold" font-size="12" text-anchor="end" dominant-baseline="middle" transform="rotate(90 535 80)">manual</text>
  <text x="570" y="80" fill="white" font-family="sans-serif" font-weight="bold" font-size="12" text-anchor="end" dominant-baseline="middle" transform="rotate(90 570 80)">mooncake-jl</text>
  <text x="605" y="80" fill="white" font-family="sans-serif" font-weight="bold" font-size="12" text-anchor="end" dominant-baseline="middle" transform="rotate(90 605 80)">ocaml</text>
  <text x="640" y="80" fill="white" font-family="sans-serif" font-weight="bold" font-size="12" text-anchor="end" dominant-baseline="middle" transform="rotate(90 640 80)">pytorch</text>
  <text x="675" y="80" fill="white" font-family="sans-serif" font-weight="bold" font-size="12" text-anchor="end" dominant-baseline="middle" transform="rotate(90 675 80)">reversediff-jl</text>
  <text x="710" y="80" fill="white" font-family="sans-serif" font-weight="bold" font-size="12" text-anchor="end" dominant-baseline="middle" transform="rotate(90 710 80)">scilean</text>
  <text x="745" y="80" fill="white" font-family="sans-serif" font-weight="bold" font-size="12" text-anchor="end" dominant-baseline="middle" transform="rotate(90 745 80)">tapenade</text>
  <text x="780" y="80" fill="white" font-family="sans-serif" font-weight="bold" font-size="12" text-anchor="end" dominant-baseline="middle" transform="rotate(90 780 80)">tensorflow</text>
  <text x="815" y="80" fill="white" font-family="sans-serif" font-weight="bold" font-size="12" text-anchor="end" dominant-baseline="middle" transform="rotate(90 815 80)">tensorflow-js</text>
  <text x="850" y="80" fill="white" font-family="sans-serif" font-weight="bold" font-size="12" text-anchor="end" dominant-baseline="middle" transform="rotate(90 850 80)">zygote</text>
  <rect x="65" y="85" width="30" height="30" fill="hsl(240 100% 80.88772265197728%)" />
  <rect x="100" y="85" width="30" height="30" fill="hsl(240 100% 83.02528447727519%)" />
  <rect x="135" y="85" width="30" height="30" fill="hsl(240 100% 97.99504071071871%)" />
  <rect x="170" y="85" width="30" height="30" fill="hsl(240 100% 82.33751550187705%)" />
  <rect x="205" y="85" width="30" height="30" fill="hsl(240 100% 99.00008273812524%)" />
  <rect x="240" y="85" width="30" height="30" fill="hsl(240 100% 51.96254116857109%)" />
  <rect x="310" y="85" width="30" height="30" fill="hsl(240 100% 93.28145879478865%)" />
  <rect x="415" y="85" width="30" height="30" fill="hsl(240 100% 68.10526543795086%)" />
  <rect x="520" y="85" width="30" height="30" fill="hsl(240 100% 50%)" />
  <rect x="625" y="85" width="30" height="30" fill="rgb(255 255 255 / 50%)" />
  <rect x="730" y="85" width="30" height="30" fill="hsl(240 100% 74.95135984707456%)" />
  <rect x="765" y="85" width="30" height="30" fill="rgb(255 255 255 / 50%)" />
  <rect x="835" y="85" width="30" height="30" fill="hsl(240 100% 99.73033159343069%)" />
  <rect x="65" y="120" width="30" height="30" fill="hsl(240 100% 50%)" />
  <rect x="100" y="120" width="30" height="30" fill="hsl(240 100% 83.93000509571024%)" />
  <rect x="135" y="120" width="30" height="30" fill="hsl(240 100% 86.22180460392744%)" />
  <rect x="170" y="120" width="30" height="30" fill="hsl(240 100% 52.944052956509445%)" />
  <rect x="205" y="120" width="30" height="30" fill="hsl(240 100% 92.56966816753199%)" />
  <rect x="240" y="120" width="30" height="30" fill="hsl(240 100% 91.68423623920623%)" />
  <rect x="275" y="120" width="30" height="30" fill="hsl(240 100% 99.34550597106934%)" />
  <rect x="310" y="120" width="30" height="30" fill="hsl(240 100% 98.99766619751578%)" />
  <rect x="380" y="120" width="30" height="30" fill="hsl(240 100% 93.47955742105236%)" />
  <rect x="415" y="120" width="30" height="30" fill="hsl(240 100% 94.6606889879465%)" />
  <rect x="450" y="120" width="30" height="30" fill="hsl(240 100% 97.96545766496162%)" />
  <rect x="520" y="120" width="30" height="30" fill="hsl(240 100% 79.96157616544626%)" />
  <rect x="555" y="120" width="30" height="30" fill="hsl(240 100% 90.3418078874282%)" />
  <rect x="660" y="120" width="30" height="30" fill="rgb(255 255 255 / 50%)" />
  <rect x="835" y="120" width="30" height="30" fill="rgb(255 255 255 / 50%)" />
  <rect x="65" y="155" width="30" height="30" fill="hsl(240 100% 98.46775638066987%)" />
  <rect x="100" y="155" width="30" height="30" fill="hsl(240 100% 98.76854443460604%)" />
  <rect x="135" y="155" width="30" height="30" fill="hsl(240 100% 99.09980646381888%)" />
  <rect x="170" y="155" width="30" height="30" fill="hsl(240 100% 97.95524771296286%)" />
  <rect x="205" y="155" width="30" height="30" fill="hsl(240 100% 99.84586764252725%)" />
  <rect x="240" y="155" width="30" height="30" fill="hsl(240 100% 91.00803197083428%)" />
  <rect x="275" y="155" width="30" height="30" fill="hsl(240 100% 92.65961335294604%)" />
  <rect x="310" y="155" width="30" height="30" fill="rgb(255 255 255 / 50%)" />
  <rect x="415" y="155" width="30" height="30" fill="hsl(240 100% 92.76623512793033%)" />
  <rect x="485" y="155" width="30" height="30" fill="hsl(240 100% 50%)" />
  <rect x="520" y="155" width="30" height="30" fill="hsl(240 100% 83.09546738921921%)" />
  <rect x="590" y="155" width="30" height="30" fill="hsl(240 100% 99.56772462046021%)" />
  <rect x="625" y="155" width="30" height="30" fill="hsl(240 100% 65.16341702982625%)" />
  <rect x="695" y="155" width="30" height="30" fill="hsl(240 100% 95.26465226044307%)" />
  <rect x="730" y="155" width="30" height="30" fill="hsl(240 100% 83.27946105024513%)" />
  <rect x="765" y="155" width="30" height="30" fill="hsl(240 100% 99.5693968406717%)" />
  <rect x="835" y="155" width="30" height="30" fill="hsl(240 100% 96.24071323593218%)" />
  <rect x="65" y="190" width="30" height="30" fill="hsl(240 100% 50%)" />
  <rect x="100" y="190" width="30" height="30" fill="hsl(240 100% 50%)" />
  <rect x="135" y="190" width="30" height="30" fill="hsl(240 100% 50%)" />
  <rect x="170" y="190" width="30" height="30" fill="hsl(240 100% 50%)" />
  <rect x="205" y="190" width="30" height="30" fill="hsl(240 100% 50%)" />
  <rect x="240" y="190" width="30" height="30" fill="hsl(240 100% 50%)" />
  <rect x="275" y="190" width="30" height="30" fill="hsl(240 100% 50%)" />
  <rect x="310" y="190" width="30" height="30" fill="hsl(240 100% 50%)" />
  <rect x="345" y="190" width="30" height="30" fill="hsl(240 100% 50%)" />
  <rect x="380" y="190" width="30" height="30" fill="hsl(240 100% 50%)" />
  <rect x="415" y="190" width="30" height="30" fill="hsl(240 100% 50%)" />
  <rect x="450" y="190" width="30" height="30" fill="hsl(240 100% 50%)" />
  <rect x="485" y="190" width="30" height="30" fill="hsl(240 100% 50%)" />
  <rect x="520" y="190" width="30" height="30" fill="hsl(240 100% 50%)" />
  <rect x="555" y="190" width="30" height="30" fill="hsl(240 100% 50%)" />
  <rect x="590" y="190" width="30" height="30" fill="hsl(240 100% 50%)" />
  <rect x="625" y="190" width="30" height="30" fill="hsl(240 100% 50%)" />
  <rect x="660" y="190" width="30" height="30" fill="hsl(240 100% 50%)" />
  <rect x="695" y="190" width="30" height="30" fill="hsl(240 100% 50%)" />
  <rect x="730" y="190" width="30" height="30" fill="hsl(240 100% 50%)" />
  <rect x="765" y="190" width="30" height="30" fill="hsl(240 100% 50%)" />
  <rect x="800" y="190" width="30" height="30" fill="hsl(240 100% 50%)" />
  <rect x="835" y="190" width="30" height="30" fill="hsl(240 100% 50%)" />
  <rect x="100" y="225" width="30" height="30" fill="hsl(240 100% 96.75070880035153%)" />
  <rect x="135" y="225" width="30" height="30" fill="hsl(240 100% 89.2927668728053%)" />
  <rect x="170" y="225" width="30" height="30" fill="hsl(240 100% 89.50515236671139%)" />
  <rect x="240" y="225" width="30" height="30" fill="hsl(240 100% 91.42135166856667%)" />
  <rect x="310" y="225" width="30" height="30" fill="rgb(255 255 255 / 50%)" />
  <rect x="415" y="225" width="30" height="30" fill="hsl(240 100% 90.78617118278365%)" />
  <rect x="520" y="225" width="30" height="30" fill="hsl(240 100% 50%)" />
  <rect x="625" y="225" width="30" height="30" fill="rgb(255 255 255 / 50%)" />
  <rect x="730" y="225" width="30" height="30" fill="hsl(240 100% 93.27644980312446%)" />
  <rect x="765" y="225" width="30" height="30" fill="rgb(255 255 255 / 50%)" />
  <rect x="835" y="225" width="30" height="30" fill="hsl(240 100% 94.88684735207937%)" />
  <rect x="65" y="260" width="30" height="30" fill="hsl(240 100% 99.86222152581132%)" />
  <rect x="135" y="260" width="30" height="30" fill="hsl(240 100% 99.85311778798176%)" />
  <rect x="170" y="260" width="30" height="30" fill="hsl(240 100% 98.85049360828785%)" />
  <rect x="205" y="260" width="30" height="30" fill="rgb(255 255 255 / 50%)" />
  <rect x="240" y="260" width="30" height="30" fill="hsl(240 100% 87.05109863851516%)" />
  <rect x="310" y="260" width="30" height="30" fill="rgb(255 255 255 / 50%)" />
  <rect x="415" y="260" width="30" height="30" fill="hsl(240 100% 81.09303916461016%)" />
  <rect x="450" y="260" width="30" height="30" fill="rgb(255 255 255 / 50%)" />
  <rect x="485" y="260" width="30" height="30" fill="hsl(240 100% 50%)" />
  <rect x="520" y="260" width="30" height="30" fill="hsl(240 100% 71.30156472002845%)" />
  <rect x="625" y="260" width="30" height="30" fill="hsl(240 100% 97.04440053673324%)" />
  <rect x="695" y="260" width="30" height="30" fill="hsl(240 100% 94.14759943959966%)" />
  <rect x="65" y="295" width="30" height="30" fill="hsl(240 100% 85.77719069271892%)" />
  <rect x="100" y="295" width="30" height="30" fill="hsl(240 100% 97.50677144302266%)" />
  <rect x="135" y="295" width="30" height="30" fill="hsl(240 100% 94.99651344334808%)" />
  <rect x="170" y="295" width="30" height="30" fill="hsl(240 100% 90.54970585330894%)" />
  <rect x="205" y="295" width="30" height="30" fill="hsl(240 100% 99.46082436887717%)" />
  <rect x="240" y="295" width="30" height="30" fill="hsl(240 100% 50%)" />
  <rect x="275" y="295" width="30" height="30" fill="hsl(240 100% 50.03252701897565%)" />
  <rect x="310" y="295" width="30" height="30" fill="hsl(240 100% 99.49330862116985%)" />
  <rect x="345" y="295" width="30" height="30" fill="hsl(240 100% 94.64918027004019%)" />
  <rect x="415" y="295" width="30" height="30" fill="hsl(240 100% 54.70563686378729%)" />
  <rect x="450" y="295" width="30" height="30" fill="hsl(240 100% 99.33273482999269%)" />
  <rect x="485" y="295" width="30" height="30" fill="hsl(240 100% 88.3955357866616%)" />
  <rect x="520" y="295" width="30" height="30" fill="hsl(240 100% 57.32573900536266%)" />
  <rect x="695" y="295" width="30" height="30" fill="hsl(240 100% 97.57716511657127%)" />
  <rect x="800" y="295" width="30" height="30" fill="hsl(240 100% 99.56656129500892%)" />
  <rect x="835" y="295" width="30" height="30" fill="hsl(240 100% 99.95501003456212%)" />
  <rect x="65" y="330" width="30" height="30" fill="hsl(240 100% 89.15146389206883%)" />
  <rect x="100" y="330" width="30" height="30" fill="hsl(240 100% 94.99831426868239%)" />
  <rect x="135" y="330" width="30" height="30" fill="hsl(240 100% 97.33207517861388%)" />
  <rect x="170" y="330" width="30" height="30" fill="hsl(240 100% 89.02843750704727%)" />
  <rect x="205" y="330" width="30" height="30" fill="hsl(240 100% 99.23109567571365%)" />
  <rect x="240" y="330" width="30" height="30" fill="hsl(240 100% 80.76401126635028%)" />
  <rect x="275" y="330" width="30" height="30" fill="hsl(240 100% 87.74623642909408%)" />
  <rect x="310" y="330" width="30" height="30" fill="rgb(255 255 255 / 50%)" />
  <rect x="345" y="330" width="30" height="30" fill="hsl(240 100% 97.33579601856069%)" />
  <rect x="415" y="330" width="30" height="30" fill="hsl(240 100% 86.5346044410526%)" />
  <rect x="450" y="330" width="30" height="30" fill="hsl(240 100% 99.82624588458964%)" />
  <rect x="485" y="330" width="30" height="30" fill="hsl(240 100% 72.86198266882354%)" />
  <rect x="520" y="330" width="30" height="30" fill="hsl(240 100% 77.49541487694003%)" />
  <rect x="590" y="330" width="30" height="30" fill="hsl(240 100% 94.040323121319%)" />
  <rect x="625" y="330" width="30" height="30" fill="hsl(240 100% 50%)" />
  <rect x="765" y="330" width="30" height="30" fill="hsl(240 100% 94.56647557535344%)" />
  <rect x="800" y="330" width="30" height="30" fill="hsl(240 100% 99.25770722731167%)" />
  <rect x="835" y="330" width="30" height="30" fill="hsl(240 100% 81.1837566663093%)" />
  <rect x="65" y="365" width="30" height="30" fill="hsl(240 100% 57.27597662261516%)" />
  <rect x="100" y="365" width="30" height="30" fill="hsl(240 100% 72.16682205037911%)" />
  <rect x="135" y="365" width="30" height="30" fill="hsl(240 100% 82.20788546876844%)" />
  <rect x="170" y="365" width="30" height="30" fill="hsl(240 100% 50%)" />
  <rect x="205" y="365" width="30" height="30" fill="hsl(240 100% 96.20367635511472%)" />
  <rect x="240" y="365" width="30" height="30" fill="hsl(240 100% 59.31449880447629%)" />
  <rect x="275" y="365" width="30" height="30" fill="hsl(240 100% 92.07271322883265%)" />
  <rect x="310" y="365" width="30" height="30" fill="hsl(240 100% 99.86211695522121%)" />
  <rect x="415" y="365" width="30" height="30" fill="hsl(240 100% 66.86918574595086%)" />
  <rect x="520" y="365" width="30" height="30" fill="hsl(240 100% 85.830617918503%)" />
  <rect x="625" y="365" width="30" height="30" fill="hsl(240 100% 99.62990135422102%)" />
  <rect x="730" y="365" width="30" height="30" fill="hsl(240 100% 63.5505693145688%)" />
  <rect x="765" y="365" width="30" height="30" fill="hsl(240 100% 98.15806429799963%)" />
  <rect x="835" y="365" width="30" height="30" fill="hsl(240 100% 98.72198238640179%)" />
  <rect x="65" y="400" width="30" height="30" fill="hsl(240 100% 97.77154328967336%)" />
  <rect x="100" y="400" width="30" height="30" fill="hsl(240 100% 99.26757731329987%)" />
  <rect x="135" y="400" width="30" height="30" fill="hsl(240 100% 99.60457126072944%)" />
  <rect x="170" y="400" width="30" height="30" fill="hsl(240 100% 94.3002469268466%)" />
  <rect x="205" y="400" width="30" height="30" fill="hsl(240 100% 99.06640220379468%)" />
  <rect x="240" y="400" width="30" height="30" fill="hsl(240 100% 84.99718128616796%)" />
  <rect x="275" y="400" width="30" height="30" fill="hsl(240 100% 94.36292131661853%)" />
  <rect x="310" y="400" width="30" height="30" fill="rgb(255 255 255 / 50%)" />
  <rect x="380" y="400" width="30" height="30" fill="rgb(255 255 255 / 50%)" />
  <rect x="415" y="400" width="30" height="30" fill="hsl(240 100% 92.69463557242028%)" />
  <rect x="450" y="400" width="30" height="30" fill="hsl(240 100% 99.96856335904626%)" />
  <rect x="485" y="400" width="30" height="30" fill="hsl(240 100% 74.65091976416647%)" />
  <rect x="520" y="400" width="30" height="30" fill="hsl(240 100% 50%)" />
  <rect x="555" y="400" width="30" height="30" fill="hsl(240 100% 98.91785307910487%)" />
  <rect x="660" y="400" width="30" height="30" fill="rgb(255 255 255 / 50%)" />
  <rect x="835" y="400" width="30" height="30" fill="hsl(240 100% 98.89449349620516%)" />
  <rect x="65" y="435" width="30" height="30" fill="hsl(240 100% 92.89614326949756%)" />
  <rect x="240" y="435" width="30" height="30" fill="hsl(240 100% 50%)" />
  <rect x="310" y="435" width="30" height="30" fill="hsl(240 100% 94.20788351143806%)" />
  <rect x="415" y="435" width="30" height="30" fill="hsl(240 100% 87.05047554182322%)" />
  <rect x="450" y="435" width="30" height="30" fill="hsl(240 100% 99.79338030232704%)" />
  <rect x="65" y="470" width="30" height="30" fill="hsl(240 100% 50%)" />
  <rect x="240" y="470" width="30" height="30" fill="hsl(240 100% 50.16632839675312%)" />
  <rect x="310" y="470" width="30" height="30" fill="hsl(240 100% 97.149550778541%)" />
  <rect x="415" y="470" width="30" height="30" fill="hsl(240 100% 89.0662813286938%)" />
  <rect x="450" y="470" width="30" height="30" fill="hsl(240 100% 99.57349590725654%)" />
</svg>
