<svg xmlns="http://www.w3.org/2000/svg" viewBox="0 0 730 505">
  <rect x="0" y="0" width="730" height="505" rx="5" ry="5" fill="#222" />
  <text x="60" y="100" fill="white" font-family="sans-serif" font-weight="bold" font-size="12" text-anchor="end" dominant-baseline="middle">ba</text>
  <text x="60" y="135" fill="white" font-family="sans-serif" font-weight="bold" font-size="12" text-anchor="end" dominant-baseline="middle">det</text>
  <text x="60" y="170" fill="white" font-family="sans-serif" font-weight="bold" font-size="12" text-anchor="end" dominant-baseline="middle">gmm</text>
  <text x="60" y="205" fill="white" font-family="sans-serif" font-weight="bold" font-size="12" text-anchor="end" dominant-baseline="middle">hello</text>
  <text x="60" y="240" fill="white" font-family="sans-serif" font-weight="bold" font-size="12" text-anchor="end" dominant-baseline="middle">ht</text>
  <text x="60" y="275" fill="white" font-family="sans-serif" font-weight="bold" font-size="12" text-anchor="end" dominant-baseline="middle">kmeans</text>
  <text x="60" y="310" fill="white" font-family="sans-serif" font-weight="bold" font-size="12" text-anchor="end" dominant-baseline="middle">llsq</text>
  <text x="60" y="345" fill="white" font-family="sans-serif" font-weight="bold" font-size="12" text-anchor="end" dominant-baseline="middle">lse</text>
  <text x="60" y="380" fill="white" font-family="sans-serif" font-weight="bold" font-size="12" text-anchor="end" dominant-baseline="middle">lstm</text>
  <text x="60" y="415" fill="white" font-family="sans-serif" font-weight="bold" font-size="12" text-anchor="end" dominant-baseline="middle">ode</text>
  <text x="60" y="450" fill="white" font-family="sans-serif" font-weight="bold" font-size="12" text-anchor="end" dominant-baseline="middle">particle</text>
  <text x="60" y="485" fill="white" font-family="sans-serif" font-weight="bold" font-size="12" text-anchor="end" dominant-baseline="middle">saddle</text>
  <text x="80" y="80" fill="white" font-family="sans-serif" font-weight="bold" font-size="12" text-anchor="end" dominant-baseline="middle" transform="rotate(90 80 80)">ad-hpp</text>
  <text x="115" y="80" fill="white" font-family="sans-serif" font-weight="bold" font-size="12" text-anchor="end" dominant-baseline="middle" transform="rotate(90 115 80)">adept</text>
  <text x="150" y="80" fill="white" font-family="sans-serif" font-weight="bold" font-size="12" text-anchor="end" dominant-baseline="middle" transform="rotate(90 150 80)">adol-c</text>
  <text x="185" y="80" fill="white" font-family="sans-serif" font-weight="bold" font-size="12" text-anchor="end" dominant-baseline="middle" transform="rotate(90 185 80)">codipack</text>
  <text x="220" y="80" fill="white" font-family="sans-serif" font-weight="bold" font-size="12" text-anchor="end" dominant-baseline="middle" transform="rotate(90 220 80)">cppad</text>
  <text x="255" y="80" fill="white" font-family="sans-serif" font-weight="bold" font-size="12" text-anchor="end" dominant-baseline="middle" transform="rotate(90 255 80)">enzyme</text>
  <text x="290" y="80" fill="white" font-family="sans-serif" font-weight="bold" font-size="12" text-anchor="end" dominant-baseline="middle" transform="rotate(90 290 80)">enzyme-jl</text>
  <text x="325" y="80" fill="white" font-family="sans-serif" font-weight="bold" font-size="12" text-anchor="end" dominant-baseline="middle" transform="rotate(90 325 80)">finite</text>
  <text x="360" y="80" fill="white" font-family="sans-serif" font-weight="bold" font-size="12" text-anchor="end" dominant-baseline="middle" transform="rotate(90 360 80)">floretta</text>
  <text x="395" y="80" fill="white" font-family="sans-serif" font-weight="bold" font-size="12" text-anchor="end" dominant-baseline="middle" transform="rotate(90 395 80)">futhark</text>
  <text x="430" y="80" fill="white" font-family="sans-serif" font-weight="bold" font-size="12" text-anchor="end" dominant-baseline="middle" transform="rotate(90 430 80)">haskell</text>
  <text x="465" y="80" fill="white" font-family="sans-serif" font-weight="bold" font-size="12" text-anchor="end" dominant-baseline="middle" transform="rotate(90 465 80)">jax</text>
  <text x="500" y="80" fill="white" font-family="sans-serif" font-weight="bold" font-size="12" text-anchor="end" dominant-baseline="middle" transform="rotate(90 500 80)">manual</text>
  <text x="535" y="80" fill="white" font-family="sans-serif" font-weight="bold" font-size="12" text-anchor="end" dominant-baseline="middle" transform="rotate(90 535 80)">ocaml</text>
  <text x="570" y="80" fill="white" font-family="sans-serif" font-weight="bold" font-size="12" text-anchor="end" dominant-baseline="middle" transform="rotate(90 570 80)">pytorch</text>
  <text x="605" y="80" fill="white" font-family="sans-serif" font-weight="bold" font-size="12" text-anchor="end" dominant-baseline="middle" transform="rotate(90 605 80)">scilean</text>
  <text x="640" y="80" fill="white" font-family="sans-serif" font-weight="bold" font-size="12" text-anchor="end" dominant-baseline="middle" transform="rotate(90 640 80)">tapenade</text>
  <text x="675" y="80" fill="white" font-family="sans-serif" font-weight="bold" font-size="12" text-anchor="end" dominant-baseline="middle" transform="rotate(90 675 80)">tensorflow</text>
  <text x="710" y="80" fill="white" font-family="sans-serif" font-weight="bold" font-size="12" text-anchor="end" dominant-baseline="middle" transform="rotate(90 710 80)">zygote</text>
  <rect x="65" y="85" width="30" height="30" fill="hsl(240 100% 78.30172841666793%)" />
  <rect x="100" y="85" width="30" height="30" fill="hsl(240 100% 84.7973754826102%)" />
  <rect x="135" y="85" width="30" height="30" fill="hsl(240 100% 97.81168161006326%)" />
  <rect x="170" y="85" width="30" height="30" fill="hsl(240 100% 89.36849427178738%)" />
  <rect x="205" y="85" width="30" height="30" fill="hsl(240 100% 98.90500222464047%)" />
  <rect x="240" y="85" width="30" height="30" fill="hsl(240 100% 51.1498327141377%)" />
  <rect x="310" y="85" width="30" height="30" fill="hsl(240 100% 92.70410012834873%)" />
  <rect x="380" y="85" width="30" height="30" fill="hsl(240 100% 68.56791395406037%)" />
  <rect x="485" y="85" width="30" height="30" fill="hsl(240 100% 50%)" />
  <rect x="555" y="85" width="30" height="30" fill="rgb(255 255 255 / 50%)" />
  <rect x="625" y="85" width="30" height="30" fill="hsl(240 100% 72.68139243793492%)" />
  <rect x="660" y="85" width="30" height="30" fill="rgb(255 255 255 / 50%)" />
  <rect x="695" y="85" width="30" height="30" fill="hsl(240 100% 99.70391322963822%)" />
  <rect x="65" y="120" width="30" height="30" fill="hsl(240 100% 50%)" />
  <rect x="100" y="120" width="30" height="30" fill="hsl(240 100% 84.56392026242092%)" />
  <rect x="135" y="120" width="30" height="30" fill="hsl(240 100% 85.60487024193836%)" />
  <rect x="170" y="120" width="30" height="30" fill="hsl(240 100% 52.463480251492406%)" />
  <rect x="205" y="120" width="30" height="30" fill="hsl(240 100% 92.8501247875129%)" />
  <rect x="240" y="120" width="30" height="30" fill="hsl(240 100% 91.89600110504824%)" />
  <rect x="275" y="120" width="30" height="30" fill="hsl(240 100% 99.23295337509555%)" />
  <rect x="310" y="120" width="30" height="30" fill="hsl(240 100% 99.00780302416787%)" />
  <rect x="380" y="120" width="30" height="30" fill="hsl(240 100% 94.79254392828673%)" />
  <rect x="415" y="120" width="30" height="30" fill="hsl(240 100% 97.99772923527019%)" />
  <rect x="485" y="120" width="30" height="30" fill="hsl(240 100% 79.88752511430185%)" />
  <rect x="695" y="120" width="30" height="30" fill="rgb(255 255 255 / 50%)" />
  <rect x="65" y="155" width="30" height="30" fill="hsl(240 100% 97.71628769344566%)" />
  <rect x="100" y="155" width="30" height="30" fill="hsl(240 100% 98.32345496493254%)" />
  <rect x="135" y="155" width="30" height="30" fill="hsl(240 100% 98.86800143996564%)" />
  <rect x="170" y="155" width="30" height="30" fill="hsl(240 100% 97.28749799330284%)" />
  <rect x="205" y="155" width="30" height="30" fill="hsl(240 100% 99.77514792262347%)" />
  <rect x="240" y="155" width="30" height="30" fill="hsl(240 100% 87.21306952742478%)" />
  <rect x="275" y="155" width="30" height="30" fill="hsl(240 100% 99.8351188458813%)" />
  <rect x="310" y="155" width="30" height="30" fill="rgb(255 255 255 / 50%)" />
  <rect x="380" y="155" width="30" height="30" fill="hsl(240 100% 90.14091642621086%)" />
  <rect x="450" y="155" width="30" height="30" fill="hsl(240 100% 71.82968527244384%)" />
  <rect x="485" y="155" width="30" height="30" fill="hsl(240 100% 75.99400896950351%)" />
  <rect x="520" y="155" width="30" height="30" fill="hsl(240 100% 99.3700301287325%)" />
  <rect x="555" y="155" width="30" height="30" fill="hsl(240 100% 50%)" />
  <rect x="590" y="155" width="30" height="30" fill="hsl(240 100% 92.77142194264583%)" />
  <rect x="625" y="155" width="30" height="30" fill="hsl(240 100% 76.74639415681465%)" />
  <rect x="660" y="155" width="30" height="30" fill="hsl(240 100% 89.05435092295772%)" />
  <rect x="695" y="155" width="30" height="30" fill="hsl(240 100% 99.38299616098568%)" />
  <rect x="65" y="190" width="30" height="30" fill="hsl(240 100% 50%)" />
  <rect x="100" y="190" width="30" height="30" fill="hsl(240 100% 50%)" />
  <rect x="135" y="190" width="30" height="30" fill="hsl(240 100% 50%)" />
  <rect x="170" y="190" width="30" height="30" fill="hsl(240 100% 50%)" />
  <rect x="205" y="190" width="30" height="30" fill="hsl(240 100% 50%)" />
  <rect x="240" y="190" width="30" height="30" fill="hsl(240 100% 50%)" />
  <rect x="275" y="190" width="30" height="30" fill="hsl(240 100% 50%)" />
  <rect x="310" y="190" width="30" height="30" fill="hsl(240 100% 50%)" />
  <rect x="345" y="190" width="30" height="30" fill="hsl(240 100% 50%)" />
  <rect x="380" y="190" width="30" height="30" fill="hsl(240 100% 50%)" />
  <rect x="415" y="190" width="30" height="30" fill="hsl(240 100% 50%)" />
  <rect x="450" y="190" width="30" height="30" fill="hsl(240 100% 50%)" />
  <rect x="485" y="190" width="30" height="30" fill="hsl(240 100% 50%)" />
  <rect x="520" y="190" width="30" height="30" fill="hsl(240 100% 50%)" />
  <rect x="555" y="190" width="30" height="30" fill="hsl(240 100% 50%)" />
  <rect x="590" y="190" width="30" height="30" fill="hsl(240 100% 50%)" />
  <rect x="625" y="190" width="30" height="30" fill="hsl(240 100% 50%)" />
  <rect x="660" y="190" width="30" height="30" fill="hsl(240 100% 50%)" />
  <rect x="695" y="190" width="30" height="30" fill="hsl(240 100% 50%)" />
  <rect x="100" y="225" width="30" height="30" fill="hsl(240 100% 96.04651021341748%)" />
  <rect x="135" y="225" width="30" height="30" fill="hsl(240 100% 90.42701809274233%)" />
  <rect x="170" y="225" width="30" height="30" fill="hsl(240 100% 88.41741817782099%)" />
  <rect x="240" y="225" width="30" height="30" fill="hsl(240 100% 90.28624228979551%)" />
  <rect x="310" y="225" width="30" height="30" fill="rgb(255 255 255 / 50%)" />
  <rect x="380" y="225" width="30" height="30" fill="hsl(240 100% 89.67959193270801%)" />
  <rect x="485" y="225" width="30" height="30" fill="hsl(240 100% 50%)" />
  <rect x="555" y="225" width="30" height="30" fill="rgb(255 255 255 / 50%)" />
  <rect x="625" y="225" width="30" height="30" fill="rgb(255 255 255 / 50%)" />
  <rect x="660" y="225" width="30" height="30" fill="rgb(255 255 255 / 50%)" />
  <rect x="695" y="225" width="30" height="30" fill="hsl(240 100% 99.42381073152234%)" />
  <rect x="135" y="260" width="30" height="30" fill="hsl(240 100% 99.88630434950464%)" />
  <rect x="170" y="260" width="30" height="30" fill="hsl(240 100% 99.34315071796813%)" />
  <rect x="205" y="260" width="30" height="30" fill="rgb(255 255 255 / 50%)" />
  <rect x="240" y="260" width="30" height="30" fill="hsl(240 100% 87.48648582739844%)" />
  <rect x="310" y="260" width="30" height="30" fill="rgb(255 255 255 / 50%)" />
  <rect x="380" y="260" width="30" height="30" fill="hsl(240 100% 82.66601432738884%)" />
  <rect x="415" y="260" width="30" height="30" fill="rgb(255 255 255 / 50%)" />
  <rect x="450" y="260" width="30" height="30" fill="hsl(240 100% 50%)" />
  <rect x="485" y="260" width="30" height="30" fill="hsl(240 100% 76.02438015510994%)" />
  <rect x="555" y="260" width="30" height="30" fill="hsl(240 100% 96.98478250836703%)" />
  <rect x="590" y="260" width="30" height="30" fill="hsl(240 100% 94.00380758633653%)" />
  <rect x="65" y="295" width="30" height="30" fill="hsl(240 100% 58.67177155124256%)" />
  <rect x="100" y="295" width="30" height="30" fill="hsl(240 100% 66.5442137487065%)" />
  <rect x="135" y="295" width="30" height="30" fill="hsl(240 100% 59.02209795747863%)" />
  <rect x="170" y="295" width="30" height="30" fill="hsl(240 100% 59.91340469376751%)" />
  <rect x="205" y="295" width="30" height="30" fill="hsl(240 100% 91.51270118003211%)" />
  <rect x="240" y="295" width="30" height="30" fill="hsl(240 100% 50%)" />
  <rect x="275" y="295" width="30" height="30" fill="hsl(240 100% 98.88390433037881%)" />
  <rect x="310" y="295" width="30" height="30" fill="hsl(240 100% 99.42670682951166%)" />
  <rect x="380" y="295" width="30" height="30" fill="hsl(240 100% 50.473448004773054%)" />
  <rect x="415" y="295" width="30" height="30" fill="hsl(240 100% 89.74959216606831%)" />
  <rect x="485" y="295" width="30" height="30" fill="hsl(240 100% 53.4224697051221%)" />
  <rect x="590" y="295" width="30" height="30" fill="hsl(240 100% 55.26608404067076%)" />
  <rect x="695" y="295" width="30" height="30" fill="hsl(240 100% 99.72627957254812%)" />
  <rect x="65" y="330" width="30" height="30" fill="hsl(240 100% 89.16054550627486%)" />
  <rect x="100" y="330" width="30" height="30" fill="hsl(240 100% 94.55667051786712%)" />
  <rect x="135" y="330" width="30" height="30" fill="hsl(240 100% 97.24977452589816%)" />
  <rect x="170" y="330" width="30" height="30" fill="hsl(240 100% 89.3497550217578%)" />
  <rect x="205" y="330" width="30" height="30" fill="hsl(240 100% 99.21474613778986%)" />
  <rect x="240" y="330" width="30" height="30" fill="hsl(240 100% 81.7768394369132%)" />
  <rect x="275" y="330" width="30" height="30" fill="hsl(240 100% 99.82461895758209%)" />
  <rect x="310" y="330" width="30" height="30" fill="rgb(255 255 255 / 50%)" />
  <rect x="380" y="330" width="30" height="30" fill="hsl(240 100% 86.13167676960714%)" />
  <rect x="415" y="330" width="30" height="30" fill="hsl(240 100% 99.81980351332453%)" />
  <rect x="450" y="330" width="30" height="30" fill="hsl(240 100% 70.99467151090545%)" />
  <rect x="485" y="330" width="30" height="30" fill="hsl(240 100% 78.83757227219539%)" />
  <rect x="520" y="330" width="30" height="30" fill="hsl(240 100% 93.80525138585423%)" />
  <rect x="555" y="330" width="30" height="30" fill="hsl(240 100% 50%)" />
  <rect x="660" y="330" width="30" height="30" fill="hsl(240 100% 88.75358759523537%)" />
  <rect x="695" y="330" width="30" height="30" fill="hsl(240 100% 95.60374501364679%)" />
  <rect x="65" y="365" width="30" height="30" fill="hsl(240 100% 53.11982225455563%)" />
  <rect x="100" y="365" width="30" height="30" fill="hsl(240 100% 68.9141416968514%)" />
  <rect x="135" y="365" width="30" height="30" fill="hsl(240 100% 80.71712351069743%)" />
  <rect x="170" y="365" width="30" height="30" fill="hsl(240 100% 50%)" />
  <rect x="205" y="365" width="30" height="30" fill="hsl(240 100% 95.83532693155895%)" />
  <rect x="240" y="365" width="30" height="30" fill="hsl(240 100% 50.91544663833297%)" />
  <rect x="310" y="365" width="30" height="30" fill="hsl(240 100% 99.8517070056135%)" />
  <rect x="380" y="365" width="30" height="30" fill="hsl(240 100% 63.3055974305212%)" />
  <rect x="485" y="365" width="30" height="30" fill="hsl(240 100% 84.62156734017566%)" />
  <rect x="555" y="365" width="30" height="30" fill="hsl(240 100% 99.60633316132727%)" />
  <rect x="625" y="365" width="30" height="30" fill="hsl(240 100% 58.579963096658076%)" />
  <rect x="660" y="365" width="30" height="30" fill="hsl(240 100% 97.9942322584393%)" />
  <rect x="695" y="365" width="30" height="30" fill="hsl(240 100% 99.07649141576252%)" />
  <rect x="65" y="400" width="30" height="30" fill="hsl(240 100% 97.8960469436883%)" />
  <rect x="100" y="400" width="30" height="30" fill="hsl(240 100% 99.34867832088429%)" />
  <rect x="135" y="400" width="30" height="30" fill="hsl(240 100% 99.61232277090012%)" />
  <rect x="170" y="400" width="30" height="30" fill="hsl(240 100% 94.60973809606136%)" />
  <rect x="205" y="400" width="30" height="30" fill="hsl(240 100% 99.12734713493431%)" />
  <rect x="240" y="400" width="30" height="30" fill="hsl(240 100% 87.62145604820118%)" />
  <rect x="275" y="400" width="30" height="30" fill="hsl(240 100% 99.14568801235308%)" />
  <rect x="310" y="400" width="30" height="30" fill="rgb(255 255 255 / 50%)" />
  <rect x="380" y="400" width="30" height="30" fill="hsl(240 100% 96.01834782701282%)" />
  <rect x="415" y="400" width="30" height="30" fill="hsl(240 100% 99.97148082145175%)" />
  <rect x="485" y="400" width="30" height="30" fill="hsl(240 100% 50%)" />
  <rect x="240" y="435" width="30" height="30" fill="hsl(240 100% 50%)" />
  <rect x="310" y="435" width="30" height="30" fill="hsl(240 100% 95.21243260999374%)" />
  <rect x="380" y="435" width="30" height="30" fill="hsl(240 100% 87.90346337736399%)" />
  <rect x="415" y="435" width="30" height="30" fill="hsl(240 100% 99.78148507048675%)" />
  <rect x="240" y="470" width="30" height="30" fill="hsl(240 100% 50%)" />
  <rect x="310" y="470" width="30" height="30" fill="hsl(240 100% 95.81161084143612%)" />
  <rect x="380" y="470" width="30" height="30" fill="hsl(240 100% 89.21483890156064%)" />
  <rect x="415" y="470" width="30" height="30" fill="hsl(240 100% 99.56222956398285%)" />
</svg>
