<svg xmlns="http://www.w3.org/2000/svg" viewBox="0 0 660 295">
  <rect x="0" y="0" width="660" height="295" rx="5" ry="5" fill="#222" />
  <text x="60" y="100" fill="white" font-family="sans-serif" font-weight="bold" font-size="12" text-anchor="end" dominant-baseline="middle">ba</text>
  <text x="60" y="135" fill="white" font-family="sans-serif" font-weight="bold" font-size="12" text-anchor="end" dominant-baseline="middle">gmm</text>
  <text x="60" y="170" fill="white" font-family="sans-serif" font-weight="bold" font-size="12" text-anchor="end" dominant-baseline="middle">hello</text>
  <text x="60" y="205" fill="white" font-family="sans-serif" font-weight="bold" font-size="12" text-anchor="end" dominant-baseline="middle">ht</text>
  <text x="60" y="240" fill="white" font-family="sans-serif" font-weight="bold" font-size="12" text-anchor="end" dominant-baseline="middle">kmeans</text>
  <text x="60" y="275" fill="white" font-family="sans-serif" font-weight="bold" font-size="12" text-anchor="end" dominant-baseline="middle">lstm</text>
  <text x="80" y="80" fill="white" font-family="sans-serif" font-weight="bold" font-size="12" text-anchor="end" dominant-baseline="middle" transform="rotate(90 80 80)">adept</text>
  <text x="115" y="80" fill="white" font-family="sans-serif" font-weight="bold" font-size="12" text-anchor="end" dominant-baseline="middle" transform="rotate(90 115 80)">adol-c</text>
  <text x="150" y="80" fill="white" font-family="sans-serif" font-weight="bold" font-size="12" text-anchor="end" dominant-baseline="middle" transform="rotate(90 150 80)">codipack</text>
  <text x="185" y="80" fill="white" font-family="sans-serif" font-weight="bold" font-size="12" text-anchor="end" dominant-baseline="middle" transform="rotate(90 185 80)">cppad</text>
  <text x="220" y="80" fill="white" font-family="sans-serif" font-weight="bold" font-size="12" text-anchor="end" dominant-baseline="middle" transform="rotate(90 220 80)">enzyme</text>
  <text x="255" y="80" fill="white" font-family="sans-serif" font-weight="bold" font-size="12" text-anchor="end" dominant-baseline="middle" transform="rotate(90 255 80)">finite</text>
  <text x="290" y="80" fill="white" font-family="sans-serif" font-weight="bold" font-size="12" text-anchor="end" dominant-baseline="middle" transform="rotate(90 290 80)">floretta</text>
  <text x="325" y="80" fill="white" font-family="sans-serif" font-weight="bold" font-size="12" text-anchor="end" dominant-baseline="middle" transform="rotate(90 325 80)">futhark</text>
  <text x="360" y="80" fill="white" font-family="sans-serif" font-weight="bold" font-size="12" text-anchor="end" dominant-baseline="middle" transform="rotate(90 360 80)">haskell</text>
  <text x="395" y="80" fill="white" font-family="sans-serif" font-weight="bold" font-size="12" text-anchor="end" dominant-baseline="middle" transform="rotate(90 395 80)">jax</text>
  <text x="430" y="80" fill="white" font-family="sans-serif" font-weight="bold" font-size="12" text-anchor="end" dominant-baseline="middle" transform="rotate(90 430 80)">manual</text>
  <text x="465" y="80" fill="white" font-family="sans-serif" font-weight="bold" font-size="12" text-anchor="end" dominant-baseline="middle" transform="rotate(90 465 80)">ocaml</text>
  <text x="500" y="80" fill="white" font-family="sans-serif" font-weight="bold" font-size="12" text-anchor="end" dominant-baseline="middle" transform="rotate(90 500 80)">pytorch</text>
  <text x="535" y="80" fill="white" font-family="sans-serif" font-weight="bold" font-size="12" text-anchor="end" dominant-baseline="middle" transform="rotate(90 535 80)">scilean</text>
  <text x="570" y="80" fill="white" font-family="sans-serif" font-weight="bold" font-size="12" text-anchor="end" dominant-baseline="middle" transform="rotate(90 570 80)">tapenade</text>
  <text x="605" y="80" fill="white" font-family="sans-serif" font-weight="bold" font-size="12" text-anchor="end" dominant-baseline="middle" transform="rotate(90 605 80)">tensorflow</text>
  <text x="640" y="80" fill="white" font-family="sans-serif" font-weight="bold" font-size="12" text-anchor="end" dominant-baseline="middle" transform="rotate(90 640 80)">zygote</text>
  <rect x="65" y="85" width="30" height="30" fill="hsl(240 100% 84.60728456875859%)" />
  <rect x="100" y="85" width="30" height="30" fill="hsl(240 100% 98.0283630227427%)" />
  <rect x="135" y="85" width="30" height="30" fill="hsl(240 100% 89.54153293381805%)" />
  <rect x="205" y="85" width="30" height="30" fill="hsl(240 100% 50.37071195896796%)" />
  <rect x="240" y="85" width="30" height="30" fill="hsl(240 100% 91.97201362632488%)" />
  <rect x="310" y="85" width="30" height="30" fill="hsl(240 100% 76.23564390236407%)" />
  <rect x="415" y="85" width="30" height="30" fill="hsl(240 100% 50%)" />
  <rect x="485" y="85" width="30" height="30" fill="hsl(240 100% 99.99194828964444%)" />
  <rect x="555" y="85" width="30" height="30" fill="hsl(240 100% 73.78387276550382%)" />
  <rect x="590" y="85" width="30" height="30" fill="hsl(240 100% 99.98440437414837%)" />
  <rect x="65" y="120" width="30" height="30" fill="hsl(240 100% 96.95696874549436%)" />
  <rect x="100" y="120" width="30" height="30" fill="hsl(240 100% 97.50221297897393%)" />
  <rect x="135" y="120" width="30" height="30" fill="hsl(240 100% 79.65438639424818%)" />
  <rect x="170" y="120" width="30" height="30" fill="hsl(240 100% 98.27231155909725%)" />
  <rect x="205" y="120" width="30" height="30" fill="hsl(240 100% 84.2953026129759%)" />
  <rect x="240" y="120" width="30" height="30" fill="hsl(240 100% 99.99516782550326%)" />
  <rect x="310" y="120" width="30" height="30" fill="hsl(240 100% 82.93421530194907%)" />
  <rect x="380" y="120" width="30" height="30" fill="hsl(240 100% 75.22307273962562%)" />
  <rect x="415" y="120" width="30" height="30" fill="hsl(240 100% 64.38115192763439%)" />
  <rect x="450" y="120" width="30" height="30" fill="hsl(240 100% 99.37782430562854%)" />
  <rect x="485" y="120" width="30" height="30" fill="hsl(240 100% 50%)" />
  <rect x="520" y="120" width="30" height="30" fill="hsl(240 100% 93.45812057901391%)" />
  <rect x="555" y="120" width="30" height="30" fill="hsl(240 100% 68.00523197692364%)" />
  <rect x="590" y="120" width="30" height="30" fill="hsl(240 100% 85.9373476672854%)" />
  <rect x="65" y="155" width="30" height="30" fill="hsl(240 100% 50%)" />
  <rect x="100" y="155" width="30" height="30" fill="hsl(240 100% 50%)" />
  <rect x="135" y="155" width="30" height="30" fill="hsl(240 100% 50%)" />
  <rect x="170" y="155" width="30" height="30" fill="hsl(240 100% 50%)" />
  <rect x="205" y="155" width="30" height="30" fill="hsl(240 100% 50%)" />
  <rect x="240" y="155" width="30" height="30" fill="hsl(240 100% 50%)" />
  <rect x="275" y="155" width="30" height="30" fill="hsl(240 100% 50%)" />
  <rect x="310" y="155" width="30" height="30" fill="hsl(240 100% 50%)" />
  <rect x="345" y="155" width="30" height="30" fill="hsl(240 100% 50%)" />
  <rect x="380" y="155" width="30" height="30" fill="hsl(240 100% 50%)" />
  <rect x="415" y="155" width="30" height="30" fill="hsl(240 100% 50%)" />
  <rect x="450" y="155" width="30" height="30" fill="hsl(240 100% 50%)" />
  <rect x="485" y="155" width="30" height="30" fill="hsl(240 100% 50%)" />
  <rect x="520" y="155" width="30" height="30" fill="hsl(240 100% 50%)" />
  <rect x="555" y="155" width="30" height="30" fill="hsl(240 100% 50%)" />
  <rect x="590" y="155" width="30" height="30" fill="hsl(240 100% 50%)" />
  <rect x="625" y="155" width="30" height="30" fill="hsl(240 100% 50%)" />
  <rect x="65" y="190" width="30" height="30" fill="hsl(240 100% 96.96897296942115%)" />
  <rect x="100" y="190" width="30" height="30" fill="hsl(240 100% 97.87789525422968%)" />
  <rect x="135" y="190" width="30" height="30" fill="hsl(240 100% 93.58363898066207%)" />
  <rect x="205" y="190" width="30" height="30" fill="hsl(240 100% 94.79616572188156%)" />
  <rect x="240" y="190" width="30" height="30" fill="hsl(240 100% 99.12998561238383%)" />
  <rect x="310" y="190" width="30" height="30" fill="hsl(240 100% 93.89917777509129%)" />
  <rect x="415" y="190" width="30" height="30" fill="hsl(240 100% 50%)" />
  <rect x="485" y="190" width="30" height="30" fill="hsl(240 100% 99.96732817007432%)" />
  <rect x="555" y="190" width="30" height="30" fill="hsl(240 100% 99.38152145765991%)" />
  <rect x="590" y="190" width="30" height="30" fill="hsl(240 100% 99.45569387328771%)" />
  <rect x="100" y="225" width="30" height="30" fill="hsl(240 100% 99.88027394951821%)" />
  <rect x="135" y="225" width="30" height="30" fill="hsl(240 100% 99.41712015112766%)" />
  <rect x="205" y="225" width="30" height="30" fill="hsl(240 100% 87.72722144328672%)" />
  <rect x="310" y="225" width="30" height="30" fill="hsl(240 100% 83.11878991573025%)" />
  <rect x="345" y="225" width="30" height="30" fill="hsl(240 100% 99.99182520183213%)" />
  <rect x="380" y="225" width="30" height="30" fill="hsl(240 100% 50%)" />
  <rect x="415" y="225" width="30" height="30" fill="hsl(240 100% 77.00125956910291%)" />
  <rect x="485" y="225" width="30" height="30" fill="hsl(240 100% 85.4551670285799%)" />
  <rect x="65" y="260" width="30" height="30" fill="hsl(240 100% 78.31786990903177%)" />
  <rect x="100" y="260" width="30" height="30" fill="hsl(240 100% 86.15281418486502%)" />
  <rect x="135" y="260" width="30" height="30" fill="hsl(240 100% 50%)" />
  <rect x="170" y="260" width="30" height="30" fill="hsl(240 100% 91.97252227016993%)" />
  <rect x="205" y="260" width="30" height="30" fill="hsl(240 100% 65.30669224355697%)" />
  <rect x="240" y="260" width="30" height="30" fill="hsl(240 100% 99.8598679545262%)" />
  <rect x="310" y="260" width="30" height="30" fill="hsl(240 100% 74.3081616649598%)" />
  <rect x="415" y="260" width="30" height="30" fill="hsl(240 100% 84.98670376052544%)" />
  <rect x="485" y="260" width="30" height="30" fill="hsl(240 100% 99.75923135154213%)" />
  <rect x="555" y="260" width="30" height="30" fill="hsl(240 100% 71.80638279959615%)" />
  <rect x="590" y="260" width="30" height="30" fill="hsl(240 100% 98.6574152923554%)" />
</svg>
