<svg xmlns="http://www.w3.org/2000/svg" viewBox="0 0 870 505">
  <rect x="0" y="0" width="870" height="505" rx="5" ry="5" fill="#222" />
  <text x="60" y="100" fill="white" font-family="sans-serif" font-weight="bold" font-size="12" text-anchor="end" dominant-baseline="middle">ba</text>
  <text x="60" y="135" fill="white" font-family="sans-serif" font-weight="bold" font-size="12" text-anchor="end" dominant-baseline="middle">det</text>
  <text x="60" y="170" fill="white" font-family="sans-serif" font-weight="bold" font-size="12" text-anchor="end" dominant-baseline="middle">gmm</text>
  <text x="60" y="205" fill="white" font-family="sans-serif" font-weight="bold" font-size="12" text-anchor="end" dominant-baseline="middle">hello</text>
  <text x="60" y="240" fill="white" font-family="sans-serif" font-weight="bold" font-size="12" text-anchor="end" dominant-baseline="middle">ht</text>
  <text x="60" y="275" fill="white" font-family="sans-serif" font-weight="bold" font-size="12" text-anchor="end" dominant-baseline="middle">kmeans</text>
  <text x="60" y="310" fill="white" font-family="sans-serif" font-weight="bold" font-size="12" text-anchor="end" dominant-baseline="middle">llsq</text>
  <text x="60" y="345" fill="white" font-family="sans-serif" font-weight="bold" font-size="12" text-anchor="end" dominant-baseline="middle">lse</text>
  <text x="60" y="380" fill="white" font-family="sans-serif" font-weight="bold" font-size="12" text-anchor="end" dominant-baseline="middle">lstm</text>
  <text x="60" y="415" fill="white" font-family="sans-serif" font-weight="bold" font-size="12" text-anchor="end" dominant-baseline="middle">ode</text>
  <text x="60" y="450" fill="white" font-family="sans-serif" font-weight="bold" font-size="12" text-anchor="end" dominant-baseline="middle">particle</text>
  <text x="60" y="485" fill="white" font-family="sans-serif" font-weight="bold" font-size="12" text-anchor="end" dominant-baseline="middle">saddle</text>
  <text x="80" y="80" fill="white" font-family="sans-serif" font-weight="bold" font-size="12" text-anchor="end" dominant-baseline="middle" transform="rotate(90 80 80)">ad-hpp</text>
  <text x="115" y="80" fill="white" font-family="sans-serif" font-weight="bold" font-size="12" text-anchor="end" dominant-baseline="middle" transform="rotate(90 115 80)">adept</text>
  <text x="150" y="80" fill="white" font-family="sans-serif" font-weight="bold" font-size="12" text-anchor="end" dominant-baseline="middle" transform="rotate(90 150 80)">adol-c</text>
  <text x="185" y="80" fill="white" font-family="sans-serif" font-weight="bold" font-size="12" text-anchor="end" dominant-baseline="middle" transform="rotate(90 185 80)">codipack</text>
  <text x="220" y="80" fill="white" font-family="sans-serif" font-weight="bold" font-size="12" text-anchor="end" dominant-baseline="middle" transform="rotate(90 220 80)">cppad</text>
  <text x="255" y="80" fill="white" font-family="sans-serif" font-weight="bold" font-size="12" text-anchor="end" dominant-baseline="middle" transform="rotate(90 255 80)">enzyme</text>
  <text x="290" y="80" fill="white" font-family="sans-serif" font-weight="bold" font-size="12" text-anchor="end" dominant-baseline="middle" transform="rotate(90 290 80)">enzyme-jl</text>
  <text x="325" y="80" fill="white" font-family="sans-serif" font-weight="bold" font-size="12" text-anchor="end" dominant-baseline="middle" transform="rotate(90 325 80)">finite</text>
  <text x="360" y="80" fill="white" font-family="sans-serif" font-weight="bold" font-size="12" text-anchor="end" dominant-baseline="middle" transform="rotate(90 360 80)">floretta</text>
  <text x="395" y="80" fill="white" font-family="sans-serif" font-weight="bold" font-size="12" text-anchor="end" dominant-baseline="middle" transform="rotate(90 395 80)">forwarddiff-jl</text>
  <text x="430" y="80" fill="white" font-family="sans-serif" font-weight="bold" font-size="12" text-anchor="end" dominant-baseline="middle" transform="rotate(90 430 80)">futhark</text>
  <text x="465" y="80" fill="white" font-family="sans-serif" font-weight="bold" font-size="12" text-anchor="end" dominant-baseline="middle" transform="rotate(90 465 80)">haskell</text>
  <text x="500" y="80" fill="white" font-family="sans-serif" font-weight="bold" font-size="12" text-anchor="end" dominant-baseline="middle" transform="rotate(90 500 80)">jax</text>
  <text x="535" y="80" fill="white" font-family="sans-serif" font-weight="bold" font-size="12" text-anchor="end" dominant-baseline="middle" transform="rotate(90 535 80)">manual</text>
  <text x="570" y="80" fill="white" font-family="sans-serif" font-weight="bold" font-size="12" text-anchor="end" dominant-baseline="middle" transform="rotate(90 570 80)">mooncake-jl</text>
  <text x="605" y="80" fill="white" font-family="sans-serif" font-weight="bold" font-size="12" text-anchor="end" dominant-baseline="middle" transform="rotate(90 605 80)">ocaml</text>
  <text x="640" y="80" fill="white" font-family="sans-serif" font-weight="bold" font-size="12" text-anchor="end" dominant-baseline="middle" transform="rotate(90 640 80)">pytorch</text>
  <text x="675" y="80" fill="white" font-family="sans-serif" font-weight="bold" font-size="12" text-anchor="end" dominant-baseline="middle" transform="rotate(90 675 80)">reversediff-jl</text>
  <text x="710" y="80" fill="white" font-family="sans-serif" font-weight="bold" font-size="12" text-anchor="end" dominant-baseline="middle" transform="rotate(90 710 80)">scilean</text>
  <text x="745" y="80" fill="white" font-family="sans-serif" font-weight="bold" font-size="12" text-anchor="end" dominant-baseline="middle" transform="rotate(90 745 80)">tapenade</text>
  <text x="780" y="80" fill="white" font-family="sans-serif" font-weight="bold" font-size="12" text-anchor="end" dominant-baseline="middle" transform="rotate(90 780 80)">tensorflow</text>
  <text x="815" y="80" fill="white" font-family="sans-serif" font-weight="bold" font-size="12" text-anchor="end" dominant-baseline="middle" transform="rotate(90 815 80)">tensorflow-js</text>
  <text x="850" y="80" fill="white" font-family="sans-serif" font-weight="bold" font-size="12" text-anchor="end" dominant-baseline="middle" transform="rotate(90 850 80)">zygote</text>
  <rect x="65" y="85" width="30" height="30" fill="hsl(240 100% 80.60194213123573%)" />
  <rect x="100" y="85" width="30" height="30" fill="hsl(240 100% 82.64773914060984%)" />
  <rect x="135" y="85" width="30" height="30" fill="hsl(240 100% 97.91473325542293%)" />
  <rect x="170" y="85" width="30" height="30" fill="hsl(240 100% 81.59028283424043%)" />
  <rect x="205" y="85" width="30" height="30" fill="hsl(240 100% 98.94969389166137%)" />
  <rect x="240" y="85" width="30" height="30" fill="hsl(240 100% 50%)" />
  <rect x="310" y="85" width="30" height="30" fill="hsl(240 100% 91.79133359737763%)" />
  <rect x="415" y="85" width="30" height="30" fill="hsl(240 100% 67.02966624252772%)" />
  <rect x="520" y="85" width="30" height="30" fill="hsl(240 100% 53.8785868338983%)" />
  <rect x="625" y="85" width="30" height="30" fill="rgb(255 255 255 / 50%)" />
  <rect x="730" y="85" width="30" height="30" fill="hsl(240 100% 73.99198077984744%)" />
  <rect x="765" y="85" width="30" height="30" fill="rgb(255 255 255 / 50%)" />
  <rect x="835" y="85" width="30" height="30" fill="hsl(240 100% 99.72426610543906%)" />
  <rect x="65" y="120" width="30" height="30" fill="hsl(240 100% 50%)" />
  <rect x="100" y="120" width="30" height="30" fill="hsl(240 100% 83.13992224877833%)" />
  <rect x="135" y="120" width="30" height="30" fill="hsl(240 100% 85.50323493734922%)" />
  <rect x="170" y="120" width="30" height="30" fill="hsl(240 100% 52.408154581611846%)" />
  <rect x="205" y="120" width="30" height="30" fill="hsl(240 100% 92.67965603519924%)" />
  <rect x="240" y="120" width="30" height="30" fill="hsl(240 100% 91.81943204112598%)" />
  <rect x="275" y="120" width="30" height="30" fill="hsl(240 100% 99.36179759001509%)" />
  <rect x="310" y="120" width="30" height="30" fill="hsl(240 100% 98.99732318505524%)" />
  <rect x="380" y="120" width="30" height="30" fill="hsl(240 100% 93.48375312117713%)" />
  <rect x="415" y="120" width="30" height="30" fill="hsl(240 100% 94.59368203022967%)" />
  <rect x="450" y="120" width="30" height="30" fill="hsl(240 100% 97.75389423558842%)" />
  <rect x="520" y="120" width="30" height="30" fill="hsl(240 100% 79.6349526910597%)" />
  <rect x="555" y="120" width="30" height="30" fill="hsl(240 100% 89.76275443956293%)" />
  <rect x="660" y="120" width="30" height="30" fill="rgb(255 255 255 / 50%)" />
  <rect x="835" y="120" width="30" height="30" fill="rgb(255 255 255 / 50%)" />
  <rect x="65" y="155" width="30" height="30" fill="hsl(240 100% 98.41544535704456%)" />
  <rect x="100" y="155" width="30" height="30" fill="hsl(240 100% 98.77756058073817%)" />
  <rect x="135" y="155" width="30" height="30" fill="hsl(240 100% 99.22813454557294%)" />
  <rect x="170" y="155" width="30" height="30" fill="hsl(240 100% 98.70339863463022%)" />
  <rect x="205" y="155" width="30" height="30" fill="hsl(240 100% 99.84022922466018%)" />
  <rect x="240" y="155" width="30" height="30" fill="hsl(240 100% 90.67170289244757%)" />
  <rect x="275" y="155" width="30" height="30" fill="hsl(240 100% 92.29229598362654%)" />
  <rect x="310" y="155" width="30" height="30" fill="rgb(255 255 255 / 50%)" />
  <rect x="415" y="155" width="30" height="30" fill="hsl(240 100% 92.5510268519065%)" />
  <rect x="485" y="155" width="30" height="30" fill="hsl(240 100% 50%)" />
  <rect x="520" y="155" width="30" height="30" fill="hsl(240 100% 79.85691100599507%)" />
  <rect x="590" y="155" width="30" height="30" fill="hsl(240 100% 99.58109629515418%)" />
  <rect x="625" y="155" width="30" height="30" fill="hsl(240 100% 65.90011212821754%)" />
  <rect x="695" y="155" width="30" height="30" fill="hsl(240 100% 95.19500654344711%)" />
  <rect x="730" y="155" width="30" height="30" fill="hsl(240 100% 82.89610171475185%)" />
  <rect x="765" y="155" width="30" height="30" fill="hsl(240 100% 99.55667954582817%)" />
  <rect x="835" y="155" width="30" height="30" fill="hsl(240 100% 96.48401558622803%)" />
  <rect x="65" y="190" width="30" height="30" fill="hsl(240 100% 50%)" />
  <rect x="100" y="190" width="30" height="30" fill="hsl(240 100% 50%)" />
  <rect x="135" y="190" width="30" height="30" fill="hsl(240 100% 50%)" />
  <rect x="170" y="190" width="30" height="30" fill="hsl(240 100% 50%)" />
  <rect x="205" y="190" width="30" height="30" fill="hsl(240 100% 50%)" />
  <rect x="240" y="190" width="30" height="30" fill="hsl(240 100% 50%)" />
  <rect x="275" y="190" width="30" height="30" fill="hsl(240 100% 50%)" />
  <rect x="310" y="190" width="30" height="30" fill="hsl(240 100% 50%)" />
  <rect x="345" y="190" width="30" height="30" fill="hsl(240 100% 50%)" />
  <rect x="380" y="190" width="30" height="30" fill="hsl(240 100% 50%)" />
  <rect x="415" y="190" width="30" height="30" fill="hsl(240 100% 50%)" />
  <rect x="450" y="190" width="30" height="30" fill="hsl(240 100% 50%)" />
  <rect x="485" y="190" width="30" height="30" fill="hsl(240 100% 50%)" />
  <rect x="520" y="190" width="30" height="30" fill="hsl(240 100% 50%)" />
  <rect x="555" y="190" width="30" height="30" fill="hsl(240 100% 50%)" />
  <rect x="590" y="190" width="30" height="30" fill="hsl(240 100% 50%)" />
  <rect x="625" y="190" width="30" height="30" fill="hsl(240 100% 50%)" />
  <rect x="660" y="190" width="30" height="30" fill="hsl(240 100% 50%)" />
  <rect x="695" y="190" width="30" height="30" fill="hsl(240 100% 50%)" />
  <rect x="730" y="190" width="30" height="30" fill="hsl(240 100% 50%)" />
  <rect x="765" y="190" width="30" height="30" fill="hsl(240 100% 50%)" />
  <rect x="800" y="190" width="30" height="30" fill="hsl(240 100% 50%)" />
  <rect x="835" y="190" width="30" height="30" fill="hsl(240 100% 50%)" />
  <rect x="100" y="225" width="30" height="30" fill="hsl(240 100% 96.26639728891577%)" />
  <rect x="135" y="225" width="30" height="30" fill="hsl(240 100% 86.78323145053794%)" />
  <rect x="170" y="225" width="30" height="30" fill="hsl(240 100% 87.87598556759887%)" />
  <rect x="240" y="225" width="30" height="30" fill="hsl(240 100% 90.22441607855644%)" />
  <rect x="310" y="225" width="30" height="30" fill="rgb(255 255 255 / 50%)" />
  <rect x="415" y="225" width="30" height="30" fill="hsl(240 100% 89.3527756607571%)" />
  <rect x="520" y="225" width="30" height="30" fill="hsl(240 100% 50%)" />
  <rect x="625" y="225" width="30" height="30" fill="rgb(255 255 255 / 50%)" />
  <rect x="730" y="225" width="30" height="30" fill="hsl(240 100% 92.3264781176811%)" />
  <rect x="765" y="225" width="30" height="30" fill="rgb(255 255 255 / 50%)" />
  <rect x="835" y="225" width="30" height="30" fill="hsl(240 100% 93.4429903647578%)" />
  <rect x="65" y="260" width="30" height="30" fill="hsl(240 100% 99.84732636394011%)" />
  <rect x="135" y="260" width="30" height="30" fill="hsl(240 100% 99.8644593239773%)" />
  <rect x="170" y="260" width="30" height="30" fill="hsl(240 100% 98.97495462816501%)" />
  <rect x="205" y="260" width="30" height="30" fill="rgb(255 255 255 / 50%)" />
  <rect x="240" y="260" width="30" height="30" fill="hsl(240 100% 87.24486822247077%)" />
  <rect x="310" y="260" width="30" height="30" fill="rgb(255 255 255 / 50%)" />
  <rect x="415" y="260" width="30" height="30" fill="hsl(240 100% 81.10259103720904%)" />
  <rect x="450" y="260" width="30" height="30" fill="rgb(255 255 255 / 50%)" />
  <rect x="485" y="260" width="30" height="30" fill="hsl(240 100% 50%)" />
  <rect x="520" y="260" width="30" height="30" fill="hsl(240 100% 73.22969219079224%)" />
  <rect x="625" y="260" width="30" height="30" fill="hsl(240 100% 97.34686056018637%)" />
  <rect x="695" y="260" width="30" height="30" fill="hsl(240 100% 94.19641719803025%)" />
  <rect x="65" y="295" width="30" height="30" fill="hsl(240 100% 86.12638621803686%)" />
  <rect x="100" y="295" width="30" height="30" fill="hsl(240 100% 97.52337412470614%)" />
  <rect x="135" y="295" width="30" height="30" fill="hsl(240 100% 95.14871280424211%)" />
  <rect x="170" y="295" width="30" height="30" fill="hsl(240 100% 89.4285211614317%)" />
  <rect x="205" y="295" width="30" height="30" fill="hsl(240 100% 99.48520092080531%)" />
  <rect x="240" y="295" width="30" height="30" fill="hsl(240 100% 50.72921650584949%)" />
  <rect x="275" y="295" width="30" height="30" fill="hsl(240 100% 50%)" />
  <rect x="310" y="295" width="30" height="30" fill="hsl(240 100% 99.50070891768844%)" />
  <rect x="345" y="295" width="30" height="30" fill="hsl(240 100% 94.81185607354003%)" />
  <rect x="415" y="295" width="30" height="30" fill="hsl(240 100% 55.388987985447834%)" />
  <rect x="450" y="295" width="30" height="30" fill="hsl(240 100% 99.3349716023418%)" />
  <rect x="485" y="295" width="30" height="30" fill="hsl(240 100% 88.56686843398819%)" />
  <rect x="520" y="295" width="30" height="30" fill="hsl(240 100% 57.95891300680709%)" />
  <rect x="695" y="295" width="30" height="30" fill="hsl(240 100% 97.6188634667613%)" />
  <rect x="800" y="295" width="30" height="30" fill="hsl(240 100% 99.58167129601964%)" />
  <rect x="835" y="295" width="30" height="30" fill="hsl(240 100% 99.95766725822199%)" />
  <rect x="65" y="330" width="30" height="30" fill="hsl(240 100% 87.57534188415622%)" />
  <rect x="100" y="330" width="30" height="30" fill="hsl(240 100% 94.5431924407406%)" />
  <rect x="135" y="330" width="30" height="30" fill="hsl(240 100% 97.07483524031583%)" />
  <rect x="170" y="330" width="30" height="30" fill="hsl(240 100% 87.45492716878377%)" />
  <rect x="205" y="330" width="30" height="30" fill="hsl(240 100% 99.22909424868118%)" />
  <rect x="240" y="330" width="30" height="30" fill="hsl(240 100% 80.48852883745855%)" />
  <rect x="275" y="330" width="30" height="30" fill="hsl(240 100% 88.23137431298261%)" />
  <rect x="310" y="330" width="30" height="30" fill="rgb(255 255 255 / 50%)" />
  <rect x="345" y="330" width="30" height="30" fill="hsl(240 100% 97.32932919149816%)" />
  <rect x="415" y="330" width="30" height="30" fill="hsl(240 100% 86.17565872358425%)" />
  <rect x="450" y="330" width="30" height="30" fill="hsl(240 100% 99.81835233266251%)" />
  <rect x="485" y="330" width="30" height="30" fill="hsl(240 100% 72.04872738309544%)" />
  <rect x="520" y="330" width="30" height="30" fill="hsl(240 100% 71.70652148702995%)" />
  <rect x="590" y="330" width="30" height="30" fill="hsl(240 100% 94.0200907452767%)" />
  <rect x="625" y="330" width="30" height="30" fill="hsl(240 100% 50%)" />
  <rect x="765" y="330" width="30" height="30" fill="hsl(240 100% 94.63256918850317%)" />
  <rect x="800" y="330" width="30" height="30" fill="hsl(240 100% 99.2334915410437%)" />
  <rect x="835" y="330" width="30" height="30" fill="hsl(240 100% 82.50989609189816%)" />
  <rect x="65" y="365" width="30" height="30" fill="hsl(240 100% 56.96103624576146%)" />
  <rect x="100" y="365" width="30" height="30" fill="hsl(240 100% 71.1101068850759%)" />
  <rect x="135" y="365" width="30" height="30" fill="hsl(240 100% 81.78883235972405%)" />
  <rect x="170" y="365" width="30" height="30" fill="hsl(240 100% 50%)" />
  <rect x="205" y="365" width="30" height="30" fill="hsl(240 100% 96.03974293636318%)" />
  <rect x="240" y="365" width="30" height="30" fill="hsl(240 100% 59.18972258159908%)" />
  <rect x="275" y="365" width="30" height="30" fill="hsl(240 100% 92.5715660394004%)" />
  <rect x="310" y="365" width="30" height="30" fill="hsl(240 100% 99.86135107766457%)" />
  <rect x="415" y="365" width="30" height="30" fill="hsl(240 100% 66.36973671675261%)" />
  <rect x="520" y="365" width="30" height="30" fill="hsl(240 100% 86.13242094692224%)" />
  <rect x="625" y="365" width="30" height="30" fill="hsl(240 100% 99.63296399826727%)" />
  <rect x="730" y="365" width="30" height="30" fill="hsl(240 100% 63.33452748651158%)" />
  <rect x="765" y="365" width="30" height="30" fill="hsl(240 100% 98.18582607117285%)" />
  <rect x="835" y="365" width="30" height="30" fill="hsl(240 100% 98.74267218515158%)" />
  <rect x="65" y="400" width="30" height="30" fill="hsl(240 100% 98.0817509302121%)" />
  <rect x="100" y="400" width="30" height="30" fill="hsl(240 100% 99.41514603812377%)" />
  <rect x="135" y="400" width="30" height="30" fill="hsl(240 100% 99.65322850906023%)" />
  <rect x="170" y="400" width="30" height="30" fill="hsl(240 100% 94.01605798526559%)" />
  <rect x="205" y="400" width="30" height="30" fill="hsl(240 100% 99.22004796610094%)" />
  <rect x="240" y="400" width="30" height="30" fill="hsl(240 100% 85.90477860543203%)" />
  <rect x="275" y="400" width="30" height="30" fill="hsl(240 100% 95.25976890478472%)" />
  <rect x="310" y="400" width="30" height="30" fill="rgb(255 255 255 / 50%)" />
  <rect x="380" y="400" width="30" height="30" fill="rgb(255 255 255 / 50%)" />
  <rect x="415" y="400" width="30" height="30" fill="hsl(240 100% 93.86910291752896%)" />
  <rect x="450" y="400" width="30" height="30" fill="hsl(240 100% 99.97373170535687%)" />
  <rect x="485" y="400" width="30" height="30" fill="hsl(240 100% 77.96903433182212%)" />
  <rect x="520" y="400" width="30" height="30" fill="hsl(240 100% 50%)" />
  <rect x="555" y="400" width="30" height="30" fill="hsl(240 100% 99.08189429593314%)" />
  <rect x="660" y="400" width="30" height="30" fill="rgb(255 255 255 / 50%)" />
  <rect x="835" y="400" width="30" height="30" fill="hsl(240 100% 99.18581602428861%)" />
  <rect x="65" y="435" width="30" height="30" fill="hsl(240 100% 93.2627837260753%)" />
  <rect x="240" y="435" width="30" height="30" fill="hsl(240 100% 50%)" />
  <rect x="310" y="435" width="30" height="30" fill="hsl(240 100% 93.86036993473786%)" />
  <rect x="415" y="435" width="30" height="30" fill="hsl(240 100% 86.98700519621819%)" />
  <rect x="450" y="435" width="30" height="30" fill="hsl(240 100% 99.80855433815587%)" />
  <rect x="65" y="470" width="30" height="30" fill="hsl(240 100% 50%)" />
  <rect x="240" y="470" width="30" height="30" fill="hsl(240 100% 50.04105953951027%)" />
  <rect x="310" y="470" width="30" height="30" fill="hsl(240 100% 96.98462860381107%)" />
  <rect x="415" y="470" width="30" height="30" fill="hsl(240 100% 89.1722556032401%)" />
  <rect x="450" y="470" width="30" height="30" fill="hsl(240 100% 99.56367656329033%)" />
</svg>
