<svg xmlns="http://www.w3.org/2000/svg" viewBox="0 0 870 505">
  <rect x="0" y="0" width="870" height="505" rx="5" ry="5" fill="#222" />
  <text x="60" y="100" fill="white" font-family="sans-serif" font-weight="bold" font-size="12" text-anchor="end" dominant-baseline="middle">ba</text>
  <text x="60" y="135" fill="white" font-family="sans-serif" font-weight="bold" font-size="12" text-anchor="end" dominant-baseline="middle">det</text>
  <text x="60" y="170" fill="white" font-family="sans-serif" font-weight="bold" font-size="12" text-anchor="end" dominant-baseline="middle">gmm</text>
  <text x="60" y="205" fill="white" font-family="sans-serif" font-weight="bold" font-size="12" text-anchor="end" dominant-baseline="middle">hello</text>
  <text x="60" y="240" fill="white" font-family="sans-serif" font-weight="bold" font-size="12" text-anchor="end" dominant-baseline="middle">ht</text>
  <text x="60" y="275" fill="white" font-family="sans-serif" font-weight="bold" font-size="12" text-anchor="end" dominant-baseline="middle">kmeans</text>
  <text x="60" y="310" fill="white" font-family="sans-serif" font-weight="bold" font-size="12" text-anchor="end" dominant-baseline="middle">llsq</text>
  <text x="60" y="345" fill="white" font-family="sans-serif" font-weight="bold" font-size="12" text-anchor="end" dominant-baseline="middle">lse</text>
  <text x="60" y="380" fill="white" font-family="sans-serif" font-weight="bold" font-size="12" text-anchor="end" dominant-baseline="middle">lstm</text>
  <text x="60" y="415" fill="white" font-family="sans-serif" font-weight="bold" font-size="12" text-anchor="end" dominant-baseline="middle">ode</text>
  <text x="60" y="450" fill="white" font-family="sans-serif" font-weight="bold" font-size="12" text-anchor="end" dominant-baseline="middle">particle</text>
  <text x="60" y="485" fill="white" font-family="sans-serif" font-weight="bold" font-size="12" text-anchor="end" dominant-baseline="middle">saddle</text>
  <text x="80" y="80" fill="white" font-family="sans-serif" font-weight="bold" font-size="12" text-anchor="end" dominant-baseline="middle" transform="rotate(90 80 80)">ad-hpp</text>
  <text x="115" y="80" fill="white" font-family="sans-serif" font-weight="bold" font-size="12" text-anchor="end" dominant-baseline="middle" transform="rotate(90 115 80)">adept</text>
  <text x="150" y="80" fill="white" font-family="sans-serif" font-weight="bold" font-size="12" text-anchor="end" dominant-baseline="middle" transform="rotate(90 150 80)">adol-c</text>
  <text x="185" y="80" fill="white" font-family="sans-serif" font-weight="bold" font-size="12" text-anchor="end" dominant-baseline="middle" transform="rotate(90 185 80)">codipack</text>
  <text x="220" y="80" fill="white" font-family="sans-serif" font-weight="bold" font-size="12" text-anchor="end" dominant-baseline="middle" transform="rotate(90 220 80)">cppad</text>
  <text x="255" y="80" fill="white" font-family="sans-serif" font-weight="bold" font-size="12" text-anchor="end" dominant-baseline="middle" transform="rotate(90 255 80)">enzyme</text>
  <text x="290" y="80" fill="white" font-family="sans-serif" font-weight="bold" font-size="12" text-anchor="end" dominant-baseline="middle" transform="rotate(90 290 80)">enzyme-jl</text>
  <text x="325" y="80" fill="white" font-family="sans-serif" font-weight="bold" font-size="12" text-anchor="end" dominant-baseline="middle" transform="rotate(90 325 80)">finite</text>
  <text x="360" y="80" fill="white" font-family="sans-serif" font-weight="bold" font-size="12" text-anchor="end" dominant-baseline="middle" transform="rotate(90 360 80)">floretta</text>
  <text x="395" y="80" fill="white" font-family="sans-serif" font-weight="bold" font-size="12" text-anchor="end" dominant-baseline="middle" transform="rotate(90 395 80)">forwarddiff-jl</text>
  <text x="430" y="80" fill="white" font-family="sans-serif" font-weight="bold" font-size="12" text-anchor="end" dominant-baseline="middle" transform="rotate(90 430 80)">futhark</text>
  <text x="465" y="80" fill="white" font-family="sans-serif" font-weight="bold" font-size="12" text-anchor="end" dominant-baseline="middle" transform="rotate(90 465 80)">haskell</text>
  <text x="500" y="80" fill="white" font-family="sans-serif" font-weight="bold" font-size="12" text-anchor="end" dominant-baseline="middle" transform="rotate(90 500 80)">jax</text>
  <text x="535" y="80" fill="white" font-family="sans-serif" font-weight="bold" font-size="12" text-anchor="end" dominant-baseline="middle" transform="rotate(90 535 80)">manual</text>
  <text x="570" y="80" fill="white" font-family="sans-serif" font-weight="bold" font-size="12" text-anchor="end" dominant-baseline="middle" transform="rotate(90 570 80)">mooncake-jl</text>
  <text x="605" y="80" fill="white" font-family="sans-serif" font-weight="bold" font-size="12" text-anchor="end" dominant-baseline="middle" transform="rotate(90 605 80)">ocaml</text>
  <text x="640" y="80" fill="white" font-family="sans-serif" font-weight="bold" font-size="12" text-anchor="end" dominant-baseline="middle" transform="rotate(90 640 80)">pytorch</text>
  <text x="675" y="80" fill="white" font-family="sans-serif" font-weight="bold" font-size="12" text-anchor="end" dominant-baseline="middle" transform="rotate(90 675 80)">reversediff-jl</text>
  <text x="710" y="80" fill="white" font-family="sans-serif" font-weight="bold" font-size="12" text-anchor="end" dominant-baseline="middle" transform="rotate(90 710 80)">scilean</text>
  <text x="745" y="80" fill="white" font-family="sans-serif" font-weight="bold" font-size="12" text-anchor="end" dominant-baseline="middle" transform="rotate(90 745 80)">tapenade</text>
  <text x="780" y="80" fill="white" font-family="sans-serif" font-weight="bold" font-size="12" text-anchor="end" dominant-baseline="middle" transform="rotate(90 780 80)">tensorflow</text>
  <text x="815" y="80" fill="white" font-family="sans-serif" font-weight="bold" font-size="12" text-anchor="end" dominant-baseline="middle" transform="rotate(90 815 80)">tensorflow-js</text>
  <text x="850" y="80" fill="white" font-family="sans-serif" font-weight="bold" font-size="12" text-anchor="end" dominant-baseline="middle" transform="rotate(90 850 80)">zygote</text>
  <rect x="65" y="85" width="30" height="30" fill="hsl(240 100% 81.22750179239972%)" />
  <rect x="100" y="85" width="30" height="30" fill="hsl(240 100% 82.29587707341541%)" />
  <rect x="135" y="85" width="30" height="30" fill="hsl(240 100% 97.98094141816208%)" />
  <rect x="170" y="85" width="30" height="30" fill="hsl(240 100% 81.8992013994226%)" />
  <rect x="205" y="85" width="30" height="30" fill="hsl(240 100% 98.98312824828378%)" />
  <rect x="240" y="85" width="30" height="30" fill="hsl(240 100% 50%)" />
  <rect x="310" y="85" width="30" height="30" fill="hsl(240 100% 93.07487360881481%)" />
  <rect x="415" y="85" width="30" height="30" fill="hsl(240 100% 67.80472507627533%)" />
  <rect x="520" y="85" width="30" height="30" fill="hsl(240 100% 54.412024696855646%)" />
  <rect x="625" y="85" width="30" height="30" fill="rgb(255 255 255 / 50%)" />
  <rect x="730" y="85" width="30" height="30" fill="hsl(240 100% 74.51918834462406%)" />
  <rect x="765" y="85" width="30" height="30" fill="rgb(255 255 255 / 50%)" />
  <rect x="835" y="85" width="30" height="30" fill="hsl(240 100% 99.74970480195087%)" />
  <rect x="65" y="120" width="30" height="30" fill="hsl(240 100% 50%)" />
  <rect x="100" y="120" width="30" height="30" fill="hsl(240 100% 85.3299471099345%)" />
  <rect x="135" y="120" width="30" height="30" fill="hsl(240 100% 86.22528672525135%)" />
  <rect x="170" y="120" width="30" height="30" fill="hsl(240 100% 53.93833214771095%)" />
  <rect x="205" y="120" width="30" height="30" fill="hsl(240 100% 92.87893409132494%)" />
  <rect x="240" y="120" width="30" height="30" fill="hsl(240 100% 92.3726183296165%)" />
  <rect x="275" y="120" width="30" height="30" fill="hsl(240 100% 99.4572711048869%)" />
  <rect x="310" y="120" width="30" height="30" fill="hsl(240 100% 99.05185060371132%)" />
  <rect x="380" y="120" width="30" height="30" fill="hsl(240 100% 94.04951445318125%)" />
  <rect x="415" y="120" width="30" height="30" fill="hsl(240 100% 96.1635729468708%)" />
  <rect x="450" y="120" width="30" height="30" fill="hsl(240 100% 97.98479401256782%)" />
  <rect x="520" y="120" width="30" height="30" fill="hsl(240 100% 80.73972641431146%)" />
  <rect x="555" y="120" width="30" height="30" fill="hsl(240 100% 96.77709154742348%)" />
  <rect x="660" y="120" width="30" height="30" fill="rgb(255 255 255 / 50%)" />
  <rect x="835" y="120" width="30" height="30" fill="rgb(255 255 255 / 50%)" />
  <rect x="65" y="155" width="30" height="30" fill="hsl(240 100% 98.60159277206803%)" />
  <rect x="100" y="155" width="30" height="30" fill="hsl(240 100% 98.67523219987919%)" />
  <rect x="135" y="155" width="30" height="30" fill="hsl(240 100% 99.07986765262126%)" />
  <rect x="170" y="155" width="30" height="30" fill="hsl(240 100% 97.84146886039724%)" />
  <rect x="205" y="155" width="30" height="30" fill="hsl(240 100% 99.8366036640655%)" />
  <rect x="240" y="155" width="30" height="30" fill="hsl(240 100% 90.85614769127945%)" />
  <rect x="275" y="155" width="30" height="30" fill="hsl(240 100% 89.18738725436543%)" />
  <rect x="310" y="155" width="30" height="30" fill="rgb(255 255 255 / 50%)" />
  <rect x="415" y="155" width="30" height="30" fill="hsl(240 100% 92.67348631681443%)" />
  <rect x="485" y="155" width="30" height="30" fill="hsl(240 100% 50%)" />
  <rect x="520" y="155" width="30" height="30" fill="hsl(240 100% 85.11360600605992%)" />
  <rect x="555" y="155" width="30" height="30" fill="hsl(240 100% 95.17863625694284%)" />
  <rect x="590" y="155" width="30" height="30" fill="hsl(240 100% 99.55967638835217%)" />
  <rect x="625" y="155" width="30" height="30" fill="hsl(240 100% 65.01339389741045%)" />
  <rect x="695" y="155" width="30" height="30" fill="hsl(240 100% 95.37284629593447%)" />
  <rect x="730" y="155" width="30" height="30" fill="hsl(240 100% 82.8005558433063%)" />
  <rect x="765" y="155" width="30" height="30" fill="hsl(240 100% 99.55052760585096%)" />
  <rect x="835" y="155" width="30" height="30" fill="hsl(240 100% 96.0172636416922%)" />
  <rect x="65" y="190" width="30" height="30" fill="hsl(240 100% 50%)" />
  <rect x="100" y="190" width="30" height="30" fill="hsl(240 100% 50%)" />
  <rect x="135" y="190" width="30" height="30" fill="hsl(240 100% 50%)" />
  <rect x="170" y="190" width="30" height="30" fill="hsl(240 100% 50%)" />
  <rect x="205" y="190" width="30" height="30" fill="hsl(240 100% 50%)" />
  <rect x="240" y="190" width="30" height="30" fill="hsl(240 100% 50%)" />
  <rect x="275" y="190" width="30" height="30" fill="hsl(240 100% 50%)" />
  <rect x="310" y="190" width="30" height="30" fill="hsl(240 100% 50%)" />
  <rect x="345" y="190" width="30" height="30" fill="hsl(240 100% 50%)" />
  <rect x="380" y="190" width="30" height="30" fill="hsl(240 100% 50%)" />
  <rect x="415" y="190" width="30" height="30" fill="hsl(240 100% 50%)" />
  <rect x="450" y="190" width="30" height="30" fill="hsl(240 100% 50%)" />
  <rect x="485" y="190" width="30" height="30" fill="hsl(240 100% 50%)" />
  <rect x="520" y="190" width="30" height="30" fill="hsl(240 100% 50%)" />
  <rect x="555" y="190" width="30" height="30" fill="hsl(240 100% 50%)" />
  <rect x="590" y="190" width="30" height="30" fill="hsl(240 100% 50%)" />
  <rect x="625" y="190" width="30" height="30" fill="hsl(240 100% 50%)" />
  <rect x="660" y="190" width="30" height="30" fill="hsl(240 100% 50%)" />
  <rect x="695" y="190" width="30" height="30" fill="hsl(240 100% 50%)" />
  <rect x="730" y="190" width="30" height="30" fill="hsl(240 100% 50%)" />
  <rect x="765" y="190" width="30" height="30" fill="hsl(240 100% 50%)" />
  <rect x="800" y="190" width="30" height="30" fill="hsl(240 100% 50%)" />
  <rect x="835" y="190" width="30" height="30" fill="hsl(240 100% 50%)" />
  <rect x="100" y="225" width="30" height="30" fill="hsl(240 100% 96.21994991887108%)" />
  <rect x="135" y="225" width="30" height="30" fill="hsl(240 100% 87.10082373661271%)" />
  <rect x="170" y="225" width="30" height="30" fill="hsl(240 100% 88.78263199522263%)" />
  <rect x="240" y="225" width="30" height="30" fill="hsl(240 100% 90.43955749961715%)" />
  <rect x="310" y="225" width="30" height="30" fill="rgb(255 255 255 / 50%)" />
  <rect x="415" y="225" width="30" height="30" fill="hsl(240 100% 89.47363903247637%)" />
  <rect x="520" y="225" width="30" height="30" fill="hsl(240 100% 50%)" />
  <rect x="625" y="225" width="30" height="30" fill="rgb(255 255 255 / 50%)" />
  <rect x="730" y="225" width="30" height="30" fill="hsl(240 100% 92.53031954002034%)" />
  <rect x="765" y="225" width="30" height="30" fill="rgb(255 255 255 / 50%)" />
  <rect x="835" y="225" width="30" height="30" fill="hsl(240 100% 94.49932157239894%)" />
  <rect x="135" y="260" width="30" height="30" fill="hsl(240 100% 99.84798771100353%)" />
  <rect x="170" y="260" width="30" height="30" fill="hsl(240 100% 98.81706994253977%)" />
  <rect x="205" y="260" width="30" height="30" fill="rgb(255 255 255 / 50%)" />
  <rect x="240" y="260" width="30" height="30" fill="hsl(240 100% 86.8913055809871%)" />
  <rect x="310" y="260" width="30" height="30" fill="rgb(255 255 255 / 50%)" />
  <rect x="380" y="260" width="30" height="30" fill="rgb(255 255 255 / 50%)" />
  <rect x="415" y="260" width="30" height="30" fill="hsl(240 100% 80.53335341019661%)" />
  <rect x="450" y="260" width="30" height="30" fill="rgb(255 255 255 / 50%)" />
  <rect x="485" y="260" width="30" height="30" fill="hsl(240 100% 50%)" />
  <rect x="520" y="260" width="30" height="30" fill="hsl(240 100% 72.1585053044478%)" />
  <rect x="625" y="260" width="30" height="30" fill="hsl(240 100% 96.87150482381045%)" />
  <rect x="660" y="260" width="30" height="30" fill="rgb(255 255 255 / 50%)" />
  <rect x="695" y="260" width="30" height="30" fill="hsl(240 100% 94.04778729849762%)" />
  <rect x="65" y="295" width="30" height="30" fill="hsl(240 100% 85.98124805706831%)" />
  <rect x="100" y="295" width="30" height="30" fill="hsl(240 100% 97.2804897045206%)" />
  <rect x="135" y="295" width="30" height="30" fill="hsl(240 100% 95.05008165846945%)" />
  <rect x="170" y="295" width="30" height="30" fill="hsl(240 100% 89.23469687347693%)" />
  <rect x="205" y="295" width="30" height="30" fill="hsl(240 100% 99.47987269332774%)" />
  <rect x="240" y="295" width="30" height="30" fill="hsl(240 100% 50%)" />
  <rect x="275" y="295" width="30" height="30" fill="hsl(240 100% 61.21086539088924%)" />
  <rect x="310" y="295" width="30" height="30" fill="hsl(240 100% 99.49344475564898%)" />
  <rect x="345" y="295" width="30" height="30" fill="hsl(240 100% 94.7818727860529%)" />
  <rect x="415" y="295" width="30" height="30" fill="hsl(240 100% 54.67131522804311%)" />
  <rect x="450" y="295" width="30" height="30" fill="hsl(240 100% 99.26821692463227%)" />
  <rect x="485" y="295" width="30" height="30" fill="hsl(240 100% 87.89789260879724%)" />
  <rect x="520" y="295" width="30" height="30" fill="hsl(240 100% 57.33924524301869%)" />
  <rect x="555" y="295" width="30" height="30" fill="hsl(240 100% 90.75671062553761%)" />
  <rect x="695" y="295" width="30" height="30" fill="hsl(240 100% 97.59956099803127%)" />
  <rect x="800" y="295" width="30" height="30" fill="hsl(240 100% 99.59803775365566%)" />
  <rect x="835" y="295" width="30" height="30" fill="hsl(240 100% 99.96340125624859%)" />
  <rect x="65" y="330" width="30" height="30" fill="hsl(240 100% 85.94644433071323%)" />
  <rect x="100" y="330" width="30" height="30" fill="hsl(240 100% 93.75592458138865%)" />
  <rect x="135" y="330" width="30" height="30" fill="hsl(240 100% 96.56826433074198%)" />
  <rect x="170" y="330" width="30" height="30" fill="hsl(240 100% 86.00802679515401%)" />
  <rect x="205" y="330" width="30" height="30" fill="hsl(240 100% 99.13914225776564%)" />
  <rect x="240" y="330" width="30" height="30" fill="hsl(240 100% 78.12934173000664%)" />
  <rect x="275" y="330" width="30" height="30" fill="hsl(240 100% 94.45762834638093%)" />
  <rect x="310" y="330" width="30" height="30" fill="rgb(255 255 255 / 50%)" />
  <rect x="345" y="330" width="30" height="30" fill="hsl(240 100% 96.90808854800648%)" />
  <rect x="415" y="330" width="30" height="30" fill="hsl(240 100% 84.4260574178538%)" />
  <rect x="450" y="330" width="30" height="30" fill="hsl(240 100% 99.79062512322439%)" />
  <rect x="485" y="330" width="30" height="30" fill="hsl(240 100% 69.15914043068905%)" />
  <rect x="520" y="330" width="30" height="30" fill="hsl(240 100% 67.99791975424012%)" />
  <rect x="555" y="330" width="30" height="30" fill="hsl(240 100% 90.47265907185366%)" />
  <rect x="590" y="330" width="30" height="30" fill="hsl(240 100% 93.1852189154609%)" />
  <rect x="625" y="330" width="30" height="30" fill="hsl(240 100% 50%)" />
  <rect x="765" y="330" width="30" height="30" fill="hsl(240 100% 93.97119473640737%)" />
  <rect x="800" y="330" width="30" height="30" fill="hsl(240 100% 99.15660698829343%)" />
  <rect x="835" y="330" width="30" height="30" fill="hsl(240 100% 95.18465895693176%)" />
  <rect x="65" y="365" width="30" height="30" fill="hsl(240 100% 56.486868131432075%)" />
  <rect x="100" y="365" width="30" height="30" fill="hsl(240 100% 69.69060776489447%)" />
  <rect x="135" y="365" width="30" height="30" fill="hsl(240 100% 81.36630723352656%)" />
  <rect x="170" y="365" width="30" height="30" fill="hsl(240 100% 50%)" />
  <rect x="205" y="365" width="30" height="30" fill="hsl(240 100% 95.54099814224809%)" />
  <rect x="240" y="365" width="30" height="30" fill="hsl(240 100% 59.02361857374339%)" />
  <rect x="275" y="365" width="30" height="30" fill="hsl(240 100% 92.75180584351862%)" />
  <rect x="310" y="365" width="30" height="30" fill="hsl(240 100% 99.85796809825789%)" />
  <rect x="415" y="365" width="30" height="30" fill="hsl(240 100% 65.86813019850254%)" />
  <rect x="520" y="365" width="30" height="30" fill="hsl(240 100% 85.84391718941697%)" />
  <rect x="555" y="365" width="30" height="30" fill="hsl(240 100% 95.1117329268704%)" />
  <rect x="625" y="365" width="30" height="30" fill="hsl(240 100% 99.64279716406148%)" />
  <rect x="730" y="365" width="30" height="30" fill="hsl(240 100% 62.93291857580073%)" />
  <rect x="765" y="365" width="30" height="30" fill="hsl(240 100% 98.1750000929618%)" />
  <rect x="835" y="365" width="30" height="30" fill="hsl(240 100% 98.81120931720467%)" />
  <rect x="65" y="400" width="30" height="30" fill="hsl(240 100% 97.88060217276704%)" />
  <rect x="100" y="400" width="30" height="30" fill="hsl(240 100% 99.16625276885708%)" />
  <rect x="135" y="400" width="30" height="30" fill="hsl(240 100% 99.5626065635256%)" />
  <rect x="170" y="400" width="30" height="30" fill="hsl(240 100% 92.41368382381802%)" />
  <rect x="205" y="400" width="30" height="30" fill="hsl(240 100% 99.02151101331754%)" />
  <rect x="240" y="400" width="30" height="30" fill="hsl(240 100% 85.73140047839979%)" />
  <rect x="275" y="400" width="30" height="30" fill="hsl(240 100% 94.10670229642525%)" />
  <rect x="310" y="400" width="30" height="30" fill="rgb(255 255 255 / 50%)" />
  <rect x="380" y="400" width="30" height="30" fill="rgb(255 255 255 / 50%)" />
  <rect x="415" y="400" width="30" height="30" fill="hsl(240 100% 92.39111228306595%)" />
  <rect x="450" y="400" width="30" height="30" fill="hsl(240 100% 99.96763244756623%)" />
  <rect x="485" y="400" width="30" height="30" fill="hsl(240 100% 72.54527540700681%)" />
  <rect x="520" y="400" width="30" height="30" fill="hsl(240 100% 50%)" />
  <rect x="555" y="400" width="30" height="30" fill="hsl(240 100% 99.17688445279612%)" />
  <rect x="660" y="400" width="30" height="30" fill="rgb(255 255 255 / 50%)" />
  <rect x="835" y="400" width="30" height="30" fill="hsl(240 100% 99.11188012315907%)" />
  <rect x="65" y="435" width="30" height="30" fill="hsl(240 100% 93.25983660944765%)" />
  <rect x="240" y="435" width="30" height="30" fill="hsl(240 100% 50%)" />
  <rect x="310" y="435" width="30" height="30" fill="hsl(240 100% 93.85519166178898%)" />
  <rect x="415" y="435" width="30" height="30" fill="hsl(240 100% 87.02829775939612%)" />
  <rect x="450" y="435" width="30" height="30" fill="hsl(240 100% 99.78776762108029%)" />
  <rect x="65" y="470" width="30" height="30" fill="hsl(240 100% 50.12973532343362%)" />
  <rect x="240" y="470" width="30" height="30" fill="hsl(240 100% 50%)" />
  <rect x="310" y="470" width="30" height="30" fill="hsl(240 100% 96.97705363656844%)" />
  <rect x="415" y="470" width="30" height="30" fill="hsl(240 100% 89.11718620116376%)" />
  <rect x="450" y="470" width="30" height="30" fill="hsl(240 100% 99.57107176844787%)" />
</svg>
