<svg xmlns="http://www.w3.org/2000/svg" viewBox="0 0 870 505">
  <rect x="0" y="0" width="870" height="505" rx="5" ry="5" fill="#222" />
  <text x="60" y="100" fill="white" font-family="sans-serif" font-weight="bold" font-size="12" text-anchor="end" dominant-baseline="middle">ba</text>
  <text x="60" y="135" fill="white" font-family="sans-serif" font-weight="bold" font-size="12" text-anchor="end" dominant-baseline="middle">det</text>
  <text x="60" y="170" fill="white" font-family="sans-serif" font-weight="bold" font-size="12" text-anchor="end" dominant-baseline="middle">gmm</text>
  <text x="60" y="205" fill="white" font-family="sans-serif" font-weight="bold" font-size="12" text-anchor="end" dominant-baseline="middle">hello</text>
  <text x="60" y="240" fill="white" font-family="sans-serif" font-weight="bold" font-size="12" text-anchor="end" dominant-baseline="middle">ht</text>
  <text x="60" y="275" fill="white" font-family="sans-serif" font-weight="bold" font-size="12" text-anchor="end" dominant-baseline="middle">kmeans</text>
  <text x="60" y="310" fill="white" font-family="sans-serif" font-weight="bold" font-size="12" text-anchor="end" dominant-baseline="middle">llsq</text>
  <text x="60" y="345" fill="white" font-family="sans-serif" font-weight="bold" font-size="12" text-anchor="end" dominant-baseline="middle">lse</text>
  <text x="60" y="380" fill="white" font-family="sans-serif" font-weight="bold" font-size="12" text-anchor="end" dominant-baseline="middle">lstm</text>
  <text x="60" y="415" fill="white" font-family="sans-serif" font-weight="bold" font-size="12" text-anchor="end" dominant-baseline="middle">ode</text>
  <text x="60" y="450" fill="white" font-family="sans-serif" font-weight="bold" font-size="12" text-anchor="end" dominant-baseline="middle">particle</text>
  <text x="60" y="485" fill="white" font-family="sans-serif" font-weight="bold" font-size="12" text-anchor="end" dominant-baseline="middle">saddle</text>
  <text x="80" y="80" fill="white" font-family="sans-serif" font-weight="bold" font-size="12" text-anchor="end" dominant-baseline="middle" transform="rotate(90 80 80)">ad-hpp</text>
  <text x="115" y="80" fill="white" font-family="sans-serif" font-weight="bold" font-size="12" text-anchor="end" dominant-baseline="middle" transform="rotate(90 115 80)">adept</text>
  <text x="150" y="80" fill="white" font-family="sans-serif" font-weight="bold" font-size="12" text-anchor="end" dominant-baseline="middle" transform="rotate(90 150 80)">adol-c</text>
  <text x="185" y="80" fill="white" font-family="sans-serif" font-weight="bold" font-size="12" text-anchor="end" dominant-baseline="middle" transform="rotate(90 185 80)">codipack</text>
  <text x="220" y="80" fill="white" font-family="sans-serif" font-weight="bold" font-size="12" text-anchor="end" dominant-baseline="middle" transform="rotate(90 220 80)">cppad</text>
  <text x="255" y="80" fill="white" font-family="sans-serif" font-weight="bold" font-size="12" text-anchor="end" dominant-baseline="middle" transform="rotate(90 255 80)">enzyme</text>
  <text x="290" y="80" fill="white" font-family="sans-serif" font-weight="bold" font-size="12" text-anchor="end" dominant-baseline="middle" transform="rotate(90 290 80)">enzyme-jl</text>
  <text x="325" y="80" fill="white" font-family="sans-serif" font-weight="bold" font-size="12" text-anchor="end" dominant-baseline="middle" transform="rotate(90 325 80)">finite</text>
  <text x="360" y="80" fill="white" font-family="sans-serif" font-weight="bold" font-size="12" text-anchor="end" dominant-baseline="middle" transform="rotate(90 360 80)">floretta</text>
  <text x="395" y="80" fill="white" font-family="sans-serif" font-weight="bold" font-size="12" text-anchor="end" dominant-baseline="middle" transform="rotate(90 395 80)">forwarddiff-jl</text>
  <text x="430" y="80" fill="white" font-family="sans-serif" font-weight="bold" font-size="12" text-anchor="end" dominant-baseline="middle" transform="rotate(90 430 80)">futhark</text>
  <text x="465" y="80" fill="white" font-family="sans-serif" font-weight="bold" font-size="12" text-anchor="end" dominant-baseline="middle" transform="rotate(90 465 80)">haskell</text>
  <text x="500" y="80" fill="white" font-family="sans-serif" font-weight="bold" font-size="12" text-anchor="end" dominant-baseline="middle" transform="rotate(90 500 80)">jax</text>
  <text x="535" y="80" fill="white" font-family="sans-serif" font-weight="bold" font-size="12" text-anchor="end" dominant-baseline="middle" transform="rotate(90 535 80)">manual</text>
  <text x="570" y="80" fill="white" font-family="sans-serif" font-weight="bold" font-size="12" text-anchor="end" dominant-baseline="middle" transform="rotate(90 570 80)">mooncake-jl</text>
  <text x="605" y="80" fill="white" font-family="sans-serif" font-weight="bold" font-size="12" text-anchor="end" dominant-baseline="middle" transform="rotate(90 605 80)">ocaml</text>
  <text x="640" y="80" fill="white" font-family="sans-serif" font-weight="bold" font-size="12" text-anchor="end" dominant-baseline="middle" transform="rotate(90 640 80)">pytorch</text>
  <text x="675" y="80" fill="white" font-family="sans-serif" font-weight="bold" font-size="12" text-anchor="end" dominant-baseline="middle" transform="rotate(90 675 80)">reversediff-jl</text>
  <text x="710" y="80" fill="white" font-family="sans-serif" font-weight="bold" font-size="12" text-anchor="end" dominant-baseline="middle" transform="rotate(90 710 80)">scilean</text>
  <text x="745" y="80" fill="white" font-family="sans-serif" font-weight="bold" font-size="12" text-anchor="end" dominant-baseline="middle" transform="rotate(90 745 80)">tapenade</text>
  <text x="780" y="80" fill="white" font-family="sans-serif" font-weight="bold" font-size="12" text-anchor="end" dominant-baseline="middle" transform="rotate(90 780 80)">tensorflow</text>
  <text x="815" y="80" fill="white" font-family="sans-serif" font-weight="bold" font-size="12" text-anchor="end" dominant-baseline="middle" transform="rotate(90 815 80)">tensorflow-js</text>
  <text x="850" y="80" fill="white" font-family="sans-serif" font-weight="bold" font-size="12" text-anchor="end" dominant-baseline="middle" transform="rotate(90 850 80)">zygote</text>
  <rect x="65" y="85" width="30" height="30" fill="hsl(240 100% 80.7415125108295%)" />
  <rect x="100" y="85" width="30" height="30" fill="hsl(240 100% 82.33605753688428%)" />
  <rect x="135" y="85" width="30" height="30" fill="hsl(240 100% 97.91731350587041%)" />
  <rect x="170" y="85" width="30" height="30" fill="hsl(240 100% 81.59708648396509%)" />
  <rect x="205" y="85" width="30" height="30" fill="hsl(240 100% 98.95120074413356%)" />
  <rect x="240" y="85" width="30" height="30" fill="hsl(240 100% 50%)" />
  <rect x="310" y="85" width="30" height="30" fill="hsl(240 100% 92.89337184277979%)" />
  <rect x="415" y="85" width="30" height="30" fill="hsl(240 100% 67.16388822718953%)" />
  <rect x="520" y="85" width="30" height="30" fill="hsl(240 100% 54.21455330660973%)" />
  <rect x="625" y="85" width="30" height="30" fill="rgb(255 255 255 / 50%)" />
  <rect x="730" y="85" width="30" height="30" fill="hsl(240 100% 74.16561292623825%)" />
  <rect x="765" y="85" width="30" height="30" fill="rgb(255 255 255 / 50%)" />
  <rect x="835" y="85" width="30" height="30" fill="hsl(240 100% 99.71001622738733%)" />
  <rect x="65" y="120" width="30" height="30" fill="hsl(240 100% 50%)" />
  <rect x="100" y="120" width="30" height="30" fill="hsl(240 100% 82.94219386116332%)" />
  <rect x="135" y="120" width="30" height="30" fill="hsl(240 100% 85.30877553337349%)" />
  <rect x="170" y="120" width="30" height="30" fill="hsl(240 100% 51.51209216797995%)" />
  <rect x="205" y="120" width="30" height="30" fill="hsl(240 100% 92.57129019453905%)" />
  <rect x="240" y="120" width="30" height="30" fill="hsl(240 100% 91.40629767226949%)" />
  <rect x="275" y="120" width="30" height="30" fill="hsl(240 100% 99.36227473274548%)" />
  <rect x="310" y="120" width="30" height="30" fill="hsl(240 100% 98.98728511612352%)" />
  <rect x="380" y="120" width="30" height="30" fill="hsl(240 100% 93.35515596443808%)" />
  <rect x="415" y="120" width="30" height="30" fill="hsl(240 100% 94.57041364428359%)" />
  <rect x="450" y="120" width="30" height="30" fill="hsl(240 100% 97.81501668650044%)" />
  <rect x="520" y="120" width="30" height="30" fill="hsl(240 100% 79.36483318901274%)" />
  <rect x="555" y="120" width="30" height="30" fill="hsl(240 100% 90.49586934784142%)" />
  <rect x="660" y="120" width="30" height="30" fill="rgb(255 255 255 / 50%)" />
  <rect x="835" y="120" width="30" height="30" fill="rgb(255 255 255 / 50%)" />
  <rect x="65" y="155" width="30" height="30" fill="hsl(240 100% 98.42074782628768%)" />
  <rect x="100" y="155" width="30" height="30" fill="hsl(240 100% 98.80254845605143%)" />
  <rect x="135" y="155" width="30" height="30" fill="hsl(240 100% 99.07767908995129%)" />
  <rect x="170" y="155" width="30" height="30" fill="hsl(240 100% 97.95956932670501%)" />
  <rect x="205" y="155" width="30" height="30" fill="hsl(240 100% 99.84364394581974%)" />
  <rect x="240" y="155" width="30" height="30" fill="hsl(240 100% 90.97456513297986%)" />
  <rect x="275" y="155" width="30" height="30" fill="hsl(240 100% 92.15352078691716%)" />
  <rect x="310" y="155" width="30" height="30" fill="rgb(255 255 255 / 50%)" />
  <rect x="415" y="155" width="30" height="30" fill="hsl(240 100% 92.83816617201671%)" />
  <rect x="485" y="155" width="30" height="30" fill="hsl(240 100% 50%)" />
  <rect x="520" y="155" width="30" height="30" fill="hsl(240 100% 80.51864217507206%)" />
  <rect x="590" y="155" width="30" height="30" fill="hsl(240 100% 99.5780006570284%)" />
  <rect x="625" y="155" width="30" height="30" fill="hsl(240 100% 66.24531515950184%)" />
  <rect x="695" y="155" width="30" height="30" fill="hsl(240 100% 95.31360303697966%)" />
  <rect x="730" y="155" width="30" height="30" fill="hsl(240 100% 83.21851965625896%)" />
  <rect x="765" y="155" width="30" height="30" fill="hsl(240 100% 99.57819197192278%)" />
  <rect x="835" y="155" width="30" height="30" fill="hsl(240 100% 96.08862441418128%)" />
  <rect x="65" y="190" width="30" height="30" fill="hsl(240 100% 50%)" />
  <rect x="100" y="190" width="30" height="30" fill="hsl(240 100% 50%)" />
  <rect x="135" y="190" width="30" height="30" fill="hsl(240 100% 50%)" />
  <rect x="170" y="190" width="30" height="30" fill="hsl(240 100% 50%)" />
  <rect x="205" y="190" width="30" height="30" fill="hsl(240 100% 50%)" />
  <rect x="240" y="190" width="30" height="30" fill="hsl(240 100% 50%)" />
  <rect x="275" y="190" width="30" height="30" fill="hsl(240 100% 50%)" />
  <rect x="310" y="190" width="30" height="30" fill="hsl(240 100% 50%)" />
  <rect x="345" y="190" width="30" height="30" fill="hsl(240 100% 50%)" />
  <rect x="380" y="190" width="30" height="30" fill="hsl(240 100% 50%)" />
  <rect x="415" y="190" width="30" height="30" fill="hsl(240 100% 50%)" />
  <rect x="450" y="190" width="30" height="30" fill="hsl(240 100% 50%)" />
  <rect x="485" y="190" width="30" height="30" fill="hsl(240 100% 50%)" />
  <rect x="520" y="190" width="30" height="30" fill="hsl(240 100% 50%)" />
  <rect x="555" y="190" width="30" height="30" fill="hsl(240 100% 50%)" />
  <rect x="590" y="190" width="30" height="30" fill="hsl(240 100% 50%)" />
  <rect x="625" y="190" width="30" height="30" fill="hsl(240 100% 50%)" />
  <rect x="660" y="190" width="30" height="30" fill="hsl(240 100% 50%)" />
  <rect x="695" y="190" width="30" height="30" fill="hsl(240 100% 50%)" />
  <rect x="730" y="190" width="30" height="30" fill="hsl(240 100% 50%)" />
  <rect x="765" y="190" width="30" height="30" fill="hsl(240 100% 50%)" />
  <rect x="800" y="190" width="30" height="30" fill="hsl(240 100% 50%)" />
  <rect x="835" y="190" width="30" height="30" fill="hsl(240 100% 50%)" />
  <rect x="100" y="225" width="30" height="30" fill="hsl(240 100% 96.29746015585198%)" />
  <rect x="135" y="225" width="30" height="30" fill="hsl(240 100% 86.90693067889852%)" />
  <rect x="170" y="225" width="30" height="30" fill="hsl(240 100% 87.98351640857328%)" />
  <rect x="240" y="225" width="30" height="30" fill="hsl(240 100% 90.32916271377482%)" />
  <rect x="310" y="225" width="30" height="30" fill="rgb(255 255 255 / 50%)" />
  <rect x="415" y="225" width="30" height="30" fill="hsl(240 100% 89.5006635683975%)" />
  <rect x="520" y="225" width="30" height="30" fill="hsl(240 100% 50%)" />
  <rect x="625" y="225" width="30" height="30" fill="rgb(255 255 255 / 50%)" />
  <rect x="730" y="225" width="30" height="30" fill="hsl(240 100% 92.43390406039369%)" />
  <rect x="765" y="225" width="30" height="30" fill="rgb(255 255 255 / 50%)" />
  <rect x="835" y="225" width="30" height="30" fill="hsl(240 100% 93.32834504594678%)" />
  <rect x="65" y="260" width="30" height="30" fill="hsl(240 100% 99.88767025953145%)" />
  <rect x="135" y="260" width="30" height="30" fill="hsl(240 100% 99.86049482315666%)" />
  <rect x="170" y="260" width="30" height="30" fill="hsl(240 100% 98.91010847500802%)" />
  <rect x="205" y="260" width="30" height="30" fill="rgb(255 255 255 / 50%)" />
  <rect x="240" y="260" width="30" height="30" fill="hsl(240 100% 87.20163210670668%)" />
  <rect x="310" y="260" width="30" height="30" fill="rgb(255 255 255 / 50%)" />
  <rect x="415" y="260" width="30" height="30" fill="hsl(240 100% 80.95813150020106%)" />
  <rect x="450" y="260" width="30" height="30" fill="rgb(255 255 255 / 50%)" />
  <rect x="485" y="260" width="30" height="30" fill="hsl(240 100% 50%)" />
  <rect x="520" y="260" width="30" height="30" fill="hsl(240 100% 72.60718865855661%)" />
  <rect x="625" y="260" width="30" height="30" fill="hsl(240 100% 97.01634115257016%)" />
  <rect x="695" y="260" width="30" height="30" fill="hsl(240 100% 94.15350842969119%)" />
  <rect x="65" y="295" width="30" height="30" fill="hsl(240 100% 86.08088774075851%)" />
  <rect x="100" y="295" width="30" height="30" fill="hsl(240 100% 97.48277806397493%)" />
  <rect x="135" y="295" width="30" height="30" fill="hsl(240 100% 95.02941288945539%)" />
  <rect x="170" y="295" width="30" height="30" fill="hsl(240 100% 89.41238608810485%)" />
  <rect x="205" y="295" width="30" height="30" fill="hsl(240 100% 99.48640656775822%)" />
  <rect x="240" y="295" width="30" height="30" fill="hsl(240 100% 50.66056254753579%)" />
  <rect x="275" y="295" width="30" height="30" fill="hsl(240 100% 50%)" />
  <rect x="310" y="295" width="30" height="30" fill="hsl(240 100% 99.50045090137812%)" />
  <rect x="345" y="295" width="30" height="30" fill="hsl(240 100% 94.71362924244222%)" />
  <rect x="415" y="295" width="30" height="30" fill="hsl(240 100% 55.27591552503124%)" />
  <rect x="450" y="295" width="30" height="30" fill="hsl(240 100% 99.3229408221048%)" />
  <rect x="485" y="295" width="30" height="30" fill="hsl(240 100% 88.40921730979461%)" />
  <rect x="520" y="295" width="30" height="30" fill="hsl(240 100% 57.90507807945461%)" />
  <rect x="695" y="295" width="30" height="30" fill="hsl(240 100% 97.61227903805323%)" />
  <rect x="800" y="295" width="30" height="30" fill="hsl(240 100% 99.57077599950527%)" />
  <rect x="835" y="295" width="30" height="30" fill="hsl(240 100% 99.95342416834892%)" />
  <rect x="65" y="330" width="30" height="30" fill="hsl(240 100% 86.70346338833379%)" />
  <rect x="100" y="330" width="30" height="30" fill="hsl(240 100% 94.04816952805305%)" />
  <rect x="135" y="330" width="30" height="30" fill="hsl(240 100% 96.89571793447419%)" />
  <rect x="170" y="330" width="30" height="30" fill="hsl(240 100% 86.87595150471921%)" />
  <rect x="205" y="330" width="30" height="30" fill="hsl(240 100% 99.17926720703623%)" />
  <rect x="240" y="330" width="30" height="30" fill="hsl(240 100% 79.11116729808093%)" />
  <rect x="275" y="330" width="30" height="30" fill="hsl(240 100% 87.85581466102202%)" />
  <rect x="310" y="330" width="30" height="30" fill="rgb(255 255 255 / 50%)" />
  <rect x="345" y="330" width="30" height="30" fill="hsl(240 100% 97.13709920480393%)" />
  <rect x="415" y="330" width="30" height="30" fill="hsl(240 100% 85.2027048688489%)" />
  <rect x="450" y="330" width="30" height="30" fill="hsl(240 100% 99.79360606202712%)" />
  <rect x="485" y="330" width="30" height="30" fill="hsl(240 100% 71.72245405885587%)" />
  <rect x="520" y="330" width="30" height="30" fill="hsl(240 100% 69.25827354755772%)" />
  <rect x="590" y="330" width="30" height="30" fill="hsl(240 100% 93.59207966751427%)" />
  <rect x="625" y="330" width="30" height="30" fill="hsl(240 100% 50%)" />
  <rect x="765" y="330" width="30" height="30" fill="hsl(240 100% 94.5705236190702%)" />
  <rect x="800" y="330" width="30" height="30" fill="hsl(240 100% 99.1798687274321%)" />
  <rect x="835" y="330" width="30" height="30" fill="hsl(240 100% 79.30498764820983%)" />
  <rect x="65" y="365" width="30" height="30" fill="hsl(240 100% 57.22635824957686%)" />
  <rect x="100" y="365" width="30" height="30" fill="hsl(240 100% 71.44846171408756%)" />
  <rect x="135" y="365" width="30" height="30" fill="hsl(240 100% 81.96437523845059%)" />
  <rect x="170" y="365" width="30" height="30" fill="hsl(240 100% 50%)" />
  <rect x="205" y="365" width="30" height="30" fill="hsl(240 100% 95.77388285673307%)" />
  <rect x="240" y="365" width="30" height="30" fill="hsl(240 100% 59.58110963353139%)" />
  <rect x="275" y="365" width="30" height="30" fill="hsl(240 100% 92.65263862554777%)" />
  <rect x="310" y="365" width="30" height="30" fill="hsl(240 100% 99.86212693834665%)" />
  <rect x="415" y="365" width="30" height="30" fill="hsl(240 100% 66.27435767936029%)" />
  <rect x="520" y="365" width="30" height="30" fill="hsl(240 100% 86.03502672854349%)" />
  <rect x="625" y="365" width="30" height="30" fill="hsl(240 100% 99.6452841530583%)" />
  <rect x="730" y="365" width="30" height="30" fill="hsl(240 100% 63.308334946717096%)" />
  <rect x="765" y="365" width="30" height="30" fill="hsl(240 100% 98.14884132445525%)" />
  <rect x="835" y="365" width="30" height="30" fill="hsl(240 100% 98.70282515725074%)" />
  <rect x="65" y="400" width="30" height="30" fill="hsl(240 100% 97.68259311702195%)" />
  <rect x="100" y="400" width="30" height="30" fill="hsl(240 100% 99.2975817619158%)" />
  <rect x="135" y="400" width="30" height="30" fill="hsl(240 100% 99.5734734824981%)" />
  <rect x="170" y="400" width="30" height="30" fill="hsl(240 100% 92.46519086520516%)" />
  <rect x="205" y="400" width="30" height="30" fill="hsl(240 100% 99.04913363311006%)" />
  <rect x="240" y="400" width="30" height="30" fill="hsl(240 100% 85.43288996282617%)" />
  <rect x="275" y="400" width="30" height="30" fill="hsl(240 100% 94.21229722734056%)" />
  <rect x="310" y="400" width="30" height="30" fill="rgb(255 255 255 / 50%)" />
  <rect x="380" y="400" width="30" height="30" fill="rgb(255 255 255 / 50%)" />
  <rect x="415" y="400" width="30" height="30" fill="hsl(240 100% 92.51003793464518%)" />
  <rect x="450" y="400" width="30" height="30" fill="hsl(240 100% 99.96487226149364%)" />
  <rect x="485" y="400" width="30" height="30" fill="hsl(240 100% 73.59303047214033%)" />
  <rect x="520" y="400" width="30" height="30" fill="hsl(240 100% 50%)" />
  <rect x="555" y="400" width="30" height="30" fill="hsl(240 100% 98.89800660126429%)" />
  <rect x="660" y="400" width="30" height="30" fill="rgb(255 255 255 / 50%)" />
  <rect x="835" y="400" width="30" height="30" fill="hsl(240 100% 98.75559431294596%)" />
  <rect x="65" y="435" width="30" height="30" fill="hsl(240 100% 93.28066022805436%)" />
  <rect x="240" y="435" width="30" height="30" fill="hsl(240 100% 50%)" />
  <rect x="310" y="435" width="30" height="30" fill="hsl(240 100% 93.85365252564534%)" />
  <rect x="415" y="435" width="30" height="30" fill="hsl(240 100% 87.0208341346122%)" />
  <rect x="450" y="435" width="30" height="30" fill="hsl(240 100% 99.7822942837114%)" />
  <rect x="65" y="470" width="30" height="30" fill="hsl(240 100% 50.04991072619948%)" />
  <rect x="240" y="470" width="30" height="30" fill="hsl(240 100% 50%)" />
  <rect x="310" y="470" width="30" height="30" fill="hsl(240 100% 96.97026567386138%)" />
  <rect x="415" y="470" width="30" height="30" fill="hsl(240 100% 89.10871576226639%)" />
  <rect x="450" y="470" width="30" height="30" fill="hsl(240 100% 99.57500290627331%)" />
</svg>
