<svg xmlns="http://www.w3.org/2000/svg" viewBox="0 0 870 505">
  <rect x="0" y="0" width="870" height="505" rx="5" ry="5" fill="#222" />
  <text x="60" y="100" fill="white" font-family="sans-serif" font-weight="bold" font-size="12" text-anchor="end" dominant-baseline="middle">ba</text>
  <text x="60" y="135" fill="white" font-family="sans-serif" font-weight="bold" font-size="12" text-anchor="end" dominant-baseline="middle">det</text>
  <text x="60" y="170" fill="white" font-family="sans-serif" font-weight="bold" font-size="12" text-anchor="end" dominant-baseline="middle">gmm</text>
  <text x="60" y="205" fill="white" font-family="sans-serif" font-weight="bold" font-size="12" text-anchor="end" dominant-baseline="middle">hello</text>
  <text x="60" y="240" fill="white" font-family="sans-serif" font-weight="bold" font-size="12" text-anchor="end" dominant-baseline="middle">ht</text>
  <text x="60" y="275" fill="white" font-family="sans-serif" font-weight="bold" font-size="12" text-anchor="end" dominant-baseline="middle">kmeans</text>
  <text x="60" y="310" fill="white" font-family="sans-serif" font-weight="bold" font-size="12" text-anchor="end" dominant-baseline="middle">llsq</text>
  <text x="60" y="345" fill="white" font-family="sans-serif" font-weight="bold" font-size="12" text-anchor="end" dominant-baseline="middle">lse</text>
  <text x="60" y="380" fill="white" font-family="sans-serif" font-weight="bold" font-size="12" text-anchor="end" dominant-baseline="middle">lstm</text>
  <text x="60" y="415" fill="white" font-family="sans-serif" font-weight="bold" font-size="12" text-anchor="end" dominant-baseline="middle">ode</text>
  <text x="60" y="450" fill="white" font-family="sans-serif" font-weight="bold" font-size="12" text-anchor="end" dominant-baseline="middle">particle</text>
  <text x="60" y="485" fill="white" font-family="sans-serif" font-weight="bold" font-size="12" text-anchor="end" dominant-baseline="middle">saddle</text>
  <text x="80" y="80" fill="white" font-family="sans-serif" font-weight="bold" font-size="12" text-anchor="end" dominant-baseline="middle" transform="rotate(90 80 80)">ad-hpp</text>
  <text x="115" y="80" fill="white" font-family="sans-serif" font-weight="bold" font-size="12" text-anchor="end" dominant-baseline="middle" transform="rotate(90 115 80)">adept</text>
  <text x="150" y="80" fill="white" font-family="sans-serif" font-weight="bold" font-size="12" text-anchor="end" dominant-baseline="middle" transform="rotate(90 150 80)">adol-c</text>
  <text x="185" y="80" fill="white" font-family="sans-serif" font-weight="bold" font-size="12" text-anchor="end" dominant-baseline="middle" transform="rotate(90 185 80)">codipack</text>
  <text x="220" y="80" fill="white" font-family="sans-serif" font-weight="bold" font-size="12" text-anchor="end" dominant-baseline="middle" transform="rotate(90 220 80)">cppad</text>
  <text x="255" y="80" fill="white" font-family="sans-serif" font-weight="bold" font-size="12" text-anchor="end" dominant-baseline="middle" transform="rotate(90 255 80)">enzyme</text>
  <text x="290" y="80" fill="white" font-family="sans-serif" font-weight="bold" font-size="12" text-anchor="end" dominant-baseline="middle" transform="rotate(90 290 80)">enzyme-jl</text>
  <text x="325" y="80" fill="white" font-family="sans-serif" font-weight="bold" font-size="12" text-anchor="end" dominant-baseline="middle" transform="rotate(90 325 80)">finite</text>
  <text x="360" y="80" fill="white" font-family="sans-serif" font-weight="bold" font-size="12" text-anchor="end" dominant-baseline="middle" transform="rotate(90 360 80)">floretta</text>
  <text x="395" y="80" fill="white" font-family="sans-serif" font-weight="bold" font-size="12" text-anchor="end" dominant-baseline="middle" transform="rotate(90 395 80)">forwarddiff-jl</text>
  <text x="430" y="80" fill="white" font-family="sans-serif" font-weight="bold" font-size="12" text-anchor="end" dominant-baseline="middle" transform="rotate(90 430 80)">futhark</text>
  <text x="465" y="80" fill="white" font-family="sans-serif" font-weight="bold" font-size="12" text-anchor="end" dominant-baseline="middle" transform="rotate(90 465 80)">haskell</text>
  <text x="500" y="80" fill="white" font-family="sans-serif" font-weight="bold" font-size="12" text-anchor="end" dominant-baseline="middle" transform="rotate(90 500 80)">jax</text>
  <text x="535" y="80" fill="white" font-family="sans-serif" font-weight="bold" font-size="12" text-anchor="end" dominant-baseline="middle" transform="rotate(90 535 80)">manual</text>
  <text x="570" y="80" fill="white" font-family="sans-serif" font-weight="bold" font-size="12" text-anchor="end" dominant-baseline="middle" transform="rotate(90 570 80)">mooncake-jl</text>
  <text x="605" y="80" fill="white" font-family="sans-serif" font-weight="bold" font-size="12" text-anchor="end" dominant-baseline="middle" transform="rotate(90 605 80)">ocaml</text>
  <text x="640" y="80" fill="white" font-family="sans-serif" font-weight="bold" font-size="12" text-anchor="end" dominant-baseline="middle" transform="rotate(90 640 80)">pytorch</text>
  <text x="675" y="80" fill="white" font-family="sans-serif" font-weight="bold" font-size="12" text-anchor="end" dominant-baseline="middle" transform="rotate(90 675 80)">reversediff-jl</text>
  <text x="710" y="80" fill="white" font-family="sans-serif" font-weight="bold" font-size="12" text-anchor="end" dominant-baseline="middle" transform="rotate(90 710 80)">scilean</text>
  <text x="745" y="80" fill="white" font-family="sans-serif" font-weight="bold" font-size="12" text-anchor="end" dominant-baseline="middle" transform="rotate(90 745 80)">tapenade</text>
  <text x="780" y="80" fill="white" font-family="sans-serif" font-weight="bold" font-size="12" text-anchor="end" dominant-baseline="middle" transform="rotate(90 780 80)">tensorflow</text>
  <text x="815" y="80" fill="white" font-family="sans-serif" font-weight="bold" font-size="12" text-anchor="end" dominant-baseline="middle" transform="rotate(90 815 80)">tensorflow-js</text>
  <text x="850" y="80" fill="white" font-family="sans-serif" font-weight="bold" font-size="12" text-anchor="end" dominant-baseline="middle" transform="rotate(90 850 80)">zygote</text>
  <rect x="65" y="85" width="30" height="30" fill="hsl(240 100% 81.02785991404167%)" />
  <rect x="100" y="85" width="30" height="30" fill="hsl(240 100% 82.87118071328291%)" />
  <rect x="135" y="85" width="30" height="30" fill="hsl(240 100% 97.97930611705159%)" />
  <rect x="170" y="85" width="30" height="30" fill="hsl(240 100% 82.30824093344415%)" />
  <rect x="205" y="85" width="30" height="30" fill="hsl(240 100% 99.00064814160402%)" />
  <rect x="240" y="85" width="30" height="30" fill="hsl(240 100% 51.3177972524395%)" />
  <rect x="310" y="85" width="30" height="30" fill="hsl(240 100% 93.25339042995782%)" />
  <rect x="415" y="85" width="30" height="30" fill="hsl(240 100% 68.01897219120762%)" />
  <rect x="520" y="85" width="30" height="30" fill="hsl(240 100% 50%)" />
  <rect x="625" y="85" width="30" height="30" fill="rgb(255 255 255 / 50%)" />
  <rect x="730" y="85" width="30" height="30" fill="hsl(240 100% 74.88558695237194%)" />
  <rect x="765" y="85" width="30" height="30" fill="rgb(255 255 255 / 50%)" />
  <rect x="835" y="85" width="30" height="30" fill="hsl(240 100% 99.73151378162606%)" />
  <rect x="65" y="120" width="30" height="30" fill="hsl(240 100% 50%)" />
  <rect x="100" y="120" width="30" height="30" fill="hsl(240 100% 82.26355322083491%)" />
  <rect x="135" y="120" width="30" height="30" fill="hsl(240 100% 85.6307499098007%)" />
  <rect x="170" y="120" width="30" height="30" fill="hsl(240 100% 51.65887686947696%)" />
  <rect x="205" y="120" width="30" height="30" fill="hsl(240 100% 92.51118075845677%)" />
  <rect x="240" y="120" width="30" height="30" fill="hsl(240 100% 91.31506148136201%)" />
  <rect x="275" y="120" width="30" height="30" fill="hsl(240 100% 99.37268235917061%)" />
  <rect x="310" y="120" width="30" height="30" fill="hsl(240 100% 98.97738581174634%)" />
  <rect x="380" y="120" width="30" height="30" fill="hsl(240 100% 93.23461910720593%)" />
  <rect x="415" y="120" width="30" height="30" fill="hsl(240 100% 94.5478393445609%)" />
  <rect x="450" y="120" width="30" height="30" fill="hsl(240 100% 97.84829570929189%)" />
  <rect x="520" y="120" width="30" height="30" fill="hsl(240 100% 79.6474777815452%)" />
  <rect x="555" y="120" width="30" height="30" fill="hsl(240 100% 90.39133606801495%)" />
  <rect x="660" y="120" width="30" height="30" fill="rgb(255 255 255 / 50%)" />
  <rect x="835" y="120" width="30" height="30" fill="rgb(255 255 255 / 50%)" />
  <rect x="65" y="155" width="30" height="30" fill="hsl(240 100% 98.36765265814255%)" />
  <rect x="100" y="155" width="30" height="30" fill="hsl(240 100% 98.80551718775364%)" />
  <rect x="135" y="155" width="30" height="30" fill="hsl(240 100% 99.11261889753365%)" />
  <rect x="170" y="155" width="30" height="30" fill="hsl(240 100% 98.06227552494005%)" />
  <rect x="205" y="155" width="30" height="30" fill="hsl(240 100% 99.84990888346114%)" />
  <rect x="240" y="155" width="30" height="30" fill="hsl(240 100% 91.12286480192%)" />
  <rect x="275" y="155" width="30" height="30" fill="hsl(240 100% 92.92512994193956%)" />
  <rect x="310" y="155" width="30" height="30" fill="rgb(255 255 255 / 50%)" />
  <rect x="415" y="155" width="30" height="30" fill="hsl(240 100% 92.92762197658351%)" />
  <rect x="485" y="155" width="30" height="30" fill="hsl(240 100% 50%)" />
  <rect x="520" y="155" width="30" height="30" fill="hsl(240 100% 83.84734352223177%)" />
  <rect x="590" y="155" width="30" height="30" fill="hsl(240 100% 99.58921671812143%)" />
  <rect x="625" y="155" width="30" height="30" fill="hsl(240 100% 65.78869038255746%)" />
  <rect x="695" y="155" width="30" height="30" fill="hsl(240 100% 95.42247365429535%)" />
  <rect x="730" y="155" width="30" height="30" fill="hsl(240 100% 83.77406601409089%)" />
  <rect x="765" y="155" width="30" height="30" fill="hsl(240 100% 99.58840588865966%)" />
  <rect x="835" y="155" width="30" height="30" fill="hsl(240 100% 96.50625999484446%)" />
  <rect x="65" y="190" width="30" height="30" fill="hsl(240 100% 50%)" />
  <rect x="100" y="190" width="30" height="30" fill="hsl(240 100% 50%)" />
  <rect x="135" y="190" width="30" height="30" fill="hsl(240 100% 50%)" />
  <rect x="170" y="190" width="30" height="30" fill="hsl(240 100% 50%)" />
  <rect x="205" y="190" width="30" height="30" fill="hsl(240 100% 50%)" />
  <rect x="240" y="190" width="30" height="30" fill="hsl(240 100% 50%)" />
  <rect x="275" y="190" width="30" height="30" fill="hsl(240 100% 50%)" />
  <rect x="310" y="190" width="30" height="30" fill="hsl(240 100% 50%)" />
  <rect x="345" y="190" width="30" height="30" fill="hsl(240 100% 50%)" />
  <rect x="380" y="190" width="30" height="30" fill="hsl(240 100% 50%)" />
  <rect x="415" y="190" width="30" height="30" fill="hsl(240 100% 50%)" />
  <rect x="450" y="190" width="30" height="30" fill="hsl(240 100% 50%)" />
  <rect x="485" y="190" width="30" height="30" fill="hsl(240 100% 50%)" />
  <rect x="520" y="190" width="30" height="30" fill="hsl(240 100% 50%)" />
  <rect x="555" y="190" width="30" height="30" fill="hsl(240 100% 50%)" />
  <rect x="590" y="190" width="30" height="30" fill="hsl(240 100% 50%)" />
  <rect x="625" y="190" width="30" height="30" fill="hsl(240 100% 50%)" />
  <rect x="660" y="190" width="30" height="30" fill="hsl(240 100% 50%)" />
  <rect x="695" y="190" width="30" height="30" fill="hsl(240 100% 50%)" />
  <rect x="730" y="190" width="30" height="30" fill="hsl(240 100% 50%)" />
  <rect x="765" y="190" width="30" height="30" fill="hsl(240 100% 50%)" />
  <rect x="800" y="190" width="30" height="30" fill="hsl(240 100% 50%)" />
  <rect x="835" y="190" width="30" height="30" fill="hsl(240 100% 50%)" />
  <rect x="100" y="225" width="30" height="30" fill="hsl(240 100% 96.685444901919%)" />
  <rect x="135" y="225" width="30" height="30" fill="hsl(240 100% 89.9338669528515%)" />
  <rect x="170" y="225" width="30" height="30" fill="hsl(240 100% 89.20217086625782%)" />
  <rect x="240" y="225" width="30" height="30" fill="hsl(240 100% 91.23368837331874%)" />
  <rect x="310" y="225" width="30" height="30" fill="rgb(255 255 255 / 50%)" />
  <rect x="415" y="225" width="30" height="30" fill="hsl(240 100% 90.5791904332736%)" />
  <rect x="520" y="225" width="30" height="30" fill="hsl(240 100% 50%)" />
  <rect x="625" y="225" width="30" height="30" fill="rgb(255 255 255 / 50%)" />
  <rect x="730" y="225" width="30" height="30" fill="hsl(240 100% 93.1097980800009%)" />
  <rect x="765" y="225" width="30" height="30" fill="rgb(255 255 255 / 50%)" />
  <rect x="835" y="225" width="30" height="30" fill="hsl(240 100% 94.51037285647142%)" />
  <rect x="65" y="260" width="30" height="30" fill="hsl(240 100% 99.87878441360435%)" />
  <rect x="135" y="260" width="30" height="30" fill="hsl(240 100% 99.85275323241794%)" />
  <rect x="170" y="260" width="30" height="30" fill="hsl(240 100% 98.8450440795396%)" />
  <rect x="205" y="260" width="30" height="30" fill="rgb(255 255 255 / 50%)" />
  <rect x="240" y="260" width="30" height="30" fill="hsl(240 100% 87.09955421148965%)" />
  <rect x="310" y="260" width="30" height="30" fill="rgb(255 255 255 / 50%)" />
  <rect x="415" y="260" width="30" height="30" fill="hsl(240 100% 81.04180301066899%)" />
  <rect x="450" y="260" width="30" height="30" fill="rgb(255 255 255 / 50%)" />
  <rect x="485" y="260" width="30" height="30" fill="hsl(240 100% 50%)" />
  <rect x="520" y="260" width="30" height="30" fill="hsl(240 100% 71.40785375093643%)" />
  <rect x="625" y="260" width="30" height="30" fill="hsl(240 100% 97.00878142395418%)" />
  <rect x="695" y="260" width="30" height="30" fill="hsl(240 100% 94.13436925960775%)" />
  <rect x="65" y="295" width="30" height="30" fill="hsl(240 100% 86.04986647101686%)" />
  <rect x="100" y="295" width="30" height="30" fill="hsl(240 100% 97.56022331206593%)" />
  <rect x="135" y="295" width="30" height="30" fill="hsl(240 100% 95.17663356325617%)" />
  <rect x="170" y="295" width="30" height="30" fill="hsl(240 100% 90.70728969229808%)" />
  <rect x="205" y="295" width="30" height="30" fill="hsl(240 100% 99.45885432095159%)" />
  <rect x="240" y="295" width="30" height="30" fill="hsl(240 100% 50.79340984630423%)" />
  <rect x="275" y="295" width="30" height="30" fill="hsl(240 100% 50%)" />
  <rect x="310" y="295" width="30" height="30" fill="hsl(240 100% 99.50139863421884%)" />
  <rect x="345" y="295" width="30" height="30" fill="hsl(240 100% 94.74507279889527%)" />
  <rect x="415" y="295" width="30" height="30" fill="hsl(240 100% 55.40785103971851%)" />
  <rect x="450" y="295" width="30" height="30" fill="hsl(240 100% 99.33957987108874%)" />
  <rect x="485" y="295" width="30" height="30" fill="hsl(240 100% 89.16216047773679%)" />
  <rect x="520" y="295" width="30" height="30" fill="hsl(240 100% 58.01966348664562%)" />
  <rect x="695" y="295" width="30" height="30" fill="hsl(240 100% 97.62494680824356%)" />
  <rect x="800" y="295" width="30" height="30" fill="hsl(240 100% 99.57962049655015%)" />
  <rect x="835" y="295" width="30" height="30" fill="hsl(240 100% 99.95695219148124%)" />
  <rect x="65" y="330" width="30" height="30" fill="hsl(240 100% 89.31269951550296%)" />
  <rect x="100" y="330" width="30" height="30" fill="hsl(240 100% 95.21383250275007%)" />
  <rect x="135" y="330" width="30" height="30" fill="hsl(240 100% 97.29724044885758%)" />
  <rect x="170" y="330" width="30" height="30" fill="hsl(240 100% 89.3968307495384%)" />
  <rect x="205" y="330" width="30" height="30" fill="hsl(240 100% 99.23935623912784%)" />
  <rect x="240" y="330" width="30" height="30" fill="hsl(240 100% 81.09574393772479%)" />
  <rect x="275" y="330" width="30" height="30" fill="hsl(240 100% 88.5062131266329%)" />
  <rect x="310" y="330" width="30" height="30" fill="rgb(255 255 255 / 50%)" />
  <rect x="345" y="330" width="30" height="30" fill="hsl(240 100% 97.37925923337399%)" />
  <rect x="415" y="330" width="30" height="30" fill="hsl(240 100% 87.50624479258342%)" />
  <rect x="450" y="330" width="30" height="30" fill="hsl(240 100% 99.83035478500184%)" />
  <rect x="485" y="330" width="30" height="30" fill="hsl(240 100% 72.59343650009752%)" />
  <rect x="520" y="330" width="30" height="30" fill="hsl(240 100% 78.23840669619985%)" />
  <rect x="590" y="330" width="30" height="30" fill="hsl(240 100% 94.13917536838863%)" />
  <rect x="625" y="330" width="30" height="30" fill="hsl(240 100% 50%)" />
  <rect x="765" y="330" width="30" height="30" fill="hsl(240 100% 94.58035915432932%)" />
  <rect x="800" y="330" width="30" height="30" fill="hsl(240 100% 99.25590505799703%)" />
  <rect x="835" y="330" width="30" height="30" fill="hsl(240 100% 81.23783381124095%)" />
  <rect x="65" y="365" width="30" height="30" fill="hsl(240 100% 57.128223382012095%)" />
  <rect x="100" y="365" width="30" height="30" fill="hsl(240 100% 71.63086571144314%)" />
  <rect x="135" y="365" width="30" height="30" fill="hsl(240 100% 81.96488465075103%)" />
  <rect x="170" y="365" width="30" height="30" fill="hsl(240 100% 50%)" />
  <rect x="205" y="365" width="30" height="30" fill="hsl(240 100% 96.22354554425422%)" />
  <rect x="240" y="365" width="30" height="30" fill="hsl(240 100% 58.59800988469854%)" />
  <rect x="275" y="365" width="30" height="30" fill="hsl(240 100% 92.19142628251493%)" />
  <rect x="310" y="365" width="30" height="30" fill="hsl(240 100% 99.86248006910166%)" />
  <rect x="415" y="365" width="30" height="30" fill="hsl(240 100% 66.3995801406148%)" />
  <rect x="520" y="365" width="30" height="30" fill="hsl(240 100% 85.77785123275754%)" />
  <rect x="625" y="365" width="30" height="30" fill="hsl(240 100% 99.63910227678883%)" />
  <rect x="730" y="365" width="30" height="30" fill="hsl(240 100% 63.073320100141586%)" />
  <rect x="765" y="365" width="30" height="30" fill="hsl(240 100% 98.17510167191075%)" />
  <rect x="835" y="365" width="30" height="30" fill="hsl(240 100% 98.7352071658906%)" />
  <rect x="65" y="400" width="30" height="30" fill="hsl(240 100% 98.07305066204478%)" />
  <rect x="100" y="400" width="30" height="30" fill="hsl(240 100% 99.25679636184658%)" />
  <rect x="135" y="400" width="30" height="30" fill="hsl(240 100% 99.57839589671765%)" />
  <rect x="170" y="400" width="30" height="30" fill="hsl(240 100% 93.97370722565348%)" />
  <rect x="205" y="400" width="30" height="30" fill="hsl(240 100% 99.01027236681497%)" />
  <rect x="240" y="400" width="30" height="30" fill="hsl(240 100% 84.89025085308288%)" />
  <rect x="275" y="400" width="30" height="30" fill="hsl(240 100% 94.00201577156683%)" />
  <rect x="310" y="400" width="30" height="30" fill="rgb(255 255 255 / 50%)" />
  <rect x="380" y="400" width="30" height="30" fill="rgb(255 255 255 / 50%)" />
  <rect x="415" y="400" width="30" height="30" fill="hsl(240 100% 92.26292066178377%)" />
  <rect x="450" y="400" width="30" height="30" fill="hsl(240 100% 99.96222143707938%)" />
  <rect x="485" y="400" width="30" height="30" fill="hsl(240 100% 72.44806542926243%)" />
  <rect x="520" y="400" width="30" height="30" fill="hsl(240 100% 50%)" />
  <rect x="555" y="400" width="30" height="30" fill="hsl(240 100% 98.87362594350067%)" />
  <rect x="660" y="400" width="30" height="30" fill="rgb(255 255 255 / 50%)" />
  <rect x="835" y="400" width="30" height="30" fill="hsl(240 100% 98.99403703142075%)" />
  <rect x="65" y="435" width="30" height="30" fill="hsl(240 100% 92.87771250156216%)" />
  <rect x="240" y="435" width="30" height="30" fill="hsl(240 100% 50%)" />
  <rect x="310" y="435" width="30" height="30" fill="hsl(240 100% 94.27136540858693%)" />
  <rect x="415" y="435" width="30" height="30" fill="hsl(240 100% 87.0119236932505%)" />
  <rect x="450" y="435" width="30" height="30" fill="hsl(240 100% 99.78834524904215%)" />
  <rect x="65" y="470" width="30" height="30" fill="hsl(240 100% 50%)" />
  <rect x="240" y="470" width="30" height="30" fill="hsl(240 100% 50.14748089018115%)" />
  <rect x="310" y="470" width="30" height="30" fill="hsl(240 100% 97.13775999479013%)" />
  <rect x="415" y="470" width="30" height="30" fill="hsl(240 100% 89.06722314529729%)" />
  <rect x="450" y="470" width="30" height="30" fill="hsl(240 100% 99.57720467836516%)" />
</svg>
