<svg xmlns="http://www.w3.org/2000/svg" viewBox="0 0 730 505">
  <rect x="0" y="0" width="730" height="505" rx="5" ry="5" fill="#222" />
  <text x="60" y="100" fill="white" font-family="sans-serif" font-weight="bold" font-size="12" text-anchor="end" dominant-baseline="middle">ba</text>
  <text x="60" y="135" fill="white" font-family="sans-serif" font-weight="bold" font-size="12" text-anchor="end" dominant-baseline="middle">det</text>
  <text x="60" y="170" fill="white" font-family="sans-serif" font-weight="bold" font-size="12" text-anchor="end" dominant-baseline="middle">gmm</text>
  <text x="60" y="205" fill="white" font-family="sans-serif" font-weight="bold" font-size="12" text-anchor="end" dominant-baseline="middle">hello</text>
  <text x="60" y="240" fill="white" font-family="sans-serif" font-weight="bold" font-size="12" text-anchor="end" dominant-baseline="middle">ht</text>
  <text x="60" y="275" fill="white" font-family="sans-serif" font-weight="bold" font-size="12" text-anchor="end" dominant-baseline="middle">kmeans</text>
  <text x="60" y="310" fill="white" font-family="sans-serif" font-weight="bold" font-size="12" text-anchor="end" dominant-baseline="middle">llsq</text>
  <text x="60" y="345" fill="white" font-family="sans-serif" font-weight="bold" font-size="12" text-anchor="end" dominant-baseline="middle">lse</text>
  <text x="60" y="380" fill="white" font-family="sans-serif" font-weight="bold" font-size="12" text-anchor="end" dominant-baseline="middle">lstm</text>
  <text x="60" y="415" fill="white" font-family="sans-serif" font-weight="bold" font-size="12" text-anchor="end" dominant-baseline="middle">ode</text>
  <text x="60" y="450" fill="white" font-family="sans-serif" font-weight="bold" font-size="12" text-anchor="end" dominant-baseline="middle">particle</text>
  <text x="60" y="485" fill="white" font-family="sans-serif" font-weight="bold" font-size="12" text-anchor="end" dominant-baseline="middle">saddle</text>
  <text x="80" y="80" fill="white" font-family="sans-serif" font-weight="bold" font-size="12" text-anchor="end" dominant-baseline="middle" transform="rotate(90 80 80)">ad-hpp</text>
  <text x="115" y="80" fill="white" font-family="sans-serif" font-weight="bold" font-size="12" text-anchor="end" dominant-baseline="middle" transform="rotate(90 115 80)">adept</text>
  <text x="150" y="80" fill="white" font-family="sans-serif" font-weight="bold" font-size="12" text-anchor="end" dominant-baseline="middle" transform="rotate(90 150 80)">adol-c</text>
  <text x="185" y="80" fill="white" font-family="sans-serif" font-weight="bold" font-size="12" text-anchor="end" dominant-baseline="middle" transform="rotate(90 185 80)">codipack</text>
  <text x="220" y="80" fill="white" font-family="sans-serif" font-weight="bold" font-size="12" text-anchor="end" dominant-baseline="middle" transform="rotate(90 220 80)">cppad</text>
  <text x="255" y="80" fill="white" font-family="sans-serif" font-weight="bold" font-size="12" text-anchor="end" dominant-baseline="middle" transform="rotate(90 255 80)">enzyme</text>
  <text x="290" y="80" fill="white" font-family="sans-serif" font-weight="bold" font-size="12" text-anchor="end" dominant-baseline="middle" transform="rotate(90 290 80)">enzyme-jl</text>
  <text x="325" y="80" fill="white" font-family="sans-serif" font-weight="bold" font-size="12" text-anchor="end" dominant-baseline="middle" transform="rotate(90 325 80)">finite</text>
  <text x="360" y="80" fill="white" font-family="sans-serif" font-weight="bold" font-size="12" text-anchor="end" dominant-baseline="middle" transform="rotate(90 360 80)">floretta</text>
  <text x="395" y="80" fill="white" font-family="sans-serif" font-weight="bold" font-size="12" text-anchor="end" dominant-baseline="middle" transform="rotate(90 395 80)">futhark</text>
  <text x="430" y="80" fill="white" font-family="sans-serif" font-weight="bold" font-size="12" text-anchor="end" dominant-baseline="middle" transform="rotate(90 430 80)">haskell</text>
  <text x="465" y="80" fill="white" font-family="sans-serif" font-weight="bold" font-size="12" text-anchor="end" dominant-baseline="middle" transform="rotate(90 465 80)">jax</text>
  <text x="500" y="80" fill="white" font-family="sans-serif" font-weight="bold" font-size="12" text-anchor="end" dominant-baseline="middle" transform="rotate(90 500 80)">manual</text>
  <text x="535" y="80" fill="white" font-family="sans-serif" font-weight="bold" font-size="12" text-anchor="end" dominant-baseline="middle" transform="rotate(90 535 80)">ocaml</text>
  <text x="570" y="80" fill="white" font-family="sans-serif" font-weight="bold" font-size="12" text-anchor="end" dominant-baseline="middle" transform="rotate(90 570 80)">pytorch</text>
  <text x="605" y="80" fill="white" font-family="sans-serif" font-weight="bold" font-size="12" text-anchor="end" dominant-baseline="middle" transform="rotate(90 605 80)">scilean</text>
  <text x="640" y="80" fill="white" font-family="sans-serif" font-weight="bold" font-size="12" text-anchor="end" dominant-baseline="middle" transform="rotate(90 640 80)">tapenade</text>
  <text x="675" y="80" fill="white" font-family="sans-serif" font-weight="bold" font-size="12" text-anchor="end" dominant-baseline="middle" transform="rotate(90 675 80)">tensorflow</text>
  <text x="710" y="80" fill="white" font-family="sans-serif" font-weight="bold" font-size="12" text-anchor="end" dominant-baseline="middle" transform="rotate(90 710 80)">zygote</text>
  <rect x="65" y="85" width="30" height="30" fill="hsl(240 100% 80.37435494360759%)" />
  <rect x="100" y="85" width="30" height="30" fill="hsl(240 100% 82.87825116557022%)" />
  <rect x="135" y="85" width="30" height="30" fill="hsl(240 100% 97.984291701521%)" />
  <rect x="170" y="85" width="30" height="30" fill="hsl(240 100% 83.10987251519995%)" />
  <rect x="205" y="85" width="30" height="30" fill="hsl(240 100% 99.00157679323333%)" />
  <rect x="240" y="85" width="30" height="30" fill="hsl(240 100% 52.124757902069%)" />
  <rect x="310" y="85" width="30" height="30" fill="hsl(240 100% 92.89454446210205%)" />
  <rect x="380" y="85" width="30" height="30" fill="hsl(240 100% 68.18125633759166%)" />
  <rect x="485" y="85" width="30" height="30" fill="hsl(240 100% 50%)" />
  <rect x="555" y="85" width="30" height="30" fill="rgb(255 255 255 / 50%)" />
  <rect x="625" y="85" width="30" height="30" fill="hsl(240 100% 74.97397374988681%)" />
  <rect x="660" y="85" width="30" height="30" fill="rgb(255 255 255 / 50%)" />
  <rect x="695" y="85" width="30" height="30" fill="hsl(240 100% 99.72411999230195%)" />
  <rect x="65" y="120" width="30" height="30" fill="hsl(240 100% 50%)" />
  <rect x="100" y="120" width="30" height="30" fill="hsl(240 100% 83.40823986312863%)" />
  <rect x="135" y="120" width="30" height="30" fill="hsl(240 100% 85.43209142672586%)" />
  <rect x="170" y="120" width="30" height="30" fill="hsl(240 100% 51.43038885349057%)" />
  <rect x="205" y="120" width="30" height="30" fill="hsl(240 100% 92.46517388376803%)" />
  <rect x="240" y="120" width="30" height="30" fill="hsl(240 100% 91.49361488615908%)" />
  <rect x="275" y="120" width="30" height="30" fill="hsl(240 100% 99.25323123192511%)" />
  <rect x="310" y="120" width="30" height="30" fill="hsl(240 100% 98.9716437707691%)" />
  <rect x="380" y="120" width="30" height="30" fill="hsl(240 100% 94.53413043570045%)" />
  <rect x="415" y="120" width="30" height="30" fill="hsl(240 100% 97.97926752521352%)" />
  <rect x="485" y="120" width="30" height="30" fill="hsl(240 100% 79.3681420260085%)" />
  <rect x="695" y="120" width="30" height="30" fill="rgb(255 255 255 / 50%)" />
  <rect x="65" y="155" width="30" height="30" fill="hsl(240 100% 97.1744013349014%)" />
  <rect x="100" y="155" width="30" height="30" fill="hsl(240 100% 98.25098967285699%)" />
  <rect x="135" y="155" width="30" height="30" fill="hsl(240 100% 98.80891879574025%)" />
  <rect x="170" y="155" width="30" height="30" fill="hsl(240 100% 97.23891792254118%)" />
  <rect x="205" y="155" width="30" height="30" fill="hsl(240 100% 99.77494916040675%)" />
  <rect x="240" y="155" width="30" height="30" fill="hsl(240 100% 86.34718902973023%)" />
  <rect x="275" y="155" width="30" height="30" fill="hsl(240 100% 99.84012847994984%)" />
  <rect x="310" y="155" width="30" height="30" fill="rgb(255 255 255 / 50%)" />
  <rect x="380" y="155" width="30" height="30" fill="hsl(240 100% 89.24238184488463%)" />
  <rect x="450" y="155" width="30" height="30" fill="hsl(240 100% 70.29758850133963%)" />
  <rect x="485" y="155" width="30" height="30" fill="hsl(240 100% 71.96221942140936%)" />
  <rect x="520" y="155" width="30" height="30" fill="hsl(240 100% 99.38570882341615%)" />
  <rect x="555" y="155" width="30" height="30" fill="hsl(240 100% 50%)" />
  <rect x="590" y="155" width="30" height="30" fill="hsl(240 100% 92.559914600229%)" />
  <rect x="625" y="155" width="30" height="30" fill="hsl(240 100% 75.95801391061173%)" />
  <rect x="660" y="155" width="30" height="30" fill="hsl(240 100% 88.6030107595367%)" />
  <rect x="695" y="155" width="30" height="30" fill="hsl(240 100% 99.33835994541548%)" />
  <rect x="65" y="190" width="30" height="30" fill="hsl(240 100% 50%)" />
  <rect x="100" y="190" width="30" height="30" fill="hsl(240 100% 50%)" />
  <rect x="135" y="190" width="30" height="30" fill="hsl(240 100% 50%)" />
  <rect x="170" y="190" width="30" height="30" fill="hsl(240 100% 50%)" />
  <rect x="205" y="190" width="30" height="30" fill="hsl(240 100% 50%)" />
  <rect x="240" y="190" width="30" height="30" fill="hsl(240 100% 50%)" />
  <rect x="275" y="190" width="30" height="30" fill="hsl(240 100% 50%)" />
  <rect x="310" y="190" width="30" height="30" fill="hsl(240 100% 50%)" />
  <rect x="345" y="190" width="30" height="30" fill="hsl(240 100% 50%)" />
  <rect x="380" y="190" width="30" height="30" fill="hsl(240 100% 50%)" />
  <rect x="415" y="190" width="30" height="30" fill="hsl(240 100% 50%)" />
  <rect x="450" y="190" width="30" height="30" fill="hsl(240 100% 50%)" />
  <rect x="485" y="190" width="30" height="30" fill="hsl(240 100% 50%)" />
  <rect x="520" y="190" width="30" height="30" fill="hsl(240 100% 50%)" />
  <rect x="555" y="190" width="30" height="30" fill="hsl(240 100% 50%)" />
  <rect x="590" y="190" width="30" height="30" fill="hsl(240 100% 50%)" />
  <rect x="625" y="190" width="30" height="30" fill="hsl(240 100% 50%)" />
  <rect x="660" y="190" width="30" height="30" fill="hsl(240 100% 50%)" />
  <rect x="695" y="190" width="30" height="30" fill="hsl(240 100% 50%)" />
  <rect x="100" y="225" width="30" height="30" fill="hsl(240 100% 96.18035044653644%)" />
  <rect x="135" y="225" width="30" height="30" fill="hsl(240 100% 88.77654799589337%)" />
  <rect x="170" y="225" width="30" height="30" fill="hsl(240 100% 88.97095174619798%)" />
  <rect x="240" y="225" width="30" height="30" fill="hsl(240 100% 90.76806980649391%)" />
  <rect x="310" y="225" width="30" height="30" fill="rgb(255 255 255 / 50%)" />
  <rect x="380" y="225" width="30" height="30" fill="hsl(240 100% 90.25260114464128%)" />
  <rect x="485" y="225" width="30" height="30" fill="hsl(240 100% 50%)" />
  <rect x="555" y="225" width="30" height="30" fill="rgb(255 255 255 / 50%)" />
  <rect x="625" y="225" width="30" height="30" fill="hsl(240 100% 92.93809319176586%)" />
  <rect x="660" y="225" width="30" height="30" fill="rgb(255 255 255 / 50%)" />
  <rect x="695" y="225" width="30" height="30" fill="hsl(240 100% 99.44366084186261%)" />
  <rect x="65" y="260" width="30" height="30" fill="hsl(240 100% 99.88985986365827%)" />
  <rect x="135" y="260" width="30" height="30" fill="hsl(240 100% 99.87921060292868%)" />
  <rect x="170" y="260" width="30" height="30" fill="hsl(240 100% 98.98006959806852%)" />
  <rect x="205" y="260" width="30" height="30" fill="rgb(255 255 255 / 50%)" />
  <rect x="240" y="260" width="30" height="30" fill="hsl(240 100% 87.04113664076495%)" />
  <rect x="310" y="260" width="30" height="30" fill="rgb(255 255 255 / 50%)" />
  <rect x="380" y="260" width="30" height="30" fill="hsl(240 100% 81.0757800087685%)" />
  <rect x="415" y="260" width="30" height="30" fill="rgb(255 255 255 / 50%)" />
  <rect x="450" y="260" width="30" height="30" fill="hsl(240 100% 50%)" />
  <rect x="485" y="260" width="30" height="30" fill="hsl(240 100% 71.28480694699181%)" />
  <rect x="555" y="260" width="30" height="30" fill="hsl(240 100% 97.0105335013052%)" />
  <rect x="590" y="260" width="30" height="30" fill="hsl(240 100% 94.05074170109553%)" />
  <rect x="65" y="295" width="30" height="30" fill="hsl(240 100% 85.58529756590875%)" />
  <rect x="100" y="295" width="30" height="30" fill="hsl(240 100% 97.46677599818526%)" />
  <rect x="135" y="295" width="30" height="30" fill="hsl(240 100% 95.07175214157043%)" />
  <rect x="170" y="295" width="30" height="30" fill="hsl(240 100% 90.45744216987354%)" />
  <rect x="205" y="295" width="30" height="30" fill="hsl(240 100% 99.46869955279513%)" />
  <rect x="240" y="295" width="30" height="30" fill="hsl(240 100% 50%)" />
  <rect x="275" y="295" width="30" height="30" fill="hsl(240 100% 99.85867702486058%)" />
  <rect x="310" y="295" width="30" height="30" fill="hsl(240 100% 99.4878408621812%)" />
  <rect x="345" y="295" width="30" height="30" fill="hsl(240 100% 95.10518917485301%)" />
  <rect x="380" y="295" width="30" height="30" fill="hsl(240 100% 54.27203402293752%)" />
  <rect x="415" y="295" width="30" height="30" fill="hsl(240 100% 99.31097489155634%)" />
  <rect x="450" y="295" width="30" height="30" fill="hsl(240 100% 88.58583474161657%)" />
  <rect x="485" y="295" width="30" height="30" fill="hsl(240 100% 56.87831427401232%)" />
  <rect x="590" y="295" width="30" height="30" fill="hsl(240 100% 97.57914861907038%)" />
  <rect x="695" y="295" width="30" height="30" fill="hsl(240 100% 99.97372929692024%)" />
  <rect x="65" y="330" width="30" height="30" fill="hsl(240 100% 88.68841185643355%)" />
  <rect x="100" y="330" width="30" height="30" fill="hsl(240 100% 94.78143928940678%)" />
  <rect x="135" y="330" width="30" height="30" fill="hsl(240 100% 97.22280186205265%)" />
  <rect x="170" y="330" width="30" height="30" fill="hsl(240 100% 87.98763173032569%)" />
  <rect x="205" y="330" width="30" height="30" fill="hsl(240 100% 99.25461430236327%)" />
  <rect x="240" y="330" width="30" height="30" fill="hsl(240 100% 80.134092690361%)" />
  <rect x="275" y="330" width="30" height="30" fill="hsl(240 100% 99.83680025943706%)" />
  <rect x="310" y="330" width="30" height="30" fill="rgb(255 255 255 / 50%)" />
  <rect x="345" y="330" width="30" height="30" fill="hsl(240 100% 97.27154678693132%)" />
  <rect x="380" y="330" width="30" height="30" fill="hsl(240 100% 86.01277739613967%)" />
  <rect x="415" y="330" width="30" height="30" fill="hsl(240 100% 99.81871325153371%)" />
  <rect x="450" y="330" width="30" height="30" fill="hsl(240 100% 73.8261634999709%)" />
  <rect x="485" y="330" width="30" height="30" fill="hsl(240 100% 74.20546830610901%)" />
  <rect x="520" y="330" width="30" height="30" fill="hsl(240 100% 93.87286240744601%)" />
  <rect x="555" y="330" width="30" height="30" fill="hsl(240 100% 50%)" />
  <rect x="660" y="330" width="30" height="30" fill="hsl(240 100% 89.55938364753817%)" />
  <rect x="695" y="330" width="30" height="30" fill="hsl(240 100% 95.39867751043818%)" />
  <rect x="65" y="365" width="30" height="30" fill="hsl(240 100% 57.076003109207726%)" />
  <rect x="100" y="365" width="30" height="30" fill="hsl(240 100% 71.7275395819646%)" />
  <rect x="135" y="365" width="30" height="30" fill="hsl(240 100% 81.68197956907011%)" />
  <rect x="170" y="365" width="30" height="30" fill="hsl(240 100% 50%)" />
  <rect x="205" y="365" width="30" height="30" fill="hsl(240 100% 95.992258400633%)" />
  <rect x="240" y="365" width="30" height="30" fill="hsl(240 100% 57.434001406513275%)" />
  <rect x="275" y="365" width="30" height="30" fill="hsl(240 100% 98.98014927556534%)" />
  <rect x="310" y="365" width="30" height="30" fill="hsl(240 100% 99.86227208797534%)" />
  <rect x="380" y="365" width="30" height="30" fill="hsl(240 100% 66.94340722418445%)" />
  <rect x="485" y="365" width="30" height="30" fill="hsl(240 100% 85.87489860919118%)" />
  <rect x="555" y="365" width="30" height="30" fill="hsl(240 100% 99.63610198492009%)" />
  <rect x="625" y="365" width="30" height="30" fill="hsl(240 100% 63.44150850544694%)" />
  <rect x="660" y="365" width="30" height="30" fill="hsl(240 100% 98.14540971468153%)" />
  <rect x="695" y="365" width="30" height="30" fill="hsl(240 100% 99.1832400748309%)" />
  <rect x="65" y="400" width="30" height="30" fill="hsl(240 100% 98.0754555921611%)" />
  <rect x="100" y="400" width="30" height="30" fill="hsl(240 100% 99.41275749586627%)" />
  <rect x="135" y="400" width="30" height="30" fill="hsl(240 100% 99.64020550900942%)" />
  <rect x="170" y="400" width="30" height="30" fill="hsl(240 100% 95.12818913634995%)" />
  <rect x="205" y="400" width="30" height="30" fill="hsl(240 100% 99.1978504653309%)" />
  <rect x="240" y="400" width="30" height="30" fill="hsl(240 100% 85.16807616447596%)" />
  <rect x="275" y="400" width="30" height="30" fill="hsl(240 100% 99.23922394332635%)" />
  <rect x="310" y="400" width="30" height="30" fill="rgb(255 255 255 / 50%)" />
  <rect x="380" y="400" width="30" height="30" fill="hsl(240 100% 93.77774512314377%)" />
  <rect x="415" y="400" width="30" height="30" fill="hsl(240 100% 99.96978326259476%)" />
  <rect x="450" y="400" width="30" height="30" fill="hsl(240 100% 77.59312291464084%)" />
  <rect x="485" y="400" width="30" height="30" fill="hsl(240 100% 50%)" />
  <rect x="695" y="400" width="30" height="30" fill="hsl(240 100% 99.77150216779428%)" />
  <rect x="65" y="435" width="30" height="30" fill="hsl(240 100% 93.33249859222593%)" />
  <rect x="240" y="435" width="30" height="30" fill="hsl(240 100% 50%)" />
  <rect x="310" y="435" width="30" height="30" fill="hsl(240 100% 93.34854451499713%)" />
  <rect x="380" y="435" width="30" height="30" fill="hsl(240 100% 87.02158869430608%)" />
  <rect x="415" y="435" width="30" height="30" fill="hsl(240 100% 99.79065830077859%)" />
  <rect x="240" y="470" width="30" height="30" fill="hsl(240 100% 50%)" />
  <rect x="310" y="470" width="30" height="30" fill="hsl(240 100% 95.74955214899%)" />
  <rect x="380" y="470" width="30" height="30" fill="hsl(240 100% 89.02006933511066%)" />
  <rect x="415" y="470" width="30" height="30" fill="hsl(240 100% 99.57353558308485%)" />
</svg>
