<svg xmlns="http://www.w3.org/2000/svg" viewBox="0 0 870 505">
  <rect x="0" y="0" width="870" height="505" rx="5" ry="5" fill="#222" />
  <text x="60" y="100" fill="white" font-family="sans-serif" font-weight="bold" font-size="12" text-anchor="end" dominant-baseline="middle">ba</text>
  <text x="60" y="135" fill="white" font-family="sans-serif" font-weight="bold" font-size="12" text-anchor="end" dominant-baseline="middle">det</text>
  <text x="60" y="170" fill="white" font-family="sans-serif" font-weight="bold" font-size="12" text-anchor="end" dominant-baseline="middle">gmm</text>
  <text x="60" y="205" fill="white" font-family="sans-serif" font-weight="bold" font-size="12" text-anchor="end" dominant-baseline="middle">hello</text>
  <text x="60" y="240" fill="white" font-family="sans-serif" font-weight="bold" font-size="12" text-anchor="end" dominant-baseline="middle">ht</text>
  <text x="60" y="275" fill="white" font-family="sans-serif" font-weight="bold" font-size="12" text-anchor="end" dominant-baseline="middle">kmeans</text>
  <text x="60" y="310" fill="white" font-family="sans-serif" font-weight="bold" font-size="12" text-anchor="end" dominant-baseline="middle">llsq</text>
  <text x="60" y="345" fill="white" font-family="sans-serif" font-weight="bold" font-size="12" text-anchor="end" dominant-baseline="middle">lse</text>
  <text x="60" y="380" fill="white" font-family="sans-serif" font-weight="bold" font-size="12" text-anchor="end" dominant-baseline="middle">lstm</text>
  <text x="60" y="415" fill="white" font-family="sans-serif" font-weight="bold" font-size="12" text-anchor="end" dominant-baseline="middle">ode</text>
  <text x="60" y="450" fill="white" font-family="sans-serif" font-weight="bold" font-size="12" text-anchor="end" dominant-baseline="middle">particle</text>
  <text x="60" y="485" fill="white" font-family="sans-serif" font-weight="bold" font-size="12" text-anchor="end" dominant-baseline="middle">saddle</text>
  <text x="80" y="80" fill="white" font-family="sans-serif" font-weight="bold" font-size="12" text-anchor="end" dominant-baseline="middle" transform="rotate(90 80 80)">ad-hpp</text>
  <text x="115" y="80" fill="white" font-family="sans-serif" font-weight="bold" font-size="12" text-anchor="end" dominant-baseline="middle" transform="rotate(90 115 80)">adept</text>
  <text x="150" y="80" fill="white" font-family="sans-serif" font-weight="bold" font-size="12" text-anchor="end" dominant-baseline="middle" transform="rotate(90 150 80)">adol-c</text>
  <text x="185" y="80" fill="white" font-family="sans-serif" font-weight="bold" font-size="12" text-anchor="end" dominant-baseline="middle" transform="rotate(90 185 80)">codipack</text>
  <text x="220" y="80" fill="white" font-family="sans-serif" font-weight="bold" font-size="12" text-anchor="end" dominant-baseline="middle" transform="rotate(90 220 80)">cppad</text>
  <text x="255" y="80" fill="white" font-family="sans-serif" font-weight="bold" font-size="12" text-anchor="end" dominant-baseline="middle" transform="rotate(90 255 80)">enzyme</text>
  <text x="290" y="80" fill="white" font-family="sans-serif" font-weight="bold" font-size="12" text-anchor="end" dominant-baseline="middle" transform="rotate(90 290 80)">enzyme-jl</text>
  <text x="325" y="80" fill="white" font-family="sans-serif" font-weight="bold" font-size="12" text-anchor="end" dominant-baseline="middle" transform="rotate(90 325 80)">finite</text>
  <text x="360" y="80" fill="white" font-family="sans-serif" font-weight="bold" font-size="12" text-anchor="end" dominant-baseline="middle" transform="rotate(90 360 80)">floretta</text>
  <text x="395" y="80" fill="white" font-family="sans-serif" font-weight="bold" font-size="12" text-anchor="end" dominant-baseline="middle" transform="rotate(90 395 80)">forwarddiff-jl</text>
  <text x="430" y="80" fill="white" font-family="sans-serif" font-weight="bold" font-size="12" text-anchor="end" dominant-baseline="middle" transform="rotate(90 430 80)">futhark</text>
  <text x="465" y="80" fill="white" font-family="sans-serif" font-weight="bold" font-size="12" text-anchor="end" dominant-baseline="middle" transform="rotate(90 465 80)">haskell</text>
  <text x="500" y="80" fill="white" font-family="sans-serif" font-weight="bold" font-size="12" text-anchor="end" dominant-baseline="middle" transform="rotate(90 500 80)">jax</text>
  <text x="535" y="80" fill="white" font-family="sans-serif" font-weight="bold" font-size="12" text-anchor="end" dominant-baseline="middle" transform="rotate(90 535 80)">manual</text>
  <text x="570" y="80" fill="white" font-family="sans-serif" font-weight="bold" font-size="12" text-anchor="end" dominant-baseline="middle" transform="rotate(90 570 80)">mooncake-jl</text>
  <text x="605" y="80" fill="white" font-family="sans-serif" font-weight="bold" font-size="12" text-anchor="end" dominant-baseline="middle" transform="rotate(90 605 80)">ocaml</text>
  <text x="640" y="80" fill="white" font-family="sans-serif" font-weight="bold" font-size="12" text-anchor="end" dominant-baseline="middle" transform="rotate(90 640 80)">pytorch</text>
  <text x="675" y="80" fill="white" font-family="sans-serif" font-weight="bold" font-size="12" text-anchor="end" dominant-baseline="middle" transform="rotate(90 675 80)">reversediff-jl</text>
  <text x="710" y="80" fill="white" font-family="sans-serif" font-weight="bold" font-size="12" text-anchor="end" dominant-baseline="middle" transform="rotate(90 710 80)">scilean</text>
  <text x="745" y="80" fill="white" font-family="sans-serif" font-weight="bold" font-size="12" text-anchor="end" dominant-baseline="middle" transform="rotate(90 745 80)">tapenade</text>
  <text x="780" y="80" fill="white" font-family="sans-serif" font-weight="bold" font-size="12" text-anchor="end" dominant-baseline="middle" transform="rotate(90 780 80)">tensorflow</text>
  <text x="815" y="80" fill="white" font-family="sans-serif" font-weight="bold" font-size="12" text-anchor="end" dominant-baseline="middle" transform="rotate(90 815 80)">tensorflow-js</text>
  <text x="850" y="80" fill="white" font-family="sans-serif" font-weight="bold" font-size="12" text-anchor="end" dominant-baseline="middle" transform="rotate(90 850 80)">zygote</text>
  <rect x="65" y="85" width="30" height="30" fill="hsl(240 100% 80.96256405231176%)" />
  <rect x="100" y="85" width="30" height="30" fill="hsl(240 100% 82.73555501576567%)" />
  <rect x="135" y="85" width="30" height="30" fill="hsl(240 100% 97.99308965256861%)" />
  <rect x="170" y="85" width="30" height="30" fill="hsl(240 100% 82.39281848765108%)" />
  <rect x="205" y="85" width="30" height="30" fill="hsl(240 100% 98.99524097171653%)" />
  <rect x="240" y="85" width="30" height="30" fill="hsl(240 100% 51.307228333780266%)" />
  <rect x="310" y="85" width="30" height="30" fill="hsl(240 100% 93.25798302678803%)" />
  <rect x="415" y="85" width="30" height="30" fill="hsl(240 100% 68.19422856351629%)" />
  <rect x="520" y="85" width="30" height="30" fill="hsl(240 100% 50%)" />
  <rect x="625" y="85" width="30" height="30" fill="rgb(255 255 255 / 50%)" />
  <rect x="730" y="85" width="30" height="30" fill="hsl(240 100% 75.09056748692801%)" />
  <rect x="765" y="85" width="30" height="30" fill="rgb(255 255 255 / 50%)" />
  <rect x="835" y="85" width="30" height="30" fill="hsl(240 100% 99.73331547544325%)" />
  <rect x="65" y="120" width="30" height="30" fill="hsl(240 100% 50%)" />
  <rect x="100" y="120" width="30" height="30" fill="hsl(240 100% 82.66234240644224%)" />
  <rect x="135" y="120" width="30" height="30" fill="hsl(240 100% 86.44512262940354%)" />
  <rect x="170" y="120" width="30" height="30" fill="hsl(240 100% 52.747423680047994%)" />
  <rect x="205" y="120" width="30" height="30" fill="hsl(240 100% 92.55612353173359%)" />
  <rect x="240" y="120" width="30" height="30" fill="hsl(240 100% 91.59695451390748%)" />
  <rect x="275" y="120" width="30" height="30" fill="hsl(240 100% 99.34940600119221%)" />
  <rect x="310" y="120" width="30" height="30" fill="hsl(240 100% 98.99578516172576%)" />
  <rect x="380" y="120" width="30" height="30" fill="hsl(240 100% 93.40469126236391%)" />
  <rect x="415" y="120" width="30" height="30" fill="hsl(240 100% 94.65180019162466%)" />
  <rect x="450" y="120" width="30" height="30" fill="hsl(240 100% 98.00165779927555%)" />
  <rect x="520" y="120" width="30" height="30" fill="hsl(240 100% 79.91053382443619%)" />
  <rect x="555" y="120" width="30" height="30" fill="hsl(240 100% 90.44140358211286%)" />
  <rect x="660" y="120" width="30" height="30" fill="rgb(255 255 255 / 50%)" />
  <rect x="835" y="120" width="30" height="30" fill="rgb(255 255 255 / 50%)" />
  <rect x="65" y="155" width="30" height="30" fill="hsl(240 100% 98.23964420047622%)" />
  <rect x="100" y="155" width="30" height="30" fill="hsl(240 100% 98.80017126018966%)" />
  <rect x="135" y="155" width="30" height="30" fill="hsl(240 100% 99.0725166456164%)" />
  <rect x="170" y="155" width="30" height="30" fill="hsl(240 100% 97.97587356680665%)" />
  <rect x="205" y="155" width="30" height="30" fill="hsl(240 100% 99.84437968348348%)" />
  <rect x="240" y="155" width="30" height="30" fill="hsl(240 100% 90.76968222443607%)" />
  <rect x="275" y="155" width="30" height="30" fill="hsl(240 100% 92.11309285466866%)" />
  <rect x="310" y="155" width="30" height="30" fill="rgb(255 255 255 / 50%)" />
  <rect x="415" y="155" width="30" height="30" fill="hsl(240 100% 92.68359281428562%)" />
  <rect x="485" y="155" width="30" height="30" fill="hsl(240 100% 50%)" />
  <rect x="520" y="155" width="30" height="30" fill="hsl(240 100% 82.72787178050771%)" />
  <rect x="590" y="155" width="30" height="30" fill="hsl(240 100% 99.5634432649721%)" />
  <rect x="625" y="155" width="30" height="30" fill="hsl(240 100% 65.07604246969623%)" />
  <rect x="695" y="155" width="30" height="30" fill="hsl(240 100% 95.26463472301971%)" />
  <rect x="730" y="155" width="30" height="30" fill="hsl(240 100% 83.112769093511%)" />
  <rect x="765" y="155" width="30" height="30" fill="hsl(240 100% 99.55812085370967%)" />
  <rect x="835" y="155" width="30" height="30" fill="hsl(240 100% 96.12819746307282%)" />
  <rect x="65" y="190" width="30" height="30" fill="hsl(240 100% 50%)" />
  <rect x="100" y="190" width="30" height="30" fill="hsl(240 100% 50%)" />
  <rect x="135" y="190" width="30" height="30" fill="hsl(240 100% 50%)" />
  <rect x="170" y="190" width="30" height="30" fill="hsl(240 100% 50%)" />
  <rect x="205" y="190" width="30" height="30" fill="hsl(240 100% 50%)" />
  <rect x="240" y="190" width="30" height="30" fill="hsl(240 100% 50%)" />
  <rect x="275" y="190" width="30" height="30" fill="hsl(240 100% 50%)" />
  <rect x="310" y="190" width="30" height="30" fill="hsl(240 100% 50%)" />
  <rect x="345" y="190" width="30" height="30" fill="hsl(240 100% 50%)" />
  <rect x="380" y="190" width="30" height="30" fill="hsl(240 100% 50%)" />
  <rect x="415" y="190" width="30" height="30" fill="hsl(240 100% 50%)" />
  <rect x="450" y="190" width="30" height="30" fill="hsl(240 100% 50%)" />
  <rect x="485" y="190" width="30" height="30" fill="hsl(240 100% 50%)" />
  <rect x="520" y="190" width="30" height="30" fill="hsl(240 100% 50%)" />
  <rect x="555" y="190" width="30" height="30" fill="hsl(240 100% 50%)" />
  <rect x="590" y="190" width="30" height="30" fill="hsl(240 100% 50%)" />
  <rect x="625" y="190" width="30" height="30" fill="hsl(240 100% 50%)" />
  <rect x="660" y="190" width="30" height="30" fill="hsl(240 100% 50%)" />
  <rect x="695" y="190" width="30" height="30" fill="hsl(240 100% 50%)" />
  <rect x="730" y="190" width="30" height="30" fill="hsl(240 100% 50%)" />
  <rect x="765" y="190" width="30" height="30" fill="hsl(240 100% 50%)" />
  <rect x="800" y="190" width="30" height="30" fill="hsl(240 100% 50%)" />
  <rect x="835" y="190" width="30" height="30" fill="hsl(240 100% 50%)" />
  <rect x="100" y="225" width="30" height="30" fill="hsl(240 100% 96.61907951481199%)" />
  <rect x="135" y="225" width="30" height="30" fill="hsl(240 100% 88.85113461923967%)" />
  <rect x="170" y="225" width="30" height="30" fill="hsl(240 100% 89.05352147175267%)" />
  <rect x="240" y="225" width="30" height="30" fill="hsl(240 100% 91.10377080155533%)" />
  <rect x="310" y="225" width="30" height="30" fill="rgb(255 255 255 / 50%)" />
  <rect x="415" y="225" width="30" height="30" fill="hsl(240 100% 90.36441752278733%)" />
  <rect x="520" y="225" width="30" height="30" fill="hsl(240 100% 50%)" />
  <rect x="625" y="225" width="30" height="30" fill="rgb(255 255 255 / 50%)" />
  <rect x="730" y="225" width="30" height="30" fill="hsl(240 100% 93.03893894535904%)" />
  <rect x="765" y="225" width="30" height="30" fill="rgb(255 255 255 / 50%)" />
  <rect x="835" y="225" width="30" height="30" fill="hsl(240 100% 94.40873817905945%)" />
  <rect x="65" y="260" width="30" height="30" fill="hsl(240 100% 99.91483933058974%)" />
  <rect x="135" y="260" width="30" height="30" fill="hsl(240 100% 99.85757191046271%)" />
  <rect x="170" y="260" width="30" height="30" fill="hsl(240 100% 98.83851271070758%)" />
  <rect x="205" y="260" width="30" height="30" fill="rgb(255 255 255 / 50%)" />
  <rect x="240" y="260" width="30" height="30" fill="hsl(240 100% 87.1979144829159%)" />
  <rect x="310" y="260" width="30" height="30" fill="rgb(255 255 255 / 50%)" />
  <rect x="415" y="260" width="30" height="30" fill="hsl(240 100% 80.82321517425348%)" />
  <rect x="450" y="260" width="30" height="30" fill="rgb(255 255 255 / 50%)" />
  <rect x="485" y="260" width="30" height="30" fill="hsl(240 100% 50%)" />
  <rect x="520" y="260" width="30" height="30" fill="hsl(240 100% 71.63397819273465%)" />
  <rect x="625" y="260" width="30" height="30" fill="hsl(240 100% 96.95251508817277%)" />
  <rect x="695" y="260" width="30" height="30" fill="hsl(240 100% 94.175954890172%)" />
  <rect x="65" y="295" width="30" height="30" fill="hsl(240 100% 85.8758276257081%)" />
  <rect x="100" y="295" width="30" height="30" fill="hsl(240 100% 97.55538964488703%)" />
  <rect x="135" y="295" width="30" height="30" fill="hsl(240 100% 95.20620368825497%)" />
  <rect x="170" y="295" width="30" height="30" fill="hsl(240 100% 90.69277493671134%)" />
  <rect x="205" y="295" width="30" height="30" fill="hsl(240 100% 99.45378179845788%)" />
  <rect x="240" y="295" width="30" height="30" fill="hsl(240 100% 50.844155652250144%)" />
  <rect x="275" y="295" width="30" height="30" fill="hsl(240 100% 50%)" />
  <rect x="310" y="295" width="30" height="30" fill="hsl(240 100% 99.50098340248036%)" />
  <rect x="345" y="295" width="30" height="30" fill="hsl(240 100% 94.74226830302882%)" />
  <rect x="415" y="295" width="30" height="30" fill="hsl(240 100% 55.36504988302885%)" />
  <rect x="450" y="295" width="30" height="30" fill="hsl(240 100% 99.32768813685922%)" />
  <rect x="485" y="295" width="30" height="30" fill="hsl(240 100% 87.91128601200626%)" />
  <rect x="520" y="295" width="30" height="30" fill="hsl(240 100% 57.99169861369391%)" />
  <rect x="695" y="295" width="30" height="30" fill="hsl(240 100% 97.61331244306788%)" />
  <rect x="800" y="295" width="30" height="30" fill="hsl(240 100% 99.58567992188169%)" />
  <rect x="835" y="295" width="30" height="30" fill="hsl(240 100% 99.95546979432314%)" />
  <rect x="65" y="330" width="30" height="30" fill="hsl(240 100% 87.93446178607344%)" />
  <rect x="100" y="330" width="30" height="30" fill="hsl(240 100% 94.46808116908805%)" />
  <rect x="135" y="330" width="30" height="30" fill="hsl(240 100% 96.99978158119742%)" />
  <rect x="170" y="330" width="30" height="30" fill="hsl(240 100% 87.55170197844419%)" />
  <rect x="205" y="330" width="30" height="30" fill="hsl(240 100% 99.20209377682767%)" />
  <rect x="240" y="330" width="30" height="30" fill="hsl(240 100% 78.29008294154916%)" />
  <rect x="275" y="330" width="30" height="30" fill="hsl(240 100% 87.18344948758856%)" />
  <rect x="310" y="330" width="30" height="30" fill="rgb(255 255 255 / 50%)" />
  <rect x="345" y="330" width="30" height="30" fill="hsl(240 100% 97.01212319641787%)" />
  <rect x="415" y="330" width="30" height="30" fill="hsl(240 100% 84.68806776178928%)" />
  <rect x="450" y="330" width="30" height="30" fill="hsl(240 100% 99.79328729846567%)" />
  <rect x="485" y="330" width="30" height="30" fill="hsl(240 100% 67.75019250925061%)" />
  <rect x="520" y="330" width="30" height="30" fill="hsl(240 100% 74.85744506244569%)" />
  <rect x="590" y="330" width="30" height="30" fill="hsl(240 100% 93.24075999820698%)" />
  <rect x="625" y="330" width="30" height="30" fill="hsl(240 100% 50%)" />
  <rect x="765" y="330" width="30" height="30" fill="hsl(240 100% 94.43189618750318%)" />
  <rect x="800" y="330" width="30" height="30" fill="hsl(240 100% 99.15414504565395%)" />
  <rect x="835" y="330" width="30" height="30" fill="hsl(240 100% 80.49795340246266%)" />
  <rect x="65" y="365" width="30" height="30" fill="hsl(240 100% 57.41416243835799%)" />
  <rect x="100" y="365" width="30" height="30" fill="hsl(240 100% 72.19734865494189%)" />
  <rect x="135" y="365" width="30" height="30" fill="hsl(240 100% 82.28823658144981%)" />
  <rect x="170" y="365" width="30" height="30" fill="hsl(240 100% 50%)" />
  <rect x="205" y="365" width="30" height="30" fill="hsl(240 100% 96.19998907876213%)" />
  <rect x="240" y="365" width="30" height="30" fill="hsl(240 100% 60.3582544413641%)" />
  <rect x="275" y="365" width="30" height="30" fill="hsl(240 100% 92.35488660010087%)" />
  <rect x="310" y="365" width="30" height="30" fill="hsl(240 100% 99.8613274318905%)" />
  <rect x="415" y="365" width="30" height="30" fill="hsl(240 100% 66.95029542790135%)" />
  <rect x="520" y="365" width="30" height="30" fill="hsl(240 100% 86.01655501256185%)" />
  <rect x="625" y="365" width="30" height="30" fill="hsl(240 100% 99.64187295177229%)" />
  <rect x="730" y="365" width="30" height="30" fill="hsl(240 100% 63.728100720894304%)" />
  <rect x="765" y="365" width="30" height="30" fill="hsl(240 100% 98.18502210822548%)" />
  <rect x="835" y="365" width="30" height="30" fill="hsl(240 100% 98.79160832100285%)" />
  <rect x="65" y="400" width="30" height="30" fill="hsl(240 100% 98.16031864962312%)" />
  <rect x="100" y="400" width="30" height="30" fill="hsl(240 100% 99.27225859346493%)" />
  <rect x="135" y="400" width="30" height="30" fill="hsl(240 100% 99.58290762475231%)" />
  <rect x="170" y="400" width="30" height="30" fill="hsl(240 100% 94.06954978590542%)" />
  <rect x="205" y="400" width="30" height="30" fill="hsl(240 100% 99.0332999145043%)" />
  <rect x="240" y="400" width="30" height="30" fill="hsl(240 100% 82.08884961302074%)" />
  <rect x="275" y="400" width="30" height="30" fill="hsl(240 100% 94.09625813614322%)" />
  <rect x="310" y="400" width="30" height="30" fill="rgb(255 255 255 / 50%)" />
  <rect x="380" y="400" width="30" height="30" fill="rgb(255 255 255 / 50%)" />
  <rect x="415" y="400" width="30" height="30" fill="hsl(240 100% 92.48667975273065%)" />
  <rect x="450" y="400" width="30" height="30" fill="hsl(240 100% 99.96242970441077%)" />
  <rect x="485" y="400" width="30" height="30" fill="hsl(240 100% 72.9879965034935%)" />
  <rect x="520" y="400" width="30" height="30" fill="hsl(240 100% 50%)" />
  <rect x="555" y="400" width="30" height="30" fill="hsl(240 100% 98.91282062897332%)" />
  <rect x="660" y="400" width="30" height="30" fill="rgb(255 255 255 / 50%)" />
  <rect x="835" y="400" width="30" height="30" fill="hsl(240 100% 98.94196987531424%)" />
  <rect x="65" y="435" width="30" height="30" fill="hsl(240 100% 92.93788264059174%)" />
  <rect x="240" y="435" width="30" height="30" fill="hsl(240 100% 50%)" />
  <rect x="310" y="435" width="30" height="30" fill="hsl(240 100% 94.29903747629244%)" />
  <rect x="415" y="435" width="30" height="30" fill="hsl(240 100% 87.29842474510832%)" />
  <rect x="450" y="435" width="30" height="30" fill="hsl(240 100% 99.81382541253949%)" />
  <rect x="65" y="470" width="30" height="30" fill="hsl(240 100% 50%)" />
  <rect x="240" y="470" width="30" height="30" fill="hsl(240 100% 50.3695256572124%)" />
  <rect x="310" y="470" width="30" height="30" fill="hsl(240 100% 97.16189859958754%)" />
  <rect x="415" y="470" width="30" height="30" fill="hsl(240 100% 89.0842267511751%)" />
  <rect x="450" y="470" width="30" height="30" fill="hsl(240 100% 99.58378913023358%)" />
</svg>
