<svg xmlns="http://www.w3.org/2000/svg" viewBox="0 0 660 470">
  <rect x="0" y="0" width="660" height="470" rx="5" ry="5" fill="#222" />
  <text x="60" y="100" fill="white" font-family="sans-serif" font-weight="bold" font-size="12" text-anchor="end" dominant-baseline="middle">ba</text>
  <text x="60" y="135" fill="white" font-family="sans-serif" font-weight="bold" font-size="12" text-anchor="end" dominant-baseline="middle">det</text>
  <text x="60" y="170" fill="white" font-family="sans-serif" font-weight="bold" font-size="12" text-anchor="end" dominant-baseline="middle">gmm</text>
  <text x="60" y="205" fill="white" font-family="sans-serif" font-weight="bold" font-size="12" text-anchor="end" dominant-baseline="middle">hello</text>
  <text x="60" y="240" fill="white" font-family="sans-serif" font-weight="bold" font-size="12" text-anchor="end" dominant-baseline="middle">ht</text>
  <text x="60" y="275" fill="white" font-family="sans-serif" font-weight="bold" font-size="12" text-anchor="end" dominant-baseline="middle">kmeans</text>
  <text x="60" y="310" fill="white" font-family="sans-serif" font-weight="bold" font-size="12" text-anchor="end" dominant-baseline="middle">llsq</text>
  <text x="60" y="345" fill="white" font-family="sans-serif" font-weight="bold" font-size="12" text-anchor="end" dominant-baseline="middle">lstm</text>
  <text x="60" y="380" fill="white" font-family="sans-serif" font-weight="bold" font-size="12" text-anchor="end" dominant-baseline="middle">ode</text>
  <text x="60" y="415" fill="white" font-family="sans-serif" font-weight="bold" font-size="12" text-anchor="end" dominant-baseline="middle">particle</text>
  <text x="60" y="450" fill="white" font-family="sans-serif" font-weight="bold" font-size="12" text-anchor="end" dominant-baseline="middle">saddle</text>
  <text x="80" y="80" fill="white" font-family="sans-serif" font-weight="bold" font-size="12" text-anchor="end" dominant-baseline="middle" transform="rotate(90 80 80)">adept</text>
  <text x="115" y="80" fill="white" font-family="sans-serif" font-weight="bold" font-size="12" text-anchor="end" dominant-baseline="middle" transform="rotate(90 115 80)">adol-c</text>
  <text x="150" y="80" fill="white" font-family="sans-serif" font-weight="bold" font-size="12" text-anchor="end" dominant-baseline="middle" transform="rotate(90 150 80)">codipack</text>
  <text x="185" y="80" fill="white" font-family="sans-serif" font-weight="bold" font-size="12" text-anchor="end" dominant-baseline="middle" transform="rotate(90 185 80)">cppad</text>
  <text x="220" y="80" fill="white" font-family="sans-serif" font-weight="bold" font-size="12" text-anchor="end" dominant-baseline="middle" transform="rotate(90 220 80)">enzyme</text>
  <text x="255" y="80" fill="white" font-family="sans-serif" font-weight="bold" font-size="12" text-anchor="end" dominant-baseline="middle" transform="rotate(90 255 80)">finite</text>
  <text x="290" y="80" fill="white" font-family="sans-serif" font-weight="bold" font-size="12" text-anchor="end" dominant-baseline="middle" transform="rotate(90 290 80)">floretta</text>
  <text x="325" y="80" fill="white" font-family="sans-serif" font-weight="bold" font-size="12" text-anchor="end" dominant-baseline="middle" transform="rotate(90 325 80)">futhark</text>
  <text x="360" y="80" fill="white" font-family="sans-serif" font-weight="bold" font-size="12" text-anchor="end" dominant-baseline="middle" transform="rotate(90 360 80)">haskell</text>
  <text x="395" y="80" fill="white" font-family="sans-serif" font-weight="bold" font-size="12" text-anchor="end" dominant-baseline="middle" transform="rotate(90 395 80)">jax</text>
  <text x="430" y="80" fill="white" font-family="sans-serif" font-weight="bold" font-size="12" text-anchor="end" dominant-baseline="middle" transform="rotate(90 430 80)">manual</text>
  <text x="465" y="80" fill="white" font-family="sans-serif" font-weight="bold" font-size="12" text-anchor="end" dominant-baseline="middle" transform="rotate(90 465 80)">ocaml</text>
  <text x="500" y="80" fill="white" font-family="sans-serif" font-weight="bold" font-size="12" text-anchor="end" dominant-baseline="middle" transform="rotate(90 500 80)">pytorch</text>
  <text x="535" y="80" fill="white" font-family="sans-serif" font-weight="bold" font-size="12" text-anchor="end" dominant-baseline="middle" transform="rotate(90 535 80)">scilean</text>
  <text x="570" y="80" fill="white" font-family="sans-serif" font-weight="bold" font-size="12" text-anchor="end" dominant-baseline="middle" transform="rotate(90 570 80)">tapenade</text>
  <text x="605" y="80" fill="white" font-family="sans-serif" font-weight="bold" font-size="12" text-anchor="end" dominant-baseline="middle" transform="rotate(90 605 80)">tensorflow</text>
  <text x="640" y="80" fill="white" font-family="sans-serif" font-weight="bold" font-size="12" text-anchor="end" dominant-baseline="middle" transform="rotate(90 640 80)">zygote</text>
  <rect x="65" y="85" width="30" height="30" fill="hsl(240 100% 83.34548994975077%)" />
  <rect x="100" y="85" width="30" height="30" fill="hsl(240 100% 97.85958845979839%)" />
  <rect x="135" y="85" width="30" height="30" fill="hsl(240 100% 88.90680175272749%)" />
  <rect x="205" y="85" width="30" height="30" fill="hsl(240 100% 50.69235644032675%)" />
  <rect x="240" y="85" width="30" height="30" fill="hsl(240 100% 92.6101447857074%)" />
  <rect x="310" y="85" width="30" height="30" fill="hsl(240 100% 68.37676153529404%)" />
  <rect x="415" y="85" width="30" height="30" fill="hsl(240 100% 50%)" />
  <rect x="485" y="85" width="30" height="30" fill="rgb(255 255 255 / 50%)" />
  <rect x="555" y="85" width="30" height="30" fill="hsl(240 100% 72.62349202282213%)" />
  <rect x="590" y="85" width="30" height="30" fill="rgb(255 255 255 / 50%)" />
  <rect x="65" y="120" width="30" height="30" fill="hsl(240 100% 89.84393988763387%)" />
  <rect x="100" y="120" width="30" height="30" fill="hsl(240 100% 90.29013196937458%)" />
  <rect x="135" y="120" width="30" height="30" fill="hsl(240 100% 67.38484892751539%)" />
  <rect x="170" y="120" width="30" height="30" fill="hsl(240 100% 50%)" />
  <rect x="205" y="120" width="30" height="30" fill="hsl(240 100% 94.57454801894035%)" />
  <rect x="240" y="120" width="30" height="30" fill="hsl(240 100% 99.3320212610131%)" />
  <rect x="310" y="120" width="30" height="30" fill="hsl(240 100% 96.53330833921511%)" />
  <rect x="345" y="120" width="30" height="30" fill="hsl(240 100% 98.63996917441129%)" />
  <rect x="415" y="120" width="30" height="30" fill="hsl(240 100% 86.65118323364042%)" />
  <rect x="65" y="155" width="30" height="30" fill="hsl(240 100% 98.1843206930279%)" />
  <rect x="100" y="155" width="30" height="30" fill="hsl(240 100% 98.69910257051056%)" />
  <rect x="135" y="155" width="30" height="30" fill="hsl(240 100% 97.11802164039686%)" />
  <rect x="170" y="155" width="30" height="30" fill="rgb(255 255 255 / 50%)" />
  <rect x="205" y="155" width="30" height="30" fill="hsl(240 100% 86.19252292577683%)" />
  <rect x="240" y="155" width="30" height="30" fill="rgb(255 255 255 / 50%)" />
  <rect x="310" y="155" width="30" height="30" fill="hsl(240 100% 89.72935554156986%)" />
  <rect x="380" y="155" width="30" height="30" fill="hsl(240 100% 68.19451156197923%)" />
  <rect x="415" y="155" width="30" height="30" fill="hsl(240 100% 74.36924884040845%)" />
  <rect x="450" y="155" width="30" height="30" fill="hsl(240 100% 99.32492230854938%)" />
  <rect x="485" y="155" width="30" height="30" fill="hsl(240 100% 50%)" />
  <rect x="520" y="155" width="30" height="30" fill="hsl(240 100% 92.35140169368782%)" />
  <rect x="555" y="155" width="30" height="30" fill="hsl(240 100% 74.45408440917107%)" />
  <rect x="590" y="155" width="30" height="30" fill="hsl(240 100% 88.01552707250114%)" />
  <rect x="65" y="190" width="30" height="30" fill="hsl(240 100% 50%)" />
  <rect x="100" y="190" width="30" height="30" fill="hsl(240 100% 50%)" />
  <rect x="135" y="190" width="30" height="30" fill="hsl(240 100% 50%)" />
  <rect x="170" y="190" width="30" height="30" fill="hsl(240 100% 50%)" />
  <rect x="205" y="190" width="30" height="30" fill="hsl(240 100% 50%)" />
  <rect x="240" y="190" width="30" height="30" fill="hsl(240 100% 50%)" />
  <rect x="275" y="190" width="30" height="30" fill="hsl(240 100% 50%)" />
  <rect x="310" y="190" width="30" height="30" fill="hsl(240 100% 50%)" />
  <rect x="345" y="190" width="30" height="30" fill="hsl(240 100% 50%)" />
  <rect x="380" y="190" width="30" height="30" fill="hsl(240 100% 50%)" />
  <rect x="415" y="190" width="30" height="30" fill="hsl(240 100% 50%)" />
  <rect x="450" y="190" width="30" height="30" fill="hsl(240 100% 50%)" />
  <rect x="485" y="190" width="30" height="30" fill="hsl(240 100% 50%)" />
  <rect x="520" y="190" width="30" height="30" fill="hsl(240 100% 50%)" />
  <rect x="555" y="190" width="30" height="30" fill="hsl(240 100% 50%)" />
  <rect x="590" y="190" width="30" height="30" fill="hsl(240 100% 50%)" />
  <rect x="625" y="190" width="30" height="30" fill="hsl(240 100% 50%)" />
  <rect x="65" y="225" width="30" height="30" fill="hsl(240 100% 96.0422290710867%)" />
  <rect x="100" y="225" width="30" height="30" fill="hsl(240 100% 96.30263093985242%)" />
  <rect x="135" y="225" width="30" height="30" fill="hsl(240 100% 88.30338719735944%)" />
  <rect x="205" y="225" width="30" height="30" fill="hsl(240 100% 90.14946946365671%)" />
  <rect x="240" y="225" width="30" height="30" fill="rgb(255 255 255 / 50%)" />
  <rect x="310" y="225" width="30" height="30" fill="hsl(240 100% 89.6364389465331%)" />
  <rect x="415" y="225" width="30" height="30" fill="hsl(240 100% 50%)" />
  <rect x="485" y="225" width="30" height="30" fill="rgb(255 255 255 / 50%)" />
  <rect x="555" y="225" width="30" height="30" fill="rgb(255 255 255 / 50%)" />
  <rect x="590" y="225" width="30" height="30" fill="rgb(255 255 255 / 50%)" />
  <rect x="100" y="260" width="30" height="30" fill="hsl(240 100% 99.89274592042646%)" />
  <rect x="135" y="260" width="30" height="30" fill="hsl(240 100% 99.40328160948881%)" />
  <rect x="170" y="260" width="30" height="30" fill="rgb(255 255 255 / 50%)" />
  <rect x="205" y="260" width="30" height="30" fill="hsl(240 100% 87.66357319570326%)" />
  <rect x="240" y="260" width="30" height="30" fill="rgb(255 255 255 / 50%)" />
  <rect x="310" y="260" width="30" height="30" fill="hsl(240 100% 82.81222792601584%)" />
  <rect x="345" y="260" width="30" height="30" fill="rgb(255 255 255 / 50%)" />
  <rect x="380" y="260" width="30" height="30" fill="hsl(240 100% 50%)" />
  <rect x="415" y="260" width="30" height="30" fill="hsl(240 100% 76.19605081181864%)" />
  <rect x="485" y="260" width="30" height="30" fill="hsl(240 100% 96.9839720469481%)" />
  <rect x="520" y="260" width="30" height="30" fill="hsl(240 100% 94.03471752580181%)" />
  <rect x="65" y="295" width="30" height="30" fill="hsl(240 100% 66.96019788545699%)" />
  <rect x="100" y="295" width="30" height="30" fill="hsl(240 100% 59.409552002390576%)" />
  <rect x="135" y="295" width="30" height="30" fill="hsl(240 100% 60.238653260882785%)" />
  <rect x="170" y="295" width="30" height="30" fill="hsl(240 100% 58.11057426221864%)" />
  <rect x="205" y="295" width="30" height="30" fill="hsl(240 100% 50%)" />
  <rect x="240" y="295" width="30" height="30" fill="hsl(240 100% 99.42639421591895%)" />
  <rect x="310" y="295" width="30" height="30" fill="hsl(240 100% 50.459640797183425%)" />
  <rect x="345" y="295" width="30" height="30" fill="hsl(240 100% 89.87408183471636%)" />
  <rect x="415" y="295" width="30" height="30" fill="hsl(240 100% 53.57443054284087%)" />
  <rect x="520" y="295" width="30" height="30" fill="hsl(240 100% 55.303983750202214%)" />
  <rect x="65" y="330" width="30" height="30" fill="hsl(240 100% 69.68582599475432%)" />
  <rect x="100" y="330" width="30" height="30" fill="hsl(240 100% 80.88456183378281%)" />
  <rect x="135" y="330" width="30" height="30" fill="hsl(240 100% 50%)" />
  <rect x="170" y="330" width="30" height="30" fill="hsl(240 100% 89.75717975807767%)" />
  <rect x="205" y="330" width="30" height="30" fill="hsl(240 100% 51.19454496146998%)" />
  <rect x="240" y="330" width="30" height="30" fill="hsl(240 100% 99.8515406673878%)" />
  <rect x="310" y="330" width="30" height="30" fill="hsl(240 100% 63.93283564966108%)" />
  <rect x="415" y="330" width="30" height="30" fill="hsl(240 100% 84.61148741249639%)" />
  <rect x="485" y="330" width="30" height="30" fill="hsl(240 100% 99.60198575274252%)" />
  <rect x="520" y="330" width="30" height="30" fill="hsl(240 100% 89.4652416580779%)" />
  <rect x="555" y="330" width="30" height="30" fill="hsl(240 100% 60.26922656025008%)" />
  <rect x="590" y="330" width="30" height="30" fill="hsl(240 100% 98.08312097195268%)" />
  <rect x="65" y="365" width="30" height="30" fill="hsl(240 100% 99.34213589820793%)" />
  <rect x="100" y="365" width="30" height="30" fill="hsl(240 100% 99.62711057361963%)" />
  <rect x="135" y="365" width="30" height="30" fill="hsl(240 100% 94.69313761930772%)" />
  <rect x="170" y="365" width="30" height="30" fill="hsl(240 100% 61.132522699688856%)" />
  <rect x="205" y="365" width="30" height="30" fill="hsl(240 100% 88.85504117673315%)" />
  <rect x="240" y="365" width="30" height="30" fill="rgb(255 255 255 / 50%)" />
  <rect x="310" y="365" width="30" height="30" fill="hsl(240 100% 96.08307064808623%)" />
  <rect x="345" y="365" width="30" height="30" fill="hsl(240 100% 99.96925486882613%)" />
  <rect x="415" y="365" width="30" height="30" fill="hsl(240 100% 50%)" />
  <rect x="205" y="400" width="30" height="30" fill="hsl(240 100% 50%)" />
  <rect x="240" y="400" width="30" height="30" fill="hsl(240 100% 95.2178883109059%)" />
  <rect x="310" y="400" width="30" height="30" fill="hsl(240 100% 87.93450435601177%)" />
  <rect x="345" y="400" width="30" height="30" fill="hsl(240 100% 99.76917775854444%)" />
  <rect x="205" y="435" width="30" height="30" fill="hsl(240 100% 50%)" />
  <rect x="240" y="435" width="30" height="30" fill="hsl(240 100% 95.82245853187305%)" />
  <rect x="310" y="435" width="30" height="30" fill="hsl(240 100% 89.06794337704153%)" />
  <rect x="345" y="435" width="30" height="30" fill="hsl(240 100% 99.559949253704%)" />
</svg>
