<svg xmlns="http://www.w3.org/2000/svg" viewBox="0 0 870 505">
  <rect x="0" y="0" width="870" height="505" rx="5" ry="5" fill="#222" />
  <text x="60" y="100" fill="white" font-family="sans-serif" font-weight="bold" font-size="12" text-anchor="end" dominant-baseline="middle">ba</text>
  <text x="60" y="135" fill="white" font-family="sans-serif" font-weight="bold" font-size="12" text-anchor="end" dominant-baseline="middle">det</text>
  <text x="60" y="170" fill="white" font-family="sans-serif" font-weight="bold" font-size="12" text-anchor="end" dominant-baseline="middle">gmm</text>
  <text x="60" y="205" fill="white" font-family="sans-serif" font-weight="bold" font-size="12" text-anchor="end" dominant-baseline="middle">hello</text>
  <text x="60" y="240" fill="white" font-family="sans-serif" font-weight="bold" font-size="12" text-anchor="end" dominant-baseline="middle">ht</text>
  <text x="60" y="275" fill="white" font-family="sans-serif" font-weight="bold" font-size="12" text-anchor="end" dominant-baseline="middle">kmeans</text>
  <text x="60" y="310" fill="white" font-family="sans-serif" font-weight="bold" font-size="12" text-anchor="end" dominant-baseline="middle">llsq</text>
  <text x="60" y="345" fill="white" font-family="sans-serif" font-weight="bold" font-size="12" text-anchor="end" dominant-baseline="middle">lse</text>
  <text x="60" y="380" fill="white" font-family="sans-serif" font-weight="bold" font-size="12" text-anchor="end" dominant-baseline="middle">lstm</text>
  <text x="60" y="415" fill="white" font-family="sans-serif" font-weight="bold" font-size="12" text-anchor="end" dominant-baseline="middle">ode</text>
  <text x="60" y="450" fill="white" font-family="sans-serif" font-weight="bold" font-size="12" text-anchor="end" dominant-baseline="middle">particle</text>
  <text x="60" y="485" fill="white" font-family="sans-serif" font-weight="bold" font-size="12" text-anchor="end" dominant-baseline="middle">saddle</text>
  <text x="80" y="80" fill="white" font-family="sans-serif" font-weight="bold" font-size="12" text-anchor="end" dominant-baseline="middle" transform="rotate(90 80 80)">ad-hpp</text>
  <text x="115" y="80" fill="white" font-family="sans-serif" font-weight="bold" font-size="12" text-anchor="end" dominant-baseline="middle" transform="rotate(90 115 80)">adept</text>
  <text x="150" y="80" fill="white" font-family="sans-serif" font-weight="bold" font-size="12" text-anchor="end" dominant-baseline="middle" transform="rotate(90 150 80)">adol-c</text>
  <text x="185" y="80" fill="white" font-family="sans-serif" font-weight="bold" font-size="12" text-anchor="end" dominant-baseline="middle" transform="rotate(90 185 80)">codipack</text>
  <text x="220" y="80" fill="white" font-family="sans-serif" font-weight="bold" font-size="12" text-anchor="end" dominant-baseline="middle" transform="rotate(90 220 80)">cppad</text>
  <text x="255" y="80" fill="white" font-family="sans-serif" font-weight="bold" font-size="12" text-anchor="end" dominant-baseline="middle" transform="rotate(90 255 80)">enzyme</text>
  <text x="290" y="80" fill="white" font-family="sans-serif" font-weight="bold" font-size="12" text-anchor="end" dominant-baseline="middle" transform="rotate(90 290 80)">enzyme-jl</text>
  <text x="325" y="80" fill="white" font-family="sans-serif" font-weight="bold" font-size="12" text-anchor="end" dominant-baseline="middle" transform="rotate(90 325 80)">finite</text>
  <text x="360" y="80" fill="white" font-family="sans-serif" font-weight="bold" font-size="12" text-anchor="end" dominant-baseline="middle" transform="rotate(90 360 80)">floretta</text>
  <text x="395" y="80" fill="white" font-family="sans-serif" font-weight="bold" font-size="12" text-anchor="end" dominant-baseline="middle" transform="rotate(90 395 80)">forwarddiff-jl</text>
  <text x="430" y="80" fill="white" font-family="sans-serif" font-weight="bold" font-size="12" text-anchor="end" dominant-baseline="middle" transform="rotate(90 430 80)">futhark</text>
  <text x="465" y="80" fill="white" font-family="sans-serif" font-weight="bold" font-size="12" text-anchor="end" dominant-baseline="middle" transform="rotate(90 465 80)">haskell</text>
  <text x="500" y="80" fill="white" font-family="sans-serif" font-weight="bold" font-size="12" text-anchor="end" dominant-baseline="middle" transform="rotate(90 500 80)">jax</text>
  <text x="535" y="80" fill="white" font-family="sans-serif" font-weight="bold" font-size="12" text-anchor="end" dominant-baseline="middle" transform="rotate(90 535 80)">manual</text>
  <text x="570" y="80" fill="white" font-family="sans-serif" font-weight="bold" font-size="12" text-anchor="end" dominant-baseline="middle" transform="rotate(90 570 80)">mooncake-jl</text>
  <text x="605" y="80" fill="white" font-family="sans-serif" font-weight="bold" font-size="12" text-anchor="end" dominant-baseline="middle" transform="rotate(90 605 80)">ocaml</text>
  <text x="640" y="80" fill="white" font-family="sans-serif" font-weight="bold" font-size="12" text-anchor="end" dominant-baseline="middle" transform="rotate(90 640 80)">pytorch</text>
  <text x="675" y="80" fill="white" font-family="sans-serif" font-weight="bold" font-size="12" text-anchor="end" dominant-baseline="middle" transform="rotate(90 675 80)">reversediff-jl</text>
  <text x="710" y="80" fill="white" font-family="sans-serif" font-weight="bold" font-size="12" text-anchor="end" dominant-baseline="middle" transform="rotate(90 710 80)">scilean</text>
  <text x="745" y="80" fill="white" font-family="sans-serif" font-weight="bold" font-size="12" text-anchor="end" dominant-baseline="middle" transform="rotate(90 745 80)">tapenade</text>
  <text x="780" y="80" fill="white" font-family="sans-serif" font-weight="bold" font-size="12" text-anchor="end" dominant-baseline="middle" transform="rotate(90 780 80)">tensorflow</text>
  <text x="815" y="80" fill="white" font-family="sans-serif" font-weight="bold" font-size="12" text-anchor="end" dominant-baseline="middle" transform="rotate(90 815 80)">tensorflow-js</text>
  <text x="850" y="80" fill="white" font-family="sans-serif" font-weight="bold" font-size="12" text-anchor="end" dominant-baseline="middle" transform="rotate(90 850 80)">zygote</text>
  <rect x="65" y="85" width="30" height="30" fill="hsl(240 100% 80.82308412623374%)" />
  <rect x="100" y="85" width="30" height="30" fill="hsl(240 100% 82.9526529510317%)" />
  <rect x="135" y="85" width="30" height="30" fill="hsl(240 100% 97.98748092122136%)" />
  <rect x="170" y="85" width="30" height="30" fill="hsl(240 100% 82.3305928139348%)" />
  <rect x="205" y="85" width="30" height="30" fill="hsl(240 100% 98.99645921981895%)" />
  <rect x="240" y="85" width="30" height="30" fill="hsl(240 100% 51.58445374331953%)" />
  <rect x="310" y="85" width="30" height="30" fill="hsl(240 100% 93.26644792822529%)" />
  <rect x="415" y="85" width="30" height="30" fill="hsl(240 100% 68.1403324535433%)" />
  <rect x="520" y="85" width="30" height="30" fill="hsl(240 100% 50%)" />
  <rect x="625" y="85" width="30" height="30" fill="rgb(255 255 255 / 50%)" />
  <rect x="730" y="85" width="30" height="30" fill="hsl(240 100% 74.87906529031278%)" />
  <rect x="765" y="85" width="30" height="30" fill="rgb(255 255 255 / 50%)" />
  <rect x="835" y="85" width="30" height="30" fill="hsl(240 100% 99.73110011682436%)" />
  <rect x="65" y="120" width="30" height="30" fill="hsl(240 100% 50%)" />
  <rect x="100" y="120" width="30" height="30" fill="hsl(240 100% 82.95588810654347%)" />
  <rect x="135" y="120" width="30" height="30" fill="hsl(240 100% 85.51698875053468%)" />
  <rect x="170" y="120" width="30" height="30" fill="hsl(240 100% 52.65080682091379%)" />
  <rect x="205" y="120" width="30" height="30" fill="hsl(240 100% 92.59316619930647%)" />
  <rect x="240" y="120" width="30" height="30" fill="hsl(240 100% 91.5524051256133%)" />
  <rect x="275" y="120" width="30" height="30" fill="hsl(240 100% 99.38130446917268%)" />
  <rect x="310" y="120" width="30" height="30" fill="hsl(240 100% 99.01631955811214%)" />
  <rect x="380" y="120" width="30" height="30" fill="hsl(240 100% 93.30746924519869%)" />
  <rect x="415" y="120" width="30" height="30" fill="hsl(240 100% 94.61741223573557%)" />
  <rect x="450" y="120" width="30" height="30" fill="hsl(240 100% 97.87055710080223%)" />
  <rect x="520" y="120" width="30" height="30" fill="hsl(240 100% 79.77452652962424%)" />
  <rect x="555" y="120" width="30" height="30" fill="hsl(240 100% 90.70074759665863%)" />
  <rect x="660" y="120" width="30" height="30" fill="rgb(255 255 255 / 50%)" />
  <rect x="835" y="120" width="30" height="30" fill="rgb(255 255 255 / 50%)" />
  <rect x="65" y="155" width="30" height="30" fill="hsl(240 100% 98.2274080446109%)" />
  <rect x="100" y="155" width="30" height="30" fill="hsl(240 100% 98.77060267091863%)" />
  <rect x="135" y="155" width="30" height="30" fill="hsl(240 100% 99.11980775916675%)" />
  <rect x="170" y="155" width="30" height="30" fill="hsl(240 100% 98.07319642586111%)" />
  <rect x="205" y="155" width="30" height="30" fill="hsl(240 100% 99.85022309927126%)" />
  <rect x="240" y="155" width="30" height="30" fill="hsl(240 100% 91.5285200209739%)" />
  <rect x="275" y="155" width="30" height="30" fill="hsl(240 100% 92.3607203354248%)" />
  <rect x="310" y="155" width="30" height="30" fill="rgb(255 255 255 / 50%)" />
  <rect x="415" y="155" width="30" height="30" fill="hsl(240 100% 92.9765348352189%)" />
  <rect x="485" y="155" width="30" height="30" fill="hsl(240 100% 50%)" />
  <rect x="520" y="155" width="30" height="30" fill="hsl(240 100% 83.35791085225691%)" />
  <rect x="590" y="155" width="30" height="30" fill="hsl(240 100% 99.57711739541885%)" />
  <rect x="625" y="155" width="30" height="30" fill="hsl(240 100% 67.2760899284088%)" />
  <rect x="695" y="155" width="30" height="30" fill="hsl(240 100% 95.46421345175733%)" />
  <rect x="730" y="155" width="30" height="30" fill="hsl(240 100% 83.73458484032102%)" />
  <rect x="765" y="155" width="30" height="30" fill="hsl(240 100% 99.57870667116377%)" />
  <rect x="835" y="155" width="30" height="30" fill="hsl(240 100% 96.45338453990638%)" />
  <rect x="65" y="190" width="30" height="30" fill="hsl(240 100% 50%)" />
  <rect x="100" y="190" width="30" height="30" fill="hsl(240 100% 50%)" />
  <rect x="135" y="190" width="30" height="30" fill="hsl(240 100% 50%)" />
  <rect x="170" y="190" width="30" height="30" fill="hsl(240 100% 50%)" />
  <rect x="205" y="190" width="30" height="30" fill="hsl(240 100% 50%)" />
  <rect x="240" y="190" width="30" height="30" fill="hsl(240 100% 50%)" />
  <rect x="275" y="190" width="30" height="30" fill="hsl(240 100% 50%)" />
  <rect x="310" y="190" width="30" height="30" fill="hsl(240 100% 50%)" />
  <rect x="345" y="190" width="30" height="30" fill="hsl(240 100% 50%)" />
  <rect x="380" y="190" width="30" height="30" fill="hsl(240 100% 50%)" />
  <rect x="415" y="190" width="30" height="30" fill="hsl(240 100% 50%)" />
  <rect x="450" y="190" width="30" height="30" fill="hsl(240 100% 50%)" />
  <rect x="485" y="190" width="30" height="30" fill="hsl(240 100% 50%)" />
  <rect x="520" y="190" width="30" height="30" fill="hsl(240 100% 50%)" />
  <rect x="555" y="190" width="30" height="30" fill="hsl(240 100% 50%)" />
  <rect x="590" y="190" width="30" height="30" fill="hsl(240 100% 50%)" />
  <rect x="625" y="190" width="30" height="30" fill="hsl(240 100% 50%)" />
  <rect x="660" y="190" width="30" height="30" fill="hsl(240 100% 50%)" />
  <rect x="695" y="190" width="30" height="30" fill="hsl(240 100% 50%)" />
  <rect x="730" y="190" width="30" height="30" fill="hsl(240 100% 50%)" />
  <rect x="765" y="190" width="30" height="30" fill="hsl(240 100% 50%)" />
  <rect x="800" y="190" width="30" height="30" fill="hsl(240 100% 50%)" />
  <rect x="835" y="190" width="30" height="30" fill="hsl(240 100% 50%)" />
  <rect x="100" y="225" width="30" height="30" fill="hsl(240 100% 96.70713524857682%)" />
  <rect x="135" y="225" width="30" height="30" fill="hsl(240 100% 89.203959656392%)" />
  <rect x="170" y="225" width="30" height="30" fill="hsl(240 100% 89.33387419922735%)" />
  <rect x="240" y="225" width="30" height="30" fill="hsl(240 100% 91.36105575329827%)" />
  <rect x="310" y="225" width="30" height="30" fill="rgb(255 255 255 / 50%)" />
  <rect x="415" y="225" width="30" height="30" fill="hsl(240 100% 90.67796875387909%)" />
  <rect x="520" y="225" width="30" height="30" fill="hsl(240 100% 50%)" />
  <rect x="625" y="225" width="30" height="30" fill="rgb(255 255 255 / 50%)" />
  <rect x="730" y="225" width="30" height="30" fill="hsl(240 100% 93.23277932376027%)" />
  <rect x="765" y="225" width="30" height="30" fill="rgb(255 255 255 / 50%)" />
  <rect x="835" y="225" width="30" height="30" fill="hsl(240 100% 94.43306655528957%)" />
  <rect x="65" y="260" width="30" height="30" fill="hsl(240 100% 99.86502772308607%)" />
  <rect x="135" y="260" width="30" height="30" fill="hsl(240 100% 99.8494421529975%)" />
  <rect x="170" y="260" width="30" height="30" fill="hsl(240 100% 98.86829881565438%)" />
  <rect x="205" y="260" width="30" height="30" fill="rgb(255 255 255 / 50%)" />
  <rect x="240" y="260" width="30" height="30" fill="hsl(240 100% 87.01956430771794%)" />
  <rect x="310" y="260" width="30" height="30" fill="rgb(255 255 255 / 50%)" />
  <rect x="415" y="260" width="30" height="30" fill="hsl(240 100% 80.68141477318031%)" />
  <rect x="450" y="260" width="30" height="30" fill="rgb(255 255 255 / 50%)" />
  <rect x="485" y="260" width="30" height="30" fill="hsl(240 100% 50%)" />
  <rect x="520" y="260" width="30" height="30" fill="hsl(240 100% 71.20405950375584%)" />
  <rect x="625" y="260" width="30" height="30" fill="hsl(240 100% 96.91122279295607%)" />
  <rect x="695" y="260" width="30" height="30" fill="hsl(240 100% 94.12326918448474%)" />
  <rect x="65" y="295" width="30" height="30" fill="hsl(240 100% 85.89099723843356%)" />
  <rect x="100" y="295" width="30" height="30" fill="hsl(240 100% 97.54446486876674%)" />
  <rect x="135" y="295" width="30" height="30" fill="hsl(240 100% 95.09867326101772%)" />
  <rect x="170" y="295" width="30" height="30" fill="hsl(240 100% 90.63475774839019%)" />
  <rect x="205" y="295" width="30" height="30" fill="hsl(240 100% 99.46437029550258%)" />
  <rect x="240" y="295" width="30" height="30" fill="hsl(240 100% 50.37684372363512%)" />
  <rect x="275" y="295" width="30" height="30" fill="hsl(240 100% 50%)" />
  <rect x="310" y="295" width="30" height="30" fill="hsl(240 100% 99.49942676652023%)" />
  <rect x="345" y="295" width="30" height="30" fill="hsl(240 100% 94.7085568812048%)" />
  <rect x="415" y="295" width="30" height="30" fill="hsl(240 100% 54.970078699851925%)" />
  <rect x="450" y="295" width="30" height="30" fill="hsl(240 100% 99.36411641280941%)" />
  <rect x="485" y="295" width="30" height="30" fill="hsl(240 100% 88.4151481769559%)" />
  <rect x="520" y="295" width="30" height="30" fill="hsl(240 100% 57.634743911656216%)" />
  <rect x="695" y="295" width="30" height="30" fill="hsl(240 100% 97.59412589302632%)" />
  <rect x="800" y="295" width="30" height="30" fill="hsl(240 100% 99.57562649708518%)" />
  <rect x="835" y="295" width="30" height="30" fill="hsl(240 100% 99.95346611018947%)" />
  <rect x="65" y="330" width="30" height="30" fill="hsl(240 100% 88.89918133682899%)" />
  <rect x="100" y="330" width="30" height="30" fill="hsl(240 100% 95.00094036667959%)" />
  <rect x="135" y="330" width="30" height="30" fill="hsl(240 100% 97.21671471447424%)" />
  <rect x="170" y="330" width="30" height="30" fill="hsl(240 100% 88.66211636963813%)" />
  <rect x="205" y="330" width="30" height="30" fill="hsl(240 100% 99.2370239637398%)" />
  <rect x="240" y="330" width="30" height="30" fill="hsl(240 100% 80.05371116710764%)" />
  <rect x="275" y="330" width="30" height="30" fill="hsl(240 100% 88.61661688598926%)" />
  <rect x="310" y="330" width="30" height="30" fill="rgb(255 255 255 / 50%)" />
  <rect x="345" y="330" width="30" height="30" fill="hsl(240 100% 97.28756201387932%)" />
  <rect x="415" y="330" width="30" height="30" fill="hsl(240 100% 86.142888971827%)" />
  <rect x="450" y="330" width="30" height="30" fill="hsl(240 100% 99.80982079156641%)" />
  <rect x="485" y="330" width="30" height="30" fill="hsl(240 100% 71.73590477488678%)" />
  <rect x="520" y="330" width="30" height="30" fill="hsl(240 100% 77.58335466062725%)" />
  <rect x="590" y="330" width="30" height="30" fill="hsl(240 100% 93.94171328379622%)" />
  <rect x="625" y="330" width="30" height="30" fill="hsl(240 100% 50%)" />
  <rect x="765" y="330" width="30" height="30" fill="hsl(240 100% 95.18541506765715%)" />
  <rect x="800" y="330" width="30" height="30" fill="hsl(240 100% 99.24871153917542%)" />
  <rect x="835" y="330" width="30" height="30" fill="hsl(240 100% 80.76897507692932%)" />
  <rect x="65" y="365" width="30" height="30" fill="hsl(240 100% 57.57174001285239%)" />
  <rect x="100" y="365" width="30" height="30" fill="hsl(240 100% 71.68299832257502%)" />
  <rect x="135" y="365" width="30" height="30" fill="hsl(240 100% 82.58324027240684%)" />
  <rect x="170" y="365" width="30" height="30" fill="hsl(240 100% 50%)" />
  <rect x="205" y="365" width="30" height="30" fill="hsl(240 100% 96.23867539619403%)" />
  <rect x="240" y="365" width="30" height="30" fill="hsl(240 100% 59.71579536751598%)" />
  <rect x="275" y="365" width="30" height="30" fill="hsl(240 100% 92.40736722920246%)" />
  <rect x="310" y="365" width="30" height="30" fill="hsl(240 100% 99.8615624601824%)" />
  <rect x="415" y="365" width="30" height="30" fill="hsl(240 100% 67.06850698643959%)" />
  <rect x="520" y="365" width="30" height="30" fill="hsl(240 100% 85.95353996275036%)" />
  <rect x="625" y="365" width="30" height="30" fill="hsl(240 100% 99.63418410476642%)" />
  <rect x="730" y="365" width="30" height="30" fill="hsl(240 100% 63.40406112442453%)" />
  <rect x="765" y="365" width="30" height="30" fill="hsl(240 100% 98.15837540654874%)" />
  <rect x="835" y="365" width="30" height="30" fill="hsl(240 100% 98.70137466017486%)" />
  <rect x="65" y="400" width="30" height="30" fill="hsl(240 100% 97.71296368787114%)" />
  <rect x="100" y="400" width="30" height="30" fill="hsl(240 100% 99.2540544221998%)" />
  <rect x="135" y="400" width="30" height="30" fill="hsl(240 100% 99.59566060927695%)" />
  <rect x="170" y="400" width="30" height="30" fill="hsl(240 100% 94.2822940207756%)" />
  <rect x="205" y="400" width="30" height="30" fill="hsl(240 100% 99.04614733045213%)" />
  <rect x="240" y="400" width="30" height="30" fill="hsl(240 100% 82.24853520881092%)" />
  <rect x="275" y="400" width="30" height="30" fill="hsl(240 100% 94.15931021314341%)" />
  <rect x="310" y="400" width="30" height="30" fill="rgb(255 255 255 / 50%)" />
  <rect x="380" y="400" width="30" height="30" fill="rgb(255 255 255 / 50%)" />
  <rect x="415" y="400" width="30" height="30" fill="hsl(240 100% 92.52305867275896%)" />
  <rect x="450" y="400" width="30" height="30" fill="hsl(240 100% 99.96477611322632%)" />
  <rect x="485" y="400" width="30" height="30" fill="hsl(240 100% 72.8515822359075%)" />
  <rect x="520" y="400" width="30" height="30" fill="hsl(240 100% 50%)" />
  <rect x="555" y="400" width="30" height="30" fill="hsl(240 100% 98.86056316563716%)" />
  <rect x="660" y="400" width="30" height="30" fill="rgb(255 255 255 / 50%)" />
  <rect x="835" y="400" width="30" height="30" fill="hsl(240 100% 98.90236372207282%)" />
  <rect x="65" y="435" width="30" height="30" fill="hsl(240 100% 92.81836181398126%)" />
  <rect x="240" y="435" width="30" height="30" fill="hsl(240 100% 50%)" />
  <rect x="310" y="435" width="30" height="30" fill="hsl(240 100% 94.30686828957604%)" />
  <rect x="415" y="435" width="30" height="30" fill="hsl(240 100% 86.98546814446445%)" />
  <rect x="450" y="435" width="30" height="30" fill="hsl(240 100% 99.79654669730489%)" />
  <rect x="65" y="470" width="30" height="30" fill="hsl(240 100% 50%)" />
  <rect x="240" y="470" width="30" height="30" fill="hsl(240 100% 50.4526162873501%)" />
  <rect x="310" y="470" width="30" height="30" fill="hsl(240 100% 97.16054012047474%)" />
  <rect x="415" y="470" width="30" height="30" fill="hsl(240 100% 89.25249672119983%)" />
  <rect x="450" y="470" width="30" height="30" fill="hsl(240 100% 99.5721020557236%)" />
</svg>
