<svg xmlns="http://www.w3.org/2000/svg" viewBox="0 0 870 505">
  <rect x="0" y="0" width="870" height="505" rx="5" ry="5" fill="#222" />
  <text x="60" y="100" fill="white" font-family="sans-serif" font-weight="bold" font-size="12" text-anchor="end" dominant-baseline="middle">ba</text>
  <text x="60" y="135" fill="white" font-family="sans-serif" font-weight="bold" font-size="12" text-anchor="end" dominant-baseline="middle">det</text>
  <text x="60" y="170" fill="white" font-family="sans-serif" font-weight="bold" font-size="12" text-anchor="end" dominant-baseline="middle">gmm</text>
  <text x="60" y="205" fill="white" font-family="sans-serif" font-weight="bold" font-size="12" text-anchor="end" dominant-baseline="middle">hello</text>
  <text x="60" y="240" fill="white" font-family="sans-serif" font-weight="bold" font-size="12" text-anchor="end" dominant-baseline="middle">ht</text>
  <text x="60" y="275" fill="white" font-family="sans-serif" font-weight="bold" font-size="12" text-anchor="end" dominant-baseline="middle">kmeans</text>
  <text x="60" y="310" fill="white" font-family="sans-serif" font-weight="bold" font-size="12" text-anchor="end" dominant-baseline="middle">llsq</text>
  <text x="60" y="345" fill="white" font-family="sans-serif" font-weight="bold" font-size="12" text-anchor="end" dominant-baseline="middle">lse</text>
  <text x="60" y="380" fill="white" font-family="sans-serif" font-weight="bold" font-size="12" text-anchor="end" dominant-baseline="middle">lstm</text>
  <text x="60" y="415" fill="white" font-family="sans-serif" font-weight="bold" font-size="12" text-anchor="end" dominant-baseline="middle">ode</text>
  <text x="60" y="450" fill="white" font-family="sans-serif" font-weight="bold" font-size="12" text-anchor="end" dominant-baseline="middle">particle</text>
  <text x="60" y="485" fill="white" font-family="sans-serif" font-weight="bold" font-size="12" text-anchor="end" dominant-baseline="middle">saddle</text>
  <text x="80" y="80" fill="white" font-family="sans-serif" font-weight="bold" font-size="12" text-anchor="end" dominant-baseline="middle" transform="rotate(90 80 80)">ad-hpp</text>
  <text x="115" y="80" fill="white" font-family="sans-serif" font-weight="bold" font-size="12" text-anchor="end" dominant-baseline="middle" transform="rotate(90 115 80)">adept</text>
  <text x="150" y="80" fill="white" font-family="sans-serif" font-weight="bold" font-size="12" text-anchor="end" dominant-baseline="middle" transform="rotate(90 150 80)">adol-c</text>
  <text x="185" y="80" fill="white" font-family="sans-serif" font-weight="bold" font-size="12" text-anchor="end" dominant-baseline="middle" transform="rotate(90 185 80)">codipack</text>
  <text x="220" y="80" fill="white" font-family="sans-serif" font-weight="bold" font-size="12" text-anchor="end" dominant-baseline="middle" transform="rotate(90 220 80)">cppad</text>
  <text x="255" y="80" fill="white" font-family="sans-serif" font-weight="bold" font-size="12" text-anchor="end" dominant-baseline="middle" transform="rotate(90 255 80)">enzyme</text>
  <text x="290" y="80" fill="white" font-family="sans-serif" font-weight="bold" font-size="12" text-anchor="end" dominant-baseline="middle" transform="rotate(90 290 80)">enzyme-jl</text>
  <text x="325" y="80" fill="white" font-family="sans-serif" font-weight="bold" font-size="12" text-anchor="end" dominant-baseline="middle" transform="rotate(90 325 80)">finite</text>
  <text x="360" y="80" fill="white" font-family="sans-serif" font-weight="bold" font-size="12" text-anchor="end" dominant-baseline="middle" transform="rotate(90 360 80)">floretta</text>
  <text x="395" y="80" fill="white" font-family="sans-serif" font-weight="bold" font-size="12" text-anchor="end" dominant-baseline="middle" transform="rotate(90 395 80)">forwarddiff-jl</text>
  <text x="430" y="80" fill="white" font-family="sans-serif" font-weight="bold" font-size="12" text-anchor="end" dominant-baseline="middle" transform="rotate(90 430 80)">futhark</text>
  <text x="465" y="80" fill="white" font-family="sans-serif" font-weight="bold" font-size="12" text-anchor="end" dominant-baseline="middle" transform="rotate(90 465 80)">haskell</text>
  <text x="500" y="80" fill="white" font-family="sans-serif" font-weight="bold" font-size="12" text-anchor="end" dominant-baseline="middle" transform="rotate(90 500 80)">jax</text>
  <text x="535" y="80" fill="white" font-family="sans-serif" font-weight="bold" font-size="12" text-anchor="end" dominant-baseline="middle" transform="rotate(90 535 80)">manual</text>
  <text x="570" y="80" fill="white" font-family="sans-serif" font-weight="bold" font-size="12" text-anchor="end" dominant-baseline="middle" transform="rotate(90 570 80)">mooncake-jl</text>
  <text x="605" y="80" fill="white" font-family="sans-serif" font-weight="bold" font-size="12" text-anchor="end" dominant-baseline="middle" transform="rotate(90 605 80)">ocaml</text>
  <text x="640" y="80" fill="white" font-family="sans-serif" font-weight="bold" font-size="12" text-anchor="end" dominant-baseline="middle" transform="rotate(90 640 80)">pytorch</text>
  <text x="675" y="80" fill="white" font-family="sans-serif" font-weight="bold" font-size="12" text-anchor="end" dominant-baseline="middle" transform="rotate(90 675 80)">reversediff-jl</text>
  <text x="710" y="80" fill="white" font-family="sans-serif" font-weight="bold" font-size="12" text-anchor="end" dominant-baseline="middle" transform="rotate(90 710 80)">scilean</text>
  <text x="745" y="80" fill="white" font-family="sans-serif" font-weight="bold" font-size="12" text-anchor="end" dominant-baseline="middle" transform="rotate(90 745 80)">tapenade</text>
  <text x="780" y="80" fill="white" font-family="sans-serif" font-weight="bold" font-size="12" text-anchor="end" dominant-baseline="middle" transform="rotate(90 780 80)">tensorflow</text>
  <text x="815" y="80" fill="white" font-family="sans-serif" font-weight="bold" font-size="12" text-anchor="end" dominant-baseline="middle" transform="rotate(90 815 80)">tensorflow-js</text>
  <text x="850" y="80" fill="white" font-family="sans-serif" font-weight="bold" font-size="12" text-anchor="end" dominant-baseline="middle" transform="rotate(90 850 80)">zygote</text>
  <rect x="65" y="85" width="30" height="30" fill="hsl(240 100% 81.04026689019769%)" />
  <rect x="100" y="85" width="30" height="30" fill="hsl(240 100% 82.51325687717848%)" />
  <rect x="135" y="85" width="30" height="30" fill="hsl(240 100% 98.00748130488631%)" />
  <rect x="170" y="85" width="30" height="30" fill="hsl(240 100% 81.88240701719553%)" />
  <rect x="205" y="85" width="30" height="30" fill="hsl(240 100% 98.96111740727545%)" />
  <rect x="240" y="85" width="30" height="30" fill="hsl(240 100% 50%)" />
  <rect x="310" y="85" width="30" height="30" fill="hsl(240 100% 93.09707416802654%)" />
  <rect x="415" y="85" width="30" height="30" fill="hsl(240 100% 67.83843988976923%)" />
  <rect x="520" y="85" width="30" height="30" fill="hsl(240 100% 54.47558605325783%)" />
  <rect x="625" y="85" width="30" height="30" fill="rgb(255 255 255 / 50%)" />
  <rect x="730" y="85" width="30" height="30" fill="hsl(240 100% 71.48890116359772%)" />
  <rect x="765" y="85" width="30" height="30" fill="rgb(255 255 255 / 50%)" />
  <rect x="835" y="85" width="30" height="30" fill="hsl(240 100% 99.76024797813123%)" />
  <rect x="65" y="120" width="30" height="30" fill="hsl(240 100% 50%)" />
  <rect x="100" y="120" width="30" height="30" fill="hsl(240 100% 82.59943931466219%)" />
  <rect x="135" y="120" width="30" height="30" fill="hsl(240 100% 86.3828071904966%)" />
  <rect x="170" y="120" width="30" height="30" fill="hsl(240 100% 54.21031957332082%)" />
  <rect x="205" y="120" width="30" height="30" fill="hsl(240 100% 92.96290159873625%)" />
  <rect x="240" y="120" width="30" height="30" fill="hsl(240 100% 92.41624886224015%)" />
  <rect x="275" y="120" width="30" height="30" fill="hsl(240 100% 99.40177211391506%)" />
  <rect x="310" y="120" width="30" height="30" fill="hsl(240 100% 99.06055003147308%)" />
  <rect x="380" y="120" width="30" height="30" fill="hsl(240 100% 93.71490764567977%)" />
  <rect x="415" y="120" width="30" height="30" fill="hsl(240 100% 94.97566445491853%)" />
  <rect x="450" y="120" width="30" height="30" fill="hsl(240 100% 97.98888332087358%)" />
  <rect x="520" y="120" width="30" height="30" fill="hsl(240 100% 81.35035575025537%)" />
  <rect x="555" y="120" width="30" height="30" fill="hsl(240 100% 96.9917569938586%)" />
  <rect x="660" y="120" width="30" height="30" fill="rgb(255 255 255 / 50%)" />
  <rect x="835" y="120" width="30" height="30" fill="rgb(255 255 255 / 50%)" />
  <rect x="65" y="155" width="30" height="30" fill="hsl(240 100% 98.49641694810254%)" />
  <rect x="100" y="155" width="30" height="30" fill="hsl(240 100% 98.68809885560644%)" />
  <rect x="135" y="155" width="30" height="30" fill="hsl(240 100% 99.11144668701398%)" />
  <rect x="170" y="155" width="30" height="30" fill="hsl(240 100% 97.92498091262419%)" />
  <rect x="205" y="155" width="30" height="30" fill="hsl(240 100% 99.84388005570972%)" />
  <rect x="240" y="155" width="30" height="30" fill="hsl(240 100% 91.19831355944652%)" />
  <rect x="275" y="155" width="30" height="30" fill="hsl(240 100% 90.83520808017788%)" />
  <rect x="310" y="155" width="30" height="30" fill="rgb(255 255 255 / 50%)" />
  <rect x="415" y="155" width="30" height="30" fill="hsl(240 100% 92.78265693004958%)" />
  <rect x="485" y="155" width="30" height="30" fill="hsl(240 100% 50%)" />
  <rect x="520" y="155" width="30" height="30" fill="hsl(240 100% 80.52614583864298%)" />
  <rect x="555" y="155" width="30" height="30" fill="hsl(240 100% 95.29117512284293%)" />
  <rect x="590" y="155" width="30" height="30" fill="hsl(240 100% 99.55915455709736%)" />
  <rect x="625" y="155" width="30" height="30" fill="hsl(240 100% 65.91696142814257%)" />
  <rect x="695" y="155" width="30" height="30" fill="hsl(240 100% 95.92560531197067%)" />
  <rect x="730" y="155" width="30" height="30" fill="hsl(240 100% 83.38551231400142%)" />
  <rect x="765" y="155" width="30" height="30" fill="hsl(240 100% 99.59110634418718%)" />
  <rect x="835" y="155" width="30" height="30" fill="hsl(240 100% 95.88548040664995%)" />
  <rect x="65" y="190" width="30" height="30" fill="hsl(240 100% 50%)" />
  <rect x="100" y="190" width="30" height="30" fill="hsl(240 100% 50%)" />
  <rect x="135" y="190" width="30" height="30" fill="hsl(240 100% 50%)" />
  <rect x="170" y="190" width="30" height="30" fill="hsl(240 100% 50%)" />
  <rect x="205" y="190" width="30" height="30" fill="hsl(240 100% 50%)" />
  <rect x="240" y="190" width="30" height="30" fill="hsl(240 100% 50%)" />
  <rect x="275" y="190" width="30" height="30" fill="hsl(240 100% 50%)" />
  <rect x="310" y="190" width="30" height="30" fill="hsl(240 100% 50%)" />
  <rect x="345" y="190" width="30" height="30" fill="hsl(240 100% 50%)" />
  <rect x="380" y="190" width="30" height="30" fill="hsl(240 100% 50%)" />
  <rect x="415" y="190" width="30" height="30" fill="hsl(240 100% 50%)" />
  <rect x="450" y="190" width="30" height="30" fill="hsl(240 100% 50%)" />
  <rect x="485" y="190" width="30" height="30" fill="hsl(240 100% 50%)" />
  <rect x="520" y="190" width="30" height="30" fill="hsl(240 100% 50%)" />
  <rect x="555" y="190" width="30" height="30" fill="hsl(240 100% 50%)" />
  <rect x="590" y="190" width="30" height="30" fill="hsl(240 100% 50%)" />
  <rect x="625" y="190" width="30" height="30" fill="hsl(240 100% 50%)" />
  <rect x="660" y="190" width="30" height="30" fill="hsl(240 100% 50%)" />
  <rect x="695" y="190" width="30" height="30" fill="hsl(240 100% 50%)" />
  <rect x="730" y="190" width="30" height="30" fill="hsl(240 100% 50%)" />
  <rect x="765" y="190" width="30" height="30" fill="hsl(240 100% 50%)" />
  <rect x="800" y="190" width="30" height="30" fill="hsl(240 100% 50%)" />
  <rect x="835" y="190" width="30" height="30" fill="hsl(240 100% 50%)" />
  <rect x="100" y="225" width="30" height="30" fill="hsl(240 100% 96.16245087723232%)" />
  <rect x="135" y="225" width="30" height="30" fill="hsl(240 100% 87.3935666924601%)" />
  <rect x="170" y="225" width="30" height="30" fill="hsl(240 100% 87.92730438204238%)" />
  <rect x="240" y="225" width="30" height="30" fill="hsl(240 100% 90.19411565870632%)" />
  <rect x="310" y="225" width="30" height="30" fill="rgb(255 255 255 / 50%)" />
  <rect x="415" y="225" width="30" height="30" fill="hsl(240 100% 89.67820448808565%)" />
  <rect x="520" y="225" width="30" height="30" fill="hsl(240 100% 50%)" />
  <rect x="625" y="225" width="30" height="30" fill="rgb(255 255 255 / 50%)" />
  <rect x="730" y="225" width="30" height="30" fill="hsl(240 100% 92.29041429585456%)" />
  <rect x="765" y="225" width="30" height="30" fill="rgb(255 255 255 / 50%)" />
  <rect x="835" y="225" width="30" height="30" fill="hsl(240 100% 93.77671553132981%)" />
  <rect x="135" y="260" width="30" height="30" fill="hsl(240 100% 99.8655525772546%)" />
  <rect x="170" y="260" width="30" height="30" fill="hsl(240 100% 99.21658301922193%)" />
  <rect x="205" y="260" width="30" height="30" fill="rgb(255 255 255 / 50%)" />
  <rect x="240" y="260" width="30" height="30" fill="hsl(240 100% 87.2861740310775%)" />
  <rect x="310" y="260" width="30" height="30" fill="rgb(255 255 255 / 50%)" />
  <rect x="380" y="260" width="30" height="30" fill="rgb(255 255 255 / 50%)" />
  <rect x="415" y="260" width="30" height="30" fill="hsl(240 100% 81.04010425589459%)" />
  <rect x="450" y="260" width="30" height="30" fill="rgb(255 255 255 / 50%)" />
  <rect x="485" y="260" width="30" height="30" fill="hsl(240 100% 50%)" />
  <rect x="520" y="260" width="30" height="30" fill="hsl(240 100% 73.03602672350125%)" />
  <rect x="625" y="260" width="30" height="30" fill="hsl(240 100% 96.96583461637996%)" />
  <rect x="660" y="260" width="30" height="30" fill="rgb(255 255 255 / 50%)" />
  <rect x="695" y="260" width="30" height="30" fill="hsl(240 100% 93.8275274375953%)" />
  <rect x="65" y="295" width="30" height="30" fill="hsl(240 100% 85.9050667113599%)" />
  <rect x="100" y="295" width="30" height="30" fill="hsl(240 100% 97.76467537156324%)" />
  <rect x="135" y="295" width="30" height="30" fill="hsl(240 100% 94.96471341105234%)" />
  <rect x="170" y="295" width="30" height="30" fill="hsl(240 100% 89.17939079250938%)" />
  <rect x="205" y="295" width="30" height="30" fill="hsl(240 100% 99.48386893716324%)" />
  <rect x="240" y="295" width="30" height="30" fill="hsl(240 100% 50%)" />
  <rect x="275" y="295" width="30" height="30" fill="hsl(240 100% 58.05794625818728%)" />
  <rect x="310" y="295" width="30" height="30" fill="hsl(240 100% 99.4928006622307%)" />
  <rect x="345" y="295" width="30" height="30" fill="hsl(240 100% 94.6703158538844%)" />
  <rect x="415" y="295" width="30" height="30" fill="hsl(240 100% 54.201668124647234%)" />
  <rect x="450" y="295" width="30" height="30" fill="hsl(240 100% 99.26333134548278%)" />
  <rect x="485" y="295" width="30" height="30" fill="hsl(240 100% 88.25167938489443%)" />
  <rect x="520" y="295" width="30" height="30" fill="hsl(240 100% 57.310555847606224%)" />
  <rect x="555" y="295" width="30" height="30" fill="hsl(240 100% 91.204208840114%)" />
  <rect x="695" y="295" width="30" height="30" fill="hsl(240 100% 97.57560950129273%)" />
  <rect x="800" y="295" width="30" height="30" fill="hsl(240 100% 99.57193858335256%)" />
  <rect x="835" y="295" width="30" height="30" fill="hsl(240 100% 99.96087203280852%)" />
  <rect x="65" y="330" width="30" height="30" fill="hsl(240 100% 87.0855159766382%)" />
  <rect x="100" y="330" width="30" height="30" fill="hsl(240 100% 93.90622208001271%)" />
  <rect x="135" y="330" width="30" height="30" fill="hsl(240 100% 96.94150557613068%)" />
  <rect x="170" y="330" width="30" height="30" fill="hsl(240 100% 86.33955543684749%)" />
  <rect x="205" y="330" width="30" height="30" fill="hsl(240 100% 99.14016160323253%)" />
  <rect x="240" y="330" width="30" height="30" fill="hsl(240 100% 78.91350278521648%)" />
  <rect x="275" y="330" width="30" height="30" fill="hsl(240 100% 94.84353525106042%)" />
  <rect x="310" y="330" width="30" height="30" fill="rgb(255 255 255 / 50%)" />
  <rect x="345" y="330" width="30" height="30" fill="hsl(240 100% 97.06941315304518%)" />
  <rect x="415" y="330" width="30" height="30" fill="hsl(240 100% 85.16553267521059%)" />
  <rect x="450" y="330" width="30" height="30" fill="hsl(240 100% 99.80092104476573%)" />
  <rect x="485" y="330" width="30" height="30" fill="hsl(240 100% 71.3536620545496%)" />
  <rect x="520" y="330" width="30" height="30" fill="hsl(240 100% 69.55791789536771%)" />
  <rect x="555" y="330" width="30" height="30" fill="hsl(240 100% 98.69400928078727%)" />
  <rect x="590" y="330" width="30" height="30" fill="hsl(240 100% 93.45800756810691%)" />
  <rect x="625" y="330" width="30" height="30" fill="hsl(240 100% 50%)" />
  <rect x="765" y="330" width="30" height="30" fill="hsl(240 100% 94.07459514483637%)" />
  <rect x="800" y="330" width="30" height="30" fill="hsl(240 100% 99.21374372246291%)" />
  <rect x="835" y="330" width="30" height="30" fill="hsl(240 100% 96.70600445005655%)" />
  <rect x="65" y="365" width="30" height="30" fill="hsl(240 100% 56.863045734785345%)" />
  <rect x="100" y="365" width="30" height="30" fill="hsl(240 100% 72.80429868463875%)" />
  <rect x="135" y="365" width="30" height="30" fill="hsl(240 100% 81.45151080751646%)" />
  <rect x="170" y="365" width="30" height="30" fill="hsl(240 100% 50%)" />
  <rect x="205" y="365" width="30" height="30" fill="hsl(240 100% 96.028992071877%)" />
  <rect x="240" y="365" width="30" height="30" fill="hsl(240 100% 59.288317766255346%)" />
  <rect x="275" y="365" width="30" height="30" fill="hsl(240 100% 93.14415847768028%)" />
  <rect x="310" y="365" width="30" height="30" fill="hsl(240 100% 99.86078043909147%)" />
  <rect x="415" y="365" width="30" height="30" fill="hsl(240 100% 61.33623676048537%)" />
  <rect x="520" y="365" width="30" height="30" fill="hsl(240 100% 85.96276693176274%)" />
  <rect x="555" y="365" width="30" height="30" fill="hsl(240 100% 95.50949856256742%)" />
  <rect x="625" y="365" width="30" height="30" fill="hsl(240 100% 99.63723430231842%)" />
  <rect x="730" y="365" width="30" height="30" fill="hsl(240 100% 63.330147520702546%)" />
  <rect x="765" y="365" width="30" height="30" fill="hsl(240 100% 98.20597054231135%)" />
  <rect x="835" y="365" width="30" height="30" fill="hsl(240 100% 98.70958069034859%)" />
  <rect x="65" y="400" width="30" height="30" fill="hsl(240 100% 97.58945791321533%)" />
  <rect x="100" y="400" width="30" height="30" fill="hsl(240 100% 99.06910900190354%)" />
  <rect x="135" y="400" width="30" height="30" fill="hsl(240 100% 99.54684770044585%)" />
  <rect x="170" y="400" width="30" height="30" fill="hsl(240 100% 92.4552557496955%)" />
  <rect x="205" y="400" width="30" height="30" fill="hsl(240 100% 99.01674419317925%)" />
  <rect x="240" y="400" width="30" height="30" fill="hsl(240 100% 82.81308209379569%)" />
  <rect x="275" y="400" width="30" height="30" fill="hsl(240 100% 93.95737899626688%)" />
  <rect x="310" y="400" width="30" height="30" fill="rgb(255 255 255 / 50%)" />
  <rect x="380" y="400" width="30" height="30" fill="rgb(255 255 255 / 50%)" />
  <rect x="415" y="400" width="30" height="30" fill="hsl(240 100% 92.2997249252752%)" />
  <rect x="450" y="400" width="30" height="30" fill="hsl(240 100% 99.96673534185645%)" />
  <rect x="485" y="400" width="30" height="30" fill="hsl(240 100% 72.68882551387254%)" />
  <rect x="520" y="400" width="30" height="30" fill="hsl(240 100% 50%)" />
  <rect x="555" y="400" width="30" height="30" fill="hsl(240 100% 98.86352982984188%)" />
  <rect x="660" y="400" width="30" height="30" fill="rgb(255 255 255 / 50%)" />
  <rect x="835" y="400" width="30" height="30" fill="hsl(240 100% 99.1316567622068%)" />
  <rect x="65" y="435" width="30" height="30" fill="hsl(240 100% 93.29362077323736%)" />
  <rect x="240" y="435" width="30" height="30" fill="hsl(240 100% 50%)" />
  <rect x="310" y="435" width="30" height="30" fill="hsl(240 100% 93.84458093375719%)" />
  <rect x="415" y="435" width="30" height="30" fill="hsl(240 100% 87.48103523844262%)" />
  <rect x="450" y="435" width="30" height="30" fill="hsl(240 100% 99.78462818108856%)" />
  <rect x="65" y="470" width="30" height="30" fill="hsl(240 100% 50%)" />
  <rect x="240" y="470" width="30" height="30" fill="hsl(240 100% 50.173073465698025%)" />
  <rect x="310" y="470" width="30" height="30" fill="hsl(240 100% 96.97755967542128%)" />
  <rect x="415" y="470" width="30" height="30" fill="hsl(240 100% 88.89589876880676%)" />
  <rect x="450" y="470" width="30" height="30" fill="hsl(240 100% 99.56912845305442%)" />
</svg>
