<svg xmlns="http://www.w3.org/2000/svg" viewBox="0 0 730 505">
  <rect x="0" y="0" width="730" height="505" rx="5" ry="5" fill="#222" />
  <text x="60" y="100" fill="white" font-family="sans-serif" font-weight="bold" font-size="12" text-anchor="end" dominant-baseline="middle">ba</text>
  <text x="60" y="135" fill="white" font-family="sans-serif" font-weight="bold" font-size="12" text-anchor="end" dominant-baseline="middle">det</text>
  <text x="60" y="170" fill="white" font-family="sans-serif" font-weight="bold" font-size="12" text-anchor="end" dominant-baseline="middle">gmm</text>
  <text x="60" y="205" fill="white" font-family="sans-serif" font-weight="bold" font-size="12" text-anchor="end" dominant-baseline="middle">hello</text>
  <text x="60" y="240" fill="white" font-family="sans-serif" font-weight="bold" font-size="12" text-anchor="end" dominant-baseline="middle">ht</text>
  <text x="60" y="275" fill="white" font-family="sans-serif" font-weight="bold" font-size="12" text-anchor="end" dominant-baseline="middle">kmeans</text>
  <text x="60" y="310" fill="white" font-family="sans-serif" font-weight="bold" font-size="12" text-anchor="end" dominant-baseline="middle">llsq</text>
  <text x="60" y="345" fill="white" font-family="sans-serif" font-weight="bold" font-size="12" text-anchor="end" dominant-baseline="middle">lse</text>
  <text x="60" y="380" fill="white" font-family="sans-serif" font-weight="bold" font-size="12" text-anchor="end" dominant-baseline="middle">lstm</text>
  <text x="60" y="415" fill="white" font-family="sans-serif" font-weight="bold" font-size="12" text-anchor="end" dominant-baseline="middle">ode</text>
  <text x="60" y="450" fill="white" font-family="sans-serif" font-weight="bold" font-size="12" text-anchor="end" dominant-baseline="middle">particle</text>
  <text x="60" y="485" fill="white" font-family="sans-serif" font-weight="bold" font-size="12" text-anchor="end" dominant-baseline="middle">saddle</text>
  <text x="80" y="80" fill="white" font-family="sans-serif" font-weight="bold" font-size="12" text-anchor="end" dominant-baseline="middle" transform="rotate(90 80 80)">ad-hpp</text>
  <text x="115" y="80" fill="white" font-family="sans-serif" font-weight="bold" font-size="12" text-anchor="end" dominant-baseline="middle" transform="rotate(90 115 80)">adept</text>
  <text x="150" y="80" fill="white" font-family="sans-serif" font-weight="bold" font-size="12" text-anchor="end" dominant-baseline="middle" transform="rotate(90 150 80)">adol-c</text>
  <text x="185" y="80" fill="white" font-family="sans-serif" font-weight="bold" font-size="12" text-anchor="end" dominant-baseline="middle" transform="rotate(90 185 80)">codipack</text>
  <text x="220" y="80" fill="white" font-family="sans-serif" font-weight="bold" font-size="12" text-anchor="end" dominant-baseline="middle" transform="rotate(90 220 80)">cppad</text>
  <text x="255" y="80" fill="white" font-family="sans-serif" font-weight="bold" font-size="12" text-anchor="end" dominant-baseline="middle" transform="rotate(90 255 80)">enzyme</text>
  <text x="290" y="80" fill="white" font-family="sans-serif" font-weight="bold" font-size="12" text-anchor="end" dominant-baseline="middle" transform="rotate(90 290 80)">enzyme-jl</text>
  <text x="325" y="80" fill="white" font-family="sans-serif" font-weight="bold" font-size="12" text-anchor="end" dominant-baseline="middle" transform="rotate(90 325 80)">finite</text>
  <text x="360" y="80" fill="white" font-family="sans-serif" font-weight="bold" font-size="12" text-anchor="end" dominant-baseline="middle" transform="rotate(90 360 80)">floretta</text>
  <text x="395" y="80" fill="white" font-family="sans-serif" font-weight="bold" font-size="12" text-anchor="end" dominant-baseline="middle" transform="rotate(90 395 80)">futhark</text>
  <text x="430" y="80" fill="white" font-family="sans-serif" font-weight="bold" font-size="12" text-anchor="end" dominant-baseline="middle" transform="rotate(90 430 80)">haskell</text>
  <text x="465" y="80" fill="white" font-family="sans-serif" font-weight="bold" font-size="12" text-anchor="end" dominant-baseline="middle" transform="rotate(90 465 80)">jax</text>
  <text x="500" y="80" fill="white" font-family="sans-serif" font-weight="bold" font-size="12" text-anchor="end" dominant-baseline="middle" transform="rotate(90 500 80)">manual</text>
  <text x="535" y="80" fill="white" font-family="sans-serif" font-weight="bold" font-size="12" text-anchor="end" dominant-baseline="middle" transform="rotate(90 535 80)">ocaml</text>
  <text x="570" y="80" fill="white" font-family="sans-serif" font-weight="bold" font-size="12" text-anchor="end" dominant-baseline="middle" transform="rotate(90 570 80)">pytorch</text>
  <text x="605" y="80" fill="white" font-family="sans-serif" font-weight="bold" font-size="12" text-anchor="end" dominant-baseline="middle" transform="rotate(90 605 80)">scilean</text>
  <text x="640" y="80" fill="white" font-family="sans-serif" font-weight="bold" font-size="12" text-anchor="end" dominant-baseline="middle" transform="rotate(90 640 80)">tapenade</text>
  <text x="675" y="80" fill="white" font-family="sans-serif" font-weight="bold" font-size="12" text-anchor="end" dominant-baseline="middle" transform="rotate(90 675 80)">tensorflow</text>
  <text x="710" y="80" fill="white" font-family="sans-serif" font-weight="bold" font-size="12" text-anchor="end" dominant-baseline="middle" transform="rotate(90 710 80)">zygote</text>
  <rect x="65" y="85" width="30" height="30" fill="hsl(240 100% 78.08856402604546%)" />
  <rect x="100" y="85" width="30" height="30" fill="hsl(240 100% 82.95204235304246%)" />
  <rect x="135" y="85" width="30" height="30" fill="hsl(240 100% 97.78717575251966%)" />
  <rect x="170" y="85" width="30" height="30" fill="hsl(240 100% 85.36483534301497%)" />
  <rect x="205" y="85" width="30" height="30" fill="hsl(240 100% 98.87544399846774%)" />
  <rect x="240" y="85" width="30" height="30" fill="hsl(240 100% 50.05028625837656%)" />
  <rect x="310" y="85" width="30" height="30" fill="hsl(240 100% 92.52697268305587%)" />
  <rect x="380" y="85" width="30" height="30" fill="hsl(240 100% 67.94578960748012%)" />
  <rect x="485" y="85" width="30" height="30" fill="hsl(240 100% 50%)" />
  <rect x="555" y="85" width="30" height="30" fill="rgb(255 255 255 / 50%)" />
  <rect x="625" y="85" width="30" height="30" fill="hsl(240 100% 72.19255160398116%)" />
  <rect x="660" y="85" width="30" height="30" fill="rgb(255 255 255 / 50%)" />
  <rect x="695" y="85" width="30" height="30" fill="hsl(240 100% 99.75857164656622%)" />
  <rect x="65" y="120" width="30" height="30" fill="hsl(240 100% 50%)" />
  <rect x="100" y="120" width="30" height="30" fill="hsl(240 100% 84.67555709461467%)" />
  <rect x="135" y="120" width="30" height="30" fill="hsl(240 100% 86.30986715040727%)" />
  <rect x="170" y="120" width="30" height="30" fill="hsl(240 100% 51.36851524202598%)" />
  <rect x="205" y="120" width="30" height="30" fill="hsl(240 100% 92.8797182706225%)" />
  <rect x="240" y="120" width="30" height="30" fill="hsl(240 100% 91.8711260033379%)" />
  <rect x="275" y="120" width="30" height="30" fill="hsl(240 100% 99.17671846692532%)" />
  <rect x="310" y="120" width="30" height="30" fill="hsl(240 100% 98.99448056180013%)" />
  <rect x="380" y="120" width="30" height="30" fill="hsl(240 100% 94.80366147896525%)" />
  <rect x="415" y="120" width="30" height="30" fill="hsl(240 100% 97.98404120180275%)" />
  <rect x="485" y="120" width="30" height="30" fill="hsl(240 100% 80.01461517465759%)" />
  <rect x="695" y="120" width="30" height="30" fill="rgb(255 255 255 / 50%)" />
  <rect x="65" y="155" width="30" height="30" fill="hsl(240 100% 97.57034736965242%)" />
  <rect x="100" y="155" width="30" height="30" fill="hsl(240 100% 98.36786522724621%)" />
  <rect x="135" y="155" width="30" height="30" fill="hsl(240 100% 98.94835058962909%)" />
  <rect x="170" y="155" width="30" height="30" fill="hsl(240 100% 97.34771771937926%)" />
  <rect x="205" y="155" width="30" height="30" fill="hsl(240 100% 99.77928979642735%)" />
  <rect x="240" y="155" width="30" height="30" fill="hsl(240 100% 87.37508685552035%)" />
  <rect x="275" y="155" width="30" height="30" fill="hsl(240 100% 99.84826873559628%)" />
  <rect x="310" y="155" width="30" height="30" fill="rgb(255 255 255 / 50%)" />
  <rect x="380" y="155" width="30" height="30" fill="hsl(240 100% 90.56909498987828%)" />
  <rect x="450" y="155" width="30" height="30" fill="hsl(240 100% 70.83675581297726%)" />
  <rect x="485" y="155" width="30" height="30" fill="hsl(240 100% 76.18711429229978%)" />
  <rect x="520" y="155" width="30" height="30" fill="hsl(240 100% 99.3916355985773%)" />
  <rect x="555" y="155" width="30" height="30" fill="hsl(240 100% 50%)" />
  <rect x="590" y="155" width="30" height="30" fill="hsl(240 100% 92.87847342049751%)" />
  <rect x="625" y="155" width="30" height="30" fill="hsl(240 100% 77.55359314532366%)" />
  <rect x="660" y="155" width="30" height="30" fill="hsl(240 100% 89.66545916885875%)" />
  <rect x="695" y="155" width="30" height="30" fill="hsl(240 100% 99.35219493877305%)" />
  <rect x="65" y="190" width="30" height="30" fill="hsl(240 100% 50%)" />
  <rect x="100" y="190" width="30" height="30" fill="hsl(240 100% 50%)" />
  <rect x="135" y="190" width="30" height="30" fill="hsl(240 100% 50%)" />
  <rect x="170" y="190" width="30" height="30" fill="hsl(240 100% 50%)" />
  <rect x="205" y="190" width="30" height="30" fill="hsl(240 100% 50%)" />
  <rect x="240" y="190" width="30" height="30" fill="hsl(240 100% 50%)" />
  <rect x="275" y="190" width="30" height="30" fill="hsl(240 100% 50%)" />
  <rect x="310" y="190" width="30" height="30" fill="hsl(240 100% 50%)" />
  <rect x="345" y="190" width="30" height="30" fill="hsl(240 100% 50%)" />
  <rect x="380" y="190" width="30" height="30" fill="hsl(240 100% 50%)" />
  <rect x="415" y="190" width="30" height="30" fill="hsl(240 100% 50%)" />
  <rect x="450" y="190" width="30" height="30" fill="hsl(240 100% 50%)" />
  <rect x="485" y="190" width="30" height="30" fill="hsl(240 100% 50%)" />
  <rect x="520" y="190" width="30" height="30" fill="hsl(240 100% 50%)" />
  <rect x="555" y="190" width="30" height="30" fill="hsl(240 100% 50%)" />
  <rect x="590" y="190" width="30" height="30" fill="hsl(240 100% 50%)" />
  <rect x="625" y="190" width="30" height="30" fill="hsl(240 100% 50%)" />
  <rect x="660" y="190" width="30" height="30" fill="hsl(240 100% 50%)" />
  <rect x="695" y="190" width="30" height="30" fill="hsl(240 100% 50%)" />
  <rect x="100" y="225" width="30" height="30" fill="hsl(240 100% 96.04258881559142%)" />
  <rect x="135" y="225" width="30" height="30" fill="hsl(240 100% 90.0890717267455%)" />
  <rect x="170" y="225" width="30" height="30" fill="hsl(240 100% 88.25741828189584%)" />
  <rect x="240" y="225" width="30" height="30" fill="hsl(240 100% 90.25225433175325%)" />
  <rect x="310" y="225" width="30" height="30" fill="rgb(255 255 255 / 50%)" />
  <rect x="380" y="225" width="30" height="30" fill="hsl(240 100% 89.66578483956438%)" />
  <rect x="485" y="225" width="30" height="30" fill="hsl(240 100% 50%)" />
  <rect x="555" y="225" width="30" height="30" fill="rgb(255 255 255 / 50%)" />
  <rect x="625" y="225" width="30" height="30" fill="rgb(255 255 255 / 50%)" />
  <rect x="660" y="225" width="30" height="30" fill="rgb(255 255 255 / 50%)" />
  <rect x="695" y="225" width="30" height="30" fill="hsl(240 100% 99.44577602648097%)" />
  <rect x="135" y="260" width="30" height="30" fill="hsl(240 100% 99.91348471486656%)" />
  <rect x="170" y="260" width="30" height="30" fill="hsl(240 100% 99.35497967882884%)" />
  <rect x="205" y="260" width="30" height="30" fill="rgb(255 255 255 / 50%)" />
  <rect x="240" y="260" width="30" height="30" fill="hsl(240 100% 87.70803935831852%)" />
  <rect x="310" y="260" width="30" height="30" fill="rgb(255 255 255 / 50%)" />
  <rect x="380" y="260" width="30" height="30" fill="hsl(240 100% 83.120923979118%)" />
  <rect x="415" y="260" width="30" height="30" fill="rgb(255 255 255 / 50%)" />
  <rect x="450" y="260" width="30" height="30" fill="hsl(240 100% 50%)" />
  <rect x="485" y="260" width="30" height="30" fill="hsl(240 100% 76.70503637203471%)" />
  <rect x="555" y="260" width="30" height="30" fill="hsl(240 100% 96.986826551023%)" />
  <rect x="590" y="260" width="30" height="30" fill="hsl(240 100% 94.1697615218422%)" />
  <rect x="65" y="295" width="30" height="30" fill="hsl(240 100% 58.81419801434344%)" />
  <rect x="100" y="295" width="30" height="30" fill="hsl(240 100% 66.9497457872524%)" />
  <rect x="135" y="295" width="30" height="30" fill="hsl(240 100% 59.01140616514119%)" />
  <rect x="170" y="295" width="30" height="30" fill="hsl(240 100% 60.19099649518837%)" />
  <rect x="205" y="295" width="30" height="30" fill="hsl(240 100% 91.6517818153886%)" />
  <rect x="240" y="295" width="30" height="30" fill="hsl(240 100% 50%)" />
  <rect x="275" y="295" width="30" height="30" fill="hsl(240 100% 98.94731964629305%)" />
  <rect x="310" y="295" width="30" height="30" fill="hsl(240 100% 99.42898687177342%)" />
  <rect x="380" y="295" width="30" height="30" fill="hsl(240 100% 50.616618137184005%)" />
  <rect x="415" y="295" width="30" height="30" fill="hsl(240 100% 89.79948116308412%)" />
  <rect x="485" y="295" width="30" height="30" fill="hsl(240 100% 53.57144555718736%)" />
  <rect x="590" y="295" width="30" height="30" fill="hsl(240 100% 55.36981999130452%)" />
  <rect x="695" y="295" width="30" height="30" fill="hsl(240 100% 99.73108579916197%)" />
  <rect x="65" y="330" width="30" height="30" fill="hsl(240 100% 89.11019384710171%)" />
  <rect x="100" y="330" width="30" height="30" fill="hsl(240 100% 94.60949237565242%)" />
  <rect x="135" y="330" width="30" height="30" fill="hsl(240 100% 97.23517471784487%)" />
  <rect x="170" y="330" width="30" height="30" fill="hsl(240 100% 89.25725577077112%)" />
  <rect x="205" y="330" width="30" height="30" fill="hsl(240 100% 99.20513481517038%)" />
  <rect x="240" y="330" width="30" height="30" fill="hsl(240 100% 80.38470305454612%)" />
  <rect x="275" y="330" width="30" height="30" fill="hsl(240 100% 99.83377175648177%)" />
  <rect x="310" y="330" width="30" height="30" fill="rgb(255 255 255 / 50%)" />
  <rect x="380" y="330" width="30" height="30" fill="hsl(240 100% 85.45962726652574%)" />
  <rect x="415" y="330" width="30" height="30" fill="hsl(240 100% 99.80786387346505%)" />
  <rect x="450" y="330" width="30" height="30" fill="hsl(240 100% 69.52091522714092%)" />
  <rect x="485" y="330" width="30" height="30" fill="hsl(240 100% 78.20244755955312%)" />
  <rect x="520" y="330" width="30" height="30" fill="hsl(240 100% 93.8241910744173%)" />
  <rect x="555" y="330" width="30" height="30" fill="hsl(240 100% 50%)" />
  <rect x="660" y="330" width="30" height="30" fill="hsl(240 100% 88.16319357446193%)" />
  <rect x="695" y="330" width="30" height="30" fill="hsl(240 100% 95.37518127745948%)" />
  <rect x="65" y="365" width="30" height="30" fill="hsl(240 100% 53.16697447601798%)" />
  <rect x="100" y="365" width="30" height="30" fill="hsl(240 100% 68.49457529597005%)" />
  <rect x="135" y="365" width="30" height="30" fill="hsl(240 100% 81.28069994199868%)" />
  <rect x="170" y="365" width="30" height="30" fill="hsl(240 100% 51.201405903190775%)" />
  <rect x="205" y="365" width="30" height="30" fill="hsl(240 100% 95.75841368720555%)" />
  <rect x="240" y="365" width="30" height="30" fill="hsl(240 100% 50%)" />
  <rect x="275" y="365" width="30" height="30" fill="hsl(240 100% 98.83733680495448%)" />
  <rect x="310" y="365" width="30" height="30" fill="hsl(240 100% 99.85080262065678%)" />
  <rect x="380" y="365" width="30" height="30" fill="hsl(240 100% 63.181836662794794%)" />
  <rect x="485" y="365" width="30" height="30" fill="hsl(240 100% 84.56978930212307%)" />
  <rect x="555" y="365" width="30" height="30" fill="hsl(240 100% 99.60130916550166%)" />
  <rect x="625" y="365" width="30" height="30" fill="hsl(240 100% 59.52538598173689%)" />
  <rect x="660" y="365" width="30" height="30" fill="hsl(240 100% 97.96317801354688%)" />
  <rect x="695" y="365" width="30" height="30" fill="hsl(240 100% 99.06225345832122%)" />
  <rect x="65" y="400" width="30" height="30" fill="hsl(240 100% 97.81520457491663%)" />
  <rect x="100" y="400" width="30" height="30" fill="hsl(240 100% 99.36643415811172%)" />
  <rect x="135" y="400" width="30" height="30" fill="hsl(240 100% 99.62516279988232%)" />
  <rect x="170" y="400" width="30" height="30" fill="hsl(240 100% 94.5022945503394%)" />
  <rect x="205" y="400" width="30" height="30" fill="hsl(240 100% 99.12230149408654%)" />
  <rect x="240" y="400" width="30" height="30" fill="hsl(240 100% 87.66675731226928%)" />
  <rect x="275" y="400" width="30" height="30" fill="hsl(240 100% 99.13931686449321%)" />
  <rect x="310" y="400" width="30" height="30" fill="rgb(255 255 255 / 50%)" />
  <rect x="380" y="400" width="30" height="30" fill="hsl(240 100% 96.0409066513971%)" />
  <rect x="415" y="400" width="30" height="30" fill="hsl(240 100% 99.97032662697423%)" />
  <rect x="485" y="400" width="30" height="30" fill="hsl(240 100% 50%)" />
  <rect x="695" y="400" width="30" height="30" fill="hsl(240 100% 99.69189207359277%)" />
  <rect x="240" y="435" width="30" height="30" fill="hsl(240 100% 50%)" />
  <rect x="310" y="435" width="30" height="30" fill="hsl(240 100% 95.2147272518009%)" />
  <rect x="380" y="435" width="30" height="30" fill="hsl(240 100% 87.92260911514444%)" />
  <rect x="415" y="435" width="30" height="30" fill="hsl(240 100% 99.78346188846939%)" />
  <rect x="240" y="470" width="30" height="30" fill="hsl(240 100% 50%)" />
  <rect x="310" y="470" width="30" height="30" fill="hsl(240 100% 95.82283759917203%)" />
  <rect x="380" y="470" width="30" height="30" fill="hsl(240 100% 89.06299003190573%)" />
  <rect x="415" y="470" width="30" height="30" fill="hsl(240 100% 99.56495801835689%)" />
</svg>
