<svg xmlns="http://www.w3.org/2000/svg" viewBox="0 0 870 505">
  <rect x="0" y="0" width="870" height="505" rx="5" ry="5" fill="#222" />
  <text x="60" y="100" fill="white" font-family="sans-serif" font-weight="bold" font-size="12" text-anchor="end" dominant-baseline="middle">ba</text>
  <text x="60" y="135" fill="white" font-family="sans-serif" font-weight="bold" font-size="12" text-anchor="end" dominant-baseline="middle">det</text>
  <text x="60" y="170" fill="white" font-family="sans-serif" font-weight="bold" font-size="12" text-anchor="end" dominant-baseline="middle">gmm</text>
  <text x="60" y="205" fill="white" font-family="sans-serif" font-weight="bold" font-size="12" text-anchor="end" dominant-baseline="middle">hello</text>
  <text x="60" y="240" fill="white" font-family="sans-serif" font-weight="bold" font-size="12" text-anchor="end" dominant-baseline="middle">ht</text>
  <text x="60" y="275" fill="white" font-family="sans-serif" font-weight="bold" font-size="12" text-anchor="end" dominant-baseline="middle">kmeans</text>
  <text x="60" y="310" fill="white" font-family="sans-serif" font-weight="bold" font-size="12" text-anchor="end" dominant-baseline="middle">llsq</text>
  <text x="60" y="345" fill="white" font-family="sans-serif" font-weight="bold" font-size="12" text-anchor="end" dominant-baseline="middle">lse</text>
  <text x="60" y="380" fill="white" font-family="sans-serif" font-weight="bold" font-size="12" text-anchor="end" dominant-baseline="middle">lstm</text>
  <text x="60" y="415" fill="white" font-family="sans-serif" font-weight="bold" font-size="12" text-anchor="end" dominant-baseline="middle">ode</text>
  <text x="60" y="450" fill="white" font-family="sans-serif" font-weight="bold" font-size="12" text-anchor="end" dominant-baseline="middle">particle</text>
  <text x="60" y="485" fill="white" font-family="sans-serif" font-weight="bold" font-size="12" text-anchor="end" dominant-baseline="middle">saddle</text>
  <text x="80" y="80" fill="white" font-family="sans-serif" font-weight="bold" font-size="12" text-anchor="end" dominant-baseline="middle" transform="rotate(90 80 80)">ad-hpp</text>
  <text x="115" y="80" fill="white" font-family="sans-serif" font-weight="bold" font-size="12" text-anchor="end" dominant-baseline="middle" transform="rotate(90 115 80)">adept</text>
  <text x="150" y="80" fill="white" font-family="sans-serif" font-weight="bold" font-size="12" text-anchor="end" dominant-baseline="middle" transform="rotate(90 150 80)">adol-c</text>
  <text x="185" y="80" fill="white" font-family="sans-serif" font-weight="bold" font-size="12" text-anchor="end" dominant-baseline="middle" transform="rotate(90 185 80)">codipack</text>
  <text x="220" y="80" fill="white" font-family="sans-serif" font-weight="bold" font-size="12" text-anchor="end" dominant-baseline="middle" transform="rotate(90 220 80)">cppad</text>
  <text x="255" y="80" fill="white" font-family="sans-serif" font-weight="bold" font-size="12" text-anchor="end" dominant-baseline="middle" transform="rotate(90 255 80)">enzyme</text>
  <text x="290" y="80" fill="white" font-family="sans-serif" font-weight="bold" font-size="12" text-anchor="end" dominant-baseline="middle" transform="rotate(90 290 80)">enzyme-jl</text>
  <text x="325" y="80" fill="white" font-family="sans-serif" font-weight="bold" font-size="12" text-anchor="end" dominant-baseline="middle" transform="rotate(90 325 80)">finite</text>
  <text x="360" y="80" fill="white" font-family="sans-serif" font-weight="bold" font-size="12" text-anchor="end" dominant-baseline="middle" transform="rotate(90 360 80)">floretta</text>
  <text x="395" y="80" fill="white" font-family="sans-serif" font-weight="bold" font-size="12" text-anchor="end" dominant-baseline="middle" transform="rotate(90 395 80)">forwarddiff-jl</text>
  <text x="430" y="80" fill="white" font-family="sans-serif" font-weight="bold" font-size="12" text-anchor="end" dominant-baseline="middle" transform="rotate(90 430 80)">futhark</text>
  <text x="465" y="80" fill="white" font-family="sans-serif" font-weight="bold" font-size="12" text-anchor="end" dominant-baseline="middle" transform="rotate(90 465 80)">haskell</text>
  <text x="500" y="80" fill="white" font-family="sans-serif" font-weight="bold" font-size="12" text-anchor="end" dominant-baseline="middle" transform="rotate(90 500 80)">jax</text>
  <text x="535" y="80" fill="white" font-family="sans-serif" font-weight="bold" font-size="12" text-anchor="end" dominant-baseline="middle" transform="rotate(90 535 80)">manual</text>
  <text x="570" y="80" fill="white" font-family="sans-serif" font-weight="bold" font-size="12" text-anchor="end" dominant-baseline="middle" transform="rotate(90 570 80)">mooncake-jl</text>
  <text x="605" y="80" fill="white" font-family="sans-serif" font-weight="bold" font-size="12" text-anchor="end" dominant-baseline="middle" transform="rotate(90 605 80)">ocaml</text>
  <text x="640" y="80" fill="white" font-family="sans-serif" font-weight="bold" font-size="12" text-anchor="end" dominant-baseline="middle" transform="rotate(90 640 80)">pytorch</text>
  <text x="675" y="80" fill="white" font-family="sans-serif" font-weight="bold" font-size="12" text-anchor="end" dominant-baseline="middle" transform="rotate(90 675 80)">reversediff-jl</text>
  <text x="710" y="80" fill="white" font-family="sans-serif" font-weight="bold" font-size="12" text-anchor="end" dominant-baseline="middle" transform="rotate(90 710 80)">scilean</text>
  <text x="745" y="80" fill="white" font-family="sans-serif" font-weight="bold" font-size="12" text-anchor="end" dominant-baseline="middle" transform="rotate(90 745 80)">tapenade</text>
  <text x="780" y="80" fill="white" font-family="sans-serif" font-weight="bold" font-size="12" text-anchor="end" dominant-baseline="middle" transform="rotate(90 780 80)">tensorflow</text>
  <text x="815" y="80" fill="white" font-family="sans-serif" font-weight="bold" font-size="12" text-anchor="end" dominant-baseline="middle" transform="rotate(90 815 80)">tensorflow-js</text>
  <text x="850" y="80" fill="white" font-family="sans-serif" font-weight="bold" font-size="12" text-anchor="end" dominant-baseline="middle" transform="rotate(90 850 80)">zygote</text>
  <rect x="65" y="85" width="30" height="30" fill="hsl(240 100% 80.56914622366202%)" />
  <rect x="100" y="85" width="30" height="30" fill="hsl(240 100% 82.10267525662948%)" />
  <rect x="135" y="85" width="30" height="30" fill="hsl(240 100% 97.89386872054514%)" />
  <rect x="170" y="85" width="30" height="30" fill="hsl(240 100% 81.62809464417228%)" />
  <rect x="205" y="85" width="30" height="30" fill="hsl(240 100% 98.95031635486387%)" />
  <rect x="240" y="85" width="30" height="30" fill="hsl(240 100% 50%)" />
  <rect x="310" y="85" width="30" height="30" fill="hsl(240 100% 92.84919504163226%)" />
  <rect x="415" y="85" width="30" height="30" fill="hsl(240 100% 66.85303556999649%)" />
  <rect x="520" y="85" width="30" height="30" fill="hsl(240 100% 50.48073056982652%)" />
  <rect x="625" y="85" width="30" height="30" fill="rgb(255 255 255 / 50%)" />
  <rect x="730" y="85" width="30" height="30" fill="hsl(240 100% 73.82849974303926%)" />
  <rect x="765" y="85" width="30" height="30" fill="rgb(255 255 255 / 50%)" />
  <rect x="835" y="85" width="30" height="30" fill="hsl(240 100% 99.68539711525037%)" />
  <rect x="65" y="120" width="30" height="30" fill="hsl(240 100% 50%)" />
  <rect x="100" y="120" width="30" height="30" fill="hsl(240 100% 84.56814701431503%)" />
  <rect x="135" y="120" width="30" height="30" fill="hsl(240 100% 85.59798606072412%)" />
  <rect x="170" y="120" width="30" height="30" fill="hsl(240 100% 52.680369832550035%)" />
  <rect x="205" y="120" width="30" height="30" fill="hsl(240 100% 92.81618168220034%)" />
  <rect x="240" y="120" width="30" height="30" fill="hsl(240 100% 91.69479049162904%)" />
  <rect x="275" y="120" width="30" height="30" fill="hsl(240 100% 99.3862817900788%)" />
  <rect x="310" y="120" width="30" height="30" fill="hsl(240 100% 98.99585944431205%)" />
  <rect x="380" y="120" width="30" height="30" fill="hsl(240 100% 93.36297190132612%)" />
  <rect x="415" y="120" width="30" height="30" fill="hsl(240 100% 94.62001695198151%)" />
  <rect x="450" y="120" width="30" height="30" fill="hsl(240 100% 97.84797050063118%)" />
  <rect x="520" y="120" width="30" height="30" fill="hsl(240 100% 79.61608543397558%)" />
  <rect x="555" y="120" width="30" height="30" fill="hsl(240 100% 90.44685196509923%)" />
  <rect x="660" y="120" width="30" height="30" fill="rgb(255 255 255 / 50%)" />
  <rect x="835" y="120" width="30" height="30" fill="rgb(255 255 255 / 50%)" />
  <rect x="65" y="155" width="30" height="30" fill="hsl(240 100% 98.08439092120996%)" />
  <rect x="100" y="155" width="30" height="30" fill="hsl(240 100% 98.84887058516085%)" />
  <rect x="135" y="155" width="30" height="30" fill="hsl(240 100% 99.21751370663256%)" />
  <rect x="170" y="155" width="30" height="30" fill="hsl(240 100% 98.0983744339872%)" />
  <rect x="205" y="155" width="30" height="30" fill="hsl(240 100% 99.84900555388276%)" />
  <rect x="240" y="155" width="30" height="30" fill="hsl(240 100% 91.16426224245387%)" />
  <rect x="275" y="155" width="30" height="30" fill="hsl(240 100% 91.82115517937719%)" />
  <rect x="310" y="155" width="30" height="30" fill="rgb(255 255 255 / 50%)" />
  <rect x="415" y="155" width="30" height="30" fill="hsl(240 100% 92.92981926802405%)" />
  <rect x="485" y="155" width="30" height="30" fill="hsl(240 100% 50%)" />
  <rect x="520" y="155" width="30" height="30" fill="hsl(240 100% 85.60476115387047%)" />
  <rect x="590" y="155" width="30" height="30" fill="hsl(240 100% 99.59590342732078%)" />
  <rect x="625" y="155" width="30" height="30" fill="hsl(240 100% 82.34697713695131%)" />
  <rect x="695" y="155" width="30" height="30" fill="hsl(240 100% 95.3753032846264%)" />
  <rect x="730" y="155" width="30" height="30" fill="hsl(240 100% 83.4775273952501%)" />
  <rect x="765" y="155" width="30" height="30" fill="hsl(240 100% 99.580438967109%)" />
  <rect x="835" y="155" width="30" height="30" fill="hsl(240 100% 96.97312901430678%)" />
  <rect x="65" y="190" width="30" height="30" fill="hsl(240 100% 50%)" />
  <rect x="100" y="190" width="30" height="30" fill="hsl(240 100% 50%)" />
  <rect x="135" y="190" width="30" height="30" fill="hsl(240 100% 50%)" />
  <rect x="170" y="190" width="30" height="30" fill="hsl(240 100% 50%)" />
  <rect x="205" y="190" width="30" height="30" fill="hsl(240 100% 50%)" />
  <rect x="240" y="190" width="30" height="30" fill="hsl(240 100% 50%)" />
  <rect x="275" y="190" width="30" height="30" fill="hsl(240 100% 50%)" />
  <rect x="310" y="190" width="30" height="30" fill="hsl(240 100% 50%)" />
  <rect x="345" y="190" width="30" height="30" fill="hsl(240 100% 50%)" />
  <rect x="380" y="190" width="30" height="30" fill="hsl(240 100% 50%)" />
  <rect x="415" y="190" width="30" height="30" fill="hsl(240 100% 50%)" />
  <rect x="450" y="190" width="30" height="30" fill="hsl(240 100% 50%)" />
  <rect x="485" y="190" width="30" height="30" fill="hsl(240 100% 50%)" />
  <rect x="520" y="190" width="30" height="30" fill="hsl(240 100% 50%)" />
  <rect x="555" y="190" width="30" height="30" fill="hsl(240 100% 50%)" />
  <rect x="590" y="190" width="30" height="30" fill="hsl(240 100% 50%)" />
  <rect x="625" y="190" width="30" height="30" fill="hsl(240 100% 50%)" />
  <rect x="660" y="190" width="30" height="30" fill="hsl(240 100% 50%)" />
  <rect x="695" y="190" width="30" height="30" fill="hsl(240 100% 50%)" />
  <rect x="730" y="190" width="30" height="30" fill="hsl(240 100% 50%)" />
  <rect x="765" y="190" width="30" height="30" fill="hsl(240 100% 50%)" />
  <rect x="800" y="190" width="30" height="30" fill="hsl(240 100% 50%)" />
  <rect x="835" y="190" width="30" height="30" fill="hsl(240 100% 50%)" />
  <rect x="100" y="225" width="30" height="30" fill="hsl(240 100% 96.30102133615114%)" />
  <rect x="135" y="225" width="30" height="30" fill="hsl(240 100% 86.3837362224968%)" />
  <rect x="170" y="225" width="30" height="30" fill="hsl(240 100% 87.91808715671654%)" />
  <rect x="240" y="225" width="30" height="30" fill="hsl(240 100% 90.23445019404485%)" />
  <rect x="310" y="225" width="30" height="30" fill="rgb(255 255 255 / 50%)" />
  <rect x="415" y="225" width="30" height="30" fill="hsl(240 100% 89.4068988870938%)" />
  <rect x="520" y="225" width="30" height="30" fill="hsl(240 100% 50%)" />
  <rect x="625" y="225" width="30" height="30" fill="rgb(255 255 255 / 50%)" />
  <rect x="730" y="225" width="30" height="30" fill="hsl(240 100% 92.40849469353068%)" />
  <rect x="765" y="225" width="30" height="30" fill="rgb(255 255 255 / 50%)" />
  <rect x="835" y="225" width="30" height="30" fill="hsl(240 100% 93.44648091333946%)" />
  <rect x="65" y="260" width="30" height="30" fill="hsl(240 100% 99.89219078963474%)" />
  <rect x="135" y="260" width="30" height="30" fill="hsl(240 100% 99.8720810652315%)" />
  <rect x="170" y="260" width="30" height="30" fill="hsl(240 100% 98.98153633565607%)" />
  <rect x="205" y="260" width="30" height="30" fill="rgb(255 255 255 / 50%)" />
  <rect x="240" y="260" width="30" height="30" fill="hsl(240 100% 87.10893079218123%)" />
  <rect x="310" y="260" width="30" height="30" fill="rgb(255 255 255 / 50%)" />
  <rect x="415" y="260" width="30" height="30" fill="hsl(240 100% 80.81063342095884%)" />
  <rect x="450" y="260" width="30" height="30" fill="rgb(255 255 255 / 50%)" />
  <rect x="485" y="260" width="30" height="30" fill="hsl(240 100% 50%)" />
  <rect x="520" y="260" width="30" height="30" fill="hsl(240 100% 72.3591975288841%)" />
  <rect x="625" y="260" width="30" height="30" fill="hsl(240 100% 96.99817788998568%)" />
  <rect x="695" y="260" width="30" height="30" fill="hsl(240 100% 94.20737458148628%)" />
  <rect x="65" y="295" width="30" height="30" fill="hsl(240 100% 86.10655111574471%)" />
  <rect x="100" y="295" width="30" height="30" fill="hsl(240 100% 97.53548121631917%)" />
  <rect x="135" y="295" width="30" height="30" fill="hsl(240 100% 95.069369102772%)" />
  <rect x="170" y="295" width="30" height="30" fill="hsl(240 100% 87.06525322840037%)" />
  <rect x="205" y="295" width="30" height="30" fill="hsl(240 100% 99.4830320879174%)" />
  <rect x="240" y="295" width="30" height="30" fill="hsl(240 100% 50.601511291697285%)" />
  <rect x="275" y="295" width="30" height="30" fill="hsl(240 100% 50%)" />
  <rect x="310" y="295" width="30" height="30" fill="hsl(240 100% 99.49933494480999%)" />
  <rect x="345" y="295" width="30" height="30" fill="hsl(240 100% 94.7015585755243%)" />
  <rect x="415" y="295" width="30" height="30" fill="hsl(240 100% 55.27699324819528%)" />
  <rect x="450" y="295" width="30" height="30" fill="hsl(240 100% 99.31246722053748%)" />
  <rect x="485" y="295" width="30" height="30" fill="hsl(240 100% 88.09141562851323%)" />
  <rect x="520" y="295" width="30" height="30" fill="hsl(240 100% 57.84357316631504%)" />
  <rect x="695" y="295" width="30" height="30" fill="hsl(240 100% 97.74509184384063%)" />
  <rect x="800" y="295" width="30" height="30" fill="hsl(240 100% 99.57901395104452%)" />
  <rect x="835" y="295" width="30" height="30" fill="hsl(240 100% 99.95376229114014%)" />
  <rect x="65" y="330" width="30" height="30" fill="hsl(240 100% 87.57416266801559%)" />
  <rect x="100" y="330" width="30" height="30" fill="hsl(240 100% 94.3675462318803%)" />
  <rect x="135" y="330" width="30" height="30" fill="hsl(240 100% 97.11731966007791%)" />
  <rect x="170" y="330" width="30" height="30" fill="hsl(240 100% 87.02293465450711%)" />
  <rect x="205" y="330" width="30" height="30" fill="hsl(240 100% 99.21568828062227%)" />
  <rect x="240" y="330" width="30" height="30" fill="hsl(240 100% 79.51129866493307%)" />
  <rect x="275" y="330" width="30" height="30" fill="hsl(240 100% 87.42869704500033%)" />
  <rect x="310" y="330" width="30" height="30" fill="rgb(255 255 255 / 50%)" />
  <rect x="345" y="330" width="30" height="30" fill="hsl(240 100% 97.17143133706062%)" />
  <rect x="415" y="330" width="30" height="30" fill="hsl(240 100% 85.86811922212695%)" />
  <rect x="450" y="330" width="30" height="30" fill="hsl(240 100% 99.80717527803263%)" />
  <rect x="485" y="330" width="30" height="30" fill="hsl(240 100% 71.66774493826729%)" />
  <rect x="520" y="330" width="30" height="30" fill="hsl(240 100% 70.10414031329474%)" />
  <rect x="590" y="330" width="30" height="30" fill="hsl(240 100% 94.56394672188193%)" />
  <rect x="625" y="330" width="30" height="30" fill="hsl(240 100% 50%)" />
  <rect x="765" y="330" width="30" height="30" fill="hsl(240 100% 94.68087359505026%)" />
  <rect x="800" y="330" width="30" height="30" fill="hsl(240 100% 99.22575685153174%)" />
  <rect x="835" y="330" width="30" height="30" fill="hsl(240 100% 80.34762428756405%)" />
  <rect x="65" y="365" width="30" height="30" fill="hsl(240 100% 58.468328906944436%)" />
  <rect x="100" y="365" width="30" height="30" fill="hsl(240 100% 71.862960100472%)" />
  <rect x="135" y="365" width="30" height="30" fill="hsl(240 100% 82.35294354581582%)" />
  <rect x="170" y="365" width="30" height="30" fill="hsl(240 100% 50%)" />
  <rect x="205" y="365" width="30" height="30" fill="hsl(240 100% 96.16836994889772%)" />
  <rect x="240" y="365" width="30" height="30" fill="hsl(240 100% 61.0323879907676%)" />
  <rect x="275" y="365" width="30" height="30" fill="hsl(240 100% 92.8851025749456%)" />
  <rect x="310" y="365" width="30" height="30" fill="hsl(240 100% 99.86414383334956%)" />
  <rect x="415" y="365" width="30" height="30" fill="hsl(240 100% 67.42964871417722%)" />
  <rect x="520" y="365" width="30" height="30" fill="hsl(240 100% 86.39355402606553%)" />
  <rect x="625" y="365" width="30" height="30" fill="hsl(240 100% 99.66322814227836%)" />
  <rect x="730" y="365" width="30" height="30" fill="hsl(240 100% 64.71802712383564%)" />
  <rect x="765" y="365" width="30" height="30" fill="hsl(240 100% 98.17553446928682%)" />
  <rect x="835" y="365" width="30" height="30" fill="hsl(240 100% 98.88559846911248%)" />
  <rect x="65" y="400" width="30" height="30" fill="hsl(240 100% 97.6546197722461%)" />
  <rect x="100" y="400" width="30" height="30" fill="hsl(240 100% 99.54582557081085%)" />
  <rect x="135" y="400" width="30" height="30" fill="hsl(240 100% 99.58117948250414%)" />
  <rect x="170" y="400" width="30" height="30" fill="hsl(240 100% 92.50169378326645%)" />
  <rect x="205" y="400" width="30" height="30" fill="hsl(240 100% 99.05466946801408%)" />
  <rect x="240" y="400" width="30" height="30" fill="hsl(240 100% 85.46165681181199%)" />
  <rect x="275" y="400" width="30" height="30" fill="hsl(240 100% 94.18763097512127%)" />
  <rect x="310" y="400" width="30" height="30" fill="rgb(255 255 255 / 50%)" />
  <rect x="380" y="400" width="30" height="30" fill="rgb(255 255 255 / 50%)" />
  <rect x="415" y="400" width="30" height="30" fill="hsl(240 100% 94.03800030145784%)" />
  <rect x="450" y="400" width="30" height="30" fill="hsl(240 100% 99.96653940858711%)" />
  <rect x="485" y="400" width="30" height="30" fill="hsl(240 100% 72.98336247601284%)" />
  <rect x="520" y="400" width="30" height="30" fill="hsl(240 100% 50%)" />
  <rect x="555" y="400" width="30" height="30" fill="hsl(240 100% 98.96501453338138%)" />
  <rect x="660" y="400" width="30" height="30" fill="rgb(255 255 255 / 50%)" />
  <rect x="835" y="400" width="30" height="30" fill="hsl(240 100% 98.87893032246075%)" />
  <rect x="65" y="435" width="30" height="30" fill="hsl(240 100% 93.29454884647022%)" />
  <rect x="240" y="435" width="30" height="30" fill="hsl(240 100% 50%)" />
  <rect x="310" y="435" width="30" height="30" fill="hsl(240 100% 93.86554800965692%)" />
  <rect x="415" y="435" width="30" height="30" fill="hsl(240 100% 86.9874111314928%)" />
  <rect x="450" y="435" width="30" height="30" fill="hsl(240 100% 99.78641655353158%)" />
  <rect x="65" y="470" width="30" height="30" fill="hsl(240 100% 50.03390414310536%)" />
  <rect x="240" y="470" width="30" height="30" fill="hsl(240 100% 50%)" />
  <rect x="310" y="470" width="30" height="30" fill="hsl(240 100% 96.97404655315364%)" />
  <rect x="415" y="470" width="30" height="30" fill="hsl(240 100% 89.05519484767908%)" />
  <rect x="450" y="470" width="30" height="30" fill="hsl(240 100% 99.5642393178101%)" />
</svg>
