<svg xmlns="http://www.w3.org/2000/svg" viewBox="0 0 870 505">
  <rect x="0" y="0" width="870" height="505" rx="5" ry="5" fill="#222" />
  <text x="60" y="100" fill="white" font-family="sans-serif" font-weight="bold" font-size="12" text-anchor="end" dominant-baseline="middle">ba</text>
  <text x="60" y="135" fill="white" font-family="sans-serif" font-weight="bold" font-size="12" text-anchor="end" dominant-baseline="middle">det</text>
  <text x="60" y="170" fill="white" font-family="sans-serif" font-weight="bold" font-size="12" text-anchor="end" dominant-baseline="middle">gmm</text>
  <text x="60" y="205" fill="white" font-family="sans-serif" font-weight="bold" font-size="12" text-anchor="end" dominant-baseline="middle">hello</text>
  <text x="60" y="240" fill="white" font-family="sans-serif" font-weight="bold" font-size="12" text-anchor="end" dominant-baseline="middle">ht</text>
  <text x="60" y="275" fill="white" font-family="sans-serif" font-weight="bold" font-size="12" text-anchor="end" dominant-baseline="middle">kmeans</text>
  <text x="60" y="310" fill="white" font-family="sans-serif" font-weight="bold" font-size="12" text-anchor="end" dominant-baseline="middle">llsq</text>
  <text x="60" y="345" fill="white" font-family="sans-serif" font-weight="bold" font-size="12" text-anchor="end" dominant-baseline="middle">lse</text>
  <text x="60" y="380" fill="white" font-family="sans-serif" font-weight="bold" font-size="12" text-anchor="end" dominant-baseline="middle">lstm</text>
  <text x="60" y="415" fill="white" font-family="sans-serif" font-weight="bold" font-size="12" text-anchor="end" dominant-baseline="middle">ode</text>
  <text x="60" y="450" fill="white" font-family="sans-serif" font-weight="bold" font-size="12" text-anchor="end" dominant-baseline="middle">particle</text>
  <text x="60" y="485" fill="white" font-family="sans-serif" font-weight="bold" font-size="12" text-anchor="end" dominant-baseline="middle">saddle</text>
  <text x="80" y="80" fill="white" font-family="sans-serif" font-weight="bold" font-size="12" text-anchor="end" dominant-baseline="middle" transform="rotate(90 80 80)">ad-hpp</text>
  <text x="115" y="80" fill="white" font-family="sans-serif" font-weight="bold" font-size="12" text-anchor="end" dominant-baseline="middle" transform="rotate(90 115 80)">adept</text>
  <text x="150" y="80" fill="white" font-family="sans-serif" font-weight="bold" font-size="12" text-anchor="end" dominant-baseline="middle" transform="rotate(90 150 80)">adol-c</text>
  <text x="185" y="80" fill="white" font-family="sans-serif" font-weight="bold" font-size="12" text-anchor="end" dominant-baseline="middle" transform="rotate(90 185 80)">codipack</text>
  <text x="220" y="80" fill="white" font-family="sans-serif" font-weight="bold" font-size="12" text-anchor="end" dominant-baseline="middle" transform="rotate(90 220 80)">cppad</text>
  <text x="255" y="80" fill="white" font-family="sans-serif" font-weight="bold" font-size="12" text-anchor="end" dominant-baseline="middle" transform="rotate(90 255 80)">enzyme</text>
  <text x="290" y="80" fill="white" font-family="sans-serif" font-weight="bold" font-size="12" text-anchor="end" dominant-baseline="middle" transform="rotate(90 290 80)">enzyme-jl</text>
  <text x="325" y="80" fill="white" font-family="sans-serif" font-weight="bold" font-size="12" text-anchor="end" dominant-baseline="middle" transform="rotate(90 325 80)">finite</text>
  <text x="360" y="80" fill="white" font-family="sans-serif" font-weight="bold" font-size="12" text-anchor="end" dominant-baseline="middle" transform="rotate(90 360 80)">floretta</text>
  <text x="395" y="80" fill="white" font-family="sans-serif" font-weight="bold" font-size="12" text-anchor="end" dominant-baseline="middle" transform="rotate(90 395 80)">forwarddiff-jl</text>
  <text x="430" y="80" fill="white" font-family="sans-serif" font-weight="bold" font-size="12" text-anchor="end" dominant-baseline="middle" transform="rotate(90 430 80)">futhark</text>
  <text x="465" y="80" fill="white" font-family="sans-serif" font-weight="bold" font-size="12" text-anchor="end" dominant-baseline="middle" transform="rotate(90 465 80)">haskell</text>
  <text x="500" y="80" fill="white" font-family="sans-serif" font-weight="bold" font-size="12" text-anchor="end" dominant-baseline="middle" transform="rotate(90 500 80)">jax</text>
  <text x="535" y="80" fill="white" font-family="sans-serif" font-weight="bold" font-size="12" text-anchor="end" dominant-baseline="middle" transform="rotate(90 535 80)">manual</text>
  <text x="570" y="80" fill="white" font-family="sans-serif" font-weight="bold" font-size="12" text-anchor="end" dominant-baseline="middle" transform="rotate(90 570 80)">mooncake-jl</text>
  <text x="605" y="80" fill="white" font-family="sans-serif" font-weight="bold" font-size="12" text-anchor="end" dominant-baseline="middle" transform="rotate(90 605 80)">ocaml</text>
  <text x="640" y="80" fill="white" font-family="sans-serif" font-weight="bold" font-size="12" text-anchor="end" dominant-baseline="middle" transform="rotate(90 640 80)">pytorch</text>
  <text x="675" y="80" fill="white" font-family="sans-serif" font-weight="bold" font-size="12" text-anchor="end" dominant-baseline="middle" transform="rotate(90 675 80)">reversediff-jl</text>
  <text x="710" y="80" fill="white" font-family="sans-serif" font-weight="bold" font-size="12" text-anchor="end" dominant-baseline="middle" transform="rotate(90 710 80)">scilean</text>
  <text x="745" y="80" fill="white" font-family="sans-serif" font-weight="bold" font-size="12" text-anchor="end" dominant-baseline="middle" transform="rotate(90 745 80)">tapenade</text>
  <text x="780" y="80" fill="white" font-family="sans-serif" font-weight="bold" font-size="12" text-anchor="end" dominant-baseline="middle" transform="rotate(90 780 80)">tensorflow</text>
  <text x="815" y="80" fill="white" font-family="sans-serif" font-weight="bold" font-size="12" text-anchor="end" dominant-baseline="middle" transform="rotate(90 815 80)">tensorflow-js</text>
  <text x="850" y="80" fill="white" font-family="sans-serif" font-weight="bold" font-size="12" text-anchor="end" dominant-baseline="middle" transform="rotate(90 850 80)">zygote</text>
  <rect x="65" y="85" width="30" height="30" fill="hsl(240 100% 80.74663545967815%)" />
  <rect x="100" y="85" width="30" height="30" fill="hsl(240 100% 82.51341759765805%)" />
  <rect x="135" y="85" width="30" height="30" fill="hsl(240 100% 97.97181439989147%)" />
  <rect x="170" y="85" width="30" height="30" fill="hsl(240 100% 82.16058440693114%)" />
  <rect x="205" y="85" width="30" height="30" fill="hsl(240 100% 98.99524025282275%)" />
  <rect x="240" y="85" width="30" height="30" fill="hsl(240 100% 51.04331136505619%)" />
  <rect x="310" y="85" width="30" height="30" fill="hsl(240 100% 93.2368836560304%)" />
  <rect x="415" y="85" width="30" height="30" fill="hsl(240 100% 67.81101653561845%)" />
  <rect x="520" y="85" width="30" height="30" fill="hsl(240 100% 50%)" />
  <rect x="625" y="85" width="30" height="30" fill="rgb(255 255 255 / 50%)" />
  <rect x="730" y="85" width="30" height="30" fill="hsl(240 100% 74.62097830608126%)" />
  <rect x="765" y="85" width="30" height="30" fill="rgb(255 255 255 / 50%)" />
  <rect x="835" y="85" width="30" height="30" fill="hsl(240 100% 99.73158652324861%)" />
  <rect x="65" y="120" width="30" height="30" fill="hsl(240 100% 51.09434812516766%)" />
  <rect x="100" y="120" width="30" height="30" fill="hsl(240 100% 81.62641564946522%)" />
  <rect x="135" y="120" width="30" height="30" fill="hsl(240 100% 84.97351344454245%)" />
  <rect x="170" y="120" width="30" height="30" fill="hsl(240 100% 50%)" />
  <rect x="205" y="120" width="30" height="30" fill="hsl(240 100% 92.18657902398694%)" />
  <rect x="240" y="120" width="30" height="30" fill="hsl(240 100% 91.13752808271987%)" />
  <rect x="275" y="120" width="30" height="30" fill="hsl(240 100% 99.33314919772558%)" />
  <rect x="310" y="120" width="30" height="30" fill="hsl(240 100% 98.95947664431357%)" />
  <rect x="380" y="120" width="30" height="30" fill="hsl(240 100% 92.94790107812926%)" />
  <rect x="415" y="120" width="30" height="30" fill="hsl(240 100% 94.33026251031178%)" />
  <rect x="450" y="120" width="30" height="30" fill="hsl(240 100% 97.75916588073612%)" />
  <rect x="520" y="120" width="30" height="30" fill="hsl(240 100% 78.57969417425943%)" />
  <rect x="555" y="120" width="30" height="30" fill="hsl(240 100% 89.79259345510448%)" />
  <rect x="660" y="120" width="30" height="30" fill="rgb(255 255 255 / 50%)" />
  <rect x="835" y="120" width="30" height="30" fill="rgb(255 255 255 / 50%)" />
  <rect x="65" y="155" width="30" height="30" fill="hsl(240 100% 98.32918778694476%)" />
  <rect x="100" y="155" width="30" height="30" fill="hsl(240 100% 98.76450864128915%)" />
  <rect x="135" y="155" width="30" height="30" fill="hsl(240 100% 99.15386645690899%)" />
  <rect x="170" y="155" width="30" height="30" fill="hsl(240 100% 97.99901659656366%)" />
  <rect x="205" y="155" width="30" height="30" fill="hsl(240 100% 99.85209614360178%)" />
  <rect x="240" y="155" width="30" height="30" fill="hsl(240 100% 90.84874203607329%)" />
  <rect x="275" y="155" width="30" height="30" fill="hsl(240 100% 91.66919282937174%)" />
  <rect x="310" y="155" width="30" height="30" fill="rgb(255 255 255 / 50%)" />
  <rect x="415" y="155" width="30" height="30" fill="hsl(240 100% 92.77663901553834%)" />
  <rect x="485" y="155" width="30" height="30" fill="hsl(240 100% 50%)" />
  <rect x="520" y="155" width="30" height="30" fill="hsl(240 100% 83.0437627428034%)" />
  <rect x="590" y="155" width="30" height="30" fill="hsl(240 100% 99.57337051647306%)" />
  <rect x="625" y="155" width="30" height="30" fill="hsl(240 100% 67.43565282024262%)" />
  <rect x="695" y="155" width="30" height="30" fill="hsl(240 100% 95.29357620739478%)" />
  <rect x="730" y="155" width="30" height="30" fill="hsl(240 100% 83.28278697993318%)" />
  <rect x="765" y="155" width="30" height="30" fill="hsl(240 100% 99.58558983703232%)" />
  <rect x="835" y="155" width="30" height="30" fill="hsl(240 100% 96.03326471424965%)" />
  <rect x="65" y="190" width="30" height="30" fill="hsl(240 100% 50%)" />
  <rect x="100" y="190" width="30" height="30" fill="hsl(240 100% 50%)" />
  <rect x="135" y="190" width="30" height="30" fill="hsl(240 100% 50%)" />
  <rect x="170" y="190" width="30" height="30" fill="hsl(240 100% 50%)" />
  <rect x="205" y="190" width="30" height="30" fill="hsl(240 100% 50%)" />
  <rect x="240" y="190" width="30" height="30" fill="hsl(240 100% 50%)" />
  <rect x="275" y="190" width="30" height="30" fill="hsl(240 100% 50%)" />
  <rect x="310" y="190" width="30" height="30" fill="hsl(240 100% 50%)" />
  <rect x="345" y="190" width="30" height="30" fill="hsl(240 100% 50%)" />
  <rect x="380" y="190" width="30" height="30" fill="hsl(240 100% 50%)" />
  <rect x="415" y="190" width="30" height="30" fill="hsl(240 100% 50%)" />
  <rect x="450" y="190" width="30" height="30" fill="hsl(240 100% 50%)" />
  <rect x="485" y="190" width="30" height="30" fill="hsl(240 100% 50%)" />
  <rect x="520" y="190" width="30" height="30" fill="hsl(240 100% 50%)" />
  <rect x="555" y="190" width="30" height="30" fill="hsl(240 100% 50%)" />
  <rect x="590" y="190" width="30" height="30" fill="hsl(240 100% 50%)" />
  <rect x="625" y="190" width="30" height="30" fill="hsl(240 100% 50%)" />
  <rect x="660" y="190" width="30" height="30" fill="hsl(240 100% 50%)" />
  <rect x="695" y="190" width="30" height="30" fill="hsl(240 100% 50%)" />
  <rect x="730" y="190" width="30" height="30" fill="hsl(240 100% 50%)" />
  <rect x="765" y="190" width="30" height="30" fill="hsl(240 100% 50%)" />
  <rect x="800" y="190" width="30" height="30" fill="hsl(240 100% 50%)" />
  <rect x="835" y="190" width="30" height="30" fill="hsl(240 100% 50%)" />
  <rect x="100" y="225" width="30" height="30" fill="hsl(240 100% 96.67413944506953%)" />
  <rect x="135" y="225" width="30" height="30" fill="hsl(240 100% 90.00524025412372%)" />
  <rect x="170" y="225" width="30" height="30" fill="hsl(240 100% 89.23052287478791%)" />
  <rect x="240" y="225" width="30" height="30" fill="hsl(240 100% 91.29182602546665%)" />
  <rect x="310" y="225" width="30" height="30" fill="rgb(255 255 255 / 50%)" />
  <rect x="415" y="225" width="30" height="30" fill="hsl(240 100% 90.54862552394587%)" />
  <rect x="520" y="225" width="30" height="30" fill="hsl(240 100% 50%)" />
  <rect x="625" y="225" width="30" height="30" fill="rgb(255 255 255 / 50%)" />
  <rect x="730" y="225" width="30" height="30" fill="hsl(240 100% 93.20004651007883%)" />
  <rect x="765" y="225" width="30" height="30" fill="rgb(255 255 255 / 50%)" />
  <rect x="835" y="225" width="30" height="30" fill="hsl(240 100% 94.10312141863336%)" />
  <rect x="65" y="260" width="30" height="30" fill="hsl(240 100% 99.84707130522933%)" />
  <rect x="135" y="260" width="30" height="30" fill="hsl(240 100% 99.84918525622803%)" />
  <rect x="170" y="260" width="30" height="30" fill="hsl(240 100% 98.8349799792217%)" />
  <rect x="205" y="260" width="30" height="30" fill="rgb(255 255 255 / 50%)" />
  <rect x="240" y="260" width="30" height="30" fill="hsl(240 100% 86.78334719349544%)" />
  <rect x="310" y="260" width="30" height="30" fill="rgb(255 255 255 / 50%)" />
  <rect x="415" y="260" width="30" height="30" fill="hsl(240 100% 80.34822498856644%)" />
  <rect x="450" y="260" width="30" height="30" fill="rgb(255 255 255 / 50%)" />
  <rect x="485" y="260" width="30" height="30" fill="hsl(240 100% 50%)" />
  <rect x="520" y="260" width="30" height="30" fill="hsl(240 100% 70.64177112779385%)" />
  <rect x="625" y="260" width="30" height="30" fill="hsl(240 100% 96.94984118166042%)" />
  <rect x="695" y="260" width="30" height="30" fill="hsl(240 100% 94.00397893241916%)" />
  <rect x="65" y="295" width="30" height="30" fill="hsl(240 100% 85.89113439819707%)" />
  <rect x="100" y="295" width="30" height="30" fill="hsl(240 100% 97.5042437802336%)" />
  <rect x="135" y="295" width="30" height="30" fill="hsl(240 100% 95.30984245903475%)" />
  <rect x="170" y="295" width="30" height="30" fill="hsl(240 100% 90.64940221463236%)" />
  <rect x="205" y="295" width="30" height="30" fill="hsl(240 100% 99.46725061503292%)" />
  <rect x="240" y="295" width="30" height="30" fill="hsl(240 100% 50.390473952348884%)" />
  <rect x="275" y="295" width="30" height="30" fill="hsl(240 100% 50%)" />
  <rect x="310" y="295" width="30" height="30" fill="hsl(240 100% 99.49634502772744%)" />
  <rect x="345" y="295" width="30" height="30" fill="hsl(240 100% 94.67056940964794%)" />
  <rect x="415" y="295" width="30" height="30" fill="hsl(240 100% 54.99734552064874%)" />
  <rect x="450" y="295" width="30" height="30" fill="hsl(240 100% 99.31636944571196%)" />
  <rect x="485" y="295" width="30" height="30" fill="hsl(240 100% 88.10740896617305%)" />
  <rect x="520" y="295" width="30" height="30" fill="hsl(240 100% 57.60799975020349%)" />
  <rect x="695" y="295" width="30" height="30" fill="hsl(240 100% 97.59380425656161%)" />
  <rect x="800" y="295" width="30" height="30" fill="hsl(240 100% 99.57205974694624%)" />
  <rect x="835" y="295" width="30" height="30" fill="hsl(240 100% 99.95466806984842%)" />
  <rect x="65" y="330" width="30" height="30" fill="hsl(240 100% 87.69001394987455%)" />
  <rect x="100" y="330" width="30" height="30" fill="hsl(240 100% 94.29446222971072%)" />
  <rect x="135" y="330" width="30" height="30" fill="hsl(240 100% 96.88602453684173%)" />
  <rect x="170" y="330" width="30" height="30" fill="hsl(240 100% 87.41795832017777%)" />
  <rect x="205" y="330" width="30" height="30" fill="hsl(240 100% 99.132730992804%)" />
  <rect x="240" y="330" width="30" height="30" fill="hsl(240 100% 77.67743222651404%)" />
  <rect x="275" y="330" width="30" height="30" fill="hsl(240 100% 87.15098971119578%)" />
  <rect x="310" y="330" width="30" height="30" fill="rgb(255 255 255 / 50%)" />
  <rect x="345" y="330" width="30" height="30" fill="hsl(240 100% 96.96539027618294%)" />
  <rect x="415" y="330" width="30" height="30" fill="hsl(240 100% 84.52495228996956%)" />
  <rect x="450" y="330" width="30" height="30" fill="hsl(240 100% 99.79482139963146%)" />
  <rect x="485" y="330" width="30" height="30" fill="hsl(240 100% 68.4264186411082%)" />
  <rect x="520" y="330" width="30" height="30" fill="hsl(240 100% 74.73305554974806%)" />
  <rect x="590" y="330" width="30" height="30" fill="hsl(240 100% 93.22277096610529%)" />
  <rect x="625" y="330" width="30" height="30" fill="hsl(240 100% 50%)" />
  <rect x="765" y="330" width="30" height="30" fill="hsl(240 100% 94.2331231058807%)" />
  <rect x="800" y="330" width="30" height="30" fill="hsl(240 100% 99.14948691151828%)" />
  <rect x="835" y="330" width="30" height="30" fill="hsl(240 100% 79.14866017763894%)" />
  <rect x="65" y="365" width="30" height="30" fill="hsl(240 100% 56.8656917873476%)" />
  <rect x="100" y="365" width="30" height="30" fill="hsl(240 100% 71.872645368524%)" />
  <rect x="135" y="365" width="30" height="30" fill="hsl(240 100% 82.49411495786755%)" />
  <rect x="170" y="365" width="30" height="30" fill="hsl(240 100% 50%)" />
  <rect x="205" y="365" width="30" height="30" fill="hsl(240 100% 96.22028690267639%)" />
  <rect x="240" y="365" width="30" height="30" fill="hsl(240 100% 59.41365046886287%)" />
  <rect x="275" y="365" width="30" height="30" fill="hsl(240 100% 92.74448154691855%)" />
  <rect x="310" y="365" width="30" height="30" fill="hsl(240 100% 99.86225977807511%)" />
  <rect x="415" y="365" width="30" height="30" fill="hsl(240 100% 66.6210560561228%)" />
  <rect x="520" y="365" width="30" height="30" fill="hsl(240 100% 85.86302916461439%)" />
  <rect x="625" y="365" width="30" height="30" fill="hsl(240 100% 99.64482242793947%)" />
  <rect x="730" y="365" width="30" height="30" fill="hsl(240 100% 63.580387458977185%)" />
  <rect x="765" y="365" width="30" height="30" fill="hsl(240 100% 98.13189601899765%)" />
  <rect x="835" y="365" width="30" height="30" fill="hsl(240 100% 98.81425021919193%)" />
  <rect x="65" y="400" width="30" height="30" fill="hsl(240 100% 97.7363923339551%)" />
  <rect x="100" y="400" width="30" height="30" fill="hsl(240 100% 99.27867574123708%)" />
  <rect x="135" y="400" width="30" height="30" fill="hsl(240 100% 99.59400279111337%)" />
  <rect x="170" y="400" width="30" height="30" fill="hsl(240 100% 94.16329011861595%)" />
  <rect x="205" y="400" width="30" height="30" fill="hsl(240 100% 99.05253268614467%)" />
  <rect x="240" y="400" width="30" height="30" fill="hsl(240 100% 83.59195727333966%)" />
  <rect x="275" y="400" width="30" height="30" fill="hsl(240 100% 94.19481923644234%)" />
  <rect x="310" y="400" width="30" height="30" fill="rgb(255 255 255 / 50%)" />
  <rect x="380" y="400" width="30" height="30" fill="rgb(255 255 255 / 50%)" />
  <rect x="415" y="400" width="30" height="30" fill="hsl(240 100% 92.56001862807561%)" />
  <rect x="450" y="400" width="30" height="30" fill="hsl(240 100% 99.96793100282156%)" />
  <rect x="485" y="400" width="30" height="30" fill="hsl(240 100% 73.36088029700605%)" />
  <rect x="520" y="400" width="30" height="30" fill="hsl(240 100% 50%)" />
  <rect x="555" y="400" width="30" height="30" fill="hsl(240 100% 98.9023974218627%)" />
  <rect x="660" y="400" width="30" height="30" fill="rgb(255 255 255 / 50%)" />
  <rect x="835" y="400" width="30" height="30" fill="hsl(240 100% 98.8252100414591%)" />
  <rect x="65" y="435" width="30" height="30" fill="hsl(240 100% 92.91412946728664%)" />
  <rect x="240" y="435" width="30" height="30" fill="hsl(240 100% 50%)" />
  <rect x="310" y="435" width="30" height="30" fill="hsl(240 100% 94.31031877435088%)" />
  <rect x="415" y="435" width="30" height="30" fill="hsl(240 100% 87.02705928535053%)" />
  <rect x="450" y="435" width="30" height="30" fill="hsl(240 100% 99.78260284791953%)" />
  <rect x="65" y="470" width="30" height="30" fill="hsl(240 100% 50%)" />
  <rect x="240" y="470" width="30" height="30" fill="hsl(240 100% 50.14288041831822%)" />
  <rect x="310" y="470" width="30" height="30" fill="hsl(240 100% 97.13851809093008%)" />
  <rect x="415" y="470" width="30" height="30" fill="hsl(240 100% 88.99478438050787%)" />
  <rect x="450" y="470" width="30" height="30" fill="hsl(240 100% 99.56653478586328%)" />
</svg>
