<svg xmlns="http://www.w3.org/2000/svg" viewBox="0 0 870 505">
  <rect x="0" y="0" width="870" height="505" rx="5" ry="5" fill="#222" />
  <text x="60" y="100" fill="white" font-family="sans-serif" font-weight="bold" font-size="12" text-anchor="end" dominant-baseline="middle">ba</text>
  <text x="60" y="135" fill="white" font-family="sans-serif" font-weight="bold" font-size="12" text-anchor="end" dominant-baseline="middle">det</text>
  <text x="60" y="170" fill="white" font-family="sans-serif" font-weight="bold" font-size="12" text-anchor="end" dominant-baseline="middle">gmm</text>
  <text x="60" y="205" fill="white" font-family="sans-serif" font-weight="bold" font-size="12" text-anchor="end" dominant-baseline="middle">hello</text>
  <text x="60" y="240" fill="white" font-family="sans-serif" font-weight="bold" font-size="12" text-anchor="end" dominant-baseline="middle">ht</text>
  <text x="60" y="275" fill="white" font-family="sans-serif" font-weight="bold" font-size="12" text-anchor="end" dominant-baseline="middle">kmeans</text>
  <text x="60" y="310" fill="white" font-family="sans-serif" font-weight="bold" font-size="12" text-anchor="end" dominant-baseline="middle">llsq</text>
  <text x="60" y="345" fill="white" font-family="sans-serif" font-weight="bold" font-size="12" text-anchor="end" dominant-baseline="middle">lse</text>
  <text x="60" y="380" fill="white" font-family="sans-serif" font-weight="bold" font-size="12" text-anchor="end" dominant-baseline="middle">lstm</text>
  <text x="60" y="415" fill="white" font-family="sans-serif" font-weight="bold" font-size="12" text-anchor="end" dominant-baseline="middle">ode</text>
  <text x="60" y="450" fill="white" font-family="sans-serif" font-weight="bold" font-size="12" text-anchor="end" dominant-baseline="middle">particle</text>
  <text x="60" y="485" fill="white" font-family="sans-serif" font-weight="bold" font-size="12" text-anchor="end" dominant-baseline="middle">saddle</text>
  <text x="80" y="80" fill="white" font-family="sans-serif" font-weight="bold" font-size="12" text-anchor="end" dominant-baseline="middle" transform="rotate(90 80 80)">ad-hpp</text>
  <text x="115" y="80" fill="white" font-family="sans-serif" font-weight="bold" font-size="12" text-anchor="end" dominant-baseline="middle" transform="rotate(90 115 80)">adept</text>
  <text x="150" y="80" fill="white" font-family="sans-serif" font-weight="bold" font-size="12" text-anchor="end" dominant-baseline="middle" transform="rotate(90 150 80)">adol-c</text>
  <text x="185" y="80" fill="white" font-family="sans-serif" font-weight="bold" font-size="12" text-anchor="end" dominant-baseline="middle" transform="rotate(90 185 80)">codipack</text>
  <text x="220" y="80" fill="white" font-family="sans-serif" font-weight="bold" font-size="12" text-anchor="end" dominant-baseline="middle" transform="rotate(90 220 80)">cppad</text>
  <text x="255" y="80" fill="white" font-family="sans-serif" font-weight="bold" font-size="12" text-anchor="end" dominant-baseline="middle" transform="rotate(90 255 80)">enzyme</text>
  <text x="290" y="80" fill="white" font-family="sans-serif" font-weight="bold" font-size="12" text-anchor="end" dominant-baseline="middle" transform="rotate(90 290 80)">enzyme-jl</text>
  <text x="325" y="80" fill="white" font-family="sans-serif" font-weight="bold" font-size="12" text-anchor="end" dominant-baseline="middle" transform="rotate(90 325 80)">finite</text>
  <text x="360" y="80" fill="white" font-family="sans-serif" font-weight="bold" font-size="12" text-anchor="end" dominant-baseline="middle" transform="rotate(90 360 80)">floretta</text>
  <text x="395" y="80" fill="white" font-family="sans-serif" font-weight="bold" font-size="12" text-anchor="end" dominant-baseline="middle" transform="rotate(90 395 80)">forwarddiff-jl</text>
  <text x="430" y="80" fill="white" font-family="sans-serif" font-weight="bold" font-size="12" text-anchor="end" dominant-baseline="middle" transform="rotate(90 430 80)">futhark</text>
  <text x="465" y="80" fill="white" font-family="sans-serif" font-weight="bold" font-size="12" text-anchor="end" dominant-baseline="middle" transform="rotate(90 465 80)">haskell</text>
  <text x="500" y="80" fill="white" font-family="sans-serif" font-weight="bold" font-size="12" text-anchor="end" dominant-baseline="middle" transform="rotate(90 500 80)">jax</text>
  <text x="535" y="80" fill="white" font-family="sans-serif" font-weight="bold" font-size="12" text-anchor="end" dominant-baseline="middle" transform="rotate(90 535 80)">manual</text>
  <text x="570" y="80" fill="white" font-family="sans-serif" font-weight="bold" font-size="12" text-anchor="end" dominant-baseline="middle" transform="rotate(90 570 80)">mooncake-jl</text>
  <text x="605" y="80" fill="white" font-family="sans-serif" font-weight="bold" font-size="12" text-anchor="end" dominant-baseline="middle" transform="rotate(90 605 80)">ocaml</text>
  <text x="640" y="80" fill="white" font-family="sans-serif" font-weight="bold" font-size="12" text-anchor="end" dominant-baseline="middle" transform="rotate(90 640 80)">pytorch</text>
  <text x="675" y="80" fill="white" font-family="sans-serif" font-weight="bold" font-size="12" text-anchor="end" dominant-baseline="middle" transform="rotate(90 675 80)">reversediff-jl</text>
  <text x="710" y="80" fill="white" font-family="sans-serif" font-weight="bold" font-size="12" text-anchor="end" dominant-baseline="middle" transform="rotate(90 710 80)">scilean</text>
  <text x="745" y="80" fill="white" font-family="sans-serif" font-weight="bold" font-size="12" text-anchor="end" dominant-baseline="middle" transform="rotate(90 745 80)">tapenade</text>
  <text x="780" y="80" fill="white" font-family="sans-serif" font-weight="bold" font-size="12" text-anchor="end" dominant-baseline="middle" transform="rotate(90 780 80)">tensorflow</text>
  <text x="815" y="80" fill="white" font-family="sans-serif" font-weight="bold" font-size="12" text-anchor="end" dominant-baseline="middle" transform="rotate(90 815 80)">tensorflow-js</text>
  <text x="850" y="80" fill="white" font-family="sans-serif" font-weight="bold" font-size="12" text-anchor="end" dominant-baseline="middle" transform="rotate(90 850 80)">zygote</text>
  <rect x="65" y="85" width="30" height="30" fill="hsl(240 100% 80.89333673879761%)" />
  <rect x="100" y="85" width="30" height="30" fill="hsl(240 100% 82.91403518803291%)" />
  <rect x="135" y="85" width="30" height="30" fill="hsl(240 100% 97.9823897497469%)" />
  <rect x="170" y="85" width="30" height="30" fill="hsl(240 100% 82.28025447838357%)" />
  <rect x="205" y="85" width="30" height="30" fill="hsl(240 100% 98.99823037578349%)" />
  <rect x="240" y="85" width="30" height="30" fill="hsl(240 100% 51.28718303546338%)" />
  <rect x="310" y="85" width="30" height="30" fill="hsl(240 100% 93.24269478395048%)" />
  <rect x="415" y="85" width="30" height="30" fill="hsl(240 100% 67.92464422048175%)" />
  <rect x="520" y="85" width="30" height="30" fill="hsl(240 100% 50%)" />
  <rect x="625" y="85" width="30" height="30" fill="rgb(255 255 255 / 50%)" />
  <rect x="730" y="85" width="30" height="30" fill="hsl(240 100% 74.70291143658409%)" />
  <rect x="765" y="85" width="30" height="30" fill="rgb(255 255 255 / 50%)" />
  <rect x="835" y="85" width="30" height="30" fill="hsl(240 100% 99.72743129315847%)" />
  <rect x="65" y="120" width="30" height="30" fill="hsl(240 100% 50%)" />
  <rect x="100" y="120" width="30" height="30" fill="hsl(240 100% 83.00494015613603%)" />
  <rect x="135" y="120" width="30" height="30" fill="hsl(240 100% 85.63691885347622%)" />
  <rect x="170" y="120" width="30" height="30" fill="hsl(240 100% 51.783418476998754%)" />
  <rect x="205" y="120" width="30" height="30" fill="hsl(240 100% 92.42139058111889%)" />
  <rect x="240" y="120" width="30" height="30" fill="hsl(240 100% 91.28683189504557%)" />
  <rect x="275" y="120" width="30" height="30" fill="hsl(240 100% 99.34399547801576%)" />
  <rect x="310" y="120" width="30" height="30" fill="hsl(240 100% 98.98057443875206%)" />
  <rect x="380" y="120" width="30" height="30" fill="hsl(240 100% 93.2390533173174%)" />
  <rect x="415" y="120" width="30" height="30" fill="hsl(240 100% 94.571765477444%)" />
  <rect x="450" y="120" width="30" height="30" fill="hsl(240 100% 97.90488125776417%)" />
  <rect x="520" y="120" width="30" height="30" fill="hsl(240 100% 79.57668561292923%)" />
  <rect x="555" y="120" width="30" height="30" fill="hsl(240 100% 90.160761502907%)" />
  <rect x="660" y="120" width="30" height="30" fill="rgb(255 255 255 / 50%)" />
  <rect x="835" y="120" width="30" height="30" fill="rgb(255 255 255 / 50%)" />
  <rect x="65" y="155" width="30" height="30" fill="hsl(240 100% 98.3254517194872%)" />
  <rect x="100" y="155" width="30" height="30" fill="hsl(240 100% 98.81847287271638%)" />
  <rect x="135" y="155" width="30" height="30" fill="hsl(240 100% 99.10277382217625%)" />
  <rect x="170" y="155" width="30" height="30" fill="hsl(240 100% 98.10988248697774%)" />
  <rect x="205" y="155" width="30" height="30" fill="hsl(240 100% 99.84983436269226%)" />
  <rect x="240" y="155" width="30" height="30" fill="hsl(240 100% 91.18288922230246%)" />
  <rect x="275" y="155" width="30" height="30" fill="hsl(240 100% 92.29747411671588%)" />
  <rect x="310" y="155" width="30" height="30" fill="rgb(255 255 255 / 50%)" />
  <rect x="415" y="155" width="30" height="30" fill="hsl(240 100% 92.9131150810192%)" />
  <rect x="485" y="155" width="30" height="30" fill="hsl(240 100% 50%)" />
  <rect x="520" y="155" width="30" height="30" fill="hsl(240 100% 83.40011085389158%)" />
  <rect x="590" y="155" width="30" height="30" fill="hsl(240 100% 99.59214050915594%)" />
  <rect x="625" y="155" width="30" height="30" fill="hsl(240 100% 66.4770645391373%)" />
  <rect x="695" y="155" width="30" height="30" fill="hsl(240 100% 95.42399991067627%)" />
  <rect x="730" y="155" width="30" height="30" fill="hsl(240 100% 83.71103760334772%)" />
  <rect x="765" y="155" width="30" height="30" fill="hsl(240 100% 99.59633566514499%)" />
  <rect x="835" y="155" width="30" height="30" fill="hsl(240 100% 96.425234223383%)" />
  <rect x="65" y="190" width="30" height="30" fill="hsl(240 100% 50%)" />
  <rect x="100" y="190" width="30" height="30" fill="hsl(240 100% 50%)" />
  <rect x="135" y="190" width="30" height="30" fill="hsl(240 100% 50%)" />
  <rect x="170" y="190" width="30" height="30" fill="hsl(240 100% 50%)" />
  <rect x="205" y="190" width="30" height="30" fill="hsl(240 100% 50%)" />
  <rect x="240" y="190" width="30" height="30" fill="hsl(240 100% 50%)" />
  <rect x="275" y="190" width="30" height="30" fill="hsl(240 100% 50%)" />
  <rect x="310" y="190" width="30" height="30" fill="hsl(240 100% 50%)" />
  <rect x="345" y="190" width="30" height="30" fill="hsl(240 100% 50%)" />
  <rect x="380" y="190" width="30" height="30" fill="hsl(240 100% 50%)" />
  <rect x="415" y="190" width="30" height="30" fill="hsl(240 100% 50%)" />
  <rect x="450" y="190" width="30" height="30" fill="hsl(240 100% 50%)" />
  <rect x="485" y="190" width="30" height="30" fill="hsl(240 100% 50%)" />
  <rect x="520" y="190" width="30" height="30" fill="hsl(240 100% 50%)" />
  <rect x="555" y="190" width="30" height="30" fill="hsl(240 100% 50%)" />
  <rect x="590" y="190" width="30" height="30" fill="hsl(240 100% 50%)" />
  <rect x="625" y="190" width="30" height="30" fill="hsl(240 100% 50%)" />
  <rect x="660" y="190" width="30" height="30" fill="hsl(240 100% 50%)" />
  <rect x="695" y="190" width="30" height="30" fill="hsl(240 100% 50%)" />
  <rect x="730" y="190" width="30" height="30" fill="hsl(240 100% 50%)" />
  <rect x="765" y="190" width="30" height="30" fill="hsl(240 100% 50%)" />
  <rect x="800" y="190" width="30" height="30" fill="hsl(240 100% 50%)" />
  <rect x="835" y="190" width="30" height="30" fill="hsl(240 100% 50%)" />
  <rect x="100" y="225" width="30" height="30" fill="hsl(240 100% 96.67966271839211%)" />
  <rect x="135" y="225" width="30" height="30" fill="hsl(240 100% 89.29096557308225%)" />
  <rect x="170" y="225" width="30" height="30" fill="hsl(240 100% 89.31242035604033%)" />
  <rect x="240" y="225" width="30" height="30" fill="hsl(240 100% 91.4242659134472%)" />
  <rect x="310" y="225" width="30" height="30" fill="rgb(255 255 255 / 50%)" />
  <rect x="415" y="225" width="30" height="30" fill="hsl(240 100% 90.54441425598685%)" />
  <rect x="520" y="225" width="30" height="30" fill="hsl(240 100% 50%)" />
  <rect x="625" y="225" width="30" height="30" fill="rgb(255 255 255 / 50%)" />
  <rect x="730" y="225" width="30" height="30" fill="hsl(240 100% 93.24663835315879%)" />
  <rect x="765" y="225" width="30" height="30" fill="rgb(255 255 255 / 50%)" />
  <rect x="835" y="225" width="30" height="30" fill="hsl(240 100% 94.36736436879698%)" />
  <rect x="65" y="260" width="30" height="30" fill="hsl(240 100% 99.86024823095093%)" />
  <rect x="135" y="260" width="30" height="30" fill="hsl(240 100% 99.85265846609073%)" />
  <rect x="170" y="260" width="30" height="30" fill="hsl(240 100% 98.85720311740658%)" />
  <rect x="205" y="260" width="30" height="30" fill="rgb(255 255 255 / 50%)" />
  <rect x="240" y="260" width="30" height="30" fill="hsl(240 100% 87.12465468368126%)" />
  <rect x="310" y="260" width="30" height="30" fill="rgb(255 255 255 / 50%)" />
  <rect x="415" y="260" width="30" height="30" fill="hsl(240 100% 80.79756856909817%)" />
  <rect x="450" y="260" width="30" height="30" fill="rgb(255 255 255 / 50%)" />
  <rect x="485" y="260" width="30" height="30" fill="hsl(240 100% 50%)" />
  <rect x="520" y="260" width="30" height="30" fill="hsl(240 100% 71.64607348654152%)" />
  <rect x="625" y="260" width="30" height="30" fill="hsl(240 100% 97.38318352857513%)" />
  <rect x="695" y="260" width="30" height="30" fill="hsl(240 100% 94.18903717473015%)" />
  <rect x="65" y="295" width="30" height="30" fill="hsl(240 100% 85.94202168952589%)" />
  <rect x="100" y="295" width="30" height="30" fill="hsl(240 100% 97.56567775177768%)" />
  <rect x="135" y="295" width="30" height="30" fill="hsl(240 100% 95.10240953855117%)" />
  <rect x="170" y="295" width="30" height="30" fill="hsl(240 100% 90.65678747512959%)" />
  <rect x="205" y="295" width="30" height="30" fill="hsl(240 100% 99.46900651321025%)" />
  <rect x="240" y="295" width="30" height="30" fill="hsl(240 100% 50.630121969416784%)" />
  <rect x="275" y="295" width="30" height="30" fill="hsl(240 100% 50%)" />
  <rect x="310" y="295" width="30" height="30" fill="hsl(240 100% 99.50174199296988%)" />
  <rect x="345" y="295" width="30" height="30" fill="hsl(240 100% 94.75824817768003%)" />
  <rect x="415" y="295" width="30" height="30" fill="hsl(240 100% 55.21027040478734%)" />
  <rect x="450" y="295" width="30" height="30" fill="hsl(240 100% 99.3368072266713%)" />
  <rect x="485" y="295" width="30" height="30" fill="hsl(240 100% 88.24819527500927%)" />
  <rect x="520" y="295" width="30" height="30" fill="hsl(240 100% 57.83198771495795%)" />
  <rect x="695" y="295" width="30" height="30" fill="hsl(240 100% 97.6081572592446%)" />
  <rect x="800" y="295" width="30" height="30" fill="hsl(240 100% 99.57931870403773%)" />
  <rect x="835" y="295" width="30" height="30" fill="hsl(240 100% 99.95424888970575%)" />
  <rect x="65" y="330" width="30" height="30" fill="hsl(240 100% 88.96952959098006%)" />
  <rect x="100" y="330" width="30" height="30" fill="hsl(240 100% 94.8632781503979%)" />
  <rect x="135" y="330" width="30" height="30" fill="hsl(240 100% 97.13612961483464%)" />
  <rect x="170" y="330" width="30" height="30" fill="hsl(240 100% 88.80208838141502%)" />
  <rect x="205" y="330" width="30" height="30" fill="hsl(240 100% 99.20820377832266%)" />
  <rect x="240" y="330" width="30" height="30" fill="hsl(240 100% 80.11272510560366%)" />
  <rect x="275" y="330" width="30" height="30" fill="hsl(240 100% 89.47871747138188%)" />
  <rect x="310" y="330" width="30" height="30" fill="rgb(255 255 255 / 50%)" />
  <rect x="345" y="330" width="30" height="30" fill="hsl(240 100% 97.23559781686001%)" />
  <rect x="415" y="330" width="30" height="30" fill="hsl(240 100% 86.02894576890385%)" />
  <rect x="450" y="330" width="30" height="30" fill="hsl(240 100% 99.80957291066878%)" />
  <rect x="485" y="330" width="30" height="30" fill="hsl(240 100% 72.00871050637798%)" />
  <rect x="520" y="330" width="30" height="30" fill="hsl(240 100% 76.97097681013122%)" />
  <rect x="590" y="330" width="30" height="30" fill="hsl(240 100% 93.83377576643808%)" />
  <rect x="625" y="330" width="30" height="30" fill="hsl(240 100% 50%)" />
  <rect x="765" y="330" width="30" height="30" fill="hsl(240 100% 94.28209027895234%)" />
  <rect x="800" y="330" width="30" height="30" fill="hsl(240 100% 99.2323731725056%)" />
  <rect x="835" y="330" width="30" height="30" fill="hsl(240 100% 80.82799243065152%)" />
  <rect x="65" y="365" width="30" height="30" fill="hsl(240 100% 57.302030196135455%)" />
  <rect x="100" y="365" width="30" height="30" fill="hsl(240 100% 72.07956745485207%)" />
  <rect x="135" y="365" width="30" height="30" fill="hsl(240 100% 82.3859575382736%)" />
  <rect x="170" y="365" width="30" height="30" fill="hsl(240 100% 50%)" />
  <rect x="205" y="365" width="30" height="30" fill="hsl(240 100% 96.18808641148514%)" />
  <rect x="240" y="365" width="30" height="30" fill="hsl(240 100% 59.55878961804711%)" />
  <rect x="275" y="365" width="30" height="30" fill="hsl(240 100% 92.49660599444911%)" />
  <rect x="310" y="365" width="30" height="30" fill="hsl(240 100% 99.86214501453817%)" />
  <rect x="415" y="365" width="30" height="30" fill="hsl(240 100% 67.0183834746675%)" />
  <rect x="520" y="365" width="30" height="30" fill="hsl(240 100% 86.07681479704232%)" />
  <rect x="625" y="365" width="30" height="30" fill="hsl(240 100% 99.64086999700585%)" />
  <rect x="730" y="365" width="30" height="30" fill="hsl(240 100% 63.89212599589311%)" />
  <rect x="765" y="365" width="30" height="30" fill="hsl(240 100% 98.16781032088292%)" />
  <rect x="835" y="365" width="30" height="30" fill="hsl(240 100% 98.76811405020635%)" />
  <rect x="65" y="400" width="30" height="30" fill="hsl(240 100% 98.11873537417314%)" />
  <rect x="100" y="400" width="30" height="30" fill="hsl(240 100% 99.24949981612144%)" />
  <rect x="135" y="400" width="30" height="30" fill="hsl(240 100% 99.5960175001467%)" />
  <rect x="170" y="400" width="30" height="30" fill="hsl(240 100% 94.17669747647462%)" />
  <rect x="205" y="400" width="30" height="30" fill="hsl(240 100% 99.05137246033402%)" />
  <rect x="240" y="400" width="30" height="30" fill="hsl(240 100% 82.33885917961638%)" />
  <rect x="275" y="400" width="30" height="30" fill="hsl(240 100% 94.24270980197569%)" />
  <rect x="310" y="400" width="30" height="30" fill="rgb(255 255 255 / 50%)" />
  <rect x="380" y="400" width="30" height="30" fill="rgb(255 255 255 / 50%)" />
  <rect x="415" y="400" width="30" height="30" fill="hsl(240 100% 92.51459367149835%)" />
  <rect x="450" y="400" width="30" height="30" fill="hsl(240 100% 99.9634224881375%)" />
  <rect x="485" y="400" width="30" height="30" fill="hsl(240 100% 73.52275071998321%)" />
  <rect x="520" y="400" width="30" height="30" fill="hsl(240 100% 50%)" />
  <rect x="555" y="400" width="30" height="30" fill="hsl(240 100% 98.8873453050467%)" />
  <rect x="660" y="400" width="30" height="30" fill="rgb(255 255 255 / 50%)" />
  <rect x="835" y="400" width="30" height="30" fill="hsl(240 100% 98.99777791204015%)" />
  <rect x="65" y="435" width="30" height="30" fill="hsl(240 100% 92.78086402830627%)" />
  <rect x="240" y="435" width="30" height="30" fill="hsl(240 100% 50%)" />
  <rect x="310" y="435" width="30" height="30" fill="hsl(240 100% 94.26078809826441%)" />
  <rect x="415" y="435" width="30" height="30" fill="hsl(240 100% 86.88840682582183%)" />
  <rect x="450" y="435" width="30" height="30" fill="hsl(240 100% 99.79104406387837%)" />
  <rect x="65" y="470" width="30" height="30" fill="hsl(240 100% 50%)" />
  <rect x="240" y="470" width="30" height="30" fill="hsl(240 100% 50.27706774099974%)" />
  <rect x="310" y="470" width="30" height="30" fill="hsl(240 100% 97.157679307746%)" />
  <rect x="415" y="470" width="30" height="30" fill="hsl(240 100% 89.10406400343619%)" />
  <rect x="450" y="470" width="30" height="30" fill="hsl(240 100% 99.57710060298437%)" />
</svg>
