<svg xmlns="http://www.w3.org/2000/svg" viewBox="0 0 870 505">
  <rect x="0" y="0" width="870" height="505" rx="5" ry="5" fill="#222" />
  <text x="60" y="100" fill="white" font-family="sans-serif" font-weight="bold" font-size="12" text-anchor="end" dominant-baseline="middle">ba</text>
  <text x="60" y="135" fill="white" font-family="sans-serif" font-weight="bold" font-size="12" text-anchor="end" dominant-baseline="middle">det</text>
  <text x="60" y="170" fill="white" font-family="sans-serif" font-weight="bold" font-size="12" text-anchor="end" dominant-baseline="middle">gmm</text>
  <text x="60" y="205" fill="white" font-family="sans-serif" font-weight="bold" font-size="12" text-anchor="end" dominant-baseline="middle">hello</text>
  <text x="60" y="240" fill="white" font-family="sans-serif" font-weight="bold" font-size="12" text-anchor="end" dominant-baseline="middle">ht</text>
  <text x="60" y="275" fill="white" font-family="sans-serif" font-weight="bold" font-size="12" text-anchor="end" dominant-baseline="middle">kmeans</text>
  <text x="60" y="310" fill="white" font-family="sans-serif" font-weight="bold" font-size="12" text-anchor="end" dominant-baseline="middle">llsq</text>
  <text x="60" y="345" fill="white" font-family="sans-serif" font-weight="bold" font-size="12" text-anchor="end" dominant-baseline="middle">lse</text>
  <text x="60" y="380" fill="white" font-family="sans-serif" font-weight="bold" font-size="12" text-anchor="end" dominant-baseline="middle">lstm</text>
  <text x="60" y="415" fill="white" font-family="sans-serif" font-weight="bold" font-size="12" text-anchor="end" dominant-baseline="middle">ode</text>
  <text x="60" y="450" fill="white" font-family="sans-serif" font-weight="bold" font-size="12" text-anchor="end" dominant-baseline="middle">particle</text>
  <text x="60" y="485" fill="white" font-family="sans-serif" font-weight="bold" font-size="12" text-anchor="end" dominant-baseline="middle">saddle</text>
  <text x="80" y="80" fill="white" font-family="sans-serif" font-weight="bold" font-size="12" text-anchor="end" dominant-baseline="middle" transform="rotate(90 80 80)">ad-hpp</text>
  <text x="115" y="80" fill="white" font-family="sans-serif" font-weight="bold" font-size="12" text-anchor="end" dominant-baseline="middle" transform="rotate(90 115 80)">adept</text>
  <text x="150" y="80" fill="white" font-family="sans-serif" font-weight="bold" font-size="12" text-anchor="end" dominant-baseline="middle" transform="rotate(90 150 80)">adol-c</text>
  <text x="185" y="80" fill="white" font-family="sans-serif" font-weight="bold" font-size="12" text-anchor="end" dominant-baseline="middle" transform="rotate(90 185 80)">codipack</text>
  <text x="220" y="80" fill="white" font-family="sans-serif" font-weight="bold" font-size="12" text-anchor="end" dominant-baseline="middle" transform="rotate(90 220 80)">cppad</text>
  <text x="255" y="80" fill="white" font-family="sans-serif" font-weight="bold" font-size="12" text-anchor="end" dominant-baseline="middle" transform="rotate(90 255 80)">enzyme</text>
  <text x="290" y="80" fill="white" font-family="sans-serif" font-weight="bold" font-size="12" text-anchor="end" dominant-baseline="middle" transform="rotate(90 290 80)">enzyme-jl</text>
  <text x="325" y="80" fill="white" font-family="sans-serif" font-weight="bold" font-size="12" text-anchor="end" dominant-baseline="middle" transform="rotate(90 325 80)">finite</text>
  <text x="360" y="80" fill="white" font-family="sans-serif" font-weight="bold" font-size="12" text-anchor="end" dominant-baseline="middle" transform="rotate(90 360 80)">floretta</text>
  <text x="395" y="80" fill="white" font-family="sans-serif" font-weight="bold" font-size="12" text-anchor="end" dominant-baseline="middle" transform="rotate(90 395 80)">forwarddiff-jl</text>
  <text x="430" y="80" fill="white" font-family="sans-serif" font-weight="bold" font-size="12" text-anchor="end" dominant-baseline="middle" transform="rotate(90 430 80)">futhark</text>
  <text x="465" y="80" fill="white" font-family="sans-serif" font-weight="bold" font-size="12" text-anchor="end" dominant-baseline="middle" transform="rotate(90 465 80)">haskell</text>
  <text x="500" y="80" fill="white" font-family="sans-serif" font-weight="bold" font-size="12" text-anchor="end" dominant-baseline="middle" transform="rotate(90 500 80)">jax</text>
  <text x="535" y="80" fill="white" font-family="sans-serif" font-weight="bold" font-size="12" text-anchor="end" dominant-baseline="middle" transform="rotate(90 535 80)">manual</text>
  <text x="570" y="80" fill="white" font-family="sans-serif" font-weight="bold" font-size="12" text-anchor="end" dominant-baseline="middle" transform="rotate(90 570 80)">mooncake-jl</text>
  <text x="605" y="80" fill="white" font-family="sans-serif" font-weight="bold" font-size="12" text-anchor="end" dominant-baseline="middle" transform="rotate(90 605 80)">ocaml</text>
  <text x="640" y="80" fill="white" font-family="sans-serif" font-weight="bold" font-size="12" text-anchor="end" dominant-baseline="middle" transform="rotate(90 640 80)">pytorch</text>
  <text x="675" y="80" fill="white" font-family="sans-serif" font-weight="bold" font-size="12" text-anchor="end" dominant-baseline="middle" transform="rotate(90 675 80)">reversediff-jl</text>
  <text x="710" y="80" fill="white" font-family="sans-serif" font-weight="bold" font-size="12" text-anchor="end" dominant-baseline="middle" transform="rotate(90 710 80)">scilean</text>
  <text x="745" y="80" fill="white" font-family="sans-serif" font-weight="bold" font-size="12" text-anchor="end" dominant-baseline="middle" transform="rotate(90 745 80)">tapenade</text>
  <text x="780" y="80" fill="white" font-family="sans-serif" font-weight="bold" font-size="12" text-anchor="end" dominant-baseline="middle" transform="rotate(90 780 80)">tensorflow</text>
  <text x="815" y="80" fill="white" font-family="sans-serif" font-weight="bold" font-size="12" text-anchor="end" dominant-baseline="middle" transform="rotate(90 815 80)">tensorflow-js</text>
  <text x="850" y="80" fill="white" font-family="sans-serif" font-weight="bold" font-size="12" text-anchor="end" dominant-baseline="middle" transform="rotate(90 850 80)">zygote</text>
  <rect x="65" y="85" width="30" height="30" fill="hsl(240 100% 80.8870244101459%)" />
  <rect x="100" y="85" width="30" height="30" fill="hsl(240 100% 82.78242757296569%)" />
  <rect x="135" y="85" width="30" height="30" fill="hsl(240 100% 97.99626853952904%)" />
  <rect x="170" y="85" width="30" height="30" fill="hsl(240 100% 82.4005098585228%)" />
  <rect x="205" y="85" width="30" height="30" fill="hsl(240 100% 99.00295836233401%)" />
  <rect x="240" y="85" width="30" height="30" fill="hsl(240 100% 51.98104977325169%)" />
  <rect x="310" y="85" width="30" height="30" fill="hsl(240 100% 93.26533640447491%)" />
  <rect x="415" y="85" width="30" height="30" fill="hsl(240 100% 68.18863560131408%)" />
  <rect x="520" y="85" width="30" height="30" fill="hsl(240 100% 50%)" />
  <rect x="625" y="85" width="30" height="30" fill="rgb(255 255 255 / 50%)" />
  <rect x="730" y="85" width="30" height="30" fill="hsl(240 100% 74.99947728646887%)" />
  <rect x="765" y="85" width="30" height="30" fill="rgb(255 255 255 / 50%)" />
  <rect x="835" y="85" width="30" height="30" fill="hsl(240 100% 99.72553712032435%)" />
  <rect x="65" y="120" width="30" height="30" fill="hsl(240 100% 50%)" />
  <rect x="100" y="120" width="30" height="30" fill="hsl(240 100% 84.7197574897261%)" />
  <rect x="135" y="120" width="30" height="30" fill="hsl(240 100% 85.55802717666249%)" />
  <rect x="170" y="120" width="30" height="30" fill="hsl(240 100% 52.394677121351826%)" />
  <rect x="205" y="120" width="30" height="30" fill="hsl(240 100% 92.60751313720274%)" />
  <rect x="240" y="120" width="30" height="30" fill="hsl(240 100% 91.45583184256712%)" />
  <rect x="275" y="120" width="30" height="30" fill="hsl(240 100% 99.35372670387966%)" />
  <rect x="310" y="120" width="30" height="30" fill="hsl(240 100% 98.99028139385523%)" />
  <rect x="380" y="120" width="30" height="30" fill="hsl(240 100% 93.36986448273146%)" />
  <rect x="415" y="120" width="30" height="30" fill="hsl(240 100% 94.59495574512698%)" />
  <rect x="450" y="120" width="30" height="30" fill="hsl(240 100% 97.87535736957986%)" />
  <rect x="520" y="120" width="30" height="30" fill="hsl(240 100% 79.65749812828857%)" />
  <rect x="555" y="120" width="30" height="30" fill="hsl(240 100% 90.22534591859832%)" />
  <rect x="660" y="120" width="30" height="30" fill="rgb(255 255 255 / 50%)" />
  <rect x="835" y="120" width="30" height="30" fill="rgb(255 255 255 / 50%)" />
  <rect x="65" y="155" width="30" height="30" fill="hsl(240 100% 98.6052869757496%)" />
  <rect x="100" y="155" width="30" height="30" fill="hsl(240 100% 98.81361471718444%)" />
  <rect x="135" y="155" width="30" height="30" fill="hsl(240 100% 99.09740677803185%)" />
  <rect x="170" y="155" width="30" height="30" fill="hsl(240 100% 98.05756899464909%)" />
  <rect x="205" y="155" width="30" height="30" fill="hsl(240 100% 99.84792201258546%)" />
  <rect x="240" y="155" width="30" height="30" fill="hsl(240 100% 91.15447893929284%)" />
  <rect x="275" y="155" width="30" height="30" fill="hsl(240 100% 91.9319556244679%)" />
  <rect x="310" y="155" width="30" height="30" fill="rgb(255 255 255 / 50%)" />
  <rect x="415" y="155" width="30" height="30" fill="hsl(240 100% 92.92540890755504%)" />
  <rect x="485" y="155" width="30" height="30" fill="hsl(240 100% 50%)" />
  <rect x="520" y="155" width="30" height="30" fill="hsl(240 100% 83.38630898524312%)" />
  <rect x="590" y="155" width="30" height="30" fill="hsl(240 100% 99.57914851463943%)" />
  <rect x="625" y="155" width="30" height="30" fill="hsl(240 100% 65.68001954141027%)" />
  <rect x="695" y="155" width="30" height="30" fill="hsl(240 100% 95.40797995667181%)" />
  <rect x="730" y="155" width="30" height="30" fill="hsl(240 100% 83.55304568718732%)" />
  <rect x="765" y="155" width="30" height="30" fill="hsl(240 100% 99.57638346923959%)" />
  <rect x="835" y="155" width="30" height="30" fill="hsl(240 100% 96.12828455242774%)" />
  <rect x="65" y="190" width="30" height="30" fill="hsl(240 100% 50%)" />
  <rect x="100" y="190" width="30" height="30" fill="hsl(240 100% 50%)" />
  <rect x="135" y="190" width="30" height="30" fill="hsl(240 100% 50%)" />
  <rect x="170" y="190" width="30" height="30" fill="hsl(240 100% 50%)" />
  <rect x="205" y="190" width="30" height="30" fill="hsl(240 100% 50%)" />
  <rect x="240" y="190" width="30" height="30" fill="hsl(240 100% 50%)" />
  <rect x="275" y="190" width="30" height="30" fill="hsl(240 100% 50%)" />
  <rect x="310" y="190" width="30" height="30" fill="hsl(240 100% 50%)" />
  <rect x="345" y="190" width="30" height="30" fill="hsl(240 100% 50%)" />
  <rect x="380" y="190" width="30" height="30" fill="hsl(240 100% 50%)" />
  <rect x="415" y="190" width="30" height="30" fill="hsl(240 100% 50%)" />
  <rect x="450" y="190" width="30" height="30" fill="hsl(240 100% 50%)" />
  <rect x="485" y="190" width="30" height="30" fill="hsl(240 100% 50%)" />
  <rect x="520" y="190" width="30" height="30" fill="hsl(240 100% 50%)" />
  <rect x="555" y="190" width="30" height="30" fill="hsl(240 100% 50%)" />
  <rect x="590" y="190" width="30" height="30" fill="hsl(240 100% 50%)" />
  <rect x="625" y="190" width="30" height="30" fill="hsl(240 100% 50%)" />
  <rect x="660" y="190" width="30" height="30" fill="hsl(240 100% 50%)" />
  <rect x="695" y="190" width="30" height="30" fill="hsl(240 100% 50%)" />
  <rect x="730" y="190" width="30" height="30" fill="hsl(240 100% 50%)" />
  <rect x="765" y="190" width="30" height="30" fill="hsl(240 100% 50%)" />
  <rect x="800" y="190" width="30" height="30" fill="hsl(240 100% 50%)" />
  <rect x="835" y="190" width="30" height="30" fill="hsl(240 100% 50%)" />
  <rect x="100" y="225" width="30" height="30" fill="hsl(240 100% 96.69977433857748%)" />
  <rect x="135" y="225" width="30" height="30" fill="hsl(240 100% 89.30556246514169%)" />
  <rect x="170" y="225" width="30" height="30" fill="hsl(240 100% 89.3955562619749%)" />
  <rect x="240" y="225" width="30" height="30" fill="hsl(240 100% 91.39368055072357%)" />
  <rect x="310" y="225" width="30" height="30" fill="rgb(255 255 255 / 50%)" />
  <rect x="415" y="225" width="30" height="30" fill="hsl(240 100% 90.60498762545005%)" />
  <rect x="520" y="225" width="30" height="30" fill="hsl(240 100% 50%)" />
  <rect x="625" y="225" width="30" height="30" fill="rgb(255 255 255 / 50%)" />
  <rect x="730" y="225" width="30" height="30" fill="hsl(240 100% 93.2541902667021%)" />
  <rect x="765" y="225" width="30" height="30" fill="rgb(255 255 255 / 50%)" />
  <rect x="835" y="225" width="30" height="30" fill="hsl(240 100% 94.31848508150767%)" />
  <rect x="65" y="260" width="30" height="30" fill="hsl(240 100% 99.82248480058949%)" />
  <rect x="135" y="260" width="30" height="30" fill="hsl(240 100% 99.84813541457665%)" />
  <rect x="170" y="260" width="30" height="30" fill="hsl(240 100% 98.8793291140504%)" />
  <rect x="205" y="260" width="30" height="30" fill="rgb(255 255 255 / 50%)" />
  <rect x="240" y="260" width="30" height="30" fill="hsl(240 100% 86.69569049453263%)" />
  <rect x="310" y="260" width="30" height="30" fill="rgb(255 255 255 / 50%)" />
  <rect x="415" y="260" width="30" height="30" fill="hsl(240 100% 80.44175769323698%)" />
  <rect x="450" y="260" width="30" height="30" fill="rgb(255 255 255 / 50%)" />
  <rect x="485" y="260" width="30" height="30" fill="hsl(240 100% 50%)" />
  <rect x="520" y="260" width="30" height="30" fill="hsl(240 100% 70.38571796411324%)" />
  <rect x="625" y="260" width="30" height="30" fill="hsl(240 100% 97.00505184179507%)" />
  <rect x="695" y="260" width="30" height="30" fill="hsl(240 100% 93.96246647344891%)" />
  <rect x="65" y="295" width="30" height="30" fill="hsl(240 100% 85.85346155118336%)" />
  <rect x="100" y="295" width="30" height="30" fill="hsl(240 100% 97.507156369531%)" />
  <rect x="135" y="295" width="30" height="30" fill="hsl(240 100% 95.0752697599629%)" />
  <rect x="170" y="295" width="30" height="30" fill="hsl(240 100% 90.62563543449906%)" />
  <rect x="205" y="295" width="30" height="30" fill="hsl(240 100% 99.47251181009088%)" />
  <rect x="240" y="295" width="30" height="30" fill="hsl(240 100% 50.32322174503822%)" />
  <rect x="275" y="295" width="30" height="30" fill="hsl(240 100% 50%)" />
  <rect x="310" y="295" width="30" height="30" fill="hsl(240 100% 99.49662446597655%)" />
  <rect x="345" y="295" width="30" height="30" fill="hsl(240 100% 94.72987349992%)" />
  <rect x="415" y="295" width="30" height="30" fill="hsl(240 100% 54.98523664866604%)" />
  <rect x="450" y="295" width="30" height="30" fill="hsl(240 100% 99.334807502216%)" />
  <rect x="485" y="295" width="30" height="30" fill="hsl(240 100% 87.83188375599143%)" />
  <rect x="520" y="295" width="30" height="30" fill="hsl(240 100% 57.6084731305329%)" />
  <rect x="695" y="295" width="30" height="30" fill="hsl(240 100% 97.5942963840733%)" />
  <rect x="800" y="295" width="30" height="30" fill="hsl(240 100% 99.57185698469685%)" />
  <rect x="835" y="295" width="30" height="30" fill="hsl(240 100% 99.95471727917459%)" />
  <rect x="65" y="330" width="30" height="30" fill="hsl(240 100% 88.47762592867713%)" />
  <rect x="100" y="330" width="30" height="30" fill="hsl(240 100% 94.72187436430764%)" />
  <rect x="135" y="330" width="30" height="30" fill="hsl(240 100% 97.10767234068027%)" />
  <rect x="170" y="330" width="30" height="30" fill="hsl(240 100% 88.19882996382863%)" />
  <rect x="205" y="330" width="30" height="30" fill="hsl(240 100% 99.18246792412124%)" />
  <rect x="240" y="330" width="30" height="30" fill="hsl(240 100% 80.28964626207637%)" />
  <rect x="275" y="330" width="30" height="30" fill="hsl(240 100% 87.29165331514987%)" />
  <rect x="310" y="330" width="30" height="30" fill="rgb(255 255 255 / 50%)" />
  <rect x="345" y="330" width="30" height="30" fill="hsl(240 100% 97.17034151516718%)" />
  <rect x="415" y="330" width="30" height="30" fill="hsl(240 100% 85.46218196185444%)" />
  <rect x="450" y="330" width="30" height="30" fill="hsl(240 100% 99.81195550713375%)" />
  <rect x="485" y="330" width="30" height="30" fill="hsl(240 100% 71.26121193970707%)" />
  <rect x="520" y="330" width="30" height="30" fill="hsl(240 100% 76.21907194110399%)" />
  <rect x="590" y="330" width="30" height="30" fill="hsl(240 100% 93.65466625355056%)" />
  <rect x="625" y="330" width="30" height="30" fill="hsl(240 100% 50%)" />
  <rect x="765" y="330" width="30" height="30" fill="hsl(240 100% 94.56647397667108%)" />
  <rect x="800" y="330" width="30" height="30" fill="hsl(240 100% 99.19042186487074%)" />
  <rect x="835" y="330" width="30" height="30" fill="hsl(240 100% 80.16986692902023%)" />
  <rect x="65" y="365" width="30" height="30" fill="hsl(240 100% 56.8235574929417%)" />
  <rect x="100" y="365" width="30" height="30" fill="hsl(240 100% 71.64885366834761%)" />
  <rect x="135" y="365" width="30" height="30" fill="hsl(240 100% 81.74402891173989%)" />
  <rect x="170" y="365" width="30" height="30" fill="hsl(240 100% 50%)" />
  <rect x="205" y="365" width="30" height="30" fill="hsl(240 100% 96.11073501968994%)" />
  <rect x="240" y="365" width="30" height="30" fill="hsl(240 100% 59.218098781069166%)" />
  <rect x="275" y="365" width="30" height="30" fill="hsl(240 100% 92.6605962374722%)" />
  <rect x="310" y="365" width="30" height="30" fill="hsl(240 100% 99.86079141645574%)" />
  <rect x="415" y="365" width="30" height="30" fill="hsl(240 100% 66.65434467779261%)" />
  <rect x="520" y="365" width="30" height="30" fill="hsl(240 100% 85.97367659676749%)" />
  <rect x="625" y="365" width="30" height="30" fill="hsl(240 100% 99.64254866007654%)" />
  <rect x="730" y="365" width="30" height="30" fill="hsl(240 100% 63.49553153380127%)" />
  <rect x="765" y="365" width="30" height="30" fill="hsl(240 100% 98.11322131475428%)" />
  <rect x="835" y="365" width="30" height="30" fill="hsl(240 100% 98.73228824182102%)" />
  <rect x="65" y="400" width="30" height="30" fill="hsl(240 100% 98.26202112712423%)" />
  <rect x="100" y="400" width="30" height="30" fill="hsl(240 100% 99.32722021858262%)" />
  <rect x="135" y="400" width="30" height="30" fill="hsl(240 100% 99.62751364766811%)" />
  <rect x="170" y="400" width="30" height="30" fill="hsl(240 100% 94.75401752694036%)" />
  <rect x="205" y="400" width="30" height="30" fill="hsl(240 100% 99.18678861342067%)" />
  <rect x="240" y="400" width="30" height="30" fill="hsl(240 100% 84.63999547223227%)" />
  <rect x="275" y="400" width="30" height="30" fill="hsl(240 100% 94.70943719992933%)" />
  <rect x="310" y="400" width="30" height="30" fill="rgb(255 255 255 / 50%)" />
  <rect x="380" y="400" width="30" height="30" fill="rgb(255 255 255 / 50%)" />
  <rect x="415" y="400" width="30" height="30" fill="hsl(240 100% 93.10706157199883%)" />
  <rect x="450" y="400" width="30" height="30" fill="hsl(240 100% 99.96674083790236%)" />
  <rect x="485" y="400" width="30" height="30" fill="hsl(240 100% 76.05963418687911%)" />
  <rect x="520" y="400" width="30" height="30" fill="hsl(240 100% 50%)" />
  <rect x="555" y="400" width="30" height="30" fill="hsl(240 100% 98.97060616407113%)" />
  <rect x="660" y="400" width="30" height="30" fill="rgb(255 255 255 / 50%)" />
  <rect x="835" y="400" width="30" height="30" fill="hsl(240 100% 99.0375908204637%)" />
  <rect x="65" y="435" width="30" height="30" fill="hsl(240 100% 92.83081014178184%)" />
  <rect x="240" y="435" width="30" height="30" fill="hsl(240 100% 50%)" />
  <rect x="310" y="435" width="30" height="30" fill="hsl(240 100% 94.33916525503962%)" />
  <rect x="415" y="435" width="30" height="30" fill="hsl(240 100% 87.03072319426822%)" />
  <rect x="450" y="435" width="30" height="30" fill="hsl(240 100% 99.78093219672454%)" />
  <rect x="65" y="470" width="30" height="30" fill="hsl(240 100% 50%)" />
  <rect x="240" y="470" width="30" height="30" fill="hsl(240 100% 50.24434988564374%)" />
  <rect x="310" y="470" width="30" height="30" fill="hsl(240 100% 97.16162334230127%)" />
  <rect x="415" y="470" width="30" height="30" fill="hsl(240 100% 89.17576668765874%)" />
  <rect x="450" y="470" width="30" height="30" fill="hsl(240 100% 99.56549953040734%)" />
</svg>
