<svg xmlns="http://www.w3.org/2000/svg" viewBox="0 0 660 470">
  <rect x="0" y="0" width="660" height="470" rx="5" ry="5" fill="#222" />
  <text x="60" y="100" fill="white" font-family="sans-serif" font-weight="bold" font-size="12" text-anchor="end" dominant-baseline="middle">ba</text>
  <text x="60" y="135" fill="white" font-family="sans-serif" font-weight="bold" font-size="12" text-anchor="end" dominant-baseline="middle">det</text>
  <text x="60" y="170" fill="white" font-family="sans-serif" font-weight="bold" font-size="12" text-anchor="end" dominant-baseline="middle">gmm</text>
  <text x="60" y="205" fill="white" font-family="sans-serif" font-weight="bold" font-size="12" text-anchor="end" dominant-baseline="middle">hello</text>
  <text x="60" y="240" fill="white" font-family="sans-serif" font-weight="bold" font-size="12" text-anchor="end" dominant-baseline="middle">ht</text>
  <text x="60" y="275" fill="white" font-family="sans-serif" font-weight="bold" font-size="12" text-anchor="end" dominant-baseline="middle">kmeans</text>
  <text x="60" y="310" fill="white" font-family="sans-serif" font-weight="bold" font-size="12" text-anchor="end" dominant-baseline="middle">llsq</text>
  <text x="60" y="345" fill="white" font-family="sans-serif" font-weight="bold" font-size="12" text-anchor="end" dominant-baseline="middle">lstm</text>
  <text x="60" y="380" fill="white" font-family="sans-serif" font-weight="bold" font-size="12" text-anchor="end" dominant-baseline="middle">ode</text>
  <text x="60" y="415" fill="white" font-family="sans-serif" font-weight="bold" font-size="12" text-anchor="end" dominant-baseline="middle">particle</text>
  <text x="60" y="450" fill="white" font-family="sans-serif" font-weight="bold" font-size="12" text-anchor="end" dominant-baseline="middle">saddle</text>
  <text x="80" y="80" fill="white" font-family="sans-serif" font-weight="bold" font-size="12" text-anchor="end" dominant-baseline="middle" transform="rotate(90 80 80)">adept</text>
  <text x="115" y="80" fill="white" font-family="sans-serif" font-weight="bold" font-size="12" text-anchor="end" dominant-baseline="middle" transform="rotate(90 115 80)">adol-c</text>
  <text x="150" y="80" fill="white" font-family="sans-serif" font-weight="bold" font-size="12" text-anchor="end" dominant-baseline="middle" transform="rotate(90 150 80)">codipack</text>
  <text x="185" y="80" fill="white" font-family="sans-serif" font-weight="bold" font-size="12" text-anchor="end" dominant-baseline="middle" transform="rotate(90 185 80)">cppad</text>
  <text x="220" y="80" fill="white" font-family="sans-serif" font-weight="bold" font-size="12" text-anchor="end" dominant-baseline="middle" transform="rotate(90 220 80)">enzyme</text>
  <text x="255" y="80" fill="white" font-family="sans-serif" font-weight="bold" font-size="12" text-anchor="end" dominant-baseline="middle" transform="rotate(90 255 80)">finite</text>
  <text x="290" y="80" fill="white" font-family="sans-serif" font-weight="bold" font-size="12" text-anchor="end" dominant-baseline="middle" transform="rotate(90 290 80)">floretta</text>
  <text x="325" y="80" fill="white" font-family="sans-serif" font-weight="bold" font-size="12" text-anchor="end" dominant-baseline="middle" transform="rotate(90 325 80)">futhark</text>
  <text x="360" y="80" fill="white" font-family="sans-serif" font-weight="bold" font-size="12" text-anchor="end" dominant-baseline="middle" transform="rotate(90 360 80)">haskell</text>
  <text x="395" y="80" fill="white" font-family="sans-serif" font-weight="bold" font-size="12" text-anchor="end" dominant-baseline="middle" transform="rotate(90 395 80)">jax</text>
  <text x="430" y="80" fill="white" font-family="sans-serif" font-weight="bold" font-size="12" text-anchor="end" dominant-baseline="middle" transform="rotate(90 430 80)">manual</text>
  <text x="465" y="80" fill="white" font-family="sans-serif" font-weight="bold" font-size="12" text-anchor="end" dominant-baseline="middle" transform="rotate(90 465 80)">ocaml</text>
  <text x="500" y="80" fill="white" font-family="sans-serif" font-weight="bold" font-size="12" text-anchor="end" dominant-baseline="middle" transform="rotate(90 500 80)">pytorch</text>
  <text x="535" y="80" fill="white" font-family="sans-serif" font-weight="bold" font-size="12" text-anchor="end" dominant-baseline="middle" transform="rotate(90 535 80)">scilean</text>
  <text x="570" y="80" fill="white" font-family="sans-serif" font-weight="bold" font-size="12" text-anchor="end" dominant-baseline="middle" transform="rotate(90 570 80)">tapenade</text>
  <text x="605" y="80" fill="white" font-family="sans-serif" font-weight="bold" font-size="12" text-anchor="end" dominant-baseline="middle" transform="rotate(90 605 80)">tensorflow</text>
  <text x="640" y="80" fill="white" font-family="sans-serif" font-weight="bold" font-size="12" text-anchor="end" dominant-baseline="middle" transform="rotate(90 640 80)">zygote</text>
  <rect x="65" y="85" width="30" height="30" fill="hsl(240 100% 83.44290005572064%)" />
  <rect x="100" y="85" width="30" height="30" fill="hsl(240 100% 97.81148110810315%)" />
  <rect x="135" y="85" width="30" height="30" fill="hsl(240 100% 88.9606371633481%)" />
  <rect x="205" y="85" width="30" height="30" fill="hsl(240 100% 50.45834949119137%)" />
  <rect x="240" y="85" width="30" height="30" fill="hsl(240 100% 92.55362820499491%)" />
  <rect x="310" y="85" width="30" height="30" fill="hsl(240 100% 68.241194262252%)" />
  <rect x="415" y="85" width="30" height="30" fill="hsl(240 100% 50%)" />
  <rect x="485" y="85" width="30" height="30" fill="rgb(255 255 255 / 50%)" />
  <rect x="555" y="85" width="30" height="30" fill="hsl(240 100% 72.32459080661968%)" />
  <rect x="590" y="85" width="30" height="30" fill="rgb(255 255 255 / 50%)" />
  <rect x="65" y="120" width="30" height="30" fill="hsl(240 100% 83.88746741753202%)" />
  <rect x="100" y="120" width="30" height="30" fill="hsl(240 100% 85.42290020017565%)" />
  <rect x="135" y="120" width="30" height="30" fill="hsl(240 100% 50%)" />
  <rect x="170" y="120" width="30" height="30" fill="hsl(240 100% 92.6922276516637%)" />
  <rect x="205" y="120" width="30" height="30" fill="hsl(240 100% 91.67681919859562%)" />
  <rect x="240" y="120" width="30" height="30" fill="hsl(240 100% 98.98087409899681%)" />
  <rect x="310" y="120" width="30" height="30" fill="hsl(240 100% 94.71191941020514%)" />
  <rect x="345" y="120" width="30" height="30" fill="hsl(240 100% 97.93389505932902%)" />
  <rect x="415" y="120" width="30" height="30" fill="hsl(240 100% 79.59699392775767%)" />
  <rect x="65" y="155" width="30" height="30" fill="hsl(240 100% 98.27438042503184%)" />
  <rect x="100" y="155" width="30" height="30" fill="hsl(240 100% 98.80209154413102%)" />
  <rect x="135" y="155" width="30" height="30" fill="hsl(240 100% 97.28939746821204%)" />
  <rect x="170" y="155" width="30" height="30" fill="hsl(240 100% 99.76623806255704%)" />
  <rect x="205" y="155" width="30" height="30" fill="hsl(240 100% 86.93398969823839%)" />
  <rect x="240" y="155" width="30" height="30" fill="rgb(255 255 255 / 50%)" />
  <rect x="310" y="155" width="30" height="30" fill="hsl(240 100% 89.91534323804704%)" />
  <rect x="380" y="155" width="30" height="30" fill="hsl(240 100% 71.00448073484324%)" />
  <rect x="415" y="155" width="30" height="30" fill="hsl(240 100% 75.69557452820598%)" />
  <rect x="450" y="155" width="30" height="30" fill="hsl(240 100% 99.35754964622943%)" />
  <rect x="485" y="155" width="30" height="30" fill="hsl(240 100% 50%)" />
  <rect x="520" y="155" width="30" height="30" fill="hsl(240 100% 92.68328122261647%)" />
  <rect x="555" y="155" width="30" height="30" fill="hsl(240 100% 76.57647233673157%)" />
  <rect x="590" y="155" width="30" height="30" fill="hsl(240 100% 88.71217940405148%)" />
  <rect x="65" y="190" width="30" height="30" fill="hsl(240 100% 50%)" />
  <rect x="100" y="190" width="30" height="30" fill="hsl(240 100% 50%)" />
  <rect x="135" y="190" width="30" height="30" fill="hsl(240 100% 50%)" />
  <rect x="170" y="190" width="30" height="30" fill="hsl(240 100% 50%)" />
  <rect x="205" y="190" width="30" height="30" fill="hsl(240 100% 50%)" />
  <rect x="240" y="190" width="30" height="30" fill="hsl(240 100% 50%)" />
  <rect x="275" y="190" width="30" height="30" fill="hsl(240 100% 50%)" />
  <rect x="310" y="190" width="30" height="30" fill="hsl(240 100% 50%)" />
  <rect x="345" y="190" width="30" height="30" fill="hsl(240 100% 50%)" />
  <rect x="380" y="190" width="30" height="30" fill="hsl(240 100% 50%)" />
  <rect x="415" y="190" width="30" height="30" fill="hsl(240 100% 50%)" />
  <rect x="450" y="190" width="30" height="30" fill="hsl(240 100% 50%)" />
  <rect x="485" y="190" width="30" height="30" fill="hsl(240 100% 50%)" />
  <rect x="520" y="190" width="30" height="30" fill="hsl(240 100% 50%)" />
  <rect x="555" y="190" width="30" height="30" fill="hsl(240 100% 50%)" />
  <rect x="590" y="190" width="30" height="30" fill="hsl(240 100% 50%)" />
  <rect x="625" y="190" width="30" height="30" fill="hsl(240 100% 50%)" />
  <rect x="65" y="225" width="30" height="30" fill="hsl(240 100% 96.05822702137758%)" />
  <rect x="100" y="225" width="30" height="30" fill="hsl(240 100% 90.14933589819168%)" />
  <rect x="135" y="225" width="30" height="30" fill="hsl(240 100% 88.38630878786705%)" />
  <rect x="205" y="225" width="30" height="30" fill="hsl(240 100% 90.27050582853829%)" />
  <rect x="240" y="225" width="30" height="30" fill="rgb(255 255 255 / 50%)" />
  <rect x="310" y="225" width="30" height="30" fill="hsl(240 100% 89.69679492807482%)" />
  <rect x="415" y="225" width="30" height="30" fill="hsl(240 100% 50%)" />
  <rect x="485" y="225" width="30" height="30" fill="rgb(255 255 255 / 50%)" />
  <rect x="555" y="225" width="30" height="30" fill="rgb(255 255 255 / 50%)" />
  <rect x="590" y="225" width="30" height="30" fill="rgb(255 255 255 / 50%)" />
  <rect x="100" y="260" width="30" height="30" fill="hsl(240 100% 99.87331925295227%)" />
  <rect x="135" y="260" width="30" height="30" fill="hsl(240 100% 99.41134470380317%)" />
  <rect x="170" y="260" width="30" height="30" fill="rgb(255 255 255 / 50%)" />
  <rect x="205" y="260" width="30" height="30" fill="hsl(240 100% 87.52206923935543%)" />
  <rect x="240" y="260" width="30" height="30" fill="rgb(255 255 255 / 50%)" />
  <rect x="310" y="260" width="30" height="30" fill="hsl(240 100% 83.10797111943826%)" />
  <rect x="345" y="260" width="30" height="30" fill="rgb(255 255 255 / 50%)" />
  <rect x="380" y="260" width="30" height="30" fill="hsl(240 100% 50%)" />
  <rect x="415" y="260" width="30" height="30" fill="hsl(240 100% 76.55085693878937%)" />
  <rect x="485" y="260" width="30" height="30" fill="hsl(240 100% 96.98990436534483%)" />
  <rect x="520" y="260" width="30" height="30" fill="hsl(240 100% 94.11834016284169%)" />
  <rect x="65" y="295" width="30" height="30" fill="hsl(240 100% 66.59939750795607%)" />
  <rect x="100" y="295" width="30" height="30" fill="hsl(240 100% 59.44881095929086%)" />
  <rect x="135" y="295" width="30" height="30" fill="hsl(240 100% 59.93370461048683%)" />
  <rect x="170" y="295" width="30" height="30" fill="hsl(240 100% 91.68782454219358%)" />
  <rect x="205" y="295" width="30" height="30" fill="hsl(240 100% 50%)" />
  <rect x="240" y="295" width="30" height="30" fill="hsl(240 100% 99.42762401768987%)" />
  <rect x="310" y="295" width="30" height="30" fill="hsl(240 100% 50.57068115748411%)" />
  <rect x="345" y="295" width="30" height="30" fill="hsl(240 100% 89.66038811141881%)" />
  <rect x="415" y="295" width="30" height="30" fill="hsl(240 100% 53.48793128641432%)" />
  <rect x="520" y="295" width="30" height="30" fill="hsl(240 100% 55.34026296773939%)" />
  <rect x="65" y="330" width="30" height="30" fill="hsl(240 100% 69.64530777515972%)" />
  <rect x="100" y="330" width="30" height="30" fill="hsl(240 100% 80.50663968252339%)" />
  <rect x="135" y="330" width="30" height="30" fill="hsl(240 100% 50%)" />
  <rect x="170" y="330" width="30" height="30" fill="hsl(240 100% 95.82231114189531%)" />
  <rect x="205" y="330" width="30" height="30" fill="hsl(240 100% 50.80422376845852%)" />
  <rect x="240" y="330" width="30" height="30" fill="hsl(240 100% 99.85178766415372%)" />
  <rect x="310" y="330" width="30" height="30" fill="hsl(240 100% 63.32782736002673%)" />
  <rect x="415" y="330" width="30" height="30" fill="hsl(240 100% 84.54077458539442%)" />
  <rect x="485" y="330" width="30" height="30" fill="hsl(240 100% 99.61743317745791%)" />
  <rect x="555" y="330" width="30" height="30" fill="hsl(240 100% 60.20642017405473%)" />
  <rect x="590" y="330" width="30" height="30" fill="hsl(240 100% 98.0158345803676%)" />
  <rect x="65" y="365" width="30" height="30" fill="hsl(240 100% 99.3085189894747%)" />
  <rect x="100" y="365" width="30" height="30" fill="hsl(240 100% 99.6258174967433%)" />
  <rect x="135" y="365" width="30" height="30" fill="hsl(240 100% 94.54462863629756%)" />
  <rect x="170" y="365" width="30" height="30" fill="hsl(240 100% 99.1197022807776%)" />
  <rect x="205" y="365" width="30" height="30" fill="hsl(240 100% 87.8125962882944%)" />
  <rect x="240" y="365" width="30" height="30" fill="rgb(255 255 255 / 50%)" />
  <rect x="310" y="365" width="30" height="30" fill="hsl(240 100% 96.05859593495178%)" />
  <rect x="345" y="365" width="30" height="30" fill="hsl(240 100% 99.97017519610087%)" />
  <rect x="415" y="365" width="30" height="30" fill="hsl(240 100% 50%)" />
  <rect x="205" y="400" width="30" height="30" fill="hsl(240 100% 50%)" />
  <rect x="240" y="400" width="30" height="30" fill="hsl(240 100% 95.22068093705326%)" />
  <rect x="310" y="400" width="30" height="30" fill="hsl(240 100% 87.92958294703577%)" />
  <rect x="345" y="400" width="30" height="30" fill="hsl(240 100% 99.76807823038256%)" />
  <rect x="205" y="435" width="30" height="30" fill="hsl(240 100% 50%)" />
  <rect x="240" y="435" width="30" height="30" fill="hsl(240 100% 95.81902075446874%)" />
  <rect x="310" y="435" width="30" height="30" fill="hsl(240 100% 89.12664698557936%)" />
  <rect x="345" y="435" width="30" height="30" fill="hsl(240 100% 99.56099721233086%)" />
</svg>
