<svg xmlns="http://www.w3.org/2000/svg" viewBox="0 0 765 505">
  <rect x="0" y="0" width="765" height="505" rx="5" ry="5" fill="#222" />
  <text x="60" y="100" fill="white" font-family="sans-serif" font-weight="bold" font-size="12" text-anchor="end" dominant-baseline="middle">ba</text>
  <text x="60" y="135" fill="white" font-family="sans-serif" font-weight="bold" font-size="12" text-anchor="end" dominant-baseline="middle">det</text>
  <text x="60" y="170" fill="white" font-family="sans-serif" font-weight="bold" font-size="12" text-anchor="end" dominant-baseline="middle">gmm</text>
  <text x="60" y="205" fill="white" font-family="sans-serif" font-weight="bold" font-size="12" text-anchor="end" dominant-baseline="middle">hello</text>
  <text x="60" y="240" fill="white" font-family="sans-serif" font-weight="bold" font-size="12" text-anchor="end" dominant-baseline="middle">ht</text>
  <text x="60" y="275" fill="white" font-family="sans-serif" font-weight="bold" font-size="12" text-anchor="end" dominant-baseline="middle">kmeans</text>
  <text x="60" y="310" fill="white" font-family="sans-serif" font-weight="bold" font-size="12" text-anchor="end" dominant-baseline="middle">llsq</text>
  <text x="60" y="345" fill="white" font-family="sans-serif" font-weight="bold" font-size="12" text-anchor="end" dominant-baseline="middle">lse</text>
  <text x="60" y="380" fill="white" font-family="sans-serif" font-weight="bold" font-size="12" text-anchor="end" dominant-baseline="middle">lstm</text>
  <text x="60" y="415" fill="white" font-family="sans-serif" font-weight="bold" font-size="12" text-anchor="end" dominant-baseline="middle">ode</text>
  <text x="60" y="450" fill="white" font-family="sans-serif" font-weight="bold" font-size="12" text-anchor="end" dominant-baseline="middle">particle</text>
  <text x="60" y="485" fill="white" font-family="sans-serif" font-weight="bold" font-size="12" text-anchor="end" dominant-baseline="middle">saddle</text>
  <text x="80" y="80" fill="white" font-family="sans-serif" font-weight="bold" font-size="12" text-anchor="end" dominant-baseline="middle" transform="rotate(90 80 80)">ad-hpp</text>
  <text x="115" y="80" fill="white" font-family="sans-serif" font-weight="bold" font-size="12" text-anchor="end" dominant-baseline="middle" transform="rotate(90 115 80)">adept</text>
  <text x="150" y="80" fill="white" font-family="sans-serif" font-weight="bold" font-size="12" text-anchor="end" dominant-baseline="middle" transform="rotate(90 150 80)">adol-c</text>
  <text x="185" y="80" fill="white" font-family="sans-serif" font-weight="bold" font-size="12" text-anchor="end" dominant-baseline="middle" transform="rotate(90 185 80)">codipack</text>
  <text x="220" y="80" fill="white" font-family="sans-serif" font-weight="bold" font-size="12" text-anchor="end" dominant-baseline="middle" transform="rotate(90 220 80)">cppad</text>
  <text x="255" y="80" fill="white" font-family="sans-serif" font-weight="bold" font-size="12" text-anchor="end" dominant-baseline="middle" transform="rotate(90 255 80)">enzyme</text>
  <text x="290" y="80" fill="white" font-family="sans-serif" font-weight="bold" font-size="12" text-anchor="end" dominant-baseline="middle" transform="rotate(90 290 80)">enzyme-jl</text>
  <text x="325" y="80" fill="white" font-family="sans-serif" font-weight="bold" font-size="12" text-anchor="end" dominant-baseline="middle" transform="rotate(90 325 80)">finite</text>
  <text x="360" y="80" fill="white" font-family="sans-serif" font-weight="bold" font-size="12" text-anchor="end" dominant-baseline="middle" transform="rotate(90 360 80)">floretta</text>
  <text x="395" y="80" fill="white" font-family="sans-serif" font-weight="bold" font-size="12" text-anchor="end" dominant-baseline="middle" transform="rotate(90 395 80)">futhark</text>
  <text x="430" y="80" fill="white" font-family="sans-serif" font-weight="bold" font-size="12" text-anchor="end" dominant-baseline="middle" transform="rotate(90 430 80)">haskell</text>
  <text x="465" y="80" fill="white" font-family="sans-serif" font-weight="bold" font-size="12" text-anchor="end" dominant-baseline="middle" transform="rotate(90 465 80)">jax</text>
  <text x="500" y="80" fill="white" font-family="sans-serif" font-weight="bold" font-size="12" text-anchor="end" dominant-baseline="middle" transform="rotate(90 500 80)">manual</text>
  <text x="535" y="80" fill="white" font-family="sans-serif" font-weight="bold" font-size="12" text-anchor="end" dominant-baseline="middle" transform="rotate(90 535 80)">ocaml</text>
  <text x="570" y="80" fill="white" font-family="sans-serif" font-weight="bold" font-size="12" text-anchor="end" dominant-baseline="middle" transform="rotate(90 570 80)">pytorch</text>
  <text x="605" y="80" fill="white" font-family="sans-serif" font-weight="bold" font-size="12" text-anchor="end" dominant-baseline="middle" transform="rotate(90 605 80)">scilean</text>
  <text x="640" y="80" fill="white" font-family="sans-serif" font-weight="bold" font-size="12" text-anchor="end" dominant-baseline="middle" transform="rotate(90 640 80)">tapenade</text>
  <text x="675" y="80" fill="white" font-family="sans-serif" font-weight="bold" font-size="12" text-anchor="end" dominant-baseline="middle" transform="rotate(90 675 80)">tensorflow</text>
  <text x="710" y="80" fill="white" font-family="sans-serif" font-weight="bold" font-size="12" text-anchor="end" dominant-baseline="middle" transform="rotate(90 710 80)">tensorflow-js</text>
  <text x="745" y="80" fill="white" font-family="sans-serif" font-weight="bold" font-size="12" text-anchor="end" dominant-baseline="middle" transform="rotate(90 745 80)">zygote</text>
  <rect x="65" y="85" width="30" height="30" fill="hsl(240 100% 80.84487216993423%)" />
  <rect x="100" y="85" width="30" height="30" fill="hsl(240 100% 82.72356934580924%)" />
  <rect x="135" y="85" width="30" height="30" fill="hsl(240 100% 97.98613644511254%)" />
  <rect x="170" y="85" width="30" height="30" fill="hsl(240 100% 82.33073703844366%)" />
  <rect x="205" y="85" width="30" height="30" fill="hsl(240 100% 99.00208749925632%)" />
  <rect x="240" y="85" width="30" height="30" fill="hsl(240 100% 51.54563252323337%)" />
  <rect x="310" y="85" width="30" height="30" fill="hsl(240 100% 93.24747981716821%)" />
  <rect x="380" y="85" width="30" height="30" fill="hsl(240 100% 68.18359043014335%)" />
  <rect x="485" y="85" width="30" height="30" fill="hsl(240 100% 50%)" />
  <rect x="555" y="85" width="30" height="30" fill="rgb(255 255 255 / 50%)" />
  <rect x="625" y="85" width="30" height="30" fill="hsl(240 100% 74.833715510808%)" />
  <rect x="660" y="85" width="30" height="30" fill="rgb(255 255 255 / 50%)" />
  <rect x="730" y="85" width="30" height="30" fill="hsl(240 100% 99.71956978586391%)" />
  <rect x="65" y="120" width="30" height="30" fill="hsl(240 100% 50%)" />
  <rect x="100" y="120" width="30" height="30" fill="hsl(240 100% 82.37949755551355%)" />
  <rect x="135" y="120" width="30" height="30" fill="hsl(240 100% 85.62386425512784%)" />
  <rect x="170" y="120" width="30" height="30" fill="hsl(240 100% 52.56954738557989%)" />
  <rect x="205" y="120" width="30" height="30" fill="hsl(240 100% 92.54390804314009%)" />
  <rect x="240" y="120" width="30" height="30" fill="hsl(240 100% 91.49884120497751%)" />
  <rect x="275" y="120" width="30" height="30" fill="hsl(240 100% 99.35621616165422%)" />
  <rect x="310" y="120" width="30" height="30" fill="hsl(240 100% 98.9954065429195%)" />
  <rect x="380" y="120" width="30" height="30" fill="hsl(240 100% 94.58262537306705%)" />
  <rect x="415" y="120" width="30" height="30" fill="hsl(240 100% 97.92847136852919%)" />
  <rect x="485" y="120" width="30" height="30" fill="hsl(240 100% 79.67654655270235%)" />
  <rect x="730" y="120" width="30" height="30" fill="rgb(255 255 255 / 50%)" />
  <rect x="65" y="155" width="30" height="30" fill="hsl(240 100% 97.76889916627418%)" />
  <rect x="100" y="155" width="30" height="30" fill="hsl(240 100% 98.2604997517981%)" />
  <rect x="135" y="155" width="30" height="30" fill="hsl(240 100% 98.65375736484933%)" />
  <rect x="170" y="155" width="30" height="30" fill="hsl(240 100% 97.09371706857537%)" />
  <rect x="205" y="155" width="30" height="30" fill="hsl(240 100% 99.76634160970386%)" />
  <rect x="240" y="155" width="30" height="30" fill="hsl(240 100% 86.52610593224436%)" />
  <rect x="275" y="155" width="30" height="30" fill="hsl(240 100% 88.35140469875881%)" />
  <rect x="310" y="155" width="30" height="30" fill="rgb(255 255 255 / 50%)" />
  <rect x="380" y="155" width="30" height="30" fill="hsl(240 100% 89.26413738567186%)" />
  <rect x="450" y="155" width="30" height="30" fill="hsl(240 100% 70.33734803180866%)" />
  <rect x="485" y="155" width="30" height="30" fill="hsl(240 100% 72.48962731801448%)" />
  <rect x="520" y="155" width="30" height="30" fill="hsl(240 100% 99.37461906860851%)" />
  <rect x="555" y="155" width="30" height="30" fill="hsl(240 100% 50%)" />
  <rect x="590" y="155" width="30" height="30" fill="hsl(240 100% 92.65770036975773%)" />
  <rect x="625" y="155" width="30" height="30" fill="hsl(240 100% 75.31345763856551%)" />
  <rect x="660" y="155" width="30" height="30" fill="hsl(240 100% 88.39215292759948%)" />
  <rect x="730" y="155" width="30" height="30" fill="hsl(240 100% 96.25521885913201%)" />
  <rect x="65" y="190" width="30" height="30" fill="hsl(240 100% 50%)" />
  <rect x="100" y="190" width="30" height="30" fill="hsl(240 100% 50%)" />
  <rect x="135" y="190" width="30" height="30" fill="hsl(240 100% 50%)" />
  <rect x="170" y="190" width="30" height="30" fill="hsl(240 100% 50%)" />
  <rect x="205" y="190" width="30" height="30" fill="hsl(240 100% 50%)" />
  <rect x="240" y="190" width="30" height="30" fill="hsl(240 100% 50%)" />
  <rect x="275" y="190" width="30" height="30" fill="hsl(240 100% 50%)" />
  <rect x="310" y="190" width="30" height="30" fill="hsl(240 100% 50%)" />
  <rect x="345" y="190" width="30" height="30" fill="hsl(240 100% 50%)" />
  <rect x="380" y="190" width="30" height="30" fill="hsl(240 100% 50%)" />
  <rect x="415" y="190" width="30" height="30" fill="hsl(240 100% 50%)" />
  <rect x="450" y="190" width="30" height="30" fill="hsl(240 100% 50%)" />
  <rect x="485" y="190" width="30" height="30" fill="hsl(240 100% 50%)" />
  <rect x="520" y="190" width="30" height="30" fill="hsl(240 100% 50%)" />
  <rect x="555" y="190" width="30" height="30" fill="hsl(240 100% 50%)" />
  <rect x="590" y="190" width="30" height="30" fill="hsl(240 100% 50%)" />
  <rect x="625" y="190" width="30" height="30" fill="hsl(240 100% 50%)" />
  <rect x="660" y="190" width="30" height="30" fill="hsl(240 100% 50%)" />
  <rect x="695" y="190" width="30" height="30" fill="hsl(240 100% 50%)" />
  <rect x="730" y="190" width="30" height="30" fill="hsl(240 100% 50%)" />
  <rect x="100" y="225" width="30" height="30" fill="hsl(240 100% 96.7700167847649%)" />
  <rect x="135" y="225" width="30" height="30" fill="hsl(240 100% 89.4153631040737%)" />
  <rect x="170" y="225" width="30" height="30" fill="hsl(240 100% 89.43932905726923%)" />
  <rect x="240" y="225" width="30" height="30" fill="hsl(240 100% 91.56211402342137%)" />
  <rect x="310" y="225" width="30" height="30" fill="rgb(255 255 255 / 50%)" />
  <rect x="380" y="225" width="30" height="30" fill="hsl(240 100% 90.79202653527717%)" />
  <rect x="485" y="225" width="30" height="30" fill="hsl(240 100% 50%)" />
  <rect x="555" y="225" width="30" height="30" fill="rgb(255 255 255 / 50%)" />
  <rect x="625" y="225" width="30" height="30" fill="hsl(240 100% 93.4048269756866%)" />
  <rect x="660" y="225" width="30" height="30" fill="rgb(255 255 255 / 50%)" />
  <rect x="730" y="225" width="30" height="30" fill="hsl(240 100% 94.43958621806124%)" />
  <rect x="65" y="260" width="30" height="30" fill="hsl(240 100% 99.87690145650791%)" />
  <rect x="135" y="260" width="30" height="30" fill="hsl(240 100% 99.85166775670788%)" />
  <rect x="170" y="260" width="30" height="30" fill="hsl(240 100% 98.83308203539906%)" />
  <rect x="205" y="260" width="30" height="30" fill="rgb(255 255 255 / 50%)" />
  <rect x="240" y="260" width="30" height="30" fill="hsl(240 100% 86.80523952095449%)" />
  <rect x="310" y="260" width="30" height="30" fill="rgb(255 255 255 / 50%)" />
  <rect x="380" y="260" width="30" height="30" fill="hsl(240 100% 80.68073917842301%)" />
  <rect x="415" y="260" width="30" height="30" fill="rgb(255 255 255 / 50%)" />
  <rect x="450" y="260" width="30" height="30" fill="hsl(240 100% 50%)" />
  <rect x="485" y="260" width="30" height="30" fill="hsl(240 100% 70.76783775302468%)" />
  <rect x="555" y="260" width="30" height="30" fill="hsl(240 100% 97.04665970603624%)" />
  <rect x="590" y="260" width="30" height="30" fill="hsl(240 100% 93.96740309709844%)" />
  <rect x="65" y="295" width="30" height="30" fill="hsl(240 100% 86.051520900941%)" />
  <rect x="100" y="295" width="30" height="30" fill="hsl(240 100% 97.45904430304903%)" />
  <rect x="135" y="295" width="30" height="30" fill="hsl(240 100% 95.19041815064759%)" />
  <rect x="170" y="295" width="30" height="30" fill="hsl(240 100% 90.68285237652256%)" />
  <rect x="205" y="295" width="30" height="30" fill="hsl(240 100% 99.47719939072964%)" />
  <rect x="240" y="295" width="30" height="30" fill="hsl(240 100% 50.74071771706434%)" />
  <rect x="275" y="295" width="30" height="30" fill="hsl(240 100% 50%)" />
  <rect x="310" y="295" width="30" height="30" fill="hsl(240 100% 99.50095831002777%)" />
  <rect x="345" y="295" width="30" height="30" fill="hsl(240 100% 94.76143265719628%)" />
  <rect x="380" y="295" width="30" height="30" fill="hsl(240 100% 55.369846137891656%)" />
  <rect x="415" y="295" width="30" height="30" fill="hsl(240 100% 99.33807091071445%)" />
  <rect x="450" y="295" width="30" height="30" fill="hsl(240 100% 88.01734719462628%)" />
  <rect x="485" y="295" width="30" height="30" fill="hsl(240 100% 57.961910582674804%)" />
  <rect x="590" y="295" width="30" height="30" fill="hsl(240 100% 97.61965180095714%)" />
  <rect x="695" y="295" width="30" height="30" fill="hsl(240 100% 99.57460163828125%)" />
  <rect x="730" y="295" width="30" height="30" fill="hsl(240 100% 99.9549625111738%)" />
  <rect x="65" y="330" width="30" height="30" fill="hsl(240 100% 87.10265927975385%)" />
  <rect x="100" y="330" width="30" height="30" fill="hsl(240 100% 93.86045668522087%)" />
  <rect x="135" y="330" width="30" height="30" fill="hsl(240 100% 96.81115073648502%)" />
  <rect x="170" y="330" width="30" height="30" fill="hsl(240 100% 86.71614716019381%)" />
  <rect x="205" y="330" width="30" height="30" fill="hsl(240 100% 99.0844859838628%)" />
  <rect x="240" y="330" width="30" height="30" fill="hsl(240 100% 76.65497991896397%)" />
  <rect x="275" y="330" width="30" height="30" fill="hsl(240 100% 85.82655197914436%)" />
  <rect x="310" y="330" width="30" height="30" fill="rgb(255 255 255 / 50%)" />
  <rect x="345" y="330" width="30" height="30" fill="hsl(240 100% 96.81318594869796%)" />
  <rect x="380" y="330" width="30" height="30" fill="hsl(240 100% 83.63421269889977%)" />
  <rect x="415" y="330" width="30" height="30" fill="hsl(240 100% 99.77813746054103%)" />
  <rect x="450" y="330" width="30" height="30" fill="hsl(240 100% 68.50952722493733%)" />
  <rect x="485" y="330" width="30" height="30" fill="hsl(240 100% 73.38039674046868%)" />
  <rect x="520" y="330" width="30" height="30" fill="hsl(240 100% 92.77774742179506%)" />
  <rect x="555" y="330" width="30" height="30" fill="hsl(240 100% 50%)" />
  <rect x="660" y="330" width="30" height="30" fill="hsl(240 100% 93.7815728918972%)" />
  <rect x="695" y="330" width="30" height="30" fill="hsl(240 100% 99.08579687714115%)" />
  <rect x="730" y="330" width="30" height="30" fill="hsl(240 100% 75.53792575446028%)" />
  <rect x="65" y="365" width="30" height="30" fill="hsl(240 100% 57.40453084001659%)" />
  <rect x="100" y="365" width="30" height="30" fill="hsl(240 100% 71.67711521636636%)" />
  <rect x="135" y="365" width="30" height="30" fill="hsl(240 100% 82.36123896080551%)" />
  <rect x="170" y="365" width="30" height="30" fill="hsl(240 100% 50%)" />
  <rect x="205" y="365" width="30" height="30" fill="hsl(240 100% 96.2038169479157%)" />
  <rect x="240" y="365" width="30" height="30" fill="hsl(240 100% 59.31210578844736%)" />
  <rect x="275" y="365" width="30" height="30" fill="hsl(240 100% 92.42563607958566%)" />
  <rect x="310" y="365" width="30" height="30" fill="hsl(240 100% 99.86351201240925%)" />
  <rect x="380" y="365" width="30" height="30" fill="hsl(240 100% 66.73723879407633%)" />
  <rect x="485" y="365" width="30" height="30" fill="hsl(240 100% 85.95457918333233%)" />
  <rect x="555" y="365" width="30" height="30" fill="hsl(240 100% 99.6378494624388%)" />
  <rect x="625" y="365" width="30" height="30" fill="hsl(240 100% 63.77351404387851%)" />
  <rect x="660" y="365" width="30" height="30" fill="hsl(240 100% 98.24049012270943%)" />
  <rect x="730" y="365" width="30" height="30" fill="hsl(240 100% 98.7666987533876%)" />
  <rect x="65" y="400" width="30" height="30" fill="hsl(240 100% 98.18213388094064%)" />
  <rect x="100" y="400" width="30" height="30" fill="hsl(240 100% 99.24825344188342%)" />
  <rect x="135" y="400" width="30" height="30" fill="hsl(240 100% 99.58540605677285%)" />
  <rect x="170" y="400" width="30" height="30" fill="hsl(240 100% 94.2555280354867%)" />
  <rect x="205" y="400" width="30" height="30" fill="hsl(240 100% 99.03455975071641%)" />
  <rect x="240" y="400" width="30" height="30" fill="hsl(240 100% 85.37184559876596%)" />
  <rect x="275" y="400" width="30" height="30" fill="hsl(240 100% 94.14398726208793%)" />
  <rect x="310" y="400" width="30" height="30" fill="rgb(255 255 255 / 50%)" />
  <rect x="380" y="400" width="30" height="30" fill="hsl(240 100% 92.41133465320384%)" />
  <rect x="415" y="400" width="30" height="30" fill="hsl(240 100% 99.96816001476911%)" />
  <rect x="450" y="400" width="30" height="30" fill="hsl(240 100% 73.09089451433725%)" />
  <rect x="485" y="400" width="30" height="30" fill="hsl(240 100% 50%)" />
  <rect x="730" y="400" width="30" height="30" fill="hsl(240 100% 98.80230786619498%)" />
  <rect x="65" y="435" width="30" height="30" fill="hsl(240 100% 92.87204465833429%)" />
  <rect x="240" y="435" width="30" height="30" fill="hsl(240 100% 50%)" />
  <rect x="310" y="435" width="30" height="30" fill="hsl(240 100% 94.33565539949606%)" />
  <rect x="380" y="435" width="30" height="30" fill="hsl(240 100% 87.01413910902949%)" />
  <rect x="415" y="435" width="30" height="30" fill="hsl(240 100% 99.78760496513144%)" />
  <rect x="65" y="470" width="30" height="30" fill="hsl(240 100% 50%)" />
  <rect x="240" y="470" width="30" height="30" fill="hsl(240 100% 50.47587238530875%)" />
  <rect x="310" y="470" width="30" height="30" fill="hsl(240 100% 97.15902353169743%)" />
  <rect x="380" y="470" width="30" height="30" fill="hsl(240 100% 89.33238416123166%)" />
  <rect x="415" y="470" width="30" height="30" fill="hsl(240 100% 99.58204541758711%)" />
</svg>
