<svg xmlns="http://www.w3.org/2000/svg" viewBox="0 0 905 505">
  <rect x="0" y="0" width="905" height="505" rx="5" ry="5" fill="#222" />
  <text x="60" y="100" fill="white" font-family="sans-serif" font-weight="bold" font-size="12" text-anchor="end" dominant-baseline="middle">ba</text>
  <text x="60" y="135" fill="white" font-family="sans-serif" font-weight="bold" font-size="12" text-anchor="end" dominant-baseline="middle">det</text>
  <text x="60" y="170" fill="white" font-family="sans-serif" font-weight="bold" font-size="12" text-anchor="end" dominant-baseline="middle">gmm</text>
  <text x="60" y="205" fill="white" font-family="sans-serif" font-weight="bold" font-size="12" text-anchor="end" dominant-baseline="middle">hello</text>
  <text x="60" y="240" fill="white" font-family="sans-serif" font-weight="bold" font-size="12" text-anchor="end" dominant-baseline="middle">ht</text>
  <text x="60" y="275" fill="white" font-family="sans-serif" font-weight="bold" font-size="12" text-anchor="end" dominant-baseline="middle">kmeans</text>
  <text x="60" y="310" fill="white" font-family="sans-serif" font-weight="bold" font-size="12" text-anchor="end" dominant-baseline="middle">llsq</text>
  <text x="60" y="345" fill="white" font-family="sans-serif" font-weight="bold" font-size="12" text-anchor="end" dominant-baseline="middle">lse</text>
  <text x="60" y="380" fill="white" font-family="sans-serif" font-weight="bold" font-size="12" text-anchor="end" dominant-baseline="middle">lstm</text>
  <text x="60" y="415" fill="white" font-family="sans-serif" font-weight="bold" font-size="12" text-anchor="end" dominant-baseline="middle">ode</text>
  <text x="60" y="450" fill="white" font-family="sans-serif" font-weight="bold" font-size="12" text-anchor="end" dominant-baseline="middle">particle</text>
  <text x="60" y="485" fill="white" font-family="sans-serif" font-weight="bold" font-size="12" text-anchor="end" dominant-baseline="middle">saddle</text>
  <text x="80" y="80" fill="white" font-family="sans-serif" font-weight="bold" font-size="12" text-anchor="end" dominant-baseline="middle" transform="rotate(90 80 80)">ad-hpp</text>
  <text x="115" y="80" fill="white" font-family="sans-serif" font-weight="bold" font-size="12" text-anchor="end" dominant-baseline="middle" transform="rotate(90 115 80)">adept</text>
  <text x="150" y="80" fill="white" font-family="sans-serif" font-weight="bold" font-size="12" text-anchor="end" dominant-baseline="middle" transform="rotate(90 150 80)">adol-c</text>
  <text x="185" y="80" fill="white" font-family="sans-serif" font-weight="bold" font-size="12" text-anchor="end" dominant-baseline="middle" transform="rotate(90 185 80)">codipack</text>
  <text x="220" y="80" fill="white" font-family="sans-serif" font-weight="bold" font-size="12" text-anchor="end" dominant-baseline="middle" transform="rotate(90 220 80)">cppad</text>
  <text x="255" y="80" fill="white" font-family="sans-serif" font-weight="bold" font-size="12" text-anchor="end" dominant-baseline="middle" transform="rotate(90 255 80)">enzyme</text>
  <text x="290" y="80" fill="white" font-family="sans-serif" font-weight="bold" font-size="12" text-anchor="end" dominant-baseline="middle" transform="rotate(90 290 80)">enzyme-jl</text>
  <text x="325" y="80" fill="white" font-family="sans-serif" font-weight="bold" font-size="12" text-anchor="end" dominant-baseline="middle" transform="rotate(90 325 80)">finite</text>
  <text x="360" y="80" fill="white" font-family="sans-serif" font-weight="bold" font-size="12" text-anchor="end" dominant-baseline="middle" transform="rotate(90 360 80)">floretta</text>
  <text x="395" y="80" fill="white" font-family="sans-serif" font-weight="bold" font-size="12" text-anchor="end" dominant-baseline="middle" transform="rotate(90 395 80)">forwarddiff-jl</text>
  <text x="430" y="80" fill="white" font-family="sans-serif" font-weight="bold" font-size="12" text-anchor="end" dominant-baseline="middle" transform="rotate(90 430 80)">futhark</text>
  <text x="465" y="80" fill="white" font-family="sans-serif" font-weight="bold" font-size="12" text-anchor="end" dominant-baseline="middle" transform="rotate(90 465 80)">haskell-ad</text>
  <text x="500" y="80" fill="white" font-family="sans-serif" font-weight="bold" font-size="12" text-anchor="end" dominant-baseline="middle" transform="rotate(90 500 80)">horde-ad</text>
  <text x="535" y="80" fill="white" font-family="sans-serif" font-weight="bold" font-size="12" text-anchor="end" dominant-baseline="middle" transform="rotate(90 535 80)">jax</text>
  <text x="570" y="80" fill="white" font-family="sans-serif" font-weight="bold" font-size="12" text-anchor="end" dominant-baseline="middle" transform="rotate(90 570 80)">manual</text>
  <text x="605" y="80" fill="white" font-family="sans-serif" font-weight="bold" font-size="12" text-anchor="end" dominant-baseline="middle" transform="rotate(90 605 80)">mooncake-jl</text>
  <text x="640" y="80" fill="white" font-family="sans-serif" font-weight="bold" font-size="12" text-anchor="end" dominant-baseline="middle" transform="rotate(90 640 80)">ocaml</text>
  <text x="675" y="80" fill="white" font-family="sans-serif" font-weight="bold" font-size="12" text-anchor="end" dominant-baseline="middle" transform="rotate(90 675 80)">pytorch</text>
  <text x="710" y="80" fill="white" font-family="sans-serif" font-weight="bold" font-size="12" text-anchor="end" dominant-baseline="middle" transform="rotate(90 710 80)">reversediff-jl</text>
  <text x="745" y="80" fill="white" font-family="sans-serif" font-weight="bold" font-size="12" text-anchor="end" dominant-baseline="middle" transform="rotate(90 745 80)">scilean</text>
  <text x="780" y="80" fill="white" font-family="sans-serif" font-weight="bold" font-size="12" text-anchor="end" dominant-baseline="middle" transform="rotate(90 780 80)">tapenade</text>
  <text x="815" y="80" fill="white" font-family="sans-serif" font-weight="bold" font-size="12" text-anchor="end" dominant-baseline="middle" transform="rotate(90 815 80)">tensorflow</text>
  <text x="850" y="80" fill="white" font-family="sans-serif" font-weight="bold" font-size="12" text-anchor="end" dominant-baseline="middle" transform="rotate(90 850 80)">tensorflow-js</text>
  <text x="885" y="80" fill="white" font-family="sans-serif" font-weight="bold" font-size="12" text-anchor="end" dominant-baseline="middle" transform="rotate(90 885 80)">zygote</text>
  <rect x="65" y="85" width="30" height="30" fill="hsl(240 100% 81.53988744376903%)" />
  <rect x="100" y="85" width="30" height="30" fill="hsl(240 100% 78.279971652199%)" />
  <rect x="135" y="85" width="30" height="30" fill="hsl(240 100% 98.1016530918332%)" />
  <rect x="170" y="85" width="30" height="30" fill="hsl(240 100% 76.88471950647444%)" />
  <rect x="205" y="85" width="30" height="30" fill="hsl(240 100% 98.91994492206359%)" />
  <rect x="240" y="85" width="30" height="30" fill="hsl(240 100% 50%)" />
  <rect x="310" y="85" width="30" height="30" fill="hsl(240 100% 93.47348959018925%)" />
  <rect x="415" y="85" width="30" height="30" fill="hsl(240 100% 69.73619118724676%)" />
  <rect x="555" y="85" width="30" height="30" fill="hsl(240 100% 52.16700051678015%)" />
  <rect x="660" y="85" width="30" height="30" fill="rgb(255 255 255 / 50%)" />
  <rect x="765" y="85" width="30" height="30" fill="hsl(240 100% 75.92274152859837%)" />
  <rect x="800" y="85" width="30" height="30" fill="rgb(255 255 255 / 50%)" />
  <rect x="870" y="85" width="30" height="30" fill="hsl(240 100% 99.77761671560987%)" />
  <rect x="65" y="120" width="30" height="30" fill="hsl(240 100% 50%)" />
  <rect x="100" y="120" width="30" height="30" fill="hsl(240 100% 82.40951351947851%)" />
  <rect x="135" y="120" width="30" height="30" fill="hsl(240 100% 84.4530531605694%)" />
  <rect x="170" y="120" width="30" height="30" fill="hsl(240 100% 53.31233017950893%)" />
  <rect x="205" y="120" width="30" height="30" fill="hsl(240 100% 92.39589670997157%)" />
  <rect x="240" y="120" width="30" height="30" fill="hsl(240 100% 93.14637858220976%)" />
  <rect x="275" y="120" width="30" height="30" fill="hsl(240 100% 99.38246614024534%)" />
  <rect x="310" y="120" width="30" height="30" fill="hsl(240 100% 98.93170030582326%)" />
  <rect x="380" y="120" width="30" height="30" fill="hsl(240 100% 94.02976830196782%)" />
  <rect x="415" y="120" width="30" height="30" fill="hsl(240 100% 95.01002450797039%)" />
  <rect x="450" y="120" width="30" height="30" fill="hsl(240 100% 97.69730187368992%)" />
  <rect x="485" y="120" width="30" height="30" fill="hsl(240 100% 97.9774863365368%)" />
  <rect x="555" y="120" width="30" height="30" fill="hsl(240 100% 80.57246625445939%)" />
  <rect x="590" y="120" width="30" height="30" fill="hsl(240 100% 97.5802754438116%)" />
  <rect x="695" y="120" width="30" height="30" fill="rgb(255 255 255 / 50%)" />
  <rect x="870" y="120" width="30" height="30" fill="rgb(255 255 255 / 50%)" />
  <rect x="65" y="155" width="30" height="30" fill="hsl(240 100% 98.70046870666657%)" />
  <rect x="100" y="155" width="30" height="30" fill="hsl(240 100% 98.34489591141232%)" />
  <rect x="135" y="155" width="30" height="30" fill="hsl(240 100% 99.07092095882095%)" />
  <rect x="170" y="155" width="30" height="30" fill="hsl(240 100% 97.8147184163486%)" />
  <rect x="205" y="155" width="30" height="30" fill="hsl(240 100% 99.78001591647924%)" />
  <rect x="240" y="155" width="30" height="30" fill="hsl(240 100% 91.12299248063208%)" />
  <rect x="275" y="155" width="30" height="30" fill="hsl(240 100% 91.41996291755609%)" />
  <rect x="310" y="155" width="30" height="30" fill="rgb(255 255 255 / 50%)" />
  <rect x="415" y="155" width="30" height="30" fill="hsl(240 100% 92.65963144996805%)" />
  <rect x="485" y="155" width="30" height="30" fill="hsl(240 100% 98.53669824722148%)" />
  <rect x="520" y="155" width="30" height="30" fill="hsl(240 100% 50%)" />
  <rect x="555" y="155" width="30" height="30" fill="hsl(240 100% 80.66514348839263%)" />
  <rect x="590" y="155" width="30" height="30" fill="hsl(240 100% 92.66491100285165%)" />
  <rect x="625" y="155" width="30" height="30" fill="hsl(240 100% 99.5676258830066%)" />
  <rect x="660" y="155" width="30" height="30" fill="hsl(240 100% 67.63587600344793%)" />
  <rect x="730" y="155" width="30" height="30" fill="hsl(240 100% 94.07611206694793%)" />
  <rect x="765" y="155" width="30" height="30" fill="hsl(240 100% 84.39267775730251%)" />
  <rect x="800" y="155" width="30" height="30" fill="hsl(240 100% 99.57249954472671%)" />
  <rect x="870" y="155" width="30" height="30" fill="hsl(240 100% 96.11399243065968%)" />
  <rect x="65" y="190" width="30" height="30" fill="hsl(240 100% 50%)" />
  <rect x="100" y="190" width="30" height="30" fill="hsl(240 100% 50%)" />
  <rect x="135" y="190" width="30" height="30" fill="hsl(240 100% 50%)" />
  <rect x="170" y="190" width="30" height="30" fill="hsl(240 100% 50%)" />
  <rect x="205" y="190" width="30" height="30" fill="hsl(240 100% 50%)" />
  <rect x="240" y="190" width="30" height="30" fill="hsl(240 100% 50%)" />
  <rect x="275" y="190" width="30" height="30" fill="hsl(240 100% 50%)" />
  <rect x="310" y="190" width="30" height="30" fill="hsl(240 100% 50%)" />
  <rect x="345" y="190" width="30" height="30" fill="hsl(240 100% 50%)" />
  <rect x="380" y="190" width="30" height="30" fill="hsl(240 100% 50%)" />
  <rect x="415" y="190" width="30" height="30" fill="hsl(240 100% 50%)" />
  <rect x="450" y="190" width="30" height="30" fill="hsl(240 100% 50%)" />
  <rect x="485" y="190" width="30" height="30" fill="hsl(240 100% 50%)" />
  <rect x="520" y="190" width="30" height="30" fill="hsl(240 100% 50%)" />
  <rect x="555" y="190" width="30" height="30" fill="hsl(240 100% 50%)" />
  <rect x="590" y="190" width="30" height="30" fill="hsl(240 100% 50%)" />
  <rect x="625" y="190" width="30" height="30" fill="hsl(240 100% 50%)" />
  <rect x="660" y="190" width="30" height="30" fill="hsl(240 100% 50%)" />
  <rect x="695" y="190" width="30" height="30" fill="hsl(240 100% 50%)" />
  <rect x="730" y="190" width="30" height="30" fill="hsl(240 100% 50%)" />
  <rect x="765" y="190" width="30" height="30" fill="hsl(240 100% 50%)" />
  <rect x="800" y="190" width="30" height="30" fill="hsl(240 100% 50%)" />
  <rect x="835" y="190" width="30" height="30" fill="hsl(240 100% 50%)" />
  <rect x="870" y="190" width="30" height="30" fill="hsl(240 100% 50%)" />
  <rect x="100" y="225" width="30" height="30" fill="hsl(240 100% 94.74081166162834%)" />
  <rect x="135" y="225" width="30" height="30" fill="hsl(240 100% 85.85467354125286%)" />
  <rect x="170" y="225" width="30" height="30" fill="hsl(240 100% 88.29671445038228%)" />
  <rect x="240" y="225" width="30" height="30" fill="hsl(240 100% 90.46615311801312%)" />
  <rect x="310" y="225" width="30" height="30" fill="rgb(255 255 255 / 50%)" />
  <rect x="415" y="225" width="30" height="30" fill="hsl(240 100% 86.90075184716338%)" />
  <rect x="555" y="225" width="30" height="30" fill="hsl(240 100% 50%)" />
  <rect x="660" y="225" width="30" height="30" fill="rgb(255 255 255 / 50%)" />
  <rect x="765" y="225" width="30" height="30" fill="hsl(240 100% 92.52424799372865%)" />
  <rect x="800" y="225" width="30" height="30" fill="rgb(255 255 255 / 50%)" />
  <rect x="870" y="225" width="30" height="30" fill="hsl(240 100% 94.40152067945102%)" />
  <rect x="135" y="260" width="30" height="30" fill="hsl(240 100% 99.86961096790013%)" />
  <rect x="170" y="260" width="30" height="30" fill="hsl(240 100% 99.21562310168993%)" />
  <rect x="205" y="260" width="30" height="30" fill="rgb(255 255 255 / 50%)" />
  <rect x="240" y="260" width="30" height="30" fill="hsl(240 100% 88.17047750369991%)" />
  <rect x="310" y="260" width="30" height="30" fill="rgb(255 255 255 / 50%)" />
  <rect x="380" y="260" width="30" height="30" fill="rgb(255 255 255 / 50%)" />
  <rect x="415" y="260" width="30" height="30" fill="hsl(240 100% 85.20028445716194%)" />
  <rect x="450" y="260" width="30" height="30" fill="rgb(255 255 255 / 50%)" />
  <rect x="485" y="260" width="30" height="30" fill="hsl(240 100% 99.11041351207845%)" />
  <rect x="520" y="260" width="30" height="30" fill="hsl(240 100% 50%)" />
  <rect x="555" y="260" width="30" height="30" fill="hsl(240 100% 75.23051817406952%)" />
  <rect x="660" y="260" width="30" height="30" fill="hsl(240 100% 97.20202275610754%)" />
  <rect x="695" y="260" width="30" height="30" fill="rgb(255 255 255 / 50%)" />
  <rect x="730" y="260" width="30" height="30" fill="hsl(240 100% 94.36024064329433%)" />
  <rect x="65" y="295" width="30" height="30" fill="hsl(240 100% 84.9407208681081%)" />
  <rect x="100" y="295" width="30" height="30" fill="hsl(240 100% 97.17337378694214%)" />
  <rect x="135" y="295" width="30" height="30" fill="hsl(240 100% 93.2441483852813%)" />
  <rect x="170" y="295" width="30" height="30" fill="hsl(240 100% 86.73994750967823%)" />
  <rect x="205" y="295" width="30" height="30" fill="hsl(240 100% 99.42510703019936%)" />
  <rect x="240" y="295" width="30" height="30" fill="hsl(240 100% 54.27398786599011%)" />
  <rect x="275" y="295" width="30" height="30" fill="hsl(240 100% 52.462200478422716%)" />
  <rect x="310" y="295" width="30" height="30" fill="hsl(240 100% 99.44387426938351%)" />
  <rect x="345" y="295" width="30" height="30" fill="hsl(240 100% 92.85497314027846%)" />
  <rect x="415" y="295" width="30" height="30" fill="hsl(240 100% 50%)" />
  <rect x="450" y="295" width="30" height="30" fill="hsl(240 100% 99.22186462235146%)" />
  <rect x="485" y="295" width="30" height="30" fill="hsl(240 100% 95.88105840794013%)" />
  <rect x="520" y="295" width="30" height="30" fill="hsl(240 100% 86.55030422825597%)" />
  <rect x="555" y="295" width="30" height="30" fill="hsl(240 100% 53.16926193154979%)" />
  <rect x="590" y="295" width="30" height="30" fill="hsl(240 100% 89.93457095110996%)" />
  <rect x="730" y="295" width="30" height="30" fill="hsl(240 100% 97.19560757108057%)" />
  <rect x="835" y="295" width="30" height="30" fill="hsl(240 100% 99.51113849879151%)" />
  <rect x="870" y="295" width="30" height="30" fill="hsl(240 100% 99.95224743134152%)" />
  <rect x="65" y="330" width="30" height="30" fill="hsl(240 100% 86.7712586973595%)" />
  <rect x="100" y="330" width="30" height="30" fill="hsl(240 100% 93.3746820231497%)" />
  <rect x="135" y="330" width="30" height="30" fill="hsl(240 100% 91.59554979495012%)" />
  <rect x="170" y="330" width="30" height="30" fill="hsl(240 100% 85.92068346369645%)" />
  <rect x="205" y="330" width="30" height="30" fill="hsl(240 100% 98.78485355172512%)" />
  <rect x="240" y="330" width="30" height="30" fill="hsl(240 100% 72.2861912723458%)" />
  <rect x="275" y="330" width="30" height="30" fill="hsl(240 100% 86.865986097792%)" />
  <rect x="310" y="330" width="30" height="30" fill="rgb(255 255 255 / 50%)" />
  <rect x="345" y="330" width="30" height="30" fill="hsl(240 100% 96.73473083266032%)" />
  <rect x="415" y="330" width="30" height="30" fill="hsl(240 100% 67.26458124060687%)" />
  <rect x="450" y="330" width="30" height="30" fill="hsl(240 100% 99.78484522127626%)" />
  <rect x="485" y="330" width="30" height="30" fill="hsl(240 100% 86.28727742775948%)" />
  <rect x="520" y="330" width="30" height="30" fill="hsl(240 100% 69.6866280569918%)" />
  <rect x="555" y="330" width="30" height="30" fill="hsl(240 100% 67.7374727136804%)" />
  <rect x="590" y="330" width="30" height="30" fill="hsl(240 100% 86.57167074220395%)" />
  <rect x="625" y="330" width="30" height="30" fill="hsl(240 100% 93.20526735537325%)" />
  <rect x="660" y="330" width="30" height="30" fill="hsl(240 100% 50%)" />
  <rect x="800" y="330" width="30" height="30" fill="hsl(240 100% 95.11865522334574%)" />
  <rect x="835" y="330" width="30" height="30" fill="hsl(240 100% 99.07660729654579%)" />
  <rect x="870" y="330" width="30" height="30" fill="hsl(240 100% 96.04080866391678%)" />
  <rect x="65" y="365" width="30" height="30" fill="hsl(240 100% 61.905149802792096%)" />
  <rect x="100" y="365" width="30" height="30" fill="hsl(240 100% 74.0850123475204%)" />
  <rect x="135" y="365" width="30" height="30" fill="hsl(240 100% 79.53069882896651%)" />
  <rect x="170" y="365" width="30" height="30" fill="hsl(240 100% 50%)" />
  <rect x="205" y="365" width="30" height="30" fill="hsl(240 100% 96.46552302816922%)" />
  <rect x="240" y="365" width="30" height="30" fill="hsl(240 100% 50.649888491529055%)" />
  <rect x="275" y="365" width="30" height="30" fill="hsl(240 100% 94.15490378269863%)" />
  <rect x="310" y="365" width="30" height="30" fill="hsl(240 100% 99.87586436305978%)" />
  <rect x="415" y="365" width="30" height="30" fill="hsl(240 100% 70.19588557923498%)" />
  <rect x="485" y="365" width="30" height="30" fill="hsl(240 100% 99.49100388769361%)" />
  <rect x="555" y="365" width="30" height="30" fill="hsl(240 100% 87.6281860652611%)" />
  <rect x="590" y="365" width="30" height="30" fill="hsl(240 100% 96.3569966706747%)" />
  <rect x="660" y="365" width="30" height="30" fill="hsl(240 100% 99.65437590872612%)" />
  <rect x="765" y="365" width="30" height="30" fill="hsl(240 100% 67.3460151792099%)" />
  <rect x="800" y="365" width="30" height="30" fill="hsl(240 100% 97.91483243308821%)" />
  <rect x="870" y="365" width="30" height="30" fill="hsl(240 100% 98.6849763072513%)" />
  <rect x="65" y="400" width="30" height="30" fill="hsl(240 100% 97.94527873542599%)" />
  <rect x="100" y="400" width="30" height="30" fill="hsl(240 100% 99.42075511325287%)" />
  <rect x="135" y="400" width="30" height="30" fill="hsl(240 100% 99.6268358083143%)" />
  <rect x="170" y="400" width="30" height="30" fill="hsl(240 100% 92.97271427142083%)" />
  <rect x="205" y="400" width="30" height="30" fill="hsl(240 100% 99.06114968801097%)" />
  <rect x="240" y="400" width="30" height="30" fill="hsl(240 100% 80.1608359792337%)" />
  <rect x="275" y="400" width="30" height="30" fill="hsl(240 100% 94.62680943290036%)" />
  <rect x="310" y="400" width="30" height="30" fill="rgb(255 255 255 / 50%)" />
  <rect x="380" y="400" width="30" height="30" fill="rgb(255 255 255 / 50%)" />
  <rect x="415" y="400" width="30" height="30" fill="hsl(240 100% 93.3882528964604%)" />
  <rect x="450" y="400" width="30" height="30" fill="hsl(240 100% 99.96526777346688%)" />
  <rect x="485" y="400" width="30" height="30" fill="hsl(240 100% 99.37432238136415%)" />
  <rect x="520" y="400" width="30" height="30" fill="hsl(240 100% 75.29411363983468%)" />
  <rect x="555" y="400" width="30" height="30" fill="hsl(240 100% 50%)" />
  <rect x="590" y="400" width="30" height="30" fill="hsl(240 100% 99.2427655522781%)" />
  <rect x="695" y="400" width="30" height="30" fill="rgb(255 255 255 / 50%)" />
  <rect x="870" y="400" width="30" height="30" fill="hsl(240 100% 99.01477486329148%)" />
  <rect x="65" y="435" width="30" height="30" fill="hsl(240 100% 93.86435890461144%)" />
  <rect x="240" y="435" width="30" height="30" fill="hsl(240 100% 50%)" />
  <rect x="310" y="435" width="30" height="30" fill="hsl(240 100% 94.39108324672713%)" />
  <rect x="415" y="435" width="30" height="30" fill="hsl(240 100% 88.4935211125647%)" />
  <rect x="450" y="435" width="30" height="30" fill="hsl(240 100% 99.80229645980181%)" />
  <rect x="485" y="435" width="30" height="30" fill="hsl(240 100% 99.94380695408216%)" />
  <rect x="65" y="470" width="30" height="30" fill="hsl(240 100% 55.60664377373048%)" />
  <rect x="240" y="470" width="30" height="30" fill="hsl(240 100% 50%)" />
  <rect x="310" y="470" width="30" height="30" fill="hsl(240 100% 97.26722179693456%)" />
  <rect x="415" y="470" width="30" height="30" fill="hsl(240 100% 90.28595781240281%)" />
  <rect x="450" y="470" width="30" height="30" fill="hsl(240 100% 99.62417512654261%)" />
  <rect x="485" y="470" width="30" height="30" fill="hsl(240 100% 99.93941066754984%)" />
</svg>
