<svg xmlns="http://www.w3.org/2000/svg" viewBox="0 0 870 505">
  <rect x="0" y="0" width="870" height="505" rx="5" ry="5" fill="#222" />
  <text x="60" y="100" fill="white" font-family="sans-serif" font-weight="bold" font-size="12" text-anchor="end" dominant-baseline="middle">ba</text>
  <text x="60" y="135" fill="white" font-family="sans-serif" font-weight="bold" font-size="12" text-anchor="end" dominant-baseline="middle">det</text>
  <text x="60" y="170" fill="white" font-family="sans-serif" font-weight="bold" font-size="12" text-anchor="end" dominant-baseline="middle">gmm</text>
  <text x="60" y="205" fill="white" font-family="sans-serif" font-weight="bold" font-size="12" text-anchor="end" dominant-baseline="middle">hello</text>
  <text x="60" y="240" fill="white" font-family="sans-serif" font-weight="bold" font-size="12" text-anchor="end" dominant-baseline="middle">ht</text>
  <text x="60" y="275" fill="white" font-family="sans-serif" font-weight="bold" font-size="12" text-anchor="end" dominant-baseline="middle">kmeans</text>
  <text x="60" y="310" fill="white" font-family="sans-serif" font-weight="bold" font-size="12" text-anchor="end" dominant-baseline="middle">llsq</text>
  <text x="60" y="345" fill="white" font-family="sans-serif" font-weight="bold" font-size="12" text-anchor="end" dominant-baseline="middle">lse</text>
  <text x="60" y="380" fill="white" font-family="sans-serif" font-weight="bold" font-size="12" text-anchor="end" dominant-baseline="middle">lstm</text>
  <text x="60" y="415" fill="white" font-family="sans-serif" font-weight="bold" font-size="12" text-anchor="end" dominant-baseline="middle">ode</text>
  <text x="60" y="450" fill="white" font-family="sans-serif" font-weight="bold" font-size="12" text-anchor="end" dominant-baseline="middle">particle</text>
  <text x="60" y="485" fill="white" font-family="sans-serif" font-weight="bold" font-size="12" text-anchor="end" dominant-baseline="middle">saddle</text>
  <text x="80" y="80" fill="white" font-family="sans-serif" font-weight="bold" font-size="12" text-anchor="end" dominant-baseline="middle" transform="rotate(90 80 80)">ad-hpp</text>
  <text x="115" y="80" fill="white" font-family="sans-serif" font-weight="bold" font-size="12" text-anchor="end" dominant-baseline="middle" transform="rotate(90 115 80)">adept</text>
  <text x="150" y="80" fill="white" font-family="sans-serif" font-weight="bold" font-size="12" text-anchor="end" dominant-baseline="middle" transform="rotate(90 150 80)">adol-c</text>
  <text x="185" y="80" fill="white" font-family="sans-serif" font-weight="bold" font-size="12" text-anchor="end" dominant-baseline="middle" transform="rotate(90 185 80)">codipack</text>
  <text x="220" y="80" fill="white" font-family="sans-serif" font-weight="bold" font-size="12" text-anchor="end" dominant-baseline="middle" transform="rotate(90 220 80)">cppad</text>
  <text x="255" y="80" fill="white" font-family="sans-serif" font-weight="bold" font-size="12" text-anchor="end" dominant-baseline="middle" transform="rotate(90 255 80)">enzyme</text>
  <text x="290" y="80" fill="white" font-family="sans-serif" font-weight="bold" font-size="12" text-anchor="end" dominant-baseline="middle" transform="rotate(90 290 80)">enzyme-jl</text>
  <text x="325" y="80" fill="white" font-family="sans-serif" font-weight="bold" font-size="12" text-anchor="end" dominant-baseline="middle" transform="rotate(90 325 80)">finite</text>
  <text x="360" y="80" fill="white" font-family="sans-serif" font-weight="bold" font-size="12" text-anchor="end" dominant-baseline="middle" transform="rotate(90 360 80)">floretta</text>
  <text x="395" y="80" fill="white" font-family="sans-serif" font-weight="bold" font-size="12" text-anchor="end" dominant-baseline="middle" transform="rotate(90 395 80)">forwarddiff-jl</text>
  <text x="430" y="80" fill="white" font-family="sans-serif" font-weight="bold" font-size="12" text-anchor="end" dominant-baseline="middle" transform="rotate(90 430 80)">futhark</text>
  <text x="465" y="80" fill="white" font-family="sans-serif" font-weight="bold" font-size="12" text-anchor="end" dominant-baseline="middle" transform="rotate(90 465 80)">haskell</text>
  <text x="500" y="80" fill="white" font-family="sans-serif" font-weight="bold" font-size="12" text-anchor="end" dominant-baseline="middle" transform="rotate(90 500 80)">jax</text>
  <text x="535" y="80" fill="white" font-family="sans-serif" font-weight="bold" font-size="12" text-anchor="end" dominant-baseline="middle" transform="rotate(90 535 80)">manual</text>
  <text x="570" y="80" fill="white" font-family="sans-serif" font-weight="bold" font-size="12" text-anchor="end" dominant-baseline="middle" transform="rotate(90 570 80)">mooncake-jl</text>
  <text x="605" y="80" fill="white" font-family="sans-serif" font-weight="bold" font-size="12" text-anchor="end" dominant-baseline="middle" transform="rotate(90 605 80)">ocaml</text>
  <text x="640" y="80" fill="white" font-family="sans-serif" font-weight="bold" font-size="12" text-anchor="end" dominant-baseline="middle" transform="rotate(90 640 80)">pytorch</text>
  <text x="675" y="80" fill="white" font-family="sans-serif" font-weight="bold" font-size="12" text-anchor="end" dominant-baseline="middle" transform="rotate(90 675 80)">reversediff-jl</text>
  <text x="710" y="80" fill="white" font-family="sans-serif" font-weight="bold" font-size="12" text-anchor="end" dominant-baseline="middle" transform="rotate(90 710 80)">scilean</text>
  <text x="745" y="80" fill="white" font-family="sans-serif" font-weight="bold" font-size="12" text-anchor="end" dominant-baseline="middle" transform="rotate(90 745 80)">tapenade</text>
  <text x="780" y="80" fill="white" font-family="sans-serif" font-weight="bold" font-size="12" text-anchor="end" dominant-baseline="middle" transform="rotate(90 780 80)">tensorflow</text>
  <text x="815" y="80" fill="white" font-family="sans-serif" font-weight="bold" font-size="12" text-anchor="end" dominant-baseline="middle" transform="rotate(90 815 80)">tensorflow-js</text>
  <text x="850" y="80" fill="white" font-family="sans-serif" font-weight="bold" font-size="12" text-anchor="end" dominant-baseline="middle" transform="rotate(90 850 80)">zygote</text>
  <rect x="65" y="85" width="30" height="30" fill="hsl(240 100% 78.73252614946918%)" />
  <rect x="100" y="85" width="30" height="30" fill="hsl(240 100% 80.55914444377093%)" />
  <rect x="135" y="85" width="30" height="30" fill="hsl(240 100% 97.74560199399961%)" />
  <rect x="170" y="85" width="30" height="30" fill="hsl(240 100% 79.72359983383487%)" />
  <rect x="205" y="85" width="30" height="30" fill="hsl(240 100% 98.84361401600147%)" />
  <rect x="240" y="85" width="30" height="30" fill="hsl(240 100% 53.34704460264684%)" />
  <rect x="310" y="85" width="30" height="30" fill="hsl(240 100% 92.1888898534555%)" />
  <rect x="415" y="85" width="30" height="30" fill="hsl(240 100% 63.77655084986703%)" />
  <rect x="520" y="85" width="30" height="30" fill="hsl(240 100% 50%)" />
  <rect x="625" y="85" width="30" height="30" fill="rgb(255 255 255 / 50%)" />
  <rect x="730" y="85" width="30" height="30" fill="hsl(240 100% 71.5284003010787%)" />
  <rect x="765" y="85" width="30" height="30" fill="rgb(255 255 255 / 50%)" />
  <rect x="835" y="85" width="30" height="30" fill="hsl(240 100% 99.69148301907904%)" />
  <rect x="65" y="120" width="30" height="30" fill="hsl(240 100% 50%)" />
  <rect x="100" y="120" width="30" height="30" fill="hsl(240 100% 82.72647435432881%)" />
  <rect x="135" y="120" width="30" height="30" fill="hsl(240 100% 85.64809166997982%)" />
  <rect x="170" y="120" width="30" height="30" fill="hsl(240 100% 52.78227348675151%)" />
  <rect x="205" y="120" width="30" height="30" fill="hsl(240 100% 92.54938033434797%)" />
  <rect x="240" y="120" width="30" height="30" fill="hsl(240 100% 91.54843601709135%)" />
  <rect x="275" y="120" width="30" height="30" fill="hsl(240 100% 99.37185928448343%)" />
  <rect x="310" y="120" width="30" height="30" fill="hsl(240 100% 98.9973789176248%)" />
  <rect x="380" y="120" width="30" height="30" fill="hsl(240 100% 93.40258690538255%)" />
  <rect x="415" y="120" width="30" height="30" fill="hsl(240 100% 94.70155861306296%)" />
  <rect x="450" y="120" width="30" height="30" fill="hsl(240 100% 97.89060795265404%)" />
  <rect x="520" y="120" width="30" height="30" fill="hsl(240 100% 79.64752859678461%)" />
  <rect x="555" y="120" width="30" height="30" fill="hsl(240 100% 90.77852039054196%)" />
  <rect x="660" y="120" width="30" height="30" fill="rgb(255 255 255 / 50%)" />
  <rect x="835" y="120" width="30" height="30" fill="rgb(255 255 255 / 50%)" />
  <rect x="65" y="155" width="30" height="30" fill="hsl(240 100% 98.23184913589807%)" />
  <rect x="100" y="155" width="30" height="30" fill="hsl(240 100% 98.81509232553827%)" />
  <rect x="135" y="155" width="30" height="30" fill="hsl(240 100% 99.09911778225025%)" />
  <rect x="170" y="155" width="30" height="30" fill="hsl(240 100% 98.01768025568543%)" />
  <rect x="205" y="155" width="30" height="30" fill="hsl(240 100% 99.84564067749587%)" />
  <rect x="240" y="155" width="30" height="30" fill="hsl(240 100% 91.06676634757343%)" />
  <rect x="275" y="155" width="30" height="30" fill="hsl(240 100% 92.36262324644002%)" />
  <rect x="310" y="155" width="30" height="30" fill="rgb(255 255 255 / 50%)" />
  <rect x="415" y="155" width="30" height="30" fill="hsl(240 100% 93.10744405112098%)" />
  <rect x="485" y="155" width="30" height="30" fill="hsl(240 100% 50%)" />
  <rect x="520" y="155" width="30" height="30" fill="hsl(240 100% 80.92643982490887%)" />
  <rect x="590" y="155" width="30" height="30" fill="hsl(240 100% 99.58093411170353%)" />
  <rect x="625" y="155" width="30" height="30" fill="hsl(240 100% 67.4690708248075%)" />
  <rect x="695" y="155" width="30" height="30" fill="hsl(240 100% 95.32173341888628%)" />
  <rect x="730" y="155" width="30" height="30" fill="hsl(240 100% 83.55644616163937%)" />
  <rect x="765" y="155" width="30" height="30" fill="hsl(240 100% 99.58070250099054%)" />
  <rect x="835" y="155" width="30" height="30" fill="hsl(240 100% 96.30581653787993%)" />
  <rect x="65" y="190" width="30" height="30" fill="hsl(240 100% 50%)" />
  <rect x="100" y="190" width="30" height="30" fill="hsl(240 100% 50%)" />
  <rect x="135" y="190" width="30" height="30" fill="hsl(240 100% 50%)" />
  <rect x="170" y="190" width="30" height="30" fill="hsl(240 100% 50%)" />
  <rect x="205" y="190" width="30" height="30" fill="hsl(240 100% 50%)" />
  <rect x="240" y="190" width="30" height="30" fill="hsl(240 100% 50%)" />
  <rect x="275" y="190" width="30" height="30" fill="hsl(240 100% 50%)" />
  <rect x="310" y="190" width="30" height="30" fill="hsl(240 100% 50%)" />
  <rect x="345" y="190" width="30" height="30" fill="hsl(240 100% 50%)" />
  <rect x="380" y="190" width="30" height="30" fill="hsl(240 100% 50%)" />
  <rect x="415" y="190" width="30" height="30" fill="hsl(240 100% 50%)" />
  <rect x="450" y="190" width="30" height="30" fill="hsl(240 100% 50%)" />
  <rect x="485" y="190" width="30" height="30" fill="hsl(240 100% 50%)" />
  <rect x="520" y="190" width="30" height="30" fill="hsl(240 100% 50%)" />
  <rect x="555" y="190" width="30" height="30" fill="hsl(240 100% 50%)" />
  <rect x="590" y="190" width="30" height="30" fill="hsl(240 100% 50%)" />
  <rect x="625" y="190" width="30" height="30" fill="hsl(240 100% 50%)" />
  <rect x="660" y="190" width="30" height="30" fill="hsl(240 100% 50%)" />
  <rect x="695" y="190" width="30" height="30" fill="hsl(240 100% 50%)" />
  <rect x="730" y="190" width="30" height="30" fill="hsl(240 100% 50%)" />
  <rect x="765" y="190" width="30" height="30" fill="hsl(240 100% 50%)" />
  <rect x="800" y="190" width="30" height="30" fill="hsl(240 100% 50%)" />
  <rect x="835" y="190" width="30" height="30" fill="hsl(240 100% 50%)" />
  <rect x="100" y="225" width="30" height="30" fill="hsl(240 100% 96.23132391752185%)" />
  <rect x="135" y="225" width="30" height="30" fill="hsl(240 100% 86.12986457081514%)" />
  <rect x="170" y="225" width="30" height="30" fill="hsl(240 100% 88.0528104622624%)" />
  <rect x="240" y="225" width="30" height="30" fill="hsl(240 100% 90.12160254682179%)" />
  <rect x="310" y="225" width="30" height="30" fill="rgb(255 255 255 / 50%)" />
  <rect x="415" y="225" width="30" height="30" fill="hsl(240 100% 89.29154660476966%)" />
  <rect x="520" y="225" width="30" height="30" fill="hsl(240 100% 50%)" />
  <rect x="625" y="225" width="30" height="30" fill="rgb(255 255 255 / 50%)" />
  <rect x="730" y="225" width="30" height="30" fill="hsl(240 100% 92.27239296702248%)" />
  <rect x="765" y="225" width="30" height="30" fill="rgb(255 255 255 / 50%)" />
  <rect x="835" y="225" width="30" height="30" fill="hsl(240 100% 93.71174502165975%)" />
  <rect x="65" y="260" width="30" height="30" fill="hsl(240 100% 99.82782015730618%)" />
  <rect x="135" y="260" width="30" height="30" fill="hsl(240 100% 99.85678712459948%)" />
  <rect x="170" y="260" width="30" height="30" fill="hsl(240 100% 98.95022010977175%)" />
  <rect x="205" y="260" width="30" height="30" fill="rgb(255 255 255 / 50%)" />
  <rect x="240" y="260" width="30" height="30" fill="hsl(240 100% 87.27137136390274%)" />
  <rect x="310" y="260" width="30" height="30" fill="rgb(255 255 255 / 50%)" />
  <rect x="415" y="260" width="30" height="30" fill="hsl(240 100% 80.7867405898605%)" />
  <rect x="450" y="260" width="30" height="30" fill="rgb(255 255 255 / 50%)" />
  <rect x="485" y="260" width="30" height="30" fill="hsl(240 100% 50%)" />
  <rect x="520" y="260" width="30" height="30" fill="hsl(240 100% 72.72081779805312%)" />
  <rect x="625" y="260" width="30" height="30" fill="hsl(240 100% 97.09162588666881%)" />
  <rect x="695" y="260" width="30" height="30" fill="hsl(240 100% 94.15535853215918%)" />
  <rect x="65" y="295" width="30" height="30" fill="hsl(240 100% 85.95854412277902%)" />
  <rect x="100" y="295" width="30" height="30" fill="hsl(240 100% 97.63855022066544%)" />
  <rect x="135" y="295" width="30" height="30" fill="hsl(240 100% 95.09575814534918%)" />
  <rect x="170" y="295" width="30" height="30" fill="hsl(240 100% 89.283399595562%)" />
  <rect x="205" y="295" width="30" height="30" fill="hsl(240 100% 99.48685191402454%)" />
  <rect x="240" y="295" width="30" height="30" fill="hsl(240 100% 50.42954097969363%)" />
  <rect x="275" y="295" width="30" height="30" fill="hsl(240 100% 50%)" />
  <rect x="310" y="295" width="30" height="30" fill="hsl(240 100% 99.49710072108635%)" />
  <rect x="345" y="295" width="30" height="30" fill="hsl(240 100% 94.7053557893012%)" />
  <rect x="415" y="295" width="30" height="30" fill="hsl(240 100% 54.97659753488663%)" />
  <rect x="450" y="295" width="30" height="30" fill="hsl(240 100% 99.33197136121282%)" />
  <rect x="485" y="295" width="30" height="30" fill="hsl(240 100% 88.26306577207818%)" />
  <rect x="520" y="295" width="30" height="30" fill="hsl(240 100% 57.658852867830426%)" />
  <rect x="695" y="295" width="30" height="30" fill="hsl(240 100% 97.59593885941251%)" />
  <rect x="800" y="295" width="30" height="30" fill="hsl(240 100% 99.56624861494927%)" />
  <rect x="835" y="295" width="30" height="30" fill="hsl(240 100% 99.95691474734187%)" />
  <rect x="65" y="330" width="30" height="30" fill="hsl(240 100% 86.80967141251246%)" />
  <rect x="100" y="330" width="30" height="30" fill="hsl(240 100% 94.2107632052341%)" />
  <rect x="135" y="330" width="30" height="30" fill="hsl(240 100% 96.90207568788217%)" />
  <rect x="170" y="330" width="30" height="30" fill="hsl(240 100% 86.71558597974584%)" />
  <rect x="205" y="330" width="30" height="30" fill="hsl(240 100% 99.18973651926024%)" />
  <rect x="240" y="330" width="30" height="30" fill="hsl(240 100% 78.38425423684006%)" />
  <rect x="275" y="330" width="30" height="30" fill="hsl(240 100% 87.09609350102488%)" />
  <rect x="310" y="330" width="30" height="30" fill="rgb(255 255 255 / 50%)" />
  <rect x="345" y="330" width="30" height="30" fill="hsl(240 100% 97.13314848482096%)" />
  <rect x="415" y="330" width="30" height="30" fill="hsl(240 100% 85.49809278280522%)" />
  <rect x="450" y="330" width="30" height="30" fill="hsl(240 100% 99.81015768288732%)" />
  <rect x="485" y="330" width="30" height="30" fill="hsl(240 100% 71.3917090641474%)" />
  <rect x="520" y="330" width="30" height="30" fill="hsl(240 100% 69.66459590277952%)" />
  <rect x="590" y="330" width="30" height="30" fill="hsl(240 100% 93.66523734587558%)" />
  <rect x="625" y="330" width="30" height="30" fill="hsl(240 100% 50%)" />
  <rect x="765" y="330" width="30" height="30" fill="hsl(240 100% 94.0305804324443%)" />
  <rect x="800" y="330" width="30" height="30" fill="hsl(240 100% 99.19926839454848%)" />
  <rect x="835" y="330" width="30" height="30" fill="hsl(240 100% 80.13272213695846%)" />
  <rect x="65" y="365" width="30" height="30" fill="hsl(240 100% 57.97544705220914%)" />
  <rect x="100" y="365" width="30" height="30" fill="hsl(240 100% 71.77252244558156%)" />
  <rect x="135" y="365" width="30" height="30" fill="hsl(240 100% 82.42564305249547%)" />
  <rect x="170" y="365" width="30" height="30" fill="hsl(240 100% 50%)" />
  <rect x="205" y="365" width="30" height="30" fill="hsl(240 100% 96.09953548528229%)" />
  <rect x="240" y="365" width="30" height="30" fill="hsl(240 100% 59.720180328033344%)" />
  <rect x="275" y="365" width="30" height="30" fill="hsl(240 100% 93.04253809092319%)" />
  <rect x="310" y="365" width="30" height="30" fill="hsl(240 100% 99.86206408737085%)" />
  <rect x="415" y="365" width="30" height="30" fill="hsl(240 100% 66.48976839507586%)" />
  <rect x="520" y="365" width="30" height="30" fill="hsl(240 100% 86.10791435289869%)" />
  <rect x="625" y="365" width="30" height="30" fill="hsl(240 100% 99.63601358727907%)" />
  <rect x="730" y="365" width="30" height="30" fill="hsl(240 100% 63.18958419829225%)" />
  <rect x="765" y="365" width="30" height="30" fill="hsl(240 100% 98.13564861473316%)" />
  <rect x="835" y="365" width="30" height="30" fill="hsl(240 100% 98.83785666129553%)" />
  <rect x="65" y="400" width="30" height="30" fill="hsl(240 100% 98.17175052945093%)" />
  <rect x="100" y="400" width="30" height="30" fill="hsl(240 100% 99.4277133365262%)" />
  <rect x="135" y="400" width="30" height="30" fill="hsl(240 100% 99.67505420450107%)" />
  <rect x="170" y="400" width="30" height="30" fill="hsl(240 100% 94.21346330021889%)" />
  <rect x="205" y="400" width="30" height="30" fill="hsl(240 100% 99.25275133985113%)" />
  <rect x="240" y="400" width="30" height="30" fill="hsl(240 100% 86.24070256733336%)" />
  <rect x="275" y="400" width="30" height="30" fill="hsl(240 100% 95.462036175836%)" />
  <rect x="310" y="400" width="30" height="30" fill="rgb(255 255 255 / 50%)" />
  <rect x="380" y="400" width="30" height="30" fill="rgb(255 255 255 / 50%)" />
  <rect x="415" y="400" width="30" height="30" fill="hsl(240 100% 94.06074297609622%)" />
  <rect x="450" y="400" width="30" height="30" fill="hsl(240 100% 99.97161212955969%)" />
  <rect x="485" y="400" width="30" height="30" fill="hsl(240 100% 78.75982787524147%)" />
  <rect x="520" y="400" width="30" height="30" fill="hsl(240 100% 50%)" />
  <rect x="555" y="400" width="30" height="30" fill="hsl(240 100% 99.12374095675283%)" />
  <rect x="660" y="400" width="30" height="30" fill="rgb(255 255 255 / 50%)" />
  <rect x="835" y="400" width="30" height="30" fill="hsl(240 100% 99.11965363366411%)" />
  <rect x="65" y="435" width="30" height="30" fill="hsl(240 100% 93.3699009810894%)" />
  <rect x="240" y="435" width="30" height="30" fill="hsl(240 100% 50%)" />
  <rect x="310" y="435" width="30" height="30" fill="hsl(240 100% 93.85185139608278%)" />
  <rect x="415" y="435" width="30" height="30" fill="hsl(240 100% 87.02853138664473%)" />
  <rect x="450" y="435" width="30" height="30" fill="hsl(240 100% 99.78267098124401%)" />
  <rect x="65" y="470" width="30" height="30" fill="hsl(240 100% 50.064112721300255%)" />
  <rect x="240" y="470" width="30" height="30" fill="hsl(240 100% 50%)" />
  <rect x="310" y="470" width="30" height="30" fill="hsl(240 100% 96.98032414805208%)" />
  <rect x="415" y="470" width="30" height="30" fill="hsl(240 100% 89.06665633779426%)" />
  <rect x="450" y="470" width="30" height="30" fill="hsl(240 100% 99.5688724879226%)" />
</svg>
