<svg xmlns="http://www.w3.org/2000/svg" viewBox="0 0 870 505">
  <rect x="0" y="0" width="870" height="505" rx="5" ry="5" fill="#222" />
  <text x="60" y="100" fill="white" font-family="sans-serif" font-weight="bold" font-size="12" text-anchor="end" dominant-baseline="middle">ba</text>
  <text x="60" y="135" fill="white" font-family="sans-serif" font-weight="bold" font-size="12" text-anchor="end" dominant-baseline="middle">det</text>
  <text x="60" y="170" fill="white" font-family="sans-serif" font-weight="bold" font-size="12" text-anchor="end" dominant-baseline="middle">gmm</text>
  <text x="60" y="205" fill="white" font-family="sans-serif" font-weight="bold" font-size="12" text-anchor="end" dominant-baseline="middle">hello</text>
  <text x="60" y="240" fill="white" font-family="sans-serif" font-weight="bold" font-size="12" text-anchor="end" dominant-baseline="middle">ht</text>
  <text x="60" y="275" fill="white" font-family="sans-serif" font-weight="bold" font-size="12" text-anchor="end" dominant-baseline="middle">kmeans</text>
  <text x="60" y="310" fill="white" font-family="sans-serif" font-weight="bold" font-size="12" text-anchor="end" dominant-baseline="middle">llsq</text>
  <text x="60" y="345" fill="white" font-family="sans-serif" font-weight="bold" font-size="12" text-anchor="end" dominant-baseline="middle">lse</text>
  <text x="60" y="380" fill="white" font-family="sans-serif" font-weight="bold" font-size="12" text-anchor="end" dominant-baseline="middle">lstm</text>
  <text x="60" y="415" fill="white" font-family="sans-serif" font-weight="bold" font-size="12" text-anchor="end" dominant-baseline="middle">ode</text>
  <text x="60" y="450" fill="white" font-family="sans-serif" font-weight="bold" font-size="12" text-anchor="end" dominant-baseline="middle">particle</text>
  <text x="60" y="485" fill="white" font-family="sans-serif" font-weight="bold" font-size="12" text-anchor="end" dominant-baseline="middle">saddle</text>
  <text x="80" y="80" fill="white" font-family="sans-serif" font-weight="bold" font-size="12" text-anchor="end" dominant-baseline="middle" transform="rotate(90 80 80)">ad-hpp</text>
  <text x="115" y="80" fill="white" font-family="sans-serif" font-weight="bold" font-size="12" text-anchor="end" dominant-baseline="middle" transform="rotate(90 115 80)">adept</text>
  <text x="150" y="80" fill="white" font-family="sans-serif" font-weight="bold" font-size="12" text-anchor="end" dominant-baseline="middle" transform="rotate(90 150 80)">adol-c</text>
  <text x="185" y="80" fill="white" font-family="sans-serif" font-weight="bold" font-size="12" text-anchor="end" dominant-baseline="middle" transform="rotate(90 185 80)">codipack</text>
  <text x="220" y="80" fill="white" font-family="sans-serif" font-weight="bold" font-size="12" text-anchor="end" dominant-baseline="middle" transform="rotate(90 220 80)">cppad</text>
  <text x="255" y="80" fill="white" font-family="sans-serif" font-weight="bold" font-size="12" text-anchor="end" dominant-baseline="middle" transform="rotate(90 255 80)">enzyme</text>
  <text x="290" y="80" fill="white" font-family="sans-serif" font-weight="bold" font-size="12" text-anchor="end" dominant-baseline="middle" transform="rotate(90 290 80)">enzyme-jl</text>
  <text x="325" y="80" fill="white" font-family="sans-serif" font-weight="bold" font-size="12" text-anchor="end" dominant-baseline="middle" transform="rotate(90 325 80)">finite</text>
  <text x="360" y="80" fill="white" font-family="sans-serif" font-weight="bold" font-size="12" text-anchor="end" dominant-baseline="middle" transform="rotate(90 360 80)">floretta</text>
  <text x="395" y="80" fill="white" font-family="sans-serif" font-weight="bold" font-size="12" text-anchor="end" dominant-baseline="middle" transform="rotate(90 395 80)">forwarddiff-jl</text>
  <text x="430" y="80" fill="white" font-family="sans-serif" font-weight="bold" font-size="12" text-anchor="end" dominant-baseline="middle" transform="rotate(90 430 80)">futhark</text>
  <text x="465" y="80" fill="white" font-family="sans-serif" font-weight="bold" font-size="12" text-anchor="end" dominant-baseline="middle" transform="rotate(90 465 80)">haskell</text>
  <text x="500" y="80" fill="white" font-family="sans-serif" font-weight="bold" font-size="12" text-anchor="end" dominant-baseline="middle" transform="rotate(90 500 80)">jax</text>
  <text x="535" y="80" fill="white" font-family="sans-serif" font-weight="bold" font-size="12" text-anchor="end" dominant-baseline="middle" transform="rotate(90 535 80)">manual</text>
  <text x="570" y="80" fill="white" font-family="sans-serif" font-weight="bold" font-size="12" text-anchor="end" dominant-baseline="middle" transform="rotate(90 570 80)">mooncake-jl</text>
  <text x="605" y="80" fill="white" font-family="sans-serif" font-weight="bold" font-size="12" text-anchor="end" dominant-baseline="middle" transform="rotate(90 605 80)">ocaml</text>
  <text x="640" y="80" fill="white" font-family="sans-serif" font-weight="bold" font-size="12" text-anchor="end" dominant-baseline="middle" transform="rotate(90 640 80)">pytorch</text>
  <text x="675" y="80" fill="white" font-family="sans-serif" font-weight="bold" font-size="12" text-anchor="end" dominant-baseline="middle" transform="rotate(90 675 80)">reversediff-jl</text>
  <text x="710" y="80" fill="white" font-family="sans-serif" font-weight="bold" font-size="12" text-anchor="end" dominant-baseline="middle" transform="rotate(90 710 80)">scilean</text>
  <text x="745" y="80" fill="white" font-family="sans-serif" font-weight="bold" font-size="12" text-anchor="end" dominant-baseline="middle" transform="rotate(90 745 80)">tapenade</text>
  <text x="780" y="80" fill="white" font-family="sans-serif" font-weight="bold" font-size="12" text-anchor="end" dominant-baseline="middle" transform="rotate(90 780 80)">tensorflow</text>
  <text x="815" y="80" fill="white" font-family="sans-serif" font-weight="bold" font-size="12" text-anchor="end" dominant-baseline="middle" transform="rotate(90 815 80)">tensorflow-js</text>
  <text x="850" y="80" fill="white" font-family="sans-serif" font-weight="bold" font-size="12" text-anchor="end" dominant-baseline="middle" transform="rotate(90 850 80)">zygote</text>
  <rect x="65" y="85" width="30" height="30" fill="hsl(240 100% 80.74827854348759%)" />
  <rect x="100" y="85" width="30" height="30" fill="hsl(240 100% 82.21294977788213%)" />
  <rect x="135" y="85" width="30" height="30" fill="hsl(240 100% 97.92800316950557%)" />
  <rect x="170" y="85" width="30" height="30" fill="hsl(240 100% 81.74983128765123%)" />
  <rect x="205" y="85" width="30" height="30" fill="hsl(240 100% 98.95229619465944%)" />
  <rect x="240" y="85" width="30" height="30" fill="hsl(240 100% 50%)" />
  <rect x="310" y="85" width="30" height="30" fill="hsl(240 100% 92.90149478461844%)" />
  <rect x="415" y="85" width="30" height="30" fill="hsl(240 100% 67.2572193361284%)" />
  <rect x="520" y="85" width="30" height="30" fill="hsl(240 100% 54.00023882158183%)" />
  <rect x="625" y="85" width="30" height="30" fill="rgb(255 255 255 / 50%)" />
  <rect x="730" y="85" width="30" height="30" fill="hsl(240 100% 74.02505189265875%)" />
  <rect x="765" y="85" width="30" height="30" fill="rgb(255 255 255 / 50%)" />
  <rect x="835" y="85" width="30" height="30" fill="hsl(240 100% 99.7249740674972%)" />
  <rect x="65" y="120" width="30" height="30" fill="hsl(240 100% 50%)" />
  <rect x="100" y="120" width="30" height="30" fill="hsl(240 100% 82.76637074214398%)" />
  <rect x="135" y="120" width="30" height="30" fill="hsl(240 100% 85.60678356169777%)" />
  <rect x="170" y="120" width="30" height="30" fill="hsl(240 100% 52.49131296174089%)" />
  <rect x="205" y="120" width="30" height="30" fill="hsl(240 100% 92.6682626323446%)" />
  <rect x="240" y="120" width="30" height="30" fill="hsl(240 100% 91.56599763229616%)" />
  <rect x="275" y="120" width="30" height="30" fill="hsl(240 100% 99.37231189042159%)" />
  <rect x="310" y="120" width="30" height="30" fill="hsl(240 100% 98.99623384981847%)" />
  <rect x="380" y="120" width="30" height="30" fill="hsl(240 100% 93.35313655630141%)" />
  <rect x="415" y="120" width="30" height="30" fill="hsl(240 100% 94.61457543267855%)" />
  <rect x="450" y="120" width="30" height="30" fill="hsl(240 100% 97.88083087633835%)" />
  <rect x="520" y="120" width="30" height="30" fill="hsl(240 100% 79.661340313911%)" />
  <rect x="555" y="120" width="30" height="30" fill="hsl(240 100% 90.38054298768817%)" />
  <rect x="660" y="120" width="30" height="30" fill="rgb(255 255 255 / 50%)" />
  <rect x="835" y="120" width="30" height="30" fill="rgb(255 255 255 / 50%)" />
  <rect x="65" y="155" width="30" height="30" fill="hsl(240 100% 98.50188522559378%)" />
  <rect x="100" y="155" width="30" height="30" fill="hsl(240 100% 98.82254727502519%)" />
  <rect x="135" y="155" width="30" height="30" fill="hsl(240 100% 99.10224821729773%)" />
  <rect x="170" y="155" width="30" height="30" fill="hsl(240 100% 97.97564861043938%)" />
  <rect x="205" y="155" width="30" height="30" fill="hsl(240 100% 99.84735757492291%)" />
  <rect x="240" y="155" width="30" height="30" fill="hsl(240 100% 91.02260017442502%)" />
  <rect x="275" y="155" width="30" height="30" fill="hsl(240 100% 92.72234872717358%)" />
  <rect x="310" y="155" width="30" height="30" fill="rgb(255 255 255 / 50%)" />
  <rect x="415" y="155" width="30" height="30" fill="hsl(240 100% 92.86758010154806%)" />
  <rect x="485" y="155" width="30" height="30" fill="hsl(240 100% 50%)" />
  <rect x="520" y="155" width="30" height="30" fill="hsl(240 100% 81.3592054376345%)" />
  <rect x="590" y="155" width="30" height="30" fill="hsl(240 100% 99.57825983883494%)" />
  <rect x="625" y="155" width="30" height="30" fill="hsl(240 100% 66.77782881123534%)" />
  <rect x="695" y="155" width="30" height="30" fill="hsl(240 100% 95.13614909235775%)" />
  <rect x="730" y="155" width="30" height="30" fill="hsl(240 100% 83.57718058972296%)" />
  <rect x="765" y="155" width="30" height="30" fill="hsl(240 100% 99.58498225984661%)" />
  <rect x="835" y="155" width="30" height="30" fill="hsl(240 100% 96.15108316838636%)" />
  <rect x="65" y="190" width="30" height="30" fill="hsl(240 100% 50%)" />
  <rect x="100" y="190" width="30" height="30" fill="hsl(240 100% 50%)" />
  <rect x="135" y="190" width="30" height="30" fill="hsl(240 100% 50%)" />
  <rect x="170" y="190" width="30" height="30" fill="hsl(240 100% 50%)" />
  <rect x="205" y="190" width="30" height="30" fill="hsl(240 100% 50%)" />
  <rect x="240" y="190" width="30" height="30" fill="hsl(240 100% 50%)" />
  <rect x="275" y="190" width="30" height="30" fill="hsl(240 100% 50%)" />
  <rect x="310" y="190" width="30" height="30" fill="hsl(240 100% 50%)" />
  <rect x="345" y="190" width="30" height="30" fill="hsl(240 100% 50%)" />
  <rect x="380" y="190" width="30" height="30" fill="hsl(240 100% 50%)" />
  <rect x="415" y="190" width="30" height="30" fill="hsl(240 100% 50%)" />
  <rect x="450" y="190" width="30" height="30" fill="hsl(240 100% 50%)" />
  <rect x="485" y="190" width="30" height="30" fill="hsl(240 100% 50%)" />
  <rect x="520" y="190" width="30" height="30" fill="hsl(240 100% 50%)" />
  <rect x="555" y="190" width="30" height="30" fill="hsl(240 100% 50%)" />
  <rect x="590" y="190" width="30" height="30" fill="hsl(240 100% 50%)" />
  <rect x="625" y="190" width="30" height="30" fill="hsl(240 100% 50%)" />
  <rect x="660" y="190" width="30" height="30" fill="hsl(240 100% 50%)" />
  <rect x="695" y="190" width="30" height="30" fill="hsl(240 100% 50%)" />
  <rect x="730" y="190" width="30" height="30" fill="hsl(240 100% 50%)" />
  <rect x="765" y="190" width="30" height="30" fill="hsl(240 100% 50%)" />
  <rect x="800" y="190" width="30" height="30" fill="hsl(240 100% 50%)" />
  <rect x="835" y="190" width="30" height="30" fill="hsl(240 100% 50%)" />
  <rect x="100" y="225" width="30" height="30" fill="hsl(240 100% 96.28264502210033%)" />
  <rect x="135" y="225" width="30" height="30" fill="hsl(240 100% 88.30837632504185%)" />
  <rect x="170" y="225" width="30" height="30" fill="hsl(240 100% 87.89467512753377%)" />
  <rect x="240" y="225" width="30" height="30" fill="hsl(240 100% 90.24159094608918%)" />
  <rect x="310" y="225" width="30" height="30" fill="rgb(255 255 255 / 50%)" />
  <rect x="415" y="225" width="30" height="30" fill="hsl(240 100% 89.33652478849586%)" />
  <rect x="520" y="225" width="30" height="30" fill="hsl(240 100% 50%)" />
  <rect x="625" y="225" width="30" height="30" fill="rgb(255 255 255 / 50%)" />
  <rect x="730" y="225" width="30" height="30" fill="hsl(240 100% 92.37322863089355%)" />
  <rect x="765" y="225" width="30" height="30" fill="rgb(255 255 255 / 50%)" />
  <rect x="835" y="225" width="30" height="30" fill="hsl(240 100% 93.63331484925969%)" />
  <rect x="65" y="260" width="30" height="30" fill="hsl(240 100% 99.82376342439404%)" />
  <rect x="135" y="260" width="30" height="30" fill="hsl(240 100% 99.86208042143767%)" />
  <rect x="170" y="260" width="30" height="30" fill="hsl(240 100% 98.91839812211093%)" />
  <rect x="205" y="260" width="30" height="30" fill="rgb(255 255 255 / 50%)" />
  <rect x="240" y="260" width="30" height="30" fill="hsl(240 100% 87.41518229200832%)" />
  <rect x="310" y="260" width="30" height="30" fill="rgb(255 255 255 / 50%)" />
  <rect x="415" y="260" width="30" height="30" fill="hsl(240 100% 80.8972512418047%)" />
  <rect x="450" y="260" width="30" height="30" fill="rgb(255 255 255 / 50%)" />
  <rect x="485" y="260" width="30" height="30" fill="hsl(240 100% 50%)" />
  <rect x="520" y="260" width="30" height="30" fill="hsl(240 100% 73.32179660631935%)" />
  <rect x="625" y="260" width="30" height="30" fill="hsl(240 100% 97.02047315421729%)" />
  <rect x="695" y="260" width="30" height="30" fill="hsl(240 100% 94.19969217286894%)" />
  <rect x="65" y="295" width="30" height="30" fill="hsl(240 100% 85.99566750555174%)" />
  <rect x="100" y="295" width="30" height="30" fill="hsl(240 100% 97.49822431385194%)" />
  <rect x="135" y="295" width="30" height="30" fill="hsl(240 100% 94.99577539352853%)" />
  <rect x="170" y="295" width="30" height="30" fill="hsl(240 100% 89.26714865747638%)" />
  <rect x="205" y="295" width="30" height="30" fill="hsl(240 100% 99.48303801731899%)" />
  <rect x="240" y="295" width="30" height="30" fill="hsl(240 100% 50.544944512643035%)" />
  <rect x="275" y="295" width="30" height="30" fill="hsl(240 100% 50%)" />
  <rect x="310" y="295" width="30" height="30" fill="hsl(240 100% 99.4984461742769%)" />
  <rect x="345" y="295" width="30" height="30" fill="hsl(240 100% 94.68708761881398%)" />
  <rect x="415" y="295" width="30" height="30" fill="hsl(240 100% 55.18078630324883%)" />
  <rect x="450" y="295" width="30" height="30" fill="hsl(240 100% 99.323704791784%)" />
  <rect x="485" y="295" width="30" height="30" fill="hsl(240 100% 88.27642924425766%)" />
  <rect x="520" y="295" width="30" height="30" fill="hsl(240 100% 57.7822057426288%)" />
  <rect x="695" y="295" width="30" height="30" fill="hsl(240 100% 97.60272387007436%)" />
  <rect x="800" y="295" width="30" height="30" fill="hsl(240 100% 99.57553375546576%)" />
  <rect x="835" y="295" width="30" height="30" fill="hsl(240 100% 99.9548361349741%)" />
  <rect x="65" y="330" width="30" height="30" fill="hsl(240 100% 87.41356279309537%)" />
  <rect x="100" y="330" width="30" height="30" fill="hsl(240 100% 94.34904162282018%)" />
  <rect x="135" y="330" width="30" height="30" fill="hsl(240 100% 96.98347804684937%)" />
  <rect x="170" y="330" width="30" height="30" fill="hsl(240 100% 86.88807966692127%)" />
  <rect x="205" y="330" width="30" height="30" fill="hsl(240 100% 99.20775165588778%)" />
  <rect x="240" y="330" width="30" height="30" fill="hsl(240 100% 79.70919012738919%)" />
  <rect x="275" y="330" width="30" height="30" fill="hsl(240 100% 87.8456074506278%)" />
  <rect x="310" y="330" width="30" height="30" fill="rgb(255 255 255 / 50%)" />
  <rect x="345" y="330" width="30" height="30" fill="hsl(240 100% 97.2126170069075%)" />
  <rect x="415" y="330" width="30" height="30" fill="hsl(240 100% 85.65121908512036%)" />
  <rect x="450" y="330" width="30" height="30" fill="hsl(240 100% 99.81736374599892%)" />
  <rect x="485" y="330" width="30" height="30" fill="hsl(240 100% 71.08375530494078%)" />
  <rect x="520" y="330" width="30" height="30" fill="hsl(240 100% 70.7356079796469%)" />
  <rect x="590" y="330" width="30" height="30" fill="hsl(240 100% 93.7393762344768%)" />
  <rect x="625" y="330" width="30" height="30" fill="hsl(240 100% 50%)" />
  <rect x="765" y="330" width="30" height="30" fill="hsl(240 100% 94.7894231020799%)" />
  <rect x="800" y="330" width="30" height="30" fill="hsl(240 100% 99.20659152769284%)" />
  <rect x="835" y="330" width="30" height="30" fill="hsl(240 100% 80.89360605060435%)" />
  <rect x="65" y="365" width="30" height="30" fill="hsl(240 100% 56.810734412062594%)" />
  <rect x="100" y="365" width="30" height="30" fill="hsl(240 100% 70.9768050715188%)" />
  <rect x="135" y="365" width="30" height="30" fill="hsl(240 100% 81.83577539886458%)" />
  <rect x="170" y="365" width="30" height="30" fill="hsl(240 100% 50%)" />
  <rect x="205" y="365" width="30" height="30" fill="hsl(240 100% 96.01092299000325%)" />
  <rect x="240" y="365" width="30" height="30" fill="hsl(240 100% 59.10447552881452%)" />
  <rect x="275" y="365" width="30" height="30" fill="hsl(240 100% 92.21007585598392%)" />
  <rect x="310" y="365" width="30" height="30" fill="hsl(240 100% 99.86060067207275%)" />
  <rect x="415" y="365" width="30" height="30" fill="hsl(240 100% 66.44322453387886%)" />
  <rect x="520" y="365" width="30" height="30" fill="hsl(240 100% 85.99668765343138%)" />
  <rect x="625" y="365" width="30" height="30" fill="hsl(240 100% 99.62721647931193%)" />
  <rect x="730" y="365" width="30" height="30" fill="hsl(240 100% 63.2063626639014%)" />
  <rect x="765" y="365" width="30" height="30" fill="hsl(240 100% 98.21704246520953%)" />
  <rect x="835" y="365" width="30" height="30" fill="hsl(240 100% 98.84363670847068%)" />
  <rect x="65" y="400" width="30" height="30" fill="hsl(240 100% 98.21703620385489%)" />
  <rect x="100" y="400" width="30" height="30" fill="hsl(240 100% 99.43020370780432%)" />
  <rect x="135" y="400" width="30" height="30" fill="hsl(240 100% 99.68922737165747%)" />
  <rect x="170" y="400" width="30" height="30" fill="hsl(240 100% 94.05415630218987%)" />
  <rect x="205" y="400" width="30" height="30" fill="hsl(240 100% 99.25244657456867%)" />
  <rect x="240" y="400" width="30" height="30" fill="hsl(240 100% 86.1310329170448%)" />
  <rect x="275" y="400" width="30" height="30" fill="hsl(240 100% 95.4778977076249%)" />
  <rect x="310" y="400" width="30" height="30" fill="rgb(255 255 255 / 50%)" />
  <rect x="380" y="400" width="30" height="30" fill="rgb(255 255 255 / 50%)" />
  <rect x="415" y="400" width="30" height="30" fill="hsl(240 100% 94.11901729024521%)" />
  <rect x="450" y="400" width="30" height="30" fill="hsl(240 100% 99.97055788451522%)" />
  <rect x="485" y="400" width="30" height="30" fill="hsl(240 100% 78.87465688571446%)" />
  <rect x="520" y="400" width="30" height="30" fill="hsl(240 100% 50%)" />
  <rect x="555" y="400" width="30" height="30" fill="hsl(240 100% 99.14167363610991%)" />
  <rect x="660" y="400" width="30" height="30" fill="rgb(255 255 255 / 50%)" />
  <rect x="835" y="400" width="30" height="30" fill="hsl(240 100% 99.06394263441423%)" />
  <rect x="65" y="435" width="30" height="30" fill="hsl(240 100% 93.30673885012884%)" />
  <rect x="240" y="435" width="30" height="30" fill="hsl(240 100% 50%)" />
  <rect x="310" y="435" width="30" height="30" fill="hsl(240 100% 93.8512510958676%)" />
  <rect x="415" y="435" width="30" height="30" fill="hsl(240 100% 87.0094824649151%)" />
  <rect x="450" y="435" width="30" height="30" fill="hsl(240 100% 99.78332721821228%)" />
  <rect x="65" y="470" width="30" height="30" fill="hsl(240 100% 50.083549519304135%)" />
  <rect x="240" y="470" width="30" height="30" fill="hsl(240 100% 50%)" />
  <rect x="310" y="470" width="30" height="30" fill="hsl(240 100% 96.97202710405364%)" />
  <rect x="415" y="470" width="30" height="30" fill="hsl(240 100% 89.11203063986302%)" />
  <rect x="450" y="470" width="30" height="30" fill="hsl(240 100% 99.56623843334812%)" />
</svg>
