<svg xmlns="http://www.w3.org/2000/svg" viewBox="0 0 870 505">
  <rect x="0" y="0" width="870" height="505" rx="5" ry="5" fill="#222" />
  <text x="60" y="100" fill="white" font-family="sans-serif" font-weight="bold" font-size="12" text-anchor="end" dominant-baseline="middle">ba</text>
  <text x="60" y="135" fill="white" font-family="sans-serif" font-weight="bold" font-size="12" text-anchor="end" dominant-baseline="middle">det</text>
  <text x="60" y="170" fill="white" font-family="sans-serif" font-weight="bold" font-size="12" text-anchor="end" dominant-baseline="middle">gmm</text>
  <text x="60" y="205" fill="white" font-family="sans-serif" font-weight="bold" font-size="12" text-anchor="end" dominant-baseline="middle">hello</text>
  <text x="60" y="240" fill="white" font-family="sans-serif" font-weight="bold" font-size="12" text-anchor="end" dominant-baseline="middle">ht</text>
  <text x="60" y="275" fill="white" font-family="sans-serif" font-weight="bold" font-size="12" text-anchor="end" dominant-baseline="middle">kmeans</text>
  <text x="60" y="310" fill="white" font-family="sans-serif" font-weight="bold" font-size="12" text-anchor="end" dominant-baseline="middle">llsq</text>
  <text x="60" y="345" fill="white" font-family="sans-serif" font-weight="bold" font-size="12" text-anchor="end" dominant-baseline="middle">lse</text>
  <text x="60" y="380" fill="white" font-family="sans-serif" font-weight="bold" font-size="12" text-anchor="end" dominant-baseline="middle">lstm</text>
  <text x="60" y="415" fill="white" font-family="sans-serif" font-weight="bold" font-size="12" text-anchor="end" dominant-baseline="middle">ode</text>
  <text x="60" y="450" fill="white" font-family="sans-serif" font-weight="bold" font-size="12" text-anchor="end" dominant-baseline="middle">particle</text>
  <text x="60" y="485" fill="white" font-family="sans-serif" font-weight="bold" font-size="12" text-anchor="end" dominant-baseline="middle">saddle</text>
  <text x="80" y="80" fill="white" font-family="sans-serif" font-weight="bold" font-size="12" text-anchor="end" dominant-baseline="middle" transform="rotate(90 80 80)">ad-hpp</text>
  <text x="115" y="80" fill="white" font-family="sans-serif" font-weight="bold" font-size="12" text-anchor="end" dominant-baseline="middle" transform="rotate(90 115 80)">adept</text>
  <text x="150" y="80" fill="white" font-family="sans-serif" font-weight="bold" font-size="12" text-anchor="end" dominant-baseline="middle" transform="rotate(90 150 80)">adol-c</text>
  <text x="185" y="80" fill="white" font-family="sans-serif" font-weight="bold" font-size="12" text-anchor="end" dominant-baseline="middle" transform="rotate(90 185 80)">codipack</text>
  <text x="220" y="80" fill="white" font-family="sans-serif" font-weight="bold" font-size="12" text-anchor="end" dominant-baseline="middle" transform="rotate(90 220 80)">cppad</text>
  <text x="255" y="80" fill="white" font-family="sans-serif" font-weight="bold" font-size="12" text-anchor="end" dominant-baseline="middle" transform="rotate(90 255 80)">enzyme</text>
  <text x="290" y="80" fill="white" font-family="sans-serif" font-weight="bold" font-size="12" text-anchor="end" dominant-baseline="middle" transform="rotate(90 290 80)">enzyme-jl</text>
  <text x="325" y="80" fill="white" font-family="sans-serif" font-weight="bold" font-size="12" text-anchor="end" dominant-baseline="middle" transform="rotate(90 325 80)">finite</text>
  <text x="360" y="80" fill="white" font-family="sans-serif" font-weight="bold" font-size="12" text-anchor="end" dominant-baseline="middle" transform="rotate(90 360 80)">floretta</text>
  <text x="395" y="80" fill="white" font-family="sans-serif" font-weight="bold" font-size="12" text-anchor="end" dominant-baseline="middle" transform="rotate(90 395 80)">forwarddiff-jl</text>
  <text x="430" y="80" fill="white" font-family="sans-serif" font-weight="bold" font-size="12" text-anchor="end" dominant-baseline="middle" transform="rotate(90 430 80)">futhark</text>
  <text x="465" y="80" fill="white" font-family="sans-serif" font-weight="bold" font-size="12" text-anchor="end" dominant-baseline="middle" transform="rotate(90 465 80)">haskell</text>
  <text x="500" y="80" fill="white" font-family="sans-serif" font-weight="bold" font-size="12" text-anchor="end" dominant-baseline="middle" transform="rotate(90 500 80)">jax</text>
  <text x="535" y="80" fill="white" font-family="sans-serif" font-weight="bold" font-size="12" text-anchor="end" dominant-baseline="middle" transform="rotate(90 535 80)">manual</text>
  <text x="570" y="80" fill="white" font-family="sans-serif" font-weight="bold" font-size="12" text-anchor="end" dominant-baseline="middle" transform="rotate(90 570 80)">mooncake-jl</text>
  <text x="605" y="80" fill="white" font-family="sans-serif" font-weight="bold" font-size="12" text-anchor="end" dominant-baseline="middle" transform="rotate(90 605 80)">ocaml</text>
  <text x="640" y="80" fill="white" font-family="sans-serif" font-weight="bold" font-size="12" text-anchor="end" dominant-baseline="middle" transform="rotate(90 640 80)">pytorch</text>
  <text x="675" y="80" fill="white" font-family="sans-serif" font-weight="bold" font-size="12" text-anchor="end" dominant-baseline="middle" transform="rotate(90 675 80)">reversediff-jl</text>
  <text x="710" y="80" fill="white" font-family="sans-serif" font-weight="bold" font-size="12" text-anchor="end" dominant-baseline="middle" transform="rotate(90 710 80)">scilean</text>
  <text x="745" y="80" fill="white" font-family="sans-serif" font-weight="bold" font-size="12" text-anchor="end" dominant-baseline="middle" transform="rotate(90 745 80)">tapenade</text>
  <text x="780" y="80" fill="white" font-family="sans-serif" font-weight="bold" font-size="12" text-anchor="end" dominant-baseline="middle" transform="rotate(90 780 80)">tensorflow</text>
  <text x="815" y="80" fill="white" font-family="sans-serif" font-weight="bold" font-size="12" text-anchor="end" dominant-baseline="middle" transform="rotate(90 815 80)">tensorflow-js</text>
  <text x="850" y="80" fill="white" font-family="sans-serif" font-weight="bold" font-size="12" text-anchor="end" dominant-baseline="middle" transform="rotate(90 850 80)">zygote</text>
  <rect x="65" y="85" width="30" height="30" fill="hsl(240 100% 80.66191713019111%)" />
  <rect x="100" y="85" width="30" height="30" fill="hsl(240 100% 82.26978921143713%)" />
  <rect x="135" y="85" width="30" height="30" fill="hsl(240 100% 97.90107225430253%)" />
  <rect x="170" y="85" width="30" height="30" fill="hsl(240 100% 81.51378151458542%)" />
  <rect x="205" y="85" width="30" height="30" fill="hsl(240 100% 98.94822261336633%)" />
  <rect x="240" y="85" width="30" height="30" fill="hsl(240 100% 50%)" />
  <rect x="310" y="85" width="30" height="30" fill="hsl(240 100% 92.87944903495477%)" />
  <rect x="415" y="85" width="30" height="30" fill="hsl(240 100% 66.95271567286164%)" />
  <rect x="520" y="85" width="30" height="30" fill="hsl(240 100% 54.29752133099984%)" />
  <rect x="625" y="85" width="30" height="30" fill="rgb(255 255 255 / 50%)" />
  <rect x="730" y="85" width="30" height="30" fill="hsl(240 100% 73.96654374679133%)" />
  <rect x="765" y="85" width="30" height="30" fill="rgb(255 255 255 / 50%)" />
  <rect x="835" y="85" width="30" height="30" fill="hsl(240 100% 99.72413394062784%)" />
  <rect x="65" y="120" width="30" height="30" fill="hsl(240 100% 50%)" />
  <rect x="100" y="120" width="30" height="30" fill="hsl(240 100% 83.25012753273523%)" />
  <rect x="135" y="120" width="30" height="30" fill="hsl(240 100% 85.49246553584905%)" />
  <rect x="170" y="120" width="30" height="30" fill="hsl(240 100% 52.23475467581903%)" />
  <rect x="205" y="120" width="30" height="30" fill="hsl(240 100% 92.69266704510434%)" />
  <rect x="240" y="120" width="30" height="30" fill="hsl(240 100% 91.4850083070175%)" />
  <rect x="275" y="120" width="30" height="30" fill="hsl(240 100% 99.34283902470531%)" />
  <rect x="310" y="120" width="30" height="30" fill="hsl(240 100% 98.99592695605743%)" />
  <rect x="380" y="120" width="30" height="30" fill="hsl(240 100% 93.4796940463227%)" />
  <rect x="415" y="120" width="30" height="30" fill="hsl(240 100% 94.61814946511879%)" />
  <rect x="450" y="120" width="30" height="30" fill="hsl(240 100% 97.88881861482919%)" />
  <rect x="520" y="120" width="30" height="30" fill="hsl(240 100% 79.7496701881675%)" />
  <rect x="555" y="120" width="30" height="30" fill="hsl(240 100% 91.37772443795443%)" />
  <rect x="660" y="120" width="30" height="30" fill="rgb(255 255 255 / 50%)" />
  <rect x="835" y="120" width="30" height="30" fill="rgb(255 255 255 / 50%)" />
  <rect x="65" y="155" width="30" height="30" fill="hsl(240 100% 98.13796675142466%)" />
  <rect x="100" y="155" width="30" height="30" fill="hsl(240 100% 98.78980086503864%)" />
  <rect x="135" y="155" width="30" height="30" fill="hsl(240 100% 99.0688005667441%)" />
  <rect x="170" y="155" width="30" height="30" fill="hsl(240 100% 97.76591185500307%)" />
  <rect x="205" y="155" width="30" height="30" fill="hsl(240 100% 99.84593226741282%)" />
  <rect x="240" y="155" width="30" height="30" fill="hsl(240 100% 90.85095784241338%)" />
  <rect x="275" y="155" width="30" height="30" fill="hsl(240 100% 91.24774105022036%)" />
  <rect x="310" y="155" width="30" height="30" fill="rgb(255 255 255 / 50%)" />
  <rect x="415" y="155" width="30" height="30" fill="hsl(240 100% 92.72592494471418%)" />
  <rect x="485" y="155" width="30" height="30" fill="hsl(240 100% 50%)" />
  <rect x="520" y="155" width="30" height="30" fill="hsl(240 100% 80.43741265697541%)" />
  <rect x="590" y="155" width="30" height="30" fill="hsl(240 100% 99.5716024133468%)" />
  <rect x="625" y="155" width="30" height="30" fill="hsl(240 100% 65.64450569435623%)" />
  <rect x="695" y="155" width="30" height="30" fill="hsl(240 100% 95.3138444448427%)" />
  <rect x="730" y="155" width="30" height="30" fill="hsl(240 100% 83.20155509303525%)" />
  <rect x="765" y="155" width="30" height="30" fill="hsl(240 100% 99.57333094326118%)" />
  <rect x="835" y="155" width="30" height="30" fill="hsl(240 100% 96.20975773088608%)" />
  <rect x="65" y="190" width="30" height="30" fill="hsl(240 100% 50%)" />
  <rect x="100" y="190" width="30" height="30" fill="hsl(240 100% 50%)" />
  <rect x="135" y="190" width="30" height="30" fill="hsl(240 100% 50%)" />
  <rect x="170" y="190" width="30" height="30" fill="hsl(240 100% 50%)" />
  <rect x="205" y="190" width="30" height="30" fill="hsl(240 100% 50%)" />
  <rect x="240" y="190" width="30" height="30" fill="hsl(240 100% 50%)" />
  <rect x="275" y="190" width="30" height="30" fill="hsl(240 100% 50%)" />
  <rect x="310" y="190" width="30" height="30" fill="hsl(240 100% 50%)" />
  <rect x="345" y="190" width="30" height="30" fill="hsl(240 100% 50%)" />
  <rect x="380" y="190" width="30" height="30" fill="hsl(240 100% 50%)" />
  <rect x="415" y="190" width="30" height="30" fill="hsl(240 100% 50%)" />
  <rect x="450" y="190" width="30" height="30" fill="hsl(240 100% 50%)" />
  <rect x="485" y="190" width="30" height="30" fill="hsl(240 100% 50%)" />
  <rect x="520" y="190" width="30" height="30" fill="hsl(240 100% 50%)" />
  <rect x="555" y="190" width="30" height="30" fill="hsl(240 100% 50%)" />
  <rect x="590" y="190" width="30" height="30" fill="hsl(240 100% 50%)" />
  <rect x="625" y="190" width="30" height="30" fill="hsl(240 100% 50%)" />
  <rect x="660" y="190" width="30" height="30" fill="hsl(240 100% 50%)" />
  <rect x="695" y="190" width="30" height="30" fill="hsl(240 100% 50%)" />
  <rect x="730" y="190" width="30" height="30" fill="hsl(240 100% 50%)" />
  <rect x="765" y="190" width="30" height="30" fill="hsl(240 100% 50%)" />
  <rect x="800" y="190" width="30" height="30" fill="hsl(240 100% 50%)" />
  <rect x="835" y="190" width="30" height="30" fill="hsl(240 100% 50%)" />
  <rect x="100" y="225" width="30" height="30" fill="hsl(240 100% 96.37518475110372%)" />
  <rect x="135" y="225" width="30" height="30" fill="hsl(240 100% 86.59373161831523%)" />
  <rect x="170" y="225" width="30" height="30" fill="hsl(240 100% 88.30555471215023%)" />
  <rect x="240" y="225" width="30" height="30" fill="hsl(240 100% 90.28182772482694%)" />
  <rect x="310" y="225" width="30" height="30" fill="rgb(255 255 255 / 50%)" />
  <rect x="415" y="225" width="30" height="30" fill="hsl(240 100% 89.39158596369782%)" />
  <rect x="520" y="225" width="30" height="30" fill="hsl(240 100% 50%)" />
  <rect x="625" y="225" width="30" height="30" fill="rgb(255 255 255 / 50%)" />
  <rect x="730" y="225" width="30" height="30" fill="hsl(240 100% 92.40013492307041%)" />
  <rect x="765" y="225" width="30" height="30" fill="rgb(255 255 255 / 50%)" />
  <rect x="835" y="225" width="30" height="30" fill="hsl(240 100% 93.46507450086217%)" />
  <rect x="65" y="260" width="30" height="30" fill="hsl(240 100% 99.82081712690288%)" />
  <rect x="135" y="260" width="30" height="30" fill="hsl(240 100% 99.8602610611133%)" />
  <rect x="170" y="260" width="30" height="30" fill="hsl(240 100% 98.9166138721729%)" />
  <rect x="205" y="260" width="30" height="30" fill="rgb(255 255 255 / 50%)" />
  <rect x="240" y="260" width="30" height="30" fill="hsl(240 100% 87.22247884564527%)" />
  <rect x="310" y="260" width="30" height="30" fill="rgb(255 255 255 / 50%)" />
  <rect x="415" y="260" width="30" height="30" fill="hsl(240 100% 80.82574323029193%)" />
  <rect x="450" y="260" width="30" height="30" fill="rgb(255 255 255 / 50%)" />
  <rect x="485" y="260" width="30" height="30" fill="hsl(240 100% 50%)" />
  <rect x="520" y="260" width="30" height="30" fill="hsl(240 100% 72.6044664360133%)" />
  <rect x="625" y="260" width="30" height="30" fill="hsl(240 100% 97.19768133937066%)" />
  <rect x="695" y="260" width="30" height="30" fill="hsl(240 100% 94.16589211339912%)" />
  <rect x="65" y="295" width="30" height="30" fill="hsl(240 100% 86.58557187600996%)" />
  <rect x="100" y="295" width="30" height="30" fill="hsl(240 100% 97.57074826972718%)" />
  <rect x="135" y="295" width="30" height="30" fill="hsl(240 100% 95.07064818156584%)" />
  <rect x="170" y="295" width="30" height="30" fill="hsl(240 100% 89.39467066084217%)" />
  <rect x="205" y="295" width="30" height="30" fill="hsl(240 100% 99.48670296038188%)" />
  <rect x="240" y="295" width="30" height="30" fill="hsl(240 100% 50.886288096389784%)" />
  <rect x="275" y="295" width="30" height="30" fill="hsl(240 100% 50%)" />
  <rect x="310" y="295" width="30" height="30" fill="hsl(240 100% 99.50125985254051%)" />
  <rect x="345" y="295" width="30" height="30" fill="hsl(240 100% 94.78786578031736%)" />
  <rect x="415" y="295" width="30" height="30" fill="hsl(240 100% 55.412686569299105%)" />
  <rect x="450" y="295" width="30" height="30" fill="hsl(240 100% 99.31769580539132%)" />
  <rect x="485" y="295" width="30" height="30" fill="hsl(240 100% 88.06869487084954%)" />
  <rect x="520" y="295" width="30" height="30" fill="hsl(240 100% 58.01987652715472%)" />
  <rect x="695" y="295" width="30" height="30" fill="hsl(240 100% 97.61812264786207%)" />
  <rect x="800" y="295" width="30" height="30" fill="hsl(240 100% 99.5773936197319%)" />
  <rect x="835" y="295" width="30" height="30" fill="hsl(240 100% 99.95641448312918%)" />
  <rect x="65" y="330" width="30" height="30" fill="hsl(240 100% 86.50297434504995%)" />
  <rect x="100" y="330" width="30" height="30" fill="hsl(240 100% 93.80768626537%)" />
  <rect x="135" y="330" width="30" height="30" fill="hsl(240 100% 96.82077702362984%)" />
  <rect x="170" y="330" width="30" height="30" fill="hsl(240 100% 85.83444415760945%)" />
  <rect x="205" y="330" width="30" height="30" fill="hsl(240 100% 99.14194113541049%)" />
  <rect x="240" y="330" width="30" height="30" fill="hsl(240 100% 77.90117004782753%)" />
  <rect x="275" y="330" width="30" height="30" fill="hsl(240 100% 86.69661303183968%)" />
  <rect x="310" y="330" width="30" height="30" fill="rgb(255 255 255 / 50%)" />
  <rect x="345" y="330" width="30" height="30" fill="hsl(240 100% 96.99583089111083%)" />
  <rect x="415" y="330" width="30" height="30" fill="hsl(240 100% 84.72077852438568%)" />
  <rect x="450" y="330" width="30" height="30" fill="hsl(240 100% 99.78276055938919%)" />
  <rect x="485" y="330" width="30" height="30" fill="hsl(240 100% 69.47719939361814%)" />
  <rect x="520" y="330" width="30" height="30" fill="hsl(240 100% 68.42117347138915%)" />
  <rect x="590" y="330" width="30" height="30" fill="hsl(240 100% 93.30986415658849%)" />
  <rect x="625" y="330" width="30" height="30" fill="hsl(240 100% 50%)" />
  <rect x="765" y="330" width="30" height="30" fill="hsl(240 100% 94.13783908408186%)" />
  <rect x="800" y="330" width="30" height="30" fill="hsl(240 100% 99.14192716574277%)" />
  <rect x="835" y="330" width="30" height="30" fill="hsl(240 100% 80.25199096060338%)" />
  <rect x="65" y="365" width="30" height="30" fill="hsl(240 100% 57.566460307184606%)" />
  <rect x="100" y="365" width="30" height="30" fill="hsl(240 100% 71.12889548662805%)" />
  <rect x="135" y="365" width="30" height="30" fill="hsl(240 100% 81.73534980546638%)" />
  <rect x="170" y="365" width="30" height="30" fill="hsl(240 100% 50%)" />
  <rect x="205" y="365" width="30" height="30" fill="hsl(240 100% 96.05567380575013%)" />
  <rect x="240" y="365" width="30" height="30" fill="hsl(240 100% 59.05667010812678%)" />
  <rect x="275" y="365" width="30" height="30" fill="hsl(240 100% 92.29538071537584%)" />
  <rect x="310" y="365" width="30" height="30" fill="hsl(240 100% 99.85940558258606%)" />
  <rect x="415" y="365" width="30" height="30" fill="hsl(240 100% 66.29282220705716%)" />
  <rect x="520" y="365" width="30" height="30" fill="hsl(240 100% 86.00761314019017%)" />
  <rect x="625" y="365" width="30" height="30" fill="hsl(240 100% 99.62840566157709%)" />
  <rect x="730" y="365" width="30" height="30" fill="hsl(240 100% 63.06901966517146%)" />
  <rect x="765" y="365" width="30" height="30" fill="hsl(240 100% 98.11778390614475%)" />
  <rect x="835" y="365" width="30" height="30" fill="hsl(240 100% 98.69025523698339%)" />
  <rect x="65" y="400" width="30" height="30" fill="hsl(240 100% 98.02146081765582%)" />
  <rect x="100" y="400" width="30" height="30" fill="hsl(240 100% 99.38754258273322%)" />
  <rect x="135" y="400" width="30" height="30" fill="hsl(240 100% 99.63057287452058%)" />
  <rect x="170" y="400" width="30" height="30" fill="hsl(240 100% 93.74509701613772%)" />
  <rect x="205" y="400" width="30" height="30" fill="hsl(240 100% 99.18545493107175%)" />
  <rect x="240" y="400" width="30" height="30" fill="hsl(240 100% 85.11869113551936%)" />
  <rect x="275" y="400" width="30" height="30" fill="hsl(240 100% 94.95346066505668%)" />
  <rect x="310" y="400" width="30" height="30" fill="rgb(255 255 255 / 50%)" />
  <rect x="380" y="400" width="30" height="30" fill="rgb(255 255 255 / 50%)" />
  <rect x="415" y="400" width="30" height="30" fill="hsl(240 100% 93.59875007642738%)" />
  <rect x="450" y="400" width="30" height="30" fill="hsl(240 100% 99.96993469348236%)" />
  <rect x="485" y="400" width="30" height="30" fill="hsl(240 100% 77.13219354538359%)" />
  <rect x="520" y="400" width="30" height="30" fill="hsl(240 100% 50%)" />
  <rect x="555" y="400" width="30" height="30" fill="hsl(240 100% 99.04776491597144%)" />
  <rect x="660" y="400" width="30" height="30" fill="rgb(255 255 255 / 50%)" />
  <rect x="835" y="400" width="30" height="30" fill="hsl(240 100% 98.94272322999004%)" />
  <rect x="65" y="435" width="30" height="30" fill="hsl(240 100% 93.32780943223162%)" />
  <rect x="240" y="435" width="30" height="30" fill="hsl(240 100% 50%)" />
  <rect x="310" y="435" width="30" height="30" fill="hsl(240 100% 93.86067282728698%)" />
  <rect x="415" y="435" width="30" height="30" fill="hsl(240 100% 87.05025382497843%)" />
  <rect x="450" y="435" width="30" height="30" fill="hsl(240 100% 99.77978021418028%)" />
  <rect x="65" y="470" width="30" height="30" fill="hsl(240 100% 50%)" />
  <rect x="240" y="470" width="30" height="30" fill="hsl(240 100% 50.22420375231957%)" />
  <rect x="310" y="470" width="30" height="30" fill="hsl(240 100% 96.97883130025203%)" />
  <rect x="415" y="470" width="30" height="30" fill="hsl(240 100% 89.14844887663286%)" />
  <rect x="450" y="470" width="30" height="30" fill="hsl(240 100% 99.57462488575159%)" />
</svg>
