<svg xmlns="http://www.w3.org/2000/svg" viewBox="0 0 730 505">
  <rect x="0" y="0" width="730" height="505" rx="5" ry="5" fill="#222" />
  <text x="60" y="100" fill="white" font-family="sans-serif" font-weight="bold" font-size="12" text-anchor="end" dominant-baseline="middle">ba</text>
  <text x="60" y="135" fill="white" font-family="sans-serif" font-weight="bold" font-size="12" text-anchor="end" dominant-baseline="middle">det</text>
  <text x="60" y="170" fill="white" font-family="sans-serif" font-weight="bold" font-size="12" text-anchor="end" dominant-baseline="middle">gmm</text>
  <text x="60" y="205" fill="white" font-family="sans-serif" font-weight="bold" font-size="12" text-anchor="end" dominant-baseline="middle">hello</text>
  <text x="60" y="240" fill="white" font-family="sans-serif" font-weight="bold" font-size="12" text-anchor="end" dominant-baseline="middle">ht</text>
  <text x="60" y="275" fill="white" font-family="sans-serif" font-weight="bold" font-size="12" text-anchor="end" dominant-baseline="middle">kmeans</text>
  <text x="60" y="310" fill="white" font-family="sans-serif" font-weight="bold" font-size="12" text-anchor="end" dominant-baseline="middle">llsq</text>
  <text x="60" y="345" fill="white" font-family="sans-serif" font-weight="bold" font-size="12" text-anchor="end" dominant-baseline="middle">lse</text>
  <text x="60" y="380" fill="white" font-family="sans-serif" font-weight="bold" font-size="12" text-anchor="end" dominant-baseline="middle">lstm</text>
  <text x="60" y="415" fill="white" font-family="sans-serif" font-weight="bold" font-size="12" text-anchor="end" dominant-baseline="middle">ode</text>
  <text x="60" y="450" fill="white" font-family="sans-serif" font-weight="bold" font-size="12" text-anchor="end" dominant-baseline="middle">particle</text>
  <text x="60" y="485" fill="white" font-family="sans-serif" font-weight="bold" font-size="12" text-anchor="end" dominant-baseline="middle">saddle</text>
  <text x="80" y="80" fill="white" font-family="sans-serif" font-weight="bold" font-size="12" text-anchor="end" dominant-baseline="middle" transform="rotate(90 80 80)">ad-hpp</text>
  <text x="115" y="80" fill="white" font-family="sans-serif" font-weight="bold" font-size="12" text-anchor="end" dominant-baseline="middle" transform="rotate(90 115 80)">adept</text>
  <text x="150" y="80" fill="white" font-family="sans-serif" font-weight="bold" font-size="12" text-anchor="end" dominant-baseline="middle" transform="rotate(90 150 80)">adol-c</text>
  <text x="185" y="80" fill="white" font-family="sans-serif" font-weight="bold" font-size="12" text-anchor="end" dominant-baseline="middle" transform="rotate(90 185 80)">codipack</text>
  <text x="220" y="80" fill="white" font-family="sans-serif" font-weight="bold" font-size="12" text-anchor="end" dominant-baseline="middle" transform="rotate(90 220 80)">cppad</text>
  <text x="255" y="80" fill="white" font-family="sans-serif" font-weight="bold" font-size="12" text-anchor="end" dominant-baseline="middle" transform="rotate(90 255 80)">enzyme</text>
  <text x="290" y="80" fill="white" font-family="sans-serif" font-weight="bold" font-size="12" text-anchor="end" dominant-baseline="middle" transform="rotate(90 290 80)">enzyme-jl</text>
  <text x="325" y="80" fill="white" font-family="sans-serif" font-weight="bold" font-size="12" text-anchor="end" dominant-baseline="middle" transform="rotate(90 325 80)">finite</text>
  <text x="360" y="80" fill="white" font-family="sans-serif" font-weight="bold" font-size="12" text-anchor="end" dominant-baseline="middle" transform="rotate(90 360 80)">floretta</text>
  <text x="395" y="80" fill="white" font-family="sans-serif" font-weight="bold" font-size="12" text-anchor="end" dominant-baseline="middle" transform="rotate(90 395 80)">futhark</text>
  <text x="430" y="80" fill="white" font-family="sans-serif" font-weight="bold" font-size="12" text-anchor="end" dominant-baseline="middle" transform="rotate(90 430 80)">haskell</text>
  <text x="465" y="80" fill="white" font-family="sans-serif" font-weight="bold" font-size="12" text-anchor="end" dominant-baseline="middle" transform="rotate(90 465 80)">jax</text>
  <text x="500" y="80" fill="white" font-family="sans-serif" font-weight="bold" font-size="12" text-anchor="end" dominant-baseline="middle" transform="rotate(90 500 80)">manual</text>
  <text x="535" y="80" fill="white" font-family="sans-serif" font-weight="bold" font-size="12" text-anchor="end" dominant-baseline="middle" transform="rotate(90 535 80)">ocaml</text>
  <text x="570" y="80" fill="white" font-family="sans-serif" font-weight="bold" font-size="12" text-anchor="end" dominant-baseline="middle" transform="rotate(90 570 80)">pytorch</text>
  <text x="605" y="80" fill="white" font-family="sans-serif" font-weight="bold" font-size="12" text-anchor="end" dominant-baseline="middle" transform="rotate(90 605 80)">scilean</text>
  <text x="640" y="80" fill="white" font-family="sans-serif" font-weight="bold" font-size="12" text-anchor="end" dominant-baseline="middle" transform="rotate(90 640 80)">tapenade</text>
  <text x="675" y="80" fill="white" font-family="sans-serif" font-weight="bold" font-size="12" text-anchor="end" dominant-baseline="middle" transform="rotate(90 675 80)">tensorflow</text>
  <text x="710" y="80" fill="white" font-family="sans-serif" font-weight="bold" font-size="12" text-anchor="end" dominant-baseline="middle" transform="rotate(90 710 80)">zygote</text>
  <rect x="65" y="85" width="30" height="30" fill="hsl(240 100% 78.09328889856596%)" />
  <rect x="100" y="85" width="30" height="30" fill="hsl(240 100% 83.07031163261485%)" />
  <rect x="135" y="85" width="30" height="30" fill="hsl(240 100% 97.7878543343124%)" />
  <rect x="170" y="85" width="30" height="30" fill="hsl(240 100% 88.91689099824306%)" />
  <rect x="205" y="85" width="30" height="30" fill="hsl(240 100% 98.89095470938834%)" />
  <rect x="240" y="85" width="30" height="30" fill="hsl(240 100% 50%)" />
  <rect x="310" y="85" width="30" height="30" fill="hsl(240 100% 92.54337070211446%)" />
  <rect x="380" y="85" width="30" height="30" fill="hsl(240 100% 68.08507573795558%)" />
  <rect x="485" y="85" width="30" height="30" fill="hsl(240 100% 51.74306302879029%)" />
  <rect x="555" y="85" width="30" height="30" fill="rgb(255 255 255 / 50%)" />
  <rect x="625" y="85" width="30" height="30" fill="hsl(240 100% 72.20224491418712%)" />
  <rect x="660" y="85" width="30" height="30" fill="rgb(255 255 255 / 50%)" />
  <rect x="695" y="85" width="30" height="30" fill="hsl(240 100% 99.70504176372658%)" />
  <rect x="65" y="120" width="30" height="30" fill="hsl(240 100% 50%)" />
  <rect x="100" y="120" width="30" height="30" fill="hsl(240 100% 84.27438681747427%)" />
  <rect x="135" y="120" width="30" height="30" fill="hsl(240 100% 86.48506537370032%)" />
  <rect x="170" y="120" width="30" height="30" fill="hsl(240 100% 54.585787707010034%)" />
  <rect x="205" y="120" width="30" height="30" fill="hsl(240 100% 92.98643589018164%)" />
  <rect x="240" y="120" width="30" height="30" fill="hsl(240 100% 91.81870394199923%)" />
  <rect x="275" y="120" width="30" height="30" fill="hsl(240 100% 99.24756124577632%)" />
  <rect x="310" y="120" width="30" height="30" fill="hsl(240 100% 99.00782117539103%)" />
  <rect x="380" y="120" width="30" height="30" fill="hsl(240 100% 94.85072342040097%)" />
  <rect x="415" y="120" width="30" height="30" fill="hsl(240 100% 98.0109342526517%)" />
  <rect x="485" y="120" width="30" height="30" fill="hsl(240 100% 80.10320476781347%)" />
  <rect x="695" y="120" width="30" height="30" fill="rgb(255 255 255 / 50%)" />
  <rect x="65" y="155" width="30" height="30" fill="hsl(240 100% 97.21225299709852%)" />
  <rect x="100" y="155" width="30" height="30" fill="hsl(240 100% 98.36000547041218%)" />
  <rect x="135" y="155" width="30" height="30" fill="hsl(240 100% 98.81840843876918%)" />
  <rect x="170" y="155" width="30" height="30" fill="hsl(240 100% 97.24395934433825%)" />
  <rect x="205" y="155" width="30" height="30" fill="hsl(240 100% 99.77172091297263%)" />
  <rect x="240" y="155" width="30" height="30" fill="hsl(240 100% 86.82844194525552%)" />
  <rect x="275" y="155" width="30" height="30" fill="hsl(240 100% 99.82763259868139%)" />
  <rect x="310" y="155" width="30" height="30" fill="rgb(255 255 255 / 50%)" />
  <rect x="380" y="155" width="30" height="30" fill="hsl(240 100% 89.9702011731485%)" />
  <rect x="450" y="155" width="30" height="30" fill="hsl(240 100% 73.03120992796006%)" />
  <rect x="485" y="155" width="30" height="30" fill="hsl(240 100% 75.42638773559848%)" />
  <rect x="520" y="155" width="30" height="30" fill="hsl(240 100% 99.39435456719282%)" />
  <rect x="555" y="155" width="30" height="30" fill="hsl(240 100% 50%)" />
  <rect x="590" y="155" width="30" height="30" fill="hsl(240 100% 92.64092762910471%)" />
  <rect x="625" y="155" width="30" height="30" fill="hsl(240 100% 76.40686211323077%)" />
  <rect x="660" y="155" width="30" height="30" fill="hsl(240 100% 88.7254211562652%)" />
  <rect x="695" y="155" width="30" height="30" fill="hsl(240 100% 99.35766622074297%)" />
  <rect x="65" y="190" width="30" height="30" fill="hsl(240 100% 50%)" />
  <rect x="100" y="190" width="30" height="30" fill="hsl(240 100% 50%)" />
  <rect x="135" y="190" width="30" height="30" fill="hsl(240 100% 50%)" />
  <rect x="170" y="190" width="30" height="30" fill="hsl(240 100% 50%)" />
  <rect x="205" y="190" width="30" height="30" fill="hsl(240 100% 50%)" />
  <rect x="240" y="190" width="30" height="30" fill="hsl(240 100% 50%)" />
  <rect x="275" y="190" width="30" height="30" fill="hsl(240 100% 50%)" />
  <rect x="310" y="190" width="30" height="30" fill="hsl(240 100% 50%)" />
  <rect x="345" y="190" width="30" height="30" fill="hsl(240 100% 50%)" />
  <rect x="380" y="190" width="30" height="30" fill="hsl(240 100% 50%)" />
  <rect x="415" y="190" width="30" height="30" fill="hsl(240 100% 50%)" />
  <rect x="450" y="190" width="30" height="30" fill="hsl(240 100% 50%)" />
  <rect x="485" y="190" width="30" height="30" fill="hsl(240 100% 50%)" />
  <rect x="520" y="190" width="30" height="30" fill="hsl(240 100% 50%)" />
  <rect x="555" y="190" width="30" height="30" fill="hsl(240 100% 50%)" />
  <rect x="590" y="190" width="30" height="30" fill="hsl(240 100% 50%)" />
  <rect x="625" y="190" width="30" height="30" fill="hsl(240 100% 50%)" />
  <rect x="660" y="190" width="30" height="30" fill="hsl(240 100% 50%)" />
  <rect x="695" y="190" width="30" height="30" fill="hsl(240 100% 50%)" />
  <rect x="100" y="225" width="30" height="30" fill="hsl(240 100% 96.02814581397787%)" />
  <rect x="135" y="225" width="30" height="30" fill="hsl(240 100% 90.10613762413708%)" />
  <rect x="170" y="225" width="30" height="30" fill="hsl(240 100% 88.2916694530106%)" />
  <rect x="240" y="225" width="30" height="30" fill="hsl(240 100% 90.36405596731463%)" />
  <rect x="310" y="225" width="30" height="30" fill="rgb(255 255 255 / 50%)" />
  <rect x="380" y="225" width="30" height="30" fill="hsl(240 100% 89.63344442733168%)" />
  <rect x="485" y="225" width="30" height="30" fill="hsl(240 100% 50%)" />
  <rect x="555" y="225" width="30" height="30" fill="rgb(255 255 255 / 50%)" />
  <rect x="625" y="225" width="30" height="30" fill="rgb(255 255 255 / 50%)" />
  <rect x="660" y="225" width="30" height="30" fill="rgb(255 255 255 / 50%)" />
  <rect x="695" y="225" width="30" height="30" fill="hsl(240 100% 99.4179865164097%)" />
  <rect x="135" y="260" width="30" height="30" fill="hsl(240 100% 99.91030426819607%)" />
  <rect x="170" y="260" width="30" height="30" fill="hsl(240 100% 99.3933382001102%)" />
  <rect x="205" y="260" width="30" height="30" fill="rgb(255 255 255 / 50%)" />
  <rect x="240" y="260" width="30" height="30" fill="hsl(240 100% 87.76132465573087%)" />
  <rect x="310" y="260" width="30" height="30" fill="rgb(255 255 255 / 50%)" />
  <rect x="380" y="260" width="30" height="30" fill="hsl(240 100% 82.88806989297353%)" />
  <rect x="415" y="260" width="30" height="30" fill="rgb(255 255 255 / 50%)" />
  <rect x="450" y="260" width="30" height="30" fill="hsl(240 100% 50%)" />
  <rect x="485" y="260" width="30" height="30" fill="hsl(240 100% 76.30702270664295%)" />
  <rect x="555" y="260" width="30" height="30" fill="hsl(240 100% 96.95844141808553%)" />
  <rect x="590" y="260" width="30" height="30" fill="hsl(240 100% 94.05231903934661%)" />
  <rect x="65" y="295" width="30" height="30" fill="hsl(240 100% 58.62983772604239%)" />
  <rect x="100" y="295" width="30" height="30" fill="hsl(240 100% 67.28561409574161%)" />
  <rect x="135" y="295" width="30" height="30" fill="hsl(240 100% 59.059779168220594%)" />
  <rect x="170" y="295" width="30" height="30" fill="hsl(240 100% 59.92526693010129%)" />
  <rect x="205" y="295" width="30" height="30" fill="hsl(240 100% 91.62691251533586%)" />
  <rect x="240" y="295" width="30" height="30" fill="hsl(240 100% 50%)" />
  <rect x="275" y="295" width="30" height="30" fill="hsl(240 100% 98.89944787968577%)" />
  <rect x="310" y="295" width="30" height="30" fill="hsl(240 100% 99.42775493354142%)" />
  <rect x="380" y="295" width="30" height="30" fill="hsl(240 100% 50.55578247159245%)" />
  <rect x="415" y="295" width="30" height="30" fill="hsl(240 100% 89.7256281468483%)" />
  <rect x="485" y="295" width="30" height="30" fill="hsl(240 100% 53.928735499470015%)" />
  <rect x="590" y="295" width="30" height="30" fill="hsl(240 100% 55.34058316891681%)" />
  <rect x="695" y="295" width="30" height="30" fill="hsl(240 100% 99.73712437637661%)" />
  <rect x="65" y="330" width="30" height="30" fill="hsl(240 100% 90.33299519095284%)" />
  <rect x="100" y="330" width="30" height="30" fill="hsl(240 100% 95.22823547490904%)" />
  <rect x="135" y="330" width="30" height="30" fill="hsl(240 100% 97.4960814061405%)" />
  <rect x="170" y="330" width="30" height="30" fill="hsl(240 100% 90.41382397930781%)" />
  <rect x="205" y="330" width="30" height="30" fill="hsl(240 100% 99.28375418546608%)" />
  <rect x="240" y="330" width="30" height="30" fill="hsl(240 100% 82.10431474422094%)" />
  <rect x="275" y="330" width="30" height="30" fill="hsl(240 100% 99.84557017405609%)" />
  <rect x="310" y="330" width="30" height="30" fill="rgb(255 255 255 / 50%)" />
  <rect x="380" y="330" width="30" height="30" fill="hsl(240 100% 87.23172771118286%)" />
  <rect x="415" y="330" width="30" height="30" fill="hsl(240 100% 99.83501731862918%)" />
  <rect x="450" y="330" width="30" height="30" fill="hsl(240 100% 73.5910466755527%)" />
  <rect x="485" y="330" width="30" height="30" fill="hsl(240 100% 80.79901415985009%)" />
  <rect x="520" y="330" width="30" height="30" fill="hsl(240 100% 94.37991866382178%)" />
  <rect x="555" y="330" width="30" height="30" fill="hsl(240 100% 50%)" />
  <rect x="660" y="330" width="30" height="30" fill="hsl(240 100% 90.0673009202821%)" />
  <rect x="695" y="330" width="30" height="30" fill="hsl(240 100% 95.585298214912%)" />
  <rect x="65" y="365" width="30" height="30" fill="hsl(240 100% 53.237138216039384%)" />
  <rect x="100" y="365" width="30" height="30" fill="hsl(240 100% 69.16759415465202%)" />
  <rect x="135" y="365" width="30" height="30" fill="hsl(240 100% 80.90869886168437%)" />
  <rect x="170" y="365" width="30" height="30" fill="hsl(240 100% 50%)" />
  <rect x="205" y="365" width="30" height="30" fill="hsl(240 100% 95.7716846428944%)" />
  <rect x="240" y="365" width="30" height="30" fill="hsl(240 100% 50.116253368599715%)" />
  <rect x="275" y="365" width="30" height="30" fill="hsl(240 100% 98.89381368741914%)" />
  <rect x="310" y="365" width="30" height="30" fill="hsl(240 100% 99.84975226340558%)" />
  <rect x="380" y="365" width="30" height="30" fill="hsl(240 100% 63.16221076737889%)" />
  <rect x="485" y="365" width="30" height="30" fill="hsl(240 100% 84.6151916668268%)" />
  <rect x="555" y="365" width="30" height="30" fill="hsl(240 100% 99.60089943662423%)" />
  <rect x="625" y="365" width="30" height="30" fill="hsl(240 100% 59.52677916165126%)" />
  <rect x="660" y="365" width="30" height="30" fill="hsl(240 100% 98.03636022234828%)" />
  <rect x="695" y="365" width="30" height="30" fill="hsl(240 100% 99.19560382160954%)" />
  <rect x="65" y="400" width="30" height="30" fill="hsl(240 100% 97.93296534421772%)" />
  <rect x="100" y="400" width="30" height="30" fill="hsl(240 100% 99.20503119893179%)" />
  <rect x="135" y="400" width="30" height="30" fill="hsl(240 100% 99.55002230335289%)" />
  <rect x="170" y="400" width="30" height="30" fill="hsl(240 100% 93.71958987894548%)" />
  <rect x="205" y="400" width="30" height="30" fill="hsl(240 100% 98.96926505361816%)" />
  <rect x="240" y="400" width="30" height="30" fill="hsl(240 100% 85.61829642296867%)" />
  <rect x="275" y="400" width="30" height="30" fill="hsl(240 100% 98.9796233984381%)" />
  <rect x="310" y="400" width="30" height="30" fill="rgb(255 255 255 / 50%)" />
  <rect x="380" y="400" width="30" height="30" fill="hsl(240 100% 95.30856059120606%)" />
  <rect x="415" y="400" width="30" height="30" fill="hsl(240 100% 99.96173881522022%)" />
  <rect x="485" y="400" width="30" height="30" fill="hsl(240 100% 50%)" />
  <rect x="695" y="400" width="30" height="30" fill="hsl(240 100% 99.61534026887756%)" />
  <rect x="240" y="435" width="30" height="30" fill="hsl(240 100% 50%)" />
  <rect x="310" y="435" width="30" height="30" fill="hsl(240 100% 95.20695863612717%)" />
  <rect x="380" y="435" width="30" height="30" fill="hsl(240 100% 87.91043280490001%)" />
  <rect x="415" y="435" width="30" height="30" fill="hsl(240 100% 99.77974736411575%)" />
  <rect x="240" y="470" width="30" height="30" fill="hsl(240 100% 50%)" />
  <rect x="310" y="470" width="30" height="30" fill="hsl(240 100% 95.83720663450984%)" />
  <rect x="380" y="470" width="30" height="30" fill="hsl(240 100% 89.18412197291572%)" />
  <rect x="415" y="470" width="30" height="30" fill="hsl(240 100% 99.56877274196279%)" />
</svg>
