<svg xmlns="http://www.w3.org/2000/svg" viewBox="0 0 870 505">
  <rect x="0" y="0" width="870" height="505" rx="5" ry="5" fill="#222" />
  <text x="60" y="100" fill="white" font-family="sans-serif" font-weight="bold" font-size="12" text-anchor="end" dominant-baseline="middle">ba</text>
  <text x="60" y="135" fill="white" font-family="sans-serif" font-weight="bold" font-size="12" text-anchor="end" dominant-baseline="middle">det</text>
  <text x="60" y="170" fill="white" font-family="sans-serif" font-weight="bold" font-size="12" text-anchor="end" dominant-baseline="middle">gmm</text>
  <text x="60" y="205" fill="white" font-family="sans-serif" font-weight="bold" font-size="12" text-anchor="end" dominant-baseline="middle">hello</text>
  <text x="60" y="240" fill="white" font-family="sans-serif" font-weight="bold" font-size="12" text-anchor="end" dominant-baseline="middle">ht</text>
  <text x="60" y="275" fill="white" font-family="sans-serif" font-weight="bold" font-size="12" text-anchor="end" dominant-baseline="middle">kmeans</text>
  <text x="60" y="310" fill="white" font-family="sans-serif" font-weight="bold" font-size="12" text-anchor="end" dominant-baseline="middle">llsq</text>
  <text x="60" y="345" fill="white" font-family="sans-serif" font-weight="bold" font-size="12" text-anchor="end" dominant-baseline="middle">lse</text>
  <text x="60" y="380" fill="white" font-family="sans-serif" font-weight="bold" font-size="12" text-anchor="end" dominant-baseline="middle">lstm</text>
  <text x="60" y="415" fill="white" font-family="sans-serif" font-weight="bold" font-size="12" text-anchor="end" dominant-baseline="middle">ode</text>
  <text x="60" y="450" fill="white" font-family="sans-serif" font-weight="bold" font-size="12" text-anchor="end" dominant-baseline="middle">particle</text>
  <text x="60" y="485" fill="white" font-family="sans-serif" font-weight="bold" font-size="12" text-anchor="end" dominant-baseline="middle">saddle</text>
  <text x="80" y="80" fill="white" font-family="sans-serif" font-weight="bold" font-size="12" text-anchor="end" dominant-baseline="middle" transform="rotate(90 80 80)">ad-hpp</text>
  <text x="115" y="80" fill="white" font-family="sans-serif" font-weight="bold" font-size="12" text-anchor="end" dominant-baseline="middle" transform="rotate(90 115 80)">adept</text>
  <text x="150" y="80" fill="white" font-family="sans-serif" font-weight="bold" font-size="12" text-anchor="end" dominant-baseline="middle" transform="rotate(90 150 80)">adol-c</text>
  <text x="185" y="80" fill="white" font-family="sans-serif" font-weight="bold" font-size="12" text-anchor="end" dominant-baseline="middle" transform="rotate(90 185 80)">codipack</text>
  <text x="220" y="80" fill="white" font-family="sans-serif" font-weight="bold" font-size="12" text-anchor="end" dominant-baseline="middle" transform="rotate(90 220 80)">cppad</text>
  <text x="255" y="80" fill="white" font-family="sans-serif" font-weight="bold" font-size="12" text-anchor="end" dominant-baseline="middle" transform="rotate(90 255 80)">enzyme</text>
  <text x="290" y="80" fill="white" font-family="sans-serif" font-weight="bold" font-size="12" text-anchor="end" dominant-baseline="middle" transform="rotate(90 290 80)">enzyme-jl</text>
  <text x="325" y="80" fill="white" font-family="sans-serif" font-weight="bold" font-size="12" text-anchor="end" dominant-baseline="middle" transform="rotate(90 325 80)">finite</text>
  <text x="360" y="80" fill="white" font-family="sans-serif" font-weight="bold" font-size="12" text-anchor="end" dominant-baseline="middle" transform="rotate(90 360 80)">floretta</text>
  <text x="395" y="80" fill="white" font-family="sans-serif" font-weight="bold" font-size="12" text-anchor="end" dominant-baseline="middle" transform="rotate(90 395 80)">forwarddiff-jl</text>
  <text x="430" y="80" fill="white" font-family="sans-serif" font-weight="bold" font-size="12" text-anchor="end" dominant-baseline="middle" transform="rotate(90 430 80)">futhark</text>
  <text x="465" y="80" fill="white" font-family="sans-serif" font-weight="bold" font-size="12" text-anchor="end" dominant-baseline="middle" transform="rotate(90 465 80)">haskell</text>
  <text x="500" y="80" fill="white" font-family="sans-serif" font-weight="bold" font-size="12" text-anchor="end" dominant-baseline="middle" transform="rotate(90 500 80)">jax</text>
  <text x="535" y="80" fill="white" font-family="sans-serif" font-weight="bold" font-size="12" text-anchor="end" dominant-baseline="middle" transform="rotate(90 535 80)">manual</text>
  <text x="570" y="80" fill="white" font-family="sans-serif" font-weight="bold" font-size="12" text-anchor="end" dominant-baseline="middle" transform="rotate(90 570 80)">mooncake-jl</text>
  <text x="605" y="80" fill="white" font-family="sans-serif" font-weight="bold" font-size="12" text-anchor="end" dominant-baseline="middle" transform="rotate(90 605 80)">ocaml</text>
  <text x="640" y="80" fill="white" font-family="sans-serif" font-weight="bold" font-size="12" text-anchor="end" dominant-baseline="middle" transform="rotate(90 640 80)">pytorch</text>
  <text x="675" y="80" fill="white" font-family="sans-serif" font-weight="bold" font-size="12" text-anchor="end" dominant-baseline="middle" transform="rotate(90 675 80)">reversediff-jl</text>
  <text x="710" y="80" fill="white" font-family="sans-serif" font-weight="bold" font-size="12" text-anchor="end" dominant-baseline="middle" transform="rotate(90 710 80)">scilean</text>
  <text x="745" y="80" fill="white" font-family="sans-serif" font-weight="bold" font-size="12" text-anchor="end" dominant-baseline="middle" transform="rotate(90 745 80)">tapenade</text>
  <text x="780" y="80" fill="white" font-family="sans-serif" font-weight="bold" font-size="12" text-anchor="end" dominant-baseline="middle" transform="rotate(90 780 80)">tensorflow</text>
  <text x="815" y="80" fill="white" font-family="sans-serif" font-weight="bold" font-size="12" text-anchor="end" dominant-baseline="middle" transform="rotate(90 815 80)">tensorflow-js</text>
  <text x="850" y="80" fill="white" font-family="sans-serif" font-weight="bold" font-size="12" text-anchor="end" dominant-baseline="middle" transform="rotate(90 850 80)">zygote</text>
  <rect x="65" y="85" width="30" height="30" fill="hsl(240 100% 80.64759916111548%)" />
  <rect x="100" y="85" width="30" height="30" fill="hsl(240 100% 82.20049158784583%)" />
  <rect x="135" y="85" width="30" height="30" fill="hsl(240 100% 97.90898792143169%)" />
  <rect x="170" y="85" width="30" height="30" fill="hsl(240 100% 81.61306604240121%)" />
  <rect x="205" y="85" width="30" height="30" fill="hsl(240 100% 98.94939694253144%)" />
  <rect x="240" y="85" width="30" height="30" fill="hsl(240 100% 50%)" />
  <rect x="310" y="85" width="30" height="30" fill="hsl(240 100% 92.8772725258677%)" />
  <rect x="415" y="85" width="30" height="30" fill="hsl(240 100% 67.26558145719142%)" />
  <rect x="520" y="85" width="30" height="30" fill="hsl(240 100% 54.117676874556366%)" />
  <rect x="625" y="85" width="30" height="30" fill="rgb(255 255 255 / 50%)" />
  <rect x="730" y="85" width="30" height="30" fill="hsl(240 100% 74.24069216521957%)" />
  <rect x="765" y="85" width="30" height="30" fill="rgb(255 255 255 / 50%)" />
  <rect x="835" y="85" width="30" height="30" fill="hsl(240 100% 99.72854974435315%)" />
  <rect x="65" y="120" width="30" height="30" fill="hsl(240 100% 50%)" />
  <rect x="100" y="120" width="30" height="30" fill="hsl(240 100% 83.31328178937231%)" />
  <rect x="135" y="120" width="30" height="30" fill="hsl(240 100% 85.91408618470204%)" />
  <rect x="170" y="120" width="30" height="30" fill="hsl(240 100% 52.99368261610839%)" />
  <rect x="205" y="120" width="30" height="30" fill="hsl(240 100% 92.66156547585278%)" />
  <rect x="240" y="120" width="30" height="30" fill="hsl(240 100% 91.55505801318874%)" />
  <rect x="275" y="120" width="30" height="30" fill="hsl(240 100% 99.38077932691058%)" />
  <rect x="310" y="120" width="30" height="30" fill="hsl(240 100% 98.99561211489403%)" />
  <rect x="380" y="120" width="30" height="30" fill="hsl(240 100% 93.51736792136407%)" />
  <rect x="415" y="120" width="30" height="30" fill="hsl(240 100% 94.64211057582905%)" />
  <rect x="450" y="120" width="30" height="30" fill="hsl(240 100% 97.8695275617785%)" />
  <rect x="520" y="120" width="30" height="30" fill="hsl(240 100% 79.5683933413517%)" />
  <rect x="555" y="120" width="30" height="30" fill="hsl(240 100% 90.29713620627122%)" />
  <rect x="660" y="120" width="30" height="30" fill="rgb(255 255 255 / 50%)" />
  <rect x="835" y="120" width="30" height="30" fill="rgb(255 255 255 / 50%)" />
  <rect x="65" y="155" width="30" height="30" fill="hsl(240 100% 98.29092437462764%)" />
  <rect x="100" y="155" width="30" height="30" fill="hsl(240 100% 98.86805059877878%)" />
  <rect x="135" y="155" width="30" height="30" fill="hsl(240 100% 99.10423345880773%)" />
  <rect x="170" y="155" width="30" height="30" fill="hsl(240 100% 97.99710988670363%)" />
  <rect x="205" y="155" width="30" height="30" fill="hsl(240 100% 99.84857432088849%)" />
  <rect x="240" y="155" width="30" height="30" fill="hsl(240 100% 91.23597055869088%)" />
  <rect x="275" y="155" width="30" height="30" fill="hsl(240 100% 92.18895374358874%)" />
  <rect x="310" y="155" width="30" height="30" fill="rgb(255 255 255 / 50%)" />
  <rect x="415" y="155" width="30" height="30" fill="hsl(240 100% 92.91848703872105%)" />
  <rect x="485" y="155" width="30" height="30" fill="hsl(240 100% 50%)" />
  <rect x="520" y="155" width="30" height="30" fill="hsl(240 100% 80.97553124267951%)" />
  <rect x="590" y="155" width="30" height="30" fill="hsl(240 100% 99.58765101051603%)" />
  <rect x="625" y="155" width="30" height="30" fill="hsl(240 100% 67.82096416138991%)" />
  <rect x="695" y="155" width="30" height="30" fill="hsl(240 100% 95.05630792322853%)" />
  <rect x="730" y="155" width="30" height="30" fill="hsl(240 100% 83.60997887194935%)" />
  <rect x="765" y="155" width="30" height="30" fill="hsl(240 100% 99.57578303713133%)" />
  <rect x="835" y="155" width="30" height="30" fill="hsl(240 100% 96.24504564099675%)" />
  <rect x="65" y="190" width="30" height="30" fill="hsl(240 100% 50%)" />
  <rect x="100" y="190" width="30" height="30" fill="hsl(240 100% 50%)" />
  <rect x="135" y="190" width="30" height="30" fill="hsl(240 100% 50%)" />
  <rect x="170" y="190" width="30" height="30" fill="hsl(240 100% 50%)" />
  <rect x="205" y="190" width="30" height="30" fill="hsl(240 100% 50%)" />
  <rect x="240" y="190" width="30" height="30" fill="hsl(240 100% 50%)" />
  <rect x="275" y="190" width="30" height="30" fill="hsl(240 100% 50%)" />
  <rect x="310" y="190" width="30" height="30" fill="hsl(240 100% 50%)" />
  <rect x="345" y="190" width="30" height="30" fill="hsl(240 100% 50%)" />
  <rect x="380" y="190" width="30" height="30" fill="hsl(240 100% 50%)" />
  <rect x="415" y="190" width="30" height="30" fill="hsl(240 100% 50%)" />
  <rect x="450" y="190" width="30" height="30" fill="hsl(240 100% 50%)" />
  <rect x="485" y="190" width="30" height="30" fill="hsl(240 100% 50%)" />
  <rect x="520" y="190" width="30" height="30" fill="hsl(240 100% 50%)" />
  <rect x="555" y="190" width="30" height="30" fill="hsl(240 100% 50%)" />
  <rect x="590" y="190" width="30" height="30" fill="hsl(240 100% 50%)" />
  <rect x="625" y="190" width="30" height="30" fill="hsl(240 100% 50%)" />
  <rect x="660" y="190" width="30" height="30" fill="hsl(240 100% 50%)" />
  <rect x="695" y="190" width="30" height="30" fill="hsl(240 100% 50%)" />
  <rect x="730" y="190" width="30" height="30" fill="hsl(240 100% 50%)" />
  <rect x="765" y="190" width="30" height="30" fill="hsl(240 100% 50%)" />
  <rect x="800" y="190" width="30" height="30" fill="hsl(240 100% 50%)" />
  <rect x="835" y="190" width="30" height="30" fill="hsl(240 100% 50%)" />
  <rect x="100" y="225" width="30" height="30" fill="hsl(240 100% 96.19088964355655%)" />
  <rect x="135" y="225" width="30" height="30" fill="hsl(240 100% 86.10601589921087%)" />
  <rect x="170" y="225" width="30" height="30" fill="hsl(240 100% 88.01832192769379%)" />
  <rect x="240" y="225" width="30" height="30" fill="hsl(240 100% 89.92693576996918%)" />
  <rect x="310" y="225" width="30" height="30" fill="rgb(255 255 255 / 50%)" />
  <rect x="415" y="225" width="30" height="30" fill="hsl(240 100% 89.12009520481375%)" />
  <rect x="520" y="225" width="30" height="30" fill="hsl(240 100% 50%)" />
  <rect x="625" y="225" width="30" height="30" fill="rgb(255 255 255 / 50%)" />
  <rect x="730" y="225" width="30" height="30" fill="hsl(240 100% 92.22806228579219%)" />
  <rect x="765" y="225" width="30" height="30" fill="rgb(255 255 255 / 50%)" />
  <rect x="835" y="225" width="30" height="30" fill="hsl(240 100% 93.542239181577%)" />
  <rect x="65" y="260" width="30" height="30" fill="hsl(240 100% 99.82901918337399%)" />
  <rect x="135" y="260" width="30" height="30" fill="hsl(240 100% 99.85876716372032%)" />
  <rect x="170" y="260" width="30" height="30" fill="hsl(240 100% 98.9288394667016%)" />
  <rect x="205" y="260" width="30" height="30" fill="rgb(255 255 255 / 50%)" />
  <rect x="240" y="260" width="30" height="30" fill="hsl(240 100% 87.22120356272373%)" />
  <rect x="310" y="260" width="30" height="30" fill="rgb(255 255 255 / 50%)" />
  <rect x="415" y="260" width="30" height="30" fill="hsl(240 100% 81.10190191789226%)" />
  <rect x="450" y="260" width="30" height="30" fill="rgb(255 255 255 / 50%)" />
  <rect x="485" y="260" width="30" height="30" fill="hsl(240 100% 50%)" />
  <rect x="520" y="260" width="30" height="30" fill="hsl(240 100% 72.80942443921711%)" />
  <rect x="625" y="260" width="30" height="30" fill="hsl(240 100% 97.07312183958416%)" />
  <rect x="695" y="260" width="30" height="30" fill="hsl(240 100% 94.214905136719%)" />
  <rect x="65" y="295" width="30" height="30" fill="hsl(240 100% 85.89000845111535%)" />
  <rect x="100" y="295" width="30" height="30" fill="hsl(240 100% 97.48134600540324%)" />
  <rect x="135" y="295" width="30" height="30" fill="hsl(240 100% 95.00201866997332%)" />
  <rect x="170" y="295" width="30" height="30" fill="hsl(240 100% 89.24671333959328%)" />
  <rect x="205" y="295" width="30" height="30" fill="hsl(240 100% 99.47824102983718%)" />
  <rect x="240" y="295" width="30" height="30" fill="hsl(240 100% 50%)" />
  <rect x="275" y="295" width="30" height="30" fill="hsl(240 100% 50.2730705602084%)" />
  <rect x="310" y="295" width="30" height="30" fill="hsl(240 100% 99.49326100809782%)" />
  <rect x="345" y="295" width="30" height="30" fill="hsl(240 100% 94.67621986362825%)" />
  <rect x="415" y="295" width="30" height="30" fill="hsl(240 100% 54.660018253201045%)" />
  <rect x="450" y="295" width="30" height="30" fill="hsl(240 100% 99.31499359785755%)" />
  <rect x="485" y="295" width="30" height="30" fill="hsl(240 100% 88.26382749055287%)" />
  <rect x="520" y="295" width="30" height="30" fill="hsl(240 100% 57.34876384216236%)" />
  <rect x="695" y="295" width="30" height="30" fill="hsl(240 100% 97.5819600900255%)" />
  <rect x="800" y="295" width="30" height="30" fill="hsl(240 100% 99.56989888549732%)" />
  <rect x="835" y="295" width="30" height="30" fill="hsl(240 100% 99.95722827215026%)" />
  <rect x="65" y="330" width="30" height="30" fill="hsl(240 100% 87.80100547629749%)" />
  <rect x="100" y="330" width="30" height="30" fill="hsl(240 100% 94.76615209679784%)" />
  <rect x="135" y="330" width="30" height="30" fill="hsl(240 100% 97.13288743636716%)" />
  <rect x="170" y="330" width="30" height="30" fill="hsl(240 100% 87.59854862760226%)" />
  <rect x="205" y="330" width="30" height="30" fill="hsl(240 100% 99.24590047461588%)" />
  <rect x="240" y="330" width="30" height="30" fill="hsl(240 100% 80.29240899226056%)" />
  <rect x="275" y="330" width="30" height="30" fill="hsl(240 100% 88.37259626987095%)" />
  <rect x="310" y="330" width="30" height="30" fill="rgb(255 255 255 / 50%)" />
  <rect x="345" y="330" width="30" height="30" fill="hsl(240 100% 97.33118869853581%)" />
  <rect x="415" y="330" width="30" height="30" fill="hsl(240 100% 86.30900517751897%)" />
  <rect x="450" y="330" width="30" height="30" fill="hsl(240 100% 99.82465316565298%)" />
  <rect x="485" y="330" width="30" height="30" fill="hsl(240 100% 74.39385523037298%)" />
  <rect x="520" y="330" width="30" height="30" fill="hsl(240 100% 72.42695121554961%)" />
  <rect x="590" y="330" width="30" height="30" fill="hsl(240 100% 94.07002545592947%)" />
  <rect x="625" y="330" width="30" height="30" fill="hsl(240 100% 50%)" />
  <rect x="765" y="330" width="30" height="30" fill="hsl(240 100% 94.69340287151346%)" />
  <rect x="800" y="330" width="30" height="30" fill="hsl(240 100% 99.26128170624133%)" />
  <rect x="835" y="330" width="30" height="30" fill="hsl(240 100% 82.50933407059561%)" />
  <rect x="65" y="365" width="30" height="30" fill="hsl(240 100% 56.797641771355906%)" />
  <rect x="100" y="365" width="30" height="30" fill="hsl(240 100% 70.89120021674418%)" />
  <rect x="135" y="365" width="30" height="30" fill="hsl(240 100% 81.5710214817521%)" />
  <rect x="170" y="365" width="30" height="30" fill="hsl(240 100% 50%)" />
  <rect x="205" y="365" width="30" height="30" fill="hsl(240 100% 96.02976137222572%)" />
  <rect x="240" y="365" width="30" height="30" fill="hsl(240 100% 58.76707667694669%)" />
  <rect x="275" y="365" width="30" height="30" fill="hsl(240 100% 92.40753022642049%)" />
  <rect x="310" y="365" width="30" height="30" fill="hsl(240 100% 99.85894822853646%)" />
  <rect x="415" y="365" width="30" height="30" fill="hsl(240 100% 66.1977426408044%)" />
  <rect x="520" y="365" width="30" height="30" fill="hsl(240 100% 86.01747978875342%)" />
  <rect x="625" y="365" width="30" height="30" fill="hsl(240 100% 99.62775051495277%)" />
  <rect x="730" y="365" width="30" height="30" fill="hsl(240 100% 63.02612745175431%)" />
  <rect x="765" y="365" width="30" height="30" fill="hsl(240 100% 98.16994322130148%)" />
  <rect x="835" y="365" width="30" height="30" fill="hsl(240 100% 98.74873292865122%)" />
  <rect x="65" y="400" width="30" height="30" fill="hsl(240 100% 97.73053393682636%)" />
  <rect x="100" y="400" width="30" height="30" fill="hsl(240 100% 99.27192187271399%)" />
  <rect x="135" y="400" width="30" height="30" fill="hsl(240 100% 99.58392978470172%)" />
  <rect x="170" y="400" width="30" height="30" fill="hsl(240 100% 92.74066158115785%)" />
  <rect x="205" y="400" width="30" height="30" fill="hsl(240 100% 99.04457415726266%)" />
  <rect x="240" y="400" width="30" height="30" fill="hsl(240 100% 85.94243282779885%)" />
  <rect x="275" y="400" width="30" height="30" fill="hsl(240 100% 94.22322259279257%)" />
  <rect x="310" y="400" width="30" height="30" fill="rgb(255 255 255 / 50%)" />
  <rect x="380" y="400" width="30" height="30" fill="rgb(255 255 255 / 50%)" />
  <rect x="415" y="400" width="30" height="30" fill="hsl(240 100% 92.50794882475847%)" />
  <rect x="450" y="400" width="30" height="30" fill="hsl(240 100% 99.96877711956772%)" />
  <rect x="485" y="400" width="30" height="30" fill="hsl(240 100% 73.40968884830787%)" />
  <rect x="520" y="400" width="30" height="30" fill="hsl(240 100% 50%)" />
  <rect x="555" y="400" width="30" height="30" fill="hsl(240 100% 98.9052280469755%)" />
  <rect x="660" y="400" width="30" height="30" fill="rgb(255 255 255 / 50%)" />
  <rect x="835" y="400" width="30" height="30" fill="hsl(240 100% 98.95789823520384%)" />
  <rect x="65" y="435" width="30" height="30" fill="hsl(240 100% 93.29027334147531%)" />
  <rect x="240" y="435" width="30" height="30" fill="hsl(240 100% 50%)" />
  <rect x="310" y="435" width="30" height="30" fill="hsl(240 100% 93.8586032332995%)" />
  <rect x="415" y="435" width="30" height="30" fill="hsl(240 100% 87.00677011754122%)" />
  <rect x="450" y="435" width="30" height="30" fill="hsl(240 100% 99.77159077264467%)" />
  <rect x="65" y="470" width="30" height="30" fill="hsl(240 100% 50%)" />
  <rect x="240" y="470" width="30" height="30" fill="hsl(240 100% 50.17441760993695%)" />
  <rect x="310" y="470" width="30" height="30" fill="hsl(240 100% 96.99935789551533%)" />
  <rect x="415" y="470" width="30" height="30" fill="hsl(240 100% 88.99654727841211%)" />
  <rect x="450" y="470" width="30" height="30" fill="hsl(240 100% 99.57806748984096%)" />
</svg>
