<svg xmlns="http://www.w3.org/2000/svg" viewBox="0 0 870 505">
  <rect x="0" y="0" width="870" height="505" rx="5" ry="5" fill="#222" />
  <text x="60" y="100" fill="white" font-family="sans-serif" font-weight="bold" font-size="12" text-anchor="end" dominant-baseline="middle">ba</text>
  <text x="60" y="135" fill="white" font-family="sans-serif" font-weight="bold" font-size="12" text-anchor="end" dominant-baseline="middle">det</text>
  <text x="60" y="170" fill="white" font-family="sans-serif" font-weight="bold" font-size="12" text-anchor="end" dominant-baseline="middle">gmm</text>
  <text x="60" y="205" fill="white" font-family="sans-serif" font-weight="bold" font-size="12" text-anchor="end" dominant-baseline="middle">hello</text>
  <text x="60" y="240" fill="white" font-family="sans-serif" font-weight="bold" font-size="12" text-anchor="end" dominant-baseline="middle">ht</text>
  <text x="60" y="275" fill="white" font-family="sans-serif" font-weight="bold" font-size="12" text-anchor="end" dominant-baseline="middle">kmeans</text>
  <text x="60" y="310" fill="white" font-family="sans-serif" font-weight="bold" font-size="12" text-anchor="end" dominant-baseline="middle">llsq</text>
  <text x="60" y="345" fill="white" font-family="sans-serif" font-weight="bold" font-size="12" text-anchor="end" dominant-baseline="middle">lse</text>
  <text x="60" y="380" fill="white" font-family="sans-serif" font-weight="bold" font-size="12" text-anchor="end" dominant-baseline="middle">lstm</text>
  <text x="60" y="415" fill="white" font-family="sans-serif" font-weight="bold" font-size="12" text-anchor="end" dominant-baseline="middle">ode</text>
  <text x="60" y="450" fill="white" font-family="sans-serif" font-weight="bold" font-size="12" text-anchor="end" dominant-baseline="middle">particle</text>
  <text x="60" y="485" fill="white" font-family="sans-serif" font-weight="bold" font-size="12" text-anchor="end" dominant-baseline="middle">saddle</text>
  <text x="80" y="80" fill="white" font-family="sans-serif" font-weight="bold" font-size="12" text-anchor="end" dominant-baseline="middle" transform="rotate(90 80 80)">ad-hpp</text>
  <text x="115" y="80" fill="white" font-family="sans-serif" font-weight="bold" font-size="12" text-anchor="end" dominant-baseline="middle" transform="rotate(90 115 80)">adept</text>
  <text x="150" y="80" fill="white" font-family="sans-serif" font-weight="bold" font-size="12" text-anchor="end" dominant-baseline="middle" transform="rotate(90 150 80)">adol-c</text>
  <text x="185" y="80" fill="white" font-family="sans-serif" font-weight="bold" font-size="12" text-anchor="end" dominant-baseline="middle" transform="rotate(90 185 80)">codipack</text>
  <text x="220" y="80" fill="white" font-family="sans-serif" font-weight="bold" font-size="12" text-anchor="end" dominant-baseline="middle" transform="rotate(90 220 80)">cppad</text>
  <text x="255" y="80" fill="white" font-family="sans-serif" font-weight="bold" font-size="12" text-anchor="end" dominant-baseline="middle" transform="rotate(90 255 80)">enzyme</text>
  <text x="290" y="80" fill="white" font-family="sans-serif" font-weight="bold" font-size="12" text-anchor="end" dominant-baseline="middle" transform="rotate(90 290 80)">enzyme-jl</text>
  <text x="325" y="80" fill="white" font-family="sans-serif" font-weight="bold" font-size="12" text-anchor="end" dominant-baseline="middle" transform="rotate(90 325 80)">finite</text>
  <text x="360" y="80" fill="white" font-family="sans-serif" font-weight="bold" font-size="12" text-anchor="end" dominant-baseline="middle" transform="rotate(90 360 80)">floretta</text>
  <text x="395" y="80" fill="white" font-family="sans-serif" font-weight="bold" font-size="12" text-anchor="end" dominant-baseline="middle" transform="rotate(90 395 80)">forwarddiff-jl</text>
  <text x="430" y="80" fill="white" font-family="sans-serif" font-weight="bold" font-size="12" text-anchor="end" dominant-baseline="middle" transform="rotate(90 430 80)">futhark</text>
  <text x="465" y="80" fill="white" font-family="sans-serif" font-weight="bold" font-size="12" text-anchor="end" dominant-baseline="middle" transform="rotate(90 465 80)">haskell</text>
  <text x="500" y="80" fill="white" font-family="sans-serif" font-weight="bold" font-size="12" text-anchor="end" dominant-baseline="middle" transform="rotate(90 500 80)">jax</text>
  <text x="535" y="80" fill="white" font-family="sans-serif" font-weight="bold" font-size="12" text-anchor="end" dominant-baseline="middle" transform="rotate(90 535 80)">manual</text>
  <text x="570" y="80" fill="white" font-family="sans-serif" font-weight="bold" font-size="12" text-anchor="end" dominant-baseline="middle" transform="rotate(90 570 80)">mooncake-jl</text>
  <text x="605" y="80" fill="white" font-family="sans-serif" font-weight="bold" font-size="12" text-anchor="end" dominant-baseline="middle" transform="rotate(90 605 80)">ocaml</text>
  <text x="640" y="80" fill="white" font-family="sans-serif" font-weight="bold" font-size="12" text-anchor="end" dominant-baseline="middle" transform="rotate(90 640 80)">pytorch</text>
  <text x="675" y="80" fill="white" font-family="sans-serif" font-weight="bold" font-size="12" text-anchor="end" dominant-baseline="middle" transform="rotate(90 675 80)">reversediff-jl</text>
  <text x="710" y="80" fill="white" font-family="sans-serif" font-weight="bold" font-size="12" text-anchor="end" dominant-baseline="middle" transform="rotate(90 710 80)">scilean</text>
  <text x="745" y="80" fill="white" font-family="sans-serif" font-weight="bold" font-size="12" text-anchor="end" dominant-baseline="middle" transform="rotate(90 745 80)">tapenade</text>
  <text x="780" y="80" fill="white" font-family="sans-serif" font-weight="bold" font-size="12" text-anchor="end" dominant-baseline="middle" transform="rotate(90 780 80)">tensorflow</text>
  <text x="815" y="80" fill="white" font-family="sans-serif" font-weight="bold" font-size="12" text-anchor="end" dominant-baseline="middle" transform="rotate(90 815 80)">tensorflow-js</text>
  <text x="850" y="80" fill="white" font-family="sans-serif" font-weight="bold" font-size="12" text-anchor="end" dominant-baseline="middle" transform="rotate(90 850 80)">zygote</text>
  <rect x="65" y="85" width="30" height="30" fill="hsl(240 100% 79.22368576509842%)" />
  <rect x="100" y="85" width="30" height="30" fill="hsl(240 100% 81.05379076770541%)" />
  <rect x="135" y="85" width="30" height="30" fill="hsl(240 100% 97.67749548138146%)" />
  <rect x="170" y="85" width="30" height="30" fill="hsl(240 100% 80.26390142276364%)" />
  <rect x="205" y="85" width="30" height="30" fill="hsl(240 100% 98.88102879274722%)" />
  <rect x="240" y="85" width="30" height="30" fill="hsl(240 100% 51.51698530855816%)" />
  <rect x="310" y="85" width="30" height="30" fill="hsl(240 100% 92.39442303102425%)" />
  <rect x="415" y="85" width="30" height="30" fill="hsl(240 100% 64.6279999850672%)" />
  <rect x="520" y="85" width="30" height="30" fill="hsl(240 100% 50%)" />
  <rect x="625" y="85" width="30" height="30" fill="rgb(255 255 255 / 50%)" />
  <rect x="730" y="85" width="30" height="30" fill="hsl(240 100% 71.91246425575835%)" />
  <rect x="765" y="85" width="30" height="30" fill="rgb(255 255 255 / 50%)" />
  <rect x="835" y="85" width="30" height="30" fill="hsl(240 100% 99.72713964579498%)" />
  <rect x="65" y="120" width="30" height="30" fill="hsl(240 100% 50%)" />
  <rect x="100" y="120" width="30" height="30" fill="hsl(240 100% 83.00514112828388%)" />
  <rect x="135" y="120" width="30" height="30" fill="hsl(240 100% 86.61301838740141%)" />
  <rect x="170" y="120" width="30" height="30" fill="hsl(240 100% 55.221015450895614%)" />
  <rect x="205" y="120" width="30" height="30" fill="hsl(240 100% 93.1406872170605%)" />
  <rect x="240" y="120" width="30" height="30" fill="hsl(240 100% 92.10829785890567%)" />
  <rect x="275" y="120" width="30" height="30" fill="hsl(240 100% 99.39999923970645%)" />
  <rect x="310" y="120" width="30" height="30" fill="hsl(240 100% 99.05617556794154%)" />
  <rect x="380" y="120" width="30" height="30" fill="hsl(240 100% 93.69873790287073%)" />
  <rect x="415" y="120" width="30" height="30" fill="hsl(240 100% 94.957952004904%)" />
  <rect x="450" y="120" width="30" height="30" fill="hsl(240 100% 98.00570545172653%)" />
  <rect x="520" y="120" width="30" height="30" fill="hsl(240 100% 81.14359398280375%)" />
  <rect x="555" y="120" width="30" height="30" fill="hsl(240 100% 97.32226108539042%)" />
  <rect x="660" y="120" width="30" height="30" fill="rgb(255 255 255 / 50%)" />
  <rect x="835" y="120" width="30" height="30" fill="rgb(255 255 255 / 50%)" />
  <rect x="65" y="155" width="30" height="30" fill="hsl(240 100% 98.90340769869933%)" />
  <rect x="100" y="155" width="30" height="30" fill="hsl(240 100% 98.68540855805583%)" />
  <rect x="135" y="155" width="30" height="30" fill="hsl(240 100% 99.07749164840158%)" />
  <rect x="170" y="155" width="30" height="30" fill="hsl(240 100% 97.9060128808198%)" />
  <rect x="205" y="155" width="30" height="30" fill="hsl(240 100% 99.8205741358109%)" />
  <rect x="240" y="155" width="30" height="30" fill="hsl(240 100% 91.04491923518214%)" />
  <rect x="275" y="155" width="30" height="30" fill="hsl(240 100% 91.46191694386721%)" />
  <rect x="310" y="155" width="30" height="30" fill="rgb(255 255 255 / 50%)" />
  <rect x="415" y="155" width="30" height="30" fill="hsl(240 100% 92.89821151201262%)" />
  <rect x="485" y="155" width="30" height="30" fill="hsl(240 100% 50%)" />
  <rect x="520" y="155" width="30" height="30" fill="hsl(240 100% 81.2192554052503%)" />
  <rect x="555" y="155" width="30" height="30" fill="hsl(240 100% 94.98619146203298%)" />
  <rect x="590" y="155" width="30" height="30" fill="hsl(240 100% 99.62632027225486%)" />
  <rect x="625" y="155" width="30" height="30" fill="hsl(240 100% 65.11402859942943%)" />
  <rect x="695" y="155" width="30" height="30" fill="hsl(240 100% 95.04372515043872%)" />
  <rect x="730" y="155" width="30" height="30" fill="hsl(240 100% 83.62052975256279%)" />
  <rect x="765" y="155" width="30" height="30" fill="hsl(240 100% 99.56950644425775%)" />
  <rect x="835" y="155" width="30" height="30" fill="hsl(240 100% 95.86914115881085%)" />
  <rect x="65" y="190" width="30" height="30" fill="hsl(240 100% 50%)" />
  <rect x="100" y="190" width="30" height="30" fill="hsl(240 100% 50%)" />
  <rect x="135" y="190" width="30" height="30" fill="hsl(240 100% 50%)" />
  <rect x="170" y="190" width="30" height="30" fill="hsl(240 100% 50%)" />
  <rect x="205" y="190" width="30" height="30" fill="hsl(240 100% 50%)" />
  <rect x="240" y="190" width="30" height="30" fill="hsl(240 100% 50%)" />
  <rect x="275" y="190" width="30" height="30" fill="hsl(240 100% 50%)" />
  <rect x="310" y="190" width="30" height="30" fill="hsl(240 100% 50%)" />
  <rect x="345" y="190" width="30" height="30" fill="hsl(240 100% 50%)" />
  <rect x="380" y="190" width="30" height="30" fill="hsl(240 100% 50%)" />
  <rect x="415" y="190" width="30" height="30" fill="hsl(240 100% 50%)" />
  <rect x="450" y="190" width="30" height="30" fill="hsl(240 100% 50%)" />
  <rect x="485" y="190" width="30" height="30" fill="hsl(240 100% 50%)" />
  <rect x="520" y="190" width="30" height="30" fill="hsl(240 100% 50%)" />
  <rect x="555" y="190" width="30" height="30" fill="hsl(240 100% 50%)" />
  <rect x="590" y="190" width="30" height="30" fill="hsl(240 100% 50%)" />
  <rect x="625" y="190" width="30" height="30" fill="hsl(240 100% 50%)" />
  <rect x="660" y="190" width="30" height="30" fill="hsl(240 100% 50%)" />
  <rect x="695" y="190" width="30" height="30" fill="hsl(240 100% 50%)" />
  <rect x="730" y="190" width="30" height="30" fill="hsl(240 100% 50%)" />
  <rect x="765" y="190" width="30" height="30" fill="hsl(240 100% 50%)" />
  <rect x="800" y="190" width="30" height="30" fill="hsl(240 100% 50%)" />
  <rect x="835" y="190" width="30" height="30" fill="hsl(240 100% 50%)" />
  <rect x="100" y="225" width="30" height="30" fill="hsl(240 100% 96.16260119867637%)" />
  <rect x="135" y="225" width="30" height="30" fill="hsl(240 100% 87.57653516410424%)" />
  <rect x="170" y="225" width="30" height="30" fill="hsl(240 100% 90.34414523003308%)" />
  <rect x="240" y="225" width="30" height="30" fill="hsl(240 100% 90.20445828709752%)" />
  <rect x="310" y="225" width="30" height="30" fill="rgb(255 255 255 / 50%)" />
  <rect x="415" y="225" width="30" height="30" fill="hsl(240 100% 89.37559899619822%)" />
  <rect x="520" y="225" width="30" height="30" fill="hsl(240 100% 50%)" />
  <rect x="625" y="225" width="30" height="30" fill="rgb(255 255 255 / 50%)" />
  <rect x="730" y="225" width="30" height="30" fill="hsl(240 100% 92.34369364462763%)" />
  <rect x="765" y="225" width="30" height="30" fill="rgb(255 255 255 / 50%)" />
  <rect x="835" y="225" width="30" height="30" fill="hsl(240 100% 95.55315255531919%)" />
  <rect x="135" y="260" width="30" height="30" fill="hsl(240 100% 99.86181106553963%)" />
  <rect x="170" y="260" width="30" height="30" fill="hsl(240 100% 98.84709218872634%)" />
  <rect x="205" y="260" width="30" height="30" fill="rgb(255 255 255 / 50%)" />
  <rect x="240" y="260" width="30" height="30" fill="hsl(240 100% 86.49815799163457%)" />
  <rect x="310" y="260" width="30" height="30" fill="rgb(255 255 255 / 50%)" />
  <rect x="380" y="260" width="30" height="30" fill="rgb(255 255 255 / 50%)" />
  <rect x="415" y="260" width="30" height="30" fill="hsl(240 100% 80.33711755563218%)" />
  <rect x="450" y="260" width="30" height="30" fill="rgb(255 255 255 / 50%)" />
  <rect x="485" y="260" width="30" height="30" fill="hsl(240 100% 50%)" />
  <rect x="520" y="260" width="30" height="30" fill="hsl(240 100% 71.70200465630678%)" />
  <rect x="625" y="260" width="30" height="30" fill="hsl(240 100% 96.8063216737681%)" />
  <rect x="660" y="260" width="30" height="30" fill="rgb(255 255 255 / 50%)" />
  <rect x="695" y="260" width="30" height="30" fill="hsl(240 100% 93.92992636103773%)" />
  <rect x="65" y="295" width="30" height="30" fill="hsl(240 100% 85.89604827945126%)" />
  <rect x="100" y="295" width="30" height="30" fill="hsl(240 100% 97.8177113972198%)" />
  <rect x="135" y="295" width="30" height="30" fill="hsl(240 100% 93.7462811486438%)" />
  <rect x="170" y="295" width="30" height="30" fill="hsl(240 100% 89.21137179471644%)" />
  <rect x="205" y="295" width="30" height="30" fill="hsl(240 100% 99.47383215666555%)" />
  <rect x="240" y="295" width="30" height="30" fill="hsl(240 100% 50%)" />
  <rect x="275" y="295" width="30" height="30" fill="hsl(240 100% 53.25642234151188%)" />
  <rect x="310" y="295" width="30" height="30" fill="hsl(240 100% 99.50373592060319%)" />
  <rect x="345" y="295" width="30" height="30" fill="hsl(240 100% 94.62411328303435%)" />
  <rect x="415" y="295" width="30" height="30" fill="hsl(240 100% 54.69809180579775%)" />
  <rect x="450" y="295" width="30" height="30" fill="hsl(240 100% 99.25680163911227%)" />
  <rect x="485" y="295" width="30" height="30" fill="hsl(240 100% 88.23391756939922%)" />
  <rect x="520" y="295" width="30" height="30" fill="hsl(240 100% 57.27420284875795%)" />
  <rect x="555" y="295" width="30" height="30" fill="hsl(240 100% 89.68479182939633%)" />
  <rect x="695" y="295" width="30" height="30" fill="hsl(240 100% 97.57343813671679%)" />
  <rect x="800" y="295" width="30" height="30" fill="hsl(240 100% 99.59674550073872%)" />
  <rect x="835" y="295" width="30" height="30" fill="hsl(240 100% 99.9606709432289%)" />
  <rect x="65" y="330" width="30" height="30" fill="hsl(240 100% 86.29196339772416%)" />
  <rect x="100" y="330" width="30" height="30" fill="hsl(240 100% 93.74131299431033%)" />
  <rect x="135" y="330" width="30" height="30" fill="hsl(240 100% 95.42314592344705%)" />
  <rect x="170" y="330" width="30" height="30" fill="hsl(240 100% 85.88617164623696%)" />
  <rect x="205" y="330" width="30" height="30" fill="hsl(240 100% 99.13956622123052%)" />
  <rect x="240" y="330" width="30" height="30" fill="hsl(240 100% 77.94006590982093%)" />
  <rect x="275" y="330" width="30" height="30" fill="hsl(240 100% 86.58518935055359%)" />
  <rect x="310" y="330" width="30" height="30" fill="rgb(255 255 255 / 50%)" />
  <rect x="345" y="330" width="30" height="30" fill="hsl(240 100% 96.88580260671054%)" />
  <rect x="415" y="330" width="30" height="30" fill="hsl(240 100% 84.8411874795377%)" />
  <rect x="450" y="330" width="30" height="30" fill="hsl(240 100% 99.78709893885053%)" />
  <rect x="485" y="330" width="30" height="30" fill="hsl(240 100% 68.82059951138413%)" />
  <rect x="520" y="330" width="30" height="30" fill="hsl(240 100% 68.19295082430958%)" />
  <rect x="555" y="330" width="30" height="30" fill="hsl(240 100% 99.08249409837399%)" />
  <rect x="590" y="330" width="30" height="30" fill="hsl(240 100% 93.31623540228529%)" />
  <rect x="625" y="330" width="30" height="30" fill="hsl(240 100% 50%)" />
  <rect x="765" y="330" width="30" height="30" fill="hsl(240 100% 93.92775094345029%)" />
  <rect x="800" y="330" width="30" height="30" fill="hsl(240 100% 99.15370650617852%)" />
  <rect x="835" y="330" width="30" height="30" fill="hsl(240 100% 94.96855763623175%)" />
  <rect x="65" y="365" width="30" height="30" fill="hsl(240 100% 56.941558002045674%)" />
  <rect x="100" y="365" width="30" height="30" fill="hsl(240 100% 73.19183857444851%)" />
  <rect x="135" y="365" width="30" height="30" fill="hsl(240 100% 76.81477078469115%)" />
  <rect x="170" y="365" width="30" height="30" fill="hsl(240 100% 50%)" />
  <rect x="205" y="365" width="30" height="30" fill="hsl(240 100% 96.02308477707032%)" />
  <rect x="240" y="365" width="30" height="30" fill="hsl(240 100% 60.13457408944373%)" />
  <rect x="275" y="365" width="30" height="30" fill="hsl(240 100% 93.39201880595121%)" />
  <rect x="310" y="365" width="30" height="30" fill="hsl(240 100% 99.8338926038254%)" />
  <rect x="415" y="365" width="30" height="30" fill="hsl(240 100% 66.7572904192512%)" />
  <rect x="520" y="365" width="30" height="30" fill="hsl(240 100% 86.23402577001099%)" />
  <rect x="555" y="365" width="30" height="30" fill="hsl(240 100% 95.97374577458773%)" />
  <rect x="625" y="365" width="30" height="30" fill="hsl(240 100% 99.64778631226325%)" />
  <rect x="730" y="365" width="30" height="30" fill="hsl(240 100% 63.661268488353095%)" />
  <rect x="765" y="365" width="30" height="30" fill="hsl(240 100% 98.20664000165993%)" />
  <rect x="835" y="365" width="30" height="30" fill="hsl(240 100% 98.78479466434476%)" />
  <rect x="65" y="400" width="30" height="30" fill="hsl(240 100% 97.43986064375977%)" />
  <rect x="100" y="400" width="30" height="30" fill="hsl(240 100% 99.14778769455165%)" />
  <rect x="135" y="400" width="30" height="30" fill="hsl(240 100% 99.47847963554919%)" />
  <rect x="170" y="400" width="30" height="30" fill="hsl(240 100% 92.11788498924166%)" />
  <rect x="205" y="400" width="30" height="30" fill="hsl(240 100% 99.01009259751733%)" />
  <rect x="240" y="400" width="30" height="30" fill="hsl(240 100% 81.55681770342159%)" />
  <rect x="275" y="400" width="30" height="30" fill="hsl(240 100% 95.43642872524939%)" />
  <rect x="310" y="400" width="30" height="30" fill="rgb(255 255 255 / 50%)" />
  <rect x="380" y="400" width="30" height="30" fill="rgb(255 255 255 / 50%)" />
  <rect x="415" y="400" width="30" height="30" fill="hsl(240 100% 92.12992870573206%)" />
  <rect x="450" y="400" width="30" height="30" fill="hsl(240 100% 99.96282553722921%)" />
  <rect x="485" y="400" width="30" height="30" fill="hsl(240 100% 72.65698023551201%)" />
  <rect x="520" y="400" width="30" height="30" fill="hsl(240 100% 50%)" />
  <rect x="555" y="400" width="30" height="30" fill="hsl(240 100% 98.90679317014731%)" />
  <rect x="660" y="400" width="30" height="30" fill="rgb(255 255 255 / 50%)" />
  <rect x="835" y="400" width="30" height="30" fill="hsl(240 100% 98.89046296708266%)" />
  <rect x="65" y="435" width="30" height="30" fill="hsl(240 100% 93.36742012622027%)" />
  <rect x="240" y="435" width="30" height="30" fill="hsl(240 100% 50%)" />
  <rect x="310" y="435" width="30" height="30" fill="hsl(240 100% 91.62329738313895%)" />
  <rect x="415" y="435" width="30" height="30" fill="hsl(240 100% 86.9345337643741%)" />
  <rect x="450" y="435" width="30" height="30" fill="hsl(240 100% 99.81885041184526%)" />
  <rect x="65" y="470" width="30" height="30" fill="hsl(240 100% 50.12538446793953%)" />
  <rect x="240" y="470" width="30" height="30" fill="hsl(240 100% 50%)" />
  <rect x="310" y="470" width="30" height="30" fill="hsl(240 100% 96.3738049857456%)" />
  <rect x="415" y="470" width="30" height="30" fill="hsl(240 100% 89.07617387116971%)" />
  <rect x="450" y="470" width="30" height="30" fill="hsl(240 100% 99.56912405692538%)" />
</svg>
