<svg xmlns="http://www.w3.org/2000/svg" viewBox="0 0 870 505">
  <rect x="0" y="0" width="870" height="505" rx="5" ry="5" fill="#222" />
  <text x="60" y="100" fill="white" font-family="sans-serif" font-weight="bold" font-size="12" text-anchor="end" dominant-baseline="middle">ba</text>
  <text x="60" y="135" fill="white" font-family="sans-serif" font-weight="bold" font-size="12" text-anchor="end" dominant-baseline="middle">det</text>
  <text x="60" y="170" fill="white" font-family="sans-serif" font-weight="bold" font-size="12" text-anchor="end" dominant-baseline="middle">gmm</text>
  <text x="60" y="205" fill="white" font-family="sans-serif" font-weight="bold" font-size="12" text-anchor="end" dominant-baseline="middle">hello</text>
  <text x="60" y="240" fill="white" font-family="sans-serif" font-weight="bold" font-size="12" text-anchor="end" dominant-baseline="middle">ht</text>
  <text x="60" y="275" fill="white" font-family="sans-serif" font-weight="bold" font-size="12" text-anchor="end" dominant-baseline="middle">kmeans</text>
  <text x="60" y="310" fill="white" font-family="sans-serif" font-weight="bold" font-size="12" text-anchor="end" dominant-baseline="middle">llsq</text>
  <text x="60" y="345" fill="white" font-family="sans-serif" font-weight="bold" font-size="12" text-anchor="end" dominant-baseline="middle">lse</text>
  <text x="60" y="380" fill="white" font-family="sans-serif" font-weight="bold" font-size="12" text-anchor="end" dominant-baseline="middle">lstm</text>
  <text x="60" y="415" fill="white" font-family="sans-serif" font-weight="bold" font-size="12" text-anchor="end" dominant-baseline="middle">ode</text>
  <text x="60" y="450" fill="white" font-family="sans-serif" font-weight="bold" font-size="12" text-anchor="end" dominant-baseline="middle">particle</text>
  <text x="60" y="485" fill="white" font-family="sans-serif" font-weight="bold" font-size="12" text-anchor="end" dominant-baseline="middle">saddle</text>
  <text x="80" y="80" fill="white" font-family="sans-serif" font-weight="bold" font-size="12" text-anchor="end" dominant-baseline="middle" transform="rotate(90 80 80)">ad-hpp</text>
  <text x="115" y="80" fill="white" font-family="sans-serif" font-weight="bold" font-size="12" text-anchor="end" dominant-baseline="middle" transform="rotate(90 115 80)">adept</text>
  <text x="150" y="80" fill="white" font-family="sans-serif" font-weight="bold" font-size="12" text-anchor="end" dominant-baseline="middle" transform="rotate(90 150 80)">adol-c</text>
  <text x="185" y="80" fill="white" font-family="sans-serif" font-weight="bold" font-size="12" text-anchor="end" dominant-baseline="middle" transform="rotate(90 185 80)">codipack</text>
  <text x="220" y="80" fill="white" font-family="sans-serif" font-weight="bold" font-size="12" text-anchor="end" dominant-baseline="middle" transform="rotate(90 220 80)">cppad</text>
  <text x="255" y="80" fill="white" font-family="sans-serif" font-weight="bold" font-size="12" text-anchor="end" dominant-baseline="middle" transform="rotate(90 255 80)">enzyme</text>
  <text x="290" y="80" fill="white" font-family="sans-serif" font-weight="bold" font-size="12" text-anchor="end" dominant-baseline="middle" transform="rotate(90 290 80)">enzyme-jl</text>
  <text x="325" y="80" fill="white" font-family="sans-serif" font-weight="bold" font-size="12" text-anchor="end" dominant-baseline="middle" transform="rotate(90 325 80)">finite</text>
  <text x="360" y="80" fill="white" font-family="sans-serif" font-weight="bold" font-size="12" text-anchor="end" dominant-baseline="middle" transform="rotate(90 360 80)">floretta</text>
  <text x="395" y="80" fill="white" font-family="sans-serif" font-weight="bold" font-size="12" text-anchor="end" dominant-baseline="middle" transform="rotate(90 395 80)">forwarddiff-jl</text>
  <text x="430" y="80" fill="white" font-family="sans-serif" font-weight="bold" font-size="12" text-anchor="end" dominant-baseline="middle" transform="rotate(90 430 80)">futhark</text>
  <text x="465" y="80" fill="white" font-family="sans-serif" font-weight="bold" font-size="12" text-anchor="end" dominant-baseline="middle" transform="rotate(90 465 80)">haskell</text>
  <text x="500" y="80" fill="white" font-family="sans-serif" font-weight="bold" font-size="12" text-anchor="end" dominant-baseline="middle" transform="rotate(90 500 80)">jax</text>
  <text x="535" y="80" fill="white" font-family="sans-serif" font-weight="bold" font-size="12" text-anchor="end" dominant-baseline="middle" transform="rotate(90 535 80)">manual</text>
  <text x="570" y="80" fill="white" font-family="sans-serif" font-weight="bold" font-size="12" text-anchor="end" dominant-baseline="middle" transform="rotate(90 570 80)">mooncake-jl</text>
  <text x="605" y="80" fill="white" font-family="sans-serif" font-weight="bold" font-size="12" text-anchor="end" dominant-baseline="middle" transform="rotate(90 605 80)">ocaml</text>
  <text x="640" y="80" fill="white" font-family="sans-serif" font-weight="bold" font-size="12" text-anchor="end" dominant-baseline="middle" transform="rotate(90 640 80)">pytorch</text>
  <text x="675" y="80" fill="white" font-family="sans-serif" font-weight="bold" font-size="12" text-anchor="end" dominant-baseline="middle" transform="rotate(90 675 80)">reversediff-jl</text>
  <text x="710" y="80" fill="white" font-family="sans-serif" font-weight="bold" font-size="12" text-anchor="end" dominant-baseline="middle" transform="rotate(90 710 80)">scilean</text>
  <text x="745" y="80" fill="white" font-family="sans-serif" font-weight="bold" font-size="12" text-anchor="end" dominant-baseline="middle" transform="rotate(90 745 80)">tapenade</text>
  <text x="780" y="80" fill="white" font-family="sans-serif" font-weight="bold" font-size="12" text-anchor="end" dominant-baseline="middle" transform="rotate(90 780 80)">tensorflow</text>
  <text x="815" y="80" fill="white" font-family="sans-serif" font-weight="bold" font-size="12" text-anchor="end" dominant-baseline="middle" transform="rotate(90 815 80)">tensorflow-js</text>
  <text x="850" y="80" fill="white" font-family="sans-serif" font-weight="bold" font-size="12" text-anchor="end" dominant-baseline="middle" transform="rotate(90 850 80)">zygote</text>
  <rect x="65" y="85" width="30" height="30" fill="hsl(240 100% 80.5055415025094%)" />
  <rect x="100" y="85" width="30" height="30" fill="hsl(240 100% 82.12184612000331%)" />
  <rect x="135" y="85" width="30" height="30" fill="hsl(240 100% 97.89549806054723%)" />
  <rect x="170" y="85" width="30" height="30" fill="hsl(240 100% 81.55734092957789%)" />
  <rect x="205" y="85" width="30" height="30" fill="hsl(240 100% 98.94696080668467%)" />
  <rect x="240" y="85" width="30" height="30" fill="hsl(240 100% 50%)" />
  <rect x="310" y="85" width="30" height="30" fill="hsl(240 100% 91.67950253281984%)" />
  <rect x="415" y="85" width="30" height="30" fill="hsl(240 100% 66.97572925768773%)" />
  <rect x="520" y="85" width="30" height="30" fill="hsl(240 100% 53.97814340234714%)" />
  <rect x="625" y="85" width="30" height="30" fill="rgb(255 255 255 / 50%)" />
  <rect x="730" y="85" width="30" height="30" fill="hsl(240 100% 71.46149568485407%)" />
  <rect x="765" y="85" width="30" height="30" fill="rgb(255 255 255 / 50%)" />
  <rect x="835" y="85" width="30" height="30" fill="hsl(240 100% 99.72245528510145%)" />
  <rect x="65" y="120" width="30" height="30" fill="hsl(240 100% 50%)" />
  <rect x="100" y="120" width="30" height="30" fill="hsl(240 100% 84.48510587206135%)" />
  <rect x="135" y="120" width="30" height="30" fill="hsl(240 100% 85.80806500401997%)" />
  <rect x="170" y="120" width="30" height="30" fill="hsl(240 100% 57.88765733762514%)" />
  <rect x="205" y="120" width="30" height="30" fill="hsl(240 100% 92.71857772008312%)" />
  <rect x="240" y="120" width="30" height="30" fill="hsl(240 100% 91.65595483565437%)" />
  <rect x="275" y="120" width="30" height="30" fill="hsl(240 100% 99.39141152562152%)" />
  <rect x="310" y="120" width="30" height="30" fill="hsl(240 100% 98.99843076602698%)" />
  <rect x="380" y="120" width="30" height="30" fill="hsl(240 100% 93.40855204130852%)" />
  <rect x="415" y="120" width="30" height="30" fill="hsl(240 100% 94.62226491226792%)" />
  <rect x="450" y="120" width="30" height="30" fill="hsl(240 100% 97.8663513760018%)" />
  <rect x="520" y="120" width="30" height="30" fill="hsl(240 100% 79.6180891171274%)" />
  <rect x="555" y="120" width="30" height="30" fill="hsl(240 100% 90.49814855215173%)" />
  <rect x="660" y="120" width="30" height="30" fill="rgb(255 255 255 / 50%)" />
  <rect x="835" y="120" width="30" height="30" fill="rgb(255 255 255 / 50%)" />
  <rect x="65" y="155" width="30" height="30" fill="hsl(240 100% 98.12101568790705%)" />
  <rect x="100" y="155" width="30" height="30" fill="hsl(240 100% 98.8953474538511%)" />
  <rect x="135" y="155" width="30" height="30" fill="hsl(240 100% 99.28560906912502%)" />
  <rect x="170" y="155" width="30" height="30" fill="hsl(240 100% 98.79788946499288%)" />
  <rect x="205" y="155" width="30" height="30" fill="hsl(240 100% 99.8486982609561%)" />
  <rect x="240" y="155" width="30" height="30" fill="hsl(240 100% 91.01108584515273%)" />
  <rect x="275" y="155" width="30" height="30" fill="hsl(240 100% 92.95740046316057%)" />
  <rect x="310" y="155" width="30" height="30" fill="rgb(255 255 255 / 50%)" />
  <rect x="415" y="155" width="30" height="30" fill="hsl(240 100% 93.05780962374662%)" />
  <rect x="485" y="155" width="30" height="30" fill="hsl(240 100% 50%)" />
  <rect x="520" y="155" width="30" height="30" fill="hsl(240 100% 85.77302523942882%)" />
  <rect x="590" y="155" width="30" height="30" fill="hsl(240 100% 99.60336221477203%)" />
  <rect x="625" y="155" width="30" height="30" fill="hsl(240 100% 68.81898735478453%)" />
  <rect x="695" y="155" width="30" height="30" fill="hsl(240 100% 95.39837685774965%)" />
  <rect x="730" y="155" width="30" height="30" fill="hsl(240 100% 83.71629160982236%)" />
  <rect x="765" y="155" width="30" height="30" fill="hsl(240 100% 99.58495459461669%)" />
  <rect x="835" y="155" width="30" height="30" fill="hsl(240 100% 96.46235854871863%)" />
  <rect x="65" y="190" width="30" height="30" fill="hsl(240 100% 50%)" />
  <rect x="100" y="190" width="30" height="30" fill="hsl(240 100% 50%)" />
  <rect x="135" y="190" width="30" height="30" fill="hsl(240 100% 50%)" />
  <rect x="170" y="190" width="30" height="30" fill="hsl(240 100% 50%)" />
  <rect x="205" y="190" width="30" height="30" fill="hsl(240 100% 50%)" />
  <rect x="240" y="190" width="30" height="30" fill="hsl(240 100% 50%)" />
  <rect x="275" y="190" width="30" height="30" fill="hsl(240 100% 50%)" />
  <rect x="310" y="190" width="30" height="30" fill="hsl(240 100% 50%)" />
  <rect x="345" y="190" width="30" height="30" fill="hsl(240 100% 50%)" />
  <rect x="380" y="190" width="30" height="30" fill="hsl(240 100% 50%)" />
  <rect x="415" y="190" width="30" height="30" fill="hsl(240 100% 50%)" />
  <rect x="450" y="190" width="30" height="30" fill="hsl(240 100% 50%)" />
  <rect x="485" y="190" width="30" height="30" fill="hsl(240 100% 50%)" />
  <rect x="520" y="190" width="30" height="30" fill="hsl(240 100% 50%)" />
  <rect x="555" y="190" width="30" height="30" fill="hsl(240 100% 50%)" />
  <rect x="590" y="190" width="30" height="30" fill="hsl(240 100% 50%)" />
  <rect x="625" y="190" width="30" height="30" fill="hsl(240 100% 50%)" />
  <rect x="660" y="190" width="30" height="30" fill="hsl(240 100% 50%)" />
  <rect x="695" y="190" width="30" height="30" fill="hsl(240 100% 50%)" />
  <rect x="730" y="190" width="30" height="30" fill="hsl(240 100% 50%)" />
  <rect x="765" y="190" width="30" height="30" fill="hsl(240 100% 50%)" />
  <rect x="800" y="190" width="30" height="30" fill="hsl(240 100% 50%)" />
  <rect x="835" y="190" width="30" height="30" fill="hsl(240 100% 50%)" />
  <rect x="100" y="225" width="30" height="30" fill="hsl(240 100% 96.21108777622057%)" />
  <rect x="135" y="225" width="30" height="30" fill="hsl(240 100% 89.14364077155568%)" />
  <rect x="170" y="225" width="30" height="30" fill="hsl(240 100% 87.66040345590127%)" />
  <rect x="240" y="225" width="30" height="30" fill="hsl(240 100% 90.04617661965585%)" />
  <rect x="310" y="225" width="30" height="30" fill="rgb(255 255 255 / 50%)" />
  <rect x="415" y="225" width="30" height="30" fill="hsl(240 100% 89.16846877006644%)" />
  <rect x="520" y="225" width="30" height="30" fill="hsl(240 100% 50%)" />
  <rect x="625" y="225" width="30" height="30" fill="rgb(255 255 255 / 50%)" />
  <rect x="730" y="225" width="30" height="30" fill="hsl(240 100% 92.56295353617215%)" />
  <rect x="765" y="225" width="30" height="30" fill="rgb(255 255 255 / 50%)" />
  <rect x="835" y="225" width="30" height="30" fill="hsl(240 100% 93.6145711873729%)" />
  <rect x="65" y="260" width="30" height="30" fill="hsl(240 100% 99.85638672769521%)" />
  <rect x="135" y="260" width="30" height="30" fill="hsl(240 100% 99.89236494801024%)" />
  <rect x="170" y="260" width="30" height="30" fill="hsl(240 100% 98.99198524039983%)" />
  <rect x="205" y="260" width="30" height="30" fill="rgb(255 255 255 / 50%)" />
  <rect x="240" y="260" width="30" height="30" fill="hsl(240 100% 87.22084180050001%)" />
  <rect x="310" y="260" width="30" height="30" fill="rgb(255 255 255 / 50%)" />
  <rect x="415" y="260" width="30" height="30" fill="hsl(240 100% 81.14980429307073%)" />
  <rect x="450" y="260" width="30" height="30" fill="rgb(255 255 255 / 50%)" />
  <rect x="485" y="260" width="30" height="30" fill="hsl(240 100% 50%)" />
  <rect x="520" y="260" width="30" height="30" fill="hsl(240 100% 72.78905338061043%)" />
  <rect x="625" y="260" width="30" height="30" fill="hsl(240 100% 97.44934401961295%)" />
  <rect x="695" y="260" width="30" height="30" fill="hsl(240 100% 94.28492199809956%)" />
  <rect x="65" y="295" width="30" height="30" fill="hsl(240 100% 86.35791599214977%)" />
  <rect x="100" y="295" width="30" height="30" fill="hsl(240 100% 97.56703415719883%)" />
  <rect x="135" y="295" width="30" height="30" fill="hsl(240 100% 94.52558002687049%)" />
  <rect x="170" y="295" width="30" height="30" fill="hsl(240 100% 89.23837199694972%)" />
  <rect x="205" y="295" width="30" height="30" fill="hsl(240 100% 99.33033316611588%)" />
  <rect x="240" y="295" width="30" height="30" fill="hsl(240 100% 72.00707607275241%)" />
  <rect x="275" y="295" width="30" height="30" fill="hsl(240 100% 50%)" />
  <rect x="310" y="295" width="30" height="30" fill="hsl(240 100% 99.49861191967709%)" />
  <rect x="345" y="295" width="30" height="30" fill="hsl(240 100% 94.66105718800199%)" />
  <rect x="415" y="295" width="30" height="30" fill="hsl(240 100% 54.95225557210468%)" />
  <rect x="450" y="295" width="30" height="30" fill="hsl(240 100% 99.31686390117588%)" />
  <rect x="485" y="295" width="30" height="30" fill="hsl(240 100% 88.35421436575385%)" />
  <rect x="520" y="295" width="30" height="30" fill="hsl(240 100% 57.56763991711608%)" />
  <rect x="695" y="295" width="30" height="30" fill="hsl(240 100% 97.5917575097161%)" />
  <rect x="800" y="295" width="30" height="30" fill="hsl(240 100% 99.59599245456481%)" />
  <rect x="835" y="295" width="30" height="30" fill="hsl(240 100% 99.95631276327155%)" />
  <rect x="65" y="330" width="30" height="30" fill="hsl(240 100% 87.45746617174808%)" />
  <rect x="100" y="330" width="30" height="30" fill="hsl(240 100% 94.2800232004348%)" />
  <rect x="135" y="330" width="30" height="30" fill="hsl(240 100% 97.08178819613653%)" />
  <rect x="170" y="330" width="30" height="30" fill="hsl(240 100% 86.68099277889269%)" />
  <rect x="205" y="330" width="30" height="30" fill="hsl(240 100% 99.17936405765495%)" />
  <rect x="240" y="330" width="30" height="30" fill="hsl(240 100% 79.08992679407626%)" />
  <rect x="275" y="330" width="30" height="30" fill="hsl(240 100% 88.30270241005998%)" />
  <rect x="310" y="330" width="30" height="30" fill="rgb(255 255 255 / 50%)" />
  <rect x="345" y="330" width="30" height="30" fill="hsl(240 100% 97.06274234764027%)" />
  <rect x="415" y="330" width="30" height="30" fill="hsl(240 100% 85.41704342528875%)" />
  <rect x="450" y="330" width="30" height="30" fill="hsl(240 100% 99.76143651704537%)" />
  <rect x="485" y="330" width="30" height="30" fill="hsl(240 100% 70.50135036270706%)" />
  <rect x="520" y="330" width="30" height="30" fill="hsl(240 100% 70.11841412245319%)" />
  <rect x="590" y="330" width="30" height="30" fill="hsl(240 100% 93.5767265934766%)" />
  <rect x="625" y="330" width="30" height="30" fill="hsl(240 100% 50%)" />
  <rect x="765" y="330" width="30" height="30" fill="hsl(240 100% 94.03121441377813%)" />
  <rect x="800" y="330" width="30" height="30" fill="hsl(240 100% 99.20751173250586%)" />
  <rect x="835" y="330" width="30" height="30" fill="hsl(240 100% 80.66729592494903%)" />
  <rect x="65" y="365" width="30" height="30" fill="hsl(240 100% 57.854238146800704%)" />
  <rect x="100" y="365" width="30" height="30" fill="hsl(240 100% 71.5174332534327%)" />
  <rect x="135" y="365" width="30" height="30" fill="hsl(240 100% 79.70661542685144%)" />
  <rect x="170" y="365" width="30" height="30" fill="hsl(240 100% 50%)" />
  <rect x="205" y="365" width="30" height="30" fill="hsl(240 100% 95.13372484938614%)" />
  <rect x="240" y="365" width="30" height="30" fill="hsl(240 100% 53.91841901878263%)" />
  <rect x="275" y="365" width="30" height="30" fill="hsl(240 100% 92.46231082882666%)" />
  <rect x="310" y="365" width="30" height="30" fill="hsl(240 100% 99.86164160931432%)" />
  <rect x="415" y="365" width="30" height="30" fill="hsl(240 100% 66.94824551778474%)" />
  <rect x="520" y="365" width="30" height="30" fill="hsl(240 100% 86.25704189579616%)" />
  <rect x="625" y="365" width="30" height="30" fill="hsl(240 100% 99.63573304845018%)" />
  <rect x="730" y="365" width="30" height="30" fill="hsl(240 100% 63.7013804610381%)" />
  <rect x="765" y="365" width="30" height="30" fill="hsl(240 100% 98.19745459428245%)" />
  <rect x="835" y="365" width="30" height="30" fill="hsl(240 100% 98.7287141232393%)" />
  <rect x="65" y="400" width="30" height="30" fill="hsl(240 100% 99.03354559290814%)" />
  <rect x="100" y="400" width="30" height="30" fill="hsl(240 100% 99.37169483351921%)" />
  <rect x="135" y="400" width="30" height="30" fill="hsl(240 100% 99.58083162447508%)" />
  <rect x="170" y="400" width="30" height="30" fill="hsl(240 100% 92.60184726239221%)" />
  <rect x="205" y="400" width="30" height="30" fill="hsl(240 100% 99.06648494687667%)" />
  <rect x="240" y="400" width="30" height="30" fill="hsl(240 100% 86.32037140246678%)" />
  <rect x="275" y="400" width="30" height="30" fill="hsl(240 100% 94.2573903579799%)" />
  <rect x="310" y="400" width="30" height="30" fill="rgb(255 255 255 / 50%)" />
  <rect x="380" y="400" width="30" height="30" fill="rgb(255 255 255 / 50%)" />
  <rect x="415" y="400" width="30" height="30" fill="hsl(240 100% 92.63553370374517%)" />
  <rect x="450" y="400" width="30" height="30" fill="hsl(240 100% 99.96418415117445%)" />
  <rect x="485" y="400" width="30" height="30" fill="hsl(240 100% 73.81827766459705%)" />
  <rect x="520" y="400" width="30" height="30" fill="hsl(240 100% 50%)" />
  <rect x="555" y="400" width="30" height="30" fill="hsl(240 100% 98.93694822852902%)" />
  <rect x="660" y="400" width="30" height="30" fill="rgb(255 255 255 / 50%)" />
  <rect x="835" y="400" width="30" height="30" fill="hsl(240 100% 98.94826660957658%)" />
  <rect x="65" y="435" width="30" height="30" fill="hsl(240 100% 94.49819758440668%)" />
  <rect x="240" y="435" width="30" height="30" fill="hsl(240 100% 50%)" />
  <rect x="310" y="435" width="30" height="30" fill="hsl(240 100% 94.940713854891%)" />
  <rect x="415" y="435" width="30" height="30" fill="hsl(240 100% 89.32827399872855%)" />
  <rect x="450" y="435" width="30" height="30" fill="hsl(240 100% 99.83463658251186%)" />
  <rect x="65" y="470" width="30" height="30" fill="hsl(240 100% 59.86592259701741%)" />
  <rect x="240" y="470" width="30" height="30" fill="hsl(240 100% 50%)" />
  <rect x="310" y="470" width="30" height="30" fill="hsl(240 100% 97.57100599691266%)" />
  <rect x="415" y="470" width="30" height="30" fill="hsl(240 100% 91.35591030773521%)" />
  <rect x="450" y="470" width="30" height="30" fill="hsl(240 100% 99.64973962104438%)" />
</svg>
