<svg xmlns="http://www.w3.org/2000/svg" viewBox="0 0 590 295">
  <rect x="0" y="0" width="590" height="295" rx="5" ry="5" fill="#222" />
  <text x="60" y="100" fill="white" font-family="sans-serif" font-weight="bold" font-size="12" text-anchor="end" dominant-baseline="middle">ba</text>
  <text x="60" y="135" fill="white" font-family="sans-serif" font-weight="bold" font-size="12" text-anchor="end" dominant-baseline="middle">gmm</text>
  <text x="60" y="170" fill="white" font-family="sans-serif" font-weight="bold" font-size="12" text-anchor="end" dominant-baseline="middle">hello</text>
  <text x="60" y="205" fill="white" font-family="sans-serif" font-weight="bold" font-size="12" text-anchor="end" dominant-baseline="middle">ht</text>
  <text x="60" y="240" fill="white" font-family="sans-serif" font-weight="bold" font-size="12" text-anchor="end" dominant-baseline="middle">kmeans</text>
  <text x="60" y="275" fill="white" font-family="sans-serif" font-weight="bold" font-size="12" text-anchor="end" dominant-baseline="middle">lstm</text>
  <text x="80" y="80" fill="white" font-family="sans-serif" font-weight="bold" font-size="12" text-anchor="end" dominant-baseline="middle" transform="rotate(90 80 80)">adept</text>
  <text x="115" y="80" fill="white" font-family="sans-serif" font-weight="bold" font-size="12" text-anchor="end" dominant-baseline="middle" transform="rotate(90 115 80)">adol-c</text>
  <text x="150" y="80" fill="white" font-family="sans-serif" font-weight="bold" font-size="12" text-anchor="end" dominant-baseline="middle" transform="rotate(90 150 80)">cppad</text>
  <text x="185" y="80" fill="white" font-family="sans-serif" font-weight="bold" font-size="12" text-anchor="end" dominant-baseline="middle" transform="rotate(90 185 80)">enzyme</text>
  <text x="220" y="80" fill="white" font-family="sans-serif" font-weight="bold" font-size="12" text-anchor="end" dominant-baseline="middle" transform="rotate(90 220 80)">finite</text>
  <text x="255" y="80" fill="white" font-family="sans-serif" font-weight="bold" font-size="12" text-anchor="end" dominant-baseline="middle" transform="rotate(90 255 80)">floretta</text>
  <text x="290" y="80" fill="white" font-family="sans-serif" font-weight="bold" font-size="12" text-anchor="end" dominant-baseline="middle" transform="rotate(90 290 80)">futhark</text>
  <text x="325" y="80" fill="white" font-family="sans-serif" font-weight="bold" font-size="12" text-anchor="end" dominant-baseline="middle" transform="rotate(90 325 80)">haskell</text>
  <text x="360" y="80" fill="white" font-family="sans-serif" font-weight="bold" font-size="12" text-anchor="end" dominant-baseline="middle" transform="rotate(90 360 80)">jax</text>
  <text x="395" y="80" fill="white" font-family="sans-serif" font-weight="bold" font-size="12" text-anchor="end" dominant-baseline="middle" transform="rotate(90 395 80)">manual</text>
  <text x="430" y="80" fill="white" font-family="sans-serif" font-weight="bold" font-size="12" text-anchor="end" dominant-baseline="middle" transform="rotate(90 430 80)">pytorch</text>
  <text x="465" y="80" fill="white" font-family="sans-serif" font-weight="bold" font-size="12" text-anchor="end" dominant-baseline="middle" transform="rotate(90 465 80)">scilean</text>
  <text x="500" y="80" fill="white" font-family="sans-serif" font-weight="bold" font-size="12" text-anchor="end" dominant-baseline="middle" transform="rotate(90 500 80)">tapenade</text>
  <text x="535" y="80" fill="white" font-family="sans-serif" font-weight="bold" font-size="12" text-anchor="end" dominant-baseline="middle" transform="rotate(90 535 80)">tensorflow</text>
  <text x="570" y="80" fill="white" font-family="sans-serif" font-weight="bold" font-size="12" text-anchor="end" dominant-baseline="middle" transform="rotate(90 570 80)">zygote</text>
  <rect x="65" y="85" width="30" height="30" fill="hsl(240 100% 84.45155045221578%)" />
  <rect x="100" y="85" width="30" height="30" fill="hsl(240 100% 98.00487682962124%)" />
  <rect x="170" y="85" width="30" height="30" fill="hsl(240 100% 50%)" />
  <rect x="205" y="85" width="30" height="30" fill="hsl(240 100% 91.87340534165529%)" />
  <rect x="275" y="85" width="30" height="30" fill="hsl(240 100% 75.84640682136789%)" />
  <rect x="380" y="85" width="30" height="30" fill="hsl(240 100% 52.47119265802059%)" />
  <rect x="415" y="85" width="30" height="30" fill="hsl(240 100% 99.99189216753105%)" />
  <rect x="485" y="85" width="30" height="30" fill="hsl(240 100% 73.53203538509334%)" />
  <rect x="520" y="85" width="30" height="30" fill="hsl(240 100% 99.98442956156698%)" />
  <rect x="65" y="120" width="30" height="30" fill="hsl(240 100% 96.9229838738596%)" />
  <rect x="100" y="120" width="30" height="30" fill="hsl(240 100% 97.63982775096952%)" />
  <rect x="135" y="120" width="30" height="30" fill="hsl(240 100% 98.2071039674267%)" />
  <rect x="170" y="120" width="30" height="30" fill="hsl(240 100% 83.7908171100196%)" />
  <rect x="205" y="120" width="30" height="30" fill="hsl(240 100% 99.9949801325832%)" />
  <rect x="275" y="120" width="30" height="30" fill="hsl(240 100% 82.31355025911323%)" />
  <rect x="345" y="120" width="30" height="30" fill="hsl(240 100% 76.20995220186941%)" />
  <rect x="380" y="120" width="30" height="30" fill="hsl(240 100% 63.24893861191872%)" />
  <rect x="415" y="120" width="30" height="30" fill="hsl(240 100% 50%)" />
  <rect x="450" y="120" width="30" height="30" fill="hsl(240 100% 93.21656500520102%)" />
  <rect x="485" y="120" width="30" height="30" fill="hsl(240 100% 66.6258993361305%)" />
  <rect x="520" y="120" width="30" height="30" fill="hsl(240 100% 86.5019779083837%)" />
  <rect x="65" y="155" width="30" height="30" fill="hsl(240 100% 50%)" />
  <rect x="100" y="155" width="30" height="30" fill="hsl(240 100% 50%)" />
  <rect x="135" y="155" width="30" height="30" fill="hsl(240 100% 50%)" />
  <rect x="170" y="155" width="30" height="30" fill="hsl(240 100% 50%)" />
  <rect x="205" y="155" width="30" height="30" fill="hsl(240 100% 50%)" />
  <rect x="240" y="155" width="30" height="30" fill="hsl(240 100% 50%)" />
  <rect x="275" y="155" width="30" height="30" fill="hsl(240 100% 50%)" />
  <rect x="310" y="155" width="30" height="30" fill="hsl(240 100% 50%)" />
  <rect x="345" y="155" width="30" height="30" fill="hsl(240 100% 50%)" />
  <rect x="380" y="155" width="30" height="30" fill="hsl(240 100% 50%)" />
  <rect x="415" y="155" width="30" height="30" fill="hsl(240 100% 50%)" />
  <rect x="450" y="155" width="30" height="30" fill="hsl(240 100% 50%)" />
  <rect x="485" y="155" width="30" height="30" fill="hsl(240 100% 50%)" />
  <rect x="520" y="155" width="30" height="30" fill="hsl(240 100% 50%)" />
  <rect x="555" y="155" width="30" height="30" fill="hsl(240 100% 50%)" />
  <rect x="65" y="190" width="30" height="30" fill="hsl(240 100% 96.99204048832127%)" />
  <rect x="100" y="190" width="30" height="30" fill="hsl(240 100% 97.85624604378849%)" />
  <rect x="170" y="190" width="30" height="30" fill="hsl(240 100% 94.68139841948187%)" />
  <rect x="205" y="190" width="30" height="30" fill="hsl(240 100% 99.15393360027119%)" />
  <rect x="275" y="190" width="30" height="30" fill="hsl(240 100% 91.29894312955756%)" />
  <rect x="380" y="190" width="30" height="30" fill="hsl(240 100% 50%)" />
  <rect x="415" y="190" width="30" height="30" fill="hsl(240 100% 99.96611083198765%)" />
  <rect x="485" y="190" width="30" height="30" fill="hsl(240 100% 99.37002297372436%)" />
  <rect x="520" y="190" width="30" height="30" fill="hsl(240 100% 99.45779835586102%)" />
  <rect x="100" y="225" width="30" height="30" fill="hsl(240 100% 99.87592633778415%)" />
  <rect x="170" y="225" width="30" height="30" fill="hsl(240 100% 87.80415858470109%)" />
  <rect x="275" y="225" width="30" height="30" fill="hsl(240 100% 84.6717518361773%)" />
  <rect x="310" y="225" width="30" height="30" fill="hsl(240 100% 99.99139932647114%)" />
  <rect x="345" y="225" width="30" height="30" fill="hsl(240 100% 50%)" />
  <rect x="380" y="225" width="30" height="30" fill="hsl(240 100% 76.36625629643747%)" />
  <rect x="415" y="225" width="30" height="30" fill="hsl(240 100% 85.79500902998979%)" />
  <rect x="65" y="260" width="30" height="30" fill="hsl(240 100% 68.39147744910667%)" />
  <rect x="100" y="260" width="30" height="30" fill="hsl(240 100% 80.52477731068576%)" />
  <rect x="135" y="260" width="30" height="30" fill="hsl(240 100% 88.18794879716293%)" />
  <rect x="170" y="260" width="30" height="30" fill="hsl(240 100% 50%)" />
  <rect x="205" y="260" width="30" height="30" fill="hsl(240 100% 99.79744861956505%)" />
  <rect x="275" y="260" width="30" height="30" fill="hsl(240 100% 63.061792179171825%)" />
  <rect x="380" y="260" width="30" height="30" fill="hsl(240 100% 78.3437879256059%)" />
  <rect x="415" y="260" width="30" height="30" fill="hsl(240 100% 99.66284068731143%)" />
  <rect x="485" y="260" width="30" height="30" fill="hsl(240 100% 59.347713330300984%)" />
  <rect x="520" y="260" width="30" height="30" fill="hsl(240 100% 98.05440847330772%)" />
</svg>
