<svg xmlns="http://www.w3.org/2000/svg" viewBox="0 0 870 505">
  <rect x="0" y="0" width="870" height="505" rx="5" ry="5" fill="#222" />
  <text x="60" y="100" fill="white" font-family="sans-serif" font-weight="bold" font-size="12" text-anchor="end" dominant-baseline="middle">ba</text>
  <text x="60" y="135" fill="white" font-family="sans-serif" font-weight="bold" font-size="12" text-anchor="end" dominant-baseline="middle">det</text>
  <text x="60" y="170" fill="white" font-family="sans-serif" font-weight="bold" font-size="12" text-anchor="end" dominant-baseline="middle">gmm</text>
  <text x="60" y="205" fill="white" font-family="sans-serif" font-weight="bold" font-size="12" text-anchor="end" dominant-baseline="middle">hello</text>
  <text x="60" y="240" fill="white" font-family="sans-serif" font-weight="bold" font-size="12" text-anchor="end" dominant-baseline="middle">ht</text>
  <text x="60" y="275" fill="white" font-family="sans-serif" font-weight="bold" font-size="12" text-anchor="end" dominant-baseline="middle">kmeans</text>
  <text x="60" y="310" fill="white" font-family="sans-serif" font-weight="bold" font-size="12" text-anchor="end" dominant-baseline="middle">llsq</text>
  <text x="60" y="345" fill="white" font-family="sans-serif" font-weight="bold" font-size="12" text-anchor="end" dominant-baseline="middle">lse</text>
  <text x="60" y="380" fill="white" font-family="sans-serif" font-weight="bold" font-size="12" text-anchor="end" dominant-baseline="middle">lstm</text>
  <text x="60" y="415" fill="white" font-family="sans-serif" font-weight="bold" font-size="12" text-anchor="end" dominant-baseline="middle">ode</text>
  <text x="60" y="450" fill="white" font-family="sans-serif" font-weight="bold" font-size="12" text-anchor="end" dominant-baseline="middle">particle</text>
  <text x="60" y="485" fill="white" font-family="sans-serif" font-weight="bold" font-size="12" text-anchor="end" dominant-baseline="middle">saddle</text>
  <text x="80" y="80" fill="white" font-family="sans-serif" font-weight="bold" font-size="12" text-anchor="end" dominant-baseline="middle" transform="rotate(90 80 80)">ad-hpp</text>
  <text x="115" y="80" fill="white" font-family="sans-serif" font-weight="bold" font-size="12" text-anchor="end" dominant-baseline="middle" transform="rotate(90 115 80)">adept</text>
  <text x="150" y="80" fill="white" font-family="sans-serif" font-weight="bold" font-size="12" text-anchor="end" dominant-baseline="middle" transform="rotate(90 150 80)">adol-c</text>
  <text x="185" y="80" fill="white" font-family="sans-serif" font-weight="bold" font-size="12" text-anchor="end" dominant-baseline="middle" transform="rotate(90 185 80)">codipack</text>
  <text x="220" y="80" fill="white" font-family="sans-serif" font-weight="bold" font-size="12" text-anchor="end" dominant-baseline="middle" transform="rotate(90 220 80)">cppad</text>
  <text x="255" y="80" fill="white" font-family="sans-serif" font-weight="bold" font-size="12" text-anchor="end" dominant-baseline="middle" transform="rotate(90 255 80)">enzyme</text>
  <text x="290" y="80" fill="white" font-family="sans-serif" font-weight="bold" font-size="12" text-anchor="end" dominant-baseline="middle" transform="rotate(90 290 80)">enzyme-jl</text>
  <text x="325" y="80" fill="white" font-family="sans-serif" font-weight="bold" font-size="12" text-anchor="end" dominant-baseline="middle" transform="rotate(90 325 80)">finite</text>
  <text x="360" y="80" fill="white" font-family="sans-serif" font-weight="bold" font-size="12" text-anchor="end" dominant-baseline="middle" transform="rotate(90 360 80)">floretta</text>
  <text x="395" y="80" fill="white" font-family="sans-serif" font-weight="bold" font-size="12" text-anchor="end" dominant-baseline="middle" transform="rotate(90 395 80)">forwarddiff-jl</text>
  <text x="430" y="80" fill="white" font-family="sans-serif" font-weight="bold" font-size="12" text-anchor="end" dominant-baseline="middle" transform="rotate(90 430 80)">futhark</text>
  <text x="465" y="80" fill="white" font-family="sans-serif" font-weight="bold" font-size="12" text-anchor="end" dominant-baseline="middle" transform="rotate(90 465 80)">haskell</text>
  <text x="500" y="80" fill="white" font-family="sans-serif" font-weight="bold" font-size="12" text-anchor="end" dominant-baseline="middle" transform="rotate(90 500 80)">jax</text>
  <text x="535" y="80" fill="white" font-family="sans-serif" font-weight="bold" font-size="12" text-anchor="end" dominant-baseline="middle" transform="rotate(90 535 80)">manual</text>
  <text x="570" y="80" fill="white" font-family="sans-serif" font-weight="bold" font-size="12" text-anchor="end" dominant-baseline="middle" transform="rotate(90 570 80)">mooncake-jl</text>
  <text x="605" y="80" fill="white" font-family="sans-serif" font-weight="bold" font-size="12" text-anchor="end" dominant-baseline="middle" transform="rotate(90 605 80)">ocaml</text>
  <text x="640" y="80" fill="white" font-family="sans-serif" font-weight="bold" font-size="12" text-anchor="end" dominant-baseline="middle" transform="rotate(90 640 80)">pytorch</text>
  <text x="675" y="80" fill="white" font-family="sans-serif" font-weight="bold" font-size="12" text-anchor="end" dominant-baseline="middle" transform="rotate(90 675 80)">reversediff-jl</text>
  <text x="710" y="80" fill="white" font-family="sans-serif" font-weight="bold" font-size="12" text-anchor="end" dominant-baseline="middle" transform="rotate(90 710 80)">scilean</text>
  <text x="745" y="80" fill="white" font-family="sans-serif" font-weight="bold" font-size="12" text-anchor="end" dominant-baseline="middle" transform="rotate(90 745 80)">tapenade</text>
  <text x="780" y="80" fill="white" font-family="sans-serif" font-weight="bold" font-size="12" text-anchor="end" dominant-baseline="middle" transform="rotate(90 780 80)">tensorflow</text>
  <text x="815" y="80" fill="white" font-family="sans-serif" font-weight="bold" font-size="12" text-anchor="end" dominant-baseline="middle" transform="rotate(90 815 80)">tensorflow-js</text>
  <text x="850" y="80" fill="white" font-family="sans-serif" font-weight="bold" font-size="12" text-anchor="end" dominant-baseline="middle" transform="rotate(90 850 80)">zygote</text>
  <rect x="65" y="85" width="30" height="30" fill="hsl(240 100% 81.20156767613611%)" />
  <rect x="100" y="85" width="30" height="30" fill="hsl(240 100% 82.96402087193063%)" />
  <rect x="135" y="85" width="30" height="30" fill="hsl(240 100% 97.9838280016831%)" />
  <rect x="170" y="85" width="30" height="30" fill="hsl(240 100% 82.44934091800252%)" />
  <rect x="205" y="85" width="30" height="30" fill="hsl(240 100% 99.00156482837161%)" />
  <rect x="240" y="85" width="30" height="30" fill="hsl(240 100% 52.21258448550306%)" />
  <rect x="310" y="85" width="30" height="30" fill="hsl(240 100% 93.33270720843265%)" />
  <rect x="415" y="85" width="30" height="30" fill="hsl(240 100% 68.2208582633542%)" />
  <rect x="520" y="85" width="30" height="30" fill="hsl(240 100% 50%)" />
  <rect x="625" y="85" width="30" height="30" fill="rgb(255 255 255 / 50%)" />
  <rect x="730" y="85" width="30" height="30" fill="hsl(240 100% 75.03061619709064%)" />
  <rect x="765" y="85" width="30" height="30" fill="rgb(255 255 255 / 50%)" />
  <rect x="835" y="85" width="30" height="30" fill="hsl(240 100% 99.74354276919742%)" />
  <rect x="65" y="120" width="30" height="30" fill="hsl(240 100% 50%)" />
  <rect x="100" y="120" width="30" height="30" fill="hsl(240 100% 82.53102392296748%)" />
  <rect x="135" y="120" width="30" height="30" fill="hsl(240 100% 85.50810106890063%)" />
  <rect x="170" y="120" width="30" height="30" fill="hsl(240 100% 51.373620739978136%)" />
  <rect x="205" y="120" width="30" height="30" fill="hsl(240 100% 92.47950880797748%)" />
  <rect x="240" y="120" width="30" height="30" fill="hsl(240 100% 91.30969762817548%)" />
  <rect x="275" y="120" width="30" height="30" fill="hsl(240 100% 99.32869244046151%)" />
  <rect x="310" y="120" width="30" height="30" fill="hsl(240 100% 98.97436785223063%)" />
  <rect x="380" y="120" width="30" height="30" fill="hsl(240 100% 93.32748837314197%)" />
  <rect x="415" y="120" width="30" height="30" fill="hsl(240 100% 94.51418687617414%)" />
  <rect x="450" y="120" width="30" height="30" fill="hsl(240 100% 97.91634089600905%)" />
  <rect x="520" y="120" width="30" height="30" fill="hsl(240 100% 79.42217540720752%)" />
  <rect x="555" y="120" width="30" height="30" fill="hsl(240 100% 90.14264464068445%)" />
  <rect x="660" y="120" width="30" height="30" fill="rgb(255 255 255 / 50%)" />
  <rect x="835" y="120" width="30" height="30" fill="rgb(255 255 255 / 50%)" />
  <rect x="65" y="155" width="30" height="30" fill="hsl(240 100% 98.32797473401689%)" />
  <rect x="100" y="155" width="30" height="30" fill="hsl(240 100% 98.7799744382255%)" />
  <rect x="135" y="155" width="30" height="30" fill="hsl(240 100% 99.08476476000322%)" />
  <rect x="170" y="155" width="30" height="30" fill="hsl(240 100% 97.96032039507166%)" />
  <rect x="205" y="155" width="30" height="30" fill="hsl(240 100% 99.84907879554191%)" />
  <rect x="240" y="155" width="30" height="30" fill="hsl(240 100% 91.12175497943889%)" />
  <rect x="275" y="155" width="30" height="30" fill="hsl(240 100% 92.11690824815533%)" />
  <rect x="310" y="155" width="30" height="30" fill="rgb(255 255 255 / 50%)" />
  <rect x="415" y="155" width="30" height="30" fill="hsl(240 100% 92.7835473582087%)" />
  <rect x="485" y="155" width="30" height="30" fill="hsl(240 100% 50%)" />
  <rect x="520" y="155" width="30" height="30" fill="hsl(240 100% 82.82220835382648%)" />
  <rect x="590" y="155" width="30" height="30" fill="hsl(240 100% 99.57210554897813%)" />
  <rect x="625" y="155" width="30" height="30" fill="hsl(240 100% 66.26982565047678%)" />
  <rect x="695" y="155" width="30" height="30" fill="hsl(240 100% 95.31502784145712%)" />
  <rect x="730" y="155" width="30" height="30" fill="hsl(240 100% 83.17050453904066%)" />
  <rect x="765" y="155" width="30" height="30" fill="hsl(240 100% 99.56377266506438%)" />
  <rect x="835" y="155" width="30" height="30" fill="hsl(240 100% 96.21855307314416%)" />
  <rect x="65" y="190" width="30" height="30" fill="hsl(240 100% 50%)" />
  <rect x="100" y="190" width="30" height="30" fill="hsl(240 100% 50%)" />
  <rect x="135" y="190" width="30" height="30" fill="hsl(240 100% 50%)" />
  <rect x="170" y="190" width="30" height="30" fill="hsl(240 100% 50%)" />
  <rect x="205" y="190" width="30" height="30" fill="hsl(240 100% 50%)" />
  <rect x="240" y="190" width="30" height="30" fill="hsl(240 100% 50%)" />
  <rect x="275" y="190" width="30" height="30" fill="hsl(240 100% 50%)" />
  <rect x="310" y="190" width="30" height="30" fill="hsl(240 100% 50%)" />
  <rect x="345" y="190" width="30" height="30" fill="hsl(240 100% 50%)" />
  <rect x="380" y="190" width="30" height="30" fill="hsl(240 100% 50%)" />
  <rect x="415" y="190" width="30" height="30" fill="hsl(240 100% 50%)" />
  <rect x="450" y="190" width="30" height="30" fill="hsl(240 100% 50%)" />
  <rect x="485" y="190" width="30" height="30" fill="hsl(240 100% 50%)" />
  <rect x="520" y="190" width="30" height="30" fill="hsl(240 100% 50%)" />
  <rect x="555" y="190" width="30" height="30" fill="hsl(240 100% 50%)" />
  <rect x="590" y="190" width="30" height="30" fill="hsl(240 100% 50%)" />
  <rect x="625" y="190" width="30" height="30" fill="hsl(240 100% 50%)" />
  <rect x="660" y="190" width="30" height="30" fill="hsl(240 100% 50%)" />
  <rect x="695" y="190" width="30" height="30" fill="hsl(240 100% 50%)" />
  <rect x="730" y="190" width="30" height="30" fill="hsl(240 100% 50%)" />
  <rect x="765" y="190" width="30" height="30" fill="hsl(240 100% 50%)" />
  <rect x="800" y="190" width="30" height="30" fill="hsl(240 100% 50%)" />
  <rect x="835" y="190" width="30" height="30" fill="hsl(240 100% 50%)" />
  <rect x="100" y="225" width="30" height="30" fill="hsl(240 100% 96.69945830929416%)" />
  <rect x="135" y="225" width="30" height="30" fill="hsl(240 100% 89.08882252271874%)" />
  <rect x="170" y="225" width="30" height="30" fill="hsl(240 100% 89.34860056691645%)" />
  <rect x="240" y="225" width="30" height="30" fill="hsl(240 100% 91.39481962826048%)" />
  <rect x="310" y="225" width="30" height="30" fill="rgb(255 255 255 / 50%)" />
  <rect x="415" y="225" width="30" height="30" fill="hsl(240 100% 90.6911262968467%)" />
  <rect x="520" y="225" width="30" height="30" fill="hsl(240 100% 50%)" />
  <rect x="625" y="225" width="30" height="30" fill="rgb(255 255 255 / 50%)" />
  <rect x="730" y="225" width="30" height="30" fill="hsl(240 100% 93.21800148827444%)" />
  <rect x="765" y="225" width="30" height="30" fill="rgb(255 255 255 / 50%)" />
  <rect x="835" y="225" width="30" height="30" fill="hsl(240 100% 94.53062028608211%)" />
  <rect x="65" y="260" width="30" height="30" fill="hsl(240 100% 99.9429227722096%)" />
  <rect x="135" y="260" width="30" height="30" fill="hsl(240 100% 99.84991700884477%)" />
  <rect x="170" y="260" width="30" height="30" fill="hsl(240 100% 98.83457438071832%)" />
  <rect x="205" y="260" width="30" height="30" fill="rgb(255 255 255 / 50%)" />
  <rect x="240" y="260" width="30" height="30" fill="hsl(240 100% 87.00855956748771%)" />
  <rect x="310" y="260" width="30" height="30" fill="rgb(255 255 255 / 50%)" />
  <rect x="415" y="260" width="30" height="30" fill="hsl(240 100% 80.55659923159683%)" />
  <rect x="450" y="260" width="30" height="30" fill="rgb(255 255 255 / 50%)" />
  <rect x="485" y="260" width="30" height="30" fill="hsl(240 100% 50%)" />
  <rect x="520" y="260" width="30" height="30" fill="hsl(240 100% 70.82583921833427%)" />
  <rect x="625" y="260" width="30" height="30" fill="hsl(240 100% 96.88872449676555%)" />
  <rect x="695" y="260" width="30" height="30" fill="hsl(240 100% 94.06558601947415%)" />
  <rect x="65" y="295" width="30" height="30" fill="hsl(240 100% 85.91096206548717%)" />
  <rect x="100" y="295" width="30" height="30" fill="hsl(240 100% 97.53886619084842%)" />
  <rect x="135" y="295" width="30" height="30" fill="hsl(240 100% 95.15830829528781%)" />
  <rect x="170" y="295" width="30" height="30" fill="hsl(240 100% 90.74310201009204%)" />
  <rect x="205" y="295" width="30" height="30" fill="hsl(240 100% 99.46038739614443%)" />
  <rect x="240" y="295" width="30" height="30" fill="hsl(240 100% 53.151399414141686%)" />
  <rect x="275" y="295" width="30" height="30" fill="hsl(240 100% 50%)" />
  <rect x="310" y="295" width="30" height="30" fill="hsl(240 100% 99.49971683195031%)" />
  <rect x="345" y="295" width="30" height="30" fill="hsl(240 100% 94.72480815845772%)" />
  <rect x="415" y="295" width="30" height="30" fill="hsl(240 100% 55.266594936352384%)" />
  <rect x="450" y="295" width="30" height="30" fill="hsl(240 100% 99.3369235030383%)" />
  <rect x="485" y="295" width="30" height="30" fill="hsl(240 100% 89.76229980735937%)" />
  <rect x="520" y="295" width="30" height="30" fill="hsl(240 100% 57.861722984467264%)" />
  <rect x="695" y="295" width="30" height="30" fill="hsl(240 100% 97.60921567489511%)" />
  <rect x="800" y="295" width="30" height="30" fill="hsl(240 100% 99.57208033668184%)" />
  <rect x="835" y="295" width="30" height="30" fill="hsl(240 100% 99.95535695366763%)" />
  <rect x="65" y="330" width="30" height="30" fill="hsl(240 100% 89.2862719749933%)" />
  <rect x="100" y="330" width="30" height="30" fill="hsl(240 100% 94.9472422115607%)" />
  <rect x="135" y="330" width="30" height="30" fill="hsl(240 100% 97.27360468648592%)" />
  <rect x="170" y="330" width="30" height="30" fill="hsl(240 100% 88.8947022504239%)" />
  <rect x="205" y="330" width="30" height="30" fill="hsl(240 100% 99.23013897619178%)" />
  <rect x="240" y="330" width="30" height="30" fill="hsl(240 100% 80.49935948237803%)" />
  <rect x="275" y="330" width="30" height="30" fill="hsl(240 100% 88.27089956333205%)" />
  <rect x="310" y="330" width="30" height="30" fill="rgb(255 255 255 / 50%)" />
  <rect x="345" y="330" width="30" height="30" fill="hsl(240 100% 97.3489177015317%)" />
  <rect x="415" y="330" width="30" height="30" fill="hsl(240 100% 86.35407317656433%)" />
  <rect x="450" y="330" width="30" height="30" fill="hsl(240 100% 99.82888930159544%)" />
  <rect x="485" y="330" width="30" height="30" fill="hsl(240 100% 72.06529151163343%)" />
  <rect x="520" y="330" width="30" height="30" fill="hsl(240 100% 77.63775389892072%)" />
  <rect x="590" y="330" width="30" height="30" fill="hsl(240 100% 94.07816181882139%)" />
  <rect x="625" y="330" width="30" height="30" fill="hsl(240 100% 50%)" />
  <rect x="765" y="330" width="30" height="30" fill="hsl(240 100% 94.57027341642116%)" />
  <rect x="800" y="330" width="30" height="30" fill="hsl(240 100% 99.2413124354815%)" />
  <rect x="835" y="330" width="30" height="30" fill="hsl(240 100% 81.73471724091797%)" />
  <rect x="65" y="365" width="30" height="30" fill="hsl(240 100% 56.3493849539345%)" />
  <rect x="100" y="365" width="30" height="30" fill="hsl(240 100% 71.39842842961374%)" />
  <rect x="135" y="365" width="30" height="30" fill="hsl(240 100% 82.40950712896154%)" />
  <rect x="170" y="365" width="30" height="30" fill="hsl(240 100% 50%)" />
  <rect x="205" y="365" width="30" height="30" fill="hsl(240 100% 95.71537560013431%)" />
  <rect x="240" y="365" width="30" height="30" fill="hsl(240 100% 68.94623942413592%)" />
  <rect x="275" y="365" width="30" height="30" fill="hsl(240 100% 92.01918885167746%)" />
  <rect x="310" y="365" width="30" height="30" fill="hsl(240 100% 99.85972209271098%)" />
  <rect x="415" y="365" width="30" height="30" fill="hsl(240 100% 66.40874100921633%)" />
  <rect x="520" y="365" width="30" height="30" fill="hsl(240 100% 85.8344944301115%)" />
  <rect x="625" y="365" width="30" height="30" fill="hsl(240 100% 99.6249342604966%)" />
  <rect x="730" y="365" width="30" height="30" fill="hsl(240 100% 63.389988275553485%)" />
  <rect x="765" y="365" width="30" height="30" fill="hsl(240 100% 98.12655311920065%)" />
  <rect x="835" y="365" width="30" height="30" fill="hsl(240 100% 98.72637012259545%)" />
  <rect x="65" y="400" width="30" height="30" fill="hsl(240 100% 98.16163990247512%)" />
  <rect x="100" y="400" width="30" height="30" fill="hsl(240 100% 99.41205486553599%)" />
  <rect x="135" y="400" width="30" height="30" fill="hsl(240 100% 99.64431374613577%)" />
  <rect x="170" y="400" width="30" height="30" fill="hsl(240 100% 95.4676660016422%)" />
  <rect x="205" y="400" width="30" height="30" fill="hsl(240 100% 99.24204065917962%)" />
  <rect x="240" y="400" width="30" height="30" fill="hsl(240 100% 85.9053838636485%)" />
  <rect x="275" y="400" width="30" height="30" fill="hsl(240 100% 95.29865275639094%)" />
  <rect x="310" y="400" width="30" height="30" fill="rgb(255 255 255 / 50%)" />
  <rect x="380" y="400" width="30" height="30" fill="rgb(255 255 255 / 50%)" />
  <rect x="415" y="400" width="30" height="30" fill="hsl(240 100% 94.05877384839812%)" />
  <rect x="450" y="400" width="30" height="30" fill="hsl(240 100% 99.97198760913525%)" />
  <rect x="485" y="400" width="30" height="30" fill="hsl(240 100% 79.04187790767037%)" />
  <rect x="520" y="400" width="30" height="30" fill="hsl(240 100% 50%)" />
  <rect x="555" y="400" width="30" height="30" fill="hsl(240 100% 99.12593234226641%)" />
  <rect x="660" y="400" width="30" height="30" fill="rgb(255 255 255 / 50%)" />
  <rect x="835" y="400" width="30" height="30" fill="hsl(240 100% 99.24891909470114%)" />
  <rect x="65" y="435" width="30" height="30" fill="hsl(240 100% 92.5250968659826%)" />
  <rect x="240" y="435" width="30" height="30" fill="hsl(240 100% 50%)" />
  <rect x="310" y="435" width="30" height="30" fill="hsl(240 100% 94.009179878727%)" />
  <rect x="415" y="435" width="30" height="30" fill="hsl(240 100% 86.26231415423807%)" />
  <rect x="450" y="435" width="30" height="30" fill="hsl(240 100% 99.77747696957218%)" />
  <rect x="65" y="470" width="30" height="30" fill="hsl(240 100% 50%)" />
  <rect x="240" y="470" width="30" height="30" fill="hsl(240 100% 52.42016902287695%)" />
  <rect x="310" y="470" width="30" height="30" fill="hsl(240 100% 97.13190908956325%)" />
  <rect x="415" y="470" width="30" height="30" fill="hsl(240 100% 89.05513083073615%)" />
  <rect x="450" y="470" width="30" height="30" fill="hsl(240 100% 99.57618093598171%)" />
</svg>
