<svg xmlns="http://www.w3.org/2000/svg" viewBox="0 0 870 505">
  <rect x="0" y="0" width="870" height="505" rx="5" ry="5" fill="#222" />
  <text x="60" y="100" fill="white" font-family="sans-serif" font-weight="bold" font-size="12" text-anchor="end" dominant-baseline="middle">ba</text>
  <text x="60" y="135" fill="white" font-family="sans-serif" font-weight="bold" font-size="12" text-anchor="end" dominant-baseline="middle">det</text>
  <text x="60" y="170" fill="white" font-family="sans-serif" font-weight="bold" font-size="12" text-anchor="end" dominant-baseline="middle">gmm</text>
  <text x="60" y="205" fill="white" font-family="sans-serif" font-weight="bold" font-size="12" text-anchor="end" dominant-baseline="middle">hello</text>
  <text x="60" y="240" fill="white" font-family="sans-serif" font-weight="bold" font-size="12" text-anchor="end" dominant-baseline="middle">ht</text>
  <text x="60" y="275" fill="white" font-family="sans-serif" font-weight="bold" font-size="12" text-anchor="end" dominant-baseline="middle">kmeans</text>
  <text x="60" y="310" fill="white" font-family="sans-serif" font-weight="bold" font-size="12" text-anchor="end" dominant-baseline="middle">llsq</text>
  <text x="60" y="345" fill="white" font-family="sans-serif" font-weight="bold" font-size="12" text-anchor="end" dominant-baseline="middle">lse</text>
  <text x="60" y="380" fill="white" font-family="sans-serif" font-weight="bold" font-size="12" text-anchor="end" dominant-baseline="middle">lstm</text>
  <text x="60" y="415" fill="white" font-family="sans-serif" font-weight="bold" font-size="12" text-anchor="end" dominant-baseline="middle">ode</text>
  <text x="60" y="450" fill="white" font-family="sans-serif" font-weight="bold" font-size="12" text-anchor="end" dominant-baseline="middle">particle</text>
  <text x="60" y="485" fill="white" font-family="sans-serif" font-weight="bold" font-size="12" text-anchor="end" dominant-baseline="middle">saddle</text>
  <text x="80" y="80" fill="white" font-family="sans-serif" font-weight="bold" font-size="12" text-anchor="end" dominant-baseline="middle" transform="rotate(90 80 80)">ad-hpp</text>
  <text x="115" y="80" fill="white" font-family="sans-serif" font-weight="bold" font-size="12" text-anchor="end" dominant-baseline="middle" transform="rotate(90 115 80)">adept</text>
  <text x="150" y="80" fill="white" font-family="sans-serif" font-weight="bold" font-size="12" text-anchor="end" dominant-baseline="middle" transform="rotate(90 150 80)">adol-c</text>
  <text x="185" y="80" fill="white" font-family="sans-serif" font-weight="bold" font-size="12" text-anchor="end" dominant-baseline="middle" transform="rotate(90 185 80)">codipack</text>
  <text x="220" y="80" fill="white" font-family="sans-serif" font-weight="bold" font-size="12" text-anchor="end" dominant-baseline="middle" transform="rotate(90 220 80)">cppad</text>
  <text x="255" y="80" fill="white" font-family="sans-serif" font-weight="bold" font-size="12" text-anchor="end" dominant-baseline="middle" transform="rotate(90 255 80)">enzyme</text>
  <text x="290" y="80" fill="white" font-family="sans-serif" font-weight="bold" font-size="12" text-anchor="end" dominant-baseline="middle" transform="rotate(90 290 80)">enzyme-jl</text>
  <text x="325" y="80" fill="white" font-family="sans-serif" font-weight="bold" font-size="12" text-anchor="end" dominant-baseline="middle" transform="rotate(90 325 80)">finite</text>
  <text x="360" y="80" fill="white" font-family="sans-serif" font-weight="bold" font-size="12" text-anchor="end" dominant-baseline="middle" transform="rotate(90 360 80)">floretta</text>
  <text x="395" y="80" fill="white" font-family="sans-serif" font-weight="bold" font-size="12" text-anchor="end" dominant-baseline="middle" transform="rotate(90 395 80)">forwarddiff-jl</text>
  <text x="430" y="80" fill="white" font-family="sans-serif" font-weight="bold" font-size="12" text-anchor="end" dominant-baseline="middle" transform="rotate(90 430 80)">futhark</text>
  <text x="465" y="80" fill="white" font-family="sans-serif" font-weight="bold" font-size="12" text-anchor="end" dominant-baseline="middle" transform="rotate(90 465 80)">haskell</text>
  <text x="500" y="80" fill="white" font-family="sans-serif" font-weight="bold" font-size="12" text-anchor="end" dominant-baseline="middle" transform="rotate(90 500 80)">jax</text>
  <text x="535" y="80" fill="white" font-family="sans-serif" font-weight="bold" font-size="12" text-anchor="end" dominant-baseline="middle" transform="rotate(90 535 80)">manual</text>
  <text x="570" y="80" fill="white" font-family="sans-serif" font-weight="bold" font-size="12" text-anchor="end" dominant-baseline="middle" transform="rotate(90 570 80)">mooncake-jl</text>
  <text x="605" y="80" fill="white" font-family="sans-serif" font-weight="bold" font-size="12" text-anchor="end" dominant-baseline="middle" transform="rotate(90 605 80)">ocaml</text>
  <text x="640" y="80" fill="white" font-family="sans-serif" font-weight="bold" font-size="12" text-anchor="end" dominant-baseline="middle" transform="rotate(90 640 80)">pytorch</text>
  <text x="675" y="80" fill="white" font-family="sans-serif" font-weight="bold" font-size="12" text-anchor="end" dominant-baseline="middle" transform="rotate(90 675 80)">reversediff-jl</text>
  <text x="710" y="80" fill="white" font-family="sans-serif" font-weight="bold" font-size="12" text-anchor="end" dominant-baseline="middle" transform="rotate(90 710 80)">scilean</text>
  <text x="745" y="80" fill="white" font-family="sans-serif" font-weight="bold" font-size="12" text-anchor="end" dominant-baseline="middle" transform="rotate(90 745 80)">tapenade</text>
  <text x="780" y="80" fill="white" font-family="sans-serif" font-weight="bold" font-size="12" text-anchor="end" dominant-baseline="middle" transform="rotate(90 780 80)">tensorflow</text>
  <text x="815" y="80" fill="white" font-family="sans-serif" font-weight="bold" font-size="12" text-anchor="end" dominant-baseline="middle" transform="rotate(90 815 80)">tensorflow-js</text>
  <text x="850" y="80" fill="white" font-family="sans-serif" font-weight="bold" font-size="12" text-anchor="end" dominant-baseline="middle" transform="rotate(90 850 80)">zygote</text>
  <rect x="65" y="85" width="30" height="30" fill="hsl(240 100% 81.14405030167103%)" />
  <rect x="100" y="85" width="30" height="30" fill="hsl(240 100% 82.98482960730149%)" />
  <rect x="135" y="85" width="30" height="30" fill="hsl(240 100% 98.00466306680683%)" />
  <rect x="170" y="85" width="30" height="30" fill="hsl(240 100% 82.40066391971996%)" />
  <rect x="205" y="85" width="30" height="30" fill="hsl(240 100% 99.01095191322801%)" />
  <rect x="240" y="85" width="30" height="30" fill="hsl(240 100% 51.748849708102576%)" />
  <rect x="310" y="85" width="30" height="30" fill="hsl(240 100% 93.31183179553378%)" />
  <rect x="415" y="85" width="30" height="30" fill="hsl(240 100% 68.23113224956722%)" />
  <rect x="520" y="85" width="30" height="30" fill="hsl(240 100% 50%)" />
  <rect x="625" y="85" width="30" height="30" fill="rgb(255 255 255 / 50%)" />
  <rect x="730" y="85" width="30" height="30" fill="hsl(240 100% 75.00775115856074%)" />
  <rect x="765" y="85" width="30" height="30" fill="rgb(255 255 255 / 50%)" />
  <rect x="835" y="85" width="30" height="30" fill="hsl(240 100% 99.77895236953245%)" />
  <rect x="65" y="120" width="30" height="30" fill="hsl(240 100% 50%)" />
  <rect x="100" y="120" width="30" height="30" fill="hsl(240 100% 82.82613846356088%)" />
  <rect x="135" y="120" width="30" height="30" fill="hsl(240 100% 85.80390485736338%)" />
  <rect x="170" y="120" width="30" height="30" fill="hsl(240 100% 52.265511663856635%)" />
  <rect x="205" y="120" width="30" height="30" fill="hsl(240 100% 92.49343871048629%)" />
  <rect x="240" y="120" width="30" height="30" fill="hsl(240 100% 91.45760058541059%)" />
  <rect x="275" y="120" width="30" height="30" fill="hsl(240 100% 99.40366545557674%)" />
  <rect x="310" y="120" width="30" height="30" fill="hsl(240 100% 98.98801198286479%)" />
  <rect x="380" y="120" width="30" height="30" fill="hsl(240 100% 93.59715602999204%)" />
  <rect x="415" y="120" width="30" height="30" fill="hsl(240 100% 94.60880892136063%)" />
  <rect x="450" y="120" width="30" height="30" fill="hsl(240 100% 97.88102087469278%)" />
  <rect x="520" y="120" width="30" height="30" fill="hsl(240 100% 79.69638773606317%)" />
  <rect x="555" y="120" width="30" height="30" fill="hsl(240 100% 90.51725539783408%)" />
  <rect x="660" y="120" width="30" height="30" fill="rgb(255 255 255 / 50%)" />
  <rect x="835" y="120" width="30" height="30" fill="rgb(255 255 255 / 50%)" />
  <rect x="65" y="155" width="30" height="30" fill="hsl(240 100% 98.42263384994665%)" />
  <rect x="100" y="155" width="30" height="30" fill="hsl(240 100% 98.83253059618764%)" />
  <rect x="135" y="155" width="30" height="30" fill="hsl(240 100% 99.11152483823962%)" />
  <rect x="170" y="155" width="30" height="30" fill="hsl(240 100% 98.03241938716019%)" />
  <rect x="205" y="155" width="30" height="30" fill="hsl(240 100% 99.8478045914857%)" />
  <rect x="240" y="155" width="30" height="30" fill="hsl(240 100% 90.97155568223563%)" />
  <rect x="275" y="155" width="30" height="30" fill="hsl(240 100% 92.4747424924227%)" />
  <rect x="310" y="155" width="30" height="30" fill="rgb(255 255 255 / 50%)" />
  <rect x="415" y="155" width="30" height="30" fill="hsl(240 100% 92.95419814804427%)" />
  <rect x="485" y="155" width="30" height="30" fill="hsl(240 100% 50%)" />
  <rect x="520" y="155" width="30" height="30" fill="hsl(240 100% 83.2543234853029%)" />
  <rect x="590" y="155" width="30" height="30" fill="hsl(240 100% 99.56720751257191%)" />
  <rect x="625" y="155" width="30" height="30" fill="hsl(240 100% 67.46917951653273%)" />
  <rect x="695" y="155" width="30" height="30" fill="hsl(240 100% 95.38203173755113%)" />
  <rect x="730" y="155" width="30" height="30" fill="hsl(240 100% 83.35657871897044%)" />
  <rect x="765" y="155" width="30" height="30" fill="hsl(240 100% 99.58589341785978%)" />
  <rect x="835" y="155" width="30" height="30" fill="hsl(240 100% 95.91832699782479%)" />
  <rect x="65" y="190" width="30" height="30" fill="hsl(240 100% 50%)" />
  <rect x="100" y="190" width="30" height="30" fill="hsl(240 100% 50%)" />
  <rect x="135" y="190" width="30" height="30" fill="hsl(240 100% 50%)" />
  <rect x="170" y="190" width="30" height="30" fill="hsl(240 100% 50%)" />
  <rect x="205" y="190" width="30" height="30" fill="hsl(240 100% 50%)" />
  <rect x="240" y="190" width="30" height="30" fill="hsl(240 100% 50%)" />
  <rect x="275" y="190" width="30" height="30" fill="hsl(240 100% 50%)" />
  <rect x="310" y="190" width="30" height="30" fill="hsl(240 100% 50%)" />
  <rect x="345" y="190" width="30" height="30" fill="hsl(240 100% 50%)" />
  <rect x="380" y="190" width="30" height="30" fill="hsl(240 100% 50%)" />
  <rect x="415" y="190" width="30" height="30" fill="hsl(240 100% 50%)" />
  <rect x="450" y="190" width="30" height="30" fill="hsl(240 100% 50%)" />
  <rect x="485" y="190" width="30" height="30" fill="hsl(240 100% 50%)" />
  <rect x="520" y="190" width="30" height="30" fill="hsl(240 100% 50%)" />
  <rect x="555" y="190" width="30" height="30" fill="hsl(240 100% 50%)" />
  <rect x="590" y="190" width="30" height="30" fill="hsl(240 100% 50%)" />
  <rect x="625" y="190" width="30" height="30" fill="hsl(240 100% 50%)" />
  <rect x="660" y="190" width="30" height="30" fill="hsl(240 100% 50%)" />
  <rect x="695" y="190" width="30" height="30" fill="hsl(240 100% 50%)" />
  <rect x="730" y="190" width="30" height="30" fill="hsl(240 100% 50%)" />
  <rect x="765" y="190" width="30" height="30" fill="hsl(240 100% 50%)" />
  <rect x="800" y="190" width="30" height="30" fill="hsl(240 100% 50%)" />
  <rect x="835" y="190" width="30" height="30" fill="hsl(240 100% 50%)" />
  <rect x="100" y="225" width="30" height="30" fill="hsl(240 100% 96.72951132286641%)" />
  <rect x="135" y="225" width="30" height="30" fill="hsl(240 100% 89.4045316716437%)" />
  <rect x="170" y="225" width="30" height="30" fill="hsl(240 100% 89.37227229185504%)" />
  <rect x="240" y="225" width="30" height="30" fill="hsl(240 100% 91.39867323292853%)" />
  <rect x="310" y="225" width="30" height="30" fill="rgb(255 255 255 / 50%)" />
  <rect x="415" y="225" width="30" height="30" fill="hsl(240 100% 90.77759598316703%)" />
  <rect x="520" y="225" width="30" height="30" fill="hsl(240 100% 50%)" />
  <rect x="625" y="225" width="30" height="30" fill="rgb(255 255 255 / 50%)" />
  <rect x="730" y="225" width="30" height="30" fill="hsl(240 100% 93.28949816928649%)" />
  <rect x="765" y="225" width="30" height="30" fill="rgb(255 255 255 / 50%)" />
  <rect x="835" y="225" width="30" height="30" fill="hsl(240 100% 94.6523176739484%)" />
  <rect x="65" y="260" width="30" height="30" fill="hsl(240 100% 99.88872617080112%)" />
  <rect x="135" y="260" width="30" height="30" fill="hsl(240 100% 99.85185252092651%)" />
  <rect x="170" y="260" width="30" height="30" fill="hsl(240 100% 98.86950429848154%)" />
  <rect x="205" y="260" width="30" height="30" fill="rgb(255 255 255 / 50%)" />
  <rect x="240" y="260" width="30" height="30" fill="hsl(240 100% 86.85575872191629%)" />
  <rect x="310" y="260" width="30" height="30" fill="rgb(255 255 255 / 50%)" />
  <rect x="415" y="260" width="30" height="30" fill="hsl(240 100% 80.68899765802514%)" />
  <rect x="450" y="260" width="30" height="30" fill="rgb(255 255 255 / 50%)" />
  <rect x="485" y="260" width="30" height="30" fill="hsl(240 100% 50%)" />
  <rect x="520" y="260" width="30" height="30" fill="hsl(240 100% 71.16025478734056%)" />
  <rect x="625" y="260" width="30" height="30" fill="hsl(240 100% 96.93025754843434%)" />
  <rect x="695" y="260" width="30" height="30" fill="hsl(240 100% 94.0575706045034%)" />
  <rect x="65" y="295" width="30" height="30" fill="hsl(240 100% 86.09778718443694%)" />
  <rect x="100" y="295" width="30" height="30" fill="hsl(240 100% 97.52103842552684%)" />
  <rect x="135" y="295" width="30" height="30" fill="hsl(240 100% 95.1109336068795%)" />
  <rect x="170" y="295" width="30" height="30" fill="hsl(240 100% 90.69745790025848%)" />
  <rect x="205" y="295" width="30" height="30" fill="hsl(240 100% 99.45505942813173%)" />
  <rect x="240" y="295" width="30" height="30" fill="hsl(240 100% 50.669672512207136%)" />
  <rect x="275" y="295" width="30" height="30" fill="hsl(240 100% 50%)" />
  <rect x="310" y="295" width="30" height="30" fill="hsl(240 100% 99.50016039740693%)" />
  <rect x="345" y="295" width="30" height="30" fill="hsl(240 100% 94.69525874072016%)" />
  <rect x="415" y="295" width="30" height="30" fill="hsl(240 100% 55.400530142294585%)" />
  <rect x="450" y="295" width="30" height="30" fill="hsl(240 100% 99.3261809368232%)" />
  <rect x="485" y="295" width="30" height="30" fill="hsl(240 100% 88.76999861137139%)" />
  <rect x="520" y="295" width="30" height="30" fill="hsl(240 100% 57.91108947366692%)" />
  <rect x="695" y="295" width="30" height="30" fill="hsl(240 100% 97.61678750385967%)" />
  <rect x="800" y="295" width="30" height="30" fill="hsl(240 100% 99.57388861753462%)" />
  <rect x="835" y="295" width="30" height="30" fill="hsl(240 100% 99.9560567259684%)" />
  <rect x="65" y="330" width="30" height="30" fill="hsl(240 100% 88.91952351896954%)" />
  <rect x="100" y="330" width="30" height="30" fill="hsl(240 100% 94.959128472862%)" />
  <rect x="135" y="330" width="30" height="30" fill="hsl(240 100% 97.16893530809244%)" />
  <rect x="170" y="330" width="30" height="30" fill="hsl(240 100% 88.53416758376456%)" />
  <rect x="205" y="330" width="30" height="30" fill="hsl(240 100% 99.20417917718369%)" />
  <rect x="240" y="330" width="30" height="30" fill="hsl(240 100% 80.73031999743482%)" />
  <rect x="275" y="330" width="30" height="30" fill="hsl(240 100% 87.64350605880061%)" />
  <rect x="310" y="330" width="30" height="30" fill="rgb(255 255 255 / 50%)" />
  <rect x="345" y="330" width="30" height="30" fill="hsl(240 100% 97.24406347835796%)" />
  <rect x="415" y="330" width="30" height="30" fill="hsl(240 100% 85.95663517519768%)" />
  <rect x="450" y="330" width="30" height="30" fill="hsl(240 100% 99.81387615094805%)" />
  <rect x="485" y="330" width="30" height="30" fill="hsl(240 100% 72.37841475079036%)" />
  <rect x="520" y="330" width="30" height="30" fill="hsl(240 100% 76.69772470807388%)" />
  <rect x="590" y="330" width="30" height="30" fill="hsl(240 100% 93.94753102620102%)" />
  <rect x="625" y="330" width="30" height="30" fill="hsl(240 100% 50%)" />
  <rect x="765" y="330" width="30" height="30" fill="hsl(240 100% 94.41597800622775%)" />
  <rect x="800" y="330" width="30" height="30" fill="hsl(240 100% 99.23250094291734%)" />
  <rect x="835" y="330" width="30" height="30" fill="hsl(240 100% 82.4124307890291%)" />
  <rect x="65" y="365" width="30" height="30" fill="hsl(240 100% 57.696708076640064%)" />
  <rect x="100" y="365" width="30" height="30" fill="hsl(240 100% 72.21265068946587%)" />
  <rect x="135" y="365" width="30" height="30" fill="hsl(240 100% 82.17681796116534%)" />
  <rect x="170" y="365" width="30" height="30" fill="hsl(240 100% 50%)" />
  <rect x="205" y="365" width="30" height="30" fill="hsl(240 100% 96.21670528089389%)" />
  <rect x="240" y="365" width="30" height="30" fill="hsl(240 100% 59.6207213224263%)" />
  <rect x="275" y="365" width="30" height="30" fill="hsl(240 100% 92.36220844578047%)" />
  <rect x="310" y="365" width="30" height="30" fill="hsl(240 100% 99.86207350108117%)" />
  <rect x="415" y="365" width="30" height="30" fill="hsl(240 100% 66.65315398840701%)" />
  <rect x="520" y="365" width="30" height="30" fill="hsl(240 100% 85.91565835847376%)" />
  <rect x="625" y="365" width="30" height="30" fill="hsl(240 100% 99.6275397144172%)" />
  <rect x="730" y="365" width="30" height="30" fill="hsl(240 100% 63.46883976623197%)" />
  <rect x="765" y="365" width="30" height="30" fill="hsl(240 100% 98.17555161249163%)" />
  <rect x="835" y="365" width="30" height="30" fill="hsl(240 100% 98.7847882354736%)" />
  <rect x="65" y="400" width="30" height="30" fill="hsl(240 100% 98.4649372178109%)" />
  <rect x="100" y="400" width="30" height="30" fill="hsl(240 100% 99.40060491428223%)" />
  <rect x="135" y="400" width="30" height="30" fill="hsl(240 100% 99.66887650692516%)" />
  <rect x="170" y="400" width="30" height="30" fill="hsl(240 100% 95.32925831864462%)" />
  <rect x="205" y="400" width="30" height="30" fill="hsl(240 100% 99.22222160089298%)" />
  <rect x="240" y="400" width="30" height="30" fill="hsl(240 100% 85.80045329154402%)" />
  <rect x="275" y="400" width="30" height="30" fill="hsl(240 100% 95.38172178805628%)" />
  <rect x="310" y="400" width="30" height="30" fill="rgb(255 255 255 / 50%)" />
  <rect x="380" y="400" width="30" height="30" fill="rgb(255 255 255 / 50%)" />
  <rect x="415" y="400" width="30" height="30" fill="hsl(240 100% 93.9343462874147%)" />
  <rect x="450" y="400" width="30" height="30" fill="hsl(240 100% 99.97006702975928%)" />
  <rect x="485" y="400" width="30" height="30" fill="hsl(240 100% 77.74585891758703%)" />
  <rect x="520" y="400" width="30" height="30" fill="hsl(240 100% 50%)" />
  <rect x="555" y="400" width="30" height="30" fill="hsl(240 100% 99.09582038720067%)" />
  <rect x="660" y="400" width="30" height="30" fill="rgb(255 255 255 / 50%)" />
  <rect x="835" y="400" width="30" height="30" fill="hsl(240 100% 99.20086672136345%)" />
  <rect x="65" y="435" width="30" height="30" fill="hsl(240 100% 92.82938644870691%)" />
  <rect x="240" y="435" width="30" height="30" fill="hsl(240 100% 50%)" />
  <rect x="310" y="435" width="30" height="30" fill="hsl(240 100% 94.29950586152795%)" />
  <rect x="415" y="435" width="30" height="30" fill="hsl(240 100% 87.04152430649756%)" />
  <rect x="450" y="435" width="30" height="30" fill="hsl(240 100% 99.77947371952075%)" />
  <rect x="65" y="470" width="30" height="30" fill="hsl(240 100% 50%)" />
  <rect x="240" y="470" width="30" height="30" fill="hsl(240 100% 50.28252503386376%)" />
  <rect x="310" y="470" width="30" height="30" fill="hsl(240 100% 97.14514771628427%)" />
  <rect x="415" y="470" width="30" height="30" fill="hsl(240 100% 89.0860424746825%)" />
  <rect x="450" y="470" width="30" height="30" fill="hsl(240 100% 99.56957884323866%)" />
</svg>
