<svg xmlns="http://www.w3.org/2000/svg" viewBox="0 0 870 505">
  <rect x="0" y="0" width="870" height="505" rx="5" ry="5" fill="#222" />
  <text x="60" y="100" fill="white" font-family="sans-serif" font-weight="bold" font-size="12" text-anchor="end" dominant-baseline="middle">ba</text>
  <text x="60" y="135" fill="white" font-family="sans-serif" font-weight="bold" font-size="12" text-anchor="end" dominant-baseline="middle">det</text>
  <text x="60" y="170" fill="white" font-family="sans-serif" font-weight="bold" font-size="12" text-anchor="end" dominant-baseline="middle">gmm</text>
  <text x="60" y="205" fill="white" font-family="sans-serif" font-weight="bold" font-size="12" text-anchor="end" dominant-baseline="middle">hello</text>
  <text x="60" y="240" fill="white" font-family="sans-serif" font-weight="bold" font-size="12" text-anchor="end" dominant-baseline="middle">ht</text>
  <text x="60" y="275" fill="white" font-family="sans-serif" font-weight="bold" font-size="12" text-anchor="end" dominant-baseline="middle">kmeans</text>
  <text x="60" y="310" fill="white" font-family="sans-serif" font-weight="bold" font-size="12" text-anchor="end" dominant-baseline="middle">llsq</text>
  <text x="60" y="345" fill="white" font-family="sans-serif" font-weight="bold" font-size="12" text-anchor="end" dominant-baseline="middle">lse</text>
  <text x="60" y="380" fill="white" font-family="sans-serif" font-weight="bold" font-size="12" text-anchor="end" dominant-baseline="middle">lstm</text>
  <text x="60" y="415" fill="white" font-family="sans-serif" font-weight="bold" font-size="12" text-anchor="end" dominant-baseline="middle">ode</text>
  <text x="60" y="450" fill="white" font-family="sans-serif" font-weight="bold" font-size="12" text-anchor="end" dominant-baseline="middle">particle</text>
  <text x="60" y="485" fill="white" font-family="sans-serif" font-weight="bold" font-size="12" text-anchor="end" dominant-baseline="middle">saddle</text>
  <text x="80" y="80" fill="white" font-family="sans-serif" font-weight="bold" font-size="12" text-anchor="end" dominant-baseline="middle" transform="rotate(90 80 80)">ad-hpp</text>
  <text x="115" y="80" fill="white" font-family="sans-serif" font-weight="bold" font-size="12" text-anchor="end" dominant-baseline="middle" transform="rotate(90 115 80)">adept</text>
  <text x="150" y="80" fill="white" font-family="sans-serif" font-weight="bold" font-size="12" text-anchor="end" dominant-baseline="middle" transform="rotate(90 150 80)">adol-c</text>
  <text x="185" y="80" fill="white" font-family="sans-serif" font-weight="bold" font-size="12" text-anchor="end" dominant-baseline="middle" transform="rotate(90 185 80)">codipack</text>
  <text x="220" y="80" fill="white" font-family="sans-serif" font-weight="bold" font-size="12" text-anchor="end" dominant-baseline="middle" transform="rotate(90 220 80)">cppad</text>
  <text x="255" y="80" fill="white" font-family="sans-serif" font-weight="bold" font-size="12" text-anchor="end" dominant-baseline="middle" transform="rotate(90 255 80)">enzyme</text>
  <text x="290" y="80" fill="white" font-family="sans-serif" font-weight="bold" font-size="12" text-anchor="end" dominant-baseline="middle" transform="rotate(90 290 80)">enzyme-jl</text>
  <text x="325" y="80" fill="white" font-family="sans-serif" font-weight="bold" font-size="12" text-anchor="end" dominant-baseline="middle" transform="rotate(90 325 80)">finite</text>
  <text x="360" y="80" fill="white" font-family="sans-serif" font-weight="bold" font-size="12" text-anchor="end" dominant-baseline="middle" transform="rotate(90 360 80)">floretta</text>
  <text x="395" y="80" fill="white" font-family="sans-serif" font-weight="bold" font-size="12" text-anchor="end" dominant-baseline="middle" transform="rotate(90 395 80)">forwarddiff-jl</text>
  <text x="430" y="80" fill="white" font-family="sans-serif" font-weight="bold" font-size="12" text-anchor="end" dominant-baseline="middle" transform="rotate(90 430 80)">futhark</text>
  <text x="465" y="80" fill="white" font-family="sans-serif" font-weight="bold" font-size="12" text-anchor="end" dominant-baseline="middle" transform="rotate(90 465 80)">haskell</text>
  <text x="500" y="80" fill="white" font-family="sans-serif" font-weight="bold" font-size="12" text-anchor="end" dominant-baseline="middle" transform="rotate(90 500 80)">jax</text>
  <text x="535" y="80" fill="white" font-family="sans-serif" font-weight="bold" font-size="12" text-anchor="end" dominant-baseline="middle" transform="rotate(90 535 80)">manual</text>
  <text x="570" y="80" fill="white" font-family="sans-serif" font-weight="bold" font-size="12" text-anchor="end" dominant-baseline="middle" transform="rotate(90 570 80)">mooncake-jl</text>
  <text x="605" y="80" fill="white" font-family="sans-serif" font-weight="bold" font-size="12" text-anchor="end" dominant-baseline="middle" transform="rotate(90 605 80)">ocaml</text>
  <text x="640" y="80" fill="white" font-family="sans-serif" font-weight="bold" font-size="12" text-anchor="end" dominant-baseline="middle" transform="rotate(90 640 80)">pytorch</text>
  <text x="675" y="80" fill="white" font-family="sans-serif" font-weight="bold" font-size="12" text-anchor="end" dominant-baseline="middle" transform="rotate(90 675 80)">reversediff-jl</text>
  <text x="710" y="80" fill="white" font-family="sans-serif" font-weight="bold" font-size="12" text-anchor="end" dominant-baseline="middle" transform="rotate(90 710 80)">scilean</text>
  <text x="745" y="80" fill="white" font-family="sans-serif" font-weight="bold" font-size="12" text-anchor="end" dominant-baseline="middle" transform="rotate(90 745 80)">tapenade</text>
  <text x="780" y="80" fill="white" font-family="sans-serif" font-weight="bold" font-size="12" text-anchor="end" dominant-baseline="middle" transform="rotate(90 780 80)">tensorflow</text>
  <text x="815" y="80" fill="white" font-family="sans-serif" font-weight="bold" font-size="12" text-anchor="end" dominant-baseline="middle" transform="rotate(90 815 80)">tensorflow-js</text>
  <text x="850" y="80" fill="white" font-family="sans-serif" font-weight="bold" font-size="12" text-anchor="end" dominant-baseline="middle" transform="rotate(90 850 80)">zygote</text>
  <rect x="65" y="85" width="30" height="30" fill="hsl(240 100% 80.69427796627915%)" />
  <rect x="100" y="85" width="30" height="30" fill="hsl(240 100% 82.15084131959713%)" />
  <rect x="135" y="85" width="30" height="30" fill="hsl(240 100% 97.83453086465548%)" />
  <rect x="170" y="85" width="30" height="30" fill="hsl(240 100% 81.79702409192925%)" />
  <rect x="205" y="85" width="30" height="30" fill="hsl(240 100% 98.95752176967898%)" />
  <rect x="240" y="85" width="30" height="30" fill="hsl(240 100% 50.50802279475327%)" />
  <rect x="310" y="85" width="30" height="30" fill="hsl(240 100% 92.92490852452167%)" />
  <rect x="415" y="85" width="30" height="30" fill="hsl(240 100% 67.42261208426498%)" />
  <rect x="520" y="85" width="30" height="30" fill="hsl(240 100% 50%)" />
  <rect x="625" y="85" width="30" height="30" fill="rgb(255 255 255 / 50%)" />
  <rect x="730" y="85" width="30" height="30" fill="hsl(240 100% 74.23197065322074%)" />
  <rect x="765" y="85" width="30" height="30" fill="rgb(255 255 255 / 50%)" />
  <rect x="835" y="85" width="30" height="30" fill="hsl(240 100% 99.72931554456167%)" />
  <rect x="65" y="120" width="30" height="30" fill="hsl(240 100% 50%)" />
  <rect x="100" y="120" width="30" height="30" fill="hsl(240 100% 84.86603938012894%)" />
  <rect x="135" y="120" width="30" height="30" fill="hsl(240 100% 85.4424779343654%)" />
  <rect x="170" y="120" width="30" height="30" fill="hsl(240 100% 52.291630313665465%)" />
  <rect x="205" y="120" width="30" height="30" fill="hsl(240 100% 92.67564650357788%)" />
  <rect x="240" y="120" width="30" height="30" fill="hsl(240 100% 91.66016063748143%)" />
  <rect x="275" y="120" width="30" height="30" fill="hsl(240 100% 99.29583426134243%)" />
  <rect x="310" y="120" width="30" height="30" fill="hsl(240 100% 98.99444900611083%)" />
  <rect x="380" y="120" width="30" height="30" fill="hsl(240 100% 93.45583540291295%)" />
  <rect x="415" y="120" width="30" height="30" fill="hsl(240 100% 94.60468152771958%)" />
  <rect x="450" y="120" width="30" height="30" fill="hsl(240 100% 97.9228827100822%)" />
  <rect x="520" y="120" width="30" height="30" fill="hsl(240 100% 79.7876649664917%)" />
  <rect x="555" y="120" width="30" height="30" fill="hsl(240 100% 90.2687102345248%)" />
  <rect x="660" y="120" width="30" height="30" fill="rgb(255 255 255 / 50%)" />
  <rect x="835" y="120" width="30" height="30" fill="rgb(255 255 255 / 50%)" />
  <rect x="65" y="155" width="30" height="30" fill="hsl(240 100% 97.90975349547702%)" />
  <rect x="100" y="155" width="30" height="30" fill="hsl(240 100% 98.80695851436435%)" />
  <rect x="135" y="155" width="30" height="30" fill="hsl(240 100% 99.1884422935878%)" />
  <rect x="170" y="155" width="30" height="30" fill="hsl(240 100% 98.40785684396175%)" />
  <rect x="205" y="155" width="30" height="30" fill="hsl(240 100% 99.83412591842072%)" />
  <rect x="240" y="155" width="30" height="30" fill="hsl(240 100% 90.45383449525038%)" />
  <rect x="275" y="155" width="30" height="30" fill="hsl(240 100% 91.08129132713316%)" />
  <rect x="310" y="155" width="30" height="30" fill="rgb(255 255 255 / 50%)" />
  <rect x="415" y="155" width="30" height="30" fill="hsl(240 100% 92.31112519894258%)" />
  <rect x="485" y="155" width="30" height="30" fill="hsl(240 100% 50%)" />
  <rect x="520" y="155" width="30" height="30" fill="hsl(240 100% 79.56387282563969%)" />
  <rect x="590" y="155" width="30" height="30" fill="hsl(240 100% 99.57685659035685%)" />
  <rect x="625" y="155" width="30" height="30" fill="hsl(240 100% 62.94687815668217%)" />
  <rect x="695" y="155" width="30" height="30" fill="hsl(240 100% 94.97781366378176%)" />
  <rect x="730" y="155" width="30" height="30" fill="hsl(240 100% 82.01231274474974%)" />
  <rect x="765" y="155" width="30" height="30" fill="hsl(240 100% 99.53422297735882%)" />
  <rect x="835" y="155" width="30" height="30" fill="hsl(240 100% 96.15790854487881%)" />
  <rect x="65" y="190" width="30" height="30" fill="hsl(240 100% 50%)" />
  <rect x="100" y="190" width="30" height="30" fill="hsl(240 100% 50%)" />
  <rect x="135" y="190" width="30" height="30" fill="hsl(240 100% 50%)" />
  <rect x="170" y="190" width="30" height="30" fill="hsl(240 100% 50%)" />
  <rect x="205" y="190" width="30" height="30" fill="hsl(240 100% 50%)" />
  <rect x="240" y="190" width="30" height="30" fill="hsl(240 100% 50%)" />
  <rect x="275" y="190" width="30" height="30" fill="hsl(240 100% 50%)" />
  <rect x="310" y="190" width="30" height="30" fill="hsl(240 100% 50%)" />
  <rect x="345" y="190" width="30" height="30" fill="hsl(240 100% 50%)" />
  <rect x="380" y="190" width="30" height="30" fill="hsl(240 100% 50%)" />
  <rect x="415" y="190" width="30" height="30" fill="hsl(240 100% 50%)" />
  <rect x="450" y="190" width="30" height="30" fill="hsl(240 100% 50%)" />
  <rect x="485" y="190" width="30" height="30" fill="hsl(240 100% 50%)" />
  <rect x="520" y="190" width="30" height="30" fill="hsl(240 100% 50%)" />
  <rect x="555" y="190" width="30" height="30" fill="hsl(240 100% 50%)" />
  <rect x="590" y="190" width="30" height="30" fill="hsl(240 100% 50%)" />
  <rect x="625" y="190" width="30" height="30" fill="hsl(240 100% 50%)" />
  <rect x="660" y="190" width="30" height="30" fill="hsl(240 100% 50%)" />
  <rect x="695" y="190" width="30" height="30" fill="hsl(240 100% 50%)" />
  <rect x="730" y="190" width="30" height="30" fill="hsl(240 100% 50%)" />
  <rect x="765" y="190" width="30" height="30" fill="hsl(240 100% 50%)" />
  <rect x="800" y="190" width="30" height="30" fill="hsl(240 100% 50%)" />
  <rect x="835" y="190" width="30" height="30" fill="hsl(240 100% 50%)" />
  <rect x="100" y="225" width="30" height="30" fill="hsl(240 100% 96.53027980474654%)" />
  <rect x="135" y="225" width="30" height="30" fill="hsl(240 100% 87.48336046744575%)" />
  <rect x="170" y="225" width="30" height="30" fill="hsl(240 100% 87.75750551228468%)" />
  <rect x="240" y="225" width="30" height="30" fill="hsl(240 100% 90.08335703787908%)" />
  <rect x="310" y="225" width="30" height="30" fill="rgb(255 255 255 / 50%)" />
  <rect x="415" y="225" width="30" height="30" fill="hsl(240 100% 89.25103885917531%)" />
  <rect x="520" y="225" width="30" height="30" fill="hsl(240 100% 50%)" />
  <rect x="625" y="225" width="30" height="30" fill="rgb(255 255 255 / 50%)" />
  <rect x="730" y="225" width="30" height="30" fill="hsl(240 100% 92.2795102794965%)" />
  <rect x="765" y="225" width="30" height="30" fill="rgb(255 255 255 / 50%)" />
  <rect x="835" y="225" width="30" height="30" fill="hsl(240 100% 93.43130026561165%)" />
  <rect x="65" y="260" width="30" height="30" fill="hsl(240 100% 99.86356503644775%)" />
  <rect x="135" y="260" width="30" height="30" fill="hsl(240 100% 99.88682707186439%)" />
  <rect x="170" y="260" width="30" height="30" fill="hsl(240 100% 99.02604472551677%)" />
  <rect x="205" y="260" width="30" height="30" fill="rgb(255 255 255 / 50%)" />
  <rect x="240" y="260" width="30" height="30" fill="hsl(240 100% 87.1372912372818%)" />
  <rect x="310" y="260" width="30" height="30" fill="rgb(255 255 255 / 50%)" />
  <rect x="415" y="260" width="30" height="30" fill="hsl(240 100% 81.15906539687877%)" />
  <rect x="450" y="260" width="30" height="30" fill="rgb(255 255 255 / 50%)" />
  <rect x="485" y="260" width="30" height="30" fill="hsl(240 100% 50%)" />
  <rect x="520" y="260" width="30" height="30" fill="hsl(240 100% 72.65193985310648%)" />
  <rect x="625" y="260" width="30" height="30" fill="hsl(240 100% 97.21744171055963%)" />
  <rect x="695" y="260" width="30" height="30" fill="hsl(240 100% 94.17881715134067%)" />
  <rect x="65" y="295" width="30" height="30" fill="hsl(240 100% 85.993449795869%)" />
  <rect x="100" y="295" width="30" height="30" fill="hsl(240 100% 97.46195801786932%)" />
  <rect x="135" y="295" width="30" height="30" fill="hsl(240 100% 94.98473943257778%)" />
  <rect x="170" y="295" width="30" height="30" fill="hsl(240 100% 89.30796727153167%)" />
  <rect x="205" y="295" width="30" height="30" fill="hsl(240 100% 99.48000004544373%)" />
  <rect x="240" y="295" width="30" height="30" fill="hsl(240 100% 50.10394184860025%)" />
  <rect x="275" y="295" width="30" height="30" fill="hsl(240 100% 50%)" />
  <rect x="310" y="295" width="30" height="30" fill="hsl(240 100% 99.49448312130103%)" />
  <rect x="345" y="295" width="30" height="30" fill="hsl(240 100% 94.65681961714733%)" />
  <rect x="415" y="295" width="30" height="30" fill="hsl(240 100% 54.81887242515948%)" />
  <rect x="450" y="295" width="30" height="30" fill="hsl(240 100% 99.33715339465029%)" />
  <rect x="485" y="295" width="30" height="30" fill="hsl(240 100% 88.3721206920894%)" />
  <rect x="520" y="295" width="30" height="30" fill="hsl(240 100% 57.44129824810891%)" />
  <rect x="695" y="295" width="30" height="30" fill="hsl(240 100% 97.6090700859634%)" />
  <rect x="800" y="295" width="30" height="30" fill="hsl(240 100% 99.57616621984229%)" />
  <rect x="835" y="295" width="30" height="30" fill="hsl(240 100% 99.9487727492361%)" />
  <rect x="65" y="330" width="30" height="30" fill="hsl(240 100% 86.80472717362221%)" />
  <rect x="100" y="330" width="30" height="30" fill="hsl(240 100% 94.06307864051747%)" />
  <rect x="135" y="330" width="30" height="30" fill="hsl(240 100% 96.87857557338768%)" />
  <rect x="170" y="330" width="30" height="30" fill="hsl(240 100% 86.66694381605805%)" />
  <rect x="205" y="330" width="30" height="30" fill="hsl(240 100% 99.17128928343371%)" />
  <rect x="240" y="330" width="30" height="30" fill="hsl(240 100% 78.54524555666171%)" />
  <rect x="275" y="330" width="30" height="30" fill="hsl(240 100% 86.86887516779866%)" />
  <rect x="310" y="330" width="30" height="30" fill="rgb(255 255 255 / 50%)" />
  <rect x="345" y="330" width="30" height="30" fill="hsl(240 100% 97.01119192639052%)" />
  <rect x="415" y="330" width="30" height="30" fill="hsl(240 100% 80.65512751975886%)" />
  <rect x="450" y="330" width="30" height="30" fill="hsl(240 100% 99.80451818728791%)" />
  <rect x="485" y="330" width="30" height="30" fill="hsl(240 100% 69.84727085727162%)" />
  <rect x="520" y="330" width="30" height="30" fill="hsl(240 100% 69.05395571306971%)" />
  <rect x="590" y="330" width="30" height="30" fill="hsl(240 100% 94.1114164397598%)" />
  <rect x="625" y="330" width="30" height="30" fill="hsl(240 100% 50%)" />
  <rect x="765" y="330" width="30" height="30" fill="hsl(240 100% 95.38979174763607%)" />
  <rect x="800" y="330" width="30" height="30" fill="hsl(240 100% 99.20181655149202%)" />
  <rect x="835" y="330" width="30" height="30" fill="hsl(240 100% 80.51523281227477%)" />
  <rect x="65" y="365" width="30" height="30" fill="hsl(240 100% 57.64737767133311%)" />
  <rect x="100" y="365" width="30" height="30" fill="hsl(240 100% 71.3172269628393%)" />
  <rect x="135" y="365" width="30" height="30" fill="hsl(240 100% 81.83061061143516%)" />
  <rect x="170" y="365" width="30" height="30" fill="hsl(240 100% 50%)" />
  <rect x="205" y="365" width="30" height="30" fill="hsl(240 100% 96.05752925119795%)" />
  <rect x="240" y="365" width="30" height="30" fill="hsl(240 100% 59.37406376342956%)" />
  <rect x="275" y="365" width="30" height="30" fill="hsl(240 100% 92.93578841391277%)" />
  <rect x="310" y="365" width="30" height="30" fill="hsl(240 100% 99.86196868055207%)" />
  <rect x="415" y="365" width="30" height="30" fill="hsl(240 100% 67.2116247185066%)" />
  <rect x="520" y="365" width="30" height="30" fill="hsl(240 100% 86.1332861476714%)" />
  <rect x="625" y="365" width="30" height="30" fill="hsl(240 100% 99.6375513991997%)" />
  <rect x="730" y="365" width="30" height="30" fill="hsl(240 100% 63.535930620591415%)" />
  <rect x="765" y="365" width="30" height="30" fill="hsl(240 100% 98.16847910999367%)" />
  <rect x="835" y="365" width="30" height="30" fill="hsl(240 100% 98.90557341791249%)" />
  <rect x="65" y="400" width="30" height="30" fill="hsl(240 100% 97.67602735974776%)" />
  <rect x="100" y="400" width="30" height="30" fill="hsl(240 100% 99.37197308926036%)" />
  <rect x="135" y="400" width="30" height="30" fill="hsl(240 100% 99.58033757416918%)" />
  <rect x="170" y="400" width="30" height="30" fill="hsl(240 100% 92.68218056025918%)" />
  <rect x="205" y="400" width="30" height="30" fill="hsl(240 100% 99.04875181072289%)" />
  <rect x="240" y="400" width="30" height="30" fill="hsl(240 100% 85.38555644844136%)" />
  <rect x="275" y="400" width="30" height="30" fill="hsl(240 100% 95.7163168390003%)" />
  <rect x="310" y="400" width="30" height="30" fill="rgb(255 255 255 / 50%)" />
  <rect x="380" y="400" width="30" height="30" fill="rgb(255 255 255 / 50%)" />
  <rect x="415" y="400" width="30" height="30" fill="hsl(240 100% 92.57125745904018%)" />
  <rect x="450" y="400" width="30" height="30" fill="hsl(240 100% 99.96363149070032%)" />
  <rect x="485" y="400" width="30" height="30" fill="hsl(240 100% 73.04315142095626%)" />
  <rect x="520" y="400" width="30" height="30" fill="hsl(240 100% 50%)" />
  <rect x="555" y="400" width="30" height="30" fill="hsl(240 100% 99.297130194164%)" />
  <rect x="660" y="400" width="30" height="30" fill="rgb(255 255 255 / 50%)" />
  <rect x="835" y="400" width="30" height="30" fill="hsl(240 100% 99.0049618222527%)" />
  <rect x="65" y="435" width="30" height="30" fill="hsl(240 100% 93.30611117540788%)" />
  <rect x="240" y="435" width="30" height="30" fill="hsl(240 100% 50%)" />
  <rect x="310" y="435" width="30" height="30" fill="hsl(240 100% 93.85187537128974%)" />
  <rect x="415" y="435" width="30" height="30" fill="hsl(240 100% 87.07713992485775%)" />
  <rect x="450" y="435" width="30" height="30" fill="hsl(240 100% 99.80328157087791%)" />
  <rect x="65" y="470" width="30" height="30" fill="hsl(240 100% 50.07806959801311%)" />
  <rect x="240" y="470" width="30" height="30" fill="hsl(240 100% 50%)" />
  <rect x="310" y="470" width="30" height="30" fill="hsl(240 100% 96.97706178631836%)" />
  <rect x="415" y="470" width="30" height="30" fill="hsl(240 100% 89.16519716613581%)" />
  <rect x="450" y="470" width="30" height="30" fill="hsl(240 100% 99.59330024629912%)" />
</svg>
