<svg xmlns="http://www.w3.org/2000/svg" viewBox="0 0 625 295">
  <rect x="0" y="0" width="625" height="295" rx="5" ry="5" fill="#222" />
  <text x="60" y="100" fill="white" font-family="sans-serif" font-weight="bold" font-size="12" text-anchor="end" dominant-baseline="middle">ba</text>
  <text x="60" y="135" fill="white" font-family="sans-serif" font-weight="bold" font-size="12" text-anchor="end" dominant-baseline="middle">gmm</text>
  <text x="60" y="170" fill="white" font-family="sans-serif" font-weight="bold" font-size="12" text-anchor="end" dominant-baseline="middle">hello</text>
  <text x="60" y="205" fill="white" font-family="sans-serif" font-weight="bold" font-size="12" text-anchor="end" dominant-baseline="middle">ht</text>
  <text x="60" y="240" fill="white" font-family="sans-serif" font-weight="bold" font-size="12" text-anchor="end" dominant-baseline="middle">kmeans</text>
  <text x="60" y="275" fill="white" font-family="sans-serif" font-weight="bold" font-size="12" text-anchor="end" dominant-baseline="middle">lstm</text>
  <text x="80" y="80" fill="white" font-family="sans-serif" font-weight="bold" font-size="12" text-anchor="end" dominant-baseline="middle" transform="rotate(90 80 80)">adept</text>
  <text x="115" y="80" fill="white" font-family="sans-serif" font-weight="bold" font-size="12" text-anchor="end" dominant-baseline="middle" transform="rotate(90 115 80)">adol-c</text>
  <text x="150" y="80" fill="white" font-family="sans-serif" font-weight="bold" font-size="12" text-anchor="end" dominant-baseline="middle" transform="rotate(90 150 80)">cppad</text>
  <text x="185" y="80" fill="white" font-family="sans-serif" font-weight="bold" font-size="12" text-anchor="end" dominant-baseline="middle" transform="rotate(90 185 80)">enzyme</text>
  <text x="220" y="80" fill="white" font-family="sans-serif" font-weight="bold" font-size="12" text-anchor="end" dominant-baseline="middle" transform="rotate(90 220 80)">finite</text>
  <text x="255" y="80" fill="white" font-family="sans-serif" font-weight="bold" font-size="12" text-anchor="end" dominant-baseline="middle" transform="rotate(90 255 80)">floretta</text>
  <text x="290" y="80" fill="white" font-family="sans-serif" font-weight="bold" font-size="12" text-anchor="end" dominant-baseline="middle" transform="rotate(90 290 80)">futhark</text>
  <text x="325" y="80" fill="white" font-family="sans-serif" font-weight="bold" font-size="12" text-anchor="end" dominant-baseline="middle" transform="rotate(90 325 80)">haskell</text>
  <text x="360" y="80" fill="white" font-family="sans-serif" font-weight="bold" font-size="12" text-anchor="end" dominant-baseline="middle" transform="rotate(90 360 80)">jax</text>
  <text x="395" y="80" fill="white" font-family="sans-serif" font-weight="bold" font-size="12" text-anchor="end" dominant-baseline="middle" transform="rotate(90 395 80)">manual</text>
  <text x="430" y="80" fill="white" font-family="sans-serif" font-weight="bold" font-size="12" text-anchor="end" dominant-baseline="middle" transform="rotate(90 430 80)">ocaml</text>
  <text x="465" y="80" fill="white" font-family="sans-serif" font-weight="bold" font-size="12" text-anchor="end" dominant-baseline="middle" transform="rotate(90 465 80)">pytorch</text>
  <text x="500" y="80" fill="white" font-family="sans-serif" font-weight="bold" font-size="12" text-anchor="end" dominant-baseline="middle" transform="rotate(90 500 80)">scilean</text>
  <text x="535" y="80" fill="white" font-family="sans-serif" font-weight="bold" font-size="12" text-anchor="end" dominant-baseline="middle" transform="rotate(90 535 80)">tapenade</text>
  <text x="570" y="80" fill="white" font-family="sans-serif" font-weight="bold" font-size="12" text-anchor="end" dominant-baseline="middle" transform="rotate(90 570 80)">tensorflow</text>
  <text x="605" y="80" fill="white" font-family="sans-serif" font-weight="bold" font-size="12" text-anchor="end" dominant-baseline="middle" transform="rotate(90 605 80)">zygote</text>
  <rect x="65" y="85" width="30" height="30" fill="hsl(240 100% 84.56839852104557%)" />
  <rect x="100" y="85" width="30" height="30" fill="hsl(240 100% 98.03936586210371%)" />
  <rect x="170" y="85" width="30" height="30" fill="hsl(240 100% 50.727463456195224%)" />
  <rect x="205" y="85" width="30" height="30" fill="hsl(240 100% 92.07906037392638%)" />
  <rect x="275" y="85" width="30" height="30" fill="hsl(240 100% 76.39186729809907%)" />
  <rect x="380" y="85" width="30" height="30" fill="hsl(240 100% 50%)" />
  <rect x="450" y="85" width="30" height="30" fill="hsl(240 100% 99.99202453775658%)" />
  <rect x="520" y="85" width="30" height="30" fill="hsl(240 100% 73.82789587563562%)" />
  <rect x="555" y="85" width="30" height="30" fill="hsl(240 100% 99.98443144828312%)" />
  <rect x="65" y="120" width="30" height="30" fill="hsl(240 100% 97.01329927130976%)" />
  <rect x="100" y="120" width="30" height="30" fill="hsl(240 100% 97.58828565547195%)" />
  <rect x="135" y="120" width="30" height="30" fill="hsl(240 100% 98.27607534123756%)" />
  <rect x="170" y="120" width="30" height="30" fill="hsl(240 100% 84.48598332722844%)" />
  <rect x="205" y="120" width="30" height="30" fill="hsl(240 100% 99.99533593793268%)" />
  <rect x="275" y="120" width="30" height="30" fill="hsl(240 100% 83.13425555256184%)" />
  <rect x="345" y="120" width="30" height="30" fill="hsl(240 100% 70.77664574226573%)" />
  <rect x="380" y="120" width="30" height="30" fill="hsl(240 100% 64.7214160292815%)" />
  <rect x="415" y="120" width="30" height="30" fill="hsl(240 100% 99.39864145629325%)" />
  <rect x="450" y="120" width="30" height="30" fill="hsl(240 100% 50%)" />
  <rect x="485" y="120" width="30" height="30" fill="hsl(240 100% 93.57590253783866%)" />
  <rect x="520" y="120" width="30" height="30" fill="hsl(240 100% 68.04733273542396%)" />
  <rect x="555" y="120" width="30" height="30" fill="hsl(240 100% 85.7273304062244%)" />
  <rect x="65" y="155" width="30" height="30" fill="hsl(240 100% 50%)" />
  <rect x="100" y="155" width="30" height="30" fill="hsl(240 100% 50%)" />
  <rect x="135" y="155" width="30" height="30" fill="hsl(240 100% 50%)" />
  <rect x="170" y="155" width="30" height="30" fill="hsl(240 100% 50%)" />
  <rect x="205" y="155" width="30" height="30" fill="hsl(240 100% 50%)" />
  <rect x="240" y="155" width="30" height="30" fill="hsl(240 100% 50%)" />
  <rect x="275" y="155" width="30" height="30" fill="hsl(240 100% 50%)" />
  <rect x="310" y="155" width="30" height="30" fill="hsl(240 100% 50%)" />
  <rect x="345" y="155" width="30" height="30" fill="hsl(240 100% 50%)" />
  <rect x="380" y="155" width="30" height="30" fill="hsl(240 100% 50%)" />
  <rect x="415" y="155" width="30" height="30" fill="hsl(240 100% 50%)" />
  <rect x="450" y="155" width="30" height="30" fill="hsl(240 100% 50%)" />
  <rect x="485" y="155" width="30" height="30" fill="hsl(240 100% 50%)" />
  <rect x="520" y="155" width="30" height="30" fill="hsl(240 100% 50%)" />
  <rect x="555" y="155" width="30" height="30" fill="hsl(240 100% 50%)" />
  <rect x="590" y="155" width="30" height="30" fill="hsl(240 100% 50%)" />
  <rect x="65" y="190" width="30" height="30" fill="hsl(240 100% 97.13913365472482%)" />
  <rect x="100" y="190" width="30" height="30" fill="hsl(240 100% 97.96128666066788%)" />
  <rect x="170" y="190" width="30" height="30" fill="hsl(240 100% 95.04681530921715%)" />
  <rect x="205" y="190" width="30" height="30" fill="hsl(240 100% 99.18203879969461%)" />
  <rect x="275" y="190" width="30" height="30" fill="hsl(240 100% 91.65365207515296%)" />
  <rect x="380" y="190" width="30" height="30" fill="hsl(240 100% 50%)" />
  <rect x="450" y="190" width="30" height="30" fill="hsl(240 100% 99.96952092573223%)" />
  <rect x="520" y="190" width="30" height="30" fill="hsl(240 100% 99.41758983965083%)" />
  <rect x="555" y="190" width="30" height="30" fill="hsl(240 100% 99.4854076007661%)" />
  <rect x="100" y="225" width="30" height="30" fill="hsl(240 100% 99.88604080652891%)" />
  <rect x="170" y="225" width="30" height="30" fill="hsl(240 100% 87.53750278913903%)" />
  <rect x="275" y="225" width="30" height="30" fill="hsl(240 100% 85.03870707008836%)" />
  <rect x="310" y="225" width="30" height="30" fill="hsl(240 100% 99.99191275448123%)" />
  <rect x="345" y="225" width="30" height="30" fill="hsl(240 100% 50%)" />
  <rect x="380" y="225" width="30" height="30" fill="hsl(240 100% 76.79151548366407%)" />
  <rect x="450" y="225" width="30" height="30" fill="hsl(240 100% 85.73691804410873%)" />
  <rect x="65" y="260" width="30" height="30" fill="hsl(240 100% 68.8007001314039%)" />
  <rect x="100" y="260" width="30" height="30" fill="hsl(240 100% 79.96088201083171%)" />
  <rect x="135" y="260" width="30" height="30" fill="hsl(240 100% 88.54262259475551%)" />
  <rect x="170" y="260" width="30" height="30" fill="hsl(240 100% 50%)" />
  <rect x="205" y="260" width="30" height="30" fill="hsl(240 100% 99.7977120037924%)" />
  <rect x="275" y="260" width="30" height="30" fill="hsl(240 100% 63.20757051018743%)" />
  <rect x="380" y="260" width="30" height="30" fill="hsl(240 100% 78.39760274419338%)" />
  <rect x="450" y="260" width="30" height="30" fill="hsl(240 100% 99.65102864062874%)" />
  <rect x="520" y="260" width="30" height="30" fill="hsl(240 100% 58.594652359182554%)" />
  <rect x="555" y="260" width="30" height="30" fill="hsl(240 100% 98.0685097249145%)" />
</svg>
