<svg xmlns="http://www.w3.org/2000/svg" viewBox="0 0 870 505">
  <rect x="0" y="0" width="870" height="505" rx="5" ry="5" fill="#222" />
  <text x="60" y="100" fill="white" font-family="sans-serif" font-weight="bold" font-size="12" text-anchor="end" dominant-baseline="middle">ba</text>
  <text x="60" y="135" fill="white" font-family="sans-serif" font-weight="bold" font-size="12" text-anchor="end" dominant-baseline="middle">det</text>
  <text x="60" y="170" fill="white" font-family="sans-serif" font-weight="bold" font-size="12" text-anchor="end" dominant-baseline="middle">gmm</text>
  <text x="60" y="205" fill="white" font-family="sans-serif" font-weight="bold" font-size="12" text-anchor="end" dominant-baseline="middle">hello</text>
  <text x="60" y="240" fill="white" font-family="sans-serif" font-weight="bold" font-size="12" text-anchor="end" dominant-baseline="middle">ht</text>
  <text x="60" y="275" fill="white" font-family="sans-serif" font-weight="bold" font-size="12" text-anchor="end" dominant-baseline="middle">kmeans</text>
  <text x="60" y="310" fill="white" font-family="sans-serif" font-weight="bold" font-size="12" text-anchor="end" dominant-baseline="middle">llsq</text>
  <text x="60" y="345" fill="white" font-family="sans-serif" font-weight="bold" font-size="12" text-anchor="end" dominant-baseline="middle">lse</text>
  <text x="60" y="380" fill="white" font-family="sans-serif" font-weight="bold" font-size="12" text-anchor="end" dominant-baseline="middle">lstm</text>
  <text x="60" y="415" fill="white" font-family="sans-serif" font-weight="bold" font-size="12" text-anchor="end" dominant-baseline="middle">ode</text>
  <text x="60" y="450" fill="white" font-family="sans-serif" font-weight="bold" font-size="12" text-anchor="end" dominant-baseline="middle">particle</text>
  <text x="60" y="485" fill="white" font-family="sans-serif" font-weight="bold" font-size="12" text-anchor="end" dominant-baseline="middle">saddle</text>
  <text x="80" y="80" fill="white" font-family="sans-serif" font-weight="bold" font-size="12" text-anchor="end" dominant-baseline="middle" transform="rotate(90 80 80)">ad-hpp</text>
  <text x="115" y="80" fill="white" font-family="sans-serif" font-weight="bold" font-size="12" text-anchor="end" dominant-baseline="middle" transform="rotate(90 115 80)">adept</text>
  <text x="150" y="80" fill="white" font-family="sans-serif" font-weight="bold" font-size="12" text-anchor="end" dominant-baseline="middle" transform="rotate(90 150 80)">adol-c</text>
  <text x="185" y="80" fill="white" font-family="sans-serif" font-weight="bold" font-size="12" text-anchor="end" dominant-baseline="middle" transform="rotate(90 185 80)">codipack</text>
  <text x="220" y="80" fill="white" font-family="sans-serif" font-weight="bold" font-size="12" text-anchor="end" dominant-baseline="middle" transform="rotate(90 220 80)">cppad</text>
  <text x="255" y="80" fill="white" font-family="sans-serif" font-weight="bold" font-size="12" text-anchor="end" dominant-baseline="middle" transform="rotate(90 255 80)">enzyme</text>
  <text x="290" y="80" fill="white" font-family="sans-serif" font-weight="bold" font-size="12" text-anchor="end" dominant-baseline="middle" transform="rotate(90 290 80)">enzyme-jl</text>
  <text x="325" y="80" fill="white" font-family="sans-serif" font-weight="bold" font-size="12" text-anchor="end" dominant-baseline="middle" transform="rotate(90 325 80)">finite</text>
  <text x="360" y="80" fill="white" font-family="sans-serif" font-weight="bold" font-size="12" text-anchor="end" dominant-baseline="middle" transform="rotate(90 360 80)">floretta</text>
  <text x="395" y="80" fill="white" font-family="sans-serif" font-weight="bold" font-size="12" text-anchor="end" dominant-baseline="middle" transform="rotate(90 395 80)">forwarddiff-jl</text>
  <text x="430" y="80" fill="white" font-family="sans-serif" font-weight="bold" font-size="12" text-anchor="end" dominant-baseline="middle" transform="rotate(90 430 80)">futhark</text>
  <text x="465" y="80" fill="white" font-family="sans-serif" font-weight="bold" font-size="12" text-anchor="end" dominant-baseline="middle" transform="rotate(90 465 80)">haskell</text>
  <text x="500" y="80" fill="white" font-family="sans-serif" font-weight="bold" font-size="12" text-anchor="end" dominant-baseline="middle" transform="rotate(90 500 80)">jax</text>
  <text x="535" y="80" fill="white" font-family="sans-serif" font-weight="bold" font-size="12" text-anchor="end" dominant-baseline="middle" transform="rotate(90 535 80)">manual</text>
  <text x="570" y="80" fill="white" font-family="sans-serif" font-weight="bold" font-size="12" text-anchor="end" dominant-baseline="middle" transform="rotate(90 570 80)">mooncake-jl</text>
  <text x="605" y="80" fill="white" font-family="sans-serif" font-weight="bold" font-size="12" text-anchor="end" dominant-baseline="middle" transform="rotate(90 605 80)">ocaml</text>
  <text x="640" y="80" fill="white" font-family="sans-serif" font-weight="bold" font-size="12" text-anchor="end" dominant-baseline="middle" transform="rotate(90 640 80)">pytorch</text>
  <text x="675" y="80" fill="white" font-family="sans-serif" font-weight="bold" font-size="12" text-anchor="end" dominant-baseline="middle" transform="rotate(90 675 80)">reversediff-jl</text>
  <text x="710" y="80" fill="white" font-family="sans-serif" font-weight="bold" font-size="12" text-anchor="end" dominant-baseline="middle" transform="rotate(90 710 80)">scilean</text>
  <text x="745" y="80" fill="white" font-family="sans-serif" font-weight="bold" font-size="12" text-anchor="end" dominant-baseline="middle" transform="rotate(90 745 80)">tapenade</text>
  <text x="780" y="80" fill="white" font-family="sans-serif" font-weight="bold" font-size="12" text-anchor="end" dominant-baseline="middle" transform="rotate(90 780 80)">tensorflow</text>
  <text x="815" y="80" fill="white" font-family="sans-serif" font-weight="bold" font-size="12" text-anchor="end" dominant-baseline="middle" transform="rotate(90 815 80)">tensorflow-js</text>
  <text x="850" y="80" fill="white" font-family="sans-serif" font-weight="bold" font-size="12" text-anchor="end" dominant-baseline="middle" transform="rotate(90 850 80)">zygote</text>
  <rect x="65" y="85" width="30" height="30" fill="hsl(240 100% 80.7852876134985%)" />
  <rect x="100" y="85" width="30" height="30" fill="hsl(240 100% 82.5211193480607%)" />
  <rect x="135" y="85" width="30" height="30" fill="hsl(240 100% 98.00976138549866%)" />
  <rect x="170" y="85" width="30" height="30" fill="hsl(240 100% 82.38565211384226%)" />
  <rect x="205" y="85" width="30" height="30" fill="hsl(240 100% 98.99589450754843%)" />
  <rect x="240" y="85" width="30" height="30" fill="hsl(240 100% 51.64467081646815%)" />
  <rect x="310" y="85" width="30" height="30" fill="hsl(240 100% 93.20291542987866%)" />
  <rect x="415" y="85" width="30" height="30" fill="hsl(240 100% 67.94105923194596%)" />
  <rect x="520" y="85" width="30" height="30" fill="hsl(240 100% 50%)" />
  <rect x="625" y="85" width="30" height="30" fill="rgb(255 255 255 / 50%)" />
  <rect x="730" y="85" width="30" height="30" fill="hsl(240 100% 74.61601924767393%)" />
  <rect x="765" y="85" width="30" height="30" fill="rgb(255 255 255 / 50%)" />
  <rect x="835" y="85" width="30" height="30" fill="hsl(240 100% 99.73689558445925%)" />
  <rect x="65" y="120" width="30" height="30" fill="hsl(240 100% 50%)" />
  <rect x="100" y="120" width="30" height="30" fill="hsl(240 100% 83.05727356493479%)" />
  <rect x="135" y="120" width="30" height="30" fill="hsl(240 100% 85.6094545267828%)" />
  <rect x="170" y="120" width="30" height="30" fill="hsl(240 100% 52.21576417693831%)" />
  <rect x="205" y="120" width="30" height="30" fill="hsl(240 100% 92.57778756056125%)" />
  <rect x="240" y="120" width="30" height="30" fill="hsl(240 100% 91.72691634138806%)" />
  <rect x="275" y="120" width="30" height="30" fill="hsl(240 100% 99.37024457677317%)" />
  <rect x="310" y="120" width="30" height="30" fill="hsl(240 100% 98.9927033924795%)" />
  <rect x="380" y="120" width="30" height="30" fill="hsl(240 100% 93.33947005396534%)" />
  <rect x="415" y="120" width="30" height="30" fill="hsl(240 100% 94.61591078031033%)" />
  <rect x="450" y="120" width="30" height="30" fill="hsl(240 100% 97.86720686256106%)" />
  <rect x="520" y="120" width="30" height="30" fill="hsl(240 100% 79.74492066835478%)" />
  <rect x="555" y="120" width="30" height="30" fill="hsl(240 100% 90.10941182575796%)" />
  <rect x="660" y="120" width="30" height="30" fill="rgb(255 255 255 / 50%)" />
  <rect x="835" y="120" width="30" height="30" fill="rgb(255 255 255 / 50%)" />
  <rect x="65" y="155" width="30" height="30" fill="hsl(240 100% 98.47112936250448%)" />
  <rect x="100" y="155" width="30" height="30" fill="hsl(240 100% 98.78793231153527%)" />
  <rect x="135" y="155" width="30" height="30" fill="hsl(240 100% 99.08746482323562%)" />
  <rect x="170" y="155" width="30" height="30" fill="hsl(240 100% 98.05336569191375%)" />
  <rect x="205" y="155" width="30" height="30" fill="hsl(240 100% 99.84850698124787%)" />
  <rect x="240" y="155" width="30" height="30" fill="hsl(240 100% 91.04546754785399%)" />
  <rect x="275" y="155" width="30" height="30" fill="hsl(240 100% 92.800422222897%)" />
  <rect x="310" y="155" width="30" height="30" fill="rgb(255 255 255 / 50%)" />
  <rect x="415" y="155" width="30" height="30" fill="hsl(240 100% 92.92161932611971%)" />
  <rect x="485" y="155" width="30" height="30" fill="hsl(240 100% 50%)" />
  <rect x="520" y="155" width="30" height="30" fill="hsl(240 100% 83.5561618331717%)" />
  <rect x="590" y="155" width="30" height="30" fill="hsl(240 100% 99.58460798767798%)" />
  <rect x="625" y="155" width="30" height="30" fill="hsl(240 100% 68.02125246291278%)" />
  <rect x="695" y="155" width="30" height="30" fill="hsl(240 100% 95.4298092328384%)" />
  <rect x="730" y="155" width="30" height="30" fill="hsl(240 100% 83.71664983286843%)" />
  <rect x="765" y="155" width="30" height="30" fill="hsl(240 100% 99.57238268921036%)" />
  <rect x="835" y="155" width="30" height="30" fill="hsl(240 100% 96.29653979162903%)" />
  <rect x="65" y="190" width="30" height="30" fill="hsl(240 100% 50%)" />
  <rect x="100" y="190" width="30" height="30" fill="hsl(240 100% 50%)" />
  <rect x="135" y="190" width="30" height="30" fill="hsl(240 100% 50%)" />
  <rect x="170" y="190" width="30" height="30" fill="hsl(240 100% 50%)" />
  <rect x="205" y="190" width="30" height="30" fill="hsl(240 100% 50%)" />
  <rect x="240" y="190" width="30" height="30" fill="hsl(240 100% 50%)" />
  <rect x="275" y="190" width="30" height="30" fill="hsl(240 100% 50%)" />
  <rect x="310" y="190" width="30" height="30" fill="hsl(240 100% 50%)" />
  <rect x="345" y="190" width="30" height="30" fill="hsl(240 100% 50%)" />
  <rect x="380" y="190" width="30" height="30" fill="hsl(240 100% 50%)" />
  <rect x="415" y="190" width="30" height="30" fill="hsl(240 100% 50%)" />
  <rect x="450" y="190" width="30" height="30" fill="hsl(240 100% 50%)" />
  <rect x="485" y="190" width="30" height="30" fill="hsl(240 100% 50%)" />
  <rect x="520" y="190" width="30" height="30" fill="hsl(240 100% 50%)" />
  <rect x="555" y="190" width="30" height="30" fill="hsl(240 100% 50%)" />
  <rect x="590" y="190" width="30" height="30" fill="hsl(240 100% 50%)" />
  <rect x="625" y="190" width="30" height="30" fill="hsl(240 100% 50%)" />
  <rect x="660" y="190" width="30" height="30" fill="hsl(240 100% 50%)" />
  <rect x="695" y="190" width="30" height="30" fill="hsl(240 100% 50%)" />
  <rect x="730" y="190" width="30" height="30" fill="hsl(240 100% 50%)" />
  <rect x="765" y="190" width="30" height="30" fill="hsl(240 100% 50%)" />
  <rect x="800" y="190" width="30" height="30" fill="hsl(240 100% 50%)" />
  <rect x="835" y="190" width="30" height="30" fill="hsl(240 100% 50%)" />
  <rect x="100" y="225" width="30" height="30" fill="hsl(240 100% 96.71284015851887%)" />
  <rect x="135" y="225" width="30" height="30" fill="hsl(240 100% 89.37448527820082%)" />
  <rect x="170" y="225" width="30" height="30" fill="hsl(240 100% 89.33518893150436%)" />
  <rect x="240" y="225" width="30" height="30" fill="hsl(240 100% 91.81334045104398%)" />
  <rect x="310" y="225" width="30" height="30" fill="rgb(255 255 255 / 50%)" />
  <rect x="415" y="225" width="30" height="30" fill="hsl(240 100% 90.60023098226002%)" />
  <rect x="520" y="225" width="30" height="30" fill="hsl(240 100% 50%)" />
  <rect x="625" y="225" width="30" height="30" fill="rgb(255 255 255 / 50%)" />
  <rect x="730" y="225" width="30" height="30" fill="hsl(240 100% 93.24300667568195%)" />
  <rect x="765" y="225" width="30" height="30" fill="rgb(255 255 255 / 50%)" />
  <rect x="835" y="225" width="30" height="30" fill="hsl(240 100% 94.55540253470988%)" />
  <rect x="65" y="260" width="30" height="30" fill="hsl(240 100% 99.86866386379505%)" />
  <rect x="135" y="260" width="30" height="30" fill="hsl(240 100% 99.85447934757613%)" />
  <rect x="170" y="260" width="30" height="30" fill="hsl(240 100% 98.87255455895519%)" />
  <rect x="205" y="260" width="30" height="30" fill="rgb(255 255 255 / 50%)" />
  <rect x="240" y="260" width="30" height="30" fill="hsl(240 100% 87.1972694627079%)" />
  <rect x="310" y="260" width="30" height="30" fill="rgb(255 255 255 / 50%)" />
  <rect x="415" y="260" width="30" height="30" fill="hsl(240 100% 80.99754575026812%)" />
  <rect x="450" y="260" width="30" height="30" fill="rgb(255 255 255 / 50%)" />
  <rect x="485" y="260" width="30" height="30" fill="hsl(240 100% 50%)" />
  <rect x="520" y="260" width="30" height="30" fill="hsl(240 100% 71.70019225607669%)" />
  <rect x="625" y="260" width="30" height="30" fill="hsl(240 100% 97.01643008213004%)" />
  <rect x="695" y="260" width="30" height="30" fill="hsl(240 100% 94.22049776130324%)" />
  <rect x="65" y="295" width="30" height="30" fill="hsl(240 100% 85.92599288946728%)" />
  <rect x="100" y="295" width="30" height="30" fill="hsl(240 100% 97.5231513298268%)" />
  <rect x="135" y="295" width="30" height="30" fill="hsl(240 100% 95.36521241294416%)" />
  <rect x="170" y="295" width="30" height="30" fill="hsl(240 100% 90.68311944873298%)" />
  <rect x="205" y="295" width="30" height="30" fill="hsl(240 100% 99.4755416921794%)" />
  <rect x="240" y="295" width="30" height="30" fill="hsl(240 100% 50.6870952050803%)" />
  <rect x="275" y="295" width="30" height="30" fill="hsl(240 100% 50%)" />
  <rect x="310" y="295" width="30" height="30" fill="hsl(240 100% 99.50040202347022%)" />
  <rect x="345" y="295" width="30" height="30" fill="hsl(240 100% 94.77566192330951%)" />
  <rect x="415" y="295" width="30" height="30" fill="hsl(240 100% 55.364911241186746%)" />
  <rect x="450" y="295" width="30" height="30" fill="hsl(240 100% 99.34034582842492%)" />
  <rect x="485" y="295" width="30" height="30" fill="hsl(240 100% 88.02941993249306%)" />
  <rect x="520" y="295" width="30" height="30" fill="hsl(240 100% 57.9375382397076%)" />
  <rect x="695" y="295" width="30" height="30" fill="hsl(240 100% 97.61492263328435%)" />
  <rect x="800" y="295" width="30" height="30" fill="hsl(240 100% 99.57263038818182%)" />
  <rect x="835" y="295" width="30" height="30" fill="hsl(240 100% 99.95211512839097%)" />
  <rect x="65" y="330" width="30" height="30" fill="hsl(240 100% 89.34429670778536%)" />
  <rect x="100" y="330" width="30" height="30" fill="hsl(240 100% 95.09068589950532%)" />
  <rect x="135" y="330" width="30" height="30" fill="hsl(240 100% 97.32306409411375%)" />
  <rect x="170" y="330" width="30" height="30" fill="hsl(240 100% 89.03058849356293%)" />
  <rect x="205" y="330" width="30" height="30" fill="hsl(240 100% 99.23594316349289%)" />
  <rect x="240" y="330" width="30" height="30" fill="hsl(240 100% 81.1505535997518%)" />
  <rect x="275" y="330" width="30" height="30" fill="hsl(240 100% 87.77136790150446%)" />
  <rect x="310" y="330" width="30" height="30" fill="rgb(255 255 255 / 50%)" />
  <rect x="345" y="330" width="30" height="30" fill="hsl(240 100% 97.38048225032723%)" />
  <rect x="415" y="330" width="30" height="30" fill="hsl(240 100% 86.43109122787381%)" />
  <rect x="450" y="330" width="30" height="30" fill="hsl(240 100% 99.82546050250248%)" />
  <rect x="485" y="330" width="30" height="30" fill="hsl(240 100% 71.97063388434218%)" />
  <rect x="520" y="330" width="30" height="30" fill="hsl(240 100% 77.99826432584665%)" />
  <rect x="590" y="330" width="30" height="30" fill="hsl(240 100% 94.19267344507541%)" />
  <rect x="625" y="330" width="30" height="30" fill="hsl(240 100% 50%)" />
  <rect x="765" y="330" width="30" height="30" fill="hsl(240 100% 94.89741067299215%)" />
  <rect x="800" y="330" width="30" height="30" fill="hsl(240 100% 99.26675519440693%)" />
  <rect x="835" y="330" width="30" height="30" fill="hsl(240 100% 81.86320787528732%)" />
  <rect x="65" y="365" width="30" height="30" fill="hsl(240 100% 56.900104303159345%)" />
  <rect x="100" y="365" width="30" height="30" fill="hsl(240 100% 71.69260703405706%)" />
  <rect x="135" y="365" width="30" height="30" fill="hsl(240 100% 82.61763909470895%)" />
  <rect x="170" y="365" width="30" height="30" fill="hsl(240 100% 50%)" />
  <rect x="205" y="365" width="30" height="30" fill="hsl(240 100% 96.194140903957%)" />
  <rect x="240" y="365" width="30" height="30" fill="hsl(240 100% 59.22563313817816%)" />
  <rect x="275" y="365" width="30" height="30" fill="hsl(240 100% 92.38971364490746%)" />
  <rect x="310" y="365" width="30" height="30" fill="hsl(240 100% 99.86031410462274%)" />
  <rect x="415" y="365" width="30" height="30" fill="hsl(240 100% 66.24007627507795%)" />
  <rect x="520" y="365" width="30" height="30" fill="hsl(240 100% 85.91045949887877%)" />
  <rect x="625" y="365" width="30" height="30" fill="hsl(240 100% 99.63630937449834%)" />
  <rect x="730" y="365" width="30" height="30" fill="hsl(240 100% 63.353084432923694%)" />
  <rect x="765" y="365" width="30" height="30" fill="hsl(240 100% 98.15945495669379%)" />
  <rect x="835" y="365" width="30" height="30" fill="hsl(240 100% 98.68470704899818%)" />
  <rect x="65" y="400" width="30" height="30" fill="hsl(240 100% 97.84650813261445%)" />
  <rect x="100" y="400" width="30" height="30" fill="hsl(240 100% 99.38520871900523%)" />
  <rect x="135" y="400" width="30" height="30" fill="hsl(240 100% 99.60333953235404%)" />
  <rect x="170" y="400" width="30" height="30" fill="hsl(240 100% 94.54026449027106%)" />
  <rect x="205" y="400" width="30" height="30" fill="hsl(240 100% 99.12571175339876%)" />
  <rect x="240" y="400" width="30" height="30" fill="hsl(240 100% 85.53699362858453%)" />
  <rect x="275" y="400" width="30" height="30" fill="hsl(240 100% 94.40878777989377%)" />
  <rect x="310" y="400" width="30" height="30" fill="rgb(255 255 255 / 50%)" />
  <rect x="380" y="400" width="30" height="30" fill="rgb(255 255 255 / 50%)" />
  <rect x="415" y="400" width="30" height="30" fill="hsl(240 100% 92.85432932230239%)" />
  <rect x="450" y="400" width="30" height="30" fill="hsl(240 100% 99.96543864756178%)" />
  <rect x="485" y="400" width="30" height="30" fill="hsl(240 100% 73.91639705297331%)" />
  <rect x="520" y="400" width="30" height="30" fill="hsl(240 100% 50%)" />
  <rect x="555" y="400" width="30" height="30" fill="hsl(240 100% 98.93467785835819%)" />
  <rect x="660" y="400" width="30" height="30" fill="rgb(255 255 255 / 50%)" />
  <rect x="835" y="400" width="30" height="30" fill="hsl(240 100% 99.09878111753183%)" />
  <rect x="65" y="435" width="30" height="30" fill="hsl(240 100% 92.84798294088624%)" />
  <rect x="240" y="435" width="30" height="30" fill="hsl(240 100% 50%)" />
  <rect x="310" y="435" width="30" height="30" fill="hsl(240 100% 94.33756866759816%)" />
  <rect x="415" y="435" width="30" height="30" fill="hsl(240 100% 87.00130161116918%)" />
  <rect x="450" y="435" width="30" height="30" fill="hsl(240 100% 99.78306494131748%)" />
  <rect x="65" y="470" width="30" height="30" fill="hsl(240 100% 50%)" />
  <rect x="240" y="470" width="30" height="30" fill="hsl(240 100% 50.08891404402105%)" />
  <rect x="310" y="470" width="30" height="30" fill="hsl(240 100% 97.14349139639069%)" />
  <rect x="415" y="470" width="30" height="30" fill="hsl(240 100% 89.78254303047542%)" />
  <rect x="450" y="470" width="30" height="30" fill="hsl(240 100% 99.56769834752251%)" />
</svg>
