<svg xmlns="http://www.w3.org/2000/svg" viewBox="0 0 870 505">
  <rect x="0" y="0" width="870" height="505" rx="5" ry="5" fill="#222" />
  <text x="60" y="100" fill="white" font-family="sans-serif" font-weight="bold" font-size="12" text-anchor="end" dominant-baseline="middle">ba</text>
  <text x="60" y="135" fill="white" font-family="sans-serif" font-weight="bold" font-size="12" text-anchor="end" dominant-baseline="middle">det</text>
  <text x="60" y="170" fill="white" font-family="sans-serif" font-weight="bold" font-size="12" text-anchor="end" dominant-baseline="middle">gmm</text>
  <text x="60" y="205" fill="white" font-family="sans-serif" font-weight="bold" font-size="12" text-anchor="end" dominant-baseline="middle">hello</text>
  <text x="60" y="240" fill="white" font-family="sans-serif" font-weight="bold" font-size="12" text-anchor="end" dominant-baseline="middle">ht</text>
  <text x="60" y="275" fill="white" font-family="sans-serif" font-weight="bold" font-size="12" text-anchor="end" dominant-baseline="middle">kmeans</text>
  <text x="60" y="310" fill="white" font-family="sans-serif" font-weight="bold" font-size="12" text-anchor="end" dominant-baseline="middle">llsq</text>
  <text x="60" y="345" fill="white" font-family="sans-serif" font-weight="bold" font-size="12" text-anchor="end" dominant-baseline="middle">lse</text>
  <text x="60" y="380" fill="white" font-family="sans-serif" font-weight="bold" font-size="12" text-anchor="end" dominant-baseline="middle">lstm</text>
  <text x="60" y="415" fill="white" font-family="sans-serif" font-weight="bold" font-size="12" text-anchor="end" dominant-baseline="middle">ode</text>
  <text x="60" y="450" fill="white" font-family="sans-serif" font-weight="bold" font-size="12" text-anchor="end" dominant-baseline="middle">particle</text>
  <text x="60" y="485" fill="white" font-family="sans-serif" font-weight="bold" font-size="12" text-anchor="end" dominant-baseline="middle">saddle</text>
  <text x="80" y="80" fill="white" font-family="sans-serif" font-weight="bold" font-size="12" text-anchor="end" dominant-baseline="middle" transform="rotate(90 80 80)">ad-hpp</text>
  <text x="115" y="80" fill="white" font-family="sans-serif" font-weight="bold" font-size="12" text-anchor="end" dominant-baseline="middle" transform="rotate(90 115 80)">adept</text>
  <text x="150" y="80" fill="white" font-family="sans-serif" font-weight="bold" font-size="12" text-anchor="end" dominant-baseline="middle" transform="rotate(90 150 80)">adol-c</text>
  <text x="185" y="80" fill="white" font-family="sans-serif" font-weight="bold" font-size="12" text-anchor="end" dominant-baseline="middle" transform="rotate(90 185 80)">codipack</text>
  <text x="220" y="80" fill="white" font-family="sans-serif" font-weight="bold" font-size="12" text-anchor="end" dominant-baseline="middle" transform="rotate(90 220 80)">cppad</text>
  <text x="255" y="80" fill="white" font-family="sans-serif" font-weight="bold" font-size="12" text-anchor="end" dominant-baseline="middle" transform="rotate(90 255 80)">enzyme</text>
  <text x="290" y="80" fill="white" font-family="sans-serif" font-weight="bold" font-size="12" text-anchor="end" dominant-baseline="middle" transform="rotate(90 290 80)">enzyme-jl</text>
  <text x="325" y="80" fill="white" font-family="sans-serif" font-weight="bold" font-size="12" text-anchor="end" dominant-baseline="middle" transform="rotate(90 325 80)">finite</text>
  <text x="360" y="80" fill="white" font-family="sans-serif" font-weight="bold" font-size="12" text-anchor="end" dominant-baseline="middle" transform="rotate(90 360 80)">floretta</text>
  <text x="395" y="80" fill="white" font-family="sans-serif" font-weight="bold" font-size="12" text-anchor="end" dominant-baseline="middle" transform="rotate(90 395 80)">forwarddiff-jl</text>
  <text x="430" y="80" fill="white" font-family="sans-serif" font-weight="bold" font-size="12" text-anchor="end" dominant-baseline="middle" transform="rotate(90 430 80)">futhark</text>
  <text x="465" y="80" fill="white" font-family="sans-serif" font-weight="bold" font-size="12" text-anchor="end" dominant-baseline="middle" transform="rotate(90 465 80)">haskell</text>
  <text x="500" y="80" fill="white" font-family="sans-serif" font-weight="bold" font-size="12" text-anchor="end" dominant-baseline="middle" transform="rotate(90 500 80)">jax</text>
  <text x="535" y="80" fill="white" font-family="sans-serif" font-weight="bold" font-size="12" text-anchor="end" dominant-baseline="middle" transform="rotate(90 535 80)">manual</text>
  <text x="570" y="80" fill="white" font-family="sans-serif" font-weight="bold" font-size="12" text-anchor="end" dominant-baseline="middle" transform="rotate(90 570 80)">mooncake-jl</text>
  <text x="605" y="80" fill="white" font-family="sans-serif" font-weight="bold" font-size="12" text-anchor="end" dominant-baseline="middle" transform="rotate(90 605 80)">ocaml</text>
  <text x="640" y="80" fill="white" font-family="sans-serif" font-weight="bold" font-size="12" text-anchor="end" dominant-baseline="middle" transform="rotate(90 640 80)">pytorch</text>
  <text x="675" y="80" fill="white" font-family="sans-serif" font-weight="bold" font-size="12" text-anchor="end" dominant-baseline="middle" transform="rotate(90 675 80)">reversediff-jl</text>
  <text x="710" y="80" fill="white" font-family="sans-serif" font-weight="bold" font-size="12" text-anchor="end" dominant-baseline="middle" transform="rotate(90 710 80)">scilean</text>
  <text x="745" y="80" fill="white" font-family="sans-serif" font-weight="bold" font-size="12" text-anchor="end" dominant-baseline="middle" transform="rotate(90 745 80)">tapenade</text>
  <text x="780" y="80" fill="white" font-family="sans-serif" font-weight="bold" font-size="12" text-anchor="end" dominant-baseline="middle" transform="rotate(90 780 80)">tensorflow</text>
  <text x="815" y="80" fill="white" font-family="sans-serif" font-weight="bold" font-size="12" text-anchor="end" dominant-baseline="middle" transform="rotate(90 815 80)">tensorflow-js</text>
  <text x="850" y="80" fill="white" font-family="sans-serif" font-weight="bold" font-size="12" text-anchor="end" dominant-baseline="middle" transform="rotate(90 850 80)">zygote</text>
  <rect x="65" y="85" width="30" height="30" fill="hsl(240 100% 80.97651505036909%)" />
  <rect x="100" y="85" width="30" height="30" fill="hsl(240 100% 82.64615843896021%)" />
  <rect x="135" y="85" width="30" height="30" fill="hsl(240 100% 98.05471437876928%)" />
  <rect x="170" y="85" width="30" height="30" fill="hsl(240 100% 82.25355074610692%)" />
  <rect x="205" y="85" width="30" height="30" fill="hsl(240 100% 98.96350731227793%)" />
  <rect x="240" y="85" width="30" height="30" fill="hsl(240 100% 52.06882640426117%)" />
  <rect x="310" y="85" width="30" height="30" fill="hsl(240 100% 93.23894186344153%)" />
  <rect x="415" y="85" width="30" height="30" fill="hsl(240 100% 68.13895023472546%)" />
  <rect x="520" y="85" width="30" height="30" fill="hsl(240 100% 50%)" />
  <rect x="625" y="85" width="30" height="30" fill="rgb(255 255 255 / 50%)" />
  <rect x="730" y="85" width="30" height="30" fill="hsl(240 100% 74.8853786253325%)" />
  <rect x="765" y="85" width="30" height="30" fill="rgb(255 255 255 / 50%)" />
  <rect x="835" y="85" width="30" height="30" fill="hsl(240 100% 99.73226665580559%)" />
  <rect x="65" y="120" width="30" height="30" fill="hsl(240 100% 50%)" />
  <rect x="100" y="120" width="30" height="30" fill="hsl(240 100% 82.93345032657614%)" />
  <rect x="135" y="120" width="30" height="30" fill="hsl(240 100% 85.76207729785547%)" />
  <rect x="170" y="120" width="30" height="30" fill="hsl(240 100% 52.73485285374248%)" />
  <rect x="205" y="120" width="30" height="30" fill="hsl(240 100% 92.63968462687906%)" />
  <rect x="240" y="120" width="30" height="30" fill="hsl(240 100% 91.55598439100478%)" />
  <rect x="275" y="120" width="30" height="30" fill="hsl(240 100% 99.35998911520451%)" />
  <rect x="310" y="120" width="30" height="30" fill="hsl(240 100% 98.99693900812262%)" />
  <rect x="380" y="120" width="30" height="30" fill="hsl(240 100% 93.36434831556421%)" />
  <rect x="415" y="120" width="30" height="30" fill="hsl(240 100% 94.65297999146733%)" />
  <rect x="450" y="120" width="30" height="30" fill="hsl(240 100% 97.99207715957043%)" />
  <rect x="520" y="120" width="30" height="30" fill="hsl(240 100% 79.9747352730096%)" />
  <rect x="555" y="120" width="30" height="30" fill="hsl(240 100% 90.5115984735386%)" />
  <rect x="660" y="120" width="30" height="30" fill="rgb(255 255 255 / 50%)" />
  <rect x="835" y="120" width="30" height="30" fill="rgb(255 255 255 / 50%)" />
  <rect x="65" y="155" width="30" height="30" fill="hsl(240 100% 98.37715980675567%)" />
  <rect x="100" y="155" width="30" height="30" fill="hsl(240 100% 98.81305862927314%)" />
  <rect x="135" y="155" width="30" height="30" fill="hsl(240 100% 99.1216264398233%)" />
  <rect x="170" y="155" width="30" height="30" fill="hsl(240 100% 98.08933869249803%)" />
  <rect x="205" y="155" width="30" height="30" fill="hsl(240 100% 99.85042886665391%)" />
  <rect x="240" y="155" width="30" height="30" fill="hsl(240 100% 91.42485711226232%)" />
  <rect x="275" y="155" width="30" height="30" fill="hsl(240 100% 93.07534564099417%)" />
  <rect x="310" y="155" width="30" height="30" fill="rgb(255 255 255 / 50%)" />
  <rect x="415" y="155" width="30" height="30" fill="hsl(240 100% 92.99325758717528%)" />
  <rect x="485" y="155" width="30" height="30" fill="hsl(240 100% 50%)" />
  <rect x="520" y="155" width="30" height="30" fill="hsl(240 100% 83.83595022999428%)" />
  <rect x="590" y="155" width="30" height="30" fill="hsl(240 100% 99.5901407566762%)" />
  <rect x="625" y="155" width="30" height="30" fill="hsl(240 100% 68.49108314211155%)" />
  <rect x="695" y="155" width="30" height="30" fill="hsl(240 100% 95.46228625276075%)" />
  <rect x="730" y="155" width="30" height="30" fill="hsl(240 100% 83.87793709981715%)" />
  <rect x="765" y="155" width="30" height="30" fill="hsl(240 100% 99.57833499277999%)" />
  <rect x="835" y="155" width="30" height="30" fill="hsl(240 100% 96.27031607455686%)" />
  <rect x="65" y="190" width="30" height="30" fill="hsl(240 100% 50%)" />
  <rect x="100" y="190" width="30" height="30" fill="hsl(240 100% 50%)" />
  <rect x="135" y="190" width="30" height="30" fill="hsl(240 100% 50%)" />
  <rect x="170" y="190" width="30" height="30" fill="hsl(240 100% 50%)" />
  <rect x="205" y="190" width="30" height="30" fill="hsl(240 100% 50%)" />
  <rect x="240" y="190" width="30" height="30" fill="hsl(240 100% 50%)" />
  <rect x="275" y="190" width="30" height="30" fill="hsl(240 100% 50%)" />
  <rect x="310" y="190" width="30" height="30" fill="hsl(240 100% 50%)" />
  <rect x="345" y="190" width="30" height="30" fill="hsl(240 100% 50%)" />
  <rect x="380" y="190" width="30" height="30" fill="hsl(240 100% 50%)" />
  <rect x="415" y="190" width="30" height="30" fill="hsl(240 100% 50%)" />
  <rect x="450" y="190" width="30" height="30" fill="hsl(240 100% 50%)" />
  <rect x="485" y="190" width="30" height="30" fill="hsl(240 100% 50%)" />
  <rect x="520" y="190" width="30" height="30" fill="hsl(240 100% 50%)" />
  <rect x="555" y="190" width="30" height="30" fill="hsl(240 100% 50%)" />
  <rect x="590" y="190" width="30" height="30" fill="hsl(240 100% 50%)" />
  <rect x="625" y="190" width="30" height="30" fill="hsl(240 100% 50%)" />
  <rect x="660" y="190" width="30" height="30" fill="hsl(240 100% 50%)" />
  <rect x="695" y="190" width="30" height="30" fill="hsl(240 100% 50%)" />
  <rect x="730" y="190" width="30" height="30" fill="hsl(240 100% 50%)" />
  <rect x="765" y="190" width="30" height="30" fill="hsl(240 100% 50%)" />
  <rect x="800" y="190" width="30" height="30" fill="hsl(240 100% 50%)" />
  <rect x="835" y="190" width="30" height="30" fill="hsl(240 100% 50%)" />
  <rect x="100" y="225" width="30" height="30" fill="hsl(240 100% 96.66144023452827%)" />
  <rect x="135" y="225" width="30" height="30" fill="hsl(240 100% 89.75142674603113%)" />
  <rect x="170" y="225" width="30" height="30" fill="hsl(240 100% 89.2780164681293%)" />
  <rect x="240" y="225" width="30" height="30" fill="hsl(240 100% 91.33670003153645%)" />
  <rect x="310" y="225" width="30" height="30" fill="rgb(255 255 255 / 50%)" />
  <rect x="415" y="225" width="30" height="30" fill="hsl(240 100% 90.52512317294327%)" />
  <rect x="520" y="225" width="30" height="30" fill="hsl(240 100% 50%)" />
  <rect x="625" y="225" width="30" height="30" fill="rgb(255 255 255 / 50%)" />
  <rect x="730" y="225" width="30" height="30" fill="hsl(240 100% 93.14092111744749%)" />
  <rect x="765" y="225" width="30" height="30" fill="rgb(255 255 255 / 50%)" />
  <rect x="835" y="225" width="30" height="30" fill="hsl(240 100% 94.57471444110503%)" />
  <rect x="65" y="260" width="30" height="30" fill="hsl(240 100% 99.81936569492207%)" />
  <rect x="135" y="260" width="30" height="30" fill="hsl(240 100% 99.84880891110733%)" />
  <rect x="170" y="260" width="30" height="30" fill="hsl(240 100% 98.89566466997233%)" />
  <rect x="205" y="260" width="30" height="30" fill="rgb(255 255 255 / 50%)" />
  <rect x="240" y="260" width="30" height="30" fill="hsl(240 100% 87.01806371952392%)" />
  <rect x="310" y="260" width="30" height="30" fill="rgb(255 255 255 / 50%)" />
  <rect x="415" y="260" width="30" height="30" fill="hsl(240 100% 80.55188595276158%)" />
  <rect x="450" y="260" width="30" height="30" fill="rgb(255 255 255 / 50%)" />
  <rect x="485" y="260" width="30" height="30" fill="hsl(240 100% 50%)" />
  <rect x="520" y="260" width="30" height="30" fill="hsl(240 100% 71.00714050128002%)" />
  <rect x="625" y="260" width="30" height="30" fill="hsl(240 100% 97.07402806013773%)" />
  <rect x="695" y="260" width="30" height="30" fill="hsl(240 100% 94.08636791536439%)" />
  <rect x="65" y="295" width="30" height="30" fill="hsl(240 100% 85.96774166429171%)" />
  <rect x="100" y="295" width="30" height="30" fill="hsl(240 100% 97.57506261859824%)" />
  <rect x="135" y="295" width="30" height="30" fill="hsl(240 100% 95.12650876078288%)" />
  <rect x="170" y="295" width="30" height="30" fill="hsl(240 100% 90.66505436011792%)" />
  <rect x="205" y="295" width="30" height="30" fill="hsl(240 100% 99.46875714013215%)" />
  <rect x="240" y="295" width="30" height="30" fill="hsl(240 100% 50.58896579081362%)" />
  <rect x="275" y="295" width="30" height="30" fill="hsl(240 100% 50%)" />
  <rect x="310" y="295" width="30" height="30" fill="hsl(240 100% 99.49941687815809%)" />
  <rect x="345" y="295" width="30" height="30" fill="hsl(240 100% 94.69397969396454%)" />
  <rect x="415" y="295" width="30" height="30" fill="hsl(240 100% 55.18642025182871%)" />
  <rect x="450" y="295" width="30" height="30" fill="hsl(240 100% 99.33029282383711%)" />
  <rect x="485" y="295" width="30" height="30" fill="hsl(240 100% 88.13503231167635%)" />
  <rect x="520" y="295" width="30" height="30" fill="hsl(240 100% 57.836169994374366%)" />
  <rect x="695" y="295" width="30" height="30" fill="hsl(240 100% 97.60969867532287%)" />
  <rect x="800" y="295" width="30" height="30" fill="hsl(240 100% 99.56683330852391%)" />
  <rect x="835" y="295" width="30" height="30" fill="hsl(240 100% 99.95811537315906%)" />
  <rect x="65" y="330" width="30" height="30" fill="hsl(240 100% 89.06317046543495%)" />
  <rect x="100" y="330" width="30" height="30" fill="hsl(240 100% 94.89698057972495%)" />
  <rect x="135" y="330" width="30" height="30" fill="hsl(240 100% 97.29003691231374%)" />
  <rect x="170" y="330" width="30" height="30" fill="hsl(240 100% 88.78626846240753%)" />
  <rect x="205" y="330" width="30" height="30" fill="hsl(240 100% 99.2272881333619%)" />
  <rect x="240" y="330" width="30" height="30" fill="hsl(240 100% 80.24530188874301%)" />
  <rect x="275" y="330" width="30" height="30" fill="hsl(240 100% 88.69576943495103%)" />
  <rect x="310" y="330" width="30" height="30" fill="rgb(255 255 255 / 50%)" />
  <rect x="345" y="330" width="30" height="30" fill="hsl(240 100% 97.30834882081152%)" />
  <rect x="415" y="330" width="30" height="30" fill="hsl(240 100% 86.42634850575213%)" />
  <rect x="450" y="330" width="30" height="30" fill="hsl(240 100% 99.82025673364954%)" />
  <rect x="485" y="330" width="30" height="30" fill="hsl(240 100% 72.81157598068744%)" />
  <rect x="520" y="330" width="30" height="30" fill="hsl(240 100% 77.32763795140461%)" />
  <rect x="590" y="330" width="30" height="30" fill="hsl(240 100% 93.96311575735379%)" />
  <rect x="625" y="330" width="30" height="30" fill="hsl(240 100% 50%)" />
  <rect x="765" y="330" width="30" height="30" fill="hsl(240 100% 94.58338255270837%)" />
  <rect x="800" y="330" width="30" height="30" fill="hsl(240 100% 99.24827548564213%)" />
  <rect x="835" y="330" width="30" height="30" fill="hsl(240 100% 81.8428836522161%)" />
  <rect x="65" y="365" width="30" height="30" fill="hsl(240 100% 57.61359226560474%)" />
  <rect x="100" y="365" width="30" height="30" fill="hsl(240 100% 72.21208331018077%)" />
  <rect x="135" y="365" width="30" height="30" fill="hsl(240 100% 82.38490846123518%)" />
  <rect x="170" y="365" width="30" height="30" fill="hsl(240 100% 50%)" />
  <rect x="205" y="365" width="30" height="30" fill="hsl(240 100% 96.19780672412598%)" />
  <rect x="240" y="365" width="30" height="30" fill="hsl(240 100% 59.613398302044104%)" />
  <rect x="275" y="365" width="30" height="30" fill="hsl(240 100% 92.55734661261494%)" />
  <rect x="310" y="365" width="30" height="30" fill="hsl(240 100% 99.86193666370632%)" />
  <rect x="415" y="365" width="30" height="30" fill="hsl(240 100% 66.5651631533072%)" />
  <rect x="520" y="365" width="30" height="30" fill="hsl(240 100% 85.96695846612135%)" />
  <rect x="625" y="365" width="30" height="30" fill="hsl(240 100% 99.62615583698793%)" />
  <rect x="730" y="365" width="30" height="30" fill="hsl(240 100% 63.99299317690333%)" />
  <rect x="765" y="365" width="30" height="30" fill="hsl(240 100% 98.15524905317966%)" />
  <rect x="835" y="365" width="30" height="30" fill="hsl(240 100% 98.73974775913445%)" />
  <rect x="65" y="400" width="30" height="30" fill="hsl(240 100% 98.16584757258909%)" />
  <rect x="100" y="400" width="30" height="30" fill="hsl(240 100% 99.40100763562037%)" />
  <rect x="135" y="400" width="30" height="30" fill="hsl(240 100% 99.6731922283368%)" />
  <rect x="170" y="400" width="30" height="30" fill="hsl(240 100% 95.63313491115271%)" />
  <rect x="205" y="400" width="30" height="30" fill="hsl(240 100% 99.24327469963815%)" />
  <rect x="240" y="400" width="30" height="30" fill="hsl(240 100% 86.04702259095886%)" />
  <rect x="275" y="400" width="30" height="30" fill="hsl(240 100% 95.4583101161288%)" />
  <rect x="310" y="400" width="30" height="30" fill="rgb(255 255 255 / 50%)" />
  <rect x="380" y="400" width="30" height="30" fill="rgb(255 255 255 / 50%)" />
  <rect x="415" y="400" width="30" height="30" fill="hsl(240 100% 94.04516637152655%)" />
  <rect x="450" y="400" width="30" height="30" fill="hsl(240 100% 99.97099511977842%)" />
  <rect x="485" y="400" width="30" height="30" fill="hsl(240 100% 78.95306926300023%)" />
  <rect x="520" y="400" width="30" height="30" fill="hsl(240 100% 50%)" />
  <rect x="555" y="400" width="30" height="30" fill="hsl(240 100% 99.11741020908988%)" />
  <rect x="660" y="400" width="30" height="30" fill="rgb(255 255 255 / 50%)" />
  <rect x="835" y="400" width="30" height="30" fill="hsl(240 100% 99.16917125960883%)" />
  <rect x="65" y="435" width="30" height="30" fill="hsl(240 100% 92.85299762914248%)" />
  <rect x="240" y="435" width="30" height="30" fill="hsl(240 100% 50%)" />
  <rect x="310" y="435" width="30" height="30" fill="hsl(240 100% 94.33098162669553%)" />
  <rect x="415" y="435" width="30" height="30" fill="hsl(240 100% 87.19017787022383%)" />
  <rect x="450" y="435" width="30" height="30" fill="hsl(240 100% 99.80580812032115%)" />
  <rect x="65" y="470" width="30" height="30" fill="hsl(240 100% 50%)" />
  <rect x="240" y="470" width="30" height="30" fill="hsl(240 100% 50.288206410686506%)" />
  <rect x="310" y="470" width="30" height="30" fill="hsl(240 100% 97.17301209346692%)" />
  <rect x="415" y="470" width="30" height="30" fill="hsl(240 100% 89.09624086493122%)" />
  <rect x="450" y="470" width="30" height="30" fill="hsl(240 100% 99.58452194935653%)" />
</svg>
