<svg xmlns="http://www.w3.org/2000/svg" viewBox="0 0 660 470">
  <rect x="0" y="0" width="660" height="470" rx="5" ry="5" fill="#222" />
  <text x="60" y="100" fill="white" font-family="sans-serif" font-weight="bold" font-size="12" text-anchor="end" dominant-baseline="middle">ba</text>
  <text x="60" y="135" fill="white" font-family="sans-serif" font-weight="bold" font-size="12" text-anchor="end" dominant-baseline="middle">det</text>
  <text x="60" y="170" fill="white" font-family="sans-serif" font-weight="bold" font-size="12" text-anchor="end" dominant-baseline="middle">gmm</text>
  <text x="60" y="205" fill="white" font-family="sans-serif" font-weight="bold" font-size="12" text-anchor="end" dominant-baseline="middle">hello</text>
  <text x="60" y="240" fill="white" font-family="sans-serif" font-weight="bold" font-size="12" text-anchor="end" dominant-baseline="middle">ht</text>
  <text x="60" y="275" fill="white" font-family="sans-serif" font-weight="bold" font-size="12" text-anchor="end" dominant-baseline="middle">kmeans</text>
  <text x="60" y="310" fill="white" font-family="sans-serif" font-weight="bold" font-size="12" text-anchor="end" dominant-baseline="middle">llsq</text>
  <text x="60" y="345" fill="white" font-family="sans-serif" font-weight="bold" font-size="12" text-anchor="end" dominant-baseline="middle">lstm</text>
  <text x="60" y="380" fill="white" font-family="sans-serif" font-weight="bold" font-size="12" text-anchor="end" dominant-baseline="middle">ode</text>
  <text x="60" y="415" fill="white" font-family="sans-serif" font-weight="bold" font-size="12" text-anchor="end" dominant-baseline="middle">particle</text>
  <text x="60" y="450" fill="white" font-family="sans-serif" font-weight="bold" font-size="12" text-anchor="end" dominant-baseline="middle">saddle</text>
  <text x="80" y="80" fill="white" font-family="sans-serif" font-weight="bold" font-size="12" text-anchor="end" dominant-baseline="middle" transform="rotate(90 80 80)">adept</text>
  <text x="115" y="80" fill="white" font-family="sans-serif" font-weight="bold" font-size="12" text-anchor="end" dominant-baseline="middle" transform="rotate(90 115 80)">adol-c</text>
  <text x="150" y="80" fill="white" font-family="sans-serif" font-weight="bold" font-size="12" text-anchor="end" dominant-baseline="middle" transform="rotate(90 150 80)">codipack</text>
  <text x="185" y="80" fill="white" font-family="sans-serif" font-weight="bold" font-size="12" text-anchor="end" dominant-baseline="middle" transform="rotate(90 185 80)">cppad</text>
  <text x="220" y="80" fill="white" font-family="sans-serif" font-weight="bold" font-size="12" text-anchor="end" dominant-baseline="middle" transform="rotate(90 220 80)">enzyme</text>
  <text x="255" y="80" fill="white" font-family="sans-serif" font-weight="bold" font-size="12" text-anchor="end" dominant-baseline="middle" transform="rotate(90 255 80)">finite</text>
  <text x="290" y="80" fill="white" font-family="sans-serif" font-weight="bold" font-size="12" text-anchor="end" dominant-baseline="middle" transform="rotate(90 290 80)">floretta</text>
  <text x="325" y="80" fill="white" font-family="sans-serif" font-weight="bold" font-size="12" text-anchor="end" dominant-baseline="middle" transform="rotate(90 325 80)">futhark</text>
  <text x="360" y="80" fill="white" font-family="sans-serif" font-weight="bold" font-size="12" text-anchor="end" dominant-baseline="middle" transform="rotate(90 360 80)">haskell</text>
  <text x="395" y="80" fill="white" font-family="sans-serif" font-weight="bold" font-size="12" text-anchor="end" dominant-baseline="middle" transform="rotate(90 395 80)">jax</text>
  <text x="430" y="80" fill="white" font-family="sans-serif" font-weight="bold" font-size="12" text-anchor="end" dominant-baseline="middle" transform="rotate(90 430 80)">manual</text>
  <text x="465" y="80" fill="white" font-family="sans-serif" font-weight="bold" font-size="12" text-anchor="end" dominant-baseline="middle" transform="rotate(90 465 80)">ocaml</text>
  <text x="500" y="80" fill="white" font-family="sans-serif" font-weight="bold" font-size="12" text-anchor="end" dominant-baseline="middle" transform="rotate(90 500 80)">pytorch</text>
  <text x="535" y="80" fill="white" font-family="sans-serif" font-weight="bold" font-size="12" text-anchor="end" dominant-baseline="middle" transform="rotate(90 535 80)">scilean</text>
  <text x="570" y="80" fill="white" font-family="sans-serif" font-weight="bold" font-size="12" text-anchor="end" dominant-baseline="middle" transform="rotate(90 570 80)">tapenade</text>
  <text x="605" y="80" fill="white" font-family="sans-serif" font-weight="bold" font-size="12" text-anchor="end" dominant-baseline="middle" transform="rotate(90 605 80)">tensorflow</text>
  <text x="640" y="80" fill="white" font-family="sans-serif" font-weight="bold" font-size="12" text-anchor="end" dominant-baseline="middle" transform="rotate(90 640 80)">zygote</text>
  <rect x="65" y="85" width="30" height="30" fill="hsl(240 100% 83.40869456053483%)" />
  <rect x="100" y="85" width="30" height="30" fill="hsl(240 100% 97.83168633203084%)" />
  <rect x="135" y="85" width="30" height="30" fill="hsl(240 100% 89.12997344675428%)" />
  <rect x="205" y="85" width="30" height="30" fill="hsl(240 100% 51.15239463417382%)" />
  <rect x="240" y="85" width="30" height="30" fill="hsl(240 100% 92.67720455093065%)" />
  <rect x="310" y="85" width="30" height="30" fill="hsl(240 100% 68.77476281257226%)" />
  <rect x="415" y="85" width="30" height="30" fill="hsl(240 100% 50%)" />
  <rect x="485" y="85" width="30" height="30" fill="rgb(255 255 255 / 50%)" />
  <rect x="555" y="85" width="30" height="30" fill="hsl(240 100% 72.76800459090282%)" />
  <rect x="590" y="85" width="30" height="30" fill="rgb(255 255 255 / 50%)" />
  <rect x="65" y="120" width="30" height="30" fill="hsl(240 100% 89.22655281715312%)" />
  <rect x="100" y="120" width="30" height="30" fill="hsl(240 100% 90.68071208753608%)" />
  <rect x="135" y="120" width="30" height="30" fill="hsl(240 100% 67.7686133466022%)" />
  <rect x="170" y="120" width="30" height="30" fill="hsl(240 100% 50%)" />
  <rect x="205" y="120" width="30" height="30" fill="hsl(240 100% 94.48811608926226%)" />
  <rect x="240" y="120" width="30" height="30" fill="hsl(240 100% 99.32842230148556%)" />
  <rect x="310" y="120" width="30" height="30" fill="hsl(240 100% 96.52268274634193%)" />
  <rect x="345" y="120" width="30" height="30" fill="hsl(240 100% 98.63396263624035%)" />
  <rect x="415" y="120" width="30" height="30" fill="hsl(240 100% 86.73477943284662%)" />
  <rect x="65" y="155" width="30" height="30" fill="hsl(240 100% 98.23541016899722%)" />
  <rect x="100" y="155" width="30" height="30" fill="hsl(240 100% 98.76000680682876%)" />
  <rect x="135" y="155" width="30" height="30" fill="hsl(240 100% 97.09771578479119%)" />
  <rect x="170" y="155" width="30" height="30" fill="rgb(255 255 255 / 50%)" />
  <rect x="205" y="155" width="30" height="30" fill="hsl(240 100% 86.39159410335333%)" />
  <rect x="240" y="155" width="30" height="30" fill="rgb(255 255 255 / 50%)" />
  <rect x="310" y="155" width="30" height="30" fill="hsl(240 100% 89.5498800311955%)" />
  <rect x="380" y="155" width="30" height="30" fill="hsl(240 100% 68.13499718988157%)" />
  <rect x="415" y="155" width="30" height="30" fill="hsl(240 100% 74.65613192689064%)" />
  <rect x="450" y="155" width="30" height="30" fill="hsl(240 100% 99.34077492359457%)" />
  <rect x="485" y="155" width="30" height="30" fill="hsl(240 100% 50%)" />
  <rect x="520" y="155" width="30" height="30" fill="hsl(240 100% 92.8985204263507%)" />
  <rect x="555" y="155" width="30" height="30" fill="hsl(240 100% 75.34436257282428%)" />
  <rect x="590" y="155" width="30" height="30" fill="hsl(240 100% 87.66150672428148%)" />
  <rect x="65" y="190" width="30" height="30" fill="hsl(240 100% 50%)" />
  <rect x="100" y="190" width="30" height="30" fill="hsl(240 100% 50%)" />
  <rect x="135" y="190" width="30" height="30" fill="hsl(240 100% 50%)" />
  <rect x="170" y="190" width="30" height="30" fill="hsl(240 100% 50%)" />
  <rect x="205" y="190" width="30" height="30" fill="hsl(240 100% 50%)" />
  <rect x="240" y="190" width="30" height="30" fill="hsl(240 100% 50%)" />
  <rect x="275" y="190" width="30" height="30" fill="hsl(240 100% 50%)" />
  <rect x="310" y="190" width="30" height="30" fill="hsl(240 100% 50%)" />
  <rect x="345" y="190" width="30" height="30" fill="hsl(240 100% 50%)" />
  <rect x="380" y="190" width="30" height="30" fill="hsl(240 100% 50%)" />
  <rect x="415" y="190" width="30" height="30" fill="hsl(240 100% 50%)" />
  <rect x="450" y="190" width="30" height="30" fill="hsl(240 100% 50%)" />
  <rect x="485" y="190" width="30" height="30" fill="hsl(240 100% 50%)" />
  <rect x="520" y="190" width="30" height="30" fill="hsl(240 100% 50%)" />
  <rect x="555" y="190" width="30" height="30" fill="hsl(240 100% 50%)" />
  <rect x="590" y="190" width="30" height="30" fill="hsl(240 100% 50%)" />
  <rect x="625" y="190" width="30" height="30" fill="hsl(240 100% 50%)" />
  <rect x="65" y="225" width="30" height="30" fill="hsl(240 100% 96.09566893599465%)" />
  <rect x="100" y="225" width="30" height="30" fill="hsl(240 100% 96.36625087025502%)" />
  <rect x="135" y="225" width="30" height="30" fill="hsl(240 100% 88.60131875980838%)" />
  <rect x="205" y="225" width="30" height="30" fill="hsl(240 100% 90.54748312811881%)" />
  <rect x="240" y="225" width="30" height="30" fill="rgb(255 255 255 / 50%)" />
  <rect x="310" y="225" width="30" height="30" fill="hsl(240 100% 89.78448741404267%)" />
  <rect x="415" y="225" width="30" height="30" fill="hsl(240 100% 50%)" />
  <rect x="485" y="225" width="30" height="30" fill="rgb(255 255 255 / 50%)" />
  <rect x="555" y="225" width="30" height="30" fill="rgb(255 255 255 / 50%)" />
  <rect x="590" y="225" width="30" height="30" fill="rgb(255 255 255 / 50%)" />
  <rect x="100" y="260" width="30" height="30" fill="hsl(240 100% 99.87360412216539%)" />
  <rect x="135" y="260" width="30" height="30" fill="hsl(240 100% 99.42134553673685%)" />
  <rect x="170" y="260" width="30" height="30" fill="rgb(255 255 255 / 50%)" />
  <rect x="205" y="260" width="30" height="30" fill="hsl(240 100% 87.95198064249506%)" />
  <rect x="240" y="260" width="30" height="30" fill="rgb(255 255 255 / 50%)" />
  <rect x="310" y="260" width="30" height="30" fill="hsl(240 100% 82.78471751886723%)" />
  <rect x="345" y="260" width="30" height="30" fill="rgb(255 255 255 / 50%)" />
  <rect x="380" y="260" width="30" height="30" fill="hsl(240 100% 50%)" />
  <rect x="415" y="260" width="30" height="30" fill="hsl(240 100% 76.34008851352658%)" />
  <rect x="485" y="260" width="30" height="30" fill="hsl(240 100% 96.88893013603663%)" />
  <rect x="520" y="260" width="30" height="30" fill="hsl(240 100% 94.13313958046102%)" />
  <rect x="65" y="295" width="30" height="30" fill="hsl(240 100% 66.76279229492874%)" />
  <rect x="100" y="295" width="30" height="30" fill="hsl(240 100% 59.060066851842386%)" />
  <rect x="135" y="295" width="30" height="30" fill="hsl(240 100% 60.03218388835827%)" />
  <rect x="170" y="295" width="30" height="30" fill="hsl(240 100% 57.5537241954715%)" />
  <rect x="205" y="295" width="30" height="30" fill="hsl(240 100% 50%)" />
  <rect x="240" y="295" width="30" height="30" fill="hsl(240 100% 99.42780496065141%)" />
  <rect x="310" y="295" width="30" height="30" fill="hsl(240 100% 50.61391328910273%)" />
  <rect x="345" y="295" width="30" height="30" fill="hsl(240 100% 89.61425931956323%)" />
  <rect x="415" y="295" width="30" height="30" fill="hsl(240 100% 53.61906199424536%)" />
  <rect x="65" y="330" width="30" height="30" fill="hsl(240 100% 68.94204435182249%)" />
  <rect x="100" y="330" width="30" height="30" fill="hsl(240 100% 80.51677195565361%)" />
  <rect x="135" y="330" width="30" height="30" fill="hsl(240 100% 50%)" />
  <rect x="170" y="330" width="30" height="30" fill="hsl(240 100% 89.64949630699951%)" />
  <rect x="205" y="330" width="30" height="30" fill="hsl(240 100% 50.67436974150884%)" />
  <rect x="240" y="330" width="30" height="30" fill="hsl(240 100% 99.85162311447958%)" />
  <rect x="310" y="330" width="30" height="30" fill="hsl(240 100% 63.489045722582375%)" />
  <rect x="415" y="330" width="30" height="30" fill="hsl(240 100% 84.61498350121141%)" />
  <rect x="485" y="330" width="30" height="30" fill="hsl(240 100% 99.59973940626631%)" />
  <rect x="520" y="330" width="30" height="30" fill="hsl(240 100% 89.61512945094289%)" />
  <rect x="555" y="330" width="30" height="30" fill="hsl(240 100% 60.163553701381474%)" />
  <rect x="590" y="330" width="30" height="30" fill="hsl(240 100% 97.99783836978676%)" />
  <rect x="65" y="365" width="30" height="30" fill="hsl(240 100% 99.22656310445032%)" />
  <rect x="100" y="365" width="30" height="30" fill="hsl(240 100% 99.59202829300268%)" />
  <rect x="135" y="365" width="30" height="30" fill="hsl(240 100% 93.88898316088343%)" />
  <rect x="170" y="365" width="30" height="30" fill="hsl(240 100% 50%)" />
  <rect x="205" y="365" width="30" height="30" fill="hsl(240 100% 85.88746553602373%)" />
  <rect x="240" y="365" width="30" height="30" fill="rgb(255 255 255 / 50%)" />
  <rect x="310" y="365" width="30" height="30" fill="hsl(240 100% 95.55439128120693%)" />
  <rect x="345" y="365" width="30" height="30" fill="hsl(240 100% 99.9664402146755%)" />
  <rect x="415" y="365" width="30" height="30" fill="hsl(240 100% 51.57776938689927%)" />
  <rect x="205" y="400" width="30" height="30" fill="hsl(240 100% 50%)" />
  <rect x="240" y="400" width="30" height="30" fill="hsl(240 100% 95.22114632032287%)" />
  <rect x="310" y="400" width="30" height="30" fill="hsl(240 100% 87.90125864728113%)" />
  <rect x="345" y="400" width="30" height="30" fill="hsl(240 100% 99.77732669091169%)" />
  <rect x="205" y="435" width="30" height="30" fill="hsl(240 100% 50%)" />
  <rect x="240" y="435" width="30" height="30" fill="hsl(240 100% 95.82642678403995%)" />
  <rect x="310" y="435" width="30" height="30" fill="hsl(240 100% 89.14728332125637%)" />
  <rect x="345" y="435" width="30" height="30" fill="hsl(240 100% 99.5596875909977%)" />
</svg>
